<?xml version="1.0"?><svg xmlns="http://www.w3.org/2000/svg" xmlns:xlink= "http://www.w3.org/1999/xlink" style="background: white;" width="1500" height="300"> <g style="color: black; font-size: 13px; font-family: sans-serif; transform: translate(18px, 25px);"><g><circle r="3" cx="-6" cy="-5" style="fill: #1AD4B3" /><text>Borrow APR, variable</text></g><g style="transform: translateX(150px);"><circle r="3" cx="-6" cy="-5" style="fill: #101423" /><text>Borrow APR, stable</text></g></g><g class="visx-group" transform="translate(45, 50)"><g class="visx-group visx-rows" transform="translate(0, 0)"><line class="visx-line" x1="0" y1="155" x2="1425" y2="155" fill="transparent" shape-rendering="crispEdges" stroke="#F2F0F9" stroke-width="1" pointer-events="none"></line><line class="visx-line" x1="0" y1="84.54545454545453" x2="1425" y2="84.54545454545453" fill="transparent" shape-rendering="crispEdges" stroke="#F2F0F9" stroke-width="1" pointer-events="none"></line><line class="visx-line" x1="0" y1="14.090909090909095" x2="1425" y2="14.090909090909095" fill="transparent" shape-rendering="crispEdges" stroke="#F2F0F9" stroke-width="1" pointer-events="none"></line></g><path class="visx-linepath" d="M0,154.99999999647727C2.375,154.41287878582386,4.75,153.82575757517046,7.125,153.23863636363637C9.5,152.6515151521023,11.875,152.06439393939394,14.25,151.47727272727272C16.625,150.8901515151515,19,150.3030303030303,21.375,149.7159090909091C23.75,149.12878787878788,26.125,148.54166666666669,28.5,147.95454545454547C30.875,147.36742424242425,33.25,146.78030303030303,35.625,146.1931818181818C38,145.6060606060606,40.375,145.0189393939394,42.75,144.4318181818182C45.125,143.84469696969697,47.50000000000001,143.25757575757575,49.87500000000001,142.67045454545453C52.25000000000001,142.08333333333331,54.625,141.49621212121212,57,140.9090909090909C59.375,140.3219696969697,61.75,139.7348484848485,64.125,139.14772727272728C66.5,138.56060606060606,68.875,137.97348484848484,71.25,137.38636363636363C73.625,136.7992424242424,76,136.21212121212122,78.375,135.625C80.75,135.03787878787878,83.125,134.4507575757576,85.5,133.86363636363637C87.875,133.27651515151516,90.25,132.68939393939394,92.625,132.10227272727272C95,131.5151515151515,97.37500000000001,130.9280303030303,99.75000000000001,130.3409090909091C102.12500000000001,129.75378787878788,104.5,129.16666666666669,106.875,128.57954545454547C109.25,127.99242424242425,111.625,127.40530303030303,114,126.81818181818181C116.375,126.2310606060606,118.75000000000001,125.6439393939394,121.12500000000001,125.05681818181819C123.50000000000001,124.46969696969697,125.875,123.88257575757575,128.25,123.29545454545453C130.625,122.70833333333331,133,122.12121212121212,135.375,121.5340909090909C137.75,120.94696969696969,140.125,120.12239057239057,142.5,119.77272727272727C144.875,119.42306397306396,147.25,119.42306397306396,149.625,119.24823232323232C152,119.07340067340067,154.375,118.89856902356902,156.75,118.72373737373738C159.125,118.54890572390573,161.5,118.37407407407407,163.875,118.19924242424243C166.25,118.02441077441078,168.625,117.84957912457912,171,117.67474747474748C173.375,117.49991582491583,175.75,117.32508417508417,178.125,117.15025252525253C180.5,116.97542087542088,182.875,116.80058922558922,185.25,116.62575757575758C187.625,116.45092592592593,190,116.27609427609427,192.375,116.10126262626262C194.75,115.92643097643098,197.12500000000003,115.75159932659933,199.50000000000003,115.57676767676769C201.875,115.40193602693604,204.25,115.22710437710438,206.62499999999997,115.05227272727274C208.99999999999997,114.87744107744109,211.375,114.70260942760945,213.75,114.52777777777779C216.125,114.35294612794614,218.5,114.17811447811447,220.875,114.00328282828282C223.25,113.82845117845117,225.625,113.65361952861953,228,113.47878787878788C230.375,113.30395622895624,232.75,113.12912457912456,235.125,112.95429292929292C237.5,112.77946127946127,239.87500000000003,112.60462962962964,242.25000000000003,112.429797979798C244.625,112.25496632996635,247,112.08013468013466,249.37499999999997,111.90530303030302C251.74999999999997,111.73047138047137,254.125,111.55563973063974,256.5,111.3808080808081C258.875,111.20597643097645,261.25,111.03114478114477,263.625,110.85631313131313C266,110.68148148148148,268.375,110.50664983164984,270.75,110.33181818181819C273.125,110.15698653198655,275.5,109.98215488215489,277.875,109.80732323232323C280.25,109.63249158249157,282.625,109.45765993265992,285,109.28282828282828C287.375,109.10799663299663,289.75,108.93316498316497,292.125,108.75833333333333C294.5,108.58350168350168,296.875,108.40867003367003,299.25,108.23383838383839C301.625,108.05900673400674,304,107.88417508417508,306.375,107.70934343434344C308.75,107.53451178451179,311.125,107.35968013468013,313.5,107.18484848484849C315.875,107.01001683501684,318.25,106.83518518518518,320.625,106.66035353535354C323,106.48552188552189,325.375,106.31069023569023,327.75,106.13585858585859C330.125,105.96102693602694,332.5,105.7861952861953,334.875,105.61136363636363C337.25,105.43653198653197,339.625,105.26170033670032,342,105.08686868686867C344.375,104.91203703703702,346.75,104.73720538720539,349.125,104.56237373737375C351.5,104.3875420875421,353.875,104.21271043771043,356.25,104.03787878787878C358.625,103.86304713804714,361,103.68821548821549,363.375,103.51338383838385C365.75,103.3385521885522,368.125,103.16372053872053,370.5,102.98888888888888C372.875,102.81405723905723,375.25,102.63922558922559,377.625,102.46439393939394C380,102.2895622895623,382.375,102.11473063973062,384.75,101.93989898989898C387.125,101.76506734006733,389.50000000000006,101.59023569023569,391.87500000000006,101.41540404040404C394.25000000000006,101.2405723905724,396.62500000000006,101.06574074074074,399.00000000000006,100.89090909090909C401.375,100.71607744107745,403.75,100.54124579124579,406.12499999999994,100.36641414141414C408.49999999999994,100.1915824915825,410.87499999999994,100.01675084175083,413.24999999999994,99.84191919191919C415.62499999999994,99.66708754208754,418,99.49225589225588,420.375,99.31742424242424C422.75,99.14259259259259,425.125,98.96776094276093,427.5,98.79292929292929C429.875,98.61809764309764,432.25,98.44326599326601,434.625,98.26843434343436C437,98.09360269360272,439.375,97.91877104377106,441.75,97.7439393939394C444.125,97.56910774410774,446.5,97.3942760942761,448.875,97.21944444444445C451.25,97.0446127946128,453.625,96.86978114478114,456,96.6949494949495C458.375,96.52011784511785,460.75,96.34528619528619,463.125,96.17045454545455C465.5,95.9956228956229,467.875,95.82079124579124,470.25,95.6459595959596C472.625,95.47112794612794,475.00000000000006,95.29629629629628,477.37500000000006,95.12146464646463C479.75000000000006,94.94663299663299,482.12500000000006,94.77180134680135,484.50000000000006,94.59696969696971C486.875,94.42213804713806,489.25,94.24730639730639,491.62499999999994,94.07247474747474C493.99999999999994,93.89764309764308,496.37499999999994,93.72281144781144,498.74999999999994,93.54797979797979C501.12499999999994,93.37314814814815,503.5,93.19831649831649,505.875,93.02348484848484C508.25,92.8486531986532,510.625,92.67382154882155,513,92.4989898989899C515.375,92.32415824915826,517.75,92.1493265993266,520.125,91.97449494949494C522.5,91.79966329966328,524.875,91.62483164983163,527.25,91.44999999999999C529.625,91.27516835016834,532,91.1003367003367,534.375,90.92550505050505C536.75,90.7506734006734,539.125,90.57584175084176,541.5,90.40101010101012C543.875,90.22617845117847,546.25,90.05134680134681,548.625,89.87651515151515C551,89.70168350168349,553.375,89.52685185185184,555.75,89.3520202020202C558.125,89.17718855218855,560.5,89.0023569023569,562.875,88.82752525252525C565.25,88.6526936026936,567.625,88.47786195286194,570,88.3030303030303C572.375,88.12819865319865,574.75,87.953367003367,577.125,87.77853535353536C579.5,87.60370370370372,581.875,87.42887205387204,584.25,87.2540404040404C586.625,87.07920875420875,589,86.9043771043771,591.375,86.72954545454546C593.75,86.55471380471381,596.125,86.37988215488214,598.5,86.2050505050505C600.875,86.03021885521885,603.25,85.8553872053872,605.625,85.68055555555556C608,85.50572390572391,610.375,85.33089225589225,612.75,85.1560606060606C615.125,84.98122895622896,617.5,84.80639730639732,619.875,84.63156565656567C622.25,84.45673400673402,624.625,84.28190235690238,627,84.10707070707072C629.375,83.93223905723906,631.75,83.75740740740741,634.125,83.58257575757575C636.5,83.4077441077441,638.875,83.23291245791245,641.25,83.0580808080808C643.625,82.88324915824916,646,82.70841750841751,648.375,82.53358585858587C650.75,82.35875420875422,653.125,82.18392255892255,655.5,82.0090909090909C657.875,81.83425925925926,660.25,81.65942760942762,662.625,81.48459595959598C665,81.30976430976433,667.375,81.13493265993266,669.75,80.96010101010101C672.125,80.78526936026937,674.5,80.61043771043772,676.875,80.43560606060608C679.25,80.26077441077443,681.625,80.08594276094277,684,79.91111111111111C686.375,79.73627946127945,688.75,79.5614478114478,691.125,79.38661616161616C693.5,79.21178451178451,695.875,79.03695286195286,698.25,78.86212121212121C700.625,78.68728956228956,703,78.51245791245793,705.375,78.33762626262629C707.75,78.16279461279464,710.125,77.98796296296298,712.5,77.81313131313132C714.875,77.63829966329966,717.25,77.46346801346802,719.625,77.28863636363637C722,77.11380471380473,724.375,76.93897306397307,726.75,76.76414141414142C729.125,76.58930976430977,731.5,76.41447811447811,733.875,76.23964646464647C736.25,76.06481481481482,738.625,75.88998316498318,741,75.71515151515152C743.375,75.54031986531986,745.75,75.36548821548821,748.125,75.19065656565655C750.5,75.0158249158249,752.875,74.84099326599325,755.25,74.6661616161616C757.625,74.49132996632996,760,74.31649831649833,762.375,74.14166666666668C764.75,73.96683501683503,767.125,73.79200336700336,769.5,73.61717171717171C771.875,73.44234006734006,774.2500000000001,73.26750841750841,776.6250000000001,73.09267676767676C779.0000000000001,72.91784511784512,781.3750000000001,72.74301346801346,783.7500000000001,72.56818181818181C786.1250000000001,72.39335016835017,788.5000000000001,72.21851851851851,790.8750000000001,72.04368686868686C793.2500000000001,71.86885521885522,795.6250000000001,71.69402356902356,798.0000000000001,71.51919191919191C800.375,71.34436026936027,802.75,71.16952861952863,805.1249999999999,70.99469696969699C807.4999999999999,70.81986531986534,809.8749999999999,70.64503367003368,812.2499999999999,70.47020202020202C814.6249999999999,70.29537037037036,816.9999999999999,70.12053872053872,819.3749999999999,69.94570707070707C821.7499999999999,69.77087542087543,824.1249999999999,69.59604377104378,826.4999999999999,69.42121212121214C828.8749999999999,69.24638047138049,831.25,69.07154882154883,833.625,68.89671717171717C836,68.72188552188553,838.375,68.54705387205388,840.75,68.37222222222222C843.125,68.19739057239056,845.5,68.0225589225589,847.875,67.84772727272725C850.25,67.67289562289561,852.625,67.49806397306398,855,67.32323232323233C857.375,67.14840067340069,859.75,66.97356902356903,862.125,66.79873737373738C864.5,66.62390572390574,866.875,66.44907407407408,869.25,66.27424242424243C871.625,66.09941077441079,874,65.92457912457913,876.375,65.74974747474748C878.75,65.57491582491583,881.125,65.40008417508419,883.5,65.22525252525253C885.875,65.05042087542087,888.25,64.87558922558921,890.625,64.70075757575756C893,64.52592592592592,895.375,64.35109427609429,897.75,64.17626262626264C900.125,64.001430976431,902.5,63.826599326599336,904.875,63.65176767676768C907.25,63.47693602693603,909.625,63.30210437710437,912,63.12727272727272C914.375,62.952441077441065,916.75,62.77760942760943,919.125,62.602777777777774C921.5,62.42794612794612,923.875,62.253114478114455,926.25,62.07828282828281C928.625,61.903451178451164,931,61.72861952861954,933.375,61.553787878787894C935.75,61.37895622895625,938.125,61.204124579124596,940.5,61.02929292929294C942.875,60.85446127946129,945.25,60.67962962962963,947.625,60.50479797979798C950,60.329966329966325,952.3750000000001,60.15513468013468,954.7500000000001,59.98030303030303C957.1250000000001,59.80547138047138,959.5000000000001,59.63063973063973,961.8750000000001,59.45580808080808C964.2500000000001,59.28097643097644,966.6250000000001,59.106144781144785,969.0000000000001,58.93131313131313C971.3750000000001,58.75648148148148,973.7500000000001,58.581649831649834,976.1250000000001,58.40681818181818C978.5,58.231986531986536,980.875,58.05715488215488,983.2499999999999,57.88232323232324C985.6249999999999,57.707491582491585,987.9999999999999,57.532659932659925,990.3749999999999,57.35782828282827C992.7499999999999,57.18299663299662,995.1249999999999,57.00816498316497,997.4999999999999,56.83333333333332C999.8749999999999,56.658501683501676,1002.2499999999999,56.48367003367005,1004.6249999999999,56.308838383838406C1006.9999999999999,56.13400673400676,1009.375,55.959175084175094,1011.75,55.78434343434344C1014.125,55.60951178451179,1016.5,55.43468013468014,1018.875,55.25984848484849C1021.25,55.08501683501684,1023.625,54.91018518518518,1026,54.735353535353525C1028.375,54.56052188552187,1030.75,54.38569023569023,1033.125,54.21085858585858C1035.5,54.036026936026936,1037.875,53.8611952861953,1040.25,53.686363636363645C1042.625,53.51153198653199,1045,53.33670033670033,1047.375,53.16186868686868C1049.75,52.98703703703703,1052.125,52.81220538720538,1054.5,52.637373737373736C1056.875,52.46254208754209,1059.25,52.28771043771044,1061.625,52.112878787878785C1064,51.93804713804713,1066.375,51.76321548821548,1068.75,51.588383838383834C1071.125,51.41355218855219,1073.5,51.23872053872055,1075.875,51.063888888888904C1078.25,50.88905723905726,1080.625,50.714225589225606,1083,50.53939393939395C1085.375,50.3645622895623,1087.75,50.18973063973064,1090.125,50.01489898989899C1092.5,49.840067340067336,1094.875,49.66523569023569,1097.25,49.49040404040404C1099.625,49.315572390572385,1102,49.14074074074074,1104.375,48.96590909090909C1106.75,48.79107744107745,1109.125,48.616245791245795,1111.5,48.44141414141414C1113.875,48.26658249158249,1116.25,48.091750841750844,1118.625,47.91691919191919C1121,47.74208754208754,1123.375,47.56725589225588,1125.75,47.39242424242423C1128.125,47.217592592592574,1130.5,47.042760942760935,1132.875,46.86792929292928C1135.25,46.69309764309763,1137.625,46.51826599326598,1140,46.34343434343433C1142.375,46.168602693602686,1144.75,45.99377104377105,1147.125,45.8189393939394C1149.5,45.64410774410776,1151.875,45.469276094276104,1154.25,45.29444444444445C1156.625,45.1196127946128,1159,44.94478114478115,1161.375,44.7699494949495C1163.75,44.59511784511785,1166.125,44.42028619528619,1168.5,44.245454545454535C1170.875,44.07062289562288,1173.25,43.89579124579124,1175.625,43.72095959595959C1178,43.546127946127946,1180.375,43.37129629629631,1182.75,43.196464646464655C1185.125,43.021632996633,1187.5,42.84680134680134,1189.875,42.67196969696969C1192.25,42.49713804713804,1194.625,42.3223063973064,1197,42.147474747474746C1199.375,41.97264309764309,1201.75,41.797811447811426,1204.125,41.62297979797978C1206.5,41.448148148148135,1208.875,41.27331649831651,1211.25,41.098484848484865C1213.625,40.92365319865322,1216,40.74882154882157,1218.375,40.573989898989915C1220.75,40.39915824915826,1223.125,40.2243265993266,1225.5,40.04949494949495C1227.875,39.8746632996633,1230.25,39.69983164983165,1232.625,39.525C1235,39.350168350168346,1237.375,39.1753367003367,1239.75,39.000505050505055C1242.125,38.82567340067341,1244.5,38.65084175084176,1246.875,38.476010101010104C1249.25,38.30117845117845,1251.625,38.1263468013468,1254,37.95151515151515C1256.375,37.77668350168351,1258.75,37.60185185185186,1261.125,37.42702020202021C1263.5,37.25218855218856,1265.875,37.0773569023569,1268.25,36.902525252525244C1270.625,36.72769360269359,1273,36.552861952861946,1275.375,36.37803030303029C1277.75,36.20319865319864,1280.125,36.02836700336699,1282.5,35.85353535353534C1284.875,35.6787037037037,1287.25,35.50387205387206,1289.625,35.32904040404041C1292,35.15420875420877,1294.375,34.979377104377114,1296.75,34.80454545454546C1299.125,34.62971380471381,1301.5,34.45488215488215,1303.875,34.2800505050505C1306.25,34.105218855218844,1308.625,33.93038720538719,1311,33.755555555555546C1313.375,33.5807239057239,1315.75,33.40589225589227,1318.125,33.231060606060616C1320.5,33.05622895622896,1322.875,32.881397306397304,1325.25,32.70656565656565C1327.625,32.531734006734,1330,32.35690235690235,1332.375,32.1820707070707C1334.75,32.00723905723905,1337.125,31.83240740740741,1339.5,31.657575757575756C1341.875,31.482744107744104,1344.25,31.307912457912433,1346.625,31.133080808080788C1349,30.958249158249142,1351.375,30.78341750841752,1353.75,30.608585858585876C1356.125,30.43375420875423,1358.5,30.258922558922578,1360.875,30.084090909090925C1363.25,29.909259259259272,1365.625,29.734427609427613,1368,29.55959595959596C1370.375,29.384764309764307,1372.75,29.20993265993266,1375.125,29.035101010101013C1377.5,28.860269360269363,1379.875,28.685437710437714,1382.25,28.510606060606065C1384.625,28.335774410774416,1387,28.160942760942763,1389.375,27.986111111111114C1391.75,27.811279461279465,1394.125,27.63644781144782,1396.5,27.461616161616167C1398.875,27.286784511784514,1401.25,27.111952861952854,1403.625,26.937121212121202C1406,26.76228956228955,1408.375,26.5874579124579,1410.75,26.41262626262625C1413.125,26.237794612794602,1415.5,26.06296296296295,1417.875,25.888131313131304C1420.25,25.713299663299658,1422.625,25.538468013468012,1425,25.36363636363637" fill="transparent" stroke-linecap="round" stroke="#1AD4B3" stroke-width="2"></path><g class="visx-group visx-axis visx-axis-bottom" transform="translate(0, 155)"><g class="visx-group visx-axis-tick" transform="translate(0, 0)"><line class="visx-line" x1="0" y1="0" x2="0" y2="8" fill="transparent" shape-rendering="crispEdges" stroke="#F2F0F9" stroke-width="1" stroke-linecap="square"></line><svg x="0" y="0" font-size="11" style="overflow:visible"><text transform="" x="0" y="19" fill="#1B2030" font-size="11" text-anchor="middle"><tspan x="0" dy="0em">0%</tspan></text></svg></g><g class="visx-group visx-axis-tick" transform="translate(0, 0)"><line class="visx-line" x1="356.25" y1="0" x2="356.25" y2="8" fill="transparent" shape-rendering="crispEdges" stroke="#F2F0F9" stroke-width="1" stroke-linecap="square"></line><svg x="0" y="0" font-size="11" style="overflow:visible"><text transform="" x="356.25" y="19" fill="#1B2030" font-size="11" text-anchor="middle"><tspan x="356.25" dy="0em">25%</tspan></text></svg></g><g class="visx-group visx-axis-tick" transform="translate(0, 0)"><line class="visx-line" x1="712.5" y1="0" x2="712.5" y2="8" fill="transparent" shape-rendering="crispEdges" stroke="#F2F0F9" stroke-width="1" stroke-linecap="square"></line><svg x="0" y="0" font-size="11" style="overflow:visible"><text transform="" x="712.5" y="19" fill="#1B2030" font-size="11" text-anchor="middle"><tspan x="712.5" dy="0em">50%</tspan></text></svg></g><g class="visx-group visx-axis-tick" transform="translate(0, 0)"><line class="visx-line" x1="1068.75" y1="0" x2="1068.75" y2="8" fill="transparent" shape-rendering="crispEdges" stroke="#F2F0F9" stroke-width="1" stroke-linecap="square"></line><svg x="0" y="0" font-size="11" style="overflow:visible"><text transform="" x="1068.75" y="19" fill="#1B2030" font-size="11" text-anchor="middle"><tspan x="1068.75" dy="0em">75%</tspan></text></svg></g><g class="visx-group visx-axis-tick" transform="translate(0, 0)"><line class="visx-line" x1="1425" y1="0" x2="1425" y2="8" fill="transparent" shape-rendering="crispEdges" stroke="#F2F0F9" stroke-width="1" stroke-linecap="square"></line><svg x="0" y="0" font-size="11" style="overflow:visible"><text transform="" x="1425" y="19" fill="#1B2030" font-size="11" text-anchor="middle"><tspan x="1425" dy="0em">100%</tspan></text></svg></g></g><g class="visx-group visx-axis visx-axis-left" transform="translate(0, 0)"><g class="visx-group visx-axis-tick" transform="translate(0, 0)"><line class="visx-line" x1="0" y1="155" x2="-8" y2="155" fill="transparent" shape-rendering="crispEdges" stroke="#F2F0F9" stroke-width="1" stroke-linecap="square"></line><svg x="-30" y="0" font-size="11" style="overflow:visible"><text transform="" x="-8" y="155" fill="#1B2030" font-size="11" text-anchor="start"><tspan x="-8" dy="0em">0%</tspan></text></svg></g><g class="visx-group visx-axis-tick" transform="translate(0, 0)"><line class="visx-line" x1="0" y1="84.54545454545453" x2="-8" y2="84.54545454545453" fill="transparent" shape-rendering="crispEdges" stroke="#F2F0F9" stroke-width="1" stroke-linecap="square"></line><svg x="-30" y="0" font-size="11" style="overflow:visible"><text transform="" x="-8" y="84.54545454545453" fill="#1B2030" font-size="11" text-anchor="start"><tspan x="-8" dy="0em">100%</tspan></text></svg></g><g class="visx-group visx-axis-tick" transform="translate(0, 0)"><line class="visx-line" x1="0" y1="14.090909090909095" x2="-8" y2="14.090909090909095" fill="transparent" shape-rendering="crispEdges" stroke="#F2F0F9" stroke-width="1" stroke-linecap="square"></line><svg x="-30" y="0" font-size="11" style="overflow:visible"><text transform="" x="-8" y="14.090909090909095" fill="#1B2030" font-size="11" text-anchor="start"><tspan x="-8" dy="0em">200%</tspan></text></svg></g><line class="visx-line visx-axis-line" x1="0" y1="155.5" x2="0" y2="0.5" fill="transparent" shape-rendering="crispEdges" stroke="#F2F0F9" stroke-width="1"></line></g><rect class="visx-bar" width="1425" height="155" fill="transparent"></rect><line class="visx-line" x1="142.5" y1="58" x2="142.5" y2="155" fill="transparent" shape-rendering="crispEdges" stroke="#CDC8E1" stroke-width="1" pointer-events="none" stroke-dasharray="5"></line><svg x="0" y="0" font-size="11px" style="overflow:visible"><text transform="" x="142.5" y="50" font-size="11px" fill="#555069" stroke="#FFFFFF" stroke-width="1px" text-anchor="middle"><tspan x="142.5" dy="0.355em">uOptimal 10%</tspan></text></svg><svg x="0" y="0" font-size="11px" style="overflow:visible"><text transform="" x="142.5" y="50" font-size="11px" fill="#CDC8E1" text-anchor="middle"><tspan x="142.5" dy="0.355em">uOptimal 10%</tspan></text></svg></g></svg>