<?xml version="1.0"?><svg xmlns="http://www.w3.org/2000/svg" xmlns:xlink= "http://www.w3.org/1999/xlink" style="background: white;" width="1500" height="185"> <g style="color: black; font-size: 13px; font-family: sans-serif; transform: translate(18px, 25px);"><g><circle r="3" cx="-6" cy="-5" style="fill: #B6509E" /><text>Borrow APR, variable</text></g><g style="transform: translateX(150px);"><circle r="3" cx="-6" cy="-5" style="fill: rgb(231, 198, 223)" /><text>Borrow APR, stable</text></g><g style="transform: translateX(290px);"><circle r="3" cx="-6" cy="-5" style="fill: rgb(0, 98, 210)" /><text>Utilization Rate</text></g></g><g class="visx-group" transform="translate(40, 50)"><g class="visx-group visx-rows" transform="translate(0, 0)"><line class="visx-line" x1="0" y1="115" x2="1450" y2="115" fill="transparent" shape-rendering="crispEdges" stroke="#000" stroke-width="1" stroke-dasharray="3,3" pointer-events="none"></line><line class="visx-line" x1="0" y1="62.72727272727272" x2="1450" y2="62.72727272727272" fill="transparent" shape-rendering="crispEdges" stroke="#000" stroke-width="1" stroke-dasharray="3,3" pointer-events="none"></line><line class="visx-line" x1="0" y1="10.454545454545459" x2="1450" y2="10.454545454545459" fill="transparent" shape-rendering="crispEdges" stroke="#000" stroke-width="1" stroke-dasharray="3,3" pointer-events="none"></line></g><path class="visx-linepath" d="M0,114.99999999980398C2.4166666666666665,114.9673295453402,4.833333333333334,114.93465909087642,7.25,114.90198863636364C9.666666666666666,114.86931818185086,12.083333333333334,114.83664772727272,14.5,114.80397727272727C16.916666666666668,114.77130681818181,19.333333333333332,114.73863636363636,21.75,114.7059659090909C24.166666666666668,114.67329545454545,26.583333333333332,114.640625,29,114.60795454545455C31.416666666666668,114.5752840909091,33.833333333333336,114.54261363636364,36.25,114.50994318181819C38.666666666666664,114.47727272727273,41.083333333333336,114.44460227272727,43.5,114.41193181818181C45.91666666666667,114.37926136363636,48.333333333333336,114.3465909090909,50.75000000000001,114.31392045454545C53.16666666666667,114.28125,55.583333333333336,114.24857954545455,58,114.2159090909091C60.416666666666664,114.18323863636364,62.833333333333336,114.15056818181817,65.25,114.11789772727272C67.66666666666667,114.08522727272727,70.08333333333333,114.05255681818181,72.5,114.01988636363636C74.91666666666667,113.9872159090909,77.33333333333333,113.95454545454545,79.75,113.921875C82.16666666666667,113.88920454545455,84.58333333333333,113.8565340909091,87,113.82386363636364C89.41666666666667,113.79119318181819,91.83333333333333,113.75852272727272,94.25,113.72585227272727C96.66666666666667,113.69318181818181,99.08333333333334,113.66051136363636,101.50000000000001,113.6278409090909C103.91666666666667,113.59517045454545,106.33333333333334,113.5625,108.75,113.52982954545455C111.16666666666667,113.4971590909091,113.58333333333333,113.46448863636363,116,113.43181818181817C118.41666666666667,113.39914772727272,120.83333333333334,113.36647727272727,123.25000000000001,113.33380681818181C125.66666666666667,113.30113636363636,128.08333333333334,113.2684659090909,130.5,113.23579545454545C132.91666666666666,113.203125,135.33333333333334,113.17045454545455,137.75,113.1377840909091C140.16666666666666,113.10511363636364,142.58333333333334,113.07244318181817,145,113.03977272727272C147.41666666666666,113.00710227272727,149.83333333333334,112.97443181818181,152.25,112.94176136363636C154.66666666666666,112.9090909090909,157.08333333333334,112.87642045454545,159.5,112.84375C161.91666666666666,112.81107954545455,164.33333333333334,112.77840909090908,166.75,112.74573863636363C169.16666666666666,112.71306818181817,171.58333333333334,112.68039772727272,174,112.64772727272727C176.41666666666666,112.61505681818181,178.83333333333334,112.58238636363636,181.25,112.5497159090909C183.66666666666666,112.51704545454545,186.08333333333334,112.48437499999999,188.5,112.45170454545453C190.91666666666666,112.41903409090908,193.33333333333334,112.38636363636364,195.75,112.35369318181819C198.16666666666669,112.32102272727273,200.58333333333334,112.28835227272727,203.00000000000003,112.25568181818181C205.41666666666669,112.22301136363636,207.83333333333331,112.19034090909092,210.24999999999997,112.15767045454547C212.66666666666666,112.12500000000001,215.08333333333331,112.09232954545455,217.5,112.0596590909091C219.91666666666666,112.02698863636364,222.33333333333334,111.99431818181819,224.75,111.96164772727273C227.16666666666666,111.92897727272728,229.58333333333334,111.89630681818183,232,111.86363636363637C234.41666666666666,111.83096590909092,236.83333333333334,111.79829545454545,239.25,111.765625C241.66666666666669,111.73295454545455,244.08333333333334,111.7002840909091,246.50000000000003,111.66761363636364C248.91666666666669,111.63494318181819,251.33333333333331,111.60227272727273,253.74999999999997,111.56960227272728C256.16666666666663,111.53693181818183,258.5833333333333,111.50426136363636,261,111.4715909090909C263.4166666666667,111.43892045454545,265.8333333333333,111.40625,268.25,111.37357954545455C270.6666666666667,111.3409090909091,273.0833333333333,111.30823863636364,275.5,111.27556818181819C277.9166666666667,111.24289772727273,280.3333333333333,111.21022727272728,282.75,111.17755681818183C285.1666666666667,111.14488636363637,287.5833333333333,111.1122159090909,290,111.07954545454545C292.4166666666667,111.046875,294.8333333333333,111.01420454545455,297.25,110.9815340909091C299.6666666666667,110.94886363636364,302.0833333333333,110.91619318181819,304.5,110.88352272727273C306.9166666666667,110.85085227272728,309.3333333333333,110.81818181818181,311.75,110.78551136363636C314.1666666666667,110.7528409090909,316.5833333333333,110.72017045454545,319,110.6875C321.4166666666667,110.65482954545455,323.8333333333333,110.6221590909091,326.25,110.58948863636364C328.6666666666667,110.55681818181819,331.0833333333333,110.52414772727273,333.5,110.49147727272728C335.9166666666667,110.45880681818183,338.3333333333333,110.42613636363636,340.75,110.3934659090909C343.1666666666667,110.36079545454545,345.5833333333333,110.328125,348,110.29545454545455C350.4166666666667,110.2627840909091,352.8333333333333,110.23011363636364,355.25,110.19744318181819C357.6666666666667,110.16477272727273,360.0833333333333,110.13210227272727,362.5,110.09943181818181C364.9166666666667,110.06676136363636,367.3333333333333,110.0340909090909,369.75,110.00142045454545C372.1666666666667,109.96875,374.5833333333333,109.93607954545455,377,109.9034090909091C379.4166666666667,109.87073863636364,381.8333333333333,109.83806818181819,384.25,109.80539772727273C386.6666666666667,109.77272727272728,389.0833333333333,109.74005681818181,391.5,109.70738636363636C393.9166666666667,109.6747159090909,396.33333333333337,109.64204545454545,398.75000000000006,109.609375C401.16666666666674,109.57670454545455,403.58333333333337,109.5440340909091,406.00000000000006,109.51136363636364C408.4166666666667,109.47869318181819,410.8333333333333,109.44602272727272,413.24999999999994,109.41335227272727C415.66666666666663,109.38068181818181,418.08333333333326,109.34801136363636,420.49999999999994,109.3153409090909C422.91666666666663,109.28267045454545,425.3333333333333,109.25,427.75,109.21732954545455C430.1666666666667,109.1846590909091,432.5833333333333,109.15198863636364,435,109.11931818181819C437.4166666666667,109.08664772727273,439.8333333333333,109.05397727272727,442.25,109.02130681818181C444.6666666666667,108.98863636363636,447.0833333333333,108.9559659090909,449.5,108.92329545454545C451.9166666666667,108.890625,454.3333333333333,108.85795454545455,456.75,108.8252840909091C459.1666666666667,108.79261363636364,461.5833333333333,108.75994318181817,464,108.72727272727272C466.4166666666667,108.69460227272727,468.8333333333333,108.66193181818181,471.25,108.62926136363636C473.6666666666667,108.5965909090909,476.0833333333333,108.56392045454545,478.5,108.53125C480.9166666666667,108.49857954545455,483.33333333333337,108.4659090909091,485.75000000000006,108.43323863636364C488.16666666666674,108.40056818181819,490.58333333333337,108.36789772727272,493.00000000000006,108.33522727272727C495.4166666666667,108.30255681818181,497.8333333333333,108.26988636363636,500.24999999999994,108.2372159090909C502.66666666666663,108.20454545454545,505.08333333333326,108.171875,507.49999999999994,108.13920454545455C509.91666666666663,108.1065340909091,512.3333333333333,108.07386363636363,514.75,108.04119318181817C517.1666666666666,108.00852272727272,519.5833333333334,107.97585227272727,522,107.94318181818181C524.4166666666666,107.91051136363636,526.8333333333334,107.8778409090909,529.25,107.84517045454545C531.6666666666666,107.8125,534.0833333333334,107.77982954545455,536.5,107.7471590909091C538.9166666666666,107.71448863636364,541.3333333333334,107.68181818181817,543.75,107.64914772727272C546.1666666666666,107.61647727272727,548.5833333333334,107.58380681818183,551,107.55113636363637C553.4166666666666,107.51846590909092,555.8333333333334,107.48579545454545,558.25,107.453125C560.6666666666666,107.42045454545455,563.0833333333334,107.38778409090908,565.5,107.35511363636363C567.9166666666666,107.32244318181817,570.3333333333334,107.28977272727272,572.75,107.25710227272727C575.1666666666666,107.22443181818181,577.5833333333334,107.19176136363637,580,107.15909090909092C582.4166666666666,107.12642045454547,584.8333333333334,107.09374999999999,587.25,107.06107954545453C589.6666666666666,107.02840909090908,592.0833333333334,106.99573863636364,594.5,106.96306818181819C596.9166666666666,106.93039772727273,599.3333333333334,106.89772727272727,601.75,106.86505681818181C604.1666666666666,106.83238636363636,606.5833333333334,106.79971590909092,609,106.76704545454547C611.4166666666666,106.73437500000001,613.8333333333334,106.70170454545455,616.25,106.6690340909091C618.6666666666666,106.63636363636364,621.0833333333334,106.60369318181819,623.5,106.57102272727273C625.9166666666666,106.53835227272728,628.3333333333334,106.50568181818183,630.75,106.47301136363637C633.1666666666666,106.44034090909092,635.5833333333334,106.40767045454545,638,106.375C640.4166666666666,106.34232954545455,642.8333333333334,106.3096590909091,645.25,106.27698863636364C647.6666666666666,106.24431818181819,650.0833333333334,106.21164772727273,652.5,106.17897727272728C654.9166666666666,106.14630681818183,657.3333333333334,106.11363636363636,659.75,106.0809659090909C662.1666666666666,106.04829545454545,664.5833333333334,106.015625,667,105.98295454545455C669.4166666666666,105.9502840909091,671.8333333333334,105.91761363636364,674.25,105.88494318181819C676.6666666666666,105.85227272727273,679.0833333333334,105.81960227272728,681.5,105.78693181818183C683.9166666666666,105.75426136363637,686.3333333333334,105.7215909090909,688.75,105.68892045454545C691.1666666666666,105.65625,693.5833333333334,105.62357954545455,696,105.5909090909091C698.4166666666666,105.55823863636364,700.8333333333334,105.52556818181819,703.25,105.49289772727273C705.6666666666666,105.46022727272728,708.0833333333334,105.42755681818181,710.5,105.39488636363636C712.9166666666666,105.3622159090909,715.3333333333334,105.32954545454545,717.75,105.296875C720.1666666666666,105.26420454545455,722.5833333333334,105.2315340909091,725,105.19886363636364C727.4166666666666,105.16619318181819,729.8333333333334,105.13352272727273,732.25,105.10085227272728C734.6666666666666,105.06818181818183,737.0833333333334,105.03551136363636,739.5,105.0028409090909C741.9166666666666,104.97017045454545,744.3333333333334,104.9375,746.75,104.90482954545455C749.1666666666666,104.8721590909091,751.5833333333334,104.83948863636364,754,104.80681818181819C756.4166666666666,104.77414772727273,758.8333333333334,104.74147727272727,761.25,104.70880681818181C763.6666666666666,104.67613636363636,766.0833333333334,104.6434659090909,768.5,104.61079545454545C770.9166666666666,104.578125,773.3333333333334,104.54545454545455,775.75,104.5127840909091C778.1666666666666,104.48011363636364,780.5833333333334,104.44744318181819,783,104.41477272727273C785.4166666666667,104.38210227272728,787.8333333333334,104.34943181818181,790.2500000000001,104.31676136363636C792.6666666666667,104.2840909090909,795.0833333333335,104.25142045454545,797.5000000000001,104.21875C799.9166666666667,104.18607954545455,802.3333333333335,104.1534090909091,804.7500000000001,104.12073863636364C807.1666666666667,104.08806818181819,809.5833333333335,104.05539772727272,812.0000000000001,104.02272727272727C814.4166666666667,103.99005681818181,816.8333333333333,103.95738636363636,819.2499999999999,103.9247159090909C821.6666666666665,103.89204545454545,824.0833333333333,103.859375,826.4999999999999,103.82670454545455C828.9166666666665,103.7940340909091,831.3333333333333,103.76136363636364,833.7499999999999,103.72869318181819C836.1666666666665,103.69602272727273,838.5833333333333,103.66335227272727,840.9999999999999,103.63068181818181C843.4166666666666,103.59801136363636,845.8333333333333,103.5653409090909,848.25,103.53267045454545C850.6666666666666,103.5,853.0833333333334,103.46732954545455,855.5,103.4346590909091C857.9166666666666,103.40198863636364,860.3333333333334,103.36931818181817,862.75,103.33664772727272C865.1666666666666,103.30397727272727,867.5833333333334,103.27130681818181,870,103.23863636363636C872.4166666666666,103.2059659090909,874.8333333333334,103.17329545454545,877.25,103.140625C879.6666666666666,103.10795454545455,882.0833333333334,103.0752840909091,884.5,103.04261363636364C886.9166666666666,103.00994318181819,889.3333333333334,102.97727272727272,891.75,102.94460227272727C894.1666666666666,102.91193181818181,896.5833333333334,102.87926136363636,899,102.8465909090909C901.4166666666666,102.81392045454545,903.8333333333334,102.78125,906.25,102.74857954545455C908.6666666666666,102.7159090909091,911.0833333333334,102.68323863636363,913.5,102.65056818181817C915.9166666666666,102.61789772727272,918.3333333333334,102.58522727272727,920.75,102.55255681818181C923.1666666666666,102.51988636363636,925.5833333333334,102.4872159090909,928,102.45454545454545C930.4166666666666,102.421875,932.8333333333334,102.38920454545455,935.25,102.3565340909091C937.6666666666666,102.32386363636364,940.0833333333334,102.29119318181817,942.5,102.25852272727272C944.9166666666666,102.22585227272727,947.3333333333334,102.19318181818181,949.75,102.16051136363636C952.1666666666666,102.1278409090909,954.5833333333334,102.09517045454545,957,102.0625C959.4166666666666,102.02982954545455,961.8333333333334,101.99715909090908,964.25,101.96448863636363C966.6666666666667,101.93181818181817,969.0833333333334,101.89914772727273,971.5000000000001,101.86647727272728C973.9166666666667,101.83380681818183,976.3333333333335,101.80113636363637,978.7500000000001,101.76846590909092C981.1666666666667,101.73579545454547,983.5833333333335,101.70312499999999,986.0000000000001,101.67045454545453C988.4166666666667,101.63778409090908,990.8333333333335,101.60511363636363,993.2500000000001,101.57244318181817C995.6666666666667,101.53977272727272,998.0833333333333,101.50710227272728,1000.4999999999999,101.47443181818183C1002.9166666666665,101.44176136363637,1005.3333333333333,101.40909090909092,1007.7499999999999,101.37642045454547C1010.1666666666665,101.34375000000001,1012.5833333333333,101.31107954545453,1014.9999999999999,101.27840909090908C1017.4166666666665,101.24573863636363,1019.8333333333333,101.21306818181817,1022.2499999999999,101.18039772727272C1024.6666666666665,101.14772727272727,1027.0833333333333,101.11505681818183,1029.5,101.08238636363637C1031.9166666666667,101.04971590909092,1034.3333333333333,101.01704545454545,1036.75,100.984375C1039.1666666666667,100.95170454545455,1041.5833333333333,100.9190340909091,1044,100.88636363636364C1046.4166666666667,100.85369318181819,1048.8333333333333,100.82102272727273,1051.25,100.78835227272728C1053.6666666666667,100.75568181818183,1056.0833333333333,100.72301136363636,1058.5,100.6903409090909C1060.9166666666667,100.65767045454545,1063.3333333333333,100.625,1065.75,100.59232954545455C1068.1666666666667,100.5596590909091,1070.5833333333333,100.52698863636363,1073,100.49431818181817C1075.4166666666667,100.46164772727272,1077.8333333333333,100.42897727272728,1080.25,100.39630681818183C1082.6666666666667,100.36363636363637,1085.0833333333333,100.3309659090909,1087.5,100.29829545454545C1089.9166666666667,100.265625,1092.3333333333333,100.23295454545455,1094.75,100.2002840909091C1097.1666666666667,100.16761363636364,1099.5833333333333,100.13494318181819,1102,100.10227272727273C1104.4166666666667,100.06960227272728,1106.8333333333333,100.03693181818181,1109.25,100.00426136363636C1111.6666666666667,99.9715909090909,1114.0833333333333,99.93892045454545,1116.5,99.90625C1118.9166666666667,99.87357954545455,1121.3333333333333,99.8409090909091,1123.75,99.80823863636364C1126.1666666666667,99.77556818181819,1128.5833333333333,99.74289772727273,1131,99.71022727272728C1133.4166666666667,99.67755681818183,1135.8333333333333,99.64488636363636,1138.25,99.6122159090909C1140.6666666666667,99.57954545454545,1143.0833333333333,99.546875,1145.5,99.51420454545455C1147.9166666666667,99.4815340909091,1150.3333333333333,99.44886363636364,1152.75,99.41619318181819C1155.1666666666667,99.38352272727273,1157.5833333333333,99.38352272727273,1160,99.31818181818181C1162.4166666666667,99.25284090909089,1164.8333333333333,97.92424242424244,1167.25,97.22727272727273C1169.6666666666667,96.53030303030303,1172.0833333333333,95.83333333333334,1174.5,95.13636363636364C1176.9166666666667,94.43939393939394,1179.3333333333333,93.74242424242425,1181.75,93.04545454545455C1184.1666666666667,92.34848484848484,1186.5833333333333,91.65151515151516,1189,90.95454545454545C1191.4166666666667,90.25757575757575,1193.8333333333333,89.56060606060606,1196.25,88.86363636363636C1198.6666666666667,88.16666666666666,1201.0833333333333,87.46969696969697,1203.5,86.77272727272727C1205.9166666666667,86.07575757575756,1208.3333333333333,85.37878787878788,1210.75,84.68181818181817C1213.1666666666667,83.98484848484847,1215.5833333333333,83.28787878787878,1218,82.5909090909091C1220.4166666666667,81.8939393939394,1222.8333333333333,81.19696969696969,1225.25,80.5C1227.6666666666667,79.80303030303031,1230.0833333333333,79.10606060606062,1232.5,78.40909090909092C1234.9166666666667,77.71212121212122,1237.3333333333333,77.01515151515152,1239.75,76.31818181818181C1242.1666666666667,75.62121212121211,1244.5833333333333,74.92424242424244,1247,74.22727272727273C1249.4166666666667,73.53030303030303,1251.8333333333333,72.83333333333333,1254.25,72.13636363636363C1256.6666666666667,71.43939393939392,1259.0833333333333,70.74242424242425,1261.5,70.04545454545455C1263.9166666666667,69.34848484848484,1266.3333333333333,68.65151515151514,1268.75,67.95454545454544C1271.1666666666667,67.25757575757574,1273.5833333333333,66.56060606060605,1276,65.86363636363636C1278.4166666666667,65.16666666666667,1280.8333333333333,64.46969696969697,1283.25,63.77272727272727C1285.6666666666667,63.07575757575758,1288.0833333333333,62.378787878787875,1290.5,61.68181818181818C1292.9166666666667,60.984848484848484,1295.3333333333333,60.28787878787879,1297.75,59.59090909090909C1300.1666666666667,58.8939393939394,1302.5833333333333,58.19696969696968,1305,57.499999999999986C1307.4166666666667,56.80303030303029,1309.8333333333333,56.106060606060616,1312.25,55.40909090909092C1314.6666666666667,54.712121212121225,1317.0833333333333,54.015151515151516,1319.5,53.31818181818182C1321.9166666666667,52.621212121212125,1324.3333333333333,51.92424242424242,1326.75,51.22727272727273C1329.1666666666667,50.53030303030303,1331.5833333333333,49.83333333333333,1334,49.13636363636363C1336.4166666666667,48.43939393939394,1338.8333333333333,47.742424242424235,1341.25,47.04545454545454C1343.6666666666667,46.348484848484844,1346.0833333333333,45.65151515151515,1348.5,44.95454545454545C1350.9166666666667,44.25757575757576,1353.3333333333333,43.560606060606055,1355.75,42.86363636363636C1358.1666666666667,42.166666666666664,1360.5833333333333,41.46969696969696,1363,40.772727272727266C1365.4166666666667,40.07575757575757,1367.8333333333333,39.37878787878787,1370.25,38.68181818181817C1372.6666666666667,37.98484848484848,1375.0833333333333,37.28787878787879,1377.5,36.59090909090909C1379.9166666666667,35.8939393939394,1382.3333333333333,35.1969696969697,1384.75,34.50000000000001C1387.1666666666667,33.80303030303031,1389.5833333333333,33.10606060606061,1392,32.409090909090914C1394.4166666666667,31.712121212121215,1396.8333333333333,31.015151515151516,1399.25,30.31818181818182C1401.6666666666667,29.621212121212125,1404.0833333333333,28.924242424242426,1406.5,28.22727272727273C1408.9166666666667,27.530303030303035,1411.3333333333333,26.833333333333336,1413.75,26.13636363636364C1416.1666666666667,25.439393939393945,1418.5833333333333,24.742424242424242,1421,24.045454545454547C1423.4166666666667,23.34848484848485,1425.8333333333333,22.651515151515156,1428.25,21.954545454545457C1430.6666666666667,21.257575757575758,1433.0833333333333,20.560606060606062,1435.5,19.863636363636363C1437.9166666666667,19.166666666666664,1440.3333333333333,18.46969696969697,1442.75,17.772727272727273C1445.1666666666667,17.075757575757578,1447.5833333333333,16.37878787878788,1450,15.68181818181818" fill="transparent" stroke-linecap="round" stroke="#B6509E" stroke-width="2"></path><path class="visx-linepath" d="M0,104.54545454542841C2.4166666666666665,104.54109848483324,4.833333333333334,104.53674242423807,7.25,104.53238636363636C9.666666666666666,104.52803030303465,12.083333333333334,104.52367424242424,14.5,104.51931818181818C16.916666666666668,104.51496212121212,19.333333333333332,104.51060606060605,21.75,104.50625C24.166666666666668,104.50189393939394,26.583333333333332,104.49753787878788,29,104.49318181818182C31.416666666666668,104.48882575757577,33.833333333333336,104.4844696969697,36.25,104.48011363636364C38.666666666666664,104.47575757575758,41.083333333333336,104.47140151515151,43.5,104.46704545454546C45.91666666666667,104.4626893939394,48.333333333333336,104.45833333333333,50.75000000000001,104.45397727272727C53.16666666666667,104.44962121212122,55.583333333333336,104.44526515151514,58,104.44090909090909C60.416666666666664,104.43655303030303,62.833333333333336,104.43219696969696,65.25,104.4278409090909C67.66666666666667,104.42348484848485,70.08333333333333,104.41912878787879,72.5,104.41477272727273C74.91666666666667,104.41041666666668,77.33333333333333,104.4060606060606,79.75,104.40170454545455C82.16666666666667,104.3973484848485,84.58333333333333,104.39299242424242,87,104.38863636363637C89.41666666666667,104.38428030303031,91.83333333333333,104.37992424242424,94.25,104.37556818181818C96.66666666666667,104.37121212121212,99.08333333333334,104.36685606060605,101.50000000000001,104.3625C103.91666666666667,104.35814393939394,106.33333333333334,104.35378787878787,108.75,104.34943181818181C111.16666666666667,104.34507575757576,113.58333333333333,104.34071969696969,116,104.33636363636363C118.41666666666667,104.33200757575757,120.83333333333334,104.32765151515152,123.25000000000001,104.32329545454546C125.66666666666667,104.3189393939394,128.08333333333334,104.31458333333332,130.5,104.31022727272726C132.91666666666666,104.3058712121212,135.33333333333334,104.30151515151515,137.75,104.29715909090909C140.16666666666666,104.29280303030303,142.58333333333334,104.28844696969696,145,104.2840909090909C147.41666666666666,104.27973484848485,149.83333333333334,104.2753787878788,152.25,104.27102272727274C154.66666666666666,104.26666666666668,157.08333333333334,104.26231060606061,159.5,104.25795454545455C161.91666666666666,104.2535984848485,164.33333333333334,104.24924242424242,166.75,104.24488636363637C169.16666666666666,104.24053030303031,171.58333333333334,104.23617424242424,174,104.23181818181818C176.41666666666666,104.22746212121213,178.83333333333334,104.22310606060606,181.25,104.21875C183.66666666666666,104.21439393939394,186.08333333333334,104.21003787878787,188.5,104.20568181818182C190.91666666666666,104.20132575757576,193.33333333333334,104.19696969696969,195.75,104.19261363636363C198.16666666666669,104.18825757575758,200.58333333333334,104.1839015151515,203.00000000000003,104.17954545454545C205.41666666666669,104.17518939393939,207.83333333333331,104.17083333333332,210.24999999999997,104.16647727272726C212.66666666666666,104.1621212121212,215.08333333333331,104.15776515151515,217.5,104.1534090909091C219.91666666666666,104.14905303030304,222.33333333333334,104.14469696969697,224.75,104.14034090909091C227.16666666666666,104.13598484848485,229.58333333333334,104.1316287878788,232,104.12727272727274C234.41666666666666,104.12291666666668,236.83333333333334,104.11856060606061,239.25,104.11420454545456C241.66666666666669,104.1098484848485,244.08333333333334,104.10549242424243,246.50000000000003,104.10113636363637C248.91666666666669,104.09678030303031,251.33333333333331,104.09242424242424,253.74999999999997,104.08806818181819C256.16666666666663,104.08371212121213,258.5833333333333,104.07935606060606,261,104.075C263.4166666666667,104.07064393939395,265.8333333333333,104.06628787878788,268.25,104.06193181818182C270.6666666666667,104.05757575757576,273.0833333333333,104.05321969696969,275.5,104.04886363636363C277.9166666666667,104.04450757575758,280.3333333333333,104.0401515151515,282.75,104.03579545454545C285.1666666666667,104.0314393939394,287.5833333333333,104.02708333333332,290,104.02272727272727C292.4166666666667,104.01837121212121,294.8333333333333,104.01401515151515,297.25,104.0096590909091C299.6666666666667,104.00530303030304,302.0833333333333,104.00094696969697,304.5,103.99659090909091C306.9166666666667,103.99223484848486,309.3333333333333,103.98787878787878,311.75,103.98352272727273C314.1666666666667,103.97916666666667,316.5833333333333,103.9748106060606,319,103.97045454545454C321.4166666666667,103.96609848484849,323.8333333333333,103.96174242424242,326.25,103.95738636363636C328.6666666666667,103.9530303030303,331.0833333333333,103.94867424242423,333.5,103.94431818181818C335.9166666666667,103.93996212121212,338.3333333333333,103.93560606060606,340.75,103.93125C343.1666666666667,103.92689393939395,345.5833333333333,103.92253787878788,348,103.91818181818182C350.4166666666667,103.91382575757576,352.8333333333333,103.9094696969697,355.25,103.90511363636364C357.6666666666667,103.90075757575758,360.0833333333333,103.89640151515151,362.5,103.89204545454545C364.9166666666667,103.8876893939394,367.3333333333333,103.88333333333333,369.75,103.87897727272727C372.1666666666667,103.87462121212121,374.5833333333333,103.87026515151516,377,103.8659090909091C379.4166666666667,103.86155303030304,381.8333333333333,103.85719696969697,384.25,103.85284090909092C386.6666666666667,103.84848484848486,389.0833333333333,103.84412878787879,391.5,103.83977272727273C393.9166666666667,103.83541666666667,396.33333333333337,103.8310606060606,398.75000000000006,103.82670454545455C401.16666666666674,103.82234848484849,403.58333333333337,103.81799242424242,406.00000000000006,103.81363636363636C408.4166666666667,103.8092803030303,410.8333333333333,103.80492424242424,413.24999999999994,103.80056818181818C415.66666666666663,103.79621212121212,418.08333333333326,103.79185606060605,420.49999999999994,103.7875C422.91666666666663,103.78314393939394,425.3333333333333,103.77878787878787,427.75,103.77443181818181C430.1666666666667,103.77007575757575,432.5833333333333,103.76571969696968,435,103.76136363636363C437.4166666666667,103.75700757575757,439.8333333333333,103.7526515151515,442.25,103.74829545454544C444.6666666666667,103.74393939393939,447.0833333333333,103.73958333333333,449.5,103.73522727272727C451.9166666666667,103.73087121212122,454.3333333333333,103.72651515151516,456.75,103.7221590909091C459.1666666666667,103.71780303030305,461.5833333333333,103.71344696969697,464,103.70909090909092C466.4166666666667,103.70473484848486,468.8333333333333,103.70037878787879,471.25,103.69602272727273C473.6666666666667,103.69166666666668,476.0833333333333,103.6873106060606,478.5,103.68295454545455C480.9166666666667,103.6785984848485,483.33333333333337,103.67424242424242,485.75000000000006,103.66988636363637C488.16666666666674,103.66553030303031,490.58333333333337,103.66117424242424,493.00000000000006,103.65681818181818C495.4166666666667,103.65246212121212,497.8333333333333,103.64810606060605,500.24999999999994,103.64375C502.66666666666663,103.63939393939394,505.08333333333326,103.63503787878787,507.49999999999994,103.63068181818181C509.91666666666663,103.62632575757576,512.3333333333333,103.62196969696969,514.75,103.61761363636363C517.1666666666666,103.61325757575757,519.5833333333334,103.6089015151515,522,103.60454545454544C524.4166666666666,103.60018939393939,526.8333333333334,103.59583333333333,529.25,103.59147727272727C531.6666666666666,103.58712121212122,534.0833333333334,103.58276515151515,536.5,103.57840909090909C538.9166666666666,103.57405303030303,541.3333333333334,103.56969696969698,543.75,103.56534090909092C546.1666666666666,103.56098484848486,548.5833333333334,103.5566287878788,551,103.55227272727274C553.4166666666666,103.54791666666668,555.8333333333334,103.54356060606061,558.25,103.53920454545455C560.6666666666666,103.5348484848485,563.0833333333334,103.53049242424242,565.5,103.52613636363637C567.9166666666666,103.52178030303031,570.3333333333334,103.51742424242424,572.75,103.51306818181818C575.1666666666666,103.50871212121213,577.5833333333334,103.50435606060606,580,103.5C582.4166666666666,103.49564393939394,584.8333333333334,103.49128787878787,587.25,103.48693181818182C589.6666666666666,103.48257575757576,592.0833333333334,103.47821969696969,594.5,103.47386363636363C596.9166666666666,103.46950757575758,599.3333333333334,103.4651515151515,601.75,103.46079545454545C604.1666666666666,103.45643939393939,606.5833333333334,103.45208333333333,609,103.44772727272728C611.4166666666666,103.44337121212122,613.8333333333334,103.43901515151515,616.25,103.4346590909091C618.6666666666666,103.43030303030304,621.0833333333334,103.42594696969697,623.5,103.42159090909091C625.9166666666666,103.41723484848485,628.3333333333334,103.41287878787878,630.75,103.40852272727273C633.1666666666666,103.40416666666667,635.5833333333334,103.3998106060606,638,103.39545454545454C640.4166666666666,103.39109848484848,642.8333333333334,103.38674242424241,645.25,103.38238636363636C647.6666666666666,103.3780303030303,650.0833333333334,103.37367424242424,652.5,103.36931818181819C654.9166666666666,103.36496212121213,657.3333333333334,103.36060606060606,659.75,103.35625C662.1666666666666,103.35189393939395,664.5833333333334,103.34753787878788,667,103.34318181818182C669.4166666666666,103.33882575757576,671.8333333333334,103.33446969696969,674.25,103.33011363636363C676.6666666666666,103.32575757575758,679.0833333333334,103.3214015151515,681.5,103.31704545454545C683.9166666666666,103.3126893939394,686.3333333333334,103.30833333333334,688.75,103.30397727272728C691.1666666666666,103.29962121212122,693.5833333333334,103.29526515151515,696,103.2909090909091C698.4166666666666,103.28655303030304,700.8333333333334,103.28219696969697,703.25,103.27784090909091C705.6666666666666,103.27348484848486,708.0833333333334,103.26912878787878,710.5,103.26477272727273C712.9166666666666,103.26041666666667,715.3333333333334,103.2560606060606,717.75,103.25170454545454C720.1666666666666,103.24734848484849,722.5833333333334,103.24299242424242,725,103.23863636363636C727.4166666666666,103.2342803030303,729.8333333333334,103.22992424242423,732.25,103.22556818181818C734.6666666666666,103.22121212121212,737.0833333333334,103.21685606060605,739.5,103.21249999999999C741.9166666666666,103.20814393939393,744.3333333333334,103.20378787878786,746.75,103.19943181818181C749.1666666666666,103.19507575757575,751.5833333333334,103.1907196969697,754,103.18636363636364C756.4166666666666,103.18200757575758,758.8333333333334,103.17765151515152,761.25,103.17329545454547C763.6666666666666,103.16893939393941,766.0833333333334,103.16458333333333,768.5,103.16022727272727C770.9166666666666,103.15587121212121,773.3333333333334,103.15151515151516,775.75,103.1471590909091C778.1666666666666,103.14280303030304,780.5833333333334,103.13844696969697,783,103.13409090909092C785.4166666666667,103.12973484848486,787.8333333333334,103.12537878787879,790.2500000000001,103.12102272727273C792.6666666666667,103.11666666666667,795.0833333333335,103.1123106060606,797.5000000000001,103.10795454545455C799.9166666666667,103.10359848484849,802.3333333333335,103.09924242424242,804.7500000000001,103.09488636363636C807.1666666666667,103.0905303030303,809.5833333333335,103.08617424242424,812.0000000000001,103.08181818181818C814.4166666666667,103.07746212121212,816.8333333333333,103.07310606060605,819.2499999999999,103.06875C821.6666666666665,103.06439393939394,824.0833333333333,103.06003787878787,826.4999999999999,103.05568181818181C828.9166666666665,103.05132575757575,831.3333333333333,103.0469696969697,833.7499999999999,103.04261363636364C836.1666666666665,103.03825757575758,838.5833333333333,103.03390151515151,840.9999999999999,103.02954545454546C843.4166666666666,103.0251893939394,845.8333333333333,103.02083333333333,848.25,103.01647727272727C850.6666666666666,103.01212121212122,853.0833333333334,103.00776515151516,855.5,103.0034090909091C857.9166666666666,102.99905303030305,860.3333333333334,102.99469696969696,862.75,102.9903409090909C865.1666666666666,102.98598484848485,867.5833333333334,102.98162878787879,870,102.97727272727273C872.4166666666666,102.97291666666668,874.8333333333334,102.96856060606059,877.25,102.96420454545454C879.6666666666666,102.95984848484848,882.0833333333334,102.95549242424242,884.5,102.95113636363637C886.9166666666666,102.94678030303031,889.3333333333334,102.94242424242424,891.75,102.93806818181818C894.1666666666666,102.93371212121212,896.5833333333334,102.92935606060605,899,102.925C901.4166666666666,102.92064393939394,903.8333333333334,102.91628787878787,906.25,102.91193181818181C908.6666666666666,102.90757575757576,911.0833333333334,102.9032196969697,913.5,102.89886363636364C915.9166666666666,102.89450757575759,918.3333333333334,102.89015151515152,920.75,102.88579545454546C923.1666666666666,102.8814393939394,925.5833333333334,102.87708333333333,928,102.87272727272727C930.4166666666666,102.86837121212122,932.8333333333334,102.86401515151515,935.25,102.85965909090909C937.6666666666666,102.85530303030303,940.0833333333334,102.85094696969696,942.5,102.8465909090909C944.9166666666666,102.84223484848485,947.3333333333334,102.83787878787878,949.75,102.83352272727272C952.1666666666666,102.82916666666667,954.5833333333334,102.8248106060606,957,102.82045454545454C959.4166666666666,102.81609848484848,961.8333333333334,102.81174242424241,964.25,102.80738636363635C966.6666666666667,102.8030303030303,969.0833333333334,102.79867424242423,971.5000000000001,102.79431818181817C973.9166666666667,102.78996212121211,976.3333333333335,102.78560606060606,978.7500000000001,102.78125C981.1666666666667,102.77689393939394,983.5833333333335,102.77253787878787,986.0000000000001,102.76818181818182C988.4166666666667,102.76382575757576,990.8333333333335,102.7594696969697,993.2500000000001,102.75511363636365C995.6666666666667,102.75075757575759,998.0833333333333,102.74640151515152,1000.4999999999999,102.74204545454546C1002.9166666666665,102.7376893939394,1005.3333333333333,102.73333333333333,1007.7499999999999,102.72897727272728C1010.1666666666665,102.72462121212122,1012.5833333333333,102.72026515151515,1014.9999999999999,102.7159090909091C1017.4166666666665,102.71155303030304,1019.8333333333333,102.70719696969697,1022.2499999999999,102.70284090909091C1024.6666666666665,102.69848484848485,1027.0833333333333,102.69412878787878,1029.5,102.68977272727273C1031.9166666666667,102.68541666666667,1034.3333333333333,102.6810606060606,1036.75,102.67670454545454C1039.1666666666667,102.67234848484848,1041.5833333333333,102.66799242424241,1044,102.66363636363636C1046.4166666666667,102.6592803030303,1048.8333333333333,102.65492424242423,1051.25,102.65056818181817C1053.6666666666667,102.64621212121212,1056.0833333333333,102.64185606060605,1058.5,102.63749999999999C1060.9166666666667,102.63314393939393,1063.3333333333333,102.62878787878788,1065.75,102.62443181818182C1068.1666666666667,102.62007575757576,1070.5833333333333,102.6157196969697,1073,102.61136363636365C1075.4166666666667,102.60700757575759,1077.8333333333333,102.60265151515152,1080.25,102.59829545454546C1082.6666666666667,102.59393939393941,1085.0833333333333,102.58958333333334,1087.5,102.58522727272728C1089.9166666666667,102.58087121212122,1092.3333333333333,102.57651515151515,1094.75,102.5721590909091C1097.1666666666667,102.56780303030304,1099.5833333333333,102.56344696969697,1102,102.55909090909091C1104.4166666666667,102.55473484848486,1106.8333333333333,102.55037878787878,1109.25,102.54602272727273C1111.6666666666667,102.54166666666667,1114.0833333333333,102.5373106060606,1116.5,102.53295454545454C1118.9166666666667,102.52859848484849,1121.3333333333333,102.52424242424242,1123.75,102.51988636363636C1126.1666666666667,102.5155303030303,1128.5833333333333,102.51117424242423,1131,102.50681818181818C1133.4166666666667,102.50246212121212,1135.8333333333333,102.49810606060605,1138.25,102.49374999999999C1140.6666666666667,102.48939393939393,1143.0833333333333,102.48503787878788,1145.5,102.48068181818182C1147.9166666666667,102.47632575757576,1150.3333333333333,102.4719696969697,1152.75,102.46761363636364C1155.1666666666667,102.46325757575758,1157.5833333333333,102.46325757575758,1160,102.45454545454545C1162.4166666666667,102.44583333333333,1164.8333333333333,101.14772727272727,1167.25,100.49431818181817C1169.6666666666667,99.84090909090908,1172.0833333333333,99.1875,1174.5,98.5340909090909C1176.9166666666667,97.88068181818181,1179.3333333333333,97.22727272727273,1181.75,96.57386363636364C1184.1666666666667,95.92045454545455,1186.5833333333333,95.26704545454545,1189,94.61363636363636C1191.4166666666667,93.96022727272727,1193.8333333333333,93.30681818181819,1196.25,92.6534090909091C1198.6666666666667,92,1201.0833333333333,91.3465909090909,1203.5,90.69318181818181C1205.9166666666667,90.03977272727272,1208.3333333333333,89.38636363636364,1210.75,88.73295454545455C1213.1666666666667,88.07954545454545,1215.5833333333333,87.42613636363636,1218,86.77272727272727C1220.4166666666667,86.11931818181817,1222.8333333333333,85.4659090909091,1225.25,84.8125C1227.6666666666667,84.1590909090909,1230.0833333333333,83.50568181818183,1232.5,82.85227272727273C1234.9166666666667,82.19886363636364,1237.3333333333333,81.54545454545455,1239.75,80.89204545454545C1242.1666666666667,80.23863636363636,1244.5833333333333,79.58522727272727,1247,78.93181818181817C1249.4166666666667,78.27840909090908,1251.8333333333333,77.625,1254.25,76.9715909090909C1256.6666666666667,76.31818181818181,1259.0833333333333,75.66477272727273,1261.5,75.01136363636364C1263.9166666666667,74.35795454545455,1266.3333333333333,73.70454545454545,1268.75,73.05113636363636C1271.1666666666667,72.39772727272727,1273.5833333333333,71.74431818181819,1276,71.0909090909091C1278.4166666666667,70.4375,1280.8333333333333,69.7840909090909,1283.25,69.13068181818181C1285.6666666666667,68.47727272727272,1288.0833333333333,67.82386363636364,1290.5,67.17045454545455C1292.9166666666667,66.51704545454545,1295.3333333333333,65.86363636363636,1297.75,65.21022727272727C1300.1666666666667,64.55681818181817,1302.5833333333333,63.90340909090909,1305,63.25000000000001C1307.4166666666667,62.59659090909092,1309.8333333333333,61.94318181818182,1312.25,61.28977272727273C1314.6666666666667,60.63636363636363,1317.0833333333333,59.98295454545455,1319.5,59.32954545454545C1321.9166666666667,58.67613636363636,1324.3333333333333,58.02272727272727,1326.75,57.36931818181819C1329.1666666666667,56.7159090909091,1331.5833333333333,56.062500000000014,1334,55.40909090909092C1336.4166666666667,54.75568181818183,1338.8333333333333,54.10227272727273,1341.25,53.44886363636363C1343.6666666666667,52.79545454545454,1346.0833333333333,52.142045454545446,1348.5,51.48863636363635C1350.9166666666667,50.83522727272726,1353.3333333333333,50.18181818181817,1355.75,49.528409090909086C1358.1666666666667,48.875,1360.5833333333333,48.221590909090914,1363,47.56818181818183C1365.4166666666667,46.91477272727274,1367.8333333333333,46.26136363636364,1370.25,45.60795454545455C1372.6666666666667,44.95454545454545,1375.0833333333333,44.30113636363635,1377.5,43.647727272727266C1379.9166666666667,42.99431818181818,1382.3333333333333,42.34090909090909,1384.75,41.68750000000001C1387.1666666666667,41.03409090909092,1389.5833333333333,40.38068181818182,1392,39.72727272727273C1394.4166666666667,39.07386363636363,1396.8333333333333,38.42045454545455,1399.25,37.76704545454545C1401.6666666666667,37.11363636363636,1404.0833333333333,36.46022727272728,1406.5,35.80681818181819C1408.9166666666667,35.15340909090909,1411.3333333333333,34.5,1413.75,33.84659090909091C1416.1666666666667,33.19318181818181,1418.5833333333333,32.53977272727272,1421,31.88636363636363C1423.4166666666667,31.23295454545454,1425.8333333333333,30.579545454545457,1428.25,29.926136363636367C1430.6666666666667,29.272727272727277,1433.0833333333333,28.61931818181818,1435.5,27.96590909090909C1437.9166666666667,27.3125,1440.3333333333333,26.659090909090914,1442.75,26.005681818181824C1445.1666666666667,25.352272727272734,1447.5833333333333,24.69886363636364,1450,24.045454545454547" fill="transparent" stroke-linecap="round" stroke="#E7C6DF" stroke-width="2"></path><g class="visx-group visx-axis visx-axis-bottom" transform="translate(0, 115)"><g class="visx-group visx-axis-tick" transform="translate(0, 0)"><line class="visx-line" x1="0" y1="0" x2="0" y2="8" fill="transparent" shape-rendering="crispEdges" stroke="#000" stroke-width="0" stroke-linecap="square"></line><svg x="0" y="0" font-size="10" style="overflow:visible"><text transform="" x="0" y="18" fill="#000" font-size="10" text-anchor="middle"><tspan x="0" dy="0em">0%</tspan></text></svg></g><g class="visx-group visx-axis-tick" transform="translate(0, 0)"><line class="visx-line" x1="362.5" y1="0" x2="362.5" y2="8" fill="transparent" shape-rendering="crispEdges" stroke="#000" stroke-width="0" stroke-linecap="square"></line><svg x="0" y="0" font-size="10" style="overflow:visible"><text transform="" x="362.5" y="18" fill="#000" font-size="10" text-anchor="middle"><tspan x="362.5" dy="0em">25%</tspan></text></svg></g><g class="visx-group visx-axis-tick" transform="translate(0, 0)"><line class="visx-line" x1="725" y1="0" x2="725" y2="8" fill="transparent" shape-rendering="crispEdges" stroke="#000" stroke-width="0" stroke-linecap="square"></line><svg x="0" y="0" font-size="10" style="overflow:visible"><text transform="" x="725" y="18" fill="#000" font-size="10" text-anchor="middle"><tspan x="725" dy="0em">50%</tspan></text></svg></g><g class="visx-group visx-axis-tick" transform="translate(0, 0)"><line class="visx-line" x1="1087.5" y1="0" x2="1087.5" y2="8" fill="transparent" shape-rendering="crispEdges" stroke="#000" stroke-width="0" stroke-linecap="square"></line><svg x="0" y="0" font-size="10" style="overflow:visible"><text transform="" x="1087.5" y="18" fill="#000" font-size="10" text-anchor="middle"><tspan x="1087.5" dy="0em">75%</tspan></text></svg></g><g class="visx-group visx-axis-tick" transform="translate(0, 0)"><line class="visx-line" x1="1450" y1="0" x2="1450" y2="8" fill="transparent" shape-rendering="crispEdges" stroke="#000" stroke-width="0" stroke-linecap="square"></line><svg x="0" y="0" font-size="10" style="overflow:visible"><text transform="" x="1450" y="18" fill="#000" font-size="10" text-anchor="middle"><tspan x="1450" dy="0em">100%</tspan></text></svg></g><line class="visx-line visx-axis-line" x1="0.5" y1="0" x2="1450.5" y2="0" fill="transparent" shape-rendering="crispEdges" stroke="#222" stroke-width="0"></line></g><g class="visx-group visx-axis visx-axis-left" transform="translate(0, 0)"><g class="visx-group visx-axis-tick" transform="translate(0, 0)"><line class="visx-line" x1="0" y1="115" x2="-8" y2="115" fill="transparent" shape-rendering="crispEdges" stroke="#222" stroke-width="0" stroke-linecap="square"></line><svg x="-30" y="0" font-size="8" style="overflow:visible"><text transform="" x="-8" y="115" fill="#000" font-size="8" text-anchor="start"><tspan x="-8" dy="0em">0%</tspan></text></svg></g><g class="visx-group visx-axis-tick" transform="translate(0, 0)"><line class="visx-line" x1="0" y1="62.72727272727272" x2="-8" y2="62.72727272727272" fill="transparent" shape-rendering="crispEdges" stroke="#222" stroke-width="0" stroke-linecap="square"></line><svg x="-30" y="0" font-size="8" style="overflow:visible"><text transform="" x="-8" y="62.72727272727272" fill="#000" font-size="8" text-anchor="start"><tspan x="-8" dy="0em">50%</tspan></text></svg></g><g class="visx-group visx-axis-tick" transform="translate(0, 0)"><line class="visx-line" x1="0" y1="10.454545454545459" x2="-8" y2="10.454545454545459" fill="transparent" shape-rendering="crispEdges" stroke="#222" stroke-width="0" stroke-linecap="square"></line><svg x="-30" y="0" font-size="8" style="overflow:visible"><text transform="" x="-8" y="10.454545454545459" fill="#000" font-size="8" text-anchor="start"><tspan x="-8" dy="0em">100%</tspan></text></svg></g><line class="visx-line visx-axis-line" x1="0" y1="115.5" x2="0" y2="0.5" fill="transparent" shape-rendering="crispEdges" stroke="#222" stroke-width="0"></line></g><rect class="visx-bar" width="1450" height="115" fill="transparent"></rect><line class="visx-line" x1="1160" y1="28" x2="1160" y2="115" fill="transparent" shape-rendering="crispEdges" stroke="#0062D2" stroke-width="1" pointer-events="none" stroke-dasharray="5,2"></line><svg x="0" y="0" font-size="10px" style="overflow:visible"><text transform="" x="1160" y="20" font-size="10px" fill="#fff" stroke="#fff" stroke-width="0.8em" text-anchor="middle"><tspan x="1160" dy="0.355em">Optimal 80%</tspan></text></svg><svg x="0" y="0" font-size="10px" style="overflow:visible"><text transform="" x="1160" y="20" font-size="10px" fill="#62677B" text-anchor="middle"><tspan x="1160" dy="0.355em">Optimal 80%</tspan></text></svg></g></svg>