<?xml version="1.0"?><svg xmlns="http://www.w3.org/2000/svg" xmlns:xlink= "http://www.w3.org/1999/xlink" style="background: white;" width="1500" height="185"> <g style="color: black; font-size: 13px; font-family: sans-serif; transform: translate(18px, 25px);"><g><circle r="3" cx="-6" cy="-5" style="fill: #B6509E" /><text>Borrow APR, variable</text></g><g style="transform: translateX(150px);"><circle r="3" cx="-6" cy="-5" style="fill: rgb(231, 198, 223)" /><text>Borrow APR, stable</text></g><g style="transform: translateX(290px);"><circle r="3" cx="-6" cy="-5" style="fill: rgb(0, 98, 210)" /><text>Utilization Rate</text></g></g><g class="visx-group" transform="translate(40, 50)"><g class="visx-group visx-rows" transform="translate(0, 0)"><line class="visx-line" x1="0" y1="115" x2="1450" y2="115" fill="transparent" shape-rendering="crispEdges" stroke="#000" stroke-width="1" stroke-dasharray="3,3" pointer-events="none"></line><line class="visx-line" x1="0" y1="70.76923076923077" x2="1450" y2="70.76923076923077" fill="transparent" shape-rendering="crispEdges" stroke="#000" stroke-width="1" stroke-dasharray="3,3" pointer-events="none"></line><line class="visx-line" x1="0" y1="26.538461538461533" x2="1450" y2="26.538461538461533" fill="transparent" shape-rendering="crispEdges" stroke="#000" stroke-width="1" stroke-dasharray="3,3" pointer-events="none"></line></g><path class="visx-linepath" d="M0,114.99999999994472C2.4166666666666665,114.990785256378,4.833333333333334,114.98157051281129,7.25,114.97235576923076C9.666666666666666,114.96314102565023,12.083333333333334,114.95392628205127,14.5,114.94471153846153C16.916666666666668,114.9354967948718,19.333333333333332,114.92628205128204,21.75,114.9170673076923C24.166666666666668,114.90785256410257,26.583333333333332,114.89863782051282,29,114.88942307692308C31.416666666666668,114.88020833333334,33.833333333333336,114.87099358974359,36.25,114.86177884615384C38.666666666666664,114.85256410256409,41.083333333333336,114.84334935897435,43.5,114.83413461538461C45.91666666666667,114.82491987179486,48.333333333333336,114.81570512820511,50.75000000000001,114.80649038461537C53.16666666666667,114.79727564102564,55.583333333333336,114.7880608974359,58,114.77884615384616C60.416666666666664,114.76963141025642,62.833333333333336,114.76041666666666,65.25,114.75120192307692C67.66666666666667,114.74198717948718,70.08333333333333,114.73277243589743,72.5,114.7235576923077C74.91666666666667,114.71434294871796,77.33333333333333,114.7051282051282,79.75,114.69591346153845C82.16666666666667,114.6866987179487,84.58333333333333,114.67748397435896,87,114.66826923076923C89.41666666666667,114.65905448717949,91.83333333333333,114.64983974358974,94.25,114.640625C96.66666666666667,114.63141025641026,99.08333333333334,114.62219551282053,101.50000000000001,114.61298076923077C103.91666666666667,114.60376602564104,106.33333333333334,114.59455128205127,108.75,114.58533653846153C111.16666666666667,114.57612179487178,113.58333333333333,114.56690705128204,116,114.5576923076923C118.41666666666667,114.54847756410255,120.83333333333334,114.5392628205128,123.25000000000001,114.53004807692307C125.66666666666667,114.52083333333333,128.08333333333334,114.51161858974359,130.5,114.50240384615385C132.91666666666666,114.49318910256412,135.33333333333334,114.48397435897436,137.75,114.47475961538461C140.16666666666666,114.46554487179486,142.58333333333334,114.45633012820514,145,114.44711538461539C147.41666666666666,114.43790064102564,149.83333333333334,114.42868589743588,152.25,114.41947115384615C154.66666666666666,114.41025641025641,157.08333333333334,114.40104166666666,159.5,114.39182692307692C161.91666666666666,114.38261217948718,164.33333333333334,114.37339743589743,166.75,114.3641826923077C169.16666666666666,114.35496794871796,171.58333333333334,114.3457532051282,174,114.33653846153847C176.41666666666666,114.32732371794873,178.83333333333334,114.31810897435898,181.25,114.30889423076923C183.66666666666666,114.29967948717947,186.08333333333334,114.29046474358975,188.5,114.28125C190.91666666666666,114.27203525641025,193.33333333333334,114.2628205128205,195.75,114.25360576923076C198.16666666666669,114.24439102564102,200.58333333333334,114.23517628205128,203.00000000000003,114.22596153846155C205.41666666666669,114.21674679487181,207.83333333333331,114.20753205128204,210.24999999999997,114.1983173076923C212.66666666666666,114.18910256410255,215.08333333333331,114.17988782051283,217.5,114.17067307692308C219.91666666666666,114.16145833333334,222.33333333333334,114.15224358974359,224.75,114.14302884615384C227.16666666666666,114.13381410256409,229.58333333333334,114.12459935897435,232,114.11538461538461C234.41666666666666,114.10616987179488,236.83333333333334,114.09695512820512,239.25,114.08774038461539C241.66666666666669,114.07852564102565,244.08333333333334,114.06931089743591,246.50000000000003,114.06009615384616C248.91666666666669,114.05088141025642,251.33333333333331,114.04166666666666,253.74999999999997,114.03245192307692C256.16666666666663,114.02323717948717,258.5833333333333,114.01402243589745,261,114.0048076923077C263.4166666666667,113.99559294871796,265.8333333333333,113.98637820512819,268.25,113.97716346153845C270.6666666666667,113.96794871794872,273.0833333333333,113.95873397435898,275.5,113.94951923076924C277.9166666666667,113.9403044871795,280.3333333333333,113.93108974358975,282.75,113.921875C285.1666666666667,113.91266025641025,287.5833333333333,113.90344551282053,290,113.89423076923077C292.4166666666667,113.88501602564102,294.8333333333333,113.87580128205127,297.25,113.86658653846153C299.6666666666667,113.8573717948718,302.0833333333333,113.84815705128204,304.5,113.8389423076923C306.9166666666667,113.82972756410257,309.3333333333333,113.82051282051282,311.75,113.81129807692308C314.1666666666667,113.80208333333334,316.5833333333333,113.79286858974359,319,113.78365384615385C321.4166666666667,113.77443910256412,323.8333333333333,113.76522435897436,326.25,113.75600961538461C328.6666666666667,113.74679487179486,331.0833333333333,113.73758012820514,333.5,113.72836538461539C335.9166666666667,113.71915064102564,338.3333333333333,113.70993589743588,340.75,113.70072115384615C343.1666666666667,113.69150641025641,345.5833333333333,113.68229166666667,348,113.67307692307693C350.4166666666667,113.6638621794872,352.8333333333333,113.65464743589743,355.25,113.6454326923077C357.6666666666667,113.63621794871796,360.0833333333333,113.6270032051282,362.5,113.61778846153847C364.9166666666667,113.60857371794873,367.3333333333333,113.59935897435898,369.75,113.59014423076923C372.1666666666667,113.58092948717947,374.5833333333333,113.57171474358974,377,113.5625C379.4166666666667,113.55328525641026,381.8333333333333,113.54407051282051,384.25,113.53485576923077C386.6666666666667,113.52564102564104,389.0833333333333,113.51642628205128,391.5,113.50721153846155C393.9166666666667,113.4979967948718,396.33333333333337,113.48878205128206,398.75000000000006,113.4795673076923C401.16666666666674,113.47035256410257,403.58333333333337,113.46113782051283,406.00000000000006,113.45192307692308C408.4166666666667,113.44270833333334,410.8333333333333,113.43349358974358,413.24999999999994,113.42427884615384C415.66666666666663,113.4150641025641,418.08333333333326,113.40584935897436,420.49999999999994,113.39663461538463C422.91666666666663,113.38741987179489,425.3333333333333,113.37820512820514,427.75,113.36899038461539C430.1666666666667,113.35977564102565,432.5833333333333,113.35056089743591,435,113.34134615384616C437.4166666666667,113.33213141025641,439.8333333333333,113.32291666666666,442.25,113.31370192307692C444.6666666666667,113.30448717948718,447.0833333333333,113.29527243589743,449.5,113.2860576923077C451.9166666666667,113.27684294871796,454.3333333333333,113.2676282051282,456.75,113.25841346153847C459.1666666666667,113.24919871794873,461.5833333333333,113.23998397435898,464,113.23076923076924C466.4166666666667,113.2215544871795,468.8333333333333,113.21233974358975,471.25,113.203125C473.6666666666667,113.19391025641025,476.0833333333333,113.1846955128205,478.5,113.17548076923076C480.9166666666667,113.16626602564101,483.33333333333337,113.15705128205127,485.75000000000006,113.14783653846153C488.16666666666674,113.1386217948718,490.58333333333337,113.12940705128204,493.00000000000006,113.1201923076923C495.4166666666667,113.11097756410257,497.8333333333333,113.10176282051282,500.24999999999994,113.09254807692308C502.66666666666663,113.08333333333333,505.08333333333326,113.07411858974358,507.49999999999994,113.06490384615384C509.91666666666663,113.05568910256409,512.3333333333333,113.04647435897436,514.75,113.03725961538461C517.1666666666666,113.02804487179488,519.5833333333334,113.01883012820511,522,113.00961538461537C524.4166666666666,113.00040064102564,526.8333333333334,112.9911858974359,529.25,112.98197115384616C531.6666666666666,112.97275641025642,534.0833333333334,112.96354166666666,536.5,112.95432692307692C538.9166666666666,112.94511217948718,541.3333333333334,112.93589743589743,543.75,112.9266826923077C546.1666666666666,112.91746794871796,548.5833333333334,112.9082532051282,551,112.89903846153845C553.4166666666666,112.8898237179487,555.8333333333334,112.88060897435896,558.25,112.87139423076923C560.6666666666666,112.86217948717949,563.0833333333334,112.85296474358974,565.5,112.84375C567.9166666666666,112.83453525641026,570.3333333333334,112.82532051282053,572.75,112.81610576923077C575.1666666666666,112.80689102564102,577.5833333333334,112.79767628205127,580,112.78846153846153C582.4166666666666,112.7792467948718,584.8333333333334,112.77003205128204,587.25,112.7608173076923C589.6666666666666,112.75160256410257,592.0833333333334,112.7423878205128,594.5,112.73317307692307C596.9166666666666,112.72395833333333,599.3333333333334,112.71474358974359,601.75,112.70552884615385C604.1666666666666,112.69631410256412,606.5833333333334,112.68709935897436,609,112.67788461538461C611.4166666666666,112.66866987179486,613.8333333333334,112.65945512820514,616.25,112.65024038461539C618.6666666666666,112.64102564102564,621.0833333333334,112.63181089743588,623.5,112.62259615384615C625.9166666666666,112.61338141025641,628.3333333333334,112.60416666666666,630.75,112.59495192307692C633.1666666666666,112.58573717948718,635.5833333333334,112.57652243589743,638,112.5673076923077C640.4166666666666,112.55809294871796,642.8333333333334,112.5488782051282,645.25,112.53966346153847C647.6666666666666,112.53044871794873,650.0833333333334,112.52123397435898,652.5,112.51201923076923C654.9166666666666,112.50280448717947,657.3333333333334,112.49358974358975,659.75,112.484375C662.1666666666666,112.47516025641025,664.5833333333334,112.4659455128205,667,112.45673076923076C669.4166666666666,112.44751602564102,671.8333333333334,112.43830128205128,674.25,112.42908653846155C676.6666666666666,112.41987179487181,679.0833333333334,112.41065705128204,681.5,112.4014423076923C683.9166666666666,112.39222756410257,686.3333333333334,112.38301282051282,688.75,112.37379807692308C691.1666666666666,112.36458333333334,693.5833333333334,112.35536858974359,696,112.34615384615384C698.4166666666666,112.33693910256409,700.8333333333334,112.32772435897435,703.25,112.31850961538461C705.6666666666666,112.30929487179488,708.0833333333334,112.30008012820512,710.5,112.29086538461539C712.9166666666666,112.28165064102565,715.3333333333334,112.27243589743591,717.75,112.26322115384616C720.1666666666666,112.25400641025641,722.5833333333334,112.24479166666666,725,112.23557692307692C727.4166666666666,112.22636217948718,729.8333333333334,112.21714743589743,732.25,112.2079326923077C734.6666666666666,112.19871794871796,737.0833333333334,112.18950320512819,739.5,112.18028846153845C741.9166666666666,112.17107371794872,744.3333333333334,112.16185897435898,746.75,112.15264423076924C749.1666666666666,112.1434294871795,751.5833333333334,112.13421474358975,754,112.125C756.4166666666666,112.11578525641025,758.8333333333334,112.10657051282053,761.25,112.09735576923077C763.6666666666666,112.08814102564102,766.0833333333334,112.07892628205127,768.5,112.06971153846153C770.9166666666666,112.0604967948718,773.3333333333334,112.05128205128204,775.75,112.0420673076923C778.1666666666666,112.03285256410257,780.5833333333334,112.02363782051282,783,112.01442307692308C785.4166666666667,112.00520833333334,787.8333333333334,111.9959935897436,790.2500000000001,111.98677884615385C792.6666666666667,111.97756410256412,795.0833333333335,111.96834935897436,797.5000000000001,111.95913461538461C799.9166666666667,111.94991987179486,802.3333333333335,111.94070512820514,804.7500000000001,111.93149038461539C807.1666666666667,111.92227564102564,809.5833333333335,111.91306089743588,812.0000000000001,111.90384615384615C814.4166666666667,111.89463141025641,816.8333333333333,111.88541666666667,819.2499999999999,111.87620192307693C821.6666666666665,111.8669871794872,824.0833333333333,111.85777243589743,826.4999999999999,111.8485576923077C828.9166666666665,111.83934294871796,831.3333333333333,111.8301282051282,833.7499999999999,111.82091346153847C836.1666666666665,111.81169871794873,838.5833333333333,111.80248397435896,840.9999999999999,111.79326923076923C843.4166666666666,111.78405448717947,845.8333333333333,111.77483974358974,848.25,111.765625C850.6666666666666,111.75641025641026,853.0833333333334,111.74719551282051,855.5,111.73798076923077C857.9166666666666,111.72876602564104,860.3333333333334,111.7195512820513,862.75,111.71033653846155C865.1666666666666,111.7011217948718,867.5833333333334,111.69190705128204,870,111.6826923076923C872.4166666666666,111.67347756410257,874.8333333333334,111.66426282051282,877.25,111.65504807692308C879.6666666666666,111.64583333333334,882.0833333333334,111.63661858974358,884.5,111.62740384615384C886.9166666666666,111.6181891025641,889.3333333333334,111.60897435897436,891.75,111.59975961538463C894.1666666666666,111.59054487179489,896.5833333333334,111.58133012820514,899,111.57211538461539C901.4166666666666,111.56290064102564,903.8333333333334,111.55368589743591,906.25,111.54447115384616C908.6666666666666,111.53525641025641,911.0833333333334,111.52604166666666,913.5,111.51682692307692C915.9166666666666,111.50761217948718,918.3333333333334,111.49839743589743,920.75,111.4891826923077C923.1666666666666,111.47996794871796,925.5833333333334,111.4707532051282,928,111.46153846153847C930.4166666666666,111.45232371794873,932.8333333333334,111.44310897435898,935.25,111.43389423076924C937.6666666666666,111.4246794871795,940.0833333333334,111.41546474358975,942.5,111.40625C944.9166666666666,111.39703525641025,947.3333333333334,111.3878205128205,949.75,111.37860576923076C952.1666666666666,111.36939102564102,954.5833333333334,111.36017628205127,957,111.35096153846153C959.4166666666666,111.3417467948718,961.8333333333334,111.33253205128206,964.25,111.32331730769232C966.6666666666667,111.31410256410258,969.0833333333334,111.30488782051283,971.5000000000001,111.29567307692308C973.9166666666667,111.28645833333333,976.3333333333335,111.27724358974359,978.7500000000001,111.26802884615384C981.1666666666667,111.25881410256409,983.5833333333335,111.24959935897436,986.0000000000001,111.24038461538461C988.4166666666667,111.23116987179486,990.8333333333335,111.22195512820511,993.2500000000001,111.21274038461537C995.6666666666667,111.20352564102564,998.0833333333333,111.1943108974359,1000.4999999999999,111.18509615384616C1002.9166666666665,111.17588141025642,1005.3333333333333,111.16666666666666,1007.7499999999999,111.15745192307692C1010.1666666666665,111.14823717948718,1012.5833333333333,111.13902243589743,1014.9999999999999,111.1298076923077C1017.4166666666665,111.12059294871796,1019.8333333333333,111.11137820512819,1022.2499999999999,111.10216346153845C1024.6666666666665,111.0929487179487,1027.0833333333333,111.08373397435896,1029.5,111.07451923076923C1031.9166666666667,111.06530448717949,1034.3333333333333,111.05608974358974,1036.75,111.046875C1039.1666666666667,111.03766025641026,1041.5833333333333,111.02844551282053,1044,111.01923076923077C1046.4166666666667,111.01001602564102,1048.8333333333333,111.00080128205127,1051.25,110.99158653846153C1053.6666666666667,110.9823717948718,1056.0833333333333,110.97315705128204,1058.5,110.9639423076923C1060.9166666666667,110.95472756410257,1063.3333333333333,110.9455128205128,1065.75,110.93629807692307C1068.1666666666667,110.92708333333333,1070.5833333333333,110.91786858974359,1073,110.90865384615385C1075.4166666666667,110.89943910256412,1077.8333333333333,110.89022435897436,1080.25,110.88100961538461C1082.6666666666667,110.87179487179486,1085.0833333333333,110.86258012820514,1087.5,110.85336538461539C1089.9166666666667,110.84415064102564,1092.3333333333333,110.83493589743588,1094.75,110.82572115384615C1097.1666666666667,110.81650641025641,1099.5833333333333,110.80729166666666,1102,110.79807692307692C1104.4166666666667,110.78886217948718,1106.8333333333333,110.77964743589743,1109.25,110.7704326923077C1111.6666666666667,110.76121794871796,1114.0833333333333,110.7520032051282,1116.5,110.74278846153847C1118.9166666666667,110.73357371794873,1121.3333333333333,110.72435897435898,1123.75,110.71514423076923C1126.1666666666667,110.70592948717947,1128.5833333333333,110.69671474358975,1131,110.6875C1133.4166666666667,110.67828525641025,1135.8333333333333,110.6690705128205,1138.25,110.65985576923076C1140.6666666666667,110.65064102564102,1143.0833333333333,110.64142628205128,1145.5,110.63221153846155C1147.9166666666667,110.62299679487181,1150.3333333333333,110.61378205128204,1152.75,110.6045673076923C1155.1666666666667,110.59535256410257,1157.5833333333333,110.59535256410257,1160,110.57692307692308C1162.4166666666667,110.55849358974359,1164.8333333333333,109.1025641025641,1167.25,108.36538461538461C1169.6666666666667,107.62820512820512,1172.0833333333333,106.89102564102565,1174.5,106.15384615384616C1176.9166666666667,105.41666666666667,1179.3333333333333,104.67948717948718,1181.75,103.9423076923077C1184.1666666666667,103.2051282051282,1186.5833333333333,102.46794871794872,1189,101.73076923076923C1191.4166666666667,100.99358974358974,1193.8333333333333,100.25641025641026,1196.25,99.51923076923077C1198.6666666666667,98.78205128205128,1201.0833333333333,98.0448717948718,1203.5,97.3076923076923C1205.9166666666667,96.57051282051282,1208.3333333333333,95.83333333333333,1210.75,95.09615384615384C1213.1666666666667,94.35897435897435,1215.5833333333333,93.62179487179488,1218,92.88461538461539C1220.4166666666667,92.1474358974359,1222.8333333333333,91.41025641025641,1225.25,90.67307692307692C1227.6666666666667,89.93589743589743,1230.0833333333333,89.19871794871794,1232.5,88.46153846153845C1234.9166666666667,87.72435897435896,1237.3333333333333,86.98717948717949,1239.75,86.25C1242.1666666666667,85.51282051282051,1244.5833333333333,84.77564102564104,1247,84.03846153846155C1249.4166666666667,83.30128205128206,1251.8333333333333,82.56410256410257,1254.25,81.82692307692308C1256.6666666666667,81.08974358974359,1259.0833333333333,80.3525641025641,1261.5,79.61538461538461C1263.9166666666667,78.87820512820512,1266.3333333333333,78.14102564102565,1268.75,77.40384615384616C1271.1666666666667,76.66666666666667,1273.5833333333333,75.92948717948718,1276,75.1923076923077C1278.4166666666667,74.4551282051282,1280.8333333333333,73.71794871794872,1283.25,72.98076923076923C1285.6666666666667,72.24358974358974,1288.0833333333333,71.50641025641026,1290.5,70.76923076923077C1292.9166666666667,70.03205128205128,1295.3333333333333,69.2948717948718,1297.75,68.5576923076923C1300.1666666666667,67.82051282051282,1302.5833333333333,67.08333333333333,1305,66.34615384615384C1307.4166666666667,65.60897435897435,1309.8333333333333,64.87179487179488,1312.25,64.13461538461539C1314.6666666666667,63.3974358974359,1317.0833333333333,62.66025641025641,1319.5,61.92307692307692C1321.9166666666667,61.18589743589743,1324.3333333333333,60.44871794871794,1326.75,59.71153846153845C1329.1666666666667,58.974358974358964,1331.5833333333333,58.23717948717949,1334,57.5C1336.4166666666667,56.76282051282051,1338.8333333333333,56.02564102564102,1341.25,55.28846153846153C1343.6666666666667,54.551282051282044,1346.0833333333333,53.81410256410257,1348.5,53.07692307692308C1350.9166666666667,52.33974358974359,1353.3333333333333,51.6025641025641,1355.75,50.86538461538461C1358.1666666666667,50.128205128205124,1360.5833333333333,49.39102564102565,1363,48.65384615384616C1365.4166666666667,47.91666666666667,1367.8333333333333,47.17948717948718,1370.25,46.44230769230769C1372.6666666666667,45.705128205128204,1375.0833333333333,44.967948717948715,1377.5,44.230769230769226C1379.9166666666667,43.49358974358974,1382.3333333333333,42.75641025641026,1384.75,42.019230769230774C1387.1666666666667,41.282051282051285,1389.5833333333333,40.544871794871796,1392,39.80769230769231C1394.4166666666667,39.07051282051282,1396.8333333333333,38.33333333333333,1399.25,37.59615384615384C1401.6666666666667,36.85897435897435,1404.0833333333333,36.121794871794876,1406.5,35.38461538461539C1408.9166666666667,34.6474358974359,1411.3333333333333,33.91025641025641,1413.75,33.17307692307692C1416.1666666666667,32.43589743589743,1418.5833333333333,31.698717948717952,1421,30.961538461538467C1423.4166666666667,30.22435897435898,1425.8333333333333,29.48717948717949,1428.25,28.75C1430.6666666666667,28.01282051282051,1433.0833333333333,27.27564102564102,1435.5,26.538461538461533C1437.9166666666667,25.801282051282048,1440.3333333333333,25.06410256410258,1442.75,24.326923076923094C1445.1666666666667,23.58974358974361,1447.5833333333333,22.85256410256411,1450,22.115384615384613" fill="transparent" stroke-linecap="round" stroke="#B6509E" stroke-width="2"></path><path class="visx-linepath" d="M0,106.15384615382403C2.4166666666666665,106.15016025639736,4.833333333333334,106.14647435897066,7.25,106.14278846153846C9.666666666666666,106.13910256410625,12.083333333333334,106.13541666666667,14.5,106.13173076923077C16.916666666666668,106.12804487179487,19.333333333333332,106.12435897435897,21.75,106.12067307692307C24.166666666666668,106.11698717948717,26.583333333333332,106.11330128205128,29,106.10961538461538C31.416666666666668,106.10592948717948,33.833333333333336,106.10224358974358,36.25,106.09855769230768C38.666666666666664,106.09487179487178,41.083333333333336,106.09118589743588,43.5,106.08749999999999C45.91666666666667,106.08381410256409,48.333333333333336,106.08012820512822,50.75000000000001,106.07644230769232C53.16666666666667,106.07275641025642,55.583333333333336,106.06907051282052,58,106.06538461538462C60.416666666666664,106.06169871794872,62.833333333333336,106.05801282051283,65.25,106.05432692307693C67.66666666666667,106.05064102564103,70.08333333333333,106.04695512820514,72.5,106.04326923076924C74.91666666666667,106.03958333333334,77.33333333333333,106.03589743589744,79.75,106.03221153846154C82.16666666666667,106.02852564102564,84.58333333333333,106.02483974358975,87,106.02115384615385C89.41666666666667,106.01746794871795,91.83333333333333,106.01378205128205,94.25,106.01009615384615C96.66666666666667,106.00641025641025,99.08333333333334,106.00272435897436,101.50000000000001,105.99903846153846C103.91666666666667,105.99535256410256,106.33333333333334,105.99166666666666,108.75,105.98798076923076C111.16666666666667,105.98429487179486,113.58333333333333,105.98060897435897,116,105.97692307692307C118.41666666666667,105.97323717948717,120.83333333333334,105.96955128205128,123.25000000000001,105.96586538461538C125.66666666666667,105.96217948717948,128.08333333333334,105.95849358974358,130.5,105.95480769230768C132.91666666666666,105.95112179487178,135.33333333333334,105.9474358974359,137.75,105.94375000000001C140.16666666666666,105.94006410256412,142.58333333333334,105.93637820512822,145,105.93269230769232C147.41666666666666,105.92900641025642,149.83333333333334,105.92532051282052,152.25,105.92163461538462C154.66666666666666,105.91794871794872,157.08333333333334,105.91426282051283,159.5,105.91057692307693C161.91666666666666,105.90689102564103,164.33333333333334,105.90320512820513,166.75,105.89951923076923C169.16666666666666,105.89583333333333,171.58333333333334,105.89214743589744,174,105.88846153846154C176.41666666666666,105.88477564102564,178.83333333333334,105.88108974358974,181.25,105.87740384615384C183.66666666666666,105.87371794871794,186.08333333333334,105.87003205128205,188.5,105.86634615384615C190.91666666666666,105.86266025641025,193.33333333333334,105.85897435897436,195.75,105.85528846153846C198.16666666666669,105.85160256410256,200.58333333333334,105.84791666666666,203.00000000000003,105.84423076923076C205.41666666666669,105.84054487179486,207.83333333333331,105.83685897435898,210.24999999999997,105.83317307692307C212.66666666666666,105.82948717948717,215.08333333333331,105.82580128205129,217.5,105.82211538461539C219.91666666666666,105.81842948717949,222.33333333333334,105.81474358974359,224.75,105.81105769230768C227.16666666666666,105.80737179487178,229.58333333333334,105.80368589743591,232,105.80000000000001C234.41666666666666,105.79631410256411,236.83333333333334,105.79262820512821,239.25,105.78894230769231C241.66666666666669,105.78525641025641,244.08333333333334,105.78157051282052,246.50000000000003,105.77788461538462C248.91666666666669,105.77419871794872,251.33333333333331,105.77051282051282,253.74999999999997,105.76682692307692C256.16666666666663,105.76314102564102,258.5833333333333,105.75945512820513,261,105.75576923076923C263.4166666666667,105.75208333333333,265.8333333333333,105.74839743589745,268.25,105.74471153846154C270.6666666666667,105.74102564102564,273.0833333333333,105.73733974358974,275.5,105.73365384615384C277.9166666666667,105.72996794871794,280.3333333333333,105.72628205128206,282.75,105.72259615384615C285.1666666666667,105.71891025641025,287.5833333333333,105.71522435897435,290,105.71153846153845C292.4166666666667,105.70785256410255,294.8333333333333,105.70416666666667,297.25,105.70048076923077C299.6666666666667,105.69679487179486,302.0833333333333,105.69310897435898,304.5,105.68942307692308C306.9166666666667,105.68573717948718,309.3333333333333,105.68205128205128,311.75,105.67836538461538C314.1666666666667,105.67467948717947,316.5833333333333,105.6709935897436,319,105.6673076923077C321.4166666666667,105.6636217948718,323.8333333333333,105.6599358974359,326.25,105.65625C328.6666666666667,105.6525641025641,331.0833333333333,105.64887820512821,333.5,105.64519230769231C335.9166666666667,105.64150641025641,338.3333333333333,105.63782051282053,340.75,105.63413461538462C343.1666666666667,105.63044871794872,345.5833333333333,105.62676282051282,348,105.62307692307692C350.4166666666667,105.61939102564102,352.8333333333333,105.61570512820514,355.25,105.61201923076923C357.6666666666667,105.60833333333333,360.0833333333333,105.60464743589743,362.5,105.60096153846153C364.9166666666667,105.59727564102563,367.3333333333333,105.59358974358975,369.75,105.58990384615385C372.1666666666667,105.58621794871794,374.5833333333333,105.58253205128204,377,105.57884615384614C379.4166666666667,105.57516025641024,381.8333333333333,105.57147435897436,384.25,105.56778846153846C386.6666666666667,105.56410256410255,389.0833333333333,105.56041666666667,391.5,105.55673076923077C393.9166666666667,105.55304487179487,396.33333333333337,105.54935897435897,398.75000000000006,105.54567307692307C401.16666666666674,105.54198717948717,403.58333333333337,105.53830128205128,406.00000000000006,105.53461538461538C408.4166666666667,105.53092948717949,410.8333333333333,105.5272435897436,413.24999999999994,105.5235576923077C415.66666666666663,105.5198717948718,418.08333333333326,105.5161858974359,420.49999999999994,105.5125C422.91666666666663,105.5088141025641,425.3333333333333,105.50512820512822,427.75,105.50144230769232C430.1666666666667,105.49775641025641,432.5833333333333,105.49407051282051,435,105.49038461538461C437.4166666666667,105.48669871794871,439.8333333333333,105.48301282051283,442.25,105.47932692307693C444.6666666666667,105.47564102564102,447.0833333333333,105.47195512820512,449.5,105.46826923076922C451.9166666666667,105.46458333333332,454.3333333333333,105.46089743589744,456.75,105.45721153846154C459.1666666666667,105.45352564102564,461.5833333333333,105.44983974358975,464,105.44615384615385C466.4166666666667,105.44246794871795,468.8333333333333,105.43878205128205,471.25,105.43509615384615C473.6666666666667,105.43141025641025,476.0833333333333,105.42772435897436,478.5,105.42403846153846C480.9166666666667,105.42035256410256,483.33333333333337,105.41666666666667,485.75000000000006,105.41298076923077C488.16666666666674,105.40929487179487,490.58333333333337,105.40560897435897,493.00000000000006,105.40192307692307C495.4166666666667,105.39823717948717,497.8333333333333,105.39455128205128,500.24999999999994,105.39086538461538C502.66666666666663,105.38717948717948,505.08333333333326,105.3834935897436,507.49999999999994,105.3798076923077C509.91666666666663,105.37612179487179,512.3333333333333,105.3724358974359,514.75,105.36875C517.1666666666666,105.3650641025641,519.5833333333334,105.3613782051282,522,105.3576923076923C524.4166666666666,105.3540064102564,526.8333333333334,105.35032051282052,529.25,105.34663461538462C531.6666666666666,105.34294871794872,534.0833333333334,105.33926282051283,536.5,105.33557692307693C538.9166666666666,105.33189102564103,541.3333333333334,105.32820512820513,543.75,105.32451923076923C546.1666666666666,105.32083333333333,548.5833333333334,105.31714743589744,551,105.31346153846154C553.4166666666666,105.30977564102564,555.8333333333334,105.30608974358975,558.25,105.30240384615385C560.6666666666666,105.29871794871795,563.0833333333334,105.29503205128205,565.5,105.29134615384615C567.9166666666666,105.28766025641025,570.3333333333334,105.28397435897436,572.75,105.28028846153846C575.1666666666666,105.27660256410256,577.5833333333334,105.27291666666666,580,105.26923076923076C582.4166666666666,105.26554487179486,584.8333333333334,105.26185897435897,587.25,105.25817307692307C589.6666666666666,105.25448717948717,592.0833333333334,105.25080128205128,594.5,105.24711538461538C596.9166666666666,105.24342948717948,599.3333333333334,105.2397435897436,601.75,105.2360576923077C604.1666666666666,105.2323717948718,606.5833333333334,105.22868589743591,609,105.22500000000001C611.4166666666666,105.22131410256411,613.8333333333334,105.21762820512821,616.25,105.2139423076923C618.6666666666666,105.2102564102564,621.0833333333334,105.20657051282052,623.5,105.20288461538462C625.9166666666666,105.19919871794872,628.3333333333334,105.19551282051283,630.75,105.19182692307693C633.1666666666666,105.18814102564103,635.5833333333334,105.18445512820513,638,105.18076923076923C640.4166666666666,105.17708333333333,642.8333333333334,105.17339743589744,645.25,105.16971153846154C647.6666666666666,105.16602564102564,650.0833333333334,105.16233974358974,652.5,105.15865384615384C654.9166666666666,105.15496794871794,657.3333333333334,105.15128205128205,659.75,105.14759615384615C662.1666666666666,105.14391025641025,664.5833333333334,105.14022435897435,667,105.13653846153845C669.4166666666666,105.13285256410255,671.8333333333334,105.12916666666666,674.25,105.12548076923076C676.6666666666666,105.12179487179486,679.0833333333334,105.11810897435898,681.5,105.11442307692307C683.9166666666666,105.11073717948717,686.3333333333334,105.10705128205129,688.75,105.10336538461539C691.1666666666666,105.09967948717949,693.5833333333334,105.0959935897436,696,105.0923076923077C698.4166666666666,105.0886217948718,700.8333333333334,105.0849358974359,703.25,105.08125C705.6666666666666,105.0775641025641,708.0833333333334,105.07387820512821,710.5,105.07019230769231C712.9166666666666,105.06650641025641,715.3333333333334,105.06282051282052,717.75,105.05913461538462C720.1666666666666,105.05544871794872,722.5833333333334,105.05176282051282,725,105.04807692307692C727.4166666666666,105.04439102564102,729.8333333333334,105.04070512820513,732.25,105.03701923076923C734.6666666666666,105.03333333333333,737.0833333333334,105.02964743589743,739.5,105.02596153846153C741.9166666666666,105.02227564102563,744.3333333333334,105.01858974358974,746.75,105.01490384615384C749.1666666666666,105.01121794871794,751.5833333333334,105.00753205128206,754,105.00384615384615C756.4166666666666,105.00016025641025,758.8333333333334,104.99647435897435,761.25,104.99278846153845C763.6666666666666,104.98910256410255,766.0833333333334,104.98541666666667,768.5,104.98173076923077C770.9166666666666,104.97804487179486,773.3333333333334,104.97435897435898,775.75,104.97067307692308C778.1666666666666,104.96698717948718,780.5833333333334,104.96330128205129,783,104.95961538461539C785.4166666666667,104.95592948717949,787.8333333333334,104.95224358974359,790.2500000000001,104.94855769230769C792.6666666666667,104.94487179487179,795.0833333333335,104.9411858974359,797.5000000000001,104.9375C799.9166666666667,104.9338141025641,802.3333333333335,104.93012820512821,804.7500000000001,104.92644230769231C807.1666666666667,104.92275641025641,809.5833333333335,104.91907051282051,812.0000000000001,104.91538461538461C814.4166666666667,104.91169871794871,816.8333333333333,104.90801282051282,819.2499999999999,104.90432692307692C821.6666666666665,104.90064102564102,824.0833333333333,104.89695512820514,826.4999999999999,104.89326923076923C828.9166666666665,104.88958333333333,831.3333333333333,104.88589743589743,833.7499999999999,104.88221153846153C836.1666666666665,104.87852564102563,838.5833333333333,104.87483974358975,840.9999999999999,104.87115384615385C843.4166666666666,104.86746794871794,845.8333333333333,104.86378205128204,848.25,104.86009615384614C850.6666666666666,104.85641025641024,853.0833333333334,104.85272435897436,855.5,104.84903846153846C857.9166666666666,104.84535256410255,860.3333333333334,104.84166666666667,862.75,104.83798076923077C865.1666666666666,104.83429487179487,867.5833333333334,104.83060897435898,870,104.82692307692308C872.4166666666666,104.82323717948718,874.8333333333334,104.8195512820513,877.25,104.81586538461539C879.6666666666666,104.81217948717949,882.0833333333334,104.80849358974359,884.5,104.80480769230769C886.9166666666666,104.80112179487179,889.3333333333334,104.7974358974359,891.75,104.79375C894.1666666666666,104.7900641025641,896.5833333333334,104.78637820512822,899,104.78269230769232C901.4166666666666,104.77900641025641,903.8333333333334,104.77532051282051,906.25,104.77163461538461C908.6666666666666,104.76794871794871,911.0833333333334,104.76426282051283,913.5,104.76057692307693C915.9166666666666,104.75689102564102,918.3333333333334,104.75320512820512,920.75,104.74951923076922C923.1666666666666,104.74583333333332,925.5833333333334,104.74214743589744,928,104.73846153846154C930.4166666666666,104.73477564102564,932.8333333333334,104.73108974358973,935.25,104.72740384615383C937.6666666666666,104.72371794871793,940.0833333333334,104.72003205128205,942.5,104.71634615384615C944.9166666666666,104.71266025641025,947.3333333333334,104.70897435897436,949.75,104.70528846153846C952.1666666666666,104.70160256410256,954.5833333333334,104.69791666666667,957,104.69423076923077C959.4166666666666,104.69054487179487,961.8333333333334,104.68685897435898,964.25,104.68317307692308C966.6666666666667,104.67948717948718,969.0833333333334,104.6758012820513,971.5000000000001,104.6721153846154C973.9166666666667,104.6684294871795,976.3333333333335,104.6647435897436,978.7500000000001,104.6610576923077C981.1666666666667,104.65737179487179,983.5833333333335,104.6536858974359,986.0000000000001,104.65C988.4166666666667,104.6463141025641,990.8333333333335,104.6426282051282,993.2500000000001,104.6389423076923C995.6666666666667,104.6352564102564,998.0833333333333,104.63157051282052,1000.4999999999999,104.62788461538462C1002.9166666666665,104.62419871794872,1005.3333333333333,104.62051282051283,1007.7499999999999,104.61682692307693C1010.1666666666665,104.61314102564103,1012.5833333333333,104.60945512820513,1014.9999999999999,104.60576923076923C1017.4166666666665,104.60208333333333,1019.8333333333333,104.59839743589744,1022.2499999999999,104.59471153846154C1024.6666666666665,104.59102564102564,1027.0833333333333,104.58733974358974,1029.5,104.58365384615384C1031.9166666666667,104.57996794871794,1034.3333333333333,104.57628205128205,1036.75,104.57259615384615C1039.1666666666667,104.56891025641025,1041.5833333333333,104.56522435897436,1044,104.56153846153846C1046.4166666666667,104.55785256410256,1048.8333333333333,104.55416666666667,1051.25,104.55048076923077C1053.6666666666667,104.54679487179487,1056.0833333333333,104.54310897435899,1058.5,104.53942307692309C1060.9166666666667,104.53573717948719,1063.3333333333333,104.53205128205128,1065.75,104.52836538461538C1068.1666666666667,104.52467948717948,1070.5833333333333,104.5209935897436,1073,104.5173076923077C1075.4166666666667,104.5136217948718,1077.8333333333333,104.5099358974359,1080.25,104.50625C1082.6666666666667,104.5025641025641,1085.0833333333333,104.49887820512821,1087.5,104.4951923076923C1089.9166666666667,104.4915064102564,1092.3333333333333,104.48782051282052,1094.75,104.48413461538462C1097.1666666666667,104.48044871794872,1099.5833333333333,104.47676282051282,1102,104.47307692307692C1104.4166666666667,104.46939102564102,1106.8333333333333,104.46570512820513,1109.25,104.46201923076923C1111.6666666666667,104.45833333333333,1114.0833333333333,104.45464743589744,1116.5,104.45096153846154C1118.9166666666667,104.44727564102564,1121.3333333333333,104.44358974358974,1123.75,104.43990384615384C1126.1666666666667,104.43621794871794,1128.5833333333333,104.43253205128205,1131,104.42884615384615C1133.4166666666667,104.42516025641025,1135.8333333333333,104.42147435897436,1138.25,104.41778846153846C1140.6666666666667,104.41410256410256,1143.0833333333333,104.41041666666668,1145.5,104.40673076923078C1147.9166666666667,104.40304487179488,1150.3333333333333,104.39935897435898,1152.75,104.39567307692307C1155.1666666666667,104.39198717948717,1157.5833333333333,104.39198717948717,1160,104.38461538461539C1162.4166666666667,104.3772435897436,1164.8333333333333,102.91025641025641,1167.25,102.17307692307692C1169.6666666666667,101.43589743589743,1172.0833333333333,100.69871794871796,1174.5,99.96153846153847C1176.9166666666667,99.22435897435898,1179.3333333333333,98.48717948717949,1181.75,97.75C1184.1666666666667,97.01282051282051,1186.5833333333333,96.27564102564102,1189,95.53846153846153C1191.4166666666667,94.80128205128204,1193.8333333333333,94.06410256410257,1196.25,93.32692307692308C1198.6666666666667,92.58974358974359,1201.0833333333333,91.8525641025641,1203.5,91.11538461538461C1205.9166666666667,90.37820512820512,1208.3333333333333,89.64102564102565,1210.75,88.90384615384616C1213.1666666666667,88.16666666666667,1215.5833333333333,87.42948717948718,1218,86.6923076923077C1220.4166666666667,85.9551282051282,1222.8333333333333,85.21794871794873,1225.25,84.48076923076924C1227.6666666666667,83.74358974358975,1230.0833333333333,83.00641025641026,1232.5,82.26923076923077C1234.9166666666667,81.53205128205128,1237.3333333333333,80.7948717948718,1239.75,80.0576923076923C1242.1666666666667,79.32051282051282,1244.5833333333333,78.58333333333334,1247,77.84615384615385C1249.4166666666667,77.10897435897436,1251.8333333333333,76.37179487179488,1254.25,75.63461538461539C1256.6666666666667,74.8974358974359,1259.0833333333333,74.16025641025641,1261.5,73.42307692307692C1263.9166666666667,72.68589743589743,1266.3333333333333,71.94871794871796,1268.75,71.21153846153847C1271.1666666666667,70.47435897435898,1273.5833333333333,69.73717948717949,1276,69C1278.4166666666667,68.26282051282051,1280.8333333333333,67.52564102564102,1283.25,66.78846153846153C1285.6666666666667,66.05128205128204,1288.0833333333333,65.31410256410257,1290.5,64.57692307692308C1292.9166666666667,63.83974358974359,1295.3333333333333,63.10256410256411,1297.75,62.36538461538462C1300.1666666666667,61.62820512820513,1302.5833333333333,60.891025641025635,1305,60.153846153846146C1307.4166666666667,59.41666666666666,1309.8333333333333,58.679487179487175,1312.25,57.94230769230769C1314.6666666666667,57.20512820512821,1317.0833333333333,56.46794871794873,1319.5,55.73076923076924C1321.9166666666667,54.99358974358975,1324.3333333333333,54.25641025641026,1326.75,53.519230769230774C1329.1666666666667,52.782051282051285,1331.5833333333333,52.044871794871796,1334,51.30769230769231C1336.4166666666667,50.57051282051282,1338.8333333333333,49.83333333333334,1341.25,49.096153846153854C1343.6666666666667,48.358974358974365,1346.0833333333333,47.621794871794876,1348.5,46.88461538461539C1350.9166666666667,46.1474358974359,1353.3333333333333,45.41025641025641,1355.75,44.67307692307692C1358.1666666666667,43.93589743589743,1360.5833333333333,43.198717948717956,1363,42.46153846153847C1365.4166666666667,41.72435897435898,1367.8333333333333,40.98717948717949,1370.25,40.25C1372.6666666666667,39.51282051282051,1375.0833333333333,38.775641025641036,1377.5,38.03846153846155C1379.9166666666667,37.30128205128206,1382.3333333333333,36.56410256410257,1384.75,35.82692307692308C1387.1666666666667,35.08974358974359,1389.5833333333333,34.3525641025641,1392,33.61538461538461C1394.4166666666667,32.878205128205124,1396.8333333333333,32.14102564102564,1399.25,31.403846153846157C1401.6666666666667,30.66666666666667,1404.0833333333333,29.929487179487175,1406.5,29.19230769230769C1408.9166666666667,28.455128205128204,1411.3333333333333,27.717948717948723,1413.75,26.980769230769237C1416.1666666666667,26.24358974358975,1418.5833333333333,25.50641025641026,1421,24.76923076923077C1423.4166666666667,24.03205128205128,1425.8333333333333,23.29487179487179,1428.25,22.557692307692303C1430.6666666666667,21.820512820512818,1433.0833333333333,21.083333333333336,1435.5,20.34615384615385C1437.9166666666667,19.608974358974365,1440.3333333333333,18.871794871794872,1442.75,18.134615384615383C1445.1666666666667,17.397435897435894,1447.5833333333333,16.660256410256398,1450,15.923076923076906" fill="transparent" stroke-linecap="round" stroke="#E7C6DF" stroke-width="2"></path><g class="visx-group visx-axis visx-axis-bottom" transform="translate(0, 115)"><g class="visx-group visx-axis-tick" transform="translate(0, 0)"><line class="visx-line" x1="0" y1="0" x2="0" y2="8" fill="transparent" shape-rendering="crispEdges" stroke="#000" stroke-width="0" stroke-linecap="square"></line><svg x="0" y="0" font-size="10" style="overflow:visible"><text transform="" x="0" y="18" fill="#000" font-size="10" text-anchor="middle"><tspan x="0" dy="0em">0%</tspan></text></svg></g><g class="visx-group visx-axis-tick" transform="translate(0, 0)"><line class="visx-line" x1="362.5" y1="0" x2="362.5" y2="8" fill="transparent" shape-rendering="crispEdges" stroke="#000" stroke-width="0" stroke-linecap="square"></line><svg x="0" y="0" font-size="10" style="overflow:visible"><text transform="" x="362.5" y="18" fill="#000" font-size="10" text-anchor="middle"><tspan x="362.5" dy="0em">25%</tspan></text></svg></g><g class="visx-group visx-axis-tick" transform="translate(0, 0)"><line class="visx-line" x1="725" y1="0" x2="725" y2="8" fill="transparent" shape-rendering="crispEdges" stroke="#000" stroke-width="0" stroke-linecap="square"></line><svg x="0" y="0" font-size="10" style="overflow:visible"><text transform="" x="725" y="18" fill="#000" font-size="10" text-anchor="middle"><tspan x="725" dy="0em">50%</tspan></text></svg></g><g class="visx-group visx-axis-tick" transform="translate(0, 0)"><line class="visx-line" x1="1087.5" y1="0" x2="1087.5" y2="8" fill="transparent" shape-rendering="crispEdges" stroke="#000" stroke-width="0" stroke-linecap="square"></line><svg x="0" y="0" font-size="10" style="overflow:visible"><text transform="" x="1087.5" y="18" fill="#000" font-size="10" text-anchor="middle"><tspan x="1087.5" dy="0em">75%</tspan></text></svg></g><g class="visx-group visx-axis-tick" transform="translate(0, 0)"><line class="visx-line" x1="1450" y1="0" x2="1450" y2="8" fill="transparent" shape-rendering="crispEdges" stroke="#000" stroke-width="0" stroke-linecap="square"></line><svg x="0" y="0" font-size="10" style="overflow:visible"><text transform="" x="1450" y="18" fill="#000" font-size="10" text-anchor="middle"><tspan x="1450" dy="0em">100%</tspan></text></svg></g><line class="visx-line visx-axis-line" x1="0.5" y1="0" x2="1450.5" y2="0" fill="transparent" shape-rendering="crispEdges" stroke="#222" stroke-width="0"></line></g><g class="visx-group visx-axis visx-axis-left" transform="translate(0, 0)"><g class="visx-group visx-axis-tick" transform="translate(0, 0)"><line class="visx-line" x1="0" y1="115" x2="-8" y2="115" fill="transparent" shape-rendering="crispEdges" stroke="#222" stroke-width="0" stroke-linecap="square"></line><svg x="-30" y="0" font-size="8" style="overflow:visible"><text transform="" x="-8" y="115" fill="#000" font-size="8" text-anchor="start"><tspan x="-8" dy="0em">0%</tspan></text></svg></g><g class="visx-group visx-axis-tick" transform="translate(0, 0)"><line class="visx-line" x1="0" y1="70.76923076923077" x2="-8" y2="70.76923076923077" fill="transparent" shape-rendering="crispEdges" stroke="#222" stroke-width="0" stroke-linecap="square"></line><svg x="-30" y="0" font-size="8" style="overflow:visible"><text transform="" x="-8" y="70.76923076923077" fill="#000" font-size="8" text-anchor="start"><tspan x="-8" dy="0em">50%</tspan></text></svg></g><g class="visx-group visx-axis-tick" transform="translate(0, 0)"><line class="visx-line" x1="0" y1="26.538461538461533" x2="-8" y2="26.538461538461533" fill="transparent" shape-rendering="crispEdges" stroke="#222" stroke-width="0" stroke-linecap="square"></line><svg x="-30" y="0" font-size="8" style="overflow:visible"><text transform="" x="-8" y="26.538461538461533" fill="#000" font-size="8" text-anchor="start"><tspan x="-8" dy="0em">100%</tspan></text></svg></g><line class="visx-line visx-axis-line" x1="0" y1="115.5" x2="0" y2="0.5" fill="transparent" shape-rendering="crispEdges" stroke="#222" stroke-width="0"></line></g><rect class="visx-bar" width="1450" height="115" fill="transparent"></rect><line class="visx-line" x1="1160" y1="28" x2="1160" y2="115" fill="transparent" shape-rendering="crispEdges" stroke="#0062D2" stroke-width="1" pointer-events="none" stroke-dasharray="5,2"></line><svg x="0" y="0" font-size="10px" style="overflow:visible"><text transform="" x="1160" y="20" font-size="10px" fill="#fff" stroke="#fff" stroke-width="0.8em" text-anchor="middle"><tspan x="1160" dy="0.355em">Optimal 80%</tspan></text></svg><svg x="0" y="0" font-size="10px" style="overflow:visible"><text transform="" x="1160" y="20" font-size="10px" fill="#62677B" text-anchor="middle"><tspan x="1160" dy="0.355em">Optimal 80%</tspan></text></svg></g></svg>