<?xml version="1.0"?><svg xmlns="http://www.w3.org/2000/svg" xmlns:xlink= "http://www.w3.org/1999/xlink" style="background: white;" width="1500" height="185"> <g style="color: black; font-size: 13px; font-family: sans-serif; transform: translate(18px, 25px);"><g><circle r="3" cx="-6" cy="-5" style="fill: #B6509E" /><text>Borrow APR, variable</text></g><g style="transform: translateX(150px);"><circle r="3" cx="-6" cy="-5" style="fill: rgb(231, 198, 223)" /><text>Borrow APR, stable</text></g><g style="transform: translateX(290px);"><circle r="3" cx="-6" cy="-5" style="fill: rgb(0, 98, 210)" /><text>Utilization Rate</text></g></g><g class="visx-group" transform="translate(40, 50)"><g class="visx-group visx-rows" transform="translate(0, 0)"><line class="visx-line" x1="0" y1="115" x2="1450" y2="115" fill="transparent" shape-rendering="crispEdges" stroke="#000" stroke-width="1" stroke-dasharray="3,3" pointer-events="none"></line><line class="visx-line" x1="0" y1="57.5" x2="1450" y2="57.5" fill="transparent" shape-rendering="crispEdges" stroke="#000" stroke-width="1" stroke-dasharray="3,3" pointer-events="none"></line><line class="visx-line" x1="0" y1="0" x2="1450" y2="0" fill="transparent" shape-rendering="crispEdges" stroke="#000" stroke-width="1" stroke-dasharray="3,3" pointer-events="none"></line></g><path class="visx-linepath" d="M0,114.99999999992333C2.4166666666666665,114.98722222217751,4.833333333333334,114.97444444443167,7.25,114.96166666666667C9.666666666666666,114.94888888890168,12.083333333333334,114.9361111111111,14.5,114.92333333333333C16.916666666666668,114.91055555555556,19.333333333333332,114.89777777777778,21.75,114.885C24.166666666666668,114.87222222222223,26.583333333333332,114.85944444444445,29,114.84666666666666C31.416666666666668,114.83388888888888,33.833333333333336,114.8211111111111,36.25,114.80833333333332C38.666666666666664,114.79555555555555,41.083333333333336,114.78277777777777,43.5,114.77C45.91666666666667,114.75722222222223,48.333333333333336,114.74444444444445,50.75000000000001,114.73166666666667C53.16666666666667,114.7188888888889,55.583333333333336,114.7061111111111,58,114.69333333333333C60.416666666666664,114.68055555555554,62.833333333333336,114.66777777777777,65.25,114.655C67.66666666666667,114.64222222222223,70.08333333333333,114.62944444444445,72.5,114.61666666666667C74.91666666666667,114.6038888888889,77.33333333333333,114.5911111111111,79.75,114.57833333333333C82.16666666666667,114.56555555555556,84.58333333333333,114.55277777777778,87,114.54C89.41666666666667,114.52722222222224,91.83333333333333,114.51444444444445,94.25,114.50166666666667C96.66666666666667,114.48888888888888,99.08333333333334,114.47611111111111,101.50000000000001,114.46333333333332C103.91666666666667,114.45055555555555,106.33333333333334,114.43777777777777,108.75,114.425C111.16666666666667,114.41222222222223,113.58333333333333,114.39944444444444,116,114.38666666666667C118.41666666666667,114.37388888888889,120.83333333333334,114.36111111111111,123.25000000000001,114.34833333333333C125.66666666666667,114.33555555555556,128.08333333333334,114.32277777777777,130.5,114.31C132.91666666666666,114.29722222222223,135.33333333333334,114.28444444444445,137.75,114.27166666666668C140.16666666666666,114.2588888888889,142.58333333333334,114.24611111111112,145,114.23333333333333C147.41666666666666,114.22055555555555,149.83333333333334,114.20777777777776,152.25,114.195C154.66666666666666,114.18222222222222,157.08333333333334,114.16944444444444,159.5,114.15666666666667C161.91666666666666,114.1438888888889,164.33333333333334,114.1311111111111,166.75,114.11833333333333C169.16666666666666,114.10555555555555,171.58333333333334,114.09277777777777,174,114.08C176.41666666666666,114.06722222222223,178.83333333333334,114.05444444444444,181.25,114.04166666666667C183.66666666666666,114.0288888888889,186.08333333333334,114.0161111111111,188.5,114.00333333333333C190.91666666666666,113.99055555555556,193.33333333333334,113.97777777777777,195.75,113.965C198.16666666666669,113.95222222222223,200.58333333333334,113.93944444444446,203.00000000000003,113.92666666666668C205.41666666666669,113.91388888888889,207.83333333333331,113.9011111111111,210.24999999999997,113.88833333333332C212.66666666666666,113.87555555555554,215.08333333333331,113.86277777777777,217.5,113.85C219.91666666666666,113.83722222222222,222.33333333333334,113.82444444444444,224.75,113.81166666666667C227.16666666666666,113.7988888888889,229.58333333333334,113.7861111111111,232,113.77333333333333C234.41666666666666,113.76055555555556,236.83333333333334,113.74777777777777,239.25,113.735C241.66666666666669,113.72222222222223,244.08333333333334,113.70944444444446,246.50000000000003,113.69666666666667C248.91666666666669,113.6838888888889,251.33333333333331,113.6711111111111,253.74999999999997,113.65833333333333C256.16666666666663,113.64555555555555,258.5833333333333,113.63277777777779,261,113.62C263.4166666666667,113.60722222222223,265.8333333333333,113.59444444444445,268.25,113.58166666666666C270.6666666666667,113.56888888888888,273.0833333333333,113.5561111111111,275.5,113.54333333333332C277.9166666666667,113.53055555555555,280.3333333333333,113.51777777777777,282.75,113.505C285.1666666666667,113.49222222222222,287.5833333333333,113.47944444444444,290,113.46666666666667C292.4166666666667,113.4538888888889,294.8333333333333,113.4411111111111,297.25,113.42833333333333C299.6666666666667,113.41555555555556,302.0833333333333,113.40277777777777,304.5,113.39C306.9166666666667,113.37722222222223,309.3333333333333,113.36444444444444,311.75,113.35166666666667C314.1666666666667,113.3388888888889,316.5833333333333,113.32611111111112,319,113.31333333333333C321.4166666666667,113.30055555555555,323.8333333333333,113.28777777777776,326.25,113.27499999999999C328.6666666666667,113.26222222222222,331.0833333333333,113.24944444444444,333.5,113.23666666666666C335.9166666666667,113.2238888888889,338.3333333333333,113.2111111111111,340.75,113.19833333333332C343.1666666666667,113.18555555555555,345.5833333333333,113.17277777777777,348,113.16C350.4166666666667,113.14722222222223,352.8333333333333,113.13444444444444,355.25,113.12166666666667C357.6666666666667,113.1088888888889,360.0833333333333,113.0961111111111,362.5,113.08333333333333C364.9166666666667,113.07055555555556,367.3333333333333,113.05777777777777,369.75,113.045C372.1666666666667,113.03222222222223,374.5833333333333,113.01944444444445,377,113.00666666666667C379.4166666666667,112.9938888888889,381.8333333333333,112.98111111111112,384.25,112.96833333333333C386.6666666666667,112.95555555555555,389.0833333333333,112.94277777777776,391.5,112.92999999999999C393.9166666666667,112.91722222222221,396.33333333333337,112.90444444444445,398.75000000000006,112.89166666666667C401.16666666666674,112.8788888888889,403.58333333333337,112.86611111111111,406.00000000000006,112.85333333333332C408.4166666666667,112.84055555555555,410.8333333333333,112.82777777777777,413.24999999999994,112.815C415.66666666666663,112.80222222222223,418.08333333333326,112.78944444444444,420.49999999999994,112.77666666666667C422.91666666666663,112.76388888888889,425.3333333333333,112.75111111111111,427.75,112.73833333333333C430.1666666666667,112.72555555555556,432.5833333333333,112.71277777777777,435,112.7C437.4166666666667,112.68722222222223,439.8333333333333,112.67444444444443,442.25,112.66166666666666C444.6666666666667,112.64888888888889,447.0833333333333,112.6361111111111,449.5,112.62333333333333C451.9166666666667,112.61055555555556,454.3333333333333,112.59777777777776,456.75,112.585C459.1666666666667,112.57222222222222,461.5833333333333,112.55944444444444,464,112.54666666666667C466.4166666666667,112.5338888888889,468.8333333333333,112.5211111111111,471.25,112.50833333333333C473.6666666666667,112.49555555555555,476.0833333333333,112.48277777777777,478.5,112.47C480.9166666666667,112.45722222222223,483.33333333333337,112.44444444444444,485.75000000000006,112.43166666666667C488.16666666666674,112.4188888888889,490.58333333333337,112.40611111111113,493.00000000000006,112.39333333333335C495.4166666666667,112.38055555555557,497.8333333333333,112.36777777777779,500.24999999999994,112.355C502.66666666666663,112.34222222222222,505.08333333333326,112.32944444444443,507.49999999999994,112.31666666666666C509.91666666666663,112.30388888888888,512.3333333333333,112.29111111111112,514.75,112.27833333333334C517.1666666666666,112.26555555555557,519.5833333333334,112.25277777777777,522,112.24C524.4166666666666,112.22722222222222,526.8333333333334,112.21444444444444,529.25,112.20166666666667C531.6666666666666,112.1888888888889,534.0833333333334,112.17611111111111,536.5,112.16333333333334C538.9166666666666,112.15055555555557,541.3333333333334,112.13777777777777,543.75,112.125C546.1666666666666,112.11222222222223,548.5833333333334,112.09944444444444,551,112.08666666666667C553.4166666666666,112.0738888888889,555.8333333333334,112.06111111111113,558.25,112.04833333333335C560.6666666666666,112.03555555555556,563.0833333333334,112.02277777777778,565.5,112.00999999999999C567.9166666666666,111.9972222222222,570.3333333333334,111.98444444444443,572.75,111.97166666666666C575.1666666666666,111.9588888888889,577.5833333333334,111.94611111111111,580,111.93333333333334C582.4166666666666,111.92055555555557,584.8333333333334,111.90777777777777,587.25,111.895C589.6666666666666,111.88222222222223,592.0833333333334,111.86944444444444,594.5,111.85666666666667C596.9166666666666,111.8438888888889,599.3333333333334,111.83111111111111,601.75,111.81833333333334C604.1666666666666,111.80555555555557,606.5833333333334,111.79277777777777,609,111.78C611.4166666666666,111.76722222222223,613.8333333333334,111.75444444444445,616.25,111.74166666666667C618.6666666666666,111.7288888888889,621.0833333333334,111.71611111111112,623.5,111.70333333333333C625.9166666666666,111.69055555555555,628.3333333333334,111.67777777777776,630.75,111.66499999999999C633.1666666666666,111.65222222222222,635.5833333333334,111.63944444444444,638,111.62666666666667C640.4166666666666,111.6138888888889,642.8333333333334,111.60111111111111,645.25,111.58833333333334C647.6666666666666,111.57555555555557,650.0833333333334,111.56277777777777,652.5,111.55C654.9166666666666,111.53722222222223,657.3333333333334,111.52444444444444,659.75,111.51166666666667C662.1666666666666,111.4988888888889,664.5833333333334,111.48611111111111,667,111.47333333333334C669.4166666666666,111.46055555555557,671.8333333333334,111.44777777777779,674.25,111.435C676.6666666666666,111.42222222222222,679.0833333333334,111.40944444444443,681.5,111.39666666666666C683.9166666666666,111.38388888888889,686.3333333333334,111.3711111111111,688.75,111.35833333333333C691.1666666666666,111.34555555555556,693.5833333333334,111.33277777777776,696,111.32C698.4166666666666,111.30722222222222,700.8333333333334,111.29444444444444,703.25,111.28166666666667C705.6666666666666,111.2688888888889,708.0833333333334,111.25611111111111,710.5,111.24333333333334C712.9166666666666,111.23055555555557,715.3333333333334,111.21777777777777,717.75,111.205C720.1666666666666,111.19222222222223,722.5833333333334,111.17944444444444,725,111.16666666666667C727.4166666666666,111.1538888888889,729.8333333333334,111.14111111111112,732.25,111.12833333333334C734.6666666666666,111.11555555555557,737.0833333333334,111.10277777777779,739.5,111.09C741.9166666666666,111.07722222222222,744.3333333333334,111.06444444444443,746.75,111.05166666666666C749.1666666666666,111.03888888888889,751.5833333333334,111.0261111111111,754,111.01333333333334C756.4166666666666,111.00055555555556,758.8333333333334,110.98777777777777,761.25,110.975C763.6666666666666,110.96222222222222,766.0833333333334,110.94944444444444,768.5,110.93666666666667C770.9166666666666,110.9238888888889,773.3333333333334,110.91111111111111,775.75,110.89833333333334C778.1666666666666,110.88555555555557,780.5833333333334,110.87277777777777,783,110.86C785.4166666666667,110.84722222222221,787.8333333333334,110.83444444444446,790.2500000000001,110.82166666666667C792.6666666666667,110.8088888888889,795.0833333333335,110.79611111111112,797.5000000000001,110.78333333333333C799.9166666666667,110.77055555555555,802.3333333333335,110.75777777777776,804.7500000000001,110.74499999999999C807.1666666666667,110.73222222222222,809.5833333333335,110.71944444444443,812.0000000000001,110.70666666666666C814.4166666666667,110.69388888888889,816.8333333333333,110.68111111111111,819.2499999999999,110.66833333333334C821.6666666666665,110.65555555555555,824.0833333333333,110.64277777777777,826.4999999999999,110.63C828.9166666666665,110.61722222222222,831.3333333333333,110.60444444444444,833.7499999999999,110.59166666666667C836.1666666666665,110.5788888888889,838.5833333333333,110.56611111111111,840.9999999999999,110.55333333333334C843.4166666666666,110.54055555555556,845.8333333333333,110.52777777777779,848.25,110.515C850.6666666666666,110.50222222222223,853.0833333333334,110.48944444444444,855.5,110.47666666666667C857.9166666666666,110.4638888888889,860.3333333333334,110.45111111111112,862.75,110.43833333333333C865.1666666666666,110.42555555555555,867.5833333333334,110.41277777777776,870,110.39999999999999C872.4166666666666,110.38722222222222,874.8333333333334,110.37444444444444,877.25,110.36166666666666C879.6666666666666,110.3488888888889,882.0833333333334,110.33611111111111,884.5,110.32333333333334C886.9166666666666,110.31055555555557,889.3333333333334,110.29777777777777,891.75,110.285C894.1666666666666,110.27222222222223,896.5833333333334,110.25944444444444,899,110.24666666666667C901.4166666666666,110.2338888888889,903.8333333333334,110.22111111111111,906.25,110.20833333333334C908.6666666666666,110.19555555555557,911.0833333333334,110.18277777777779,913.5,110.17C915.9166666666666,110.15722222222222,918.3333333333334,110.14444444444443,920.75,110.13166666666666C923.1666666666666,110.11888888888889,925.5833333333334,110.1061111111111,928,110.09333333333333C930.4166666666666,110.08055555555556,932.8333333333334,110.06777777777776,935.25,110.05499999999999C937.6666666666666,110.04222222222222,940.0833333333334,110.02944444444444,942.5,110.01666666666667C944.9166666666666,110.0038888888889,947.3333333333334,109.99111111111111,949.75,109.97833333333334C952.1666666666666,109.96555555555557,954.5833333333334,109.95277777777777,957,109.94C959.4166666666666,109.92722222222223,961.8333333333334,109.91444444444444,964.25,109.90166666666667C966.6666666666667,109.8888888888889,969.0833333333334,109.87611111111113,971.5000000000001,109.86333333333334C973.9166666666667,109.85055555555556,976.3333333333335,109.83777777777777,978.7500000000001,109.82499999999999C981.1666666666667,109.8122222222222,983.5833333333335,109.79944444444443,986.0000000000001,109.78666666666666C988.4166666666667,109.77388888888889,990.8333333333335,109.76111111111112,993.2500000000001,109.74833333333333C995.6666666666667,109.73555555555556,998.0833333333333,109.72277777777776,1000.4999999999999,109.71C1002.9166666666665,109.69722222222221,1005.3333333333333,109.68444444444444,1007.7499999999999,109.67166666666667C1010.1666666666665,109.6588888888889,1012.5833333333333,109.64611111111111,1014.9999999999999,109.63333333333334C1017.4166666666665,109.62055555555557,1019.8333333333333,109.60777777777777,1022.2499999999999,109.595C1024.6666666666665,109.58222222222221,1027.0833333333333,109.56944444444446,1029.5,109.55666666666667C1031.9166666666667,109.5438888888889,1034.3333333333333,109.53111111111112,1036.75,109.51833333333333C1039.1666666666667,109.50555555555555,1041.5833333333333,109.49277777777776,1044,109.47999999999999C1046.4166666666667,109.46722222222222,1048.8333333333333,109.45444444444443,1051.25,109.44166666666666C1053.6666666666667,109.42888888888889,1056.0833333333333,109.4161111111111,1058.5,109.40333333333334C1060.9166666666667,109.39055555555557,1063.3333333333333,109.37777777777777,1065.75,109.365C1068.1666666666667,109.35222222222222,1070.5833333333333,109.33944444444444,1073,109.32666666666667C1075.4166666666667,109.3138888888889,1077.8333333333333,109.30111111111111,1080.25,109.28833333333334C1082.6666666666667,109.27555555555557,1085.0833333333333,109.26277777777779,1087.5,109.25C1089.9166666666667,109.23722222222221,1092.3333333333333,109.22444444444443,1094.75,109.21166666666666C1097.1666666666667,109.19888888888889,1099.5833333333333,109.1861111111111,1102,109.17333333333333C1104.4166666666667,109.16055555555556,1106.8333333333333,109.14777777777776,1109.25,109.13499999999999C1111.6666666666667,109.12222222222222,1114.0833333333333,109.10944444444443,1116.5,109.09666666666666C1118.9166666666667,109.0838888888889,1121.3333333333333,109.07111111111111,1123.75,109.05833333333334C1126.1666666666667,109.04555555555557,1128.5833333333333,109.03277777777777,1131,109.02C1133.4166666666667,109.00722222222223,1135.8333333333333,108.99444444444444,1138.25,108.98166666666667C1140.6666666666667,108.9688888888889,1143.0833333333333,108.95611111111111,1145.5,108.94333333333334C1147.9166666666667,108.93055555555557,1150.3333333333333,108.91777777777779,1152.75,108.905C1155.1666666666667,108.89222222222222,1157.5833333333333,108.87944444444443,1160,108.86666666666666C1162.4166666666667,108.85388888888889,1164.8333333333333,108.8411111111111,1167.25,108.82833333333333C1169.6666666666667,108.81555555555556,1172.0833333333333,108.80277777777776,1174.5,108.78999999999999C1176.9166666666667,108.77722222222222,1179.3333333333333,108.76444444444444,1181.75,108.75166666666667C1184.1666666666667,108.7388888888889,1186.5833333333333,108.72611111111111,1189,108.71333333333334C1191.4166666666667,108.70055555555557,1193.8333333333333,108.68777777777777,1196.25,108.675C1198.6666666666667,108.66222222222223,1201.0833333333333,108.64944444444444,1203.5,108.63666666666667C1205.9166666666667,108.6238888888889,1208.3333333333333,108.61111111111111,1210.75,108.59833333333333C1213.1666666666667,108.58555555555554,1215.5833333333333,108.57277777777776,1218,108.55999999999999C1220.4166666666667,108.54722222222222,1222.8333333333333,108.53444444444443,1225.25,108.52166666666666C1227.6666666666667,108.50888888888889,1230.0833333333333,108.4961111111111,1232.5,108.48333333333333C1234.9166666666667,108.47055555555556,1237.3333333333333,108.45777777777776,1239.75,108.445C1242.1666666666667,108.43222222222222,1244.5833333333333,108.41944444444444,1247,108.40666666666667C1249.4166666666667,108.3938888888889,1251.8333333333333,108.38111111111111,1254.25,108.36833333333334C1256.6666666666667,108.35555555555557,1259.0833333333333,108.34277777777777,1261.5,108.33C1263.9166666666667,108.31722222222223,1266.3333333333333,108.30444444444444,1268.75,108.29166666666667C1271.1666666666667,108.2788888888889,1273.5833333333333,108.2661111111111,1276,108.25333333333333C1278.4166666666667,108.24055555555556,1280.8333333333333,108.22777777777777,1283.25,108.215C1285.6666666666667,108.20222222222223,1288.0833333333333,108.18944444444443,1290.5,108.17666666666666C1292.9166666666667,108.16388888888889,1295.3333333333333,108.1511111111111,1297.75,108.13833333333334C1300.1666666666667,108.12555555555556,1302.5833333333333,108.12555555555555,1305,108.1C1307.4166666666667,108.07444444444444,1309.8333333333333,105.225,1312.25,103.7875C1314.6666666666667,102.35,1317.0833333333333,100.9125,1319.5,99.475C1321.9166666666667,98.0375,1324.3333333333333,96.60000000000001,1326.75,95.16250000000001C1329.1666666666667,93.72500000000001,1331.5833333333333,92.28750000000001,1334,90.85000000000001C1336.4166666666667,89.41250000000001,1338.8333333333333,87.975,1341.25,86.5375C1343.6666666666667,85.1,1346.0833333333333,83.66250000000001,1348.5,82.22500000000001C1350.9166666666667,80.78750000000001,1353.3333333333333,79.35,1355.75,77.9125C1358.1666666666667,76.475,1360.5833333333333,75.03750000000001,1363,73.60000000000001C1365.4166666666667,72.16250000000001,1367.8333333333333,70.72500000000001,1370.25,69.28750000000001C1372.6666666666667,67.85000000000001,1375.0833333333333,66.4125,1377.5,64.975C1379.9166666666667,63.537499999999994,1382.3333333333333,62.10000000000001,1384.75,60.66250000000001C1387.1666666666667,59.22500000000001,1389.5833333333333,57.7875,1392,56.35C1394.4166666666667,54.9125,1396.8333333333333,53.475,1399.25,52.0375C1401.6666666666667,50.6,1404.0833333333333,49.1625,1406.5,47.725C1408.9166666666667,46.2875,1411.3333333333333,44.849999999999994,1413.75,43.412499999999994C1416.1666666666667,41.974999999999994,1418.5833333333333,40.537499999999994,1421,39.099999999999994C1423.4166666666667,37.662499999999994,1425.8333333333333,36.225,1428.25,34.7875C1430.6666666666667,33.35,1433.0833333333333,31.9125,1435.5,30.475C1437.9166666666667,29.0375,1440.3333333333333,27.600000000000005,1442.75,26.162500000000005C1445.1666666666667,24.725000000000005,1447.5833333333333,23.287499999999998,1450,21.849999999999994" fill="transparent" stroke-linecap="round" stroke="#B6509E" stroke-width="2"></path><path class="visx-linepath" d="M0,106.94999999992334C2.4166666666666665,106.9372222221775,4.833333333333334,106.92444444443166,7.25,106.91166666666666C9.666666666666666,106.89888888890167,12.083333333333334,106.8861111111111,14.5,106.87333333333333C16.916666666666668,106.86055555555556,19.333333333333332,106.84777777777778,21.75,106.83500000000001C24.166666666666668,106.82222222222224,26.583333333333332,106.80944444444444,29,106.79666666666667C31.416666666666668,106.7838888888889,33.833333333333336,106.77111111111111,36.25,106.75833333333334C38.666666666666664,106.74555555555557,41.083333333333336,106.73277777777778,43.5,106.72C45.91666666666667,106.70722222222221,48.333333333333336,106.69444444444444,50.75000000000001,106.68166666666666C53.16666666666667,106.66888888888889,55.583333333333336,106.6561111111111,58,106.64333333333333C60.416666666666664,106.63055555555556,62.833333333333336,106.61777777777777,65.25,106.605C67.66666666666667,106.59222222222223,70.08333333333333,106.57944444444443,72.5,106.56666666666666C74.91666666666667,106.55388888888889,77.33333333333333,106.5411111111111,79.75,106.52833333333334C82.16666666666667,106.51555555555557,84.58333333333333,106.50277777777778,87,106.49000000000001C89.41666666666667,106.47722222222224,91.83333333333333,106.46444444444444,94.25,106.45166666666667C96.66666666666667,106.43888888888888,99.08333333333334,106.42611111111113,101.50000000000001,106.41333333333334C103.91666666666667,106.40055555555557,106.33333333333334,106.38777777777779,108.75,106.375C111.16666666666667,106.36222222222221,113.58333333333333,106.34944444444443,116,106.33666666666666C118.41666666666667,106.32388888888887,120.83333333333334,106.3111111111111,123.25000000000001,106.29833333333333C125.66666666666667,106.28555555555556,128.08333333333334,106.27277777777778,130.5,106.26C132.91666666666666,106.24722222222222,135.33333333333334,106.23444444444443,137.75,106.22166666666666C140.16666666666666,106.2088888888889,142.58333333333334,106.19611111111111,145,106.18333333333334C147.41666666666666,106.17055555555557,149.83333333333334,106.15777777777778,152.25,106.14500000000001C154.66666666666666,106.13222222222224,157.08333333333334,106.11944444444445,159.5,106.10666666666667C161.91666666666666,106.09388888888888,164.33333333333334,106.0811111111111,166.75,106.06833333333333C169.16666666666666,106.05555555555556,171.58333333333334,106.04277777777777,174,106.03C176.41666666666666,106.01722222222223,178.83333333333334,106.00444444444443,181.25,105.99166666666666C183.66666666666666,105.97888888888889,186.08333333333334,105.9661111111111,188.5,105.95333333333333C190.91666666666666,105.94055555555556,193.33333333333334,105.92777777777778,195.75,105.915C198.16666666666669,105.90222222222222,200.58333333333334,105.88944444444445,203.00000000000003,105.87666666666667C205.41666666666669,105.8638888888889,207.83333333333331,105.85111111111111,210.24999999999997,105.83833333333334C212.66666666666666,105.82555555555557,215.08333333333331,105.8127777777778,217.5,105.80000000000001C219.91666666666666,105.78722222222223,222.33333333333334,105.77444444444444,224.75,105.76166666666666C227.16666666666666,105.74888888888887,229.58333333333334,105.7361111111111,232,105.72333333333333C234.41666666666666,105.71055555555556,236.83333333333334,105.69777777777777,239.25,105.685C241.66666666666669,105.67222222222222,244.08333333333334,105.65944444444445,246.50000000000003,105.64666666666666C248.91666666666669,105.63388888888889,251.33333333333331,105.6211111111111,253.74999999999997,105.60833333333333C256.16666666666663,105.59555555555555,258.5833333333333,105.58277777777778,261,105.57C263.4166666666667,105.55722222222222,265.8333333333333,105.54444444444444,268.25,105.53166666666667C270.6666666666667,105.5188888888889,273.0833333333333,105.50611111111111,275.5,105.49333333333334C277.9166666666667,105.48055555555557,280.3333333333333,105.46777777777777,282.75,105.455C285.1666666666667,105.44222222222223,287.5833333333333,105.42944444444444,290,105.41666666666667C292.4166666666667,105.4038888888889,294.8333333333333,105.3911111111111,297.25,105.37833333333333C299.6666666666667,105.36555555555556,302.0833333333333,105.35277777777777,304.5,105.34C306.9166666666667,105.32722222222223,309.3333333333333,105.31444444444443,311.75,105.30166666666666C314.1666666666667,105.28888888888889,316.5833333333333,105.2761111111111,319,105.26333333333334C321.4166666666667,105.25055555555556,323.8333333333333,105.23777777777778,326.25,105.22500000000001C328.6666666666667,105.21222222222224,331.0833333333333,105.19944444444445,333.5,105.18666666666667C335.9166666666667,105.17388888888888,338.3333333333333,105.1611111111111,340.75,105.14833333333333C343.1666666666667,105.13555555555556,345.5833333333333,105.12277777777777,348,105.11C350.4166666666667,105.09722222222223,352.8333333333333,105.08444444444443,355.25,105.07166666666666C357.6666666666667,105.05888888888889,360.0833333333333,105.0461111111111,362.5,105.03333333333333C364.9166666666667,105.02055555555556,367.3333333333333,105.00777777777778,369.75,104.995C372.1666666666667,104.98222222222223,374.5833333333333,104.96944444444445,377,104.95666666666668C379.4166666666667,104.9438888888889,381.8333333333333,104.93111111111111,384.25,104.91833333333334C386.6666666666667,104.90555555555557,389.0833333333333,104.89277777777778,391.5,104.88000000000001C393.9166666666667,104.86722222222222,396.33333333333337,104.85444444444445,398.75000000000006,104.84166666666667C401.16666666666674,104.82888888888888,403.58333333333337,104.81611111111111,406.00000000000006,104.80333333333333C408.4166666666667,104.79055555555556,410.8333333333333,104.77777777777777,413.24999999999994,104.765C415.66666666666663,104.75222222222222,418.08333333333326,104.73944444444443,420.49999999999994,104.72666666666666C422.91666666666663,104.71388888888887,425.3333333333333,104.7011111111111,427.75,104.68833333333333C430.1666666666667,104.67555555555556,432.5833333333333,104.66277777777778,435,104.65C437.4166666666667,104.63722222222223,439.8333333333333,104.62444444444444,442.25,104.61166666666666C444.6666666666667,104.5988888888889,447.0833333333333,104.58611111111111,449.5,104.57333333333334C451.9166666666667,104.56055555555557,454.3333333333333,104.54777777777777,456.75,104.535C459.1666666666667,104.52222222222223,461.5833333333333,104.50944444444444,464,104.49666666666667C466.4166666666667,104.4838888888889,468.8333333333333,104.4711111111111,471.25,104.45833333333333C473.6666666666667,104.44555555555556,476.0833333333333,104.43277777777777,478.5,104.42C480.9166666666667,104.40722222222222,483.33333333333337,104.39444444444445,485.75000000000006,104.38166666666666C488.16666666666674,104.36888888888889,490.58333333333337,104.3561111111111,493.00000000000006,104.34333333333333C495.4166666666667,104.33055555555556,497.8333333333333,104.31777777777778,500.24999999999994,104.305C502.66666666666663,104.29222222222222,505.08333333333326,104.27944444444444,507.49999999999994,104.26666666666667C509.91666666666663,104.25388888888888,512.3333333333333,104.24111111111112,514.75,104.22833333333334C517.1666666666666,104.21555555555557,519.5833333333334,104.20277777777778,522,104.19C524.4166666666666,104.17722222222221,526.8333333333334,104.16444444444443,529.25,104.15166666666666C531.6666666666666,104.13888888888889,534.0833333333334,104.1261111111111,536.5,104.11333333333333C538.9166666666666,104.10055555555556,541.3333333333334,104.08777777777777,543.75,104.075C546.1666666666666,104.06222222222223,548.5833333333334,104.04944444444445,551,104.03666666666668C553.4166666666666,104.0238888888889,555.8333333333334,104.0111111111111,558.25,103.99833333333333C560.6666666666666,103.98555555555556,563.0833333333334,103.97277777777778,565.5,103.96000000000001C567.9166666666666,103.94722222222224,570.3333333333334,103.93444444444445,572.75,103.92166666666667C575.1666666666666,103.90888888888888,577.5833333333334,103.8961111111111,580,103.88333333333333C582.4166666666666,103.87055555555555,584.8333333333334,103.85777777777777,587.25,103.845C589.6666666666666,103.83222222222223,592.0833333333334,103.81944444444444,594.5,103.80666666666667C596.9166666666666,103.7938888888889,599.3333333333334,103.7811111111111,601.75,103.76833333333333C604.1666666666666,103.75555555555556,606.5833333333334,103.74277777777777,609,103.73C611.4166666666666,103.71722222222223,613.8333333333334,103.70444444444443,616.25,103.69166666666666C618.6666666666666,103.67888888888889,621.0833333333334,103.6661111111111,623.5,103.65333333333334C625.9166666666666,103.64055555555557,628.3333333333334,103.62777777777778,630.75,103.61500000000001C633.1666666666666,103.60222222222224,635.5833333333334,103.58944444444445,638,103.57666666666667C640.4166666666666,103.56388888888888,642.8333333333334,103.5511111111111,645.25,103.53833333333333C647.6666666666666,103.52555555555556,650.0833333333334,103.51277777777777,652.5,103.5C654.9166666666666,103.48722222222223,657.3333333333334,103.47444444444443,659.75,103.46166666666666C662.1666666666666,103.44888888888889,664.5833333333334,103.4361111111111,667,103.42333333333333C669.4166666666666,103.41055555555556,671.8333333333334,103.39777777777778,674.25,103.385C676.6666666666666,103.37222222222223,679.0833333333334,103.35944444444445,681.5,103.34666666666668C683.9166666666666,103.33388888888891,686.3333333333334,103.32111111111112,688.75,103.30833333333334C691.1666666666666,103.29555555555555,693.5833333333334,103.28277777777778,696,103.27C698.4166666666666,103.25722222222221,700.8333333333334,103.24444444444443,703.25,103.23166666666665C705.6666666666666,103.21888888888888,708.0833333333334,103.2061111111111,710.5,103.19333333333333C712.9166666666666,103.18055555555556,715.3333333333334,103.16777777777777,717.75,103.155C720.1666666666666,103.14222222222223,722.5833333333334,103.12944444444445,725,103.11666666666667C727.4166666666666,103.1038888888889,729.8333333333334,103.0911111111111,732.25,103.07833333333333C734.6666666666666,103.06555555555556,737.0833333333334,103.05277777777778,739.5,103.04C741.9166666666666,103.02722222222224,744.3333333333334,103.01444444444444,746.75,103.00166666666667C749.1666666666666,102.9888888888889,751.5833333333334,102.97611111111111,754,102.96333333333334C756.4166666666666,102.95055555555557,758.8333333333334,102.93777777777777,761.25,102.925C763.6666666666666,102.91222222222223,766.0833333333334,102.89944444444444,768.5,102.88666666666667C770.9166666666666,102.8738888888889,773.3333333333334,102.8611111111111,775.75,102.84833333333333C778.1666666666666,102.83555555555556,780.5833333333334,102.82277777777777,783,102.81C785.4166666666667,102.79722222222222,787.8333333333334,102.78444444444445,790.2500000000001,102.77166666666666C792.6666666666667,102.75888888888889,795.0833333333335,102.7461111111111,797.5000000000001,102.73333333333333C799.9166666666667,102.72055555555556,802.3333333333335,102.70777777777778,804.7500000000001,102.69500000000001C807.1666666666667,102.68222222222224,809.5833333333335,102.66944444444445,812.0000000000001,102.65666666666667C814.4166666666667,102.64388888888888,816.8333333333333,102.6311111111111,819.2499999999999,102.61833333333333C821.6666666666665,102.60555555555554,824.0833333333333,102.59277777777777,826.4999999999999,102.58C828.9166666666665,102.56722222222223,831.3333333333333,102.55444444444443,833.7499999999999,102.54166666666666C836.1666666666665,102.52888888888889,838.5833333333333,102.5161111111111,840.9999999999999,102.50333333333333C843.4166666666666,102.49055555555556,845.8333333333333,102.47777777777777,848.25,102.465C850.6666666666666,102.45222222222223,853.0833333333334,102.43944444444445,855.5,102.42666666666668C857.9166666666666,102.4138888888889,860.3333333333334,102.4011111111111,862.75,102.38833333333334C865.1666666666666,102.37555555555556,867.5833333333334,102.3627777777778,870,102.35000000000001C872.4166666666666,102.33722222222222,874.8333333333334,102.32444444444444,877.25,102.31166666666665C879.6666666666666,102.29888888888887,882.0833333333334,102.2861111111111,884.5,102.27333333333333C886.9166666666666,102.26055555555556,889.3333333333334,102.24777777777777,891.75,102.235C894.1666666666666,102.22222222222223,896.5833333333334,102.20944444444444,899,102.19666666666667C901.4166666666666,102.1838888888889,903.8333333333334,102.1711111111111,906.25,102.15833333333333C908.6666666666666,102.14555555555556,911.0833333333334,102.13277777777778,913.5,102.12C915.9166666666666,102.10722222222223,918.3333333333334,102.09444444444445,920.75,102.08166666666668C923.1666666666666,102.0688888888889,925.5833333333334,102.05611111111112,928,102.04333333333334C930.4166666666666,102.03055555555555,932.8333333333334,102.01777777777777,935.25,102.005C937.6666666666666,101.99222222222222,940.0833333333334,101.97944444444444,942.5,101.96666666666667C944.9166666666666,101.9538888888889,947.3333333333334,101.9411111111111,949.75,101.92833333333333C952.1666666666666,101.91555555555556,954.5833333333334,101.90277777777777,957,101.89C959.4166666666666,101.87722222222223,961.8333333333334,101.86444444444443,964.25,101.85166666666666C966.6666666666667,101.83888888888887,969.0833333333334,101.8261111111111,971.5000000000001,101.81333333333333C973.9166666666667,101.80055555555556,976.3333333333335,101.78777777777778,978.7500000000001,101.775C981.1666666666667,101.76222222222223,983.5833333333335,101.74944444444446,986.0000000000001,101.73666666666668C988.4166666666667,101.7238888888889,990.8333333333335,101.71111111111111,993.2500000000001,101.69833333333332C995.6666666666667,101.68555555555554,998.0833333333333,101.67277777777777,1000.4999999999999,101.66C1002.9166666666665,101.64722222222223,1005.3333333333333,101.63444444444444,1007.7499999999999,101.62166666666667C1010.1666666666665,101.6088888888889,1012.5833333333333,101.5961111111111,1014.9999999999999,101.58333333333333C1017.4166666666665,101.57055555555556,1019.8333333333333,101.55777777777777,1022.2499999999999,101.545C1024.6666666666665,101.53222222222223,1027.0833333333333,101.51944444444446,1029.5,101.50666666666667C1031.9166666666667,101.4938888888889,1034.3333333333333,101.4811111111111,1036.75,101.46833333333333C1039.1666666666667,101.45555555555556,1041.5833333333333,101.44277777777778,1044,101.43C1046.4166666666667,101.41722222222224,1048.8333333333333,101.40444444444445,1051.25,101.39166666666667C1053.6666666666667,101.37888888888888,1056.0833333333333,101.3661111111111,1058.5,101.35333333333332C1060.9166666666667,101.34055555555555,1063.3333333333333,101.32777777777777,1065.75,101.315C1068.1666666666667,101.30222222222223,1070.5833333333333,101.28944444444444,1073,101.27666666666667C1075.4166666666667,101.2638888888889,1077.8333333333333,101.2511111111111,1080.25,101.23833333333333C1082.6666666666667,101.22555555555556,1085.0833333333333,101.21277777777777,1087.5,101.2C1089.9166666666667,101.18722222222223,1092.3333333333333,101.17444444444445,1094.75,101.16166666666668C1097.1666666666667,101.1488888888889,1099.5833333333333,101.13611111111112,1102,101.12333333333333C1104.4166666666667,101.11055555555555,1106.8333333333333,101.09777777777776,1109.25,101.085C1111.6666666666667,101.07222222222222,1114.0833333333333,101.05944444444444,1116.5,101.04666666666667C1118.9166666666667,101.0338888888889,1121.3333333333333,101.0211111111111,1123.75,101.00833333333333C1126.1666666666667,100.99555555555555,1128.5833333333333,100.98277777777777,1131,100.97C1133.4166666666667,100.95722222222223,1135.8333333333333,100.94444444444443,1138.25,100.93166666666666C1140.6666666666667,100.91888888888889,1143.0833333333333,100.9061111111111,1145.5,100.89333333333333C1147.9166666666667,100.88055555555556,1150.3333333333333,100.86777777777777,1152.75,100.855C1155.1666666666667,100.84222222222223,1157.5833333333333,100.82944444444445,1160,100.81666666666668C1162.4166666666667,100.8038888888889,1164.8333333333333,100.79111111111112,1167.25,100.77833333333334C1169.6666666666667,100.76555555555555,1172.0833333333333,100.75277777777777,1174.5,100.74C1176.9166666666667,100.72722222222222,1179.3333333333333,100.71444444444444,1181.75,100.70166666666667C1184.1666666666667,100.6888888888889,1186.5833333333333,100.6761111111111,1189,100.66333333333333C1191.4166666666667,100.65055555555556,1193.8333333333333,100.63777777777777,1196.25,100.625C1198.6666666666667,100.61222222222223,1201.0833333333333,100.59944444444444,1203.5,100.58666666666667C1205.9166666666667,100.5738888888889,1208.3333333333333,100.5611111111111,1210.75,100.54833333333333C1213.1666666666667,100.53555555555556,1215.5833333333333,100.52277777777778,1218,100.51C1220.4166666666667,100.49722222222223,1222.8333333333333,100.48444444444445,1225.25,100.47166666666666C1227.6666666666667,100.45888888888888,1230.0833333333333,100.4461111111111,1232.5,100.43333333333332C1234.9166666666667,100.42055555555555,1237.3333333333333,100.40777777777777,1239.75,100.395C1242.1666666666667,100.38222222222223,1244.5833333333333,100.36944444444444,1247,100.35666666666667C1249.4166666666667,100.3438888888889,1251.8333333333333,100.3311111111111,1254.25,100.31833333333333C1256.6666666666667,100.30555555555556,1259.0833333333333,100.29277777777777,1261.5,100.28C1263.9166666666667,100.26722222222223,1266.3333333333333,100.25444444444445,1268.75,100.24166666666667C1271.1666666666667,100.2288888888889,1273.5833333333333,100.2161111111111,1276,100.20333333333333C1278.4166666666667,100.19055555555556,1280.8333333333333,100.17777777777778,1283.25,100.165C1285.6666666666667,100.15222222222224,1288.0833333333333,100.13944444444445,1290.5,100.12666666666667C1292.9166666666667,100.11388888888888,1295.3333333333333,100.1011111111111,1297.75,100.08833333333332C1300.1666666666667,100.07555555555555,1302.5833333333333,100.07555555555555,1305,100.05C1307.4166666666667,100.02444444444444,1309.8333333333333,97.175,1312.25,95.7375C1314.6666666666667,94.3,1317.0833333333333,92.86250000000001,1319.5,91.42500000000001C1321.9166666666667,89.98750000000001,1324.3333333333333,88.55000000000001,1326.75,87.11250000000001C1329.1666666666667,85.67500000000001,1331.5833333333333,84.2375,1334,82.8C1336.4166666666667,81.3625,1338.8333333333333,79.925,1341.25,78.4875C1343.6666666666667,77.05,1346.0833333333333,75.6125,1348.5,74.175C1350.9166666666667,72.7375,1353.3333333333333,71.3,1355.75,69.8625C1358.1666666666667,68.425,1360.5833333333333,66.98750000000001,1363,65.55000000000001C1365.4166666666667,64.11250000000001,1367.8333333333333,62.675,1370.25,61.2375C1372.6666666666667,59.8,1375.0833333333333,58.3625,1377.5,56.925C1379.9166666666667,55.4875,1382.3333333333333,54.050000000000004,1384.75,52.612500000000004C1387.1666666666667,51.175000000000004,1389.5833333333333,49.737500000000004,1392,48.300000000000004C1394.4166666666667,46.862500000000004,1396.8333333333333,45.425,1399.25,43.9875C1401.6666666666667,42.55,1404.0833333333333,41.1125,1406.5,39.675C1408.9166666666667,38.2375,1411.3333333333333,36.8,1413.75,35.3625C1416.1666666666667,33.925,1418.5833333333333,32.4875,1421,31.05C1423.4166666666667,29.6125,1425.8333333333333,28.175000000000004,1428.25,26.737500000000004C1430.6666666666667,25.300000000000004,1433.0833333333333,23.862499999999994,1435.5,22.424999999999994C1437.9166666666667,20.987499999999994,1440.3333333333333,19.549999999999997,1442.75,18.112499999999997C1445.1666666666667,16.674999999999997,1447.5833333333333,15.237499999999999,1450,13.799999999999999" fill="transparent" stroke-linecap="round" stroke="#E7C6DF" stroke-width="2"></path><g class="visx-group visx-axis visx-axis-bottom" transform="translate(0, 115)"><g class="visx-group visx-axis-tick" transform="translate(0, 0)"><line class="visx-line" x1="0" y1="0" x2="0" y2="8" fill="transparent" shape-rendering="crispEdges" stroke="#000" stroke-width="0" stroke-linecap="square"></line><svg x="0" y="0" font-size="10" style="overflow:visible"><text transform="" x="0" y="18" fill="#000" font-size="10" text-anchor="middle"><tspan x="0" dy="0em">0%</tspan></text></svg></g><g class="visx-group visx-axis-tick" transform="translate(0, 0)"><line class="visx-line" x1="362.5" y1="0" x2="362.5" y2="8" fill="transparent" shape-rendering="crispEdges" stroke="#000" stroke-width="0" stroke-linecap="square"></line><svg x="0" y="0" font-size="10" style="overflow:visible"><text transform="" x="362.5" y="18" fill="#000" font-size="10" text-anchor="middle"><tspan x="362.5" dy="0em">25%</tspan></text></svg></g><g class="visx-group visx-axis-tick" transform="translate(0, 0)"><line class="visx-line" x1="725" y1="0" x2="725" y2="8" fill="transparent" shape-rendering="crispEdges" stroke="#000" stroke-width="0" stroke-linecap="square"></line><svg x="0" y="0" font-size="10" style="overflow:visible"><text transform="" x="725" y="18" fill="#000" font-size="10" text-anchor="middle"><tspan x="725" dy="0em">50%</tspan></text></svg></g><g class="visx-group visx-axis-tick" transform="translate(0, 0)"><line class="visx-line" x1="1087.5" y1="0" x2="1087.5" y2="8" fill="transparent" shape-rendering="crispEdges" stroke="#000" stroke-width="0" stroke-linecap="square"></line><svg x="0" y="0" font-size="10" style="overflow:visible"><text transform="" x="1087.5" y="18" fill="#000" font-size="10" text-anchor="middle"><tspan x="1087.5" dy="0em">75%</tspan></text></svg></g><g class="visx-group visx-axis-tick" transform="translate(0, 0)"><line class="visx-line" x1="1450" y1="0" x2="1450" y2="8" fill="transparent" shape-rendering="crispEdges" stroke="#000" stroke-width="0" stroke-linecap="square"></line><svg x="0" y="0" font-size="10" style="overflow:visible"><text transform="" x="1450" y="18" fill="#000" font-size="10" text-anchor="middle"><tspan x="1450" dy="0em">100%</tspan></text></svg></g><line class="visx-line visx-axis-line" x1="0.5" y1="0" x2="1450.5" y2="0" fill="transparent" shape-rendering="crispEdges" stroke="#222" stroke-width="0"></line></g><g class="visx-group visx-axis visx-axis-left" transform="translate(0, 0)"><g class="visx-group visx-axis-tick" transform="translate(0, 0)"><line class="visx-line" x1="0" y1="115" x2="-8" y2="115" fill="transparent" shape-rendering="crispEdges" stroke="#222" stroke-width="0" stroke-linecap="square"></line><svg x="-30" y="0" font-size="8" style="overflow:visible"><text transform="" x="-8" y="115" fill="#000" font-size="8" text-anchor="start"><tspan x="-8" dy="0em">0%</tspan></text></svg></g><g class="visx-group visx-axis-tick" transform="translate(0, 0)"><line class="visx-line" x1="0" y1="57.5" x2="-8" y2="57.5" fill="transparent" shape-rendering="crispEdges" stroke="#222" stroke-width="0" stroke-linecap="square"></line><svg x="-30" y="0" font-size="8" style="overflow:visible"><text transform="" x="-8" y="57.5" fill="#000" font-size="8" text-anchor="start"><tspan x="-8" dy="0em">50%</tspan></text></svg></g><g class="visx-group visx-axis-tick" transform="translate(0, 0)"><line class="visx-line" x1="0" y1="0" x2="-8" y2="0" fill="transparent" shape-rendering="crispEdges" stroke="#222" stroke-width="0" stroke-linecap="square"></line><svg x="-30" y="0" font-size="8" style="overflow:visible"><text transform="" x="-8" y="0" fill="#000" font-size="8" text-anchor="start"><tspan x="-8" dy="0em">100%</tspan></text></svg></g><line class="visx-line visx-axis-line" x1="0" y1="115.5" x2="0" y2="0.5" fill="transparent" shape-rendering="crispEdges" stroke="#222" stroke-width="0"></line></g><rect class="visx-bar" width="1450" height="115" fill="transparent"></rect><line class="visx-line" x1="1305" y1="28" x2="1305" y2="115" fill="transparent" shape-rendering="crispEdges" stroke="#0062D2" stroke-width="1" pointer-events="none" stroke-dasharray="5,2"></line><svg x="0" y="0" font-size="10px" style="overflow:visible"><text transform="" x="1305" y="20" font-size="10px" fill="#fff" stroke="#fff" stroke-width="0.8em" text-anchor="middle"><tspan x="1305" dy="0.355em">Optimal 90%</tspan></text></svg><svg x="0" y="0" font-size="10px" style="overflow:visible"><text transform="" x="1305" y="20" font-size="10px" fill="#62677B" text-anchor="middle"><tspan x="1305" dy="0.355em">Optimal 90%</tspan></text></svg></g></svg>