<?xml version="1.0"?><svg xmlns="http://www.w3.org/2000/svg" xmlns:xlink= "http://www.w3.org/1999/xlink" style="background: white;" width="1500" height="300"> <g style="color: black; font-size: 13px; font-family: sans-serif; transform: translate(18px, 25px);"><g><circle r="3" cx="-6" cy="-5" style="fill: #1AD4B3" /><text>Borrow APR, variable</text></g><g style="transform: translateX(150px);"><circle r="3" cx="-6" cy="-5" style="fill: #101423" /><text>Borrow APR, stable</text></g></g><g class="visx-group" transform="translate(45, 50)"><g class="visx-group visx-rows" transform="translate(0, 0)"><line class="visx-line" x1="0" y1="155" x2="1425" y2="155" fill="transparent" shape-rendering="crispEdges" stroke="#F2F0F9" stroke-width="1" pointer-events="none"></line><line class="visx-line" x1="0" y1="111.94444444444444" x2="1425" y2="111.94444444444444" fill="transparent" shape-rendering="crispEdges" stroke="#F2F0F9" stroke-width="1" pointer-events="none"></line><line class="visx-line" x1="0" y1="68.88888888888889" x2="1425" y2="68.88888888888889" fill="transparent" shape-rendering="crispEdges" stroke="#F2F0F9" stroke-width="1" pointer-events="none"></line><line class="visx-line" x1="0" y1="25.83333333333333" x2="1425" y2="25.83333333333333" fill="transparent" shape-rendering="crispEdges" stroke="#F2F0F9" stroke-width="1" pointer-events="none"></line></g><path class="visx-linepath" d="M0,154.13888888882636C2.375,154.12846723643077,4.75,154.11804558403517,7.125,154.10762393162395C9.5,154.09720227921272,11.875,154.0867806267806,14.25,154.07635897435895C16.625,154.0659373219373,19,154.05551566951567,21.375,154.04509401709402C23.75,154.03467236467236,26.125,154.0242507122507,28.5,154.01382905982905C30.875,154.0034074074074,33.25,153.99298575498577,35.625,153.9825641025641C38,153.97214245014246,40.375,153.9617207977208,42.75,153.95129914529915C45.125,153.9408774928775,47.50000000000001,153.93045584045586,49.87500000000001,153.9200341880342C52.25000000000001,153.90961253561255,54.625,153.89919088319087,57,153.8887692307692C59.375,153.87834757834756,61.75,153.86792592592593,64.125,153.85750427350428C66.5,153.84708262108262,68.875,153.83666096866096,71.25,153.8262393162393C73.625,153.81581766381765,76,153.80539601139603,78.375,153.79497435897437C80.75,153.78455270655272,83.125,153.77413105413106,85.5,153.7637094017094C87.875,153.75328774928775,90.25,153.7428660968661,92.625,153.73244444444444C95,153.72202279202278,97.37500000000001,153.71160113960113,99.75000000000001,153.70117948717947C102.12500000000001,153.69075783475782,104.5,153.6803361823362,106.875,153.66991452991454C109.25,153.65949287749288,111.625,153.64907122507122,114,153.63864957264957C116.375,153.6282279202279,118.75000000000001,153.6178062678063,121.12500000000001,153.60738461538463C123.50000000000001,153.59696296296298,125.875,153.58654131054132,128.25,153.57611965811967C130.625,153.565698005698,133,153.55527635327635,135.375,153.5448547008547C137.75,153.53443304843304,140.125,153.5240113960114,142.5,153.51358974358973C144.875,153.50316809116808,147.25,153.49274643874645,149.625,153.4823247863248C152,153.47190313390314,154.375,153.46148148148148,156.75,153.45105982905983C159.125,153.44063817663817,161.5,153.43021652421652,163.875,153.41979487179486C166.25,153.4093732193732,168.625,153.39895156695158,171,153.38852991452993C173.375,153.37810826210827,175.75,153.36768660968661,178.125,153.35726495726496C180.5,153.3468433048433,182.875,153.33642165242165,185.25,153.326C187.625,153.31557834757834,190,153.30515669515668,192.375,153.29473504273503C194.75,153.28431339031337,197.12500000000003,153.27389173789174,199.50000000000003,153.2634700854701C201.875,153.25304843304843,204.25,153.24262678062678,206.62499999999997,153.23220512820512C208.99999999999997,153.22178347578347,211.375,153.21136182336184,213.75,153.20094017094019C216.125,153.19051851851853,218.5,153.18009686609687,220.875,153.16967521367522C223.25,153.15925356125356,225.625,153.1488319088319,228,153.13841025641025C230.375,153.1279886039886,232.75,153.11756695156694,235.125,153.1071452991453C237.5,153.09672364672363,239.87500000000003,153.086301994302,242.25000000000003,153.07588034188035C244.625,153.0654586894587,247,153.05503703703704,249.37499999999997,153.04461538461538C251.74999999999997,153.03419373219373,254.125,153.0237720797721,256.5,153.01335042735045C258.875,153.0029287749288,261.25,152.9925071225071,263.625,152.98208547008545C266,152.9716638176638,268.375,152.96124216524217,270.75,152.9508205128205C273.125,152.94039886039886,275.5,152.9299772079772,277.875,152.91955555555555C280.25,152.9091339031339,282.625,152.89871225071226,285,152.8882905982906C287.375,152.87786894586895,289.75,152.8674472934473,292.125,152.85702564102564C294.5,152.846603988604,296.875,152.83618233618233,299.25,152.82576068376068C301.625,152.81533903133902,304,152.80491737891737,306.375,152.7944957264957C308.75,152.78407407407406,311.125,152.77365242165243,313.5,152.76323076923077C315.875,152.75280911680912,318.25,152.74238746438746,320.625,152.7319658119658C323,152.72154415954415,325.375,152.71112250712252,327.75,152.70070085470087C330.125,152.6902792022792,332.5,152.67985754985756,334.875,152.6694358974359C337.25,152.65901424501425,339.625,152.6485925925926,342,152.63817094017094C344.375,152.62774928774928,346.75,152.61732763532763,349.125,152.60690598290597C351.5,152.59648433048432,353.875,152.5860626780627,356.25,152.57564102564103C358.625,152.56521937321938,361,152.55479772079772,363.375,152.54437606837607C365.75,152.5339544159544,368.125,152.52353276353278,370.5,152.51311111111113C372.875,152.50268945868947,375.25,152.49226780626782,377.625,152.48184615384616C380,152.4714245014245,382.375,152.46100284900285,384.75,152.4505811965812C387.125,152.44015954415954,389.50000000000006,152.4297378917379,391.87500000000006,152.41931623931623C394.25000000000006,152.40889458689458,396.62500000000006,152.39847293447295,399.00000000000006,152.3880512820513C401.375,152.37762962962964,403.75,152.36720797720798,406.12499999999994,152.35678632478633C408.49999999999994,152.34636467236467,410.87499999999994,152.33594301994302,413.24999999999994,152.32552136752136C415.62499999999994,152.3150997150997,418,152.30467806267808,420.375,152.29425641025642C422.75,152.28383475783477,425.125,152.2734131054131,427.5,152.26299145299146C429.875,152.2525698005698,432.25,152.24214814814815,434.625,152.2317264957265C437,152.22130484330484,439.375,152.21088319088318,441.75,152.20046153846152C444.125,152.19003988603987,446.5,152.17961823361824,448.875,152.1691965811966C451.25,152.15877492877493,453.625,152.14835327635328,456,152.13793162393162C458.375,152.12750997150997,460.75,152.11708831908834,463.125,152.10666666666668C465.5,152.09624501424503,467.875,152.08582336182337,470.25,152.07540170940172C472.625,152.06498005698006,475.00000000000006,152.0545584045584,477.37500000000006,152.04413675213675C479.75000000000006,152.0337150997151,482.12500000000006,152.02329344729344,484.50000000000006,152.01287179487178C486.875,152.00245014245013,489.25,151.9920284900285,491.62499999999994,151.98160683760685C493.99999999999994,151.9711851851852,496.37499999999994,151.96076353276354,498.74999999999994,151.95034188034188C501.12499999999994,151.93992022792023,503.5,151.92949857549857,505.875,151.91907692307691C508.25,151.90865527065526,510.625,151.8982336182336,513,151.88781196581195C515.375,151.8773903133903,517.75,151.86696866096867,520.125,151.856547008547C522.5,151.84612535612536,524.875,151.8357037037037,527.25,151.82528205128204C529.625,151.8148603988604,532,151.80443874643876,534.375,151.7940170940171C536.75,151.78359544159545,539.125,151.7731737891738,541.5,151.76275213675214C543.875,151.75233048433049,546.25,151.74190883190883,548.625,151.73148717948717C551,151.72106552706552,553.375,151.71064387464386,555.75,151.7002222222222C558.125,151.68980056980055,560.5,151.67937891737893,562.875,151.66895726495727C565.25,151.65853561253562,567.625,151.64811396011396,570,151.6376923076923C572.375,151.62727065527065,574.75,151.61684900284902,577.125,151.60642735042737C579.5,151.5960056980057,581.875,151.58558404558406,584.25,151.5751623931624C586.625,151.56474074074075,589,151.5543190883191,591.375,151.54389743589743C593.75,151.53347578347578,596.125,151.52305413105412,598.5,151.51263247863247C600.875,151.5022108262108,603.25,151.4917891737892,605.625,151.48136752136753C608,151.47094586894588,610.375,151.46052421652422,612.75,151.45010256410256C615.125,151.4396809116809,617.5,151.42925925925925,619.875,151.4188376068376C622.25,151.40841595441594,624.625,151.3979943019943,627,151.38757264957263C629.375,151.37715099715098,631.75,151.36672934472935,634.125,151.3563076923077C636.5,151.34588603988604,638.875,151.33546438746438,641.25,151.32504273504273C643.625,151.31462108262107,646,151.30419943019945,648.375,151.2937777777778C650.75,151.28335612535614,653.125,151.27293447293448,655.5,151.26251282051282C657.875,151.25209116809117,660.25,151.2416695156695,662.625,151.23124786324786C665,151.2208262108262,667.375,151.21040455840455,669.75,151.1999829059829C672.125,151.18956125356124,674.5,151.1791396011396,676.875,151.16871794871795C679.25,151.1582962962963,681.625,151.14787464387464,684,151.137452991453C686.375,151.12703133903133,688.75,151.11660968660968,691.125,151.10618803418802C693.5,151.09576638176637,695.875,151.08534472934474,698.25,151.07492307692308C700.625,151.06450142450143,703,151.05407977207977,705.375,151.04365811965812C707.75,151.03323646723646,710.125,151.0228148148148,712.5,151.01239316239315C714.875,151.0019715099715,717.25,150.99154985754987,719.625,150.98112820512821C722,150.97070655270656,724.375,150.9602849002849,726.75,150.94986324786325C729.125,150.9394415954416,731.5,150.92901994301994,733.875,150.91859829059828C736.25,150.90817663817663,738.625,150.897754985755,741,150.88733333333334C743.375,150.8769116809117,745.75,150.86649002849003,748.125,150.85606837606838C750.5,150.84564672364672,752.875,150.83522507122507,755.25,150.8248034188034C757.625,150.81438176638176,760,150.8039601139601,762.375,150.79353846153845C764.75,150.7831168091168,767.125,150.77269515669516,769.5,150.7622735042735C771.875,150.75185185185185,774.2500000000001,150.7414301994302,776.6250000000001,150.73100854700854C779.0000000000001,150.7205868945869,781.3750000000001,150.71016524216526,783.7500000000001,150.6997435897436C786.1250000000001,150.68932193732195,788.5000000000001,150.6789002849003,790.8750000000001,150.66847863247864C793.2500000000001,150.65805698005698,795.6250000000001,150.64763532763533,798.0000000000001,150.63721367521367C800.375,150.62679202279202,802.75,150.61637037037036,805.1249999999999,150.6059487179487C807.4999999999999,150.59552706552705,809.8749999999999,150.58510541310542,812.2499999999999,150.57468376068377C814.6249999999999,150.5642621082621,816.9999999999999,150.55384045584046,819.3749999999999,150.5434188034188C821.7499999999999,150.53299715099715,824.1249999999999,150.52257549857552,826.4999999999999,150.51215384615386C828.8749999999999,150.5017321937322,831.25,150.49131054131053,833.625,150.48088888888887C836,150.47046723646721,838.375,150.4600455840456,840.75,150.44962393162393C843.125,150.43920227920228,845.5,150.42878062678062,847.875,150.41835897435897C850.25,150.4079373219373,852.625,150.39751566951568,855,150.38709401709403C857.375,150.37667236467237,859.75,150.36625071225072,862.125,150.35582905982906C864.5,150.3454074074074,866.875,150.33498575498575,869.25,150.3245641025641C871.625,150.31414245014244,874,150.30372079772079,876.375,150.29329914529913C878.75,150.28287749287747,881.125,150.27245584045585,883.5,150.2620341880342C885.875,150.25161253561254,888.25,150.24119088319088,890.625,150.23076923076923C893,150.22034757834757,895.375,150.20992592592594,897.75,150.1995042735043C900.125,150.18908262108263,902.5,150.17866096866098,904.875,150.16823931623932C907.25,150.15781766381767,909.625,150.147396011396,912,150.13697435897436C914.375,150.1265527065527,916.75,150.11613105413105,919.125,150.1057094017094C921.5,150.09528774928773,923.875,150.09528774928773,926.25,150.07444444444445C928.625,150.05360113960117,931,148.89119576719577,933.375,148.29957142857143C935.75,147.70794708994708,938.125,147.11632275132274,940.5,146.5246984126984C942.875,145.93307407407406,945.25,145.34144973544974,947.625,144.7498253968254C950,144.15820105820106,952.3750000000001,143.56657671957672,954.7500000000001,142.97495238095237C957.1250000000001,142.38332804232803,959.5000000000001,141.79170370370372,961.8750000000001,141.20007936507938C964.2500000000001,140.60845502645503,966.6250000000001,140.0168306878307,969.0000000000001,139.42520634920635C971.3750000000001,138.833582010582,973.7500000000001,138.24195767195766,976.1250000000001,137.65033333333332C978.5,137.05870899470898,980.875,136.46708465608464,983.2499999999999,135.87546031746032C985.6249999999999,135.28383597883598,987.9999999999999,134.69221164021164,990.3749999999999,134.1005873015873C992.7499999999999,133.50896296296295,995.1249999999999,132.9173386243386,997.4999999999999,132.32571428571427C999.8749999999999,131.73408994708993,1002.2499999999999,131.1424656084656,1004.6249999999999,130.55084126984127C1006.9999999999999,129.95921693121693,1009.375,129.36759259259262,1011.75,128.77596825396827C1014.125,128.18434391534393,1016.5,127.59271957671957,1018.875,127.00109523809523C1021.25,126.40947089947089,1023.625,125.81784656084656,1026,125.22622222222222C1028.375,124.63459788359788,1030.75,124.04297354497356,1033.125,123.45134920634922C1035.5,122.85972486772488,1037.875,122.26810052910054,1040.25,121.6764761904762C1042.625,121.08485185185185,1045,120.49322751322751,1047.375,119.90160317460317C1049.75,119.30997883597882,1052.125,118.71835449735448,1054.5,118.12673015873015C1056.875,117.53510582010583,1059.25,116.9434814814815,1061.625,116.35185714285716C1064,115.76023280423281,1066.375,115.16860846560847,1068.75,114.57698412698413C1071.125,113.98535978835979,1073.5,113.39373544973544,1075.875,112.8021111111111C1078.25,112.21048677248676,1080.625,111.61886243386243,1083,111.0272380952381C1085.375,110.43561375661378,1087.75,109.84398941798943,1090.125,109.25236507936509C1092.5,108.66074074074075,1094.875,108.0691164021164,1097.25,107.47749206349206C1099.625,106.88586772486772,1102,106.2942433862434,1104.375,105.70261904761905C1106.75,105.11099470899471,1109.125,104.51937037037038,1111.5,103.92774603174604C1113.875,103.3361216931217,1116.25,102.74449735449735,1118.625,102.15287301587301C1121,101.56124867724867,1123.375,100.96962433862433,1125.75,100.37799999999999C1128.125,99.78637566137564,1130.5,99.19475132275133,1132.875,98.60312698412699C1135.25,98.01150264550265,1137.625,97.41987830687832,1140,96.82825396825397C1142.375,96.23662962962963,1144.75,95.64500529100529,1147.125,95.05338095238095C1149.5,94.4617566137566,1151.875,93.87013227513226,1154.25,93.27850793650792C1156.625,92.68688359788358,1159,92.09525925925925,1161.375,91.50363492063492C1163.75,90.9120105820106,1166.125,90.32038624338625,1168.5,89.72876190476191C1170.875,89.13713756613757,1173.25,88.54551322751323,1175.625,87.95388888888888C1178,87.36226455026454,1180.375,86.77064021164021,1182.75,86.17901587301587C1185.125,85.58739153439153,1187.5,84.9957671957672,1189.875,84.40414285714286C1192.25,83.81251851851852,1194.625,83.22089417989419,1197,82.62926984126985C1199.375,82.0376455026455,1201.75,81.44602116402116,1204.125,80.85439682539682C1206.5,80.26277248677248,1208.875,79.67114814814815,1211.25,79.0795238095238C1213.625,78.48789947089946,1216,77.89627513227515,1218.375,77.30465079365081C1220.75,76.71302645502647,1223.125,76.12140211640212,1225.5,75.52977777777778C1227.875,74.93815343915344,1230.25,74.34652910052911,1232.625,73.75490476190477C1235,73.16328042328043,1237.375,72.57165608465608,1239.75,71.98003174603174C1242.125,71.3884074074074,1244.5,70.79678306878307,1246.875,70.20515873015873C1249.25,69.61353439153439,1251.625,69.02191005291003,1254,68.43028571428569C1256.375,67.83866137566135,1258.75,67.24703703703703,1261.125,66.6554126984127C1263.5,66.06378835978838,1265.875,65.47216402116403,1268.25,64.88053968253969C1270.625,64.28891534391535,1273,63.69729100529099,1275.375,63.10566666666665C1277.75,62.51404232804231,1280.125,61.92241798941798,1282.5,61.330793650793645C1284.875,60.73916931216931,1287.25,60.14754497354497,1289.625,59.55592063492063C1292,58.9642962962963,1294.375,58.37267195767197,1296.75,57.78104761904763C1299.125,57.189423280423284,1301.5,56.59779894179894,1303.875,56.0061746031746C1306.25,55.41455026455026,1308.625,54.82292592592593,1311,54.231301587301594C1313.375,53.63967724867726,1315.75,53.04805291005291,1318.125,52.45642857142857C1320.5,51.864804232804225,1322.875,51.273179894179876,1325.25,50.68155555555554C1327.625,50.089931216931205,1330,49.49830687830687,1332.375,48.906682539682535C1334.75,48.3150582010582,1337.125,47.723433862433865,1339.5,47.13180952380953C1341.875,46.540185185185194,1344.25,45.94856084656084,1346.625,45.3569365079365C1349,44.76531216931217,1351.375,44.17368783068784,1353.75,43.5820634920635C1356.125,42.990439153439155,1358.5,42.39881481481481,1360.875,41.80719047619047C1363.25,41.21556613756613,1365.625,40.623941798941786,1368,40.032317460317444C1370.375,39.4406931216931,1372.75,38.84906878306877,1375.125,38.25744444444444C1377.5,37.6658201058201,1379.875,37.07419576719578,1382.25,36.48257142857145C1384.625,35.89094708994711,1387,35.29932275132276,1389.375,34.70769841269842C1391.75,34.11607407407408,1394.125,33.524449735449735,1396.5,32.93282539682539C1398.875,32.34120105820105,1401.25,31.749576719576726,1403.625,31.157952380952388C1406,30.56632804232805,1408.375,29.974703703703703,1410.75,29.38307936507936C1413.125,28.79145502645502,1415.5,28.199830687830673,1417.875,27.608206349206334C1420.25,27.016582010581995,1422.625,26.424957671957664,1425,25.83333333333333" fill="transparent" stroke-linecap="round" stroke="#1AD4B3" stroke-width="2"></path><g class="visx-group visx-axis visx-axis-bottom" transform="translate(0, 155)"><g class="visx-group visx-axis-tick" transform="translate(0, 0)"><line class="visx-line" x1="0" y1="0" x2="0" y2="8" fill="transparent" shape-rendering="crispEdges" stroke="#F2F0F9" stroke-width="1" stroke-linecap="square"></line><svg x="0" y="0" font-size="11" style="overflow:visible"><text transform="" x="0" y="19" fill="#1B2030" font-size="11" text-anchor="middle"><tspan x="0" dy="0em">0%</tspan></text></svg></g><g class="visx-group visx-axis-tick" transform="translate(0, 0)"><line class="visx-line" x1="356.25" y1="0" x2="356.25" y2="8" fill="transparent" shape-rendering="crispEdges" stroke="#F2F0F9" stroke-width="1" stroke-linecap="square"></line><svg x="0" y="0" font-size="11" style="overflow:visible"><text transform="" x="356.25" y="19" fill="#1B2030" font-size="11" text-anchor="middle"><tspan x="356.25" dy="0em">25%</tspan></text></svg></g><g class="visx-group visx-axis-tick" transform="translate(0, 0)"><line class="visx-line" x1="712.5" y1="0" x2="712.5" y2="8" fill="transparent" shape-rendering="crispEdges" stroke="#F2F0F9" stroke-width="1" stroke-linecap="square"></line><svg x="0" y="0" font-size="11" style="overflow:visible"><text transform="" x="712.5" y="19" fill="#1B2030" font-size="11" text-anchor="middle"><tspan x="712.5" dy="0em">50%</tspan></text></svg></g><g class="visx-group visx-axis-tick" transform="translate(0, 0)"><line class="visx-line" x1="1068.75" y1="0" x2="1068.75" y2="8" fill="transparent" shape-rendering="crispEdges" stroke="#F2F0F9" stroke-width="1" stroke-linecap="square"></line><svg x="0" y="0" font-size="11" style="overflow:visible"><text transform="" x="1068.75" y="19" fill="#1B2030" font-size="11" text-anchor="middle"><tspan x="1068.75" dy="0em">75%</tspan></text></svg></g><g class="visx-group visx-axis-tick" transform="translate(0, 0)"><line class="visx-line" x1="1425" y1="0" x2="1425" y2="8" fill="transparent" shape-rendering="crispEdges" stroke="#F2F0F9" stroke-width="1" stroke-linecap="square"></line><svg x="0" y="0" font-size="11" style="overflow:visible"><text transform="" x="1425" y="19" fill="#1B2030" font-size="11" text-anchor="middle"><tspan x="1425" dy="0em">100%</tspan></text></svg></g></g><g class="visx-group visx-axis visx-axis-left" transform="translate(0, 0)"><g class="visx-group visx-axis-tick" transform="translate(0, 0)"><line class="visx-line" x1="0" y1="155" x2="-8" y2="155" fill="transparent" shape-rendering="crispEdges" stroke="#F2F0F9" stroke-width="1" stroke-linecap="square"></line><svg x="-30" y="0" font-size="11" style="overflow:visible"><text transform="" x="-8" y="155" fill="#1B2030" font-size="11" text-anchor="start"><tspan x="-8" dy="0em">0%</tspan></text></svg></g><g class="visx-group visx-axis-tick" transform="translate(0, 0)"><line class="visx-line" x1="0" y1="111.94444444444444" x2="-8" y2="111.94444444444444" fill="transparent" shape-rendering="crispEdges" stroke="#F2F0F9" stroke-width="1" stroke-linecap="square"></line><svg x="-30" y="0" font-size="11" style="overflow:visible"><text transform="" x="-8" y="111.94444444444444" fill="#1B2030" font-size="11" text-anchor="start"><tspan x="-8" dy="0em">50%</tspan></text></svg></g><g class="visx-group visx-axis-tick" transform="translate(0, 0)"><line class="visx-line" x1="0" y1="68.88888888888889" x2="-8" y2="68.88888888888889" fill="transparent" shape-rendering="crispEdges" stroke="#F2F0F9" stroke-width="1" stroke-linecap="square"></line><svg x="-30" y="0" font-size="11" style="overflow:visible"><text transform="" x="-8" y="68.88888888888889" fill="#1B2030" font-size="11" text-anchor="start"><tspan x="-8" dy="0em">100%</tspan></text></svg></g><g class="visx-group visx-axis-tick" transform="translate(0, 0)"><line class="visx-line" x1="0" y1="25.83333333333333" x2="-8" y2="25.83333333333333" fill="transparent" shape-rendering="crispEdges" stroke="#F2F0F9" stroke-width="1" stroke-linecap="square"></line><svg x="-30" y="0" font-size="11" style="overflow:visible"><text transform="" x="-8" y="25.83333333333333" fill="#1B2030" font-size="11" text-anchor="start"><tspan x="-8" dy="0em">150%</tspan></text></svg></g><line class="visx-line visx-axis-line" x1="0" y1="155.5" x2="0" y2="0.5" fill="transparent" shape-rendering="crispEdges" stroke="#F2F0F9" stroke-width="1"></line></g><rect class="visx-bar" width="1425" height="155" fill="transparent"></rect><line class="visx-line" x1="926.25" y1="58" x2="926.25" y2="155" fill="transparent" shape-rendering="crispEdges" stroke="#CDC8E1" stroke-width="1" pointer-events="none" stroke-dasharray="5"></line><svg x="0" y="0" font-size="11px" style="overflow:visible"><text transform="" x="926.25" y="50" font-size="11px" fill="#555069" stroke="#FFFFFF" stroke-width="1px" text-anchor="middle"><tspan x="926.25" dy="0.355em">Optimal utilization 65%</tspan></text></svg><svg x="0" y="0" font-size="11px" style="overflow:visible"><text transform="" x="926.25" y="50" font-size="11px" fill="#CDC8E1" text-anchor="middle"><tspan x="926.25" dy="0.355em">Optimal utilization 65%</tspan></text></svg></g></svg>