<?xml version="1.0"?><svg xmlns="http://www.w3.org/2000/svg" xmlns:xlink= "http://www.w3.org/1999/xlink" style="background: white;" width="1500" height="300"> <g style="color: black; font-size: 13px; font-family: sans-serif; transform: translate(18px, 25px);"><g><circle r="3" cx="-6" cy="-5" style="fill: #1AD4B3" /><text>Borrow APR, variable</text></g><g style="transform: translateX(150px);"><circle r="3" cx="-6" cy="-5" style="fill: #101423" /><text>Borrow APR, stable</text></g></g><g class="visx-group" transform="translate(45, 50)"><g class="visx-group visx-rows" transform="translate(0, 0)"><line class="visx-line" x1="0" y1="155" x2="1425" y2="155" fill="transparent" shape-rendering="crispEdges" stroke="#F2F0F9" stroke-width="1" pointer-events="none"></line><line class="visx-line" x1="0" y1="84.54545454545453" x2="1425" y2="84.54545454545453" fill="transparent" shape-rendering="crispEdges" stroke="#F2F0F9" stroke-width="1" pointer-events="none"></line><line class="visx-line" x1="0" y1="14.090909090909095" x2="1425" y2="14.090909090909095" fill="transparent" shape-rendering="crispEdges" stroke="#F2F0F9" stroke-width="1" pointer-events="none"></line></g><path class="visx-linepath" d="M0,152.8863636328409C2.375,152.2992424221875,4.75,151.71212121153408,7.125,151.125C9.5,150.53787878846592,11.875,149.9507575757576,14.25,149.36363636363637C16.625,148.77651515151516,19,148.18939393939394,21.375,147.60227272727272C23.75,147.0151515151515,26.125,146.4280303030303,28.5,145.8409090909091C30.875,145.25378787878788,33.25,144.66666666666669,35.625,144.07954545454547C38,143.49242424242425,40.375,142.90530303030303,42.75,142.3181818181818C45.125,141.7310606060606,47.50000000000001,141.1439393939394,49.87500000000001,140.5568181818182C52.25000000000001,139.96969696969697,54.625,139.38257575757578,57,138.79545454545456C59.375,138.20833333333334,61.75,137.62121212121212,64.125,137.0340909090909C66.5,136.4469696969697,68.875,135.85984848484847,71.25,135.27272727272725C73.625,134.68560606060603,76,134.09848484848484,78.375,133.51136363636363C80.75,132.9242424242424,83.125,132.33712121212122,85.5,131.75C87.875,131.16287878787878,90.25,130.5757575757576,92.625,129.98863636363637C95,129.40151515151516,97.37500000000001,128.81439393939394,99.75000000000001,128.22727272727272C102.12500000000001,127.6401515151515,104.5,127.0530303030303,106.875,126.4659090909091C109.25,125.87878787878788,111.625,125.29166666666666,114,124.70454545454545C116.375,124.11742424242424,118.75000000000001,123.53030303030305,121.12500000000001,122.94318181818183C123.50000000000001,122.35606060606062,125.875,121.7689393939394,128.25,121.18181818181819C130.625,120.59469696969697,133,120.00757575757576,135.375,119.42045454545455C137.75,118.83333333333333,140.125,118.0087542087542,142.5,117.6590909090909C144.875,117.30942760942762,147.25,117.30942760942762,149.625,117.13459595959597C152,116.95976430976432,154.375,116.78493265993265,156.75,116.610101010101C159.125,116.43526936026936,161.5,116.26043771043771,163.875,116.08560606060607C166.25,115.91077441077442,168.625,115.73594276094276,171,115.5611111111111C173.375,115.38627946127944,175.75,115.2114478114478,178.125,115.03661616161615C180.5,114.8617845117845,182.875,114.68695286195286,185.25,114.51212121212122C187.625,114.33728956228957,190,114.16245791245791,192.375,113.98762626262626C194.75,113.81279461279462,197.12500000000003,113.63796296296296,199.50000000000003,113.46313131313131C201.875,113.28829966329967,204.25,113.11346801346801,206.62499999999997,112.93863636363636C208.99999999999997,112.76380471380472,211.375,112.58897306397306,213.75,112.41414141414141C216.125,112.23930976430977,218.5,112.0644781144781,220.875,111.88964646464646C223.25,111.71481481481482,225.625,111.53998316498317,228,111.36515151515152C230.375,111.19031986531988,232.75,111.01548821548822,235.125,110.84065656565657C237.5,110.66582491582493,239.87500000000003,110.49099326599328,242.25000000000003,110.31616161616162C244.625,110.14132996632998,247,109.9664983164983,249.37499999999997,109.79166666666666C251.74999999999997,109.61683501683501,254.125,109.44200336700337,256.5,109.26717171717172C258.875,109.09234006734007,261.25,108.9175084175084,263.625,108.74267676767676C266,108.56784511784511,268.375,108.39301346801348,270.75,108.21818181818183C273.125,108.04335016835019,275.5,107.86851851851851,277.875,107.69368686868687C280.25,107.51885521885522,282.625,107.34402356902358,285,107.16919191919193C287.375,106.99436026936029,289.75,106.81952861952863,292.125,106.64469696969697C294.5,106.4698653198653,296.875,106.29503367003366,299.25,106.12020202020202C301.625,105.94537037037037,304,105.77053872053871,306.375,105.59570707070706C308.75,105.42087542087542,311.125,105.24604377104379,313.5,105.07121212121214C315.875,104.8963804713805,318.25,104.72154882154884,320.625,104.54671717171718C323,104.37188552188552,325.375,104.19705387205387,327.75,104.02222222222223C330.125,103.84739057239058,332.5,103.67255892255892,334.875,103.49772727272727C337.25,103.32289562289563,339.625,103.14806397306397,342,102.97323232323232C344.375,102.79840067340068,346.75,102.62356902356902,349.125,102.44873737373737C351.5,102.27390572390573,353.875,102.09907407407407,356.25,101.92424242424242C358.625,101.74941077441078,361,101.57457912457913,363.375,101.39974747474747C365.75,101.22491582491581,368.125,101.05008417508415,370.5,100.8752525252525C372.875,100.70042087542086,375.25,100.52558922558923,377.625,100.35075757575758C380,100.17592592592594,382.375,100.00109427609428,384.75,99.82626262626263C387.125,99.65143097643099,389.50000000000006,99.47659932659934,391.87500000000006,99.30176767676768C394.25000000000006,99.12693602693604,396.62500000000006,98.95210437710436,399.00000000000006,98.77727272727272C401.375,98.60244107744107,403.75,98.42760942760943,406.12499999999994,98.25277777777778C408.49999999999994,98.07794612794613,410.87499999999994,97.90311447811446,413.24999999999994,97.72828282828281C415.62499999999994,97.55345117845117,418,97.37861952861954,420.375,97.20378787878789C422.75,97.02895622895625,425.125,96.85412457912459,427.5,96.67929292929293C429.875,96.50446127946127,432.25,96.32962962962962,434.625,96.15479797979798C437,95.97996632996633,439.375,95.80513468013467,441.75,95.63030303030303C444.125,95.45547138047138,446.5,95.28063973063972,448.875,95.10580808080807C451.25,94.93097643097643,453.625,94.75614478114477,456,94.58131313131312C458.375,94.40648148148148,460.75,94.23164983164983,463.125,94.05681818181819C465.5,93.88198653198654,467.875,93.70715488215488,470.25,93.53232323232324C472.625,93.35749158249158,475.00000000000006,93.18265993265992,477.37500000000006,93.00782828282827C479.75000000000006,92.83299663299663,482.12500000000006,92.65816498316498,484.50000000000006,92.48333333333333C486.875,92.30850168350169,489.25,92.13367003367003,491.62499999999994,91.95883838383838C493.99999999999994,91.78400673400674,496.37499999999994,91.60917508417508,498.74999999999994,91.43434343434343C501.12499999999994,91.25951178451177,503.5,91.08468013468011,505.875,90.90984848484847C508.25,90.73501683501682,510.625,90.56018518518519,513,90.38535353535354C515.375,90.2105218855219,517.75,90.03569023569023,520.125,89.86085858585858C522.5,89.68602693602693,524.875,89.51119528619529,527.25,89.33636363636364C529.625,89.161531986532,532,88.98670033670032,534.375,88.81186868686868C536.75,88.63703703703703,539.125,88.46220538720539,541.5,88.28737373737374C543.875,88.1125420875421,546.25,87.93771043771042,548.625,87.76287878787878C551,87.58804713804713,553.375,87.4132154882155,555.75,87.23838383838385C558.125,87.06355218855221,560.5,86.88872053872055,562.875,86.71388888888889C565.25,86.53905723905723,567.625,86.36422558922558,570,86.18939393939394C572.375,86.01456228956229,574.75,85.83973063973063,577.125,85.66489898989899C579.5,85.49006734006734,581.875,85.3152356902357,584.25,85.14040404040405C586.625,84.9655723905724,589,84.79074074074074,591.375,84.61590909090908C593.75,84.44107744107743,596.125,84.26624579124578,598.5,84.09141414141413C600.875,83.91658249158249,603.25,83.74175084175084,605.625,83.5669191919192C608,83.39208754208755,610.375,83.21725589225588,612.75,83.04242424242423C615.125,82.86759259259259,617.5,82.69276094276094,619.875,82.5179292929293C622.25,82.34309764309765,624.625,82.16826599326599,627,81.99343434343434C629.375,81.8186026936027,631.75,81.64377104377105,634.125,81.4689393939394C636.5,81.29410774410773,638.875,81.11927609427607,641.25,80.94444444444443C643.625,80.76961279461278,646,80.59478114478115,648.375,80.4199494949495C650.75,80.24511784511786,653.125,80.07028619528619,655.5,79.89545454545454C657.875,79.7206228956229,660.25,79.54579124579125,662.625,79.3709595959596C665,79.19612794612796,667.375,79.02129629629631,669.75,78.84646464646465C672.125,78.671632996633,674.5,78.49680134680133,676.875,78.32196969696969C679.25,78.14713804713804,681.625,77.9723063973064,684,77.79747474747475C686.375,77.6226430976431,688.75,77.44781144781143,691.125,77.27297979797979C693.5,77.09814814814814,695.875,76.9233164983165,698.25,76.74848484848485C700.625,76.5736531986532,703,76.39882154882156,705.375,76.22398989898991C707.75,76.04915824915827,710.125,75.87432659932661,712.5,75.69949494949495C714.875,75.52466329966329,717.25,75.34983164983164,719.625,75.175C722,75.00016835016835,724.375,74.82533670033669,726.75,74.65050505050505C729.125,74.4756734006734,731.5,74.30084175084174,733.875,74.1260101010101C736.25,73.95117845117845,738.625,73.7763468013468,741,73.60151515151516C743.375,73.42668350168351,745.75,73.25185185185185,748.125,73.07702020202021C750.5,72.90218855218856,752.875,72.7273569023569,755.25,72.55252525252526C757.625,72.37769360269361,760,72.20286195286195,762.375,72.0280303030303C764.75,71.85319865319866,767.125,71.678367003367,769.5,71.50353535353536C771.875,71.32870370370371,774.2500000000001,71.15387205387205,776.6250000000001,70.9790404040404C779.0000000000001,70.80420875420876,781.3750000000001,70.62937710437713,783.7500000000001,70.45454545454547C786.1250000000001,70.27971380471381,788.5000000000001,70.10488215488215,790.8750000000001,69.93005050505049C793.2500000000001,69.75521885521883,795.6250000000001,69.5803872053872,798.0000000000001,69.40555555555555C800.375,69.2307239057239,802.75,69.05589225589226,805.1249999999999,68.88106060606061C807.4999999999999,68.70622895622895,809.8749999999999,68.53139730639731,812.2499999999999,68.35656565656565C814.6249999999999,68.18173400673399,816.9999999999999,68.00690235690234,819.3749999999999,67.8320707070707C821.7499999999999,67.65723905723905,824.1249999999999,67.48240740740742,826.4999999999999,67.30757575757578C828.8749999999999,67.13274410774413,831.25,66.95791245791246,833.625,66.7830808080808C836,66.60824915824915,838.375,66.4334175084175,840.75,66.25858585858586C843.125,66.08375420875421,845.5,65.90892255892257,847.875,65.73409090909092C850.25,65.55925925925928,852.625,65.38442760942762,855,65.20959595959596C857.375,65.0347643097643,859.75,64.85993265993265,862.125,64.68510101010101C864.5,64.51026936026936,866.875,64.3354377104377,869.25,64.16060606060606C871.625,63.98577441077441,874,63.810942760942766,876.375,63.63611111111111C878.75,63.46127946127946,881.125,63.286447811447815,883.5,63.11161616161616C885.875,62.93678451178451,888.25,62.76195286195285,890.625,62.5871212121212C893,62.412289562289544,895.375,62.23745791245789,897.75,62.062626262626246C900.125,61.8877946127946,902.5,61.71296296296296,904.875,61.538131313131316C907.25,61.36329966329967,909.625,61.188468013468,912,61.01363636363635C914.375,60.838804713804706,916.75,60.66397306397307,919.125,60.48914141414142C921.5,60.314309764309776,923.875,60.13947811447812,926.25,59.96464646464647C928.625,59.78981481481482,931,59.61498316498317,933.375,59.44015151515153C935.75,59.26531986531988,938.125,59.09048821548823,940.5,58.915656565656576C942.875,58.74082491582492,945.25,58.56599326599328,947.625,58.391161616161625C950,58.21632996632997,952.3750000000001,58.04149831649831,954.7500000000001,57.86666666666666C957.1250000000001,57.69183501683501,959.5000000000001,57.517003367003355,961.8750000000001,57.34217171717171C964.2500000000001,57.167340067340064,966.6250000000001,56.99250841750842,969.0000000000001,56.817676767676765C971.3750000000001,56.64284511784511,973.7500000000001,56.46801346801347,976.1250000000001,56.293181818181814C978.5,56.11835016835017,980.875,55.94351851851853,983.2499999999999,55.768686868686885C985.6249999999999,55.59385521885523,987.9999999999999,55.41902356902357,990.3749999999999,55.24419191919192C992.7499999999999,55.06936026936027,995.1249999999999,54.89452861952862,997.4999999999999,54.71969696969697C999.8749999999999,54.544865319865316,1002.2499999999999,54.37003367003366,1004.6249999999999,54.19520202020202C1006.9999999999999,54.020370370370365,1009.375,53.84553872053873,1011.75,53.670707070707074C1014.125,53.49587542087543,1016.5,53.321043771043776,1018.875,53.14621212121212C1021.25,52.97138047138047,1023.625,52.796548821548825,1026,52.62171717171717C1028.375,52.44688552188552,1030.75,52.27205387205386,1033.125,52.09722222222221C1035.5,51.922390572390555,1037.875,51.74755892255891,1040.25,51.57272727272726C1042.625,51.39789562289562,1045,51.223063973064,1047.375,51.04823232323235C1049.75,50.873400673400695,1052.125,50.698569023569014,1054.5,50.52373737373736C1056.875,50.34890572390571,1059.25,50.174074074074085,1061.625,49.99924242424243C1064,49.82441077441078,1066.375,49.64957912457912,1068.75,49.47474747474747C1071.125,49.299915824915814,1073.5,49.12508417508418,1075.875,48.95025252525254C1078.25,48.77542087542089,1080.625,48.60058922558924,1083,48.425757575757586C1085.375,48.250925925925934,1087.75,48.076094276094274,1090.125,47.90126262626262C1092.5,47.72643097643097,1094.875,47.551599326599316,1097.25,47.37676767676767C1099.625,47.201936026936025,1102,47.02710437710438,1104.375,46.85227272727273C1106.75,46.677441077441074,1109.125,46.50260942760943,1111.5,46.327777777777776C1113.875,46.15294612794612,1116.25,45.97811447811447,1118.625,45.803282828282825C1121,45.62845117845118,1123.375,45.45361952861954,1125.75,45.278787878787895C1128.125,45.10395622895625,1130.5,44.92912457912458,1132.875,44.75429292929293C1135.25,44.57946127946128,1137.625,44.404629629629625,1140,44.22979797979798C1142.375,44.054966329966334,1144.75,43.88013468013469,1147.125,43.705303030303035C1149.5,43.53047138047138,1151.875,43.35563973063974,1154.25,43.180808080808085C1156.625,43.00597643097643,1159,42.831144781144786,1161.375,42.656313131313134C1163.75,42.48148148148148,1166.125,42.30664983164982,1168.5,42.13181818181817C1170.875,41.956986531986516,1173.25,41.78215488215486,1175.625,41.60732323232322C1178,41.43249158249157,1180.375,41.257659932659934,1182.75,41.08282828282829C1185.125,40.90799663299664,1187.5,40.73316498316497,1189.875,40.55833333333332C1192.25,40.38350168350168,1194.625,40.20867003367004,1197,40.03383838383839C1199.375,39.85900673400675,1201.75,39.684175084175095,1204.125,39.50934343434344C1206.5,39.33451178451179,1208.875,39.15968013468013,1211.25,38.98484848484848C1213.625,38.810016835016825,1216,38.63518518518519,1218.375,38.46035353535355C1220.75,38.2855218855219,1223.125,38.11069023569025,1225.5,37.9358585858586C1227.875,37.761026936026944,1230.25,37.586195286195284,1232.625,37.41136363636363C1235,37.23653198653198,1237.375,37.061700336700326,1239.75,36.88686868686868C1242.125,36.712037037037035,1244.5,36.53720538720539,1246.875,36.36237373737374C1249.25,36.187542087542084,1251.625,36.01271043771043,1254,35.837878787878786C1256.375,35.66304713804714,1258.75,35.48821548821551,1261.125,35.31338383838386C1263.5,35.138552188552204,1265.875,34.96372053872052,1268.25,34.78888888888887C1270.625,34.61405723905722,1273,34.439225589225586,1275.375,34.26439393939394C1277.75,34.089562289562295,1280.125,33.914730639730635,1282.5,33.73989898989899C1284.875,33.565067340067344,1287.25,33.3902356902357,1289.625,33.215404040404046C1292,33.04057239057239,1294.375,32.86574074074075,1296.75,32.690909090909095C1299.125,32.51607744107744,1301.5,32.3412457912458,1303.875,32.166414141414144C1306.25,31.99158249158249,1308.625,31.81675084175083,1311,31.64191919191918C1313.375,31.467087542087526,1315.75,31.292255892255874,1318.125,31.11742424242423C1320.5,30.94259259259259,1322.875,30.767760942760965,1325.25,30.592929292929316C1327.625,30.418097643097667,1330,30.243265993265986,1332.375,30.068434343434333C1334.75,29.89360269360268,1337.125,29.718771043771053,1339.5,29.543939393939404C1341.875,29.369107744107755,1344.25,29.194276094276088,1346.625,29.01944444444444C1349,28.84461279461279,1351.375,28.66978114478115,1353.75,28.494949494949505C1356.125,28.32011784511786,1358.5,28.14528619528621,1360.875,27.970454545454558C1363.25,27.795622895622905,1365.625,27.620791245791246,1368,27.445959595959593C1370.375,27.27112794612794,1372.75,27.09629629629629,1375.125,26.921464646464642C1377.5,26.746632996632993,1379.875,26.571801346801344,1382.25,26.396969696969695C1384.625,26.222138047138046,1387,26.047306397306397,1389.375,25.872474747474747C1391.75,25.6976430976431,1394.125,25.522811447811442,1396.5,25.347979797979797C1398.875,25.17314814814815,1401.25,24.998316498316516,1403.625,24.823484848484867C1406,24.648653198653218,1408.375,24.473821548821554,1410.75,24.298989898989902C1413.125,24.12415824915825,1415.5,23.9493265993266,1417.875,23.77449494949495C1420.25,23.599663299663302,1422.625,23.424831649831653,1425,23.250000000000004" fill="transparent" stroke-linecap="round" stroke="#1AD4B3" stroke-width="2"></path><g class="visx-group visx-axis visx-axis-bottom" transform="translate(0, 155)"><g class="visx-group visx-axis-tick" transform="translate(0, 0)"><line class="visx-line" x1="0" y1="0" x2="0" y2="8" fill="transparent" shape-rendering="crispEdges" stroke="#F2F0F9" stroke-width="1" stroke-linecap="square"></line><svg x="0" y="0" font-size="11" style="overflow:visible"><text transform="" x="0" y="19" fill="#1B2030" font-size="11" text-anchor="middle"><tspan x="0" dy="0em">0%</tspan></text></svg></g><g class="visx-group visx-axis-tick" transform="translate(0, 0)"><line class="visx-line" x1="356.25" y1="0" x2="356.25" y2="8" fill="transparent" shape-rendering="crispEdges" stroke="#F2F0F9" stroke-width="1" stroke-linecap="square"></line><svg x="0" y="0" font-size="11" style="overflow:visible"><text transform="" x="356.25" y="19" fill="#1B2030" font-size="11" text-anchor="middle"><tspan x="356.25" dy="0em">25%</tspan></text></svg></g><g class="visx-group visx-axis-tick" transform="translate(0, 0)"><line class="visx-line" x1="712.5" y1="0" x2="712.5" y2="8" fill="transparent" shape-rendering="crispEdges" stroke="#F2F0F9" stroke-width="1" stroke-linecap="square"></line><svg x="0" y="0" font-size="11" style="overflow:visible"><text transform="" x="712.5" y="19" fill="#1B2030" font-size="11" text-anchor="middle"><tspan x="712.5" dy="0em">50%</tspan></text></svg></g><g class="visx-group visx-axis-tick" transform="translate(0, 0)"><line class="visx-line" x1="1068.75" y1="0" x2="1068.75" y2="8" fill="transparent" shape-rendering="crispEdges" stroke="#F2F0F9" stroke-width="1" stroke-linecap="square"></line><svg x="0" y="0" font-size="11" style="overflow:visible"><text transform="" x="1068.75" y="19" fill="#1B2030" font-size="11" text-anchor="middle"><tspan x="1068.75" dy="0em">75%</tspan></text></svg></g><g class="visx-group visx-axis-tick" transform="translate(0, 0)"><line class="visx-line" x1="1425" y1="0" x2="1425" y2="8" fill="transparent" shape-rendering="crispEdges" stroke="#F2F0F9" stroke-width="1" stroke-linecap="square"></line><svg x="0" y="0" font-size="11" style="overflow:visible"><text transform="" x="1425" y="19" fill="#1B2030" font-size="11" text-anchor="middle"><tspan x="1425" dy="0em">100%</tspan></text></svg></g></g><g class="visx-group visx-axis visx-axis-left" transform="translate(0, 0)"><g class="visx-group visx-axis-tick" transform="translate(0, 0)"><line class="visx-line" x1="0" y1="155" x2="-8" y2="155" fill="transparent" shape-rendering="crispEdges" stroke="#F2F0F9" stroke-width="1" stroke-linecap="square"></line><svg x="-30" y="0" font-size="11" style="overflow:visible"><text transform="" x="-8" y="155" fill="#1B2030" font-size="11" text-anchor="start"><tspan x="-8" dy="0em">0%</tspan></text></svg></g><g class="visx-group visx-axis-tick" transform="translate(0, 0)"><line class="visx-line" x1="0" y1="84.54545454545453" x2="-8" y2="84.54545454545453" fill="transparent" shape-rendering="crispEdges" stroke="#F2F0F9" stroke-width="1" stroke-linecap="square"></line><svg x="-30" y="0" font-size="11" style="overflow:visible"><text transform="" x="-8" y="84.54545454545453" fill="#1B2030" font-size="11" text-anchor="start"><tspan x="-8" dy="0em">100%</tspan></text></svg></g><g class="visx-group visx-axis-tick" transform="translate(0, 0)"><line class="visx-line" x1="0" y1="14.090909090909095" x2="-8" y2="14.090909090909095" fill="transparent" shape-rendering="crispEdges" stroke="#F2F0F9" stroke-width="1" stroke-linecap="square"></line><svg x="-30" y="0" font-size="11" style="overflow:visible"><text transform="" x="-8" y="14.090909090909095" fill="#1B2030" font-size="11" text-anchor="start"><tspan x="-8" dy="0em">200%</tspan></text></svg></g><line class="visx-line visx-axis-line" x1="0" y1="155.5" x2="0" y2="0.5" fill="transparent" shape-rendering="crispEdges" stroke="#F2F0F9" stroke-width="1"></line></g><rect class="visx-bar" width="1425" height="155" fill="transparent"></rect><line class="visx-line" x1="142.5" y1="58" x2="142.5" y2="155" fill="transparent" shape-rendering="crispEdges" stroke="#CDC8E1" stroke-width="1" pointer-events="none" stroke-dasharray="5"></line><svg x="0" y="0" font-size="11px" style="overflow:visible"><text transform="" x="142.5" y="50" font-size="11px" fill="#555069" stroke="#FFFFFF" stroke-width="1px" text-anchor="middle"><tspan x="142.5" dy="0.355em">uOptimal 10%</tspan></text></svg><svg x="0" y="0" font-size="11px" style="overflow:visible"><text transform="" x="142.5" y="50" font-size="11px" fill="#CDC8E1" text-anchor="middle"><tspan x="142.5" dy="0.355em">uOptimal 10%</tspan></text></svg></g></svg>