<?xml version="1.0"?><svg xmlns="http://www.w3.org/2000/svg" xmlns:xlink= "http://www.w3.org/1999/xlink" style="background: white;" width="1500" height="185"> <g style="color: black; font-size: 13px; font-family: sans-serif; transform: translate(18px, 25px);"><g><circle r="3" cx="-6" cy="-5" style="fill: #B6509E" /><text>Borrow APR, variable</text></g><g style="transform: translateX(150px);"><circle r="3" cx="-6" cy="-5" style="fill: rgb(231, 198, 223)" /><text>Borrow APR, stable</text></g><g style="transform: translateX(290px);"><circle r="3" cx="-6" cy="-5" style="fill: rgb(0, 98, 210)" /><text>Utilization Rate</text></g></g><g class="visx-group" transform="translate(40, 50)"><g class="visx-group visx-rows" transform="translate(0, 0)"><line class="visx-line" x1="0" y1="115" x2="1450" y2="115" fill="transparent" shape-rendering="crispEdges" stroke="#000" stroke-width="1" stroke-dasharray="3,3" pointer-events="none"></line><line class="visx-line" x1="0" y1="57.5" x2="1450" y2="57.5" fill="transparent" shape-rendering="crispEdges" stroke="#000" stroke-width="1" stroke-dasharray="3,3" pointer-events="none"></line><line class="visx-line" x1="0" y1="0" x2="1450" y2="0" fill="transparent" shape-rendering="crispEdges" stroke="#000" stroke-width="1" stroke-dasharray="3,3" pointer-events="none"></line></g><path class="visx-linepath" d="M0,114.99999999992333C2.4166666666666665,114.98722222217751,4.833333333333334,114.97444444443167,7.25,114.96166666666667C9.666666666666666,114.94888888890168,12.083333333333334,114.9361111111111,14.5,114.92333333333333C16.916666666666668,114.91055555555556,19.333333333333332,114.89777777777778,21.75,114.885C24.166666666666668,114.87222222222223,26.583333333333332,114.85944444444445,29,114.84666666666666C31.416666666666668,114.83388888888888,33.833333333333336,114.8211111111111,36.25,114.80833333333332C38.666666666666664,114.79555555555555,41.083333333333336,114.78277777777777,43.5,114.77C45.91666666666667,114.75722222222223,48.333333333333336,114.74444444444445,50.75000000000001,114.73166666666667C53.16666666666667,114.7188888888889,55.583333333333336,114.7061111111111,58,114.69333333333333C60.416666666666664,114.68055555555554,62.833333333333336,114.66777777777777,65.25,114.655C67.66666666666667,114.64222222222223,70.08333333333333,114.62944444444445,72.5,114.61666666666667C74.91666666666667,114.6038888888889,77.33333333333333,114.5911111111111,79.75,114.57833333333333C82.16666666666667,114.56555555555556,84.58333333333333,114.55277777777778,87,114.54C89.41666666666667,114.52722222222224,91.83333333333333,114.51444444444445,94.25,114.50166666666667C96.66666666666667,114.48888888888888,99.08333333333334,114.47611111111111,101.50000000000001,114.46333333333332C103.91666666666667,114.45055555555555,106.33333333333334,114.43777777777777,108.75,114.425C111.16666666666667,114.41222222222223,113.58333333333333,114.39944444444444,116,114.38666666666667C118.41666666666667,114.37388888888889,120.83333333333334,114.36111111111111,123.25000000000001,114.34833333333333C125.66666666666667,114.33555555555556,128.08333333333334,114.32277777777777,130.5,114.31C132.91666666666666,114.29722222222223,135.33333333333334,114.28444444444445,137.75,114.27166666666668C140.16666666666666,114.2588888888889,142.58333333333334,114.24611111111112,145,114.23333333333333C147.41666666666666,114.22055555555555,149.83333333333334,114.20777777777776,152.25,114.195C154.66666666666666,114.18222222222222,157.08333333333334,114.16944444444444,159.5,114.15666666666667C161.91666666666666,114.1438888888889,164.33333333333334,114.1311111111111,166.75,114.11833333333333C169.16666666666666,114.10555555555555,171.58333333333334,114.09277777777777,174,114.08C176.41666666666666,114.06722222222223,178.83333333333334,114.05444444444444,181.25,114.04166666666667C183.66666666666666,114.0288888888889,186.08333333333334,114.0161111111111,188.5,114.00333333333333C190.91666666666666,113.99055555555556,193.33333333333334,113.97777777777777,195.75,113.965C198.16666666666669,113.95222222222223,200.58333333333334,113.93944444444446,203.00000000000003,113.92666666666668C205.41666666666669,113.91388888888889,207.83333333333331,113.9011111111111,210.24999999999997,113.88833333333332C212.66666666666666,113.87555555555554,215.08333333333331,113.86277777777777,217.5,113.85C219.91666666666666,113.83722222222222,222.33333333333334,113.82444444444444,224.75,113.81166666666667C227.16666666666666,113.7988888888889,229.58333333333334,113.7861111111111,232,113.77333333333333C234.41666666666666,113.76055555555556,236.83333333333334,113.74777777777777,239.25,113.735C241.66666666666669,113.72222222222223,244.08333333333334,113.70944444444446,246.50000000000003,113.69666666666667C248.91666666666669,113.6838888888889,251.33333333333331,113.6711111111111,253.74999999999997,113.65833333333333C256.16666666666663,113.64555555555555,258.5833333333333,113.63277777777779,261,113.62C263.4166666666667,113.60722222222223,265.8333333333333,113.59444444444445,268.25,113.58166666666666C270.6666666666667,113.56888888888888,273.0833333333333,113.5561111111111,275.5,113.54333333333332C277.9166666666667,113.53055555555555,280.3333333333333,113.51777777777777,282.75,113.505C285.1666666666667,113.49222222222222,287.5833333333333,113.47944444444444,290,113.46666666666667C292.4166666666667,113.4538888888889,294.8333333333333,113.4411111111111,297.25,113.42833333333333C299.6666666666667,113.41555555555556,302.0833333333333,113.40277777777777,304.5,113.39C306.9166666666667,113.37722222222223,309.3333333333333,113.36444444444444,311.75,113.35166666666667C314.1666666666667,113.3388888888889,316.5833333333333,113.32611111111112,319,113.31333333333333C321.4166666666667,113.30055555555555,323.8333333333333,113.28777777777776,326.25,113.27499999999999C328.6666666666667,113.26222222222222,331.0833333333333,113.24944444444444,333.5,113.23666666666666C335.9166666666667,113.2238888888889,338.3333333333333,113.2111111111111,340.75,113.19833333333332C343.1666666666667,113.18555555555555,345.5833333333333,113.17277777777777,348,113.16C350.4166666666667,113.14722222222223,352.8333333333333,113.13444444444444,355.25,113.12166666666667C357.6666666666667,113.1088888888889,360.0833333333333,113.0961111111111,362.5,113.08333333333333C364.9166666666667,113.07055555555556,367.3333333333333,113.05777777777777,369.75,113.045C372.1666666666667,113.03222222222223,374.5833333333333,113.01944444444445,377,113.00666666666667C379.4166666666667,112.9938888888889,381.8333333333333,112.98111111111112,384.25,112.96833333333333C386.6666666666667,112.95555555555555,389.0833333333333,112.94277777777776,391.5,112.92999999999999C393.9166666666667,112.91722222222221,396.33333333333337,112.90444444444445,398.75000000000006,112.89166666666667C401.16666666666674,112.8788888888889,403.58333333333337,112.86611111111111,406.00000000000006,112.85333333333332C408.4166666666667,112.84055555555555,410.8333333333333,112.82777777777777,413.24999999999994,112.815C415.66666666666663,112.80222222222223,418.08333333333326,112.78944444444444,420.49999999999994,112.77666666666667C422.91666666666663,112.76388888888889,425.3333333333333,112.75111111111111,427.75,112.73833333333333C430.1666666666667,112.72555555555556,432.5833333333333,112.71277777777777,435,112.7C437.4166666666667,112.68722222222223,439.8333333333333,112.67444444444443,442.25,112.66166666666666C444.6666666666667,112.64888888888889,447.0833333333333,112.6361111111111,449.5,112.62333333333333C451.9166666666667,112.61055555555556,454.3333333333333,112.59777777777776,456.75,112.585C459.1666666666667,112.57222222222222,461.5833333333333,112.55944444444444,464,112.54666666666667C466.4166666666667,112.5338888888889,468.8333333333333,112.5211111111111,471.25,112.50833333333333C473.6666666666667,112.49555555555555,476.0833333333333,112.48277777777777,478.5,112.47C480.9166666666667,112.45722222222223,483.33333333333337,112.44444444444444,485.75000000000006,112.43166666666667C488.16666666666674,112.4188888888889,490.58333333333337,112.40611111111113,493.00000000000006,112.39333333333335C495.4166666666667,112.38055555555557,497.8333333333333,112.36777777777779,500.24999999999994,112.355C502.66666666666663,112.34222222222222,505.08333333333326,112.32944444444443,507.49999999999994,112.31666666666666C509.91666666666663,112.30388888888888,512.3333333333333,112.29111111111112,514.75,112.27833333333334C517.1666666666666,112.26555555555557,519.5833333333334,112.25277777777777,522,112.24C524.4166666666666,112.22722222222222,526.8333333333334,112.21444444444444,529.25,112.20166666666667C531.6666666666666,112.1888888888889,534.0833333333334,112.17611111111111,536.5,112.16333333333334C538.9166666666666,112.15055555555557,541.3333333333334,112.13777777777777,543.75,112.125C546.1666666666666,112.11222222222223,548.5833333333334,112.09944444444444,551,112.08666666666667C553.4166666666666,112.0738888888889,555.8333333333334,112.06111111111113,558.25,112.04833333333335C560.6666666666666,112.03555555555556,563.0833333333334,112.02277777777778,565.5,112.00999999999999C567.9166666666666,111.9972222222222,570.3333333333334,111.98444444444443,572.75,111.97166666666666C575.1666666666666,111.9588888888889,577.5833333333334,111.94611111111111,580,111.93333333333334C582.4166666666666,111.92055555555557,584.8333333333334,111.90777777777777,587.25,111.895C589.6666666666666,111.88222222222223,592.0833333333334,111.86944444444444,594.5,111.85666666666667C596.9166666666666,111.8438888888889,599.3333333333334,111.83111111111111,601.75,111.81833333333334C604.1666666666666,111.80555555555557,606.5833333333334,111.79277777777777,609,111.78C611.4166666666666,111.76722222222223,613.8333333333334,111.75444444444445,616.25,111.74166666666667C618.6666666666666,111.7288888888889,621.0833333333334,111.71611111111112,623.5,111.70333333333333C625.9166666666666,111.69055555555555,628.3333333333334,111.67777777777776,630.75,111.66499999999999C633.1666666666666,111.65222222222222,635.5833333333334,111.63944444444444,638,111.62666666666667C640.4166666666666,111.6138888888889,642.8333333333334,111.60111111111111,645.25,111.58833333333334C647.6666666666666,111.57555555555557,650.0833333333334,111.56277777777777,652.5,111.55C654.9166666666666,111.53722222222223,657.3333333333334,111.52444444444444,659.75,111.51166666666667C662.1666666666666,111.4988888888889,664.5833333333334,111.48611111111111,667,111.47333333333334C669.4166666666666,111.46055555555557,671.8333333333334,111.44777777777779,674.25,111.435C676.6666666666666,111.42222222222222,679.0833333333334,111.40944444444443,681.5,111.39666666666666C683.9166666666666,111.38388888888889,686.3333333333334,111.3711111111111,688.75,111.35833333333333C691.1666666666666,111.34555555555556,693.5833333333334,111.33277777777776,696,111.32C698.4166666666666,111.30722222222222,700.8333333333334,111.29444444444444,703.25,111.28166666666667C705.6666666666666,111.2688888888889,708.0833333333334,111.25611111111111,710.5,111.24333333333334C712.9166666666666,111.23055555555557,715.3333333333334,111.21777777777777,717.75,111.205C720.1666666666666,111.19222222222223,722.5833333333334,111.17944444444444,725,111.16666666666667C727.4166666666666,111.1538888888889,729.8333333333334,111.14111111111112,732.25,111.12833333333334C734.6666666666666,111.11555555555557,737.0833333333334,111.10277777777779,739.5,111.09C741.9166666666666,111.07722222222222,744.3333333333334,111.06444444444443,746.75,111.05166666666666C749.1666666666666,111.03888888888889,751.5833333333334,111.0261111111111,754,111.01333333333334C756.4166666666666,111.00055555555556,758.8333333333334,110.98777777777777,761.25,110.975C763.6666666666666,110.96222222222222,766.0833333333334,110.94944444444444,768.5,110.93666666666667C770.9166666666666,110.9238888888889,773.3333333333334,110.91111111111111,775.75,110.89833333333334C778.1666666666666,110.88555555555557,780.5833333333334,110.87277777777777,783,110.86C785.4166666666667,110.84722222222221,787.8333333333334,110.83444444444446,790.2500000000001,110.82166666666667C792.6666666666667,110.8088888888889,795.0833333333335,110.79611111111112,797.5000000000001,110.78333333333333C799.9166666666667,110.77055555555555,802.3333333333335,110.75777777777776,804.7500000000001,110.74499999999999C807.1666666666667,110.73222222222222,809.5833333333335,110.71944444444443,812.0000000000001,110.70666666666666C814.4166666666667,110.69388888888889,816.8333333333333,110.68111111111111,819.2499999999999,110.66833333333334C821.6666666666665,110.65555555555555,824.0833333333333,110.64277777777777,826.4999999999999,110.63C828.9166666666665,110.61722222222222,831.3333333333333,110.60444444444444,833.7499999999999,110.59166666666667C836.1666666666665,110.5788888888889,838.5833333333333,110.56611111111111,840.9999999999999,110.55333333333334C843.4166666666666,110.54055555555556,845.8333333333333,110.52777777777779,848.25,110.515C850.6666666666666,110.50222222222223,853.0833333333334,110.48944444444444,855.5,110.47666666666667C857.9166666666666,110.4638888888889,860.3333333333334,110.45111111111112,862.75,110.43833333333333C865.1666666666666,110.42555555555555,867.5833333333334,110.41277777777776,870,110.39999999999999C872.4166666666666,110.38722222222222,874.8333333333334,110.37444444444444,877.25,110.36166666666666C879.6666666666666,110.3488888888889,882.0833333333334,110.33611111111111,884.5,110.32333333333334C886.9166666666666,110.31055555555557,889.3333333333334,110.29777777777777,891.75,110.285C894.1666666666666,110.27222222222223,896.5833333333334,110.25944444444444,899,110.24666666666667C901.4166666666666,110.2338888888889,903.8333333333334,110.22111111111111,906.25,110.20833333333334C908.6666666666666,110.19555555555557,911.0833333333334,110.18277777777779,913.5,110.17C915.9166666666666,110.15722222222222,918.3333333333334,110.14444444444443,920.75,110.13166666666666C923.1666666666666,110.11888888888889,925.5833333333334,110.1061111111111,928,110.09333333333333C930.4166666666666,110.08055555555556,932.8333333333334,110.06777777777776,935.25,110.05499999999999C937.6666666666666,110.04222222222222,940.0833333333334,110.02944444444444,942.5,110.01666666666667C944.9166666666666,110.0038888888889,947.3333333333334,109.99111111111111,949.75,109.97833333333334C952.1666666666666,109.96555555555557,954.5833333333334,109.95277777777777,957,109.94C959.4166666666666,109.92722222222223,961.8333333333334,109.91444444444444,964.25,109.90166666666667C966.6666666666667,109.8888888888889,969.0833333333334,109.87611111111113,971.5000000000001,109.86333333333334C973.9166666666667,109.85055555555556,976.3333333333335,109.83777777777777,978.7500000000001,109.82499999999999C981.1666666666667,109.8122222222222,983.5833333333335,109.79944444444443,986.0000000000001,109.78666666666666C988.4166666666667,109.77388888888889,990.8333333333335,109.76111111111112,993.2500000000001,109.74833333333333C995.6666666666667,109.73555555555556,998.0833333333333,109.72277777777776,1000.4999999999999,109.71C1002.9166666666665,109.69722222222221,1005.3333333333333,109.68444444444444,1007.7499999999999,109.67166666666667C1010.1666666666665,109.6588888888889,1012.5833333333333,109.64611111111111,1014.9999999999999,109.63333333333334C1017.4166666666665,109.62055555555557,1019.8333333333333,109.60777777777777,1022.2499999999999,109.595C1024.6666666666665,109.58222222222221,1027.0833333333333,109.56944444444446,1029.5,109.55666666666667C1031.9166666666667,109.5438888888889,1034.3333333333333,109.53111111111112,1036.75,109.51833333333333C1039.1666666666667,109.50555555555555,1041.5833333333333,109.49277777777776,1044,109.47999999999999C1046.4166666666667,109.46722222222222,1048.8333333333333,109.45444444444443,1051.25,109.44166666666666C1053.6666666666667,109.42888888888889,1056.0833333333333,109.4161111111111,1058.5,109.40333333333334C1060.9166666666667,109.39055555555557,1063.3333333333333,109.37777777777777,1065.75,109.365C1068.1666666666667,109.35222222222222,1070.5833333333333,109.33944444444444,1073,109.32666666666667C1075.4166666666667,109.3138888888889,1077.8333333333333,109.30111111111111,1080.25,109.28833333333334C1082.6666666666667,109.27555555555557,1085.0833333333333,109.26277777777779,1087.5,109.25C1089.9166666666667,109.23722222222221,1092.3333333333333,109.22444444444443,1094.75,109.21166666666666C1097.1666666666667,109.19888888888889,1099.5833333333333,109.1861111111111,1102,109.17333333333333C1104.4166666666667,109.16055555555556,1106.8333333333333,109.14777777777776,1109.25,109.13499999999999C1111.6666666666667,109.12222222222222,1114.0833333333333,109.10944444444443,1116.5,109.09666666666666C1118.9166666666667,109.0838888888889,1121.3333333333333,109.07111111111111,1123.75,109.05833333333334C1126.1666666666667,109.04555555555557,1128.5833333333333,109.03277777777777,1131,109.02C1133.4166666666667,109.00722222222223,1135.8333333333333,108.99444444444444,1138.25,108.98166666666667C1140.6666666666667,108.9688888888889,1143.0833333333333,108.95611111111111,1145.5,108.94333333333334C1147.9166666666667,108.93055555555557,1150.3333333333333,108.91777777777779,1152.75,108.905C1155.1666666666667,108.89222222222222,1157.5833333333333,108.87944444444443,1160,108.86666666666666C1162.4166666666667,108.85388888888889,1164.8333333333333,108.8411111111111,1167.25,108.82833333333333C1169.6666666666667,108.81555555555556,1172.0833333333333,108.80277777777776,1174.5,108.78999999999999C1176.9166666666667,108.77722222222222,1179.3333333333333,108.76444444444444,1181.75,108.75166666666667C1184.1666666666667,108.7388888888889,1186.5833333333333,108.72611111111111,1189,108.71333333333334C1191.4166666666667,108.70055555555557,1193.8333333333333,108.68777777777777,1196.25,108.675C1198.6666666666667,108.66222222222223,1201.0833333333333,108.64944444444444,1203.5,108.63666666666667C1205.9166666666667,108.6238888888889,1208.3333333333333,108.61111111111111,1210.75,108.59833333333333C1213.1666666666667,108.58555555555554,1215.5833333333333,108.57277777777776,1218,108.55999999999999C1220.4166666666667,108.54722222222222,1222.8333333333333,108.53444444444443,1225.25,108.52166666666666C1227.6666666666667,108.50888888888889,1230.0833333333333,108.4961111111111,1232.5,108.48333333333333C1234.9166666666667,108.47055555555556,1237.3333333333333,108.45777777777776,1239.75,108.445C1242.1666666666667,108.43222222222222,1244.5833333333333,108.41944444444444,1247,108.40666666666667C1249.4166666666667,108.3938888888889,1251.8333333333333,108.38111111111111,1254.25,108.36833333333334C1256.6666666666667,108.35555555555557,1259.0833333333333,108.34277777777777,1261.5,108.33C1263.9166666666667,108.31722222222223,1266.3333333333333,108.30444444444444,1268.75,108.29166666666667C1271.1666666666667,108.2788888888889,1273.5833333333333,108.2661111111111,1276,108.25333333333333C1278.4166666666667,108.24055555555556,1280.8333333333333,108.22777777777777,1283.25,108.215C1285.6666666666667,108.20222222222223,1288.0833333333333,108.18944444444443,1290.5,108.17666666666666C1292.9166666666667,108.16388888888889,1295.3333333333333,108.1511111111111,1297.75,108.13833333333334C1300.1666666666667,108.12555555555556,1302.5833333333333,108.12555555555555,1305,108.1C1307.4166666666667,108.07444444444444,1309.8333333333333,105.225,1312.25,103.7875C1314.6666666666667,102.35,1317.0833333333333,100.9125,1319.5,99.475C1321.9166666666667,98.0375,1324.3333333333333,96.60000000000001,1326.75,95.16250000000001C1329.1666666666667,93.72500000000001,1331.5833333333333,92.28750000000001,1334,90.85000000000001C1336.4166666666667,89.41250000000001,1338.8333333333333,87.975,1341.25,86.5375C1343.6666666666667,85.1,1346.0833333333333,83.66250000000001,1348.5,82.22500000000001C1350.9166666666667,80.78750000000001,1353.3333333333333,79.35,1355.75,77.9125C1358.1666666666667,76.475,1360.5833333333333,75.03750000000001,1363,73.60000000000001C1365.4166666666667,72.16250000000001,1367.8333333333333,70.72500000000001,1370.25,69.28750000000001C1372.6666666666667,67.85000000000001,1375.0833333333333,66.4125,1377.5,64.975C1379.9166666666667,63.537499999999994,1382.3333333333333,62.10000000000001,1384.75,60.66250000000001C1387.1666666666667,59.22500000000001,1389.5833333333333,57.7875,1392,56.35C1394.4166666666667,54.9125,1396.8333333333333,53.475,1399.25,52.0375C1401.6666666666667,50.6,1404.0833333333333,49.1625,1406.5,47.725C1408.9166666666667,46.2875,1411.3333333333333,44.849999999999994,1413.75,43.412499999999994C1416.1666666666667,41.974999999999994,1418.5833333333333,40.537499999999994,1421,39.099999999999994C1423.4166666666667,37.662499999999994,1425.8333333333333,36.225,1428.25,34.7875C1430.6666666666667,33.35,1433.0833333333333,31.9125,1435.5,30.475C1437.9166666666667,29.0375,1440.3333333333333,27.600000000000005,1442.75,26.162500000000005C1445.1666666666667,24.725000000000005,1447.5833333333333,23.287499999999998,1450,21.849999999999994" fill="transparent" stroke-linecap="round" stroke="#B6509E" stroke-width="2"></path><path class="visx-linepath" d="M0,106.94999999994889C2.4166666666666665,106.94148148145166,4.833333333333334,106.93296296295445,7.25,106.92444444444445C9.666666666666666,106.91592592593445,12.083333333333334,106.9074074074074,14.5,106.89888888888889C16.916666666666668,106.89037037037038,19.333333333333332,106.88185185185185,21.75,106.87333333333333C24.166666666666668,106.86481481481482,26.583333333333332,106.85629629629629,29,106.84777777777778C31.416666666666668,106.83925925925926,33.833333333333336,106.83074074074074,36.25,106.82222222222222C38.666666666666664,106.81370370370371,41.083333333333336,106.80518518518518,43.5,106.79666666666667C45.91666666666667,106.78814814814815,48.333333333333336,106.77962962962962,50.75000000000001,106.77111111111111C53.16666666666667,106.7625925925926,55.583333333333336,106.75407407407408,58,106.74555555555557C60.416666666666664,106.73703703703706,62.833333333333336,106.72851851851851,65.25,106.72C67.66666666666667,106.71148148148148,70.08333333333333,106.70296296296296,72.5,106.69444444444444C74.91666666666667,106.68592592592593,77.33333333333333,106.6774074074074,79.75,106.66888888888889C82.16666666666667,106.66037037037037,84.58333333333333,106.65185185185184,87,106.64333333333333C89.41666666666667,106.63481481481482,91.83333333333333,106.62629629629629,94.25,106.61777777777777C96.66666666666667,106.60925925925926,99.08333333333334,106.60074074074073,101.50000000000001,106.59222222222222C103.91666666666667,106.5837037037037,106.33333333333334,106.57518518518518,108.75,106.56666666666666C111.16666666666667,106.55814814814815,113.58333333333333,106.54962962962962,116,106.5411111111111C118.41666666666667,106.5325925925926,120.83333333333334,106.52407407407408,123.25000000000001,106.51555555555557C125.66666666666667,106.50703703703705,128.08333333333334,106.49851851851852,130.5,106.49000000000001C132.91666666666666,106.4814814814815,135.33333333333334,106.47296296296297,137.75,106.46444444444445C140.16666666666666,106.45592592592594,142.58333333333334,106.44740740740741,145,106.4388888888889C147.41666666666666,106.43037037037038,149.83333333333334,106.42185185185187,152.25,106.41333333333334C154.66666666666666,106.40481481481481,157.08333333333334,106.3962962962963,159.5,106.38777777777777C161.91666666666666,106.37925925925924,164.33333333333334,106.37074074074073,166.75,106.36222222222221C169.16666666666666,106.3537037037037,171.58333333333334,106.34518518518517,174,106.33666666666666C176.41666666666666,106.32814814814814,178.83333333333334,106.31962962962962,181.25,106.3111111111111C183.66666666666666,106.30259259259259,186.08333333333334,106.29407407407408,188.5,106.28555555555556C190.91666666666666,106.27703703703705,193.33333333333334,106.26851851851852,195.75,106.26C198.16666666666669,106.25148148148149,200.58333333333334,106.24296296296296,203.00000000000003,106.23444444444445C205.41666666666669,106.22592592592594,207.83333333333331,106.2174074074074,210.24999999999997,106.2088888888889C212.66666666666666,106.20037037037038,215.08333333333331,106.19185185185185,217.5,106.18333333333334C219.91666666666666,106.17481481481482,222.33333333333334,106.1662962962963,224.75,106.15777777777778C227.16666666666666,106.14925925925927,229.58333333333334,106.14074074074074,232,106.13222222222223C234.41666666666666,106.12370370370371,236.83333333333334,106.11518518518518,239.25,106.10666666666667C241.66666666666669,106.09814814814816,244.08333333333334,106.08962962962963,246.50000000000003,106.08111111111111C248.91666666666669,106.0725925925926,251.33333333333331,106.06407407407407,253.74999999999997,106.05555555555556C256.16666666666663,106.04703703703704,258.5833333333333,106.03851851851852,261,106.03C263.4166666666667,106.02148148148149,265.8333333333333,106.01296296296296,268.25,106.00444444444445C270.6666666666667,105.99592592592593,273.0833333333333,105.9874074074074,275.5,105.97888888888889C277.9166666666667,105.97037037037038,280.3333333333333,105.96185185185185,282.75,105.95333333333333C285.1666666666667,105.94481481481482,287.5833333333333,105.93629629629629,290,105.92777777777778C292.4166666666667,105.91925925925926,294.8333333333333,105.91074074074074,297.25,105.90222222222222C299.6666666666667,105.89370370370371,302.0833333333333,105.88518518518518,304.5,105.87666666666667C306.9166666666667,105.86814814814815,309.3333333333333,105.85962962962962,311.75,105.85111111111111C314.1666666666667,105.8425925925926,316.5833333333333,105.83407407407408,319,105.82555555555557C321.4166666666667,105.81703703703705,323.8333333333333,105.80851851851853,326.25,105.80000000000001C328.6666666666667,105.7914814814815,331.0833333333333,105.78296296296296,333.5,105.77444444444444C335.9166666666667,105.76592592592593,338.3333333333333,105.7574074074074,340.75,105.74888888888889C343.1666666666667,105.74037037037037,345.5833333333333,105.73185185185184,348,105.72333333333333C350.4166666666667,105.71481481481482,352.8333333333333,105.70629629629629,355.25,105.69777777777777C357.6666666666667,105.68925925925926,360.0833333333333,105.68074074074073,362.5,105.67222222222222C364.9166666666667,105.6637037037037,367.3333333333333,105.65518518518518,369.75,105.64666666666666C372.1666666666667,105.63814814814815,374.5833333333333,105.62962962962962,377,105.6211111111111C379.4166666666667,105.61259259259259,381.8333333333333,105.60407407407408,384.25,105.59555555555556C386.6666666666667,105.58703703703705,389.0833333333333,105.57851851851851,391.5,105.57C393.9166666666667,105.56148148148148,396.33333333333337,105.55296296296297,398.75000000000006,105.54444444444445C401.16666666666674,105.53592592592594,403.58333333333337,105.52740740740741,406.00000000000006,105.5188888888889C408.4166666666667,105.51037037037038,410.8333333333333,105.50185185185185,413.24999999999994,105.49333333333334C415.66666666666663,105.48481481481483,418.08333333333326,105.4762962962963,420.49999999999994,105.46777777777778C422.91666666666663,105.45925925925926,425.3333333333333,105.45074074074073,427.75,105.44222222222221C430.1666666666667,105.4337037037037,432.5833333333333,105.42518518518519,435,105.41666666666667C437.4166666666667,105.40814814814816,439.8333333333333,105.39962962962962,442.25,105.3911111111111C444.6666666666667,105.38259259259259,447.0833333333333,105.37407407407407,449.5,105.36555555555556C451.9166666666667,105.35703703703705,454.3333333333333,105.34851851851852,456.75,105.34C459.1666666666667,105.33148148148149,461.5833333333333,105.32296296296296,464,105.31444444444445C466.4166666666667,105.30592592592593,468.8333333333333,105.2974074074074,471.25,105.28888888888889C473.6666666666667,105.28037037037038,476.0833333333333,105.27185185185185,478.5,105.26333333333334C480.9166666666667,105.25481481481482,483.33333333333337,105.2462962962963,485.75000000000006,105.23777777777778C488.16666666666674,105.22925925925927,490.58333333333337,105.22074074074074,493.00000000000006,105.21222222222222C495.4166666666667,105.20370370370371,497.8333333333333,105.19518518518518,500.24999999999994,105.18666666666667C502.66666666666663,105.17814814814815,505.08333333333326,105.16962962962963,507.49999999999994,105.16111111111111C509.91666666666663,105.1525925925926,512.3333333333333,105.14407407407407,514.75,105.13555555555556C517.1666666666666,105.12703703703704,519.5833333333334,105.11851851851851,522,105.11C524.4166666666666,105.10148148148149,526.8333333333334,105.09296296296296,529.25,105.08444444444444C531.6666666666666,105.07592592592593,534.0833333333334,105.0674074074074,536.5,105.05888888888889C538.9166666666666,105.05037037037037,541.3333333333334,105.04185185185185,543.75,105.03333333333333C546.1666666666666,105.02481481481482,548.5833333333334,105.01629629629629,551,105.00777777777778C553.4166666666666,104.99925925925926,555.8333333333334,104.99074074074073,558.25,104.98222222222222C560.6666666666666,104.9737037037037,563.0833333333334,104.96518518518519,565.5,104.95666666666668C567.9166666666666,104.94814814814816,570.3333333333334,104.93962962962962,572.75,104.93111111111111C575.1666666666666,104.9225925925926,577.5833333333334,104.91407407407408,580,104.90555555555557C582.4166666666666,104.89703703703705,584.8333333333334,104.88851851851852,587.25,104.88000000000001C589.6666666666666,104.8714814814815,592.0833333333334,104.86296296296297,594.5,104.85444444444445C596.9166666666666,104.84592592592594,599.3333333333334,104.8374074074074,601.75,104.82888888888888C604.1666666666666,104.82037037037037,606.5833333333334,104.81185185185184,609,104.80333333333333C611.4166666666666,104.79481481481481,613.8333333333334,104.78629629629629,616.25,104.77777777777777C618.6666666666666,104.76925925925926,621.0833333333334,104.76074074074073,623.5,104.75222222222222C625.9166666666666,104.7437037037037,628.3333333333334,104.73518518518517,630.75,104.72666666666666C633.1666666666666,104.71814814814815,635.5833333333334,104.70962962962962,638,104.7011111111111C640.4166666666666,104.69259259259259,642.8333333333334,104.68407407407408,645.25,104.67555555555556C647.6666666666666,104.66703703703705,650.0833333333334,104.65851851851852,652.5,104.65C654.9166666666666,104.64148148148149,657.3333333333334,104.63296296296296,659.75,104.62444444444445C662.1666666666666,104.61592592592594,664.5833333333334,104.60740740740741,667,104.5988888888889C669.4166666666666,104.59037037037038,671.8333333333334,104.58185185185185,674.25,104.57333333333334C676.6666666666666,104.56481481481482,679.0833333333334,104.5562962962963,681.5,104.54777777777778C683.9166666666666,104.53925925925927,686.3333333333334,104.53074074074073,688.75,104.52222222222221C691.1666666666666,104.5137037037037,693.5833333333334,104.50518518518518,696,104.49666666666667C698.4166666666666,104.48814814814816,700.8333333333334,104.47962962962961,703.25,104.4711111111111C705.6666666666666,104.46259259259259,708.0833333333334,104.45407407407407,710.5,104.44555555555556C712.9166666666666,104.43703703703704,715.3333333333334,104.42851851851852,717.75,104.42C720.1666666666666,104.41148148148149,722.5833333333334,104.40296296296296,725,104.39444444444445C727.4166666666666,104.38592592592593,729.8333333333334,104.3774074074074,732.25,104.36888888888889C734.6666666666666,104.36037037037038,737.0833333333334,104.35185185185185,739.5,104.34333333333333C741.9166666666666,104.33481481481482,744.3333333333334,104.32629629629629,746.75,104.31777777777778C749.1666666666666,104.30925925925926,751.5833333333334,104.30074074074074,754,104.29222222222222C756.4166666666666,104.28370370370371,758.8333333333334,104.27518518518518,761.25,104.26666666666667C763.6666666666666,104.25814814814815,766.0833333333334,104.24962962962962,768.5,104.24111111111111C770.9166666666666,104.2325925925926,773.3333333333334,104.22407407407407,775.75,104.21555555555555C778.1666666666666,104.20703703703704,780.5833333333334,104.19851851851851,783,104.19C785.4166666666667,104.18148148148148,787.8333333333334,104.17296296296296,790.2500000000001,104.16444444444444C792.6666666666667,104.15592592592593,795.0833333333335,104.1474074074074,797.5000000000001,104.13888888888889C799.9166666666667,104.13037037037037,802.3333333333335,104.12185185185184,804.7500000000001,104.11333333333333C807.1666666666667,104.10481481481482,809.5833333333335,104.09629629629629,812.0000000000001,104.08777777777777C814.4166666666667,104.07925925925926,816.8333333333333,104.07074074074073,819.2499999999999,104.06222222222222C821.6666666666665,104.0537037037037,824.0833333333333,104.04518518518519,826.4999999999999,104.03666666666668C828.9166666666665,104.02814814814816,831.3333333333333,104.01962962962962,833.7499999999999,104.0111111111111C836.1666666666665,104.00259259259259,838.5833333333333,103.99407407407408,840.9999999999999,103.98555555555556C843.4166666666666,103.97703703703705,845.8333333333333,103.96851851851852,848.25,103.96000000000001C850.6666666666666,103.9514814814815,853.0833333333334,103.94296296296297,855.5,103.93444444444445C857.9166666666666,103.92592592592594,860.3333333333334,103.91740740740741,862.75,103.9088888888889C865.1666666666666,103.90037037037038,867.5833333333334,103.89185185185184,870,103.88333333333333C872.4166666666666,103.87481481481481,874.8333333333334,103.86629629629628,877.25,103.85777777777777C879.6666666666666,103.84925925925926,882.0833333333334,103.84074074074073,884.5,103.83222222222221C886.9166666666666,103.8237037037037,889.3333333333334,103.81518518518519,891.75,103.80666666666667C894.1666666666666,103.79814814814816,896.5833333333334,103.78962962962962,899,103.7811111111111C901.4166666666666,103.77259259259259,903.8333333333334,103.76407407407407,906.25,103.75555555555556C908.6666666666666,103.74703703703705,911.0833333333334,103.73851851851852,913.5,103.73C915.9166666666666,103.72148148148149,918.3333333333334,103.71296296296296,920.75,103.70444444444445C923.1666666666666,103.69592592592593,925.5833333333334,103.6874074074074,928,103.67888888888889C930.4166666666666,103.67037037037038,932.8333333333334,103.66185185185185,935.25,103.65333333333334C937.6666666666666,103.64481481481482,940.0833333333334,103.6362962962963,942.5,103.62777777777778C944.9166666666666,103.61925925925927,947.3333333333334,103.61074074074074,949.75,103.60222222222222C952.1666666666666,103.59370370370371,954.5833333333334,103.5851851851852,957,103.57666666666667C959.4166666666666,103.56814814814814,961.8333333333334,103.55962962962961,964.25,103.5511111111111C966.6666666666667,103.54259259259258,969.0833333333334,103.53407407407407,971.5000000000001,103.52555555555556C973.9166666666667,103.51703703703704,976.3333333333335,103.50851851851851,978.7500000000001,103.5C981.1666666666667,103.49148148148149,983.5833333333335,103.48296296296296,986.0000000000001,103.47444444444444C988.4166666666667,103.46592592592593,990.8333333333335,103.4574074074074,993.2500000000001,103.44888888888889C995.6666666666667,103.44037037037037,998.0833333333333,103.43185185185185,1000.4999999999999,103.42333333333333C1002.9166666666665,103.41481481481482,1005.3333333333333,103.40629629629629,1007.7499999999999,103.39777777777778C1010.1666666666665,103.38925925925926,1012.5833333333333,103.38074074074073,1014.9999999999999,103.37222222222222C1017.4166666666665,103.3637037037037,1019.8333333333333,103.35518518518519,1022.2499999999999,103.34666666666668C1024.6666666666665,103.33814814814816,1027.0833333333333,103.32962962962964,1029.5,103.32111111111112C1031.9166666666667,103.31259259259261,1034.3333333333333,103.3040740740741,1036.75,103.29555555555557C1039.1666666666667,103.28703703703704,1041.5833333333333,103.27851851851852,1044,103.27C1046.4166666666667,103.26148148148147,1048.8333333333333,103.25296296296295,1051.25,103.24444444444444C1053.6666666666667,103.23592592592593,1056.0833333333333,103.2274074074074,1058.5,103.21888888888888C1060.9166666666667,103.21037037037037,1063.3333333333333,103.20185185185184,1065.75,103.19333333333333C1068.1666666666667,103.18481481481481,1070.5833333333333,103.17629629629629,1073,103.16777777777777C1075.4166666666667,103.15925925925926,1077.8333333333333,103.15074074074073,1080.25,103.14222222222222C1082.6666666666667,103.1337037037037,1085.0833333333333,103.12518518518519,1087.5,103.11666666666667C1089.9166666666667,103.10814814814816,1092.3333333333333,103.09962962962962,1094.75,103.0911111111111C1097.1666666666667,103.08259259259259,1099.5833333333333,103.07407407407408,1102,103.06555555555556C1104.4166666666667,103.05703703703705,1106.8333333333333,103.04851851851852,1109.25,103.04C1111.6666666666667,103.03148148148149,1114.0833333333333,103.02296296296296,1116.5,103.01444444444445C1118.9166666666667,103.00592592592594,1121.3333333333333,102.99740740740741,1123.75,102.9888888888889C1126.1666666666667,102.98037037037038,1128.5833333333333,102.97185185185185,1131,102.96333333333334C1133.4166666666667,102.95481481481482,1135.8333333333333,102.94629629629628,1138.25,102.93777777777777C1140.6666666666667,102.92925925925925,1143.0833333333333,102.92074074074073,1145.5,102.91222222222221C1147.9166666666667,102.9037037037037,1150.3333333333333,102.89518518518518,1152.75,102.88666666666667C1155.1666666666667,102.87814814814816,1157.5833333333333,102.86962962962963,1160,102.86111111111111C1162.4166666666667,102.8525925925926,1164.8333333333333,102.84407407407407,1167.25,102.83555555555556C1169.6666666666667,102.82703703703704,1172.0833333333333,102.81851851851852,1174.5,102.81C1176.9166666666667,102.80148148148149,1179.3333333333333,102.79296296296296,1181.75,102.78444444444445C1184.1666666666667,102.77592592592593,1186.5833333333333,102.7674074074074,1189,102.75888888888889C1191.4166666666667,102.75037037037038,1193.8333333333333,102.74185185185185,1196.25,102.73333333333333C1198.6666666666667,102.72481481481482,1201.0833333333333,102.71629629629629,1203.5,102.70777777777778C1205.9166666666667,102.69925925925926,1208.3333333333333,102.69074074074074,1210.75,102.68222222222222C1213.1666666666667,102.67370370370371,1215.5833333333333,102.66518518518518,1218,102.65666666666667C1220.4166666666667,102.64814814814815,1222.8333333333333,102.63962962962961,1225.25,102.6311111111111C1227.6666666666667,102.62259259259258,1230.0833333333333,102.61407407407407,1232.5,102.60555555555555C1234.9166666666667,102.59703703703704,1237.3333333333333,102.58851851851851,1239.75,102.58C1242.1666666666667,102.57148148148148,1244.5833333333333,102.56296296296296,1247,102.55444444444444C1249.4166666666667,102.54592592592593,1251.8333333333333,102.5374074074074,1254.25,102.52888888888889C1256.6666666666667,102.52037037037037,1259.0833333333333,102.51185185185184,1261.5,102.50333333333333C1263.9166666666667,102.49481481481482,1266.3333333333333,102.4862962962963,1268.75,102.47777777777779C1271.1666666666667,102.46925925925927,1273.5833333333333,102.46074074074073,1276,102.45222222222222C1278.4166666666667,102.4437037037037,1280.8333333333333,102.43518518518519,1283.25,102.42666666666668C1285.6666666666667,102.41814814814816,1288.0833333333333,102.40962962962963,1290.5,102.40111111111112C1292.9166666666667,102.3925925925926,1295.3333333333333,102.38407407407408,1297.75,102.37555555555556C1300.1666666666667,102.36703703703705,1302.5833333333333,102.36703703703705,1305,102.35000000000001C1307.4166666666667,102.33296296296297,1309.8333333333333,99.58999999999999,1312.25,98.21C1314.6666666666667,96.83,1317.0833333333333,95.45,1319.5,94.07000000000001C1321.9166666666667,92.69000000000001,1324.3333333333333,91.31,1326.75,89.93C1329.1666666666667,88.55000000000001,1331.5833333333333,87.17000000000002,1334,85.79C1336.4166666666667,84.41,1338.8333333333333,83.03,1341.25,81.64999999999999C1343.6666666666667,80.26999999999998,1346.0833333333333,78.88999999999999,1348.5,77.50999999999999C1350.9166666666667,76.13,1353.3333333333333,74.75000000000001,1355.75,73.37000000000002C1358.1666666666667,71.99000000000002,1360.5833333333333,70.61000000000001,1363,69.23C1365.4166666666667,67.85,1367.8333333333333,66.47,1370.25,65.09C1372.6666666666667,63.71,1375.0833333333333,62.330000000000005,1377.5,60.95C1379.9166666666667,59.57,1382.3333333333333,58.190000000000005,1384.75,56.81C1387.1666666666667,55.43,1389.5833333333333,54.04999999999999,1392,52.669999999999995C1394.4166666666667,51.29,1396.8333333333333,49.910000000000004,1399.25,48.53000000000001C1401.6666666666667,47.15000000000001,1404.0833333333333,45.77,1406.5,44.39C1408.9166666666667,43.01,1411.3333333333333,41.63,1413.75,40.25C1416.1666666666667,38.87,1418.5833333333333,37.489999999999995,1421,36.10999999999999C1423.4166666666667,34.72999999999999,1425.8333333333333,33.35,1428.25,31.970000000000002C1430.6666666666667,30.590000000000003,1433.0833333333333,29.21,1435.5,27.83C1437.9166666666667,26.449999999999996,1440.3333333333333,25.069999999999993,1442.75,23.689999999999994C1445.1666666666667,22.309999999999995,1447.5833333333333,20.93,1450,19.550000000000004" fill="transparent" stroke-linecap="round" stroke="#E7C6DF" stroke-width="2"></path><g class="visx-group visx-axis visx-axis-bottom" transform="translate(0, 115)"><g class="visx-group visx-axis-tick" transform="translate(0, 0)"><line class="visx-line" x1="0" y1="0" x2="0" y2="8" fill="transparent" shape-rendering="crispEdges" stroke="#000" stroke-width="0" stroke-linecap="square"></line><svg x="0" y="0" font-size="10" style="overflow:visible"><text transform="" x="0" y="18" fill="#000" font-size="10" text-anchor="middle"><tspan x="0" dy="0em">0%</tspan></text></svg></g><g class="visx-group visx-axis-tick" transform="translate(0, 0)"><line class="visx-line" x1="362.5" y1="0" x2="362.5" y2="8" fill="transparent" shape-rendering="crispEdges" stroke="#000" stroke-width="0" stroke-linecap="square"></line><svg x="0" y="0" font-size="10" style="overflow:visible"><text transform="" x="362.5" y="18" fill="#000" font-size="10" text-anchor="middle"><tspan x="362.5" dy="0em">25%</tspan></text></svg></g><g class="visx-group visx-axis-tick" transform="translate(0, 0)"><line class="visx-line" x1="725" y1="0" x2="725" y2="8" fill="transparent" shape-rendering="crispEdges" stroke="#000" stroke-width="0" stroke-linecap="square"></line><svg x="0" y="0" font-size="10" style="overflow:visible"><text transform="" x="725" y="18" fill="#000" font-size="10" text-anchor="middle"><tspan x="725" dy="0em">50%</tspan></text></svg></g><g class="visx-group visx-axis-tick" transform="translate(0, 0)"><line class="visx-line" x1="1087.5" y1="0" x2="1087.5" y2="8" fill="transparent" shape-rendering="crispEdges" stroke="#000" stroke-width="0" stroke-linecap="square"></line><svg x="0" y="0" font-size="10" style="overflow:visible"><text transform="" x="1087.5" y="18" fill="#000" font-size="10" text-anchor="middle"><tspan x="1087.5" dy="0em">75%</tspan></text></svg></g><g class="visx-group visx-axis-tick" transform="translate(0, 0)"><line class="visx-line" x1="1450" y1="0" x2="1450" y2="8" fill="transparent" shape-rendering="crispEdges" stroke="#000" stroke-width="0" stroke-linecap="square"></line><svg x="0" y="0" font-size="10" style="overflow:visible"><text transform="" x="1450" y="18" fill="#000" font-size="10" text-anchor="middle"><tspan x="1450" dy="0em">100%</tspan></text></svg></g><line class="visx-line visx-axis-line" x1="0.5" y1="0" x2="1450.5" y2="0" fill="transparent" shape-rendering="crispEdges" stroke="#222" stroke-width="0"></line></g><g class="visx-group visx-axis visx-axis-left" transform="translate(0, 0)"><g class="visx-group visx-axis-tick" transform="translate(0, 0)"><line class="visx-line" x1="0" y1="115" x2="-8" y2="115" fill="transparent" shape-rendering="crispEdges" stroke="#222" stroke-width="0" stroke-linecap="square"></line><svg x="-30" y="0" font-size="8" style="overflow:visible"><text transform="" x="-8" y="115" fill="#000" font-size="8" text-anchor="start"><tspan x="-8" dy="0em">0%</tspan></text></svg></g><g class="visx-group visx-axis-tick" transform="translate(0, 0)"><line class="visx-line" x1="0" y1="57.5" x2="-8" y2="57.5" fill="transparent" shape-rendering="crispEdges" stroke="#222" stroke-width="0" stroke-linecap="square"></line><svg x="-30" y="0" font-size="8" style="overflow:visible"><text transform="" x="-8" y="57.5" fill="#000" font-size="8" text-anchor="start"><tspan x="-8" dy="0em">50%</tspan></text></svg></g><g class="visx-group visx-axis-tick" transform="translate(0, 0)"><line class="visx-line" x1="0" y1="0" x2="-8" y2="0" fill="transparent" shape-rendering="crispEdges" stroke="#222" stroke-width="0" stroke-linecap="square"></line><svg x="-30" y="0" font-size="8" style="overflow:visible"><text transform="" x="-8" y="0" fill="#000" font-size="8" text-anchor="start"><tspan x="-8" dy="0em">100%</tspan></text></svg></g><line class="visx-line visx-axis-line" x1="0" y1="115.5" x2="0" y2="0.5" fill="transparent" shape-rendering="crispEdges" stroke="#222" stroke-width="0"></line></g><rect class="visx-bar" width="1450" height="115" fill="transparent"></rect><line class="visx-line" x1="1305" y1="28" x2="1305" y2="115" fill="transparent" shape-rendering="crispEdges" stroke="#0062D2" stroke-width="1" pointer-events="none" stroke-dasharray="5,2"></line><svg x="0" y="0" font-size="10px" style="overflow:visible"><text transform="" x="1305" y="20" font-size="10px" fill="#fff" stroke="#fff" stroke-width="0.8em" text-anchor="middle"><tspan x="1305" dy="0.355em">Optimal 90%</tspan></text></svg><svg x="0" y="0" font-size="10px" style="overflow:visible"><text transform="" x="1305" y="20" font-size="10px" fill="#62677B" text-anchor="middle"><tspan x="1305" dy="0.355em">Optimal 90%</tspan></text></svg></g></svg>