<?xml version="1.0"?><svg xmlns="http://www.w3.org/2000/svg" xmlns:xlink= "http://www.w3.org/1999/xlink" style="background: white;" width="1500" height="185"> <g style="color: black; font-size: 13px; font-family: sans-serif; transform: translate(18px, 25px);"><g><circle r="3" cx="-6" cy="-5" style="fill: #B6509E" /><text>Borrow APR, variable</text></g><g style="transform: translateX(150px);"><circle r="3" cx="-6" cy="-5" style="fill: rgb(231, 198, 223)" /><text>Borrow APR, stable</text></g><g style="transform: translateX(290px);"><circle r="3" cx="-6" cy="-5" style="fill: rgb(0, 98, 210)" /><text>Utilization Rate</text></g></g><g class="visx-group" transform="translate(40, 50)"><g class="visx-group visx-rows" transform="translate(0, 0)"><line class="visx-line" x1="0" y1="115" x2="1450" y2="115" fill="transparent" shape-rendering="crispEdges" stroke="#000" stroke-width="1" stroke-dasharray="3,3" pointer-events="none"></line><line class="visx-line" x1="0" y1="57.5" x2="1450" y2="57.5" fill="transparent" shape-rendering="crispEdges" stroke="#000" stroke-width="1" stroke-dasharray="3,3" pointer-events="none"></line><line class="visx-line" x1="0" y1="0" x2="1450" y2="0" fill="transparent" shape-rendering="crispEdges" stroke="#000" stroke-width="1" stroke-dasharray="3,3" pointer-events="none"></line></g><path class="visx-linepath" d="M0,114.99999999991375C2.4166666666666665,114.98562499994969,4.833333333333334,114.97124999998562,7.25,114.956875C9.666666666666666,114.94250000001438,12.083333333333334,114.928125,14.5,114.91375C16.916666666666668,114.89937499999999,19.333333333333332,114.88499999999999,21.75,114.87062499999999C24.166666666666668,114.85624999999999,26.583333333333332,114.841875,29,114.8275C31.416666666666668,114.813125,33.833333333333336,114.79875000000001,36.25,114.78437500000001C38.666666666666664,114.77000000000001,41.083333333333336,114.75562500000001,43.5,114.74125000000001C45.91666666666667,114.726875,48.333333333333336,114.7125,50.75000000000001,114.698125C53.16666666666667,114.68375,55.583333333333336,114.669375,58,114.655C60.416666666666664,114.640625,62.833333333333336,114.62625,65.25,114.611875C67.66666666666667,114.5975,70.08333333333333,114.583125,72.5,114.56875C74.91666666666667,114.554375,77.33333333333333,114.53999999999999,79.75,114.52562499999999C82.16666666666667,114.51124999999999,84.58333333333333,114.496875,87,114.4825C89.41666666666667,114.468125,91.83333333333333,114.45375,94.25,114.439375C96.66666666666667,114.425,99.08333333333334,114.41062500000001,101.50000000000001,114.39625000000001C103.91666666666667,114.38187500000001,106.33333333333334,114.3675,108.75,114.353125C111.16666666666667,114.33875,113.58333333333333,114.324375,116,114.31C118.41666666666667,114.295625,120.83333333333334,114.28125,123.25000000000001,114.266875C125.66666666666667,114.2525,128.08333333333334,114.238125,130.5,114.22375C132.91666666666666,114.209375,135.33333333333334,114.195,137.75,114.18062499999999C140.16666666666666,114.16624999999999,142.58333333333334,114.151875,145,114.1375C147.41666666666666,114.123125,149.83333333333334,114.10875,152.25,114.094375C154.66666666666666,114.08,157.08333333333334,114.065625,159.5,114.05125C161.91666666666666,114.036875,164.33333333333334,114.02250000000001,166.75,114.008125C169.16666666666666,113.99375,171.58333333333334,113.979375,174,113.965C176.41666666666666,113.950625,178.83333333333334,113.93625,181.25,113.921875C183.66666666666666,113.9075,186.08333333333334,113.893125,188.5,113.87875C190.91666666666666,113.864375,193.33333333333334,113.85,195.75,113.835625C198.16666666666669,113.82124999999999,200.58333333333334,113.806875,203.00000000000003,113.7925C205.41666666666669,113.778125,207.83333333333331,113.76375,210.24999999999997,113.749375C212.66666666666666,113.735,215.08333333333331,113.720625,217.5,113.70625C219.91666666666666,113.691875,222.33333333333334,113.6775,224.75,113.663125C227.16666666666666,113.64874999999999,229.58333333333334,113.634375,232,113.62C234.41666666666666,113.605625,236.83333333333334,113.59125,239.25,113.576875C241.66666666666669,113.5625,244.08333333333334,113.548125,246.50000000000003,113.53375C248.91666666666669,113.519375,251.33333333333331,113.505,253.74999999999997,113.490625C256.16666666666663,113.47625,258.5833333333333,113.461875,261,113.4475C263.4166666666667,113.433125,265.8333333333333,113.41875,268.25,113.404375C270.6666666666667,113.39,273.0833333333333,113.375625,275.5,113.36125C277.9166666666667,113.346875,280.3333333333333,113.3325,282.75,113.318125C285.1666666666667,113.30375,287.5833333333333,113.28937499999999,290,113.27499999999999C292.4166666666667,113.26062499999999,294.8333333333333,113.24625,297.25,113.231875C299.6666666666667,113.2175,302.0833333333333,113.203125,304.5,113.18875C306.9166666666667,113.174375,309.3333333333333,113.16000000000001,311.75,113.14562500000001C314.1666666666667,113.13125000000001,316.5833333333333,113.11687500000001,319,113.1025C321.4166666666667,113.088125,323.8333333333333,113.07375,326.25,113.059375C328.6666666666667,113.045,331.0833333333333,113.030625,333.5,113.01625C335.9166666666667,113.001875,338.3333333333333,112.9875,340.75,112.973125C343.1666666666667,112.95875,345.5833333333333,112.944375,348,112.92999999999999C350.4166666666667,112.91562499999999,352.8333333333333,112.90125,355.25,112.886875C357.6666666666667,112.8725,360.0833333333333,112.858125,362.5,112.84375C364.9166666666667,112.829375,367.3333333333333,112.81500000000001,369.75,112.80062500000001C372.1666666666667,112.78625000000001,374.5833333333333,112.77187500000001,377,112.75750000000001C379.4166666666667,112.743125,381.8333333333333,112.72875,384.25,112.714375C386.6666666666667,112.7,389.0833333333333,112.685625,391.5,112.67125C393.9166666666667,112.656875,396.33333333333337,112.6425,398.75000000000006,112.628125C401.16666666666674,112.61375,403.58333333333337,112.599375,406.00000000000006,112.585C408.4166666666667,112.57062499999999,410.8333333333333,112.55624999999999,413.24999999999994,112.54187499999999C415.66666666666663,112.52749999999999,418.08333333333326,112.513125,420.49999999999994,112.49875C422.91666666666663,112.484375,425.3333333333333,112.47000000000001,427.75,112.45562500000001C430.1666666666667,112.44125000000001,432.5833333333333,112.42687500000001,435,112.41250000000001C437.4166666666667,112.39812500000001,439.8333333333333,112.38375,442.25,112.369375C444.6666666666667,112.355,447.0833333333333,112.340625,449.5,112.32625C451.9166666666667,112.311875,454.3333333333333,112.2975,456.75,112.283125C459.1666666666667,112.26875,461.5833333333333,112.254375,464,112.24C466.4166666666667,112.225625,468.8333333333333,112.21124999999999,471.25,112.19687499999999C473.6666666666667,112.18249999999999,476.0833333333333,112.16812499999999,478.5,112.15374999999999C480.9166666666667,112.13937499999999,483.33333333333337,112.125,485.75000000000006,112.110625C488.16666666666674,112.09625,490.58333333333337,112.08187500000001,493.00000000000006,112.06750000000001C495.4166666666667,112.05312500000001,497.8333333333333,112.03875000000001,500.24999999999994,112.024375C502.66666666666663,112.01,505.08333333333326,111.995625,507.49999999999994,111.98125C509.91666666666663,111.966875,512.3333333333333,111.9525,514.75,111.938125C517.1666666666666,111.92375,519.5833333333334,111.909375,522,111.895C524.4166666666666,111.880625,526.8333333333334,111.86625,529.25,111.85187499999999C531.6666666666666,111.83749999999999,534.0833333333334,111.82312499999999,536.5,111.80874999999999C538.9166666666666,111.79437499999999,541.3333333333334,111.78,543.75,111.765625C546.1666666666666,111.75125,548.5833333333334,111.736875,551,111.7225C553.4166666666666,111.708125,555.8333333333334,111.69375000000001,558.25,111.67937500000001C560.6666666666666,111.665,563.0833333333334,111.650625,565.5,111.63625C567.9166666666666,111.621875,570.3333333333334,111.6075,572.75,111.593125C575.1666666666666,111.57875,577.5833333333334,111.564375,580,111.55C582.4166666666666,111.535625,584.8333333333334,111.52125,587.25,111.506875C589.6666666666666,111.49249999999999,592.0833333333334,111.47812499999999,594.5,111.46374999999999C596.9166666666666,111.44937499999999,599.3333333333334,111.435,601.75,111.420625C604.1666666666666,111.40625,606.5833333333334,111.391875,609,111.3775C611.4166666666666,111.363125,613.8333333333334,111.34875000000001,616.25,111.33437500000001C618.6666666666666,111.32000000000001,621.0833333333334,111.305625,623.5,111.29125C625.9166666666666,111.276875,628.3333333333334,111.2625,630.75,111.248125C633.1666666666666,111.23375,635.5833333333334,111.219375,638,111.205C640.4166666666666,111.190625,642.8333333333334,111.17625,645.25,111.161875C647.6666666666666,111.1475,650.0833333333334,111.133125,652.5,111.11875C654.9166666666666,111.104375,657.3333333333334,111.09,659.75,111.075625C662.1666666666666,111.06125,664.5833333333334,111.046875,667,111.0325C669.4166666666666,111.018125,671.8333333333334,111.00375,674.25,110.989375C676.6666666666666,110.975,679.0833333333334,110.96062500000001,681.5,110.94625C683.9166666666666,110.931875,686.3333333333334,110.9175,688.75,110.903125C691.1666666666666,110.88875,693.5833333333334,110.874375,696,110.86C698.4166666666666,110.845625,700.8333333333334,110.83125,703.25,110.816875C705.6666666666666,110.8025,708.0833333333334,110.78812500000001,710.5,110.77375C712.9166666666666,110.759375,715.3333333333334,110.745,717.75,110.730625C720.1666666666666,110.71625,722.5833333333334,110.701875,725,110.6875C727.4166666666666,110.673125,729.8333333333334,110.65875,732.25,110.644375C734.6666666666666,110.63,737.0833333333334,110.615625,739.5,110.60125C741.9166666666666,110.58687499999999,744.3333333333334,110.5725,746.75,110.558125C749.1666666666666,110.54375,751.5833333333334,110.529375,754,110.515C756.4166666666666,110.500625,758.8333333333334,110.48625,761.25,110.471875C763.6666666666666,110.4575,766.0833333333334,110.44312500000001,768.5,110.42875000000001C770.9166666666666,110.414375,773.3333333333334,110.4,775.75,110.385625C778.1666666666666,110.37125,780.5833333333334,110.356875,783,110.3425C785.4166666666667,110.328125,787.8333333333334,110.31375,790.2500000000001,110.299375C792.6666666666667,110.285,795.0833333333335,110.270625,797.5000000000001,110.25625C799.9166666666667,110.241875,802.3333333333335,110.22749999999999,804.7500000000001,110.21312499999999C807.1666666666667,110.19874999999999,809.5833333333335,110.184375,812.0000000000001,110.17C814.4166666666667,110.155625,816.8333333333333,110.14125,819.2499999999999,110.126875C821.6666666666665,110.1125,824.0833333333333,110.09812500000001,826.4999999999999,110.08375000000001C828.9166666666665,110.06937500000001,831.3333333333333,110.055,833.7499999999999,110.040625C836.1666666666665,110.02625,838.5833333333333,110.011875,840.9999999999999,109.9975C843.4166666666666,109.983125,845.8333333333333,109.96875,848.25,109.954375C850.6666666666666,109.94,853.0833333333334,109.925625,855.5,109.91125C857.9166666666666,109.896875,860.3333333333334,109.8825,862.75,109.86812499999999C865.1666666666666,109.85374999999999,867.5833333333334,109.83937499999999,870,109.82499999999999C872.4166666666666,109.81062499999999,874.8333333333334,109.79625000000001,877.25,109.78187500000001C879.6666666666666,109.76750000000001,882.0833333333334,109.75312500000001,884.5,109.73875000000001C886.9166666666666,109.72437500000001,889.3333333333334,109.71000000000001,891.75,109.695625C894.1666666666666,109.68125,896.5833333333334,109.666875,899,109.6525C901.4166666666666,109.638125,903.8333333333334,109.62375,906.25,109.609375C908.6666666666666,109.595,911.0833333333334,109.580625,913.5,109.56625C915.9166666666666,109.551875,918.3333333333334,109.5375,920.75,109.523125C923.1666666666666,109.50874999999999,925.5833333333334,109.49437499999999,928,109.47999999999999C930.4166666666666,109.46562499999999,932.8333333333334,109.45124999999999,935.25,109.43687499999999C937.6666666666666,109.42249999999999,940.0833333333334,109.40812500000001,942.5,109.39375000000001C944.9166666666666,109.37937500000001,947.3333333333334,109.36500000000001,949.75,109.35062500000001C952.1666666666666,109.33625,954.5833333333334,109.321875,957,109.3075C959.4166666666666,109.293125,961.8333333333334,109.27875,964.25,109.264375C966.6666666666667,109.25,969.0833333333334,109.235625,971.5000000000001,109.22125C973.9166666666667,109.206875,976.3333333333335,109.1925,978.7500000000001,109.178125C981.1666666666667,109.16375,983.5833333333335,109.14937499999999,986.0000000000001,109.13499999999999C988.4166666666667,109.12062499999999,990.8333333333335,109.10625,993.2500000000001,109.091875C995.6666666666667,109.0775,998.0833333333333,109.063125,1000.4999999999999,109.04875C1002.9166666666665,109.034375,1005.3333333333333,109.02000000000001,1007.7499999999999,109.00562500000001C1010.1666666666665,108.99125000000001,1012.5833333333333,108.976875,1014.9999999999999,108.9625C1017.4166666666665,108.948125,1019.8333333333333,108.93375,1022.2499999999999,108.919375C1024.6666666666665,108.905,1027.0833333333333,108.890625,1029.5,108.87625C1031.9166666666667,108.861875,1034.3333333333333,108.8475,1036.75,108.833125C1039.1666666666667,108.81875,1041.5833333333333,108.804375,1044,108.78999999999999C1046.4166666666667,108.77562499999999,1048.8333333333333,108.76125,1051.25,108.746875C1053.6666666666667,108.7325,1056.0833333333333,108.718125,1058.5,108.70375C1060.9166666666667,108.689375,1063.3333333333333,108.675,1065.75,108.660625C1068.1666666666667,108.64625,1070.5833333333333,108.63187500000001,1073,108.6175C1075.4166666666667,108.603125,1077.8333333333333,108.58875,1080.25,108.574375C1082.6666666666667,108.56,1085.0833333333333,108.545625,1087.5,108.53125C1089.9166666666667,108.516875,1092.3333333333333,108.5025,1094.75,108.488125C1097.1666666666667,108.47375,1099.5833333333333,108.459375,1102,108.445C1104.4166666666667,108.43062499999999,1106.8333333333333,108.41625,1109.25,108.401875C1111.6666666666667,108.3875,1114.0833333333333,108.373125,1116.5,108.35875C1118.9166666666667,108.344375,1121.3333333333333,108.33,1123.75,108.315625C1126.1666666666667,108.30125,1128.5833333333333,108.286875,1131,108.2725C1133.4166666666667,108.25812499999999,1135.8333333333333,108.24375,1138.25,108.229375C1140.6666666666667,108.215,1143.0833333333333,108.200625,1145.5,108.18625C1147.9166666666667,108.171875,1150.3333333333333,108.1575,1152.75,108.143125C1155.1666666666667,108.12875,1157.5833333333333,108.12875,1160,108.1C1162.4166666666667,108.07124999999999,1164.8333333333333,106.66250000000001,1167.25,105.94375000000001C1169.6666666666667,105.22500000000001,1172.0833333333333,104.50625,1174.5,103.7875C1176.9166666666667,103.06875,1179.3333333333333,102.35000000000001,1181.75,101.63125000000001C1184.1666666666667,100.91250000000001,1186.5833333333333,100.19375,1189,99.475C1191.4166666666667,98.75625,1193.8333333333333,98.0375,1196.25,97.31875C1198.6666666666667,96.6,1201.0833333333333,95.88125000000001,1203.5,95.16250000000001C1205.9166666666667,94.44375000000001,1208.3333333333333,93.725,1210.75,93.00625C1213.1666666666667,92.2875,1215.5833333333333,91.56875000000001,1218,90.85000000000001C1220.4166666666667,90.13125000000001,1222.8333333333333,89.4125,1225.25,88.69375C1227.6666666666667,87.975,1230.0833333333333,87.25625,1232.5,86.5375C1234.9166666666667,85.81875,1237.3333333333333,85.10000000000001,1239.75,84.38125000000001C1242.1666666666667,83.66250000000001,1244.5833333333333,82.94375000000001,1247,82.22500000000001C1249.4166666666667,81.50625000000001,1251.8333333333333,80.78750000000001,1254.25,80.06875000000001C1256.6666666666667,79.35000000000001,1259.0833333333333,78.63125,1261.5,77.9125C1263.9166666666667,77.19375,1266.3333333333333,76.475,1268.75,75.75625C1271.1666666666667,75.0375,1273.5833333333333,74.31875000000001,1276,73.60000000000001C1278.4166666666667,72.88125000000001,1280.8333333333333,72.16250000000001,1283.25,71.44375000000001C1285.6666666666667,70.72500000000001,1288.0833333333333,70.00625000000001,1290.5,69.28750000000001C1292.9166666666667,68.56875000000001,1295.3333333333333,67.85,1297.75,67.13125C1300.1666666666667,66.4125,1302.5833333333333,65.69375,1305,64.975C1307.4166666666667,64.25625,1309.8333333333333,63.5375,1312.25,62.81875C1314.6666666666667,62.1,1317.0833333333333,61.38125000000001,1319.5,60.66250000000001C1321.9166666666667,59.94375000000001,1324.3333333333333,59.225,1326.75,58.50625C1329.1666666666667,57.7875,1331.5833333333333,57.06875,1334,56.35C1336.4166666666667,55.63125,1338.8333333333333,54.912499999999994,1341.25,54.193749999999994C1343.6666666666667,53.474999999999994,1346.0833333333333,52.75625,1348.5,52.0375C1350.9166666666667,51.31875,1353.3333333333333,50.599999999999994,1355.75,49.881249999999994C1358.1666666666667,49.162499999999994,1360.5833333333333,48.44375,1363,47.725C1365.4166666666667,47.00625,1367.8333333333333,46.2875,1370.25,45.56875C1372.6666666666667,44.85,1375.0833333333333,44.131249999999994,1377.5,43.412499999999994C1379.9166666666667,42.693749999999994,1382.3333333333333,41.975,1384.75,41.25625C1387.1666666666667,40.5375,1389.5833333333333,39.818749999999994,1392,39.099999999999994C1394.4166666666667,38.381249999999994,1396.8333333333333,37.6625,1399.25,36.94375C1401.6666666666667,36.225,1404.0833333333333,35.50625,1406.5,34.7875C1408.9166666666667,34.06875,1411.3333333333333,33.349999999999994,1413.75,32.631249999999994C1416.1666666666667,31.912499999999994,1418.5833333333333,31.19375,1421,30.475C1423.4166666666667,29.75625,1425.8333333333333,29.037499999999998,1428.25,28.318749999999998C1430.6666666666667,27.599999999999998,1433.0833333333333,26.881250000000005,1435.5,26.162500000000005C1437.9166666666667,25.443750000000005,1440.3333333333333,24.725,1442.75,24.006249999999998C1445.1666666666667,23.287499999999994,1447.5833333333333,22.568749999999994,1450,21.849999999999994" fill="transparent" stroke-linecap="round" stroke="#B6509E" stroke-width="2"></path><path class="visx-linepath" d="M0,103.49999999997125C2.4166666666666665,103.49520833331655,4.833333333333334,103.49041666666187,7.25,103.485625C9.666666666666666,103.48083333333813,12.083333333333334,103.47604166666667,14.5,103.47125000000001C16.916666666666668,103.46645833333335,19.333333333333332,103.46166666666667,21.75,103.456875C24.166666666666668,103.45208333333332,26.583333333333332,103.44729166666666,29,103.4425C31.416666666666668,103.43770833333333,33.833333333333336,103.43291666666667,36.25,103.42812500000001C38.666666666666664,103.42333333333335,41.083333333333336,103.41854166666666,43.5,103.41375C45.91666666666667,103.40895833333332,48.333333333333336,103.40416666666665,50.75000000000001,103.39937499999999C53.16666666666667,103.39458333333333,55.583333333333336,103.38979166666667,58,103.385C60.416666666666664,103.38020833333334,62.833333333333336,103.37541666666667,65.25,103.370625C67.66666666666667,103.36583333333334,70.08333333333333,103.36104166666665,72.5,103.35624999999999C74.91666666666667,103.35145833333333,77.33333333333333,103.34666666666666,79.75,103.341875C82.16666666666667,103.33708333333334,84.58333333333333,103.33229166666666,87,103.3275C89.41666666666667,103.32270833333334,91.83333333333333,103.31791666666666,94.25,103.313125C96.66666666666667,103.30833333333334,99.08333333333334,103.30354166666666,101.50000000000001,103.29875C103.91666666666667,103.29395833333334,106.33333333333334,103.28916666666667,108.75,103.28437500000001C111.16666666666667,103.27958333333335,113.58333333333333,103.27479166666666,116,103.27C118.41666666666667,103.26520833333332,120.83333333333334,103.26041666666666,123.25000000000001,103.255625C125.66666666666667,103.25083333333333,128.08333333333334,103.24604166666667,130.5,103.24125000000001C132.91666666666666,103.23645833333335,135.33333333333334,103.23166666666668,137.75,103.226875C140.16666666666666,103.22208333333333,142.58333333333334,103.21729166666665,145,103.21249999999999C147.41666666666666,103.20770833333333,149.83333333333334,103.20291666666667,152.25,103.198125C154.66666666666666,103.19333333333334,157.08333333333334,103.18854166666668,159.5,103.18375C161.91666666666666,103.17895833333333,164.33333333333334,103.17416666666665,166.75,103.16937499999999C169.16666666666666,103.16458333333333,171.58333333333334,103.15979166666666,174,103.155C176.41666666666666,103.15020833333334,178.83333333333334,103.14541666666666,181.25,103.140625C183.66666666666666,103.13583333333334,186.08333333333334,103.13104166666666,188.5,103.12625C190.91666666666666,103.12145833333334,193.33333333333334,103.11666666666666,195.75,103.111875C198.16666666666669,103.10708333333334,200.58333333333334,103.10229166666666,203.00000000000003,103.0975C205.41666666666669,103.09270833333333,207.83333333333331,103.08791666666667,210.24999999999997,103.08312500000001C212.66666666666666,103.07833333333335,215.08333333333331,103.07354166666666,217.5,103.06875C219.91666666666666,103.06395833333333,222.33333333333334,103.05916666666667,224.75,103.05437500000001C227.16666666666666,103.04958333333335,229.58333333333334,103.04479166666667,232,103.04C234.41666666666666,103.03520833333334,236.83333333333334,103.03041666666665,239.25,103.02562499999999C241.66666666666669,103.02083333333333,244.08333333333334,103.01604166666667,246.50000000000003,103.01125C248.91666666666669,103.00645833333334,251.33333333333331,103.00166666666667,253.74999999999997,102.996875C256.16666666666663,102.99208333333334,258.5833333333333,102.98729166666666,261,102.9825C263.4166666666667,102.97770833333334,265.8333333333333,102.97291666666666,268.25,102.968125C270.6666666666667,102.96333333333334,273.0833333333333,102.95854166666666,275.5,102.95375C277.9166666666667,102.94895833333334,280.3333333333333,102.94416666666666,282.75,102.939375C285.1666666666667,102.93458333333334,287.5833333333333,102.92979166666666,290,102.925C292.4166666666667,102.92020833333333,294.8333333333333,102.91541666666666,297.25,102.910625C299.6666666666667,102.90583333333333,302.0833333333333,102.90104166666666,304.5,102.89625C306.9166666666667,102.89145833333333,309.3333333333333,102.88666666666666,311.75,102.881875C314.1666666666667,102.87708333333333,316.5833333333333,102.87229166666667,319,102.8675C321.4166666666667,102.86270833333334,323.8333333333333,102.85791666666667,326.25,102.853125C328.6666666666667,102.84833333333334,331.0833333333333,102.84354166666667,333.5,102.83875C335.9166666666667,102.83395833333334,338.3333333333333,102.82916666666667,340.75,102.824375C343.1666666666667,102.81958333333334,345.5833333333333,102.81479166666666,348,102.81C350.4166666666667,102.80520833333334,352.8333333333333,102.80041666666666,355.25,102.795625C357.6666666666667,102.79083333333334,360.0833333333333,102.78604166666666,362.5,102.78125C364.9166666666667,102.77645833333334,367.3333333333333,102.77166666666666,369.75,102.766875C372.1666666666667,102.76208333333334,374.5833333333333,102.75729166666666,377,102.7525C379.4166666666667,102.74770833333334,381.8333333333333,102.74291666666666,384.25,102.738125C386.6666666666667,102.73333333333333,389.0833333333333,102.72854166666666,391.5,102.72375C393.9166666666667,102.71895833333333,396.33333333333337,102.71416666666666,398.75000000000006,102.709375C401.16666666666674,102.70458333333333,403.58333333333337,102.69979166666667,406.00000000000006,102.69500000000001C408.4166666666667,102.69020833333335,410.8333333333333,102.68541666666665,413.24999999999994,102.68062499999999C415.66666666666663,102.67583333333333,418.08333333333326,102.67104166666667,420.49999999999994,102.66625C422.91666666666663,102.66145833333334,425.3333333333333,102.65666666666668,427.75,102.651875C430.1666666666667,102.64708333333334,432.5833333333333,102.64229166666665,435,102.63749999999999C437.4166666666667,102.63270833333333,439.8333333333333,102.62791666666666,442.25,102.623125C444.6666666666667,102.61833333333334,447.0833333333333,102.61354166666666,449.5,102.60875C451.9166666666667,102.60395833333334,454.3333333333333,102.59916666666668,456.75,102.59437500000001C459.1666666666667,102.58958333333335,461.5833333333333,102.58479166666666,464,102.58C466.4166666666667,102.57520833333334,468.8333333333333,102.57041666666666,471.25,102.565625C473.6666666666667,102.56083333333333,476.0833333333333,102.55604166666667,478.5,102.55125000000001C480.9166666666667,102.54645833333335,483.33333333333337,102.54166666666667,485.75000000000006,102.536875C488.16666666666674,102.53208333333333,490.58333333333337,102.52729166666666,493.00000000000006,102.5225C495.4166666666667,102.51770833333333,497.8333333333333,102.51291666666667,500.24999999999994,102.508125C502.66666666666663,102.50333333333334,505.08333333333326,102.49854166666665,507.49999999999994,102.49374999999999C509.91666666666663,102.48895833333331,512.3333333333333,102.48416666666665,514.75,102.47937499999999C517.1666666666666,102.47458333333333,519.5833333333334,102.46979166666667,522,102.465C524.4166666666666,102.46020833333334,526.8333333333334,102.45541666666668,529.25,102.450625C531.6666666666666,102.44583333333333,534.0833333333334,102.44104166666665,536.5,102.43624999999999C538.9166666666666,102.43145833333332,541.3333333333334,102.42666666666666,543.75,102.421875C546.1666666666666,102.41708333333334,548.5833333333334,102.41229166666668,551,102.40750000000001C553.4166666666666,102.40270833333335,555.8333333333334,102.39791666666667,558.25,102.393125C560.6666666666666,102.38833333333332,563.0833333333334,102.38354166666666,565.5,102.37875C567.9166666666666,102.37395833333333,570.3333333333334,102.36916666666667,572.75,102.36437500000001C575.1666666666666,102.35958333333335,577.5833333333334,102.35479166666667,580,102.35000000000001C582.4166666666666,102.34520833333335,584.8333333333334,102.34041666666666,587.25,102.335625C589.6666666666666,102.33083333333333,592.0833333333334,102.32604166666667,594.5,102.32125C596.9166666666666,102.31645833333334,599.3333333333334,102.31166666666667,601.75,102.306875C604.1666666666666,102.30208333333334,606.5833333333334,102.29729166666665,609,102.29249999999999C611.4166666666666,102.28770833333333,613.8333333333334,102.28291666666667,616.25,102.278125C618.6666666666666,102.27333333333334,621.0833333333334,102.26854166666666,623.5,102.26375C625.9166666666666,102.25895833333334,628.3333333333334,102.25416666666665,630.75,102.24937499999999C633.1666666666666,102.24458333333332,635.5833333333334,102.23979166666666,638,102.235C640.4166666666666,102.23020833333334,642.8333333333334,102.22541666666666,645.25,102.220625C647.6666666666666,102.21583333333334,650.0833333333334,102.21104166666667,652.5,102.20625000000001C654.9166666666666,102.20145833333335,657.3333333333334,102.19666666666666,659.75,102.191875C662.1666666666666,102.18708333333333,664.5833333333334,102.18229166666666,667,102.1775C669.4166666666666,102.17270833333333,671.8333333333334,102.16791666666667,674.25,102.16312500000001C676.6666666666666,102.15833333333335,679.0833333333334,102.15354166666665,681.5,102.14874999999999C683.9166666666666,102.14395833333333,686.3333333333334,102.13916666666667,688.75,102.134375C691.1666666666666,102.12958333333334,693.5833333333334,102.12479166666667,696,102.12C698.4166666666666,102.11520833333334,700.8333333333334,102.11041666666667,703.25,102.105625C705.6666666666666,102.10083333333334,708.0833333333334,102.09604166666666,710.5,102.09125C712.9166666666666,102.08645833333334,715.3333333333334,102.08166666666666,717.75,102.076875C720.1666666666666,102.07208333333334,722.5833333333334,102.06729166666666,725,102.0625C727.4166666666666,102.05770833333334,729.8333333333334,102.05291666666666,732.25,102.048125C734.6666666666666,102.04333333333334,737.0833333333334,102.03854166666666,739.5,102.03375C741.9166666666666,102.02895833333334,744.3333333333334,102.02416666666666,746.75,102.019375C749.1666666666666,102.01458333333333,751.5833333333334,102.00979166666666,754,102.005C756.4166666666666,102.00020833333333,758.8333333333334,101.99541666666666,761.25,101.990625C763.6666666666666,101.98583333333333,766.0833333333334,101.98104166666666,768.5,101.97625C770.9166666666666,101.97145833333333,773.3333333333334,101.96666666666667,775.75,101.961875C778.1666666666666,101.95708333333334,780.5833333333334,101.95229166666667,783,101.9475C785.4166666666667,101.94270833333334,787.8333333333334,101.93791666666667,790.2500000000001,101.933125C792.6666666666667,101.92833333333334,795.0833333333335,101.92354166666667,797.5000000000001,101.91875C799.9166666666667,101.91395833333334,802.3333333333335,101.90916666666666,804.7500000000001,101.904375C807.1666666666667,101.89958333333334,809.5833333333335,101.89479166666666,812.0000000000001,101.89C814.4166666666667,101.88520833333334,816.8333333333333,101.88041666666666,819.2499999999999,101.875625C821.6666666666665,101.87083333333334,824.0833333333333,101.86604166666666,826.4999999999999,101.86125C828.9166666666665,101.85645833333334,831.3333333333333,101.85166666666666,833.7499999999999,101.846875C836.1666666666665,101.84208333333333,838.5833333333333,101.83729166666666,840.9999999999999,101.8325C843.4166666666666,101.82770833333333,845.8333333333333,101.82291666666667,848.25,101.81812500000001C850.6666666666666,101.81333333333335,853.0833333333334,101.80854166666666,855.5,101.80375C857.9166666666666,101.79895833333333,860.3333333333334,101.79416666666665,862.75,101.78937499999999C865.1666666666666,101.78458333333333,867.5833333333334,101.77979166666667,870,101.775C872.4166666666666,101.77020833333334,874.8333333333334,101.76541666666665,877.25,101.76062499999999C879.6666666666666,101.75583333333333,882.0833333333334,101.75104166666667,884.5,101.74625C886.9166666666666,101.74145833333334,889.3333333333334,101.73666666666666,891.75,101.731875C894.1666666666666,101.72708333333334,896.5833333333334,101.72229166666666,899,101.7175C901.4166666666666,101.71270833333334,903.8333333333334,101.70791666666666,906.25,101.703125C908.6666666666666,101.69833333333334,911.0833333333334,101.69354166666666,913.5,101.68875C915.9166666666666,101.68395833333334,918.3333333333334,101.67916666666667,920.75,101.67437500000001C923.1666666666666,101.66958333333335,925.5833333333334,101.66479166666667,928,101.66C930.4166666666666,101.65520833333332,932.8333333333334,101.65041666666666,935.25,101.645625C937.6666666666666,101.64083333333333,940.0833333333334,101.63604166666667,942.5,101.63125000000001C944.9166666666666,101.62645833333335,947.3333333333334,101.62166666666667,949.75,101.616875C952.1666666666666,101.61208333333332,954.5833333333334,101.60729166666665,957,101.60249999999999C959.4166666666666,101.59770833333333,961.8333333333334,101.59291666666667,964.25,101.588125C966.6666666666667,101.58333333333334,969.0833333333334,101.57854166666668,971.5000000000001,101.57375C973.9166666666667,101.56895833333334,976.3333333333335,101.56416666666665,978.7500000000001,101.55937499999999C981.1666666666667,101.55458333333333,983.5833333333335,101.54979166666666,986.0000000000001,101.545C988.4166666666667,101.54020833333334,990.8333333333335,101.53541666666666,993.2500000000001,101.530625C995.6666666666667,101.52583333333334,998.0833333333333,101.52104166666666,1000.4999999999999,101.51625C1002.9166666666665,101.51145833333334,1005.3333333333333,101.50666666666666,1007.7499999999999,101.501875C1010.1666666666665,101.49708333333334,1012.5833333333333,101.49229166666667,1014.9999999999999,101.48750000000001C1017.4166666666665,101.48270833333335,1019.8333333333333,101.47791666666666,1022.2499999999999,101.473125C1024.6666666666665,101.46833333333332,1027.0833333333333,101.46354166666666,1029.5,101.45875C1031.9166666666667,101.45395833333333,1034.3333333333333,101.44916666666667,1036.75,101.44437500000001C1039.1666666666667,101.43958333333335,1041.5833333333333,101.43479166666668,1044,101.43C1046.4166666666667,101.42520833333333,1048.8333333333333,101.42041666666665,1051.25,101.41562499999999C1053.6666666666667,101.41083333333333,1056.0833333333333,101.40604166666667,1058.5,101.40125C1060.9166666666667,101.39645833333334,1063.3333333333333,101.39166666666668,1065.75,101.386875C1068.1666666666667,101.38208333333333,1070.5833333333333,101.37729166666665,1073,101.37249999999999C1075.4166666666667,101.36770833333333,1077.8333333333333,101.36291666666666,1080.25,101.358125C1082.6666666666667,101.35333333333334,1085.0833333333333,101.34854166666666,1087.5,101.34375C1089.9166666666667,101.33895833333334,1092.3333333333333,101.33416666666666,1094.75,101.329375C1097.1666666666667,101.32458333333334,1099.5833333333333,101.31979166666666,1102,101.315C1104.4166666666667,101.31020833333334,1106.8333333333333,101.30541666666666,1109.25,101.300625C1111.6666666666667,101.29583333333333,1114.0833333333333,101.29104166666667,1116.5,101.28625000000001C1118.9166666666667,101.28145833333335,1121.3333333333333,101.27666666666666,1123.75,101.271875C1126.1666666666667,101.26708333333333,1128.5833333333333,101.26229166666667,1131,101.25750000000001C1133.4166666666667,101.25270833333335,1135.8333333333333,101.24791666666667,1138.25,101.243125C1140.6666666666667,101.23833333333334,1143.0833333333333,101.23354166666665,1145.5,101.22874999999999C1147.9166666666667,101.22395833333333,1150.3333333333333,101.21916666666667,1152.75,101.214375C1155.1666666666667,101.20958333333334,1157.5833333333333,101.20958333333334,1160,101.2C1162.4166666666667,101.19041666666666,1164.8333333333333,99.76249999999999,1167.25,99.04374999999999C1169.6666666666667,98.32499999999999,1172.0833333333333,97.60625,1174.5,96.8875C1176.9166666666667,96.16875,1179.3333333333333,95.45,1181.75,94.73125C1184.1666666666667,94.0125,1186.5833333333333,93.29374999999999,1189,92.57499999999999C1191.4166666666667,91.85624999999999,1193.8333333333333,91.1375,1196.25,90.41875C1198.6666666666667,89.7,1201.0833333333333,88.98124999999999,1203.5,88.26249999999999C1205.9166666666667,87.54374999999999,1208.3333333333333,86.825,1210.75,86.10625C1213.1666666666667,85.3875,1215.5833333333333,84.66875,1218,83.95C1220.4166666666667,83.23125,1222.8333333333333,82.51249999999999,1225.25,81.79374999999999C1227.6666666666667,81.07499999999999,1230.0833333333333,80.35625,1232.5,79.6375C1234.9166666666667,78.91875,1237.3333333333333,78.2,1239.75,77.48125C1242.1666666666667,76.7625,1244.5833333333333,76.04375,1247,75.325C1249.4166666666667,74.60625,1251.8333333333333,73.8875,1254.25,73.16875C1256.6666666666667,72.45,1259.0833333333333,71.73124999999999,1261.5,71.01249999999999C1263.9166666666667,70.29374999999999,1266.3333333333333,69.575,1268.75,68.85625C1271.1666666666667,68.1375,1273.5833333333333,67.41875,1276,66.7C1278.4166666666667,65.98125,1280.8333333333333,65.2625,1283.25,64.54375C1285.6666666666667,63.825,1288.0833333333333,63.106249999999996,1290.5,62.387499999999996C1292.9166666666667,61.668749999999996,1295.3333333333333,60.949999999999996,1297.75,60.231249999999996C1300.1666666666667,59.512499999999996,1302.5833333333333,58.79375,1305,58.075C1307.4166666666667,57.35625,1309.8333333333333,56.637499999999996,1312.25,55.918749999999996C1314.6666666666667,55.199999999999996,1317.0833333333333,54.48125,1319.5,53.7625C1321.9166666666667,53.04375,1324.3333333333333,52.324999999999996,1326.75,51.606249999999996C1329.1666666666667,50.887499999999996,1331.5833333333333,50.16875,1334,49.45C1336.4166666666667,48.73125,1338.8333333333333,48.0125,1341.25,47.29375C1343.6666666666667,46.575,1346.0833333333333,45.856249999999996,1348.5,45.137499999999996C1350.9166666666667,44.418749999999996,1353.3333333333333,43.7,1355.75,42.98125C1358.1666666666667,42.2625,1360.5833333333333,41.543749999999996,1363,40.824999999999996C1365.4166666666667,40.106249999999996,1367.8333333333333,39.3875,1370.25,38.66875C1372.6666666666667,37.95,1375.0833333333333,37.23125,1377.5,36.5125C1379.9166666666667,35.79375,1382.3333333333333,35.074999999999996,1384.75,34.356249999999996C1387.1666666666667,33.637499999999996,1389.5833333333333,32.91875,1392,32.2C1394.4166666666667,31.481250000000003,1396.8333333333333,30.7625,1399.25,30.04375C1401.6666666666667,29.325,1404.0833333333333,28.606250000000006,1406.5,27.887500000000006C1408.9166666666667,27.168750000000006,1411.3333333333333,26.450000000000003,1413.75,25.73125C1416.1666666666667,25.012499999999996,1418.5833333333333,24.293749999999996,1421,23.574999999999996C1423.4166666666667,22.856249999999996,1425.8333333333333,22.137500000000003,1428.25,21.418750000000003C1430.6666666666667,20.700000000000003,1433.0833333333333,19.98125,1435.5,19.2625C1437.9166666666667,18.54375,1440.3333333333333,17.825000000000006,1442.75,17.106250000000006C1445.1666666666667,16.387500000000006,1447.5833333333333,15.668750000000005,1450,14.950000000000001" fill="transparent" stroke-linecap="round" stroke="#E7C6DF" stroke-width="2"></path><g class="visx-group visx-axis visx-axis-bottom" transform="translate(0, 115)"><g class="visx-group visx-axis-tick" transform="translate(0, 0)"><line class="visx-line" x1="0" y1="0" x2="0" y2="8" fill="transparent" shape-rendering="crispEdges" stroke="#000" stroke-width="0" stroke-linecap="square"></line><svg x="0" y="0" font-size="10" style="overflow:visible"><text transform="" x="0" y="18" fill="#000" font-size="10" text-anchor="middle"><tspan x="0" dy="0em">0%</tspan></text></svg></g><g class="visx-group visx-axis-tick" transform="translate(0, 0)"><line class="visx-line" x1="362.5" y1="0" x2="362.5" y2="8" fill="transparent" shape-rendering="crispEdges" stroke="#000" stroke-width="0" stroke-linecap="square"></line><svg x="0" y="0" font-size="10" style="overflow:visible"><text transform="" x="362.5" y="18" fill="#000" font-size="10" text-anchor="middle"><tspan x="362.5" dy="0em">25%</tspan></text></svg></g><g class="visx-group visx-axis-tick" transform="translate(0, 0)"><line class="visx-line" x1="725" y1="0" x2="725" y2="8" fill="transparent" shape-rendering="crispEdges" stroke="#000" stroke-width="0" stroke-linecap="square"></line><svg x="0" y="0" font-size="10" style="overflow:visible"><text transform="" x="725" y="18" fill="#000" font-size="10" text-anchor="middle"><tspan x="725" dy="0em">50%</tspan></text></svg></g><g class="visx-group visx-axis-tick" transform="translate(0, 0)"><line class="visx-line" x1="1087.5" y1="0" x2="1087.5" y2="8" fill="transparent" shape-rendering="crispEdges" stroke="#000" stroke-width="0" stroke-linecap="square"></line><svg x="0" y="0" font-size="10" style="overflow:visible"><text transform="" x="1087.5" y="18" fill="#000" font-size="10" text-anchor="middle"><tspan x="1087.5" dy="0em">75%</tspan></text></svg></g><g class="visx-group visx-axis-tick" transform="translate(0, 0)"><line class="visx-line" x1="1450" y1="0" x2="1450" y2="8" fill="transparent" shape-rendering="crispEdges" stroke="#000" stroke-width="0" stroke-linecap="square"></line><svg x="0" y="0" font-size="10" style="overflow:visible"><text transform="" x="1450" y="18" fill="#000" font-size="10" text-anchor="middle"><tspan x="1450" dy="0em">100%</tspan></text></svg></g><line class="visx-line visx-axis-line" x1="0.5" y1="0" x2="1450.5" y2="0" fill="transparent" shape-rendering="crispEdges" stroke="#222" stroke-width="0"></line></g><g class="visx-group visx-axis visx-axis-left" transform="translate(0, 0)"><g class="visx-group visx-axis-tick" transform="translate(0, 0)"><line class="visx-line" x1="0" y1="115" x2="-8" y2="115" fill="transparent" shape-rendering="crispEdges" stroke="#222" stroke-width="0" stroke-linecap="square"></line><svg x="-30" y="0" font-size="8" style="overflow:visible"><text transform="" x="-8" y="115" fill="#000" font-size="8" text-anchor="start"><tspan x="-8" dy="0em">0%</tspan></text></svg></g><g class="visx-group visx-axis-tick" transform="translate(0, 0)"><line class="visx-line" x1="0" y1="57.5" x2="-8" y2="57.5" fill="transparent" shape-rendering="crispEdges" stroke="#222" stroke-width="0" stroke-linecap="square"></line><svg x="-30" y="0" font-size="8" style="overflow:visible"><text transform="" x="-8" y="57.5" fill="#000" font-size="8" text-anchor="start"><tspan x="-8" dy="0em">50%</tspan></text></svg></g><g class="visx-group visx-axis-tick" transform="translate(0, 0)"><line class="visx-line" x1="0" y1="0" x2="-8" y2="0" fill="transparent" shape-rendering="crispEdges" stroke="#222" stroke-width="0" stroke-linecap="square"></line><svg x="-30" y="0" font-size="8" style="overflow:visible"><text transform="" x="-8" y="0" fill="#000" font-size="8" text-anchor="start"><tspan x="-8" dy="0em">100%</tspan></text></svg></g><line class="visx-line visx-axis-line" x1="0" y1="115.5" x2="0" y2="0.5" fill="transparent" shape-rendering="crispEdges" stroke="#222" stroke-width="0"></line></g><rect class="visx-bar" width="1450" height="115" fill="transparent"></rect><line class="visx-line" x1="1160" y1="28" x2="1160" y2="115" fill="transparent" shape-rendering="crispEdges" stroke="#0062D2" stroke-width="1" pointer-events="none" stroke-dasharray="5,2"></line><svg x="0" y="0" font-size="10px" style="overflow:visible"><text transform="" x="1160" y="20" font-size="10px" fill="#fff" stroke="#fff" stroke-width="0.8em" text-anchor="middle"><tspan x="1160" dy="0.355em">Optimal 80%</tspan></text></svg><svg x="0" y="0" font-size="10px" style="overflow:visible"><text transform="" x="1160" y="20" font-size="10px" fill="#62677B" text-anchor="middle"><tspan x="1160" dy="0.355em">Optimal 80%</tspan></text></svg></g></svg>