<?xml version="1.0"?><svg xmlns="http://www.w3.org/2000/svg" xmlns:xlink= "http://www.w3.org/1999/xlink" style="background: white;" width="1500" height="185"> <g style="color: black; font-size: 13px; font-family: sans-serif; transform: translate(18px, 25px);"><g><circle r="3" cx="-6" cy="-5" style="fill: #B6509E" /><text>Borrow APR, variable</text></g><g style="transform: translateX(150px);"><circle r="3" cx="-6" cy="-5" style="fill: rgb(231, 198, 223)" /><text>Borrow APR, stable</text></g><g style="transform: translateX(290px);"><circle r="3" cx="-6" cy="-5" style="fill: rgb(0, 98, 210)" /><text>Utilization Rate</text></g></g><g class="visx-group" transform="translate(40, 50)"><g class="visx-group visx-rows" transform="translate(0, 0)"><line class="visx-line" x1="0" y1="115" x2="1450" y2="115" fill="transparent" shape-rendering="crispEdges" stroke="#000" stroke-width="1" stroke-dasharray="3,3" pointer-events="none"></line><line class="visx-line" x1="0" y1="63.88888888888889" x2="1450" y2="63.88888888888889" fill="transparent" shape-rendering="crispEdges" stroke="#000" stroke-width="1" stroke-dasharray="3,3" pointer-events="none"></line><line class="visx-line" x1="0" y1="12.777777777777784" x2="1450" y2="12.777777777777784" fill="transparent" shape-rendering="crispEdges" stroke="#000" stroke-width="1" stroke-dasharray="3,3" pointer-events="none"></line></g><path class="visx-linepath" d="M0,114.99999999992845C2.4166666666666665,114.98807407403234,4.833333333333334,114.97614814813622,7.25,114.96422222222222C9.666666666666666,114.95229629630822,12.083333333333334,114.94037037037037,14.5,114.92844444444445C16.916666666666668,114.91651851851853,19.333333333333332,114.90459259259259,21.75,114.89266666666667C24.166666666666668,114.88074074074075,26.583333333333332,114.86881481481481,29,114.85688888888889C31.416666666666668,114.84496296296297,33.833333333333336,114.83303703703703,36.25,114.82111111111111C38.666666666666664,114.80918518518519,41.083333333333336,114.79725925925925,43.5,114.78533333333333C45.91666666666667,114.7734074074074,48.333333333333336,114.76148148148148,50.75000000000001,114.74955555555556C53.16666666666667,114.73762962962964,55.583333333333336,114.7257037037037,58,114.71377777777778C60.416666666666664,114.70185185185186,62.833333333333336,114.68992592592592,65.25,114.678C67.66666666666667,114.66607407407407,70.08333333333333,114.65414814814815,72.5,114.64222222222223C74.91666666666667,114.63029629629631,77.33333333333333,114.61837037037037,79.75,114.60644444444445C82.16666666666667,114.59451851851853,84.58333333333333,114.58259259259259,87,114.57066666666667C89.41666666666667,114.55874074074075,91.83333333333333,114.54681481481481,94.25,114.53488888888889C96.66666666666667,114.52296296296296,99.08333333333334,114.51103703703703,101.50000000000001,114.4991111111111C103.91666666666667,114.48718518518518,106.33333333333334,114.47525925925925,108.75,114.46333333333332C111.16666666666667,114.4514074074074,113.58333333333333,114.43948148148148,116,114.42755555555556C118.41666666666667,114.41562962962963,120.83333333333334,114.4037037037037,123.25000000000001,114.39177777777778C125.66666666666667,114.37985185185185,128.08333333333334,114.36792592592592,130.5,114.356C132.91666666666666,114.34407407407407,135.33333333333334,114.33214814814815,137.75,114.32022222222223C140.16666666666666,114.3082962962963,142.58333333333334,114.29637037037037,145,114.28444444444445C147.41666666666666,114.27251851851852,149.83333333333334,114.2605925925926,152.25,114.24866666666668C154.66666666666666,114.23674074074076,157.08333333333334,114.2248148148148,159.5,114.21288888888888C161.91666666666666,114.20096296296296,164.33333333333334,114.18903703703702,166.75,114.1771111111111C169.16666666666666,114.16518518518518,171.58333333333334,114.15325925925926,174,114.14133333333334C176.41666666666666,114.12940740740741,178.83333333333334,114.11748148148148,181.25,114.10555555555555C183.66666666666666,114.09362962962963,186.08333333333334,114.0817037037037,188.5,114.06977777777777C190.91666666666666,114.05785185185185,193.33333333333334,114.04592592592593,195.75,114.034C198.16666666666669,114.02207407407408,200.58333333333334,114.01014814814815,203.00000000000003,113.99822222222222C205.41666666666669,113.9862962962963,207.83333333333331,113.97437037037037,210.24999999999997,113.96244444444444C212.66666666666666,113.95051851851852,215.08333333333331,113.9385925925926,217.5,113.92666666666668C219.91666666666666,113.91474074074075,222.33333333333334,113.9028148148148,224.75,113.89088888888888C227.16666666666666,113.87896296296296,229.58333333333334,113.86703703703702,232,113.8551111111111C234.41666666666666,113.84318518518518,236.83333333333334,113.83125925925926,239.25,113.81933333333333C241.66666666666669,113.80740740740741,244.08333333333334,113.79548148148147,246.50000000000003,113.78355555555555C248.91666666666669,113.77162962962963,251.33333333333331,113.7597037037037,253.74999999999997,113.74777777777778C256.16666666666663,113.73585185185186,258.5833333333333,113.72392592592593,261,113.712C263.4166666666667,113.70007407407408,265.8333333333333,113.68814814814814,268.25,113.67622222222222C270.6666666666667,113.6642962962963,273.0833333333333,113.65237037037038,275.5,113.64044444444446C277.9166666666667,113.62851851851853,280.3333333333333,113.61659259259261,282.75,113.60466666666667C285.1666666666667,113.59274074074074,287.5833333333333,113.5808148148148,290,113.56888888888888C292.4166666666667,113.55696296296296,294.8333333333333,113.54503703703703,297.25,113.53311111111111C299.6666666666667,113.52118518518519,302.0833333333333,113.50925925925925,304.5,113.49733333333333C306.9166666666667,113.48540740740741,309.3333333333333,113.47348148148147,311.75,113.46155555555555C314.1666666666667,113.44962962962963,316.5833333333333,113.4377037037037,319,113.42577777777778C321.4166666666667,113.41385185185186,323.8333333333333,113.40192592592592,326.25,113.39C328.6666666666667,113.37807407407408,331.0833333333333,113.36614814814814,333.5,113.35422222222222C335.9166666666667,113.3422962962963,338.3333333333333,113.33037037037037,340.75,113.31844444444445C343.1666666666667,113.30651851851853,345.5833333333333,113.2945925925926,348,113.28266666666667C350.4166666666667,113.27074074074075,352.8333333333333,113.25881481481481,355.25,113.24688888888889C357.6666666666667,113.23496296296297,360.0833333333333,113.23496296296297,362.5,113.21111111111111C364.9166666666667,113.18725925925925,367.3333333333333,112.75451851851851,369.75,112.52622222222222C372.1666666666667,112.29792592592592,374.5833333333333,112.06962962962963,377,111.84133333333334C379.4166666666667,111.61303703703705,381.8333333333333,111.38474074074074,384.25,111.15644444444445C386.6666666666667,110.92814814814815,389.0833333333333,110.69985185185185,391.5,110.47155555555555C393.9166666666667,110.24325925925926,396.33333333333337,110.01496296296295,398.75000000000006,109.78666666666666C401.16666666666674,109.55837037037037,403.58333333333337,109.33007407407406,406.00000000000006,109.10177777777777C408.4166666666667,108.87348148148148,410.8333333333333,108.64518518518518,413.24999999999994,108.41688888888889C415.66666666666663,108.1885925925926,418.08333333333326,107.96029629629629,420.49999999999994,107.732C422.91666666666663,107.5037037037037,425.3333333333333,107.27540740740741,427.75,107.04711111111112C430.1666666666667,106.81881481481483,432.5833333333333,106.59051851851851,435,106.36222222222221C437.4166666666667,106.13392592592592,439.8333333333333,105.90562962962963,442.25,105.67733333333334C444.6666666666667,105.44903703703704,447.0833333333333,105.22074074074074,449.5,104.99244444444444C451.9166666666667,104.76414814814815,454.3333333333333,104.53585185185185,456.75,104.30755555555555C459.1666666666667,104.07925925925926,461.5833333333333,103.85096296296297,464,103.62266666666667C466.4166666666667,103.39437037037038,468.8333333333333,103.16607407407406,471.25,102.93777777777777C473.6666666666667,102.70948148148148,476.0833333333333,102.48118518518518,478.5,102.25288888888889C480.9166666666667,102.0245925925926,483.33333333333337,101.79629629629629,485.75000000000006,101.568C488.16666666666674,101.3397037037037,490.58333333333337,101.11140740740741,493.00000000000006,100.88311111111112C495.4166666666667,100.65481481481483,497.8333333333333,100.42651851851852,500.24999999999994,100.19822222222223C502.66666666666663,99.96992592592592,505.08333333333326,99.74162962962961,507.49999999999994,99.51333333333332C509.91666666666663,99.28503703703703,512.3333333333333,99.05674074074074,514.75,98.82844444444444C517.1666666666666,98.60014814814815,519.5833333333334,98.37185185185186,522,98.14355555555557C524.4166666666666,97.91525925925927,526.8333333333334,97.68696296296297,529.25,97.45866666666667C531.6666666666666,97.23037037037038,534.0833333333334,97.00207407407407,536.5,96.77377777777778C538.9166666666666,96.54548148148149,541.3333333333334,96.31718518518518,543.75,96.08888888888889C546.1666666666666,95.8605925925926,548.5833333333334,95.63229629629629,551,95.404C553.4166666666666,95.1757037037037,555.8333333333334,94.9474074074074,558.25,94.7191111111111C560.6666666666666,94.49081481481481,563.0833333333334,94.26251851851852,565.5,94.03422222222223C567.9166666666666,93.80592592592593,570.3333333333334,93.57762962962963,572.75,93.34933333333333C575.1666666666666,93.12103703703704,577.5833333333334,92.89274074074073,580,92.66444444444444C582.4166666666666,92.43614814814815,584.8333333333334,92.20785185185184,587.25,91.97955555555555C589.6666666666666,91.75125925925926,592.0833333333334,91.52296296296296,594.5,91.29466666666667C596.9166666666666,91.06637037037038,599.3333333333334,90.83807407407407,601.75,90.60977777777778C604.1666666666666,90.38148148148149,606.5833333333334,90.15318518518518,609,89.92488888888889C611.4166666666666,89.6965925925926,613.8333333333334,89.4682962962963,616.25,89.24000000000001C618.6666666666666,89.01170370370372,621.0833333333334,88.78340740740742,623.5,88.55511111111112C625.9166666666666,88.32681481481481,628.3333333333334,88.0985185185185,630.75,87.87022222222221C633.1666666666666,87.64192592592592,635.5833333333334,87.41362962962963,638,87.18533333333333C640.4166666666666,86.95703703703704,642.8333333333334,86.72874074074075,645.25,86.50044444444445C647.6666666666666,86.27214814814816,650.0833333333334,86.04385185185185,652.5,85.81555555555556C654.9166666666666,85.58725925925927,657.3333333333334,85.35896296296295,659.75,85.13066666666666C662.1666666666666,84.90237037037036,664.5833333333334,84.67407407407407,667,84.44577777777778C669.4166666666666,84.21748148148149,671.8333333333334,83.98918518518519,674.25,83.7608888888889C676.6666666666666,83.53259259259261,679.0833333333334,83.30429629629629,681.5,83.076C683.9166666666666,82.8477037037037,686.3333333333334,82.61940740740741,688.75,82.39111111111112C691.1666666666666,82.16281481481482,693.5833333333334,81.93451851851852,696,81.70622222222222C698.4166666666666,81.47792592592593,700.8333333333334,81.24962962962964,703.25,81.02133333333335C705.6666666666666,80.79303703703705,708.0833333333334,80.56474074074073,710.5,80.33644444444444C712.9166666666666,80.10814814814815,715.3333333333334,79.87985185185185,717.75,79.65155555555556C720.1666666666666,79.42325925925927,722.5833333333334,79.19496296296296,725,78.96666666666667C727.4166666666666,78.73837037037038,729.8333333333334,78.51007407407407,732.25,78.28177777777778C734.6666666666666,78.05348148148148,737.0833333333334,77.82518518518518,739.5,77.59688888888888C741.9166666666666,77.36859259259259,744.3333333333334,77.1402962962963,746.75,76.912C749.1666666666666,76.68370370370371,751.5833333333334,76.4554074074074,754,76.22711111111111C756.4166666666666,75.99881481481482,758.8333333333334,75.77051851851851,761.25,75.54222222222222C763.6666666666666,75.31392592592593,766.0833333333334,75.08562962962964,768.5,74.85733333333334C770.9166666666666,74.62903703703705,773.3333333333334,74.40074074074076,775.75,74.17244444444445C778.1666666666666,73.94414814814814,780.5833333333334,73.71585185185184,783,73.48755555555555C785.4166666666667,73.25925925925925,787.8333333333334,73.03096296296296,790.2500000000001,72.80266666666667C792.6666666666667,72.57437037037037,795.0833333333335,72.34607407407408,797.5000000000001,72.11777777777779C799.9166666666667,71.8894814814815,802.3333333333335,71.66118518518519,804.7500000000001,71.43288888888888C807.1666666666667,71.20459259259258,809.5833333333335,70.97629629629628,812.0000000000001,70.74799999999999C814.4166666666667,70.5197037037037,816.8333333333333,70.2914074074074,819.2499999999999,70.06311111111111C821.6666666666665,69.83481481481482,824.0833333333333,69.60651851851853,826.4999999999999,69.37822222222223C828.9166666666665,69.14992592592594,831.3333333333333,68.92162962962962,833.7499999999999,68.69333333333333C836.1666666666665,68.46503703703704,838.5833333333333,68.23674074074074,840.9999999999999,68.00844444444445C843.4166666666666,67.78014814814816,845.8333333333333,67.55185185185186,848.25,67.32355555555556C850.6666666666666,67.09525925925927,853.0833333333334,66.86696296296294,855.5,66.63866666666665C857.9166666666666,66.41037037037036,860.3333333333334,66.18207407407407,862.75,65.95377777777777C865.1666666666666,65.72548148148148,867.5833333333334,65.49718518518519,870,65.2688888888889C872.4166666666666,65.0405925925926,874.8333333333334,64.8122962962963,877.25,64.584C879.6666666666666,64.35570370370371,882.0833333333334,64.1274074074074,884.5,63.899111111111104C886.9166666666666,63.670814814814804,889.3333333333334,63.44251851851852,891.75,63.214222222222226C894.1666666666666,62.98592592592593,896.5833333333334,62.75762962962963,899,62.52933333333334C901.4166666666666,62.30103703703705,903.8333333333334,62.07274074074075,906.25,61.84444444444445C908.6666666666666,61.61614814814815,911.0833333333334,61.38785185185185,913.5,61.15955555555555C915.9166666666666,60.93125925925925,918.3333333333334,60.70296296296297,920.75,60.47466666666667C923.1666666666666,60.24637037037037,925.5833333333334,60.018074074074065,928,59.789777777777765C930.4166666666666,59.561481481481465,932.8333333333334,59.33318518518519,935.25,59.104888888888894C937.6666666666666,58.8765925925926,940.0833333333334,58.6482962962963,942.5,58.42C944.9166666666666,58.1917037037037,947.3333333333334,57.9634074074074,949.75,57.73511111111111C952.1666666666666,57.50681481481482,954.5833333333334,57.278518518518524,957,57.050222222222224C959.4166666666666,56.821925925925925,961.8333333333334,56.593629629629625,964.25,56.36533333333333C966.6666666666667,56.13703703703703,969.0833333333334,55.90874074074075,971.5000000000001,55.68044444444445C973.9166666666667,55.452148148148154,976.3333333333335,55.22385185185185,978.7500000000001,54.995555555555555C981.1666666666667,54.76725925925926,983.5833333333335,54.53896296296297,986.0000000000001,54.31066666666667C988.4166666666667,54.08237037037037,990.8333333333335,53.85407407407406,993.2500000000001,53.62577777777776C995.6666666666667,53.39748148148147,998.0833333333333,53.16918518518519,1000.4999999999999,52.9408888888889C1002.9166666666665,52.7125925925926,1005.3333333333333,52.4842962962963,1007.7499999999999,52.256C1010.1666666666665,52.0277037037037,1012.5833333333333,51.7994074074074,1014.9999999999999,51.57111111111111C1017.4166666666665,51.342814814814815,1019.8333333333333,51.11451851851852,1022.2499999999999,50.88622222222223C1024.6666666666665,50.65792592592593,1027.0833333333333,50.42962962962963,1029.5,50.20133333333333C1031.9166666666667,49.97303703703704,1034.3333333333333,49.74474074074075,1036.75,49.51644444444445C1039.1666666666667,49.28814814814815,1041.5833333333333,49.05985185185185,1044,48.83155555555555C1046.4166666666667,48.603259259259254,1048.8333333333333,48.374962962962954,1051.25,48.14666666666666C1053.6666666666667,47.91837037037037,1056.0833333333333,47.690074074074076,1058.5,47.46177777777778C1060.9166666666667,47.23348148148149,1063.3333333333333,47.0051851851852,1065.75,46.7768888888889C1068.1666666666667,46.5485925925926,1070.5833333333333,46.320296296296306,1073,46.092000000000006C1075.4166666666667,45.863703703703706,1077.8333333333333,45.63540740740741,1080.25,45.407111111111114C1082.6666666666667,45.178814814814814,1085.0833333333333,44.95051851851851,1087.5,44.722222222222214C1089.9166666666667,44.49392592592592,1092.3333333333333,44.26562962962963,1094.75,44.037333333333336C1097.1666666666667,43.809037037037044,1099.5833333333333,43.580740740740744,1102,43.352444444444444C1104.4166666666667,43.124148148148144,1106.8333333333333,42.895851851851845,1109.25,42.667555555555545C1111.6666666666667,42.439259259259245,1114.0833333333333,42.21096296296296,1116.5,41.98266666666667C1118.9166666666667,41.754370370370374,1121.3333333333333,41.526074074074074,1123.75,41.29777777777778C1126.1666666666667,41.06948148148149,1128.5833333333333,40.84118518518519,1131,40.61288888888889C1133.4166666666667,40.38459259259259,1135.8333333333333,40.156296296296276,1138.25,39.92799999999998C1140.6666666666667,39.69970370370369,1143.0833333333333,39.471407407407405,1145.5,39.24311111111111C1147.9166666666667,39.01481481481482,1150.3333333333333,38.78651851851851,1152.75,38.55822222222222C1155.1666666666667,38.32992592592593,1157.5833333333333,38.10162962962964,1160,37.87333333333335C1162.4166666666667,37.645037037037056,1164.8333333333333,37.41674074074074,1167.25,37.18844444444444C1169.6666666666667,36.96014814814814,1172.0833333333333,36.73185185185184,1174.5,36.50355555555555C1176.9166666666667,36.27525925925926,1179.3333333333333,36.04696296296296,1181.75,35.818666666666665C1184.1666666666667,35.59037037037037,1186.5833333333333,35.36207407407409,1189,35.13377777777779C1191.4166666666667,34.90548148148149,1193.8333333333333,34.67718518518519,1196.25,34.44888888888889C1198.6666666666667,34.22059259259259,1201.0833333333333,33.99229629629629,1203.5,33.763999999999996C1205.9166666666667,33.5357037037037,1208.3333333333333,33.30740740740741,1210.75,33.07911111111112C1213.1666666666667,32.850814814814825,1215.5833333333333,32.62251851851852,1218,32.39422222222222C1220.4166666666667,32.16592592592592,1222.8333333333333,31.937629629629637,1225.25,31.70933333333334C1227.6666666666667,31.481037037037044,1230.0833333333333,31.252740740740734,1232.5,31.024444444444434C1234.9166666666667,30.796148148148134,1237.3333333333333,30.56785185185184,1239.75,30.33955555555555C1242.1666666666667,30.111259259259256,1244.5833333333333,29.882962962962964,1247,29.65466666666667C1249.4166666666667,29.42637037037038,1251.8333333333333,29.198074074074086,1254.25,28.969777777777786C1256.6666666666667,28.741481481481486,1259.0833333333333,28.51318518518518,1261.5,28.28488888888888C1263.9166666666667,28.05659259259258,1266.3333333333333,27.828296296296294,1268.75,27.599999999999998C1271.1666666666667,27.3717037037037,1273.5833333333333,27.1434074074074,1276,26.915111111111106C1278.4166666666667,26.686814814814813,1280.8333333333333,26.45851851851853,1283.25,26.230222222222235C1285.6666666666667,26.00192592592594,1288.0833333333333,25.773629629629628,1290.5,25.54533333333333C1292.9166666666667,25.31703703703703,1295.3333333333333,25.08874074074073,1297.75,24.860444444444436C1300.1666666666667,24.632148148148143,1302.5833333333333,24.403851851851858,1305,24.175555555555565C1307.4166666666667,23.947259259259273,1309.8333333333333,23.71896296296297,1312.25,23.490666666666673C1314.6666666666667,23.262370370370377,1317.0833333333333,23.034074074074073,1319.5,22.805777777777777C1321.9166666666667,22.57748148148148,1324.3333333333333,22.349185185185192,1326.75,22.120888888888896C1329.1666666666667,21.8925925925926,1331.5833333333333,21.6642962962963,1334,21.436C1336.4166666666667,21.2077037037037,1338.8333333333333,20.9794074074074,1341.25,20.751111111111108C1343.6666666666667,20.522814814814815,1346.0833333333333,20.294518518518533,1348.5,20.066222222222237C1350.9166666666667,19.83792592592594,1353.3333333333333,19.60962962962963,1355.75,19.38133333333333C1358.1666666666667,19.15303703703703,1360.5833333333333,18.924740740740734,1363,18.696444444444438C1365.4166666666667,18.468148148148142,1367.8333333333333,18.23985185185185,1370.25,18.011555555555557C1372.6666666666667,17.783259259259264,1375.0833333333333,17.55496296296297,1377.5,17.326666666666675C1379.9166666666667,17.09837037037038,1382.3333333333333,16.87007407407408,1384.75,16.64177777777778C1387.1666666666667,16.41348148148148,1389.5833333333333,16.18518518518518,1392,15.956888888888885C1394.4166666666667,15.72859259259259,1396.8333333333333,15.500296296296298,1399.25,15.272000000000004C1401.6666666666667,15.04370370370371,1404.0833333333333,14.81540740740742,1406.5,14.587111111111122C1408.9166666666667,14.358814814814824,1411.3333333333333,14.130518518518514,1413.75,13.902222222222214C1416.1666666666667,13.673925925925914,1418.5833333333333,13.445629629629614,1421,13.21733333333332C1423.4166666666667,12.989037037037026,1425.8333333333333,12.760740740740747,1428.25,12.532444444444451C1430.6666666666667,12.304148148148155,1433.0833333333333,12.075851851851843,1435.5,11.847555555555545C1437.9166666666667,11.619259259259247,1440.3333333333333,11.390962962962957,1442.75,11.162666666666663C1445.1666666666667,10.934370370370369,1447.5833333333333,10.706074074074076,1450,10.477777777777781" fill="transparent" stroke-linecap="round" stroke="#B6509E" stroke-width="2"></path><path class="visx-linepath" d="M0,112.444444444424C2.4166666666666665,112.4410370370251,4.833333333333334,112.43762962962622,7.25,112.43422222222222C9.666666666666666,112.43081481481822,12.083333333333334,112.42740740740742,14.5,112.424C16.916666666666668,112.4205925925926,19.333333333333332,112.41718518518519,21.75,112.41377777777778C24.166666666666668,112.41037037037037,26.583333333333332,112.40696296296296,29,112.40355555555556C31.416666666666668,112.40014814814815,33.833333333333336,112.39674074074075,36.25,112.39333333333335C38.666666666666664,112.38992592592594,41.083333333333336,112.38651851851853,43.5,112.38311111111112C45.91666666666667,112.37970370370371,48.333333333333336,112.3762962962963,50.75000000000001,112.3728888888889C53.16666666666667,112.36948148148149,55.583333333333336,112.36607407407408,58,112.36266666666667C60.416666666666664,112.35925925925926,62.833333333333336,112.35585185185185,65.25,112.35244444444444C67.66666666666667,112.34903703703704,70.08333333333333,112.34562962962963,72.5,112.34222222222222C74.91666666666667,112.33881481481481,77.33333333333333,112.3354074074074,79.75,112.332C82.16666666666667,112.32859259259259,84.58333333333333,112.32518518518518,87,112.32177777777777C89.41666666666667,112.31837037037036,91.83333333333333,112.31496296296297,94.25,112.31155555555556C96.66666666666667,112.30814814814815,99.08333333333334,112.30474074074074,101.50000000000001,112.30133333333333C103.91666666666667,112.29792592592592,106.33333333333334,112.29451851851852,108.75,112.2911111111111C111.16666666666667,112.2877037037037,113.58333333333333,112.28429629629629,116,112.28088888888888C118.41666666666667,112.27748148148147,120.83333333333334,112.27407407407406,123.25000000000001,112.27066666666666C125.66666666666667,112.26725925925925,128.08333333333334,112.26385185185185,130.5,112.26044444444445C132.91666666666666,112.25703703703704,135.33333333333334,112.25362962962963,137.75,112.25022222222222C140.16666666666666,112.24681481481481,142.58333333333334,112.2434074074074,145,112.24C147.41666666666666,112.23659259259259,149.83333333333334,112.23318518518518,152.25,112.22977777777777C154.66666666666666,112.22637037037036,157.08333333333334,112.22296296296297,159.5,112.21955555555556C161.91666666666666,112.21614814814815,164.33333333333334,112.21274074074074,166.75,112.20933333333333C169.16666666666666,112.20592592592592,171.58333333333334,112.20251851851852,174,112.19911111111111C176.41666666666666,112.1957037037037,178.83333333333334,112.19229629629629,181.25,112.18888888888888C183.66666666666666,112.18548148148147,186.08333333333334,112.18207407407408,188.5,112.17866666666667C190.91666666666666,112.17525925925926,193.33333333333334,112.17185185185186,195.75,112.16844444444445C198.16666666666669,112.16503703703704,200.58333333333334,112.16162962962963,203.00000000000003,112.15822222222222C205.41666666666669,112.15481481481481,207.83333333333331,112.1514074074074,210.24999999999997,112.148C212.66666666666666,112.14459259259259,215.08333333333331,112.1411851851852,217.5,112.13777777777779C219.91666666666666,112.13437037037038,222.33333333333334,112.13096296296297,224.75,112.12755555555556C227.16666666666666,112.12414814814815,229.58333333333334,112.12074074074074,232,112.11733333333333C234.41666666666666,112.11392592592593,236.83333333333334,112.11051851851852,239.25,112.10711111111111C241.66666666666669,112.1037037037037,244.08333333333334,112.1002962962963,246.50000000000003,112.0968888888889C248.91666666666669,112.09348148148149,251.33333333333331,112.09007407407408,253.74999999999997,112.08666666666667C256.16666666666663,112.08325925925926,258.5833333333333,112.07985185185186,261,112.07644444444445C263.4166666666667,112.07303703703704,265.8333333333333,112.06962962962963,268.25,112.06622222222222C270.6666666666667,112.06281481481481,273.0833333333333,112.05940740740742,275.5,112.05600000000001C277.9166666666667,112.0525925925926,280.3333333333333,112.0491851851852,282.75,112.04577777777779C285.1666666666667,112.04237037037038,287.5833333333333,112.03896296296297,290,112.03555555555556C292.4166666666667,112.03214814814815,294.8333333333333,112.02874074074074,297.25,112.02533333333334C299.6666666666667,112.02192592592593,302.0833333333333,112.01851851851852,304.5,112.01511111111111C306.9166666666667,112.0117037037037,309.3333333333333,112.0082962962963,311.75,112.00488888888889C314.1666666666667,112.00148148148148,316.5833333333333,111.99807407407407,319,111.99466666666666C321.4166666666667,111.99125925925925,323.8333333333333,111.98785185185184,326.25,111.98444444444443C328.6666666666667,111.98103703703703,331.0833333333333,111.97762962962963,333.5,111.97422222222222C335.9166666666667,111.97081481481482,338.3333333333333,111.9674074074074,340.75,111.964C343.1666666666667,111.96059259259259,345.5833333333333,111.95718518518518,348,111.95377777777777C350.4166666666667,111.95037037037036,352.8333333333333,111.94696296296296,355.25,111.94355555555555C357.6666666666667,111.94014814814814,360.0833333333333,111.94014814814814,362.5,111.93333333333334C364.9166666666667,111.92651851851853,367.3333333333333,111.84814814814816,369.75,111.80555555555556C372.1666666666667,111.76296296296296,374.5833333333333,111.72037037037038,377,111.67777777777778C379.4166666666667,111.63518518518518,381.8333333333333,111.59259259259258,384.25,111.55C386.6666666666667,111.50740740740741,389.0833333333333,111.46481481481483,391.5,111.42222222222223C393.9166666666667,111.37962962962963,396.33333333333337,111.33703703703704,398.75000000000006,111.29444444444444C401.16666666666674,111.25185185185184,403.58333333333337,111.20925925925927,406.00000000000006,111.16666666666667C408.4166666666667,111.12407407407407,410.8333333333333,111.08148148148148,413.24999999999994,111.03888888888888C415.66666666666663,110.99629629629628,418.08333333333326,110.9537037037037,420.49999999999994,110.91111111111111C422.91666666666663,110.86851851851851,425.3333333333333,110.82592592592593,427.75,110.78333333333333C430.1666666666667,110.74074074074073,432.5833333333333,110.69814814814814,435,110.65555555555555C437.4166666666667,110.61296296296297,439.8333333333333,110.57037037037038,442.25,110.52777777777779C444.6666666666667,110.48518518518519,447.0833333333333,110.44259259259259,449.5,110.39999999999999C451.9166666666667,110.3574074074074,454.3333333333333,110.31481481481481,456.75,110.27222222222223C459.1666666666667,110.22962962962964,461.5833333333333,110.18703703703704,464,110.14444444444445C466.4166666666667,110.10185185185185,468.8333333333333,110.05925925925925,471.25,110.01666666666667C473.6666666666667,109.97407407407408,476.0833333333333,109.9314814814815,478.5,109.8888888888889C480.9166666666667,109.8462962962963,483.33333333333337,109.8037037037037,485.75000000000006,109.7611111111111C488.16666666666674,109.71851851851851,490.58333333333337,109.67592592592594,493.00000000000006,109.63333333333334C495.4166666666667,109.59074074074074,497.8333333333333,109.54814814814814,500.24999999999994,109.50555555555555C502.66666666666663,109.46296296296295,505.08333333333326,109.42037037037036,507.49999999999994,109.37777777777778C509.91666666666663,109.33518518518518,512.3333333333333,109.2925925925926,514.75,109.25C517.1666666666666,109.2074074074074,519.5833333333334,109.1648148148148,522,109.12222222222222C524.4166666666666,109.07962962962964,526.8333333333334,109.03703703703705,529.25,108.99444444444445C531.6666666666666,108.95185185185186,534.0833333333334,108.90925925925926,536.5,108.86666666666666C538.9166666666666,108.82407407407406,541.3333333333334,108.78148148148148,543.75,108.7388888888889C546.1666666666666,108.69629629629631,548.5833333333334,108.65370370370371,551,108.61111111111111C553.4166666666666,108.56851851851852,555.8333333333334,108.52592592592593,558.25,108.48333333333333C560.6666666666666,108.44074074074074,563.0833333333334,108.39814814814815,565.5,108.35555555555555C567.9166666666666,108.31296296296296,570.3333333333334,108.27037037037037,572.75,108.22777777777777C575.1666666666666,108.18518518518518,577.5833333333334,108.14259259259258,580,108.1C582.4166666666666,108.05740740740741,584.8333333333334,108.01481481481481,587.25,107.97222222222223C589.6666666666666,107.92962962962964,592.0833333333334,107.88703703703705,594.5,107.84444444444445C596.9166666666666,107.80185185185185,599.3333333333334,107.75925925925927,601.75,107.71666666666667C604.1666666666666,107.67407407407407,606.5833333333334,107.63148148148149,609,107.58888888888889C611.4166666666666,107.54629629629629,613.8333333333334,107.5037037037037,616.25,107.46111111111111C618.6666666666666,107.41851851851851,621.0833333333334,107.37592592592593,623.5,107.33333333333333C625.9166666666666,107.29074074074073,628.3333333333334,107.24814814814813,630.75,107.20555555555555C633.1666666666666,107.16296296296296,635.5833333333334,107.12037037037038,638,107.07777777777778C640.4166666666666,107.03518518518518,642.8333333333334,106.99259259259259,645.25,106.94999999999999C647.6666666666666,106.90740740740739,650.0833333333334,106.8648148148148,652.5,106.82222222222222C654.9166666666666,106.77962962962964,657.3333333333334,106.73703703703704,659.75,106.69444444444444C662.1666666666666,106.65185185185184,664.5833333333334,106.60925925925925,667,106.56666666666666C669.4166666666666,106.52407407407408,671.8333333333334,106.4814814814815,674.25,106.4388888888889C676.6666666666666,106.3962962962963,679.0833333333334,106.3537037037037,681.5,106.3111111111111C683.9166666666666,106.2685185185185,686.3333333333334,106.22592592592592,688.75,106.18333333333334C691.1666666666666,106.14074074074075,693.5833333333334,106.09814814814816,696,106.05555555555556C698.4166666666666,106.01296296296296,700.8333333333334,105.97037037037036,703.25,105.92777777777778C705.6666666666666,105.8851851851852,708.0833333333334,105.84259259259261,710.5,105.80000000000001C712.9166666666666,105.75740740740741,715.3333333333334,105.71481481481482,717.75,105.67222222222222C720.1666666666666,105.62962962962962,722.5833333333334,105.58703703703705,725,105.54444444444445C727.4166666666666,105.50185185185185,729.8333333333334,105.45925925925926,732.25,105.41666666666666C734.6666666666666,105.37407407407406,737.0833333333334,105.33148148148148,739.5,105.28888888888889C741.9166666666666,105.24629629629631,744.3333333333334,105.20370370370371,746.75,105.16111111111111C749.1666666666666,105.11851851851851,751.5833333333334,105.07592592592592,754,105.03333333333333C756.4166666666666,104.99074074074075,758.8333333333334,104.94814814814816,761.25,104.90555555555557C763.6666666666666,104.86296296296297,766.0833333333334,104.82037037037037,768.5,104.77777777777777C770.9166666666666,104.73518518518517,773.3333333333334,104.6925925925926,775.75,104.65C778.1666666666666,104.60740740740741,780.5833333333334,104.56481481481481,783,104.52222222222221C785.4166666666667,104.47962962962961,787.8333333333334,104.43703703703704,790.2500000000001,104.39444444444445C792.6666666666667,104.35185185185186,795.0833333333335,104.30925925925926,797.5000000000001,104.26666666666667C799.9166666666667,104.22407407407407,802.3333333333335,104.18148148148148,804.7500000000001,104.13888888888889C807.1666666666667,104.09629629629629,809.5833333333335,104.0537037037037,812.0000000000001,104.0111111111111C814.4166666666667,103.96851851851851,816.8333333333333,103.92592592592591,819.2499999999999,103.88333333333333C821.6666666666665,103.84074074074073,824.0833333333333,103.79814814814814,826.4999999999999,103.75555555555556C828.9166666666665,103.71296296296298,831.3333333333333,103.67037037037038,833.7499999999999,103.62777777777778C836.1666666666665,103.58518518518518,838.5833333333333,103.5425925925926,840.9999999999999,103.5C843.4166666666666,103.4574074074074,845.8333333333333,103.41481481481482,848.25,103.37222222222222C850.6666666666666,103.32962962962962,853.0833333333334,103.28703703703702,855.5,103.24444444444444C857.9166666666666,103.20185185185186,860.3333333333334,103.15925925925926,862.75,103.11666666666667C865.1666666666666,103.07407407407409,867.5833333333334,103.03148148148149,870,102.9888888888889C872.4166666666666,102.9462962962963,874.8333333333334,102.90370370370371,877.25,102.86111111111111C879.6666666666666,102.81851851851852,882.0833333333334,102.77592592592593,884.5,102.73333333333333C886.9166666666666,102.69074074074074,889.3333333333334,102.64814814814815,891.75,102.60555555555555C894.1666666666666,102.56296296296296,896.5833333333334,102.52037037037036,899,102.47777777777777C901.4166666666666,102.43518518518519,903.8333333333334,102.3925925925926,906.25,102.35000000000001C908.6666666666666,102.30740740740741,911.0833333333334,102.26481481481481,913.5,102.22222222222221C915.9166666666666,102.17962962962962,918.3333333333334,102.13703703703703,920.75,102.09444444444445C923.1666666666666,102.05185185185186,925.5833333333334,102.00925925925927,928,101.96666666666667C930.4166666666666,101.92407407407407,932.8333333333334,101.88148148148149,935.25,101.83888888888889C937.6666666666666,101.79629629629629,940.0833333333334,101.7537037037037,942.5,101.71111111111111C944.9166666666666,101.66851851851851,947.3333333333334,101.62592592592591,949.75,101.58333333333333C952.1666666666666,101.54074074074074,954.5833333333334,101.49814814814816,957,101.45555555555556C959.4166666666666,101.41296296296296,961.8333333333334,101.37037037037037,964.25,101.32777777777777C966.6666666666667,101.28518518518517,969.0833333333334,101.2425925925926,971.5000000000001,101.2C973.9166666666667,101.1574074074074,976.3333333333335,101.1148148148148,978.7500000000001,101.07222222222221C981.1666666666667,101.02962962962961,983.5833333333335,100.98703703703703,986.0000000000001,100.94444444444444C988.4166666666667,100.90185185185186,990.8333333333335,100.85925925925928,993.2500000000001,100.81666666666668C995.6666666666667,100.77407407407408,998.0833333333333,100.73148148148148,1000.4999999999999,100.68888888888888C1002.9166666666665,100.64629629629628,1005.3333333333333,100.60370370370372,1007.7499999999999,100.56111111111112C1010.1666666666665,100.51851851851852,1012.5833333333333,100.47592592592592,1014.9999999999999,100.43333333333332C1017.4166666666665,100.39074074074072,1019.8333333333333,100.34814814814814,1022.2499999999999,100.30555555555556C1024.6666666666665,100.26296296296297,1027.0833333333333,100.22037037037039,1029.5,100.17777777777779C1031.9166666666667,100.1351851851852,1034.3333333333333,100.0925925925926,1036.75,100.05C1039.1666666666667,100.0074074074074,1041.5833333333333,99.96481481481482,1044,99.92222222222222C1046.4166666666667,99.87962962962962,1048.8333333333333,99.83703703703702,1051.25,99.79444444444444C1053.6666666666667,99.75185185185185,1056.0833333333333,99.70925925925926,1058.5,99.66666666666667C1060.9166666666667,99.62407407407409,1063.3333333333333,99.58148148148149,1065.75,99.53888888888889C1068.1666666666667,99.4962962962963,1070.5833333333333,99.45370370370371,1073,99.41111111111111C1075.4166666666667,99.36851851851851,1077.8333333333333,99.32592592592593,1080.25,99.28333333333333C1082.6666666666667,99.24074074074073,1085.0833333333333,99.19814814814814,1087.5,99.15555555555555C1089.9166666666667,99.11296296296297,1092.3333333333333,99.07037037037038,1094.75,99.02777777777779C1097.1666666666667,98.98518518518519,1099.5833333333333,98.94259259259259,1102,98.89999999999999C1104.4166666666667,98.8574074074074,1106.8333333333333,98.81481481481481,1109.25,98.77222222222223C1111.6666666666667,98.72962962962964,1114.0833333333333,98.68703703703704,1116.5,98.64444444444445C1118.9166666666667,98.60185185185185,1121.3333333333333,98.55925925925925,1123.75,98.51666666666667C1126.1666666666667,98.47407407407408,1128.5833333333333,98.4314814814815,1131,98.3888888888889C1133.4166666666667,98.3462962962963,1135.8333333333333,98.3037037037037,1138.25,98.2611111111111C1140.6666666666667,98.21851851851851,1143.0833333333333,98.17592592592591,1145.5,98.13333333333333C1147.9166666666667,98.09074074074074,1150.3333333333333,98.04814814814814,1152.75,98.00555555555556C1155.1666666666667,97.96296296296298,1157.5833333333333,97.92037037037038,1160,97.87777777777778C1162.4166666666667,97.83518518518518,1164.8333333333333,97.7925925925926,1167.25,97.75C1169.6666666666667,97.7074074074074,1172.0833333333333,97.66481481481482,1174.5,97.62222222222222C1176.9166666666667,97.57962962962962,1179.3333333333333,97.53703703703702,1181.75,97.49444444444444C1184.1666666666667,97.45185185185186,1186.5833333333333,97.40925925925926,1189,97.36666666666667C1191.4166666666667,97.32407407407409,1193.8333333333333,97.28148148148149,1196.25,97.2388888888889C1198.6666666666667,97.1962962962963,1201.0833333333333,97.15370370370371,1203.5,97.11111111111111C1205.9166666666667,97.06851851851852,1208.3333333333333,97.02592592592592,1210.75,96.98333333333332C1213.1666666666667,96.94074074074072,1215.5833333333333,96.89814814814814,1218,96.85555555555555C1220.4166666666667,96.81296296296297,1222.8333333333333,96.77037037037039,1225.25,96.72777777777779C1227.6666666666667,96.68518518518519,1230.0833333333333,96.64259259259259,1232.5,96.6C1234.9166666666667,96.5574074074074,1237.3333333333333,96.51481481481483,1239.75,96.47222222222223C1242.1666666666667,96.42962962962963,1244.5833333333333,96.38703703703703,1247,96.34444444444443C1249.4166666666667,96.30185185185184,1251.8333333333333,96.25925925925925,1254.25,96.21666666666667C1256.6666666666667,96.17407407407408,1259.0833333333333,96.13148148148149,1261.5,96.08888888888889C1263.9166666666667,96.04629629629629,1266.3333333333333,96.00370370370369,1268.75,95.96111111111111C1271.1666666666667,95.91851851851852,1273.5833333333333,95.87592592592594,1276,95.83333333333334C1278.4166666666667,95.79074074074074,1280.8333333333333,95.74814814814815,1283.25,95.70555555555555C1285.6666666666667,95.66296296296295,1288.0833333333333,95.62037037037038,1290.5,95.57777777777778C1292.9166666666667,95.53518518518518,1295.3333333333333,95.49259259259259,1297.75,95.44999999999999C1300.1666666666667,95.40740740740739,1302.5833333333333,95.3648148148148,1305,95.32222222222222C1307.4166666666667,95.27962962962964,1309.8333333333333,95.23703703703704,1312.25,95.19444444444444C1314.6666666666667,95.15185185185184,1317.0833333333333,95.10925925925925,1319.5,95.06666666666666C1321.9166666666667,95.02407407407408,1324.3333333333333,94.9814814814815,1326.75,94.9388888888889C1329.1666666666667,94.8962962962963,1331.5833333333333,94.8537037037037,1334,94.8111111111111C1336.4166666666667,94.7685185185185,1338.8333333333333,94.72592592592592,1341.25,94.68333333333334C1343.6666666666667,94.64074074074075,1346.0833333333333,94.59814814814816,1348.5,94.55555555555556C1350.9166666666667,94.51296296296296,1353.3333333333333,94.47037037037036,1355.75,94.42777777777778C1358.1666666666667,94.3851851851852,1360.5833333333333,94.34259259259261,1363,94.30000000000001C1365.4166666666667,94.25740740740741,1367.8333333333333,94.21481481481482,1370.25,94.17222222222222C1372.6666666666667,94.12962962962962,1375.0833333333333,94.08703703703702,1377.5,94.04444444444444C1379.9166666666667,94.00185185185185,1382.3333333333333,93.95925925925926,1384.75,93.91666666666667C1387.1666666666667,93.87407407407409,1389.5833333333333,93.83148148148149,1392,93.78888888888889C1394.4166666666667,93.7462962962963,1396.8333333333333,93.70370370370371,1399.25,93.66111111111111C1401.6666666666667,93.61851851851851,1404.0833333333333,93.57592592592593,1406.5,93.53333333333333C1408.9166666666667,93.49074074074073,1411.3333333333333,93.44814814814815,1413.75,93.40555555555555C1416.1666666666667,93.36296296296295,1418.5833333333333,93.32037037037036,1421,93.27777777777777C1423.4166666666667,93.23518518518519,1425.8333333333333,93.19259259259259,1428.25,93.15C1430.6666666666667,93.10740740740742,1433.0833333333333,93.06481481481482,1435.5,93.02222222222223C1437.9166666666667,92.97962962962963,1440.3333333333333,92.93703703703704,1442.75,92.89444444444445C1445.1666666666667,92.85185185185185,1447.5833333333333,92.80925925925926,1450,92.76666666666667" fill="transparent" stroke-linecap="round" stroke="#E7C6DF" stroke-width="2"></path><g class="visx-group visx-axis visx-axis-bottom" transform="translate(0, 115)"><g class="visx-group visx-axis-tick" transform="translate(0, 0)"><line class="visx-line" x1="0" y1="0" x2="0" y2="8" fill="transparent" shape-rendering="crispEdges" stroke="#000" stroke-width="0" stroke-linecap="square"></line><svg x="0" y="0" font-size="10" style="overflow:visible"><text transform="" x="0" y="18" fill="#000" font-size="10" text-anchor="middle"><tspan x="0" dy="0em">0%</tspan></text></svg></g><g class="visx-group visx-axis-tick" transform="translate(0, 0)"><line class="visx-line" x1="362.5" y1="0" x2="362.5" y2="8" fill="transparent" shape-rendering="crispEdges" stroke="#000" stroke-width="0" stroke-linecap="square"></line><svg x="0" y="0" font-size="10" style="overflow:visible"><text transform="" x="362.5" y="18" fill="#000" font-size="10" text-anchor="middle"><tspan x="362.5" dy="0em">25%</tspan></text></svg></g><g class="visx-group visx-axis-tick" transform="translate(0, 0)"><line class="visx-line" x1="725" y1="0" x2="725" y2="8" fill="transparent" shape-rendering="crispEdges" stroke="#000" stroke-width="0" stroke-linecap="square"></line><svg x="0" y="0" font-size="10" style="overflow:visible"><text transform="" x="725" y="18" fill="#000" font-size="10" text-anchor="middle"><tspan x="725" dy="0em">50%</tspan></text></svg></g><g class="visx-group visx-axis-tick" transform="translate(0, 0)"><line class="visx-line" x1="1087.5" y1="0" x2="1087.5" y2="8" fill="transparent" shape-rendering="crispEdges" stroke="#000" stroke-width="0" stroke-linecap="square"></line><svg x="0" y="0" font-size="10" style="overflow:visible"><text transform="" x="1087.5" y="18" fill="#000" font-size="10" text-anchor="middle"><tspan x="1087.5" dy="0em">75%</tspan></text></svg></g><g class="visx-group visx-axis-tick" transform="translate(0, 0)"><line class="visx-line" x1="1450" y1="0" x2="1450" y2="8" fill="transparent" shape-rendering="crispEdges" stroke="#000" stroke-width="0" stroke-linecap="square"></line><svg x="0" y="0" font-size="10" style="overflow:visible"><text transform="" x="1450" y="18" fill="#000" font-size="10" text-anchor="middle"><tspan x="1450" dy="0em">100%</tspan></text></svg></g><line class="visx-line visx-axis-line" x1="0.5" y1="0" x2="1450.5" y2="0" fill="transparent" shape-rendering="crispEdges" stroke="#222" stroke-width="0"></line></g><g class="visx-group visx-axis visx-axis-left" transform="translate(0, 0)"><g class="visx-group visx-axis-tick" transform="translate(0, 0)"><line class="visx-line" x1="0" y1="115" x2="-8" y2="115" fill="transparent" shape-rendering="crispEdges" stroke="#222" stroke-width="0" stroke-linecap="square"></line><svg x="-30" y="0" font-size="8" style="overflow:visible"><text transform="" x="-8" y="115" fill="#000" font-size="8" text-anchor="start"><tspan x="-8" dy="0em">0%</tspan></text></svg></g><g class="visx-group visx-axis-tick" transform="translate(0, 0)"><line class="visx-line" x1="0" y1="63.88888888888889" x2="-8" y2="63.88888888888889" fill="transparent" shape-rendering="crispEdges" stroke="#222" stroke-width="0" stroke-linecap="square"></line><svg x="-30" y="0" font-size="8" style="overflow:visible"><text transform="" x="-8" y="63.88888888888889" fill="#000" font-size="8" text-anchor="start"><tspan x="-8" dy="0em">200%</tspan></text></svg></g><g class="visx-group visx-axis-tick" transform="translate(0, 0)"><line class="visx-line" x1="0" y1="12.777777777777784" x2="-8" y2="12.777777777777784" fill="transparent" shape-rendering="crispEdges" stroke="#222" stroke-width="0" stroke-linecap="square"></line><svg x="-30" y="0" font-size="8" style="overflow:visible"><text transform="" x="-8" y="12.777777777777784" fill="#000" font-size="8" text-anchor="start"><tspan x="-8" dy="0em">400%</tspan></text></svg></g><line class="visx-line visx-axis-line" x1="0" y1="115.5" x2="0" y2="0.5" fill="transparent" shape-rendering="crispEdges" stroke="#222" stroke-width="0"></line></g><rect class="visx-bar" width="1450" height="115" fill="transparent"></rect><line class="visx-line" x1="362.5" y1="28" x2="362.5" y2="115" fill="transparent" shape-rendering="crispEdges" stroke="#0062D2" stroke-width="1" pointer-events="none" stroke-dasharray="5,2"></line><svg x="0" y="0" font-size="10px" style="overflow:visible"><text transform="" x="362.5" y="20" font-size="10px" fill="#fff" stroke="#fff" stroke-width="0.8em" text-anchor="middle"><tspan x="362.5" dy="0.355em">Optimal 25%</tspan></text></svg><svg x="0" y="0" font-size="10px" style="overflow:visible"><text transform="" x="362.5" y="20" font-size="10px" fill="#62677B" text-anchor="middle"><tspan x="362.5" dy="0.355em">Optimal 25%</tspan></text></svg></g></svg>