<?xml version="1.0"?><svg xmlns="http://www.w3.org/2000/svg" xmlns:xlink= "http://www.w3.org/1999/xlink" style="background: white;" width="1500" height="300"> <g style="color: black; font-size: 13px; font-family: sans-serif; transform: translate(18px, 25px);"><g><circle r="3" cx="-6" cy="-5" style="fill: #1AD4B3" /><text>Borrow APR, variable</text></g><g style="transform: translateX(150px);"><circle r="3" cx="-6" cy="-5" style="fill: #101423" /><text>Borrow APR, stable</text></g></g><g class="visx-group" transform="translate(45, 50)"><g class="visx-group visx-rows" transform="translate(0, 0)"><line class="visx-line" x1="0" y1="155" x2="1425" y2="155" fill="transparent" shape-rendering="crispEdges" stroke="#F2F0F9" stroke-width="1" pointer-events="none"></line><line class="visx-line" x1="0" y1="120.55555555555556" x2="1425" y2="120.55555555555556" fill="transparent" shape-rendering="crispEdges" stroke="#F2F0F9" stroke-width="1" pointer-events="none"></line><line class="visx-line" x1="0" y1="86.11111111111111" x2="1425" y2="86.11111111111111" fill="transparent" shape-rendering="crispEdges" stroke="#F2F0F9" stroke-width="1" pointer-events="none"></line><line class="visx-line" x1="0" y1="51.66666666666667" x2="1425" y2="51.66666666666667" fill="transparent" shape-rendering="crispEdges" stroke="#F2F0F9" stroke-width="1" pointer-events="none"></line><line class="visx-line" x1="0" y1="17.22222222222223" x2="1425" y2="17.22222222222223" fill="transparent" shape-rendering="crispEdges" stroke="#F2F0F9" stroke-width="1" pointer-events="none"></line></g><path class="visx-linepath" d="M0,154.99999999989475C2.375,154.98245884767525,4.75,154.9649176954557,7.125,154.94737654320988C9.5,154.92983539096406,11.875,154.9122942386831,14.25,154.89475308641974C16.625,154.87721193415638,19,154.859670781893,21.375,154.84212962962962C23.75,154.82458847736626,26.125,154.80704732510287,28.5,154.7895061728395C30.875,154.77196502057615,33.25,154.75442386831276,35.625,154.7368827160494C38,154.71934156378603,40.375,154.7018004115226,42.75,154.68425925925925C45.125,154.66671810699586,47.50000000000001,154.6491769547325,49.87500000000001,154.63163580246913C52.25000000000001,154.61409465020577,54.625,154.59655349794238,57,154.57901234567902C59.375,154.56147119341563,61.75,154.54393004115224,64.125,154.52638888888887C66.5,154.5088477366255,68.875,154.49130658436212,71.25,154.47376543209876C73.625,154.4562242798354,76,154.438683127572,78.375,154.42114197530864C80.75,154.40360082304528,83.125,154.3860596707819,85.5,154.3685185185185C87.875,154.3509773662551,90.25,154.33343621399175,92.625,154.31589506172838C95,154.29835390946502,97.37500000000001,154.28081275720163,99.75000000000001,154.26327160493827C102.12500000000001,154.2457304526749,104.5,154.22818930041151,106.875,154.21064814814815C109.25,154.1931069958848,111.625,154.1755658436214,114,154.15802469135804C116.375,154.14048353909467,118.75000000000001,154.1229423868313,121.12500000000001,154.10540123456792C123.50000000000001,154.08786008230456,125.875,154.07031893004114,128.25,154.05277777777778C130.625,154.0352366255144,133,154.01769547325102,135.375,154.00015432098766C137.75,153.9826131687243,140.125,153.9650720164609,142.5,153.94753086419755C144.875,153.92998971193418,147.25,153.9124485596708,149.625,153.8949074074074C152,153.877366255144,154.375,153.85982510288065,156.75,153.8422839506173C159.125,153.82474279835392,161.5,153.80720164609056,163.875,153.78966049382717C166.25,153.77211934156378,168.625,153.7545781893004,171,153.73703703703703C173.375,153.71949588477366,175.75,153.70195473251027,178.125,153.6844135802469C180.5,153.66687242798355,182.875,153.64933127572016,185.25,153.6317901234568C187.625,153.61424897119343,190,153.59670781893004,192.375,153.57916666666668C194.75,153.5616255144033,197.12500000000003,153.54408436213993,199.50000000000003,153.52654320987654C201.875,153.50900205761317,204.25,153.49146090534978,206.62499999999997,153.47391975308642C208.99999999999997,153.45637860082306,211.375,153.4388374485597,213.75,153.4212962962963C216.125,153.40375514403294,218.5,153.38621399176952,220.875,153.36867283950616C223.25,153.3511316872428,225.625,153.3335905349794,228,153.31604938271605C230.375,153.29850823045268,232.75,153.2809670781893,235.125,153.26342592592593C237.5,153.24588477366257,239.87500000000003,153.2283436213992,242.25000000000003,153.2108024691358C244.625,153.19326131687245,247,153.17572016460903,249.37499999999997,153.15817901234567C251.74999999999997,153.14063786008228,254.125,153.12309670781892,256.5,153.10555555555555C258.875,153.0880144032922,261.25,153.07047325102883,263.625,153.05293209876544C266,153.03539094650205,268.375,153.01784979423866,270.75,153.0003086419753C273.125,152.98276748971193,275.5,152.96522633744854,277.875,152.94768518518518C280.25,152.93014403292182,282.625,152.91260288065843,285,152.89506172839506C287.375,152.8775205761317,289.75,152.8599794238683,292.125,152.84243827160492C294.5,152.82489711934153,296.875,152.80735596707817,299.25,152.7898148148148C301.625,152.77227366255144,304,152.75473251028805,306.375,152.7371913580247C308.75,152.71965020576133,311.125,152.70210905349794,313.5,152.68456790123457C315.875,152.6670267489712,318.25,152.64948559670782,320.625,152.63194444444446C323,152.6144032921811,325.375,152.59686213991773,327.75,152.57932098765434C330.125,152.56177983539095,332.5,152.54423868312756,334.875,152.5266975308642C337.25,152.50915637860084,339.625,152.49161522633744,342,152.47407407407408C344.375,152.45653292181072,346.75,152.43899176954733,349.125,152.42145061728397C351.5,152.4039094650206,353.875,152.3863683127572,356.25,152.36882716049382C358.625,152.35128600823043,361,152.33374485596707,363.375,152.3162037037037C365.75,152.29866255144034,368.125,152.28112139917698,370.5,152.2635802469136C372.875,152.2460390946502,375.25,152.2284979423868,377.625,152.21095679012345C380,152.19341563786008,382.375,152.1758744855967,384.75,152.15833333333333C387.125,152.14079218106997,389.50000000000006,152.12325102880658,391.87500000000006,152.10570987654322C394.25000000000006,152.08816872427985,396.62500000000006,152.0706275720165,399.00000000000006,152.0530864197531C401.375,152.03554526748974,403.75,152.01800411522632,406.12499999999994,152.00046296296296C408.49999999999994,151.98292181069957,410.87499999999994,151.9653806584362,413.24999999999994,151.94783950617284C415.62499999999994,151.93029835390948,418,151.91275720164612,420.375,151.89521604938273C422.75,151.87767489711936,425.125,151.86013374485594,427.5,151.84259259259258C429.875,151.82505144032922,432.25,151.80751028806583,434.625,151.78996913580247C437,151.7724279835391,439.375,151.7548868312757,441.75,151.73734567901235C444.125,151.719804526749,446.5,151.7022633744856,448.875,151.68472222222223C451.25,151.66718106995887,453.625,151.64963991769548,456,151.6320987654321C458.375,151.6145576131687,460.75,151.59701646090534,463.125,151.57947530864197C465.5,151.5619341563786,467.875,151.54439300411522,470.25,151.52685185185186C472.625,151.50931069958847,475.00000000000006,151.4917695473251,477.37500000000006,151.47422839506171C479.75000000000006,151.45668724279835,482.12500000000006,151.43914609053496,484.50000000000006,151.4216049382716C486.875,151.40406378600824,489.25,151.38652263374485,491.62499999999994,151.36898148148148C493.99999999999994,151.3514403292181,496.37499999999994,151.3338991769547,498.74999999999994,151.31635802469134C501.12499999999994,151.29881687242795,503.5,151.2812757201646,505.875,151.26373456790122C508.25,151.24619341563786,510.625,151.22865226337447,513,151.2111111111111C515.375,151.19356995884775,517.75,151.17602880658438,520.125,151.158487654321C522.5,151.1409465020576,524.875,151.1234053497942,527.25,151.10586419753085C529.625,151.0883230452675,532,151.07078189300412,534.375,151.05324074074076C536.75,151.0356995884774,539.125,151.01815843621398,541.5,151.00061728395062C543.875,150.98307613168726,546.25,150.96553497942386,548.625,150.9479938271605C551,150.93045267489714,553.375,150.91291152263375,555.75,150.8953703703704C558.125,150.87782921810702,560.5,150.86028806584363,562.875,150.84274691358024C565.25,150.82520576131685,567.625,150.8076646090535,570,150.79012345679013C572.375,150.77258230452676,574.75,150.7550411522634,577.125,150.7375C579.5,150.71995884773662,581.875,150.70241769547323,584.25,150.68487654320987C586.625,150.6673353909465,589,150.6497942386831,591.375,150.63225308641975C593.75,150.6147119341564,596.125,150.597170781893,598.5,150.57962962962964C600.875,150.56208847736627,603.25,150.54454732510288,605.625,150.52700617283952C608,150.50946502057616,610.375,150.49192386831277,612.75,150.47438271604938C615.125,150.45684156378599,617.5,150.43930041152262,619.875,150.42175925925926C622.25,150.4042181069959,624.625,150.38667695473254,627,150.36913580246915C629.375,150.35159465020575,631.75,150.33405349794236,634.125,150.316512345679C636.5,150.29897119341564,638.875,150.28143004115225,641.25,150.26388888888889C643.625,150.24634773662552,646,150.22880658436213,648.375,150.21126543209877C650.75,150.1937242798354,653.125,150.17618312757202,655.5,150.15864197530865C657.875,150.1411008230453,660.25,150.1235596707819,662.625,150.1060185185185C665,150.08847736625512,667.375,150.07093621399176,669.75,150.0533950617284C672.125,150.03585390946503,674.5,150.01831275720167,676.875,150.00077160493828C679.25,149.9832304526749,681.625,149.9656893004115,684,149.94814814814814C686.375,149.93060699588477,688.75,149.91306584362138,691.125,149.89552469135802C693.5,149.87798353909466,695.875,149.86044238683127,698.25,149.8429012345679C700.625,149.82536008230454,703,149.80781893004115,705.375,149.79027777777776C707.75,149.77273662551437,710.125,149.755195473251,712.5,149.73765432098764C714.875,149.72011316872428,717.25,149.7025720164609,719.625,149.68503086419753C722,149.66748971193417,724.375,149.6499485596708,726.75,149.6324074074074C729.125,149.61486625514402,731.5,149.59732510288063,733.875,149.57978395061727C736.25,149.5622427983539,738.625,149.54470164609052,741,149.52716049382715C743.375,149.5096193415638,745.75,149.4920781893004,748.125,149.47453703703704C750.5,149.45699588477368,752.875,149.43945473251028,755.25,149.42191358024692C757.625,149.40437242798356,760,149.38683127572017,762.375,149.3692901234568C764.75,149.35174897119344,767.125,149.33420781893003,769.5,149.31666666666666C771.875,149.29912551440327,774.2500000000001,149.2815843621399,776.6250000000001,149.26404320987655C779.0000000000001,149.24650205761318,781.3750000000001,149.22896090534982,783.7500000000001,149.21141975308643C786.1250000000001,149.19387860082304,788.5000000000001,149.17633744855965,790.8750000000001,149.1587962962963C793.2500000000001,149.14125514403293,795.6250000000001,149.12371399176953,798.0000000000001,149.10617283950617C800.375,149.0886316872428,802.75,149.07109053497942,805.1249999999999,149.05354938271606C807.4999999999999,149.0360082304527,809.8749999999999,149.0184670781893,812.2499999999999,149.00092592592594C814.6249999999999,148.98338477366258,816.9999999999999,148.9658436213992,819.3749999999999,148.9483024691358C821.7499999999999,148.9307613168724,824.1249999999999,148.91322016460904,826.4999999999999,148.89567901234568C828.8749999999999,148.87813786008232,831.25,148.86059670781896,833.625,148.84305555555557C836,148.8255144032922,838.375,148.80797325102878,840.75,148.79043209876542C843.125,148.77289094650206,845.5,148.75534979423867,847.875,148.7378086419753C850.25,148.72026748971194,852.625,148.70272633744855,855,148.6851851851852C857.375,148.66764403292183,859.75,148.65010288065844,862.125,148.63256172839505C864.5,148.61502057613166,866.875,148.5974794238683,869.25,148.57993827160493C871.625,148.56239711934157,874,148.54485596707818,876.375,148.52731481481482C878.75,148.50977366255145,881.125,148.4922325102881,883.5,148.4746913580247C885.875,148.4571502057613,888.25,148.43960905349792,890.625,148.42206790123456C893,148.4045267489712,895.375,148.3869855967078,897.75,148.36944444444444C900.125,148.35190329218108,902.5,148.3343621399177,904.875,148.31682098765432C907.25,148.29927983539096,909.625,148.28173868312757,912,148.26419753086418C914.375,148.2466563786008,916.75,148.22911522633743,919.125,148.21157407407406C921.5,148.1940329218107,923.875,148.1764917695473,926.25,148.15895061728395C928.625,148.1414094650206,931,148.12386831275722,933.375,148.10632716049383C935.75,148.08878600823044,938.125,148.07124485596705,940.5,148.0537037037037C942.875,148.03616255144033,945.25,148.01862139917694,947.625,148.00108024691357C950,147.9835390946502,952.3750000000001,147.96599794238682,954.7500000000001,147.94845679012346C957.1250000000001,147.9309156378601,959.5000000000001,147.9133744855967,961.8750000000001,147.89583333333334C964.2500000000001,147.87829218106998,966.6250000000001,147.8607510288066,969.0000000000001,147.84320987654323C971.3750000000001,147.82566872427986,973.7500000000001,147.80812757201647,976.1250000000001,147.79058641975308C978.5,147.77304526748972,980.875,147.75550411522633,983.2499999999999,147.73796296296297C985.6249999999999,147.7204218106996,987.9999999999999,147.70288065843624,990.3749999999999,147.68533950617285C992.7499999999999,147.66779835390946,995.1249999999999,147.65025720164607,997.4999999999999,147.6327160493827C999.8749999999999,147.61517489711935,1002.2499999999999,147.59763374485595,1004.6249999999999,147.5800925925926C1006.9999999999999,147.56255144032923,1009.375,147.54501028806584,1011.75,147.52746913580248C1014.125,147.50992798353911,1016.5,147.49238683127572,1018.875,147.47484567901236C1021.25,147.457304526749,1023.625,147.4397633744856,1026,147.42222222222222C1028.375,147.40468106995883,1030.75,147.38713991769546,1033.125,147.3695987654321C1035.5,147.35205761316874,1037.875,147.33451646090538,1040.25,147.316975308642C1042.625,147.2994341563786,1045,147.2818930041152,1047.375,147.26435185185184C1049.75,147.24681069958848,1052.125,147.2292695473251,1054.5,147.21172839506173C1056.875,147.19418724279836,1059.25,147.17664609053497,1061.625,147.1591049382716C1064,147.14156378600825,1066.375,147.12402263374486,1068.75,147.10648148148147C1071.125,147.08894032921808,1073.5,147.0713991769547,1075.875,147.05385802469135C1078.25,147.036316872428,1080.625,147.0187757201646,1083,147.00123456790124C1085.375,146.98369341563787,1087.75,146.9661522633745,1090.125,146.94861111111112C1092.5,146.93106995884773,1094.875,146.91352880658434,1097.25,146.89598765432098C1099.625,146.8784465020576,1102,146.86090534979422,1104.375,146.84336419753086C1106.75,146.8258230452675,1109.125,146.8082818930041,1111.5,146.79074074074074C1113.875,146.77319958847738,1116.25,146.755658436214,1118.625,146.7381172839506C1121,146.7205761316872,1123.375,146.70303497942385,1125.75,146.68549382716049C1128.125,146.66795267489712,1130.5,146.65041152263373,1132.875,146.63287037037037C1135.25,146.615329218107,1137.625,146.59778806584364,1140,146.58024691358025C1142.375,146.56270576131686,1144.75,146.54516460905347,1147.125,146.5276234567901C1149.5,146.51008230452675,1151.875,146.49254115226336,1154.25,146.475C1156.625,146.45745884773663,1159,146.43991769547324,1161.375,146.42237654320988C1163.75,146.40483539094652,1166.125,146.38729423868313,1168.5,146.36975308641976C1170.875,146.3522119341564,1173.25,146.334670781893,1175.625,146.31712962962965C1178,146.29958847736629,1180.375,146.2820473251029,1182.75,146.2645061728395C1185.125,146.2469650205761,1187.5,146.22942386831275,1189.875,146.2118827160494C1192.25,146.19434156378603,1194.625,146.17680041152266,1197,146.15925925925927C1199.375,146.14171810699588,1201.75,146.1241769547325,1204.125,146.10663580246913C1206.5,146.08909465020577,1208.875,146.07155349794238,1211.25,146.054012345679C1213.625,146.03647119341565,1216,146.01893004115226,1218.375,146.0013888888889C1220.75,145.98384773662553,1223.125,145.96630658436214,1225.5,145.94876543209878C1227.875,145.93122427983542,1230.25,145.91368312757203,1232.625,145.89614197530864C1235,145.87860082304525,1237.375,145.86105967078188,1239.75,145.84351851851852C1242.125,145.82597736625516,1244.5,145.8084362139918,1246.875,145.7908950617284C1249.25,145.77335390946502,1251.625,145.75581275720162,1254,145.73827160493826C1256.375,145.7207304526749,1258.75,145.7031893004115,1261.125,145.68564814814815C1263.5,145.66810699588478,1265.875,145.6505658436214,1268.25,145.63302469135803C1270.625,145.61548353909467,1273,145.59794238683128,1275.375,145.5804012345679C1277.75,145.5628600823045,1280.125,145.56286008230452,1282.5,145.52777777777777C1284.875,145.49269547325102,1287.25,141.22222222222223,1289.625,139.06944444444446C1292,136.91666666666669,1294.375,134.76388888888889,1296.75,132.61111111111111C1299.125,130.45833333333334,1301.5,128.30555555555554,1303.875,126.15277777777777C1306.25,124,1308.625,121.84722222222221,1311,119.69444444444444C1313.375,117.54166666666667,1315.75,115.38888888888891,1318.125,113.23611111111113C1320.5,111.08333333333334,1322.875,108.93055555555556,1325.25,106.77777777777777C1327.625,104.62499999999999,1330,102.4722222222222,1332.375,100.31944444444443C1334.75,98.16666666666666,1337.125,96.0138888888889,1339.5,93.86111111111113C1341.875,91.70833333333336,1344.25,89.55555555555556,1346.625,87.40277777777777C1349,85.24999999999999,1351.375,83.0972222222222,1353.75,80.94444444444443C1356.125,78.79166666666666,1358.5,76.63888888888887,1360.875,74.4861111111111C1363.25,72.33333333333333,1365.625,70.18055555555554,1368,68.02777777777777C1370.375,65.875,1372.75,63.72222222222223,1375.125,61.56944444444445C1377.5,59.41666666666667,1379.875,57.2638888888889,1382.25,55.11111111111112C1384.625,52.95833333333334,1387,50.805555555555536,1389.375,48.65277777777776C1391.75,46.49999999999998,1394.125,44.34722222222223,1396.5,42.19444444444445C1398.875,40.04166666666667,1401.25,37.888888888888886,1403.625,35.73611111111111C1406,33.58333333333333,1408.375,31.430555555555554,1410.75,29.27777777777778C1413.125,27.125000000000004,1415.5,24.97222222222223,1417.875,22.81944444444445C1420.25,20.66666666666667,1422.625,18.513888888888886,1425,16.361111111111104" fill="transparent" stroke-linecap="round" stroke="#1AD4B3" stroke-width="2"></path><g class="visx-group visx-axis visx-axis-bottom" transform="translate(0, 155)"><g class="visx-group visx-axis-tick" transform="translate(0, 0)"><line class="visx-line" x1="0" y1="0" x2="0" y2="8" fill="transparent" shape-rendering="crispEdges" stroke="#F2F0F9" stroke-width="1" stroke-linecap="square"></line><svg x="0" y="0" font-size="11" style="overflow:visible"><text transform="" x="0" y="19" fill="#1B2030" font-size="11" text-anchor="middle"><tspan x="0" dy="0em">0%</tspan></text></svg></g><g class="visx-group visx-axis-tick" transform="translate(0, 0)"><line class="visx-line" x1="356.25" y1="0" x2="356.25" y2="8" fill="transparent" shape-rendering="crispEdges" stroke="#F2F0F9" stroke-width="1" stroke-linecap="square"></line><svg x="0" y="0" font-size="11" style="overflow:visible"><text transform="" x="356.25" y="19" fill="#1B2030" font-size="11" text-anchor="middle"><tspan x="356.25" dy="0em">25%</tspan></text></svg></g><g class="visx-group visx-axis-tick" transform="translate(0, 0)"><line class="visx-line" x1="712.5" y1="0" x2="712.5" y2="8" fill="transparent" shape-rendering="crispEdges" stroke="#F2F0F9" stroke-width="1" stroke-linecap="square"></line><svg x="0" y="0" font-size="11" style="overflow:visible"><text transform="" x="712.5" y="19" fill="#1B2030" font-size="11" text-anchor="middle"><tspan x="712.5" dy="0em">50%</tspan></text></svg></g><g class="visx-group visx-axis-tick" transform="translate(0, 0)"><line class="visx-line" x1="1068.75" y1="0" x2="1068.75" y2="8" fill="transparent" shape-rendering="crispEdges" stroke="#F2F0F9" stroke-width="1" stroke-linecap="square"></line><svg x="0" y="0" font-size="11" style="overflow:visible"><text transform="" x="1068.75" y="19" fill="#1B2030" font-size="11" text-anchor="middle"><tspan x="1068.75" dy="0em">75%</tspan></text></svg></g><g class="visx-group visx-axis-tick" transform="translate(0, 0)"><line class="visx-line" x1="1425" y1="0" x2="1425" y2="8" fill="transparent" shape-rendering="crispEdges" stroke="#F2F0F9" stroke-width="1" stroke-linecap="square"></line><svg x="0" y="0" font-size="11" style="overflow:visible"><text transform="" x="1425" y="19" fill="#1B2030" font-size="11" text-anchor="middle"><tspan x="1425" dy="0em">100%</tspan></text></svg></g></g><g class="visx-group visx-axis visx-axis-left" transform="translate(0, 0)"><g class="visx-group visx-axis-tick" transform="translate(0, 0)"><line class="visx-line" x1="0" y1="155" x2="-8" y2="155" fill="transparent" shape-rendering="crispEdges" stroke="#F2F0F9" stroke-width="1" stroke-linecap="square"></line><svg x="-30" y="0" font-size="11" style="overflow:visible"><text transform="" x="-8" y="155" fill="#1B2030" font-size="11" text-anchor="start"><tspan x="-8" dy="0em">0%</tspan></text></svg></g><g class="visx-group visx-axis-tick" transform="translate(0, 0)"><line class="visx-line" x1="0" y1="120.55555555555556" x2="-8" y2="120.55555555555556" fill="transparent" shape-rendering="crispEdges" stroke="#F2F0F9" stroke-width="1" stroke-linecap="square"></line><svg x="-30" y="0" font-size="11" style="overflow:visible"><text transform="" x="-8" y="120.55555555555556" fill="#1B2030" font-size="11" text-anchor="start"><tspan x="-8" dy="0em">20%</tspan></text></svg></g><g class="visx-group visx-axis-tick" transform="translate(0, 0)"><line class="visx-line" x1="0" y1="86.11111111111111" x2="-8" y2="86.11111111111111" fill="transparent" shape-rendering="crispEdges" stroke="#F2F0F9" stroke-width="1" stroke-linecap="square"></line><svg x="-30" y="0" font-size="11" style="overflow:visible"><text transform="" x="-8" y="86.11111111111111" fill="#1B2030" font-size="11" text-anchor="start"><tspan x="-8" dy="0em">40%</tspan></text></svg></g><g class="visx-group visx-axis-tick" transform="translate(0, 0)"><line class="visx-line" x1="0" y1="51.66666666666667" x2="-8" y2="51.66666666666667" fill="transparent" shape-rendering="crispEdges" stroke="#F2F0F9" stroke-width="1" stroke-linecap="square"></line><svg x="-30" y="0" font-size="11" style="overflow:visible"><text transform="" x="-8" y="51.66666666666667" fill="#1B2030" font-size="11" text-anchor="start"><tspan x="-8" dy="0em">60%</tspan></text></svg></g><g class="visx-group visx-axis-tick" transform="translate(0, 0)"><line class="visx-line" x1="0" y1="17.22222222222223" x2="-8" y2="17.22222222222223" fill="transparent" shape-rendering="crispEdges" stroke="#F2F0F9" stroke-width="1" stroke-linecap="square"></line><svg x="-30" y="0" font-size="11" style="overflow:visible"><text transform="" x="-8" y="17.22222222222223" fill="#1B2030" font-size="11" text-anchor="start"><tspan x="-8" dy="0em">80%</tspan></text></svg></g><line class="visx-line visx-axis-line" x1="0" y1="155.5" x2="0" y2="0.5" fill="transparent" shape-rendering="crispEdges" stroke="#F2F0F9" stroke-width="1"></line></g><rect class="visx-bar" width="1425" height="155" fill="transparent"></rect><line class="visx-line" x1="1282.5" y1="58" x2="1282.5" y2="155" fill="transparent" shape-rendering="crispEdges" stroke="#CDC8E1" stroke-width="1" pointer-events="none" stroke-dasharray="5"></line><svg x="0" y="0" font-size="11px" style="overflow:visible"><text transform="" x="1282.5" y="50" font-size="11px" fill="#555069" stroke="#FFFFFF" stroke-width="1px" text-anchor="middle"><tspan x="1282.5" dy="0.355em">Optimal utilization 90%</tspan></text></svg><svg x="0" y="0" font-size="11px" style="overflow:visible"><text transform="" x="1282.5" y="50" font-size="11px" fill="#CDC8E1" text-anchor="middle"><tspan x="1282.5" dy="0.355em">Optimal utilization 90%</tspan></text></svg></g></svg>