<?xml version="1.0"?><svg xmlns="http://www.w3.org/2000/svg" xmlns:xlink= "http://www.w3.org/1999/xlink" style="background: white;" width="1500" height="185"> <g style="color: black; font-size: 13px; font-family: sans-serif; transform: translate(18px, 25px);"><g><circle r="3" cx="-6" cy="-5" style="fill: #B6509E" /><text>Borrow APR, variable</text></g><g style="transform: translateX(150px);"><circle r="3" cx="-6" cy="-5" style="fill: rgb(231, 198, 223)" /><text>Borrow APR, stable</text></g><g style="transform: translateX(290px);"><circle r="3" cx="-6" cy="-5" style="fill: rgb(0, 98, 210)" /><text>Utilization Rate</text></g></g><g class="visx-group" transform="translate(40, 50)"><g class="visx-group visx-rows" transform="translate(0, 0)"><line class="visx-line" x1="0" y1="115" x2="1450" y2="115" fill="transparent" shape-rendering="crispEdges" stroke="#000" stroke-width="1" stroke-dasharray="3,3" pointer-events="none"></line><line class="visx-line" x1="0" y1="86.25" x2="1450" y2="86.25" fill="transparent" shape-rendering="crispEdges" stroke="#000" stroke-width="1" stroke-dasharray="3,3" pointer-events="none"></line><line class="visx-line" x1="0" y1="57.5" x2="1450" y2="57.5" fill="transparent" shape-rendering="crispEdges" stroke="#000" stroke-width="1" stroke-dasharray="3,3" pointer-events="none"></line><line class="visx-line" x1="0" y1="28.75" x2="1450" y2="28.75" fill="transparent" shape-rendering="crispEdges" stroke="#000" stroke-width="1" stroke-dasharray="3,3" pointer-events="none"></line><line class="visx-line" x1="0" y1="0" x2="1450" y2="0" fill="transparent" shape-rendering="crispEdges" stroke="#000" stroke-width="1" stroke-dasharray="3,3" pointer-events="none"></line></g><path class="visx-linepath" d="M0,114.99999999990416C2.4166666666666665,114.98402777772188,4.833333333333334,114.96805555553958,7.25,114.95208333333333C9.666666666666666,114.93611111112709,12.083333333333334,114.92013888888889,14.5,114.90416666666667C16.916666666666668,114.88819444444445,19.333333333333332,114.87222222222222,21.75,114.85625C24.166666666666668,114.84027777777779,26.583333333333332,114.82430555555554,29,114.80833333333332C31.416666666666668,114.7923611111111,33.833333333333336,114.77638888888889,36.25,114.76041666666667C38.666666666666664,114.74444444444445,41.083333333333336,114.72847222222222,43.5,114.7125C45.91666666666667,114.69652777777777,48.333333333333336,114.68055555555554,50.75000000000001,114.66458333333333C53.16666666666667,114.64861111111111,55.583333333333336,114.63263888888889,58,114.61666666666667C60.416666666666664,114.60069444444446,62.833333333333336,114.58472222222221,65.25,114.56875C67.66666666666667,114.55277777777778,70.08333333333333,114.53680555555555,72.5,114.52083333333333C74.91666666666667,114.50486111111111,77.33333333333333,114.48888888888888,79.75,114.47291666666666C82.16666666666667,114.45694444444445,84.58333333333333,114.44097222222221,87,114.425C89.41666666666667,114.40902777777778,91.83333333333333,114.39305555555555,94.25,114.37708333333333C96.66666666666667,114.36111111111111,99.08333333333334,114.34513888888888,101.50000000000001,114.32916666666667C103.91666666666667,114.31319444444445,106.33333333333334,114.29722222222222,108.75,114.28125C111.16666666666667,114.26527777777778,113.58333333333333,114.24930555555555,116,114.23333333333333C118.41666666666667,114.21736111111112,120.83333333333334,114.20138888888889,123.25000000000001,114.18541666666667C125.66666666666667,114.16944444444445,128.08333333333334,114.15347222222222,130.5,114.1375C132.91666666666666,114.12152777777779,135.33333333333334,114.10555555555555,137.75,114.08958333333334C140.16666666666666,114.07361111111112,142.58333333333334,114.05763888888889,145,114.04166666666667C147.41666666666666,114.02569444444445,149.83333333333334,114.00972222222221,152.25,113.99374999999999C154.66666666666666,113.97777777777777,157.08333333333334,113.96180555555556,159.5,113.94583333333334C161.91666666666666,113.92986111111112,164.33333333333334,113.91388888888889,166.75,113.89791666666667C169.16666666666666,113.88194444444446,171.58333333333334,113.86597222222221,174,113.85C176.41666666666666,113.83402777777778,178.83333333333334,113.81805555555556,181.25,113.80208333333334C183.66666666666666,113.78611111111113,186.08333333333334,113.77013888888888,188.5,113.75416666666666C190.91666666666666,113.73819444444445,193.33333333333334,113.72222222222221,195.75,113.70625C198.16666666666669,113.69027777777778,200.58333333333334,113.67430555555555,203.00000000000003,113.65833333333333C205.41666666666669,113.64236111111111,207.83333333333331,113.62638888888888,210.24999999999997,113.61041666666667C212.66666666666666,113.59444444444445,215.08333333333331,113.57847222222222,217.5,113.5625C219.91666666666666,113.54652777777778,222.33333333333334,113.53055555555555,224.75,113.51458333333333C227.16666666666666,113.49861111111112,229.58333333333334,113.48263888888889,232,113.46666666666667C234.41666666666666,113.45069444444445,236.83333333333334,113.4347222222222,239.25,113.41874999999999C241.66666666666669,113.40277777777777,244.08333333333334,113.38680555555555,246.50000000000003,113.37083333333334C248.91666666666669,113.35486111111112,251.33333333333331,113.33888888888889,253.74999999999997,113.32291666666667C256.16666666666663,113.30694444444444,258.5833333333333,113.29097222222221,261,113.27499999999999C263.4166666666667,113.25902777777777,265.8333333333333,113.24305555555556,268.25,113.22708333333334C270.6666666666667,113.21111111111112,273.0833333333333,113.19513888888888,275.5,113.17916666666666C277.9166666666667,113.16319444444444,280.3333333333333,113.14722222222223,282.75,113.13125000000001C285.1666666666667,113.11527777777779,287.5833333333333,113.09930555555555,290,113.08333333333333C292.4166666666667,113.06736111111111,294.8333333333333,113.05138888888888,297.25,113.03541666666666C299.6666666666667,113.01944444444445,302.0833333333333,113.00347222222223,304.5,112.98750000000001C306.9166666666667,112.9715277777778,309.3333333333333,112.95555555555555,311.75,112.93958333333333C314.1666666666667,112.92361111111111,316.5833333333333,112.90763888888888,319,112.89166666666667C321.4166666666667,112.87569444444445,323.8333333333333,112.85972222222222,326.25,112.84375C328.6666666666667,112.82777777777778,331.0833333333333,112.81180555555555,333.5,112.79583333333333C335.9166666666667,112.77986111111112,338.3333333333333,112.76388888888889,340.75,112.74791666666667C343.1666666666667,112.73194444444445,345.5833333333333,112.71597222222222,348,112.7C350.4166666666667,112.68402777777779,352.8333333333333,112.66805555555555,355.25,112.65208333333334C357.6666666666667,112.63611111111112,360.0833333333333,112.62013888888887,362.5,112.60416666666666C364.9166666666667,112.58819444444444,367.3333333333333,112.57222222222222,369.75,112.55625C372.1666666666667,112.54027777777779,374.5833333333333,112.52430555555556,377,112.50833333333334C379.4166666666667,112.49236111111112,381.8333333333333,112.47638888888888,384.25,112.46041666666666C386.6666666666667,112.44444444444444,389.0833333333333,112.42847222222223,391.5,112.41250000000001C393.9166666666667,112.39652777777779,396.33333333333337,112.38055555555556,398.75000000000006,112.36458333333333C401.16666666666674,112.34861111111111,403.58333333333337,112.33263888888888,406.00000000000006,112.31666666666666C408.4166666666667,112.30069444444445,410.8333333333333,112.28472222222221,413.24999999999994,112.26875C415.66666666666663,112.25277777777778,418.08333333333326,112.23680555555555,420.49999999999994,112.22083333333333C422.91666666666663,112.20486111111111,425.3333333333333,112.18888888888888,427.75,112.17291666666667C430.1666666666667,112.15694444444445,432.5833333333333,112.14097222222222,435,112.125C437.4166666666667,112.10902777777778,439.8333333333333,112.09305555555555,442.25,112.07708333333333C444.6666666666667,112.06111111111112,447.0833333333333,112.04513888888889,449.5,112.02916666666667C451.9166666666667,112.01319444444445,454.3333333333333,111.99722222222222,456.75,111.98125C459.1666666666667,111.96527777777779,461.5833333333333,111.94930555555555,464,111.93333333333334C466.4166666666667,111.91736111111112,468.8333333333333,111.90138888888889,471.25,111.88541666666667C473.6666666666667,111.86944444444445,476.0833333333333,111.85347222222222,478.5,111.8375C480.9166666666667,111.82152777777777,483.33333333333337,111.80555555555554,485.75000000000006,111.78958333333333C488.16666666666674,111.77361111111111,490.58333333333337,111.75763888888889,493.00000000000006,111.74166666666667C495.4166666666667,111.72569444444446,497.8333333333333,111.70972222222221,500.24999999999994,111.69375C502.66666666666663,111.67777777777776,505.08333333333326,111.66180555555555,507.49999999999994,111.64583333333333C509.91666666666663,111.62986111111111,512.3333333333333,111.6138888888889,514.75,111.59791666666668C517.1666666666666,111.58194444444446,519.5833333333334,111.56597222222221,522,111.55C524.4166666666666,111.53402777777778,526.8333333333334,111.51805555555555,529.25,111.50208333333333C531.6666666666666,111.48611111111111,534.0833333333334,111.47013888888888,536.5,111.45416666666667C538.9166666666666,111.43819444444445,541.3333333333334,111.42222222222222,543.75,111.40625C546.1666666666666,111.39027777777778,548.5833333333334,111.37430555555555,551,111.35833333333333C553.4166666666666,111.34236111111112,555.8333333333334,111.32638888888889,558.25,111.31041666666667C560.6666666666666,111.29444444444445,563.0833333333334,111.27847222222222,565.5,111.2625C567.9166666666666,111.24652777777779,570.3333333333334,111.23055555555554,572.75,111.21458333333332C575.1666666666666,111.1986111111111,577.5833333333334,111.18263888888889,580,111.16666666666667C582.4166666666666,111.15069444444445,584.8333333333334,111.13472222222222,587.25,111.11875C589.6666666666666,111.10277777777779,592.0833333333334,111.08680555555554,594.5,111.07083333333333C596.9166666666666,111.05486111111111,599.3333333333334,111.03888888888889,601.75,111.02291666666667C604.1666666666666,111.00694444444446,606.5833333333334,110.99097222222221,609,110.975C611.4166666666666,110.95902777777778,613.8333333333334,110.94305555555555,616.25,110.92708333333333C618.6666666666666,110.91111111111111,621.0833333333334,110.89513888888888,623.5,110.87916666666666C625.9166666666666,110.86319444444445,628.3333333333334,110.84722222222221,630.75,110.83125C633.1666666666666,110.81527777777778,635.5833333333334,110.79930555555555,638,110.78333333333333C640.4166666666666,110.76736111111111,642.8333333333334,110.75138888888888,645.25,110.73541666666667C647.6666666666666,110.71944444444445,650.0833333333334,110.70347222222222,652.5,110.6875C654.9166666666666,110.67152777777778,657.3333333333334,110.65555555555555,659.75,110.63958333333333C662.1666666666666,110.62361111111112,664.5833333333334,110.60763888888889,667,110.59166666666667C669.4166666666666,110.57569444444445,671.8333333333334,110.55972222222222,674.25,110.54375C676.6666666666666,110.52777777777779,679.0833333333334,110.51180555555555,681.5,110.49583333333334C683.9166666666666,110.47986111111112,686.3333333333334,110.46388888888889,688.75,110.44791666666667C691.1666666666666,110.43194444444445,693.5833333333334,110.41597222222221,696,110.39999999999999C698.4166666666666,110.38402777777777,700.8333333333334,110.36805555555556,703.25,110.35208333333334C705.6666666666666,110.33611111111112,708.0833333333334,110.32013888888889,710.5,110.30416666666667C712.9166666666666,110.28819444444446,715.3333333333334,110.27222222222221,717.75,110.25625C720.1666666666666,110.24027777777778,722.5833333333334,110.22430555555556,725,110.20833333333334C727.4166666666666,110.19236111111113,729.8333333333334,110.17638888888888,732.25,110.16041666666666C734.6666666666666,110.14444444444445,737.0833333333334,110.12847222222221,739.5,110.1125C741.9166666666666,110.09652777777778,744.3333333333334,110.08055555555555,746.75,110.06458333333333C749.1666666666666,110.04861111111111,751.5833333333334,110.03263888888888,754,110.01666666666667C756.4166666666666,110.00069444444445,758.8333333333334,109.98472222222222,761.25,109.96875C763.6666666666666,109.95277777777778,766.0833333333334,109.93680555555555,768.5,109.92083333333333C770.9166666666666,109.90486111111112,773.3333333333334,109.88888888888889,775.75,109.87291666666667C778.1666666666666,109.85694444444445,780.5833333333334,109.8409722222222,783,109.82499999999999C785.4166666666667,109.80902777777777,787.8333333333334,109.79305555555555,790.2500000000001,109.77708333333334C792.6666666666667,109.76111111111112,795.0833333333335,109.74513888888889,797.5000000000001,109.72916666666667C799.9166666666667,109.71319444444445,802.3333333333335,109.69722222222221,804.7500000000001,109.68124999999999C807.1666666666667,109.66527777777777,809.5833333333335,109.64930555555556,812.0000000000001,109.63333333333334C814.4166666666667,109.61736111111112,816.8333333333333,109.60138888888888,819.2499999999999,109.58541666666666C821.6666666666665,109.56944444444444,824.0833333333333,109.55347222222223,826.4999999999999,109.53750000000001C828.9166666666665,109.52152777777779,831.3333333333333,109.50555555555556,833.7499999999999,109.48958333333334C836.1666666666665,109.47361111111113,838.5833333333333,109.45763888888888,840.9999999999999,109.44166666666666C843.4166666666666,109.42569444444445,845.8333333333333,109.40972222222223,848.25,109.39375000000001C850.6666666666666,109.3777777777778,853.0833333333334,109.36180555555555,855.5,109.34583333333333C857.9166666666666,109.32986111111111,860.3333333333334,109.31388888888888,862.75,109.29791666666667C865.1666666666666,109.28194444444445,867.5833333333334,109.26597222222222,870,109.25C872.4166666666666,109.23402777777778,874.8333333333334,109.21805555555555,877.25,109.20208333333333C879.6666666666666,109.18611111111112,882.0833333333334,109.17013888888889,884.5,109.15416666666667C886.9166666666666,109.13819444444445,889.3333333333334,109.12222222222222,891.75,109.10625C894.1666666666666,109.09027777777779,896.5833333333334,109.07430555555555,899,109.05833333333334C901.4166666666666,109.04236111111112,903.8333333333334,109.02638888888887,906.25,109.01041666666666C908.6666666666666,108.99444444444444,911.0833333333334,108.97847222222222,913.5,108.9625C915.9166666666666,108.94652777777779,918.3333333333334,108.93055555555554,920.75,108.91458333333333C923.1666666666666,108.89861111111111,925.5833333333334,108.88263888888888,928,108.86666666666666C930.4166666666666,108.85069444444444,932.8333333333334,108.83472222222223,935.25,108.81875000000001C937.6666666666666,108.80277777777779,940.0833333333334,108.78680555555555,942.5,108.77083333333333C944.9166666666666,108.75486111111111,947.3333333333334,108.73888888888888,949.75,108.72291666666666C952.1666666666666,108.70694444444445,954.5833333333334,108.69097222222223,957,108.67500000000001C959.4166666666666,108.6590277777778,961.8333333333334,108.64305555555555,964.25,108.62708333333333C966.6666666666667,108.6111111111111,969.0833333333334,108.59513888888888,971.5000000000001,108.57916666666667C973.9166666666667,108.56319444444445,976.3333333333335,108.54722222222222,978.7500000000001,108.53125C981.1666666666667,108.51527777777778,983.5833333333335,108.49930555555555,986.0000000000001,108.48333333333333C988.4166666666667,108.46736111111112,990.8333333333335,108.45138888888889,993.2500000000001,108.43541666666667C995.6666666666667,108.41944444444445,998.0833333333333,108.40347222222222,1000.4999999999999,108.3875C1002.9166666666665,108.37152777777779,1005.3333333333333,108.35555555555555,1007.7499999999999,108.33958333333334C1010.1666666666665,108.32361111111112,1012.5833333333333,108.30763888888889,1014.9999999999999,108.29166666666667C1017.4166666666665,108.27569444444445,1019.8333333333333,108.25972222222222,1022.2499999999999,108.24375C1024.6666666666665,108.22777777777777,1027.0833333333333,108.21180555555554,1029.5,108.19583333333333C1031.9166666666667,108.17986111111111,1034.3333333333333,108.16388888888889,1036.75,108.14791666666667C1039.1666666666667,108.13194444444446,1041.5833333333333,108.11597222222221,1044,108.1C1046.4166666666667,108.08402777777778,1048.8333333333333,108.06805555555555,1051.25,108.05208333333333C1053.6666666666667,108.03611111111111,1056.0833333333333,108.0201388888889,1058.5,108.00416666666668C1060.9166666666667,107.98819444444446,1063.3333333333333,107.97222222222221,1065.75,107.95625C1068.1666666666667,107.94027777777778,1070.5833333333333,107.92430555555555,1073,107.90833333333333C1075.4166666666667,107.89236111111111,1077.8333333333333,107.87638888888888,1080.25,107.86041666666667C1082.6666666666667,107.84444444444445,1085.0833333333333,107.82847222222222,1087.5,107.8125C1089.9166666666667,107.79652777777778,1092.3333333333333,107.78055555555555,1094.75,107.76458333333333C1097.1666666666667,107.74861111111112,1099.5833333333333,107.73263888888889,1102,107.71666666666667C1104.4166666666667,107.70069444444445,1106.8333333333333,107.68472222222222,1109.25,107.66875C1111.6666666666667,107.65277777777779,1114.0833333333333,107.63680555555554,1116.5,107.62083333333332C1118.9166666666667,107.6048611111111,1121.3333333333333,107.58888888888889,1123.75,107.57291666666667C1126.1666666666667,107.55694444444445,1128.5833333333333,107.54097222222222,1131,107.525C1133.4166666666667,107.50902777777779,1135.8333333333333,107.49305555555554,1138.25,107.47708333333333C1140.6666666666667,107.46111111111111,1143.0833333333333,107.44513888888889,1145.5,107.42916666666667C1147.9166666666667,107.41319444444446,1150.3333333333333,107.39722222222221,1152.75,107.38125C1155.1666666666667,107.36527777777778,1157.5833333333333,107.34930555555555,1160,107.33333333333333C1162.4166666666667,107.31736111111111,1164.8333333333333,107.30138888888888,1167.25,107.28541666666666C1169.6666666666667,107.26944444444445,1172.0833333333333,107.25347222222221,1174.5,107.2375C1176.9166666666667,107.22152777777778,1179.3333333333333,107.20555555555555,1181.75,107.18958333333333C1184.1666666666667,107.17361111111111,1186.5833333333333,107.15763888888888,1189,107.14166666666667C1191.4166666666667,107.12569444444445,1193.8333333333333,107.10972222222222,1196.25,107.09375C1198.6666666666667,107.07777777777778,1201.0833333333333,107.06180555555555,1203.5,107.04583333333333C1205.9166666666667,107.02986111111112,1208.3333333333333,107.01388888888889,1210.75,106.99791666666667C1213.1666666666667,106.98194444444445,1215.5833333333333,106.9659722222222,1218,106.94999999999999C1220.4166666666667,106.93402777777777,1222.8333333333333,106.91805555555555,1225.25,106.90208333333334C1227.6666666666667,106.88611111111112,1230.0833333333333,106.87013888888889,1232.5,106.85416666666667C1234.9166666666667,106.83819444444445,1237.3333333333333,106.82222222222221,1239.75,106.80624999999999C1242.1666666666667,106.79027777777777,1244.5833333333333,106.77430555555556,1247,106.75833333333334C1249.4166666666667,106.74236111111112,1251.8333333333333,106.72638888888889,1254.25,106.71041666666667C1256.6666666666667,106.69444444444446,1259.0833333333333,106.67847222222221,1261.5,106.6625C1263.9166666666667,106.64652777777778,1266.3333333333333,106.63055555555556,1268.75,106.61458333333334C1271.1666666666667,106.59861111111113,1273.5833333333333,106.58263888888888,1276,106.56666666666666C1278.4166666666667,106.55069444444445,1280.8333333333333,106.53472222222221,1283.25,106.51875C1285.6666666666667,106.50277777777778,1288.0833333333333,106.48680555555555,1290.5,106.47083333333333C1292.9166666666667,106.45486111111111,1295.3333333333333,106.43888888888888,1297.75,106.42291666666667C1300.1666666666667,106.40694444444445,1302.5833333333333,106.40694444444445,1305,106.375C1307.4166666666667,106.34305555555555,1309.8333333333333,103.5,1312.25,102.0625C1314.6666666666667,100.625,1317.0833333333333,99.1875,1319.5,97.75C1321.9166666666667,96.3125,1324.3333333333333,94.875,1326.75,93.4375C1329.1666666666667,92,1331.5833333333333,90.5625,1334,89.125C1336.4166666666667,87.6875,1338.8333333333333,86.25,1341.25,84.8125C1343.6666666666667,83.375,1346.0833333333333,81.9375,1348.5,80.5C1350.9166666666667,79.0625,1353.3333333333333,77.625,1355.75,76.1875C1358.1666666666667,74.75,1360.5833333333333,73.3125,1363,71.875C1365.4166666666667,70.4375,1367.8333333333333,69,1370.25,67.5625C1372.6666666666667,66.125,1375.0833333333333,64.68750000000001,1377.5,63.25000000000001C1379.9166666666667,61.81250000000001,1382.3333333333333,60.37499999999999,1384.75,58.93749999999999C1387.1666666666667,57.49999999999999,1389.5833333333333,56.0625,1392,54.625C1394.4166666666667,53.1875,1396.8333333333333,51.75,1399.25,50.3125C1401.6666666666667,48.875,1404.0833333333333,47.4375,1406.5,46C1408.9166666666667,44.5625,1411.3333333333333,43.12500000000001,1413.75,41.68750000000001C1416.1666666666667,40.25000000000001,1418.5833333333333,38.81249999999999,1421,37.37499999999999C1423.4166666666667,35.93749999999999,1425.8333333333333,34.50000000000001,1428.25,33.06250000000001C1430.6666666666667,31.625000000000007,1433.0833333333333,30.1875,1435.5,28.75C1437.9166666666667,27.3125,1440.3333333333333,25.875000000000004,1442.75,24.437500000000004C1445.1666666666667,23.000000000000004,1447.5833333333333,21.562500000000004,1450,20.125000000000004" fill="transparent" stroke-linecap="round" stroke="#B6509E" stroke-width="2"></path><path class="visx-linepath" d="M0,104.93749999992013C2.4166666666666665,104.92418981476823,4.833333333333334,104.91087962961632,7.25,104.89756944444444C9.666666666666666,104.88425925927257,12.083333333333334,104.87094907407408,14.5,104.85763888888889C16.916666666666668,104.8443287037037,19.333333333333332,104.83101851851853,21.75,104.81770833333334C24.166666666666668,104.80439814814815,26.583333333333332,104.79108796296296,29,104.77777777777777C31.416666666666668,104.76446759259258,33.833333333333336,104.75115740740742,36.25,104.73784722222223C38.666666666666664,104.72453703703704,41.083333333333336,104.71122685185186,43.5,104.69791666666667C45.91666666666667,104.68460648148148,48.333333333333336,104.6712962962963,50.75000000000001,104.65798611111111C53.16666666666667,104.64467592592592,55.583333333333336,104.63136574074075,58,104.61805555555556C60.416666666666664,104.60474537037037,62.833333333333336,104.59143518518519,65.25,104.578125C67.66666666666667,104.56481481481481,70.08333333333333,104.55150462962962,72.5,104.53819444444444C74.91666666666667,104.52488425925927,77.33333333333333,104.51157407407409,79.75,104.4982638888889C82.16666666666667,104.48495370370371,84.58333333333333,104.47164351851852,87,104.45833333333333C89.41666666666667,104.44502314814814,91.83333333333333,104.43171296296296,94.25,104.41840277777779C96.66666666666667,104.4050925925926,99.08333333333334,104.39178240740742,101.50000000000001,104.37847222222223C103.91666666666667,104.36516203703704,106.33333333333334,104.35185185185185,108.75,104.33854166666666C111.16666666666667,104.32523148148147,113.58333333333333,104.31192129629629,116,104.29861111111111C118.41666666666667,104.28530092592592,120.83333333333334,104.27199074074075,123.25000000000001,104.25868055555556C125.66666666666667,104.24537037037037,128.08333333333334,104.23206018518519,130.5,104.21875C132.91666666666666,104.20543981481481,135.33333333333334,104.19212962962963,137.75,104.17881944444444C140.16666666666666,104.16550925925925,142.58333333333334,104.15219907407408,145,104.13888888888889C147.41666666666666,104.1255787037037,149.83333333333334,104.11226851851852,152.25,104.09895833333333C154.66666666666666,104.08564814814814,157.08333333333334,104.07233796296296,159.5,104.05902777777777C161.91666666666666,104.04571759259258,164.33333333333334,104.03240740740739,166.75,104.01909722222221C169.16666666666666,104.00578703703704,171.58333333333334,103.99247685185185,174,103.97916666666667C176.41666666666666,103.9658564814815,178.83333333333334,103.9525462962963,181.25,103.93923611111111C183.66666666666666,103.92592592592592,186.08333333333334,103.91261574074075,188.5,103.89930555555556C190.91666666666666,103.88599537037037,193.33333333333334,103.87268518518519,195.75,103.859375C198.16666666666669,103.84606481481481,200.58333333333334,103.83275462962963,203.00000000000003,103.81944444444444C205.41666666666669,103.80613425925925,207.83333333333331,103.79282407407408,210.24999999999997,103.77951388888889C212.66666666666666,103.7662037037037,215.08333333333331,103.75289351851852,217.5,103.73958333333333C219.91666666666666,103.72627314814814,222.33333333333334,103.71296296296296,224.75,103.69965277777777C227.16666666666666,103.68634259259258,229.58333333333334,103.67303240740742,232,103.65972222222223C234.41666666666666,103.64641203703704,236.83333333333334,103.63310185185185,239.25,103.61979166666666C241.66666666666669,103.60648148148147,244.08333333333334,103.5931712962963,246.50000000000003,103.57986111111111C248.91666666666669,103.56655092592594,251.33333333333331,103.55324074074075,253.74999999999997,103.53993055555556C256.16666666666663,103.52662037037037,258.5833333333333,103.51331018518519,261,103.5C263.4166666666667,103.48668981481481,265.8333333333333,103.47337962962963,268.25,103.46006944444444C270.6666666666667,103.44675925925925,273.0833333333333,103.43344907407408,275.5,103.42013888888889C277.9166666666667,103.4068287037037,280.3333333333333,103.3935185185185,282.75,103.38020833333333C285.1666666666667,103.36689814814815,287.5833333333333,103.35358796296298,290,103.34027777777779C292.4166666666667,103.3269675925926,294.8333333333333,103.3136574074074,297.25,103.30034722222221C299.6666666666667,103.28703703703702,302.0833333333333,103.27372685185185,304.5,103.26041666666667C306.9166666666667,103.2471064814815,309.3333333333333,103.2337962962963,311.75,103.22048611111111C314.1666666666667,103.20717592592592,316.5833333333333,103.19386574074075,319,103.18055555555556C321.4166666666667,103.16724537037037,323.8333333333333,103.15393518518519,326.25,103.140625C328.6666666666667,103.12731481481481,331.0833333333333,103.11400462962963,333.5,103.10069444444444C335.9166666666667,103.08738425925925,338.3333333333333,103.07407407407408,340.75,103.06076388888889C343.1666666666667,103.0474537037037,345.5833333333333,103.03414351851853,348,103.02083333333334C350.4166666666667,103.00752314814815,352.8333333333333,102.99421296296296,355.25,102.98090277777777C357.6666666666667,102.96759259259258,360.0833333333333,102.95428240740742,362.5,102.94097222222223C364.9166666666667,102.92766203703704,367.3333333333333,102.91435185185186,369.75,102.90104166666667C372.1666666666667,102.88773148148148,374.5833333333333,102.8744212962963,377,102.86111111111111C379.4166666666667,102.84780092592592,381.8333333333333,102.83449074074075,384.25,102.82118055555556C386.6666666666667,102.80787037037037,389.0833333333333,102.79456018518519,391.5,102.78125C393.9166666666667,102.76793981481481,396.33333333333337,102.75462962962963,398.75000000000006,102.74131944444444C401.16666666666674,102.72800925925927,403.58333333333337,102.71469907407409,406.00000000000006,102.7013888888889C408.4166666666667,102.68807870370371,410.8333333333333,102.67476851851852,413.24999999999994,102.66145833333333C415.66666666666663,102.64814814814814,418.08333333333326,102.63483796296296,420.49999999999994,102.62152777777779C422.91666666666663,102.6082175925926,425.3333333333333,102.59490740740742,427.75,102.58159722222223C430.1666666666667,102.56828703703704,432.5833333333333,102.55497685185185,435,102.54166666666666C437.4166666666667,102.52835648148147,439.8333333333333,102.5150462962963,442.25,102.50173611111111C444.6666666666667,102.48842592592592,447.0833333333333,102.47511574074073,449.5,102.46180555555554C451.9166666666667,102.44849537037035,454.3333333333333,102.43518518518518,456.75,102.421875C459.1666666666667,102.40856481481482,461.5833333333333,102.39525462962965,464,102.38194444444446C466.4166666666667,102.36863425925927,468.8333333333333,102.35532407407408,471.25,102.34201388888889C473.6666666666667,102.3287037037037,476.0833333333333,102.31539351851852,478.5,102.30208333333333C480.9166666666667,102.28877314814814,483.33333333333337,102.27546296296296,485.75000000000006,102.26215277777777C488.16666666666674,102.24884259259258,490.58333333333337,102.2355324074074,493.00000000000006,102.22222222222221C495.4166666666667,102.20891203703704,497.8333333333333,102.19560185185185,500.24999999999994,102.18229166666667C502.66666666666663,102.16898148148148,505.08333333333326,102.1556712962963,507.49999999999994,102.14236111111111C509.91666666666663,102.12905092592592,512.3333333333333,102.11574074074075,514.75,102.10243055555556C517.1666666666666,102.08912037037037,519.5833333333334,102.07581018518519,522,102.0625C524.4166666666666,102.04918981481481,526.8333333333334,102.03587962962963,529.25,102.02256944444444C531.6666666666666,102.00925925925925,534.0833333333334,101.99594907407408,536.5,101.98263888888889C538.9166666666666,101.9693287037037,541.3333333333334,101.95601851851852,543.75,101.94270833333333C546.1666666666666,101.92939814814814,548.5833333333334,101.91608796296296,551,101.90277777777777C553.4166666666666,101.88946759259258,555.8333333333334,101.87615740740742,558.25,101.86284722222223C560.6666666666666,101.84953703703704,563.0833333333334,101.83622685185185,565.5,101.82291666666666C567.9166666666666,101.80960648148147,570.3333333333334,101.7962962962963,572.75,101.78298611111111C575.1666666666666,101.76967592592592,577.5833333333334,101.75636574074075,580,101.74305555555556C582.4166666666666,101.72974537037037,584.8333333333334,101.71643518518519,587.25,101.703125C589.6666666666666,101.68981481481481,592.0833333333334,101.67650462962963,594.5,101.66319444444444C596.9166666666666,101.64988425925925,599.3333333333334,101.63657407407408,601.75,101.62326388888889C604.1666666666666,101.6099537037037,606.5833333333334,101.5966435185185,609,101.58333333333333C611.4166666666666,101.57002314814815,613.8333333333334,101.55671296296298,616.25,101.54340277777779C618.6666666666666,101.5300925925926,621.0833333333334,101.5167824074074,623.5,101.50347222222221C625.9166666666666,101.49016203703702,628.3333333333334,101.47685185185185,630.75,101.46354166666667C633.1666666666666,101.4502314814815,635.5833333333334,101.4369212962963,638,101.42361111111111C640.4166666666666,101.41030092592592,642.8333333333334,101.39699074074075,645.25,101.38368055555556C647.6666666666666,101.37037037037037,650.0833333333334,101.35706018518519,652.5,101.34375C654.9166666666666,101.33043981481481,657.3333333333334,101.31712962962963,659.75,101.30381944444444C662.1666666666666,101.29050925925925,664.5833333333334,101.27719907407408,667,101.26388888888889C669.4166666666666,101.2505787037037,671.8333333333334,101.23726851851853,674.25,101.22395833333334C676.6666666666666,101.21064814814815,679.0833333333334,101.19733796296296,681.5,101.18402777777777C683.9166666666666,101.17071759259258,686.3333333333334,101.15740740740742,688.75,101.14409722222223C691.1666666666666,101.13078703703704,693.5833333333334,101.11747685185186,696,101.10416666666667C698.4166666666666,101.09085648148148,700.8333333333334,101.0775462962963,703.25,101.06423611111111C705.6666666666666,101.05092592592592,708.0833333333334,101.03761574074075,710.5,101.02430555555556C712.9166666666666,101.01099537037037,715.3333333333334,100.99768518518519,717.75,100.984375C720.1666666666666,100.97106481481481,722.5833333333334,100.95775462962963,725,100.94444444444444C727.4166666666666,100.93113425925925,729.8333333333334,100.91782407407408,732.25,100.90451388888889C734.6666666666666,100.8912037037037,737.0833333333334,100.8778935185185,739.5,100.86458333333333C741.9166666666666,100.85127314814815,744.3333333333334,100.83796296296296,746.75,100.82465277777779C749.1666666666666,100.81134259259261,751.5833333333334,100.79803240740742,754,100.78472222222223C756.4166666666666,100.77141203703704,758.8333333333334,100.75810185185186,761.25,100.74479166666667C763.6666666666666,100.73148148148148,766.0833333333334,100.7181712962963,768.5,100.70486111111111C770.9166666666666,100.69155092592592,773.3333333333334,100.67824074074073,775.75,100.66493055555554C778.1666666666666,100.65162037037035,780.5833333333334,100.63831018518518,783,100.625C785.4166666666667,100.61168981481481,787.8333333333334,100.59837962962963,790.2500000000001,100.58506944444444C792.6666666666667,100.57175925925925,795.0833333333335,100.55844907407408,797.5000000000001,100.54513888888889C799.9166666666667,100.5318287037037,802.3333333333335,100.51851851851853,804.7500000000001,100.50520833333334C807.1666666666667,100.49189814814815,809.5833333333335,100.47858796296296,812.0000000000001,100.46527777777777C814.4166666666667,100.45196759259258,816.8333333333333,100.43865740740739,819.2499999999999,100.42534722222221C821.6666666666665,100.41203703703702,824.0833333333333,100.39872685185185,826.4999999999999,100.38541666666667C828.9166666666665,100.3721064814815,831.3333333333333,100.3587962962963,833.7499999999999,100.34548611111111C836.1666666666665,100.33217592592592,838.5833333333333,100.31886574074075,840.9999999999999,100.30555555555556C843.4166666666666,100.29224537037037,845.8333333333333,100.27893518518519,848.25,100.265625C850.6666666666666,100.25231481481481,853.0833333333334,100.23900462962962,855.5,100.22569444444444C857.9166666666666,100.21238425925927,860.3333333333334,100.19907407407409,862.75,100.1857638888889C865.1666666666666,100.17245370370371,867.5833333333334,100.15914351851852,870,100.14583333333333C872.4166666666666,100.13252314814814,874.8333333333334,100.11921296296296,877.25,100.10590277777777C879.6666666666666,100.09259259259258,882.0833333333334,100.07928240740742,884.5,100.06597222222223C886.9166666666666,100.05266203703704,889.3333333333334,100.03935185185185,891.75,100.02604166666666C894.1666666666666,100.01273148148147,896.5833333333334,99.9994212962963,899,99.98611111111111C901.4166666666666,99.97280092592592,903.8333333333334,99.95949074074075,906.25,99.94618055555556C908.6666666666666,99.93287037037037,911.0833333333334,99.91956018518519,913.5,99.90625C915.9166666666666,99.89293981481481,918.3333333333334,99.87962962962965,920.75,99.86631944444446C923.1666666666666,99.85300925925927,925.5833333333334,99.83969907407408,928,99.82638888888889C930.4166666666666,99.8130787037037,932.8333333333334,99.7997685185185,935.25,99.78645833333333C937.6666666666666,99.77314814814815,940.0833333333334,99.75983796296298,942.5,99.74652777777779C944.9166666666666,99.7332175925926,947.3333333333334,99.7199074074074,949.75,99.70659722222221C952.1666666666666,99.69328703703702,954.5833333333334,99.67997685185185,957,99.66666666666667C959.4166666666666,99.6533564814815,961.8333333333334,99.6400462962963,964.25,99.62673611111111C966.6666666666667,99.61342592592592,969.0833333333334,99.60011574074075,971.5000000000001,99.58680555555556C973.9166666666667,99.57349537037037,976.3333333333335,99.56018518518519,978.7500000000001,99.546875C981.1666666666667,99.53356481481481,983.5833333333335,99.52025462962963,986.0000000000001,99.50694444444444C988.4166666666667,99.49363425925925,990.8333333333335,99.48032407407408,993.2500000000001,99.46701388888889C995.6666666666667,99.4537037037037,998.0833333333333,99.44039351851852,1000.4999999999999,99.42708333333333C1002.9166666666665,99.41377314814814,1005.3333333333333,99.40046296296296,1007.7499999999999,99.38715277777777C1010.1666666666665,99.37384259259258,1012.5833333333333,99.36053240740742,1014.9999999999999,99.34722222222223C1017.4166666666665,99.33391203703704,1019.8333333333333,99.32060185185186,1022.2499999999999,99.30729166666667C1024.6666666666665,99.29398148148148,1027.0833333333333,99.28067129629629,1029.5,99.2673611111111C1031.9166666666667,99.25405092592591,1034.3333333333333,99.24074074074073,1036.75,99.22743055555556C1039.1666666666667,99.21412037037038,1041.5833333333333,99.20081018518519,1044,99.1875C1046.4166666666667,99.17418981481481,1048.8333333333333,99.16087962962963,1051.25,99.14756944444444C1053.6666666666667,99.13425925925925,1056.0833333333333,99.12094907407408,1058.5,99.10763888888889C1060.9166666666667,99.0943287037037,1063.3333333333333,99.0810185185185,1065.75,99.06770833333333C1068.1666666666667,99.05439814814815,1070.5833333333333,99.04108796296296,1073,99.02777777777779C1075.4166666666667,99.01446759259261,1077.8333333333333,99.00115740740742,1080.25,98.98784722222223C1082.6666666666667,98.97453703703704,1085.0833333333333,98.96122685185185,1087.5,98.94791666666666C1089.9166666666667,98.93460648148147,1092.3333333333333,98.9212962962963,1094.75,98.90798611111111C1097.1666666666667,98.89467592592592,1099.5833333333333,98.88136574074075,1102,98.86805555555556C1104.4166666666667,98.85474537037037,1106.8333333333333,98.84143518518519,1109.25,98.828125C1111.6666666666667,98.81481481481481,1114.0833333333333,98.80150462962963,1116.5,98.78819444444444C1118.9166666666667,98.77488425925925,1121.3333333333333,98.76157407407408,1123.75,98.74826388888889C1126.1666666666667,98.7349537037037,1128.5833333333333,98.72164351851853,1131,98.70833333333334C1133.4166666666667,98.69502314814815,1135.8333333333333,98.68171296296296,1138.25,98.66840277777777C1140.6666666666667,98.65509259259258,1143.0833333333333,98.64178240740739,1145.5,98.62847222222221C1147.9166666666667,98.61516203703704,1150.3333333333333,98.60185185185185,1152.75,98.58854166666667C1155.1666666666667,98.5752314814815,1157.5833333333333,98.5619212962963,1160,98.54861111111111C1162.4166666666667,98.53530092592592,1164.8333333333333,98.52199074074075,1167.25,98.50868055555556C1169.6666666666667,98.49537037037037,1172.0833333333333,98.48206018518519,1174.5,98.46875C1176.9166666666667,98.45543981481481,1179.3333333333333,98.44212962962962,1181.75,98.42881944444444C1184.1666666666667,98.41550925925927,1186.5833333333333,98.40219907407409,1189,98.3888888888889C1191.4166666666667,98.37557870370371,1193.8333333333333,98.36226851851852,1196.25,98.34895833333333C1198.6666666666667,98.33564814814814,1201.0833333333333,98.32233796296296,1203.5,98.30902777777777C1205.9166666666667,98.29571759259258,1208.3333333333333,98.28240740740742,1210.75,98.26909722222223C1213.1666666666667,98.25578703703704,1215.5833333333333,98.24247685185186,1218,98.22916666666667C1220.4166666666667,98.21585648148148,1222.8333333333333,98.2025462962963,1225.25,98.18923611111111C1227.6666666666667,98.17592592592592,1230.0833333333333,98.16261574074075,1232.5,98.14930555555556C1234.9166666666667,98.13599537037037,1237.3333333333333,98.12268518518519,1239.75,98.109375C1242.1666666666667,98.09606481481481,1244.5833333333333,98.08275462962965,1247,98.06944444444446C1249.4166666666667,98.05613425925927,1251.8333333333333,98.04282407407408,1254.25,98.02951388888889C1256.6666666666667,98.0162037037037,1259.0833333333333,98.0028935185185,1261.5,97.98958333333333C1263.9166666666667,97.97627314814815,1266.3333333333333,97.96296296296298,1268.75,97.94965277777779C1271.1666666666667,97.9363425925926,1273.5833333333333,97.9230324074074,1276,97.90972222222221C1278.4166666666667,97.89641203703702,1280.8333333333333,97.88310185185185,1283.25,97.86979166666667C1285.6666666666667,97.8564814814815,1288.0833333333333,97.8431712962963,1290.5,97.82986111111111C1292.9166666666667,97.81655092592592,1295.3333333333333,97.80324074074075,1297.75,97.78993055555556C1300.1666666666667,97.77662037037037,1302.5833333333333,97.77662037037037,1305,97.75C1307.4166666666667,97.72337962962963,1309.8333333333333,94.875,1312.25,93.4375C1314.6666666666667,92,1317.0833333333333,90.5625,1319.5,89.125C1321.9166666666667,87.6875,1324.3333333333333,86.25,1326.75,84.8125C1329.1666666666667,83.375,1331.5833333333333,81.9375,1334,80.5C1336.4166666666667,79.0625,1338.8333333333333,77.625,1341.25,76.1875C1343.6666666666667,74.75,1346.0833333333333,73.3125,1348.5,71.875C1350.9166666666667,70.4375,1353.3333333333333,69,1355.75,67.5625C1358.1666666666667,66.125,1360.5833333333333,64.68750000000001,1363,63.25000000000001C1365.4166666666667,61.81250000000001,1367.8333333333333,60.37499999999999,1370.25,58.93749999999999C1372.6666666666667,57.49999999999999,1375.0833333333333,56.0625,1377.5,54.625C1379.9166666666667,53.1875,1382.3333333333333,51.75,1384.75,50.3125C1387.1666666666667,48.875,1389.5833333333333,47.4375,1392,46C1394.4166666666667,44.5625,1396.8333333333333,43.12500000000001,1399.25,41.68750000000001C1401.6666666666667,40.25000000000001,1404.0833333333333,38.81249999999999,1406.5,37.37499999999999C1408.9166666666667,35.93749999999999,1411.3333333333333,34.50000000000001,1413.75,33.06250000000001C1416.1666666666667,31.625000000000007,1418.5833333333333,30.1875,1421,28.75C1423.4166666666667,27.3125,1425.8333333333333,25.875000000000004,1428.25,24.437500000000004C1430.6666666666667,23.000000000000004,1433.0833333333333,21.562500000000004,1435.5,20.125000000000004C1437.9166666666667,18.687500000000004,1440.3333333333333,17.249999999999996,1442.75,15.812499999999995C1445.1666666666667,14.374999999999995,1447.5833333333333,12.937499999999996,1450,11.499999999999998" fill="transparent" stroke-linecap="round" stroke="#E7C6DF" stroke-width="2"></path><g class="visx-group visx-axis visx-axis-bottom" transform="translate(0, 115)"><g class="visx-group visx-axis-tick" transform="translate(0, 0)"><line class="visx-line" x1="0" y1="0" x2="0" y2="8" fill="transparent" shape-rendering="crispEdges" stroke="#000" stroke-width="0" stroke-linecap="square"></line><svg x="0" y="0" font-size="10" style="overflow:visible"><text transform="" x="0" y="18" fill="#000" font-size="10" text-anchor="middle"><tspan x="0" dy="0em">0%</tspan></text></svg></g><g class="visx-group visx-axis-tick" transform="translate(0, 0)"><line class="visx-line" x1="362.5" y1="0" x2="362.5" y2="8" fill="transparent" shape-rendering="crispEdges" stroke="#000" stroke-width="0" stroke-linecap="square"></line><svg x="0" y="0" font-size="10" style="overflow:visible"><text transform="" x="362.5" y="18" fill="#000" font-size="10" text-anchor="middle"><tspan x="362.5" dy="0em">25%</tspan></text></svg></g><g class="visx-group visx-axis-tick" transform="translate(0, 0)"><line class="visx-line" x1="725" y1="0" x2="725" y2="8" fill="transparent" shape-rendering="crispEdges" stroke="#000" stroke-width="0" stroke-linecap="square"></line><svg x="0" y="0" font-size="10" style="overflow:visible"><text transform="" x="725" y="18" fill="#000" font-size="10" text-anchor="middle"><tspan x="725" dy="0em">50%</tspan></text></svg></g><g class="visx-group visx-axis-tick" transform="translate(0, 0)"><line class="visx-line" x1="1087.5" y1="0" x2="1087.5" y2="8" fill="transparent" shape-rendering="crispEdges" stroke="#000" stroke-width="0" stroke-linecap="square"></line><svg x="0" y="0" font-size="10" style="overflow:visible"><text transform="" x="1087.5" y="18" fill="#000" font-size="10" text-anchor="middle"><tspan x="1087.5" dy="0em">75%</tspan></text></svg></g><g class="visx-group visx-axis-tick" transform="translate(0, 0)"><line class="visx-line" x1="1450" y1="0" x2="1450" y2="8" fill="transparent" shape-rendering="crispEdges" stroke="#000" stroke-width="0" stroke-linecap="square"></line><svg x="0" y="0" font-size="10" style="overflow:visible"><text transform="" x="1450" y="18" fill="#000" font-size="10" text-anchor="middle"><tspan x="1450" dy="0em">100%</tspan></text></svg></g><line class="visx-line visx-axis-line" x1="0.5" y1="0" x2="1450.5" y2="0" fill="transparent" shape-rendering="crispEdges" stroke="#222" stroke-width="0"></line></g><g class="visx-group visx-axis visx-axis-left" transform="translate(0, 0)"><g class="visx-group visx-axis-tick" transform="translate(0, 0)"><line class="visx-line" x1="0" y1="115" x2="-8" y2="115" fill="transparent" shape-rendering="crispEdges" stroke="#222" stroke-width="0" stroke-linecap="square"></line><svg x="-30" y="0" font-size="8" style="overflow:visible"><text transform="" x="-8" y="115" fill="#000" font-size="8" text-anchor="start"><tspan x="-8" dy="0em">0%</tspan></text></svg></g><g class="visx-group visx-axis-tick" transform="translate(0, 0)"><line class="visx-line" x1="0" y1="43.125" x2="-8" y2="43.125" fill="transparent" shape-rendering="crispEdges" stroke="#222" stroke-width="0" stroke-linecap="square"></line><svg x="-30" y="0" font-size="8" style="overflow:visible"><text transform="" x="-8" y="43.125" fill="#000" font-size="8" text-anchor="start"><tspan x="-8" dy="0em">50%</tspan></text></svg></g><line class="visx-line visx-axis-line" x1="0" y1="115.5" x2="0" y2="0.5" fill="transparent" shape-rendering="crispEdges" stroke="#222" stroke-width="0"></line></g><rect class="visx-bar" width="1450" height="115" fill="transparent"></rect><line class="visx-line" x1="1305" y1="28" x2="1305" y2="115" fill="transparent" shape-rendering="crispEdges" stroke="#0062D2" stroke-width="1" pointer-events="none" stroke-dasharray="5,2"></line><svg x="0" y="0" font-size="10px" style="overflow:visible"><text transform="" x="1305" y="20" font-size="10px" fill="#fff" stroke="#fff" stroke-width="0.8em" text-anchor="middle"><tspan x="1305" dy="0.355em">Optimal 90%</tspan></text></svg><svg x="0" y="0" font-size="10px" style="overflow:visible"><text transform="" x="1305" y="20" font-size="10px" fill="#62677B" text-anchor="middle"><tspan x="1305" dy="0.355em">Optimal 90%</tspan></text></svg></g></svg>