<?xml version="1.0"?><svg xmlns="http://www.w3.org/2000/svg" xmlns:xlink= "http://www.w3.org/1999/xlink" style="background: white;" width="1500" height="185"> <g style="color: black; font-size: 13px; font-family: sans-serif; transform: translate(18px, 25px);"><g><circle r="3" cx="-6" cy="-5" style="fill: #B6509E" /><text>Borrow APR, variable</text></g><g style="transform: translateX(150px);"><circle r="3" cx="-6" cy="-5" style="fill: rgb(231, 198, 223)" /><text>Borrow APR, stable</text></g><g style="transform: translateX(290px);"><circle r="3" cx="-6" cy="-5" style="fill: rgb(0, 98, 210)" /><text>Utilization Rate</text></g></g><g class="visx-group" transform="translate(40, 50)"><g class="visx-group visx-rows" transform="translate(0, 0)"><line class="visx-line" x1="0" y1="115" x2="1450" y2="115" fill="transparent" shape-rendering="crispEdges" stroke="#000" stroke-width="1" stroke-dasharray="3,3" pointer-events="none"></line><line class="visx-line" x1="0" y1="82.14285714285714" x2="1450" y2="82.14285714285714" fill="transparent" shape-rendering="crispEdges" stroke="#000" stroke-width="1" stroke-dasharray="3,3" pointer-events="none"></line><line class="visx-line" x1="0" y1="49.28571428571429" x2="1450" y2="49.28571428571429" fill="transparent" shape-rendering="crispEdges" stroke="#000" stroke-width="1" stroke-dasharray="3,3" pointer-events="none"></line><line class="visx-line" x1="0" y1="16.428571428571434" x2="1450" y2="16.428571428571434" fill="transparent" shape-rendering="crispEdges" stroke="#000" stroke-width="1" stroke-dasharray="3,3" pointer-events="none"></line></g><path class="visx-linepath" d="M0,114.99999999997809C2.4166666666666665,114.99634920633642,4.833333333333334,114.99269841269475,7.25,114.98904761904761C9.666666666666666,114.98539682540047,12.083333333333334,114.98174603174603,14.5,114.97809523809524C16.916666666666668,114.97444444444444,19.333333333333332,114.97079365079364,21.75,114.96714285714285C24.166666666666668,114.96349206349205,26.583333333333332,114.95984126984126,29,114.95619047619047C31.416666666666668,114.95253968253968,33.833333333333336,114.94888888888889,36.25,114.9452380952381C38.666666666666664,114.9415873015873,41.083333333333336,114.93793650793651,43.5,114.93428571428572C45.91666666666667,114.93063492063493,48.333333333333336,114.92698412698412,50.75000000000001,114.92333333333333C53.16666666666667,114.91968253968254,55.583333333333336,114.91603174603175,58,114.91238095238096C60.416666666666664,114.90873015873017,62.833333333333336,114.90507936507936,65.25,114.90142857142857C67.66666666666667,114.89777777777778,70.08333333333333,114.89412698412698,72.5,114.89047619047619C74.91666666666667,114.8868253968254,77.33333333333333,114.8831746031746,79.75,114.8795238095238C82.16666666666667,114.87587301587301,84.58333333333333,114.87222222222222,87,114.86857142857143C89.41666666666667,114.86492063492064,91.83333333333333,114.86126984126983,94.25,114.85761904761904C96.66666666666667,114.85396825396825,99.08333333333334,114.85031746031746,101.50000000000001,114.84666666666666C103.91666666666667,114.84301587301587,106.33333333333334,114.83936507936508,108.75,114.83571428571429C111.16666666666667,114.8320634920635,113.58333333333333,114.8284126984127,116,114.82476190476191C118.41666666666667,114.82111111111112,120.83333333333334,114.81746031746032,123.25000000000001,114.81380952380952C125.66666666666667,114.81015873015873,128.08333333333334,114.80650793650794,130.5,114.80285714285715C132.91666666666666,114.79920634920636,135.33333333333334,114.79555555555555,137.75,114.79190476190476C140.16666666666666,114.78825396825397,142.58333333333334,114.78460317460318,145,114.78095238095239C147.41666666666666,114.7773015873016,149.83333333333334,114.77365079365079,152.25,114.77C154.66666666666666,114.7663492063492,157.08333333333334,114.7626984126984,159.5,114.7590476190476C161.91666666666666,114.75539682539682,164.33333333333334,114.75174603174602,166.75,114.74809523809523C169.16666666666666,114.74444444444444,171.58333333333334,114.74079365079365,174,114.73714285714286C176.41666666666666,114.73349206349206,178.83333333333334,114.72984126984127,181.25,114.72619047619048C183.66666666666666,114.72253968253969,186.08333333333334,114.71888888888888,188.5,114.71523809523809C190.91666666666666,114.7115873015873,193.33333333333334,114.70793650793651,195.75,114.70428571428572C198.16666666666669,114.70063492063493,200.58333333333334,114.69698412698412,203.00000000000003,114.69333333333333C205.41666666666669,114.68968253968254,207.83333333333331,114.68603174603174,210.24999999999997,114.68238095238095C212.66666666666666,114.67873015873016,215.08333333333331,114.67507936507936,217.5,114.67142857142856C219.91666666666666,114.66777777777777,222.33333333333334,114.66412698412698,224.75,114.66047619047619C227.16666666666666,114.6568253968254,229.58333333333334,114.65317460317459,232,114.6495238095238C234.41666666666666,114.64587301587301,236.83333333333334,114.64222222222223,239.25,114.63857142857144C241.66666666666669,114.63492063492065,244.08333333333334,114.63126984126984,246.50000000000003,114.62761904761905C248.91666666666669,114.62396825396826,251.33333333333331,114.62031746031747,253.74999999999997,114.61666666666667C256.16666666666663,114.61301587301588,258.5833333333333,114.60936507936508,261,114.60571428571428C263.4166666666667,114.6020634920635,265.8333333333333,114.5984126984127,268.25,114.59476190476191C270.6666666666667,114.59111111111112,273.0833333333333,114.58746031746031,275.5,114.58380952380952C277.9166666666667,114.58015873015873,280.3333333333333,114.57650793650794,282.75,114.57285714285715C285.1666666666667,114.56920634920635,287.5833333333333,114.56555555555555,290,114.56190476190476C292.4166666666667,114.55825396825396,294.8333333333333,114.55460317460317,297.25,114.55095238095238C299.6666666666667,114.54730158730159,302.0833333333333,114.5436507936508,304.5,114.54C306.9166666666667,114.53634920634921,309.3333333333333,114.53269841269842,311.75,114.52904761904763C314.1666666666667,114.52539682539684,316.5833333333333,114.52174603174603,319,114.51809523809524C321.4166666666667,114.51444444444445,323.8333333333333,114.51079365079364,326.25,114.50714285714285C328.6666666666667,114.50349206349206,331.0833333333333,114.49984126984127,333.5,114.49619047619048C335.9166666666667,114.49253968253969,338.3333333333333,114.48888888888888,340.75,114.48523809523809C343.1666666666667,114.4815873015873,345.5833333333333,114.4779365079365,348,114.47428571428571C350.4166666666667,114.47063492063492,352.8333333333333,114.46698412698412,355.25,114.46333333333332C357.6666666666667,114.45968253968253,360.0833333333333,114.45603174603174,362.5,114.45238095238095C364.9166666666667,114.44873015873016,367.3333333333333,114.44507936507937,369.75,114.44142857142857C372.1666666666667,114.43777777777778,374.5833333333333,114.43412698412699,377,114.4304761904762C379.4166666666667,114.42682539682541,381.8333333333333,114.4231746031746,384.25,114.41952380952381C386.6666666666667,114.41587301587302,389.0833333333333,114.41222222222223,391.5,114.40857142857143C393.9166666666667,114.40492063492064,396.33333333333337,114.40126984126984,398.75000000000006,114.39761904761905C401.16666666666674,114.39396825396825,403.58333333333337,114.39031746031746,406.00000000000006,114.38666666666667C408.4166666666667,114.38301587301588,410.8333333333333,114.37936507936507,413.24999999999994,114.37571428571428C415.66666666666663,114.37206349206349,418.08333333333326,114.3684126984127,420.49999999999994,114.3647619047619C422.91666666666663,114.36111111111111,425.3333333333333,114.35746031746031,427.75,114.35380952380952C430.1666666666667,114.35015873015873,432.5833333333333,114.34650793650793,435,114.34285714285714C437.4166666666667,114.33920634920635,439.8333333333333,114.33555555555556,442.25,114.33190476190477C444.6666666666667,114.32825396825397,447.0833333333333,114.32460317460318,449.5,114.32095238095239C451.9166666666667,114.3173015873016,454.3333333333333,114.3136507936508,456.75,114.31C459.1666666666667,114.30634920634921,461.5833333333333,114.30269841269842,464,114.29904761904763C466.4166666666667,114.29539682539684,468.8333333333333,114.29174603174603,471.25,114.28809523809524C473.6666666666667,114.28444444444445,476.0833333333333,114.28079365079364,478.5,114.27714285714285C480.9166666666667,114.27349206349206,483.33333333333337,114.26984126984127,485.75000000000006,114.26619047619047C488.16666666666674,114.26253968253968,490.58333333333337,114.25888888888888,493.00000000000006,114.25523809523808C495.4166666666667,114.25158730158729,497.8333333333333,114.2479365079365,500.24999999999994,114.24428571428571C502.66666666666663,114.24063492063492,505.08333333333326,114.23698412698413,507.49999999999994,114.23333333333333C509.91666666666663,114.22968253968254,512.3333333333333,114.22603174603175,514.75,114.22238095238096C517.1666666666666,114.21873015873017,519.5833333333334,114.21507936507936,522,114.21142857142857C524.4166666666666,114.20777777777778,526.8333333333334,114.20412698412699,529.25,114.2004761904762C531.6666666666666,114.1968253968254,534.0833333333334,114.1931746031746,536.5,114.1895238095238C538.9166666666666,114.18587301587301,541.3333333333334,114.18222222222222,543.75,114.17857142857143C546.1666666666666,114.17492063492064,548.5833333333334,114.17126984126983,551,114.16761904761904C553.4166666666666,114.16396825396825,555.8333333333334,114.16031746031746,558.25,114.15666666666667C560.6666666666666,114.15301587301587,563.0833333333334,114.14936507936507,565.5,114.14571428571428C567.9166666666666,114.14206349206349,570.3333333333334,114.1384126984127,572.75,114.1347619047619C575.1666666666666,114.13111111111111,577.5833333333334,114.12746031746032,580,114.12380952380953C582.4166666666666,114.12015873015874,584.8333333333334,114.11650793650794,587.25,114.11285714285715C589.6666666666666,114.10920634920636,592.0833333333334,114.10555555555555,594.5,114.10190476190476C596.9166666666666,114.09825396825397,599.3333333333334,114.09460317460318,601.75,114.09095238095239C604.1666666666666,114.0873015873016,606.5833333333334,114.08365079365079,609,114.08C611.4166666666666,114.0763492063492,613.8333333333334,114.07269841269841,616.25,114.06904761904762C618.6666666666666,114.06539682539683,621.0833333333334,114.06174603174603,623.5,114.05809523809523C625.9166666666666,114.05444444444444,628.3333333333334,114.05079365079364,630.75,114.04714285714284C633.1666666666666,114.04349206349205,635.5833333333334,114.03984126984126,638,114.03619047619047C640.4166666666666,114.03253968253968,642.8333333333334,114.02888888888889,645.25,114.0252380952381C647.6666666666666,114.0215873015873,650.0833333333334,114.01793650793651,652.5,114.01428571428572C654.9166666666666,114.01063492063493,657.3333333333334,114.00698412698412,659.75,114.00333333333333C662.1666666666666,113.99968253968254,664.5833333333334,113.99603174603175,667,113.99238095238096C669.4166666666666,113.98873015873016,671.8333333333334,113.98507936507936,674.25,113.98142857142857C676.6666666666666,113.97777777777777,679.0833333333334,113.97412698412698,681.5,113.97047619047619C683.9166666666666,113.9668253968254,686.3333333333334,113.9631746031746,688.75,113.9595238095238C691.1666666666666,113.95587301587301,693.5833333333334,113.95222222222222,696,113.94857142857143C698.4166666666666,113.94492063492063,700.8333333333334,113.94126984126983,703.25,113.93761904761904C705.6666666666666,113.93396825396825,708.0833333333334,113.93031746031747,710.5,113.92666666666668C712.9166666666666,113.92301587301588,715.3333333333334,113.91936507936508,717.75,113.91571428571429C720.1666666666666,113.9120634920635,722.5833333333334,113.9084126984127,725,113.90476190476191C727.4166666666666,113.90111111111112,729.8333333333334,113.89746031746031,732.25,113.89380952380952C734.6666666666666,113.89015873015873,737.0833333333334,113.88650793650794,739.5,113.88285714285715C741.9166666666666,113.87920634920636,744.3333333333334,113.87555555555555,746.75,113.87190476190476C749.1666666666666,113.86825396825397,751.5833333333334,113.86460317460318,754,113.86095238095238C756.4166666666666,113.85730158730159,758.8333333333334,113.85365079365079,761.25,113.85C763.6666666666666,113.8463492063492,766.0833333333334,113.84269841269841,768.5,113.83904761904762C770.9166666666666,113.83539682539683,773.3333333333334,113.83174603174604,775.75,113.82809523809524C778.1666666666666,113.82444444444445,780.5833333333334,113.82079365079366,783,113.81714285714287C785.4166666666667,113.81349206349208,787.8333333333334,113.80984126984127,790.2500000000001,113.80619047619048C792.6666666666667,113.80253968253969,795.0833333333335,113.79888888888888,797.5000000000001,113.79523809523809C799.9166666666667,113.7915873015873,802.3333333333335,113.78793650793651,804.7500000000001,113.78428571428572C807.1666666666667,113.78063492063492,809.5833333333335,113.77698412698412,812.0000000000001,113.77333333333333C814.4166666666667,113.76968253968253,816.8333333333333,113.76603174603174,819.2499999999999,113.76238095238095C821.6666666666665,113.75873015873016,824.0833333333333,113.75507936507935,826.4999999999999,113.75142857142856C828.9166666666665,113.74777777777777,831.3333333333333,113.74412698412698,833.7499999999999,113.74047619047619C836.1666666666665,113.7368253968254,838.5833333333333,113.7331746031746,840.9999999999999,113.72952380952381C843.4166666666666,113.72587301587302,845.8333333333333,113.72222222222223,848.25,113.71857142857144C850.6666666666666,113.71492063492065,853.0833333333334,113.71126984126984,855.5,113.70761904761905C857.9166666666666,113.70396825396826,860.3333333333334,113.70031746031746,862.75,113.69666666666667C865.1666666666666,113.69301587301588,867.5833333333334,113.68936507936507,870,113.68571428571428C872.4166666666666,113.68206349206349,874.8333333333334,113.6784126984127,877.25,113.67476190476191C879.6666666666666,113.67111111111112,882.0833333333334,113.66746031746031,884.5,113.66380952380952C886.9166666666666,113.66015873015873,889.3333333333334,113.65650793650794,891.75,113.65285714285714C894.1666666666666,113.64920634920635,896.5833333333334,113.64555555555555,899,113.64190476190475C901.4166666666666,113.63825396825396,903.8333333333334,113.63460317460317,906.25,113.63095238095238C908.6666666666666,113.62730158730159,911.0833333333334,113.6236507936508,913.5,113.62C915.9166666666666,113.61634920634921,918.3333333333334,113.61269841269842,920.75,113.60904761904763C923.1666666666666,113.60539682539684,925.5833333333334,113.60174603174603,928,113.59809523809524C930.4166666666666,113.59444444444445,932.8333333333334,113.59079365079366,935.25,113.58714285714287C937.6666666666666,113.58349206349207,940.0833333333334,113.57984126984127,942.5,113.57619047619048C944.9166666666666,113.57253968253968,947.3333333333334,113.56888888888888,949.75,113.56523809523809C952.1666666666666,113.5615873015873,954.5833333333334,113.5579365079365,957,113.55428571428571C959.4166666666666,113.55063492063492,961.8333333333334,113.54698412698411,964.25,113.54333333333332C966.6666666666667,113.53968253968253,969.0833333333334,113.53603174603174,971.5000000000001,113.53238095238095C973.9166666666667,113.52873015873016,976.3333333333335,113.52507936507936,978.7500000000001,113.52142857142857C981.1666666666667,113.51777777777778,983.5833333333335,113.51412698412699,986.0000000000001,113.5104761904762C988.4166666666667,113.5068253968254,990.8333333333335,113.5031746031746,993.2500000000001,113.49952380952381C995.6666666666667,113.49587301587302,998.0833333333333,113.49222222222222,1000.4999999999999,113.48857142857143C1002.9166666666665,113.48492063492064,1005.3333333333333,113.48126984126984,1007.7499999999999,113.47761904761904C1010.1666666666665,113.47396825396825,1012.5833333333333,113.47031746031746,1014.9999999999999,113.46666666666667C1017.4166666666665,113.46301587301588,1019.8333333333333,113.45936507936507,1022.2499999999999,113.45571428571428C1024.6666666666665,113.45206349206349,1027.0833333333333,113.4484126984127,1029.5,113.4447619047619C1031.9166666666667,113.44111111111111,1034.3333333333333,113.4374603174603,1036.75,113.43380952380951C1039.1666666666667,113.43015873015872,1041.5833333333333,113.42650793650793,1044,113.42285714285714C1046.4166666666667,113.41920634920635,1048.8333333333333,113.41555555555556,1051.25,113.41190476190476C1053.6666666666667,113.40825396825397,1056.0833333333333,113.40460317460318,1058.5,113.40095238095239C1060.9166666666667,113.3973015873016,1063.3333333333333,113.39365079365079,1065.75,113.39C1068.1666666666667,113.38634920634921,1070.5833333333333,113.38269841269842,1073,113.37904761904763C1075.4166666666667,113.37539682539683,1077.8333333333333,113.37174603174603,1080.25,113.36809523809524C1082.6666666666667,113.36444444444444,1085.0833333333333,113.36079365079365,1087.5,113.35714285714286C1089.9166666666667,113.35349206349207,1092.3333333333333,113.34984126984126,1094.75,113.34619047619047C1097.1666666666667,113.34253968253968,1099.5833333333333,113.33888888888887,1102,113.33523809523808C1104.4166666666667,113.33158730158729,1106.8333333333333,113.3279365079365,1109.25,113.32428571428571C1111.6666666666667,113.32063492063492,1114.0833333333333,113.31698412698412,1116.5,113.31333333333333C1118.9166666666667,113.30968253968254,1121.3333333333333,113.30603174603175,1123.75,113.30238095238096C1126.1666666666667,113.29873015873017,1128.5833333333333,113.29507936507936,1131,113.29142857142857C1133.4166666666667,113.28777777777778,1135.8333333333333,113.28412698412698,1138.25,113.2804761904762C1140.6666666666667,113.2768253968254,1143.0833333333333,113.2731746031746,1145.5,113.2695238095238C1147.9166666666667,113.26587301587301,1150.3333333333333,113.26222222222222,1152.75,113.25857142857143C1155.1666666666667,113.25492063492064,1157.5833333333333,113.25126984126983,1160,113.24761904761904C1162.4166666666667,113.24396825396825,1164.8333333333333,113.24031746031746,1167.25,113.23666666666666C1169.6666666666667,113.23301587301587,1172.0833333333333,113.22936507936507,1174.5,113.22571428571428C1176.9166666666667,113.22206349206348,1179.3333333333333,113.2184126984127,1181.75,113.21476190476191C1184.1666666666667,113.21111111111112,1186.5833333333333,113.20746031746032,1189,113.20380952380953C1191.4166666666667,113.20015873015873,1193.8333333333333,113.19650793650794,1196.25,113.19285714285715C1198.6666666666667,113.18920634920636,1201.0833333333333,113.18555555555555,1203.5,113.18190476190476C1205.9166666666667,113.17825396825397,1208.3333333333333,113.17460317460318,1210.75,113.17095238095239C1213.1666666666667,113.1673015873016,1215.5833333333333,113.16365079365079,1218,113.16C1220.4166666666667,113.1563492063492,1222.8333333333333,113.15269841269841,1225.25,113.14904761904762C1227.6666666666667,113.14539682539683,1230.0833333333333,113.14174603174602,1232.5,113.13809523809523C1234.9166666666667,113.13444444444444,1237.3333333333333,113.13079365079365,1239.75,113.12714285714286C1242.1666666666667,113.12349206349207,1244.5833333333333,113.11984126984127,1247,113.11619047619048C1249.4166666666667,113.11253968253969,1251.8333333333333,113.10888888888888,1254.25,113.1052380952381C1256.6666666666667,113.1015873015873,1259.0833333333333,113.09793650793651,1261.5,113.09428571428572C1263.9166666666667,113.09063492063493,1266.3333333333333,113.08698412698412,1268.75,113.08333333333333C1271.1666666666667,113.07968253968254,1273.5833333333333,113.07603174603175,1276,113.07238095238095C1278.4166666666667,113.06873015873016,1280.8333333333333,113.06507936507936,1283.25,113.06142857142856C1285.6666666666667,113.05777777777777,1288.0833333333333,113.05412698412698,1290.5,113.05047619047619C1292.9166666666667,113.0468253968254,1295.3333333333333,113.04317460317459,1297.75,113.0395238095238C1300.1666666666667,113.03587301587301,1302.5833333333333,113.03587301587301,1305,113.02857142857142C1307.4166666666667,113.02126984126984,1309.8333333333333,112.37142857142857,1312.25,112.04285714285714C1314.6666666666667,111.71428571428572,1317.0833333333333,111.3857142857143,1319.5,111.05714285714286C1321.9166666666667,110.72857142857143,1324.3333333333333,110.4,1326.75,110.07142857142857C1329.1666666666667,109.74285714285713,1331.5833333333333,109.41428571428571,1334,109.08571428571429C1336.4166666666667,108.75714285714287,1338.8333333333333,108.42857142857142,1341.25,108.1C1343.6666666666667,107.77142857142857,1346.0833333333333,107.44285714285715,1348.5,107.11428571428571C1350.9166666666667,106.78571428571428,1353.3333333333333,106.45714285714286,1355.75,106.12857142857142C1358.1666666666667,105.79999999999998,1360.5833333333333,105.47142857142856,1363,105.14285714285714C1365.4166666666667,104.81428571428572,1367.8333333333333,104.4857142857143,1370.25,104.15714285714286C1372.6666666666667,103.82857142857142,1375.0833333333333,103.5,1377.5,103.17142857142856C1379.9166666666667,102.84285714285713,1382.3333333333333,102.5142857142857,1384.75,102.18571428571428C1387.1666666666667,101.85714285714286,1389.5833333333333,101.52857142857142,1392,101.2C1394.4166666666667,100.87142857142858,1396.8333333333333,100.54285714285714,1399.25,100.21428571428572C1401.6666666666667,99.8857142857143,1404.0833333333333,99.55714285714285,1406.5,99.22857142857143C1408.9166666666667,98.9,1411.3333333333333,98.57142857142857,1413.75,98.24285714285715C1416.1666666666667,97.91428571428573,1418.5833333333333,97.58571428571429,1421,97.25714285714287C1423.4166666666667,96.92857142857144,1425.8333333333333,96.60000000000001,1428.25,96.27142857142857C1430.6666666666667,95.94285714285714,1433.0833333333333,95.6142857142857,1435.5,95.28571428571428C1437.9166666666667,94.95714285714286,1440.3333333333333,94.62857142857143,1442.75,94.30000000000001C1445.1666666666667,93.97142857142859,1447.5833333333333,93.64285714285715,1450,93.31428571428572" fill="transparent" stroke-linecap="round" stroke="#B6509E" stroke-width="2"></path><path class="visx-linepath" d="M0,113.02857142855318C2.4166666666666665,113.02552910051845,4.833333333333334,113.02248677248373,7.25,113.01944444444445C9.666666666666666,113.01640211640516,12.083333333333334,113.0133597883598,14.5,113.01031746031747C16.916666666666668,113.00727513227514,19.333333333333332,113.0042328042328,21.75,113.00119047619047C24.166666666666668,112.99814814814815,26.583333333333332,112.9951058201058,29,112.99206349206348C31.416666666666668,112.98902116402115,33.833333333333336,112.98597883597884,36.25,112.98293650793651C38.666666666666664,112.97989417989419,41.083333333333336,112.97685185185185,43.5,112.97380952380952C45.91666666666667,112.9707671957672,48.333333333333336,112.96772486772487,50.75000000000001,112.96468253968254C53.16666666666667,112.96164021164022,55.583333333333336,112.95859788359788,58,112.95555555555555C60.416666666666664,112.95251322751322,62.833333333333336,112.9494708994709,65.25,112.94642857142857C67.66666666666667,112.94338624338624,70.08333333333333,112.94034391534392,72.5,112.93730158730159C74.91666666666667,112.93425925925926,77.33333333333333,112.93121693121692,79.75,112.9281746031746C82.16666666666667,112.92513227513227,84.58333333333333,112.92208994708994,87,112.91904761904762C89.41666666666667,112.91600529100529,91.83333333333333,112.91296296296296,94.25,112.90992063492064C96.66666666666667,112.90687830687831,99.08333333333334,112.90383597883597,101.50000000000001,112.90079365079364C103.91666666666667,112.89775132275132,106.33333333333334,112.89470899470899,108.75,112.89166666666667C111.16666666666667,112.88862433862434,113.58333333333333,112.88558201058201,116,112.88253968253969C118.41666666666667,112.87949735449736,120.83333333333334,112.87645502645503,123.25000000000001,112.87341269841271C125.66666666666667,112.87037037037038,128.08333333333334,112.86732804232804,130.5,112.86428571428571C132.91666666666666,112.86124338624339,135.33333333333334,112.85820105820105,137.75,112.85515873015872C140.16666666666666,112.8521164021164,142.58333333333334,112.84907407407408,145,112.84603174603176C147.41666666666666,112.84298941798943,149.83333333333334,112.83994708994709,152.25,112.83690476190476C154.66666666666666,112.83386243386244,157.08333333333334,112.83082010582011,159.5,112.82777777777778C161.91666666666666,112.82473544973546,164.33333333333334,112.82169312169312,166.75,112.81865079365079C169.16666666666666,112.81560846560846,171.58333333333334,112.81256613756614,174,112.80952380952381C176.41666666666666,112.80648148148148,178.83333333333334,112.80343915343916,181.25,112.80039682539683C183.66666666666666,112.7973544973545,186.08333333333334,112.79431216931216,188.5,112.79126984126984C190.91666666666666,112.78822751322751,193.33333333333334,112.78518518518518,195.75,112.78214285714286C198.16666666666669,112.77910052910053,200.58333333333334,112.7760582010582,203.00000000000003,112.77301587301588C205.41666666666669,112.76997354497355,207.83333333333331,112.76693121693121,210.24999999999997,112.76388888888889C212.66666666666666,112.76084656084656,215.08333333333331,112.75780423280423,217.5,112.7547619047619C219.91666666666666,112.75171957671958,222.33333333333334,112.74867724867724,224.75,112.74563492063491C227.16666666666666,112.74259259259259,229.58333333333334,112.73955026455027,232,112.73650793650795C234.41666666666666,112.73346560846562,236.83333333333334,112.73042328042328,239.25,112.72738095238095C241.66666666666669,112.72433862433863,244.08333333333334,112.72129629629629,246.50000000000003,112.71825396825396C248.91666666666669,112.71521164021163,251.33333333333331,112.71216931216931,253.74999999999997,112.70912698412698C256.16666666666663,112.70608465608466,258.5833333333333,112.70304232804233,261,112.7C263.4166666666667,112.69695767195768,265.8333333333333,112.69391534391535,268.25,112.69087301587302C270.6666666666667,112.6878306878307,273.0833333333333,112.68478835978836,275.5,112.68174603174603C277.9166666666667,112.6787037037037,280.3333333333333,112.67566137566136,282.75,112.67261904761904C285.1666666666667,112.66957671957671,287.5833333333333,112.6665343915344,290,112.66349206349207C292.4166666666667,112.66044973544975,294.8333333333333,112.6574074074074,297.25,112.65436507936508C299.6666666666667,112.65132275132275,302.0833333333333,112.64828042328043,304.5,112.6452380952381C306.9166666666667,112.64219576719577,309.3333333333333,112.63915343915343,311.75,112.6361111111111C314.1666666666667,112.63306878306878,316.5833333333333,112.63002645502645,319,112.62698412698413C321.4166666666667,112.6239417989418,323.8333333333333,112.62089947089947,326.25,112.61785714285715C328.6666666666667,112.61481481481482,331.0833333333333,112.61177248677248,333.5,112.60873015873015C335.9166666666667,112.60568783068783,338.3333333333333,112.6026455026455,340.75,112.59960317460317C343.1666666666667,112.59656084656085,345.5833333333333,112.59351851851852,348,112.5904761904762C350.4166666666667,112.58743386243387,352.8333333333333,112.58439153439153,355.25,112.5813492063492C357.6666666666667,112.57830687830688,360.0833333333333,112.57526455026455,362.5,112.57222222222222C364.9166666666667,112.5691798941799,367.3333333333333,112.56613756613756,369.75,112.56309523809523C372.1666666666667,112.5600529100529,374.5833333333333,112.55701058201059,377,112.55396825396826C379.4166666666667,112.55092592592594,381.8333333333333,112.5478835978836,384.25,112.54484126984127C386.6666666666667,112.54179894179894,389.0833333333333,112.5387566137566,391.5,112.53571428571428C393.9166666666667,112.53267195767195,396.33333333333337,112.52962962962962,398.75000000000006,112.5265873015873C401.16666666666674,112.52354497354497,403.58333333333337,112.52050264550265,406.00000000000006,112.51746031746032C408.4166666666667,112.51441798941799,410.8333333333333,112.51137566137565,413.24999999999994,112.50833333333333C415.66666666666663,112.505291005291,418.08333333333326,112.50224867724867,420.49999999999994,112.49920634920635C422.91666666666663,112.49616402116402,425.3333333333333,112.4931216931217,427.75,112.49007936507937C430.1666666666667,112.48703703703704,432.5833333333333,112.48399470899471,435,112.48095238095239C437.4166666666667,112.47791005291006,439.8333333333333,112.47486772486772,442.25,112.4718253968254C444.6666666666667,112.46878306878307,447.0833333333333,112.46574074074073,449.5,112.4626984126984C451.9166666666667,112.45965608465607,454.3333333333333,112.45661375661376,456.75,112.45357142857144C459.1666666666667,112.45052910052911,461.5833333333333,112.44748677248677,464,112.44444444444444C466.4166666666667,112.44140211640212,468.8333333333333,112.43835978835979,471.25,112.43531746031746C473.6666666666667,112.43227513227514,476.0833333333333,112.4292328042328,478.5,112.42619047619047C480.9166666666667,112.42314814814814,483.33333333333337,112.42010582010582,485.75000000000006,112.41706349206349C488.16666666666674,112.41402116402116,490.58333333333337,112.41097883597884,493.00000000000006,112.40793650793651C495.4166666666667,112.40489417989419,497.8333333333333,112.40185185185184,500.24999999999994,112.39880952380952C502.66666666666663,112.39576719576719,505.08333333333326,112.39272486772487,507.49999999999994,112.38968253968254C509.91666666666663,112.38664021164021,512.3333333333333,112.38359788359789,514.75,112.38055555555556C517.1666666666666,112.37751322751323,519.5833333333334,112.3744708994709,522,112.37142857142857C524.4166666666666,112.36838624338624,526.8333333333334,112.36534391534391,529.25,112.36230158730159C531.6666666666666,112.35925925925926,534.0833333333334,112.35621693121692,536.5,112.3531746031746C538.9166666666666,112.35013227513227,541.3333333333334,112.34708994708996,543.75,112.34404761904763C546.1666666666666,112.3410052910053,548.5833333333334,112.33796296296296,551,112.33492063492064C553.4166666666666,112.33187830687831,555.8333333333334,112.32883597883597,558.25,112.32579365079364C560.6666666666666,112.32275132275132,563.0833333333334,112.31970899470899,565.5,112.31666666666666C567.9166666666666,112.31362433862434,570.3333333333334,112.31058201058201,572.75,112.30753968253968C575.1666666666666,112.30449735449736,577.5833333333334,112.30145502645503,580,112.2984126984127C582.4166666666666,112.29537037037038,584.8333333333334,112.29232804232804,587.25,112.28928571428571C589.6666666666666,112.28624338624338,592.0833333333334,112.28320105820104,594.5,112.28015873015872C596.9166666666666,112.27711640211639,599.3333333333334,112.27407407407408,601.75,112.27103174603175C604.1666666666666,112.26798941798943,606.5833333333334,112.26494708994709,609,112.26190476190476C611.4166666666666,112.25886243386243,613.8333333333334,112.2558201058201,616.25,112.25277777777778C618.6666666666666,112.24973544973545,621.0833333333334,112.24669312169311,623.5,112.24365079365079C625.9166666666666,112.24060846560846,628.3333333333334,112.23756613756613,630.75,112.23452380952381C633.1666666666666,112.23148148148148,635.5833333333334,112.22843915343915,638,112.22539682539683C640.4166666666666,112.2223544973545,642.8333333333334,112.21931216931216,645.25,112.21626984126983C647.6666666666666,112.21322751322751,650.0833333333334,112.21018518518518,652.5,112.20714285714286C654.9166666666666,112.20410052910053,657.3333333333334,112.2010582010582,659.75,112.19801587301588C662.1666666666666,112.19497354497355,664.5833333333334,112.19193121693121,667,112.18888888888888C669.4166666666666,112.18584656084656,671.8333333333334,112.18280423280423,674.25,112.1797619047619C676.6666666666666,112.17671957671958,679.0833333333334,112.17367724867725,681.5,112.17063492063492C683.9166666666666,112.1675925925926,686.3333333333334,112.16455026455027,688.75,112.16150793650795C691.1666666666666,112.15846560846562,693.5833333333334,112.15542328042328,696,112.15238095238095C698.4166666666666,112.14933862433863,700.8333333333334,112.14629629629628,703.25,112.14325396825396C705.6666666666666,112.14021164021163,708.0833333333334,112.13716931216932,710.5,112.134126984127C712.9166666666666,112.13108465608467,715.3333333333334,112.12804232804233,717.75,112.125C720.1666666666666,112.12195767195767,722.5833333333334,112.11891534391535,725,112.11587301587302C727.4166666666666,112.1128306878307,729.8333333333334,112.10978835978835,732.25,112.10674603174603C734.6666666666666,112.1037037037037,737.0833333333334,112.10066137566137,739.5,112.09761904761905C741.9166666666666,112.09457671957672,744.3333333333334,112.0915343915344,746.75,112.08849206349207C749.1666666666666,112.08544973544974,751.5833333333334,112.0824074074074,754,112.07936507936508C756.4166666666666,112.07632275132275,758.8333333333334,112.07328042328042,761.25,112.0702380952381C763.6666666666666,112.06719576719577,766.0833333333334,112.06415343915344,768.5,112.06111111111112C770.9166666666666,112.05806878306879,773.3333333333334,112.05502645502645,775.75,112.05198412698412C778.1666666666666,112.0489417989418,780.5833333333334,112.04589947089947,783,112.04285714285714C785.4166666666667,112.03981481481482,787.8333333333334,112.03677248677248,790.2500000000001,112.03373015873015C792.6666666666667,112.03068783068782,795.0833333333335,112.02764550264551,797.5000000000001,112.02460317460319C799.9166666666667,112.02156084656086,802.3333333333335,112.01851851851852,804.7500000000001,112.01547619047619C807.1666666666667,112.01243386243387,809.5833333333335,112.00939153439153,812.0000000000001,112.0063492063492C814.4166666666667,112.00330687830687,816.8333333333333,112.00026455026455,819.2499999999999,111.99722222222222C821.6666666666665,111.9941798941799,824.0833333333333,111.99113756613757,826.4999999999999,111.98809523809524C828.9166666666665,111.98505291005291,831.3333333333333,111.98201058201059,833.7499999999999,111.97896825396826C836.1666666666665,111.97592592592594,838.5833333333333,111.9728835978836,840.9999999999999,111.96984126984127C843.4166666666666,111.96679894179894,845.8333333333333,111.9637566137566,848.25,111.96071428571427C850.6666666666666,111.95767195767195,853.0833333333334,111.95462962962964,855.5,111.95158730158731C857.9166666666666,111.94854497354498,860.3333333333334,111.94550264550264,862.75,111.94246031746032C865.1666666666666,111.93941798941799,867.5833333333334,111.93637566137566,870,111.93333333333334C872.4166666666666,111.93029100529101,874.8333333333334,111.92724867724867,877.25,111.92420634920634C879.6666666666666,111.92116402116402,882.0833333333334,111.91812169312169,884.5,111.91507936507936C886.9166666666666,111.91203703703704,889.3333333333334,111.90899470899471,891.75,111.90595238095239C894.1666666666666,111.90291005291006,896.5833333333334,111.89986772486772,899,111.89682539682539C901.4166666666666,111.89378306878307,903.8333333333334,111.89074074074074,906.25,111.88769841269841C908.6666666666666,111.88465608465609,911.0833333333334,111.88161375661376,913.5,111.87857142857143C915.9166666666666,111.8755291005291,918.3333333333334,111.87248677248677,920.75,111.86944444444444C923.1666666666666,111.86640211640211,925.5833333333334,111.86335978835979,928,111.86031746031746C930.4166666666666,111.85727513227513,932.8333333333334,111.85423280423281,935.25,111.85119047619048C937.6666666666666,111.84814814814816,940.0833333333334,111.84510582010583,942.5,111.8420634920635C944.9166666666666,111.83902116402118,947.3333333333334,111.83597883597884,949.75,111.83293650793651C952.1666666666666,111.82989417989418,954.5833333333334,111.82685185185184,957,111.82380952380952C959.4166666666666,111.82076719576719,961.8333333333334,111.81772486772486,964.25,111.81468253968254C966.6666666666667,111.81164021164021,969.0833333333334,111.80859788359788,971.5000000000001,111.80555555555556C973.9166666666667,111.80251322751323,976.3333333333335,111.7994708994709,978.7500000000001,111.79642857142858C981.1666666666667,111.79338624338625,983.5833333333335,111.79034391534391,986.0000000000001,111.78730158730158C988.4166666666667,111.78425925925926,990.8333333333335,111.78121693121693,993.2500000000001,111.7781746031746C995.6666666666667,111.77513227513228,998.0833333333333,111.77208994708995,1000.4999999999999,111.76904761904763C1002.9166666666665,111.7660052910053,1005.3333333333333,111.76296296296296,1007.7499999999999,111.75992063492063C1010.1666666666665,111.7568783068783,1012.5833333333333,111.75383597883598,1014.9999999999999,111.75079365079365C1017.4166666666665,111.74775132275133,1019.8333333333333,111.744708994709,1022.2499999999999,111.74166666666667C1024.6666666666665,111.73862433862435,1027.0833333333333,111.73558201058201,1029.5,111.73253968253968C1031.9166666666667,111.72949735449735,1034.3333333333333,111.72645502645503,1036.75,111.7234126984127C1039.1666666666667,111.72037037037038,1041.5833333333333,111.71732804232803,1044,111.71428571428571C1046.4166666666667,111.71124338624338,1048.8333333333333,111.70820105820107,1051.25,111.70515873015874C1053.6666666666667,111.70211640211642,1056.0833333333333,111.69907407407408,1058.5,111.69603174603175C1060.9166666666667,111.69298941798942,1063.3333333333333,111.68994708994708,1065.75,111.68690476190476C1068.1666666666667,111.68386243386243,1070.5833333333333,111.6808201058201,1073,111.67777777777778C1075.4166666666667,111.67473544973545,1077.8333333333333,111.67169312169312,1080.25,111.6686507936508C1082.6666666666667,111.66560846560847,1085.0833333333333,111.66256613756615,1087.5,111.65952380952382C1089.9166666666667,111.65648148148149,1092.3333333333333,111.65343915343915,1094.75,111.65039682539683C1097.1666666666667,111.6473544973545,1099.5833333333333,111.64431216931216,1102,111.64126984126983C1104.4166666666667,111.6382275132275,1106.8333333333333,111.6351851851852,1109.25,111.63214285714287C1111.6666666666667,111.62910052910054,1114.0833333333333,111.6260582010582,1116.5,111.62301587301587C1118.9166666666667,111.61997354497355,1121.3333333333333,111.6169312169312,1123.75,111.61388888888888C1126.1666666666667,111.61084656084655,1128.5833333333333,111.60780423280423,1131,111.6047619047619C1133.4166666666667,111.60171957671957,1135.8333333333333,111.59867724867725,1138.25,111.59563492063492C1140.6666666666667,111.5925925925926,1143.0833333333333,111.58955026455027,1145.5,111.58650793650794C1147.9166666666667,111.58346560846562,1150.3333333333333,111.58042328042328,1152.75,111.57738095238095C1155.1666666666667,111.57433862433862,1157.5833333333333,111.57129629629628,1160,111.56825396825396C1162.4166666666667,111.56521164021163,1164.8333333333333,111.56216931216932,1167.25,111.55912698412699C1169.6666666666667,111.55608465608466,1172.0833333333333,111.55304232804232,1174.5,111.55C1176.9166666666667,111.54695767195767,1179.3333333333333,111.54391534391534,1181.75,111.54087301587302C1184.1666666666667,111.53783068783069,1186.5833333333333,111.53478835978835,1189,111.53174603174602C1191.4166666666667,111.5287037037037,1193.8333333333333,111.52566137566137,1196.25,111.52261904761905C1198.6666666666667,111.51957671957672,1201.0833333333333,111.51653439153439,1203.5,111.51349206349207C1205.9166666666667,111.51044973544974,1208.3333333333333,111.5074074074074,1210.75,111.50436507936507C1213.1666666666667,111.50132275132275,1215.5833333333333,111.49828042328042,1218,111.4952380952381C1220.4166666666667,111.49219576719577,1222.8333333333333,111.48915343915344,1225.25,111.48611111111111C1227.6666666666667,111.48306878306879,1230.0833333333333,111.48002645502645,1232.5,111.47698412698412C1234.9166666666667,111.4739417989418,1237.3333333333333,111.47089947089947,1239.75,111.46785714285714C1242.1666666666667,111.46481481481482,1244.5833333333333,111.46177248677249,1247,111.45873015873016C1249.4166666666667,111.45568783068784,1251.8333333333333,111.45264550264551,1254.25,111.44960317460318C1256.6666666666667,111.44656084656086,1259.0833333333333,111.44351851851852,1261.5,111.44047619047619C1263.9166666666667,111.43743386243386,1266.3333333333333,111.43439153439152,1268.75,111.4313492063492C1271.1666666666667,111.42830687830687,1273.5833333333333,111.42526455026456,1276,111.42222222222223C1278.4166666666667,111.4191798941799,1280.8333333333333,111.41613756613756,1283.25,111.41309523809524C1285.6666666666667,111.41005291005291,1288.0833333333333,111.40701058201059,1290.5,111.40396825396826C1292.9166666666667,111.40092592592593,1295.3333333333333,111.39788359788359,1297.75,111.39484126984127C1300.1666666666667,111.39179894179894,1302.5833333333333,111.39179894179894,1305,111.38571428571429C1307.4166666666667,111.37962962962963,1309.8333333333333,108.1,1312.25,106.45714285714286C1314.6666666666667,104.81428571428572,1317.0833333333333,103.17142857142858,1319.5,101.52857142857144C1321.9166666666667,99.8857142857143,1324.3333333333333,98.24285714285713,1326.75,96.6C1329.1666666666667,94.95714285714286,1331.5833333333333,93.31428571428572,1334,91.67142857142858C1336.4166666666667,90.02857142857144,1338.8333333333333,88.38571428571427,1341.25,86.74285714285713C1343.6666666666667,85.1,1346.0833333333333,83.45714285714286,1348.5,81.81428571428572C1350.9166666666667,80.17142857142858,1353.3333333333333,78.52857142857142,1355.75,76.88571428571429C1358.1666666666667,75.24285714285715,1360.5833333333333,73.6,1363,71.95714285714286C1365.4166666666667,70.31428571428572,1367.8333333333333,68.67142857142856,1370.25,67.02857142857142C1372.6666666666667,65.38571428571429,1375.0833333333333,63.74285714285715,1377.5,62.1C1379.9166666666667,60.457142857142856,1382.3333333333333,58.81428571428572,1384.75,57.17142857142857C1387.1666666666667,55.528571428571425,1389.5833333333333,53.885714285714286,1392,52.24285714285714C1394.4166666666667,50.599999999999994,1396.8333333333333,48.957142857142856,1399.25,47.31428571428572C1401.6666666666667,45.67142857142858,1404.0833333333333,44.028571428571425,1406.5,42.385714285714286C1408.9166666666667,40.74285714285715,1411.3333333333333,39.1,1413.75,37.45714285714286C1416.1666666666667,35.814285714285724,1418.5833333333333,34.171428571428585,1421,32.52857142857144C1423.4166666666667,30.885714285714297,1425.8333333333333,29.24285714285714,1428.25,27.599999999999998C1430.6666666666667,25.957142857142856,1433.0833333333333,24.314285714285717,1435.5,22.671428571428574C1437.9166666666667,21.028571428571432,1440.3333333333333,19.385714285714283,1442.75,17.74285714285714C1445.1666666666667,16.099999999999998,1447.5833333333333,14.457142857142856,1450,12.814285714285715" fill="transparent" stroke-linecap="round" stroke="#E7C6DF" stroke-width="2"></path><g class="visx-group visx-axis visx-axis-bottom" transform="translate(0, 115)"><g class="visx-group visx-axis-tick" transform="translate(0, 0)"><line class="visx-line" x1="0" y1="0" x2="0" y2="8" fill="transparent" shape-rendering="crispEdges" stroke="#000" stroke-width="0" stroke-linecap="square"></line><svg x="0" y="0" font-size="10" style="overflow:visible"><text transform="" x="0" y="18" fill="#000" font-size="10" text-anchor="middle"><tspan x="0" dy="0em">0%</tspan></text></svg></g><g class="visx-group visx-axis-tick" transform="translate(0, 0)"><line class="visx-line" x1="362.5" y1="0" x2="362.5" y2="8" fill="transparent" shape-rendering="crispEdges" stroke="#000" stroke-width="0" stroke-linecap="square"></line><svg x="0" y="0" font-size="10" style="overflow:visible"><text transform="" x="362.5" y="18" fill="#000" font-size="10" text-anchor="middle"><tspan x="362.5" dy="0em">25%</tspan></text></svg></g><g class="visx-group visx-axis-tick" transform="translate(0, 0)"><line class="visx-line" x1="725" y1="0" x2="725" y2="8" fill="transparent" shape-rendering="crispEdges" stroke="#000" stroke-width="0" stroke-linecap="square"></line><svg x="0" y="0" font-size="10" style="overflow:visible"><text transform="" x="725" y="18" fill="#000" font-size="10" text-anchor="middle"><tspan x="725" dy="0em">50%</tspan></text></svg></g><g class="visx-group visx-axis-tick" transform="translate(0, 0)"><line class="visx-line" x1="1087.5" y1="0" x2="1087.5" y2="8" fill="transparent" shape-rendering="crispEdges" stroke="#000" stroke-width="0" stroke-linecap="square"></line><svg x="0" y="0" font-size="10" style="overflow:visible"><text transform="" x="1087.5" y="18" fill="#000" font-size="10" text-anchor="middle"><tspan x="1087.5" dy="0em">75%</tspan></text></svg></g><g class="visx-group visx-axis-tick" transform="translate(0, 0)"><line class="visx-line" x1="1450" y1="0" x2="1450" y2="8" fill="transparent" shape-rendering="crispEdges" stroke="#000" stroke-width="0" stroke-linecap="square"></line><svg x="0" y="0" font-size="10" style="overflow:visible"><text transform="" x="1450" y="18" fill="#000" font-size="10" text-anchor="middle"><tspan x="1450" dy="0em">100%</tspan></text></svg></g><line class="visx-line visx-axis-line" x1="0.5" y1="0" x2="1450.5" y2="0" fill="transparent" shape-rendering="crispEdges" stroke="#222" stroke-width="0"></line></g><g class="visx-group visx-axis visx-axis-left" transform="translate(0, 0)"><g class="visx-group visx-axis-tick" transform="translate(0, 0)"><line class="visx-line" x1="0" y1="115" x2="-8" y2="115" fill="transparent" shape-rendering="crispEdges" stroke="#222" stroke-width="0" stroke-linecap="square"></line><svg x="-30" y="0" font-size="8" style="overflow:visible"><text transform="" x="-8" y="115" fill="#000" font-size="8" text-anchor="start"><tspan x="-8" dy="0em">0%</tspan></text></svg></g><g class="visx-group visx-axis-tick" transform="translate(0, 0)"><line class="visx-line" x1="0" y1="49.28571428571429" x2="-8" y2="49.28571428571429" fill="transparent" shape-rendering="crispEdges" stroke="#222" stroke-width="0" stroke-linecap="square"></line><svg x="-30" y="0" font-size="8" style="overflow:visible"><text transform="" x="-8" y="49.28571428571429" fill="#000" font-size="8" text-anchor="start"><tspan x="-8" dy="0em">200%</tspan></text></svg></g><line class="visx-line visx-axis-line" x1="0" y1="115.5" x2="0" y2="0.5" fill="transparent" shape-rendering="crispEdges" stroke="#222" stroke-width="0"></line></g><rect class="visx-bar" width="1450" height="115" fill="transparent"></rect><line class="visx-line" x1="1305" y1="28" x2="1305" y2="115" fill="transparent" shape-rendering="crispEdges" stroke="#0062D2" stroke-width="1" pointer-events="none" stroke-dasharray="5,2"></line><svg x="0" y="0" font-size="10px" style="overflow:visible"><text transform="" x="1305" y="20" font-size="10px" fill="#fff" stroke="#fff" stroke-width="0.8em" text-anchor="middle"><tspan x="1305" dy="0.355em">Optimal 90%</tspan></text></svg><svg x="0" y="0" font-size="10px" style="overflow:visible"><text transform="" x="1305" y="20" font-size="10px" fill="#62677B" text-anchor="middle"><tspan x="1305" dy="0.355em">Optimal 90%</tspan></text></svg></g></svg>