<?xml version="1.0"?><svg xmlns="http://www.w3.org/2000/svg" xmlns:xlink= "http://www.w3.org/1999/xlink" style="background: white;" width="1500" height="185"> <g style="color: black; font-size: 13px; font-family: sans-serif; transform: translate(18px, 25px);"><g><circle r="3" cx="-6" cy="-5" style="fill: #B6509E" /><text>Borrow APR, variable</text></g><g style="transform: translateX(150px);"><circle r="3" cx="-6" cy="-5" style="fill: rgb(231, 198, 223)" /><text>Borrow APR, stable</text></g><g style="transform: translateX(290px);"><circle r="3" cx="-6" cy="-5" style="fill: rgb(0, 98, 210)" /><text>Utilization Rate</text></g></g><g class="visx-group" transform="translate(40, 50)"><g class="visx-group visx-rows" transform="translate(0, 0)"><line class="visx-line" x1="0" y1="115" x2="1450" y2="115" fill="transparent" shape-rendering="crispEdges" stroke="#000" stroke-width="1" stroke-dasharray="3,3" pointer-events="none"></line><line class="visx-line" x1="0" y1="86.25" x2="1450" y2="86.25" fill="transparent" shape-rendering="crispEdges" stroke="#000" stroke-width="1" stroke-dasharray="3,3" pointer-events="none"></line><line class="visx-line" x1="0" y1="57.5" x2="1450" y2="57.5" fill="transparent" shape-rendering="crispEdges" stroke="#000" stroke-width="1" stroke-dasharray="3,3" pointer-events="none"></line><line class="visx-line" x1="0" y1="28.75" x2="1450" y2="28.75" fill="transparent" shape-rendering="crispEdges" stroke="#000" stroke-width="1" stroke-dasharray="3,3" pointer-events="none"></line><line class="visx-line" x1="0" y1="0" x2="1450" y2="0" fill="transparent" shape-rendering="crispEdges" stroke="#000" stroke-width="1" stroke-dasharray="3,3" pointer-events="none"></line></g><path class="visx-linepath" d="M0,114.99999999994249C2.4166666666666665,114.99041666663311,4.833333333333334,114.98083333332374,7.25,114.97125C9.666666666666666,114.96166666667625,12.083333333333334,114.95208333333335,14.5,114.94250000000001C16.916666666666668,114.93291666666667,19.333333333333332,114.92333333333333,21.75,114.91375C24.166666666666668,114.90416666666665,26.583333333333332,114.89458333333333,29,114.885C31.416666666666668,114.87541666666668,33.833333333333336,114.86583333333334,36.25,114.85625C38.666666666666664,114.84666666666666,41.083333333333336,114.83708333333334,43.5,114.8275C45.91666666666667,114.81791666666666,48.333333333333336,114.80833333333334,50.75000000000001,114.79875C53.16666666666667,114.78916666666666,55.583333333333336,114.77958333333332,58,114.77C60.416666666666664,114.76041666666666,62.833333333333336,114.75083333333333,65.25,114.74125000000001C67.66666666666667,114.73166666666668,70.08333333333333,114.72208333333334,72.5,114.7125C74.91666666666667,114.70291666666667,77.33333333333333,114.69333333333334,79.75,114.68375C82.16666666666667,114.67416666666666,84.58333333333333,114.66458333333334,87,114.655C89.41666666666667,114.64541666666666,91.83333333333333,114.63583333333332,94.25,114.62625C96.66666666666667,114.61666666666666,99.08333333333334,114.60708333333335,101.50000000000001,114.59750000000001C103.91666666666667,114.58791666666667,106.33333333333334,114.57833333333333,108.75,114.56875C111.16666666666667,114.55916666666666,113.58333333333333,114.54958333333333,116,114.54C118.41666666666667,114.53041666666667,120.83333333333334,114.52083333333334,123.25000000000001,114.51125C125.66666666666667,114.50166666666667,128.08333333333334,114.49208333333334,130.5,114.4825C132.91666666666666,114.47291666666666,135.33333333333334,114.46333333333334,137.75,114.45375C140.16666666666666,114.44416666666666,142.58333333333334,114.43458333333332,145,114.425C147.41666666666666,114.41541666666667,149.83333333333334,114.40583333333333,152.25,114.39625000000001C154.66666666666666,114.38666666666668,157.08333333333334,114.37708333333335,159.5,114.3675C161.91666666666666,114.35791666666667,164.33333333333334,114.34833333333333,166.75,114.33874999999999C169.16666666666666,114.32916666666665,171.58333333333334,114.31958333333333,174,114.31C176.41666666666666,114.30041666666668,178.83333333333334,114.29083333333332,181.25,114.28125C183.66666666666666,114.27166666666668,186.08333333333334,114.26208333333335,188.5,114.25250000000001C190.91666666666666,114.24291666666667,193.33333333333334,114.23333333333333,195.75,114.22375C198.16666666666669,114.21416666666666,200.58333333333334,114.20458333333333,203.00000000000003,114.195C205.41666666666669,114.18541666666667,207.83333333333331,114.17583333333333,210.24999999999997,114.16625C212.66666666666666,114.15666666666667,215.08333333333331,114.14708333333334,217.5,114.1375C219.91666666666666,114.12791666666666,222.33333333333334,114.11833333333334,224.75,114.10875C227.16666666666666,114.09916666666666,229.58333333333334,114.08958333333334,232,114.08C234.41666666666666,114.07041666666666,236.83333333333334,114.06083333333332,239.25,114.05125C241.66666666666669,114.04166666666666,244.08333333333334,114.03208333333335,246.50000000000003,114.02250000000001C248.91666666666669,114.01291666666667,251.33333333333331,114.00333333333333,253.74999999999997,113.99374999999999C256.16666666666663,113.98416666666665,258.5833333333333,113.97458333333334,261,113.965C263.4166666666667,113.95541666666668,265.8333333333333,113.94583333333334,268.25,113.93625C270.6666666666667,113.92666666666666,273.0833333333333,113.91708333333334,275.5,113.9075C277.9166666666667,113.89791666666666,280.3333333333333,113.88833333333334,282.75,113.87875C285.1666666666667,113.86916666666666,287.5833333333333,113.85958333333332,290,113.85C292.4166666666667,113.84041666666667,294.8333333333333,113.83083333333333,297.25,113.82125C299.6666666666667,113.81166666666668,302.0833333333333,113.80208333333334,304.5,113.7925C306.9166666666667,113.78291666666667,309.3333333333333,113.77333333333334,311.75,113.76375C314.1666666666667,113.75416666666666,316.5833333333333,113.74458333333334,319,113.735C321.4166666666667,113.72541666666666,323.8333333333333,113.71583333333332,326.25,113.70625C328.6666666666667,113.69666666666667,331.0833333333333,113.68708333333335,333.5,113.67750000000001C335.9166666666667,113.66791666666667,338.3333333333333,113.65833333333333,340.75,113.64874999999999C343.1666666666667,113.63916666666665,345.5833333333333,113.62958333333333,348,113.62C350.4166666666667,113.61041666666668,352.8333333333333,113.60083333333334,355.25,113.59125C357.6666666666667,113.58166666666666,360.0833333333333,113.57208333333334,362.5,113.5625C364.9166666666667,113.55291666666666,367.3333333333333,113.54333333333334,369.75,113.53375C372.1666666666667,113.52416666666666,374.5833333333333,113.51458333333332,377,113.505C379.4166666666667,113.49541666666667,381.8333333333333,113.48583333333333,384.25,113.47625000000001C386.6666666666667,113.46666666666668,389.0833333333333,113.45708333333334,391.5,113.4475C393.9166666666667,113.43791666666667,396.33333333333337,113.42833333333333,398.75000000000006,113.41874999999999C401.16666666666674,113.40916666666665,403.58333333333337,113.39958333333334,406.00000000000006,113.39C408.4166666666667,113.38041666666668,410.8333333333333,113.37083333333332,413.24999999999994,113.36125C415.66666666666663,113.35166666666666,418.08333333333326,113.34208333333335,420.49999999999994,113.33250000000001C422.91666666666663,113.32291666666667,425.3333333333333,113.31333333333333,427.75,113.30375C430.1666666666667,113.29416666666665,432.5833333333333,113.28458333333332,435,113.27499999999999C437.4166666666667,113.26541666666667,439.8333333333333,113.25583333333333,442.25,113.24625C444.6666666666667,113.23666666666668,447.0833333333333,113.22708333333334,449.5,113.2175C451.9166666666667,113.20791666666666,454.3333333333333,113.19833333333334,456.75,113.18875C459.1666666666667,113.17916666666666,461.5833333333333,113.16958333333332,464,113.16C466.4166666666667,113.15041666666667,468.8333333333333,113.14083333333333,471.25,113.13125000000001C473.6666666666667,113.12166666666668,476.0833333333333,113.11208333333335,478.5,113.1025C480.9166666666667,113.09291666666667,483.33333333333337,113.08333333333333,485.75000000000006,113.07374999999999C488.16666666666674,113.06416666666665,490.58333333333337,113.05458333333334,493.00000000000006,113.045C495.4166666666667,113.03541666666668,497.8333333333333,113.02583333333332,500.24999999999994,113.01625C502.66666666666663,113.00666666666666,505.08333333333326,112.99708333333335,507.49999999999994,112.98750000000001C509.91666666666663,112.97791666666667,512.3333333333333,112.96833333333333,514.75,112.95875C517.1666666666666,112.94916666666666,519.5833333333334,112.93958333333332,522,112.92999999999999C524.4166666666666,112.92041666666667,526.8333333333334,112.91083333333333,529.25,112.90125C531.6666666666666,112.89166666666668,534.0833333333334,112.88208333333334,536.5,112.8725C538.9166666666666,112.86291666666666,541.3333333333334,112.85333333333334,543.75,112.84375C546.1666666666666,112.83416666666666,548.5833333333334,112.82458333333334,551,112.815C553.4166666666666,112.80541666666666,555.8333333333334,112.79583333333332,558.25,112.78625C560.6666666666666,112.77666666666667,563.0833333333334,112.76708333333335,565.5,112.75750000000001C567.9166666666666,112.74791666666667,570.3333333333334,112.73833333333333,572.75,112.72874999999999C575.1666666666666,112.71916666666665,577.5833333333334,112.71916666666667,580,112.7C582.4166666666666,112.68083333333334,584.8333333333334,112.16652777777779,587.25,111.89979166666667C589.6666666666666,111.63305555555556,592.0833333333334,111.36631944444444,594.5,111.09958333333333C596.9166666666666,110.83284722222221,599.3333333333334,110.56611111111111,601.75,110.299375C604.1666666666666,110.03263888888888,606.5833333333334,109.76590277777778,609,109.49916666666667C611.4166666666666,109.23243055555555,613.8333333333334,108.96569444444445,616.25,108.69895833333334C618.6666666666666,108.43222222222222,621.0833333333334,108.16548611111112,623.5,107.89875C625.9166666666666,107.63201388888889,628.3333333333334,107.36527777777778,630.75,107.09854166666666C633.1666666666666,106.83180555555555,635.5833333333334,106.56506944444445,638,106.29833333333333C640.4166666666666,106.03159722222222,642.8333333333334,105.76486111111112,645.25,105.498125C647.6666666666666,105.23138888888889,650.0833333333334,104.96465277777779,652.5,104.69791666666667C654.9166666666666,104.43118055555556,657.3333333333334,104.16444444444446,659.75,103.89770833333334C662.1666666666666,103.63097222222223,664.5833333333334,103.36423611111111,667,103.0975C669.4166666666666,102.83076388888888,671.8333333333334,102.56402777777778,674.25,102.29729166666667C676.6666666666666,102.03055555555555,679.0833333333334,101.76381944444444,681.5,101.49708333333332C683.9166666666666,101.2303472222222,686.3333333333334,100.9636111111111,688.75,100.69687499999999C691.1666666666666,100.43013888888888,693.5833333333334,100.16340277777779,696,99.89666666666668C698.4166666666666,99.62993055555556,700.8333333333334,99.36319444444445,703.25,99.09645833333333C705.6666666666666,98.82972222222222,708.0833333333334,98.56298611111112,710.5,98.29625C712.9166666666666,98.02951388888889,715.3333333333334,97.76277777777779,717.75,97.49604166666667C720.1666666666666,97.22930555555556,722.5833333333334,96.96256944444444,725,96.69583333333333C727.4166666666666,96.42909722222221,729.8333333333334,96.16236111111112,732.25,95.89562500000001C734.6666666666666,95.6288888888889,737.0833333333334,95.36215277777778,739.5,95.09541666666667C741.9166666666666,94.82868055555555,744.3333333333334,94.56194444444445,746.75,94.29520833333333C749.1666666666666,94.02847222222222,751.5833333333334,93.7617361111111,754,93.49499999999999C756.4166666666666,93.22826388888888,758.8333333333334,92.96152777777777,761.25,92.69479166666666C763.6666666666666,92.42805555555555,766.0833333333334,92.16131944444446,768.5,91.89458333333334C770.9166666666666,91.62784722222223,773.3333333333334,91.36111111111111,775.75,91.094375C778.1666666666666,90.82763888888888,780.5833333333334,90.56090277777778,783,90.29416666666667C785.4166666666667,90.02743055555555,787.8333333333334,89.76069444444445,790.2500000000001,89.49395833333334C792.6666666666667,89.22722222222222,795.0833333333335,88.96048611111111,797.5000000000001,88.69375C799.9166666666667,88.42701388888888,802.3333333333335,88.16027777777778,804.7500000000001,87.89354166666666C807.1666666666667,87.62680555555555,809.5833333333335,87.36006944444445,812.0000000000001,87.09333333333333C814.4166666666667,86.82659722222223,816.8333333333333,86.55986111111112,819.2499999999999,86.293125C821.6666666666665,86.02638888888889,824.0833333333333,85.75965277777777,826.4999999999999,85.49291666666666C828.9166666666665,85.22618055555554,831.3333333333333,84.95944444444444,833.7499999999999,84.69270833333333C836.1666666666665,84.42597222222221,838.5833333333333,84.15923611111111,840.9999999999999,83.8925C843.4166666666666,83.62576388888888,845.8333333333333,83.35902777777778,848.25,83.09229166666667C850.6666666666666,82.82555555555555,853.0833333333334,82.55881944444445,855.5,82.29208333333334C857.9166666666666,82.02534722222222,860.3333333333334,81.75861111111112,862.75,81.49187500000001C865.1666666666666,81.22513888888889,867.5833333333334,80.95840277777778,870,80.69166666666666C872.4166666666666,80.42493055555555,874.8333333333334,80.15819444444443,877.25,79.89145833333332C879.6666666666666,79.6247222222222,882.0833333333334,79.3579861111111,884.5,79.09125C886.9166666666666,78.8245138888889,889.3333333333334,78.55777777777779,891.75,78.29104166666667C894.1666666666666,78.02430555555556,896.5833333333334,77.75756944444444,899,77.49083333333333C901.4166666666666,77.22409722222221,903.8333333333334,76.95736111111111,906.25,76.690625C908.6666666666666,76.42388888888888,911.0833333333334,76.15715277777778,913.5,75.89041666666667C915.9166666666666,75.62368055555555,918.3333333333334,75.35694444444445,920.75,75.09020833333334C923.1666666666666,74.82347222222222,925.5833333333334,74.55673611111112,928,74.29C930.4166666666666,74.02326388888889,932.8333333333334,73.75652777777779,935.25,73.48979166666668C937.6666666666666,73.22305555555556,940.0833333333334,72.95631944444445,942.5,72.68958333333333C944.9166666666666,72.42284722222222,947.3333333333334,72.1561111111111,949.75,71.88937499999999C952.1666666666666,71.62263888888887,954.5833333333334,71.35590277777777,957,71.08916666666667C959.4166666666666,70.82243055555557,961.8333333333334,70.55569444444446,964.25,70.28895833333334C966.6666666666667,70.02222222222223,969.0833333333334,69.75548611111113,971.5000000000001,69.48875000000001C973.9166666666667,69.2220138888889,976.3333333333335,68.95527777777778,978.7500000000001,68.68854166666667C981.1666666666667,68.42180555555555,983.5833333333335,68.15506944444445,986.0000000000001,67.88833333333334C988.4166666666667,67.62159722222222,990.8333333333335,67.3548611111111,993.2500000000001,67.08812499999999C995.6666666666667,66.82138888888888,998.0833333333333,66.55465277777776,1000.4999999999999,66.28791666666666C1002.9166666666665,66.02118055555555,1005.3333333333333,65.75444444444446,1007.7499999999999,65.48770833333334C1010.1666666666665,65.22097222222223,1012.5833333333333,64.95423611111111,1014.9999999999999,64.6875C1017.4166666666665,64.42076388888889,1019.8333333333333,64.15402777777776,1022.2499999999999,63.887291666666655C1024.6666666666665,63.62055555555555,1027.0833333333333,63.353819444444454,1029.5,63.08708333333335C1031.9166666666667,62.82034722222224,1034.3333333333333,62.55361111111112,1036.75,62.286875C1039.1666666666667,62.02013888888889,1041.5833333333333,61.75340277777778,1044,61.486666666666665C1046.4166666666667,61.21993055555555,1048.8333333333333,60.95319444444445,1051.25,60.686458333333334C1053.6666666666667,60.41972222222222,1056.0833333333333,60.152986111111105,1058.5,59.88624999999999C1060.9166666666667,59.619513888888875,1063.3333333333333,59.352777777777774,1065.75,59.08604166666667C1068.1666666666667,58.81930555555556,1070.5833333333333,58.55256944444445,1073,58.285833333333336C1075.4166666666667,58.01909722222222,1077.8333333333333,57.7523611111111,1080.25,57.48562499999999C1082.6666666666667,57.218888888888884,1085.0833333333333,56.952152777777776,1087.5,56.68541666666667C1089.9166666666667,56.41868055555556,1092.3333333333333,56.15194444444445,1094.75,55.88520833333334C1097.1666666666667,55.61847222222222,1099.5833333333333,55.35173611111111,1102,55.085C1104.4166666666667,54.81826388888889,1106.8333333333333,54.551527777777785,1109.25,54.28479166666667C1111.6666666666667,54.018055555555556,1114.0833333333333,53.751319444444434,1116.5,53.484583333333326C1118.9166666666667,53.21784722222222,1121.3333333333333,52.95111111111111,1123.75,52.684375C1126.1666666666667,52.417638888888895,1128.5833333333333,52.15090277777779,1131,51.88416666666667C1133.4166666666667,51.61743055555556,1135.8333333333333,51.35069444444444,1138.25,51.08395833333333C1140.6666666666667,50.81722222222221,1143.0833333333333,50.55048611111111,1145.5,50.283750000000005C1147.9166666666667,50.0170138888889,1150.3333333333333,49.75027777777777,1152.75,49.48354166666666C1155.1666666666667,49.21680555555555,1157.5833333333333,48.950069444444445,1160,48.68333333333334C1162.4166666666667,48.41659722222223,1164.8333333333333,48.14986111111112,1167.25,47.88312500000001C1169.6666666666667,47.61638888888889,1172.0833333333333,47.34965277777778,1174.5,47.08291666666666C1176.9166666666667,46.81618055555555,1179.3333333333333,46.54944444444445,1181.75,46.28270833333334C1184.1666666666667,46.01597222222223,1186.5833333333333,45.74923611111111,1189,45.482499999999995C1191.4166666666667,45.21576388888888,1193.8333333333333,44.94902777777777,1196.25,44.682291666666664C1198.6666666666667,44.41555555555556,1201.0833333333333,44.148819444444456,1203.5,43.88208333333334C1205.9166666666667,43.615347222222226,1208.3333333333333,43.34861111111111,1210.75,43.081875C1213.1666666666667,42.81513888888888,1215.5833333333333,42.54840277777778,1218,42.28166666666667C1220.4166666666667,42.014930555555566,1222.8333333333333,41.748194444444444,1225.25,41.48145833333333C1227.6666666666667,41.214722222222214,1230.0833333333333,40.947986111111106,1232.5,40.68125C1234.9166666666667,40.41451388888889,1237.3333333333333,40.14777777777779,1239.75,39.881041666666675C1242.1666666666667,39.61430555555556,1244.5833333333333,39.347569444444446,1247,39.08083333333333C1249.4166666666667,38.814097222222216,1251.8333333333333,38.547361111111115,1254.25,38.280625C1256.6666666666667,38.013888888888886,1259.0833333333333,37.74715277777778,1261.5,37.48041666666666C1263.9166666666667,37.21368055555555,1266.3333333333333,36.946944444444426,1268.75,36.68020833333332C1271.1666666666667,36.41347222222221,1273.5833333333333,36.14673611111112,1276,35.88000000000001C1278.4166666666667,35.6132638888889,1280.8333333333333,35.34652777777778,1283.25,35.079791666666665C1285.6666666666667,34.81305555555555,1288.0833333333333,34.54631944444445,1290.5,34.279583333333335C1292.9166666666667,34.01284722222222,1295.3333333333333,33.746111111111105,1297.75,33.479375C1300.1666666666667,33.21263888888889,1302.5833333333333,32.94590277777778,1305,32.67916666666667C1307.4166666666667,32.41243055555555,1309.8333333333333,32.14569444444444,1312.25,31.878958333333326C1314.6666666666667,31.612222222222215,1317.0833333333333,31.34548611111112,1319.5,31.07875000000001C1321.9166666666667,30.8120138888889,1324.3333333333333,30.545277777777784,1326.75,30.27854166666667C1329.1666666666667,30.011805555555554,1331.5833333333333,29.74506944444444,1334,29.478333333333328C1336.4166666666667,29.211597222222217,1338.8333333333333,28.944861111111113,1341.25,28.678125C1343.6666666666667,28.41138888888889,1346.0833333333333,28.14465277777777,1348.5,27.87791666666666C1350.9166666666667,27.61118055555555,1353.3333333333333,27.34444444444444,1355.75,27.077708333333334C1358.1666666666667,26.810972222222226,1360.5833333333333,26.544236111111115,1363,26.277500000000003C1365.4166666666667,26.010763888888892,1367.8333333333333,25.744027777777777,1370.25,25.477291666666662C1372.6666666666667,25.210555555555548,1375.0833333333333,24.943819444444436,1377.5,24.67708333333332C1379.9166666666667,24.410347222222207,1382.3333333333333,24.143611111111092,1384.75,23.87687499999998C1387.1666666666667,23.61013888888887,1389.5833333333333,23.343402777777772,1392,23.076666666666664C1394.4166666666667,22.809930555555557,1396.8333333333333,22.54319444444445,1399.25,22.276458333333338C1401.6666666666667,22.009722222222226,1404.0833333333333,21.742986111111108,1406.5,21.476249999999997C1408.9166666666667,21.209513888888885,1411.3333333333333,20.94277777777778,1413.75,20.67604166666667C1416.1666666666667,20.40930555555556,1418.5833333333333,20.14256944444444,1421,19.87583333333333C1423.4166666666667,19.609097222222218,1425.8333333333333,19.342361111111124,1428.25,19.075625000000013C1430.6666666666667,18.8088888888889,1433.0833333333333,18.542152777777787,1435.5,18.275416666666672C1437.9166666666667,18.008680555555557,1440.3333333333333,17.741944444444442,1442.75,17.47520833333333C1445.1666666666667,17.20847222222222,1447.5833333333333,16.94173611111111,1450,16.675" fill="transparent" stroke-linecap="round" stroke="#B6509E" stroke-width="2"></path><path class="visx-linepath" d="M0,109.24999999997125C2.4166666666666665,109.24520833331657,4.833333333333334,109.24041666666187,7.25,109.235625C9.666666666666666,109.23083333333813,12.083333333333334,109.22604166666666,14.5,109.22125C16.916666666666668,109.21645833333334,19.333333333333332,109.21166666666666,21.75,109.206875C24.166666666666668,109.20208333333333,26.583333333333332,109.19729166666666,29,109.1925C31.416666666666668,109.18770833333333,33.833333333333336,109.18291666666666,36.25,109.178125C38.666666666666664,109.17333333333333,41.083333333333336,109.16854166666667,43.5,109.16375000000001C45.91666666666667,109.15895833333335,48.333333333333336,109.15416666666668,50.75000000000001,109.149375C53.16666666666667,109.14458333333334,55.583333333333336,109.13979166666665,58,109.13499999999999C60.416666666666664,109.13020833333333,62.833333333333336,109.12541666666667,65.25,109.120625C67.66666666666667,109.11583333333334,70.08333333333333,109.11104166666667,72.5,109.10625C74.91666666666667,109.10145833333334,77.33333333333333,109.09666666666666,79.75,109.091875C82.16666666666667,109.08708333333334,84.58333333333333,109.08229166666666,87,109.0775C89.41666666666667,109.07270833333334,91.83333333333333,109.06791666666666,94.25,109.063125C96.66666666666667,109.05833333333334,99.08333333333334,109.05354166666666,101.50000000000001,109.04875C103.91666666666667,109.04395833333334,106.33333333333334,109.03916666666666,108.75,109.034375C111.16666666666667,109.02958333333333,113.58333333333333,109.02479166666666,116,109.02C118.41666666666667,109.01520833333333,120.83333333333334,109.01041666666667,123.25000000000001,109.00562500000001C125.66666666666667,109.00083333333335,128.08333333333334,108.99604166666666,130.5,108.99125C132.91666666666666,108.98645833333333,135.33333333333334,108.98166666666667,137.75,108.976875C140.16666666666666,108.97208333333334,142.58333333333334,108.96729166666668,145,108.9625C147.41666666666666,108.95770833333333,149.83333333333334,108.95291666666665,152.25,108.94812499999999C154.66666666666666,108.94333333333333,157.08333333333334,108.93854166666667,159.5,108.93375C161.91666666666666,108.92895833333334,164.33333333333334,108.92416666666666,166.75,108.919375C169.16666666666666,108.91458333333334,171.58333333333334,108.90979166666666,174,108.905C176.41666666666666,108.90020833333334,178.83333333333334,108.89541666666666,181.25,108.890625C183.66666666666666,108.88583333333334,186.08333333333334,108.88104166666666,188.5,108.87625C190.91666666666666,108.87145833333334,193.33333333333334,108.86666666666667,195.75,108.86187500000001C198.16666666666669,108.85708333333335,200.58333333333334,108.85229166666667,203.00000000000003,108.8475C205.41666666666669,108.84270833333333,207.83333333333331,108.83791666666666,210.24999999999997,108.833125C212.66666666666666,108.82833333333333,215.08333333333331,108.82354166666667,217.5,108.81875000000001C219.91666666666666,108.81395833333335,222.33333333333334,108.80916666666667,224.75,108.804375C227.16666666666666,108.79958333333332,229.58333333333334,108.79479166666665,232,108.78999999999999C234.41666666666666,108.78520833333333,236.83333333333334,108.78041666666667,239.25,108.775625C241.66666666666669,108.77083333333334,244.08333333333334,108.76604166666667,246.50000000000003,108.76125C248.91666666666669,108.75645833333334,251.33333333333331,108.75166666666667,253.74999999999997,108.746875C256.16666666666663,108.74208333333334,258.5833333333333,108.73729166666666,261,108.7325C263.4166666666667,108.72770833333334,265.8333333333333,108.72291666666666,268.25,108.718125C270.6666666666667,108.71333333333334,273.0833333333333,108.70854166666666,275.5,108.70375C277.9166666666667,108.69895833333334,280.3333333333333,108.69416666666666,282.75,108.689375C285.1666666666667,108.68458333333334,287.5833333333333,108.67979166666666,290,108.675C292.4166666666667,108.67020833333333,294.8333333333333,108.66541666666666,297.25,108.660625C299.6666666666667,108.65583333333333,302.0833333333333,108.65104166666666,304.5,108.64625C306.9166666666667,108.64145833333333,309.3333333333333,108.63666666666667,311.75,108.63187500000001C314.1666666666667,108.62708333333335,316.5833333333333,108.62229166666668,319,108.6175C321.4166666666667,108.61270833333333,323.8333333333333,108.60791666666665,326.25,108.60312499999999C328.6666666666667,108.59833333333333,331.0833333333333,108.59354166666667,333.5,108.58875C335.9166666666667,108.58395833333334,338.3333333333333,108.57916666666668,340.75,108.574375C343.1666666666667,108.56958333333333,345.5833333333333,108.56479166666665,348,108.55999999999999C350.4166666666667,108.55520833333333,352.8333333333333,108.55041666666666,355.25,108.545625C357.6666666666667,108.54083333333334,360.0833333333333,108.53604166666666,362.5,108.53125C364.9166666666667,108.52645833333334,367.3333333333333,108.52166666666666,369.75,108.516875C372.1666666666667,108.51208333333334,374.5833333333333,108.50729166666666,377,108.5025C379.4166666666667,108.49770833333334,381.8333333333333,108.49291666666666,384.25,108.488125C386.6666666666667,108.48333333333333,389.0833333333333,108.47854166666667,391.5,108.47375000000001C393.9166666666667,108.46895833333335,396.33333333333337,108.46416666666667,398.75000000000006,108.459375C401.16666666666674,108.45458333333333,403.58333333333337,108.44979166666666,406.00000000000006,108.445C408.4166666666667,108.44020833333333,410.8333333333333,108.43541666666667,413.24999999999994,108.430625C415.66666666666663,108.42583333333334,418.08333333333326,108.42104166666665,420.49999999999994,108.41624999999999C422.91666666666663,108.41145833333333,425.3333333333333,108.40666666666667,427.75,108.401875C430.1666666666667,108.39708333333334,432.5833333333333,108.39229166666667,435,108.3875C437.4166666666667,108.38270833333334,439.8333333333333,108.37791666666666,442.25,108.373125C444.6666666666667,108.36833333333334,447.0833333333333,108.36354166666666,449.5,108.35875C451.9166666666667,108.35395833333334,454.3333333333333,108.34916666666666,456.75,108.344375C459.1666666666667,108.33958333333334,461.5833333333333,108.33479166666666,464,108.33C466.4166666666667,108.32520833333334,468.8333333333333,108.32041666666666,471.25,108.315625C473.6666666666667,108.31083333333333,476.0833333333333,108.30604166666666,478.5,108.30125C480.9166666666667,108.29645833333333,483.33333333333337,108.29166666666667,485.75000000000006,108.28687500000001C488.16666666666674,108.28208333333335,490.58333333333337,108.27729166666667,493.00000000000006,108.2725C495.4166666666667,108.26770833333333,497.8333333333333,108.26291666666665,500.24999999999994,108.25812499999999C502.66666666666663,108.25333333333333,505.08333333333326,108.24854166666667,507.49999999999994,108.24375C509.91666666666663,108.23895833333334,512.3333333333333,108.23416666666667,514.75,108.229375C517.1666666666666,108.22458333333334,519.5833333333334,108.21979166666667,522,108.215C524.4166666666666,108.21020833333334,526.8333333333334,108.20541666666666,529.25,108.200625C531.6666666666666,108.19583333333334,534.0833333333334,108.19104166666666,536.5,108.18625C538.9166666666666,108.18145833333334,541.3333333333334,108.17666666666666,543.75,108.171875C546.1666666666666,108.16708333333334,548.5833333333334,108.16229166666666,551,108.1575C553.4166666666666,108.15270833333334,555.8333333333334,108.14791666666666,558.25,108.143125C560.6666666666666,108.13833333333334,563.0833333333334,108.13354166666666,565.5,108.12875C567.9166666666666,108.12395833333333,570.3333333333334,108.11916666666666,572.75,108.114375C575.1666666666666,108.10958333333333,577.5833333333334,108.10958333333333,580,108.1C582.4166666666666,108.09041666666666,584.8333333333334,107.86041666666668,587.25,107.74062500000001C589.6666666666666,107.62083333333334,592.0833333333334,107.50104166666667,594.5,107.38125C596.9166666666666,107.26145833333332,599.3333333333334,107.14166666666668,601.75,107.02187500000001C604.1666666666666,106.90208333333334,606.5833333333334,106.78229166666667,609,106.6625C611.4166666666666,106.54270833333332,613.8333333333334,106.42291666666665,616.25,106.303125C618.6666666666666,106.18333333333334,621.0833333333334,106.06354166666668,623.5,105.94375000000001C625.9166666666666,105.82395833333334,628.3333333333334,105.70416666666667,630.75,105.584375C633.1666666666666,105.46458333333332,635.5833333333334,105.34479166666668,638,105.22500000000001C640.4166666666666,105.10520833333334,642.8333333333334,104.98541666666667,645.25,104.865625C647.6666666666666,104.74583333333332,650.0833333333334,104.62604166666665,652.5,104.50625C654.9166666666666,104.38645833333334,657.3333333333334,104.26666666666668,659.75,104.14687500000001C662.1666666666666,104.02708333333334,664.5833333333334,103.90729166666667,667,103.7875C669.4166666666666,103.66770833333332,671.8333333333334,103.54791666666668,674.25,103.42812500000001C676.6666666666666,103.30833333333334,679.0833333333334,103.18854166666667,681.5,103.06875C683.9166666666666,102.94895833333332,686.3333333333334,102.82916666666665,688.75,102.709375C691.1666666666666,102.58958333333334,693.5833333333334,102.46979166666668,696,102.35000000000001C698.4166666666666,102.23020833333334,700.8333333333334,102.11041666666667,703.25,101.990625C705.6666666666666,101.87083333333332,708.0833333333334,101.75104166666668,710.5,101.63125000000001C712.9166666666666,101.51145833333334,715.3333333333334,101.39166666666667,717.75,101.271875C720.1666666666666,101.15208333333332,722.5833333333334,101.03229166666665,725,100.9125C727.4166666666666,100.79270833333334,729.8333333333334,100.67291666666668,732.25,100.55312500000001C734.6666666666666,100.43333333333334,737.0833333333334,100.31354166666667,739.5,100.19375C741.9166666666666,100.07395833333332,744.3333333333334,99.95416666666668,746.75,99.83437500000001C749.1666666666666,99.71458333333334,751.5833333333334,99.59479166666667,754,99.475C756.4166666666666,99.35520833333332,758.8333333333334,99.23541666666665,761.25,99.115625C763.6666666666666,98.99583333333334,766.0833333333334,98.87604166666668,768.5,98.75625000000001C770.9166666666666,98.63645833333334,773.3333333333334,98.51666666666667,775.75,98.396875C778.1666666666666,98.27708333333332,780.5833333333334,98.15729166666668,783,98.03750000000001C785.4166666666667,97.91770833333334,787.8333333333334,97.79791666666667,790.2500000000001,97.678125C792.6666666666667,97.55833333333332,795.0833333333335,97.43854166666665,797.5000000000001,97.31875C799.9166666666667,97.19895833333334,802.3333333333335,97.07916666666668,804.7500000000001,96.95937500000001C807.1666666666667,96.83958333333334,809.5833333333335,96.71979166666667,812.0000000000001,96.6C814.4166666666667,96.48020833333332,816.8333333333333,96.36041666666668,819.2499999999999,96.24062500000001C821.6666666666665,96.12083333333334,824.0833333333333,96.00104166666667,826.4999999999999,95.88125C828.9166666666665,95.76145833333332,831.3333333333333,95.64166666666665,833.7499999999999,95.521875C836.1666666666665,95.40208333333334,838.5833333333333,95.28229166666668,840.9999999999999,95.16250000000001C843.4166666666666,95.04270833333334,845.8333333333333,94.92291666666667,848.25,94.803125C850.6666666666666,94.68333333333332,853.0833333333334,94.56354166666668,855.5,94.44375000000001C857.9166666666666,94.32395833333334,860.3333333333334,94.20416666666667,862.75,94.084375C865.1666666666666,93.96458333333332,867.5833333333334,93.84479166666665,870,93.725C872.4166666666666,93.60520833333334,874.8333333333334,93.48541666666668,877.25,93.36562500000001C879.6666666666666,93.24583333333334,882.0833333333334,93.12604166666667,884.5,93.00625C886.9166666666666,92.88645833333332,889.3333333333334,92.76666666666668,891.75,92.64687500000001C894.1666666666666,92.52708333333334,896.5833333333334,92.40729166666667,899,92.2875C901.4166666666666,92.16770833333332,903.8333333333334,92.04791666666665,906.25,91.928125C908.6666666666666,91.80833333333334,911.0833333333334,91.68854166666668,913.5,91.56875000000001C915.9166666666666,91.44895833333334,918.3333333333334,91.32916666666667,920.75,91.209375C923.1666666666666,91.08958333333332,925.5833333333334,90.96979166666668,928,90.85000000000001C930.4166666666666,90.73020833333334,932.8333333333334,90.61041666666667,935.25,90.490625C937.6666666666666,90.37083333333332,940.0833333333334,90.25104166666665,942.5,90.13125C944.9166666666666,90.01145833333334,947.3333333333334,89.89166666666668,949.75,89.77187500000001C952.1666666666666,89.65208333333334,954.5833333333334,89.53229166666667,957,89.4125C959.4166666666666,89.29270833333332,961.8333333333334,89.17291666666668,964.25,89.05312500000001C966.6666666666667,88.93333333333334,969.0833333333334,88.81354166666667,971.5000000000001,88.69375C973.9166666666667,88.57395833333332,976.3333333333335,88.45416666666665,978.7500000000001,88.334375C981.1666666666667,88.21458333333334,983.5833333333335,88.09479166666668,986.0000000000001,87.97500000000001C988.4166666666667,87.85520833333334,990.8333333333335,87.73541666666667,993.2500000000001,87.615625C995.6666666666667,87.49583333333332,998.0833333333333,87.37604166666668,1000.4999999999999,87.25625000000001C1002.9166666666665,87.13645833333334,1005.3333333333333,87.01666666666667,1007.7499999999999,86.896875C1010.1666666666665,86.77708333333332,1012.5833333333333,86.65729166666665,1014.9999999999999,86.5375C1017.4166666666665,86.41770833333334,1019.8333333333333,86.29791666666667,1022.2499999999999,86.17812500000001C1024.6666666666665,86.05833333333334,1027.0833333333333,85.93854166666668,1029.5,85.81875000000001C1031.9166666666667,85.69895833333334,1034.3333333333333,85.57916666666668,1036.75,85.45937500000001C1039.1666666666667,85.33958333333334,1041.5833333333333,85.21979166666667,1044,85.1C1046.4166666666667,84.98020833333332,1048.8333333333333,84.86041666666665,1051.25,84.740625C1053.6666666666667,84.62083333333334,1056.0833333333333,84.50104166666667,1058.5,84.38125000000001C1060.9166666666667,84.26145833333335,1063.3333333333333,84.14166666666668,1065.75,84.02187500000001C1068.1666666666667,83.90208333333334,1070.5833333333333,83.78229166666668,1073,83.66250000000001C1075.4166666666667,83.54270833333334,1077.8333333333333,83.42291666666667,1080.25,83.303125C1082.6666666666667,83.18333333333332,1085.0833333333333,83.06354166666665,1087.5,82.94375C1089.9166666666667,82.82395833333334,1092.3333333333333,82.70416666666667,1094.75,82.58437500000001C1097.1666666666667,82.46458333333335,1099.5833333333333,82.34479166666668,1102,82.22500000000001C1104.4166666666667,82.10520833333334,1106.8333333333333,81.98541666666668,1109.25,81.86562500000001C1111.6666666666667,81.74583333333334,1114.0833333333333,81.62604166666667,1116.5,81.50625C1118.9166666666667,81.38645833333332,1121.3333333333333,81.26666666666665,1123.75,81.146875C1126.1666666666667,81.02708333333334,1128.5833333333333,80.90729166666667,1131,80.78750000000001C1133.4166666666667,80.66770833333335,1135.8333333333333,80.54791666666668,1138.25,80.42812500000001C1140.6666666666667,80.30833333333334,1143.0833333333333,80.18854166666668,1145.5,80.06875000000001C1147.9166666666667,79.94895833333334,1150.3333333333333,79.82916666666667,1152.75,79.709375C1155.1666666666667,79.58958333333332,1157.5833333333333,79.46979166666665,1160,79.35C1162.4166666666667,79.23020833333334,1164.8333333333333,79.11041666666667,1167.25,78.99062500000001C1169.6666666666667,78.87083333333335,1172.0833333333333,78.75104166666668,1174.5,78.63125000000001C1176.9166666666667,78.51145833333334,1179.3333333333333,78.39166666666668,1181.75,78.27187500000001C1184.1666666666667,78.15208333333334,1186.5833333333333,78.03229166666667,1189,77.9125C1191.4166666666667,77.79270833333332,1193.8333333333333,77.67291666666665,1196.25,77.553125C1198.6666666666667,77.43333333333334,1201.0833333333333,77.31354166666667,1203.5,77.19375000000001C1205.9166666666667,77.07395833333335,1208.3333333333333,76.95416666666668,1210.75,76.83437500000001C1213.1666666666667,76.71458333333334,1215.5833333333333,76.59479166666668,1218,76.47500000000001C1220.4166666666667,76.35520833333334,1222.8333333333333,76.23541666666667,1225.25,76.115625C1227.6666666666667,75.99583333333332,1230.0833333333333,75.87604166666665,1232.5,75.75625C1234.9166666666667,75.63645833333334,1237.3333333333333,75.51666666666667,1239.75,75.39687500000001C1242.1666666666667,75.27708333333335,1244.5833333333333,75.15729166666668,1247,75.03750000000001C1249.4166666666667,74.91770833333334,1251.8333333333333,74.79791666666668,1254.25,74.67812500000001C1256.6666666666667,74.55833333333334,1259.0833333333333,74.43854166666667,1261.5,74.31875C1263.9166666666667,74.19895833333332,1266.3333333333333,74.07916666666665,1268.75,73.959375C1271.1666666666667,73.83958333333334,1273.5833333333333,73.71979166666667,1276,73.60000000000001C1278.4166666666667,73.48020833333335,1280.8333333333333,73.36041666666668,1283.25,73.24062500000001C1285.6666666666667,73.12083333333334,1288.0833333333333,73.00104166666668,1290.5,72.88125000000001C1292.9166666666667,72.76145833333334,1295.3333333333333,72.64166666666667,1297.75,72.521875C1300.1666666666667,72.40208333333332,1302.5833333333333,72.28229166666665,1305,72.1625C1307.4166666666667,72.04270833333334,1309.8333333333333,71.92291666666667,1312.25,71.80312500000001C1314.6666666666667,71.68333333333335,1317.0833333333333,71.56354166666668,1319.5,71.44375000000001C1321.9166666666667,71.32395833333334,1324.3333333333333,71.20416666666668,1326.75,71.08437500000001C1329.1666666666667,70.96458333333334,1331.5833333333333,70.84479166666667,1334,70.725C1336.4166666666667,70.60520833333332,1338.8333333333333,70.48541666666665,1341.25,70.365625C1343.6666666666667,70.24583333333334,1346.0833333333333,70.12604166666667,1348.5,70.00625000000001C1350.9166666666667,69.88645833333335,1353.3333333333333,69.76666666666668,1355.75,69.64687500000001C1358.1666666666667,69.52708333333334,1360.5833333333333,69.40729166666668,1363,69.28750000000001C1365.4166666666667,69.16770833333334,1367.8333333333333,69.04791666666667,1370.25,68.928125C1372.6666666666667,68.80833333333332,1375.0833333333333,68.68854166666665,1377.5,68.56875C1379.9166666666667,68.44895833333334,1382.3333333333333,68.32916666666667,1384.75,68.20937500000001C1387.1666666666667,68.08958333333335,1389.5833333333333,67.96979166666668,1392,67.85000000000001C1394.4166666666667,67.73020833333334,1396.8333333333333,67.61041666666668,1399.25,67.49062500000001C1401.6666666666667,67.37083333333334,1404.0833333333333,67.25104166666667,1406.5,67.13125C1408.9166666666667,67.01145833333332,1411.3333333333333,66.89166666666665,1413.75,66.771875C1416.1666666666667,66.65208333333334,1418.5833333333333,66.53229166666667,1421,66.41250000000001C1423.4166666666667,66.29270833333335,1425.8333333333333,66.17291666666668,1428.25,66.05312500000001C1430.6666666666667,65.93333333333334,1433.0833333333333,65.81354166666668,1435.5,65.69375000000001C1437.9166666666667,65.57395833333334,1440.3333333333333,65.45416666666667,1442.75,65.334375C1445.1666666666667,65.21458333333332,1447.5833333333333,65.09479166666667,1450,64.975" fill="transparent" stroke-linecap="round" stroke="#E7C6DF" stroke-width="2"></path><g class="visx-group visx-axis visx-axis-bottom" transform="translate(0, 115)"><g class="visx-group visx-axis-tick" transform="translate(0, 0)"><line class="visx-line" x1="0" y1="0" x2="0" y2="8" fill="transparent" shape-rendering="crispEdges" stroke="#000" stroke-width="0" stroke-linecap="square"></line><svg x="0" y="0" font-size="10" style="overflow:visible"><text transform="" x="0" y="18" fill="#000" font-size="10" text-anchor="middle"><tspan x="0" dy="0em">0%</tspan></text></svg></g><g class="visx-group visx-axis-tick" transform="translate(0, 0)"><line class="visx-line" x1="362.5" y1="0" x2="362.5" y2="8" fill="transparent" shape-rendering="crispEdges" stroke="#000" stroke-width="0" stroke-linecap="square"></line><svg x="0" y="0" font-size="10" style="overflow:visible"><text transform="" x="362.5" y="18" fill="#000" font-size="10" text-anchor="middle"><tspan x="362.5" dy="0em">25%</tspan></text></svg></g><g class="visx-group visx-axis-tick" transform="translate(0, 0)"><line class="visx-line" x1="725" y1="0" x2="725" y2="8" fill="transparent" shape-rendering="crispEdges" stroke="#000" stroke-width="0" stroke-linecap="square"></line><svg x="0" y="0" font-size="10" style="overflow:visible"><text transform="" x="725" y="18" fill="#000" font-size="10" text-anchor="middle"><tspan x="725" dy="0em">50%</tspan></text></svg></g><g class="visx-group visx-axis-tick" transform="translate(0, 0)"><line class="visx-line" x1="1087.5" y1="0" x2="1087.5" y2="8" fill="transparent" shape-rendering="crispEdges" stroke="#000" stroke-width="0" stroke-linecap="square"></line><svg x="0" y="0" font-size="10" style="overflow:visible"><text transform="" x="1087.5" y="18" fill="#000" font-size="10" text-anchor="middle"><tspan x="1087.5" dy="0em">75%</tspan></text></svg></g><g class="visx-group visx-axis-tick" transform="translate(0, 0)"><line class="visx-line" x1="1450" y1="0" x2="1450" y2="8" fill="transparent" shape-rendering="crispEdges" stroke="#000" stroke-width="0" stroke-linecap="square"></line><svg x="0" y="0" font-size="10" style="overflow:visible"><text transform="" x="1450" y="18" fill="#000" font-size="10" text-anchor="middle"><tspan x="1450" dy="0em">100%</tspan></text></svg></g><line class="visx-line visx-axis-line" x1="0.5" y1="0" x2="1450.5" y2="0" fill="transparent" shape-rendering="crispEdges" stroke="#222" stroke-width="0"></line></g><g class="visx-group visx-axis visx-axis-left" transform="translate(0, 0)"><g class="visx-group visx-axis-tick" transform="translate(0, 0)"><line class="visx-line" x1="0" y1="115" x2="-8" y2="115" fill="transparent" shape-rendering="crispEdges" stroke="#222" stroke-width="0" stroke-linecap="square"></line><svg x="-30" y="0" font-size="8" style="overflow:visible"><text transform="" x="-8" y="115" fill="#000" font-size="8" text-anchor="start"><tspan x="-8" dy="0em">0%</tspan></text></svg></g><g class="visx-group visx-axis-tick" transform="translate(0, 0)"><line class="visx-line" x1="0" y1="57.5" x2="-8" y2="57.5" fill="transparent" shape-rendering="crispEdges" stroke="#222" stroke-width="0" stroke-linecap="square"></line><svg x="-30" y="0" font-size="8" style="overflow:visible"><text transform="" x="-8" y="57.5" fill="#000" font-size="8" text-anchor="start"><tspan x="-8" dy="0em">100%</tspan></text></svg></g><g class="visx-group visx-axis-tick" transform="translate(0, 0)"><line class="visx-line" x1="0" y1="0" x2="-8" y2="0" fill="transparent" shape-rendering="crispEdges" stroke="#222" stroke-width="0" stroke-linecap="square"></line><svg x="-30" y="0" font-size="8" style="overflow:visible"><text transform="" x="-8" y="0" fill="#000" font-size="8" text-anchor="start"><tspan x="-8" dy="0em">200%</tspan></text></svg></g><line class="visx-line visx-axis-line" x1="0" y1="115.5" x2="0" y2="0.5" fill="transparent" shape-rendering="crispEdges" stroke="#222" stroke-width="0"></line></g><rect class="visx-bar" width="1450" height="115" fill="transparent"></rect><line class="visx-line" x1="580" y1="28" x2="580" y2="115" fill="transparent" shape-rendering="crispEdges" stroke="#0062D2" stroke-width="1" pointer-events="none" stroke-dasharray="5,2"></line><svg x="0" y="0" font-size="10px" style="overflow:visible"><text transform="" x="580" y="20" font-size="10px" fill="#fff" stroke="#fff" stroke-width="0.8em" text-anchor="middle"><tspan x="580" dy="0.355em">Optimal 40%</tspan></text></svg><svg x="0" y="0" font-size="10px" style="overflow:visible"><text transform="" x="580" y="20" font-size="10px" fill="#62677B" text-anchor="middle"><tspan x="580" dy="0.355em">Optimal 40%</tspan></text></svg></g></svg>