<?xml version="1.0"?><svg xmlns="http://www.w3.org/2000/svg" xmlns:xlink= "http://www.w3.org/1999/xlink" style="background: white;" width="1500" height="300"> <g style="color: black; font-size: 13px; font-family: sans-serif; transform: translate(18px, 25px);"><g><circle r="3" cx="-6" cy="-5" style="fill: #1AD4B3" /><text>Borrow APR, variable</text></g><g style="transform: translateX(150px);"><circle r="3" cx="-6" cy="-5" style="fill: #101423" /><text>Borrow APR, stable</text></g></g><g class="visx-group" transform="translate(45, 50)"><g class="visx-group visx-rows" transform="translate(0, 0)"><line class="visx-line" x1="0" y1="155" x2="1425" y2="155" fill="transparent" shape-rendering="crispEdges" stroke="#F2F0F9" stroke-width="1" pointer-events="none"></line><line class="visx-line" x1="0" y1="77.5" x2="1425" y2="77.5" fill="transparent" shape-rendering="crispEdges" stroke="#F2F0F9" stroke-width="1" pointer-events="none"></line><line class="visx-line" x1="0" y1="0" x2="1425" y2="0" fill="transparent" shape-rendering="crispEdges" stroke="#F2F0F9" stroke-width="1" pointer-events="none"></line></g><path class="visx-linepath" d="M0,154.99999999982776C2.375,154.97129629619582,4.75,154.9425925925639,7.125,154.9138888888889C9.5,154.88518518521389,11.875,154.8564814814815,14.25,154.82777777777778C16.625,154.79907407407407,19,154.7703703703704,21.375,154.74166666666667C23.75,154.71296296296296,26.125,154.68425925925928,28.5,154.65555555555557C30.875,154.62685185185185,33.25,154.59814814814817,35.625,154.56944444444446C38,154.54074074074074,40.375,154.51203703703706,42.75,154.48333333333335C45.125,154.45462962962964,47.50000000000001,154.42592592592592,49.87500000000001,154.3972222222222C52.25000000000001,154.3685185185185,54.625,154.33981481481482,57,154.3111111111111C59.375,154.2824074074074,61.75,154.2537037037037,64.125,154.225C66.5,154.19629629629628,68.875,154.1675925925926,71.25,154.13888888888889C73.625,154.11018518518517,76,154.0814814814815,78.375,154.05277777777778C80.75,154.02407407407406,83.125,153.99537037037038,85.5,153.96666666666667C87.875,153.93796296296296,90.25,153.90925925925927,92.625,153.88055555555556C95,153.85185185185185,97.37500000000001,153.82314814814816,99.75000000000001,153.79444444444445C102.12500000000001,153.76574074074074,104.5,153.73703703703706,106.875,153.70833333333334C109.25,153.67962962962963,111.625,153.65092592592595,114,153.62222222222223C116.375,153.59351851851852,118.75000000000001,153.5648148148148,121.12500000000001,153.5361111111111C123.50000000000001,153.50740740740738,125.875,153.4787037037037,128.25,153.45C130.625,153.42129629629628,133,153.3925925925926,135.375,153.36388888888888C137.75,153.33518518518517,140.125,153.30648148148148,142.5,153.27777777777777C144.875,153.24907407407406,147.25,153.22037037037038,149.625,153.19166666666666C152,153.16296296296295,154.375,153.13425925925927,156.75,153.10555555555555C159.125,153.07685185185184,161.5,153.04814814814816,163.875,153.01944444444445C166.25,152.99074074074073,168.625,152.96203703703705,171,152.93333333333334C173.375,152.90462962962962,175.75,152.87592592592594,178.125,152.84722222222223C180.5,152.81851851851852,182.875,152.7898148148148,185.25,152.7611111111111C187.625,152.73240740740738,190,152.7037037037037,192.375,152.675C194.75,152.6462962962963,197.12500000000003,152.61759259259262,199.50000000000003,152.5888888888889C201.875,152.5601851851852,204.25,152.5314814814815,206.62499999999997,152.5027777777778C208.99999999999997,152.47407407407408,211.375,152.44537037037037,213.75,152.41666666666666C216.125,152.38796296296294,218.5,152.35925925925926,220.875,152.33055555555555C223.25,152.30185185185184,225.625,152.27314814814815,228,152.24444444444444C230.375,152.21574074074073,232.75,152.18703703703704,235.125,152.15833333333333C237.5,152.12962962962962,239.87500000000003,152.10092592592594,242.25000000000003,152.07222222222222C244.625,152.0435185185185,247,152.01481481481483,249.37499999999997,151.98611111111111C251.74999999999997,151.9574074074074,254.125,151.92870370370372,256.5,151.9C258.875,151.8712962962963,261.25,151.8425925925926,263.625,151.8138888888889C266,151.78518518518518,268.375,151.7564814814815,270.75,151.7277777777778C273.125,151.69907407407408,275.5,151.67037037037036,277.875,151.64166666666665C280.25,151.61296296296294,282.625,151.58425925925926,285,151.55555555555554C287.375,151.52685185185183,289.75,151.49814814814815,292.125,151.46944444444443C294.5,151.44074074074072,296.875,151.41203703703704,299.25,151.38333333333333C301.625,151.3546296296296,304,151.32592592592593,306.375,151.29722222222222C308.75,151.2685185185185,311.125,151.23981481481482,313.5,151.2111111111111C315.875,151.1824074074074,318.25,151.1537037037037,320.625,151.125C323,151.0962962962963,325.375,151.0675925925926,327.75,151.0388888888889C330.125,151.01018518518518,332.5,150.9814814814815,334.875,150.95277777777778C337.25,150.92407407407407,339.625,150.8953703703704,342,150.86666666666667C344.375,150.83796296296296,346.75,150.80925925925925,349.125,150.78055555555554C351.5,150.75185185185182,353.875,150.72314814814814,356.25,150.69444444444443C358.625,150.66574074074072,361,150.63703703703703,363.375,150.60833333333335C365.75,150.57962962962966,368.125,150.55092592592595,370.5,150.52222222222224C372.875,150.49351851851853,375.25,150.46481481481482,377.625,150.4361111111111C380,150.4074074074074,382.375,150.3787037037037,384.75,150.35C387.125,150.32129629629628,389.50000000000006,150.2925925925926,391.87500000000006,150.26388888888889C394.25000000000006,150.23518518518517,396.62500000000006,150.2064814814815,399.00000000000006,150.17777777777778C401.375,150.14907407407406,403.75,150.12037037037038,406.12499999999994,150.09166666666667C408.49999999999994,150.06296296296296,410.87499999999994,150.03425925925927,413.24999999999994,150.00555555555556C415.62499999999994,149.97685185185185,418,149.94814814814816,420.375,149.91944444444445C422.75,149.89074074074074,425.125,149.86203703703706,427.5,149.83333333333334C429.875,149.80462962962963,432.25,149.77592592592595,434.625,149.74722222222223C437,149.71851851851852,439.375,149.6898148148148,441.75,149.6611111111111C444.125,149.63240740740738,446.5,149.6037037037037,448.875,149.575C451.25,149.54629629629628,453.625,149.5175925925926,456,149.48888888888888C458.375,149.46018518518517,460.75,149.43148148148148,463.125,149.40277777777777C465.5,149.37407407407406,467.875,149.34537037037038,470.25,149.31666666666666C472.625,149.28796296296295,475.00000000000006,149.25925925925927,477.37500000000006,149.23055555555555C479.75000000000006,149.20185185185184,482.12500000000006,149.17314814814816,484.50000000000006,149.14444444444445C486.875,149.11574074074073,489.25,149.08703703703705,491.62499999999994,149.05833333333334C493.99999999999994,149.02962962962962,496.37499999999994,149.00092592592594,498.74999999999994,148.97222222222223C501.12499999999994,148.94351851851852,503.5,148.91481481481483,505.875,148.88611111111112C508.25,148.8574074074074,510.625,148.8287037037037,513,148.79999999999998C515.375,148.77129629629627,517.75,148.7425925925926,520.125,148.71388888888887C522.5,148.68518518518516,524.875,148.65648148148148,527.25,148.62777777777777C529.625,148.59907407407405,532,148.5703703703704,534.375,148.54166666666669C536.75,148.51296296296297,539.125,148.48425925925926,541.5,148.45555555555555C543.875,148.42685185185184,546.25,148.39814814814815,548.625,148.36944444444444C551,148.34074074074073,553.375,148.31203703703704,555.75,148.28333333333333C558.125,148.25462962962962,560.5,148.22592592592594,562.875,148.19722222222222C565.25,148.1685185185185,567.625,148.13981481481483,570,148.11111111111111C572.375,148.0824074074074,574.75,148.05370370370372,577.125,148.025C579.5,147.9962962962963,581.875,147.9675925925926,584.25,147.9388888888889C586.625,147.91018518518518,589,147.8814814814815,591.375,147.8527777777778C593.75,147.82407407407408,596.125,147.7953703703704,598.5,147.76666666666668C600.875,147.73796296296297,603.25,147.70925925925926,605.625,147.68055555555554C608,147.65185185185183,610.375,147.62314814814815,612.75,147.59444444444443C615.125,147.56574074074072,617.5,147.53703703703704,619.875,147.50833333333333C622.25,147.4796296296296,624.625,147.45092592592593,627,147.42222222222222C629.375,147.3935185185185,631.75,147.36481481481482,634.125,147.3361111111111C636.5,147.3074074074074,638.875,147.2787037037037,641.25,147.25C643.625,147.2212962962963,646,147.1925925925926,648.375,147.1638888888889C650.75,147.13518518518518,653.125,147.1064814814815,655.5,147.07777777777778C657.875,147.04907407407407,660.25,147.0203703703704,662.625,146.99166666666667C665,146.96296296296296,667.375,146.93425925925928,669.75,146.90555555555557C672.125,146.87685185185185,674.5,146.84814814814814,676.875,146.81944444444443C679.25,146.79074074074072,681.625,146.76203703703703,684,146.73333333333332C686.375,146.7046296296296,688.75,146.67592592592592,691.125,146.6472222222222C693.5,146.6185185185185,695.875,146.58981481481482,698.25,146.5611111111111C700.625,146.5324074074074,703,146.5037037037037,705.375,146.475C707.75,146.44629629629628,710.125,146.4175925925926,712.5,146.38888888888889C714.875,146.36018518518517,717.25,146.3314814814815,719.625,146.30277777777778C722,146.27407407407406,724.375,146.24537037037038,726.75,146.21666666666667C729.125,146.18796296296296,731.5,146.15925925925927,733.875,146.13055555555556C736.25,146.10185185185185,738.625,146.07314814814816,741,146.04444444444445C743.375,146.01574074074074,745.75,145.98703703703706,748.125,145.95833333333334C750.5,145.92962962962963,752.875,145.90092592592595,755.25,145.87222222222223C757.625,145.84351851851852,760,145.81481481481484,762.375,145.78611111111113C764.75,145.7574074074074,767.125,145.7287037037037,769.5,145.7C771.875,145.67129629629628,774.2500000000001,145.6425925925926,776.6250000000001,145.61388888888888C779.0000000000001,145.58518518518517,781.3750000000001,145.55648148148148,783.7500000000001,145.52777777777777C786.1250000000001,145.49907407407406,788.5000000000001,145.47037037037038,790.8750000000001,145.44166666666666C793.2500000000001,145.41296296296295,795.6250000000001,145.38425925925927,798.0000000000001,145.35555555555555C800.375,145.32685185185184,802.75,145.29814814814816,805.1249999999999,145.26944444444445C807.4999999999999,145.24074074074073,809.8749999999999,145.21203703703705,812.2499999999999,145.18333333333334C814.6249999999999,145.15462962962962,816.9999999999999,145.12592592592594,819.3749999999999,145.09722222222223C821.7499999999999,145.06851851851852,824.1249999999999,145.03981481481483,826.4999999999999,145.01111111111112C828.8749999999999,144.9824074074074,831.25,144.95370370370372,833.625,144.925C836,144.8962962962963,838.375,144.8675925925926,840.75,144.83888888888887C843.125,144.81018518518516,845.5,144.78148148148148,847.875,144.75277777777777C850.25,144.72407407407405,852.625,144.69537037037037,855,144.66666666666666C857.375,144.63796296296294,859.75,144.60925925925926,862.125,144.58055555555555C864.5,144.55185185185184,866.875,144.52314814814815,869.25,144.49444444444444C871.625,144.46574074074073,874,144.43703703703704,876.375,144.40833333333333C878.75,144.37962962962962,881.125,144.35092592592594,883.5,144.32222222222222C885.875,144.2935185185185,888.25,144.26481481481483,890.625,144.23611111111111C893,144.2074074074074,895.375,144.1787037037037,897.75,144.14999999999998C900.125,144.12129629629626,902.5,144.0925925925926,904.875,144.0638888888889C907.25,144.03518518518518,909.625,144.0064814814815,912,143.9777777777778C914.375,143.94907407407408,916.75,143.9203703703704,919.125,143.89166666666668C921.5,143.86296296296297,923.875,143.83425925925928,926.25,143.80555555555557C928.625,143.77685185185186,931,143.74814814814815,933.375,143.71944444444443C935.75,143.69074074074072,938.125,143.66203703703704,940.5,143.63333333333333C942.875,143.6046296296296,945.25,143.57592592592593,947.625,143.54722222222222C950,143.5185185185185,952.3750000000001,143.48981481481482,954.7500000000001,143.4611111111111C957.1250000000001,143.4324074074074,959.5000000000001,143.4037037037037,961.8750000000001,143.375C964.2500000000001,143.3462962962963,966.6250000000001,143.3175925925926,969.0000000000001,143.2888888888889C971.3750000000001,143.26018518518518,973.7500000000001,143.2314814814815,976.1250000000001,143.20277777777778C978.5,143.17407407407407,980.875,143.1453703703704,983.2499999999999,143.11666666666667C985.6249999999999,143.08796296296296,987.9999999999999,143.05925925925928,990.3749999999999,143.03055555555557C992.7499999999999,143.00185185185185,995.1249999999999,142.97314814814817,997.4999999999999,142.94444444444446C999.8749999999999,142.91574074074074,1002.2499999999999,142.88703703703703,1004.6249999999999,142.85833333333332C1006.9999999999999,142.8296296296296,1009.375,142.80092592592592,1011.75,142.7722222222222C1014.125,142.7435185185185,1016.5,142.71481481481482,1018.875,142.6861111111111C1021.25,142.6574074074074,1023.625,142.6287037037037,1026,142.6C1028.375,142.57129629629628,1030.75,142.5425925925926,1033.125,142.51388888888889C1035.5,142.48518518518517,1037.875,142.4564814814815,1040.25,142.42777777777778C1042.625,142.39907407407406,1045,142.37037037037038,1047.375,142.34166666666667C1049.75,142.31296296296296,1052.125,142.28425925925927,1054.5,142.25555555555556C1056.875,142.22685185185185,1059.25,142.19814814814814,1061.625,142.16944444444442C1064,142.1407407407407,1066.375,142.11203703703706,1068.75,142.08333333333334C1071.125,142.05462962962963,1073.5,142.02592592592595,1075.875,141.99722222222223C1078.25,141.96851851851852,1080.625,141.93981481481484,1083,141.91111111111113C1085.375,141.8824074074074,1087.75,141.85370370370373,1090.125,141.82500000000002C1092.5,141.7962962962963,1094.875,141.7675925925926,1097.25,141.73888888888888C1099.625,141.71018518518517,1102,141.68148148148148,1104.375,141.65277777777777C1106.75,141.62407407407406,1109.125,141.59537037037038,1111.5,141.56666666666666C1113.875,141.53796296296295,1116.25,141.50925925925927,1118.625,141.48055555555555C1121,141.45185185185184,1123.375,141.42314814814816,1125.75,141.39444444444445C1128.125,141.36574074074073,1130.5,141.33703703703705,1132.875,141.30833333333334C1135.25,141.27962962962962,1137.625,141.25092592592594,1140,141.22222222222223C1142.375,141.19351851851852,1144.75,141.16481481481483,1147.125,141.13611111111112C1149.5,141.1074074074074,1151.875,141.07870370370372,1154.25,141.05C1156.625,141.0212962962963,1159,140.99259259259262,1161.375,140.9638888888889C1163.75,140.9351851851852,1166.125,140.90648148148148,1168.5,140.87777777777777C1170.875,140.84907407407405,1173.25,140.82037037037037,1175.625,140.79166666666666C1178,140.76296296296294,1180.375,140.73425925925926,1182.75,140.70555555555555C1185.125,140.67685185185184,1187.5,140.64814814814815,1189.875,140.61944444444444C1192.25,140.59074074074073,1194.625,140.56203703703704,1197,140.53333333333333C1199.375,140.50462962962962,1201.75,140.47592592592594,1204.125,140.44722222222222C1206.5,140.4185185185185,1208.875,140.38981481481483,1211.25,140.36111111111111C1213.625,140.3324074074074,1216,140.30370370370372,1218.375,140.275C1220.75,140.2462962962963,1223.125,140.21759259259258,1225.5,140.18888888888887C1227.875,140.16018518518516,1230.25,140.13148148148147,1232.625,140.10277777777776C1235,140.07407407407405,1237.375,140.04537037037034,1239.75,140.01666666666665C1242.125,139.98796296296297,1244.5,139.95925925925928,1246.875,139.93055555555557C1249.25,139.90185185185186,1251.625,139.87314814814818,1254,139.84444444444446C1256.375,139.81574074074075,1258.75,139.78703703703704,1261.125,139.75833333333333C1263.5,139.7296296296296,1265.875,139.70092592592593,1268.25,139.67222222222222C1270.625,139.6435185185185,1273,139.61481481481482,1275.375,139.5861111111111C1277.75,139.5574074074074,1280.125,139.5574074074074,1282.5,139.5C1284.875,139.4425925925926,1287.25,135.36666666666667,1289.625,133.3C1292,131.23333333333335,1294.375,129.16666666666669,1296.75,127.10000000000001C1299.125,125.03333333333335,1301.5,122.96666666666667,1303.875,120.9C1306.25,118.83333333333334,1308.625,116.76666666666667,1311,114.7C1313.375,112.63333333333334,1315.75,110.56666666666666,1318.125,108.5C1320.5,106.43333333333334,1322.875,104.36666666666665,1325.25,102.29999999999998C1327.625,100.23333333333332,1330,98.16666666666666,1332.375,96.1C1334.75,94.03333333333333,1337.125,91.96666666666667,1339.5,89.9C1341.875,87.83333333333334,1344.25,85.76666666666667,1346.625,83.7C1349,81.63333333333334,1351.375,79.56666666666666,1353.75,77.5C1356.125,75.43333333333334,1358.5,73.36666666666666,1360.875,71.3C1363.25,69.23333333333333,1365.625,67.16666666666667,1368,65.10000000000001C1370.375,63.033333333333346,1372.75,60.96666666666667,1375.125,58.9C1377.5,56.83333333333333,1379.875,54.76666666666666,1382.25,52.699999999999996C1384.625,50.63333333333333,1387,48.56666666666667,1389.375,46.50000000000001C1391.75,44.433333333333344,1394.125,42.366666666666674,1396.5,40.300000000000004C1398.875,38.233333333333334,1401.25,36.16666666666666,1403.625,34.099999999999994C1406,32.03333333333333,1408.375,29.966666666666676,1410.75,27.90000000000001C1413.125,25.833333333333343,1415.5,23.766666666666673,1417.875,21.700000000000003C1420.25,19.633333333333333,1422.625,17.566666666666666,1425,15.499999999999996" fill="transparent" stroke-linecap="round" stroke="#1AD4B3" stroke-width="2"></path><g class="visx-group visx-axis visx-axis-bottom" transform="translate(0, 155)"><g class="visx-group visx-axis-tick" transform="translate(0, 0)"><line class="visx-line" x1="0" y1="0" x2="0" y2="8" fill="transparent" shape-rendering="crispEdges" stroke="#F2F0F9" stroke-width="1" stroke-linecap="square"></line><svg x="0" y="0" font-size="11" style="overflow:visible"><text transform="" x="0" y="19" fill="#1B2030" font-size="11" text-anchor="middle"><tspan x="0" dy="0em">0%</tspan></text></svg></g><g class="visx-group visx-axis-tick" transform="translate(0, 0)"><line class="visx-line" x1="356.25" y1="0" x2="356.25" y2="8" fill="transparent" shape-rendering="crispEdges" stroke="#F2F0F9" stroke-width="1" stroke-linecap="square"></line><svg x="0" y="0" font-size="11" style="overflow:visible"><text transform="" x="356.25" y="19" fill="#1B2030" font-size="11" text-anchor="middle"><tspan x="356.25" dy="0em">25%</tspan></text></svg></g><g class="visx-group visx-axis-tick" transform="translate(0, 0)"><line class="visx-line" x1="712.5" y1="0" x2="712.5" y2="8" fill="transparent" shape-rendering="crispEdges" stroke="#F2F0F9" stroke-width="1" stroke-linecap="square"></line><svg x="0" y="0" font-size="11" style="overflow:visible"><text transform="" x="712.5" y="19" fill="#1B2030" font-size="11" text-anchor="middle"><tspan x="712.5" dy="0em">50%</tspan></text></svg></g><g class="visx-group visx-axis-tick" transform="translate(0, 0)"><line class="visx-line" x1="1068.75" y1="0" x2="1068.75" y2="8" fill="transparent" shape-rendering="crispEdges" stroke="#F2F0F9" stroke-width="1" stroke-linecap="square"></line><svg x="0" y="0" font-size="11" style="overflow:visible"><text transform="" x="1068.75" y="19" fill="#1B2030" font-size="11" text-anchor="middle"><tspan x="1068.75" dy="0em">75%</tspan></text></svg></g><g class="visx-group visx-axis-tick" transform="translate(0, 0)"><line class="visx-line" x1="1425" y1="0" x2="1425" y2="8" fill="transparent" shape-rendering="crispEdges" stroke="#F2F0F9" stroke-width="1" stroke-linecap="square"></line><svg x="0" y="0" font-size="11" style="overflow:visible"><text transform="" x="1425" y="19" fill="#1B2030" font-size="11" text-anchor="middle"><tspan x="1425" dy="0em">100%</tspan></text></svg></g></g><g class="visx-group visx-axis visx-axis-left" transform="translate(0, 0)"><g class="visx-group visx-axis-tick" transform="translate(0, 0)"><line class="visx-line" x1="0" y1="155" x2="-8" y2="155" fill="transparent" shape-rendering="crispEdges" stroke="#F2F0F9" stroke-width="1" stroke-linecap="square"></line><svg x="-30" y="0" font-size="11" style="overflow:visible"><text transform="" x="-8" y="155" fill="#1B2030" font-size="11" text-anchor="start"><tspan x="-8" dy="0em">0%</tspan></text></svg></g><g class="visx-group visx-axis-tick" transform="translate(0, 0)"><line class="visx-line" x1="0" y1="77.5" x2="-8" y2="77.5" fill="transparent" shape-rendering="crispEdges" stroke="#F2F0F9" stroke-width="1" stroke-linecap="square"></line><svg x="-30" y="0" font-size="11" style="overflow:visible"><text transform="" x="-8" y="77.5" fill="#1B2030" font-size="11" text-anchor="start"><tspan x="-8" dy="0em">50%</tspan></text></svg></g><g class="visx-group visx-axis-tick" transform="translate(0, 0)"><line class="visx-line" x1="0" y1="0" x2="-8" y2="0" fill="transparent" shape-rendering="crispEdges" stroke="#F2F0F9" stroke-width="1" stroke-linecap="square"></line><svg x="-30" y="0" font-size="11" style="overflow:visible"><text transform="" x="-8" y="0" fill="#1B2030" font-size="11" text-anchor="start"><tspan x="-8" dy="0em">100%</tspan></text></svg></g><line class="visx-line visx-axis-line" x1="0" y1="155.5" x2="0" y2="0.5" fill="transparent" shape-rendering="crispEdges" stroke="#F2F0F9" stroke-width="1"></line></g><rect class="visx-bar" width="1425" height="155" fill="transparent"></rect><line class="visx-line" x1="1282.5" y1="58" x2="1282.5" y2="155" fill="transparent" shape-rendering="crispEdges" stroke="#CDC8E1" stroke-width="1" pointer-events="none" stroke-dasharray="5"></line><svg x="0" y="0" font-size="11px" style="overflow:visible"><text transform="" x="1282.5" y="50" font-size="11px" fill="#555069" stroke="#FFFFFF" stroke-width="1px" text-anchor="middle"><tspan x="1282.5" dy="0.355em">Optimal utilization 90%</tspan></text></svg><svg x="0" y="0" font-size="11px" style="overflow:visible"><text transform="" x="1282.5" y="50" font-size="11px" fill="#CDC8E1" text-anchor="middle"><tspan x="1282.5" dy="0.355em">Optimal utilization 90%</tspan></text></svg></g></svg>