<?xml version="1.0"?><svg xmlns="http://www.w3.org/2000/svg" xmlns:xlink= "http://www.w3.org/1999/xlink" style="background: white;" width="1500" height="185"> <g style="color: black; font-size: 13px; font-family: sans-serif; transform: translate(18px, 25px);"><g><circle r="3" cx="-6" cy="-5" style="fill: #B6509E" /><text>Borrow APR, variable</text></g><g style="transform: translateX(150px);"><circle r="3" cx="-6" cy="-5" style="fill: rgb(231, 198, 223)" /><text>Borrow APR, stable</text></g><g style="transform: translateX(290px);"><circle r="3" cx="-6" cy="-5" style="fill: rgb(0, 98, 210)" /><text>Utilization Rate</text></g></g><g class="visx-group" transform="translate(40, 50)"><g class="visx-group visx-rows" transform="translate(0, 0)"><line class="visx-line" x1="0" y1="115" x2="1450" y2="115" fill="transparent" shape-rendering="crispEdges" stroke="#000" stroke-width="1" stroke-dasharray="3,3" pointer-events="none"></line><line class="visx-line" x1="0" y1="62.72727272727272" x2="1450" y2="62.72727272727272" fill="transparent" shape-rendering="crispEdges" stroke="#000" stroke-width="1" stroke-dasharray="3,3" pointer-events="none"></line><line class="visx-line" x1="0" y1="10.454545454545459" x2="1450" y2="10.454545454545459" fill="transparent" shape-rendering="crispEdges" stroke="#000" stroke-width="1" stroke-dasharray="3,3" pointer-events="none"></line></g><path class="visx-linepath" d="M0,114.9999999999303C2.4166666666666665,114.98838383834318,4.833333333333334,114.97676767675605,7.25,114.96515151515152C9.666666666666666,114.95353535354698,12.083333333333334,114.9419191919192,14.5,114.93030303030304C16.916666666666668,114.91868686868688,19.333333333333332,114.90707070707072,21.75,114.89545454545456C24.166666666666668,114.8838383838384,26.583333333333332,114.87222222222222,29,114.86060606060606C31.416666666666668,114.8489898989899,33.833333333333336,114.83737373737374,36.25,114.82575757575758C38.666666666666664,114.81414141414142,41.083333333333336,114.80252525252526,43.5,114.7909090909091C45.91666666666667,114.77929292929294,48.333333333333336,114.76767676767678,50.75000000000001,114.75606060606061C53.16666666666667,114.74444444444445,55.583333333333336,114.73282828282828,58,114.72121212121212C60.416666666666664,114.70959595959596,62.833333333333336,114.6979797979798,65.25,114.68636363636364C67.66666666666667,114.67474747474748,70.08333333333333,114.66313131313132,72.5,114.65151515151516C74.91666666666667,114.639898989899,77.33333333333333,114.62828282828283,79.75,114.61666666666667C82.16666666666667,114.60505050505051,84.58333333333333,114.59343434343434,87,114.58181818181818C89.41666666666667,114.57020202020202,91.83333333333333,114.55858585858586,94.25,114.5469696969697C96.66666666666667,114.53535353535354,99.08333333333334,114.52373737373738,101.50000000000001,114.51212121212122C103.91666666666667,114.50050505050505,106.33333333333334,114.4888888888889,108.75,114.47727272727273C111.16666666666667,114.46565656565657,113.58333333333333,114.4540404040404,116,114.44242424242424C118.41666666666667,114.43080808080808,120.83333333333334,114.41919191919192,123.25000000000001,114.40757575757576C125.66666666666667,114.3959595959596,128.08333333333334,114.38434343434344,130.5,114.37272727272727C132.91666666666666,114.36111111111111,135.33333333333334,114.34949494949495,137.75,114.3378787878788C140.16666666666666,114.32626262626263,142.58333333333334,114.31464646464646,145,114.3030303030303C147.41666666666666,114.29141414141414,149.83333333333334,114.27979797979798,152.25,114.26818181818182C154.66666666666666,114.25656565656566,157.08333333333334,114.2449494949495,159.5,114.23333333333333C161.91666666666666,114.22171717171717,164.33333333333334,114.21010101010101,166.75,114.19848484848485C169.16666666666666,114.18686868686869,171.58333333333334,114.17525252525252,174,114.16363636363636C176.41666666666666,114.1520202020202,178.83333333333334,114.14040404040404,181.25,114.12878787878788C183.66666666666666,114.11717171717171,186.08333333333334,114.10555555555555,188.5,114.0939393939394C190.91666666666666,114.08232323232323,193.33333333333334,114.07070707070707,195.75,114.05909090909091C198.16666666666669,114.04747474747475,200.58333333333334,114.03585858585858,203.00000000000003,114.02424242424242C205.41666666666669,114.01262626262626,207.83333333333331,114.0010101010101,210.24999999999997,113.98939393939393C212.66666666666666,113.97777777777777,215.08333333333331,113.96616161616163,217.5,113.95454545454547C219.91666666666666,113.9429292929293,222.33333333333334,113.93131313131313,224.75,113.91969696969697C227.16666666666666,113.90808080808081,229.58333333333334,113.89646464646465,232,113.88484848484849C234.41666666666666,113.87323232323233,236.83333333333334,113.86161616161615,239.25,113.85C241.66666666666669,113.83838383838383,244.08333333333334,113.82676767676769,246.50000000000003,113.81515151515153C248.91666666666669,113.80353535353537,251.33333333333331,113.79191919191919,253.74999999999997,113.78030303030303C256.16666666666663,113.76868686868687,258.5833333333333,113.75707070707071,261,113.74545454545455C263.4166666666667,113.73383838383839,265.8333333333333,113.72222222222221,268.25,113.71060606060605C270.6666666666667,113.6989898989899,273.0833333333333,113.68737373737375,275.5,113.67575757575759C277.9166666666667,113.66414141414143,280.3333333333333,113.65252525252525,282.75,113.64090909090909C285.1666666666667,113.62929292929293,287.5833333333333,113.61767676767677,290,113.60606060606061C292.4166666666667,113.59444444444445,294.8333333333333,113.58282828282827,297.25,113.57121212121211C299.6666666666667,113.55959595959595,302.0833333333333,113.5479797979798,304.5,113.53636363636365C306.9166666666667,113.52474747474749,309.3333333333333,113.51313131313131,311.75,113.50151515151515C314.1666666666667,113.48989898989899,316.5833333333333,113.47828282828283,319,113.46666666666667C321.4166666666667,113.45505050505051,323.8333333333333,113.44343434343433,326.25,113.43181818181817C328.6666666666667,113.42020202020201,331.0833333333333,113.40858585858587,333.5,113.3969696969697C335.9166666666667,113.38535353535354,338.3333333333333,113.37373737373737,340.75,113.36212121212121C343.1666666666667,113.35050505050505,345.5833333333333,113.33888888888889,348,113.32727272727273C350.4166666666667,113.31565656565657,352.8333333333333,113.30404040404039,355.25,113.29242424242423C357.6666666666667,113.28080808080807,360.0833333333333,113.26919191919193,362.5,113.25757575757576C364.9166666666667,113.2459595959596,367.3333333333333,113.23434343434343,369.75,113.22272727272727C372.1666666666667,113.21111111111111,374.5833333333333,113.19949494949495,377,113.18787878787879C379.4166666666667,113.17626262626263,381.8333333333333,113.16464646464645,384.25,113.15303030303029C386.6666666666667,113.14141414141413,389.0833333333333,113.12979797979798,391.5,113.11818181818182C393.9166666666667,113.10656565656566,396.33333333333337,113.09494949494949,398.75000000000006,113.08333333333333C401.16666666666674,113.07171717171717,403.58333333333337,113.06010101010101,406.00000000000006,113.04848484848485C408.4166666666667,113.03686868686869,410.8333333333333,113.02525252525251,413.24999999999994,113.01363636363635C415.66666666666663,113.00202020202019,418.08333333333326,112.99040404040404,420.49999999999994,112.97878787878788C422.91666666666663,112.96717171717172,425.3333333333333,112.95555555555556,427.75,112.9439393939394C430.1666666666667,112.93232323232324,432.5833333333333,112.92070707070707,435,112.9090909090909C437.4166666666667,112.89747474747475,439.8333333333333,112.88585858585859,442.25,112.87424242424242C444.6666666666667,112.86262626262626,447.0833333333333,112.8510101010101,449.5,112.83939393939394C451.9166666666667,112.82777777777778,454.3333333333333,112.81616161616162,456.75,112.80454545454546C459.1666666666667,112.7929292929293,461.5833333333333,112.78131313131313,464,112.76969696969697C466.4166666666667,112.7580808080808,468.8333333333333,112.74646464646464,471.25,112.73484848484848C473.6666666666667,112.72323232323232,476.0833333333333,112.71161616161616,478.5,112.7C480.9166666666667,112.68838383838384,483.33333333333337,112.67676767676768,485.75000000000006,112.66515151515152C488.16666666666674,112.65353535353536,490.58333333333337,112.64191919191919,493.00000000000006,112.63030303030303C495.4166666666667,112.61868686868686,497.8333333333333,112.6070707070707,500.24999999999994,112.59545454545454C502.66666666666663,112.58383838383838,505.08333333333326,112.57222222222222,507.49999999999994,112.56060606060606C509.91666666666663,112.5489898989899,512.3333333333333,112.53737373737374,514.75,112.52575757575758C517.1666666666666,112.51414141414142,519.5833333333334,112.50252525252525,522,112.49090909090908C524.4166666666666,112.47929292929292,526.8333333333334,112.46767676767676,529.25,112.4560606060606C531.6666666666666,112.44444444444444,534.0833333333334,112.43282828282828,536.5,112.42121212121212C538.9166666666666,112.40959595959596,541.3333333333334,112.3979797979798,543.75,112.38636363636364C546.1666666666666,112.37474747474748,548.5833333333334,112.3631313131313,551,112.35151515151514C553.4166666666666,112.33989898989898,555.8333333333334,112.32828282828282,558.25,112.31666666666666C560.6666666666666,112.3050505050505,563.0833333333334,112.29343434343434,565.5,112.28181818181818C567.9166666666666,112.27020202020202,570.3333333333334,112.25858585858586,572.75,112.2469696969697C575.1666666666666,112.23535353535354,577.5833333333334,112.22373737373736,580,112.2121212121212C582.4166666666666,112.20050505050504,584.8333333333334,112.18888888888888,587.25,112.17727272727272C589.6666666666666,112.16565656565656,592.0833333333334,112.1540404040404,594.5,112.14242424242424C596.9166666666666,112.13080808080808,599.3333333333334,112.11919191919192,601.75,112.10757575757576C604.1666666666666,112.0959595959596,606.5833333333334,112.08434343434342,609,112.07272727272726C611.4166666666666,112.0611111111111,613.8333333333334,112.04949494949494,616.25,112.03787878787878C618.6666666666666,112.02626262626262,621.0833333333334,112.01464646464646,623.5,112.0030303030303C625.9166666666666,111.99141414141414,628.3333333333334,111.97979797979798,630.75,111.96818181818182C633.1666666666666,111.95656565656566,635.5833333333334,111.9449494949495,638,111.93333333333334C640.4166666666666,111.92171717171718,642.8333333333334,111.910101010101,645.25,111.89848484848484C647.6666666666666,111.88686868686868,650.0833333333334,111.87525252525253,652.5,111.86363636363637C654.9166666666666,111.85202020202021,657.3333333333334,111.84040404040404,659.75,111.82878787878788C662.1666666666666,111.81717171717172,664.5833333333334,111.80555555555556,667,111.7939393939394C669.4166666666666,111.78232323232324,671.8333333333334,111.77070707070706,674.25,111.7590909090909C676.6666666666666,111.74747474747474,679.0833333333334,111.7358585858586,681.5,111.72424242424243C683.9166666666666,111.71262626262627,686.3333333333334,111.7010101010101,688.75,111.68939393939394C691.1666666666666,111.67777777777778,693.5833333333334,111.66616161616162,696,111.65454545454546C698.4166666666666,111.6429292929293,700.8333333333334,111.63131313131312,703.25,111.61969696969696C705.6666666666666,111.6080808080808,708.0833333333334,111.59646464646465,710.5,111.5848484848485C712.9166666666666,111.57323232323233,715.3333333333334,111.56161616161616,717.75,111.55C720.1666666666666,111.53838383838384,722.5833333333334,111.52676767676768,725,111.51515151515152C727.4166666666666,111.50353535353536,729.8333333333334,111.49191919191918,732.25,111.48030303030302C734.6666666666666,111.46868686868686,737.0833333333334,111.45707070707071,739.5,111.44545454545455C741.9166666666666,111.43383838383839,744.3333333333334,111.42222222222222,746.75,111.41060606060606C749.1666666666666,111.3989898989899,751.5833333333334,111.38737373737374,754,111.37575757575758C756.4166666666666,111.36414141414141,758.8333333333334,111.35252525252525,761.25,111.3409090909091C763.6666666666666,111.32929292929293,766.0833333333334,111.31767676767677,768.5,111.30606060606061C770.9166666666666,111.29444444444445,773.3333333333334,111.28282828282828,775.75,111.27121212121212C778.1666666666666,111.25959595959596,780.5833333333334,111.2479797979798,783,111.23636363636363C785.4166666666667,111.22474747474747,787.8333333333334,111.21313131313131,790.2500000000001,111.20151515151515C792.6666666666667,111.18989898989899,795.0833333333335,111.17828282828283,797.5000000000001,111.16666666666667C799.9166666666667,111.15505050505051,802.3333333333335,111.14343434343434,804.7500000000001,111.13181818181818C807.1666666666667,111.12020202020202,809.5833333333335,111.10858585858585,812.0000000000001,111.0969696969697C814.4166666666667,111.08535353535353,816.8333333333333,111.07373737373737,819.2499999999999,111.06212121212121C821.6666666666665,111.05050505050505,824.0833333333333,111.03888888888889,826.4999999999999,111.02727272727273C828.9166666666665,111.01565656565657,831.3333333333333,111.00404040404041,833.7499999999999,110.99242424242425C836.1666666666665,110.98080808080809,838.5833333333333,110.96919191919191,840.9999999999999,110.95757575757575C843.4166666666666,110.9459595959596,845.8333333333333,110.93434343434343,848.25,110.92272727272727C850.6666666666666,110.91111111111111,853.0833333333334,110.89949494949495,855.5,110.88787878787879C857.9166666666666,110.87626262626263,860.3333333333334,110.86464646464647,862.75,110.85303030303031C865.1666666666666,110.84141414141415,867.5833333333334,110.82979797979797,870,110.81818181818181C872.4166666666666,110.80656565656565,874.8333333333334,110.79494949494949,877.25,110.78333333333333C879.6666666666666,110.77171717171717,882.0833333333334,110.76010101010101,884.5,110.74848484848485C886.9166666666666,110.73686868686869,889.3333333333334,110.72525252525253,891.75,110.71363636363637C894.1666666666666,110.70202020202021,896.5833333333334,110.69040404040403,899,110.67878787878787C901.4166666666666,110.66717171717171,903.8333333333334,110.65555555555555,906.25,110.64393939393939C908.6666666666666,110.63232323232323,911.0833333333334,110.62070707070707,913.5,110.60909090909091C915.9166666666666,110.59747474747475,918.3333333333334,110.58585858585859,920.75,110.57424242424243C923.1666666666666,110.56262626262627,925.5833333333334,110.55101010101009,928,110.53939393939393C930.4166666666666,110.52777777777777,932.8333333333334,110.51616161616161,935.25,110.50454545454545C937.6666666666666,110.49292929292929,940.0833333333334,110.48131313131313,942.5,110.46969696969697C944.9166666666666,110.45808080808081,947.3333333333334,110.44646464646465,949.75,110.43484848484849C952.1666666666666,110.42323232323233,954.5833333333334,110.41161616161615,957,110.39999999999999C959.4166666666666,110.38838383838383,961.8333333333334,110.37676767676768,964.25,110.36515151515152C966.6666666666667,110.35353535353536,969.0833333333334,110.34191919191919,971.5000000000001,110.33030303030303C973.9166666666667,110.31868686868687,976.3333333333335,110.30707070707071,978.7500000000001,110.29545454545455C981.1666666666667,110.28383838383839,983.5833333333335,110.27222222222221,986.0000000000001,110.26060606060605C988.4166666666667,110.24898989898989,990.8333333333335,110.23737373737374,993.2500000000001,110.22575757575758C995.6666666666667,110.21414141414142,998.0833333333333,110.20252525252525,1000.4999999999999,110.19090909090909C1002.9166666666665,110.17929292929293,1005.3333333333333,110.16767676767677,1007.7499999999999,110.1560606060606C1010.1666666666665,110.14444444444445,1012.5833333333333,110.13282828282827,1014.9999999999999,110.12121212121211C1017.4166666666665,110.10959595959595,1019.8333333333333,110.0979797979798,1022.2499999999999,110.08636363636364C1024.6666666666665,110.07474747474748,1027.0833333333333,110.06313131313132,1029.5,110.05151515151516C1031.9166666666667,110.039898989899,1034.3333333333333,110.02828282828283,1036.75,110.01666666666667C1039.1666666666667,110.0050505050505,1041.5833333333333,109.99343434343434,1044,109.98181818181818C1046.4166666666667,109.97020202020202,1048.8333333333333,109.95858585858586,1051.25,109.9469696969697C1053.6666666666667,109.93535353535354,1056.0833333333333,109.92373737373738,1058.5,109.91212121212122C1060.9166666666667,109.90050505050506,1063.3333333333333,109.88888888888889,1065.75,109.87727272727273C1068.1666666666667,109.86565656565656,1070.5833333333333,109.8540404040404,1073,109.84242424242424C1075.4166666666667,109.83080808080808,1077.8333333333333,109.81919191919192,1080.25,109.80757575757576C1082.6666666666667,109.7959595959596,1085.0833333333333,109.78434343434344,1087.5,109.77272727272728C1089.9166666666667,109.76111111111112,1092.3333333333333,109.74949494949495,1094.75,109.73787878787878C1097.1666666666667,109.72626262626262,1099.5833333333333,109.71464646464646,1102,109.7030303030303C1104.4166666666667,109.69141414141414,1106.8333333333333,109.67979797979798,1109.25,109.66818181818182C1111.6666666666667,109.65656565656566,1114.0833333333333,109.6449494949495,1116.5,109.63333333333334C1118.9166666666667,109.62171717171718,1121.3333333333333,109.610101010101,1123.75,109.59848484848484C1126.1666666666667,109.58686868686868,1128.5833333333333,109.57525252525252,1131,109.56363636363636C1133.4166666666667,109.5520202020202,1135.8333333333333,109.54040404040404,1138.25,109.52878787878788C1140.6666666666667,109.51717171717172,1143.0833333333333,109.50555555555556,1145.5,109.4939393939394C1147.9166666666667,109.48232323232324,1150.3333333333333,109.47070707070706,1152.75,109.4590909090909C1155.1666666666667,109.44747474747474,1157.5833333333333,109.43585858585858,1160,109.42424242424242C1162.4166666666667,109.41262626262626,1164.8333333333333,109.4010101010101,1167.25,109.38939393939394C1169.6666666666667,109.37777777777778,1172.0833333333333,109.36616161616162,1174.5,109.35454545454546C1176.9166666666667,109.3429292929293,1179.3333333333333,109.33131313131312,1181.75,109.31969696969696C1184.1666666666667,109.3080808080808,1186.5833333333333,109.29646464646464,1189,109.28484848484848C1191.4166666666667,109.27323232323232,1193.8333333333333,109.26161616161616,1196.25,109.25C1198.6666666666667,109.23838383838384,1201.0833333333333,109.22676767676768,1203.5,109.21515151515152C1205.9166666666667,109.20353535353536,1208.3333333333333,109.19191919191918,1210.75,109.18030303030302C1213.1666666666667,109.16868686868686,1215.5833333333333,109.1570707070707,1218,109.14545454545454C1220.4166666666667,109.13383838383838,1222.8333333333333,109.12222222222222,1225.25,109.11060606060606C1227.6666666666667,109.0989898989899,1230.0833333333333,109.08737373737374,1232.5,109.07575757575758C1234.9166666666667,109.06414141414142,1237.3333333333333,109.05252525252526,1239.75,109.0409090909091C1242.1666666666667,109.02929292929294,1244.5833333333333,109.01767676767676,1247,109.0060606060606C1249.4166666666667,108.99444444444444,1251.8333333333333,108.9828282828283,1254.25,108.97121212121213C1256.6666666666667,108.95959595959597,1259.0833333333333,108.9479797979798,1261.5,108.93636363636364C1263.9166666666667,108.92474747474748,1266.3333333333333,108.91313131313132,1268.75,108.90151515151516C1271.1666666666667,108.889898989899,1273.5833333333333,108.87828282828282,1276,108.86666666666666C1278.4166666666667,108.8550505050505,1280.8333333333333,108.84343434343435,1283.25,108.83181818181819C1285.6666666666667,108.82020202020203,1288.0833333333333,108.80858585858586,1290.5,108.7969696969697C1292.9166666666667,108.78535353535354,1295.3333333333333,108.77373737373738,1297.75,108.76212121212122C1300.1666666666667,108.75050505050505,1302.5833333333333,108.75050505050505,1305,108.72727272727272C1307.4166666666667,108.70404040404038,1309.8333333333333,105.93939393939394,1312.25,104.54545454545455C1314.6666666666667,103.15151515151516,1317.0833333333333,101.75757575757575,1319.5,100.36363636363636C1321.9166666666667,98.96969696969697,1324.3333333333333,97.57575757575758,1326.75,96.18181818181819C1329.1666666666667,94.7878787878788,1331.5833333333333,93.39393939393939,1334,92C1336.4166666666667,90.60606060606061,1338.8333333333333,89.21212121212122,1341.25,87.81818181818183C1343.6666666666667,86.42424242424244,1346.0833333333333,85.03030303030303,1348.5,83.63636363636364C1350.9166666666667,82.24242424242425,1353.3333333333333,80.84848484848484,1355.75,79.45454545454545C1358.1666666666667,78.06060606060606,1360.5833333333333,76.66666666666666,1363,75.27272727272727C1365.4166666666667,73.87878787878788,1367.8333333333333,72.48484848484848,1370.25,71.0909090909091C1372.6666666666667,69.6969696969697,1375.0833333333333,68.3030303030303,1377.5,66.9090909090909C1379.9166666666667,65.51515151515152,1382.3333333333333,64.12121212121211,1384.75,62.72727272727272C1387.1666666666667,61.33333333333333,1389.5833333333333,59.93939393939393,1392,58.54545454545454C1394.4166666666667,57.15151515151515,1396.8333333333333,55.75757575757576,1399.25,54.36363636363637C1401.6666666666667,52.969696969696976,1404.0833333333333,51.57575757575758,1406.5,50.18181818181819C1408.9166666666667,48.787878787878796,1411.3333333333333,47.39393939393939,1413.75,46C1416.1666666666667,44.60606060606061,1418.5833333333333,43.21212121212122,1421,41.81818181818182C1423.4166666666667,40.42424242424242,1425.8333333333333,39.03030303030303,1428.25,37.63636363636363C1430.6666666666667,36.242424242424235,1433.0833333333333,34.848484848484844,1435.5,33.45454545454545C1437.9166666666667,32.06060606060606,1440.3333333333333,30.666666666666664,1442.75,29.27272727272727C1445.1666666666667,27.878787878787875,1447.5833333333333,26.48484848484848,1450,25.090909090909086" fill="transparent" stroke-linecap="round" stroke="#B6509E" stroke-width="2"></path><path class="visx-linepath" d="M0,107.68181818174848C2.4166666666666665,107.67020202016135,4.833333333333334,107.65858585857424,7.25,107.64696969696969C9.666666666666666,107.63535353536514,12.083333333333334,107.62373737373737,14.5,107.61212121212121C16.916666666666668,107.60050505050505,19.333333333333332,107.58888888888889,21.75,107.57727272727273C24.166666666666668,107.56565656565657,26.583333333333332,107.5540404040404,29,107.54242424242425C31.416666666666668,107.53080808080809,33.833333333333336,107.51919191919191,36.25,107.50757575757575C38.666666666666664,107.49595959595959,41.083333333333336,107.48434343434343,43.5,107.47272727272727C45.91666666666667,107.46111111111111,48.333333333333336,107.44949494949495,50.75000000000001,107.43787878787879C53.16666666666667,107.42626262626263,55.583333333333336,107.41464646464647,58,107.4030303030303C60.416666666666664,107.39141414141415,62.833333333333336,107.37979797979797,65.25,107.36818181818181C67.66666666666667,107.35656565656565,70.08333333333333,107.34494949494949,72.5,107.33333333333333C74.91666666666667,107.32171717171717,77.33333333333333,107.31010101010101,79.75,107.29848484848485C82.16666666666667,107.28686868686869,84.58333333333333,107.27525252525253,87,107.26363636363637C89.41666666666667,107.2520202020202,91.83333333333333,107.24040404040403,94.25,107.22878787878787C96.66666666666667,107.21717171717171,99.08333333333334,107.20555555555555,101.50000000000001,107.19393939393939C103.91666666666667,107.18232323232323,106.33333333333334,107.17070707070708,108.75,107.15909090909092C111.16666666666667,107.14747474747476,113.58333333333333,107.13585858585859,116,107.12424242424242C118.41666666666667,107.11262626262626,120.83333333333334,107.10101010101009,123.25000000000001,107.08939393939393C125.66666666666667,107.07777777777777,128.08333333333334,107.06616161616161,130.5,107.05454545454545C132.91666666666666,107.04292929292929,135.33333333333334,107.03131313131314,137.75,107.01969696969698C140.16666666666666,107.00808080808082,142.58333333333334,106.99646464646464,145,106.98484848484848C147.41666666666666,106.97323232323232,149.83333333333334,106.96161616161615,152.25,106.94999999999999C154.66666666666666,106.93838383838383,157.08333333333334,106.92676767676767,159.5,106.9151515151515C161.91666666666666,106.90353535353535,164.33333333333334,106.8919191919192,166.75,106.88030303030304C169.16666666666666,106.86868686868688,171.58333333333334,106.8570707070707,174,106.84545454545454C176.41666666666666,106.83383838383838,178.83333333333334,106.82222222222222,181.25,106.81060606060606C183.66666666666666,106.7989898989899,186.08333333333334,106.78737373737374,188.5,106.77575757575758C190.91666666666666,106.76414141414142,193.33333333333334,106.75252525252526,195.75,106.7409090909091C198.16666666666669,106.72929292929294,200.58333333333334,106.71767676767676,203.00000000000003,106.7060606060606C205.41666666666669,106.69444444444444,207.83333333333331,106.68282828282828,210.24999999999997,106.67121212121212C212.66666666666666,106.65959595959596,215.08333333333331,106.6479797979798,217.5,106.63636363636364C219.91666666666666,106.62474747474748,222.33333333333334,106.61313131313132,224.75,106.60151515151516C227.16666666666666,106.589898989899,229.58333333333334,106.57828282828282,232,106.56666666666666C234.41666666666666,106.5550505050505,236.83333333333334,106.54343434343434,239.25,106.53181818181818C241.66666666666669,106.52020202020202,244.08333333333334,106.50858585858586,246.50000000000003,106.4969696969697C248.91666666666669,106.48535353535354,251.33333333333331,106.47373737373738,253.74999999999997,106.46212121212122C256.16666666666663,106.45050505050506,258.5833333333333,106.43888888888888,261,106.42727272727272C263.4166666666667,106.41565656565656,265.8333333333333,106.4040404040404,268.25,106.39242424242424C270.6666666666667,106.38080808080808,273.0833333333333,106.36919191919192,275.5,106.35757575757576C277.9166666666667,106.3459595959596,280.3333333333333,106.33434343434344,282.75,106.32272727272728C285.1666666666667,106.31111111111112,287.5833333333333,106.29949494949496,290,106.2878787878788C292.4166666666667,106.27626262626264,294.8333333333333,106.26464646464646,297.25,106.2530303030303C299.6666666666667,106.24141414141414,302.0833333333333,106.22979797979798,304.5,106.21818181818182C306.9166666666667,106.20656565656566,309.3333333333333,106.1949494949495,311.75,106.18333333333334C314.1666666666667,106.17171717171718,316.5833333333333,106.16010101010102,319,106.14848484848486C321.4166666666667,106.1368686868687,323.8333333333333,106.12525252525252,326.25,106.11363636363636C328.6666666666667,106.1020202020202,331.0833333333333,106.09040404040404,333.5,106.07878787878788C335.9166666666667,106.06717171717172,338.3333333333333,106.05555555555556,340.75,106.0439393939394C343.1666666666667,106.03232323232324,345.5833333333333,106.02070707070708,348,106.00909090909092C350.4166666666667,105.99747474747475,352.8333333333333,105.98585858585858,355.25,105.97424242424242C357.6666666666667,105.96262626262626,360.0833333333333,105.9510101010101,362.5,105.93939393939394C364.9166666666667,105.92777777777778,367.3333333333333,105.91616161616162,369.75,105.90454545454546C372.1666666666667,105.8929292929293,374.5833333333333,105.88131313131314,377,105.86969696969697C379.4166666666667,105.85808080808081,381.8333333333333,105.84646464646464,384.25,105.83484848484848C386.6666666666667,105.82323232323232,389.0833333333333,105.81161616161617,391.5,105.80000000000001C393.9166666666667,105.78838383838385,396.33333333333337,105.77676767676768,398.75000000000006,105.76515151515152C401.16666666666674,105.75353535353536,403.58333333333337,105.7419191919192,406.00000000000006,105.73030303030303C408.4166666666667,105.71868686868687,410.8333333333333,105.7070707070707,413.24999999999994,105.69545454545454C415.66666666666663,105.68383838383838,418.08333333333326,105.67222222222223,420.49999999999994,105.66060606060607C422.91666666666663,105.64898989898991,425.3333333333333,105.63737373737374,427.75,105.62575757575758C430.1666666666667,105.61414141414141,432.5833333333333,105.60252525252525,435,105.5909090909091C437.4166666666667,105.57929292929293,439.8333333333333,105.56767676767676,442.25,105.5560606060606C444.6666666666667,105.54444444444444,447.0833333333333,105.53282828282829,449.5,105.52121212121213C451.9166666666667,105.50959595959597,454.3333333333333,105.4979797979798,456.75,105.48636363636363C459.1666666666667,105.47474747474747,461.5833333333333,105.46313131313131,464,105.45151515151515C466.4166666666667,105.43989898989899,468.8333333333333,105.42828282828282,471.25,105.41666666666666C473.6666666666667,105.4050505050505,476.0833333333333,105.39343434343435,478.5,105.38181818181819C480.9166666666667,105.37020202020203,483.33333333333337,105.35858585858585,485.75000000000006,105.3469696969697C488.16666666666674,105.33535353535353,490.58333333333337,105.32373737373737,493.00000000000006,105.31212121212121C495.4166666666667,105.30050505050505,497.8333333333333,105.28888888888888,500.24999999999994,105.27727272727272C502.66666666666663,105.26565656565656,505.08333333333326,105.25404040404041,507.49999999999994,105.24242424242425C509.91666666666663,105.23080808080809,512.3333333333333,105.21919191919191,514.75,105.20757575757575C517.1666666666666,105.1959595959596,519.5833333333334,105.18434343434343,522,105.17272727272727C524.4166666666666,105.16111111111111,526.8333333333334,105.14949494949495,529.25,105.13787878787879C531.6666666666666,105.12626262626263,534.0833333333334,105.11464646464647,536.5,105.10303030303031C538.9166666666666,105.09141414141415,541.3333333333334,105.07979797979797,543.75,105.06818181818181C546.1666666666666,105.05656565656565,548.5833333333334,105.04494949494949,551,105.03333333333333C553.4166666666666,105.02171717171717,555.8333333333334,105.01010101010101,558.25,104.99848484848485C560.6666666666666,104.98686868686869,563.0833333333334,104.97525252525253,565.5,104.96363636363637C567.9166666666666,104.95202020202021,570.3333333333334,104.94040404040403,572.75,104.92878787878787C575.1666666666666,104.91717171717171,577.5833333333334,104.90555555555555,580,104.89393939393939C582.4166666666666,104.88232323232323,584.8333333333334,104.87070707070707,587.25,104.85909090909091C589.6666666666666,104.84747474747475,592.0833333333334,104.83585858585859,594.5,104.82424242424243C596.9166666666666,104.81262626262627,599.3333333333334,104.8010101010101,601.75,104.78939393939395C604.1666666666666,104.77777777777779,606.5833333333334,104.76616161616161,609,104.75454545454545C611.4166666666666,104.74292929292929,613.8333333333334,104.73131313131313,616.25,104.71969696969697C618.6666666666666,104.70808080808081,621.0833333333334,104.69646464646465,623.5,104.68484848484849C625.9166666666666,104.67323232323233,628.3333333333334,104.66161616161617,630.75,104.65C633.1666666666666,104.63838383838385,635.5833333333334,104.62676767676767,638,104.61515151515151C640.4166666666666,104.60353535353535,642.8333333333334,104.59191919191919,645.25,104.58030303030303C647.6666666666666,104.56868686868687,650.0833333333334,104.55707070707071,652.5,104.54545454545455C654.9166666666666,104.53383838383839,657.3333333333334,104.52222222222223,659.75,104.51060606060607C662.1666666666666,104.4989898989899,664.5833333333334,104.48737373737373,667,104.47575757575757C669.4166666666666,104.46414141414141,671.8333333333334,104.45252525252525,674.25,104.44090909090909C676.6666666666666,104.42929292929293,679.0833333333334,104.41767676767677,681.5,104.4060606060606C683.9166666666666,104.39444444444445,686.3333333333334,104.38282828282829,688.75,104.37121212121212C691.1666666666666,104.35959595959596,693.5833333333334,104.34797979797979,696,104.33636363636363C698.4166666666666,104.32474747474747,700.8333333333334,104.31313131313131,703.25,104.30151515151515C705.6666666666666,104.28989898989899,708.0833333333334,104.27828282828283,710.5,104.26666666666667C712.9166666666666,104.2550505050505,715.3333333333334,104.24343434343434,717.75,104.23181818181818C720.1666666666666,104.22020202020202,722.5833333333334,104.20858585858585,725,104.19696969696969C727.4166666666666,104.18535353535353,729.8333333333334,104.17373737373737,732.25,104.1621212121212C734.6666666666666,104.15050505050505,737.0833333333334,104.1388888888889,739.5,104.12727272727274C741.9166666666666,104.11565656565658,744.3333333333334,104.1040404040404,746.75,104.09242424242424C749.1666666666666,104.08080808080808,751.5833333333334,104.06919191919191,754,104.05757575757575C756.4166666666666,104.04595959595959,758.8333333333334,104.03434343434343,761.25,104.02272727272727C763.6666666666666,104.0111111111111,766.0833333333334,103.99949494949496,768.5,103.9878787878788C770.9166666666666,103.97626262626264,773.3333333333334,103.96464646464646,775.75,103.9530303030303C778.1666666666666,103.94141414141414,780.5833333333334,103.92979797979798,783,103.91818181818182C785.4166666666667,103.90656565656566,787.8333333333334,103.89494949494949,790.2500000000001,103.88333333333333C792.6666666666667,103.87171717171717,795.0833333333335,103.86010101010102,797.5000000000001,103.84848484848486C799.9166666666667,103.8368686868687,802.3333333333335,103.82525252525252,804.7500000000001,103.81363636363636C807.1666666666667,103.8020202020202,809.5833333333335,103.79040404040404,812.0000000000001,103.77878787878788C814.4166666666667,103.76717171717172,816.8333333333333,103.75555555555555,819.2499999999999,103.74393939393939C821.6666666666665,103.73232323232322,824.0833333333333,103.72070707070708,826.4999999999999,103.70909090909092C828.9166666666665,103.69747474747476,831.3333333333333,103.68585858585858,833.7499999999999,103.67424242424242C836.1666666666665,103.66262626262626,838.5833333333333,103.6510101010101,840.9999999999999,103.63939393939394C843.4166666666666,103.62777777777778,845.8333333333333,103.6161616161616,848.25,103.60454545454544C850.6666666666666,103.59292929292928,853.0833333333334,103.58131313131314,855.5,103.56969696969698C857.9166666666666,103.55808080808082,860.3333333333334,103.54646464646464,862.75,103.53484848484848C865.1666666666666,103.52323232323232,867.5833333333334,103.51161616161616,870,103.5C872.4166666666666,103.48838383838384,874.8333333333334,103.47676767676766,877.25,103.4651515151515C879.6666666666666,103.45353535353534,882.0833333333334,103.4419191919192,884.5,103.43030303030304C886.9166666666666,103.41868686868688,889.3333333333334,103.4070707070707,891.75,103.39545454545454C894.1666666666666,103.38383838383838,896.5833333333334,103.37222222222222,899,103.36060606060606C901.4166666666666,103.3489898989899,903.8333333333334,103.33737373737372,906.25,103.32575757575756C908.6666666666666,103.3141414141414,911.0833333333334,103.30252525252526,913.5,103.2909090909091C915.9166666666666,103.27929292929294,918.3333333333334,103.26767676767678,920.75,103.25606060606061C923.1666666666666,103.24444444444445,925.5833333333334,103.23282828282828,928,103.22121212121212C930.4166666666666,103.20959595959596,932.8333333333334,103.1979797979798,935.25,103.18636363636364C937.6666666666666,103.17474747474748,940.0833333333334,103.16313131313132,942.5,103.15151515151516C944.9166666666666,103.139898989899,947.3333333333334,103.12828282828283,949.75,103.11666666666667C952.1666666666666,103.10505050505051,954.5833333333334,103.09343434343434,957,103.08181818181818C959.4166666666666,103.07020202020202,961.8333333333334,103.05858585858586,964.25,103.0469696969697C966.6666666666667,103.03535353535354,969.0833333333334,103.02373737373738,971.5000000000001,103.01212121212122C973.9166666666667,103.00050505050505,976.3333333333335,102.9888888888889,978.7500000000001,102.97727272727273C981.1666666666667,102.96565656565657,983.5833333333335,102.9540404040404,986.0000000000001,102.94242424242424C988.4166666666667,102.93080808080808,990.8333333333335,102.91919191919192,993.2500000000001,102.90757575757576C995.6666666666667,102.8959595959596,998.0833333333333,102.88434343434344,1000.4999999999999,102.87272727272727C1002.9166666666665,102.86111111111111,1005.3333333333333,102.84949494949495,1007.7499999999999,102.8378787878788C1010.1666666666665,102.82626262626263,1012.5833333333333,102.81464646464646,1014.9999999999999,102.8030303030303C1017.4166666666665,102.79141414141414,1019.8333333333333,102.77979797979798,1022.2499999999999,102.76818181818182C1024.6666666666665,102.75656565656566,1027.0833333333333,102.7449494949495,1029.5,102.73333333333333C1031.9166666666667,102.72171717171717,1034.3333333333333,102.71010101010101,1036.75,102.69848484848485C1039.1666666666667,102.68686868686869,1041.5833333333333,102.67525252525252,1044,102.66363636363636C1046.4166666666667,102.6520202020202,1048.8333333333333,102.64040404040404,1051.25,102.62878787878788C1053.6666666666667,102.61717171717171,1056.0833333333333,102.60555555555555,1058.5,102.5939393939394C1060.9166666666667,102.58232323232323,1063.3333333333333,102.57070707070707,1065.75,102.55909090909091C1068.1666666666667,102.54747474747475,1070.5833333333333,102.53585858585858,1073,102.52424242424242C1075.4166666666667,102.51262626262626,1077.8333333333333,102.5010101010101,1080.25,102.48939393939393C1082.6666666666667,102.47777777777777,1085.0833333333333,102.46616161616161,1087.5,102.45454545454545C1089.9166666666667,102.44292929292929,1092.3333333333333,102.43131313131313,1094.75,102.41969696969697C1097.1666666666667,102.40808080808081,1099.5833333333333,102.39646464646464,1102,102.38484848484848C1104.4166666666667,102.37323232323232,1106.8333333333333,102.36161616161617,1109.25,102.35000000000001C1111.6666666666667,102.33838383838385,1114.0833333333333,102.32676767676767,1116.5,102.31515151515151C1118.9166666666667,102.30353535353535,1121.3333333333333,102.29191919191919,1123.75,102.28030303030303C1126.1666666666667,102.26868686868687,1128.5833333333333,102.25707070707071,1131,102.24545454545455C1133.4166666666667,102.23383838383839,1135.8333333333333,102.22222222222223,1138.25,102.21060606060607C1140.6666666666667,102.19898989898991,1143.0833333333333,102.18737373737373,1145.5,102.17575757575757C1147.9166666666667,102.16414141414141,1150.3333333333333,102.15252525252525,1152.75,102.14090909090909C1155.1666666666667,102.12929292929293,1157.5833333333333,102.11767676767677,1160,102.10606060606061C1162.4166666666667,102.09444444444445,1164.8333333333333,102.08282828282829,1167.25,102.07121212121213C1169.6666666666667,102.05959595959597,1172.0833333333333,102.04797979797979,1174.5,102.03636363636363C1176.9166666666667,102.02474747474747,1179.3333333333333,102.01313131313131,1181.75,102.00151515151515C1184.1666666666667,101.98989898989899,1186.5833333333333,101.97828282828283,1189,101.96666666666667C1191.4166666666667,101.95505050505051,1193.8333333333333,101.94343434343435,1196.25,101.93181818181819C1198.6666666666667,101.92020202020203,1201.0833333333333,101.90858585858587,1203.5,101.8969696969697C1205.9166666666667,101.88535353535354,1208.3333333333333,101.87373737373737,1210.75,101.86212121212121C1213.1666666666667,101.85050505050505,1215.5833333333333,101.83888888888889,1218,101.82727272727273C1220.4166666666667,101.81565656565657,1222.8333333333333,101.8040404040404,1225.25,101.79242424242425C1227.6666666666667,101.78080808080809,1230.0833333333333,101.76919191919193,1232.5,101.75757575757576C1234.9166666666667,101.7459595959596,1237.3333333333333,101.73434343434343,1239.75,101.72272727272727C1242.1666666666667,101.71111111111111,1244.5833333333333,101.69949494949495,1247,101.68787878787879C1249.4166666666667,101.67626262626263,1251.8333333333333,101.66464646464647,1254.25,101.6530303030303C1256.6666666666667,101.64141414141415,1259.0833333333333,101.62979797979798,1261.5,101.61818181818182C1263.9166666666667,101.60656565656566,1266.3333333333333,101.59494949494949,1268.75,101.58333333333333C1271.1666666666667,101.57171717171717,1273.5833333333333,101.56010101010101,1276,101.54848484848485C1278.4166666666667,101.53686868686869,1280.8333333333333,101.52525252525253,1283.25,101.51363636363637C1285.6666666666667,101.5020202020202,1288.0833333333333,101.49040404040404,1290.5,101.47878787878788C1292.9166666666667,101.46717171717172,1295.3333333333333,101.45555555555555,1297.75,101.44393939393939C1300.1666666666667,101.43232323232323,1302.5833333333333,101.43232323232323,1305,101.4090909090909C1307.4166666666667,101.38585858585859,1309.8333333333333,98.62121212121212,1312.25,97.22727272727273C1314.6666666666667,95.83333333333334,1317.0833333333333,94.43939393939394,1319.5,93.04545454545455C1321.9166666666667,91.65151515151516,1324.3333333333333,90.25757575757575,1326.75,88.86363636363636C1329.1666666666667,87.46969696969697,1331.5833333333333,86.07575757575756,1334,84.68181818181817C1336.4166666666667,83.28787878787878,1338.8333333333333,81.89393939393939,1341.25,80.5C1343.6666666666667,79.10606060606061,1346.0833333333333,77.7121212121212,1348.5,76.31818181818181C1350.9166666666667,74.92424242424242,1353.3333333333333,73.53030303030302,1355.75,72.13636363636363C1358.1666666666667,70.74242424242424,1360.5833333333333,69.34848484848483,1363,67.95454545454544C1365.4166666666667,66.56060606060605,1367.8333333333333,65.16666666666666,1370.25,63.77272727272727C1372.6666666666667,62.37878787878788,1375.0833333333333,60.984848484848484,1377.5,59.59090909090909C1379.9166666666667,58.1969696969697,1382.3333333333333,56.80303030303031,1384.75,55.40909090909092C1387.1666666666667,54.01515151515153,1389.5833333333333,52.621212121212125,1392,51.22727272727273C1394.4166666666667,49.83333333333333,1396.8333333333333,48.43939393939394,1399.25,47.04545454545454C1401.6666666666667,45.65151515151514,1404.0833333333333,44.25757575757575,1406.5,42.86363636363636C1408.9166666666667,41.46969696969697,1411.3333333333333,40.075757575757564,1413.75,38.68181818181817C1416.1666666666667,37.28787878787878,1418.5833333333333,35.8939393939394,1421,34.50000000000001C1423.4166666666667,33.106060606060616,1425.8333333333333,31.712121212121215,1428.25,30.31818181818182C1430.6666666666667,28.924242424242426,1433.0833333333333,27.530303030303035,1435.5,26.13636363636364C1437.9166666666667,24.742424242424246,1440.3333333333333,23.34848484848485,1442.75,21.954545454545457C1445.1666666666667,20.560606060606062,1447.5833333333333,19.166666666666668,1450,17.772727272727273" fill="transparent" stroke-linecap="round" stroke="#E7C6DF" stroke-width="2"></path><g class="visx-group visx-axis visx-axis-bottom" transform="translate(0, 115)"><g class="visx-group visx-axis-tick" transform="translate(0, 0)"><line class="visx-line" x1="0" y1="0" x2="0" y2="8" fill="transparent" shape-rendering="crispEdges" stroke="#000" stroke-width="0" stroke-linecap="square"></line><svg x="0" y="0" font-size="10" style="overflow:visible"><text transform="" x="0" y="18" fill="#000" font-size="10" text-anchor="middle"><tspan x="0" dy="0em">0%</tspan></text></svg></g><g class="visx-group visx-axis-tick" transform="translate(0, 0)"><line class="visx-line" x1="362.5" y1="0" x2="362.5" y2="8" fill="transparent" shape-rendering="crispEdges" stroke="#000" stroke-width="0" stroke-linecap="square"></line><svg x="0" y="0" font-size="10" style="overflow:visible"><text transform="" x="362.5" y="18" fill="#000" font-size="10" text-anchor="middle"><tspan x="362.5" dy="0em">25%</tspan></text></svg></g><g class="visx-group visx-axis-tick" transform="translate(0, 0)"><line class="visx-line" x1="725" y1="0" x2="725" y2="8" fill="transparent" shape-rendering="crispEdges" stroke="#000" stroke-width="0" stroke-linecap="square"></line><svg x="0" y="0" font-size="10" style="overflow:visible"><text transform="" x="725" y="18" fill="#000" font-size="10" text-anchor="middle"><tspan x="725" dy="0em">50%</tspan></text></svg></g><g class="visx-group visx-axis-tick" transform="translate(0, 0)"><line class="visx-line" x1="1087.5" y1="0" x2="1087.5" y2="8" fill="transparent" shape-rendering="crispEdges" stroke="#000" stroke-width="0" stroke-linecap="square"></line><svg x="0" y="0" font-size="10" style="overflow:visible"><text transform="" x="1087.5" y="18" fill="#000" font-size="10" text-anchor="middle"><tspan x="1087.5" dy="0em">75%</tspan></text></svg></g><g class="visx-group visx-axis-tick" transform="translate(0, 0)"><line class="visx-line" x1="1450" y1="0" x2="1450" y2="8" fill="transparent" shape-rendering="crispEdges" stroke="#000" stroke-width="0" stroke-linecap="square"></line><svg x="0" y="0" font-size="10" style="overflow:visible"><text transform="" x="1450" y="18" fill="#000" font-size="10" text-anchor="middle"><tspan x="1450" dy="0em">100%</tspan></text></svg></g><line class="visx-line visx-axis-line" x1="0.5" y1="0" x2="1450.5" y2="0" fill="transparent" shape-rendering="crispEdges" stroke="#222" stroke-width="0"></line></g><g class="visx-group visx-axis visx-axis-left" transform="translate(0, 0)"><g class="visx-group visx-axis-tick" transform="translate(0, 0)"><line class="visx-line" x1="0" y1="115" x2="-8" y2="115" fill="transparent" shape-rendering="crispEdges" stroke="#222" stroke-width="0" stroke-linecap="square"></line><svg x="-30" y="0" font-size="8" style="overflow:visible"><text transform="" x="-8" y="115" fill="#000" font-size="8" text-anchor="start"><tspan x="-8" dy="0em">0%</tspan></text></svg></g><g class="visx-group visx-axis-tick" transform="translate(0, 0)"><line class="visx-line" x1="0" y1="62.72727272727272" x2="-8" y2="62.72727272727272" fill="transparent" shape-rendering="crispEdges" stroke="#222" stroke-width="0" stroke-linecap="square"></line><svg x="-30" y="0" font-size="8" style="overflow:visible"><text transform="" x="-8" y="62.72727272727272" fill="#000" font-size="8" text-anchor="start"><tspan x="-8" dy="0em">50%</tspan></text></svg></g><g class="visx-group visx-axis-tick" transform="translate(0, 0)"><line class="visx-line" x1="0" y1="10.454545454545459" x2="-8" y2="10.454545454545459" fill="transparent" shape-rendering="crispEdges" stroke="#222" stroke-width="0" stroke-linecap="square"></line><svg x="-30" y="0" font-size="8" style="overflow:visible"><text transform="" x="-8" y="10.454545454545459" fill="#000" font-size="8" text-anchor="start"><tspan x="-8" dy="0em">100%</tspan></text></svg></g><line class="visx-line visx-axis-line" x1="0" y1="115.5" x2="0" y2="0.5" fill="transparent" shape-rendering="crispEdges" stroke="#222" stroke-width="0"></line></g><rect class="visx-bar" width="1450" height="115" fill="transparent"></rect><line class="visx-line" x1="1305" y1="28" x2="1305" y2="115" fill="transparent" shape-rendering="crispEdges" stroke="#0062D2" stroke-width="1" pointer-events="none" stroke-dasharray="5,2"></line><svg x="0" y="0" font-size="10px" style="overflow:visible"><text transform="" x="1305" y="20" font-size="10px" fill="#fff" stroke="#fff" stroke-width="0.8em" text-anchor="middle"><tspan x="1305" dy="0.355em">Optimal 90%</tspan></text></svg><svg x="0" y="0" font-size="10px" style="overflow:visible"><text transform="" x="1305" y="20" font-size="10px" fill="#62677B" text-anchor="middle"><tspan x="1305" dy="0.355em">Optimal 90%</tspan></text></svg></g></svg>