<?xml version="1.0"?><svg xmlns="http://www.w3.org/2000/svg" xmlns:xlink= "http://www.w3.org/1999/xlink" style="background: white;" width="1500" height="185"> <g style="color: black; font-size: 13px; font-family: sans-serif; transform: translate(18px, 25px);"><g><circle r="3" cx="-6" cy="-5" style="fill: #B6509E" /><text>Borrow APR, variable</text></g><g style="transform: translateX(150px);"><circle r="3" cx="-6" cy="-5" style="fill: rgb(231, 198, 223)" /><text>Borrow APR, stable</text></g><g style="transform: translateX(290px);"><circle r="3" cx="-6" cy="-5" style="fill: rgb(0, 98, 210)" /><text>Utilization Rate</text></g></g><g class="visx-group" transform="translate(40, 50)"><g class="visx-group visx-rows" transform="translate(0, 0)"><line class="visx-line" x1="0" y1="115" x2="1450" y2="115" fill="transparent" shape-rendering="crispEdges" stroke="#000" stroke-width="1" stroke-dasharray="3,3" pointer-events="none"></line><line class="visx-line" x1="0" y1="82.14285714285714" x2="1450" y2="82.14285714285714" fill="transparent" shape-rendering="crispEdges" stroke="#000" stroke-width="1" stroke-dasharray="3,3" pointer-events="none"></line><line class="visx-line" x1="0" y1="49.28571428571429" x2="1450" y2="49.28571428571429" fill="transparent" shape-rendering="crispEdges" stroke="#000" stroke-width="1" stroke-dasharray="3,3" pointer-events="none"></line><line class="visx-line" x1="0" y1="16.428571428571434" x2="1450" y2="16.428571428571434" fill="transparent" shape-rendering="crispEdges" stroke="#000" stroke-width="1" stroke-dasharray="3,3" pointer-events="none"></line></g><path class="visx-linepath" d="M0,114.99999999992698C2.4166666666666665,114.9878306877881,4.833333333333334,114.97566137564921,7.25,114.96349206349207C9.666666666666666,114.95132275133493,12.083333333333334,114.93915343915343,14.5,114.92698412698412C16.916666666666668,114.91481481481482,19.333333333333332,114.9026455026455,21.75,114.89047619047619C24.166666666666668,114.87830687830689,26.583333333333332,114.86613756613755,29,114.85396825396825C31.416666666666668,114.84179894179894,33.833333333333336,114.82962962962962,36.25,114.81746031746032C38.666666666666664,114.80529100529101,41.083333333333336,114.79312169312169,43.5,114.78095238095239C45.91666666666667,114.76878306878307,48.333333333333336,114.75661375661376,50.75000000000001,114.74444444444444C53.16666666666667,114.73227513227513,55.583333333333336,114.72010582010581,58,114.70793650793651C60.416666666666664,114.69576719576719,62.833333333333336,114.68359788359787,65.25,114.67142857142856C67.66666666666667,114.65925925925926,70.08333333333333,114.64708994708994,72.5,114.63492063492063C74.91666666666667,114.62275132275133,77.33333333333333,114.610582010582,79.75,114.59841269841269C82.16666666666667,114.58624338624338,84.58333333333333,114.57407407407406,87,114.56190476190476C89.41666666666667,114.54973544973545,91.83333333333333,114.53756613756613,94.25,114.52539682539683C96.66666666666667,114.5132275132275,99.08333333333334,114.5010582010582,101.50000000000001,114.48888888888888C103.91666666666667,114.47671957671957,106.33333333333334,114.46455026455025,108.75,114.45238095238095C111.16666666666667,114.44021164021163,113.58333333333333,114.42804232804231,116,114.415873015873C118.41666666666667,114.40370370370368,120.83333333333334,114.39153439153438,123.25000000000001,114.37936507936507C125.66666666666667,114.36719576719577,128.08333333333334,114.35502645502645,130.5,114.34285714285714C132.91666666666666,114.33068783068784,135.33333333333334,114.31851851851852,137.75,114.30634920634921C140.16666666666666,114.2941798941799,142.58333333333334,114.28201058201057,145,114.26984126984127C147.41666666666666,114.25767195767196,149.83333333333334,114.24550264550264,152.25,114.23333333333333C154.66666666666666,114.22116402116403,157.08333333333334,114.20899470899471,159.5,114.1968253968254C161.91666666666666,114.1846560846561,164.33333333333334,114.17248677248678,166.75,114.16031746031747C169.16666666666666,114.14814814814817,171.58333333333334,114.13597883597883,174,114.12380952380953C176.41666666666666,114.11164021164022,178.83333333333334,114.0994708994709,181.25,114.0873015873016C183.66666666666666,114.07513227513229,186.08333333333334,114.06296296296296,188.5,114.05079365079365C190.91666666666666,114.03862433862435,193.33333333333334,114.02645502645503,195.75,114.01428571428572C198.16666666666669,114.00211640211641,200.58333333333334,113.98994708994711,203.00000000000003,113.97777777777779C205.41666666666669,113.96560846560848,207.83333333333331,113.95343915343915,210.24999999999997,113.94126984126984C212.66666666666666,113.92910052910052,215.08333333333331,113.91693121693123,217.5,113.90476190476191C219.91666666666666,113.8925925925926,222.33333333333334,113.88042328042327,224.75,113.86825396825397C227.16666666666666,113.85608465608466,229.58333333333334,113.84391534391534,232,113.83174603174604C234.41666666666666,113.81957671957673,236.83333333333334,113.8074074074074,239.25,113.79523809523809C241.66666666666669,113.78306878306877,244.08333333333334,113.77089947089947,246.50000000000003,113.75873015873016C248.91666666666669,113.74656084656085,251.33333333333331,113.73439153439153,253.74999999999997,113.72222222222223C256.16666666666663,113.71005291005291,258.5833333333333,113.6978835978836,261,113.68571428571428C263.4166666666667,113.67354497354498,265.8333333333333,113.66137566137566,268.25,113.64920634920635C270.6666666666667,113.63703703703705,273.0833333333333,113.62486772486771,275.5,113.6126984126984C277.9166666666667,113.6005291005291,280.3333333333333,113.58835978835978,282.75,113.57619047619048C285.1666666666667,113.56402116402117,287.5833333333333,113.55185185185185,290,113.53968253968254C292.4166666666667,113.52751322751324,294.8333333333333,113.5153439153439,297.25,113.5031746031746C299.6666666666667,113.4910052910053,302.0833333333333,113.47883597883597,304.5,113.46666666666667C306.9166666666667,113.45449735449736,309.3333333333333,113.44232804232803,311.75,113.43015873015872C314.1666666666667,113.41798941798942,316.5833333333333,113.4058201058201,319,113.39365079365079C321.4166666666667,113.38148148148149,323.8333333333333,113.36931216931217,326.25,113.35714285714286C328.6666666666667,113.34497354497356,331.0833333333333,113.33280423280422,333.5,113.32063492063492C335.9166666666667,113.30846560846561,338.3333333333333,113.29629629629629,340.75,113.28412698412698C343.1666666666667,113.27195767195768,345.5833333333333,113.25978835978835,348,113.24761904761904C350.4166666666667,113.23544973544973,352.8333333333333,113.22328042328041,355.25,113.21111111111111C357.6666666666667,113.1989417989418,360.0833333333333,113.18677248677248,362.5,113.17460317460318C364.9166666666667,113.16243386243387,367.3333333333333,113.15026455026454,369.75,113.13809523809523C372.1666666666667,113.12592592592593,374.5833333333333,113.1137566137566,377,113.1015873015873C379.4166666666667,113.089417989418,381.8333333333333,113.07724867724866,384.25,113.06507936507936C386.6666666666667,113.05291005291005,389.0833333333333,113.04074074074073,391.5,113.02857142857142C393.9166666666667,113.0164021164021,396.33333333333337,113.0042328042328,398.75000000000006,112.99206349206348C401.16666666666674,112.97989417989417,403.58333333333337,112.96772486772485,406.00000000000006,112.95555555555555C408.4166666666667,112.94338624338624,410.8333333333333,112.93121693121692,413.24999999999994,112.91904761904762C415.66666666666663,112.90687830687831,418.08333333333326,112.89470899470899,420.49999999999994,112.88253968253969C422.91666666666663,112.87037037037038,425.3333333333333,112.85820105820108,427.75,112.84603174603176C430.1666666666667,112.83386243386245,432.5833333333333,112.82169312169312,435,112.80952380952381C437.4166666666667,112.7973544973545,439.8333333333333,112.78518518518518,442.25,112.77301587301588C444.6666666666667,112.76084656084657,447.0833333333333,112.74867724867725,449.5,112.73650793650795C451.9166666666667,112.72433862433864,454.3333333333333,112.71216931216931,456.75,112.7C459.1666666666667,112.6878306878307,461.5833333333333,112.67566137566138,464,112.66349206349207C466.4166666666667,112.65132275132277,468.8333333333333,112.63915343915343,471.25,112.62698412698413C473.6666666666667,112.61481481481482,476.0833333333333,112.6026455026455,478.5,112.5904761904762C480.9166666666667,112.57830687830689,483.33333333333337,112.56613756613758,485.75000000000006,112.55396825396826C488.16666666666674,112.54179894179896,490.58333333333337,112.52962962962964,493.00000000000006,112.51746031746032C495.4166666666667,112.50529100529101,497.8333333333333,112.4931216931217,500.24999999999994,112.48095238095239C502.66666666666663,112.46878306878307,505.08333333333326,112.45661375661375,507.49999999999994,112.44444444444444C509.91666666666663,112.43227513227512,512.3333333333333,112.42010582010583,514.75,112.40793650793651C517.1666666666666,112.3957671957672,519.5833333333334,112.38359788359787,522,112.37142857142857C524.4166666666666,112.35925925925926,526.8333333333334,112.34708994708994,529.25,112.33492063492064C531.6666666666666,112.32275132275133,534.0833333333334,112.31058201058201,536.5,112.2984126984127C538.9166666666666,112.2862433862434,541.3333333333334,112.27407407407406,543.75,112.26190476190476C546.1666666666666,112.24973544973545,548.5833333333334,112.23756613756613,551,112.22539682539683C553.4166666666666,112.21322751322752,555.8333333333334,112.20105820105819,558.25,112.18888888888888C560.6666666666666,112.17671957671958,563.0833333333334,112.16455026455026,565.5,112.15238095238095C567.9166666666666,112.14021164021165,570.3333333333334,112.12804232804233,572.75,112.11587301587302C575.1666666666666,112.10370370370372,577.5833333333334,112.09153439153438,580,112.07936507936508C582.4166666666666,112.06719576719577,584.8333333333334,112.05502645502645,587.25,112.04285714285714C589.6666666666666,112.03068783068784,592.0833333333334,112.0185185185185,594.5,112.0063492063492C596.9166666666666,111.9941798941799,599.3333333333334,111.98201058201057,601.75,111.96984126984127C604.1666666666666,111.95767195767196,606.5833333333334,111.94550264550264,609,111.93333333333334C611.4166666666666,111.92116402116403,613.8333333333334,111.9089947089947,616.25,111.89682539682539C618.6666666666666,111.88465608465609,621.0833333333334,111.87248677248677,623.5,111.86031746031746C625.9166666666666,111.84814814814816,628.3333333333334,111.83597883597882,630.75,111.82380952380952C633.1666666666666,111.81164021164021,635.5833333333334,111.79947089947089,638,111.78730158730158C640.4166666666666,111.77513227513228,642.8333333333334,111.76296296296296,645.25,111.75079365079365C647.6666666666666,111.73862433862435,650.0833333333334,111.73862433862433,652.5,111.71428571428571C654.9166666666666,111.68994708994708,657.3333333333334,111.11688311688312,659.75,110.81818181818181C662.1666666666666,110.51948051948051,664.5833333333334,110.22077922077922,667,109.92207792207792C669.4166666666666,109.62337662337661,671.8333333333334,109.32467532467533,674.25,109.02597402597402C676.6666666666666,108.72727272727272,679.0833333333334,108.42857142857143,681.5,108.12987012987013C683.9166666666666,107.83116883116882,686.3333333333334,107.53246753246754,688.75,107.23376623376623C691.1666666666666,106.93506493506493,693.5833333333334,106.63636363636364,696,106.33766233766234C698.4166666666666,106.03896103896103,700.8333333333334,105.74025974025975,703.25,105.44155844155844C705.6666666666666,105.14285714285714,708.0833333333334,104.84415584415585,710.5,104.54545454545455C712.9166666666666,104.24675324675324,715.3333333333334,103.94805194805195,717.75,103.64935064935065C720.1666666666666,103.35064935064935,722.5833333333334,103.05194805194805,725,102.75324675324674C727.4166666666666,102.45454545454544,729.8333333333334,102.15584415584415,732.25,101.85714285714285C734.6666666666666,101.55844155844154,737.0833333333334,101.25974025974025,739.5,100.96103896103895C741.9166666666666,100.66233766233765,744.3333333333334,100.36363636363635,746.75,100.06493506493506C749.1666666666666,99.76623376623377,751.5833333333334,99.46753246753248,754,99.16883116883118C756.4166666666666,98.87012987012987,758.8333333333334,98.57142857142857,761.25,98.27272727272727C763.6666666666666,97.97402597402596,766.0833333333334,97.67532467532467,768.5,97.37662337662337C770.9166666666666,97.07792207792207,773.3333333333334,96.77922077922076,775.75,96.48051948051948C778.1666666666666,96.18181818181819,780.5833333333334,95.88311688311688,783,95.5844155844156C785.4166666666667,95.28571428571429,787.8333333333334,94.987012987013,790.2500000000001,94.6883116883117C792.6666666666667,94.3896103896104,795.0833333333335,94.09090909090911,797.5000000000001,93.7922077922078C799.9166666666667,93.4935064935065,802.3333333333335,93.1948051948052,804.7500000000001,92.8961038961039C807.1666666666667,92.59740259740259,809.5833333333335,92.2987012987013,812.0000000000001,92C814.4166666666667,91.7012987012987,816.8333333333333,91.40259740259738,819.2499999999999,91.10389610389609C821.6666666666665,90.80519480519479,824.0833333333333,90.50649350649351,826.4999999999999,90.20779220779221C828.9166666666665,89.9090909090909,831.3333333333333,89.6103896103896,833.7499999999999,89.3116883116883C836.1666666666665,89.012987012987,838.5833333333333,88.71428571428571,840.9999999999999,88.41558441558442C843.4166666666666,88.11688311688312,845.8333333333333,87.81818181818183,848.25,87.51948051948052C850.6666666666666,87.22077922077924,853.0833333333334,86.92207792207793,855.5,86.62337662337663C857.9166666666666,86.32467532467533,860.3333333333334,86.02597402597402,862.75,85.72727272727272C865.1666666666666,85.42857142857142,867.5833333333334,85.12987012987013,870,84.83116883116884C872.4166666666666,84.53246753246755,874.8333333333334,84.23376623376625,877.25,83.93506493506494C879.6666666666666,83.63636363636364,882.0833333333334,83.33766233766235,884.5,83.03896103896105C886.9166666666666,82.74025974025975,889.3333333333334,82.44155844155844,891.75,82.14285714285714C894.1666666666666,81.84415584415584,896.5833333333334,81.54545454545453,899,81.24675324675324C901.4166666666666,80.94805194805195,903.8333333333334,80.64935064935067,906.25,80.35064935064936C908.6666666666666,80.05194805194806,911.0833333333334,79.75324675324676,913.5,79.45454545454545C915.9166666666666,79.15584415584415,918.3333333333334,78.85714285714286,920.75,78.55844155844156C923.1666666666666,78.25974025974025,925.5833333333334,77.96103896103897,928,77.66233766233766C930.4166666666666,77.36363636363636,932.8333333333334,77.06493506493507,935.25,76.76623376623377C937.6666666666666,76.46753246753246,940.0833333333334,76.16883116883118,942.5,75.87012987012987C944.9166666666666,75.57142857142857,947.3333333333334,75.27272727272728,949.75,74.97402597402598C952.1666666666666,74.67532467532467,954.5833333333334,74.37662337662339,957,74.07792207792208C959.4166666666666,73.77922077922078,961.8333333333334,73.48051948051949,964.25,73.18181818181819C966.6666666666667,72.88311688311688,969.0833333333334,72.58441558441558,971.5000000000001,72.28571428571428C973.9166666666667,71.98701298701297,976.3333333333335,71.68831168831167,978.7500000000001,71.38961038961037C981.1666666666667,71.09090909090907,983.5833333333335,70.79220779220778,986.0000000000001,70.49350649350649C988.4166666666667,70.1948051948052,990.8333333333335,69.8961038961039,993.2500000000001,69.59740259740259C995.6666666666667,69.2987012987013,998.0833333333333,68.99999999999999,1000.4999999999999,68.7012987012987C1002.9166666666665,68.4025974025974,1005.3333333333333,68.10389610389612,1007.7499999999999,67.80519480519482C1010.1666666666665,67.50649350649351,1012.5833333333333,67.20779220779221,1014.9999999999999,66.9090909090909C1017.4166666666665,66.6103896103896,1019.8333333333333,66.3116883116883,1022.2499999999999,66.01298701298701C1024.6666666666665,65.71428571428571,1027.0833333333333,65.41558441558442,1029.5,65.11688311688312C1031.9166666666667,64.81818181818183,1034.3333333333333,64.51948051948054,1036.75,64.22077922077924C1039.1666666666667,63.92207792207794,1041.5833333333333,63.623376623376615,1044,63.32467532467532C1046.4166666666667,63.02597402597402,1048.8333333333333,62.727272727272734,1051.25,62.42857142857144C1053.6666666666667,62.12987012987014,1056.0833333333333,61.83116883116883,1058.5,61.53246753246753C1060.9166666666667,61.233766233766225,1063.3333333333333,60.93506493506493,1065.75,60.63636363636363C1068.1666666666667,60.33766233766234,1070.5833333333333,60.038961038961034,1073,59.74025974025974C1075.4166666666667,59.44155844155844,1077.8333333333333,59.142857142857146,1080.25,58.84415584415585C1082.6666666666667,58.545454545454554,1085.0833333333333,58.24675324675326,1087.5,57.948051948051955C1089.9166666666667,57.64935064935065,1092.3333333333333,57.35064935064935,1094.75,57.051948051948045C1097.1666666666667,56.75324675324674,1099.5833333333333,56.454545454545446,1102,56.15584415584415C1104.4166666666667,55.857142857142854,1106.8333333333333,55.55844155844156,1109.25,55.25974025974026C1111.6666666666667,54.961038961038966,1114.0833333333333,54.66233766233767,1116.5,54.36363636363637C1118.9166666666667,54.064935064935064,1121.3333333333333,53.76623376623375,1123.75,53.46753246753246C1126.1666666666667,53.16883116883116,1128.5833333333333,52.87012987012987,1131,52.57142857142858C1133.4166666666667,52.27272727272728,1135.8333333333333,51.974025974025984,1138.25,51.67532467532468C1140.6666666666667,51.37662337662338,1143.0833333333333,51.07792207792207,1145.5,50.77922077922077C1147.9166666666667,50.480519480519476,1150.3333333333333,50.18181818181818,1152.75,49.883116883116884C1155.1666666666667,49.58441558441559,1157.5833333333333,49.28571428571427,1160,48.987012987012974C1162.4166666666667,48.68831168831168,1164.8333333333333,48.38961038961039,1167.25,48.09090909090909C1169.6666666666667,47.7922077922078,1172.0833333333333,47.493506493506494,1174.5,47.1948051948052C1176.9166666666667,46.8961038961039,1179.3333333333333,46.5974025974026,1181.75,46.2987012987013C1184.1666666666667,46.00000000000001,1186.5833333333333,45.70129870129871,1189,45.40259740259741C1191.4166666666667,45.103896103896105,1193.8333333333333,44.805194805194795,1196.25,44.5064935064935C1198.6666666666667,44.2077922077922,1201.0833333333333,43.90909090909091,1203.5,43.61038961038961C1205.9166666666667,43.311688311688314,1208.3333333333333,43.012987012987,1210.75,42.7142857142857C1213.1666666666667,42.415584415584405,1215.5833333333333,42.116883116883116,1218,41.81818181818182C1220.4166666666667,41.519480519480524,1222.8333333333333,41.22077922077922,1225.25,40.922077922077925C1227.6666666666667,40.62337662337663,1230.0833333333333,40.324675324675326,1232.5,40.02597402597403C1234.9166666666667,39.727272727272734,1237.3333333333333,39.42857142857142,1239.75,39.12987012987013C1242.1666666666667,38.83116883116883,1244.5833333333333,38.53246753246753,1247,38.23376623376623C1249.4166666666667,37.935064935064936,1251.8333333333333,37.63636363636364,1254.25,37.33766233766234C1256.6666666666667,37.038961038961034,1259.0833333333333,36.740259740259724,1261.5,36.44155844155843C1263.9166666666667,36.14285714285713,1266.3333333333333,35.84415584415584,1268.75,35.54545454545455C1271.1666666666667,35.24675324675325,1273.5833333333333,34.94805194805195,1276,34.64935064935065C1278.4166666666667,34.350649350649356,1280.8333333333333,34.05194805194806,1283.25,33.75324675324676C1285.6666666666667,33.45454545454547,1288.0833333333333,33.15584415584416,1290.5,32.857142857142854C1292.9166666666667,32.55844155844155,1295.3333333333333,32.259740259740255,1297.75,31.96103896103896C1300.1666666666667,31.66233766233766,1302.5833333333333,31.363636363636363,1305,31.064935064935064C1307.4166666666667,30.766233766233764,1309.8333333333333,30.46753246753246,1312.25,30.168831168831165C1314.6666666666667,29.87012987012987,1317.0833333333333,29.57142857142858,1319.5,29.272727272727284C1321.9166666666667,28.974025974025988,1324.3333333333333,28.675324675324685,1326.75,28.376623376623385C1329.1666666666667,28.077922077922086,1331.5833333333333,27.779220779220775,1334,27.480519480519476C1336.4166666666667,27.181818181818176,1338.8333333333333,26.883116883116895,1341.25,26.584415584415595C1343.6666666666667,26.285714285714295,1346.0833333333333,25.987012987012985,1348.5,25.688311688311686C1350.9166666666667,25.389610389610386,1353.3333333333333,25.090909090909086,1355.75,24.792207792207787C1358.1666666666667,24.493506493506487,1360.5833333333333,24.194805194805177,1363,23.896103896103877C1365.4166666666667,23.597402597402578,1367.8333333333333,23.29870129870129,1370.25,22.999999999999996C1372.6666666666667,22.701298701298704,1375.0833333333333,22.402597402597408,1377.5,22.103896103896112C1379.9166666666667,21.805194805194816,1382.3333333333333,21.506493506493513,1384.75,21.207792207792213C1387.1666666666667,20.909090909090914,1389.5833333333333,20.610389610389607,1392,20.311688311688307C1394.4166666666667,20.012987012987008,1396.8333333333333,19.714285714285705,1399.25,19.41558441558441C1401.6666666666667,19.116883116883113,1404.0833333333333,18.818181818181824,1406.5,18.519480519480524C1408.9166666666667,18.220779220779225,1411.3333333333333,17.922077922077914,1413.75,17.623376623376615C1416.1666666666667,17.324675324675315,1418.5833333333333,17.02597402597403,1421,16.727272727272734C1423.4166666666667,16.428571428571438,1425.8333333333333,16.129870129870138,1428.25,15.831168831168837C1430.6666666666667,15.532467532467535,1433.0833333333333,15.233766233766227,1435.5,14.935064935064927C1437.9166666666667,14.636363636363628,1440.3333333333333,14.337662337662339,1442.75,14.038961038961043C1445.1666666666667,13.740259740259747,1447.5833333333333,13.441558441558447,1450,13.142857142857148" fill="transparent" stroke-linecap="round" stroke="#B6509E" stroke-width="2"></path><path class="visx-linepath" d="M0,111.71428571427111C2.4166666666666665,111.71185185184333,4.833333333333334,111.70941798941556,7.25,111.70698412698412C9.666666666666666,111.7045502645527,12.083333333333334,111.7021164021164,14.5,111.69968253968254C16.916666666666668,111.69724867724868,19.333333333333332,111.69481481481482,21.75,111.69238095238096C24.166666666666668,111.6899470899471,26.583333333333332,111.68751322751322,29,111.68507936507936C31.416666666666668,111.6826455026455,33.833333333333336,111.68021164021164,36.25,111.67777777777778C38.666666666666664,111.67534391534392,41.083333333333336,111.67291005291005,43.5,111.6704761904762C45.91666666666667,111.66804232804233,48.333333333333336,111.66560846560846,50.75000000000001,111.6631746031746C53.16666666666667,111.66074074074074,55.583333333333336,111.65830687830689,58,111.65587301587303C60.416666666666664,111.65343915343917,62.833333333333336,111.65100529100529,65.25,111.64857142857143C67.66666666666667,111.64613756613757,70.08333333333333,111.6437037037037,72.5,111.64126984126983C74.91666666666667,111.63883597883597,77.33333333333333,111.63640211640212,79.75,111.63396825396826C82.16666666666667,111.6315343915344,84.58333333333333,111.62910052910053,87,111.62666666666667C89.41666666666667,111.6242328042328,91.83333333333333,111.62179894179894,94.25,111.61936507936508C96.66666666666667,111.61693121693122,99.08333333333334,111.61449735449736,101.50000000000001,111.6120634920635C103.91666666666667,111.60962962962964,106.33333333333334,111.60719576719576,108.75,111.6047619047619C111.16666666666667,111.60232804232804,113.58333333333333,111.59989417989418,116,111.59746031746032C118.41666666666667,111.59502645502646,120.83333333333334,111.59259259259258,123.25000000000001,111.59015873015872C125.66666666666667,111.58772486772486,128.08333333333334,111.58529100529101,130.5,111.58285714285715C132.91666666666666,111.58042328042329,135.33333333333334,111.57798941798941,137.75,111.57555555555555C140.16666666666666,111.57312169312169,142.58333333333334,111.57068783068782,145,111.56825396825396C147.41666666666666,111.5658201058201,149.83333333333334,111.56338624338625,152.25,111.56095238095239C154.66666666666666,111.55851851851853,157.08333333333334,111.55608465608465,159.5,111.55365079365079C161.91666666666666,111.55121693121693,164.33333333333334,111.54878306878307,166.75,111.5463492063492C169.16666666666666,111.54391534391534,171.58333333333334,111.54148148148148,174,111.53904761904762C176.41666666666666,111.53661375661376,178.83333333333334,111.53417989417989,181.25,111.53174603174602C183.66666666666666,111.52931216931216,186.08333333333334,111.5268783068783,188.5,111.52444444444444C190.91666666666666,111.52201058201058,193.33333333333334,111.51957671957672,195.75,111.51714285714286C198.16666666666669,111.514708994709,200.58333333333334,111.51227513227514,203.00000000000003,111.50984126984127C205.41666666666669,111.50740740740741,207.83333333333331,111.50497354497354,210.24999999999997,111.50253968253968C212.66666666666666,111.50010582010582,215.08333333333331,111.49767195767195,217.5,111.4952380952381C219.91666666666666,111.49280423280423,222.33333333333334,111.49037037037037,224.75,111.48793650793651C227.16666666666666,111.48550264550265,229.58333333333334,111.48306878306877,232,111.48063492063491C234.41666666666666,111.47820105820105,236.83333333333334,111.4757671957672,239.25,111.47333333333334C241.66666666666669,111.47089947089948,244.08333333333334,111.4684656084656,246.50000000000003,111.46603174603175C248.91666666666669,111.46359788359788,251.33333333333331,111.46116402116402,253.74999999999997,111.45873015873016C256.16666666666663,111.4562962962963,258.5833333333333,111.45386243386243,261,111.45142857142856C263.4166666666667,111.4489947089947,265.8333333333333,111.44656084656084,268.25,111.44412698412698C270.6666666666667,111.44169312169312,273.0833333333333,111.43925925925926,275.5,111.4368253968254C277.9166666666667,111.43439153439154,280.3333333333333,111.43195767195768,282.75,111.42952380952381C285.1666666666667,111.42708994708995,287.5833333333333,111.42465608465609,290,111.42222222222223C292.4166666666667,111.41978835978837,294.8333333333333,111.4173544973545,297.25,111.41492063492063C299.6666666666667,111.41248677248677,302.0833333333333,111.4100529100529,304.5,111.40761904761904C306.9166666666667,111.40518518518518,309.3333333333333,111.40275132275133,311.75,111.40031746031747C314.1666666666667,111.3978835978836,316.5833333333333,111.39544973544973,319,111.39301587301587C321.4166666666667,111.39058201058201,323.8333333333333,111.38814814814815,326.25,111.38571428571429C328.6666666666667,111.38328042328042,331.0833333333333,111.38084656084656,333.5,111.3784126984127C335.9166666666667,111.37597883597884,338.3333333333333,111.37354497354497,340.75,111.3711111111111C343.1666666666667,111.36867724867724,345.5833333333333,111.36624338624338,348,111.36380952380952C350.4166666666667,111.36137566137566,352.8333333333333,111.3589417989418,355.25,111.35650793650794C357.6666666666667,111.35407407407408,360.0833333333333,111.35164021164022,362.5,111.34920634920636C364.9166666666667,111.3467724867725,367.3333333333333,111.34433862433862,369.75,111.34190476190476C372.1666666666667,111.3394708994709,374.5833333333333,111.33703703703704,377,111.33460317460317C379.4166666666667,111.33216931216931,381.8333333333333,111.32973544973545,384.25,111.32730158730159C386.6666666666667,111.32486772486773,389.0833333333333,111.32243386243385,391.5,111.32C393.9166666666667,111.31756613756613,396.33333333333337,111.31513227513229,398.75000000000006,111.31269841269842C401.16666666666674,111.31026455026456,403.58333333333337,111.30783068783069,406.00000000000006,111.30539682539683C408.4166666666667,111.30296296296297,410.8333333333333,111.30052910052909,413.24999999999994,111.29809523809523C415.66666666666663,111.29566137566137,418.08333333333326,111.29322751322752,420.49999999999994,111.29079365079366C422.91666666666663,111.2883597883598,425.3333333333333,111.28592592592592,427.75,111.28349206349206C430.1666666666667,111.2810582010582,432.5833333333333,111.27862433862434,435,111.27619047619048C437.4166666666667,111.27375661375662,439.8333333333333,111.27132275132274,442.25,111.26888888888888C444.6666666666667,111.26645502645502,447.0833333333333,111.26402116402116,449.5,111.2615873015873C451.9166666666667,111.25915343915344,454.3333333333333,111.25671957671958,456.75,111.25428571428571C459.1666666666667,111.25185185185185,461.5833333333333,111.24941798941798,464,111.24698412698412C466.4166666666667,111.24455026455026,468.8333333333333,111.24211640211641,471.25,111.23968253968255C473.6666666666667,111.23724867724869,476.0833333333333,111.23481481481481,478.5,111.23238095238095C480.9166666666667,111.22994708994709,483.33333333333337,111.22751322751323,485.75000000000006,111.22507936507937C488.16666666666674,111.2226455026455,490.58333333333337,111.22021164021164,493.00000000000006,111.21777777777778C495.4166666666667,111.21534391534392,497.8333333333333,111.21291005291005,500.24999999999994,111.21047619047619C502.66666666666663,111.20804232804232,505.08333333333326,111.20560846560846,507.49999999999994,111.2031746031746C509.91666666666663,111.20074074074074,512.3333333333333,111.19830687830688,514.75,111.19587301587302C517.1666666666666,111.19343915343916,519.5833333333334,111.1910052910053,522,111.18857142857144C524.4166666666666,111.18613756613757,526.8333333333334,111.1837037037037,529.25,111.18126984126984C531.6666666666666,111.17883597883598,534.0833333333334,111.17640211640212,536.5,111.17396825396825C538.9166666666666,111.1715343915344,541.3333333333334,111.16910052910053,543.75,111.16666666666667C546.1666666666666,111.16423280423281,548.5833333333334,111.16179894179893,551,111.15936507936507C553.4166666666666,111.15693121693121,555.8333333333334,111.15449735449735,558.25,111.15206349206349C560.6666666666666,111.14962962962963,563.0833333333334,111.14719576719577,565.5,111.1447619047619C567.9166666666666,111.14232804232805,570.3333333333334,111.13989417989417,572.75,111.13746031746031C575.1666666666666,111.13502645502645,577.5833333333334,111.1325925925926,580,111.13015873015874C582.4166666666666,111.12772486772488,584.8333333333334,111.125291005291,587.25,111.12285714285714C589.6666666666666,111.12042328042328,592.0833333333334,111.11798941798942,594.5,111.11555555555556C596.9166666666666,111.1131216931217,599.3333333333334,111.11068783068782,601.75,111.10825396825396C604.1666666666666,111.1058201058201,606.5833333333334,111.10338624338624,609,111.10095238095238C611.4166666666666,111.09851851851852,613.8333333333334,111.09608465608466,616.25,111.0936507936508C618.6666666666666,111.09121693121693,621.0833333333334,111.08878306878306,623.5,111.0863492063492C625.9166666666666,111.08391534391534,628.3333333333334,111.08148148148149,630.75,111.07904761904763C633.1666666666666,111.07661375661377,635.5833333333334,111.07417989417989,638,111.07174603174603C640.4166666666666,111.06931216931217,642.8333333333334,111.0668783068783,645.25,111.06444444444443C647.6666666666666,111.06201058201057,650.0833333333334,111.06201058201057,652.5,111.05714285714286C654.9166666666666,111.05227513227516,657.3333333333334,110.9077922077922,659.75,110.83311688311687C662.1666666666666,110.75844155844155,664.5833333333334,110.68376623376624,667,110.60909090909091C669.4166666666666,110.53441558441558,671.8333333333334,110.45974025974026,674.25,110.38506493506493C676.6666666666666,110.3103896103896,679.0833333333334,110.2357142857143,681.5,110.16103896103897C683.9166666666666,110.08636363636364,686.3333333333334,110.0116883116883,688.75,109.93701298701298C691.1666666666666,109.86233766233765,693.5833333333334,109.78766233766234,696,109.71298701298701C698.4166666666666,109.63831168831169,700.8333333333334,109.56363636363636,703.25,109.48896103896104C705.6666666666666,109.41428571428571,708.0833333333334,109.3396103896104,710.5,109.26493506493507C712.9166666666666,109.19025974025975,715.3333333333334,109.11558441558442,717.75,109.0409090909091C720.1666666666666,108.96623376623377,722.5833333333334,108.89155844155844,725,108.81688311688312C727.4166666666666,108.7422077922078,729.8333333333334,108.66753246753247,732.25,108.59285714285714C734.6666666666666,108.51818181818182,737.0833333333334,108.4435064935065,739.5,108.36883116883118C741.9166666666666,108.29415584415585,744.3333333333334,108.21948051948053,746.75,108.1448051948052C749.1666666666666,108.07012987012988,751.5833333333334,107.99545454545455,754,107.92077922077922C756.4166666666666,107.8461038961039,758.8333333333334,107.77142857142857,761.25,107.69675324675325C763.6666666666666,107.62207792207792,766.0833333333334,107.5474025974026,768.5,107.47272727272727C770.9166666666666,107.39805194805194,773.3333333333334,107.32337662337663,775.75,107.2487012987013C778.1666666666666,107.17402597402598,780.5833333333334,107.09935064935064,783,107.02467532467531C785.4166666666667,106.94999999999999,787.8333333333334,106.87532467532468,790.2500000000001,106.80064935064935C792.6666666666667,106.72597402597403,795.0833333333335,106.6512987012987,797.5000000000001,106.57662337662337C799.9166666666667,106.50194805194805,802.3333333333335,106.42727272727272,804.7500000000001,106.3525974025974C807.1666666666667,106.27792207792207,809.5833333333335,106.20324675324675,812.0000000000001,106.12857142857142C814.4166666666667,106.0538961038961,816.8333333333333,105.97922077922078,819.2499999999999,105.90454545454546C821.6666666666665,105.82987012987013,824.0833333333333,105.7551948051948,826.4999999999999,105.68051948051948C828.9166666666665,105.60584415584415,831.3333333333333,105.53116883116884,833.7499999999999,105.45649350649352C836.1666666666665,105.38181818181819,838.5833333333333,105.30714285714285,840.9999999999999,105.23246753246752C843.4166666666666,105.1577922077922,845.8333333333333,105.08311688311689,848.25,105.00844155844156C850.6666666666666,104.93376623376624,853.0833333333334,104.85909090909091,855.5,104.78441558441558C857.9166666666666,104.70974025974026,860.3333333333334,104.63506493506495,862.75,104.56038961038962C865.1666666666666,104.4857142857143,867.5833333333334,104.41103896103895,870,104.33636363636363C872.4166666666666,104.2616883116883,874.8333333333334,104.18701298701299,877.25,104.11233766233767C879.6666666666666,104.03766233766234,882.0833333333334,103.96298701298701,884.5,103.88831168831169C886.9166666666666,103.81363636363636,889.3333333333334,103.73896103896105,891.75,103.66428571428573C894.1666666666666,103.5896103896104,896.5833333333334,103.51493506493507,899,103.44025974025975C901.4166666666666,103.36558441558442,903.8333333333334,103.2909090909091,906.25,103.21623376623377C908.6666666666666,103.14155844155844,911.0833333333334,103.06688311688312,913.5,102.9922077922078C915.9166666666666,102.91753246753247,918.3333333333334,102.84285714285714,920.75,102.76818181818182C923.1666666666666,102.69350649350649,925.5833333333334,102.61883116883116,928,102.54415584415584C930.4166666666666,102.46948051948051,932.8333333333334,102.39480519480519,935.25,102.32012987012986C937.6666666666666,102.24545454545454,940.0833333333334,102.17077922077922,942.5,102.0961038961039C944.9166666666666,102.02142857142857,947.3333333333334,101.94675324675325,949.75,101.87207792207792C952.1666666666666,101.7974025974026,954.5833333333334,101.72272727272727,957,101.64805194805194C959.4166666666666,101.57337662337662,961.8333333333334,101.49870129870129,964.25,101.42402597402597C966.6666666666667,101.34935064935064,969.0833333333334,101.27467532467533,971.5000000000001,101.2C973.9166666666667,101.12532467532468,976.3333333333335,101.05064935064935,978.7500000000001,100.97597402597403C981.1666666666667,100.9012987012987,983.5833333333335,100.82662337662337,986.0000000000001,100.75194805194805C988.4166666666667,100.67727272727272,990.8333333333335,100.6025974025974,993.2500000000001,100.52792207792207C995.6666666666667,100.45324675324675,998.0833333333333,100.37857142857143,1000.4999999999999,100.30389610389611C1002.9166666666665,100.22922077922078,1005.3333333333333,100.15454545454546,1007.7499999999999,100.07987012987013C1010.1666666666665,100.0051948051948,1012.5833333333333,99.9305194805195,1014.9999999999999,99.85584415584417C1017.4166666666665,99.78116883116884,1019.8333333333333,99.7064935064935,1022.2499999999999,99.63181818181818C1024.6666666666665,99.55714285714285,1027.0833333333333,99.48246753246754,1029.5,99.40779220779221C1031.9166666666667,99.33311688311689,1034.3333333333333,99.25844155844156,1036.75,99.18376623376624C1039.1666666666667,99.10909090909091,1041.5833333333333,99.0344155844156,1044,98.95974025974027C1046.4166666666667,98.88506493506495,1048.8333333333333,98.8103896103896,1051.25,98.73571428571428C1053.6666666666667,98.66103896103895,1056.0833333333333,98.58636363636364,1058.5,98.51168831168832C1060.9166666666667,98.43701298701299,1063.3333333333333,98.36233766233767,1065.75,98.28766233766234C1068.1666666666667,98.21298701298701,1070.5833333333333,98.13831168831169,1073,98.06363636363636C1075.4166666666667,97.98896103896104,1077.8333333333333,97.91428571428573,1080.25,97.8396103896104C1082.6666666666667,97.76493506493507,1085.0833333333333,97.69025974025973,1087.5,97.61558441558441C1089.9166666666667,97.54090909090908,1092.3333333333333,97.46623376623377,1094.75,97.39155844155844C1097.1666666666667,97.31688311688312,1099.5833333333333,97.24220779220778,1102,97.16753246753245C1104.4166666666667,97.09285714285713,1106.8333333333333,97.01818181818182,1109.25,96.94350649350649C1111.6666666666667,96.86883116883116,1114.0833333333333,96.79415584415584,1116.5,96.71948051948051C1118.9166666666667,96.64480519480519,1121.3333333333333,96.57012987012988,1123.75,96.49545454545455C1126.1666666666667,96.42077922077922,1128.5833333333333,96.3461038961039,1131,96.27142857142857C1133.4166666666667,96.19675324675325,1135.8333333333333,96.12207792207793,1138.25,96.04740259740261C1140.6666666666667,95.97272727272728,1143.0833333333333,95.89805194805194,1145.5,95.82337662337662C1147.9166666666667,95.74870129870129,1150.3333333333333,95.67402597402598,1152.75,95.59935064935065C1155.1666666666667,95.52467532467533,1157.5833333333333,95.45,1160,95.37532467532468C1162.4166666666667,95.30064935064935,1164.8333333333333,95.22597402597403,1167.25,95.1512987012987C1169.6666666666667,95.07662337662337,1172.0833333333333,95.00194805194805,1174.5,94.92727272727272C1176.9166666666667,94.8525974025974,1179.3333333333333,94.77792207792209,1181.75,94.70324675324676C1184.1666666666667,94.62857142857143,1186.5833333333333,94.55389610389611,1189,94.47922077922078C1191.4166666666667,94.40454545454546,1193.8333333333333,94.32987012987014,1196.25,94.25519480519482C1198.6666666666667,94.1805194805195,1201.0833333333333,94.10584415584415,1203.5,94.03116883116883C1205.9166666666667,93.9564935064935,1208.3333333333333,93.88181818181819,1210.75,93.80714285714286C1213.1666666666667,93.73246753246754,1215.5833333333333,93.6577922077922,1218,93.58311688311687C1220.4166666666667,93.50844155844155,1222.8333333333333,93.43376623376624,1225.25,93.35909090909091C1227.6666666666667,93.28441558441558,1230.0833333333333,93.20974025974026,1232.5,93.13506493506493C1234.9166666666667,93.0603896103896,1237.3333333333333,92.9857142857143,1239.75,92.91103896103897C1242.1666666666667,92.83636363636364,1244.5833333333333,92.76168831168832,1247,92.68701298701299C1249.4166666666667,92.61233766233767,1251.8333333333333,92.53766233766234,1254.25,92.46298701298701C1256.6666666666667,92.38831168831169,1259.0833333333333,92.31363636363636,1261.5,92.23896103896104C1263.9166666666667,92.16428571428571,1266.3333333333333,92.08961038961039,1268.75,92.01493506493506C1271.1666666666667,91.94025974025973,1273.5833333333333,91.86558441558441,1276,91.79090909090908C1278.4166666666667,91.71623376623376,1280.8333333333333,91.64155844155843,1283.25,91.5668831168831C1285.6666666666667,91.49220779220778,1288.0833333333333,91.41753246753247,1290.5,91.34285714285714C1292.9166666666667,91.26818181818182,1295.3333333333333,91.19350649350649,1297.75,91.11883116883116C1300.1666666666667,91.04415584415584,1302.5833333333333,90.96948051948053,1305,90.8948051948052C1307.4166666666667,90.82012987012988,1309.8333333333333,90.74545454545455,1312.25,90.67077922077922C1314.6666666666667,90.5961038961039,1317.0833333333333,90.52142857142857,1319.5,90.44675324675325C1321.9166666666667,90.37207792207792,1324.3333333333333,90.2974025974026,1326.75,90.22272727272727C1329.1666666666667,90.14805194805194,1331.5833333333333,90.07337662337663,1334,89.9987012987013C1336.4166666666667,89.92402597402598,1338.8333333333333,89.84935064935065,1341.25,89.77467532467533C1343.6666666666667,89.7,1346.0833333333333,89.62532467532468,1348.5,89.55064935064935C1350.9166666666667,89.47597402597403,1353.3333333333333,89.4012987012987,1355.75,89.32662337662337C1358.1666666666667,89.25194805194805,1360.5833333333333,89.17727272727274,1363,89.10259740259741C1365.4166666666667,89.02792207792209,1367.8333333333333,88.95324675324676,1370.25,88.87857142857143C1372.6666666666667,88.80389610389611,1375.0833333333333,88.7292207792208,1377.5,88.65454545454547C1379.9166666666667,88.57987012987014,1382.3333333333333,88.5051948051948,1384.75,88.43051948051948C1387.1666666666667,88.35584415584415,1389.5833333333333,88.28116883116884,1392,88.20649350649352C1394.4166666666667,88.13181818181819,1396.8333333333333,88.05714285714286,1399.25,87.98246753246754C1401.6666666666667,87.90779220779221,1404.0833333333333,87.83311688311689,1406.5,87.75844155844156C1408.9166666666667,87.68376623376624,1411.3333333333333,87.60909090909091,1413.75,87.53441558441558C1416.1666666666667,87.45974025974026,1418.5833333333333,87.38506493506493,1421,87.3103896103896C1423.4166666666667,87.23571428571428,1425.8333333333333,87.16103896103897,1428.25,87.08636363636364C1430.6666666666667,87.01168831168832,1433.0833333333333,86.93701298701299,1435.5,86.86233766233767C1437.9166666666667,86.78766233766234,1440.3333333333333,86.71298701298701,1442.75,86.63831168831169C1445.1666666666667,86.56363636363636,1447.5833333333333,86.48896103896104,1450,86.41428571428571" fill="transparent" stroke-linecap="round" stroke="#E7C6DF" stroke-width="2"></path><g class="visx-group visx-axis visx-axis-bottom" transform="translate(0, 115)"><g class="visx-group visx-axis-tick" transform="translate(0, 0)"><line class="visx-line" x1="0" y1="0" x2="0" y2="8" fill="transparent" shape-rendering="crispEdges" stroke="#000" stroke-width="0" stroke-linecap="square"></line><svg x="0" y="0" font-size="10" style="overflow:visible"><text transform="" x="0" y="18" fill="#000" font-size="10" text-anchor="middle"><tspan x="0" dy="0em">0%</tspan></text></svg></g><g class="visx-group visx-axis-tick" transform="translate(0, 0)"><line class="visx-line" x1="362.5" y1="0" x2="362.5" y2="8" fill="transparent" shape-rendering="crispEdges" stroke="#000" stroke-width="0" stroke-linecap="square"></line><svg x="0" y="0" font-size="10" style="overflow:visible"><text transform="" x="362.5" y="18" fill="#000" font-size="10" text-anchor="middle"><tspan x="362.5" dy="0em">25%</tspan></text></svg></g><g class="visx-group visx-axis-tick" transform="translate(0, 0)"><line class="visx-line" x1="725" y1="0" x2="725" y2="8" fill="transparent" shape-rendering="crispEdges" stroke="#000" stroke-width="0" stroke-linecap="square"></line><svg x="0" y="0" font-size="10" style="overflow:visible"><text transform="" x="725" y="18" fill="#000" font-size="10" text-anchor="middle"><tspan x="725" dy="0em">50%</tspan></text></svg></g><g class="visx-group visx-axis-tick" transform="translate(0, 0)"><line class="visx-line" x1="1087.5" y1="0" x2="1087.5" y2="8" fill="transparent" shape-rendering="crispEdges" stroke="#000" stroke-width="0" stroke-linecap="square"></line><svg x="0" y="0" font-size="10" style="overflow:visible"><text transform="" x="1087.5" y="18" fill="#000" font-size="10" text-anchor="middle"><tspan x="1087.5" dy="0em">75%</tspan></text></svg></g><g class="visx-group visx-axis-tick" transform="translate(0, 0)"><line class="visx-line" x1="1450" y1="0" x2="1450" y2="8" fill="transparent" shape-rendering="crispEdges" stroke="#000" stroke-width="0" stroke-linecap="square"></line><svg x="0" y="0" font-size="10" style="overflow:visible"><text transform="" x="1450" y="18" fill="#000" font-size="10" text-anchor="middle"><tspan x="1450" dy="0em">100%</tspan></text></svg></g><line class="visx-line visx-axis-line" x1="0.5" y1="0" x2="1450.5" y2="0" fill="transparent" shape-rendering="crispEdges" stroke="#222" stroke-width="0"></line></g><g class="visx-group visx-axis visx-axis-left" transform="translate(0, 0)"><g class="visx-group visx-axis-tick" transform="translate(0, 0)"><line class="visx-line" x1="0" y1="115" x2="-8" y2="115" fill="transparent" shape-rendering="crispEdges" stroke="#222" stroke-width="0" stroke-linecap="square"></line><svg x="-30" y="0" font-size="8" style="overflow:visible"><text transform="" x="-8" y="115" fill="#000" font-size="8" text-anchor="start"><tspan x="-8" dy="0em">0%</tspan></text></svg></g><g class="visx-group visx-axis-tick" transform="translate(0, 0)"><line class="visx-line" x1="0" y1="49.28571428571429" x2="-8" y2="49.28571428571429" fill="transparent" shape-rendering="crispEdges" stroke="#222" stroke-width="0" stroke-linecap="square"></line><svg x="-30" y="0" font-size="8" style="overflow:visible"><text transform="" x="-8" y="49.28571428571429" fill="#000" font-size="8" text-anchor="start"><tspan x="-8" dy="0em">200%</tspan></text></svg></g><line class="visx-line visx-axis-line" x1="0" y1="115.5" x2="0" y2="0.5" fill="transparent" shape-rendering="crispEdges" stroke="#222" stroke-width="0"></line></g><rect class="visx-bar" width="1450" height="115" fill="transparent"></rect><line class="visx-line" x1="652.5" y1="28" x2="652.5" y2="115" fill="transparent" shape-rendering="crispEdges" stroke="#0062D2" stroke-width="1" pointer-events="none" stroke-dasharray="5,2"></line><svg x="0" y="0" font-size="10px" style="overflow:visible"><text transform="" x="652.5" y="20" font-size="10px" fill="#fff" stroke="#fff" stroke-width="0.8em" text-anchor="middle"><tspan x="652.5" dy="0.355em">Optimal 45%</tspan></text></svg><svg x="0" y="0" font-size="10px" style="overflow:visible"><text transform="" x="652.5" y="20" font-size="10px" fill="#62677B" text-anchor="middle"><tspan x="652.5" dy="0.355em">Optimal 45%</tspan></text></svg></g></svg>