<?xml version="1.0"?><svg xmlns="http://www.w3.org/2000/svg" xmlns:xlink= "http://www.w3.org/1999/xlink" style="background: white;" width="1500" height="300"> <g style="color: black; font-size: 13px; font-family: sans-serif; transform: translate(18px, 25px);"><g><circle r="3" cx="-6" cy="-5" style="fill: #1AD4B3" /><text>Borrow APR, variable</text></g><g style="transform: translateX(150px);"><circle r="3" cx="-6" cy="-5" style="fill: #101423" /><text>Borrow APR, stable</text></g></g><g class="visx-group" transform="translate(45, 50)"><g class="visx-group visx-rows" transform="translate(0, 0)"><line class="visx-line" x1="0" y1="155" x2="1425" y2="155" fill="transparent" shape-rendering="crispEdges" stroke="#F2F0F9" stroke-width="1" pointer-events="none"></line><line class="visx-line" x1="0" y1="106.5625" x2="1425" y2="106.5625" fill="transparent" shape-rendering="crispEdges" stroke="#F2F0F9" stroke-width="1" pointer-events="none"></line><line class="visx-line" x1="0" y1="58.125" x2="1425" y2="58.125" fill="transparent" shape-rendering="crispEdges" stroke="#F2F0F9" stroke-width="1" pointer-events="none"></line><line class="visx-line" x1="0" y1="9.6875" x2="1425" y2="9.6875" fill="transparent" shape-rendering="crispEdges" stroke="#F2F0F9" stroke-width="1" pointer-events="none"></line></g><path class="visx-linepath" d="M0,0C2.375,14.53125,4.75,29.0625,7.125,29.0625C9.5,29.0625,11.875,29.0625,14.25,29.0625C16.625,29.0625,19,29.0625,21.375,29.0625C23.75,29.0625,26.125,29.0625,28.5,29.0625C30.875,29.0625,33.25,29.0625,35.625,29.0625C38,29.0625,40.375,29.0625,42.75,29.0625C45.125,29.0625,47.50000000000001,29.0625,49.87500000000001,29.0625C52.25000000000001,29.0625,54.625,29.0625,57,29.0625C59.375,29.0625,61.75,29.0625,64.125,29.0625C66.5,29.0625,68.875,29.0625,71.25,29.0625C73.625,29.0625,76,29.0625,78.375,29.0625C80.75,29.0625,83.125,29.0625,85.5,29.0625C87.875,29.0625,90.25,29.0625,92.625,29.0625C95,29.0625,97.37500000000001,29.0625,99.75000000000001,29.0625C102.12500000000001,29.0625,104.5,29.0625,106.875,29.0625C109.25,29.0625,111.625,29.0625,114,29.0625C116.375,29.0625,118.75000000000001,29.0625,121.12500000000001,29.0625C123.50000000000001,29.0625,125.875,29.0625,128.25,29.0625C130.625,29.0625,133,29.0625,135.375,29.0625C137.75,29.0625,140.125,29.0625,142.5,29.0625C144.875,29.0625,147.25,29.0625,149.625,29.0625C152,29.0625,154.375,29.0625,156.75,29.0625C159.125,29.0625,161.5,29.0625,163.875,29.0625C166.25,29.0625,168.625,29.0625,171,29.0625C173.375,29.0625,175.75,29.0625,178.125,29.0625C180.5,29.0625,182.875,29.0625,185.25,29.0625C187.625,29.0625,190,29.0625,192.375,29.0625C194.75,29.0625,197.12500000000003,29.0625,199.50000000000003,29.0625C201.875,29.0625,204.25,29.0625,206.62499999999997,29.0625C208.99999999999997,29.0625,211.375,29.0625,213.75,29.0625C216.125,29.0625,218.5,29.0625,220.875,29.0625C223.25,29.0625,225.625,29.0625,228,29.0625C230.375,29.0625,232.75,29.0625,235.125,29.0625C237.5,29.0625,239.87500000000003,29.0625,242.25000000000003,29.0625C244.625,29.0625,247,29.0625,249.37499999999997,29.0625C251.74999999999997,29.0625,254.125,29.0625,256.5,29.0625C258.875,29.0625,261.25,29.0625,263.625,29.0625C266,29.0625,268.375,29.0625,270.75,29.0625C273.125,29.0625,275.5,29.0625,277.875,29.0625C280.25,29.0625,282.625,29.0625,285,29.0625C287.375,29.0625,289.75,29.0625,292.125,29.0625C294.5,29.0625,296.875,29.0625,299.25,29.0625C301.625,29.0625,304,29.0625,306.375,29.0625C308.75,29.0625,311.125,29.0625,313.5,29.0625C315.875,29.0625,318.25,29.0625,320.625,29.0625C323,29.0625,325.375,29.0625,327.75,29.0625C330.125,29.0625,332.5,29.0625,334.875,29.0625C337.25,29.0625,339.625,29.0625,342,29.0625C344.375,29.0625,346.75,29.0625,349.125,29.0625C351.5,29.0625,353.875,29.0625,356.25,29.0625C358.625,29.0625,361,29.0625,363.375,29.0625C365.75,29.0625,368.125,29.0625,370.5,29.0625C372.875,29.0625,375.25,29.0625,377.625,29.0625C380,29.0625,382.375,29.0625,384.75,29.0625C387.125,29.0625,389.50000000000006,29.0625,391.87500000000006,29.0625C394.25000000000006,29.0625,396.62500000000006,29.0625,399.00000000000006,29.0625C401.375,29.0625,403.75,29.0625,406.12499999999994,29.0625C408.49999999999994,29.0625,410.87499999999994,29.0625,413.24999999999994,29.0625C415.62499999999994,29.0625,418,29.0625,420.375,29.0625C422.75,29.0625,425.125,29.0625,427.5,29.0625C429.875,29.0625,432.25,29.0625,434.625,29.0625C437,29.0625,439.375,29.0625,441.75,29.0625C444.125,29.0625,446.5,29.0625,448.875,29.0625C451.25,29.0625,453.625,29.0625,456,29.0625C458.375,29.0625,460.75,29.0625,463.125,29.0625C465.5,29.0625,467.875,29.0625,470.25,29.0625C472.625,29.0625,475.00000000000006,29.0625,477.37500000000006,29.0625C479.75000000000006,29.0625,482.12500000000006,29.0625,484.50000000000006,29.0625C486.875,29.0625,489.25,29.0625,491.62499999999994,29.0625C493.99999999999994,29.0625,496.37499999999994,29.0625,498.74999999999994,29.0625C501.12499999999994,29.0625,503.5,29.0625,505.875,29.0625C508.25,29.0625,510.625,29.0625,513,29.0625C515.375,29.0625,517.75,29.0625,520.125,29.0625C522.5,29.0625,524.875,29.0625,527.25,29.0625C529.625,29.0625,532,29.0625,534.375,29.0625C536.75,29.0625,539.125,29.0625,541.5,29.0625C543.875,29.0625,546.25,29.0625,548.625,29.0625C551,29.0625,553.375,29.0625,555.75,29.0625C558.125,29.0625,560.5,29.0625,562.875,29.0625C565.25,29.0625,567.625,29.0625,570,29.0625C572.375,29.0625,574.75,29.0625,577.125,29.0625C579.5,29.0625,581.875,29.0625,584.25,29.0625C586.625,29.0625,589,29.0625,591.375,29.0625C593.75,29.0625,596.125,29.0625,598.5,29.0625C600.875,29.0625,603.25,29.0625,605.625,29.0625C608,29.0625,610.375,29.0625,612.75,29.0625C615.125,29.0625,617.5,29.0625,619.875,29.0625C622.25,29.0625,624.625,29.0625,627,29.0625C629.375,29.0625,631.75,29.0625,634.125,29.0625C636.5,29.0625,638.875,29.0625,641.25,29.0625C643.625,29.0625,646,29.0625,648.375,29.0625C650.75,29.0625,653.125,29.0625,655.5,29.0625C657.875,29.0625,660.25,29.0625,662.625,29.0625C665,29.0625,667.375,29.0625,669.75,29.0625C672.125,29.0625,674.5,29.0625,676.875,29.0625C679.25,29.0625,681.625,29.0625,684,29.0625C686.375,29.0625,688.75,29.0625,691.125,29.0625C693.5,29.0625,695.875,29.0625,698.25,29.0625C700.625,29.0625,703,29.0625,705.375,29.0625C707.75,29.0625,710.125,29.0625,712.5,29.0625C714.875,29.0625,717.25,29.0625,719.625,29.0625C722,29.0625,724.375,29.0625,726.75,29.0625C729.125,29.0625,731.5,29.0625,733.875,29.0625C736.25,29.0625,738.625,29.0625,741,29.0625C743.375,29.0625,745.75,29.0625,748.125,29.0625C750.5,29.0625,752.875,29.0625,755.25,29.0625C757.625,29.0625,760,29.0625,762.375,29.0625C764.75,29.0625,767.125,29.0625,769.5,29.0625C771.875,29.0625,774.2500000000001,29.0625,776.6250000000001,29.0625C779.0000000000001,29.0625,781.3750000000001,29.0625,783.7500000000001,29.0625C786.1250000000001,29.0625,788.5000000000001,29.0625,790.8750000000001,29.0625C793.2500000000001,29.0625,795.6250000000001,29.0625,798.0000000000001,29.0625C800.375,29.0625,802.75,29.0625,805.1249999999999,29.0625C807.4999999999999,29.0625,809.8749999999999,29.0625,812.2499999999999,29.0625C814.6249999999999,29.0625,816.9999999999999,29.0625,819.3749999999999,29.0625C821.7499999999999,29.0625,824.1249999999999,29.0625,826.4999999999999,29.0625C828.8749999999999,29.0625,831.25,29.0625,833.625,29.0625C836,29.0625,838.375,29.0625,840.75,29.0625C843.125,29.0625,845.5,29.0625,847.875,29.0625C850.25,29.0625,852.625,29.0625,855,29.0625C857.375,29.0625,859.75,29.0625,862.125,29.0625C864.5,29.0625,866.875,29.0625,869.25,29.0625C871.625,29.0625,874,29.0625,876.375,29.0625C878.75,29.0625,881.125,29.0625,883.5,29.0625C885.875,29.0625,888.25,29.0625,890.625,29.0625C893,29.0625,895.375,29.0625,897.75,29.0625C900.125,29.0625,902.5,29.0625,904.875,29.0625C907.25,29.0625,909.625,29.0625,912,29.0625C914.375,29.0625,916.75,29.0625,919.125,29.0625C921.5,29.0625,923.875,29.0625,926.25,29.0625C928.625,29.0625,931,29.0625,933.375,29.0625C935.75,29.0625,938.125,29.0625,940.5,29.0625C942.875,29.0625,945.25,29.0625,947.625,29.0625C950,29.0625,952.3750000000001,29.0625,954.7500000000001,29.0625C957.1250000000001,29.0625,959.5000000000001,29.0625,961.8750000000001,29.0625C964.2500000000001,29.0625,966.6250000000001,29.0625,969.0000000000001,29.0625C971.3750000000001,29.0625,973.7500000000001,29.0625,976.1250000000001,29.0625C978.5,29.0625,980.875,29.0625,983.2499999999999,29.0625C985.6249999999999,29.0625,987.9999999999999,29.0625,990.3749999999999,29.0625C992.7499999999999,29.0625,995.1249999999999,29.0625,997.4999999999999,29.0625C999.8749999999999,29.0625,1002.2499999999999,29.0625,1004.6249999999999,29.0625C1006.9999999999999,29.0625,1009.375,29.0625,1011.75,29.0625C1014.125,29.0625,1016.5,29.0625,1018.875,29.0625C1021.25,29.0625,1023.625,29.0625,1026,29.0625C1028.375,29.0625,1030.75,29.0625,1033.125,29.0625C1035.5,29.0625,1037.875,29.0625,1040.25,29.0625C1042.625,29.0625,1045,29.0625,1047.375,29.0625C1049.75,29.0625,1052.125,29.0625,1054.5,29.0625C1056.875,29.0625,1059.25,29.0625,1061.625,29.0625C1064,29.0625,1066.375,29.0625,1068.75,29.0625C1071.125,29.0625,1073.5,29.0625,1075.875,29.0625C1078.25,29.0625,1080.625,29.0625,1083,29.0625C1085.375,29.0625,1087.75,29.0625,1090.125,29.0625C1092.5,29.0625,1094.875,29.0625,1097.25,29.0625C1099.625,29.0625,1102,29.0625,1104.375,29.0625C1106.75,29.0625,1109.125,29.0625,1111.5,29.0625C1113.875,29.0625,1116.25,29.0625,1118.625,29.0625C1121,29.0625,1123.375,29.0625,1125.75,29.0625C1128.125,29.0625,1130.5,29.0625,1132.875,29.0625C1135.25,29.0625,1137.625,29.0625,1140,29.0625C1142.375,29.0625,1144.75,29.0625,1147.125,29.0625C1149.5,29.0625,1151.875,29.0625,1154.25,29.0625C1156.625,29.0625,1159,29.0625,1161.375,29.0625C1163.75,29.0625,1166.125,29.0625,1168.5,29.0625C1170.875,29.0625,1173.25,29.0625,1175.625,29.0625C1178,29.0625,1180.375,29.0625,1182.75,29.0625C1185.125,29.0625,1187.5,29.0625,1189.875,29.0625C1192.25,29.0625,1194.625,29.0625,1197,29.0625C1199.375,29.0625,1201.75,29.0625,1204.125,29.0625C1206.5,29.0625,1208.875,29.0625,1211.25,29.0625C1213.625,29.0625,1216,29.0625,1218.375,29.0625C1220.75,29.0625,1223.125,29.0625,1225.5,29.0625C1227.875,29.0625,1230.25,29.0625,1232.625,29.0625C1235,29.0625,1237.375,29.0625,1239.75,29.0625C1242.125,29.0625,1244.5,29.0625,1246.875,29.0625C1249.25,29.0625,1251.625,29.0625,1254,29.0625C1256.375,29.0625,1258.75,29.0625,1261.125,29.0625C1263.5,29.0625,1265.875,29.0625,1268.25,29.0625C1270.625,29.0625,1273,29.0625,1275.375,29.0625C1277.75,29.0625,1280.125,29.0625,1282.5,29.0625C1284.875,29.0625,1287.25,29.0625,1289.625,29.0625C1292,29.0625,1294.375,29.0625,1296.75,29.0625C1299.125,29.0625,1301.5,29.0625,1303.875,29.0625C1306.25,29.0625,1308.625,29.0625,1311,29.0625C1313.375,29.0625,1315.75,29.0625,1318.125,29.0625C1320.5,29.0625,1322.875,29.0625,1325.25,29.0625C1327.625,29.0625,1330,29.0625,1332.375,29.0625C1334.75,29.0625,1337.125,29.0625,1339.5,29.0625C1341.875,29.0625,1344.25,29.0625,1346.625,29.0625C1349,29.0625,1351.375,29.0625,1353.75,29.0625C1356.125,29.0625,1358.5,29.0625,1360.875,29.0625C1363.25,29.0625,1365.625,29.0625,1368,29.0625C1370.375,29.0625,1372.75,29.0625,1375.125,29.0625C1377.5,29.0625,1379.875,29.0625,1382.25,29.0625C1384.625,29.0625,1387,29.0625,1389.375,29.0625C1391.75,29.0625,1394.125,29.0625,1396.5,29.0625C1398.875,29.0625,1401.25,29.0625,1403.625,29.0625C1406,29.0625,1408.375,29.0625,1410.75,29.0625C1413.125,29.0625,1415.5,29.0625,1417.875,29.0625C1420.25,29.0625,1422.625,29.0625,1425,29.0625" fill="transparent" stroke-linecap="round" stroke="#1AD4B3" stroke-width="2"></path><g class="visx-group visx-axis visx-axis-bottom" transform="translate(0, 155)"><g class="visx-group visx-axis-tick" transform="translate(0, 0)"><line class="visx-line" x1="0" y1="0" x2="0" y2="8" fill="transparent" shape-rendering="crispEdges" stroke="#F2F0F9" stroke-width="1" stroke-linecap="square"></line><svg x="0" y="0" font-size="11" style="overflow:visible"><text transform="" x="0" y="19" fill="#1B2030" font-size="11" text-anchor="middle"><tspan x="0" dy="0em">0%</tspan></text></svg></g><g class="visx-group visx-axis-tick" transform="translate(0, 0)"><line class="visx-line" x1="356.25" y1="0" x2="356.25" y2="8" fill="transparent" shape-rendering="crispEdges" stroke="#F2F0F9" stroke-width="1" stroke-linecap="square"></line><svg x="0" y="0" font-size="11" style="overflow:visible"><text transform="" x="356.25" y="19" fill="#1B2030" font-size="11" text-anchor="middle"><tspan x="356.25" dy="0em">25%</tspan></text></svg></g><g class="visx-group visx-axis-tick" transform="translate(0, 0)"><line class="visx-line" x1="712.5" y1="0" x2="712.5" y2="8" fill="transparent" shape-rendering="crispEdges" stroke="#F2F0F9" stroke-width="1" stroke-linecap="square"></line><svg x="0" y="0" font-size="11" style="overflow:visible"><text transform="" x="712.5" y="19" fill="#1B2030" font-size="11" text-anchor="middle"><tspan x="712.5" dy="0em">50%</tspan></text></svg></g><g class="visx-group visx-axis-tick" transform="translate(0, 0)"><line class="visx-line" x1="1068.75" y1="0" x2="1068.75" y2="8" fill="transparent" shape-rendering="crispEdges" stroke="#F2F0F9" stroke-width="1" stroke-linecap="square"></line><svg x="0" y="0" font-size="11" style="overflow:visible"><text transform="" x="1068.75" y="19" fill="#1B2030" font-size="11" text-anchor="middle"><tspan x="1068.75" dy="0em">75%</tspan></text></svg></g><g class="visx-group visx-axis-tick" transform="translate(0, 0)"><line class="visx-line" x1="1425" y1="0" x2="1425" y2="8" fill="transparent" shape-rendering="crispEdges" stroke="#F2F0F9" stroke-width="1" stroke-linecap="square"></line><svg x="0" y="0" font-size="11" style="overflow:visible"><text transform="" x="1425" y="19" fill="#1B2030" font-size="11" text-anchor="middle"><tspan x="1425" dy="0em">100%</tspan></text></svg></g></g><g class="visx-group visx-axis visx-axis-left" transform="translate(0, 0)"><g class="visx-group visx-axis-tick" transform="translate(0, 0)"><line class="visx-line" x1="0" y1="155" x2="-8" y2="155" fill="transparent" shape-rendering="crispEdges" stroke="#F2F0F9" stroke-width="1" stroke-linecap="square"></line><svg x="-30" y="0" font-size="11" style="overflow:visible"><text transform="" x="-8" y="155" fill="#1B2030" font-size="11" text-anchor="start"><tspan x="-8" dy="0em">0%</tspan></text></svg></g><g class="visx-group visx-axis-tick" transform="translate(0, 0)"><line class="visx-line" x1="0" y1="106.5625" x2="-8" y2="106.5625" fill="transparent" shape-rendering="crispEdges" stroke="#F2F0F9" stroke-width="1" stroke-linecap="square"></line><svg x="-30" y="0" font-size="11" style="overflow:visible"><text transform="" x="-8" y="106.5625" fill="#1B2030" font-size="11" text-anchor="start"><tspan x="-8" dy="0em">5%</tspan></text></svg></g><g class="visx-group visx-axis-tick" transform="translate(0, 0)"><line class="visx-line" x1="0" y1="58.125" x2="-8" y2="58.125" fill="transparent" shape-rendering="crispEdges" stroke="#F2F0F9" stroke-width="1" stroke-linecap="square"></line><svg x="-30" y="0" font-size="11" style="overflow:visible"><text transform="" x="-8" y="58.125" fill="#1B2030" font-size="11" text-anchor="start"><tspan x="-8" dy="0em">10%</tspan></text></svg></g><g class="visx-group visx-axis-tick" transform="translate(0, 0)"><line class="visx-line" x1="0" y1="9.6875" x2="-8" y2="9.6875" fill="transparent" shape-rendering="crispEdges" stroke="#F2F0F9" stroke-width="1" stroke-linecap="square"></line><svg x="-30" y="0" font-size="11" style="overflow:visible"><text transform="" x="-8" y="9.6875" fill="#1B2030" font-size="11" text-anchor="start"><tspan x="-8" dy="0em">15%</tspan></text></svg></g><line class="visx-line visx-axis-line" x1="0" y1="155.5" x2="0" y2="0.5" fill="transparent" shape-rendering="crispEdges" stroke="#F2F0F9" stroke-width="1"></line></g><rect class="visx-bar" width="1425" height="155" fill="transparent"></rect><line class="visx-line" x1="0" y1="58" x2="0" y2="155" fill="transparent" shape-rendering="crispEdges" stroke="#CDC8E1" stroke-width="1" pointer-events="none" stroke-dasharray="5"></line><svg x="0" y="0" font-size="11px" style="overflow:visible"><text transform="" x="0" y="50" font-size="11px" fill="#555069" stroke="#FFFFFF" stroke-width="1px" text-anchor="middle"><tspan x="0" dy="0.355em">uOptimal 0%</tspan></text></svg><svg x="0" y="0" font-size="11px" style="overflow:visible"><text transform="" x="0" y="50" font-size="11px" fill="#CDC8E1" text-anchor="middle"><tspan x="0" dy="0.355em">uOptimal 0%</tspan></text></svg></g></svg>