<?xml version="1.0"?><svg xmlns="http://www.w3.org/2000/svg" xmlns:xlink= "http://www.w3.org/1999/xlink" style="background: white;" width="1500" height="185"> <g style="color: black; font-size: 13px; font-family: sans-serif; transform: translate(18px, 25px);"><g><circle r="3" cx="-6" cy="-5" style="fill: #B6509E" /><text>Borrow APR, variable</text></g><g style="transform: translateX(150px);"><circle r="3" cx="-6" cy="-5" style="fill: rgb(231, 198, 223)" /><text>Borrow APR, stable</text></g><g style="transform: translateX(290px);"><circle r="3" cx="-6" cy="-5" style="fill: rgb(0, 98, 210)" /><text>Utilization Rate</text></g></g><g class="visx-group" transform="translate(40, 50)"><g class="visx-group visx-rows" transform="translate(0, 0)"><line class="visx-line" x1="0" y1="115" x2="1450" y2="115" fill="transparent" shape-rendering="crispEdges" stroke="#000" stroke-width="1" stroke-dasharray="3,3" pointer-events="none"></line><line class="visx-line" x1="0" y1="63.88888888888889" x2="1450" y2="63.88888888888889" fill="transparent" shape-rendering="crispEdges" stroke="#000" stroke-width="1" stroke-dasharray="3,3" pointer-events="none"></line><line class="visx-line" x1="0" y1="12.777777777777784" x2="1450" y2="12.777777777777784" fill="transparent" shape-rendering="crispEdges" stroke="#000" stroke-width="1" stroke-dasharray="3,3" pointer-events="none"></line></g><path class="visx-linepath" d="M0,115C2.4166666666666665,115,4.833333333333334,115,7.25,115C9.666666666666666,115,12.083333333333334,115,14.5,115C16.916666666666668,115,19.333333333333332,115,21.75,115C24.166666666666668,115,26.583333333333332,115,29,115C31.416666666666668,115,33.833333333333336,115,36.25,115C38.666666666666664,115,41.083333333333336,115,43.5,115C45.91666666666667,115,48.333333333333336,115,50.75000000000001,115C53.16666666666667,115,55.583333333333336,115,58,115C60.416666666666664,115,62.833333333333336,115,65.25,115C67.66666666666667,115,70.08333333333333,115,72.5,115C74.91666666666667,115,77.33333333333333,115,79.75,115C82.16666666666667,115,84.58333333333333,115,87,115C89.41666666666667,115,91.83333333333333,115,94.25,115C96.66666666666667,115,99.08333333333334,115,101.50000000000001,115C103.91666666666667,115,106.33333333333334,115,108.75,115C111.16666666666667,115,113.58333333333333,115,116,115C118.41666666666667,115,120.83333333333334,115,123.25000000000001,115C125.66666666666667,115,128.08333333333334,115,130.5,115C132.91666666666666,115,135.33333333333334,115,137.75,115C140.16666666666666,115,142.58333333333334,115,145,115C147.41666666666666,115,149.83333333333334,115,152.25,115C154.66666666666666,115,157.08333333333334,115,159.5,115C161.91666666666666,115,164.33333333333334,115,166.75,115C169.16666666666666,115,171.58333333333334,115,174,115C176.41666666666666,115,178.83333333333334,115,181.25,115C183.66666666666666,115,186.08333333333334,115,188.5,115C190.91666666666666,115,193.33333333333334,115,195.75,115C198.16666666666669,115,200.58333333333334,115,203.00000000000003,115C205.41666666666669,115,207.83333333333331,115,210.24999999999997,115C212.66666666666666,115,215.08333333333331,115,217.5,115C219.91666666666666,115,222.33333333333334,115,224.75,115C227.16666666666666,115,229.58333333333334,115,232,115C234.41666666666666,115,236.83333333333334,115,239.25,115C241.66666666666669,115,244.08333333333334,115,246.50000000000003,115C248.91666666666669,115,251.33333333333331,115,253.74999999999997,115C256.16666666666663,115,258.5833333333333,115,261,115C263.4166666666667,115,265.8333333333333,115,268.25,115C270.6666666666667,115,273.0833333333333,115,275.5,115C277.9166666666667,115,280.3333333333333,115,282.75,115C285.1666666666667,115,287.5833333333333,115,290,115C292.4166666666667,115,294.8333333333333,115,297.25,115C299.6666666666667,115,302.0833333333333,115,304.5,115C306.9166666666667,115,309.3333333333333,115,311.75,115C314.1666666666667,115,316.5833333333333,115,319,115C321.4166666666667,115,323.8333333333333,115,326.25,115C328.6666666666667,115,331.0833333333333,115,333.5,115C335.9166666666667,115,338.3333333333333,115,340.75,115C343.1666666666667,115,345.5833333333333,115,348,115C350.4166666666667,115,352.8333333333333,115,355.25,115C357.6666666666667,115,360.0833333333333,115,362.5,115C364.9166666666667,115,367.3333333333333,115,369.75,115C372.1666666666667,115,374.5833333333333,115,377,115C379.4166666666667,115,381.8333333333333,115,384.25,115C386.6666666666667,115,389.0833333333333,115,391.5,115C393.9166666666667,115,396.33333333333337,115,398.75000000000006,115C401.16666666666674,115,403.58333333333337,115,406.00000000000006,115C408.4166666666667,115,410.8333333333333,115,413.24999999999994,115C415.66666666666663,115,418.08333333333326,115,420.49999999999994,115C422.91666666666663,115,425.3333333333333,115,427.75,115C430.1666666666667,115,432.5833333333333,115,435,115C437.4166666666667,115,439.8333333333333,115,442.25,115C444.6666666666667,115,447.0833333333333,115,449.5,115C451.9166666666667,115,454.3333333333333,115,456.75,115C459.1666666666667,115,461.5833333333333,115,464,115C466.4166666666667,115,468.8333333333333,115,471.25,115C473.6666666666667,115,476.0833333333333,115,478.5,115C480.9166666666667,115,483.33333333333337,115,485.75000000000006,115C488.16666666666674,115,490.58333333333337,115,493.00000000000006,115C495.4166666666667,115,497.8333333333333,115,500.24999999999994,115C502.66666666666663,115,505.08333333333326,115,507.49999999999994,115C509.91666666666663,115,512.3333333333333,115,514.75,115C517.1666666666666,115,519.5833333333334,115,522,115C524.4166666666666,115,526.8333333333334,115,529.25,115C531.6666666666666,115,534.0833333333334,115,536.5,115C538.9166666666666,115,541.3333333333334,115,543.75,115C546.1666666666666,115,548.5833333333334,115,551,115C553.4166666666666,115,555.8333333333334,115,558.25,115C560.6666666666666,115,563.0833333333334,115,565.5,115C567.9166666666666,115,570.3333333333334,115,572.75,115C575.1666666666666,115,577.5833333333334,115,580,115C582.4166666666666,115,584.8333333333334,115,587.25,115C589.6666666666666,115,592.0833333333334,115,594.5,115C596.9166666666666,115,599.3333333333334,115,601.75,115C604.1666666666666,115,606.5833333333334,115,609,115C611.4166666666666,115,613.8333333333334,115,616.25,115C618.6666666666666,115,621.0833333333334,115,623.5,115C625.9166666666666,115,628.3333333333334,115,630.75,115C633.1666666666666,115,635.5833333333334,115,638,115C640.4166666666666,115,642.8333333333334,115,645.25,115C647.6666666666666,115,650.0833333333334,115,652.5,115C654.9166666666666,115,657.3333333333334,114.53535353535352,659.75,114.3030303030303C662.1666666666666,114.07070707070707,664.5833333333334,113.83838383838383,667,113.60606060606061C669.4166666666666,113.37373737373738,671.8333333333334,113.14141414141415,674.25,112.9090909090909C676.6666666666666,112.67676767676767,679.0833333333334,112.44444444444443,681.5,112.2121212121212C683.9166666666666,111.97979797979798,686.3333333333334,111.74747474747474,688.75,111.51515151515152C691.1666666666666,111.28282828282829,693.5833333333334,111.05050505050505,696,110.81818181818181C698.4166666666666,110.58585858585857,700.8333333333334,110.35353535353534,703.25,110.12121212121211C705.6666666666666,109.88888888888889,708.0833333333334,109.65656565656565,710.5,109.42424242424242C712.9166666666666,109.1919191919192,715.3333333333334,108.95959595959596,717.75,108.72727272727272C720.1666666666666,108.49494949494948,722.5833333333334,108.26262626262624,725,108.03030303030302C727.4166666666666,107.79797979797979,729.8333333333334,107.56565656565655,732.25,107.33333333333333C734.6666666666666,107.1010101010101,737.0833333333334,106.86868686868686,739.5,106.63636363636364C741.9166666666666,106.40404040404042,744.3333333333334,106.17171717171716,746.75,105.93939393939394C749.1666666666666,105.70707070707071,751.5833333333334,105.47474747474747,754,105.24242424242425C756.4166666666666,105.01010101010102,758.8333333333334,104.77777777777777,761.25,104.54545454545455C763.6666666666666,104.31313131313132,766.0833333333334,104.08080808080808,768.5,103.84848484848486C770.9166666666666,103.61616161616163,773.3333333333334,103.3838383838384,775.75,103.15151515151516C778.1666666666666,102.91919191919192,780.5833333333334,102.68686868686868,783,102.45454545454545C785.4166666666667,102.22222222222221,787.8333333333334,101.989898989899,790.2500000000001,101.75757575757576C792.6666666666667,101.52525252525254,795.0833333333335,101.2929292929293,797.5000000000001,101.06060606060606C799.9166666666667,100.82828282828282,802.3333333333335,100.59595959595958,804.7500000000001,100.36363636363636C807.1666666666667,100.13131313131314,809.5833333333335,99.89898989898991,812.0000000000001,99.66666666666667C814.4166666666667,99.43434343434345,816.8333333333333,99.2020202020202,819.2499999999999,98.96969696969697C821.6666666666665,98.73737373737373,824.0833333333333,98.50505050505049,826.4999999999999,98.27272727272727C828.9166666666665,98.04040404040404,831.3333333333333,97.8080808080808,833.7499999999999,97.57575757575758C836.1666666666665,97.34343434343435,838.5833333333333,97.1111111111111,840.9999999999999,96.87878787878788C843.4166666666666,96.64646464646464,845.8333333333333,96.41414141414143,848.25,96.18181818181819C850.6666666666666,95.94949494949496,853.0833333333334,95.71717171717172,855.5,95.48484848484848C857.9166666666666,95.25252525252525,860.3333333333334,95.02020202020202,862.75,94.78787878787878C865.1666666666666,94.55555555555554,867.5833333333334,94.3232323232323,870,94.09090909090908C872.4166666666666,93.85858585858585,874.8333333333334,93.62626262626262,877.25,93.39393939393939C879.6666666666666,93.16161616161617,882.0833333333334,92.92929292929291,884.5,92.69696969696969C886.9166666666666,92.46464646464646,889.3333333333334,92.23232323232322,891.75,92C894.1666666666666,91.76767676767678,896.5833333333334,91.53535353535352,899,91.3030303030303C901.4166666666666,91.07070707070707,903.8333333333334,90.83838383838383,906.25,90.60606060606061C908.6666666666666,90.37373737373738,911.0833333333334,90.14141414141413,913.5,89.9090909090909C915.9166666666666,89.67676767676768,918.3333333333334,89.44444444444444,920.75,89.21212121212122C923.1666666666666,88.979797979798,925.5833333333334,88.74747474747474,928,88.51515151515152C930.4166666666666,88.28282828282829,932.8333333333334,88.05050505050505,935.25,87.81818181818183C937.6666666666666,87.5858585858586,940.0833333333334,87.35353535353536,942.5,87.12121212121212C944.9166666666666,86.88888888888889,947.3333333333334,86.65656565656566,949.75,86.42424242424242C952.1666666666666,86.19191919191918,954.5833333333334,85.95959595959594,957,85.72727272727272C959.4166666666666,85.4949494949495,961.8333333333334,85.26262626262627,964.25,85.03030303030305C966.6666666666667,84.79797979797982,969.0833333333334,84.56565656565658,971.5000000000001,84.33333333333334C973.9166666666667,84.1010101010101,976.3333333333335,83.86868686868688,978.7500000000001,83.63636363636364C981.1666666666667,83.4040404040404,983.5833333333335,83.17171717171718,986.0000000000001,82.93939393939394C988.4166666666667,82.7070707070707,990.8333333333335,82.47474747474747,993.2500000000001,82.24242424242424C995.6666666666667,82.01010101010101,998.0833333333333,81.77777777777777,1000.4999999999999,81.54545454545455C1002.9166666666665,81.31313131313131,1005.3333333333333,81.08080808080807,1007.7499999999999,80.84848484848484C1010.1666666666665,80.61616161616162,1012.5833333333333,80.38383838383838,1014.9999999999999,80.15151515151516C1017.4166666666665,79.91919191919193,1019.8333333333333,79.68686868686869,1022.2499999999999,79.45454545454545C1024.6666666666665,79.22222222222221,1027.0833333333333,78.98989898989899,1029.5,78.75757575757575C1031.9166666666667,78.52525252525253,1034.3333333333333,78.29292929292929,1036.75,78.06060606060606C1039.1666666666667,77.82828282828284,1041.5833333333333,77.59595959595958,1044,77.36363636363636C1046.4166666666667,77.13131313131314,1048.8333333333333,76.8989898989899,1051.25,76.66666666666667C1053.6666666666667,76.43434343434345,1056.0833333333333,76.20202020202021,1058.5,75.96969696969697C1060.9166666666667,75.73737373737373,1063.3333333333333,75.5050505050505,1065.75,75.27272727272727C1068.1666666666667,75.04040404040403,1070.5833333333333,74.80808080808079,1073,74.57575757575756C1075.4166666666667,74.34343434343434,1077.8333333333333,74.1111111111111,1080.25,73.87878787878788C1082.6666666666667,73.64646464646465,1085.0833333333333,73.41414141414141,1087.5,73.18181818181819C1089.9166666666667,72.94949494949496,1092.3333333333333,72.71717171717172,1094.75,72.4848484848485C1097.1666666666667,72.25252525252527,1099.5833333333333,72.02020202020203,1102,71.7878787878788C1104.4166666666667,71.55555555555556,1106.8333333333333,71.32323232323233,1109.25,71.0909090909091C1111.6666666666667,70.85858585858585,1114.0833333333333,70.62626262626262,1116.5,70.39393939393939C1118.9166666666667,70.16161616161617,1121.3333333333333,69.92929292929293,1123.75,69.6969696969697C1126.1666666666667,69.46464646464648,1128.5833333333333,69.23232323232324,1131,69.00000000000001C1133.4166666666667,68.76767676767679,1135.8333333333333,68.53535353535355,1138.25,68.30303030303031C1140.6666666666667,68.07070707070707,1143.0833333333333,67.83838383838385,1145.5,67.60606060606061C1147.9166666666667,67.37373737373737,1150.3333333333333,67.14141414141415,1152.75,66.9090909090909C1155.1666666666667,66.67676767676767,1157.5833333333333,66.44444444444444,1160,66.2121212121212C1162.4166666666667,65.97979797979797,1164.8333333333333,65.74747474747473,1167.25,65.5151515151515C1169.6666666666667,65.28282828282828,1172.0833333333333,65.05050505050505,1174.5,64.81818181818183C1176.9166666666667,64.5858585858586,1179.3333333333333,64.35353535353536,1181.75,64.12121212121212C1184.1666666666667,63.88888888888889,1186.5833333333333,63.656565656565654,1189,63.42424242424242C1191.4166666666667,63.19191919191919,1193.8333333333333,62.95959595959595,1196.25,62.72727272727272C1198.6666666666667,62.49494949494949,1201.0833333333333,62.262626262626256,1203.5,62.030303030303024C1205.9166666666667,61.79797979797979,1208.3333333333333,61.56565656565657,1210.75,61.333333333333336C1213.1666666666667,61.101010101010104,1215.5833333333333,60.868686868686865,1218,60.63636363636363C1220.4166666666667,60.4040404040404,1222.8333333333333,60.17171717171718,1225.25,59.939393939393945C1227.6666666666667,59.70707070707071,1230.0833333333333,59.474747474747474,1232.5,59.24242424242424C1234.9166666666667,59.01010101010101,1237.3333333333333,58.77777777777777,1239.75,58.54545454545454C1242.1666666666667,58.31313131313131,1244.5833333333333,58.08080808080808,1247,57.84848484848485C1249.4166666666667,57.61616161616162,1251.8333333333333,57.38383838383838,1254.25,57.15151515151515C1256.6666666666667,56.91919191919192,1259.0833333333333,56.68686868686868,1261.5,56.454545454545446C1263.9166666666667,56.222222222222214,1266.3333333333333,55.98989898989899,1268.75,55.75757575757576C1271.1666666666667,55.525252525252526,1273.5833333333333,55.2929292929293,1276,55.06060606060607C1278.4166666666667,54.82828282828284,1280.8333333333333,54.59595959595959,1283.25,54.36363636363636C1285.6666666666667,54.13131313131313,1288.0833333333333,53.898989898989896,1290.5,53.666666666666664C1292.9166666666667,53.43434343434343,1295.3333333333333,53.2020202020202,1297.75,52.96969696969697C1300.1666666666667,52.73737373737374,1302.5833333333333,52.50505050505051,1305,52.27272727272728C1307.4166666666667,52.04040404040405,1309.8333333333333,51.80808080808081,1312.25,51.57575757575758C1314.6666666666667,51.343434343434346,1317.0833333333333,51.11111111111111,1319.5,50.878787878787875C1321.9166666666667,50.64646464646464,1324.3333333333333,50.41414141414142,1326.75,50.18181818181819C1329.1666666666667,49.949494949494955,1331.5833333333333,49.7171717171717,1334,49.48484848484847C1336.4166666666667,49.25252525252524,1338.8333333333333,49.02020202020203,1341.25,48.787878787878796C1343.6666666666667,48.555555555555564,1346.0833333333333,48.323232323232325,1348.5,48.09090909090909C1350.9166666666667,47.85858585858586,1353.3333333333333,47.62626262626262,1355.75,47.39393939393939C1358.1666666666667,47.16161616161616,1360.5833333333333,46.92929292929292,1363,46.69696969696969C1365.4166666666667,46.46464646464646,1367.8333333333333,46.232323232323225,1370.25,45.99999999999999C1372.6666666666667,45.76767676767676,1375.0833333333333,45.53535353535354,1377.5,45.30303030303031C1379.9166666666667,45.07070707070708,1382.3333333333333,44.838383838383834,1384.75,44.6060606060606C1387.1666666666667,44.37373737373737,1389.5833333333333,44.141414141414145,1392,43.909090909090914C1394.4166666666667,43.67676767676768,1396.8333333333333,43.44444444444444,1399.25,43.21212121212121C1401.6666666666667,42.97979797979798,1404.0833333333333,42.74747474747474,1406.5,42.51515151515151C1408.9166666666667,42.28282828282828,1411.3333333333333,42.05050505050505,1413.75,41.81818181818182C1416.1666666666667,41.58585858585859,1418.5833333333333,41.353535353535364,1421,41.12121212121213C1423.4166666666667,40.8888888888889,1425.8333333333333,40.65656565656566,1428.25,40.42424242424243C1430.6666666666667,40.1919191919192,1433.0833333333333,39.95959595959596,1435.5,39.72727272727273C1437.9166666666667,39.494949494949495,1440.3333333333333,39.262626262626256,1442.75,39.030303030303024C1445.1666666666667,38.79797979797979,1447.5833333333333,38.56565656565657,1450,38.333333333333336" fill="transparent" stroke-linecap="round" stroke="#B6509E" stroke-width="2"></path><path class="visx-linepath" d="M0,89.44444444444444C2.4166666666666665,89.44444444444444,4.833333333333334,89.44444444444444,7.25,89.44444444444444C9.666666666666666,89.44444444444444,12.083333333333334,89.44444444444444,14.5,89.44444444444444C16.916666666666668,89.44444444444444,19.333333333333332,89.44444444444444,21.75,89.44444444444444C24.166666666666668,89.44444444444444,26.583333333333332,89.44444444444444,29,89.44444444444444C31.416666666666668,89.44444444444444,33.833333333333336,89.44444444444444,36.25,89.44444444444444C38.666666666666664,89.44444444444444,41.083333333333336,89.44444444444444,43.5,89.44444444444444C45.91666666666667,89.44444444444444,48.333333333333336,89.44444444444444,50.75000000000001,89.44444444444444C53.16666666666667,89.44444444444444,55.583333333333336,89.44444444444444,58,89.44444444444444C60.416666666666664,89.44444444444444,62.833333333333336,89.44444444444444,65.25,89.44444444444444C67.66666666666667,89.44444444444444,70.08333333333333,89.44444444444444,72.5,89.44444444444444C74.91666666666667,89.44444444444444,77.33333333333333,89.44444444444444,79.75,89.44444444444444C82.16666666666667,89.44444444444444,84.58333333333333,89.44444444444444,87,89.44444444444444C89.41666666666667,89.44444444444444,91.83333333333333,89.44444444444444,94.25,89.44444444444444C96.66666666666667,89.44444444444444,99.08333333333334,89.44444444444444,101.50000000000001,89.44444444444444C103.91666666666667,89.44444444444444,106.33333333333334,89.44444444444444,108.75,89.44444444444444C111.16666666666667,89.44444444444444,113.58333333333333,89.44444444444444,116,89.44444444444444C118.41666666666667,89.44444444444444,120.83333333333334,89.44444444444444,123.25000000000001,89.44444444444444C125.66666666666667,89.44444444444444,128.08333333333334,89.44444444444444,130.5,89.44444444444444C132.91666666666666,89.44444444444444,135.33333333333334,89.44444444444444,137.75,89.44444444444444C140.16666666666666,89.44444444444444,142.58333333333334,89.44444444444444,145,89.44444444444444C147.41666666666666,89.44444444444444,149.83333333333334,89.44444444444444,152.25,89.44444444444444C154.66666666666666,89.44444444444444,157.08333333333334,89.44444444444444,159.5,89.44444444444444C161.91666666666666,89.44444444444444,164.33333333333334,89.44444444444444,166.75,89.44444444444444C169.16666666666666,89.44444444444444,171.58333333333334,89.44444444444444,174,89.44444444444444C176.41666666666666,89.44444444444444,178.83333333333334,89.44444444444444,181.25,89.44444444444444C183.66666666666666,89.44444444444444,186.08333333333334,89.44444444444444,188.5,89.44444444444444C190.91666666666666,89.44444444444444,193.33333333333334,89.44444444444444,195.75,89.44444444444444C198.16666666666669,89.44444444444444,200.58333333333334,89.44444444444444,203.00000000000003,89.44444444444444C205.41666666666669,89.44444444444444,207.83333333333331,89.44444444444444,210.24999999999997,89.44444444444444C212.66666666666666,89.44444444444444,215.08333333333331,89.44444444444444,217.5,89.44444444444444C219.91666666666666,89.44444444444444,222.33333333333334,89.44444444444444,224.75,89.44444444444444C227.16666666666666,89.44444444444444,229.58333333333334,89.44444444444444,232,89.44444444444444C234.41666666666666,89.44444444444444,236.83333333333334,89.44444444444444,239.25,89.44444444444444C241.66666666666669,89.44444444444444,244.08333333333334,89.44444444444444,246.50000000000003,89.44444444444444C248.91666666666669,89.44444444444444,251.33333333333331,89.44444444444444,253.74999999999997,89.44444444444444C256.16666666666663,89.44444444444444,258.5833333333333,89.44444444444444,261,89.44444444444444C263.4166666666667,89.44444444444444,265.8333333333333,89.44444444444444,268.25,89.44444444444444C270.6666666666667,89.44444444444444,273.0833333333333,89.44444444444444,275.5,89.44444444444444C277.9166666666667,89.44444444444444,280.3333333333333,89.44444444444444,282.75,89.44444444444444C285.1666666666667,89.44444444444444,287.5833333333333,89.44444444444444,290,89.44444444444444C292.4166666666667,89.44444444444444,294.8333333333333,89.44444444444444,297.25,89.44444444444444C299.6666666666667,89.44444444444444,302.0833333333333,89.44444444444444,304.5,89.44444444444444C306.9166666666667,89.44444444444444,309.3333333333333,89.44444444444444,311.75,89.44444444444444C314.1666666666667,89.44444444444444,316.5833333333333,89.44444444444444,319,89.44444444444444C321.4166666666667,89.44444444444444,323.8333333333333,89.44444444444444,326.25,89.44444444444444C328.6666666666667,89.44444444444444,331.0833333333333,89.44444444444444,333.5,89.44444444444444C335.9166666666667,89.44444444444444,338.3333333333333,89.44444444444444,340.75,89.44444444444444C343.1666666666667,89.44444444444444,345.5833333333333,89.44444444444444,348,89.44444444444444C350.4166666666667,89.44444444444444,352.8333333333333,89.44444444444444,355.25,89.44444444444444C357.6666666666667,89.44444444444444,360.0833333333333,89.44444444444444,362.5,89.44444444444444C364.9166666666667,89.44444444444444,367.3333333333333,89.44444444444444,369.75,89.44444444444444C372.1666666666667,89.44444444444444,374.5833333333333,89.44444444444444,377,89.44444444444444C379.4166666666667,89.44444444444444,381.8333333333333,89.44444444444444,384.25,89.44444444444444C386.6666666666667,89.44444444444444,389.0833333333333,89.44444444444444,391.5,89.44444444444444C393.9166666666667,89.44444444444444,396.33333333333337,89.44444444444444,398.75000000000006,89.44444444444444C401.16666666666674,89.44444444444444,403.58333333333337,89.44444444444444,406.00000000000006,89.44444444444444C408.4166666666667,89.44444444444444,410.8333333333333,89.44444444444444,413.24999999999994,89.44444444444444C415.66666666666663,89.44444444444444,418.08333333333326,89.44444444444444,420.49999999999994,89.44444444444444C422.91666666666663,89.44444444444444,425.3333333333333,89.44444444444444,427.75,89.44444444444444C430.1666666666667,89.44444444444444,432.5833333333333,89.44444444444444,435,89.44444444444444C437.4166666666667,89.44444444444444,439.8333333333333,89.44444444444444,442.25,89.44444444444444C444.6666666666667,89.44444444444444,447.0833333333333,89.44444444444444,449.5,89.44444444444444C451.9166666666667,89.44444444444444,454.3333333333333,89.44444444444444,456.75,89.44444444444444C459.1666666666667,89.44444444444444,461.5833333333333,89.44444444444444,464,89.44444444444444C466.4166666666667,89.44444444444444,468.8333333333333,89.44444444444444,471.25,89.44444444444444C473.6666666666667,89.44444444444444,476.0833333333333,89.44444444444444,478.5,89.44444444444444C480.9166666666667,89.44444444444444,483.33333333333337,89.44444444444444,485.75000000000006,89.44444444444444C488.16666666666674,89.44444444444444,490.58333333333337,89.44444444444444,493.00000000000006,89.44444444444444C495.4166666666667,89.44444444444444,497.8333333333333,89.44444444444444,500.24999999999994,89.44444444444444C502.66666666666663,89.44444444444444,505.08333333333326,89.44444444444444,507.49999999999994,89.44444444444444C509.91666666666663,89.44444444444444,512.3333333333333,89.44444444444444,514.75,89.44444444444444C517.1666666666666,89.44444444444444,519.5833333333334,89.44444444444444,522,89.44444444444444C524.4166666666666,89.44444444444444,526.8333333333334,89.44444444444444,529.25,89.44444444444444C531.6666666666666,89.44444444444444,534.0833333333334,89.44444444444444,536.5,89.44444444444444C538.9166666666666,89.44444444444444,541.3333333333334,89.44444444444444,543.75,89.44444444444444C546.1666666666666,89.44444444444444,548.5833333333334,89.44444444444444,551,89.44444444444444C553.4166666666666,89.44444444444444,555.8333333333334,89.44444444444444,558.25,89.44444444444444C560.6666666666666,89.44444444444444,563.0833333333334,89.44444444444444,565.5,89.44444444444444C567.9166666666666,89.44444444444444,570.3333333333334,89.44444444444444,572.75,89.44444444444444C575.1666666666666,89.44444444444444,577.5833333333334,89.44444444444444,580,89.44444444444444C582.4166666666666,89.44444444444444,584.8333333333334,89.44444444444444,587.25,89.44444444444444C589.6666666666666,89.44444444444444,592.0833333333334,89.44444444444444,594.5,89.44444444444444C596.9166666666666,89.44444444444444,599.3333333333334,89.44444444444444,601.75,89.44444444444444C604.1666666666666,89.44444444444444,606.5833333333334,89.44444444444444,609,89.44444444444444C611.4166666666666,89.44444444444444,613.8333333333334,89.44444444444444,616.25,89.44444444444444C618.6666666666666,89.44444444444444,621.0833333333334,89.44444444444444,623.5,89.44444444444444C625.9166666666666,89.44444444444444,628.3333333333334,89.44444444444444,630.75,89.44444444444444C633.1666666666666,89.44444444444444,635.5833333333334,89.44444444444444,638,89.44444444444444C640.4166666666666,89.44444444444444,642.8333333333334,89.44444444444444,645.25,89.44444444444444C647.6666666666666,89.44444444444444,650.0833333333334,89.44444444444444,652.5,89.44444444444444C654.9166666666666,89.44444444444444,657.3333333333334,88.97979797979798,659.75,88.74747474747475C662.1666666666666,88.51515151515153,664.5833333333334,88.28282828282829,667,88.05050505050505C669.4166666666666,87.81818181818181,671.8333333333334,87.58585858585859,674.25,87.35353535353535C676.6666666666666,87.12121212121211,679.0833333333334,86.88888888888887,681.5,86.65656565656565C683.9166666666666,86.42424242424242,686.3333333333334,86.19191919191918,688.75,85.95959595959596C691.1666666666666,85.72727272727273,693.5833333333334,85.49494949494948,696,85.26262626262626C698.4166666666666,85.03030303030303,700.8333333333334,84.79797979797979,703.25,84.56565656565657C705.6666666666666,84.33333333333334,708.0833333333334,84.1010101010101,710.5,83.86868686868688C712.9166666666666,83.63636363636365,715.3333333333334,83.40404040404042,717.75,83.17171717171718C720.1666666666666,82.93939393939394,722.5833333333334,82.70707070707071,725,82.47474747474747C727.4166666666666,82.24242424242424,729.8333333333334,82.010101010101,732.25,81.77777777777777C734.6666666666666,81.54545454545455,737.0833333333334,81.31313131313131,739.5,81.08080808080808C741.9166666666666,80.84848484848486,744.3333333333334,80.6161616161616,746.75,80.38383838383838C749.1666666666666,80.15151515151516,751.5833333333334,79.91919191919192,754,79.68686868686869C756.4166666666666,79.45454545454547,758.8333333333334,79.22222222222223,761.25,78.98989898989899C763.6666666666666,78.75757575757575,766.0833333333334,78.52525252525251,768.5,78.29292929292929C770.9166666666666,78.06060606060606,773.3333333333334,77.82828282828282,775.75,77.5959595959596C778.1666666666666,77.36363636363637,780.5833333333334,77.13131313131314,783,76.89898989898991C785.4166666666667,76.66666666666667,787.8333333333334,76.43434343434345,790.2500000000001,76.20202020202021C792.6666666666667,75.96969696969697,795.0833333333335,75.73737373737374,797.5000000000001,75.5050505050505C799.9166666666667,75.27272727272727,802.3333333333335,75.04040404040404,804.7500000000001,74.8080808080808C807.1666666666667,74.57575757575756,809.5833333333335,74.34343434343434,812.0000000000001,74.1111111111111C814.4166666666667,73.87878787878788,816.8333333333333,73.64646464646464,819.2499999999999,73.41414141414141C821.6666666666665,73.18181818181817,824.0833333333333,72.94949494949495,826.4999999999999,72.71717171717172C828.9166666666665,72.4848484848485,831.3333333333333,72.25252525252526,833.7499999999999,72.02020202020202C836.1666666666665,71.78787878787878,838.5833333333333,71.55555555555556,840.9999999999999,71.32323232323232C843.4166666666666,71.09090909090908,845.8333333333333,70.85858585858585,848.25,70.62626262626262C850.6666666666666,70.39393939393938,853.0833333333334,70.16161616161614,855.5,69.92929292929291C857.9166666666666,69.69696969696969,860.3333333333334,69.46464646464645,862.75,69.23232323232322C865.1666666666666,69,867.5833333333334,68.76767676767676,870,68.53535353535354C872.4166666666666,68.30303030303031,874.8333333333334,68.07070707070707,877.25,67.83838383838385C879.6666666666666,67.60606060606062,882.0833333333334,67.37373737373738,884.5,67.14141414141415C886.9166666666666,66.9090909090909,889.3333333333334,66.67676767676767,891.75,66.44444444444444C894.1666666666666,66.21212121212122,896.5833333333334,65.979797979798,899,65.74747474747477C901.4166666666666,65.51515151515154,903.8333333333334,65.28282828282829,906.25,65.05050505050505C908.6666666666666,64.81818181818181,911.0833333333334,64.58585858585859,913.5,64.35353535353536C915.9166666666666,64.12121212121214,918.3333333333334,63.88888888888889,920.75,63.65656565656566C923.1666666666666,63.42424242424243,925.5833333333334,63.19191919191919,928,62.95959595959596C930.4166666666666,62.72727272727273,932.8333333333334,62.4949494949495,935.25,62.26262626262627C937.6666666666666,62.03030303030304,940.0833333333334,61.7979797979798,942.5,61.56565656565657C944.9166666666666,61.333333333333336,947.3333333333334,61.10101010101011,949.75,60.86868686868688C952.1666666666666,60.63636363636365,954.5833333333334,60.40404040404041,957,60.17171717171718C959.4166666666666,59.939393939393945,961.8333333333334,59.707070707070706,964.25,59.474747474747474C966.6666666666667,59.24242424242424,969.0833333333334,59.010101010101025,971.5000000000001,58.777777777777786C973.9166666666667,58.545454545454554,976.3333333333335,58.3131313131313,978.7500000000001,58.08080808080807C981.1666666666667,57.84848484848484,983.5833333333335,57.61616161616161,986.0000000000001,57.38383838383838C988.4166666666667,57.15151515151515,990.8333333333335,56.91919191919193,993.2500000000001,56.68686868686869C995.6666666666667,56.45454545454547,998.0833333333333,56.22222222222222,1000.4999999999999,55.98989898989899C1002.9166666666665,55.75757575757575,1005.3333333333333,55.525252525252526,1007.7499999999999,55.292929292929294C1010.1666666666665,55.06060606060606,1012.5833333333333,54.82828282828282,1014.9999999999999,54.59595959595959C1017.4166666666665,54.36363636363636,1019.8333333333333,54.131313131313135,1022.2499999999999,53.8989898989899C1024.6666666666665,53.66666666666667,1027.0833333333333,53.43434343434343,1029.5,53.2020202020202C1031.9166666666667,52.96969696969697,1034.3333333333333,52.737373737373744,1036.75,52.50505050505051C1039.1666666666667,52.27272727272728,1041.5833333333333,52.04040404040404,1044,51.80808080808081C1046.4166666666667,51.57575757575758,1048.8333333333333,51.34343434343434,1051.25,51.11111111111111C1053.6666666666667,50.878787878787875,1056.0833333333333,50.646464646464636,1058.5,50.414141414141405C1060.9166666666667,50.18181818181817,1063.3333333333333,49.94949494949495,1065.75,49.717171717171716C1068.1666666666667,49.484848484848484,1070.5833333333333,49.25252525252526,1073,49.02020202020203C1075.4166666666667,48.787878787878796,1077.8333333333333,48.55555555555555,1080.25,48.32323232323232C1082.6666666666667,48.090909090909086,1085.0833333333333,47.85858585858586,1087.5,47.62626262626263C1089.9166666666667,47.3939393939394,1092.3333333333333,47.16161616161616,1094.75,46.92929292929293C1097.1666666666667,46.696969696969695,1099.5833333333333,46.46464646464647,1102,46.23232323232324C1104.4166666666667,46.00000000000001,1106.8333333333333,45.76767676767677,1109.25,45.535353535353536C1111.6666666666667,45.303030303030305,1114.0833333333333,45.07070707070708,1116.5,44.83838383838385C1118.9166666666667,44.606060606060616,1121.3333333333333,44.37373737373736,1123.75,44.14141414141413C1126.1666666666667,43.9090909090909,1128.5833333333333,43.676767676767675,1131,43.44444444444444C1133.4166666666667,43.21212121212121,1135.8333333333333,42.979797979797986,1138.25,42.747474747474755C1140.6666666666667,42.51515151515152,1143.0833333333333,42.282828282828284,1145.5,42.05050505050505C1147.9166666666667,41.81818181818182,1150.3333333333333,41.58585858585858,1152.75,41.35353535353535C1155.1666666666667,41.12121212121212,1157.5833333333333,40.88888888888888,1160,40.65656565656565C1162.4166666666667,40.424242424242415,1164.8333333333333,40.19191919191919,1167.25,39.95959595959596C1169.6666666666667,39.72727272727273,1172.0833333333333,39.494949494949495,1174.5,39.26262626262626C1176.9166666666667,39.03030303030303,1179.3333333333333,38.79797979797981,1181.75,38.565656565656575C1184.1666666666667,38.33333333333334,1186.5833333333333,38.101010101010104,1189,37.86868686868687C1191.4166666666667,37.63636363636364,1193.8333333333333,37.4040404040404,1196.25,37.17171717171717C1198.6666666666667,36.93939393939394,1201.0833333333333,36.70707070707071,1203.5,36.47474747474748C1205.9166666666667,36.24242424242425,1208.3333333333333,36.01010101010101,1210.75,35.77777777777778C1213.1666666666667,35.54545454545455,1215.5833333333333,35.31313131313132,1218,35.08080808080809C1220.4166666666667,34.84848484848486,1222.8333333333333,34.61616161616162,1225.25,34.38383838383839C1227.6666666666667,34.151515151515156,1230.0833333333333,33.91919191919192,1232.5,33.686868686868685C1234.9166666666667,33.45454545454545,1237.3333333333333,33.222222222222214,1239.75,32.98989898989898C1242.1666666666667,32.75757575757575,1244.5833333333333,32.525252525252526,1247,32.292929292929294C1249.4166666666667,32.06060606060606,1251.8333333333333,31.828282828282827,1254.25,31.595959595959595C1256.6666666666667,31.363636363636363,1259.0833333333333,31.131313131313124,1261.5,30.898989898989893C1263.9166666666667,30.66666666666666,1266.3333333333333,30.434343434343432,1268.75,30.202020202020204C1271.1666666666667,29.969696969696976,1273.5833333333333,29.737373737373748,1276,29.505050505050516C1278.4166666666667,29.272727272727284,1280.8333333333333,29.040404040404038,1283.25,28.808080808080803C1285.6666666666667,28.575757575757567,1288.0833333333333,28.343434343434332,1290.5,28.1111111111111C1292.9166666666667,27.87878787878787,1295.3333333333333,27.646464646464644,1297.75,27.41414141414141C1300.1666666666667,27.18181818181818,1302.5833333333333,26.94949494949494,1305,26.71717171717171C1307.4166666666667,26.484848484848477,1309.8333333333333,26.25252525252525,1312.25,26.02020202020202C1314.6666666666667,25.787878787878793,1317.0833333333333,25.555555555555564,1319.5,25.323232323232332C1321.9166666666667,25.0909090909091,1324.3333333333333,24.858585858585865,1326.75,24.62626262626263C1329.1666666666667,24.393939393939394,1331.5833333333333,24.16161616161615,1334,23.929292929292917C1336.4166666666667,23.696969696969685,1338.8333333333333,23.464646464646457,1341.25,23.23232323232323C1343.6666666666667,23,1346.0833333333333,22.76767676767677,1348.5,22.53535353535354C1350.9166666666667,22.303030303030308,1353.3333333333333,22.07070707070707,1355.75,21.838383838383837C1358.1666666666667,21.606060606060606,1360.5833333333333,21.37373737373737,1363,21.14141414141414C1365.4166666666667,20.909090909090907,1367.8333333333333,20.676767676767682,1370.25,20.44444444444445C1372.6666666666667,20.212121212121218,1375.0833333333333,19.979797979797983,1377.5,19.747474747474747C1379.9166666666667,19.515151515151512,1382.3333333333333,19.28282828282828,1384.75,19.050505050505045C1387.1666666666667,18.81818181818181,1389.5833333333333,18.585858585858574,1392,18.353535353535342C1394.4166666666667,18.12121212121211,1396.8333333333333,17.888888888888886,1399.25,17.656565656565654C1401.6666666666667,17.424242424242422,1404.0833333333333,17.191919191919187,1406.5,16.959595959595955C1408.9166666666667,16.727272727272723,1411.3333333333333,16.494949494949495,1413.75,16.262626262626267C1416.1666666666667,16.03030303030304,1418.5833333333333,15.797979797979808,1421,15.565656565656576C1423.4166666666667,15.333333333333345,1425.8333333333333,15.101010101010111,1428.25,14.868686868686876C1430.6666666666667,14.63636363636364,1433.0833333333333,14.404040404040396,1435.5,14.17171717171716C1437.9166666666667,13.939393939393925,1440.3333333333333,13.70707070707069,1442.75,13.47474747474746C1445.1666666666667,13.24242424242423,1447.5833333333333,13.010101010101007,1450,12.777777777777784" fill="transparent" stroke-linecap="round" stroke="#E7C6DF" stroke-width="2"></path><g class="visx-group visx-axis visx-axis-bottom" transform="translate(0, 115)"><g class="visx-group visx-axis-tick" transform="translate(0, 0)"><line class="visx-line" x1="0" y1="0" x2="0" y2="8" fill="transparent" shape-rendering="crispEdges" stroke="#000" stroke-width="0" stroke-linecap="square"></line><svg x="0" y="0" font-size="10" style="overflow:visible"><text transform="" x="0" y="18" fill="#000" font-size="10" text-anchor="middle"><tspan x="0" dy="0em">0%</tspan></text></svg></g><g class="visx-group visx-axis-tick" transform="translate(0, 0)"><line class="visx-line" x1="362.5" y1="0" x2="362.5" y2="8" fill="transparent" shape-rendering="crispEdges" stroke="#000" stroke-width="0" stroke-linecap="square"></line><svg x="0" y="0" font-size="10" style="overflow:visible"><text transform="" x="362.5" y="18" fill="#000" font-size="10" text-anchor="middle"><tspan x="362.5" dy="0em">25%</tspan></text></svg></g><g class="visx-group visx-axis-tick" transform="translate(0, 0)"><line class="visx-line" x1="725" y1="0" x2="725" y2="8" fill="transparent" shape-rendering="crispEdges" stroke="#000" stroke-width="0" stroke-linecap="square"></line><svg x="0" y="0" font-size="10" style="overflow:visible"><text transform="" x="725" y="18" fill="#000" font-size="10" text-anchor="middle"><tspan x="725" dy="0em">50%</tspan></text></svg></g><g class="visx-group visx-axis-tick" transform="translate(0, 0)"><line class="visx-line" x1="1087.5" y1="0" x2="1087.5" y2="8" fill="transparent" shape-rendering="crispEdges" stroke="#000" stroke-width="0" stroke-linecap="square"></line><svg x="0" y="0" font-size="10" style="overflow:visible"><text transform="" x="1087.5" y="18" fill="#000" font-size="10" text-anchor="middle"><tspan x="1087.5" dy="0em">75%</tspan></text></svg></g><g class="visx-group visx-axis-tick" transform="translate(0, 0)"><line class="visx-line" x1="1450" y1="0" x2="1450" y2="8" fill="transparent" shape-rendering="crispEdges" stroke="#000" stroke-width="0" stroke-linecap="square"></line><svg x="0" y="0" font-size="10" style="overflow:visible"><text transform="" x="1450" y="18" fill="#000" font-size="10" text-anchor="middle"><tspan x="1450" dy="0em">100%</tspan></text></svg></g><line class="visx-line visx-axis-line" x1="0.5" y1="0" x2="1450.5" y2="0" fill="transparent" shape-rendering="crispEdges" stroke="#222" stroke-width="0"></line></g><g class="visx-group visx-axis visx-axis-left" transform="translate(0, 0)"><g class="visx-group visx-axis-tick" transform="translate(0, 0)"><line class="visx-line" x1="0" y1="115" x2="-8" y2="115" fill="transparent" shape-rendering="crispEdges" stroke="#222" stroke-width="0" stroke-linecap="square"></line><svg x="-30" y="0" font-size="8" style="overflow:visible"><text transform="" x="-8" y="115" fill="#000" font-size="8" text-anchor="start"><tspan x="-8" dy="0em">0%</tspan></text></svg></g><g class="visx-group visx-axis-tick" transform="translate(0, 0)"><line class="visx-line" x1="0" y1="63.88888888888889" x2="-8" y2="63.88888888888889" fill="transparent" shape-rendering="crispEdges" stroke="#222" stroke-width="0" stroke-linecap="square"></line><svg x="-30" y="0" font-size="8" style="overflow:visible"><text transform="" x="-8" y="63.88888888888889" fill="#000" font-size="8" text-anchor="start"><tspan x="-8" dy="0em">2%</tspan></text></svg></g><g class="visx-group visx-axis-tick" transform="translate(0, 0)"><line class="visx-line" x1="0" y1="12.777777777777784" x2="-8" y2="12.777777777777784" fill="transparent" shape-rendering="crispEdges" stroke="#222" stroke-width="0" stroke-linecap="square"></line><svg x="-30" y="0" font-size="8" style="overflow:visible"><text transform="" x="-8" y="12.777777777777784" fill="#000" font-size="8" text-anchor="start"><tspan x="-8" dy="0em">4%</tspan></text></svg></g><line class="visx-line visx-axis-line" x1="0" y1="115.5" x2="0" y2="0.5" fill="transparent" shape-rendering="crispEdges" stroke="#222" stroke-width="0"></line></g><rect class="visx-bar" width="1450" height="115" fill="transparent"></rect><line class="visx-line" x1="652.5" y1="28" x2="652.5" y2="115" fill="transparent" shape-rendering="crispEdges" stroke="#0062D2" stroke-width="1" pointer-events="none" stroke-dasharray="5,2"></line><svg x="0" y="0" font-size="10px" style="overflow:visible"><text transform="" x="652.5" y="20" font-size="10px" fill="#fff" stroke="#fff" stroke-width="0.8em" text-anchor="middle"><tspan x="652.5" dy="0.355em">Optimal 45%</tspan></text></svg><svg x="0" y="0" font-size="10px" style="overflow:visible"><text transform="" x="652.5" y="20" font-size="10px" fill="#62677B" text-anchor="middle"><tspan x="652.5" dy="0.355em">Optimal 45%</tspan></text></svg></g></svg>