<?xml version="1.0"?><svg xmlns="http://www.w3.org/2000/svg" xmlns:xlink= "http://www.w3.org/1999/xlink" style="background: white;" width="1500" height="185"> <g style="color: black; font-size: 13px; font-family: sans-serif; transform: translate(18px, 25px);"><g><circle r="3" cx="-6" cy="-5" style="fill: #B6509E" /><text>Borrow APR, variable</text></g><g style="transform: translateX(150px);"><circle r="3" cx="-6" cy="-5" style="fill: rgb(231, 198, 223)" /><text>Borrow APR, stable</text></g><g style="transform: translateX(290px);"><circle r="3" cx="-6" cy="-5" style="fill: rgb(0, 98, 210)" /><text>Utilization Rate</text></g></g><g class="visx-group" transform="translate(40, 50)"><g class="visx-group visx-rows" transform="translate(0, 0)"><line class="visx-line" x1="0" y1="115" x2="1450" y2="115" fill="transparent" shape-rendering="crispEdges" stroke="#000" stroke-width="1" stroke-dasharray="3,3" pointer-events="none"></line><line class="visx-line" x1="0" y1="82.14285714285714" x2="1450" y2="82.14285714285714" fill="transparent" shape-rendering="crispEdges" stroke="#000" stroke-width="1" stroke-dasharray="3,3" pointer-events="none"></line><line class="visx-line" x1="0" y1="49.28571428571429" x2="1450" y2="49.28571428571429" fill="transparent" shape-rendering="crispEdges" stroke="#000" stroke-width="1" stroke-dasharray="3,3" pointer-events="none"></line><line class="visx-line" x1="0" y1="16.428571428571434" x2="1450" y2="16.428571428571434" fill="transparent" shape-rendering="crispEdges" stroke="#000" stroke-width="1" stroke-dasharray="3,3" pointer-events="none"></line></g><path class="visx-linepath" d="M0,114.99999999995619C2.4166666666666665,114.99269841267285,4.833333333333334,114.98539682538951,7.25,114.97809523809524C9.666666666666666,114.97079365080096,12.083333333333334,114.96349206349205,14.5,114.95619047619047C16.916666666666668,114.94888888888889,19.333333333333332,114.9415873015873,21.75,114.93428571428572C24.166666666666668,114.92698412698414,26.583333333333332,114.91968253968254,29,114.91238095238096C31.416666666666668,114.90507936507937,33.833333333333336,114.89777777777778,36.25,114.89047619047619C38.666666666666664,114.88317460317461,41.083333333333336,114.87587301587301,43.5,114.86857142857143C45.91666666666667,114.86126984126984,48.333333333333336,114.85396825396825,50.75000000000001,114.84666666666666C53.16666666666667,114.83936507936508,55.583333333333336,114.8320634920635,58,114.82476190476191C60.416666666666664,114.81746031746033,62.833333333333336,114.81015873015873,65.25,114.80285714285715C67.66666666666667,114.79555555555557,70.08333333333333,114.78825396825397,72.5,114.78095238095239C74.91666666666667,114.7736507936508,77.33333333333333,114.76634920634919,79.75,114.7590476190476C82.16666666666667,114.75174603174602,84.58333333333333,114.74444444444444,87,114.73714285714286C89.41666666666667,114.72984126984127,91.83333333333333,114.72253968253968,94.25,114.71523809523809C96.66666666666667,114.70793650793651,99.08333333333334,114.70063492063491,101.50000000000001,114.69333333333333C103.91666666666667,114.68603174603174,106.33333333333334,114.67873015873015,108.75,114.67142857142856C111.16666666666667,114.66412698412698,113.58333333333333,114.65682539682538,116,114.6495238095238C118.41666666666667,114.64222222222222,120.83333333333334,114.63492063492063,123.25000000000001,114.62761904761905C125.66666666666667,114.62031746031747,128.08333333333334,114.61301587301587,130.5,114.60571428571428C132.91666666666666,114.5984126984127,135.33333333333334,114.5911111111111,137.75,114.58380952380952C140.16666666666666,114.57650793650794,142.58333333333334,114.56920634920634,145,114.56190476190476C147.41666666666666,114.55460317460317,149.83333333333334,114.54730158730159,152.25,114.54C154.66666666666666,114.53269841269842,157.08333333333334,114.52539682539683,159.5,114.51809523809524C161.91666666666666,114.51079365079366,164.33333333333334,114.50349206349206,166.75,114.49619047619048C169.16666666666666,114.4888888888889,171.58333333333334,114.4815873015873,174,114.47428571428571C176.41666666666666,114.46698412698413,178.83333333333334,114.45968253968253,181.25,114.45238095238095C183.66666666666666,114.44507936507937,186.08333333333334,114.43777777777778,188.5,114.4304761904762C190.91666666666666,114.42317460317462,193.33333333333334,114.41587301587302,195.75,114.40857142857143C198.16666666666669,114.40126984126985,200.58333333333334,114.39396825396825,203.00000000000003,114.38666666666667C205.41666666666669,114.37936507936509,207.83333333333331,114.37206349206349,210.24999999999997,114.3647619047619C212.66666666666666,114.35746031746032,215.08333333333331,114.35015873015873,217.5,114.34285714285714C219.91666666666666,114.33555555555556,222.33333333333334,114.32825396825397,224.75,114.32095238095239C227.16666666666666,114.31365079365081,229.58333333333334,114.30634920634921,232,114.29904761904763C234.41666666666666,114.29174603174604,236.83333333333334,114.28444444444443,239.25,114.27714285714285C241.66666666666669,114.26984126984125,244.08333333333334,114.26253968253967,246.50000000000003,114.25523809523808C248.91666666666669,114.2479365079365,251.33333333333331,114.24063492063492,253.74999999999997,114.23333333333333C256.16666666666663,114.22603174603175,258.5833333333333,114.21873015873015,261,114.21142857142857C263.4166666666667,114.20412698412699,265.8333333333333,114.19682539682539,268.25,114.1895238095238C270.6666666666667,114.18222222222222,273.0833333333333,114.17492063492062,275.5,114.16761904761904C277.9166666666667,114.16031746031746,280.3333333333333,114.15301587301586,282.75,114.14571428571428C285.1666666666667,114.1384126984127,287.5833333333333,114.13111111111111,290,114.12380952380953C292.4166666666667,114.11650793650794,294.8333333333333,114.10920634920635,297.25,114.10190476190476C299.6666666666667,114.09460317460318,302.0833333333333,114.08730158730158,304.5,114.08C306.9166666666667,114.07269841269841,309.3333333333333,114.06539682539682,311.75,114.05809523809523C314.1666666666667,114.05079365079365,316.5833333333333,114.04349206349205,319,114.03619047619047C321.4166666666667,114.02888888888889,323.8333333333333,114.0215873015873,326.25,114.01428571428572C328.6666666666667,114.00698412698414,331.0833333333333,113.99968253968254,333.5,113.99238095238096C335.9166666666667,113.98507936507937,338.3333333333333,113.97777777777777,340.75,113.97047619047619C343.1666666666667,113.96317460317461,345.5833333333333,113.95587301587301,348,113.94857142857143C350.4166666666667,113.94126984126984,352.8333333333333,113.93396825396826,355.25,113.92666666666668C357.6666666666667,113.9193650793651,360.0833333333333,113.9120634920635,362.5,113.90476190476191C364.9166666666667,113.89746031746033,367.3333333333333,113.89015873015873,369.75,113.88285714285715C372.1666666666667,113.87555555555556,374.5833333333333,113.86825396825397,377,113.86095238095238C379.4166666666667,113.8536507936508,381.8333333333333,113.8463492063492,384.25,113.83904761904762C386.6666666666667,113.83174603174604,389.0833333333333,113.82444444444445,391.5,113.81714285714287C393.9166666666667,113.80984126984129,396.33333333333337,113.80253968253969,398.75000000000006,113.79523809523809C401.16666666666674,113.78793650793651,403.58333333333337,113.78063492063491,406.00000000000006,113.77333333333333C408.4166666666667,113.76603174603174,410.8333333333333,113.75873015873015,413.24999999999994,113.75142857142856C415.66666666666663,113.74412698412698,418.08333333333326,113.7368253968254,420.49999999999994,113.72952380952381C422.91666666666663,113.72222222222223,425.3333333333333,113.71492063492063,427.75,113.70761904761905C430.1666666666667,113.70031746031746,432.5833333333333,113.69301587301587,435,113.68571428571428C437.4166666666667,113.6784126984127,439.8333333333333,113.6711111111111,442.25,113.66380952380952C444.6666666666667,113.65650793650794,447.0833333333333,113.64920634920634,449.5,113.64190476190475C451.9166666666667,113.63460317460317,454.3333333333333,113.62730158730159,456.75,113.62C459.1666666666667,113.61269841269842,461.5833333333333,113.60539682539682,464,113.59809523809524C466.4166666666667,113.59079365079366,468.8333333333333,113.58349206349206,471.25,113.57619047619048C473.6666666666667,113.56888888888889,476.0833333333333,113.5615873015873,478.5,113.55428571428571C480.9166666666667,113.54698412698413,483.33333333333337,113.53968253968253,485.75000000000006,113.53238095238095C488.16666666666674,113.52507936507936,490.58333333333337,113.51777777777778,493.00000000000006,113.5104761904762C495.4166666666667,113.50317460317461,497.8333333333333,113.49587301587302,500.24999999999994,113.48857142857143C502.66666666666663,113.48126984126985,505.08333333333326,113.47396825396825,507.49999999999994,113.46666666666667C509.91666666666663,113.45936507936509,512.3333333333333,113.45206349206349,514.75,113.4447619047619C517.1666666666666,113.43746031746032,519.5833333333334,113.43015873015872,522,113.42285714285714C524.4166666666666,113.41555555555556,526.8333333333334,113.40825396825397,529.25,113.40095238095239C531.6666666666666,113.3936507936508,534.0833333333334,113.38634920634921,536.5,113.37904761904763C538.9166666666666,113.37174603174604,541.3333333333334,113.36444444444444,543.75,113.35714285714286C546.1666666666666,113.34984126984128,548.5833333333334,113.34253968253967,551,113.33523809523808C553.4166666666666,113.3279365079365,555.8333333333334,113.32063492063492,558.25,113.31333333333333C560.6666666666666,113.30603174603175,563.0833333333334,113.29873015873015,565.5,113.29142857142857C567.9166666666666,113.28412698412698,570.3333333333334,113.27682539682539,572.75,113.2695238095238C575.1666666666666,113.26222222222222,577.5833333333334,113.25492063492062,580,113.24761904761904C582.4166666666666,113.24031746031746,584.8333333333334,113.23301587301586,587.25,113.22571428571428C589.6666666666666,113.21841269841269,592.0833333333334,113.21111111111111,594.5,113.20380952380953C596.9166666666666,113.19650793650794,599.3333333333334,113.18920634920634,601.75,113.18190476190476C604.1666666666666,113.17460317460318,606.5833333333334,113.16730158730158,609,113.16C611.4166666666666,113.15269841269841,613.8333333333334,113.14539682539682,616.25,113.13809523809523C618.6666666666666,113.13079365079365,621.0833333333334,113.12349206349207,623.5,113.11619047619048C625.9166666666666,113.1088888888889,628.3333333333334,113.1015873015873,630.75,113.09428571428572C633.1666666666666,113.08698412698413,635.5833333333334,113.07968253968254,638,113.07238095238095C640.4166666666666,113.06507936507937,642.8333333333334,113.05777777777777,645.25,113.05047619047619C647.6666666666666,113.0431746031746,650.0833333333334,113.0431746031746,652.5,113.02857142857142C654.9166666666666,113.01396825396824,657.3333333333334,112.43116883116883,659.75,112.13246753246753C662.1666666666666,111.83376623376623,664.5833333333334,111.53506493506494,667,111.23636363636363C669.4166666666666,110.93766233766233,671.8333333333334,110.63896103896104,674.25,110.34025974025974C676.6666666666666,110.04155844155844,679.0833333333334,109.74285714285715,681.5,109.44415584415584C683.9166666666666,109.14545454545454,686.3333333333334,108.84675324675325,688.75,108.54805194805195C691.1666666666666,108.24935064935065,693.5833333333334,107.95064935064936,696,107.65194805194805C698.4166666666666,107.35324675324675,700.8333333333334,107.05454545454546,703.25,106.75584415584416C705.6666666666666,106.45714285714286,708.0833333333334,106.15844155844157,710.5,105.85974025974026C712.9166666666666,105.56103896103896,715.3333333333334,105.26233766233767,717.75,104.96363636363637C720.1666666666666,104.66493506493507,722.5833333333334,104.36623376623378,725,104.06753246753247C727.4166666666666,103.76883116883117,729.8333333333334,103.47012987012987,732.25,103.17142857142856C734.6666666666666,102.87272727272726,737.0833333333334,102.57402597402597,739.5,102.27532467532467C741.9166666666666,101.97662337662337,744.3333333333334,101.67792207792208,746.75,101.37922077922077C749.1666666666666,101.08051948051947,751.5833333333334,100.78181818181818,754,100.48311688311688C756.4166666666666,100.18441558441558,758.8333333333334,99.88571428571429,761.25,99.58701298701298C763.6666666666666,99.28831168831168,766.0833333333334,98.98961038961039,768.5,98.69090909090909C770.9166666666666,98.39220779220778,773.3333333333334,98.0935064935065,775.75,97.79480519480519C778.1666666666666,97.49610389610389,780.5833333333334,97.19740259740259,783,96.8987012987013C785.4166666666667,96.6,787.8333333333334,96.30129870129872,790.2500000000001,96.00259740259742C792.6666666666667,95.70389610389611,795.0833333333335,95.40519480519481,797.5000000000001,95.1064935064935C799.9166666666667,94.8077922077922,802.3333333333335,94.50909090909092,804.7500000000001,94.21038961038961C807.1666666666667,93.91168831168831,809.5833333333335,93.61298701298702,812.0000000000001,93.31428571428572C814.4166666666667,93.01558441558443,816.8333333333333,92.71688311688312,819.2499999999999,92.41818181818182C821.6666666666665,92.11948051948052,824.0833333333333,91.82077922077922,826.4999999999999,91.52207792207791C828.9166666666665,91.22337662337661,831.3333333333333,90.92467532467532,833.7499999999999,90.62597402597402C836.1666666666665,90.32727272727271,838.5833333333333,90.02857142857141,840.9999999999999,89.72987012987012C843.4166666666666,89.43116883116882,845.8333333333333,89.13246753246754,848.25,88.83376623376624C850.6666666666666,88.53506493506495,853.0833333333334,88.23636363636363,855.5,87.93766233766233C857.9166666666666,87.63896103896103,860.3333333333334,87.34025974025975,862.75,87.04155844155845C865.1666666666666,86.74285714285715,867.5833333333334,86.44415584415584,870,86.14545454545454C872.4166666666666,85.84675324675324,874.8333333333334,85.54805194805196,877.25,85.24935064935066C879.6666666666666,84.95064935064936,882.0833333333334,84.65194805194805,884.5,84.35324675324675C886.9166666666666,84.05454545454545,889.3333333333334,83.75584415584416,891.75,83.45714285714286C894.1666666666666,83.15844155844155,896.5833333333334,82.85974025974025,899,82.56103896103895C901.4166666666666,82.26233766233764,903.8333333333334,81.96363636363635,906.25,81.66493506493507C908.6666666666666,81.36623376623378,911.0833333333334,81.06753246753247,913.5,80.76883116883117C915.9166666666666,80.47012987012987,918.3333333333334,80.17142857142858,920.75,79.87272727272727C923.1666666666666,79.57402597402597,925.5833333333334,79.27532467532467,928,78.97662337662337C930.4166666666666,78.67792207792206,932.8333333333334,78.37922077922079,935.25,78.08051948051948C937.6666666666666,77.78181818181818,940.0833333333334,77.48311688311688,942.5,77.18441558441558C944.9166666666666,76.88571428571427,947.3333333333334,76.587012987013,949.75,76.2883116883117C952.1666666666666,75.98961038961039,954.5833333333334,75.69090909090909,957,75.39220779220778C959.4166666666666,75.09350649350648,961.8333333333334,74.79480519480519,964.25,74.4961038961039C966.6666666666667,74.1974025974026,969.0833333333334,73.89870129870131,971.5000000000001,73.60000000000001C973.9166666666667,73.3012987012987,976.3333333333335,73.0025974025974,978.7500000000001,72.7038961038961C981.1666666666667,72.4051948051948,983.5833333333335,72.10649350649352,986.0000000000001,71.80779220779222C988.4166666666667,71.50909090909092,990.8333333333335,71.21038961038961,993.2500000000001,70.91168831168831C995.6666666666667,70.612987012987,998.0833333333333,70.3142857142857,1000.4999999999999,70.01558441558441C1002.9166666666665,69.71688311688311,1005.3333333333333,69.41818181818181,1007.7499999999999,69.11948051948052C1010.1666666666665,68.82077922077923,1012.5833333333333,68.52207792207794,1014.9999999999999,68.22337662337664C1017.4166666666665,67.92467532467533,1019.8333333333333,67.62597402597403,1022.2499999999999,67.32727272727273C1024.6666666666665,67.02857142857142,1027.0833333333333,66.72987012987014,1029.5,66.43116883116883C1031.9166666666667,66.13246753246753,1034.3333333333333,65.83376623376624,1036.75,65.53506493506494C1039.1666666666667,65.23636363636363,1041.5833333333333,64.93766233766235,1044,64.63896103896104C1046.4166666666667,64.34025974025974,1048.8333333333333,64.04155844155844,1051.25,63.74285714285714C1053.6666666666667,63.444155844155844,1056.0833333333333,63.145454545454555,1058.5,62.84675324675326C1060.9166666666667,62.54805194805196,1063.3333333333333,62.24935064935065,1065.75,61.95064935064935C1068.1666666666667,61.65194805194805,1070.5833333333333,61.35324675324675,1073,61.054545454545455C1075.4166666666667,60.75584415584416,1077.8333333333333,60.45714285714285,1080.25,60.15844155844155C1082.6666666666667,59.859740259740256,1085.0833333333333,59.56103896103897,1087.5,59.26233766233767C1089.9166666666667,58.963636363636375,1092.3333333333333,58.664935064935065,1094.75,58.36623376623376C1097.1666666666667,58.06753246753246,1099.5833333333333,57.76883116883116,1102,57.47012987012987C1104.4166666666667,57.17142857142857,1106.8333333333333,56.87272727272727,1109.25,56.57402597402597C1111.6666666666667,56.275324675324676,1114.0833333333333,55.97662337662338,1116.5,55.677922077922084C1118.9166666666667,55.37922077922079,1121.3333333333333,55.08051948051948,1123.75,54.781818181818174C1126.1666666666667,54.48311688311687,1128.5833333333333,54.184415584415575,1131,53.88571428571428C1133.4166666666667,53.58701298701298,1135.8333333333333,53.288311688311694,1138.25,52.9896103896104C1140.6666666666667,52.6909090909091,1143.0833333333333,52.39220779220779,1145.5,52.09350649350649C1147.9166666666667,51.794805194805186,1150.3333333333333,51.49610389610389,1152.75,51.19740259740259C1155.1666666666667,50.8987012987013,1157.5833333333333,50.6,1160,50.301298701298705C1162.4166666666667,50.00259740259741,1164.8333333333333,49.703896103896106,1167.25,49.40519480519481C1169.6666666666667,49.106493506493514,1172.0833333333333,48.80779220779221,1174.5,48.509090909090915C1176.9166666666667,48.21038961038962,1179.3333333333333,47.911688311688316,1181.75,47.61298701298702C1184.1666666666667,47.314285714285724,1186.5833333333333,47.01558441558443,1189,46.716883116883125C1191.4166666666667,46.41818181818182,1193.8333333333333,46.11948051948052,1196.25,45.820779220779215C1198.6666666666667,45.52207792207791,1201.0833333333333,45.223376623376616,1203.5,44.92467532467532C1205.9166666666667,44.625974025974024,1208.3333333333333,44.32727272727273,1210.75,44.02857142857143C1213.1666666666667,43.729870129870136,1215.5833333333333,43.43116883116882,1218,43.13246753246752C1220.4166666666667,42.83376623376623,1222.8333333333333,42.53506493506494,1225.25,42.23636363636364C1227.6666666666667,41.937662337662346,1230.0833333333333,41.63896103896104,1232.5,41.34025974025975C1234.9166666666667,41.04155844155845,1237.3333333333333,40.74285714285714,1239.75,40.444155844155844C1242.1666666666667,40.14545454545455,1244.5833333333333,39.846753246753245,1247,39.54805194805195C1249.4166666666667,39.24935064935065,1251.8333333333333,38.95064935064935,1254.25,38.651948051948054C1256.6666666666667,38.35324675324676,1259.0833333333333,38.05454545454546,1261.5,37.75584415584416C1263.9166666666667,37.457142857142856,1266.3333333333333,37.158441558441545,1268.75,36.85974025974025C1271.1666666666667,36.56103896103895,1273.5833333333333,36.262337662337664,1276,35.96363636363637C1278.4166666666667,35.66493506493507,1280.8333333333333,35.36623376623376,1283.25,35.067532467532466C1285.6666666666667,34.76883116883117,1288.0833333333333,34.47012987012987,1290.5,34.17142857142857C1292.9166666666667,33.872727272727275,1295.3333333333333,33.57402597402597,1297.75,33.275324675324676C1300.1666666666667,32.97662337662338,1302.5833333333333,32.67792207792208,1305,32.37922077922078C1307.4166666666667,32.080519480519484,1309.8333333333333,31.781818181818178,1312.25,31.48311688311688C1314.6666666666667,31.184415584415586,1317.0833333333333,30.8857142857143,1319.5,30.587012987013C1321.9166666666667,30.2883116883117,1324.3333333333333,29.98961038961039,1326.75,29.69090909090909C1329.1666666666667,29.392207792207792,1331.5833333333333,29.09350649350649,1334,28.794805194805193C1336.4166666666667,28.496103896103897,1338.8333333333333,28.19740259740261,1341.25,27.89870129870131C1343.6666666666667,27.600000000000012,1346.0833333333333,27.301298701298702,1348.5,27.002597402597402C1350.9166666666667,26.703896103896103,1353.3333333333333,26.405194805194803,1355.75,26.106493506493504C1358.1666666666667,25.807792207792204,1360.5833333333333,25.509090909090894,1363,25.210389610389594C1365.4166666666667,24.911688311688295,1367.8333333333333,24.612987012987006,1370.25,24.314285714285713C1372.6666666666667,24.01558441558442,1375.0833333333333,23.716883116883125,1377.5,23.41818181818183C1379.9166666666667,23.119480519480533,1382.3333333333333,22.820779220779233,1384.75,22.522077922077933C1387.1666666666667,22.223376623376634,1389.5833333333333,21.924675324675324,1392,21.625974025974024C1394.4166666666667,21.327272727272724,1396.8333333333333,21.02857142857142,1399.25,20.729870129870125C1401.6666666666667,20.43116883116883,1404.0833333333333,20.132467532467544,1406.5,19.833766233766244C1408.9166666666667,19.535064935064945,1411.3333333333333,19.236363636363635,1413.75,18.937662337662335C1416.1666666666667,18.638961038961035,1418.5833333333333,18.34025974025975,1421,18.04155844155845C1423.4166666666667,17.74285714285715,1425.8333333333333,17.44415584415584,1428.25,17.14545454545454C1430.6666666666667,16.84675324675324,1433.0833333333333,16.548051948051942,1435.5,16.249350649350646C1437.9166666666667,15.95064935064935,1440.3333333333333,15.651948051948061,1442.75,15.353246753246761C1445.1666666666667,15.054545454545462,1447.5833333333333,14.755844155844157,1450,14.457142857142852" fill="transparent" stroke-linecap="round" stroke="#B6509E" stroke-width="2"></path><path class="visx-linepath" d="M0,112.69999999999635C2.4166666666666665,112.6993915343894,4.833333333333334,112.69878306878246,7.25,112.6981746031746C9.666666666666666,112.69756613756675,12.083333333333334,112.69695767195766,14.5,112.6963492063492C16.916666666666668,112.69574074074073,19.333333333333332,112.69513227513227,21.75,112.6945238095238C24.166666666666668,112.69391534391534,26.583333333333332,112.69330687830687,29,112.6926984126984C31.416666666666668,112.69208994708994,33.833333333333336,112.69148148148149,36.25,112.69087301587302C38.666666666666664,112.69026455026456,41.083333333333336,112.6896560846561,43.5,112.68904761904763C45.91666666666667,112.68843915343916,48.333333333333336,112.6878306878307,50.75000000000001,112.68722222222223C53.16666666666667,112.68661375661377,55.583333333333336,112.68600529100529,58,112.68539682539682C60.416666666666664,112.68478835978836,62.833333333333336,112.68417989417989,65.25,112.68357142857143C67.66666666666667,112.68296296296296,70.08333333333333,112.6823544973545,72.5,112.68174603174603C74.91666666666667,112.68113756613756,77.33333333333333,112.6805291005291,79.75,112.67992063492063C82.16666666666667,112.67931216931217,84.58333333333333,112.6787037037037,87,112.67809523809524C89.41666666666667,112.67748677248677,91.83333333333333,112.67687830687831,94.25,112.67626984126984C96.66666666666667,112.67566137566138,99.08333333333334,112.67505291005291,101.50000000000001,112.67444444444445C103.91666666666667,112.67383597883598,106.33333333333334,112.6732275132275,108.75,112.67261904761904C111.16666666666667,112.67201058201057,113.58333333333333,112.6714021164021,116,112.67079365079364C118.41666666666667,112.67018518518518,120.83333333333334,112.66957671957672,123.25000000000001,112.66896825396826C125.66666666666667,112.6683597883598,128.08333333333334,112.66775132275133,130.5,112.66714285714286C132.91666666666666,112.6665343915344,135.33333333333334,112.66592592592593,137.75,112.66531746031747C140.16666666666666,112.664708994709,142.58333333333334,112.66410052910054,145,112.66349206349207C147.41666666666666,112.6628835978836,149.83333333333334,112.66227513227513,152.25,112.66166666666666C154.66666666666666,112.6610582010582,157.08333333333334,112.66044973544973,159.5,112.65984126984127C161.91666666666666,112.6592328042328,164.33333333333334,112.65862433862434,166.75,112.65801587301587C169.16666666666666,112.6574074074074,171.58333333333334,112.65679894179894,174,112.65619047619047C176.41666666666666,112.65558201058201,178.83333333333334,112.65497354497354,181.25,112.65436507936508C183.66666666666666,112.65375661375661,186.08333333333334,112.65314814814815,188.5,112.65253968253968C190.91666666666666,112.65193121693122,193.33333333333334,112.65132275132275,195.75,112.65071428571429C198.16666666666669,112.65010582010582,200.58333333333334,112.64949735449736,203.00000000000003,112.64888888888889C205.41666666666669,112.64828042328043,207.83333333333331,112.64767195767195,210.24999999999997,112.64706349206348C212.66666666666666,112.64645502645502,215.08333333333331,112.64584656084656,217.5,112.6452380952381C219.91666666666666,112.64462962962963,222.33333333333334,112.64402116402117,224.75,112.6434126984127C227.16666666666666,112.64280423280424,229.58333333333334,112.64219576719577,232,112.64158730158731C234.41666666666666,112.64097883597884,236.83333333333334,112.64037037037038,239.25,112.63976190476191C241.66666666666669,112.63915343915345,244.08333333333334,112.63854497354498,246.50000000000003,112.63793650793652C248.91666666666669,112.63732804232805,251.33333333333331,112.63671957671957,253.74999999999997,112.6361111111111C256.16666666666663,112.63550264550264,258.5833333333333,112.63489417989418,261,112.63428571428571C263.4166666666667,112.63367724867724,265.8333333333333,112.63306878306878,268.25,112.63246031746031C270.6666666666667,112.63185185185185,273.0833333333333,112.63124338624338,275.5,112.63063492063492C277.9166666666667,112.63002645502645,280.3333333333333,112.62941798941799,282.75,112.62880952380952C285.1666666666667,112.62820105820106,287.5833333333333,112.62759259259259,290,112.62698412698413C292.4166666666667,112.62637566137566,294.8333333333333,112.6257671957672,297.25,112.62515873015873C299.6666666666667,112.62455026455027,302.0833333333333,112.6239417989418,304.5,112.62333333333333C306.9166666666667,112.62272486772487,309.3333333333333,112.6221164021164,311.75,112.62150793650794C314.1666666666667,112.62089947089947,316.5833333333333,112.62029100529101,319,112.61968253968254C321.4166666666667,112.61907407407408,323.8333333333333,112.61846560846561,326.25,112.61785714285715C328.6666666666667,112.61724867724868,331.0833333333333,112.61664021164022,333.5,112.61603174603175C335.9166666666667,112.61542328042329,338.3333333333333,112.61481481481482,340.75,112.61420634920636C343.1666666666667,112.61359788359789,345.5833333333333,112.61298941798943,348,112.61238095238096C350.4166666666667,112.6117724867725,352.8333333333333,112.61116402116402,355.25,112.61055555555555C357.6666666666667,112.60994708994708,360.0833333333333,112.60933862433862,362.5,112.60873015873015C364.9166666666667,112.60812169312169,367.3333333333333,112.60751322751322,369.75,112.60690476190476C372.1666666666667,112.60629629629629,374.5833333333333,112.60568783068783,377,112.60507936507936C379.4166666666667,112.6044708994709,381.8333333333333,112.60386243386243,384.25,112.60325396825397C386.6666666666667,112.6026455026455,389.0833333333333,112.60203703703704,391.5,112.60142857142857C393.9166666666667,112.6008201058201,396.33333333333337,112.60021164021164,398.75000000000006,112.59960317460317C401.16666666666674,112.59899470899471,403.58333333333337,112.59838624338624,406.00000000000006,112.59777777777778C408.4166666666667,112.59716931216931,410.8333333333333,112.59656084656085,413.24999999999994,112.59595238095238C415.66666666666663,112.59534391534392,418.08333333333326,112.59473544973545,420.49999999999994,112.59412698412699C422.91666666666663,112.59351851851852,425.3333333333333,112.59291005291006,427.75,112.59230158730159C430.1666666666667,112.59169312169313,432.5833333333333,112.59108465608466,435,112.5904761904762C437.4166666666667,112.58986772486773,439.8333333333333,112.58925925925926,442.25,112.5886507936508C444.6666666666667,112.58804232804233,447.0833333333333,112.58743386243385,449.5,112.58682539682539C451.9166666666667,112.58621693121692,454.3333333333333,112.58560846560846,456.75,112.585C459.1666666666667,112.58439153439153,461.5833333333333,112.58378306878306,464,112.5831746031746C466.4166666666667,112.58256613756613,468.8333333333333,112.58195767195767,471.25,112.5813492063492C473.6666666666667,112.58074074074074,476.0833333333333,112.58013227513227,478.5,112.5795238095238C480.9166666666667,112.57891534391534,483.33333333333337,112.57830687830689,485.75000000000006,112.57769841269842C488.16666666666674,112.57708994708996,490.58333333333337,112.57648148148148,493.00000000000006,112.57587301587301C495.4166666666667,112.57526455026455,497.8333333333333,112.57465608465608,500.24999999999994,112.57404761904762C502.66666666666663,112.57343915343915,505.08333333333326,112.57283068783069,507.49999999999994,112.57222222222222C509.91666666666663,112.57161375661376,512.3333333333333,112.57100529100529,514.75,112.57039682539683C517.1666666666666,112.56978835978836,519.5833333333334,112.5691798941799,522,112.56857142857143C524.4166666666666,112.56796296296297,526.8333333333334,112.5673544973545,529.25,112.56674603174604C531.6666666666666,112.56613756613757,534.0833333333334,112.5655291005291,536.5,112.56492063492064C538.9166666666666,112.56431216931217,541.3333333333334,112.5637037037037,543.75,112.56309523809523C546.1666666666666,112.56248677248676,548.5833333333334,112.5618783068783,551,112.56126984126983C553.4166666666666,112.56066137566137,555.8333333333334,112.5600529100529,558.25,112.55944444444444C560.6666666666666,112.55883597883597,563.0833333333334,112.55822751322751,565.5,112.55761904761904C567.9166666666666,112.55701058201058,570.3333333333334,112.55640211640211,572.75,112.55579365079365C575.1666666666666,112.55518518518518,577.5833333333334,112.55457671957673,580,112.55396825396826C582.4166666666666,112.5533597883598,584.8333333333334,112.55275132275133,587.25,112.55214285714287C589.6666666666666,112.5515343915344,592.0833333333334,112.55092592592592,594.5,112.55031746031746C596.9166666666666,112.549708994709,599.3333333333334,112.54910052910053,601.75,112.54849206349206C604.1666666666666,112.5478835978836,606.5833333333334,112.54727513227513,609,112.54666666666667C611.4166666666666,112.5460582010582,613.8333333333334,112.54544973544974,616.25,112.54484126984127C618.6666666666666,112.5442328042328,621.0833333333334,112.54362433862434,623.5,112.54301587301588C625.9166666666666,112.54240740740741,628.3333333333334,112.54179894179894,630.75,112.54119047619048C633.1666666666666,112.54058201058201,635.5833333333334,112.53997354497355,638,112.53936507936508C640.4166666666666,112.53875661375662,642.8333333333334,112.53814814814814,645.25,112.53753968253967C647.6666666666666,112.53693121693121,650.0833333333334,112.53693121693121,652.5,112.53571428571428C654.9166666666666,112.53449735449735,657.3333333333334,112.38636363636364,659.75,112.31168831168831C662.1666666666666,112.23701298701299,664.5833333333334,112.16233766233766,667,112.08766233766234C669.4166666666666,112.01298701298701,671.8333333333334,111.9383116883117,674.25,111.86363636363637C676.6666666666666,111.78896103896105,679.0833333333334,111.71428571428571,681.5,111.63961038961038C683.9166666666666,111.56493506493506,686.3333333333334,111.49025974025975,688.75,111.41558441558442C691.1666666666666,111.3409090909091,693.5833333333334,111.26623376623377,696,111.19155844155844C698.4166666666666,111.11688311688312,700.8333333333334,111.0422077922078,703.25,110.96753246753248C705.6666666666666,110.89285714285715,708.0833333333334,110.81818181818181,710.5,110.74350649350649C712.9166666666666,110.66883116883116,715.3333333333334,110.59415584415585,717.75,110.51948051948052C720.1666666666666,110.4448051948052,722.5833333333334,110.37012987012987,725,110.29545454545455C727.4166666666666,110.22077922077922,729.8333333333334,110.1461038961039,732.25,110.07142857142857C734.6666666666666,109.99675324675324,737.0833333333334,109.92207792207792,739.5,109.84740259740259C741.9166666666666,109.77272727272727,744.3333333333334,109.69805194805194,746.75,109.62337662337661C749.1666666666666,109.54870129870129,751.5833333333334,109.47402597402598,754,109.39935064935065C756.4166666666666,109.32467532467533,758.8333333333334,109.25,761.25,109.17532467532467C763.6666666666666,109.10064935064935,766.0833333333334,109.02597402597404,768.5,108.95129870129871C770.9166666666666,108.87662337662339,773.3333333333334,108.80194805194805,775.75,108.72727272727272C778.1666666666666,108.6525974025974,780.5833333333334,108.57792207792208,783,108.50324675324676C785.4166666666667,108.42857142857143,787.8333333333334,108.3538961038961,790.2500000000001,108.27922077922078C792.6666666666667,108.20454545454545,795.0833333333335,108.12987012987013,797.5000000000001,108.0551948051948C799.9166666666667,107.98051948051948,802.3333333333335,107.90584415584415,804.7500000000001,107.83116883116882C807.1666666666667,107.7564935064935,809.5833333333335,107.68181818181819,812.0000000000001,107.60714285714286C814.4166666666667,107.53246753246754,816.8333333333333,107.45779220779221,819.2499999999999,107.38311688311688C821.6666666666665,107.30844155844156,824.0833333333333,107.23376623376625,826.4999999999999,107.15909090909092C828.9166666666665,107.0844155844156,831.3333333333333,107.00974025974025,833.7499999999999,106.93506493506493C836.1666666666665,106.8603896103896,838.5833333333333,106.78571428571429,840.9999999999999,106.71103896103897C843.4166666666666,106.63636363636364,845.8333333333333,106.56168831168831,848.25,106.48701298701299C850.6666666666666,106.41233766233766,853.0833333333334,106.33766233766234,855.5,106.26298701298701C857.9166666666666,106.18831168831169,860.3333333333334,106.11363636363636,862.75,106.03896103896103C865.1666666666666,105.96428571428571,867.5833333333334,105.8896103896104,870,105.81493506493507C872.4166666666666,105.74025974025975,874.8333333333334,105.66558441558442,877.25,105.5909090909091C879.6666666666666,105.51623376623377,882.0833333333334,105.44155844155844,884.5,105.36688311688312C886.9166666666666,105.29220779220779,889.3333333333334,105.21753246753246,891.75,105.14285714285714C894.1666666666666,105.06818181818181,896.5833333333334,104.9935064935065,899,104.91883116883118C901.4166666666666,104.84415584415585,903.8333333333334,104.76948051948052,906.25,104.6948051948052C908.6666666666666,104.62012987012987,911.0833333333334,104.54545454545455,913.5,104.47077922077922C915.9166666666666,104.3961038961039,918.3333333333334,104.32142857142857,920.75,104.24675324675324C923.1666666666666,104.17207792207792,925.5833333333334,104.09740259740259,928,104.02272727272727C930.4166666666666,103.94805194805194,932.8333333333334,103.87337662337663,935.25,103.7987012987013C937.6666666666666,103.72402597402598,940.0833333333334,103.64935064935065,942.5,103.57467532467533C944.9166666666666,103.5,947.3333333333334,103.42532467532467,949.75,103.35064935064935C952.1666666666666,103.27597402597402,954.5833333333334,103.2012987012987,957,103.12662337662337C959.4166666666666,103.05194805194805,961.8333333333334,102.97727272727273,964.25,102.90259740259741C966.6666666666667,102.82792207792208,969.0833333333334,102.75324675324676,971.5000000000001,102.67857142857143C973.9166666666667,102.6038961038961,976.3333333333335,102.52922077922078,978.7500000000001,102.45454545454545C981.1666666666667,102.37987012987013,983.5833333333335,102.3051948051948,986.0000000000001,102.23051948051948C988.4166666666667,102.15584415584415,990.8333333333335,102.08116883116884,993.2500000000001,102.00649350649351C995.6666666666667,101.93181818181819,998.0833333333333,101.85714285714286,1000.4999999999999,101.78246753246754C1002.9166666666665,101.70779220779221,1005.3333333333333,101.63311688311688,1007.7499999999999,101.55844155844156C1010.1666666666665,101.48376623376623,1012.5833333333333,101.4090909090909,1014.9999999999999,101.33441558441558C1017.4166666666665,101.25974025974025,1019.8333333333333,101.18506493506494,1022.2499999999999,101.11038961038962C1024.6666666666665,101.03571428571429,1027.0833333333333,100.96103896103897,1029.5,100.88636363636364C1031.9166666666667,100.81168831168831,1034.3333333333333,100.73701298701299,1036.75,100.66233766233766C1039.1666666666667,100.58766233766234,1041.5833333333333,100.51298701298701,1044,100.43831168831169C1046.4166666666667,100.36363636363636,1048.8333333333333,100.28896103896105,1051.25,100.21428571428572C1053.6666666666667,100.1396103896104,1056.0833333333333,100.06493506493507,1058.5,99.99025974025975C1060.9166666666667,99.91558441558442,1063.3333333333333,99.8409090909091,1065.75,99.76623376623377C1068.1666666666667,99.69155844155844,1070.5833333333333,99.61688311688312,1073,99.54220779220779C1075.4166666666667,99.46753246753246,1077.8333333333333,99.39285714285714,1080.25,99.31818181818181C1082.6666666666667,99.24350649350649,1085.0833333333333,99.16883116883118,1087.5,99.09415584415585C1089.9166666666667,99.01948051948052,1092.3333333333333,98.94480519480518,1094.75,98.87012987012986C1097.1666666666667,98.79545454545453,1099.5833333333333,98.72077922077922,1102,98.6461038961039C1104.4166666666667,98.57142857142857,1106.8333333333333,98.49675324675324,1109.25,98.42207792207792C1111.6666666666667,98.34740259740259,1114.0833333333333,98.27272727272728,1116.5,98.19805194805195C1118.9166666666667,98.12337662337663,1121.3333333333333,98.0487012987013,1123.75,97.97402597402598C1126.1666666666667,97.89935064935065,1128.5833333333333,97.82467532467533,1131,97.75C1133.4166666666667,97.67532467532467,1135.8333333333333,97.60064935064935,1138.25,97.52597402597402C1140.6666666666667,97.4512987012987,1143.0833333333333,97.37662337662339,1145.5,97.30194805194806C1147.9166666666667,97.22727272727273,1150.3333333333333,97.1525974025974,1152.75,97.07792207792207C1155.1666666666667,97.00324675324674,1157.5833333333333,96.92857142857143,1160,96.8538961038961C1162.4166666666667,96.77922077922078,1164.8333333333333,96.70454545454545,1167.25,96.62987012987013C1169.6666666666667,96.5551948051948,1172.0833333333333,96.48051948051949,1174.5,96.40584415584416C1176.9166666666667,96.33116883116884,1179.3333333333333,96.25649350649351,1181.75,96.18181818181819C1184.1666666666667,96.10714285714286,1186.5833333333333,96.03246753246754,1189,95.95779220779221C1191.4166666666667,95.88311688311688,1193.8333333333333,95.80844155844156,1196.25,95.73376623376623C1198.6666666666667,95.6590909090909,1201.0833333333333,95.5844155844156,1203.5,95.50974025974027C1205.9166666666667,95.43506493506494,1208.3333333333333,95.3603896103896,1210.75,95.28571428571428C1213.1666666666667,95.21103896103895,1215.5833333333333,95.13636363636364,1218,95.06168831168831C1220.4166666666667,94.98701298701299,1222.8333333333333,94.91233766233766,1225.25,94.83766233766234C1227.6666666666667,94.76298701298701,1230.0833333333333,94.68831168831169,1232.5,94.61363636363636C1234.9166666666667,94.53896103896103,1237.3333333333333,94.46428571428571,1239.75,94.38961038961038C1242.1666666666667,94.31493506493506,1244.5833333333333,94.24025974025973,1247,94.1655844155844C1249.4166666666667,94.09090909090908,1251.8333333333333,94.01623376623377,1254.25,93.94155844155844C1256.6666666666667,93.86688311688312,1259.0833333333333,93.79220779220779,1261.5,93.71753246753246C1263.9166666666667,93.64285714285714,1266.3333333333333,93.56818181818181,1268.75,93.49350649350649C1271.1666666666667,93.41883116883116,1273.5833333333333,93.34415584415584,1276,93.26948051948051C1278.4166666666667,93.19480519480518,1280.8333333333333,93.12012987012987,1283.25,93.04545454545455C1285.6666666666667,92.97077922077922,1288.0833333333333,92.8961038961039,1290.5,92.82142857142857C1292.9166666666667,92.74675324675324,1295.3333333333333,92.67207792207793,1297.75,92.5974025974026C1300.1666666666667,92.52272727272728,1302.5833333333333,92.44805194805195,1305,92.37337662337663C1307.4166666666667,92.2987012987013,1309.8333333333333,92.22402597402598,1312.25,92.14935064935065C1314.6666666666667,92.07467532467533,1317.0833333333333,92,1319.5,91.92532467532467C1321.9166666666667,91.85064935064935,1324.3333333333333,91.77597402597404,1326.75,91.70129870129871C1329.1666666666667,91.62662337662339,1331.5833333333333,91.55194805194805,1334,91.47727272727272C1336.4166666666667,91.4025974025974,1338.8333333333333,91.32792207792208,1341.25,91.25324675324676C1343.6666666666667,91.17857142857143,1346.0833333333333,91.1038961038961,1348.5,91.02922077922078C1350.9166666666667,90.95454545454545,1353.3333333333333,90.87987012987014,1355.75,90.80519480519482C1358.1666666666667,90.73051948051949,1360.5833333333333,90.65584415584416,1363,90.58116883116884C1365.4166666666667,90.50649350649351,1367.8333333333333,90.43181818181819,1370.25,90.35714285714286C1372.6666666666667,90.28246753246754,1375.0833333333333,90.20779220779221,1377.5,90.13311688311688C1379.9166666666667,90.05844155844156,1382.3333333333333,89.98376623376623,1384.75,89.9090909090909C1387.1666666666667,89.83441558441558,1389.5833333333333,89.75974025974025,1392,89.68506493506493C1394.4166666666667,89.6103896103896,1396.8333333333333,89.53571428571428,1399.25,89.46103896103895C1401.6666666666667,89.38636363636363,1404.0833333333333,89.31168831168831,1406.5,89.23701298701299C1408.9166666666667,89.16233766233766,1411.3333333333333,89.08766233766234,1413.75,89.01298701298701C1416.1666666666667,88.93831168831169,1418.5833333333333,88.86363636363637,1421,88.78896103896105C1423.4166666666667,88.71428571428572,1425.8333333333333,88.63961038961038,1428.25,88.56493506493506C1430.6666666666667,88.49025974025973,1433.0833333333333,88.41558441558442,1435.5,88.3409090909091C1437.9166666666667,88.26623376623377,1440.3333333333333,88.19155844155843,1442.75,88.1168831168831C1445.1666666666667,88.04220779220778,1447.5833333333333,87.96753246753246,1450,87.89285714285714" fill="transparent" stroke-linecap="round" stroke="#E7C6DF" stroke-width="2"></path><g class="visx-group visx-axis visx-axis-bottom" transform="translate(0, 115)"><g class="visx-group visx-axis-tick" transform="translate(0, 0)"><line class="visx-line" x1="0" y1="0" x2="0" y2="8" fill="transparent" shape-rendering="crispEdges" stroke="#000" stroke-width="0" stroke-linecap="square"></line><svg x="0" y="0" font-size="10" style="overflow:visible"><text transform="" x="0" y="18" fill="#000" font-size="10" text-anchor="middle"><tspan x="0" dy="0em">0%</tspan></text></svg></g><g class="visx-group visx-axis-tick" transform="translate(0, 0)"><line class="visx-line" x1="362.5" y1="0" x2="362.5" y2="8" fill="transparent" shape-rendering="crispEdges" stroke="#000" stroke-width="0" stroke-linecap="square"></line><svg x="0" y="0" font-size="10" style="overflow:visible"><text transform="" x="362.5" y="18" fill="#000" font-size="10" text-anchor="middle"><tspan x="362.5" dy="0em">25%</tspan></text></svg></g><g class="visx-group visx-axis-tick" transform="translate(0, 0)"><line class="visx-line" x1="725" y1="0" x2="725" y2="8" fill="transparent" shape-rendering="crispEdges" stroke="#000" stroke-width="0" stroke-linecap="square"></line><svg x="0" y="0" font-size="10" style="overflow:visible"><text transform="" x="725" y="18" fill="#000" font-size="10" text-anchor="middle"><tspan x="725" dy="0em">50%</tspan></text></svg></g><g class="visx-group visx-axis-tick" transform="translate(0, 0)"><line class="visx-line" x1="1087.5" y1="0" x2="1087.5" y2="8" fill="transparent" shape-rendering="crispEdges" stroke="#000" stroke-width="0" stroke-linecap="square"></line><svg x="0" y="0" font-size="10" style="overflow:visible"><text transform="" x="1087.5" y="18" fill="#000" font-size="10" text-anchor="middle"><tspan x="1087.5" dy="0em">75%</tspan></text></svg></g><g class="visx-group visx-axis-tick" transform="translate(0, 0)"><line class="visx-line" x1="1450" y1="0" x2="1450" y2="8" fill="transparent" shape-rendering="crispEdges" stroke="#000" stroke-width="0" stroke-linecap="square"></line><svg x="0" y="0" font-size="10" style="overflow:visible"><text transform="" x="1450" y="18" fill="#000" font-size="10" text-anchor="middle"><tspan x="1450" dy="0em">100%</tspan></text></svg></g><line class="visx-line visx-axis-line" x1="0.5" y1="0" x2="1450.5" y2="0" fill="transparent" shape-rendering="crispEdges" stroke="#222" stroke-width="0"></line></g><g class="visx-group visx-axis visx-axis-left" transform="translate(0, 0)"><g class="visx-group visx-axis-tick" transform="translate(0, 0)"><line class="visx-line" x1="0" y1="115" x2="-8" y2="115" fill="transparent" shape-rendering="crispEdges" stroke="#222" stroke-width="0" stroke-linecap="square"></line><svg x="-30" y="0" font-size="8" style="overflow:visible"><text transform="" x="-8" y="115" fill="#000" font-size="8" text-anchor="start"><tspan x="-8" dy="0em">0%</tspan></text></svg></g><g class="visx-group visx-axis-tick" transform="translate(0, 0)"><line class="visx-line" x1="0" y1="49.28571428571429" x2="-8" y2="49.28571428571429" fill="transparent" shape-rendering="crispEdges" stroke="#222" stroke-width="0" stroke-linecap="square"></line><svg x="-30" y="0" font-size="8" style="overflow:visible"><text transform="" x="-8" y="49.28571428571429" fill="#000" font-size="8" text-anchor="start"><tspan x="-8" dy="0em">200%</tspan></text></svg></g><line class="visx-line visx-axis-line" x1="0" y1="115.5" x2="0" y2="0.5" fill="transparent" shape-rendering="crispEdges" stroke="#222" stroke-width="0"></line></g><rect class="visx-bar" width="1450" height="115" fill="transparent"></rect><line class="visx-line" x1="652.5" y1="28" x2="652.5" y2="115" fill="transparent" shape-rendering="crispEdges" stroke="#0062D2" stroke-width="1" pointer-events="none" stroke-dasharray="5,2"></line><svg x="0" y="0" font-size="10px" style="overflow:visible"><text transform="" x="652.5" y="20" font-size="10px" fill="#fff" stroke="#fff" stroke-width="0.8em" text-anchor="middle"><tspan x="652.5" dy="0.355em">Optimal 45%</tspan></text></svg><svg x="0" y="0" font-size="10px" style="overflow:visible"><text transform="" x="652.5" y="20" font-size="10px" fill="#62677B" text-anchor="middle"><tspan x="652.5" dy="0.355em">Optimal 45%</tspan></text></svg></g></svg>