<?xml version="1.0"?><svg xmlns="http://www.w3.org/2000/svg" xmlns:xlink= "http://www.w3.org/1999/xlink" style="background: white;" width="1500" height="300"> <g style="color: black; font-size: 13px; font-family: sans-serif; transform: translate(18px, 25px);"><g><circle r="3" cx="-6" cy="-5" style="fill: #1AD4B3" /><text>Borrow APR, variable</text></g><g style="transform: translateX(150px);"><circle r="3" cx="-6" cy="-5" style="fill: #101423" /><text>Borrow APR, stable</text></g></g><g class="visx-group" transform="translate(45, 50)"><g class="visx-group visx-rows" transform="translate(0, 0)"><line class="visx-line" x1="0" y1="155" x2="1425" y2="155" fill="transparent" shape-rendering="crispEdges" stroke="#F2F0F9" stroke-width="1" pointer-events="none"></line><line class="visx-line" x1="0" y1="120.55555555555556" x2="1425" y2="120.55555555555556" fill="transparent" shape-rendering="crispEdges" stroke="#F2F0F9" stroke-width="1" pointer-events="none"></line><line class="visx-line" x1="0" y1="86.11111111111111" x2="1425" y2="86.11111111111111" fill="transparent" shape-rendering="crispEdges" stroke="#F2F0F9" stroke-width="1" pointer-events="none"></line><line class="visx-line" x1="0" y1="51.66666666666667" x2="1425" y2="51.66666666666667" fill="transparent" shape-rendering="crispEdges" stroke="#F2F0F9" stroke-width="1" pointer-events="none"></line><line class="visx-line" x1="0" y1="17.22222222222223" x2="1425" y2="17.22222222222223" fill="transparent" shape-rendering="crispEdges" stroke="#F2F0F9" stroke-width="1" pointer-events="none"></line></g><path class="visx-linepath" d="M0,154.99999999975122C2.375,154.95853909450508,4.75,154.91707818925894,7.125,154.87561728395062C9.5,154.8341563786423,11.875,154.79269547325103,14.25,154.75123456790124C16.625,154.70977366255144,19,154.66831275720165,21.375,154.62685185185185C23.75,154.58539094650206,26.125,154.54393004115227,28.5,154.50246913580247C30.875,154.46100823045268,33.25,154.41954732510288,35.625,154.3780864197531C38,154.3366255144033,40.375,154.2951646090535,42.75,154.2537037037037C45.125,154.2122427983539,47.50000000000001,154.17078189300412,49.87500000000001,154.12932098765432C52.25000000000001,154.08786008230453,54.625,154.04639917695474,57,154.00493827160494C59.375,153.96347736625515,61.75,153.92201646090535,64.125,153.88055555555556C66.5,153.83909465020577,68.875,153.79763374485597,71.25,153.75617283950618C73.625,153.71471193415638,76,153.6732510288066,78.375,153.6317901234568C80.75,153.590329218107,83.125,153.5488683127572,85.5,153.5074074074074C87.875,153.46594650205762,90.25,153.42448559670783,92.625,153.38302469135803C95,153.34156378600824,97.37500000000001,153.30010288065844,99.75000000000001,153.25864197530865C102.12500000000001,153.21718106995885,104.5,153.17572016460906,106.875,153.13425925925927C109.25,153.09279835390947,111.625,153.05133744855968,114,153.00987654320988C116.375,152.9684156378601,118.75000000000001,152.9269547325103,121.12500000000001,152.8854938271605C123.50000000000001,152.8440329218107,125.875,152.80257201646089,128.25,152.7611111111111C130.625,152.7196502057613,133,152.67818930041153,135.375,152.63672839506174C137.75,152.59526748971194,140.125,152.55380658436215,142.5,152.51234567901236C144.875,152.47088477366256,147.25,152.42942386831274,149.625,152.38796296296294C152,152.34650205761315,154.375,152.30504115226339,156.75,152.2635802469136C159.125,152.2221193415638,161.5,152.180658436214,163.875,152.1391975308642C166.25,152.09773662551441,168.625,152.0562757201646,171,152.0148148148148C173.375,151.973353909465,175.75,151.93189300411524,178.125,151.89043209876544C180.5,151.84897119341565,182.875,151.80751028806583,185.25,151.76604938271603C187.625,151.72458847736624,190,151.68312757201645,192.375,151.64166666666665C194.75,151.60020576131686,197.12500000000003,151.5587448559671,199.50000000000003,151.5172839506173C201.875,151.4758230452675,204.25,151.43436213991768,206.62499999999997,151.3929012345679C208.99999999999997,151.3514403292181,211.375,151.30997942386833,213.75,151.26851851851853C216.125,151.22705761316874,218.5,151.18559670781895,220.875,151.14413580246915C223.25,151.10267489711936,225.625,151.06121399176953,228,151.01975308641974C230.375,150.97829218106995,232.75,150.93683127572018,235.125,150.8953703703704C237.5,150.8539094650206,239.87500000000003,150.81244855967077,242.25000000000003,150.77098765432098C244.625,150.72952674897118,247,150.6880658436214,249.37499999999997,150.6466049382716C251.74999999999997,150.6051440329218,254.125,150.56368312757203,256.5,150.52222222222224C258.875,150.48076131687245,261.25,150.43930041152262,263.625,150.39783950617283C266,150.35637860082304,268.375,150.31491769547324,270.75,150.27345679012345C273.125,150.23199588477365,275.5,150.19053497942386,277.875,150.14907407407406C280.25,150.10761316872427,282.625,150.06615226337448,285,150.02469135802468C287.375,149.9832304526749,289.75,149.9417695473251,292.125,149.9003086419753C294.5,149.8588477366255,296.875,149.8173868312757,299.25,149.77592592592592C301.625,149.73446502057612,304,149.69300411522633,306.375,149.65154320987654C308.75,149.61008230452674,311.125,149.56862139917695,313.5,149.52716049382715C315.875,149.48569958847736,318.25,149.44423868312757,320.625,149.40277777777777C323,149.36131687242798,325.375,149.31985596707818,327.75,149.2783950617284C330.125,149.2369341563786,332.5,149.1954732510288,334.875,149.154012345679C337.25,149.1125514403292,339.625,149.07109053497942,342,149.02962962962962C344.375,148.98816872427983,346.75,148.94670781893004,349.125,148.90524691358024C351.5,148.86378600823045,353.875,148.82232510288065,356.25,148.78086419753086C358.625,148.73940329218107,361,148.69794238683127,363.375,148.65648148148148C365.75,148.61502057613168,368.125,148.5735596707819,370.5,148.5320987654321C372.875,148.4906378600823,375.25,148.4491769547325,377.625,148.4077160493827C380,148.36625514403292,382.375,148.32479423868313,384.75,148.28333333333333C387.125,148.24187242798354,389.50000000000006,148.20041152263374,391.87500000000006,148.15895061728395C394.25000000000006,148.11748971193416,396.62500000000006,148.07602880658436,399.00000000000006,148.03456790123457C401.375,147.99310699588477,403.75,147.95164609053498,406.12499999999994,147.91018518518518C408.49999999999994,147.8687242798354,410.87499999999994,147.8272633744856,413.24999999999994,147.7858024691358C415.62499999999994,147.744341563786,418,147.70288065843621,420.375,147.66141975308642C422.75,147.61995884773663,425.125,147.57849794238683,427.5,147.53703703703704C429.875,147.49557613168724,432.25,147.45411522633745,434.625,147.41265432098766C437,147.37119341563786,439.375,147.32973251028807,441.75,147.28827160493827C444.125,147.24681069958848,446.5,147.20534979423869,448.875,147.1638888888889C451.25,147.1224279835391,453.625,147.0809670781893,456,147.0395061728395C458.375,146.99804526748972,460.75,146.95658436213992,463.125,146.91512345679013C465.5,146.87366255144033,467.875,146.83220164609054,470.25,146.79074074074074C472.625,146.74927983539095,475.00000000000006,146.70781893004116,477.37500000000006,146.66635802469136C479.75000000000006,146.62489711934157,482.12500000000006,146.58343621399177,484.50000000000006,146.54197530864198C486.875,146.5005144032922,489.25,146.4590534979424,491.62499999999994,146.4175925925926C493.99999999999994,146.3761316872428,496.37499999999994,146.334670781893,498.74999999999994,146.29320987654322C501.12499999999994,146.25174897119342,503.5,146.21028806584363,505.875,146.16882716049383C508.25,146.12736625514404,510.625,146.08590534979425,513,146.04444444444445C515.375,146.00298353909466,517.75,145.96152263374486,520.125,145.92006172839507C522.5,145.87860082304528,524.875,145.83713991769548,527.25,145.7956790123457C529.625,145.7542181069959,532,145.71275720164607,534.375,145.67129629629628C536.75,145.62983539094648,539.125,145.58837448559672,541.5,145.54691358024692C543.875,145.50545267489713,546.25,145.46399176954733,548.625,145.42253086419754C551,145.38106995884775,553.375,145.33960905349795,555.75,145.29814814814816C558.125,145.25668724279836,560.5,145.21522633744857,562.875,145.17376543209878C565.25,145.13230452674898,567.625,145.0908436213992,570,145.0493827160494C572.375,145.0079218106996,574.75,144.9664609053498,577.125,144.925C579.5,144.88353909465022,581.875,144.84207818930042,584.25,144.80061728395063C586.625,144.75915637860084,589,144.717695473251,591.375,144.67623456790122C593.75,144.63477366255142,596.125,144.59331275720166,598.5,144.55185185185186C600.875,144.51039094650207,603.25,144.46893004115228,605.625,144.42746913580248C608,144.3860082304527,610.375,144.34454732510287,612.75,144.30308641975307C615.125,144.26162551440328,617.5,144.2201646090535,619.875,144.17870370370372C622.25,144.13724279835392,624.625,144.0957818930041,627,144.0543209876543C629.375,144.0128600823045,631.75,143.97139917695472,634.125,143.92993827160493C636.5,143.88847736625513,638.875,143.84701646090537,641.25,143.80555555555557C643.625,143.76409465020578,646,143.72263374485595,648.375,143.68117283950616C650.75,143.63971193415637,653.125,143.59825102880657,655.5,143.55679012345678C657.875,143.51532921810698,660.25,143.47386831275722,662.625,143.43240740740742C665,143.39094650205763,667.375,143.3494855967078,669.75,143.308024691358C672.125,143.26656378600822,674.5,143.22510288065843,676.875,143.18364197530863C679.25,143.14218106995884,681.625,143.10072016460904,684,143.05925925925925C686.375,143.01779835390946,688.75,142.97633744855966,691.125,142.93487654320987C693.5,142.89341563786007,695.875,142.85195473251028,698.25,142.81049382716049C700.625,142.7690329218107,703,142.7275720164609,705.375,142.6861111111111C707.75,142.6446502057613,710.125,142.60318930041151,712.5,142.56172839506172C714.875,142.52026748971193,717.25,142.47880658436213,719.625,142.43734567901234C722,142.39588477366254,724.375,142.35442386831275,726.75,142.31296296296296C729.125,142.27150205761316,731.5,142.23004115226337,733.875,142.18858024691357C736.25,142.14711934156378,738.625,142.105658436214,741,142.0641975308642C743.375,142.0227366255144,745.75,141.9812757201646,748.125,141.9398148148148C750.5,141.89835390946502,752.875,141.85689300411522,755.25,141.81543209876543C757.625,141.77397119341563,760,141.73251028806584,762.375,141.69104938271605C764.75,141.64958847736625,767.125,141.60812757201646,769.5,141.56666666666666C771.875,141.52520576131687,774.2500000000001,141.48374485596707,776.6250000000001,141.44228395061728C779.0000000000001,141.4008230452675,781.3750000000001,141.3593621399177,783.7500000000001,141.3179012345679C786.1250000000001,141.2764403292181,788.5000000000001,141.2349794238683,790.8750000000001,141.19351851851852C793.2500000000001,141.15205761316872,795.6250000000001,141.11059670781893,798.0000000000001,141.06913580246913C800.375,141.02767489711934,802.75,140.98621399176955,805.1249999999999,140.94475308641975C807.4999999999999,140.90329218106996,809.8749999999999,140.86183127572016,812.2499999999999,140.82037037037037C814.6249999999999,140.77890946502058,816.9999999999999,140.73744855967078,819.3749999999999,140.695987654321C821.7499999999999,140.6545267489712,824.1249999999999,140.6130658436214,826.4999999999999,140.5716049382716C828.8749999999999,140.5301440329218,831.25,140.48868312757202,833.625,140.44722222222222C836,140.40576131687243,838.375,140.36430041152263,840.75,140.32283950617284C843.125,140.28137860082305,845.5,140.23991769547325,847.875,140.19845679012346C850.25,140.15699588477366,852.625,140.11553497942387,855,140.07407407407408C857.375,140.03261316872428,859.75,139.9911522633745,862.125,139.9496913580247C864.5,139.9082304526749,866.875,139.8667695473251,869.25,139.8253086419753C871.625,139.78384773662552,874,139.74238683127572,876.375,139.70092592592593C878.75,139.65946502057614,881.125,139.61800411522634,883.5,139.57654320987655C885.875,139.53508230452675,888.25,139.49362139917696,890.625,139.45216049382717C893,139.41069958847737,895.375,139.36923868312758,897.75,139.32777777777778C900.125,139.286316872428,902.5,139.2448559670782,904.875,139.2033950617284C907.25,139.1619341563786,909.625,139.1204732510288,912,139.07901234567902C914.375,139.03755144032922,916.75,138.99609053497943,919.125,138.95462962962964C921.5,138.91316872427984,923.875,138.87170781893005,926.25,138.83024691358025C928.625,138.78878600823046,931,138.74732510288067,933.375,138.70586419753087C935.75,138.66440329218108,938.125,138.62294238683126,940.5,138.58148148148146C942.875,138.54002057613167,945.25,138.4985596707819,947.625,138.4570987654321C950,138.4156378600823,952.3750000000001,138.37417695473252,954.7500000000001,138.33271604938273C957.1250000000001,138.29125514403293,959.5000000000001,138.2497942386831,961.8750000000001,138.20833333333331C964.2500000000001,138.16687242798352,966.6250000000001,138.12541152263375,969.0000000000001,138.08395061728396C971.3750000000001,138.04248971193417,973.7500000000001,138.00102880658434,976.1250000000001,137.95956790123455C978.5,137.91810699588476,980.875,137.876646090535,983.2499999999999,137.8351851851852C985.6249999999999,137.7937242798354,987.9999999999999,137.7522633744856,990.3749999999999,137.7108024691358C992.7499999999999,137.66934156378602,995.1249999999999,137.6278806584362,997.4999999999999,137.5864197530864C999.8749999999999,137.5449588477366,1002.2499999999999,137.50349794238684,1004.6249999999999,137.46203703703705C1006.9999999999999,137.42057613168726,1009.375,137.37911522633746,1011.75,137.33765432098767C1014.125,137.29619341563787,1016.5,137.25473251028805,1018.875,137.21327160493826C1021.25,137.17181069958846,1023.625,137.1303497942387,1026,137.0888888888889C1028.375,137.0474279835391,1030.75,137.0059670781893,1033.125,136.9645061728395C1035.5,136.9230452674897,1037.875,136.8815843621399,1040.25,136.8401234567901C1042.625,136.79866255144032,1045,136.75720164609055,1047.375,136.71574074074076C1049.75,136.67427983539096,1052.125,136.63281893004114,1054.5,136.59135802469135C1056.875,136.54989711934155,1059.25,136.50843621399179,1061.625,136.466975308642C1064,136.4255144032922,1066.375,136.3840534979424,1068.75,136.3425925925926C1071.125,136.30113168724282,1073.5,136.259670781893,1075.875,136.2182098765432C1078.25,136.1767489711934,1080.625,136.13528806584364,1083,136.09382716049384C1085.375,136.05236625514405,1087.75,136.01090534979423,1090.125,135.96944444444443C1092.5,135.92798353909464,1094.875,135.88652263374485,1097.25,135.84506172839505C1099.625,135.80360082304526,1102,135.7621399176955,1104.375,135.7206790123457C1106.75,135.6792181069959,1109.125,135.63775720164608,1111.5,135.5962962962963C1113.875,135.5548353909465,1116.25,135.5133744855967,1118.625,135.4719135802469C1121,135.4304526748971,1123.375,135.38899176954732,1125.75,135.34753086419752C1128.125,135.30606995884773,1130.5,135.26460905349794,1132.875,135.22314814814814C1135.25,135.18168724279835,1137.625,135.14022633744855,1140,135.09876543209876C1142.375,135.05730452674896,1144.75,135.01584362139917,1147.125,134.97438271604938C1149.5,134.93292181069958,1151.875,134.8914609053498,1154.25,134.85C1156.625,134.8085390946502,1159,134.7670781893004,1161.375,134.7256172839506C1163.75,134.68415637860082,1166.125,134.64269547325102,1168.5,134.60123456790123C1170.875,134.55977366255144,1173.25,134.51831275720164,1175.625,134.47685185185185C1178,134.43539094650205,1180.375,134.39393004115226,1182.75,134.35246913580247C1185.125,134.31100823045267,1187.5,134.26954732510288,1189.875,134.22808641975308C1192.25,134.1866255144033,1194.625,134.1451646090535,1197,134.1037037037037C1199.375,134.0622427983539,1201.75,134.0207818930041,1204.125,133.97932098765432C1206.5,133.93786008230452,1208.875,133.89639917695473,1211.25,133.85493827160494C1213.625,133.81347736625514,1216,133.77201646090535,1218.375,133.73055555555555C1220.75,133.68909465020576,1223.125,133.64763374485597,1225.5,133.60617283950617C1227.875,133.56471193415638,1230.25,133.52325102880658,1232.625,133.4817901234568C1235,133.440329218107,1237.375,133.3988683127572,1239.75,133.3574074074074C1242.125,133.3159465020576,1244.5,133.27448559670782,1246.875,133.23302469135803C1249.25,133.19156378600823,1251.625,133.15010288065844,1254,133.10864197530864C1256.375,133.06718106995885,1258.75,133.02572016460906,1261.125,132.98425925925926C1263.5,132.94279835390947,1265.875,132.90133744855967,1268.25,132.85987654320988C1270.625,132.81841563786008,1273,132.7769547325103,1275.375,132.7354938271605C1277.75,132.6940329218107,1280.125,132.6940329218107,1282.5,132.61111111111111C1284.875,132.52818930041153,1287.25,128.87962962962962,1289.625,127.01388888888889C1292,125.14814814814815,1294.375,123.28240740740742,1296.75,121.41666666666667C1299.125,119.55092592592592,1301.5,117.68518518518519,1303.875,115.81944444444444C1306.25,113.9537037037037,1308.625,112.08796296296296,1311,110.22222222222223C1313.375,108.3564814814815,1315.75,106.49074074074075,1318.125,104.625C1320.5,102.75925925925925,1322.875,100.8935185185185,1325.25,99.02777777777777C1327.625,97.16203703703704,1330,95.2962962962963,1332.375,93.43055555555557C1334.75,91.56481481481484,1337.125,89.69907407407408,1339.5,87.83333333333333C1341.875,85.96759259259258,1344.25,84.10185185185185,1346.625,82.23611111111111C1349,80.37037037037038,1351.375,78.50462962962962,1353.75,76.63888888888889C1356.125,74.77314814814815,1358.5,72.9074074074074,1360.875,71.04166666666667C1363.25,69.17592592592594,1365.625,67.3101851851852,1368,65.44444444444446C1370.375,63.57870370370372,1372.75,61.712962962962955,1375.125,59.847222222222214C1377.5,57.981481481481474,1379.875,56.11574074074074,1382.25,54.25C1384.625,52.38425925925926,1387,50.5185185185185,1389.375,48.65277777777776C1391.75,46.78703703703702,1394.125,44.92129629629629,1396.5,43.05555555555556C1398.875,41.189814814814824,1401.25,39.324074074074076,1403.625,37.458333333333336C1406,35.592592592592595,1408.375,33.72685185185186,1410.75,31.861111111111118C1413.125,29.995370370370374,1415.5,28.129629629629626,1417.875,26.263888888888882C1420.25,24.398148148148138,1422.625,22.5324074074074,1425,20.66666666666666" fill="transparent" stroke-linecap="round" stroke="#1AD4B3" stroke-width="2"></path><g class="visx-group visx-axis visx-axis-bottom" transform="translate(0, 155)"><g class="visx-group visx-axis-tick" transform="translate(0, 0)"><line class="visx-line" x1="0" y1="0" x2="0" y2="8" fill="transparent" shape-rendering="crispEdges" stroke="#F2F0F9" stroke-width="1" stroke-linecap="square"></line><svg x="0" y="0" font-size="11" style="overflow:visible"><text transform="" x="0" y="19" fill="#1B2030" font-size="11" text-anchor="middle"><tspan x="0" dy="0em">0%</tspan></text></svg></g><g class="visx-group visx-axis-tick" transform="translate(0, 0)"><line class="visx-line" x1="356.25" y1="0" x2="356.25" y2="8" fill="transparent" shape-rendering="crispEdges" stroke="#F2F0F9" stroke-width="1" stroke-linecap="square"></line><svg x="0" y="0" font-size="11" style="overflow:visible"><text transform="" x="356.25" y="19" fill="#1B2030" font-size="11" text-anchor="middle"><tspan x="356.25" dy="0em">25%</tspan></text></svg></g><g class="visx-group visx-axis-tick" transform="translate(0, 0)"><line class="visx-line" x1="712.5" y1="0" x2="712.5" y2="8" fill="transparent" shape-rendering="crispEdges" stroke="#F2F0F9" stroke-width="1" stroke-linecap="square"></line><svg x="0" y="0" font-size="11" style="overflow:visible"><text transform="" x="712.5" y="19" fill="#1B2030" font-size="11" text-anchor="middle"><tspan x="712.5" dy="0em">50%</tspan></text></svg></g><g class="visx-group visx-axis-tick" transform="translate(0, 0)"><line class="visx-line" x1="1068.75" y1="0" x2="1068.75" y2="8" fill="transparent" shape-rendering="crispEdges" stroke="#F2F0F9" stroke-width="1" stroke-linecap="square"></line><svg x="0" y="0" font-size="11" style="overflow:visible"><text transform="" x="1068.75" y="19" fill="#1B2030" font-size="11" text-anchor="middle"><tspan x="1068.75" dy="0em">75%</tspan></text></svg></g><g class="visx-group visx-axis-tick" transform="translate(0, 0)"><line class="visx-line" x1="1425" y1="0" x2="1425" y2="8" fill="transparent" shape-rendering="crispEdges" stroke="#F2F0F9" stroke-width="1" stroke-linecap="square"></line><svg x="0" y="0" font-size="11" style="overflow:visible"><text transform="" x="1425" y="19" fill="#1B2030" font-size="11" text-anchor="middle"><tspan x="1425" dy="0em">100%</tspan></text></svg></g></g><g class="visx-group visx-axis visx-axis-left" transform="translate(0, 0)"><g class="visx-group visx-axis-tick" transform="translate(0, 0)"><line class="visx-line" x1="0" y1="155" x2="-8" y2="155" fill="transparent" shape-rendering="crispEdges" stroke="#F2F0F9" stroke-width="1" stroke-linecap="square"></line><svg x="-30" y="0" font-size="11" style="overflow:visible"><text transform="" x="-8" y="155" fill="#1B2030" font-size="11" text-anchor="start"><tspan x="-8" dy="0em">0%</tspan></text></svg></g><g class="visx-group visx-axis-tick" transform="translate(0, 0)"><line class="visx-line" x1="0" y1="120.55555555555556" x2="-8" y2="120.55555555555556" fill="transparent" shape-rendering="crispEdges" stroke="#F2F0F9" stroke-width="1" stroke-linecap="square"></line><svg x="-30" y="0" font-size="11" style="overflow:visible"><text transform="" x="-8" y="120.55555555555556" fill="#1B2030" font-size="11" text-anchor="start"><tspan x="-8" dy="0em">20%</tspan></text></svg></g><g class="visx-group visx-axis-tick" transform="translate(0, 0)"><line class="visx-line" x1="0" y1="86.11111111111111" x2="-8" y2="86.11111111111111" fill="transparent" shape-rendering="crispEdges" stroke="#F2F0F9" stroke-width="1" stroke-linecap="square"></line><svg x="-30" y="0" font-size="11" style="overflow:visible"><text transform="" x="-8" y="86.11111111111111" fill="#1B2030" font-size="11" text-anchor="start"><tspan x="-8" dy="0em">40%</tspan></text></svg></g><g class="visx-group visx-axis-tick" transform="translate(0, 0)"><line class="visx-line" x1="0" y1="51.66666666666667" x2="-8" y2="51.66666666666667" fill="transparent" shape-rendering="crispEdges" stroke="#F2F0F9" stroke-width="1" stroke-linecap="square"></line><svg x="-30" y="0" font-size="11" style="overflow:visible"><text transform="" x="-8" y="51.66666666666667" fill="#1B2030" font-size="11" text-anchor="start"><tspan x="-8" dy="0em">60%</tspan></text></svg></g><g class="visx-group visx-axis-tick" transform="translate(0, 0)"><line class="visx-line" x1="0" y1="17.22222222222223" x2="-8" y2="17.22222222222223" fill="transparent" shape-rendering="crispEdges" stroke="#F2F0F9" stroke-width="1" stroke-linecap="square"></line><svg x="-30" y="0" font-size="11" style="overflow:visible"><text transform="" x="-8" y="17.22222222222223" fill="#1B2030" font-size="11" text-anchor="start"><tspan x="-8" dy="0em">80%</tspan></text></svg></g><line class="visx-line visx-axis-line" x1="0" y1="155.5" x2="0" y2="0.5" fill="transparent" shape-rendering="crispEdges" stroke="#F2F0F9" stroke-width="1"></line></g><rect class="visx-bar" width="1425" height="155" fill="transparent"></rect><line class="visx-line" x1="1282.5" y1="58" x2="1282.5" y2="155" fill="transparent" shape-rendering="crispEdges" stroke="#CDC8E1" stroke-width="1" pointer-events="none" stroke-dasharray="5"></line><svg x="0" y="0" font-size="11px" style="overflow:visible"><text transform="" x="1282.5" y="50" font-size="11px" fill="#555069" stroke="#FFFFFF" stroke-width="1px" text-anchor="middle"><tspan x="1282.5" dy="0.355em">uOptimal 90%</tspan></text></svg><svg x="0" y="0" font-size="11px" style="overflow:visible"><text transform="" x="1282.5" y="50" font-size="11px" fill="#CDC8E1" text-anchor="middle"><tspan x="1282.5" dy="0.355em">uOptimal 90%</tspan></text></svg></g></svg>