<?xml version="1.0"?><svg xmlns="http://www.w3.org/2000/svg" xmlns:xlink= "http://www.w3.org/1999/xlink" style="background: white;" width="1500" height="300"> <g style="color: black; font-size: 13px; font-family: sans-serif; transform: translate(18px, 25px);"><g><circle r="3" cx="-6" cy="-5" style="fill: #1AD4B3" /><text>Borrow APR, variable</text></g><g style="transform: translateX(150px);"><circle r="3" cx="-6" cy="-5" style="fill: #101423" /><text>Borrow APR, stable</text></g></g><g class="visx-group" transform="translate(45, 50)"><g class="visx-group visx-rows" transform="translate(0, 0)"><line class="visx-line" x1="0" y1="155" x2="1425" y2="155" fill="transparent" shape-rendering="crispEdges" stroke="#F2F0F9" stroke-width="1" pointer-events="none"></line><line class="visx-line" x1="0" y1="90.41666666666666" x2="1425" y2="90.41666666666666" fill="transparent" shape-rendering="crispEdges" stroke="#F2F0F9" stroke-width="1" pointer-events="none"></line><line class="visx-line" x1="0" y1="25.83333333333333" x2="1425" y2="25.83333333333333" fill="transparent" shape-rendering="crispEdges" stroke="#F2F0F9" stroke-width="1" pointer-events="none"></line></g><path class="visx-linepath" d="M0,154.999999999884C2.375,154.980670481153,4.75,154.96134096242199,7.125,154.94201144366198C9.5,154.92268192490198,11.875,154.9033524061033,14.25,154.88402288732394C16.625,154.86469336854458,19,154.84536384976525,21.375,154.82603433098592C23.75,154.8067048122066,26.125,154.7873752934272,28.5,154.76804577464787C30.875,154.74871625586854,33.25,154.7293867370892,35.625,154.71005721830986C38,154.69072769953053,40.375,154.67139818075117,42.75,154.65206866197184C45.125,154.6327391431925,47.50000000000001,154.61340962441318,49.87500000000001,154.59408010563382C52.25000000000001,154.5747505868545,54.625,154.5554210680751,57,154.53609154929578C59.375,154.51676203051642,61.75,154.4974325117371,64.125,154.47810299295776C66.5,154.45877347417843,68.875,154.43944395539904,71.25,154.4201144366197C73.625,154.40078491784038,76,154.38145539906105,78.375,154.3621258802817C80.75,154.34279636150234,83.125,154.323466842723,85.5,154.30413732394365C87.875,154.2848078051643,90.25,154.26547828638496,92.625,154.24614876760563C95,154.22681924882627,97.37500000000001,154.20748973004694,99.75000000000001,154.1881602112676C102.12500000000001,154.16883069248826,104.5,154.1495011737089,106.875,154.13017165492957C109.25,154.11084213615024,111.625,154.09151261737088,114,154.07218309859155C116.375,154.05285357981222,118.75000000000001,154.0335240610329,121.12500000000001,154.01419454225353C123.50000000000001,153.9948650234742,125.875,153.97553550469482,128.25,153.9562059859155C130.625,153.93687646713613,133,153.9175469483568,135.375,153.89821742957747C137.75,153.87888791079814,140.125,153.8595583920188,142.5,153.84022887323945C144.875,153.8208993544601,147.25,153.80156983568077,149.625,153.7822403169014C152,153.76291079812205,154.375,153.74358127934272,156.75,153.7242517605634C159.125,153.70492224178406,161.5,153.68559272300467,163.875,153.66626320422534C166.25,153.64693368544602,168.625,153.62760416666669,171,153.60827464788733C173.375,153.58894512910797,175.75,153.56961561032864,178.125,153.55028609154928C180.5,153.53095657276992,182.875,153.5116270539906,185.25,153.49229753521126C187.625,153.47296801643193,190,153.45363849765258,192.375,153.43430897887325C194.75,153.41497946009392,197.12500000000003,153.3956499413146,199.50000000000003,153.37632042253523C201.875,153.3569909037559,204.25,153.3376613849765,206.62499999999997,153.31833186619718C208.99999999999997,153.29900234741783,211.375,153.27967282863852,213.75,153.26034330985917C216.125,153.24101379107984,218.5,153.22168427230048,220.875,153.20235475352112C223.25,153.18302523474176,225.625,153.16369571596243,228,153.1443661971831C230.375,153.12503667840377,232.75,153.1057071596244,235.125,153.08637764084506C237.5,153.0670481220657,239.87500000000003,153.0477186032864,242.25000000000003,153.02838908450704C244.625,153.0090595657277,247,152.98973004694832,249.37499999999997,152.970400528169C251.74999999999997,152.95107100938964,254.125,152.9317414906103,256.5,152.91241197183098C258.875,152.89308245305165,261.25,152.8737529342723,263.625,152.85442341549296C266,152.83509389671363,268.375,152.81576437793427,270.75,152.79643485915494C273.125,152.7771053403756,275.5,152.75777582159623,277.875,152.7384463028169C280.25,152.71911678403757,282.625,152.6997872652582,285,152.68045774647888C287.375,152.66112822769955,289.75,152.6417987089202,292.125,152.62246919014086C294.5,152.60313967136153,296.875,152.58381015258215,299.25,152.56448063380282C301.625,152.5451511150235,304,152.52582159624416,306.375,152.5064920774648C308.75,152.48716255868544,311.125,152.4678330399061,313.5,152.44850352112675C315.875,152.4291740023474,318.25,152.40984448356807,320.625,152.39051496478874C323,152.3711854460094,325.375,152.35185592723002,327.75,152.3325264084507C330.125,152.31319688967136,332.5,152.293867370892,334.875,152.27453785211267C337.25,152.25520833333334,339.625,152.23587881455398,342,152.21654929577466C344.375,152.19721977699533,346.75,152.17789025821594,349.125,152.1585607394366C351.5,152.13923122065728,353.875,152.11990170187792,356.25,152.1005721830986C358.625,152.08124266431926,361,152.0619131455399,363.375,152.04258362676057C365.75,152.02325410798124,368.125,152.00392458920186,370.5,151.98459507042253C372.875,151.9652655516432,375.25,151.94593603286387,377.625,151.9266065140845C380,151.90727699530515,382.375,151.8879474765258,384.75,151.86861795774647C387.125,151.8492884389671,389.50000000000006,151.82995892018778,391.87500000000006,151.81062940140845C394.25000000000006,151.79129988262912,396.62500000000006,151.7719703638498,399.00000000000006,151.75264084507043C401.375,151.7333113262911,403.75,151.71398180751171,406.12499999999994,151.69465228873239C408.49999999999994,151.67532276995303,410.87499999999994,151.6559932511737,413.24999999999994,151.63666373239437C415.62499999999994,151.61733421361504,418,151.5980046948357,420.375,151.57867517605635C422.75,151.55934565727702,425.125,151.54001613849766,427.5,151.5206866197183C429.875,151.50135710093895,432.25,151.48202758215962,434.625,151.4626980633803C437,151.44336854460096,439.375,151.42403902582163,441.75,151.40470950704227C444.125,151.3853799882629,446.5,151.36605046948358,448.875,151.34672095070422C451.25,151.32739143192487,453.625,151.30806191314554,456,151.2887323943662C458.375,151.26940287558688,460.75,151.2500733568075,463.125,151.23074383802816C465.5,151.21141431924883,467.875,151.19208480046947,470.25,151.17275528169014C472.625,151.15342576291079,475.00000000000006,151.13409624413146,477.37500000000006,151.1147667253521C479.75000000000006,151.09543720657277,482.12500000000006,151.0761076877934,484.50000000000006,151.05677816901408C486.875,151.03744865023475,489.25,151.0181191314554,491.62499999999994,150.99878961267606C493.99999999999994,150.9794600938967,496.37499999999994,150.96013057511735,498.74999999999994,150.94080105633802C501.12499999999994,150.92147153755866,503.5,150.90214201877933,505.875,150.8828125C508.25,150.86348298122067,510.625,150.84415346244134,513,150.82482394366198C515.375,150.80549442488262,517.75,150.7861649061033,520.125,150.76683538732394C522.5,150.74750586854458,524.875,150.72817634976525,527.25,150.70884683098592C529.625,150.6895173122066,532,150.67018779342726,534.375,150.6508582746479C536.75,150.63152875586854,539.125,150.61219923708921,541.5,150.59286971830986C543.875,150.5735401995305,546.25,150.55421068075117,548.625,150.53488116197184C551,150.5155516431925,553.375,150.49622212441312,555.75,150.4768926056338C558.125,150.45756308685446,560.5,150.43823356807513,562.875,150.41890404929578C565.25,150.39957453051642,567.625,150.3802450117371,570,150.36091549295773C572.375,150.34158597417837,574.75,150.32225645539904,577.125,150.3029269366197C579.5,150.28359741784038,581.875,150.26426789906102,584.25,150.2449383802817C586.625,150.22560886150237,589,150.206279342723,591.375,150.18694982394368C593.75,150.16762030516435,596.125,150.14829078638496,598.5,150.12896126760563C600.875,150.1096317488263,603.25,150.09030223004697,605.625,150.07097271126761C608,150.05164319248826,610.375,150.03231367370893,612.75,150.01298415492957C615.125,149.9936546361502,617.5,149.97432511737088,619.875,149.95499559859155C622.25,149.93566607981222,624.625,149.91633656103284,627,149.8970070422535C629.375,149.87767752347418,631.75,149.85834800469482,634.125,149.8390184859155C636.5,149.81968896713616,638.875,149.8003594483568,641.25,149.78102992957747C643.625,149.76170041079814,646,149.74237089201876,648.375,149.72304137323943C650.75,149.7037118544601,653.125,149.68438233568074,655.5,149.6650528169014C657.875,149.64572329812208,660.25,149.62639377934272,662.625,149.6070642605634C665,149.58773474178406,667.375,149.56840522300473,669.75,149.54907570422537C672.125,149.52974618544602,674.5,149.51041666666669,676.875,149.49108714788733C679.25,149.47175762910797,681.625,149.45242811032864,684,149.4330985915493C686.375,149.41376907276998,688.75,149.3944395539906,691.125,149.37511003521126C693.5,149.35578051643193,695.875,149.3364509976526,698.25,149.31712147887325C700.625,149.2977919600939,703,149.27846244131456,705.375,149.2591329225352C707.75,149.23980340375584,710.125,149.2204738849765,712.5,149.20114436619718C714.875,149.18181484741785,717.25,149.16248532863847,719.625,149.14315580985914C722,149.1238262910798,724.375,149.10449677230045,726.75,149.08516725352112C729.125,149.0658377347418,731.5,149.04650821596243,733.875,149.0271786971831C736.25,149.00784917840377,738.625,148.98851965962444,741,148.9691901408451C743.375,148.94986062206573,745.75,148.9305311032864,748.125,148.91120158450704C750.5,148.89187206572768,752.875,148.87254254694835,755.25,148.85321302816902C757.625,148.8338835093897,760,148.8145539906103,762.375,148.79522447183098C764.75,148.77589495305165,767.125,148.7565654342723,769.5,148.73723591549296C771.875,148.7179063967136,774.2500000000001,148.69857687793427,776.6250000000001,148.6792473591549C779.0000000000001,148.65991784037558,781.3750000000001,148.64058832159623,783.7500000000001,148.6212588028169C786.1250000000001,148.60192928403757,788.5000000000001,148.58259976525824,790.8750000000001,148.56327024647888C793.2500000000001,148.54394072769952,795.6250000000001,148.5246112089202,798.0000000000001,148.50528169014083C800.375,148.4859521713615,802.75,148.46662265258215,805.1249999999999,148.44729313380282C807.4999999999999,148.4279636150235,809.8749999999999,148.40863409624413,812.2499999999999,148.3893045774648C814.6249999999999,148.36997505868547,816.9999999999999,148.3506455399061,819.3749999999999,148.33131602112678C821.7499999999999,148.31198650234745,824.1249999999999,148.29265698356807,826.4999999999999,148.27332746478874C828.8749999999999,148.25399794600938,831.25,148.23466842723008,833.625,148.21533890845072C836,148.1960093896714,838.375,148.17667987089203,840.75,148.15735035211267C843.125,148.13802083333331,845.5,148.11869131455398,847.875,148.09936179577466C850.25,148.08003227699533,852.625,148.06070275821594,855,148.0413732394366C857.375,148.02204372065728,859.75,148.00271420187795,862.125,147.9833846830986C864.5,147.96405516431923,866.875,147.9447256455399,869.25,147.92539612676055C871.625,147.9060666079812,874,147.88673708920186,876.375,147.86740757042253C878.75,147.8480780516432,881.125,147.82874853286384,883.5,147.8094190140845C885.875,147.79008949530518,888.25,147.77075997652582,890.625,147.7514304577465C893,147.73210093896716,895.375,147.71277142018778,897.75,147.69344190140845C900.125,147.67411238262912,902.5,147.6547828638498,904.875,147.63545334507043C907.25,147.61612382629107,909.625,147.59679430751174,912,147.57746478873239C914.375,147.55813526995303,916.75,147.5388057511737,919.125,147.51947623239437C921.5,147.50014671361504,923.875,147.48081719483565,926.25,147.46148767605632C928.625,147.442158157277,931,147.42282863849763,933.375,147.4034991197183C935.75,147.38416960093898,938.125,147.36484008215962,940.5,147.3455105633803C942.875,147.32618104460096,945.25,147.30685152582157,947.625,147.28752200704224C950,147.26819248826288,952.3750000000001,147.24886296948355,954.7500000000001,147.22953345070422C957.1250000000001,147.2102039319249,959.5000000000001,147.19087441314554,961.8750000000001,147.1715448943662C964.2500000000001,147.15221537558688,966.6250000000001,147.1328858568075,969.0000000000001,147.11355633802816C971.3750000000001,147.09422681924883,973.7500000000001,147.07489730046947,976.1250000000001,147.05556778169014C978.5,147.0362382629108,980.875,147.01690874413146,983.2499999999999,146.99757922535213C985.6249999999999,146.97824970657277,987.9999999999999,146.9589201877934,990.3749999999999,146.93959066901408C992.7499999999999,146.92026115023475,995.1249999999999,146.90093163145542,997.4999999999999,146.88160211267606C999.8749999999999,146.8622725938967,1002.2499999999999,146.84294307511735,1004.6249999999999,146.82361355633802C1006.9999999999999,146.80428403755866,1009.375,146.8042840375587,1011.75,146.765625C1014.125,146.7269659624413,1016.5,145.28095067049807,1018.875,144.53861350574712C1021.25,143.79627634099617,1023.625,143.0539391762452,1026,142.31160201149424C1028.375,141.5692648467433,1030.75,140.82692768199232,1033.125,140.08459051724137C1035.5,139.34225335249042,1037.875,138.59991618773944,1040.25,137.8575790229885C1042.625,137.11524185823754,1045,136.3729046934866,1047.375,135.63056752873564C1049.75,134.8882303639847,1052.125,134.1458931992337,1054.5,133.40355603448276C1056.875,132.6612188697318,1059.25,131.91888170498083,1061.625,131.17654454022988C1064,130.43420737547893,1066.375,129.69187021072796,1068.75,128.949533045977C1071.125,128.20719588122606,1073.5,127.4648587164751,1075.875,126.72252155172414C1078.25,125.98018438697318,1080.625,125.23784722222223,1083,124.49551005747126C1085.375,123.7531728927203,1087.75,123.01083572796935,1090.125,122.2684985632184C1092.5,121.52616139846745,1094.875,120.78382423371649,1097.25,120.04148706896552C1099.625,119.29914990421456,1102,118.55681273946361,1104.375,117.81447557471265C1106.75,117.07213840996168,1109.125,116.32980124521073,1111.5,115.58746408045977C1113.875,114.8451269157088,1116.25,114.10278975095785,1118.625,113.36045258620689C1121,112.61811542145593,1123.375,111.87577825670496,1125.75,111.13344109195401C1128.125,110.39110392720306,1130.5,109.64876676245211,1132.875,108.90642959770115C1135.25,108.16409243295018,1137.625,107.42175526819923,1140,106.67941810344827C1142.375,105.9370809386973,1144.75,105.19474377394636,1147.125,104.45240660919539C1149.5,103.71006944444443,1151.875,102.96773227969348,1154.25,102.22539511494253C1156.625,101.48305795019158,1159,100.74072078544063,1161.375,99.99838362068967C1163.75,99.2560464559387,1166.125,98.51370929118775,1168.5,97.77137212643679C1170.875,97.02903496168582,1173.25,96.28669779693487,1175.625,95.54436063218391C1178,94.80202346743295,1180.375,94.059686302682,1182.75,93.31734913793103C1185.125,92.57501197318007,1187.5,91.8326748084291,1189.875,91.09033764367815C1192.25,90.3480004789272,1194.625,89.60566331417627,1197,88.8633261494253C1199.375,88.12098898467434,1201.75,87.37865181992338,1204.125,86.63631465517241C1206.5,85.89397749042145,1208.875,85.15164032567048,1211.25,84.40930316091954C1213.625,83.66696599616859,1216,82.92462883141762,1218.375,82.18229166666667C1220.75,81.43995450191572,1223.125,80.69761733716476,1225.5,79.95528017241381C1227.875,79.21294300766286,1230.25,78.4706058429119,1232.625,77.72826867816093C1235,76.98593151340997,1237.375,76.24359434865902,1239.75,75.50125718390805C1242.125,74.75892001915709,1244.5,74.01658285440614,1246.875,73.27424568965517C1249.25,72.53190852490421,1251.625,71.78957136015325,1254,71.0472341954023C1256.375,70.30489703065135,1258.75,69.5625598659004,1261.125,68.82022270114945C1263.5,68.0778855363985,1265.875,67.33554837164752,1268.25,66.59321120689656C1270.625,65.85087404214559,1273,65.10853687739461,1275.375,64.36619971264366C1277.75,63.623862547892706,1280.125,62.88152538314176,1282.5,62.139188218390814C1284.875,61.396851053639864,1287.25,60.6545138888889,1289.625,59.91217672413794C1292,59.169839559386986,1294.375,58.42750239463601,1296.75,57.68516522988505C1299.125,56.942828065134094,1301.5,56.20049090038315,1303.875,55.458153735632195C1306.25,54.71581657088124,1308.625,53.973479406130274,1311,53.23114224137932C1313.375,52.48880507662836,1315.75,51.7464679118774,1318.125,51.00413074712644C1320.5,50.261793582375475,1322.875,49.519456417624504,1325.25,48.77711925287355C1327.625,48.03478208812259,1330,47.29244492337166,1332.375,46.550107758620705C1334.75,45.80777059386975,1337.125,45.06543342911877,1339.5,44.32309626436781C1341.875,43.580759099616856,1344.25,42.8384219348659,1346.625,42.09608477011494C1349,41.353747605363985,1351.375,40.61141044061302,1353.75,39.869073275862064C1356.125,39.12673611111111,1358.5,38.384398946360164,1360.875,37.64206178160921C1363.25,36.89972461685825,1365.625,36.15738745210727,1368,35.415050287356316C1370.375,34.67271312260536,1372.75,33.930375957854416,1375.125,33.18803879310346C1377.5,32.4457016283525,1379.875,31.703364463601538,1382.25,30.96102729885058C1384.625,30.218690134099624,1387,29.476352969348664,1389.375,28.734015804597707C1391.75,27.99167863984675,1394.125,27.24934147509579,1396.5,26.507004310344833C1398.875,25.764667145593876,1401.25,25.022329980842912,1403.625,24.279992816091955C1406,23.537655651340998,1408.375,22.795318486590055,1410.75,22.0529813218391C1413.125,21.31064415708814,1415.5,20.568306992337167,1417.875,19.825969827586206C1420.25,19.083632662835246,1422.625,18.34129549808429,1425,17.598958333333332" fill="transparent" stroke-linecap="round" stroke="#1AD4B3" stroke-width="2"></path><g class="visx-group visx-axis visx-axis-bottom" transform="translate(0, 155)"><g class="visx-group visx-axis-tick" transform="translate(0, 0)"><line class="visx-line" x1="0" y1="0" x2="0" y2="8" fill="transparent" shape-rendering="crispEdges" stroke="#F2F0F9" stroke-width="1" stroke-linecap="square"></line><svg x="0" y="0" font-size="11" style="overflow:visible"><text transform="" x="0" y="19" fill="#1B2030" font-size="11" text-anchor="middle"><tspan x="0" dy="0em">0%</tspan></text></svg></g><g class="visx-group visx-axis-tick" transform="translate(0, 0)"><line class="visx-line" x1="356.25" y1="0" x2="356.25" y2="8" fill="transparent" shape-rendering="crispEdges" stroke="#F2F0F9" stroke-width="1" stroke-linecap="square"></line><svg x="0" y="0" font-size="11" style="overflow:visible"><text transform="" x="356.25" y="19" fill="#1B2030" font-size="11" text-anchor="middle"><tspan x="356.25" dy="0em">25%</tspan></text></svg></g><g class="visx-group visx-axis-tick" transform="translate(0, 0)"><line class="visx-line" x1="712.5" y1="0" x2="712.5" y2="8" fill="transparent" shape-rendering="crispEdges" stroke="#F2F0F9" stroke-width="1" stroke-linecap="square"></line><svg x="0" y="0" font-size="11" style="overflow:visible"><text transform="" x="712.5" y="19" fill="#1B2030" font-size="11" text-anchor="middle"><tspan x="712.5" dy="0em">50%</tspan></text></svg></g><g class="visx-group visx-axis-tick" transform="translate(0, 0)"><line class="visx-line" x1="1068.75" y1="0" x2="1068.75" y2="8" fill="transparent" shape-rendering="crispEdges" stroke="#F2F0F9" stroke-width="1" stroke-linecap="square"></line><svg x="0" y="0" font-size="11" style="overflow:visible"><text transform="" x="1068.75" y="19" fill="#1B2030" font-size="11" text-anchor="middle"><tspan x="1068.75" dy="0em">75%</tspan></text></svg></g><g class="visx-group visx-axis-tick" transform="translate(0, 0)"><line class="visx-line" x1="1425" y1="0" x2="1425" y2="8" fill="transparent" shape-rendering="crispEdges" stroke="#F2F0F9" stroke-width="1" stroke-linecap="square"></line><svg x="0" y="0" font-size="11" style="overflow:visible"><text transform="" x="1425" y="19" fill="#1B2030" font-size="11" text-anchor="middle"><tspan x="1425" dy="0em">100%</tspan></text></svg></g></g><g class="visx-group visx-axis visx-axis-left" transform="translate(0, 0)"><g class="visx-group visx-axis-tick" transform="translate(0, 0)"><line class="visx-line" x1="0" y1="155" x2="-8" y2="155" fill="transparent" shape-rendering="crispEdges" stroke="#F2F0F9" stroke-width="1" stroke-linecap="square"></line><svg x="-30" y="0" font-size="11" style="overflow:visible"><text transform="" x="-8" y="155" fill="#1B2030" font-size="11" text-anchor="start"><tspan x="-8" dy="0em">0%</tspan></text></svg></g><g class="visx-group visx-axis-tick" transform="translate(0, 0)"><line class="visx-line" x1="0" y1="90.41666666666666" x2="-8" y2="90.41666666666666" fill="transparent" shape-rendering="crispEdges" stroke="#F2F0F9" stroke-width="1" stroke-linecap="square"></line><svg x="-30" y="0" font-size="11" style="overflow:visible"><text transform="" x="-8" y="90.41666666666666" fill="#1B2030" font-size="11" text-anchor="start"><tspan x="-8" dy="0em">100%</tspan></text></svg></g><g class="visx-group visx-axis-tick" transform="translate(0, 0)"><line class="visx-line" x1="0" y1="25.83333333333333" x2="-8" y2="25.83333333333333" fill="transparent" shape-rendering="crispEdges" stroke="#F2F0F9" stroke-width="1" stroke-linecap="square"></line><svg x="-30" y="0" font-size="11" style="overflow:visible"><text transform="" x="-8" y="25.83333333333333" fill="#1B2030" font-size="11" text-anchor="start"><tspan x="-8" dy="0em">200%</tspan></text></svg></g><line class="visx-line visx-axis-line" x1="0" y1="155.5" x2="0" y2="0.5" fill="transparent" shape-rendering="crispEdges" stroke="#F2F0F9" stroke-width="1"></line></g><rect class="visx-bar" width="1425" height="155" fill="transparent"></rect><line class="visx-line" x1="1011.75" y1="58" x2="1011.75" y2="155" fill="transparent" shape-rendering="crispEdges" stroke="#CDC8E1" stroke-width="1" pointer-events="none" stroke-dasharray="5"></line><svg x="0" y="0" font-size="11px" style="overflow:visible"><text transform="" x="1011.75" y="50" font-size="11px" fill="#555069" stroke="#FFFFFF" stroke-width="1px" text-anchor="middle"><tspan x="1011.75" dy="0.355em">uOptimal 71%</tspan></text></svg><svg x="0" y="0" font-size="11px" style="overflow:visible"><text transform="" x="1011.75" y="50" font-size="11px" fill="#CDC8E1" text-anchor="middle"><tspan x="1011.75" dy="0.355em">uOptimal 71%</tspan></text></svg></g></svg>