<?xml version="1.0"?><svg xmlns="http://www.w3.org/2000/svg" xmlns:xlink= "http://www.w3.org/1999/xlink" style="background: white;" width="1500" height="300"> <g style="color: black; font-size: 13px; font-family: sans-serif; transform: translate(18px, 25px);"><g><circle r="3" cx="-6" cy="-5" style="fill: #1AD4B3" /><text>Borrow APR, variable</text></g><g style="transform: translateX(150px);"><circle r="3" cx="-6" cy="-5" style="fill: #101423" /><text>Borrow APR, stable</text></g></g><g class="visx-group" transform="translate(45, 50)"><g class="visx-group visx-rows" transform="translate(0, 0)"><line class="visx-line" x1="0" y1="155" x2="1425" y2="155" fill="transparent" shape-rendering="crispEdges" stroke="#F2F0F9" stroke-width="1" pointer-events="none"></line><line class="visx-line" x1="0" y1="93" x2="1425" y2="93" fill="transparent" shape-rendering="crispEdges" stroke="#F2F0F9" stroke-width="1" pointer-events="none"></line><line class="visx-line" x1="0" y1="30.999999999999993" x2="1425" y2="30.999999999999993" fill="transparent" shape-rendering="crispEdges" stroke="#F2F0F9" stroke-width="1" pointer-events="none"></line></g><path class="visx-linepath" d="M0,154.99999999845C2.375,154.7416666657625,4.75,154.483333333075,7.125,154.225C9.5,153.966666666925,11.875,153.70833333333331,14.25,153.45C16.625,153.19166666666666,19,152.93333333333334,21.375,152.675C23.75,152.41666666666669,26.125,152.15833333333333,28.5,151.9C30.875,151.64166666666668,33.25,151.38333333333333,35.625,151.125C38,150.86666666666667,40.375,150.60833333333332,42.75,150.35C45.125,150.09166666666667,47.50000000000001,149.83333333333331,49.87500000000001,149.575C52.25000000000001,149.31666666666666,54.625,149.0583333333333,57,148.79999999999998C59.375,148.54166666666666,61.75,148.28333333333333,64.125,148.025C66.5,147.76666666666668,68.875,147.50833333333333,71.25,147.25C73.625,146.99166666666667,76,146.73333333333332,78.375,146.475C80.75,146.21666666666667,83.125,145.95833333333331,85.5,145.7C87.875,145.44166666666666,90.25,145.18333333333334,92.625,144.925C95,144.66666666666669,97.37500000000001,144.4083333333333,99.75000000000001,144.14999999999998C102.12500000000001,143.89166666666665,104.5,143.63333333333333,106.875,143.375C109.25,143.11666666666667,111.625,142.85833333333332,114,142.6C116.375,142.34166666666667,118.75000000000001,142.08333333333334,121.12500000000001,141.82500000000002C123.50000000000001,141.5666666666667,125.875,141.30833333333334,128.25,141.05C130.625,140.79166666666669,133,140.53333333333333,135.375,140.275C137.75,140.01666666666668,140.125,139.74455555555556,142.5,139.5C144.875,139.25544444444444,147.25,139.03844444444442,149.625,138.80766666666665C152,138.57688888888887,154.375,138.3461111111111,156.75,138.11533333333333C159.125,137.88455555555555,161.5,137.65377777777778,163.875,137.423C166.25,137.19222222222223,168.625,136.96144444444445,171,136.73066666666668C173.375,136.4998888888889,175.75,136.2691111111111,178.125,136.03833333333333C180.5,135.80755555555555,182.875,135.57677777777778,185.25,135.346C187.625,135.11522222222223,190,134.88444444444445,192.375,134.65366666666668C194.75,134.4228888888889,197.12500000000003,134.19211111111113,199.50000000000003,133.96133333333336C201.875,133.73055555555558,204.25,133.49977777777778,206.62499999999997,133.269C208.99999999999997,133.03822222222223,211.375,132.80744444444443,213.75,132.57666666666665C216.125,132.34588888888888,218.5,132.1151111111111,220.875,131.88433333333333C223.25,131.65355555555556,225.625,131.42277777777778,228,131.192C230.375,130.96122222222223,232.75,130.73044444444443,235.125,130.49966666666666C237.5,130.26888888888888,239.87500000000003,130.0381111111111,242.25000000000003,129.80733333333333C244.625,129.57655555555556,247,129.34577777777776,249.37499999999997,129.11499999999998C251.74999999999997,128.8842222222222,254.125,128.65344444444443,256.5,128.42266666666666C258.875,128.19188888888888,261.25,127.96111111111112,263.625,127.73033333333335C266,127.49955555555557,268.375,127.26877777777779,270.75,127.038C273.125,126.80722222222221,275.5,126.57644444444443,277.875,126.34566666666666C280.25,126.11488888888888,282.625,125.88411111111111,285,125.65333333333334C287.375,125.42255555555556,289.75,125.19177777777777,292.125,124.961C294.5,124.73022222222222,296.875,124.49944444444445,299.25,124.26866666666668C301.625,124.0378888888889,304,123.80711111111111,306.375,123.57633333333334C308.75,123.34555555555556,311.125,123.11477777777776,313.5,122.88399999999999C315.875,122.65322222222221,318.25,122.42244444444444,320.625,122.19166666666666C323,121.96088888888889,325.375,121.73011111111111,327.75,121.49933333333334C330.125,121.26855555555557,332.5,121.03777777777778,334.875,120.807C337.25,120.57622222222223,339.625,120.34544444444444,342,120.11466666666666C344.375,119.88388888888889,346.75,119.6531111111111,349.125,119.42233333333333C351.5,119.19155555555555,353.875,118.96077777777778,356.25,118.73C358.625,118.49922222222223,361,118.26844444444446,363.375,118.03766666666668C365.75,117.8068888888889,368.125,117.57611111111112,370.5,117.34533333333333C372.875,117.11455555555554,375.25,116.88377777777777,377.625,116.65299999999999C380,116.42222222222222,382.375,116.19144444444444,384.75,115.96066666666667C387.125,115.7298888888889,389.50000000000006,115.49911111111112,391.87500000000006,115.26833333333335C394.25000000000006,115.03755555555557,396.62500000000006,114.80677777777777,399.00000000000006,114.576C401.375,114.34522222222222,403.75,114.11444444444444,406.12499999999994,113.88366666666667C408.49999999999994,113.6528888888889,410.87499999999994,113.42211111111111,413.24999999999994,113.19133333333333C415.62499999999994,112.96055555555556,418,112.72977777777777,420.375,112.499C422.75,112.26822222222222,425.125,112.03744444444445,427.5,111.80666666666667C429.875,111.5758888888889,432.25,111.34511111111111,434.625,111.11433333333333C437,110.88355555555556,439.375,110.65277777777779,441.75,110.42200000000001C444.125,110.19122222222224,446.5,109.96044444444443,448.875,109.72966666666666C451.25,109.49888888888889,453.625,109.26811111111111,456,109.03733333333334C458.375,108.80655555555556,460.75,108.5757777777778,463.125,108.34500000000001C465.5,108.11422222222222,467.875,107.88344444444442,470.25,107.65266666666665C472.625,107.42188888888886,475.00000000000006,107.1911111111111,477.37500000000006,106.96033333333332C479.75000000000006,106.72955555555555,482.12500000000006,106.49877777777778,484.50000000000006,106.268C486.875,106.03722222222223,489.25,105.80644444444445,491.62499999999994,105.57566666666668C493.99999999999994,105.3448888888889,496.37499999999994,105.11411111111111,498.74999999999994,104.88333333333334C501.12499999999994,104.65255555555555,503.5,104.42177777777776,505.875,104.19099999999999C508.25,103.96022222222221,510.625,103.72944444444444,513,103.49866666666667C515.375,103.26788888888889,517.75,103.0371111111111,520.125,102.80633333333333C522.5,102.57555555555555,524.875,102.34477777777778,527.25,102.114C529.625,101.88322222222223,532,101.65244444444446,534.375,101.42166666666668C536.75,101.1908888888889,539.125,100.9601111111111,541.5,100.72933333333332C543.875,100.49855555555553,546.25,100.26777777777777,548.625,100.03699999999999C551,99.80622222222222,553.375,99.57544444444444,555.75,99.34466666666667C558.125,99.1138888888889,560.5,98.8831111111111,562.875,98.65233333333333C565.25,98.42155555555556,567.625,98.19077777777778,570,97.96000000000001C572.375,97.72922222222223,574.75,97.49844444444443,577.125,97.26766666666666C579.5,97.03688888888888,581.875,96.80611111111111,584.25,96.57533333333333C586.625,96.34455555555556,589,96.11377777777778,591.375,95.88300000000001C593.75,95.65222222222224,596.125,95.42144444444443,598.5,95.19066666666666C600.875,94.95988888888888,603.25,94.72911111111111,605.625,94.49833333333333C608,94.26755555555556,610.375,94.03677777777777,612.75,93.806C615.125,93.57522222222222,617.5,93.34444444444445,619.875,93.11366666666667C622.25,92.8828888888889,624.625,92.65211111111111,627,92.42133333333334C629.375,92.19055555555556,631.75,91.95977777777777,634.125,91.729C636.5,91.49822222222222,638.875,91.26744444444444,641.25,91.03666666666666C643.625,90.80588888888889,646,90.5751111111111,648.375,90.34433333333332C650.75,90.11355555555555,653.125,89.88277777777778,655.5,89.652C657.875,89.42122222222223,660.25,89.19044444444447,662.625,88.95966666666668C665,88.72888888888889,667.375,88.49811111111109,669.75,88.26733333333331C672.125,88.03655555555554,674.5,87.80577777777778,676.875,87.575C679.25,87.34422222222223,681.625,87.11344444444444,684,86.88266666666667C686.375,86.65188888888889,688.75,86.42111111111112,691.125,86.19033333333334C693.5,85.95955555555557,695.875,85.7287777777778,698.25,85.49800000000002C700.625,85.26722222222224,703,85.03644444444444,705.375,84.80566666666665C707.75,84.57488888888886,710.125,84.3441111111111,712.5,84.11333333333333C714.875,83.88255555555556,717.25,83.65177777777778,719.625,83.421C722,83.19022222222223,724.375,82.95944444444444,726.75,82.72866666666667C729.125,82.4978888888889,731.5,82.2671111111111,733.875,82.03633333333333C736.25,81.80555555555556,738.625,81.57477777777777,741,81.344C743.375,81.11322222222222,745.75,80.88244444444445,748.125,80.65166666666667C750.5,80.4208888888889,752.875,80.19011111111111,755.25,79.95933333333333C757.625,79.72855555555556,760,79.49777777777777,762.375,79.267C764.75,79.03622222222222,767.125,78.80544444444446,769.5,78.57466666666669C771.875,78.34388888888891,774.2500000000001,78.1131111111111,776.6250000000001,77.88233333333332C779.0000000000001,77.65155555555555,781.3750000000001,77.42077777777779,783.7500000000001,77.19000000000001C786.1250000000001,76.95922222222224,788.5000000000001,76.72844444444445,790.8750000000001,76.49766666666667C793.2500000000001,76.2668888888889,795.6250000000001,76.03611111111113,798.0000000000001,75.80533333333334C800.375,75.57455555555556,802.75,75.34377777777777,805.1249999999999,75.113C807.4999999999999,74.88222222222221,809.8749999999999,74.65144444444444,812.2499999999999,74.42066666666666C814.6249999999999,74.18988888888889,816.9999999999999,73.95911111111111,819.3749999999999,73.72833333333334C821.7499999999999,73.49755555555556,824.1249999999999,73.26677777777776,826.4999999999999,73.03599999999999C828.8749999999999,72.80522222222221,831.25,72.57444444444444,833.625,72.34366666666666C836,72.11288888888889,838.375,71.8821111111111,840.75,71.65133333333333C843.125,71.42055555555555,845.5,71.18977777777779,847.875,70.95900000000002C850.25,70.72822222222224,852.625,70.49744444444445,855,70.26666666666667C857.375,70.03588888888888,859.75,69.8051111111111,862.125,69.57433333333333C864.5,69.34355555555555,866.875,69.11277777777778,869.25,68.882C871.625,68.65122222222223,874,68.42044444444446,876.375,68.18966666666668C878.75,67.95888888888891,881.125,67.7281111111111,883.5,67.49733333333333C885.875,67.26655555555556,888.25,67.03577777777778,890.625,66.805C893,66.57422222222223,895.375,66.34344444444446,897.75,66.11266666666667C900.125,65.88188888888888,902.5,65.65111111111109,904.875,65.42033333333332C907.25,65.18955555555554,909.625,64.95877777777777,912,64.728C914.375,64.49722222222222,916.75,64.26644444444445,919.125,64.03566666666667C921.5,63.8048888888889,923.875,63.57411111111112,926.25,63.34333333333334C928.625,63.11255555555556,931,62.88177777777776,933.375,62.65099999999998C935.75,62.42022222222221,938.125,62.18944444444445,940.5,61.95866666666667C942.875,61.7278888888889,945.25,61.4971111111111,947.625,61.26633333333333C950,61.03555555555555,952.3750000000001,60.80477777777778,954.7500000000001,60.574000000000005C957.1250000000001,60.34322222222223,959.5000000000001,60.11244444444446,961.8750000000001,59.88166666666668C964.2500000000001,59.6508888888889,966.6250000000001,59.42011111111112,969.0000000000001,59.18933333333334C971.3750000000001,58.958555555555556,973.7500000000001,58.72777777777778,976.1250000000001,58.49699999999999C978.5,58.26622222222222,980.875,58.03544444444442,983.2499999999999,57.80466666666665C985.6249999999999,57.57388888888887,987.9999999999999,57.343111111111114,990.3749999999999,57.11233333333334C992.7499999999999,56.881555555555565,995.1249999999999,56.65077777777778,997.4999999999999,56.42C999.8749999999999,56.18922222222222,1002.2499999999999,55.95844444444443,1004.6249999999999,55.72766666666666C1006.9999999999999,55.496888888888876,1009.375,55.2661111111111,1011.75,55.03533333333333C1014.125,54.80455555555555,1016.5,54.57377777777778,1018.875,54.343C1021.25,54.11222222222223,1023.625,53.88144444444443,1026,53.65066666666666C1028.375,53.419888888888885,1030.75,53.189111111111124,1033.125,52.95833333333335C1035.5,52.727555555555575,1037.875,52.49677777777779,1040.25,52.266000000000005C1042.625,52.035222222222224,1045,51.80444444444444,1047.375,51.57366666666667C1049.75,51.34288888888889,1052.125,51.11211111111111,1054.5,50.88133333333334C1056.875,50.65055555555556,1059.25,50.419777777777796,1061.625,50.189000000000014C1064,49.95822222222223,1066.375,49.72744444444445,1068.75,49.49666666666667C1071.125,49.26588888888889,1073.5,49.03511111111111,1075.875,48.804333333333325C1078.25,48.573555555555544,1080.625,48.34277777777778,1083,48.112C1085.375,47.88122222222222,1087.75,47.65044444444443,1090.125,47.41966666666666C1092.5,47.18888888888888,1094.875,46.95811111111111,1097.25,46.727333333333334C1099.625,46.49655555555556,1102,46.265777777777785,1104.375,46.035000000000004C1106.75,45.80422222222222,1109.125,45.57344444444445,1111.5,45.342666666666666C1113.875,45.111888888888885,1116.25,44.881111111111096,1118.625,44.65033333333332C1121,44.41955555555555,1123.375,44.18877777777779,1125.75,43.95800000000001C1128.125,43.72722222222224,1130.5,43.49644444444445,1132.875,43.26566666666667C1135.25,43.03488888888889,1137.625,42.804111111111126,1140,42.573333333333345C1142.375,42.34255555555556,1144.75,42.111777777777775,1147.125,41.881C1149.5,41.650222222222226,1151.875,41.41944444444445,1154.25,41.18866666666668C1156.625,40.9578888888889,1159,40.727111111111114,1161.375,40.49633333333333C1163.75,40.26555555555555,1166.125,40.03477777777776,1168.5,39.80399999999999C1170.875,39.57322222222221,1173.25,39.34244444444445,1175.625,39.11166666666668C1178,38.880888888888904,1180.375,38.650111111111116,1182.75,38.419333333333334C1185.125,38.18855555555555,1187.5,37.957777777777764,1189.875,37.72699999999999C1192.25,37.496222222222215,1194.625,37.26544444444444,1197,37.034666666666666C1199.375,36.80388888888889,1201.75,36.57311111111112,1204.125,36.34233333333334C1206.5,36.11155555555557,1208.875,35.88077777777778,1211.25,35.65C1213.625,35.41922222222222,1216,35.18844444444444,1218.375,34.95766666666667C1220.75,34.726888888888894,1223.125,34.496111111111105,1225.5,34.26533333333333C1227.875,34.034555555555556,1230.25,33.80377777777778,1232.625,33.573C1235,33.34222222222222,1237.375,33.11144444444443,1239.75,32.880666666666656C1242.125,32.64988888888888,1244.5,32.41911111111113,1246.875,32.188333333333354C1249.25,31.95755555555558,1251.625,31.726777777777787,1254,31.496000000000006C1256.375,31.265222222222224,1258.75,31.034444444444446,1261.125,30.803666666666665C1263.5,30.572888888888883,1265.875,30.342111111111098,1268.25,30.11133333333332C1270.625,29.880555555555542,1273,29.64977777777777,1275.375,29.418999999999997C1277.75,29.188222222222223,1280.125,28.95744444444444,1282.5,28.72666666666667C1284.875,28.4958888888889,1287.25,28.26511111111114,1289.625,28.03433333333336C1292,27.803555555555583,1294.375,27.572777777777784,1296.75,27.342C1299.125,27.111222222222214,1301.5,26.880444444444436,1303.875,26.649666666666658C1306.25,26.41888888888888,1308.625,26.188111111111105,1311,25.95733333333333C1313.375,25.726555555555557,1315.75,25.4957777777778,1318.125,25.265000000000022C1320.5,25.034222222222244,1322.875,24.803444444444448,1325.25,24.572666666666663C1327.625,24.341888888888878,1330,24.111111111111093,1332.375,23.88033333333332C1334.75,23.649555555555544,1337.125,23.418777777777787,1339.5,23.18800000000001C1341.875,22.95722222222223,1344.25,22.726444444444432,1346.625,22.49566666666665C1349,22.26488888888887,1351.375,22.034111111111095,1353.75,21.803333333333324C1356.125,21.572555555555553,1358.5,21.34177777777779,1360.875,21.111000000000015C1363.25,20.88022222222224,1365.625,20.649444444444455,1368,20.418666666666674C1370.375,20.187888888888892,1372.75,19.95711111111111,1375.125,19.72633333333333C1377.5,19.495555555555548,1379.875,19.26477777777776,1382.25,19.033999999999985C1384.625,18.80322222222221,1387,18.572444444444447,1389.375,18.341666666666676C1391.75,18.110888888888905,1394.125,17.880111111111134,1396.5,17.649333333333352C1398.875,17.41855555555557,1401.25,17.18777777777777,1403.625,16.95699999999999C1406,16.72622222222221,1408.375,16.495444444444438,1410.75,16.264666666666663C1413.125,16.03388888888889,1415.5,15.803111111111114,1417.875,15.57233333333334C1420.25,15.341555555555566,1422.625,15.11077777777779,1425,14.880000000000013" fill="transparent" stroke-linecap="round" stroke="#1AD4B3" stroke-width="2"></path><g class="visx-group visx-axis visx-axis-bottom" transform="translate(0, 155)"><g class="visx-group visx-axis-tick" transform="translate(0, 0)"><line class="visx-line" x1="0" y1="0" x2="0" y2="8" fill="transparent" shape-rendering="crispEdges" stroke="#F2F0F9" stroke-width="1" stroke-linecap="square"></line><svg x="0" y="0" font-size="11" style="overflow:visible"><text transform="" x="0" y="19" fill="#1B2030" font-size="11" text-anchor="middle"><tspan x="0" dy="0em">0%</tspan></text></svg></g><g class="visx-group visx-axis-tick" transform="translate(0, 0)"><line class="visx-line" x1="356.25" y1="0" x2="356.25" y2="8" fill="transparent" shape-rendering="crispEdges" stroke="#F2F0F9" stroke-width="1" stroke-linecap="square"></line><svg x="0" y="0" font-size="11" style="overflow:visible"><text transform="" x="356.25" y="19" fill="#1B2030" font-size="11" text-anchor="middle"><tspan x="356.25" dy="0em">25%</tspan></text></svg></g><g class="visx-group visx-axis-tick" transform="translate(0, 0)"><line class="visx-line" x1="712.5" y1="0" x2="712.5" y2="8" fill="transparent" shape-rendering="crispEdges" stroke="#F2F0F9" stroke-width="1" stroke-linecap="square"></line><svg x="0" y="0" font-size="11" style="overflow:visible"><text transform="" x="712.5" y="19" fill="#1B2030" font-size="11" text-anchor="middle"><tspan x="712.5" dy="0em">50%</tspan></text></svg></g><g class="visx-group visx-axis-tick" transform="translate(0, 0)"><line class="visx-line" x1="1068.75" y1="0" x2="1068.75" y2="8" fill="transparent" shape-rendering="crispEdges" stroke="#F2F0F9" stroke-width="1" stroke-linecap="square"></line><svg x="0" y="0" font-size="11" style="overflow:visible"><text transform="" x="1068.75" y="19" fill="#1B2030" font-size="11" text-anchor="middle"><tspan x="1068.75" dy="0em">75%</tspan></text></svg></g><g class="visx-group visx-axis-tick" transform="translate(0, 0)"><line class="visx-line" x1="1425" y1="0" x2="1425" y2="8" fill="transparent" shape-rendering="crispEdges" stroke="#F2F0F9" stroke-width="1" stroke-linecap="square"></line><svg x="0" y="0" font-size="11" style="overflow:visible"><text transform="" x="1425" y="19" fill="#1B2030" font-size="11" text-anchor="middle"><tspan x="1425" dy="0em">100%</tspan></text></svg></g></g><g class="visx-group visx-axis visx-axis-left" transform="translate(0, 0)"><g class="visx-group visx-axis-tick" transform="translate(0, 0)"><line class="visx-line" x1="0" y1="155" x2="-8" y2="155" fill="transparent" shape-rendering="crispEdges" stroke="#F2F0F9" stroke-width="1" stroke-linecap="square"></line><svg x="-30" y="0" font-size="11" style="overflow:visible"><text transform="" x="-8" y="155" fill="#1B2030" font-size="11" text-anchor="start"><tspan x="-8" dy="0em">0%</tspan></text></svg></g><g class="visx-group visx-axis-tick" transform="translate(0, 0)"><line class="visx-line" x1="0" y1="93" x2="-8" y2="93" fill="transparent" shape-rendering="crispEdges" stroke="#F2F0F9" stroke-width="1" stroke-linecap="square"></line><svg x="-30" y="0" font-size="11" style="overflow:visible"><text transform="" x="-8" y="93" fill="#1B2030" font-size="11" text-anchor="start"><tspan x="-8" dy="0em">200%</tspan></text></svg></g><g class="visx-group visx-axis-tick" transform="translate(0, 0)"><line class="visx-line" x1="0" y1="30.999999999999993" x2="-8" y2="30.999999999999993" fill="transparent" shape-rendering="crispEdges" stroke="#F2F0F9" stroke-width="1" stroke-linecap="square"></line><svg x="-30" y="0" font-size="11" style="overflow:visible"><text transform="" x="-8" y="30.999999999999993" fill="#1B2030" font-size="11" text-anchor="start"><tspan x="-8" dy="0em">400%</tspan></text></svg></g><line class="visx-line visx-axis-line" x1="0" y1="155.5" x2="0" y2="0.5" fill="transparent" shape-rendering="crispEdges" stroke="#F2F0F9" stroke-width="1"></line></g><rect class="visx-bar" width="1425" height="155" fill="transparent"></rect><line class="visx-line" x1="142.5" y1="58" x2="142.5" y2="155" fill="transparent" shape-rendering="crispEdges" stroke="#CDC8E1" stroke-width="1" pointer-events="none" stroke-dasharray="5"></line><svg x="0" y="0" font-size="11px" style="overflow:visible"><text transform="" x="142.5" y="50" font-size="11px" fill="#555069" stroke="#FFFFFF" stroke-width="1px" text-anchor="middle"><tspan x="142.5" dy="0.355em">uOptimal 10%</tspan></text></svg><svg x="0" y="0" font-size="11px" style="overflow:visible"><text transform="" x="142.5" y="50" font-size="11px" fill="#CDC8E1" text-anchor="middle"><tspan x="142.5" dy="0.355em">uOptimal 10%</tspan></text></svg></g></svg>