<?xml version="1.0"?><svg xmlns="http://www.w3.org/2000/svg" xmlns:xlink= "http://www.w3.org/1999/xlink" style="background: white;" width="1500" height="185"> <g style="color: black; font-size: 13px; font-family: sans-serif; transform: translate(18px, 25px);"><g><circle r="3" cx="-6" cy="-5" style="fill: #B6509E" /><text>Borrow APR, variable</text></g><g style="transform: translateX(150px);"><circle r="3" cx="-6" cy="-5" style="fill: rgb(231, 198, 223)" /><text>Borrow APR, stable</text></g><g style="transform: translateX(290px);"><circle r="3" cx="-6" cy="-5" style="fill: rgb(0, 98, 210)" /><text>Utilization Rate</text></g></g><g class="visx-group" transform="translate(40, 50)"><g class="visx-group visx-rows" transform="translate(0, 0)"><line class="visx-line" x1="0" y1="115" x2="1450" y2="115" fill="transparent" shape-rendering="crispEdges" stroke="#000" stroke-width="1" stroke-dasharray="3,3" pointer-events="none"></line><line class="visx-line" x1="0" y1="82.14285714285714" x2="1450" y2="82.14285714285714" fill="transparent" shape-rendering="crispEdges" stroke="#000" stroke-width="1" stroke-dasharray="3,3" pointer-events="none"></line><line class="visx-line" x1="0" y1="49.28571428571429" x2="1450" y2="49.28571428571429" fill="transparent" shape-rendering="crispEdges" stroke="#000" stroke-width="1" stroke-dasharray="3,3" pointer-events="none"></line><line class="visx-line" x1="0" y1="16.428571428571434" x2="1450" y2="16.428571428571434" fill="transparent" shape-rendering="crispEdges" stroke="#000" stroke-width="1" stroke-dasharray="3,3" pointer-events="none"></line></g><path class="visx-linepath" d="M0,114.99999999997078C2.4166666666666665,114.99513227511524,4.833333333333334,114.99026455025968,7.25,114.98539682539683C9.666666666666666,114.98052910053399,12.083333333333334,114.97566137566137,14.5,114.97079365079365C16.916666666666668,114.96592592592593,19.333333333333332,114.9610582010582,21.75,114.95619047619047C24.166666666666668,114.95132275132275,26.583333333333332,114.94645502645503,29,114.9415873015873C31.416666666666668,114.93671957671958,33.833333333333336,114.93185185185185,36.25,114.92698412698412C38.666666666666664,114.9221164021164,41.083333333333336,114.91724867724868,43.5,114.91238095238096C45.91666666666667,114.90751322751323,48.333333333333336,114.9026455026455,50.75000000000001,114.89777777777778C53.16666666666667,114.89291005291005,55.583333333333336,114.88804232804232,58,114.8831746031746C60.416666666666664,114.87830687830687,62.833333333333336,114.87343915343915,65.25,114.86857142857143C67.66666666666667,114.8637037037037,70.08333333333333,114.85883597883597,72.5,114.85396825396825C74.91666666666667,114.84910052910053,77.33333333333333,114.8442328042328,79.75,114.83936507936508C82.16666666666667,114.83449735449736,84.58333333333333,114.82962962962964,87,114.82476190476191C89.41666666666667,114.81989417989419,91.83333333333333,114.81502645502646,94.25,114.81015873015873C96.66666666666667,114.80529100529101,99.08333333333334,114.80042328042327,101.50000000000001,114.79555555555555C103.91666666666667,114.79068783068783,106.33333333333334,114.78582010582011,108.75,114.78095238095239C111.16666666666667,114.77608465608466,113.58333333333333,114.77121693121693,116,114.7663492063492C118.41666666666667,114.76148148148148,120.83333333333334,114.75661375661376,123.25000000000001,114.75174603174604C125.66666666666667,114.74687830687832,128.08333333333334,114.74201058201058,130.5,114.73714285714286C132.91666666666666,114.73227513227513,135.33333333333334,114.7274074074074,137.75,114.72253968253968C140.16666666666666,114.71767195767195,142.58333333333334,114.71280423280423,145,114.70793650793651C147.41666666666666,114.70306878306879,149.83333333333334,114.69820105820105,152.25,114.69333333333333C154.66666666666666,114.6884656084656,157.08333333333334,114.68359788359788,159.5,114.67873015873016C161.91666666666666,114.67386243386244,164.33333333333334,114.66899470899472,166.75,114.664126984127C169.16666666666666,114.65925925925927,171.58333333333334,114.65439153439152,174,114.6495238095238C176.41666666666666,114.64465608465608,178.83333333333334,114.63978835978835,181.25,114.63492063492063C183.66666666666666,114.63005291005291,186.08333333333334,114.62518518518519,188.5,114.62031746031747C190.91666666666666,114.61544973544974,193.33333333333334,114.61058201058201,195.75,114.60571428571428C198.16666666666669,114.60084656084656,200.58333333333334,114.59597883597884,203.00000000000003,114.59111111111112C205.41666666666669,114.5862433862434,207.83333333333331,114.58137566137566,210.24999999999997,114.57650793650794C212.66666666666666,114.57164021164022,215.08333333333331,114.56677248677248,217.5,114.56190476190476C219.91666666666666,114.55703703703703,222.33333333333334,114.55216931216931,224.75,114.54730158730159C227.16666666666666,114.54243386243387,229.58333333333334,114.53756613756613,232,114.53269841269841C234.41666666666666,114.52783068783069,236.83333333333334,114.52296296296296,239.25,114.51809523809524C241.66666666666669,114.51322751322752,244.08333333333334,114.5083597883598,246.50000000000003,114.50349206349208C248.91666666666669,114.49862433862435,251.33333333333331,114.4937566137566,253.74999999999997,114.48888888888888C256.16666666666663,114.48402116402116,258.5833333333333,114.47915343915344,261,114.47428571428571C263.4166666666667,114.46941798941799,265.8333333333333,114.46455026455027,268.25,114.45968253968255C270.6666666666667,114.45481481481482,273.0833333333333,114.44994708994709,275.5,114.44507936507937C277.9166666666667,114.44021164021164,280.3333333333333,114.43534391534392,282.75,114.4304761904762C285.1666666666667,114.42560846560848,287.5833333333333,114.42074074074073,290,114.415873015873C292.4166666666667,114.41100529100528,294.8333333333333,114.40613756613756,297.25,114.40126984126984C299.6666666666667,114.39640211640211,302.0833333333333,114.39153439153439,304.5,114.38666666666667C306.9166666666667,114.38179894179895,309.3333333333333,114.37693121693121,311.75,114.37206349206349C314.1666666666667,114.36719576719577,316.5833333333333,114.36232804232804,319,114.35746031746032C321.4166666666667,114.3525925925926,323.8333333333333,114.34772486772486,326.25,114.34285714285714C328.6666666666667,114.33798941798942,331.0833333333333,114.33312169312168,333.5,114.32825396825396C335.9166666666667,114.32338624338624,338.3333333333333,114.31851851851852,340.75,114.3136507936508C343.1666666666667,114.30878306878307,345.5833333333333,114.30391534391535,348,114.29904761904763C350.4166666666667,114.2941798941799,352.8333333333333,114.28931216931217,355.25,114.28444444444445C357.6666666666667,114.27957671957672,360.0833333333333,114.27470899470899,362.5,114.26984126984127C364.9166666666667,114.26497354497354,367.3333333333333,114.2601058201058,369.75,114.25523809523808C372.1666666666667,114.25037037037036,374.5833333333333,114.24550264550264,377,114.24063492063492C379.4166666666667,114.2357671957672,381.8333333333333,114.23089947089947,384.25,114.22603174603175C386.6666666666667,114.22116402116403,389.0833333333333,114.21629629629629,391.5,114.21142857142857C393.9166666666667,114.20656084656085,396.33333333333337,114.20169312169313,398.75000000000006,114.1968253968254C401.16666666666674,114.19195767195768,403.58333333333337,114.18708994708994,406.00000000000006,114.18222222222222C408.4166666666667,114.1773544973545,410.8333333333333,114.17248677248676,413.24999999999994,114.16761904761904C415.66666666666663,114.16275132275132,418.08333333333326,114.1578835978836,420.49999999999994,114.15301587301587C422.91666666666663,114.14814814814815,425.3333333333333,114.14328042328043,427.75,114.13841269841271C430.1666666666667,114.13354497354499,432.5833333333333,114.12867724867725,435,114.12380952380953C437.4166666666667,114.1189417989418,439.8333333333333,114.11407407407407,442.25,114.10920634920635C444.6666666666667,114.10433862433862,447.0833333333333,114.09947089947089,449.5,114.09460317460317C451.9166666666667,114.08973544973544,454.3333333333333,114.08486772486772,456.75,114.08C459.1666666666667,114.07513227513228,461.5833333333333,114.07026455026455,464,114.06539682539683C466.4166666666667,114.06052910052911,468.8333333333333,114.05566137566137,471.25,114.05079365079365C473.6666666666667,114.04592592592593,476.0833333333333,114.04105820105819,478.5,114.03619047619047C480.9166666666667,114.03132275132275,483.33333333333337,114.02645502645503,485.75000000000006,114.0215873015873C488.16666666666674,114.01671957671958,490.58333333333337,114.01185185185184,493.00000000000006,114.00698412698412C495.4166666666667,114.0021164021164,497.8333333333333,113.99724867724868,500.24999999999994,113.99238095238096C502.66666666666663,113.98751322751323,505.08333333333326,113.98264550264551,507.49999999999994,113.97777777777779C509.91666666666663,113.97291005291007,512.3333333333333,113.96804232804233,514.75,113.96317460317461C517.1666666666666,113.95830687830689,519.5833333333334,113.95343915343915,522,113.94857142857143C524.4166666666666,113.9437037037037,526.8333333333334,113.93883597883597,529.25,113.93396825396825C531.6666666666666,113.92910052910052,534.0833333333334,113.9242328042328,536.5,113.91936507936508C538.9166666666666,113.91449735449736,541.3333333333334,113.90962962962963,543.75,113.90476190476191C546.1666666666666,113.89989417989419,548.5833333333334,113.89502645502645,551,113.89015873015873C553.4166666666666,113.88529100529101,555.8333333333334,113.88042328042327,558.25,113.87555555555555C560.6666666666666,113.87068783068783,563.0833333333334,113.8658201058201,565.5,113.86095238095238C567.9166666666666,113.85608465608466,570.3333333333334,113.85121693121692,572.75,113.8463492063492C575.1666666666666,113.84148148148148,577.5833333333334,113.83661375661376,580,113.83174603174604C582.4166666666666,113.82687830687831,584.8333333333334,113.82201058201059,587.25,113.81714285714287C589.6666666666666,113.81227513227515,592.0833333333334,113.8074074074074,594.5,113.80253968253967C596.9166666666666,113.79767195767195,599.3333333333334,113.79280423280423,601.75,113.78793650793651C604.1666666666666,113.78306878306879,606.5833333333334,113.77820105820105,609,113.77333333333333C611.4166666666666,113.7684656084656,613.8333333333334,113.76359788359788,616.25,113.75873015873016C618.6666666666666,113.75386243386244,621.0833333333334,113.74899470899472,623.5,113.74412698412699C625.9166666666666,113.73925925925927,628.3333333333334,113.73439153439153,630.75,113.72952380952381C633.1666666666666,113.72465608465609,635.5833333333334,113.71978835978835,638,113.71492063492063C640.4166666666666,113.71005291005291,642.8333333333334,113.70518518518519,645.25,113.70031746031746C647.6666666666666,113.69544973544974,650.0833333333334,113.69544973544974,652.5,113.68571428571428C654.9166666666666,113.67597883597882,657.3333333333334,113.08831168831169,659.75,112.78961038961039C662.1666666666666,112.49090909090908,664.5833333333334,112.1922077922078,667,111.8935064935065C669.4166666666666,111.59480519480519,671.8333333333334,111.2961038961039,674.25,110.9974025974026C676.6666666666666,110.6987012987013,679.0833333333334,110.4,681.5,110.1012987012987C683.9166666666666,109.8025974025974,686.3333333333334,109.50389610389611,688.75,109.20519480519481C691.1666666666666,108.9064935064935,693.5833333333334,108.6077922077922,696,108.3090909090909C698.4166666666666,108.0103896103896,700.8333333333334,107.71168831168829,703.25,107.412987012987C705.6666666666666,107.11428571428571,708.0833333333334,106.81558441558442,710.5,106.51688311688312C712.9166666666666,106.21818181818182,715.3333333333334,105.91948051948052,717.75,105.62077922077921C720.1666666666666,105.32207792207791,722.5833333333334,105.02337662337663,725,104.72467532467533C727.4166666666666,104.42597402597403,729.8333333333334,104.12727272727273,732.25,103.82857142857142C734.6666666666666,103.52987012987012,737.0833333333334,103.23116883116883,739.5,102.93246753246754C741.9166666666666,102.63376623376625,744.3333333333334,102.33506493506495,746.75,102.03636363636365C749.1666666666666,101.73766233766234,751.5833333333334,101.43896103896105,754,101.14025974025975C756.4166666666666,100.84155844155845,758.8333333333334,100.54285714285716,761.25,100.24415584415586C763.6666666666666,99.94545454545455,766.0833333333334,99.64675324675325,768.5,99.34805194805195C770.9166666666666,99.04935064935064,773.3333333333334,98.75064935064935,775.75,98.45194805194805C778.1666666666666,98.15324675324675,780.5833333333334,97.85454545454544,783,97.55584415584416C785.4166666666667,97.25714285714285,787.8333333333334,96.95844155844156,790.2500000000001,96.65974025974026C792.6666666666667,96.36103896103896,795.0833333333335,96.06233766233767,797.5000000000001,95.76363636363637C799.9166666666667,95.46493506493506,802.3333333333335,95.16623376623377,804.7500000000001,94.86753246753247C807.1666666666667,94.56883116883117,809.5833333333335,94.27012987012988,812.0000000000001,93.97142857142858C814.4166666666667,93.67272727272729,816.8333333333333,93.37402597402597,819.2499999999999,93.07532467532468C821.6666666666665,92.77662337662338,824.0833333333333,92.47792207792209,826.4999999999999,92.17922077922078C828.9166666666665,91.88051948051948,831.3333333333333,91.58181818181819,833.7499999999999,91.28311688311689C836.1666666666665,90.98441558441559,838.5833333333333,90.68571428571428,840.9999999999999,90.387012987013C843.4166666666666,90.08831168831169,845.8333333333333,89.7896103896104,848.25,89.4909090909091C850.6666666666666,89.1922077922078,853.0833333333334,88.8935064935065,855.5,88.59480519480519C857.9166666666666,88.29610389610389,860.3333333333334,87.9974025974026,862.75,87.6987012987013C865.1666666666666,87.39999999999999,867.5833333333334,87.1012987012987,870,86.8025974025974C872.4166666666666,86.5038961038961,874.8333333333334,86.20519480519481,877.25,85.9064935064935C879.6666666666666,85.6077922077922,882.0833333333334,85.30909090909091,884.5,85.01038961038961C886.9166666666666,84.7116883116883,889.3333333333334,84.41298701298702,891.75,84.11428571428571C894.1666666666666,83.81558441558441,896.5833333333334,83.51688311688312,899,83.21818181818182C901.4166666666666,82.91948051948052,903.8333333333334,82.62077922077923,906.25,82.32207792207792C908.6666666666666,82.02337662337662,911.0833333333334,81.72467532467533,913.5,81.42597402597403C915.9166666666666,81.12727272727273,918.3333333333334,80.82857142857144,920.75,80.52987012987013C923.1666666666666,80.23116883116883,925.5833333333334,79.93246753246754,928,79.63376623376624C930.4166666666666,79.33506493506493,932.8333333333334,79.03636363636365,935.25,78.73766233766234C937.6666666666666,78.43896103896104,940.0833333333334,78.14025974025974,942.5,77.84155844155843C944.9166666666666,77.54285714285713,947.3333333333334,77.24415584415586,949.75,76.94545454545455C952.1666666666666,76.64675324675325,954.5833333333334,76.34805194805195,957,76.04935064935064C959.4166666666666,75.75064935064934,961.8333333333334,75.45194805194805,964.25,75.15324675324676C966.6666666666667,74.85454545454546,969.0833333333334,74.55584415584416,971.5000000000001,74.25714285714285C973.9166666666667,73.95844155844155,976.3333333333335,73.65974025974026,978.7500000000001,73.36103896103896C981.1666666666667,73.06233766233765,983.5833333333335,72.76363636363637,986.0000000000001,72.46493506493506C988.4166666666667,72.16623376623376,990.8333333333335,71.86753246753247,993.2500000000001,71.56883116883117C995.6666666666667,71.27012987012988,998.0833333333333,70.97142857142856,1000.4999999999999,70.67272727272727C1002.9166666666665,70.37402597402597,1005.3333333333333,70.07532467532468,1007.7499999999999,69.77662337662338C1010.1666666666665,69.47792207792207,1012.5833333333333,69.17922077922078,1014.9999999999999,68.88051948051948C1017.4166666666665,68.58181818181818,1019.8333333333333,68.28311688311689,1022.2499999999999,67.98441558441559C1024.6666666666665,67.68571428571428,1027.0833333333333,67.38701298701298,1029.5,67.08831168831168C1031.9166666666667,66.78961038961037,1034.3333333333333,66.4909090909091,1036.75,66.1922077922078C1039.1666666666667,65.8935064935065,1041.5833333333333,65.59480519480519,1044,65.29610389610389C1046.4166666666667,64.99740259740258,1048.8333333333333,64.69870129870131,1051.25,64.4C1053.6666666666667,64.1012987012987,1056.0833333333333,63.80259740259739,1058.5,63.503896103896096C1060.9166666666667,63.2051948051948,1063.3333333333333,62.90649350649351,1065.75,62.607792207792215C1068.1666666666667,62.30909090909092,1070.5833333333333,62.0103896103896,1073,61.711688311688306C1075.4166666666667,61.41298701298701,1077.8333333333333,61.114285714285714,1080.25,60.81558441558442C1082.6666666666667,60.51688311688312,1085.0833333333333,60.21818181818182,1087.5,59.91948051948052C1089.9166666666667,59.62077922077923,1092.3333333333333,59.32207792207793,1094.75,59.02337662337663C1097.1666666666667,58.724675324675324,1099.5833333333333,58.42597402597402,1102,58.12727272727272C1104.4166666666667,57.828571428571415,1106.8333333333333,57.52987012987012,1109.25,57.23116883116882C1111.6666666666667,56.93246753246753,1114.0833333333333,56.63376623376624,1116.5,56.33506493506494C1118.9166666666667,56.036363636363646,1121.3333333333333,55.737662337662336,1123.75,55.43896103896104C1126.1666666666667,55.140259740259744,1128.5833333333333,54.84155844155844,1131,54.542857142857144C1133.4166666666667,54.24415584415585,1135.8333333333333,53.945454545454545,1138.25,53.64675324675325C1140.6666666666667,53.34805194805195,1143.0833333333333,53.04935064935065,1145.5,52.750649350649354C1147.9166666666667,52.45194805194806,1150.3333333333333,52.153246753246755,1152.75,51.85454545454546C1155.1666666666667,51.55584415584416,1157.5833333333333,51.25714285714285,1160,50.95844155844156C1162.4166666666667,50.65974025974026,1164.8333333333333,50.36103896103896,1167.25,50.06233766233766C1169.6666666666667,49.763636363636365,1172.0833333333333,49.46493506493506,1174.5,49.166233766233766C1176.9166666666667,48.86753246753247,1179.3333333333333,48.56883116883118,1181.75,48.270129870129885C1184.1666666666667,47.97142857142859,1186.5833333333333,47.67272727272728,1189,47.374025974025976C1191.4166666666667,47.07532467532467,1193.8333333333333,46.77662337662338,1196.25,46.47792207792208C1198.6666666666667,46.179220779220785,1201.0833333333333,45.880519480519474,1203.5,45.58181818181818C1205.9166666666667,45.28311688311688,1208.3333333333333,44.98441558441558,1210.75,44.68571428571428C1213.1666666666667,44.38701298701299,1215.5833333333333,44.088311688311684,1218,43.78961038961039C1220.4166666666667,43.49090909090909,1222.8333333333333,43.19220779220779,1225.25,42.89350649350649C1227.6666666666667,42.5948051948052,1230.0833333333333,42.29610389610391,1232.5,41.99740259740261C1234.9166666666667,41.698701298701316,1237.3333333333333,41.400000000000006,1239.75,41.1012987012987C1242.1666666666667,40.8025974025974,1244.5833333333333,40.503896103896096,1247,40.2051948051948C1249.4166666666667,39.906493506493504,1251.8333333333333,39.6077922077922,1254.25,39.309090909090905C1256.6666666666667,39.01038961038961,1259.0833333333333,38.711688311688306,1261.5,38.41298701298701C1263.9166666666667,38.114285714285714,1266.3333333333333,37.81558441558441,1268.75,37.516883116883115C1271.1666666666667,37.21818181818182,1273.5833333333333,36.91948051948053,1276,36.620779220779234C1278.4166666666667,36.32207792207794,1280.8333333333333,36.023376623376635,1283.25,35.72467532467533C1285.6666666666667,35.42597402597403,1288.0833333333333,35.12727272727272,1290.5,34.82857142857142C1292.9166666666667,34.529870129870126,1295.3333333333333,34.23116883116884,1297.75,33.93246753246754C1300.1666666666667,33.633766233766245,1302.5833333333333,33.335064935064935,1305,33.03636363636363C1307.4166666666667,32.73766233766233,1309.8333333333333,32.43896103896103,1312.25,32.14025974025974C1314.6666666666667,31.841558441558437,1317.0833333333333,31.542857142857134,1319.5,31.244155844155838C1321.9166666666667,30.94545454545454,1324.3333333333333,30.646753246753256,1326.75,30.348051948051957C1329.1666666666667,30.049350649350657,1331.5833333333333,29.750649350649347,1334,29.451948051948047C1336.4166666666667,29.153246753246748,1338.8333333333333,28.85454545454546,1341.25,28.555844155844163C1343.6666666666667,28.257142857142867,1346.0833333333333,27.958441558441567,1348.5,27.659740259740268C1350.9166666666667,27.361038961038968,1353.3333333333333,27.062337662337658,1355.75,26.76363636363636C1358.1666666666667,26.46493506493506,1360.5833333333333,26.166233766233756,1363,25.86753246753246C1365.4166666666667,25.568831168831164,1367.8333333333333,25.27012987012987,1370.25,24.97142857142858C1372.6666666666667,24.672727272727286,1375.0833333333333,24.374025974025994,1377.5,24.075324675324694C1379.9166666666667,23.776623376623395,1382.3333333333333,23.477922077922088,1384.75,23.179220779220785C1387.1666666666667,22.88051948051948,1389.5833333333333,22.581818181818175,1392,22.283116883116875C1394.4166666666667,21.984415584415576,1396.8333333333333,21.685714285714276,1399.25,21.38701298701298C1401.6666666666667,21.088311688311684,1404.0833333333333,20.789610389610395,1406.5,20.490909090909096C1408.9166666666667,20.192207792207796,1411.3333333333333,19.893506493506486,1413.75,19.594805194805186C1416.1666666666667,19.296103896103887,1418.5833333333333,18.997402597402587,1421,18.69870129870129C1423.4166666666667,18.399999999999995,1425.8333333333333,18.101298701298706,1428.25,17.802597402597407C1430.6666666666667,17.503896103896107,1433.0833333333333,17.205194805194797,1435.5,16.906493506493497C1437.9166666666667,16.607792207792198,1440.3333333333333,16.30909090909091,1442.75,16.010389610389613C1445.1666666666667,15.711688311688317,1447.5833333333333,15.412987012987017,1450,15.114285714285717" fill="transparent" stroke-linecap="round" stroke="#B6509E" stroke-width="2"></path><path class="visx-linepath" d="M0,111.71428571427111C2.4166666666666665,111.71185185184333,4.833333333333334,111.70941798941556,7.25,111.70698412698412C9.666666666666666,111.7045502645527,12.083333333333334,111.7021164021164,14.5,111.69968253968254C16.916666666666668,111.69724867724868,19.333333333333332,111.69481481481482,21.75,111.69238095238096C24.166666666666668,111.6899470899471,26.583333333333332,111.68751322751322,29,111.68507936507936C31.416666666666668,111.6826455026455,33.833333333333336,111.68021164021164,36.25,111.67777777777778C38.666666666666664,111.67534391534392,41.083333333333336,111.67291005291005,43.5,111.6704761904762C45.91666666666667,111.66804232804233,48.333333333333336,111.66560846560846,50.75000000000001,111.6631746031746C53.16666666666667,111.66074074074074,55.583333333333336,111.65830687830689,58,111.65587301587303C60.416666666666664,111.65343915343917,62.833333333333336,111.65100529100529,65.25,111.64857142857143C67.66666666666667,111.64613756613757,70.08333333333333,111.6437037037037,72.5,111.64126984126983C74.91666666666667,111.63883597883597,77.33333333333333,111.63640211640212,79.75,111.63396825396826C82.16666666666667,111.6315343915344,84.58333333333333,111.62910052910053,87,111.62666666666667C89.41666666666667,111.6242328042328,91.83333333333333,111.62179894179894,94.25,111.61936507936508C96.66666666666667,111.61693121693122,99.08333333333334,111.61449735449736,101.50000000000001,111.6120634920635C103.91666666666667,111.60962962962964,106.33333333333334,111.60719576719576,108.75,111.6047619047619C111.16666666666667,111.60232804232804,113.58333333333333,111.59989417989418,116,111.59746031746032C118.41666666666667,111.59502645502646,120.83333333333334,111.59259259259258,123.25000000000001,111.59015873015872C125.66666666666667,111.58772486772486,128.08333333333334,111.58529100529101,130.5,111.58285714285715C132.91666666666666,111.58042328042329,135.33333333333334,111.57798941798941,137.75,111.57555555555555C140.16666666666666,111.57312169312169,142.58333333333334,111.57068783068782,145,111.56825396825396C147.41666666666666,111.5658201058201,149.83333333333334,111.56338624338625,152.25,111.56095238095239C154.66666666666666,111.55851851851853,157.08333333333334,111.55608465608465,159.5,111.55365079365079C161.91666666666666,111.55121693121693,164.33333333333334,111.54878306878307,166.75,111.5463492063492C169.16666666666666,111.54391534391534,171.58333333333334,111.54148148148148,174,111.53904761904762C176.41666666666666,111.53661375661376,178.83333333333334,111.53417989417989,181.25,111.53174603174602C183.66666666666666,111.52931216931216,186.08333333333334,111.5268783068783,188.5,111.52444444444444C190.91666666666666,111.52201058201058,193.33333333333334,111.51957671957672,195.75,111.51714285714286C198.16666666666669,111.514708994709,200.58333333333334,111.51227513227514,203.00000000000003,111.50984126984127C205.41666666666669,111.50740740740741,207.83333333333331,111.50497354497354,210.24999999999997,111.50253968253968C212.66666666666666,111.50010582010582,215.08333333333331,111.49767195767195,217.5,111.4952380952381C219.91666666666666,111.49280423280423,222.33333333333334,111.49037037037037,224.75,111.48793650793651C227.16666666666666,111.48550264550265,229.58333333333334,111.48306878306877,232,111.48063492063491C234.41666666666666,111.47820105820105,236.83333333333334,111.4757671957672,239.25,111.47333333333334C241.66666666666669,111.47089947089948,244.08333333333334,111.4684656084656,246.50000000000003,111.46603174603175C248.91666666666669,111.46359788359788,251.33333333333331,111.46116402116402,253.74999999999997,111.45873015873016C256.16666666666663,111.4562962962963,258.5833333333333,111.45386243386243,261,111.45142857142856C263.4166666666667,111.4489947089947,265.8333333333333,111.44656084656084,268.25,111.44412698412698C270.6666666666667,111.44169312169312,273.0833333333333,111.43925925925926,275.5,111.4368253968254C277.9166666666667,111.43439153439154,280.3333333333333,111.43195767195768,282.75,111.42952380952381C285.1666666666667,111.42708994708995,287.5833333333333,111.42465608465609,290,111.42222222222223C292.4166666666667,111.41978835978837,294.8333333333333,111.4173544973545,297.25,111.41492063492063C299.6666666666667,111.41248677248677,302.0833333333333,111.4100529100529,304.5,111.40761904761904C306.9166666666667,111.40518518518518,309.3333333333333,111.40275132275133,311.75,111.40031746031747C314.1666666666667,111.3978835978836,316.5833333333333,111.39544973544973,319,111.39301587301587C321.4166666666667,111.39058201058201,323.8333333333333,111.38814814814815,326.25,111.38571428571429C328.6666666666667,111.38328042328042,331.0833333333333,111.38084656084656,333.5,111.3784126984127C335.9166666666667,111.37597883597884,338.3333333333333,111.37354497354497,340.75,111.3711111111111C343.1666666666667,111.36867724867724,345.5833333333333,111.36624338624338,348,111.36380952380952C350.4166666666667,111.36137566137566,352.8333333333333,111.3589417989418,355.25,111.35650793650794C357.6666666666667,111.35407407407408,360.0833333333333,111.35164021164022,362.5,111.34920634920636C364.9166666666667,111.3467724867725,367.3333333333333,111.34433862433862,369.75,111.34190476190476C372.1666666666667,111.3394708994709,374.5833333333333,111.33703703703704,377,111.33460317460317C379.4166666666667,111.33216931216931,381.8333333333333,111.32973544973545,384.25,111.32730158730159C386.6666666666667,111.32486772486773,389.0833333333333,111.32243386243385,391.5,111.32C393.9166666666667,111.31756613756613,396.33333333333337,111.31513227513229,398.75000000000006,111.31269841269842C401.16666666666674,111.31026455026456,403.58333333333337,111.30783068783069,406.00000000000006,111.30539682539683C408.4166666666667,111.30296296296297,410.8333333333333,111.30052910052909,413.24999999999994,111.29809523809523C415.66666666666663,111.29566137566137,418.08333333333326,111.29322751322752,420.49999999999994,111.29079365079366C422.91666666666663,111.2883597883598,425.3333333333333,111.28592592592592,427.75,111.28349206349206C430.1666666666667,111.2810582010582,432.5833333333333,111.27862433862434,435,111.27619047619048C437.4166666666667,111.27375661375662,439.8333333333333,111.27132275132274,442.25,111.26888888888888C444.6666666666667,111.26645502645502,447.0833333333333,111.26402116402116,449.5,111.2615873015873C451.9166666666667,111.25915343915344,454.3333333333333,111.25671957671958,456.75,111.25428571428571C459.1666666666667,111.25185185185185,461.5833333333333,111.24941798941798,464,111.24698412698412C466.4166666666667,111.24455026455026,468.8333333333333,111.24211640211641,471.25,111.23968253968255C473.6666666666667,111.23724867724869,476.0833333333333,111.23481481481481,478.5,111.23238095238095C480.9166666666667,111.22994708994709,483.33333333333337,111.22751322751323,485.75000000000006,111.22507936507937C488.16666666666674,111.2226455026455,490.58333333333337,111.22021164021164,493.00000000000006,111.21777777777778C495.4166666666667,111.21534391534392,497.8333333333333,111.21291005291005,500.24999999999994,111.21047619047619C502.66666666666663,111.20804232804232,505.08333333333326,111.20560846560846,507.49999999999994,111.2031746031746C509.91666666666663,111.20074074074074,512.3333333333333,111.19830687830688,514.75,111.19587301587302C517.1666666666666,111.19343915343916,519.5833333333334,111.1910052910053,522,111.18857142857144C524.4166666666666,111.18613756613757,526.8333333333334,111.1837037037037,529.25,111.18126984126984C531.6666666666666,111.17883597883598,534.0833333333334,111.17640211640212,536.5,111.17396825396825C538.9166666666666,111.1715343915344,541.3333333333334,111.16910052910053,543.75,111.16666666666667C546.1666666666666,111.16423280423281,548.5833333333334,111.16179894179893,551,111.15936507936507C553.4166666666666,111.15693121693121,555.8333333333334,111.15449735449735,558.25,111.15206349206349C560.6666666666666,111.14962962962963,563.0833333333334,111.14719576719577,565.5,111.1447619047619C567.9166666666666,111.14232804232805,570.3333333333334,111.13989417989417,572.75,111.13746031746031C575.1666666666666,111.13502645502645,577.5833333333334,111.1325925925926,580,111.13015873015874C582.4166666666666,111.12772486772488,584.8333333333334,111.125291005291,587.25,111.12285714285714C589.6666666666666,111.12042328042328,592.0833333333334,111.11798941798942,594.5,111.11555555555556C596.9166666666666,111.1131216931217,599.3333333333334,111.11068783068782,601.75,111.10825396825396C604.1666666666666,111.1058201058201,606.5833333333334,111.10338624338624,609,111.10095238095238C611.4166666666666,111.09851851851852,613.8333333333334,111.09608465608466,616.25,111.0936507936508C618.6666666666666,111.09121693121693,621.0833333333334,111.08878306878306,623.5,111.0863492063492C625.9166666666666,111.08391534391534,628.3333333333334,111.08148148148149,630.75,111.07904761904763C633.1666666666666,111.07661375661377,635.5833333333334,111.07417989417989,638,111.07174603174603C640.4166666666666,111.06931216931217,642.8333333333334,111.0668783068783,645.25,111.06444444444443C647.6666666666666,111.06201058201057,650.0833333333334,111.06201058201057,652.5,111.05714285714286C654.9166666666666,111.05227513227516,657.3333333333334,110.9077922077922,659.75,110.83311688311687C662.1666666666666,110.75844155844155,664.5833333333334,110.68376623376624,667,110.60909090909091C669.4166666666666,110.53441558441558,671.8333333333334,110.45974025974026,674.25,110.38506493506493C676.6666666666666,110.3103896103896,679.0833333333334,110.2357142857143,681.5,110.16103896103897C683.9166666666666,110.08636363636364,686.3333333333334,110.0116883116883,688.75,109.93701298701298C691.1666666666666,109.86233766233765,693.5833333333334,109.78766233766234,696,109.71298701298701C698.4166666666666,109.63831168831169,700.8333333333334,109.56363636363636,703.25,109.48896103896104C705.6666666666666,109.41428571428571,708.0833333333334,109.3396103896104,710.5,109.26493506493507C712.9166666666666,109.19025974025975,715.3333333333334,109.11558441558442,717.75,109.0409090909091C720.1666666666666,108.96623376623377,722.5833333333334,108.89155844155844,725,108.81688311688312C727.4166666666666,108.7422077922078,729.8333333333334,108.66753246753247,732.25,108.59285714285714C734.6666666666666,108.51818181818182,737.0833333333334,108.4435064935065,739.5,108.36883116883118C741.9166666666666,108.29415584415585,744.3333333333334,108.21948051948053,746.75,108.1448051948052C749.1666666666666,108.07012987012988,751.5833333333334,107.99545454545455,754,107.92077922077922C756.4166666666666,107.8461038961039,758.8333333333334,107.77142857142857,761.25,107.69675324675325C763.6666666666666,107.62207792207792,766.0833333333334,107.5474025974026,768.5,107.47272727272727C770.9166666666666,107.39805194805194,773.3333333333334,107.32337662337663,775.75,107.2487012987013C778.1666666666666,107.17402597402598,780.5833333333334,107.09935064935064,783,107.02467532467531C785.4166666666667,106.94999999999999,787.8333333333334,106.87532467532468,790.2500000000001,106.80064935064935C792.6666666666667,106.72597402597403,795.0833333333335,106.6512987012987,797.5000000000001,106.57662337662337C799.9166666666667,106.50194805194805,802.3333333333335,106.42727272727272,804.7500000000001,106.3525974025974C807.1666666666667,106.27792207792207,809.5833333333335,106.20324675324675,812.0000000000001,106.12857142857142C814.4166666666667,106.0538961038961,816.8333333333333,105.97922077922078,819.2499999999999,105.90454545454546C821.6666666666665,105.82987012987013,824.0833333333333,105.7551948051948,826.4999999999999,105.68051948051948C828.9166666666665,105.60584415584415,831.3333333333333,105.53116883116884,833.7499999999999,105.45649350649352C836.1666666666665,105.38181818181819,838.5833333333333,105.30714285714285,840.9999999999999,105.23246753246752C843.4166666666666,105.1577922077922,845.8333333333333,105.08311688311689,848.25,105.00844155844156C850.6666666666666,104.93376623376624,853.0833333333334,104.85909090909091,855.5,104.78441558441558C857.9166666666666,104.70974025974026,860.3333333333334,104.63506493506495,862.75,104.56038961038962C865.1666666666666,104.4857142857143,867.5833333333334,104.41103896103895,870,104.33636363636363C872.4166666666666,104.2616883116883,874.8333333333334,104.18701298701299,877.25,104.11233766233767C879.6666666666666,104.03766233766234,882.0833333333334,103.96298701298701,884.5,103.88831168831169C886.9166666666666,103.81363636363636,889.3333333333334,103.73896103896105,891.75,103.66428571428573C894.1666666666666,103.5896103896104,896.5833333333334,103.51493506493507,899,103.44025974025975C901.4166666666666,103.36558441558442,903.8333333333334,103.2909090909091,906.25,103.21623376623377C908.6666666666666,103.14155844155844,911.0833333333334,103.06688311688312,913.5,102.9922077922078C915.9166666666666,102.91753246753247,918.3333333333334,102.84285714285714,920.75,102.76818181818182C923.1666666666666,102.69350649350649,925.5833333333334,102.61883116883116,928,102.54415584415584C930.4166666666666,102.46948051948051,932.8333333333334,102.39480519480519,935.25,102.32012987012986C937.6666666666666,102.24545454545454,940.0833333333334,102.17077922077922,942.5,102.0961038961039C944.9166666666666,102.02142857142857,947.3333333333334,101.94675324675325,949.75,101.87207792207792C952.1666666666666,101.7974025974026,954.5833333333334,101.72272727272727,957,101.64805194805194C959.4166666666666,101.57337662337662,961.8333333333334,101.49870129870129,964.25,101.42402597402597C966.6666666666667,101.34935064935064,969.0833333333334,101.27467532467533,971.5000000000001,101.2C973.9166666666667,101.12532467532468,976.3333333333335,101.05064935064935,978.7500000000001,100.97597402597403C981.1666666666667,100.9012987012987,983.5833333333335,100.82662337662337,986.0000000000001,100.75194805194805C988.4166666666667,100.67727272727272,990.8333333333335,100.6025974025974,993.2500000000001,100.52792207792207C995.6666666666667,100.45324675324675,998.0833333333333,100.37857142857143,1000.4999999999999,100.30389610389611C1002.9166666666665,100.22922077922078,1005.3333333333333,100.15454545454546,1007.7499999999999,100.07987012987013C1010.1666666666665,100.0051948051948,1012.5833333333333,99.9305194805195,1014.9999999999999,99.85584415584417C1017.4166666666665,99.78116883116884,1019.8333333333333,99.7064935064935,1022.2499999999999,99.63181818181818C1024.6666666666665,99.55714285714285,1027.0833333333333,99.48246753246754,1029.5,99.40779220779221C1031.9166666666667,99.33311688311689,1034.3333333333333,99.25844155844156,1036.75,99.18376623376624C1039.1666666666667,99.10909090909091,1041.5833333333333,99.0344155844156,1044,98.95974025974027C1046.4166666666667,98.88506493506495,1048.8333333333333,98.8103896103896,1051.25,98.73571428571428C1053.6666666666667,98.66103896103895,1056.0833333333333,98.58636363636364,1058.5,98.51168831168832C1060.9166666666667,98.43701298701299,1063.3333333333333,98.36233766233767,1065.75,98.28766233766234C1068.1666666666667,98.21298701298701,1070.5833333333333,98.13831168831169,1073,98.06363636363636C1075.4166666666667,97.98896103896104,1077.8333333333333,97.91428571428573,1080.25,97.8396103896104C1082.6666666666667,97.76493506493507,1085.0833333333333,97.69025974025973,1087.5,97.61558441558441C1089.9166666666667,97.54090909090908,1092.3333333333333,97.46623376623377,1094.75,97.39155844155844C1097.1666666666667,97.31688311688312,1099.5833333333333,97.24220779220778,1102,97.16753246753245C1104.4166666666667,97.09285714285713,1106.8333333333333,97.01818181818182,1109.25,96.94350649350649C1111.6666666666667,96.86883116883116,1114.0833333333333,96.79415584415584,1116.5,96.71948051948051C1118.9166666666667,96.64480519480519,1121.3333333333333,96.57012987012988,1123.75,96.49545454545455C1126.1666666666667,96.42077922077922,1128.5833333333333,96.3461038961039,1131,96.27142857142857C1133.4166666666667,96.19675324675325,1135.8333333333333,96.12207792207793,1138.25,96.04740259740261C1140.6666666666667,95.97272727272728,1143.0833333333333,95.89805194805194,1145.5,95.82337662337662C1147.9166666666667,95.74870129870129,1150.3333333333333,95.67402597402598,1152.75,95.59935064935065C1155.1666666666667,95.52467532467533,1157.5833333333333,95.45,1160,95.37532467532468C1162.4166666666667,95.30064935064935,1164.8333333333333,95.22597402597403,1167.25,95.1512987012987C1169.6666666666667,95.07662337662337,1172.0833333333333,95.00194805194805,1174.5,94.92727272727272C1176.9166666666667,94.8525974025974,1179.3333333333333,94.77792207792209,1181.75,94.70324675324676C1184.1666666666667,94.62857142857143,1186.5833333333333,94.55389610389611,1189,94.47922077922078C1191.4166666666667,94.40454545454546,1193.8333333333333,94.32987012987014,1196.25,94.25519480519482C1198.6666666666667,94.1805194805195,1201.0833333333333,94.10584415584415,1203.5,94.03116883116883C1205.9166666666667,93.9564935064935,1208.3333333333333,93.88181818181819,1210.75,93.80714285714286C1213.1666666666667,93.73246753246754,1215.5833333333333,93.6577922077922,1218,93.58311688311687C1220.4166666666667,93.50844155844155,1222.8333333333333,93.43376623376624,1225.25,93.35909090909091C1227.6666666666667,93.28441558441558,1230.0833333333333,93.20974025974026,1232.5,93.13506493506493C1234.9166666666667,93.0603896103896,1237.3333333333333,92.9857142857143,1239.75,92.91103896103897C1242.1666666666667,92.83636363636364,1244.5833333333333,92.76168831168832,1247,92.68701298701299C1249.4166666666667,92.61233766233767,1251.8333333333333,92.53766233766234,1254.25,92.46298701298701C1256.6666666666667,92.38831168831169,1259.0833333333333,92.31363636363636,1261.5,92.23896103896104C1263.9166666666667,92.16428571428571,1266.3333333333333,92.08961038961039,1268.75,92.01493506493506C1271.1666666666667,91.94025974025973,1273.5833333333333,91.86558441558441,1276,91.79090909090908C1278.4166666666667,91.71623376623376,1280.8333333333333,91.64155844155843,1283.25,91.5668831168831C1285.6666666666667,91.49220779220778,1288.0833333333333,91.41753246753247,1290.5,91.34285714285714C1292.9166666666667,91.26818181818182,1295.3333333333333,91.19350649350649,1297.75,91.11883116883116C1300.1666666666667,91.04415584415584,1302.5833333333333,90.96948051948053,1305,90.8948051948052C1307.4166666666667,90.82012987012988,1309.8333333333333,90.74545454545455,1312.25,90.67077922077922C1314.6666666666667,90.5961038961039,1317.0833333333333,90.52142857142857,1319.5,90.44675324675325C1321.9166666666667,90.37207792207792,1324.3333333333333,90.2974025974026,1326.75,90.22272727272727C1329.1666666666667,90.14805194805194,1331.5833333333333,90.07337662337663,1334,89.9987012987013C1336.4166666666667,89.92402597402598,1338.8333333333333,89.84935064935065,1341.25,89.77467532467533C1343.6666666666667,89.7,1346.0833333333333,89.62532467532468,1348.5,89.55064935064935C1350.9166666666667,89.47597402597403,1353.3333333333333,89.4012987012987,1355.75,89.32662337662337C1358.1666666666667,89.25194805194805,1360.5833333333333,89.17727272727274,1363,89.10259740259741C1365.4166666666667,89.02792207792209,1367.8333333333333,88.95324675324676,1370.25,88.87857142857143C1372.6666666666667,88.80389610389611,1375.0833333333333,88.7292207792208,1377.5,88.65454545454547C1379.9166666666667,88.57987012987014,1382.3333333333333,88.5051948051948,1384.75,88.43051948051948C1387.1666666666667,88.35584415584415,1389.5833333333333,88.28116883116884,1392,88.20649350649352C1394.4166666666667,88.13181818181819,1396.8333333333333,88.05714285714286,1399.25,87.98246753246754C1401.6666666666667,87.90779220779221,1404.0833333333333,87.83311688311689,1406.5,87.75844155844156C1408.9166666666667,87.68376623376624,1411.3333333333333,87.60909090909091,1413.75,87.53441558441558C1416.1666666666667,87.45974025974026,1418.5833333333333,87.38506493506493,1421,87.3103896103896C1423.4166666666667,87.23571428571428,1425.8333333333333,87.16103896103897,1428.25,87.08636363636364C1430.6666666666667,87.01168831168832,1433.0833333333333,86.93701298701299,1435.5,86.86233766233767C1437.9166666666667,86.78766233766234,1440.3333333333333,86.71298701298701,1442.75,86.63831168831169C1445.1666666666667,86.56363636363636,1447.5833333333333,86.48896103896104,1450,86.41428571428571" fill="transparent" stroke-linecap="round" stroke="#E7C6DF" stroke-width="2"></path><g class="visx-group visx-axis visx-axis-bottom" transform="translate(0, 115)"><g class="visx-group visx-axis-tick" transform="translate(0, 0)"><line class="visx-line" x1="0" y1="0" x2="0" y2="8" fill="transparent" shape-rendering="crispEdges" stroke="#000" stroke-width="0" stroke-linecap="square"></line><svg x="0" y="0" font-size="10" style="overflow:visible"><text transform="" x="0" y="18" fill="#000" font-size="10" text-anchor="middle"><tspan x="0" dy="0em">0%</tspan></text></svg></g><g class="visx-group visx-axis-tick" transform="translate(0, 0)"><line class="visx-line" x1="362.5" y1="0" x2="362.5" y2="8" fill="transparent" shape-rendering="crispEdges" stroke="#000" stroke-width="0" stroke-linecap="square"></line><svg x="0" y="0" font-size="10" style="overflow:visible"><text transform="" x="362.5" y="18" fill="#000" font-size="10" text-anchor="middle"><tspan x="362.5" dy="0em">25%</tspan></text></svg></g><g class="visx-group visx-axis-tick" transform="translate(0, 0)"><line class="visx-line" x1="725" y1="0" x2="725" y2="8" fill="transparent" shape-rendering="crispEdges" stroke="#000" stroke-width="0" stroke-linecap="square"></line><svg x="0" y="0" font-size="10" style="overflow:visible"><text transform="" x="725" y="18" fill="#000" font-size="10" text-anchor="middle"><tspan x="725" dy="0em">50%</tspan></text></svg></g><g class="visx-group visx-axis-tick" transform="translate(0, 0)"><line class="visx-line" x1="1087.5" y1="0" x2="1087.5" y2="8" fill="transparent" shape-rendering="crispEdges" stroke="#000" stroke-width="0" stroke-linecap="square"></line><svg x="0" y="0" font-size="10" style="overflow:visible"><text transform="" x="1087.5" y="18" fill="#000" font-size="10" text-anchor="middle"><tspan x="1087.5" dy="0em">75%</tspan></text></svg></g><g class="visx-group visx-axis-tick" transform="translate(0, 0)"><line class="visx-line" x1="1450" y1="0" x2="1450" y2="8" fill="transparent" shape-rendering="crispEdges" stroke="#000" stroke-width="0" stroke-linecap="square"></line><svg x="0" y="0" font-size="10" style="overflow:visible"><text transform="" x="1450" y="18" fill="#000" font-size="10" text-anchor="middle"><tspan x="1450" dy="0em">100%</tspan></text></svg></g><line class="visx-line visx-axis-line" x1="0.5" y1="0" x2="1450.5" y2="0" fill="transparent" shape-rendering="crispEdges" stroke="#222" stroke-width="0"></line></g><g class="visx-group visx-axis visx-axis-left" transform="translate(0, 0)"><g class="visx-group visx-axis-tick" transform="translate(0, 0)"><line class="visx-line" x1="0" y1="115" x2="-8" y2="115" fill="transparent" shape-rendering="crispEdges" stroke="#222" stroke-width="0" stroke-linecap="square"></line><svg x="-30" y="0" font-size="8" style="overflow:visible"><text transform="" x="-8" y="115" fill="#000" font-size="8" text-anchor="start"><tspan x="-8" dy="0em">0%</tspan></text></svg></g><g class="visx-group visx-axis-tick" transform="translate(0, 0)"><line class="visx-line" x1="0" y1="49.28571428571429" x2="-8" y2="49.28571428571429" fill="transparent" shape-rendering="crispEdges" stroke="#222" stroke-width="0" stroke-linecap="square"></line><svg x="-30" y="0" font-size="8" style="overflow:visible"><text transform="" x="-8" y="49.28571428571429" fill="#000" font-size="8" text-anchor="start"><tspan x="-8" dy="0em">200%</tspan></text></svg></g><line class="visx-line visx-axis-line" x1="0" y1="115.5" x2="0" y2="0.5" fill="transparent" shape-rendering="crispEdges" stroke="#222" stroke-width="0"></line></g><rect class="visx-bar" width="1450" height="115" fill="transparent"></rect><line class="visx-line" x1="652.5" y1="28" x2="652.5" y2="115" fill="transparent" shape-rendering="crispEdges" stroke="#0062D2" stroke-width="1" pointer-events="none" stroke-dasharray="5,2"></line><svg x="0" y="0" font-size="10px" style="overflow:visible"><text transform="" x="652.5" y="20" font-size="10px" fill="#fff" stroke="#fff" stroke-width="0.8em" text-anchor="middle"><tspan x="652.5" dy="0.355em">Optimal 45%</tspan></text></svg><svg x="0" y="0" font-size="10px" style="overflow:visible"><text transform="" x="652.5" y="20" font-size="10px" fill="#62677B" text-anchor="middle"><tspan x="652.5" dy="0.355em">Optimal 45%</tspan></text></svg></g></svg>