<?xml version="1.0"?><svg xmlns="http://www.w3.org/2000/svg" xmlns:xlink= "http://www.w3.org/1999/xlink" style="background: white;" width="1500" height="300"> <g style="color: black; font-size: 13px; font-family: sans-serif; transform: translate(18px, 25px);"><g><circle r="3" cx="-6" cy="-5" style="fill: #1AD4B3" /><text>Borrow APR, variable</text></g><g style="transform: translateX(150px);"><circle r="3" cx="-6" cy="-5" style="fill: #101423" /><text>Borrow APR, stable</text></g></g><g class="visx-group" transform="translate(45, 50)"><g class="visx-group visx-rows" transform="translate(0, 0)"><line class="visx-line" x1="0" y1="155" x2="1425" y2="155" fill="transparent" shape-rendering="crispEdges" stroke="#F2F0F9" stroke-width="1" pointer-events="none"></line><line class="visx-line" x1="0" y1="77.5" x2="1425" y2="77.5" fill="transparent" shape-rendering="crispEdges" stroke="#F2F0F9" stroke-width="1" pointer-events="none"></line><line class="visx-line" x1="0" y1="0" x2="1425" y2="0" fill="transparent" shape-rendering="crispEdges" stroke="#F2F0F9" stroke-width="1" pointer-events="none"></line></g><path class="visx-linepath" d="M0,153.4499999999535C2.375,153.44224999997286,4.75,153.43449999999225,7.125,153.42675C9.5,153.41900000000774,11.875,153.41125,14.25,153.4035C16.625,153.39575000000002,19,153.38800000000003,21.375,153.38025000000002C23.75,153.3725,26.125,153.36475000000002,28.5,153.357C30.875,153.34924999999998,33.25,153.3415,35.625,153.33374999999998C38,153.32599999999996,40.375,153.31824999999998,42.75,153.3105C45.125,153.30275,47.50000000000001,153.295,49.87500000000001,153.28725C52.25000000000001,153.2795,54.625,153.27175,57,153.264C59.375,153.25625,61.75,153.24849999999998,64.125,153.24075C66.5,153.233,68.875,153.22525000000002,71.25,153.2175C73.625,153.20974999999999,76,153.202,78.375,153.19424999999998C80.75,153.18649999999997,83.125,153.17874999999998,85.5,153.171C87.875,153.16325,90.25,153.1555,92.625,153.14775C95,153.14000000000001,97.37500000000001,153.13225000000003,99.75000000000001,153.1245C102.12500000000001,153.11675000000002,104.5,153.10899999999998,106.875,153.10125C109.25,153.09349999999998,111.625,153.08575,114,153.078C116.375,153.07025000000002,118.75000000000001,153.06250000000003,121.12500000000001,153.05475C123.50000000000001,153.04700000000003,125.875,153.03924999999998,128.25,153.0315C130.625,153.02374999999998,133,153.01600000000002,135.375,153.00825C137.75,153.0005,140.125,152.99275,142.5,152.98499999999999C144.875,152.97724999999997,147.25,152.96949999999998,149.625,152.96175C152,152.954,154.375,152.94625,156.75,152.9385C159.125,152.93075000000002,161.5,152.923,163.875,152.91525000000001C166.25,152.90750000000003,168.625,152.89974999999998,171,152.892C173.375,152.88425,175.75,152.87650000000002,178.125,152.86875C180.5,152.861,182.875,152.85325,185.25,152.8455C187.625,152.83774999999997,190,152.82999999999998,192.375,152.82225C194.75,152.8145,197.12500000000003,152.80675,199.50000000000003,152.799C201.875,152.79125000000002,204.25,152.7835,206.62499999999997,152.77575000000002C208.99999999999997,152.768,211.375,152.76025,213.75,152.7525C216.125,152.74474999999998,218.5,152.73699999999997,220.875,152.72924999999998C223.25,152.7215,225.625,152.71374999999998,228,152.706C230.375,152.69825,232.75,152.6905,235.125,152.68275C237.5,152.675,239.87500000000003,152.66725000000002,242.25000000000003,152.6595C244.625,152.65175000000002,247,152.64399999999998,249.37499999999997,152.63625C251.74999999999997,152.62849999999997,254.125,152.62075,256.5,152.613C258.875,152.60525,261.25,152.59750000000003,263.625,152.58975C266,152.582,268.375,152.57425,270.75,152.5665C273.125,152.55874999999997,275.5,152.551,277.875,152.54325C280.25,152.5355,282.625,152.52775000000003,285,152.52C287.375,152.51225,289.75,152.5045,292.125,152.49675C294.5,152.48899999999998,296.875,152.48125,299.25,152.4735C301.625,152.46575,304,152.458,306.375,152.45025C308.75,152.44250000000002,311.125,152.43475,313.5,152.42700000000002C315.875,152.41925000000003,318.25,152.41150000000002,320.625,152.40375C323,152.396,325.375,152.38824999999997,327.75,152.38049999999998C330.125,152.37275,332.5,152.36499999999998,334.875,152.35725C337.25,152.3495,339.625,152.34175,342,152.334C344.375,152.32625000000002,346.75,152.31850000000003,349.125,152.31075C351.5,152.303,353.875,152.29525,356.25,152.2875C358.625,152.27974999999998,361,152.272,363.375,152.26425C365.75,152.25650000000002,368.125,152.24874999999997,370.5,152.24099999999999C372.875,152.23325,375.25,152.22549999999998,377.625,152.21775C380,152.21,382.375,152.20225,384.75,152.1945C387.125,152.18675000000002,389.50000000000006,152.17900000000003,391.87500000000006,152.17125000000001C394.25000000000006,152.16350000000003,396.62500000000006,152.15575,399.00000000000006,152.148C401.375,152.14025,403.75,152.1325,406.12499999999994,152.12475C408.49999999999994,152.117,410.87499999999994,152.10924999999997,413.24999999999994,152.1015C415.62499999999994,152.09374999999997,418,152.08599999999998,420.375,152.07825C422.75,152.0705,425.125,152.06275,427.5,152.055C429.875,152.04725000000002,432.25,152.03949999999998,434.625,152.03175C437,152.024,439.375,152.01624999999999,441.75,152.0085C444.125,152.00075,446.5,151.993,448.875,151.98525C451.25,151.97750000000002,453.625,151.96975000000003,456,151.96200000000002C458.375,151.95425,460.75,151.94650000000001,463.125,151.93875C465.5,151.93099999999998,467.875,151.92325,470.25,151.9155C472.625,151.90775,475.00000000000006,151.9,477.37500000000006,151.89225C479.75000000000006,151.8845,482.12500000000006,151.87675,484.50000000000006,151.869C486.875,151.86125,489.25,151.8535,491.62499999999994,151.84575C493.99999999999994,151.83800000000002,496.37499999999994,151.83025,498.74999999999994,151.82250000000002C501.12499999999994,151.81475,503.5,151.80700000000002,505.875,151.79925C508.25,151.79149999999998,510.625,151.78375,513,151.77599999999998C515.375,151.76824999999997,517.75,151.76049999999998,520.125,151.75275C522.5,151.745,524.875,151.73725,527.25,151.7295C529.625,151.72175000000001,532,151.714,534.375,151.70625C536.75,151.69850000000002,539.125,151.69074999999998,541.5,151.683C543.875,151.67525,546.25,151.66750000000002,548.625,151.65975C551,151.652,553.375,151.64425,555.75,151.63649999999998C558.125,151.62874999999997,560.5,151.62099999999998,562.875,151.61325C565.25,151.6055,567.625,151.59775,570,151.59C572.375,151.58225000000002,574.75,151.5745,577.125,151.56675C579.5,151.55900000000003,581.875,151.55124999999998,584.25,151.5435C586.625,151.53575,589,151.528,591.375,151.52025C593.75,151.51250000000002,596.125,151.50475,598.5,151.497C600.875,151.48925000000003,603.25,151.48149999999998,605.625,151.47375C608,151.466,610.375,151.45825000000002,612.75,151.4505C615.125,151.44275,617.5,151.435,619.875,151.42725C622.25,151.41949999999997,624.625,151.41174999999998,627,151.404C629.375,151.39625,631.75,151.3885,634.125,151.38075C636.5,151.37300000000002,638.875,151.36525,641.25,151.35750000000002C643.625,151.34975000000003,646,151.34199999999998,648.375,151.33425C650.75,151.3265,653.125,151.31875000000002,655.5,151.311C657.875,151.30325,660.25,151.2955,662.625,151.28775C665,151.27999999999997,667.375,151.27224999999999,669.75,151.2645C672.125,151.25675,674.5,151.249,676.875,151.24125C679.25,151.23350000000002,681.625,151.22575,684,151.21800000000002C686.375,151.21025000000003,688.75,151.2025,691.125,151.19475C693.5,151.187,695.875,151.17925000000002,698.25,151.1715C700.625,151.16375,703,151.156,705.375,151.14825C707.75,151.14049999999997,710.125,151.13275,712.5,151.125C714.875,151.11725,717.25,151.10950000000003,719.625,151.10175C722,151.094,724.375,151.08625,726.75,151.0785C729.125,151.07074999999998,731.5,151.063,733.875,151.05525C736.25,151.0475,738.625,151.03975000000003,741,151.032C743.375,151.02425,745.75,151.0165,748.125,151.00875C750.5,151.00099999999998,752.875,150.99325,755.25,150.9855C757.625,150.97775000000001,760,150.96999999999997,762.375,150.96224999999998C764.75,150.9545,767.125,150.94674999999998,769.5,150.939C771.875,150.93125,774.2500000000001,150.9235,776.6250000000001,150.91575C779.0000000000001,150.90800000000002,781.3750000000001,150.90025000000003,783.7500000000001,150.8925C786.1250000000001,150.88475,788.5000000000001,150.877,790.8750000000001,150.86925C793.2500000000001,150.86149999999998,795.6250000000001,150.85375000000002,798.0000000000001,150.846C800.375,150.83825000000002,802.75,150.83049999999997,805.1249999999999,150.82274999999998C807.4999999999999,150.81499999999997,809.8749999999999,150.80724999999998,812.2499999999999,150.7995C814.6249999999999,150.79175,816.9999999999999,150.784,819.3749999999999,150.77625C821.7499999999999,150.76850000000002,824.1249999999999,150.76075,826.4999999999999,150.75300000000001C828.8749999999999,150.74525,831.25,150.7375,833.625,150.72975C836,150.722,838.375,150.71425,840.75,150.7065C843.125,150.69875000000002,845.5,150.69099999999997,847.875,150.68325C850.25,150.6755,852.625,150.66774999999998,855,150.66C857.375,150.65225,859.75,150.6445,862.125,150.63675C864.5,150.62900000000002,866.875,150.62124999999997,869.25,150.6135C871.625,150.60575,874,150.59799999999998,876.375,150.59025C878.75,150.5825,881.125,150.57475,883.5,150.567C885.875,150.55925000000002,888.25,150.55149999999998,890.625,150.54375C893,150.536,895.375,150.52824999999999,897.75,150.5205C900.125,150.51275,902.5,150.505,904.875,150.49725C907.25,150.48950000000002,909.625,150.48174999999998,912,150.474C914.375,150.46625,916.75,150.4585,919.125,150.45075C921.5,150.443,923.875,150.43525,926.25,150.4275C928.625,150.41975000000002,931,150.41200000000003,933.375,150.40425000000002C935.75,150.3965,938.125,150.38875000000002,940.5,150.381C942.875,150.37324999999998,945.25,150.36549999999997,947.625,150.35774999999998C950,150.34999999999997,952.3750000000001,150.34224999999998,954.7500000000001,150.3345C957.1250000000001,150.32675,959.5000000000001,150.319,961.8750000000001,150.31125C964.2500000000001,150.3035,966.6250000000001,150.29575,969.0000000000001,150.288C971.3750000000001,150.28025000000002,973.7500000000001,150.2725,976.1250000000001,150.26475C978.5,150.257,980.875,150.24925,983.2499999999999,150.2415C985.6249999999999,150.23375,987.9999999999999,150.226,990.3749999999999,150.21824999999998C992.7499999999999,150.21049999999997,995.1249999999999,150.20274999999998,997.4999999999999,150.195C999.8749999999999,150.18725,1002.2499999999999,150.1795,1004.6249999999999,150.17175C1006.9999999999999,150.16400000000002,1009.375,150.15625000000003,1011.75,150.1485C1014.125,150.14075000000003,1016.5,150.13299999999998,1018.875,150.12525C1021.25,150.1175,1023.625,150.10975,1026,150.102C1028.375,150.09425000000002,1030.75,150.0865,1033.125,150.07875C1035.5,150.07100000000003,1037.875,150.06324999999998,1040.25,150.0555C1042.625,150.04775,1045,150.04000000000002,1047.375,150.03225C1049.75,150.0245,1052.125,150.01675,1054.5,150.009C1056.875,150.00124999999997,1059.25,149.99349999999998,1061.625,149.98575C1064,149.978,1066.375,149.97025,1068.75,149.9625C1071.125,149.95475000000002,1073.5,149.947,1075.875,149.93925000000002C1078.25,149.93150000000003,1080.625,149.92374999999998,1083,149.916C1085.375,149.90825,1087.75,149.90050000000002,1090.125,149.89275C1092.5,149.885,1094.875,149.87725,1097.25,149.8695C1099.625,149.86174999999997,1102,149.85399999999998,1104.375,149.84625C1106.75,149.8385,1109.125,149.83075,1111.5,149.823C1113.875,149.81525000000002,1116.25,149.8075,1118.625,149.79975000000002C1121,149.79200000000003,1123.375,149.78425000000001,1125.75,149.7765C1128.125,149.76874999999998,1130.5,149.76099999999997,1132.875,149.75324999999998C1135.25,149.7455,1137.625,149.73774999999998,1140,149.73C1142.375,149.72225,1144.75,149.7145,1147.125,149.70675C1149.5,149.699,1151.875,149.69125000000003,1154.25,149.6835C1156.625,149.67575,1159,149.668,1161.375,149.66025C1163.75,149.65249999999997,1166.125,149.64475,1168.5,149.637C1170.875,149.62925,1173.25,149.62149999999997,1175.625,149.61374999999998C1178,149.606,1180.375,149.59824999999998,1182.75,149.5905C1185.125,149.58275,1187.5,149.575,1189.875,149.56725C1192.25,149.5595,1194.625,149.55175000000003,1197,149.544C1199.375,149.53625,1201.75,149.5285,1204.125,149.52075C1206.5,149.51299999999998,1208.875,149.50525,1211.25,149.4975C1213.625,149.48975000000002,1216,149.48200000000003,1218.375,149.47425C1220.75,149.4665,1223.125,149.45875,1225.5,149.451C1227.875,149.44324999999998,1230.25,149.4355,1232.625,149.42775C1235,149.42000000000002,1237.375,149.41224999999997,1239.75,149.40449999999998C1242.125,149.39675,1244.5,149.38899999999998,1246.875,149.38125C1249.25,149.3735,1251.625,149.36575,1254,149.358C1256.375,149.35025000000002,1258.75,149.34250000000003,1261.125,149.33475C1263.5,149.327,1265.875,149.31925,1268.25,149.3115C1270.625,149.30374999999998,1273,149.296,1275.375,149.28825C1277.75,149.28050000000002,1280.125,149.2805,1282.5,149.265C1284.875,149.24949999999998,1287.25,145.13166666666666,1289.625,143.065C1292,140.99833333333333,1294.375,138.93166666666667,1296.75,136.865C1299.125,134.79833333333335,1301.5,132.73166666666665,1303.875,130.665C1306.25,128.59833333333333,1308.625,126.53166666666667,1311,124.465C1313.375,122.39833333333334,1315.75,120.33166666666666,1318.125,118.265C1320.5,116.19833333333334,1322.875,114.13166666666666,1325.25,112.065C1327.625,109.99833333333333,1330,107.93166666666667,1332.375,105.86500000000001C1334.75,103.79833333333335,1337.125,101.73166666666667,1339.5,99.665C1341.875,97.59833333333334,1344.25,95.53166666666667,1346.625,93.465C1349,91.39833333333334,1351.375,89.33166666666665,1353.75,87.26499999999999C1356.125,85.19833333333332,1358.5,83.13166666666666,1360.875,81.065C1363.25,78.99833333333333,1365.625,76.93166666666666,1368,74.865C1370.375,72.79833333333333,1372.75,70.73166666666665,1375.125,68.66499999999999C1377.5,66.59833333333333,1379.875,64.53166666666667,1382.25,62.465C1384.625,60.39833333333334,1387,58.33166666666667,1389.375,56.265C1391.75,54.19833333333333,1394.125,52.13166666666666,1396.5,50.06499999999999C1398.875,47.99833333333332,1401.25,45.93166666666665,1403.625,43.86499999999999C1406,41.798333333333325,1408.375,39.73166666666666,1410.75,37.665C1413.125,35.598333333333336,1415.5,33.53166666666666,1417.875,31.464999999999993C1420.25,29.398333333333323,1422.625,27.331666666666656,1425,25.264999999999986" fill="transparent" stroke-linecap="round" stroke="#1AD4B3" stroke-width="2"></path><g class="visx-group visx-axis visx-axis-bottom" transform="translate(0, 155)"><g class="visx-group visx-axis-tick" transform="translate(0, 0)"><line class="visx-line" x1="0" y1="0" x2="0" y2="8" fill="transparent" shape-rendering="crispEdges" stroke="#F2F0F9" stroke-width="1" stroke-linecap="square"></line><svg x="0" y="0" font-size="11" style="overflow:visible"><text transform="" x="0" y="19" fill="#1B2030" font-size="11" text-anchor="middle"><tspan x="0" dy="0em">0%</tspan></text></svg></g><g class="visx-group visx-axis-tick" transform="translate(0, 0)"><line class="visx-line" x1="356.25" y1="0" x2="356.25" y2="8" fill="transparent" shape-rendering="crispEdges" stroke="#F2F0F9" stroke-width="1" stroke-linecap="square"></line><svg x="0" y="0" font-size="11" style="overflow:visible"><text transform="" x="356.25" y="19" fill="#1B2030" font-size="11" text-anchor="middle"><tspan x="356.25" dy="0em">25%</tspan></text></svg></g><g class="visx-group visx-axis-tick" transform="translate(0, 0)"><line class="visx-line" x1="712.5" y1="0" x2="712.5" y2="8" fill="transparent" shape-rendering="crispEdges" stroke="#F2F0F9" stroke-width="1" stroke-linecap="square"></line><svg x="0" y="0" font-size="11" style="overflow:visible"><text transform="" x="712.5" y="19" fill="#1B2030" font-size="11" text-anchor="middle"><tspan x="712.5" dy="0em">50%</tspan></text></svg></g><g class="visx-group visx-axis-tick" transform="translate(0, 0)"><line class="visx-line" x1="1068.75" y1="0" x2="1068.75" y2="8" fill="transparent" shape-rendering="crispEdges" stroke="#F2F0F9" stroke-width="1" stroke-linecap="square"></line><svg x="0" y="0" font-size="11" style="overflow:visible"><text transform="" x="1068.75" y="19" fill="#1B2030" font-size="11" text-anchor="middle"><tspan x="1068.75" dy="0em">75%</tspan></text></svg></g><g class="visx-group visx-axis-tick" transform="translate(0, 0)"><line class="visx-line" x1="1425" y1="0" x2="1425" y2="8" fill="transparent" shape-rendering="crispEdges" stroke="#F2F0F9" stroke-width="1" stroke-linecap="square"></line><svg x="0" y="0" font-size="11" style="overflow:visible"><text transform="" x="1425" y="19" fill="#1B2030" font-size="11" text-anchor="middle"><tspan x="1425" dy="0em">100%</tspan></text></svg></g></g><g class="visx-group visx-axis visx-axis-left" transform="translate(0, 0)"><g class="visx-group visx-axis-tick" transform="translate(0, 0)"><line class="visx-line" x1="0" y1="155" x2="-8" y2="155" fill="transparent" shape-rendering="crispEdges" stroke="#F2F0F9" stroke-width="1" stroke-linecap="square"></line><svg x="-30" y="0" font-size="11" style="overflow:visible"><text transform="" x="-8" y="155" fill="#1B2030" font-size="11" text-anchor="start"><tspan x="-8" dy="0em">0%</tspan></text></svg></g><g class="visx-group visx-axis-tick" transform="translate(0, 0)"><line class="visx-line" x1="0" y1="77.5" x2="-8" y2="77.5" fill="transparent" shape-rendering="crispEdges" stroke="#F2F0F9" stroke-width="1" stroke-linecap="square"></line><svg x="-30" y="0" font-size="11" style="overflow:visible"><text transform="" x="-8" y="77.5" fill="#1B2030" font-size="11" text-anchor="start"><tspan x="-8" dy="0em">50%</tspan></text></svg></g><g class="visx-group visx-axis-tick" transform="translate(0, 0)"><line class="visx-line" x1="0" y1="0" x2="-8" y2="0" fill="transparent" shape-rendering="crispEdges" stroke="#F2F0F9" stroke-width="1" stroke-linecap="square"></line><svg x="-30" y="0" font-size="11" style="overflow:visible"><text transform="" x="-8" y="0" fill="#1B2030" font-size="11" text-anchor="start"><tspan x="-8" dy="0em">100%</tspan></text></svg></g><line class="visx-line visx-axis-line" x1="0" y1="155.5" x2="0" y2="0.5" fill="transparent" shape-rendering="crispEdges" stroke="#F2F0F9" stroke-width="1"></line></g><rect class="visx-bar" width="1425" height="155" fill="transparent"></rect><line class="visx-line" x1="1282.5" y1="58" x2="1282.5" y2="155" fill="transparent" shape-rendering="crispEdges" stroke="#CDC8E1" stroke-width="1" pointer-events="none" stroke-dasharray="5"></line><svg x="0" y="0" font-size="11px" style="overflow:visible"><text transform="" x="1282.5" y="50" font-size="11px" fill="#555069" stroke="#FFFFFF" stroke-width="1px" text-anchor="middle"><tspan x="1282.5" dy="0.355em">Optimal utilization 90%</tspan></text></svg><svg x="0" y="0" font-size="11px" style="overflow:visible"><text transform="" x="1282.5" y="50" font-size="11px" fill="#CDC8E1" text-anchor="middle"><tspan x="1282.5" dy="0.355em">Optimal utilization 90%</tspan></text></svg></g></svg>