<?xml version="1.0"?><svg xmlns="http://www.w3.org/2000/svg" xmlns:xlink= "http://www.w3.org/1999/xlink" style="background: white;" width="1500" height="185"> <g style="color: black; font-size: 13px; font-family: sans-serif; transform: translate(18px, 25px);"><g><circle r="3" cx="-6" cy="-5" style="fill: #B6509E" /><text>Borrow APR, variable</text></g><g style="transform: translateX(150px);"><circle r="3" cx="-6" cy="-5" style="fill: rgb(231, 198, 223)" /><text>Borrow APR, stable</text></g><g style="transform: translateX(290px);"><circle r="3" cx="-6" cy="-5" style="fill: rgb(0, 98, 210)" /><text>Utilization Rate</text></g></g><g class="visx-group" transform="translate(40, 50)"><g class="visx-group visx-rows" transform="translate(0, 0)"><line class="visx-line" x1="0" y1="115" x2="1450" y2="115" fill="transparent" shape-rendering="crispEdges" stroke="#000" stroke-width="1" stroke-dasharray="3,3" pointer-events="none"></line><line class="visx-line" x1="0" y1="86.25" x2="1450" y2="86.25" fill="transparent" shape-rendering="crispEdges" stroke="#000" stroke-width="1" stroke-dasharray="3,3" pointer-events="none"></line><line class="visx-line" x1="0" y1="57.5" x2="1450" y2="57.5" fill="transparent" shape-rendering="crispEdges" stroke="#000" stroke-width="1" stroke-dasharray="3,3" pointer-events="none"></line><line class="visx-line" x1="0" y1="28.75" x2="1450" y2="28.75" fill="transparent" shape-rendering="crispEdges" stroke="#000" stroke-width="1" stroke-dasharray="3,3" pointer-events="none"></line><line class="visx-line" x1="0" y1="0" x2="1450" y2="0" fill="transparent" shape-rendering="crispEdges" stroke="#000" stroke-width="1" stroke-dasharray="3,3" pointer-events="none"></line></g><path class="visx-linepath" d="M0,114.9999999999461C2.4166666666666665,114.99101562496855,4.833333333333334,114.98203124999101,7.25,114.973046875C9.666666666666666,114.96406250000898,12.083333333333334,114.955078125,14.5,114.94609375C16.916666666666668,114.937109375,19.333333333333332,114.928125,21.75,114.919140625C24.166666666666668,114.91015625,26.583333333333332,114.90117187499999,29,114.89218749999999C31.416666666666668,114.883203125,33.833333333333336,114.87421875,36.25,114.865234375C38.666666666666664,114.85625,41.083333333333336,114.84726562499999,43.5,114.83828125C45.91666666666667,114.829296875,48.333333333333336,114.8203125,50.75000000000001,114.811328125C53.16666666666667,114.80234375,55.583333333333336,114.79335937500001,58,114.78437500000001C60.416666666666664,114.77539062500001,62.833333333333336,114.76640625,65.25,114.757421875C67.66666666666667,114.74843750000001,70.08333333333333,114.739453125,72.5,114.73046875C74.91666666666667,114.721484375,77.33333333333333,114.7125,79.75,114.70351562500001C82.16666666666667,114.69453125000001,84.58333333333333,114.685546875,87,114.6765625C89.41666666666667,114.667578125,91.83333333333333,114.65859375,94.25,114.649609375C96.66666666666667,114.640625,99.08333333333334,114.63164062499999,101.50000000000001,114.62265624999999C103.91666666666667,114.613671875,106.33333333333334,114.6046875,108.75,114.595703125C111.16666666666667,114.58671875,113.58333333333333,114.57773437499999,116,114.56875C118.41666666666667,114.559765625,120.83333333333334,114.55078124999999,123.25000000000001,114.54179687499999C125.66666666666667,114.53281249999999,128.08333333333334,114.523828125,130.5,114.51484375C132.91666666666666,114.505859375,135.33333333333334,114.496875,137.75,114.487890625C140.16666666666666,114.47890625000001,142.58333333333334,114.469921875,145,114.4609375C147.41666666666666,114.451953125,149.83333333333334,114.44296875,152.25,114.43398437500001C154.66666666666666,114.42500000000001,157.08333333333334,114.416015625,159.5,114.40703125C161.91666666666666,114.398046875,164.33333333333334,114.3890625,166.75,114.380078125C169.16666666666666,114.37109375,171.58333333333334,114.362109375,174,114.353125C176.41666666666666,114.34414062500001,178.83333333333334,114.33515625,181.25,114.326171875C183.66666666666666,114.3171875,186.08333333333334,114.30820312499999,188.5,114.29921875C190.91666666666666,114.290234375,193.33333333333334,114.28125,195.75,114.272265625C198.16666666666669,114.26328125,200.58333333333334,114.254296875,203.00000000000003,114.2453125C205.41666666666669,114.236328125,207.83333333333331,114.22734374999999,210.24999999999997,114.21835937499999C212.66666666666666,114.209375,215.08333333333331,114.200390625,217.5,114.19140625C219.91666666666666,114.182421875,222.33333333333334,114.17343749999999,224.75,114.164453125C227.16666666666666,114.15546875,229.58333333333334,114.146484375,232,114.1375C234.41666666666666,114.128515625,236.83333333333334,114.11953125000001,239.25,114.11054687500001C241.66666666666669,114.10156250000001,244.08333333333334,114.092578125,246.50000000000003,114.08359375C248.91666666666669,114.07460937500001,251.33333333333331,114.065625,253.74999999999997,114.056640625C256.16666666666663,114.04765625,258.5833333333333,114.038671875,261,114.02968750000001C263.4166666666667,114.02070312500001,265.8333333333333,114.01171875,268.25,114.002734375C270.6666666666667,113.99375,273.0833333333333,113.984765625,275.5,113.97578125C277.9166666666667,113.966796875,280.3333333333333,113.95781249999999,282.75,113.94882812499999C285.1666666666667,113.93984375,287.5833333333333,113.930859375,290,113.921875C292.4166666666667,113.912890625,294.8333333333333,113.90390624999999,297.25,113.894921875C299.6666666666667,113.8859375,302.0833333333333,113.87695312499999,304.5,113.86796874999999C306.9166666666667,113.85898437499999,309.3333333333333,113.85,311.75,113.841015625C314.1666666666667,113.83203125,316.5833333333333,113.823046875,319,113.8140625C321.4166666666667,113.80507812500001,323.8333333333333,113.79609375,326.25,113.787109375C328.6666666666667,113.778125,331.0833333333333,113.769140625,333.5,113.76015625000001C335.9166666666667,113.75117187500001,338.3333333333333,113.7421875,340.75,113.733203125C343.1666666666667,113.72421875,345.5833333333333,113.715234375,348,113.70625C350.4166666666667,113.697265625,352.8333333333333,113.68828125,355.25,113.679296875C357.6666666666667,113.67031250000001,360.0833333333333,113.661328125,362.5,113.65234375C364.9166666666667,113.643359375,367.3333333333333,113.63437499999999,369.75,113.625390625C372.1666666666667,113.61640625,374.5833333333333,113.607421875,377,113.5984375C379.4166666666667,113.589453125,381.8333333333333,113.58046875,384.25,113.571484375C386.6666666666667,113.5625,389.0833333333333,113.55351562499999,391.5,113.54453124999999C393.9166666666667,113.535546875,396.33333333333337,113.5265625,398.75000000000006,113.517578125C401.16666666666674,113.50859375,403.58333333333337,113.49960937499999,406.00000000000006,113.490625C408.4166666666667,113.481640625,410.8333333333333,113.47265625,413.24999999999994,113.463671875C415.66666666666663,113.4546875,418.08333333333326,113.44570312500001,420.49999999999994,113.43671875000001C422.91666666666663,113.42773437500001,425.3333333333333,113.41875,427.75,113.409765625C430.1666666666667,113.40078125000001,432.5833333333333,113.391796875,435,113.3828125C437.4166666666667,113.373828125,439.8333333333333,113.36484375,442.25,113.35585937500001C444.6666666666667,113.34687500000001,447.0833333333333,113.337890625,449.5,113.32890625C451.9166666666667,113.319921875,454.3333333333333,113.3109375,456.75,113.301953125C459.1666666666667,113.29296875,461.5833333333333,113.28398437499999,464,113.27499999999999C466.4166666666667,113.266015625,468.8333333333333,113.25703125,471.25,113.248046875C473.6666666666667,113.2390625,476.0833333333333,113.23007812499999,478.5,113.22109375C480.9166666666667,113.212109375,483.33333333333337,113.20312499999999,485.75000000000006,113.19414062499999C488.16666666666674,113.18515624999999,490.58333333333337,113.176171875,493.00000000000006,113.1671875C495.4166666666667,113.158203125,497.8333333333333,113.14921875,500.24999999999994,113.140234375C502.66666666666663,113.13125000000001,505.08333333333326,113.122265625,507.49999999999994,113.11328125C509.91666666666663,113.104296875,512.3333333333333,113.0953125,514.75,113.08632812500001C517.1666666666666,113.07734375000001,519.5833333333334,113.068359375,522,113.059375C524.4166666666666,113.050390625,526.8333333333334,113.04140625,529.25,113.032421875C531.6666666666666,113.0234375,534.0833333333334,113.014453125,536.5,113.00546875C538.9166666666666,112.99648437500001,541.3333333333334,112.9875,543.75,112.978515625C546.1666666666666,112.96953125,548.5833333333334,112.96054687499999,551,112.9515625C553.4166666666666,112.942578125,555.8333333333334,112.93359375,558.25,112.924609375C560.6666666666666,112.915625,563.0833333333334,112.906640625,565.5,112.89765625C567.9166666666666,112.888671875,570.3333333333334,112.87968749999999,572.75,112.87070312499999C575.1666666666666,112.86171875,577.5833333333334,112.852734375,580,112.84375C582.4166666666666,112.834765625,584.8333333333334,112.82578124999999,587.25,112.816796875C589.6666666666666,112.8078125,592.0833333333334,112.798828125,594.5,112.78984375C596.9166666666666,112.780859375,599.3333333333334,112.77187500000001,601.75,112.76289062500001C604.1666666666666,112.75390625000001,606.5833333333334,112.744921875,609,112.7359375C611.4166666666666,112.72695312500001,613.8333333333334,112.71796875,616.25,112.708984375C618.6666666666666,112.7,621.0833333333334,112.691015625,623.5,112.68203125000001C625.9166666666666,112.67304687500001,628.3333333333334,112.6640625,630.75,112.655078125C633.1666666666666,112.64609375,635.5833333333334,112.637109375,638,112.628125C640.4166666666666,112.619140625,642.8333333333334,112.61015624999999,645.25,112.60117187499999C647.6666666666666,112.5921875,650.0833333333334,112.583203125,652.5,112.57421875C654.9166666666666,112.565234375,657.3333333333334,112.55624999999999,659.75,112.547265625C662.1666666666666,112.53828125,664.5833333333334,112.52929687499999,667,112.52031249999999C669.4166666666666,112.51132812499999,671.8333333333334,112.50234375,674.25,112.493359375C676.6666666666666,112.484375,679.0833333333334,112.475390625,681.5,112.46640625C683.9166666666666,112.45742187500001,686.3333333333334,112.4484375,688.75,112.439453125C691.1666666666666,112.43046875,693.5833333333334,112.421484375,696,112.41250000000001C698.4166666666666,112.40351562500001,700.8333333333334,112.39453125,703.25,112.385546875C705.6666666666666,112.3765625,708.0833333333334,112.367578125,710.5,112.35859375C712.9166666666666,112.349609375,715.3333333333334,112.340625,717.75,112.331640625C720.1666666666666,112.32265625000001,722.5833333333334,112.313671875,725,112.3046875C727.4166666666666,112.295703125,729.8333333333334,112.28671874999999,732.25,112.277734375C734.6666666666666,112.26875,737.0833333333334,112.259765625,739.5,112.25078125C741.9166666666666,112.241796875,744.3333333333334,112.2328125,746.75,112.223828125C749.1666666666666,112.21484375,751.5833333333334,112.20585937499999,754,112.19687499999999C756.4166666666666,112.187890625,758.8333333333334,112.17890625,761.25,112.169921875C763.6666666666666,112.1609375,766.0833333333334,112.15195312499999,768.5,112.14296875C770.9166666666666,112.133984375,773.3333333333334,112.125,775.75,112.116015625C778.1666666666666,112.10703125,780.5833333333334,112.09804687500001,783,112.08906250000001C785.4166666666667,112.08007812500001,787.8333333333334,112.07109375,790.2500000000001,112.062109375C792.6666666666667,112.05312500000001,795.0833333333335,112.044140625,797.5000000000001,112.03515625C799.9166666666667,112.026171875,802.3333333333335,112.0171875,804.7500000000001,112.00820312500001C807.1666666666667,111.99921875000001,809.5833333333335,111.990234375,812.0000000000001,111.98125C814.4166666666667,111.972265625,816.8333333333333,111.96328125,819.2499999999999,111.954296875C821.6666666666665,111.9453125,824.0833333333333,111.93632812499999,826.4999999999999,111.92734374999999C828.9166666666665,111.918359375,831.3333333333333,111.909375,833.7499999999999,111.900390625C836.1666666666665,111.89140625,838.5833333333333,111.88242187499999,840.9999999999999,111.8734375C843.4166666666666,111.864453125,845.8333333333333,111.85546874999999,848.25,111.84648437499999C850.6666666666666,111.83749999999999,853.0833333333334,111.828515625,855.5,111.81953125C857.9166666666666,111.810546875,860.3333333333334,111.8015625,862.75,111.792578125C865.1666666666666,111.78359375000001,867.5833333333334,111.774609375,870,111.765625C872.4166666666666,111.756640625,874.8333333333334,111.74765625,877.25,111.73867187500001C879.6666666666666,111.72968750000001,882.0833333333334,111.720703125,884.5,111.71171875C886.9166666666666,111.702734375,889.3333333333334,111.69375,891.75,111.684765625C894.1666666666666,111.67578125,896.5833333333334,111.666796875,899,111.6578125C901.4166666666666,111.64882812500001,903.8333333333334,111.63984375,906.25,111.630859375C908.6666666666666,111.621875,911.0833333333334,111.61289062499999,913.5,111.60390625C915.9166666666666,111.594921875,918.3333333333334,111.5859375,920.75,111.576953125C923.1666666666666,111.56796875,925.5833333333334,111.558984375,928,111.55C930.4166666666666,111.541015625,932.8333333333334,111.53203124999999,935.25,111.52304687499999C937.6666666666666,111.5140625,940.0833333333334,111.505078125,942.5,111.49609375C944.9166666666666,111.487109375,947.3333333333334,111.47812499999999,949.75,111.469140625C952.1666666666666,111.46015625,954.5833333333334,111.451171875,957,111.4421875C959.4166666666666,111.433203125,961.8333333333334,111.42421875000001,964.25,111.41523437500001C966.6666666666667,111.40625000000001,969.0833333333334,111.397265625,971.5000000000001,111.38828125C973.9166666666667,111.37929687500001,976.3333333333335,111.3703125,978.7500000000001,111.361328125C981.1666666666667,111.35234375,983.5833333333335,111.343359375,986.0000000000001,111.33437500000001C988.4166666666667,111.32539062500001,990.8333333333335,111.31640625,993.2500000000001,111.307421875C995.6666666666667,111.2984375,998.0833333333333,111.289453125,1000.4999999999999,111.28046875C1002.9166666666665,111.271484375,1005.3333333333333,111.26249999999999,1007.7499999999999,111.25351562499999C1010.1666666666665,111.24453125,1012.5833333333333,111.235546875,1014.9999999999999,111.2265625C1017.4166666666665,111.217578125,1019.8333333333333,111.20859374999999,1022.2499999999999,111.199609375C1024.6666666666665,111.190625,1027.0833333333333,111.18164062499999,1029.5,111.17265624999999C1031.9166666666667,111.16367187499999,1034.3333333333333,111.1546875,1036.75,111.145703125C1039.1666666666667,111.13671875,1041.5833333333333,111.127734375,1044,111.11875C1046.4166666666667,111.10976562500001,1048.8333333333333,111.10078125,1051.25,111.091796875C1053.6666666666667,111.0828125,1056.0833333333333,111.073828125,1058.5,111.06484375000001C1060.9166666666667,111.05585937500001,1063.3333333333333,111.046875,1065.75,111.037890625C1068.1666666666667,111.02890625,1070.5833333333333,111.019921875,1073,111.0109375C1075.4166666666667,111.001953125,1077.8333333333333,110.99296875,1080.25,110.983984375C1082.6666666666667,110.97500000000001,1085.0833333333333,110.966015625,1087.5,110.95703125C1089.9166666666667,110.948046875,1092.3333333333333,110.93906249999999,1094.75,110.930078125C1097.1666666666667,110.92109375,1099.5833333333333,110.912109375,1102,110.903125C1104.4166666666667,110.894140625,1106.8333333333333,110.88515625,1109.25,110.876171875C1111.6666666666667,110.8671875,1114.0833333333333,110.85820312499999,1116.5,110.84921874999999C1118.9166666666667,110.840234375,1121.3333333333333,110.83125,1123.75,110.822265625C1126.1666666666667,110.81328125,1128.5833333333333,110.80429687499999,1131,110.7953125C1133.4166666666667,110.786328125,1135.8333333333333,110.77734375,1138.25,110.768359375C1140.6666666666667,110.759375,1143.0833333333333,110.75039062500001,1145.5,110.74140625000001C1147.9166666666667,110.73242187500001,1150.3333333333333,110.7234375,1152.75,110.714453125C1155.1666666666667,110.70546875000001,1157.5833333333333,110.70546875000001,1160,110.6875C1162.4166666666667,110.66953124999999,1164.8333333333333,110.30416666666666,1167.25,110.1125C1169.6666666666667,109.92083333333333,1172.0833333333333,109.72916666666667,1174.5,109.53750000000001C1176.9166666666667,109.34583333333335,1179.3333333333333,109.15416666666667,1181.75,108.9625C1184.1666666666667,108.77083333333334,1186.5833333333333,108.57916666666667,1189,108.3875C1191.4166666666667,108.19583333333334,1193.8333333333333,108.00416666666666,1196.25,107.8125C1198.6666666666667,107.62083333333334,1201.0833333333333,107.42916666666666,1203.5,107.2375C1205.9166666666667,107.04583333333333,1208.3333333333333,106.85416666666666,1210.75,106.6625C1213.1666666666667,106.47083333333333,1215.5833333333333,106.27916666666665,1218,106.08749999999999C1220.4166666666667,105.89583333333333,1222.8333333333333,105.70416666666667,1225.25,105.5125C1227.6666666666667,105.32083333333334,1230.0833333333333,105.12916666666666,1232.5,104.9375C1234.9166666666667,104.74583333333334,1237.3333333333333,104.55416666666666,1239.75,104.3625C1242.1666666666667,104.17083333333333,1244.5833333333333,103.97916666666666,1247,103.7875C1249.4166666666667,103.59583333333333,1251.8333333333333,103.40416666666665,1254.25,103.21249999999999C1256.6666666666667,103.02083333333333,1259.0833333333333,102.82916666666665,1261.5,102.63749999999999C1263.9166666666667,102.44583333333333,1266.3333333333333,102.25416666666666,1268.75,102.0625C1271.1666666666667,101.87083333333334,1273.5833333333333,101.67916666666667,1276,101.48750000000001C1278.4166666666667,101.29583333333335,1280.8333333333333,101.10416666666666,1283.25,100.9125C1285.6666666666667,100.72083333333333,1288.0833333333333,100.52916666666667,1290.5,100.3375C1292.9166666666667,100.14583333333334,1295.3333333333333,99.95416666666665,1297.75,99.76249999999999C1300.1666666666667,99.57083333333333,1302.5833333333333,99.37916666666666,1305,99.1875C1307.4166666666667,98.99583333333334,1309.8333333333333,98.80416666666667,1312.25,98.61250000000001C1314.6666666666667,98.42083333333335,1317.0833333333333,98.22916666666667,1319.5,98.03750000000001C1321.9166666666667,97.84583333333335,1324.3333333333333,97.65416666666667,1326.75,97.4625C1329.1666666666667,97.27083333333334,1331.5833333333333,97.07916666666667,1334,96.8875C1336.4166666666667,96.69583333333334,1338.8333333333333,96.50416666666666,1341.25,96.3125C1343.6666666666667,96.12083333333334,1346.0833333333333,95.92916666666666,1348.5,95.7375C1350.9166666666667,95.54583333333333,1353.3333333333333,95.35416666666667,1355.75,95.16250000000001C1358.1666666666667,94.97083333333335,1360.5833333333333,94.77916666666667,1363,94.5875C1365.4166666666667,94.39583333333334,1367.8333333333333,94.20416666666667,1370.25,94.0125C1372.6666666666667,93.82083333333334,1375.0833333333333,93.62916666666666,1377.5,93.4375C1379.9166666666667,93.24583333333334,1382.3333333333333,93.05416666666666,1384.75,92.8625C1387.1666666666667,92.67083333333333,1389.5833333333333,92.47916666666666,1392,92.2875C1394.4166666666667,92.09583333333333,1396.8333333333333,91.90416666666665,1399.25,91.71249999999999C1401.6666666666667,91.52083333333333,1404.0833333333333,91.32916666666667,1406.5,91.1375C1408.9166666666667,90.94583333333334,1411.3333333333333,90.75416666666666,1413.75,90.5625C1416.1666666666667,90.37083333333334,1418.5833333333333,90.17916666666666,1421,89.9875C1423.4166666666667,89.79583333333333,1425.8333333333333,89.60416666666666,1428.25,89.4125C1430.6666666666667,89.22083333333333,1433.0833333333333,89.02916666666665,1435.5,88.83749999999999C1437.9166666666667,88.64583333333333,1440.3333333333333,88.45416666666665,1442.75,88.26249999999999C1445.1666666666667,88.07083333333333,1447.5833333333333,87.87916666666666,1450,87.6875" fill="transparent" stroke-linecap="round" stroke="#B6509E" stroke-width="2"></path><path class="visx-linepath" d="M0,110.11249999997484C2.4166666666666665,110.108307291652,4.833333333333334,110.10411458332915,7.25,110.099921875C9.666666666666666,110.09572916667086,12.083333333333334,110.09153645833334,14.5,110.08734375C16.916666666666668,110.08315104166667,19.333333333333332,110.07895833333333,21.75,110.074765625C24.166666666666668,110.07057291666666,26.583333333333332,110.06638020833334,29,110.06218750000001C31.416666666666668,110.05799479166667,33.833333333333336,110.05380208333332,36.25,110.04960937499999C38.666666666666664,110.04541666666665,41.083333333333336,110.04122395833333,43.5,110.03703125C45.91666666666667,110.03283854166666,48.333333333333336,110.02864583333334,50.75000000000001,110.02445312500001C53.16666666666667,110.02026041666667,55.583333333333336,110.01606770833334,58,110.011875C60.416666666666664,110.00768229166667,62.833333333333336,110.00348958333333,65.25,109.999296875C67.66666666666667,109.99510416666666,70.08333333333333,109.99091145833334,72.5,109.98671875000001C74.91666666666667,109.98252604166667,77.33333333333333,109.97833333333334,79.75,109.974140625C82.16666666666667,109.96994791666667,84.58333333333333,109.96575520833333,87,109.9615625C89.41666666666667,109.95736979166666,91.83333333333333,109.95317708333333,94.25,109.948984375C96.66666666666667,109.94479166666666,99.08333333333334,109.94059895833334,101.50000000000001,109.93640625C103.91666666666667,109.93221354166667,106.33333333333334,109.92802083333333,108.75,109.923828125C111.16666666666667,109.91963541666667,113.58333333333333,109.91544270833333,116,109.91125C118.41666666666667,109.90705729166666,120.83333333333334,109.90286458333334,123.25000000000001,109.898671875C125.66666666666667,109.89447916666667,128.08333333333334,109.89028645833332,130.5,109.88609374999999C132.91666666666666,109.88190104166665,135.33333333333334,109.87770833333333,137.75,109.873515625C140.16666666666666,109.86932291666666,142.58333333333334,109.86513020833334,145,109.8609375C147.41666666666666,109.85674479166667,149.83333333333334,109.85255208333334,152.25,109.848359375C154.66666666666666,109.84416666666667,157.08333333333334,109.83997395833333,159.5,109.83578125C161.91666666666666,109.83158854166666,164.33333333333334,109.82739583333334,166.75,109.823203125C169.16666666666666,109.81901041666667,171.58333333333334,109.81481770833334,174,109.810625C176.41666666666666,109.80643229166667,178.83333333333334,109.80223958333333,181.25,109.798046875C183.66666666666666,109.79385416666666,186.08333333333334,109.78966145833333,188.5,109.78546874999999C190.91666666666666,109.78127604166666,193.33333333333334,109.77708333333334,195.75,109.772890625C198.16666666666669,109.76869791666667,200.58333333333334,109.76450520833335,203.00000000000003,109.76031250000001C205.41666666666669,109.75611979166668,207.83333333333331,109.75192708333333,210.24999999999997,109.747734375C212.66666666666666,109.74354166666666,215.08333333333331,109.73934895833334,217.5,109.73515625C219.91666666666666,109.73096354166667,222.33333333333334,109.72677083333333,224.75,109.722578125C227.16666666666666,109.71838541666666,229.58333333333334,109.71419270833333,232,109.71C234.41666666666666,109.70580729166666,236.83333333333334,109.70161458333334,239.25,109.697421875C241.66666666666669,109.69322916666667,244.08333333333334,109.68903645833333,246.50000000000003,109.68484375C248.91666666666669,109.68065104166666,251.33333333333331,109.67645833333333,253.74999999999997,109.672265625C256.16666666666663,109.66807291666666,258.5833333333333,109.66388020833334,261,109.6596875C263.4166666666667,109.65549479166667,265.8333333333333,109.65130208333333,268.25,109.647109375C270.6666666666667,109.64291666666666,273.0833333333333,109.63872395833334,275.5,109.63453125000001C277.9166666666667,109.63033854166667,280.3333333333333,109.62614583333333,282.75,109.62195312499999C285.1666666666667,109.61776041666666,287.5833333333333,109.61356770833333,290,109.609375C292.4166666666667,109.60518229166667,294.8333333333333,109.60098958333334,297.25,109.59679687500001C299.6666666666667,109.59260416666667,302.0833333333333,109.58841145833333,304.5,109.58421874999999C306.9166666666667,109.58002604166666,309.3333333333333,109.57583333333334,311.75,109.571640625C314.1666666666667,109.56744791666667,316.5833333333333,109.56325520833333,319,109.5590625C321.4166666666667,109.55486979166666,323.8333333333333,109.55067708333334,326.25,109.546484375C328.6666666666667,109.54229166666667,331.0833333333333,109.53809895833334,333.5,109.53390625C335.9166666666667,109.52971354166667,338.3333333333333,109.52552083333333,340.75,109.521328125C343.1666666666667,109.51713541666666,345.5833333333333,109.51294270833334,348,109.50875C350.4166666666667,109.50455729166667,352.8333333333333,109.50036458333334,355.25,109.496171875C357.6666666666667,109.49197916666667,360.0833333333333,109.48778645833333,362.5,109.48359375C364.9166666666667,109.47940104166666,367.3333333333333,109.47520833333334,369.75,109.471015625C372.1666666666667,109.46682291666667,374.5833333333333,109.46263020833332,377,109.45843749999999C379.4166666666667,109.45424479166665,381.8333333333333,109.45005208333333,384.25,109.445859375C386.6666666666667,109.44166666666666,389.0833333333333,109.43747395833334,391.5,109.43328125000001C393.9166666666667,109.42908854166667,396.33333333333337,109.42489583333334,398.75000000000006,109.420703125C401.16666666666674,109.41651041666667,403.58333333333337,109.41231770833333,406.00000000000006,109.408125C408.4166666666667,109.40393229166666,410.8333333333333,109.39973958333333,413.24999999999994,109.395546875C415.66666666666663,109.39135416666666,418.08333333333326,109.38716145833334,420.49999999999994,109.38296875C422.91666666666663,109.37877604166667,425.3333333333333,109.37458333333333,427.75,109.370390625C430.1666666666667,109.36619791666666,432.5833333333333,109.36200520833333,435,109.3578125C437.4166666666667,109.35361979166666,439.8333333333333,109.34942708333334,442.25,109.345234375C444.6666666666667,109.34104166666667,447.0833333333333,109.33684895833335,449.5,109.33265625000001C451.9166666666667,109.32846354166668,454.3333333333333,109.32427083333333,456.75,109.320078125C459.1666666666667,109.31588541666666,461.5833333333333,109.31169270833334,464,109.3075C466.4166666666667,109.30330729166667,468.8333333333333,109.29911458333333,471.25,109.294921875C473.6666666666667,109.29072916666667,476.0833333333333,109.28653645833333,478.5,109.28234375C480.9166666666667,109.27815104166666,483.33333333333337,109.27395833333334,485.75000000000006,109.269765625C488.16666666666674,109.26557291666667,490.58333333333337,109.26138020833334,493.00000000000006,109.2571875C495.4166666666667,109.25299479166667,497.8333333333333,109.24880208333333,500.24999999999994,109.244609375C502.66666666666663,109.24041666666666,505.08333333333326,109.23622395833333,507.49999999999994,109.23203124999999C509.91666666666663,109.22783854166666,512.3333333333333,109.22364583333334,514.75,109.219453125C517.1666666666666,109.21526041666667,519.5833333333334,109.21106770833333,522,109.206875C524.4166666666666,109.20268229166666,526.8333333333334,109.19848958333333,529.25,109.19429687499999C531.6666666666666,109.19010416666666,534.0833333333334,109.18591145833334,536.5,109.18171875C538.9166666666666,109.17752604166667,541.3333333333334,109.17333333333335,543.75,109.16914062500001C546.1666666666666,109.16494791666668,548.5833333333334,109.16075520833333,551,109.15656249999999C553.4166666666666,109.15236979166666,555.8333333333334,109.14817708333334,558.25,109.143984375C560.6666666666666,109.13979166666667,563.0833333333334,109.13559895833333,565.5,109.13140625C567.9166666666666,109.12721354166666,570.3333333333334,109.12302083333333,572.75,109.118828125C575.1666666666666,109.11463541666666,577.5833333333334,109.11044270833334,580,109.10625C582.4166666666666,109.10205729166667,584.8333333333334,109.09786458333333,587.25,109.093671875C589.6666666666666,109.08947916666666,592.0833333333334,109.08528645833334,594.5,109.08109375000001C596.9166666666666,109.07690104166667,599.3333333333334,109.07270833333334,601.75,109.068515625C604.1666666666666,109.06432291666667,606.5833333333334,109.06013020833333,609,109.0559375C611.4166666666666,109.05174479166666,613.8333333333334,109.04755208333334,616.25,109.04335937500001C618.6666666666666,109.03916666666667,621.0833333333334,109.03497395833332,623.5,109.03078124999999C625.9166666666666,109.02658854166665,628.3333333333334,109.02239583333333,630.75,109.018203125C633.1666666666666,109.01401041666666,635.5833333333334,109.00981770833334,638,109.00562500000001C640.4166666666666,109.00143229166667,642.8333333333334,108.99723958333333,645.25,108.99304687499999C647.6666666666666,108.98885416666666,650.0833333333334,108.98466145833333,652.5,108.98046875C654.9166666666666,108.97627604166667,657.3333333333334,108.97208333333333,659.75,108.967890625C662.1666666666666,108.96369791666666,664.5833333333334,108.95950520833334,667,108.9553125C669.4166666666666,108.95111979166667,671.8333333333334,108.94692708333334,674.25,108.942734375C676.6666666666666,108.93854166666667,679.0833333333334,108.93434895833333,681.5,108.93015625C683.9166666666666,108.92596354166666,686.3333333333334,108.92177083333334,688.75,108.917578125C691.1666666666666,108.91338541666667,693.5833333333334,108.90919270833334,696,108.905C698.4166666666666,108.90080729166667,700.8333333333334,108.89661458333333,703.25,108.892421875C705.6666666666666,108.88822916666666,708.0833333333334,108.88403645833334,710.5,108.87984375C712.9166666666666,108.87565104166667,715.3333333333334,108.87145833333334,717.75,108.867265625C720.1666666666666,108.86307291666667,722.5833333333334,108.85888020833333,725,108.8546875C727.4166666666666,108.85049479166666,729.8333333333334,108.84630208333334,732.25,108.842109375C734.6666666666666,108.83791666666667,737.0833333333334,108.83372395833334,739.5,108.82953125C741.9166666666666,108.82533854166667,744.3333333333334,108.82114583333333,746.75,108.816953125C749.1666666666666,108.81276041666666,751.5833333333334,108.80856770833333,754,108.804375C756.4166666666666,108.80018229166666,758.8333333333334,108.79598958333334,761.25,108.791796875C763.6666666666666,108.78760416666667,766.0833333333334,108.78341145833333,768.5,108.77921875C770.9166666666666,108.77502604166666,773.3333333333334,108.77083333333333,775.75,108.766640625C778.1666666666666,108.76244791666666,780.5833333333334,108.75825520833334,783,108.7540625C785.4166666666667,108.74986979166667,787.8333333333334,108.74567708333333,790.2500000000001,108.741484375C792.6666666666667,108.73729166666666,795.0833333333335,108.73309895833333,797.5000000000001,108.72890625C799.9166666666667,108.72471354166666,802.3333333333335,108.72052083333334,804.7500000000001,108.716328125C807.1666666666667,108.71213541666667,809.5833333333335,108.70794270833333,812.0000000000001,108.70375C814.4166666666667,108.69955729166666,816.8333333333333,108.69536458333333,819.2499999999999,108.691171875C821.6666666666665,108.68697916666666,824.0833333333333,108.68278645833334,826.4999999999999,108.67859375C828.9166666666665,108.67440104166667,831.3333333333333,108.67020833333333,833.7499999999999,108.666015625C836.1666666666665,108.66182291666667,838.5833333333333,108.65763020833334,840.9999999999999,108.65343750000001C843.4166666666666,108.64924479166667,845.8333333333333,108.64505208333333,848.25,108.64085937499999C850.6666666666666,108.63666666666666,853.0833333333334,108.63247395833334,855.5,108.62828125C857.9166666666666,108.62408854166667,860.3333333333334,108.61989583333335,862.75,108.61570312500001C865.1666666666666,108.61151041666668,867.5833333333334,108.60731770833333,870,108.60312499999999C872.4166666666666,108.59893229166666,874.8333333333334,108.59473958333334,877.25,108.590546875C879.6666666666666,108.58635416666667,882.0833333333334,108.58216145833333,884.5,108.57796875C886.9166666666666,108.57377604166666,889.3333333333334,108.56958333333333,891.75,108.56539062499999C894.1666666666666,108.56119791666666,896.5833333333334,108.55700520833334,899,108.5528125C901.4166666666666,108.54861979166667,903.8333333333334,108.54442708333333,906.25,108.540234375C908.6666666666666,108.53604166666666,911.0833333333334,108.53184895833334,913.5,108.52765625C915.9166666666666,108.52346354166667,918.3333333333334,108.51927083333334,920.75,108.515078125C923.1666666666666,108.51088541666667,925.5833333333334,108.50669270833333,928,108.5025C930.4166666666666,108.49830729166666,932.8333333333334,108.49411458333334,935.25,108.48992187500001C937.6666666666666,108.48572916666667,940.0833333333334,108.48153645833332,942.5,108.47734374999999C944.9166666666666,108.47315104166665,947.3333333333334,108.46895833333333,949.75,108.464765625C952.1666666666666,108.46057291666666,954.5833333333334,108.45638020833334,957,108.45218750000001C959.4166666666666,108.44799479166667,961.8333333333334,108.44380208333334,964.25,108.439609375C966.6666666666667,108.43541666666667,969.0833333333334,108.43122395833333,971.5000000000001,108.42703125C973.9166666666667,108.42283854166666,976.3333333333335,108.41864583333334,978.7500000000001,108.41445312500001C981.1666666666667,108.41026041666667,983.5833333333335,108.40606770833334,986.0000000000001,108.401875C988.4166666666667,108.39768229166667,990.8333333333335,108.39348958333333,993.2500000000001,108.389296875C995.6666666666667,108.38510416666666,998.0833333333333,108.38091145833333,1000.4999999999999,108.37671875C1002.9166666666665,108.37252604166666,1005.3333333333333,108.36833333333334,1007.7499999999999,108.364140625C1010.1666666666665,108.35994791666667,1012.5833333333333,108.35575520833333,1014.9999999999999,108.3515625C1017.4166666666665,108.34736979166667,1019.8333333333333,108.34317708333333,1022.2499999999999,108.338984375C1024.6666666666665,108.33479166666666,1027.0833333333333,108.33059895833334,1029.5,108.32640625C1031.9166666666667,108.32221354166667,1034.3333333333333,108.31802083333332,1036.75,108.31382812499999C1039.1666666666667,108.30963541666665,1041.5833333333333,108.30544270833333,1044,108.30125C1046.4166666666667,108.29705729166666,1048.8333333333333,108.29286458333334,1051.25,108.288671875C1053.6666666666667,108.28447916666667,1056.0833333333333,108.28028645833334,1058.5,108.27609375C1060.9166666666667,108.27190104166667,1063.3333333333333,108.26770833333333,1065.75,108.263515625C1068.1666666666667,108.25932291666666,1070.5833333333333,108.25513020833334,1073,108.2509375C1075.4166666666667,108.24674479166667,1077.8333333333333,108.24255208333334,1080.25,108.238359375C1082.6666666666667,108.23416666666667,1085.0833333333333,108.22997395833333,1087.5,108.22578125C1089.9166666666667,108.22158854166666,1092.3333333333333,108.21739583333333,1094.75,108.21320312499999C1097.1666666666667,108.20901041666666,1099.5833333333333,108.20481770833334,1102,108.200625C1104.4166666666667,108.19643229166667,1106.8333333333333,108.19223958333335,1109.25,108.18804687500001C1111.6666666666667,108.18385416666668,1114.0833333333333,108.17966145833333,1116.5,108.17546875C1118.9166666666667,108.17127604166666,1121.3333333333333,108.16708333333334,1123.75,108.162890625C1126.1666666666667,108.15869791666667,1128.5833333333333,108.15450520833333,1131,108.1503125C1133.4166666666667,108.14611979166666,1135.8333333333333,108.14192708333333,1138.25,108.137734375C1140.6666666666667,108.13354166666666,1143.0833333333333,108.12934895833334,1145.5,108.12515625C1147.9166666666667,108.12096354166667,1150.3333333333333,108.11677083333333,1152.75,108.112578125C1155.1666666666667,108.10838541666666,1157.5833333333333,108.10838541666666,1160,108.1C1162.4166666666667,108.09161458333332,1164.8333333333333,106.66250000000001,1167.25,105.94375000000001C1169.6666666666667,105.22500000000001,1172.0833333333333,104.50625,1174.5,103.7875C1176.9166666666667,103.06875,1179.3333333333333,102.35000000000001,1181.75,101.63125000000001C1184.1666666666667,100.91250000000001,1186.5833333333333,100.19375,1189,99.475C1191.4166666666667,98.75625,1193.8333333333333,98.0375,1196.25,97.31875C1198.6666666666667,96.6,1201.0833333333333,95.88125000000001,1203.5,95.16250000000001C1205.9166666666667,94.44375000000001,1208.3333333333333,93.725,1210.75,93.00625C1213.1666666666667,92.2875,1215.5833333333333,91.56875000000001,1218,90.85000000000001C1220.4166666666667,90.13125000000001,1222.8333333333333,89.4125,1225.25,88.69375C1227.6666666666667,87.975,1230.0833333333333,87.25625,1232.5,86.5375C1234.9166666666667,85.81875,1237.3333333333333,85.10000000000001,1239.75,84.38125000000001C1242.1666666666667,83.66250000000001,1244.5833333333333,82.94375000000001,1247,82.22500000000001C1249.4166666666667,81.50625000000001,1251.8333333333333,80.78750000000001,1254.25,80.06875000000001C1256.6666666666667,79.35000000000001,1259.0833333333333,78.63125,1261.5,77.9125C1263.9166666666667,77.19375,1266.3333333333333,76.475,1268.75,75.75625C1271.1666666666667,75.0375,1273.5833333333333,74.31875000000001,1276,73.60000000000001C1278.4166666666667,72.88125000000001,1280.8333333333333,72.16250000000001,1283.25,71.44375000000001C1285.6666666666667,70.72500000000001,1288.0833333333333,70.00625000000001,1290.5,69.28750000000001C1292.9166666666667,68.56875000000001,1295.3333333333333,67.85,1297.75,67.13125C1300.1666666666667,66.4125,1302.5833333333333,65.69375,1305,64.975C1307.4166666666667,64.25625,1309.8333333333333,63.5375,1312.25,62.81875C1314.6666666666667,62.1,1317.0833333333333,61.38125000000001,1319.5,60.66250000000001C1321.9166666666667,59.94375000000001,1324.3333333333333,59.225,1326.75,58.50625C1329.1666666666667,57.7875,1331.5833333333333,57.06875,1334,56.35C1336.4166666666667,55.63125,1338.8333333333333,54.912499999999994,1341.25,54.193749999999994C1343.6666666666667,53.474999999999994,1346.0833333333333,52.75625,1348.5,52.0375C1350.9166666666667,51.31875,1353.3333333333333,50.599999999999994,1355.75,49.881249999999994C1358.1666666666667,49.162499999999994,1360.5833333333333,48.44375,1363,47.725C1365.4166666666667,47.00625,1367.8333333333333,46.2875,1370.25,45.56875C1372.6666666666667,44.85,1375.0833333333333,44.131249999999994,1377.5,43.412499999999994C1379.9166666666667,42.693749999999994,1382.3333333333333,41.975,1384.75,41.25625C1387.1666666666667,40.5375,1389.5833333333333,39.818749999999994,1392,39.099999999999994C1394.4166666666667,38.381249999999994,1396.8333333333333,37.6625,1399.25,36.94375C1401.6666666666667,36.225,1404.0833333333333,35.50625,1406.5,34.7875C1408.9166666666667,34.06875,1411.3333333333333,33.349999999999994,1413.75,32.631249999999994C1416.1666666666667,31.912499999999994,1418.5833333333333,31.19375,1421,30.475C1423.4166666666667,29.75625,1425.8333333333333,29.037499999999998,1428.25,28.318749999999998C1430.6666666666667,27.599999999999998,1433.0833333333333,26.881250000000005,1435.5,26.162500000000005C1437.9166666666667,25.443750000000005,1440.3333333333333,24.725,1442.75,24.006249999999998C1445.1666666666667,23.287499999999994,1447.5833333333333,22.568749999999994,1450,21.849999999999994" fill="transparent" stroke-linecap="round" stroke="#E7C6DF" stroke-width="2"></path><g class="visx-group visx-axis visx-axis-bottom" transform="translate(0, 115)"><g class="visx-group visx-axis-tick" transform="translate(0, 0)"><line class="visx-line" x1="0" y1="0" x2="0" y2="8" fill="transparent" shape-rendering="crispEdges" stroke="#000" stroke-width="0" stroke-linecap="square"></line><svg x="0" y="0" font-size="10" style="overflow:visible"><text transform="" x="0" y="18" fill="#000" font-size="10" text-anchor="middle"><tspan x="0" dy="0em">0%</tspan></text></svg></g><g class="visx-group visx-axis-tick" transform="translate(0, 0)"><line class="visx-line" x1="362.5" y1="0" x2="362.5" y2="8" fill="transparent" shape-rendering="crispEdges" stroke="#000" stroke-width="0" stroke-linecap="square"></line><svg x="0" y="0" font-size="10" style="overflow:visible"><text transform="" x="362.5" y="18" fill="#000" font-size="10" text-anchor="middle"><tspan x="362.5" dy="0em">25%</tspan></text></svg></g><g class="visx-group visx-axis-tick" transform="translate(0, 0)"><line class="visx-line" x1="725" y1="0" x2="725" y2="8" fill="transparent" shape-rendering="crispEdges" stroke="#000" stroke-width="0" stroke-linecap="square"></line><svg x="0" y="0" font-size="10" style="overflow:visible"><text transform="" x="725" y="18" fill="#000" font-size="10" text-anchor="middle"><tspan x="725" dy="0em">50%</tspan></text></svg></g><g class="visx-group visx-axis-tick" transform="translate(0, 0)"><line class="visx-line" x1="1087.5" y1="0" x2="1087.5" y2="8" fill="transparent" shape-rendering="crispEdges" stroke="#000" stroke-width="0" stroke-linecap="square"></line><svg x="0" y="0" font-size="10" style="overflow:visible"><text transform="" x="1087.5" y="18" fill="#000" font-size="10" text-anchor="middle"><tspan x="1087.5" dy="0em">75%</tspan></text></svg></g><g class="visx-group visx-axis-tick" transform="translate(0, 0)"><line class="visx-line" x1="1450" y1="0" x2="1450" y2="8" fill="transparent" shape-rendering="crispEdges" stroke="#000" stroke-width="0" stroke-linecap="square"></line><svg x="0" y="0" font-size="10" style="overflow:visible"><text transform="" x="1450" y="18" fill="#000" font-size="10" text-anchor="middle"><tspan x="1450" dy="0em">100%</tspan></text></svg></g><line class="visx-line visx-axis-line" x1="0.5" y1="0" x2="1450.5" y2="0" fill="transparent" shape-rendering="crispEdges" stroke="#222" stroke-width="0"></line></g><g class="visx-group visx-axis visx-axis-left" transform="translate(0, 0)"><g class="visx-group visx-axis-tick" transform="translate(0, 0)"><line class="visx-line" x1="0" y1="115" x2="-8" y2="115" fill="transparent" shape-rendering="crispEdges" stroke="#222" stroke-width="0" stroke-linecap="square"></line><svg x="-30" y="0" font-size="8" style="overflow:visible"><text transform="" x="-8" y="115" fill="#000" font-size="8" text-anchor="start"><tspan x="-8" dy="0em">0%</tspan></text></svg></g><g class="visx-group visx-axis-tick" transform="translate(0, 0)"><line class="visx-line" x1="0" y1="57.5" x2="-8" y2="57.5" fill="transparent" shape-rendering="crispEdges" stroke="#222" stroke-width="0" stroke-linecap="square"></line><svg x="-30" y="0" font-size="8" style="overflow:visible"><text transform="" x="-8" y="57.5" fill="#000" font-size="8" text-anchor="start"><tspan x="-8" dy="0em">200%</tspan></text></svg></g><g class="visx-group visx-axis-tick" transform="translate(0, 0)"><line class="visx-line" x1="0" y1="0" x2="-8" y2="0" fill="transparent" shape-rendering="crispEdges" stroke="#222" stroke-width="0" stroke-linecap="square"></line><svg x="-30" y="0" font-size="8" style="overflow:visible"><text transform="" x="-8" y="0" fill="#000" font-size="8" text-anchor="start"><tspan x="-8" dy="0em">400%</tspan></text></svg></g><line class="visx-line visx-axis-line" x1="0" y1="115.5" x2="0" y2="0.5" fill="transparent" shape-rendering="crispEdges" stroke="#222" stroke-width="0"></line></g><rect class="visx-bar" width="1450" height="115" fill="transparent"></rect><line class="visx-line" x1="1160" y1="28" x2="1160" y2="115" fill="transparent" shape-rendering="crispEdges" stroke="#0062D2" stroke-width="1" pointer-events="none" stroke-dasharray="5,2"></line><svg x="0" y="0" font-size="10px" style="overflow:visible"><text transform="" x="1160" y="20" font-size="10px" fill="#fff" stroke="#fff" stroke-width="0.8em" text-anchor="middle"><tspan x="1160" dy="0.355em">Optimal 80%</tspan></text></svg><svg x="0" y="0" font-size="10px" style="overflow:visible"><text transform="" x="1160" y="20" font-size="10px" fill="#62677B" text-anchor="middle"><tspan x="1160" dy="0.355em">Optimal 80%</tspan></text></svg></g></svg>