<?xml version="1.0"?><svg xmlns="http://www.w3.org/2000/svg" xmlns:xlink= "http://www.w3.org/1999/xlink" style="background: white;" width="1500" height="300"> <g style="color: black; font-size: 13px; font-family: sans-serif; transform: translate(18px, 25px);"><g><circle r="3" cx="-6" cy="-5" style="fill: #1AD4B3" /><text>Borrow APR, variable</text></g><g style="transform: translateX(150px);"><circle r="3" cx="-6" cy="-5" style="fill: #101423" /><text>Borrow APR, stable</text></g></g><g class="visx-group" transform="translate(45, 50)"><g class="visx-group visx-rows" transform="translate(0, 0)"><line class="visx-line" x1="0" y1="155" x2="1425" y2="155" fill="transparent" shape-rendering="crispEdges" stroke="#F2F0F9" stroke-width="1" pointer-events="none"></line><line class="visx-line" x1="0" y1="77.5" x2="1425" y2="77.5" fill="transparent" shape-rendering="crispEdges" stroke="#F2F0F9" stroke-width="1" pointer-events="none"></line><line class="visx-line" x1="0" y1="0" x2="1425" y2="0" fill="transparent" shape-rendering="crispEdges" stroke="#F2F0F9" stroke-width="1" pointer-events="none"></line></g><path class="visx-linepath" d="M0,154.99999999989345C2.375,154.98223958327117,4.75,154.9644791666489,7.125,154.94671875C9.5,154.9289583333511,11.875,154.91119791666668,14.25,154.8934375C16.625,154.87567708333333,19,154.85791666666668,21.375,154.84015625C23.75,154.82239583333333,26.125,154.80463541666668,28.5,154.786875C30.875,154.76911458333333,33.25,154.7513541666667,35.625,154.73359375C38,154.71583333333334,40.375,154.6980729166667,42.75,154.6803125C45.125,154.66255208333334,47.50000000000001,154.64479166666666,49.87500000000001,154.62703125C52.25000000000001,154.6092708333333,54.625,154.59151041666667,57,154.57375C59.375,154.55598958333331,61.75,154.53822916666667,64.125,154.52046875C66.5,154.50270833333332,68.875,154.48494791666667,71.25,154.4671875C73.625,154.44942708333332,76,154.43166666666667,78.375,154.41390625C80.75,154.39614583333332,83.125,154.37838541666667,85.5,154.360625C87.875,154.34286458333332,90.25,154.32510416666668,92.625,154.30734375C95,154.28958333333333,97.37500000000001,154.27182291666668,99.75000000000001,154.2540625C102.12500000000001,154.23630208333333,104.5,154.21854166666668,106.875,154.20078125C109.25,154.18302083333333,111.625,154.16526041666668,114,154.1475C116.375,154.12973958333333,118.75000000000001,154.11197916666666,121.12500000000001,154.09421874999998C123.50000000000001,154.0764583333333,125.875,154.05869791666663,128.25,154.04093749999998C130.625,154.0231770833333,133,154.0054166666667,135.375,153.98765625000001C137.75,153.96989583333334,140.125,153.9521354166667,142.5,153.93437500000002C144.875,153.91661458333334,147.25,153.89885416666667,149.625,153.88109375C152,153.86333333333332,154.375,153.84557291666667,156.75,153.8278125C159.125,153.81005208333332,161.5,153.79229166666667,163.875,153.77453125C166.25,153.75677083333332,168.625,153.73901041666667,171,153.72125C173.375,153.70348958333332,175.75,153.68572916666668,178.125,153.66796875C180.5,153.65020833333332,182.875,153.63244791666668,185.25,153.6146875C187.625,153.59692708333333,190,153.57916666666668,192.375,153.56140625C194.75,153.54364583333333,197.12500000000003,153.52588541666668,199.50000000000003,153.508125C201.875,153.49036458333333,204.25,153.47260416666668,206.62499999999997,153.45484375C208.99999999999997,153.43708333333333,211.375,153.4193229166667,213.75,153.4015625C216.125,153.38380208333334,218.5,153.36604166666666,220.875,153.34828124999999C223.25,153.3305208333333,225.625,153.31276041666666,228,153.295C230.375,153.2772395833333,232.75,153.25947916666667,235.125,153.24171875C237.5,153.22395833333331,239.87500000000003,153.20619791666667,242.25000000000003,153.1884375C244.625,153.17067708333332,247,153.15291666666667,249.37499999999997,153.13515625C251.74999999999997,153.11739583333332,254.125,153.09963541666667,256.5,153.081875C258.875,153.06411458333332,261.25,153.04635416666667,263.625,153.02859375C266,153.01083333333332,268.375,152.99307291666668,270.75,152.9753125C273.125,152.95755208333333,275.5,152.93979166666668,277.875,152.92203125C280.25,152.90427083333333,282.625,152.88651041666668,285,152.86875C287.375,152.85098958333333,289.75,152.83322916666668,292.125,152.81546875C294.5,152.79770833333333,296.875,152.77994791666669,299.25,152.7621875C301.625,152.74442708333333,304,152.7266666666667,306.375,152.70890625C308.75,152.69114583333334,311.125,152.67338541666666,313.5,152.655625C315.875,152.6378645833333,318.25,152.62010416666666,320.625,152.60234375C323,152.5845833333333,325.375,152.56682291666667,327.75,152.5490625C330.125,152.53130208333332,332.5,152.51354166666667,334.875,152.49578125C337.25,152.47802083333332,339.625,152.46026041666667,342,152.4425C344.375,152.42473958333332,346.75,152.40697916666667,349.125,152.38921875C351.5,152.37145833333332,353.875,152.35369791666668,356.25,152.3359375C358.625,152.31817708333332,361,152.30041666666668,363.375,152.28265625C365.75,152.26489583333333,368.125,152.24713541666668,370.5,152.229375C372.875,152.21161458333333,375.25,152.19385416666668,377.625,152.17609375C380,152.15833333333333,382.375,152.14057291666666,384.75,152.12281249999998C387.125,152.1050520833333,389.50000000000006,152.0872916666667,391.87500000000006,152.06953125C394.25000000000006,152.05177083333336,396.62500000000006,152.0340104166667,399.00000000000006,152.01625C401.375,151.99848958333334,403.75,151.9807291666667,406.12499999999994,151.96296875000002C408.49999999999994,151.94520833333334,410.87499999999994,151.92744791666667,413.24999999999994,151.9096875C415.62499999999994,151.89192708333331,418,151.87416666666667,420.375,151.85640625C422.75,151.83864583333332,425.125,151.82088541666667,427.5,151.803125C429.875,151.78536458333332,432.25,151.76760416666667,434.625,151.74984375C437,151.73208333333332,439.375,151.71432291666667,441.75,151.6965625C444.125,151.67880208333332,446.5,151.66104166666668,448.875,151.64328125C451.25,151.62552083333333,453.625,151.60776041666668,456,151.59C458.375,151.57223958333333,460.75,151.55447916666668,463.125,151.53671875C465.5,151.51895833333333,467.875,151.50119791666668,470.25,151.4834375C472.625,151.46567708333333,475.00000000000006,151.44791666666669,477.37500000000006,151.43015625C479.75000000000006,151.41239583333333,482.12500000000006,151.39463541666666,484.50000000000006,151.37687499999998C486.875,151.3591145833333,489.25,151.34135416666666,491.62499999999994,151.32359375C493.99999999999994,151.3058333333333,496.37499999999994,151.28807291666664,498.74999999999994,151.2703125C501.12499999999994,151.2525520833333,503.5,151.2347916666667,505.875,151.21703125000002C508.25,151.19927083333334,510.625,151.18151041666667,513,151.16375C515.375,151.14598958333332,517.75,151.12822916666667,520.125,151.11046875C522.5,151.09270833333332,524.875,151.07494791666667,527.25,151.0571875C529.625,151.03942708333332,532,151.02166666666668,534.375,151.00390625C536.75,150.98614583333332,539.125,150.96838541666668,541.5,150.950625C543.875,150.93286458333333,546.25,150.91510416666668,548.625,150.89734375C551,150.87958333333333,553.375,150.86182291666668,555.75,150.8440625C558.125,150.82630208333333,560.5,150.80854166666668,562.875,150.79078125C565.25,150.77302083333333,567.625,150.7552604166667,570,150.7375C572.375,150.71973958333334,574.75,150.7019791666667,577.125,150.68421875C579.5,150.66645833333334,581.875,150.64869791666666,584.25,150.6309375C586.625,150.6131770833333,589,150.59541666666667,591.375,150.57765625C593.75,150.55989583333331,596.125,150.54213541666667,598.5,150.524375C600.875,150.50661458333332,603.25,150.48885416666667,605.625,150.47109375C608,150.45333333333332,610.375,150.43557291666667,612.75,150.4178125C615.125,150.40005208333332,617.5,150.38229166666667,619.875,150.36453125C622.25,150.34677083333332,624.625,150.32901041666668,627,150.31125C629.375,150.29348958333333,631.75,150.27572916666668,634.125,150.25796875C636.5,150.24020833333333,638.875,150.22244791666668,641.25,150.2046875C643.625,150.18692708333333,646,150.16916666666668,648.375,150.15140625C650.75,150.13364583333333,653.125,150.11588541666669,655.5,150.098125C657.875,150.08036458333333,660.25,150.0626041666667,662.625,150.04484375C665,150.02708333333334,667.375,150.0093229166667,669.75,149.99156250000001C672.125,149.97380208333334,674.5,149.95604166666666,676.875,149.93828125C679.25,149.9205208333333,681.625,149.90276041666667,684,149.885C686.375,149.86723958333332,688.75,149.84947916666667,691.125,149.83171875C693.5,149.81395833333332,695.875,149.79619791666667,698.25,149.7784375C700.625,149.76067708333332,703,149.74291666666667,705.375,149.72515625C707.75,149.70739583333332,710.125,149.68963541666668,712.5,149.671875C714.875,149.65411458333332,717.25,149.63635416666668,719.625,149.61859375C722,149.60083333333333,724.375,149.58307291666668,726.75,149.5653125C729.125,149.54755208333333,731.5,149.52979166666668,733.875,149.51203125C736.25,149.49427083333333,738.625,149.47651041666668,741,149.45875C743.375,149.44098958333333,745.75,149.42322916666666,748.125,149.40546874999998C750.5,149.3877083333333,752.875,149.36994791666666,755.25,149.35218749999999C757.625,149.3344270833333,760,149.31666666666666,762.375,149.29890625000002C764.75,149.28114583333337,767.125,149.2633854166667,769.5,149.24562500000002C771.875,149.22786458333334,774.2500000000001,149.21010416666667,776.6250000000001,149.19234375C779.0000000000001,149.17458333333332,781.3750000000001,149.15682291666667,783.7500000000001,149.1390625C786.1250000000001,149.12130208333332,788.5000000000001,149.10354166666667,790.8750000000001,149.08578125C793.2500000000001,149.06802083333332,795.6250000000001,149.05026041666667,798.0000000000001,149.0325C800.375,149.01473958333332,802.75,148.99697916666668,805.1249999999999,148.97921875C807.4999999999999,148.96145833333333,809.8749999999999,148.94369791666668,812.2499999999999,148.9259375C814.6249999999999,148.90817708333333,816.9999999999999,148.89041666666668,819.3749999999999,148.87265625C821.7499999999999,148.85489583333333,824.1249999999999,148.83713541666668,826.4999999999999,148.819375C828.8749999999999,148.80161458333333,831.25,148.78385416666669,833.625,148.76609375C836,148.74833333333333,838.375,148.73057291666666,840.75,148.71281249999998C843.125,148.6950520833333,845.5,148.67729166666666,847.875,148.65953125C850.25,148.6417708333333,852.625,148.62401041666666,855,148.60625C857.375,148.5884895833333,859.75,148.57072916666667,862.125,148.55296875C864.5,148.53520833333332,866.875,148.51744791666667,869.25,148.4996875C871.625,148.48192708333332,874,148.46416666666667,876.375,148.44640625C878.75,148.42864583333332,881.125,148.41088541666667,883.5,148.393125C885.875,148.37536458333332,888.25,148.35760416666668,890.625,148.33984375C893,148.32208333333332,895.375,148.30432291666668,897.75,148.2865625C900.125,148.26880208333333,902.5,148.25104166666668,904.875,148.23328125C907.25,148.21552083333333,909.625,148.19776041666668,912,148.18C914.375,148.16223958333333,916.75,148.14447916666668,919.125,148.12671875C921.5,148.10895833333333,923.875,148.0911979166667,926.25,148.0734375C928.625,148.05567708333334,931,148.0379166666667,933.375,148.02015625C935.75,148.00239583333334,938.125,147.9846354166667,940.5,147.96687500000002C942.875,147.94911458333334,945.25,147.93135416666667,947.625,147.91359375C950,147.89583333333331,952.3750000000001,147.87807291666667,954.7500000000001,147.8603125C957.1250000000001,147.84255208333332,959.5000000000001,147.82479166666667,961.8750000000001,147.80703125C964.2500000000001,147.78927083333332,966.6250000000001,147.77151041666667,969.0000000000001,147.75375C971.3750000000001,147.73598958333332,973.7500000000001,147.71822916666667,976.1250000000001,147.70046875C978.5,147.68270833333332,980.875,147.66494791666668,983.2499999999999,147.6471875C985.6249999999999,147.62942708333333,987.9999999999999,147.61166666666668,990.3749999999999,147.59390625C992.7499999999999,147.57614583333333,995.1249999999999,147.55838541666668,997.4999999999999,147.540625C999.8749999999999,147.52286458333333,1002.2499999999999,147.50510416666668,1004.6249999999999,147.48734375C1006.9999999999999,147.46958333333333,1009.375,147.45182291666666,1011.75,147.43406249999998C1014.125,147.4163020833333,1016.5,147.39854166666663,1018.875,147.38078124999998C1021.25,147.36302083333334,1023.625,147.3452604166667,1026,147.32750000000001C1028.375,147.30973958333334,1030.75,147.2919791666667,1033.125,147.27421875000002C1035.5,147.25645833333334,1037.875,147.23869791666667,1040.25,147.2209375C1042.625,147.20317708333332,1045,147.18541666666667,1047.375,147.16765625C1049.75,147.14989583333332,1052.125,147.13213541666667,1054.5,147.114375C1056.875,147.09661458333332,1059.25,147.07885416666667,1061.625,147.06109375C1064,147.04333333333332,1066.375,147.02557291666668,1068.75,147.0078125C1071.125,146.99005208333332,1073.5,146.97229166666668,1075.875,146.95453125C1078.25,146.93677083333333,1080.625,146.91901041666668,1083,146.90125C1085.375,146.88348958333333,1087.75,146.86572916666668,1090.125,146.84796875C1092.5,146.83020833333333,1094.875,146.81244791666668,1097.25,146.7946875C1099.625,146.77692708333333,1102,146.7591666666667,1104.375,146.74140625C1106.75,146.72364583333334,1109.125,146.70588541666666,1111.5,146.68812499999999C1113.875,146.6703645833333,1116.25,146.65260416666666,1118.625,146.63484375C1121,146.6170833333333,1123.375,146.59932291666667,1125.75,146.5815625C1128.125,146.56380208333331,1130.5,146.54604166666667,1132.875,146.52828125C1135.25,146.51052083333332,1137.625,146.51052083333332,1140,146.475C1142.375,146.43947916666667,1144.75,144.40833333333333,1147.125,143.375C1149.5,142.34166666666667,1151.875,141.30833333333334,1154.25,140.275C1156.625,139.24166666666667,1159,138.20833333333334,1161.375,137.175C1163.75,136.14166666666668,1166.125,135.10833333333332,1168.5,134.075C1170.875,133.04166666666666,1173.25,132.00833333333333,1175.625,130.975C1178,129.94166666666666,1180.375,128.90833333333333,1182.75,127.875C1185.125,126.84166666666667,1187.5,125.80833333333332,1189.875,124.77499999999999C1192.25,123.74166666666666,1194.625,122.70833333333334,1197,121.67500000000001C1199.375,120.64166666666668,1201.75,119.60833333333333,1204.125,118.575C1206.5,117.54166666666667,1208.875,116.50833333333333,1211.25,115.475C1213.625,114.44166666666666,1216,113.40833333333333,1218.375,112.375C1220.75,111.34166666666667,1223.125,110.30833333333334,1225.5,109.275C1227.875,108.24166666666667,1230.25,107.20833333333334,1232.625,106.17500000000001C1235,105.14166666666668,1237.375,104.10833333333333,1239.75,103.075C1242.125,102.04166666666667,1244.5,101.00833333333334,1246.875,99.97500000000001C1249.25,98.94166666666668,1251.625,97.90833333333333,1254,96.875C1256.375,95.84166666666667,1258.75,94.80833333333332,1261.125,93.77499999999999C1263.5,92.74166666666666,1265.875,91.70833333333333,1268.25,90.675C1270.625,89.64166666666667,1273,88.60833333333332,1275.375,87.57499999999999C1277.75,86.54166666666666,1280.125,85.50833333333333,1282.5,84.475C1284.875,83.44166666666666,1287.25,82.40833333333333,1289.625,81.375C1292,80.34166666666667,1294.375,79.30833333333334,1296.75,78.275C1299.125,77.24166666666667,1301.5,76.20833333333333,1303.875,75.175C1306.25,74.14166666666667,1308.625,73.10833333333332,1311,72.07499999999999C1313.375,71.04166666666666,1315.75,70.00833333333333,1318.125,68.975C1320.5,67.94166666666666,1322.875,66.90833333333333,1325.25,65.875C1327.625,64.84166666666667,1330,63.80833333333334,1332.375,62.775000000000006C1334.75,61.741666666666674,1337.125,60.70833333333334,1339.5,59.675000000000004C1341.875,58.641666666666666,1344.25,57.608333333333334,1346.625,56.574999999999996C1349,55.54166666666666,1351.375,54.508333333333326,1353.75,53.474999999999994C1356.125,52.44166666666666,1358.5,51.408333333333324,1360.875,50.37499999999999C1363.25,49.34166666666666,1365.625,48.30833333333334,1368,47.275000000000006C1370.375,46.241666666666674,1372.75,45.208333333333336,1375.125,44.175000000000004C1377.5,43.14166666666667,1379.875,42.108333333333334,1382.25,41.075C1384.625,40.04166666666667,1387,39.00833333333333,1389.375,37.975C1391.75,36.94166666666667,1394.125,35.90833333333333,1396.5,34.875C1398.875,33.84166666666667,1401.25,32.80833333333333,1403.625,31.774999999999995C1406,30.741666666666664,1408.375,29.70833333333334,1410.75,28.675000000000008C1413.125,27.641666666666676,1415.5,26.60833333333334,1417.875,25.575000000000006C1420.25,24.54166666666667,1422.625,23.508333333333336,1425,22.475" fill="transparent" stroke-linecap="round" stroke="#1AD4B3" stroke-width="2"></path><g class="visx-group visx-axis visx-axis-bottom" transform="translate(0, 155)"><g class="visx-group visx-axis-tick" transform="translate(0, 0)"><line class="visx-line" x1="0" y1="0" x2="0" y2="8" fill="transparent" shape-rendering="crispEdges" stroke="#F2F0F9" stroke-width="1" stroke-linecap="square"></line><svg x="0" y="0" font-size="11" style="overflow:visible"><text transform="" x="0" y="19" fill="#1B2030" font-size="11" text-anchor="middle"><tspan x="0" dy="0em">0%</tspan></text></svg></g><g class="visx-group visx-axis-tick" transform="translate(0, 0)"><line class="visx-line" x1="356.25" y1="0" x2="356.25" y2="8" fill="transparent" shape-rendering="crispEdges" stroke="#F2F0F9" stroke-width="1" stroke-linecap="square"></line><svg x="0" y="0" font-size="11" style="overflow:visible"><text transform="" x="356.25" y="19" fill="#1B2030" font-size="11" text-anchor="middle"><tspan x="356.25" dy="0em">25%</tspan></text></svg></g><g class="visx-group visx-axis-tick" transform="translate(0, 0)"><line class="visx-line" x1="712.5" y1="0" x2="712.5" y2="8" fill="transparent" shape-rendering="crispEdges" stroke="#F2F0F9" stroke-width="1" stroke-linecap="square"></line><svg x="0" y="0" font-size="11" style="overflow:visible"><text transform="" x="712.5" y="19" fill="#1B2030" font-size="11" text-anchor="middle"><tspan x="712.5" dy="0em">50%</tspan></text></svg></g><g class="visx-group visx-axis-tick" transform="translate(0, 0)"><line class="visx-line" x1="1068.75" y1="0" x2="1068.75" y2="8" fill="transparent" shape-rendering="crispEdges" stroke="#F2F0F9" stroke-width="1" stroke-linecap="square"></line><svg x="0" y="0" font-size="11" style="overflow:visible"><text transform="" x="1068.75" y="19" fill="#1B2030" font-size="11" text-anchor="middle"><tspan x="1068.75" dy="0em">75%</tspan></text></svg></g><g class="visx-group visx-axis-tick" transform="translate(0, 0)"><line class="visx-line" x1="1425" y1="0" x2="1425" y2="8" fill="transparent" shape-rendering="crispEdges" stroke="#F2F0F9" stroke-width="1" stroke-linecap="square"></line><svg x="0" y="0" font-size="11" style="overflow:visible"><text transform="" x="1425" y="19" fill="#1B2030" font-size="11" text-anchor="middle"><tspan x="1425" dy="0em">100%</tspan></text></svg></g></g><g class="visx-group visx-axis visx-axis-left" transform="translate(0, 0)"><g class="visx-group visx-axis-tick" transform="translate(0, 0)"><line class="visx-line" x1="0" y1="155" x2="-8" y2="155" fill="transparent" shape-rendering="crispEdges" stroke="#F2F0F9" stroke-width="1" stroke-linecap="square"></line><svg x="-30" y="0" font-size="11" style="overflow:visible"><text transform="" x="-8" y="155" fill="#1B2030" font-size="11" text-anchor="start"><tspan x="-8" dy="0em">0%</tspan></text></svg></g><g class="visx-group visx-axis-tick" transform="translate(0, 0)"><line class="visx-line" x1="0" y1="77.5" x2="-8" y2="77.5" fill="transparent" shape-rendering="crispEdges" stroke="#F2F0F9" stroke-width="1" stroke-linecap="square"></line><svg x="-30" y="0" font-size="11" style="overflow:visible"><text transform="" x="-8" y="77.5" fill="#1B2030" font-size="11" text-anchor="start"><tspan x="-8" dy="0em">50%</tspan></text></svg></g><g class="visx-group visx-axis-tick" transform="translate(0, 0)"><line class="visx-line" x1="0" y1="0" x2="-8" y2="0" fill="transparent" shape-rendering="crispEdges" stroke="#F2F0F9" stroke-width="1" stroke-linecap="square"></line><svg x="-30" y="0" font-size="11" style="overflow:visible"><text transform="" x="-8" y="0" fill="#1B2030" font-size="11" text-anchor="start"><tspan x="-8" dy="0em">100%</tspan></text></svg></g><line class="visx-line visx-axis-line" x1="0" y1="155.5" x2="0" y2="0.5" fill="transparent" shape-rendering="crispEdges" stroke="#F2F0F9" stroke-width="1"></line></g><rect class="visx-bar" width="1425" height="155" fill="transparent"></rect><line class="visx-line" x1="1140" y1="58" x2="1140" y2="155" fill="transparent" shape-rendering="crispEdges" stroke="#CDC8E1" stroke-width="1" pointer-events="none" stroke-dasharray="5"></line><svg x="0" y="0" font-size="11px" style="overflow:visible"><text transform="" x="1140" y="50" font-size="11px" fill="#555069" stroke="#FFFFFF" stroke-width="1px" text-anchor="middle"><tspan x="1140" dy="0.355em">Optimal utilization 80%</tspan></text></svg><svg x="0" y="0" font-size="11px" style="overflow:visible"><text transform="" x="1140" y="50" font-size="11px" fill="#CDC8E1" text-anchor="middle"><tspan x="1140" dy="0.355em">Optimal utilization 80%</tspan></text></svg></g></svg>