<?xml version="1.0"?><svg xmlns="http://www.w3.org/2000/svg" xmlns:xlink= "http://www.w3.org/1999/xlink" style="background: white;" width="1500" height="185"> <g style="color: black; font-size: 13px; font-family: sans-serif; transform: translate(18px, 25px);"><g><circle r="3" cx="-6" cy="-5" style="fill: #B6509E" /><text>Borrow APR, variable</text></g><g style="transform: translateX(150px);"><circle r="3" cx="-6" cy="-5" style="fill: rgb(231, 198, 223)" /><text>Borrow APR, stable</text></g><g style="transform: translateX(290px);"><circle r="3" cx="-6" cy="-5" style="fill: rgb(0, 98, 210)" /><text>Utilization Rate</text></g></g><g class="visx-group" transform="translate(40, 50)"><g class="visx-group visx-rows" transform="translate(0, 0)"><line class="visx-line" x1="0" y1="115" x2="1450" y2="115" fill="transparent" shape-rendering="crispEdges" stroke="#000" stroke-width="1" stroke-dasharray="3,3" pointer-events="none"></line><line class="visx-line" x1="0" y1="83.05555555555556" x2="1450" y2="83.05555555555556" fill="transparent" shape-rendering="crispEdges" stroke="#000" stroke-width="1" stroke-dasharray="3,3" pointer-events="none"></line><line class="visx-line" x1="0" y1="51.11111111111111" x2="1450" y2="51.11111111111111" fill="transparent" shape-rendering="crispEdges" stroke="#000" stroke-width="1" stroke-dasharray="3,3" pointer-events="none"></line><line class="visx-line" x1="0" y1="19.16666666666666" x2="1450" y2="19.16666666666666" fill="transparent" shape-rendering="crispEdges" stroke="#000" stroke-width="1" stroke-dasharray="3,3" pointer-events="none"></line></g><path class="visx-linepath" d="M0,114.99999999995437C2.4166666666666665,114.99239417986756,4.833333333333334,114.98478835978077,7.25,114.97718253968254C9.666666666666666,114.96957671958432,12.083333333333334,114.9619708994709,14.5,114.95436507936508C16.916666666666668,114.94675925925925,19.333333333333332,114.93915343915344,21.75,114.93154761904762C24.166666666666668,114.9239417989418,26.583333333333332,114.91633597883599,29,114.90873015873017C31.416666666666668,114.90112433862434,33.833333333333336,114.89351851851852,36.25,114.8859126984127C38.666666666666664,114.87830687830687,41.083333333333336,114.87070105820106,43.5,114.86309523809524C45.91666666666667,114.85548941798942,48.333333333333336,114.8478835978836,50.75000000000001,114.84027777777777C53.16666666666667,114.83267195767195,55.583333333333336,114.82506613756614,58,114.81746031746032C60.416666666666664,114.8098544973545,62.833333333333336,114.80224867724868,65.25,114.79464285714286C67.66666666666667,114.78703703703704,70.08333333333333,114.77943121693121,72.5,114.77182539682539C74.91666666666667,114.76421957671957,77.33333333333333,114.75661375661376,79.75,114.74900793650794C82.16666666666667,114.74140211640211,84.58333333333333,114.7337962962963,87,114.72619047619048C89.41666666666667,114.71858465608466,91.83333333333333,114.71097883597884,94.25,114.70337301587301C96.66666666666667,114.69576719576719,99.08333333333334,114.68816137566138,101.50000000000001,114.68055555555556C103.91666666666667,114.67294973544973,106.33333333333334,114.66534391534393,108.75,114.6577380952381C111.16666666666667,114.65013227513228,113.58333333333333,114.64252645502646,116,114.63492063492063C118.41666666666667,114.62731481481481,120.83333333333334,114.619708994709,123.25000000000001,114.61210317460318C125.66666666666667,114.60449735449735,128.08333333333334,114.59689153439155,130.5,114.58928571428572C132.91666666666666,114.5816798941799,135.33333333333334,114.57407407407408,137.75,114.56646825396825C140.16666666666666,114.55886243386243,142.58333333333334,114.55125661375662,145,114.5436507936508C147.41666666666666,114.53604497354497,149.83333333333334,114.52843915343915,152.25,114.52083333333333C154.66666666666666,114.5132275132275,157.08333333333334,114.5056216931217,159.5,114.49801587301587C161.91666666666666,114.49041005291005,164.33333333333334,114.48280423280424,166.75,114.47519841269842C169.16666666666666,114.4675925925926,171.58333333333334,114.45998677248677,174,114.45238095238095C176.41666666666666,114.44477513227513,178.83333333333334,114.43716931216932,181.25,114.4295634920635C183.66666666666666,114.42195767195767,186.08333333333334,114.41435185185186,188.5,114.40674603174604C190.91666666666666,114.39914021164022,193.33333333333334,114.39153439153439,195.75,114.38392857142857C198.16666666666669,114.37632275132275,200.58333333333334,114.36871693121694,203.00000000000003,114.36111111111111C205.41666666666669,114.35350529100529,207.83333333333331,114.34589947089948,210.24999999999997,114.33829365079366C212.66666666666666,114.33068783068784,215.08333333333331,114.32308201058201,217.5,114.31547619047619C219.91666666666666,114.30787037037037,222.33333333333334,114.30026455026456,224.75,114.29265873015873C227.16666666666666,114.28505291005291,229.58333333333334,114.27744708994709,232,114.26984126984127C234.41666666666666,114.26223544973544,236.83333333333334,114.25462962962963,239.25,114.24702380952381C241.66666666666669,114.23941798941799,244.08333333333334,114.23181216931218,246.50000000000003,114.22420634920636C248.91666666666669,114.21660052910053,251.33333333333331,114.20899470899471,253.74999999999997,114.20138888888889C256.16666666666663,114.19378306878306,258.5833333333333,114.18617724867725,261,114.17857142857143C263.4166666666667,114.17096560846561,265.8333333333333,114.1633597883598,268.25,114.15575396825398C270.6666666666667,114.14814814814815,273.0833333333333,114.14054232804233,275.5,114.1329365079365C277.9166666666667,114.12533068783068,280.3333333333333,114.11772486772487,282.75,114.11011904761905C285.1666666666667,114.10251322751323,287.5833333333333,114.09490740740742,290,114.0873015873016C292.4166666666667,114.07969576719577,294.8333333333333,114.07208994708995,297.25,114.06448412698413C299.6666666666667,114.0568783068783,302.0833333333333,114.0492724867725,304.5,114.04166666666667C306.9166666666667,114.03406084656085,309.3333333333333,114.02645502645504,311.75,114.01884920634922C314.1666666666667,114.0112433862434,316.5833333333333,114.00363756613757,319,113.99603174603175C321.4166666666667,113.98842592592592,323.8333333333333,113.98082010582011,326.25,113.97321428571429C328.6666666666667,113.96560846560847,331.0833333333333,113.95800264550265,333.5,113.95039682539682C335.9166666666667,113.942791005291,338.3333333333333,113.93518518518519,340.75,113.92757936507937C343.1666666666667,113.91997354497354,345.5833333333333,113.91236772486774,348,113.90476190476191C350.4166666666667,113.89715608465609,352.8333333333333,113.88955026455027,355.25,113.88194444444444C357.6666666666667,113.87433862433862,360.0833333333333,113.86673280423281,362.5,113.85912698412699C364.9166666666667,113.85152116402116,367.3333333333333,113.84391534391536,369.75,113.83630952380953C372.1666666666667,113.82870370370371,374.5833333333333,113.82109788359789,377,113.81349206349206C379.4166666666667,113.80588624338624,381.8333333333333,113.79828042328043,384.25,113.79067460317461C386.6666666666667,113.78306878306879,389.0833333333333,113.77546296296298,391.5,113.76785714285715C393.9166666666667,113.76025132275133,396.33333333333337,113.7526455026455,398.75000000000006,113.74503968253968C401.16666666666674,113.73743386243386,403.58333333333337,113.72982804232805,406.00000000000006,113.72222222222223C408.4166666666667,113.7146164021164,410.8333333333333,113.7070105820106,413.24999999999994,113.69940476190477C415.66666666666663,113.69179894179895,418.08333333333326,113.68419312169313,420.49999999999994,113.6765873015873C422.91666666666663,113.66898148148148,425.3333333333333,113.66137566137567,427.75,113.65376984126985C430.1666666666667,113.64616402116403,432.5833333333333,113.6385582010582,435,113.63095238095238C437.4166666666667,113.62334656084656,439.8333333333333,113.61574074074075,442.25,113.60813492063492C444.6666666666667,113.6005291005291,447.0833333333333,113.59292328042329,449.5,113.58531746031747C451.9166666666667,113.57771164021165,454.3333333333333,113.57010582010582,456.75,113.5625C459.1666666666667,113.55489417989418,461.5833333333333,113.54728835978837,464,113.53968253968254C466.4166666666667,113.53207671957672,468.8333333333333,113.52447089947091,471.25,113.51686507936509C473.6666666666667,113.50925925925927,476.0833333333333,113.50165343915344,478.5,113.49404761904762C480.9166666666667,113.4864417989418,483.33333333333337,113.47883597883599,485.75000000000006,113.47123015873017C488.16666666666674,113.46362433862434,490.58333333333337,113.45601851851853,493.00000000000006,113.44841269841271C495.4166666666667,113.44080687830689,497.8333333333333,113.43320105820106,500.24999999999994,113.42559523809524C502.66666666666663,113.41798941798942,505.08333333333326,113.41038359788361,507.49999999999994,113.40277777777779C509.91666666666663,113.39517195767196,512.3333333333333,113.38756613756614,514.75,113.37996031746032C517.1666666666666,113.3723544973545,519.5833333333334,113.36474867724868,522,113.35714285714286C524.4166666666666,113.34953703703704,526.8333333333334,113.34193121693123,529.25,113.3343253968254C531.6666666666666,113.32671957671958,534.0833333333334,113.31911375661376,536.5,113.31150793650794C538.9166666666666,113.30390211640211,541.3333333333334,113.2962962962963,543.75,113.28869047619048C546.1666666666666,113.28108465608466,548.5833333333334,113.27347883597885,551,113.26587301587303C553.4166666666666,113.2582671957672,555.8333333333334,113.25066137566138,558.25,113.24305555555556C560.6666666666666,113.23544973544973,563.0833333333334,113.22784391534393,565.5,113.2202380952381C567.9166666666666,113.21263227513228,570.3333333333334,113.20502645502647,572.75,113.19742063492065C575.1666666666666,113.18981481481482,577.5833333333334,113.182208994709,580,113.17460317460318C582.4166666666666,113.16699735449735,584.8333333333334,113.15939153439155,587.25,113.15178571428572C589.6666666666666,113.1441798941799,592.0833333333334,113.13657407407408,594.5,113.12896825396825C596.9166666666666,113.12136243386243,599.3333333333334,113.1137566137566,601.75,113.10615079365078C604.1666666666666,113.09854497354496,606.5833333333334,113.09093915343915,609,113.08333333333333C611.4166666666666,113.0757275132275,613.8333333333334,113.0681216931217,616.25,113.06051587301587C618.6666666666666,113.05291005291005,621.0833333333334,113.04530423280423,623.5,113.0376984126984C625.9166666666666,113.03009259259258,628.3333333333334,113.02248677248677,630.75,113.01488095238095C633.1666666666666,113.00727513227513,635.5833333333334,112.9996693121693,638,112.99206349206348C640.4166666666666,112.98445767195766,642.8333333333334,112.97685185185185,645.25,112.96924603174602C647.6666666666666,112.9616402116402,650.0833333333334,112.95403439153439,652.5,112.94642857142857C654.9166666666666,112.93882275132275,657.3333333333334,112.93121693121692,659.75,112.9236111111111C662.1666666666666,112.91600529100528,664.5833333333334,112.90839947089947,667,112.90079365079364C669.4166666666666,112.89318783068782,671.8333333333334,112.88558201058201,674.25,112.87797619047619C676.6666666666666,112.87037037037037,679.0833333333334,112.86276455026454,681.5,112.85515873015872C683.9166666666666,112.8475529100529,686.3333333333334,112.83994708994709,688.75,112.83234126984127C691.1666666666666,112.82473544973544,693.5833333333334,112.81712962962963,696,112.80952380952381C698.4166666666666,112.80191798941799,700.8333333333334,112.79431216931216,703.25,112.78670634920634C705.6666666666666,112.77910052910052,708.0833333333334,112.77149470899471,710.5,112.76388888888889C712.9166666666666,112.75628306878306,715.3333333333334,112.74867724867725,717.75,112.74107142857143C720.1666666666666,112.73346560846561,722.5833333333334,112.72585978835978,725,112.71825396825396C727.4166666666666,112.71064814814814,729.8333333333334,112.70304232804233,732.25,112.6954365079365C734.6666666666666,112.68783068783068,737.0833333333334,112.68022486772486,739.5,112.67261904761904C741.9166666666666,112.66501322751321,744.3333333333334,112.6574074074074,746.75,112.64980158730158C749.1666666666666,112.64219576719576,751.5833333333334,112.63458994708995,754,112.62698412698413C756.4166666666666,112.6193783068783,758.8333333333334,112.61177248677248,761.25,112.60416666666666C763.6666666666666,112.59656084656083,766.0833333333334,112.58895502645503,768.5,112.5813492063492C770.9166666666666,112.57374338624338,773.3333333333334,112.56613756613757,775.75,112.55853174603175C778.1666666666666,112.55092592592592,780.5833333333334,112.5433201058201,783,112.53571428571428C785.4166666666667,112.52810846560845,787.8333333333334,112.52050264550265,790.2500000000001,112.51289682539682C792.6666666666667,112.505291005291,795.0833333333335,112.49768518518519,797.5000000000001,112.49007936507937C799.9166666666667,112.48247354497354,802.3333333333335,112.47486772486772,804.7500000000001,112.4672619047619C807.1666666666667,112.45965608465607,809.5833333333335,112.45205026455027,812.0000000000001,112.44444444444444C814.4166666666667,112.43683862433862,816.8333333333333,112.4292328042328,819.2499999999999,112.42162698412697C821.6666666666665,112.41402116402115,824.0833333333333,112.40641534391534,826.4999999999999,112.39880952380952C828.9166666666665,112.3912037037037,831.3333333333333,112.38359788359789,833.7499999999999,112.37599206349206C836.1666666666665,112.36838624338624,838.5833333333333,112.36078042328042,840.9999999999999,112.3531746031746C843.4166666666666,112.34556878306877,845.8333333333333,112.33796296296296,848.25,112.33035714285714C850.6666666666666,112.32275132275132,853.0833333333334,112.3151455026455,855.5,112.30753968253968C857.9166666666666,112.29993386243386,860.3333333333334,112.29232804232804,862.75,112.28472222222221C865.1666666666666,112.27711640211639,867.5833333333334,112.26951058201058,870,112.26190476190476C872.4166666666666,112.25429894179894,874.8333333333334,112.24669312169313,877.25,112.2390873015873C879.6666666666666,112.23148148148148,882.0833333333334,112.22387566137566,884.5,112.21626984126983C886.9166666666666,112.20866402116401,889.3333333333334,112.2010582010582,891.75,112.19345238095238C894.1666666666666,112.18584656084656,896.5833333333334,112.17824074074075,899,112.17063492063492C901.4166666666666,112.1630291005291,903.8333333333334,112.15542328042328,906.25,112.14781746031746C908.6666666666666,112.14021164021163,911.0833333333334,112.13260582010582,913.5,112.125C915.9166666666666,112.11739417989418,918.3333333333334,112.10978835978835,920.75,112.10218253968253C923.1666666666666,112.09457671957671,925.5833333333334,112.0869708994709,928,112.07936507936508C930.4166666666666,112.07175925925925,932.8333333333334,112.06415343915344,935.25,112.05654761904762C937.6666666666666,112.0489417989418,940.0833333333334,112.04133597883597,942.5,112.03373015873015C944.9166666666666,112.02612433862433,947.3333333333334,112.01851851851852,949.75,112.0109126984127C952.1666666666666,112.00330687830687,954.5833333333334,111.99570105820106,957,111.98809523809524C959.4166666666666,111.98048941798942,961.8333333333334,111.9728835978836,964.25,111.96527777777777C966.6666666666667,111.95767195767195,969.0833333333334,111.95006613756614,971.5000000000001,111.94246031746032C973.9166666666667,111.9348544973545,976.3333333333335,111.92724867724868,978.7500000000001,111.91964285714286C981.1666666666667,111.91203703703704,983.5833333333335,111.90443121693121,986.0000000000001,111.89682539682539C988.4166666666667,111.88921957671957,990.8333333333335,111.88161375661376,993.2500000000001,111.87400793650794C995.6666666666667,111.86640211640211,998.0833333333333,111.8587962962963,1000.4999999999999,111.85119047619048C1002.9166666666665,111.84358465608466,1005.3333333333333,111.83597883597884,1007.7499999999999,111.82837301587301C1010.1666666666665,111.82076719576719,1012.5833333333333,111.82076719576719,1014.9999999999999,111.80555555555556C1017.4166666666665,111.79034391534393,1019.8333333333333,110.74074074074075,1022.2499999999999,110.20833333333334C1024.6666666666665,109.67592592592594,1027.0833333333333,109.14351851851853,1029.5,108.61111111111111C1031.9166666666667,108.07870370370371,1034.3333333333333,107.54629629629629,1036.75,107.01388888888889C1039.1666666666667,106.48148148148148,1041.5833333333333,105.94907407407406,1044,105.41666666666666C1046.4166666666667,104.88425925925925,1048.8333333333333,104.35185185185185,1051.25,103.81944444444444C1053.6666666666667,103.28703703703704,1056.0833333333333,102.75462962962962,1058.5,102.22222222222221C1060.9166666666667,101.68981481481481,1063.3333333333333,101.1574074074074,1065.75,100.625C1068.1666666666667,100.0925925925926,1070.5833333333333,99.56018518518519,1073,99.02777777777779C1075.4166666666667,98.49537037037038,1077.8333333333333,97.96296296296296,1080.25,97.43055555555556C1082.6666666666667,96.89814814814815,1085.0833333333333,96.36574074074075,1087.5,95.83333333333334C1089.9166666666667,95.30092592592594,1092.3333333333333,94.76851851851852,1094.75,94.23611111111111C1097.1666666666667,93.70370370370371,1099.5833333333333,93.17129629629629,1102,92.63888888888889C1104.4166666666667,92.10648148148148,1106.8333333333333,91.57407407407406,1109.25,91.04166666666666C1111.6666666666667,90.50925925925925,1114.0833333333333,89.97685185185185,1116.5,89.44444444444444C1118.9166666666667,88.91203703703704,1121.3333333333333,88.37962962962962,1123.75,87.84722222222221C1126.1666666666667,87.31481481481481,1128.5833333333333,86.7824074074074,1131,86.25C1133.4166666666667,85.7175925925926,1135.8333333333333,85.18518518518519,1138.25,84.65277777777779C1140.6666666666667,84.12037037037038,1143.0833333333333,83.58796296296296,1145.5,83.05555555555556C1147.9166666666667,82.52314814814815,1150.3333333333333,81.99074074074073,1152.75,81.45833333333333C1155.1666666666667,80.92592592592592,1157.5833333333333,80.39351851851852,1160,79.86111111111111C1162.4166666666667,79.32870370370371,1164.8333333333333,78.79629629629629,1167.25,78.26388888888889C1169.6666666666667,77.73148148148148,1172.0833333333333,77.19907407407408,1174.5,76.66666666666667C1176.9166666666667,76.13425925925927,1179.3333333333333,75.60185185185185,1181.75,75.06944444444444C1184.1666666666667,74.53703703703704,1186.5833333333333,74.00462962962962,1189,73.47222222222221C1191.4166666666667,72.93981481481481,1193.8333333333333,72.4074074074074,1196.25,71.875C1198.6666666666667,71.3425925925926,1201.0833333333333,70.81018518518519,1203.5,70.27777777777779C1205.9166666666667,69.74537037037038,1208.3333333333333,69.21296296296296,1210.75,68.68055555555556C1213.1666666666667,68.14814814814815,1215.5833333333333,67.61574074074073,1218,67.08333333333333C1220.4166666666667,66.55092592592592,1222.8333333333333,66.01851851851852,1225.25,65.48611111111111C1227.6666666666667,64.95370370370371,1230.0833333333333,64.4212962962963,1232.5,63.88888888888889C1234.9166666666667,63.35648148148149,1237.3333333333333,62.82407407407409,1239.75,62.29166666666668C1242.1666666666667,61.75925925925927,1244.5833333333333,61.226851851851855,1247,60.69444444444444C1249.4166666666667,60.16203703703703,1251.8333333333333,59.62962962962962,1254.25,59.097222222222214C1256.6666666666667,58.56481481481481,1259.0833333333333,58.032407407407405,1261.5,57.5C1263.9166666666667,56.967592592592595,1266.3333333333333,56.43518518518519,1268.75,55.902777777777786C1271.1666666666667,55.37037037037038,1273.5833333333333,54.83796296296296,1276,54.30555555555556C1278.4166666666667,53.77314814814815,1280.8333333333333,53.24074074074075,1283.25,52.708333333333336C1285.6666666666667,52.175925925925924,1288.0833333333333,51.64351851851851,1290.5,51.11111111111111C1292.9166666666667,50.5787037037037,1295.3333333333333,50.0462962962963,1297.75,49.51388888888889C1300.1666666666667,48.98148148148149,1302.5833333333333,48.449074074074076,1305,47.916666666666664C1307.4166666666667,47.38425925925925,1309.8333333333333,46.85185185185185,1312.25,46.31944444444444C1314.6666666666667,45.78703703703704,1317.0833333333333,45.25462962962962,1319.5,44.722222222222214C1321.9166666666667,44.18981481481481,1324.3333333333333,43.657407407407405,1326.75,43.125C1329.1666666666667,42.592592592592595,1331.5833333333333,42.06018518518519,1334,41.527777777777786C1336.4166666666667,40.99537037037038,1338.8333333333333,40.46296296296296,1341.25,39.93055555555556C1343.6666666666667,39.39814814814815,1346.0833333333333,38.86574074074075,1348.5,38.333333333333336C1350.9166666666667,37.800925925925924,1353.3333333333333,37.26851851851851,1355.75,36.73611111111111C1358.1666666666667,36.2037037037037,1360.5833333333333,35.6712962962963,1363,35.13888888888889C1365.4166666666667,34.60648148148149,1367.8333333333333,34.07407407407408,1370.25,33.54166666666668C1372.6666666666667,33.009259259259274,1375.0833333333333,32.476851851851855,1377.5,31.944444444444446C1379.9166666666667,31.412037037037038,1382.3333333333333,30.879629629629626,1384.75,30.347222222222218C1387.1666666666667,29.81481481481481,1389.5833333333333,29.282407407407405,1392,28.75C1394.4166666666667,28.217592592592595,1396.8333333333333,27.68518518518519,1399.25,27.152777777777782C1401.6666666666667,26.620370370370374,1404.0833333333333,26.087962962962962,1406.5,25.555555555555554C1408.9166666666667,25.023148148148145,1411.3333333333333,24.490740740740748,1413.75,23.95833333333334C1416.1666666666667,23.42592592592593,1418.5833333333333,22.893518518518515,1421,22.361111111111107C1423.4166666666667,21.8287037037037,1425.8333333333333,21.2962962962963,1428.25,20.763888888888893C1430.6666666666667,20.231481481481485,1433.0833333333333,19.69907407407407,1435.5,19.16666666666666C1437.9166666666667,18.634259259259252,1440.3333333333333,18.101851851851855,1442.75,17.569444444444446C1445.1666666666667,17.037037037037038,1447.5833333333333,16.504629629629626,1450,15.972222222222216" fill="transparent" stroke-linecap="round" stroke="#B6509E" stroke-width="2"></path><path class="visx-linepath" d="M0,108.6111111110746C2.4166666666666665,108.60502645500516,4.833333333333334,108.59894179893571,7.25,108.59285714285714C9.666666666666666,108.58677248677857,12.083333333333334,108.58068783068784,14.5,108.57460317460318C16.916666666666668,108.56851851851853,19.333333333333332,108.56243386243386,21.75,108.55634920634921C24.166666666666668,108.55026455026456,26.583333333333332,108.54417989417989,29,108.53809523809524C31.416666666666668,108.53201058201059,33.833333333333336,108.52592592592592,36.25,108.51984126984127C38.666666666666664,108.51375661375661,41.083333333333336,108.50767195767196,43.5,108.5015873015873C45.91666666666667,108.49550264550265,48.333333333333336,108.48941798941799,50.75000000000001,108.48333333333333C53.16666666666667,108.47724867724868,55.583333333333336,108.47116402116403,58,108.46507936507938C60.416666666666664,108.45899470899472,62.833333333333336,108.45291005291004,65.25,108.44682539682539C67.66666666666667,108.44074074074074,70.08333333333333,108.43465608465608,72.5,108.42857142857143C74.91666666666667,108.42248677248678,77.33333333333333,108.41640211640211,79.75,108.41031746031746C82.16666666666667,108.4042328042328,84.58333333333333,108.39814814814815,87,108.3920634920635C89.41666666666667,108.38597883597885,91.83333333333333,108.37989417989418,94.25,108.37380952380953C96.66666666666667,108.36772486772487,99.08333333333334,108.3616402116402,101.50000000000001,108.35555555555555C103.91666666666667,108.3494708994709,106.33333333333334,108.34338624338623,108.75,108.33730158730158C111.16666666666667,108.33121693121693,113.58333333333333,108.32513227513228,116,108.31904761904762C118.41666666666667,108.31296296296297,120.83333333333334,108.3068783068783,123.25000000000001,108.30079365079365C125.66666666666667,108.294708994709,128.08333333333334,108.28862433862435,130.5,108.28253968253969C132.91666666666666,108.27645502645504,135.33333333333334,108.27037037037036,137.75,108.2642857142857C140.16666666666666,108.25820105820105,142.58333333333334,108.2521164021164,145,108.24603174603175C147.41666666666666,108.2399470899471,149.83333333333334,108.23386243386243,152.25,108.22777777777777C154.66666666666666,108.22169312169312,157.08333333333334,108.21560846560847,159.5,108.20952380952382C161.91666666666666,108.20343915343916,164.33333333333334,108.1973544973545,166.75,108.19126984126984C169.16666666666666,108.18518518518519,171.58333333333334,108.17910052910052,174,108.17301587301587C176.41666666666666,108.16693121693122,178.83333333333334,108.16084656084655,181.25,108.1547619047619C183.66666666666666,108.14867724867725,186.08333333333334,108.14259259259259,188.5,108.13650793650794C190.91666666666666,108.13042328042329,193.33333333333334,108.12433862433862,195.75,108.11825396825397C198.16666666666669,108.11216931216931,200.58333333333334,108.10608465608465,203.00000000000003,108.1C205.41666666666669,108.09391534391534,207.83333333333331,108.08783068783067,210.24999999999997,108.08174603174602C212.66666666666666,108.07566137566137,215.08333333333331,108.06957671957672,217.5,108.06349206349206C219.91666666666666,108.05740740740741,222.33333333333334,108.05132275132274,224.75,108.04523809523809C227.16666666666666,108.03915343915344,229.58333333333334,108.03306878306879,232,108.02698412698413C234.41666666666666,108.02089947089948,236.83333333333334,108.01481481481481,239.25,108.00873015873016C241.66666666666669,108.0026455026455,244.08333333333334,107.99656084656084,246.50000000000003,107.99047619047619C248.91666666666669,107.98439153439153,251.33333333333331,107.97830687830688,253.74999999999997,107.97222222222223C256.16666666666663,107.96613756613758,258.5833333333333,107.96005291005291,261,107.95396825396826C263.4166666666667,107.9478835978836,265.8333333333333,107.94179894179894,268.25,107.93571428571428C270.6666666666667,107.92962962962963,273.0833333333333,107.92354497354496,275.5,107.91746031746031C277.9166666666667,107.91137566137566,280.3333333333333,107.905291005291,282.75,107.89920634920635C285.1666666666667,107.8931216931217,287.5833333333333,107.88703703703703,290,107.88095238095238C292.4166666666667,107.87486772486773,294.8333333333333,107.86878306878307,297.25,107.86269841269842C299.6666666666667,107.85661375661377,302.0833333333333,107.8505291005291,304.5,107.84444444444445C306.9166666666667,107.8383597883598,309.3333333333333,107.83227513227513,311.75,107.82619047619048C314.1666666666667,107.82010582010582,316.5833333333333,107.81402116402116,319,107.8079365079365C321.4166666666667,107.80185185185185,323.8333333333333,107.7957671957672,326.25,107.78968253968254C328.6666666666667,107.78359788359789,331.0833333333333,107.77751322751323,333.5,107.77142857142857C335.9166666666667,107.76534391534392,338.3333333333333,107.75925925925927,340.75,107.75317460317461C343.1666666666667,107.74708994708996,345.5833333333333,107.74100529100528,348,107.73492063492063C350.4166666666667,107.72883597883597,352.8333333333333,107.72275132275132,355.25,107.71666666666667C357.6666666666667,107.71058201058202,360.0833333333333,107.70449735449735,362.5,107.6984126984127C364.9166666666667,107.69232804232804,367.3333333333333,107.68624338624339,369.75,107.68015873015874C372.1666666666667,107.67407407407408,374.5833333333333,107.66798941798942,377,107.66190476190476C379.4166666666667,107.65582010582011,381.8333333333333,107.64973544973545,384.25,107.64365079365079C386.6666666666667,107.63756613756614,389.0833333333333,107.63148148148147,391.5,107.62539682539682C393.9166666666667,107.61931216931217,396.33333333333337,107.61322751322751,398.75000000000006,107.60714285714286C401.16666666666674,107.60105820105821,403.58333333333337,107.59497354497354,406.00000000000006,107.58888888888889C408.4166666666667,107.58280423280424,410.8333333333333,107.57671957671958,413.24999999999994,107.57063492063493C415.66666666666663,107.56455026455028,418.08333333333326,107.5584656084656,420.49999999999994,107.55238095238094C422.91666666666663,107.54629629629629,425.3333333333333,107.54021164021164,427.75,107.53412698412698C430.1666666666667,107.52804232804233,432.5833333333333,107.52195767195767,435,107.51587301587301C437.4166666666667,107.50978835978836,439.8333333333333,107.5037037037037,442.25,107.49761904761905C444.6666666666667,107.4915343915344,447.0833333333333,107.48544973544973,449.5,107.47936507936508C451.9166666666667,107.47328042328043,454.3333333333333,107.46719576719576,456.75,107.46111111111111C459.1666666666667,107.45502645502646,461.5833333333333,107.44894179894179,464,107.44285714285714C466.4166666666667,107.43677248677248,468.8333333333333,107.43068783068783,471.25,107.42460317460318C473.6666666666667,107.41851851851852,476.0833333333333,107.41243386243386,478.5,107.4063492063492C480.9166666666667,107.40026455026455,483.33333333333337,107.3941798941799,485.75000000000006,107.38809523809525C488.16666666666674,107.3820105820106,490.58333333333337,107.37592592592591,493.00000000000006,107.36984126984126C495.4166666666667,107.3637566137566,497.8333333333333,107.35767195767195,500.24999999999994,107.3515873015873C502.66666666666663,107.34550264550265,505.08333333333326,107.33941798941798,507.49999999999994,107.33333333333333C509.91666666666663,107.32724867724868,512.3333333333333,107.32116402116402,514.75,107.31507936507937C517.1666666666666,107.30899470899472,519.5833333333334,107.30291005291005,522,107.2968253968254C524.4166666666666,107.29074074074074,526.8333333333334,107.28465608465608,529.25,107.27857142857142C531.6666666666666,107.27248677248677,534.0833333333334,107.26640211640212,536.5,107.26031746031747C538.9166666666666,107.25423280423281,541.3333333333334,107.24814814814815,543.75,107.2420634920635C546.1666666666666,107.23597883597884,548.5833333333334,107.22989417989419,551,107.22380952380954C553.4166666666666,107.21772486772488,555.8333333333334,107.21164021164022,558.25,107.20555555555556C560.6666666666666,107.19947089947091,563.0833333333334,107.19338624338624,565.5,107.18730158730159C567.9166666666666,107.18121693121694,570.3333333333334,107.17513227513227,572.75,107.16904761904762C575.1666666666666,107.16296296296296,577.5833333333334,107.15687830687831,580,107.15079365079366C582.4166666666666,107.144708994709,584.8333333333334,107.13862433862434,587.25,107.13253968253969C589.6666666666666,107.12645502645503,592.0833333333334,107.12037037037037,594.5,107.11428571428571C596.9166666666666,107.10820105820106,599.3333333333334,107.1021164021164,601.75,107.09603174603174C604.1666666666666,107.08994708994709,606.5833333333334,107.08386243386244,609,107.07777777777778C611.4166666666666,107.07169312169313,613.8333333333334,107.06560846560846,616.25,107.05952380952381C618.6666666666666,107.05343915343916,621.0833333333334,107.0473544973545,623.5,107.04126984126985C625.9166666666666,107.0351851851852,628.3333333333334,107.02910052910052,630.75,107.02301587301586C633.1666666666666,107.01693121693121,635.5833333333334,107.01084656084656,638,107.0047619047619C640.4166666666666,106.99867724867725,642.8333333333334,106.99259259259259,645.25,106.98650793650793C647.6666666666666,106.98042328042328,650.0833333333334,106.97433862433863,652.5,106.96825396825398C654.9166666666666,106.96216931216932,657.3333333333334,106.95608465608466,659.75,106.95C662.1666666666666,106.94391534391535,664.5833333333334,106.93783068783068,667,106.93174603174603C669.4166666666666,106.92566137566138,671.8333333333334,106.91957671957671,674.25,106.91349206349206C676.6666666666666,106.9074074074074,679.0833333333334,106.90132275132275,681.5,106.8952380952381C683.9166666666666,106.88915343915345,686.3333333333334,106.88306878306878,688.75,106.87698412698413C691.1666666666666,106.87089947089947,693.5833333333334,106.86481481481482,696,106.85873015873017C698.4166666666666,106.85264550264552,700.8333333333334,106.84656084656083,703.25,106.84047619047618C705.6666666666666,106.83439153439153,708.0833333333334,106.82830687830688,710.5,106.82222222222222C712.9166666666666,106.81613756613757,715.3333333333334,106.8100529100529,717.75,106.80396825396825C720.1666666666666,106.7978835978836,722.5833333333334,106.79179894179894,725,106.78571428571429C727.4166666666666,106.77962962962964,729.8333333333334,106.77354497354496,732.25,106.7674603174603C734.6666666666666,106.76137566137565,737.0833333333334,106.755291005291,739.5,106.74920634920635C741.9166666666666,106.7431216931217,744.3333333333334,106.73703703703703,746.75,106.73095238095237C749.1666666666666,106.72486772486772,751.5833333333334,106.71878306878307,754,106.71269841269842C756.4166666666666,106.70661375661376,758.8333333333334,106.7005291005291,761.25,106.69444444444444C763.6666666666666,106.68835978835979,766.0833333333334,106.68227513227512,768.5,106.67619047619047C770.9166666666666,106.67010582010582,773.3333333333334,106.66402116402115,775.75,106.6579365079365C778.1666666666666,106.65185185185184,780.5833333333334,106.64576719576719,783,106.63968253968254C785.4166666666667,106.63359788359789,787.8333333333334,106.62751322751322,790.2500000000001,106.62142857142857C792.6666666666667,106.61534391534391,795.0833333333335,106.60925925925926,797.5000000000001,106.60317460317461C799.9166666666667,106.59708994708996,802.3333333333335,106.59100529100529,804.7500000000001,106.58492063492064C807.1666666666667,106.57883597883598,809.5833333333335,106.57275132275132,812.0000000000001,106.56666666666666C814.4166666666667,106.56058201058201,816.8333333333333,106.55449735449736,819.2499999999999,106.5484126984127C821.6666666666665,106.54232804232805,824.0833333333333,106.53624338624338,826.4999999999999,106.53015873015873C828.9166666666665,106.52407407407408,831.3333333333333,106.51798941798943,833.7499999999999,106.51190476190477C836.1666666666665,106.50582010582012,838.5833333333333,106.49973544973544,840.9999999999999,106.49365079365079C843.4166666666666,106.48756613756613,845.8333333333333,106.48148148148148,848.25,106.47539682539683C850.6666666666666,106.46931216931218,853.0833333333334,106.46322751322751,855.5,106.45714285714286C857.9166666666666,106.4510582010582,860.3333333333334,106.44497354497355,862.75,106.4388888888889C865.1666666666666,106.43280423280424,867.5833333333334,106.42671957671958,870,106.42063492063492C872.4166666666666,106.41455026455027,874.8333333333334,106.4084656084656,877.25,106.40238095238095C879.6666666666666,106.3962962962963,882.0833333333334,106.39021164021163,884.5,106.38412698412698C886.9166666666666,106.37804232804233,889.3333333333334,106.37195767195767,891.75,106.36587301587302C894.1666666666666,106.35978835978837,896.5833333333334,106.3537037037037,899,106.34761904761905C901.4166666666666,106.3415343915344,903.8333333333334,106.33544973544974,906.25,106.32936507936509C908.6666666666666,106.32328042328044,911.0833333333334,106.31719576719576,913.5,106.3111111111111C915.9166666666666,106.30502645502645,918.3333333333334,106.2989417989418,920.75,106.29285714285714C923.1666666666666,106.28677248677249,925.5833333333334,106.28068783068782,928,106.27460317460317C930.4166666666666,106.26851851851852,932.8333333333334,106.26243386243387,935.25,106.25634920634921C937.6666666666666,106.25026455026456,940.0833333333334,106.2441798941799,942.5,106.23809523809524C944.9166666666666,106.23201058201059,947.3333333333334,106.22592592592592,949.75,106.21984126984127C952.1666666666666,106.21375661375662,954.5833333333334,106.20767195767195,957,106.2015873015873C959.4166666666666,106.19550264550264,961.8333333333334,106.18941798941799,964.25,106.18333333333334C966.6666666666667,106.17724867724868,969.0833333333334,106.17116402116402,971.5000000000001,106.16507936507936C973.9166666666667,106.15899470899471,976.3333333333335,106.15291005291006,978.7500000000001,106.1468253968254C981.1666666666667,106.14074074074075,983.5833333333335,106.13465608465607,986.0000000000001,106.12857142857142C988.4166666666667,106.12248677248677,990.8333333333335,106.11640211640211,993.2500000000001,106.11031746031746C995.6666666666667,106.10423280423281,998.0833333333333,106.09814814814814,1000.4999999999999,106.09206349206349C1002.9166666666665,106.08597883597884,1005.3333333333333,106.07989417989418,1007.7499999999999,106.07380952380953C1010.1666666666665,106.06772486772488,1012.5833333333333,106.06772486772486,1014.9999999999999,106.05555555555554C1017.4166666666665,106.04338624338622,1019.8333333333333,105.34567901234568,1022.2499999999999,104.99074074074075C1024.6666666666665,104.63580246913581,1027.0833333333333,104.28086419753086,1029.5,103.92592592592592C1031.9166666666667,103.57098765432099,1034.3333333333333,103.21604938271605,1036.75,102.86111111111111C1039.1666666666667,102.50617283950618,1041.5833333333333,102.15123456790123,1044,101.79629629629629C1046.4166666666667,101.44135802469135,1048.8333333333333,101.08641975308642,1051.25,100.73148148148148C1053.6666666666667,100.37654320987654,1056.0833333333333,100.02160493827161,1058.5,99.66666666666667C1060.9166666666667,99.31172839506173,1063.3333333333333,98.95679012345678,1065.75,98.60185185185185C1068.1666666666667,98.24691358024691,1070.5833333333333,97.89197530864197,1073,97.53703703703704C1075.4166666666667,97.1820987654321,1077.8333333333333,96.82716049382717,1080.25,96.47222222222223C1082.6666666666667,96.11728395061729,1085.0833333333333,95.76234567901234,1087.5,95.4074074074074C1089.9166666666667,95.05246913580247,1092.3333333333333,94.69753086419753,1094.75,94.3425925925926C1097.1666666666667,93.98765432098766,1099.5833333333333,93.63271604938271,1102,93.27777777777777C1104.4166666666667,92.92283950617283,1106.8333333333333,92.5679012345679,1109.25,92.21296296296296C1111.6666666666667,91.85802469135803,1114.0833333333333,91.50308641975307,1116.5,91.14814814814814C1118.9166666666667,90.7932098765432,1121.3333333333333,90.43827160493827,1123.75,90.08333333333333C1126.1666666666667,89.72839506172839,1128.5833333333333,89.37345679012346,1131,89.01851851851852C1133.4166666666667,88.66358024691358,1135.8333333333333,88.30864197530865,1138.25,87.95370370370371C1140.6666666666667,87.59876543209877,1143.0833333333333,87.24382716049382,1145.5,86.88888888888889C1147.9166666666667,86.53395061728395,1150.3333333333333,86.179012345679,1152.75,85.82407407407406C1155.1666666666667,85.46913580246913,1157.5833333333333,85.1141975308642,1160,84.75925925925927C1162.4166666666667,84.40432098765433,1164.8333333333333,84.0493827160494,1167.25,83.69444444444446C1169.6666666666667,83.33950617283952,1172.0833333333333,82.98456790123457,1174.5,82.62962962962963C1176.9166666666667,82.2746913580247,1179.3333333333333,81.91975308641975,1181.75,81.56481481481481C1184.1666666666667,81.20987654320987,1186.5833333333333,80.85493827160494,1189,80.5C1191.4166666666667,80.14506172839506,1193.8333333333333,79.79012345679013,1196.25,79.43518518518519C1198.6666666666667,79.08024691358025,1201.0833333333333,78.7253086419753,1203.5,78.37037037037037C1205.9166666666667,78.01543209876543,1208.3333333333333,77.6604938271605,1210.75,77.30555555555556C1213.1666666666667,76.95061728395062,1215.5833333333333,76.59567901234568,1218,76.24074074074075C1220.4166666666667,75.88580246913581,1222.8333333333333,75.53086419753086,1225.25,75.17592592592592C1227.6666666666667,74.82098765432099,1230.0833333333333,74.46604938271604,1232.5,74.1111111111111C1234.9166666666667,73.75617283950616,1237.3333333333333,73.40123456790124,1239.75,73.0462962962963C1242.1666666666667,72.69135802469137,1244.5833333333333,72.33641975308643,1247,71.9814814814815C1249.4166666666667,71.62654320987656,1251.8333333333333,71.27160493827161,1254.25,70.91666666666667C1256.6666666666667,70.56172839506173,1259.0833333333333,70.20679012345678,1261.5,69.85185185185185C1263.9166666666667,69.49691358024691,1266.3333333333333,69.14197530864197,1268.75,68.78703703703704C1271.1666666666667,68.4320987654321,1273.5833333333333,68.07716049382717,1276,67.72222222222223C1278.4166666666667,67.36728395061729,1280.8333333333333,67.01234567901234,1283.25,66.6574074074074C1285.6666666666667,66.30246913580247,1288.0833333333333,65.94753086419753,1290.5,65.5925925925926C1292.9166666666667,65.23765432098766,1295.3333333333333,64.88271604938271,1297.75,64.52777777777777C1300.1666666666667,64.17283950617283,1302.5833333333333,63.817901234567906,1305,63.46296296296297C1307.4166666666667,63.10802469135803,1309.8333333333333,62.753086419753075,1312.25,62.39814814814814C1314.6666666666667,62.0432098765432,1317.0833333333333,61.68827160493827,1319.5,61.333333333333336C1321.9166666666667,60.9783950617284,1324.3333333333333,60.62345679012345,1326.75,60.26851851851851C1329.1666666666667,59.913580246913575,1331.5833333333333,59.558641975308646,1334,59.20370370370371C1336.4166666666667,58.84876543209877,1338.8333333333333,58.49382716049382,1341.25,58.138888888888886C1343.6666666666667,57.78395061728395,1346.0833333333333,57.42901234567902,1348.5,57.07407407407408C1350.9166666666667,56.71913580246915,1353.3333333333333,56.3641975308642,1355.75,56.00925925925926C1358.1666666666667,55.654320987654316,1360.5833333333333,55.29938271604938,1363,54.94444444444444C1365.4166666666667,54.589506172839506,1367.8333333333333,54.234567901234556,1370.25,53.87962962962962C1372.6666666666667,53.52469135802468,1375.0833333333333,53.16975308641975,1377.5,52.81481481481482C1379.9166666666667,52.45987654320988,1382.3333333333333,52.10493827160493,1384.75,51.74999999999999C1387.1666666666667,51.395061728395056,1389.5833333333333,51.04012345679013,1392,50.68518518518519C1394.4166666666667,50.330246913580254,1396.8333333333333,49.9753086419753,1399.25,49.62037037037037C1401.6666666666667,49.26543209876543,1404.0833333333333,48.9104938271605,1406.5,48.555555555555564C1408.9166666666667,48.20061728395063,1411.3333333333333,47.845679012345684,1413.75,47.49074074074074C1416.1666666666667,47.1358024691358,1418.5833333333333,46.78086419753086,1421,46.425925925925924C1423.4166666666667,46.07098765432099,1425.8333333333333,45.71604938271604,1428.25,45.3611111111111C1430.6666666666667,45.00617283950616,1433.0833333333333,44.651234567901234,1435.5,44.2962962962963C1437.9166666666667,43.94135802469136,1440.3333333333333,43.586419753086425,1442.75,43.23148148148149C1445.1666666666667,42.87654320987655,1447.5833333333333,42.52160493827161,1450,42.16666666666667" fill="transparent" stroke-linecap="round" stroke="#E7C6DF" stroke-width="2"></path><g class="visx-group visx-axis visx-axis-bottom" transform="translate(0, 115)"><g class="visx-group visx-axis-tick" transform="translate(0, 0)"><line class="visx-line" x1="0" y1="0" x2="0" y2="8" fill="transparent" shape-rendering="crispEdges" stroke="#000" stroke-width="0" stroke-linecap="square"></line><svg x="0" y="0" font-size="10" style="overflow:visible"><text transform="" x="0" y="18" fill="#000" font-size="10" text-anchor="middle"><tspan x="0" dy="0em">0%</tspan></text></svg></g><g class="visx-group visx-axis-tick" transform="translate(0, 0)"><line class="visx-line" x1="362.5" y1="0" x2="362.5" y2="8" fill="transparent" shape-rendering="crispEdges" stroke="#000" stroke-width="0" stroke-linecap="square"></line><svg x="0" y="0" font-size="10" style="overflow:visible"><text transform="" x="362.5" y="18" fill="#000" font-size="10" text-anchor="middle"><tspan x="362.5" dy="0em">25%</tspan></text></svg></g><g class="visx-group visx-axis-tick" transform="translate(0, 0)"><line class="visx-line" x1="725" y1="0" x2="725" y2="8" fill="transparent" shape-rendering="crispEdges" stroke="#000" stroke-width="0" stroke-linecap="square"></line><svg x="0" y="0" font-size="10" style="overflow:visible"><text transform="" x="725" y="18" fill="#000" font-size="10" text-anchor="middle"><tspan x="725" dy="0em">50%</tspan></text></svg></g><g class="visx-group visx-axis-tick" transform="translate(0, 0)"><line class="visx-line" x1="1087.5" y1="0" x2="1087.5" y2="8" fill="transparent" shape-rendering="crispEdges" stroke="#000" stroke-width="0" stroke-linecap="square"></line><svg x="0" y="0" font-size="10" style="overflow:visible"><text transform="" x="1087.5" y="18" fill="#000" font-size="10" text-anchor="middle"><tspan x="1087.5" dy="0em">75%</tspan></text></svg></g><g class="visx-group visx-axis-tick" transform="translate(0, 0)"><line class="visx-line" x1="1450" y1="0" x2="1450" y2="8" fill="transparent" shape-rendering="crispEdges" stroke="#000" stroke-width="0" stroke-linecap="square"></line><svg x="0" y="0" font-size="10" style="overflow:visible"><text transform="" x="1450" y="18" fill="#000" font-size="10" text-anchor="middle"><tspan x="1450" dy="0em">100%</tspan></text></svg></g><line class="visx-line visx-axis-line" x1="0.5" y1="0" x2="1450.5" y2="0" fill="transparent" shape-rendering="crispEdges" stroke="#222" stroke-width="0"></line></g><g class="visx-group visx-axis visx-axis-left" transform="translate(0, 0)"><g class="visx-group visx-axis-tick" transform="translate(0, 0)"><line class="visx-line" x1="0" y1="115" x2="-8" y2="115" fill="transparent" shape-rendering="crispEdges" stroke="#222" stroke-width="0" stroke-linecap="square"></line><svg x="-30" y="0" font-size="8" style="overflow:visible"><text transform="" x="-8" y="115" fill="#000" font-size="8" text-anchor="start"><tspan x="-8" dy="0em">0%</tspan></text></svg></g><g class="visx-group visx-axis-tick" transform="translate(0, 0)"><line class="visx-line" x1="0" y1="51.11111111111111" x2="-8" y2="51.11111111111111" fill="transparent" shape-rendering="crispEdges" stroke="#222" stroke-width="0" stroke-linecap="square"></line><svg x="-30" y="0" font-size="8" style="overflow:visible"><text transform="" x="-8" y="51.11111111111111" fill="#000" font-size="8" text-anchor="start"><tspan x="-8" dy="0em">100%</tspan></text></svg></g><line class="visx-line visx-axis-line" x1="0" y1="115.5" x2="0" y2="0.5" fill="transparent" shape-rendering="crispEdges" stroke="#222" stroke-width="0"></line></g><rect class="visx-bar" width="1450" height="115" fill="transparent"></rect><line class="visx-line" x1="1014.9999999999999" y1="28" x2="1014.9999999999999" y2="115" fill="transparent" shape-rendering="crispEdges" stroke="#0062D2" stroke-width="1" pointer-events="none" stroke-dasharray="5,2"></line><svg x="0" y="0" font-size="10px" style="overflow:visible"><text transform="" x="1014.9999999999999" y="20" font-size="10px" fill="#fff" stroke="#fff" stroke-width="0.8em" text-anchor="middle"><tspan x="1014.9999999999999" dy="0.355em">Optimal 70%</tspan></text></svg><svg x="0" y="0" font-size="10px" style="overflow:visible"><text transform="" x="1014.9999999999999" y="20" font-size="10px" fill="#62677B" text-anchor="middle"><tspan x="1014.9999999999999" dy="0.355em">Optimal 70%</tspan></text></svg></g></svg>