<?xml version="1.0"?><svg xmlns="http://www.w3.org/2000/svg" xmlns:xlink= "http://www.w3.org/1999/xlink" style="background: white;" width="1500" height="300"> <g style="color: black; font-size: 13px; font-family: sans-serif; transform: translate(18px, 25px);"><g><circle r="3" cx="-6" cy="-5" style="fill: #1AD4B3" /><text>Borrow APR, variable</text></g><g style="transform: translateX(150px);"><circle r="3" cx="-6" cy="-5" style="fill: #101423" /><text>Borrow APR, stable</text></g></g><g class="visx-group" transform="translate(45, 50)"><g class="visx-group visx-rows" transform="translate(0, 0)"><line class="visx-line" x1="0" y1="155" x2="1425" y2="155" fill="transparent" shape-rendering="crispEdges" stroke="#F2F0F9" stroke-width="1" pointer-events="none"></line><line class="visx-line" x1="0" y1="106.5625" x2="1425" y2="106.5625" fill="transparent" shape-rendering="crispEdges" stroke="#F2F0F9" stroke-width="1" pointer-events="none"></line><line class="visx-line" x1="0" y1="58.125" x2="1425" y2="58.125" fill="transparent" shape-rendering="crispEdges" stroke="#F2F0F9" stroke-width="1" pointer-events="none"></line><line class="visx-line" x1="0" y1="9.6875" x2="1425" y2="9.6875" fill="transparent" shape-rendering="crispEdges" stroke="#F2F0F9" stroke-width="1" pointer-events="none"></line></g><path class="visx-linepath" d="M0,154.9999999998044C2.375,154.96739783642437,4.75,154.93479567304433,7.125,154.9021935096154C9.5,154.86959134618644,11.875,154.83698918269232,14.25,154.80438701923077C16.625,154.77178485576923,19,154.7391826923077,21.375,154.70658052884616C23.75,154.6739783653846,26.125,154.6413762019231,28.5,154.60877403846155C30.875,154.576171875,33.25,154.54356971153845,35.625,154.5109675480769C38,154.47836538461536,40.375,154.44576322115387,42.75,154.41316105769232C45.125,154.38055889423077,47.50000000000001,154.34795673076923,49.87500000000001,154.31535456730768C52.25000000000001,154.28275240384613,54.625,154.25015024038458,57,154.21754807692307C59.375,154.18494591346152,61.75,154.15234375000003,64.125,154.11974158653848C66.5,154.08713942307693,68.875,154.0545372596154,71.25,154.02193509615384C73.625,153.9893329326923,76,153.95673076923077,78.375,153.92412860576923C80.75,153.89152644230768,83.125,153.85892427884616,85.5,153.8263221153846C87.875,153.79371995192307,90.25,153.76111778846155,92.625,153.728515625C95,153.69591346153845,97.37500000000001,153.66331129807693,99.75000000000001,153.6307091346154C102.12500000000001,153.59810697115384,104.5,153.56550480769232,106.875,153.53290264423077C109.25,153.50030048076923,111.625,153.4676983173077,114,153.43509615384616C116.375,153.4024939903846,118.75000000000001,153.3698918269231,121.12500000000001,153.33728966346155C123.50000000000001,153.3046875,125.875,153.27208533653845,128.25,153.2394831730769C130.625,153.20688100961536,133,153.17427884615387,135.375,153.14167668269232C137.75,153.10907451923077,140.125,153.07647235576925,142.5,153.0438701923077C144.875,153.01126802884616,147.25,152.9786658653846,149.625,152.94606370192307C152,152.91346153846152,154.375,152.880859375,156.75,152.84825721153845C159.125,152.8156550480769,161.5,152.7830528846154,163.875,152.75045072115384C166.25,152.7178485576923,168.625,152.68524639423077,171,152.65264423076923C173.375,152.62004206730768,175.75,152.58743990384616,178.125,152.5548377403846C180.5,152.52223557692307,182.875,152.48963341346155,185.25,152.45703125C187.625,152.42442908653845,190,152.39182692307693,192.375,152.3592247596154C194.75,152.32662259615384,197.12500000000003,152.29402043269232,199.50000000000003,152.26141826923077C201.875,152.22881610576923,204.25,152.19621394230768,206.62499999999997,152.16361177884613C208.99999999999997,152.13100961538458,211.375,152.0984074519231,213.75,152.06580528846155C216.125,152.03320312500003,218.5,152.00060096153848,220.875,151.96799879807693C223.25,151.9353966346154,225.625,151.90279447115384,228,151.8701923076923C230.375,151.83759014423075,232.75,151.80498798076925,235.125,151.7723858173077C237.5,151.73978365384616,239.87500000000003,151.7071814903846,242.25000000000003,151.67457932692307C244.625,151.64197716346152,247,151.60937499999997,249.37499999999997,151.57677283653845C251.74999999999997,151.5441706730769,254.125,151.51156850961542,256.5,151.47896634615387C258.875,151.44636418269232,261.25,151.41376201923077,263.625,151.38115985576923C266,151.34855769230768,268.375,151.31595552884616,270.75,151.2833533653846C273.125,151.25075120192307,275.5,151.21814903846155,277.875,151.185546875C280.25,151.15294471153845,282.625,151.12034254807693,285,151.0877403846154C287.375,151.05513822115384,289.75,151.02253605769232,292.125,150.98993389423077C294.5,150.95733173076923,296.875,150.9247295673077,299.25,150.89212740384616C301.625,150.8595252403846,304,150.8269230769231,306.375,150.79432091346155C308.75,150.76171875,311.125,150.72911658653848,313.5,150.69651442307693C315.875,150.6639122596154,318.25,150.63131009615384,320.625,150.5987079326923C323,150.56610576923075,325.375,150.53350360576923,327.75,150.50090144230768C330.125,150.46829927884613,332.5,150.43569711538464,334.875,150.4030949519231C337.25,150.37049278846155,339.625,150.337890625,342,150.30528846153845C344.375,150.2726862980769,346.75,150.2400841346154,349.125,150.20748197115384C351.5,150.1748798076923,353.875,150.14227764423077,356.25,150.10967548076923C358.625,150.07707331730768,361,150.04447115384616,363.375,150.0118689903846C365.75,149.97926682692307,368.125,149.94666466346155,370.5,149.9140625C372.875,149.88146033653845,375.25,149.84885817307693,377.625,149.8162560096154C380,149.78365384615384,382.375,149.75105168269232,384.75,149.71844951923077C387.125,149.68584735576923,389.50000000000006,149.6532451923077,391.87500000000006,149.62064302884616C394.25000000000006,149.5880408653846,396.62500000000006,149.55543870192307,399.00000000000006,149.52283653846152C401.375,149.49023437499997,403.75,149.45763221153845,406.12499999999994,149.42503004807693C408.49999999999994,149.3924278846154,410.87499999999994,149.35982572115387,413.24999999999994,149.32722355769232C415.62499999999994,149.29462139423077,418,149.26201923076923,420.375,149.22941706730768C422.75,149.19681490384613,425.125,149.16421274038464,427.5,149.1316105769231C429.875,149.09900841346155,432.25,149.06640625,434.625,149.03380408653845C437,149.0012019230769,439.375,148.9685997596154,441.75,148.93599759615384C444.125,148.9033954326923,446.5,148.87079326923077,448.875,148.83819110576923C451.25,148.80558894230768,453.625,148.77298677884616,456,148.7403846153846C458.375,148.70778245192307,460.75,148.67518028846155,463.125,148.642578125C465.5,148.60997596153845,467.875,148.57737379807693,470.25,148.5447716346154C472.625,148.51216947115384,475.00000000000006,148.47956730769232,477.37500000000006,148.44696514423077C479.75000000000006,148.41436298076923,482.12500000000006,148.3817608173077,484.50000000000006,148.34915865384616C486.875,148.3165564903846,489.25,148.2839543269231,491.62499999999994,148.25135216346155C493.99999999999994,148.21875,496.37499999999994,148.18614783653845,498.74999999999994,148.1535456730769C501.12499999999994,148.12094350961536,503.5,148.08834134615387,505.875,148.05573918269232C508.25,148.02313701923077,510.625,147.99053485576923,513,147.95793269230768C515.375,147.92533052884613,517.75,147.89272836538458,520.125,147.86012620192307C522.5,147.82752403846155,524.875,147.79492187500003,527.25,147.76231971153848C529.625,147.72971754807693,532,147.6971153846154,534.375,147.66451322115384C536.75,147.6319110576923,539.125,147.59930889423077,541.5,147.56670673076923C543.875,147.53410456730768,546.25,147.50150240384616,548.625,147.4689002403846C551,147.43629807692307,553.375,147.40369591346155,555.75,147.37109375C558.125,147.33849158653845,560.5,147.30588942307693,562.875,147.2732872596154C565.25,147.24068509615384,567.625,147.20808293269232,570,147.17548076923077C572.375,147.14287860576923,574.75,147.1102764423077,577.125,147.07767427884616C579.5,147.0450721153846,581.875,147.0124699519231,584.25,146.97986778846155C586.625,146.947265625,589,146.91466346153845,591.375,146.8820612980769C593.75,146.84945913461536,596.125,146.81685697115387,598.5,146.78425480769232C600.875,146.75165264423077,603.25,146.71905048076925,605.625,146.6864483173077C608,146.65384615384616,610.375,146.6212439903846,612.75,146.58864182692307C615.125,146.55603966346152,617.5,146.5234375,619.875,146.49083533653845C622.25,146.4582331730769,624.625,146.4256310096154,627,146.39302884615384C629.375,146.3604266826923,631.75,146.32782451923077,634.125,146.29522235576923C636.5,146.26262019230768,638.875,146.23001802884616,641.25,146.1974158653846C643.625,146.16481370192307,646,146.13221153846155,648.375,146.099609375C650.75,146.06700721153845,653.125,146.03440504807693,655.5,146.0018028846154C657.875,145.96920072115384,660.25,145.93659855769232,662.625,145.90399639423077C665,145.87139423076923,667.375,145.8387920673077,669.75,145.80618990384616C672.125,145.7735877403846,674.5,145.7409855769231,676.875,145.70838341346155C679.25,145.67578125,681.625,145.64317908653848,684,145.61057692307693C686.375,145.5779747596154,688.75,145.54537259615384,691.125,145.5127704326923C693.5,145.48016826923075,695.875,145.44756610576925,698.25,145.4149639423077C700.625,145.38236177884616,703,145.3497596153846,705.375,145.31715745192307C707.75,145.28455528846152,710.125,145.251953125,712.5,145.21935096153845C714.875,145.1867487980769,717.25,145.1541466346154,719.625,145.12154447115384C722,145.0889423076923,724.375,145.05634014423077,726.75,145.02373798076923C729.125,144.99113581730768,731.5,144.95853365384616,733.875,144.9259314903846C736.25,144.89332932692307,738.625,144.89332932692307,741,144.828125C743.375,144.76292067307693,745.75,143.92664930555557,748.125,143.47591145833334C750.5,143.02517361111111,752.875,142.5744357638889,755.25,142.12369791666669C757.625,141.67296006944446,760,141.22222222222223,762.375,140.771484375C764.75,140.32074652777777,767.125,139.87000868055557,769.5,139.41927083333334C771.875,138.96853298611111,774.2500000000001,138.51779513888889,776.6250000000001,138.06705729166666C779.0000000000001,137.61631944444443,781.3750000000001,137.16558159722223,783.7500000000001,136.71484375C786.1250000000001,136.26410590277777,788.5000000000001,135.81336805555557,790.8750000000001,135.36263020833334C793.2500000000001,134.91189236111111,795.6250000000001,134.46115451388889,798.0000000000001,134.01041666666666C800.375,133.55967881944443,802.75,133.1089409722222,805.1249999999999,132.658203125C807.4999999999999,132.20746527777777,809.8749999999999,131.75672743055557,812.2499999999999,131.30598958333334C814.6249999999999,130.85525173611111,816.9999999999999,130.40451388888889,819.3749999999999,129.95377604166666C821.7499999999999,129.50303819444443,824.1249999999999,129.05230034722223,826.4999999999999,128.6015625C828.8749999999999,128.15082465277777,831.25,127.70008680555557,833.625,127.24934895833334C836,126.79861111111113,838.375,126.3478732638889,840.75,125.89713541666667C843.125,125.44639756944444,845.5,124.99565972222223,847.875,124.544921875C850.25,124.09418402777777,852.625,123.64344618055554,855,123.19270833333333C857.375,122.74197048611111,859.75,122.29123263888889,862.125,121.84049479166667C864.5,121.38975694444446,866.875,120.93901909722223,869.25,120.48828125C871.625,120.03754340277777,874,119.58680555555557,876.375,119.13606770833334C878.75,118.68532986111111,881.125,118.2345920138889,883.5,117.78385416666667C885.875,117.33311631944444,888.25,116.88237847222223,890.625,116.431640625C893,115.98090277777777,895.375,115.53016493055554,897.75,115.07942708333333C900.125,114.62868923611111,902.5,114.17795138888889,904.875,113.72721354166667C907.25,113.27647569444446,909.625,112.82573784722223,912,112.375C914.375,111.92426215277777,916.75,111.47352430555557,919.125,111.02278645833334C921.5,110.57204861111111,923.875,110.12131076388889,926.25,109.67057291666666C928.625,109.21983506944443,931,108.76909722222223,933.375,108.318359375C935.75,107.86762152777777,938.125,107.41688368055554,940.5,106.96614583333333C942.875,106.51540798611111,945.25,106.06467013888889,947.625,105.61393229166667C950,105.16319444444444,952.3750000000001,104.71245659722223,954.7500000000001,104.26171875C957.1250000000001,103.81098090277779,959.5000000000001,103.36024305555554,961.8750000000001,102.90950520833333C964.2500000000001,102.45876736111111,966.6250000000001,102.00802951388889,969.0000000000001,101.55729166666667C971.3750000000001,101.10655381944446,973.7500000000001,100.65581597222223,976.1250000000001,100.205078125C978.5,99.75434027777779,980.875,99.30360243055554,983.2499999999999,98.85286458333333C985.6249999999999,98.4021267361111,987.9999999999999,97.9513888888889,990.3749999999999,97.50065104166667C992.7499999999999,97.04991319444444,995.1249999999999,96.59917534722221,997.4999999999999,96.14843749999999C999.8749999999999,95.69769965277776,1002.2499999999999,95.24696180555554,1004.6249999999999,94.79622395833333C1006.9999999999999,94.3454861111111,1009.375,93.8947482638889,1011.75,93.44401041666667C1014.125,92.99327256944446,1016.5,92.54253472222223,1018.875,92.091796875C1021.25,91.64105902777777,1023.625,91.19032118055556,1026,90.73958333333334C1028.375,90.28884548611113,1030.75,89.83810763888891,1033.125,89.38736979166669C1035.5,88.93663194444446,1037.875,88.48589409722223,1040.25,88.03515625C1042.625,87.58441840277777,1045,87.13368055555557,1047.375,86.68294270833334C1049.75,86.23220486111111,1052.125,85.7814670138889,1054.5,85.33072916666667C1056.875,84.87999131944444,1059.25,84.42925347222223,1061.625,83.978515625C1064,83.52777777777777,1066.375,83.07703993055554,1068.75,82.62630208333333C1071.125,82.17556423611111,1073.5,81.72482638888889,1075.875,81.27408854166667C1078.25,80.82335069444446,1080.625,80.37261284722223,1083,79.921875C1085.375,79.47113715277777,1087.75,79.02039930555556,1090.125,78.56966145833334C1092.5,78.11892361111113,1094.875,77.66818576388891,1097.25,77.21744791666669C1099.625,76.76671006944446,1102,76.31597222222223,1104.375,75.865234375C1106.75,75.41449652777777,1109.125,74.96375868055556,1111.5,74.51302083333333C1113.875,74.0622829861111,1116.25,73.61154513888889,1118.625,73.16080729166666C1121,72.71006944444443,1123.375,72.25933159722221,1125.75,71.80859375C1128.125,71.35785590277779,1130.5,70.90711805555557,1132.875,70.45638020833334C1135.25,70.00564236111111,1137.625,69.55490451388889,1140,69.10416666666666C1142.375,68.65342881944443,1144.75,68.20269097222221,1147.125,67.751953125C1149.5,67.30121527777779,1151.875,66.85047743055557,1154.25,66.39973958333334C1156.625,65.94900173611111,1159,65.4982638888889,1161.375,65.04752604166667C1163.75,64.59678819444444,1166.125,64.14605034722221,1168.5,63.69531249999999C1170.875,63.24457465277777,1173.25,62.79383680555556,1175.625,62.343098958333336C1178,61.892361111111114,1180.375,61.44162326388888,1182.75,60.99088541666666C1185.125,60.540147569444436,1187.5,60.08940972222222,1189.875,59.638671875C1192.25,59.18793402777778,1194.625,58.737196180555564,1197,58.28645833333334C1199.375,57.83572048611112,1201.75,57.384982638888914,1204.125,56.934244791666686C1206.5,56.48350694444446,1208.875,56.03276909722222,1211.25,55.58203124999999C1213.625,55.131293402777764,1216,54.68055555555555,1218.375,54.22981770833333C1220.75,53.77907986111111,1223.125,53.32834201388888,1225.5,52.87760416666666C1227.875,52.426866319444436,1230.25,51.97612847222222,1232.625,51.525390625C1235,51.07465277777778,1237.375,50.62391493055556,1239.75,50.173177083333336C1242.125,49.722439236111114,1244.5,49.2717013888889,1246.875,48.82096354166668C1249.25,48.37022569444446,1251.625,47.919487847222214,1254,47.468749999999986C1256.375,47.01801215277776,1258.75,46.56727430555555,1261.125,46.11653645833333C1263.5,45.66579861111111,1265.875,45.21506076388889,1268.25,44.76432291666667C1270.625,44.31358506944445,1273,43.862847222222214,1275.375,43.41210937499999C1277.75,42.96137152777777,1280.125,42.51063368055556,1282.5,42.059895833333336C1284.875,41.609157986111114,1287.25,41.1584201388889,1289.625,40.70768229166668C1292,40.25694444444446,1294.375,39.806206597222214,1296.75,39.355468749999986C1299.125,38.90473090277776,1301.5,38.45399305555554,1303.875,38.00325520833332C1306.25,37.5525173611111,1308.625,37.101779513888886,1311,36.651041666666664C1313.375,36.20030381944444,1315.75,35.74956597222223,1318.125,35.29882812500001C1320.5,34.848090277777786,1322.875,34.39735243055555,1325.25,33.94661458333333C1327.625,33.49587673611111,1330,33.0451388888889,1332.375,32.59440104166667C1334.75,32.14366319444444,1337.125,31.692925347222204,1339.5,31.24218749999998C1341.875,30.791449652777754,1344.25,30.34071180555554,1346.625,29.88997395833332C1349,29.439236111111104,1351.375,28.9884982638889,1353.75,28.53776041666668C1356.125,28.087022569444457,1358.5,27.636284722222225,1360.875,27.185546875000004C1363.25,26.734809027777782,1365.625,26.28407118055557,1368,25.833333333333346C1370.375,25.38259548611112,1372.75,24.931857638888875,1375.125,24.48111979166665C1377.5,24.030381944444425,1379.875,23.579644097222214,1382.25,23.128906249999993C1384.625,22.67816840277777,1387,22.227430555555536,1389.375,21.776692708333318C1391.75,21.3259548611111,1394.125,20.875217013888893,1396.5,20.424479166666675C1398.875,19.973741319444457,1401.25,19.52300347222222,1403.625,19.072265625C1406,18.62152777777778,1408.375,18.170789930555582,1410.75,17.720052083333357C1413.125,17.269314236111132,1415.5,16.818576388888875,1417.875,16.36783854166665C1420.25,15.917100694444425,1422.625,15.466362847222216,1425,15.015625000000007" fill="transparent" stroke-linecap="round" stroke="#1AD4B3" stroke-width="2"></path><g class="visx-group visx-axis visx-axis-bottom" transform="translate(0, 155)"><g class="visx-group visx-axis-tick" transform="translate(0, 0)"><line class="visx-line" x1="0" y1="0" x2="0" y2="8" fill="transparent" shape-rendering="crispEdges" stroke="#F2F0F9" stroke-width="1" stroke-linecap="square"></line><svg x="0" y="0" font-size="11" style="overflow:visible"><text transform="" x="0" y="19" fill="#1B2030" font-size="11" text-anchor="middle"><tspan x="0" dy="0em">0%</tspan></text></svg></g><g class="visx-group visx-axis-tick" transform="translate(0, 0)"><line class="visx-line" x1="356.25" y1="0" x2="356.25" y2="8" fill="transparent" shape-rendering="crispEdges" stroke="#F2F0F9" stroke-width="1" stroke-linecap="square"></line><svg x="0" y="0" font-size="11" style="overflow:visible"><text transform="" x="356.25" y="19" fill="#1B2030" font-size="11" text-anchor="middle"><tspan x="356.25" dy="0em">25%</tspan></text></svg></g><g class="visx-group visx-axis-tick" transform="translate(0, 0)"><line class="visx-line" x1="712.5" y1="0" x2="712.5" y2="8" fill="transparent" shape-rendering="crispEdges" stroke="#F2F0F9" stroke-width="1" stroke-linecap="square"></line><svg x="0" y="0" font-size="11" style="overflow:visible"><text transform="" x="712.5" y="19" fill="#1B2030" font-size="11" text-anchor="middle"><tspan x="712.5" dy="0em">50%</tspan></text></svg></g><g class="visx-group visx-axis-tick" transform="translate(0, 0)"><line class="visx-line" x1="1068.75" y1="0" x2="1068.75" y2="8" fill="transparent" shape-rendering="crispEdges" stroke="#F2F0F9" stroke-width="1" stroke-linecap="square"></line><svg x="0" y="0" font-size="11" style="overflow:visible"><text transform="" x="1068.75" y="19" fill="#1B2030" font-size="11" text-anchor="middle"><tspan x="1068.75" dy="0em">75%</tspan></text></svg></g><g class="visx-group visx-axis-tick" transform="translate(0, 0)"><line class="visx-line" x1="1425" y1="0" x2="1425" y2="8" fill="transparent" shape-rendering="crispEdges" stroke="#F2F0F9" stroke-width="1" stroke-linecap="square"></line><svg x="0" y="0" font-size="11" style="overflow:visible"><text transform="" x="1425" y="19" fill="#1B2030" font-size="11" text-anchor="middle"><tspan x="1425" dy="0em">100%</tspan></text></svg></g></g><g class="visx-group visx-axis visx-axis-left" transform="translate(0, 0)"><g class="visx-group visx-axis-tick" transform="translate(0, 0)"><line class="visx-line" x1="0" y1="155" x2="-8" y2="155" fill="transparent" shape-rendering="crispEdges" stroke="#F2F0F9" stroke-width="1" stroke-linecap="square"></line><svg x="-30" y="0" font-size="11" style="overflow:visible"><text transform="" x="-8" y="155" fill="#1B2030" font-size="11" text-anchor="start"><tspan x="-8" dy="0em">0%</tspan></text></svg></g><g class="visx-group visx-axis-tick" transform="translate(0, 0)"><line class="visx-line" x1="0" y1="106.5625" x2="-8" y2="106.5625" fill="transparent" shape-rendering="crispEdges" stroke="#F2F0F9" stroke-width="1" stroke-linecap="square"></line><svg x="-30" y="0" font-size="11" style="overflow:visible"><text transform="" x="-8" y="106.5625" fill="#1B2030" font-size="11" text-anchor="start"><tspan x="-8" dy="0em">50%</tspan></text></svg></g><g class="visx-group visx-axis-tick" transform="translate(0, 0)"><line class="visx-line" x1="0" y1="58.125" x2="-8" y2="58.125" fill="transparent" shape-rendering="crispEdges" stroke="#F2F0F9" stroke-width="1" stroke-linecap="square"></line><svg x="-30" y="0" font-size="11" style="overflow:visible"><text transform="" x="-8" y="58.125" fill="#1B2030" font-size="11" text-anchor="start"><tspan x="-8" dy="0em">100%</tspan></text></svg></g><g class="visx-group visx-axis-tick" transform="translate(0, 0)"><line class="visx-line" x1="0" y1="9.6875" x2="-8" y2="9.6875" fill="transparent" shape-rendering="crispEdges" stroke="#F2F0F9" stroke-width="1" stroke-linecap="square"></line><svg x="-30" y="0" font-size="11" style="overflow:visible"><text transform="" x="-8" y="9.6875" fill="#1B2030" font-size="11" text-anchor="start"><tspan x="-8" dy="0em">150%</tspan></text></svg></g><line class="visx-line visx-axis-line" x1="0" y1="155.5" x2="0" y2="0.5" fill="transparent" shape-rendering="crispEdges" stroke="#F2F0F9" stroke-width="1"></line></g><rect class="visx-bar" width="1425" height="155" fill="transparent"></rect><line class="visx-line" x1="741" y1="58" x2="741" y2="155" fill="transparent" shape-rendering="crispEdges" stroke="#CDC8E1" stroke-width="1" pointer-events="none" stroke-dasharray="5"></line><svg x="0" y="0" font-size="11px" style="overflow:visible"><text transform="" x="741" y="50" font-size="11px" fill="#555069" stroke="#FFFFFF" stroke-width="1px" text-anchor="middle"><tspan x="741" dy="0.355em">uOptimal 52%</tspan></text></svg><svg x="0" y="0" font-size="11px" style="overflow:visible"><text transform="" x="741" y="50" font-size="11px" fill="#CDC8E1" text-anchor="middle"><tspan x="741" dy="0.355em">uOptimal 52%</tspan></text></svg></g></svg>