<?xml version="1.0"?><svg xmlns="http://www.w3.org/2000/svg" xmlns:xlink= "http://www.w3.org/1999/xlink" style="background: white;" width="1500" height="185"> <g style="color: black; font-size: 13px; font-family: sans-serif; transform: translate(18px, 25px);"><g><circle r="3" cx="-6" cy="-5" style="fill: #B6509E" /><text>Borrow APR, variable</text></g><g style="transform: translateX(150px);"><circle r="3" cx="-6" cy="-5" style="fill: rgb(231, 198, 223)" /><text>Borrow APR, stable</text></g><g style="transform: translateX(290px);"><circle r="3" cx="-6" cy="-5" style="fill: rgb(0, 98, 210)" /><text>Utilization Rate</text></g></g><g class="visx-group" transform="translate(40, 50)"><g class="visx-group visx-rows" transform="translate(0, 0)"><line class="visx-line" x1="0" y1="115" x2="1450" y2="115" fill="transparent" shape-rendering="crispEdges" stroke="#000" stroke-width="1" stroke-dasharray="3,3" pointer-events="none"></line><line class="visx-line" x1="0" y1="57.5" x2="1450" y2="57.5" fill="transparent" shape-rendering="crispEdges" stroke="#000" stroke-width="1" stroke-dasharray="3,3" pointer-events="none"></line><line class="visx-line" x1="0" y1="0" x2="1450" y2="0" fill="transparent" shape-rendering="crispEdges" stroke="#000" stroke-width="1" stroke-dasharray="3,3" pointer-events="none"></line></g><path class="visx-linepath" d="M0,115C2.4166666666666665,115,4.833333333333334,115,7.25,115C9.666666666666666,115,12.083333333333334,115,14.5,115C16.916666666666668,115,19.333333333333332,115,21.75,115C24.166666666666668,115,26.583333333333332,115,29,115C31.416666666666668,115,33.833333333333336,115,36.25,115C38.666666666666664,115,41.083333333333336,115,43.5,115C45.91666666666667,115,48.333333333333336,115,50.75000000000001,115C53.16666666666667,115,55.583333333333336,115,58,115C60.416666666666664,115,62.833333333333336,115,65.25,115C67.66666666666667,115,70.08333333333333,115,72.5,115C74.91666666666667,115,77.33333333333333,115,79.75,115C82.16666666666667,115,84.58333333333333,115,87,115C89.41666666666667,115,91.83333333333333,115,94.25,115C96.66666666666667,115,99.08333333333334,115,101.50000000000001,115C103.91666666666667,115,106.33333333333334,115,108.75,115C111.16666666666667,115,113.58333333333333,115,116,115C118.41666666666667,115,120.83333333333334,115,123.25000000000001,115C125.66666666666667,115,128.08333333333334,115,130.5,115C132.91666666666666,115,135.33333333333334,115,137.75,115C140.16666666666666,115,142.58333333333334,115,145,115C147.41666666666666,115,149.83333333333334,115,152.25,115C154.66666666666666,115,157.08333333333334,115,159.5,115C161.91666666666666,115,164.33333333333334,115,166.75,115C169.16666666666666,115,171.58333333333334,115,174,115C176.41666666666666,115,178.83333333333334,115,181.25,115C183.66666666666666,115,186.08333333333334,115,188.5,115C190.91666666666666,115,193.33333333333334,115,195.75,115C198.16666666666669,115,200.58333333333334,115,203.00000000000003,115C205.41666666666669,115,207.83333333333331,115,210.24999999999997,115C212.66666666666666,115,215.08333333333331,115,217.5,115C219.91666666666666,115,222.33333333333334,115,224.75,115C227.16666666666666,115,229.58333333333334,115,232,115C234.41666666666666,115,236.83333333333334,115,239.25,115C241.66666666666669,115,244.08333333333334,115,246.50000000000003,115C248.91666666666669,115,251.33333333333331,115,253.74999999999997,115C256.16666666666663,115,258.5833333333333,115,261,115C263.4166666666667,115,265.8333333333333,115,268.25,115C270.6666666666667,115,273.0833333333333,115,275.5,115C277.9166666666667,115,280.3333333333333,115,282.75,115C285.1666666666667,115,287.5833333333333,115,290,115C292.4166666666667,115,294.8333333333333,115,297.25,115C299.6666666666667,115,302.0833333333333,115,304.5,115C306.9166666666667,115,309.3333333333333,115,311.75,115C314.1666666666667,115,316.5833333333333,115,319,115C321.4166666666667,115,323.8333333333333,115,326.25,115C328.6666666666667,115,331.0833333333333,115,333.5,115C335.9166666666667,115,338.3333333333333,115,340.75,115C343.1666666666667,115,345.5833333333333,115,348,115C350.4166666666667,115,352.8333333333333,115,355.25,115C357.6666666666667,115,360.0833333333333,115,362.5,115C364.9166666666667,115,367.3333333333333,115,369.75,115C372.1666666666667,115,374.5833333333333,115,377,115C379.4166666666667,115,381.8333333333333,115,384.25,115C386.6666666666667,115,389.0833333333333,115,391.5,115C393.9166666666667,115,396.33333333333337,115,398.75000000000006,115C401.16666666666674,115,403.58333333333337,115,406.00000000000006,115C408.4166666666667,115,410.8333333333333,115,413.24999999999994,115C415.66666666666663,115,418.08333333333326,115,420.49999999999994,115C422.91666666666663,115,425.3333333333333,115,427.75,115C430.1666666666667,115,432.5833333333333,115,435,115C437.4166666666667,115,439.8333333333333,115,442.25,115C444.6666666666667,115,447.0833333333333,115,449.5,115C451.9166666666667,115,454.3333333333333,115,456.75,115C459.1666666666667,115,461.5833333333333,115,464,115C466.4166666666667,115,468.8333333333333,115,471.25,115C473.6666666666667,115,476.0833333333333,115,478.5,115C480.9166666666667,115,483.33333333333337,115,485.75000000000006,115C488.16666666666674,115,490.58333333333337,115,493.00000000000006,115C495.4166666666667,115,497.8333333333333,115,500.24999999999994,115C502.66666666666663,115,505.08333333333326,115,507.49999999999994,115C509.91666666666663,115,512.3333333333333,115,514.75,115C517.1666666666666,115,519.5833333333334,115,522,115C524.4166666666666,115,526.8333333333334,115,529.25,115C531.6666666666666,115,534.0833333333334,115,536.5,115C538.9166666666666,115,541.3333333333334,115,543.75,115C546.1666666666666,115,548.5833333333334,115,551,115C553.4166666666666,115,555.8333333333334,115,558.25,115C560.6666666666666,115,563.0833333333334,115,565.5,115C567.9166666666666,115,570.3333333333334,115,572.75,115C575.1666666666666,115,577.5833333333334,115,580,115C582.4166666666666,115,584.8333333333334,115,587.25,115C589.6666666666666,115,592.0833333333334,115,594.5,115C596.9166666666666,115,599.3333333333334,115,601.75,115C604.1666666666666,115,606.5833333333334,115,609,115C611.4166666666666,115,613.8333333333334,115,616.25,115C618.6666666666666,115,621.0833333333334,115,623.5,115C625.9166666666666,115,628.3333333333334,115,630.75,115C633.1666666666666,115,635.5833333333334,115,638,115C640.4166666666666,115,642.8333333333334,115,645.25,115C647.6666666666666,115,650.0833333333334,115,652.5,115C654.9166666666666,115,657.3333333333334,115,659.75,115C662.1666666666666,115,664.5833333333334,115,667,115C669.4166666666666,115,671.8333333333334,115,674.25,115C676.6666666666666,115,679.0833333333334,115,681.5,115C683.9166666666666,115,686.3333333333334,115,688.75,115C691.1666666666666,115,693.5833333333334,115,696,115C698.4166666666666,115,700.8333333333334,115,703.25,115C705.6666666666666,115,708.0833333333334,115,710.5,115C712.9166666666666,115,715.3333333333334,115,717.75,115C720.1666666666666,115,722.5833333333334,115,725,115C727.4166666666666,115,729.8333333333334,115,732.25,115C734.6666666666666,115,737.0833333333334,115,739.5,115C741.9166666666666,115,744.3333333333334,115,746.75,115C749.1666666666666,115,751.5833333333334,115,754,115C756.4166666666666,115,758.8333333333334,115,761.25,115C763.6666666666666,115,766.0833333333334,115,768.5,115C770.9166666666666,115,773.3333333333334,115,775.75,115C778.1666666666666,115,780.5833333333334,115,783,115C785.4166666666667,115,787.8333333333334,115,790.2500000000001,115C792.6666666666667,115,795.0833333333335,115,797.5000000000001,115C799.9166666666667,115,802.3333333333335,115,804.7500000000001,115C807.1666666666667,115,809.5833333333335,115,812.0000000000001,115C814.4166666666667,115,816.8333333333333,115,819.2499999999999,115C821.6666666666665,115,824.0833333333333,115,826.4999999999999,115C828.9166666666665,115,831.3333333333333,115,833.7499999999999,115C836.1666666666665,115,838.5833333333333,115,840.9999999999999,115C843.4166666666666,115,845.8333333333333,115,848.25,115C850.6666666666666,115,853.0833333333334,115,855.5,115C857.9166666666666,115,860.3333333333334,115,862.75,115C865.1666666666666,115,867.5833333333334,115,870,115C872.4166666666666,115,874.8333333333334,115,877.25,115C879.6666666666666,115,882.0833333333334,115,884.5,115C886.9166666666666,115,889.3333333333334,115,891.75,115C894.1666666666666,115,896.5833333333334,115,899,115C901.4166666666666,115,903.8333333333334,115,906.25,115C908.6666666666666,115,911.0833333333334,115,913.5,115C915.9166666666666,115,918.3333333333334,115,920.75,115C923.1666666666666,115,925.5833333333334,115,928,115C930.4166666666666,115,932.8333333333334,115,935.25,115C937.6666666666666,115,940.0833333333334,115,942.5,115C944.9166666666666,115,947.3333333333334,115,949.75,115C952.1666666666666,115,954.5833333333334,115,957,115C959.4166666666666,115,961.8333333333334,115,964.25,115C966.6666666666667,115,969.0833333333334,115,971.5000000000001,115C973.9166666666667,115,976.3333333333335,115,978.7500000000001,115C981.1666666666667,115,983.5833333333335,115,986.0000000000001,115C988.4166666666667,115,990.8333333333335,115,993.2500000000001,115C995.6666666666667,115,998.0833333333333,115,1000.4999999999999,115C1002.9166666666665,115,1005.3333333333333,115,1007.7499999999999,115C1010.1666666666665,115,1012.5833333333333,115,1014.9999999999999,115C1017.4166666666665,115,1019.8333333333333,115,1022.2499999999999,115C1024.6666666666665,115,1027.0833333333333,115,1029.5,115C1031.9166666666667,115,1034.3333333333333,115,1036.75,115C1039.1666666666667,115,1041.5833333333333,115,1044,115C1046.4166666666667,115,1048.8333333333333,115,1051.25,115C1053.6666666666667,115,1056.0833333333333,115,1058.5,115C1060.9166666666667,115,1063.3333333333333,115,1065.75,115C1068.1666666666667,115,1070.5833333333333,115,1073,115C1075.4166666666667,115,1077.8333333333333,115,1080.25,115C1082.6666666666667,115,1085.0833333333333,115,1087.5,115C1089.9166666666667,115,1092.3333333333333,115,1094.75,115C1097.1666666666667,115,1099.5833333333333,115,1102,115C1104.4166666666667,115,1106.8333333333333,115,1109.25,115C1111.6666666666667,115,1114.0833333333333,115,1116.5,115C1118.9166666666667,115,1121.3333333333333,115,1123.75,115C1126.1666666666667,115,1128.5833333333333,115,1131,115C1133.4166666666667,115,1135.8333333333333,115,1138.25,115C1140.6666666666667,115,1143.0833333333333,115,1145.5,115C1147.9166666666667,115,1150.3333333333333,115,1152.75,115C1155.1666666666667,115,1157.5833333333333,115,1160,115C1162.4166666666667,115,1164.8333333333333,115,1167.25,115C1169.6666666666667,115,1172.0833333333333,115,1174.5,115C1176.9166666666667,115,1179.3333333333333,115,1181.75,115C1184.1666666666667,115,1186.5833333333333,115,1189,115C1191.4166666666667,115,1193.8333333333333,115,1196.25,115C1198.6666666666667,115,1201.0833333333333,115,1203.5,115C1205.9166666666667,115,1208.3333333333333,115,1210.75,115C1213.1666666666667,115,1215.5833333333333,115,1218,115C1220.4166666666667,115,1222.8333333333333,115,1225.25,115C1227.6666666666667,115,1230.0833333333333,115,1232.5,115C1234.9166666666667,115,1237.3333333333333,115,1239.75,115C1242.1666666666667,115,1244.5833333333333,115,1247,115C1249.4166666666667,115,1251.8333333333333,115,1254.25,115C1256.6666666666667,115,1259.0833333333333,115,1261.5,115C1263.9166666666667,115,1266.3333333333333,115,1268.75,115C1271.1666666666667,115,1273.5833333333333,115,1276,115C1278.4166666666667,115,1280.8333333333333,115,1283.25,115C1285.6666666666667,115,1288.0833333333333,115,1290.5,115C1292.9166666666667,115,1295.3333333333333,115,1297.75,115C1300.1666666666667,115,1302.5833333333333,115,1305,115C1307.4166666666667,115,1309.8333333333333,115,1312.25,115C1314.6666666666667,115,1317.0833333333333,115,1319.5,115C1321.9166666666667,115,1324.3333333333333,115,1326.75,115C1329.1666666666667,115,1331.5833333333333,115,1334,115C1336.4166666666667,115,1338.8333333333333,115,1341.25,115C1343.6666666666667,115,1346.0833333333333,115,1348.5,115C1350.9166666666667,115,1353.3333333333333,115,1355.75,115C1358.1666666666667,115,1360.5833333333333,115,1363,115C1365.4166666666667,115,1367.8333333333333,115,1370.25,115C1372.6666666666667,115,1375.0833333333333,115,1377.5,115C1379.9166666666667,115,1382.3333333333333,115,1384.75,115C1387.1666666666667,115,1389.5833333333333,115,1392,115C1394.4166666666667,115,1396.8333333333333,115,1399.25,115C1401.6666666666667,115,1404.0833333333333,115,1406.5,115C1408.9166666666667,115,1411.3333333333333,115,1413.75,115C1416.1666666666667,115,1418.5833333333333,115,1421,115C1423.4166666666667,115,1425.8333333333333,115,1428.25,115C1430.6666666666667,115,1433.0833333333333,115,1435.5,115C1437.9166666666667,115,1440.3333333333333,115,1442.75,115C1445.1666666666667,115,1447.5833333333333,115,1450,115" fill="transparent" stroke-linecap="round" stroke="#B6509E" stroke-width="2"></path><path class="visx-linepath" d="M0,103.4999999999489C2.4166666666666665,103.49148148145167,4.833333333333334,103.48296296295445,7.25,103.47444444444444C9.666666666666666,103.46592592593444,12.083333333333334,103.4574074074074,14.5,103.44888888888889C16.916666666666668,103.44037037037037,19.333333333333332,103.43185185185185,21.75,103.42333333333333C24.166666666666668,103.41481481481482,26.583333333333332,103.40629629629629,29,103.39777777777778C31.416666666666668,103.38925925925926,33.833333333333336,103.38074074074073,36.25,103.37222222222222C38.666666666666664,103.3637037037037,41.083333333333336,103.35518518518519,43.5,103.34666666666668C45.91666666666667,103.33814814814816,48.333333333333336,103.32962962962964,50.75000000000001,103.32111111111112C53.16666666666667,103.31259259259261,55.583333333333336,103.30407407407408,58,103.29555555555557C60.416666666666664,103.28703703703704,62.833333333333336,103.27851851851852,65.25,103.27C67.66666666666667,103.26148148148147,70.08333333333333,103.25296296296295,72.5,103.24444444444444C74.91666666666667,103.23592592592593,77.33333333333333,103.2274074074074,79.75,103.21888888888888C82.16666666666667,103.21037037037037,84.58333333333333,103.20185185185184,87,103.19333333333333C89.41666666666667,103.18481481481481,91.83333333333333,103.17629629629629,94.25,103.16777777777777C96.66666666666667,103.15925925925926,99.08333333333334,103.15074074074073,101.50000000000001,103.14222222222222C103.91666666666667,103.1337037037037,106.33333333333334,103.12518518518519,108.75,103.11666666666667C111.16666666666667,103.10814814814816,113.58333333333333,103.09962962962962,116,103.0911111111111C118.41666666666667,103.08259259259259,120.83333333333334,103.07407407407408,123.25000000000001,103.06555555555556C125.66666666666667,103.05703703703705,128.08333333333334,103.04851851851852,130.5,103.04C132.91666666666666,103.03148148148149,135.33333333333334,103.02296296296296,137.75,103.01444444444445C140.16666666666666,103.00592592592594,142.58333333333334,102.99740740740741,145,102.9888888888889C147.41666666666666,102.98037037037038,149.83333333333334,102.97185185185185,152.25,102.96333333333334C154.66666666666666,102.95481481481482,157.08333333333334,102.94629629629628,159.5,102.93777777777777C161.91666666666666,102.92925925925925,164.33333333333334,102.92074074074073,166.75,102.91222222222221C169.16666666666666,102.9037037037037,171.58333333333334,102.89518518518518,174,102.88666666666667C176.41666666666666,102.87814814814816,178.83333333333334,102.86962962962963,181.25,102.86111111111111C183.66666666666666,102.8525925925926,186.08333333333334,102.84407407407407,188.5,102.83555555555556C190.91666666666666,102.82703703703704,193.33333333333334,102.81851851851852,195.75,102.81C198.16666666666669,102.80148148148149,200.58333333333334,102.79296296296296,203.00000000000003,102.78444444444445C205.41666666666669,102.77592592592593,207.83333333333331,102.7674074074074,210.24999999999997,102.75888888888889C212.66666666666666,102.75037037037038,215.08333333333331,102.74185185185185,217.5,102.73333333333333C219.91666666666666,102.72481481481482,222.33333333333334,102.71629629629629,224.75,102.70777777777778C227.16666666666666,102.69925925925926,229.58333333333334,102.69074074074074,232,102.68222222222222C234.41666666666666,102.67370370370371,236.83333333333334,102.66518518518518,239.25,102.65666666666667C241.66666666666669,102.64814814814814,244.08333333333334,102.63962962962961,246.50000000000003,102.6311111111111C248.91666666666669,102.62259259259258,251.33333333333331,102.61407407407407,253.74999999999997,102.60555555555555C256.16666666666663,102.59703703703704,258.5833333333333,102.58851851851851,261,102.58C263.4166666666667,102.57148148148148,265.8333333333333,102.56296296296296,268.25,102.55444444444444C270.6666666666667,102.54592592592593,273.0833333333333,102.5374074074074,275.5,102.52888888888889C277.9166666666667,102.52037037037037,280.3333333333333,102.51185185185184,282.75,102.50333333333333C285.1666666666667,102.49481481481482,287.5833333333333,102.4862962962963,290,102.47777777777779C292.4166666666667,102.46925925925927,294.8333333333333,102.46074074074073,297.25,102.45222222222222C299.6666666666667,102.4437037037037,302.0833333333333,102.43518518518519,304.5,102.42666666666668C306.9166666666667,102.41814814814816,309.3333333333333,102.40962962962963,311.75,102.40111111111112C314.1666666666667,102.3925925925926,316.5833333333333,102.38407407407408,319,102.37555555555556C321.4166666666667,102.36703703703705,323.8333333333333,102.35851851851854,326.25,102.35000000000001C328.6666666666667,102.34148148148148,331.0833333333333,102.33296296296297,333.5,102.32444444444444C335.9166666666667,102.31592592592591,338.3333333333333,102.3074074074074,340.75,102.29888888888888C343.1666666666667,102.29037037037037,345.5833333333333,102.28185185185184,348,102.27333333333333C350.4166666666667,102.26481481481481,352.8333333333333,102.25629629629628,355.25,102.24777777777777C357.6666666666667,102.23925925925926,360.0833333333333,102.23074074074073,362.5,102.22222222222221C364.9166666666667,102.2137037037037,367.3333333333333,102.20518518518519,369.75,102.19666666666667C372.1666666666667,102.18814814814816,374.5833333333333,102.17962962962962,377,102.1711111111111C379.4166666666667,102.16259259259259,381.8333333333333,102.15407407407407,384.25,102.14555555555556C386.6666666666667,102.13703703703705,389.0833333333333,102.12851851851852,391.5,102.12C393.9166666666667,102.11148148148149,396.33333333333337,102.10296296296296,398.75000000000006,102.09444444444445C401.16666666666674,102.08592592592593,403.58333333333337,102.0774074074074,406.00000000000006,102.06888888888889C408.4166666666667,102.06037037037038,410.8333333333333,102.05185185185185,413.24999999999994,102.04333333333334C415.66666666666663,102.03481481481482,418.08333333333326,102.0262962962963,420.49999999999994,102.01777777777778C422.91666666666663,102.00925925925925,425.3333333333333,102.00074074074072,427.75,101.99222222222221C430.1666666666667,101.9837037037037,432.5833333333333,101.97518518518518,435,101.96666666666667C437.4166666666667,101.95814814814815,439.8333333333333,101.94962962962963,442.25,101.94111111111111C444.6666666666667,101.9325925925926,447.0833333333333,101.92407407407407,449.5,101.91555555555556C451.9166666666667,101.90703703703704,454.3333333333333,101.89851851851851,456.75,101.89C459.1666666666667,101.88148148148149,461.5833333333333,101.87296296296296,464,101.86444444444444C466.4166666666667,101.85592592592593,468.8333333333333,101.8474074074074,471.25,101.83888888888889C473.6666666666667,101.83037037037037,476.0833333333333,101.82185185185185,478.5,101.81333333333333C480.9166666666667,101.80481481481482,483.33333333333337,101.79629629629629,485.75000000000006,101.78777777777778C488.16666666666674,101.77925925925926,490.58333333333337,101.77074074074073,493.00000000000006,101.76222222222222C495.4166666666667,101.7537037037037,497.8333333333333,101.74518518518519,500.24999999999994,101.73666666666668C502.66666666666663,101.72814814814816,505.08333333333326,101.71962962962962,507.49999999999994,101.71111111111111C509.91666666666663,101.70259259259258,512.3333333333333,101.69407407407407,514.75,101.68555555555555C517.1666666666666,101.67703703703704,519.5833333333334,101.66851851851851,522,101.66C524.4166666666666,101.65148148148148,526.8333333333334,101.64296296296295,529.25,101.63444444444444C531.6666666666666,101.62592592592593,534.0833333333334,101.6174074074074,536.5,101.60888888888888C538.9166666666666,101.60037037037037,541.3333333333334,101.59185185185184,543.75,101.58333333333333C546.1666666666666,101.57481481481481,548.5833333333334,101.5662962962963,551,101.55777777777779C553.4166666666666,101.54925925925927,555.8333333333334,101.54074074074073,558.25,101.53222222222222C560.6666666666666,101.5237037037037,563.0833333333334,101.51518518518519,565.5,101.50666666666667C567.9166666666666,101.49814814814816,570.3333333333334,101.48962962962963,572.75,101.48111111111112C575.1666666666666,101.4725925925926,577.5833333333334,101.46407407407408,580,101.45555555555556C582.4166666666666,101.44703703703705,584.8333333333334,101.43851851851852,587.25,101.43C589.6666666666666,101.42148148148149,592.0833333333334,101.41296296296295,594.5,101.40444444444444C596.9166666666666,101.39592592592592,599.3333333333334,101.3874074074074,601.75,101.37888888888888C604.1666666666666,101.37037037037037,606.5833333333334,101.36185185185184,609,101.35333333333332C611.4166666666666,101.34481481481481,613.8333333333334,101.33629629629628,616.25,101.32777777777777C618.6666666666666,101.31925925925925,621.0833333333334,101.31074074074073,623.5,101.30222222222221C625.9166666666666,101.2937037037037,628.3333333333334,101.28518518518518,630.75,101.27666666666667C633.1666666666666,101.26814814814816,635.5833333333334,101.25962962962963,638,101.25111111111111C640.4166666666666,101.2425925925926,642.8333333333334,101.23407407407407,645.25,101.22555555555556C647.6666666666666,101.21703703703704,650.0833333333334,101.21703703703704,652.5,101.2C654.9166666666666,101.18296296296296,657.3333333333334,100.67727272727274,659.75,100.4159090909091C662.1666666666666,100.15454545454546,664.5833333333334,99.89318181818182,667,99.63181818181818C669.4166666666666,99.37045454545454,671.8333333333334,99.10909090909092,674.25,98.84772727272728C676.6666666666666,98.58636363636364,679.0833333333334,98.325,681.5,98.06363636363636C683.9166666666666,97.80227272727272,686.3333333333334,97.5409090909091,688.75,97.27954545454546C691.1666666666666,97.01818181818182,693.5833333333334,96.75681818181819,696,96.49545454545455C698.4166666666666,96.23409090909091,700.8333333333334,95.97272727272728,703.25,95.71136363636364C705.6666666666666,95.45,708.0833333333334,95.18863636363636,710.5,94.92727272727272C712.9166666666666,94.66590909090908,715.3333333333334,94.40454545454546,717.75,94.14318181818182C720.1666666666666,93.88181818181818,722.5833333333334,93.62045454545455,725,93.35909090909091C727.4166666666666,93.09772727272727,729.8333333333334,92.83636363636363,732.25,92.57499999999999C734.6666666666666,92.31363636363635,737.0833333333334,92.05227272727274,739.5,91.7909090909091C741.9166666666666,91.52954545454546,744.3333333333334,91.26818181818183,746.75,91.00681818181819C749.1666666666666,90.74545454545455,751.5833333333334,90.48409090909091,754,90.22272727272727C756.4166666666666,89.96136363636363,758.8333333333334,89.7,761.25,89.43863636363636C763.6666666666666,89.17727272727272,766.0833333333334,88.9159090909091,768.5,88.65454545454546C770.9166666666666,88.39318181818182,773.3333333333334,88.13181818181819,775.75,87.87045454545455C778.1666666666666,87.60909090909091,780.5833333333334,87.34772727272728,783,87.08636363636364C785.4166666666667,86.825,787.8333333333334,86.56363636363638,790.2500000000001,86.30227272727274C792.6666666666667,86.0409090909091,795.0833333333335,85.77954545454546,797.5000000000001,85.51818181818182C799.9166666666667,85.25681818181818,802.3333333333335,84.99545454545455,804.7500000000001,84.73409090909091C807.1666666666667,84.47272727272727,809.5833333333335,84.21136363636364,812.0000000000001,83.95C814.4166666666667,83.68863636363636,816.8333333333333,83.42727272727272,819.2499999999999,83.16590909090908C821.6666666666665,82.90454545454544,824.0833333333333,82.64318181818182,826.4999999999999,82.38181818181818C828.9166666666665,82.12045454545454,831.3333333333333,81.85909090909091,833.7499999999999,81.59772727272727C836.1666666666665,81.33636363636363,838.5833333333333,81.07499999999999,840.9999999999999,80.81363636363635C843.4166666666666,80.55227272727271,845.8333333333333,80.2909090909091,848.25,80.02954545454546C850.6666666666666,79.76818181818183,853.0833333333334,79.50681818181819,855.5,79.24545454545455C857.9166666666666,78.98409090909091,860.3333333333334,78.72272727272727,862.75,78.46136363636363C865.1666666666666,78.19999999999999,867.5833333333334,77.93863636363636,870,77.67727272727274C872.4166666666666,77.41590909090911,874.8333333333334,77.15454545454547,877.25,76.89318181818183C879.6666666666666,76.63181818181819,882.0833333333334,76.37045454545455,884.5,76.10909090909091C886.9166666666666,75.84772727272727,889.3333333333334,75.58636363636364,891.75,75.325C894.1666666666666,75.06363636363636,896.5833333333334,74.80227272727274,899,74.5409090909091C901.4166666666666,74.27954545454546,903.8333333333334,74.01818181818182,906.25,73.75681818181818C908.6666666666666,73.49545454545454,911.0833333333334,73.23409090909091,913.5,72.97272727272727C915.9166666666666,72.71136363636363,918.3333333333334,72.45,920.75,72.18863636363636C923.1666666666666,71.92727272727272,925.5833333333334,71.66590909090908,928,71.40454545454544C930.4166666666666,71.1431818181818,932.8333333333334,70.88181818181818,935.25,70.62045454545454C937.6666666666666,70.3590909090909,940.0833333333334,70.09772727272727,942.5,69.83636363636363C944.9166666666666,69.57499999999999,947.3333333333334,69.31363636363636,949.75,69.05227272727272C952.1666666666666,68.79090909090908,954.5833333333334,68.52954545454544,957,68.2681818181818C959.4166666666666,68.00681818181816,961.8333333333334,67.74545454545454,964.25,67.48409090909091C966.6666666666667,67.22272727272727,969.0833333333334,66.96136363636364,971.5000000000001,66.7C973.9166666666667,66.43863636363636,976.3333333333335,66.17727272727274,978.7500000000001,65.9159090909091C981.1666666666667,65.65454545454546,983.5833333333335,65.39318181818183,986.0000000000001,65.13181818181819C988.4166666666667,64.87045454545455,990.8333333333335,64.60909090909091,993.2500000000001,64.34772727272727C995.6666666666667,64.08636363636363,998.0833333333333,63.824999999999996,1000.4999999999999,63.56363636363636C1002.9166666666665,63.30227272727272,1005.3333333333333,63.040909090909096,1007.7499999999999,62.779545454545456C1010.1666666666665,62.518181818181816,1012.5833333333333,62.25681818181818,1014.9999999999999,61.99545454545454C1017.4166666666665,61.7340909090909,1019.8333333333333,61.47272727272726,1022.2499999999999,61.21136363636363C1024.6666666666665,60.94999999999999,1027.0833333333333,60.68863636363636,1029.5,60.42727272727272C1031.9166666666667,60.16590909090909,1034.3333333333333,59.90454545454544,1036.75,59.64318181818181C1039.1666666666667,59.381818181818176,1041.5833333333333,59.12045454545456,1044,58.859090909090924C1046.4166666666667,58.59772727272729,1048.8333333333333,58.33636363636364,1051.25,58.075C1053.6666666666667,57.81363636363636,1056.0833333333333,57.55227272727273,1058.5,57.29090909090909C1060.9166666666667,57.02954545454545,1063.3333333333333,56.768181818181816,1065.75,56.506818181818176C1068.1666666666667,56.245454545454535,1070.5833333333333,55.9840909090909,1073,55.72272727272727C1075.4166666666667,55.461363636363636,1077.8333333333333,55.2,1080.25,54.93863636363637C1082.6666666666667,54.67727272727274,1085.0833333333333,54.415909090909096,1087.5,54.154545454545456C1089.9166666666667,53.893181818181816,1092.3333333333333,53.63181818181819,1094.75,53.37045454545455C1097.1666666666667,53.10909090909091,1099.5833333333333,52.847727272727276,1102,52.586363636363636C1104.4166666666667,52.324999999999996,1106.8333333333333,52.06363636363636,1109.25,51.80227272727272C1111.6666666666667,51.54090909090908,1114.0833333333333,51.279545454545456,1116.5,51.018181818181816C1118.9166666666667,50.756818181818176,1121.3333333333333,50.495454545454535,1123.75,50.2340909090909C1126.1666666666667,49.97272727272727,1128.5833333333333,49.711363636363636,1131,49.45C1133.4166666666667,49.18863636363637,1135.8333333333333,48.92727272727274,1138.25,48.665909090909096C1140.6666666666667,48.404545454545456,1143.0833333333333,48.143181818181816,1145.5,47.88181818181818C1147.9166666666667,47.62045454545455,1150.3333333333333,47.35909090909091,1152.75,47.097727272727276C1155.1666666666667,46.83636363636364,1157.5833333333333,46.575,1160,46.31363636363636C1162.4166666666667,46.05227272727272,1164.8333333333333,45.79090909090908,1167.25,45.52954545454545C1169.6666666666667,45.268181818181816,1172.0833333333333,45.006818181818176,1174.5,44.74545454545454C1176.9166666666667,44.48409090909091,1179.3333333333333,44.222727272727276,1181.75,43.96136363636364C1184.1666666666667,43.70000000000001,1186.5833333333333,43.43863636363636,1189,43.17727272727273C1191.4166666666667,42.915909090909096,1193.8333333333333,42.654545454545456,1196.25,42.39318181818182C1198.6666666666667,42.13181818181819,1201.0833333333333,41.87045454545455,1203.5,41.60909090909091C1205.9166666666667,41.34772727272727,1208.3333333333333,41.08636363636363,1210.75,40.824999999999996C1213.1666666666667,40.56363636363636,1215.5833333333333,40.30227272727272,1218,40.04090909090909C1220.4166666666667,39.779545454545456,1222.8333333333333,39.518181818181816,1225.25,39.256818181818176C1227.6666666666667,38.995454545454535,1230.0833333333333,38.734090909090895,1232.5,38.47272727272726C1234.9166666666667,38.21136363636363,1237.3333333333333,37.95,1239.75,37.68863636363637C1242.1666666666667,37.42727272727274,1244.5833333333333,37.165909090909096,1247,36.904545454545456C1249.4166666666667,36.643181818181816,1251.8333333333333,36.38181818181818,1254.25,36.12045454545454C1256.6666666666667,35.8590909090909,1259.0833333333333,35.597727272727255,1261.5,35.33636363636362C1263.9166666666667,35.07499999999999,1266.3333333333333,34.813636363636355,1268.75,34.55227272727272C1271.1666666666667,34.29090909090909,1273.5833333333333,34.02954545454544,1276,33.76818181818181C1278.4166666666667,33.506818181818176,1280.8333333333333,33.24545454545455,1283.25,32.98409090909092C1285.6666666666667,32.72272727272728,1288.0833333333333,32.46136363636364,1290.5,32.2C1292.9166666666667,31.938636363636363,1295.3333333333333,31.677272727272715,1297.75,31.41590909090908C1300.1666666666667,31.154545454545442,1302.5833333333333,30.893181818181816,1305,30.631818181818183C1307.4166666666667,30.37045454545455,1309.8333333333333,30.109090909090906,1312.25,29.84772727272727C1314.6666666666667,29.586363636363632,1317.0833333333333,29.325,1319.5,29.06363636363636C1321.9166666666667,28.80227272727272,1324.3333333333333,28.54090909090907,1326.75,28.279545454545435C1329.1666666666667,28.018181818181798,1331.5833333333333,27.756818181818172,1334,27.49545454545454C1336.4166666666667,27.234090909090906,1338.8333333333333,26.972727272727276,1341.25,26.71136363636364C1343.6666666666667,26.450000000000003,1346.0833333333333,26.188636363636366,1348.5,25.92727272727273C1350.9166666666667,25.665909090909093,1353.3333333333333,25.404545454545456,1355.75,25.143181818181816C1358.1666666666667,24.881818181818176,1360.5833333333333,24.620454545454532,1363,24.359090909090895C1365.4166666666667,24.09772727272726,1367.8333333333333,23.83636363636363,1370.25,23.574999999999996C1372.6666666666667,23.313636363636363,1375.0833333333333,23.05227272727273,1377.5,22.790909090909096C1379.9166666666667,22.529545454545463,1382.3333333333333,22.268181818181823,1384.75,22.006818181818186C1387.1666666666667,21.74545454545455,1389.5833333333333,21.48409090909091,1392,21.222727272727276C1394.4166666666667,20.961363636363643,1396.8333333333333,20.700000000000014,1399.25,20.438636363636377C1401.6666666666667,20.17727272727274,1404.0833333333333,19.915909090909093,1406.5,19.654545454545453C1408.9166666666667,19.393181818181812,1411.3333333333333,19.13181818181818,1413.75,18.870454545454542C1416.1666666666667,18.609090909090906,1418.5833333333333,18.34772727272727,1421,18.086363636363632C1423.4166666666667,17.824999999999996,1425.8333333333333,17.563636363636366,1428.25,17.302272727272733C1430.6666666666667,17.0409090909091,1433.0833333333333,16.77954545454547,1435.5,16.518181818181834C1437.9166666666667,16.256818181818197,1440.3333333333333,15.99545454545455,1442.75,15.734090909090911C1445.1666666666667,15.472727272727273,1447.5833333333333,15.211363636363636,1450,14.950000000000001" fill="transparent" stroke-linecap="round" stroke="#E7C6DF" stroke-width="2"></path><g class="visx-group visx-axis visx-axis-bottom" transform="translate(0, 115)"><g class="visx-group visx-axis-tick" transform="translate(0, 0)"><line class="visx-line" x1="0" y1="0" x2="0" y2="8" fill="transparent" shape-rendering="crispEdges" stroke="#000" stroke-width="0" stroke-linecap="square"></line><svg x="0" y="0" font-size="10" style="overflow:visible"><text transform="" x="0" y="18" fill="#000" font-size="10" text-anchor="middle"><tspan x="0" dy="0em">0%</tspan></text></svg></g><g class="visx-group visx-axis-tick" transform="translate(0, 0)"><line class="visx-line" x1="362.5" y1="0" x2="362.5" y2="8" fill="transparent" shape-rendering="crispEdges" stroke="#000" stroke-width="0" stroke-linecap="square"></line><svg x="0" y="0" font-size="10" style="overflow:visible"><text transform="" x="362.5" y="18" fill="#000" font-size="10" text-anchor="middle"><tspan x="362.5" dy="0em">25%</tspan></text></svg></g><g class="visx-group visx-axis-tick" transform="translate(0, 0)"><line class="visx-line" x1="725" y1="0" x2="725" y2="8" fill="transparent" shape-rendering="crispEdges" stroke="#000" stroke-width="0" stroke-linecap="square"></line><svg x="0" y="0" font-size="10" style="overflow:visible"><text transform="" x="725" y="18" fill="#000" font-size="10" text-anchor="middle"><tspan x="725" dy="0em">50%</tspan></text></svg></g><g class="visx-group visx-axis-tick" transform="translate(0, 0)"><line class="visx-line" x1="1087.5" y1="0" x2="1087.5" y2="8" fill="transparent" shape-rendering="crispEdges" stroke="#000" stroke-width="0" stroke-linecap="square"></line><svg x="0" y="0" font-size="10" style="overflow:visible"><text transform="" x="1087.5" y="18" fill="#000" font-size="10" text-anchor="middle"><tspan x="1087.5" dy="0em">75%</tspan></text></svg></g><g class="visx-group visx-axis-tick" transform="translate(0, 0)"><line class="visx-line" x1="1450" y1="0" x2="1450" y2="8" fill="transparent" shape-rendering="crispEdges" stroke="#000" stroke-width="0" stroke-linecap="square"></line><svg x="0" y="0" font-size="10" style="overflow:visible"><text transform="" x="1450" y="18" fill="#000" font-size="10" text-anchor="middle"><tspan x="1450" dy="0em">100%</tspan></text></svg></g><line class="visx-line visx-axis-line" x1="0.5" y1="0" x2="1450.5" y2="0" fill="transparent" shape-rendering="crispEdges" stroke="#222" stroke-width="0"></line></g><g class="visx-group visx-axis visx-axis-left" transform="translate(0, 0)"><g class="visx-group visx-axis-tick" transform="translate(0, 0)"><line class="visx-line" x1="0" y1="115" x2="-8" y2="115" fill="transparent" shape-rendering="crispEdges" stroke="#222" stroke-width="0" stroke-linecap="square"></line><svg x="-30" y="0" font-size="8" style="overflow:visible"><text transform="" x="-8" y="115" fill="#000" font-size="8" text-anchor="start"><tspan x="-8" dy="0em">0%</tspan></text></svg></g><g class="visx-group visx-axis-tick" transform="translate(0, 0)"><line class="visx-line" x1="0" y1="57.5" x2="-8" y2="57.5" fill="transparent" shape-rendering="crispEdges" stroke="#222" stroke-width="0" stroke-linecap="square"></line><svg x="-30" y="0" font-size="8" style="overflow:visible"><text transform="" x="-8" y="57.5" fill="#000" font-size="8" text-anchor="start"><tspan x="-8" dy="0em">50%</tspan></text></svg></g><g class="visx-group visx-axis-tick" transform="translate(0, 0)"><line class="visx-line" x1="0" y1="0" x2="-8" y2="0" fill="transparent" shape-rendering="crispEdges" stroke="#222" stroke-width="0" stroke-linecap="square"></line><svg x="-30" y="0" font-size="8" style="overflow:visible"><text transform="" x="-8" y="0" fill="#000" font-size="8" text-anchor="start"><tspan x="-8" dy="0em">100%</tspan></text></svg></g><line class="visx-line visx-axis-line" x1="0" y1="115.5" x2="0" y2="0.5" fill="transparent" shape-rendering="crispEdges" stroke="#222" stroke-width="0"></line></g><rect class="visx-bar" width="1450" height="115" fill="transparent"></rect><line class="visx-line" x1="652.5" y1="28" x2="652.5" y2="115" fill="transparent" shape-rendering="crispEdges" stroke="#0062D2" stroke-width="1" pointer-events="none" stroke-dasharray="5,2"></line><svg x="0" y="0" font-size="10px" style="overflow:visible"><text transform="" x="652.5" y="20" font-size="10px" fill="#fff" stroke="#fff" stroke-width="0.8em" text-anchor="middle"><tspan x="652.5" dy="0.355em">Optimal 45%</tspan></text></svg><svg x="0" y="0" font-size="10px" style="overflow:visible"><text transform="" x="652.5" y="20" font-size="10px" fill="#62677B" text-anchor="middle"><tspan x="652.5" dy="0.355em">Optimal 45%</tspan></text></svg></g></svg>