<?xml version="1.0"?><svg xmlns="http://www.w3.org/2000/svg" xmlns:xlink= "http://www.w3.org/1999/xlink" style="background: white;" width="1500" height="185"> <g style="color: black; font-size: 13px; font-family: sans-serif; transform: translate(18px, 25px);"><g><circle r="3" cx="-6" cy="-5" style="fill: #B6509E" /><text>Borrow APR, variable</text></g><g style="transform: translateX(150px);"><circle r="3" cx="-6" cy="-5" style="fill: rgb(231, 198, 223)" /><text>Borrow APR, stable</text></g><g style="transform: translateX(290px);"><circle r="3" cx="-6" cy="-5" style="fill: rgb(0, 98, 210)" /><text>Utilization Rate</text></g></g><g class="visx-group" transform="translate(40, 50)"><g class="visx-group visx-rows" transform="translate(0, 0)"><line class="visx-line" x1="0" y1="115" x2="1450" y2="115" fill="transparent" shape-rendering="crispEdges" stroke="#000" stroke-width="1" stroke-dasharray="3,3" pointer-events="none"></line><line class="visx-line" x1="0" y1="70.76923076923077" x2="1450" y2="70.76923076923077" fill="transparent" shape-rendering="crispEdges" stroke="#000" stroke-width="1" stroke-dasharray="3,3" pointer-events="none"></line><line class="visx-line" x1="0" y1="26.538461538461533" x2="1450" y2="26.538461538461533" fill="transparent" shape-rendering="crispEdges" stroke="#000" stroke-width="1" stroke-dasharray="3,3" pointer-events="none"></line></g><path class="visx-linepath" d="M0,109.69230769219881C2.4166666666666665,109.67416173563667,4.833333333333334,109.65601577907455,7.25,109.6378698224852C9.666666666666666,109.61972386589585,12.083333333333334,109.60157790927022,14.5,109.58343195266272C16.916666666666668,109.56528599605522,19.333333333333332,109.54714003944774,21.75,109.52899408284024C24.166666666666668,109.51084812623274,26.583333333333332,109.49270216962525,29,109.47455621301775C31.416666666666668,109.45641025641025,33.833333333333336,109.43826429980277,36.25,109.42011834319527C38.666666666666664,109.40197238658777,41.083333333333336,109.38382642998029,43.5,109.36568047337279C45.91666666666667,109.3475345167653,48.333333333333336,109.3293885601578,50.75000000000001,109.3112426035503C53.16666666666667,109.2930966469428,55.583333333333336,109.27495069033532,58,109.25680473372782C60.416666666666664,109.23865877712032,62.833333333333336,109.22051282051282,65.25,109.20236686390533C67.66666666666667,109.18422090729783,70.08333333333333,109.16607495069033,72.5,109.14792899408283C74.91666666666667,109.12978303747533,77.33333333333333,109.11163708086785,79.75,109.09349112426035C82.16666666666667,109.07534516765286,84.58333333333333,109.05719921104537,87,109.03905325443787C89.41666666666667,109.02090729783038,91.83333333333333,109.00276134122288,94.25,108.98461538461538C96.66666666666667,108.96646942800788,99.08333333333334,108.9483234714004,101.50000000000001,108.9301775147929C103.91666666666667,108.9120315581854,106.33333333333334,108.8938856015779,108.75,108.87573964497041C111.16666666666667,108.85759368836291,113.58333333333333,108.83944773175543,116,108.82130177514793C118.41666666666667,108.80315581854043,120.83333333333334,108.78500986193293,123.25000000000001,108.76686390532544C125.66666666666667,108.74871794871794,128.08333333333334,108.73057199211046,130.5,108.71242603550296C132.91666666666666,108.69428007889546,135.33333333333334,108.67613412228798,137.75,108.65798816568048C140.16666666666666,108.63984220907298,142.58333333333334,108.62169625246548,145,108.60355029585799C147.41666666666666,108.58540433925049,149.83333333333334,108.567258382643,152.25,108.5491124260355C154.66666666666666,108.53096646942801,157.08333333333334,108.51282051282053,159.5,108.49467455621303C161.91666666666666,108.47652859960553,164.33333333333334,108.45838264299803,166.75,108.44023668639053C169.16666666666666,108.42209072978304,171.58333333333334,108.40394477317554,174,108.38579881656804C176.41666666666666,108.36765285996054,178.83333333333334,108.34950690335306,181.25,108.33136094674556C183.66666666666666,108.31321499013806,186.08333333333334,108.29506903353058,188.5,108.27692307692308C190.91666666666666,108.25877712031559,193.33333333333334,108.24063116370809,195.75,108.22248520710059C198.16666666666669,108.20433925049309,200.58333333333334,108.18619329388561,203.00000000000003,108.16804733727811C205.41666666666669,108.14990138067061,207.83333333333331,108.13175542406312,210.24999999999997,108.11360946745562C212.66666666666666,108.09546351084812,215.08333333333331,108.07731755424062,217.5,108.05917159763312C219.91666666666666,108.04102564102563,222.33333333333334,108.02287968441814,224.75,108.00473372781065C227.16666666666666,107.98658777120315,229.58333333333334,107.96844181459566,232,107.95029585798817C234.41666666666666,107.93214990138067,236.83333333333334,107.91400394477319,239.25,107.89585798816569C241.66666666666669,107.87771203155819,244.08333333333334,107.85956607495069,246.50000000000003,107.8414201183432C248.91666666666669,107.8232741617357,251.33333333333331,107.80512820512821,253.74999999999997,107.78698224852072C256.16666666666663,107.76883629191322,258.5833333333333,107.75069033530573,261,107.73254437869824C263.4166666666667,107.71439842209074,265.8333333333333,107.69625246548323,268.25,107.67810650887573C270.6666666666667,107.65996055226823,273.0833333333333,107.64181459566075,275.5,107.62366863905325C277.9166666666667,107.60552268244575,280.3333333333333,107.58737672583827,282.75,107.56923076923077C285.1666666666667,107.55108481262327,287.5833333333333,107.53293885601578,290,107.51479289940828C292.4166666666667,107.49664694280078,294.8333333333333,107.4785009861933,297.25,107.4603550295858C299.6666666666667,107.4422090729783,302.0833333333333,107.42406311637082,304.5,107.40591715976332C306.9166666666667,107.38777120315582,309.3333333333333,107.36962524654834,311.75,107.35147928994084C314.1666666666667,107.33333333333334,316.5833333333333,107.31518737672583,319,107.29704142011833C321.4166666666667,107.27889546351084,323.8333333333333,107.26074950690335,326.25,107.24260355029585C328.6666666666667,107.22445759368836,331.0833333333333,107.20631163708087,333.5,107.18816568047338C335.9166666666667,107.17001972386588,338.3333333333333,107.15187376725838,340.75,107.13372781065088C343.1666666666667,107.11558185404338,345.5833333333333,107.0974358974359,348,107.0792899408284C350.4166666666667,107.0611439842209,352.8333333333333,107.04299802761342,355.25,107.02485207100592C357.6666666666667,107.00670611439843,360.0833333333333,106.98856015779093,362.5,106.97041420118343C364.9166666666667,106.95226824457593,367.3333333333333,106.93412228796845,369.75,106.91597633136095C372.1666666666667,106.89783037475345,374.5833333333333,106.87968441814596,377,106.86153846153846C379.4166666666667,106.84339250493096,381.8333333333333,106.82524654832348,384.25,106.80710059171598C386.6666666666667,106.78895463510848,389.0833333333333,106.77080867850098,391.5,106.75266272189349C393.9166666666667,106.73451676528599,396.33333333333337,106.7163708086785,398.75000000000006,106.69822485207101C401.16666666666674,106.68007889546351,403.58333333333337,106.66193293885603,406.00000000000006,106.64378698224853C408.4166666666667,106.62564102564103,410.8333333333333,106.60749506903353,413.24999999999994,106.58934911242604C415.66666666666663,106.57120315581854,418.08333333333326,106.55305719921104,420.49999999999994,106.53491124260354C422.91666666666663,106.51676528599604,425.3333333333333,106.49861932938856,427.75,106.48047337278106C430.1666666666667,106.46232741617357,432.5833333333333,106.44418145956608,435,106.42603550295858C437.4166666666667,106.40788954635109,439.8333333333333,106.38974358974359,442.25,106.37159763313609C444.6666666666667,106.35345167652859,447.0833333333333,106.33530571992111,449.5,106.31715976331361C451.9166666666667,106.29901380670611,454.3333333333333,106.28086785009863,456.75,106.26272189349113C459.1666666666667,106.24457593688363,461.5833333333333,106.22642998027614,464,106.20828402366864C466.4166666666667,106.19013806706114,468.8333333333333,106.17199211045366,471.25,106.15384615384616C473.6666666666667,106.13570019723866,476.0833333333333,106.11755424063116,478.5,106.09940828402367C480.9166666666667,106.08126232741617,483.33333333333337,106.06311637080867,485.75000000000006,106.04497041420117C488.16666666666674,106.02682445759368,490.58333333333337,106.00867850098619,493.00000000000006,105.9905325443787C495.4166666666667,105.9723865877712,497.8333333333333,105.95424063116371,500.24999999999994,105.93609467455622C502.66666666666663,105.91794871794872,505.08333333333326,105.89980276134122,507.49999999999994,105.88165680473372C509.91666666666663,105.86351084812623,512.3333333333333,105.84536489151874,514.75,105.82721893491124C517.1666666666666,105.80907297830375,519.5833333333334,105.79092702169625,522,105.77278106508875C524.4166666666666,105.75463510848125,526.8333333333334,105.73648915187377,529.25,105.71834319526627C531.6666666666666,105.70019723865877,534.0833333333334,105.68205128205128,536.5,105.66390532544378C538.9166666666666,105.64575936883628,541.3333333333334,105.6276134122288,543.75,105.6094674556213C546.1666666666666,105.5913214990138,548.5833333333334,105.57317554240632,551,105.55502958579882C553.4166666666666,105.53688362919132,555.8333333333334,105.51873767258382,558.25,105.50059171597633C560.6666666666666,105.48244575936883,563.0833333333334,105.46429980276135,565.5,105.44615384615385C567.9166666666666,105.42800788954635,570.3333333333334,105.40986193293887,572.75,105.39171597633137C575.1666666666666,105.37357001972387,577.5833333333334,105.35542406311637,580,105.33727810650888C582.4166666666666,105.31913214990138,584.8333333333334,105.30098619329388,587.25,105.28284023668638C589.6666666666666,105.26469428007888,592.0833333333334,105.2465483234714,594.5,105.2284023668639C596.9166666666666,105.2102564102564,599.3333333333334,105.19211045364892,601.75,105.17396449704142C604.1666666666666,105.15581854043393,606.5833333333334,105.13767258382643,609,105.11952662721893C611.4166666666666,105.10138067061143,613.8333333333334,105.08323471400395,616.25,105.06508875739645C618.6666666666666,105.04694280078895,621.0833333333334,105.02879684418147,623.5,105.01065088757397C625.9166666666666,104.99250493096648,628.3333333333334,104.97435897435898,630.75,104.95621301775148C633.1666666666666,104.93806706114398,635.5833333333334,104.91992110453648,638,104.90177514792899C640.4166666666666,104.88362919132149,642.8333333333334,104.865483234714,645.25,104.84733727810651C647.6666666666666,104.82919132149901,650.0833333333334,104.81104536489153,652.5,104.79289940828403C654.9166666666666,104.77475345167653,657.3333333333334,104.75660749506903,659.75,104.73846153846154C662.1666666666666,104.72031558185404,664.5833333333334,104.70216962524655,667,104.68402366863906C669.4166666666666,104.66587771203156,671.8333333333334,104.64773175542408,674.25,104.62958579881658C676.6666666666666,104.61143984220908,679.0833333333334,104.59329388560158,681.5,104.57514792899408C683.9166666666666,104.55700197238659,686.3333333333334,104.53885601577909,688.75,104.52071005917159C691.1666666666666,104.5025641025641,693.5833333333334,104.48441814595661,696,104.46627218934911C698.4166666666666,104.44812623274161,700.8333333333334,104.42998027613412,703.25,104.41183431952662C705.6666666666666,104.39368836291912,708.0833333333334,104.37554240631164,710.5,104.35739644970414C712.9166666666666,104.33925049309664,715.3333333333334,104.32110453648916,717.75,104.30295857988166C720.1666666666666,104.28481262327416,722.5833333333334,104.26666666666668,725,104.24852071005918C727.4166666666666,104.23037475345168,729.8333333333334,104.21222879684419,732.25,104.19408284023669C734.6666666666666,104.17593688362919,737.0833333333334,104.1577909270217,739.5,104.1396449704142C741.9166666666666,104.1214990138067,744.3333333333334,104.10335305719921,746.75,104.08520710059172C749.1666666666666,104.06706114398422,751.5833333333334,104.04891518737672,754,104.03076923076922C756.4166666666666,104.01262327416173,758.8333333333334,103.99447731755424,761.25,103.97633136094674C763.6666666666666,103.95818540433925,766.0833333333334,103.94003944773176,768.5,103.92189349112427C770.9166666666666,103.90374753451677,773.3333333333334,103.88560157790927,775.75,103.86745562130177C778.1666666666666,103.84930966469427,780.5833333333334,103.83116370808679,783,103.8130177514793C785.4166666666667,103.7948717948718,787.8333333333334,103.7767258382643,790.2500000000001,103.7585798816568C792.6666666666667,103.7404339250493,795.0833333333335,103.72228796844182,797.5000000000001,103.70414201183432C799.9166666666667,103.68599605522682,802.3333333333335,103.66785009861933,804.7500000000001,103.64970414201183C807.1666666666667,103.63155818540433,809.5833333333335,103.61341222879685,812.0000000000001,103.59526627218935C814.4166666666667,103.57712031558185,816.8333333333333,103.55897435897437,819.2499999999999,103.54082840236687C821.6666666666665,103.52268244575937,824.0833333333333,103.50453648915187,826.4999999999999,103.48639053254438C828.9166666666665,103.46824457593688,831.3333333333333,103.45009861932938,833.7499999999999,103.43195266272188C836.1666666666665,103.41380670611439,838.5833333333333,103.3956607495069,840.9999999999999,103.3775147928994C843.4166666666666,103.3593688362919,845.8333333333333,103.34122287968442,848.25,103.32307692307693C850.6666666666666,103.30493096646943,853.0833333333334,103.28678500986193,855.5,103.26863905325443C857.9166666666666,103.25049309664693,860.3333333333334,103.23234714003945,862.75,103.21420118343195C865.1666666666666,103.19605522682446,867.5833333333334,103.17790927021697,870,103.15976331360947C872.4166666666666,103.14161735700198,874.8333333333334,103.12347140039448,877.25,103.10532544378698C879.6666666666666,103.08717948717948,882.0833333333334,103.069033530572,884.5,103.0508875739645C886.9166666666666,103.032741617357,889.3333333333334,103.01459566074952,891.75,102.99644970414202C894.1666666666666,102.97830374753453,896.5833333333334,102.96015779092701,899,102.94201183431952C901.4166666666666,102.92386587771202,903.8333333333334,102.90571992110453,906.25,102.88757396449704C908.6666666666666,102.86942800788954,911.0833333333334,102.85128205128206,913.5,102.83313609467456C915.9166666666666,102.81499013806706,918.3333333333334,102.79684418145956,920.75,102.77869822485206C923.1666666666666,102.76055226824457,925.5833333333334,102.74240631163708,928,102.72426035502959C930.4166666666666,102.70611439842209,932.8333333333334,102.6879684418146,935.25,102.6698224852071C937.6666666666666,102.65167652859961,940.0833333333334,102.65167652859961,942.5,102.61538461538461C944.9166666666666,102.57909270216962,947.3333333333334,101.77289377289377,949.75,101.35164835164835C952.1666666666666,100.93040293040293,954.5833333333334,100.5091575091575,957,100.08791208791209C959.4166666666666,99.66666666666667,961.8333333333334,99.24542124542124,964.25,98.82417582417582C966.6666666666667,98.4029304029304,969.0833333333334,97.98168498168499,971.5000000000001,97.56043956043956C973.9166666666667,97.13919413919415,976.3333333333335,96.71794871794873,978.7500000000001,96.2967032967033C981.1666666666667,95.87545787545787,983.5833333333335,95.45421245421244,986.0000000000001,95.03296703296702C988.4166666666667,94.6117216117216,990.8333333333335,94.1904761904762,993.2500000000001,93.76923076923077C995.6666666666667,93.34798534798536,998.0833333333333,92.92673992673993,1000.4999999999999,92.50549450549451C1002.9166666666665,92.08424908424908,1005.3333333333333,91.66300366300365,1007.7499999999999,91.24175824175823C1010.1666666666665,90.82051282051282,1012.5833333333333,90.39926739926739,1014.9999999999999,89.97802197802197C1017.4166666666665,89.55677655677655,1019.8333333333333,89.13553113553112,1022.2499999999999,88.71428571428571C1024.6666666666665,88.29304029304028,1027.0833333333333,87.87179487179488,1029.5,87.45054945054945C1031.9166666666667,87.02930402930403,1034.3333333333333,86.6080586080586,1036.75,86.18681318681318C1039.1666666666667,85.76556776556777,1041.5833333333333,85.34432234432235,1044,84.92307692307693C1046.4166666666667,84.50183150183152,1048.8333333333333,84.0805860805861,1051.25,83.65934065934067C1053.6666666666667,83.23809523809524,1056.0833333333333,82.81684981684981,1058.5,82.3956043956044C1060.9166666666667,81.97435897435898,1063.3333333333333,81.55311355311355,1065.75,81.13186813186813C1068.1666666666667,80.71062271062272,1070.5833333333333,80.28937728937728,1073,79.86813186813187C1075.4166666666667,79.44688644688645,1077.8333333333333,79.02564102564102,1080.25,78.6043956043956C1082.6666666666667,78.18315018315019,1085.0833333333333,77.76190476190476,1087.5,77.34065934065934C1089.9166666666667,76.91941391941393,1092.3333333333333,76.4981684981685,1094.75,76.07692307692308C1097.1666666666667,75.65567765567766,1099.5833333333333,75.23443223443223,1102,74.8131868131868C1104.4166666666667,74.39194139194137,1106.8333333333333,73.97069597069596,1109.25,73.54945054945054C1111.6666666666667,73.12820512820512,1114.0833333333333,72.7069597069597,1116.5,72.28571428571428C1118.9166666666667,71.86446886446886,1121.3333333333333,71.44322344322345,1123.75,71.02197802197803C1126.1666666666667,70.60073260073261,1128.5833333333333,70.17948717948718,1131,69.75824175824175C1133.4166666666667,69.33699633699632,1135.8333333333333,68.9157509157509,1138.25,68.49450549450549C1140.6666666666667,68.07326007326007,1143.0833333333333,67.65201465201464,1145.5,67.23076923076923C1147.9166666666667,66.80952380952381,1150.3333333333333,66.38827838827838,1152.75,65.96703296703296C1155.1666666666667,65.54578754578755,1157.5833333333333,65.12454212454212,1160,64.7032967032967C1162.4166666666667,64.28205128205128,1164.8333333333333,63.86080586080587,1167.25,63.439560439560445C1169.6666666666667,63.01831501831502,1172.0833333333333,62.597069597069584,1174.5,62.17582417582416C1176.9166666666667,61.75457875457874,1179.3333333333333,61.333333333333314,1181.75,60.9120879120879C1184.1666666666667,60.49084249084248,1186.5833333333333,60.069597069597066,1189,59.64835164835164C1191.4166666666667,59.22710622710622,1193.8333333333333,58.8058608058608,1196.25,58.38461538461538C1198.6666666666667,57.963369963369956,1201.0833333333333,57.54212454212455,1203.5,57.120879120879124C1205.9166666666667,56.6996336996337,1208.3333333333333,56.27838827838826,1210.75,55.85714285714285C1213.1666666666667,55.43589743589743,1215.5833333333333,55.01465201465203,1218,54.593406593406606C1220.4166666666667,54.17216117216118,1222.8333333333333,53.750915750915745,1225.25,53.32967032967032C1227.6666666666667,52.9084249084249,1230.0833333333333,52.48717948717949,1232.5,52.06593406593407C1234.9166666666667,51.64468864468866,1237.3333333333333,51.223443223443226,1239.75,50.8021978021978C1242.1666666666667,50.38095238095238,1244.5833333333333,49.95970695970696,1247,49.53846153846154C1249.4166666666667,49.11721611721612,1251.8333333333333,48.69597069597069,1254.25,48.27472527472527C1256.6666666666667,47.85347985347985,1259.0833333333333,47.432234432234424,1261.5,47.01098901098901C1263.9166666666667,46.58974358974359,1266.3333333333333,46.168498168498175,1268.75,45.74725274725275C1271.1666666666667,45.32600732600733,1273.5833333333333,44.904761904761905,1276,44.48351648351648C1278.4166666666667,44.06227106227106,1280.8333333333333,43.641025641025635,1283.25,43.21978021978022C1285.6666666666667,42.7985347985348,1288.0833333333333,42.37728937728939,1290.5,41.95604395604396C1292.9166666666667,41.53479853479854,1295.3333333333333,41.11355311355311,1297.75,40.692307692307686C1300.1666666666667,40.27106227106226,1302.5833333333333,39.849816849816854,1305,39.42857142857143C1307.4166666666667,39.00732600732601,1309.8333333333333,38.58608058608058,1312.25,38.164835164835154C1314.6666666666667,37.74358974358973,1317.0833333333333,37.32234432234432,1319.5,36.9010989010989C1321.9166666666667,36.479853479853475,1324.3333333333333,36.05860805860806,1326.75,35.637362637362635C1329.1666666666667,35.21611721611721,1331.5833333333333,34.79487179487179,1334,34.373626373626365C1336.4166666666667,33.95238095238094,1338.8333333333333,33.53113553113553,1341.25,33.10989010989011C1343.6666666666667,32.688644688644686,1346.0833333333333,32.26739926739927,1348.5,31.846153846153847C1350.9166666666667,31.424908424908423,1353.3333333333333,31.003663003662997,1355.75,30.582417582417577C1358.1666666666667,30.161172161172157,1360.5833333333333,29.73992673992675,1363,29.318681318681328C1365.4166666666667,28.897435897435905,1367.8333333333333,28.476190476190464,1370.25,28.054945054945044C1372.6666666666667,27.633699633699624,1375.0833333333333,27.21245421245422,1377.5,26.7912087912088C1379.9166666666667,26.36996336996338,1382.3333333333333,25.94871794871795,1384.75,25.527472527472526C1387.1666666666667,25.106227106227102,1389.5833333333333,24.684981684981675,1392,24.263736263736256C1394.4166666666667,23.842490842490836,1396.8333333333333,23.421245421245416,1399.25,22.999999999999996C1401.6666666666667,22.578754578754577,1404.0833333333333,22.157509157509157,1406.5,21.736263736263737C1408.9166666666667,21.315018315018317,1411.3333333333333,20.8937728937729,1413.75,20.472527472527478C1416.1666666666667,20.051282051282055,1418.5833333333333,19.630036630036628,1421,19.208791208791204C1423.4166666666667,18.78754578754578,1425.8333333333333,18.36630036630035,1428.25,17.94505494505493C1430.6666666666667,17.52380952380951,1433.0833333333333,17.102564102564106,1435.5,16.681318681318686C1437.9166666666667,16.260073260073266,1440.3333333333333,15.838827838827834,1442.75,15.417582417582414C1445.1666666666667,14.996336996336995,1447.5833333333333,14.57509157509158,1450,14.153846153846168" fill="transparent" stroke-linecap="round" stroke="#B6509E" stroke-width="2"></path><path class="visx-linepath" d="M0,106.15384615381893C2.4166666666666665,106.1493096646784,4.833333333333334,106.14477317553788,7.25,106.14023668639054C9.666666666666666,106.1357001972432,12.083333333333334,106.13116370808679,14.5,106.12662721893491C16.916666666666668,106.12209072978304,19.333333333333332,106.11755424063116,21.75,106.11301775147929C24.166666666666668,106.10848126232742,26.583333333333332,106.10394477317554,29,106.09940828402367C31.416666666666668,106.09487179487179,33.833333333333336,106.09033530571992,36.25,106.08579881656804C38.666666666666664,106.08126232741617,41.083333333333336,106.0767258382643,43.5,106.07218934911242C45.91666666666667,106.06765285996055,48.333333333333336,106.06311637080867,50.75000000000001,106.0585798816568C53.16666666666667,106.05404339250492,55.583333333333336,106.04950690335305,58,106.04497041420117C60.416666666666664,106.0404339250493,62.833333333333336,106.03589743589744,65.25,106.03136094674556C67.66666666666667,106.02682445759369,70.08333333333333,106.02228796844182,72.5,106.01775147928994C74.91666666666667,106.01321499013807,77.33333333333333,106.00867850098619,79.75,106.00414201183432C82.16666666666667,105.99960552268244,84.58333333333333,105.99506903353057,87,105.9905325443787C89.41666666666667,105.98599605522682,91.83333333333333,105.98145956607495,94.25,105.97692307692307C96.66666666666667,105.9723865877712,99.08333333333334,105.96785009861932,101.50000000000001,105.96331360946745C103.91666666666667,105.95877712031557,106.33333333333334,105.95424063116371,108.75,105.94970414201184C111.16666666666667,105.94516765285996,113.58333333333333,105.94063116370809,116,105.93609467455622C118.41666666666667,105.93155818540434,120.83333333333334,105.92702169625247,123.25000000000001,105.92248520710059C125.66666666666667,105.91794871794872,128.08333333333334,105.91341222879684,130.5,105.90887573964497C132.91666666666666,105.9043392504931,135.33333333333334,105.89980276134122,137.75,105.89526627218935C140.16666666666666,105.89072978303747,142.58333333333334,105.8861932938856,145,105.88165680473372C147.41666666666666,105.87712031558185,149.83333333333334,105.87258382642999,152.25,105.86804733727811C154.66666666666666,105.86351084812624,157.08333333333334,105.85897435897436,159.5,105.85443786982249C161.91666666666666,105.84990138067062,164.33333333333334,105.84536489151874,166.75,105.84082840236687C169.16666666666666,105.83629191321499,171.58333333333334,105.83175542406312,174,105.82721893491124C176.41666666666666,105.82268244575937,178.83333333333334,105.8181459566075,181.25,105.81360946745562C183.66666666666666,105.80907297830375,186.08333333333334,105.80453648915189,188.5,105.80000000000001C190.91666666666666,105.79546351084814,193.33333333333334,105.79092702169626,195.75,105.78639053254439C198.16666666666669,105.78185404339251,200.58333333333334,105.77731755424062,203.00000000000003,105.77278106508875C205.41666666666669,105.76824457593688,207.83333333333331,105.763708086785,210.24999999999997,105.75917159763313C212.66666666666666,105.75463510848125,215.08333333333331,105.75009861932938,217.5,105.7455621301775C219.91666666666666,105.74102564102563,222.33333333333334,105.73648915187376,224.75,105.73195266272188C227.16666666666666,105.72741617357,229.58333333333334,105.72287968441815,232,105.71834319526627C234.41666666666666,105.7138067061144,236.83333333333334,105.70927021696252,239.25,105.70473372781065C241.66666666666669,105.70019723865877,244.08333333333334,105.6956607495069,246.50000000000003,105.69112426035502C248.91666666666669,105.68658777120315,251.33333333333331,105.68205128205128,253.74999999999997,105.6775147928994C256.16666666666663,105.67297830374753,258.5833333333333,105.66844181459565,261,105.66390532544378C263.4166666666667,105.6593688362919,265.8333333333333,105.65483234714004,268.25,105.65029585798817C270.6666666666667,105.6457593688363,273.0833333333333,105.64122287968442,275.5,105.63668639053255C277.9166666666667,105.63214990138067,280.3333333333333,105.6276134122288,282.75,105.62307692307692C285.1666666666667,105.61854043392505,287.5833333333333,105.61400394477317,290,105.6094674556213C292.4166666666667,105.60493096646942,294.8333333333333,105.60039447731755,297.25,105.59585798816568C299.6666666666667,105.5913214990138,302.0833333333333,105.58678500986193,304.5,105.58224852071005C306.9166666666667,105.57771203155818,309.3333333333333,105.57317554240632,311.75,105.56863905325444C314.1666666666667,105.56410256410257,316.5833333333333,105.5595660749507,319,105.55502958579882C321.4166666666667,105.55049309664695,323.8333333333333,105.54595660749507,326.25,105.5414201183432C328.6666666666667,105.53688362919132,331.0833333333333,105.53234714003945,333.5,105.52781065088757C335.9166666666667,105.5232741617357,338.3333333333333,105.51873767258382,340.75,105.51420118343195C343.1666666666667,105.50966469428008,345.5833333333333,105.5051282051282,348,105.50059171597633C350.4166666666667,105.49605522682445,352.8333333333333,105.49151873767259,355.25,105.48698224852072C357.6666666666667,105.48244575936884,360.0833333333333,105.47790927021697,362.5,105.4733727810651C364.9166666666667,105.46883629191322,367.3333333333333,105.46429980276135,369.75,105.45976331360947C372.1666666666667,105.4552268244576,374.5833333333333,105.45069033530572,377,105.44615384615385C379.4166666666667,105.44161735700197,381.8333333333333,105.4370808678501,384.25,105.43254437869822C386.6666666666667,105.42800788954635,389.0833333333333,105.42347140039448,391.5,105.4189349112426C393.9166666666667,105.41439842209073,396.33333333333337,105.40986193293887,398.75000000000006,105.40532544378699C401.16666666666674,105.40078895463512,403.58333333333337,105.39625246548324,406.00000000000006,105.39171597633137C408.4166666666667,105.3871794871795,410.8333333333333,105.38264299802762,413.24999999999994,105.37810650887575C415.66666666666663,105.37357001972387,418.08333333333326,105.369033530572,420.49999999999994,105.36449704142012C422.91666666666663,105.35996055226825,425.3333333333333,105.35542406311637,427.75,105.3508875739645C430.1666666666667,105.34635108481262,432.5833333333333,105.34181459566075,435,105.33727810650888C437.4166666666667,105.332741617357,439.8333333333333,105.32820512820513,442.25,105.32366863905325C444.6666666666667,105.31913214990138,447.0833333333333,105.3145956607495,449.5,105.31005917159763C451.9166666666667,105.30552268244575,454.3333333333333,105.30098619329388,456.75,105.296449704142C459.1666666666667,105.29191321499013,461.5833333333333,105.28737672583826,464,105.28284023668638C466.4166666666667,105.27830374753451,468.8333333333333,105.27376725838263,471.25,105.26923076923076C473.6666666666667,105.26469428007888,476.0833333333333,105.26015779092702,478.5,105.25562130177515C480.9166666666667,105.25108481262328,483.33333333333337,105.2465483234714,485.75000000000006,105.24201183431953C488.16666666666674,105.23747534516765,490.58333333333337,105.23293885601578,493.00000000000006,105.2284023668639C495.4166666666667,105.22386587771203,497.8333333333333,105.21932938856015,500.24999999999994,105.21479289940828C502.66666666666663,105.2102564102564,505.08333333333326,105.20571992110453,507.49999999999994,105.20118343195266C509.91666666666663,105.19664694280078,512.3333333333333,105.19211045364891,514.75,105.18757396449703C517.1666666666666,105.18303747534516,519.5833333333334,105.1785009861933,522,105.17396449704142C524.4166666666666,105.16942800788955,526.8333333333334,105.16489151873768,529.25,105.1603550295858C531.6666666666666,105.15581854043393,534.0833333333334,105.15128205128205,536.5,105.14674556213018C538.9166666666666,105.1422090729783,541.3333333333334,105.13767258382643,543.75,105.13313609467455C546.1666666666666,105.12859960552268,548.5833333333334,105.1240631163708,551,105.11952662721893C553.4166666666666,105.11499013806706,555.8333333333334,105.11045364891518,558.25,105.10591715976331C560.6666666666666,105.10138067061143,563.0833333333334,105.09684418145957,565.5,105.0923076923077C567.9166666666666,105.08777120315582,570.3333333333334,105.08323471400395,572.75,105.07869822485208C575.1666666666666,105.0741617357002,577.5833333333334,105.06962524654833,580,105.06508875739645C582.4166666666666,105.06055226824458,584.8333333333334,105.0560157790927,587.25,105.05147928994083C589.6666666666666,105.04694280078895,592.0833333333334,105.04240631163708,594.5,105.0378698224852C596.9166666666666,105.03333333333333,599.3333333333334,105.02879684418147,601.75,105.0242603550296C604.1666666666666,105.01972386587772,606.5833333333334,105.01518737672585,609,105.01065088757397C611.4166666666666,105.0061143984221,613.8333333333334,105.00157790927022,616.25,104.99704142011835C618.6666666666666,104.99250493096648,621.0833333333334,104.98796844181459,623.5,104.98343195266271C625.9166666666666,104.97889546351084,628.3333333333334,104.97435897435896,630.75,104.96982248520709C633.1666666666666,104.96528599605521,635.5833333333334,104.96074950690335,638,104.95621301775148C640.4166666666666,104.9516765285996,642.8333333333334,104.94714003944773,645.25,104.94260355029586C647.6666666666666,104.93806706114398,650.0833333333334,104.93353057199211,652.5,104.92899408284023C654.9166666666666,104.92445759368836,657.3333333333334,104.91992110453648,659.75,104.91538461538461C662.1666666666666,104.91084812623274,664.5833333333334,104.90631163708086,667,104.90177514792899C669.4166666666666,104.89723865877711,671.8333333333334,104.89270216962524,674.25,104.88816568047336C676.6666666666666,104.88362919132149,679.0833333333334,104.87909270216963,681.5,104.87455621301775C683.9166666666666,104.87001972386588,686.3333333333334,104.865483234714,688.75,104.86094674556213C691.1666666666666,104.85641025641026,693.5833333333334,104.85187376725838,696,104.84733727810651C698.4166666666666,104.84280078895463,700.8333333333334,104.83826429980276,703.25,104.83372781065088C705.6666666666666,104.82919132149901,708.0833333333334,104.82465483234714,710.5,104.82011834319526C712.9166666666666,104.81558185404339,715.3333333333334,104.81104536489151,717.75,104.80650887573964C720.1666666666666,104.80197238658776,722.5833333333334,104.7974358974359,725,104.79289940828403C727.4166666666666,104.78836291913215,729.8333333333334,104.78382642998028,732.25,104.7792899408284C734.6666666666666,104.77475345167653,737.0833333333334,104.77021696252466,739.5,104.76568047337278C741.9166666666666,104.76114398422091,744.3333333333334,104.75660749506903,746.75,104.75207100591716C749.1666666666666,104.74753451676528,751.5833333333334,104.74299802761341,754,104.73846153846154C756.4166666666666,104.73392504930966,758.8333333333334,104.72938856015779,761.25,104.72485207100591C763.6666666666666,104.72031558185404,766.0833333333334,104.71577909270218,768.5,104.7112426035503C770.9166666666666,104.70670611439843,773.3333333333334,104.70216962524655,775.75,104.69763313609468C778.1666666666666,104.6930966469428,780.5833333333334,104.68856015779093,783,104.68402366863906C785.4166666666667,104.67948717948718,787.8333333333334,104.67495069033531,790.2500000000001,104.67041420118343C792.6666666666667,104.66587771203156,795.0833333333335,104.66134122287968,797.5000000000001,104.65680473372781C799.9166666666667,104.65226824457594,802.3333333333335,104.64773175542406,804.7500000000001,104.64319526627219C807.1666666666667,104.63865877712031,809.5833333333335,104.63412228796845,812.0000000000001,104.62958579881658C814.4166666666667,104.6250493096647,816.8333333333333,104.62051282051283,819.2499999999999,104.61597633136095C821.6666666666665,104.61143984220908,824.0833333333333,104.6069033530572,826.4999999999999,104.60236686390533C828.9166666666665,104.59783037475346,831.3333333333333,104.59329388560158,833.7499999999999,104.58875739644971C836.1666666666665,104.58422090729783,838.5833333333333,104.57968441814596,840.9999999999999,104.57514792899408C843.4166666666666,104.57061143984221,845.8333333333333,104.56607495069034,848.25,104.56153846153846C850.6666666666666,104.55700197238659,853.0833333333334,104.55246548323473,855.5,104.54792899408285C857.9166666666666,104.54339250493098,860.3333333333334,104.53885601577909,862.75,104.53431952662721C865.1666666666666,104.52978303747534,867.5833333333334,104.52524654832347,870,104.52071005917159C872.4166666666666,104.51617357001972,874.8333333333334,104.51163708086786,877.25,104.50710059171598C879.6666666666666,104.50256410256411,882.0833333333334,104.49802761341222,884.5,104.49349112426034C886.9166666666666,104.48895463510847,889.3333333333334,104.48441814595661,891.75,104.47988165680474C894.1666666666666,104.47534516765286,896.5833333333334,104.47080867850099,899,104.46627218934911C901.4166666666666,104.46173570019724,903.8333333333334,104.45719921104536,906.25,104.45266272189349C908.6666666666666,104.44812623274161,911.0833333333334,104.44358974358974,913.5,104.43905325443787C915.9166666666666,104.43451676528599,918.3333333333334,104.42998027613412,920.75,104.42544378698224C923.1666666666666,104.42090729783037,925.5833333333334,104.4163708086785,928,104.41183431952662C930.4166666666666,104.40729783037474,932.8333333333334,104.40276134122288,935.25,104.39822485207101C937.6666666666666,104.39368836291914,940.0833333333334,104.39368836291914,942.5,104.38461538461539C944.9166666666666,104.37554240631164,947.3333333333334,103.75274725274726,949.75,103.43681318681318C952.1666666666666,103.12087912087911,954.5833333333334,102.80494505494504,957,102.48901098901098C959.4166666666666,102.17307692307692,961.8333333333334,101.85714285714285,964.25,101.54120879120879C966.6666666666667,101.22527472527472,969.0833333333334,100.90934065934067,971.5000000000001,100.5934065934066C973.9166666666667,100.27747252747254,976.3333333333335,99.96153846153845,978.7500000000001,99.6456043956044C981.1666666666667,99.32967032967034,983.5833333333335,99.01373626373626,986.0000000000001,98.6978021978022C988.4166666666667,98.38186813186815,990.8333333333335,98.06593406593407,993.2500000000001,97.75C995.6666666666667,97.43406593406594,998.0833333333333,97.11813186813187,1000.4999999999999,96.80219780219781C1002.9166666666665,96.48626373626374,1005.3333333333333,96.17032967032966,1007.7499999999999,95.85439560439559C1010.1666666666665,95.53846153846152,1012.5833333333333,95.22252747252746,1014.9999999999999,94.9065934065934C1017.4166666666665,94.59065934065934,1019.8333333333333,94.27472527472527,1022.2499999999999,93.95879120879121C1024.6666666666665,93.64285714285714,1027.0833333333333,93.32692307692308,1029.5,93.01098901098901C1031.9166666666667,92.69505494505495,1034.3333333333333,92.37912087912088,1036.75,92.06318681318682C1039.1666666666667,91.74725274725276,1041.5833333333333,91.43131868131867,1044,91.11538461538461C1046.4166666666667,90.79945054945055,1048.8333333333333,90.48351648351648,1051.25,90.16758241758242C1053.6666666666667,89.85164835164836,1056.0833333333333,89.53571428571429,1058.5,89.21978021978022C1060.9166666666667,88.90384615384615,1063.3333333333333,88.58791208791207,1065.75,88.27197802197801C1068.1666666666667,87.95604395604396,1070.5833333333333,87.64010989010988,1073,87.32417582417582C1075.4166666666667,87.00824175824177,1077.8333333333333,86.69230769230768,1080.25,86.37637362637362C1082.6666666666667,86.06043956043956,1085.0833333333333,85.74450549450549,1087.5,85.42857142857143C1089.9166666666667,85.11263736263737,1092.3333333333333,84.7967032967033,1094.75,84.48076923076924C1097.1666666666667,84.16483516483518,1099.5833333333333,83.84890109890111,1102,83.53296703296704C1104.4166666666667,83.21703296703296,1106.8333333333333,82.9010989010989,1109.25,82.58516483516483C1111.6666666666667,82.26923076923076,1114.0833333333333,81.95329670329669,1116.5,81.63736263736263C1118.9166666666667,81.32142857142857,1121.3333333333333,81.0054945054945,1123.75,80.68956043956044C1126.1666666666667,80.37362637362638,1128.5833333333333,80.05769230769229,1131,79.74175824175823C1133.4166666666667,79.42582417582418,1135.8333333333333,79.1098901098901,1138.25,78.79395604395604C1140.6666666666667,78.47802197802199,1143.0833333333333,78.16208791208791,1145.5,77.84615384615385C1147.9166666666667,77.5302197802198,1150.3333333333333,77.21428571428572,1152.75,76.89835164835165C1155.1666666666667,76.58241758241758,1157.5833333333333,76.2664835164835,1160,75.95054945054945C1162.4166666666667,75.63461538461539,1164.8333333333333,75.31868131868131,1167.25,75.00274725274726C1169.6666666666667,74.6868131868132,1172.0833333333333,74.37087912087912,1174.5,74.05494505494505C1176.9166666666667,73.73901098901098,1179.3333333333333,73.4230769230769,1181.75,73.10714285714285C1184.1666666666667,72.79120879120879,1186.5833333333333,72.47527472527472,1189,72.15934065934066C1191.4166666666667,71.8434065934066,1193.8333333333333,71.52747252747253,1196.25,71.21153846153847C1198.6666666666667,70.89560439560441,1201.0833333333333,70.57967032967034,1203.5,70.26373626373626C1205.9166666666667,69.94780219780219,1208.3333333333333,69.63186813186812,1210.75,69.31593406593406C1213.1666666666667,69,1215.5833333333333,68.68406593406593,1218,68.36813186813187C1220.4166666666667,68.05219780219781,1222.8333333333333,67.73626373626377,1225.25,67.42032967032969C1227.6666666666667,67.10439560439562,1230.0833333333333,66.78846153846153,1232.5,66.47252747252746C1234.9166666666667,66.15659340659339,1237.3333333333333,65.84065934065933,1239.75,65.52472527472527C1242.1666666666667,65.20879120879121,1244.5833333333333,64.89285714285714,1247,64.57692307692308C1249.4166666666667,64.26098901098902,1251.8333333333333,63.94505494505495,1254.25,63.62912087912088C1256.6666666666667,63.31318681318682,1259.0833333333333,62.99725274725275,1261.5,62.681318681318686C1263.9166666666667,62.36538461538462,1266.3333333333333,62.04945054945056,1268.75,61.733516483516496C1271.1666666666667,61.41758241758243,1273.5833333333333,61.10164835164835,1276,60.785714285714285C1278.4166666666667,60.46978021978022,1280.8333333333333,60.15384615384616,1283.25,59.837912087912095C1285.6666666666667,59.52197802197803,1288.0833333333333,59.20604395604395,1290.5,58.89010989010988C1292.9166666666667,58.57417582417582,1295.3333333333333,58.25824175824176,1297.75,57.94230769230769C1300.1666666666667,57.62637362637363,1302.5833333333333,57.31043956043956,1305,56.994505494505496C1307.4166666666667,56.67857142857143,1309.8333333333333,56.36263736263736,1312.25,56.04670329670329C1314.6666666666667,55.730769230769226,1317.0833333333333,55.41483516483516,1319.5,55.098901098901095C1321.9166666666667,54.78296703296703,1324.3333333333333,54.46703296703298,1326.75,54.15109890109891C1329.1666666666667,53.835164835164846,1331.5833333333333,53.519230769230774,1334,53.20329670329671C1336.4166666666667,52.88736263736264,1338.8333333333333,52.57142857142856,1341.25,52.2554945054945C1343.6666666666667,51.93956043956043,1346.0833333333333,51.62362637362637,1348.5,51.30769230769231C1350.9166666666667,50.99175824175824,1353.3333333333333,50.675824175824175,1355.75,50.35989010989011C1358.1666666666667,50.043956043956044,1360.5833333333333,49.72802197802198,1363,49.41208791208791C1365.4166666666667,49.09615384615385,1367.8333333333333,48.78021978021979,1370.25,48.46428571428572C1372.6666666666667,48.14835164835166,1375.0833333333333,47.83241758241758,1377.5,47.51648351648351C1379.9166666666667,47.200549450549445,1382.3333333333333,46.88461538461539,1384.75,46.56868131868132C1387.1666666666667,46.252747252747255,1389.5833333333333,45.93681318681319,1392,45.620879120879124C1394.4166666666667,45.30494505494506,1396.8333333333333,44.989010989010985,1399.25,44.67307692307692C1401.6666666666667,44.357142857142854,1404.0833333333333,44.04120879120879,1406.5,43.72527472527472C1408.9166666666667,43.40934065934066,1411.3333333333333,43.09340659340659,1413.75,42.777472527472526C1416.1666666666667,42.46153846153846,1418.5833333333333,42.14560439560439,1421,41.82967032967032C1423.4166666666667,41.513736263736256,1425.8333333333333,41.19780219780218,1428.25,40.881868131868124C1430.6666666666667,40.565934065934066,1433.0833333333333,40.250000000000014,1435.5,39.93406593406595C1437.9166666666667,39.61813186813188,1440.3333333333333,39.3021978021978,1442.75,38.98626373626374C1445.1666666666667,38.67032967032967,1447.5833333333333,38.354395604395606,1450,38.03846153846155" fill="transparent" stroke-linecap="round" stroke="#E7C6DF" stroke-width="2"></path><g class="visx-group visx-axis visx-axis-bottom" transform="translate(0, 115)"><g class="visx-group visx-axis-tick" transform="translate(0, 0)"><line class="visx-line" x1="0" y1="0" x2="0" y2="8" fill="transparent" shape-rendering="crispEdges" stroke="#000" stroke-width="0" stroke-linecap="square"></line><svg x="0" y="0" font-size="10" style="overflow:visible"><text transform="" x="0" y="18" fill="#000" font-size="10" text-anchor="middle"><tspan x="0" dy="0em">0%</tspan></text></svg></g><g class="visx-group visx-axis-tick" transform="translate(0, 0)"><line class="visx-line" x1="362.5" y1="0" x2="362.5" y2="8" fill="transparent" shape-rendering="crispEdges" stroke="#000" stroke-width="0" stroke-linecap="square"></line><svg x="0" y="0" font-size="10" style="overflow:visible"><text transform="" x="362.5" y="18" fill="#000" font-size="10" text-anchor="middle"><tspan x="362.5" dy="0em">25%</tspan></text></svg></g><g class="visx-group visx-axis-tick" transform="translate(0, 0)"><line class="visx-line" x1="725" y1="0" x2="725" y2="8" fill="transparent" shape-rendering="crispEdges" stroke="#000" stroke-width="0" stroke-linecap="square"></line><svg x="0" y="0" font-size="10" style="overflow:visible"><text transform="" x="725" y="18" fill="#000" font-size="10" text-anchor="middle"><tspan x="725" dy="0em">50%</tspan></text></svg></g><g class="visx-group visx-axis-tick" transform="translate(0, 0)"><line class="visx-line" x1="1087.5" y1="0" x2="1087.5" y2="8" fill="transparent" shape-rendering="crispEdges" stroke="#000" stroke-width="0" stroke-linecap="square"></line><svg x="0" y="0" font-size="10" style="overflow:visible"><text transform="" x="1087.5" y="18" fill="#000" font-size="10" text-anchor="middle"><tspan x="1087.5" dy="0em">75%</tspan></text></svg></g><g class="visx-group visx-axis-tick" transform="translate(0, 0)"><line class="visx-line" x1="1450" y1="0" x2="1450" y2="8" fill="transparent" shape-rendering="crispEdges" stroke="#000" stroke-width="0" stroke-linecap="square"></line><svg x="0" y="0" font-size="10" style="overflow:visible"><text transform="" x="1450" y="18" fill="#000" font-size="10" text-anchor="middle"><tspan x="1450" dy="0em">100%</tspan></text></svg></g><line class="visx-line visx-axis-line" x1="0.5" y1="0" x2="1450.5" y2="0" fill="transparent" shape-rendering="crispEdges" stroke="#222" stroke-width="0"></line></g><g class="visx-group visx-axis visx-axis-left" transform="translate(0, 0)"><g class="visx-group visx-axis-tick" transform="translate(0, 0)"><line class="visx-line" x1="0" y1="115" x2="-8" y2="115" fill="transparent" shape-rendering="crispEdges" stroke="#222" stroke-width="0" stroke-linecap="square"></line><svg x="-30" y="0" font-size="8" style="overflow:visible"><text transform="" x="-8" y="115" fill="#000" font-size="8" text-anchor="start"><tspan x="-8" dy="0em">0%</tspan></text></svg></g><g class="visx-group visx-axis-tick" transform="translate(0, 0)"><line class="visx-line" x1="0" y1="70.76923076923077" x2="-8" y2="70.76923076923077" fill="transparent" shape-rendering="crispEdges" stroke="#222" stroke-width="0" stroke-linecap="square"></line><svg x="-30" y="0" font-size="8" style="overflow:visible"><text transform="" x="-8" y="70.76923076923077" fill="#000" font-size="8" text-anchor="start"><tspan x="-8" dy="0em">50%</tspan></text></svg></g><g class="visx-group visx-axis-tick" transform="translate(0, 0)"><line class="visx-line" x1="0" y1="26.538461538461533" x2="-8" y2="26.538461538461533" fill="transparent" shape-rendering="crispEdges" stroke="#222" stroke-width="0" stroke-linecap="square"></line><svg x="-30" y="0" font-size="8" style="overflow:visible"><text transform="" x="-8" y="26.538461538461533" fill="#000" font-size="8" text-anchor="start"><tspan x="-8" dy="0em">100%</tspan></text></svg></g><line class="visx-line visx-axis-line" x1="0" y1="115.5" x2="0" y2="0.5" fill="transparent" shape-rendering="crispEdges" stroke="#222" stroke-width="0"></line></g><rect class="visx-bar" width="1450" height="115" fill="transparent"></rect><line class="visx-line" x1="942.5" y1="28" x2="942.5" y2="115" fill="transparent" shape-rendering="crispEdges" stroke="#0062D2" stroke-width="1" pointer-events="none" stroke-dasharray="5,2"></line><svg x="0" y="0" font-size="10px" style="overflow:visible"><text transform="" x="942.5" y="20" font-size="10px" fill="#fff" stroke="#fff" stroke-width="0.8em" text-anchor="middle"><tspan x="942.5" dy="0.355em">Optimal 65%</tspan></text></svg><svg x="0" y="0" font-size="10px" style="overflow:visible"><text transform="" x="942.5" y="20" font-size="10px" fill="#62677B" text-anchor="middle"><tspan x="942.5" dy="0.355em">Optimal 65%</tspan></text></svg></g></svg>