<?xml version="1.0"?><svg xmlns="http://www.w3.org/2000/svg" xmlns:xlink= "http://www.w3.org/1999/xlink" style="background: white;" width="1500" height="300"> <g style="color: black; font-size: 13px; font-family: sans-serif; transform: translate(18px, 25px);"><g><circle r="3" cx="-6" cy="-5" style="fill: #1AD4B3" /><text>Borrow APR, variable</text></g><g style="transform: translateX(150px);"><circle r="3" cx="-6" cy="-5" style="fill: #101423" /><text>Borrow APR, stable</text></g></g><g class="visx-group" transform="translate(45, 50)"><g class="visx-group visx-rows" transform="translate(0, 0)"><line class="visx-line" x1="0" y1="155" x2="1425" y2="155" fill="transparent" shape-rendering="crispEdges" stroke="#F2F0F9" stroke-width="1" pointer-events="none"></line><line class="visx-line" x1="0" y1="98.63636363636364" x2="1425" y2="98.63636363636364" fill="transparent" shape-rendering="crispEdges" stroke="#F2F0F9" stroke-width="1" pointer-events="none"></line><line class="visx-line" x1="0" y1="42.272727272727266" x2="1425" y2="42.272727272727266" fill="transparent" shape-rendering="crispEdges" stroke="#F2F0F9" stroke-width="1" pointer-events="none"></line></g><path class="visx-linepath" d="M0,154.9999999985909C2.375,154.76515151432955,4.75,154.53030303006818,7.125,154.29545454545456C9.5,154.06060606084094,11.875,153.8257575757576,14.25,153.5909090909091C16.625,153.3560606060606,19,153.12121212121212,21.375,152.88636363636363C23.75,152.65151515151513,26.125,152.41666666666669,28.5,152.1818181818182C30.875,151.9469696969697,33.25,151.7121212121212,35.625,151.47727272727272C38,151.24242424242425,40.375,151.00757575757575,42.75,150.77272727272728C45.125,150.53787878787878,47.50000000000001,150.3030303030303,49.87500000000001,150.0681818181818C52.25000000000001,149.83333333333334,54.625,149.59848484848484,57,149.36363636363637C59.375,149.12878787878788,61.75,148.89393939393938,64.125,148.6590909090909C66.5,148.42424242424244,68.875,148.18939393939394,71.25,147.95454545454547C73.625,147.719696969697,76,147.4848484848485,78.375,147.25C80.75,147.0151515151515,83.125,146.780303030303,85.5,146.54545454545453C87.875,146.31060606060606,90.25,146.07575757575756,92.625,145.8409090909091C95,145.60606060606062,97.37500000000001,145.37121212121215,99.75000000000001,145.13636363636365C102.12500000000001,144.90151515151518,104.5,144.66666666666669,106.875,144.4318181818182C109.25,144.1969696969697,111.625,143.9621212121212,114,143.72727272727272C116.375,143.49242424242422,118.75000000000001,143.25757575757578,121.12500000000001,143.02272727272728C123.50000000000001,142.7878787878788,125.875,142.5530303030303,128.25,142.3181818181818C130.625,142.08333333333331,133,141.84848484848482,135.375,141.61363636363635C137.75,141.37878787878788,140.125,141.1342845117845,142.5,140.9090909090909C144.875,140.6838973063973,147.25,140.47801346801347,149.625,140.26247474747476C152,140.04693602693604,154.375,139.8313973063973,156.75,139.61585858585858C159.125,139.40031986531986,161.5,139.18478114478114,163.875,138.96924242424242C166.25,138.7537037037037,168.625,138.538164983165,171,138.32262626262627C173.375,138.10708754208756,175.75,137.8915488215488,178.125,137.6760101010101C180.5,137.46047138047138,182.875,137.24493265993266,185.25,137.02939393939394C187.625,136.81385521885522,190,136.59831649831648,192.375,136.38277777777776C194.75,136.16723905723904,197.12500000000003,135.95170033670033,199.50000000000003,135.7361616161616C201.875,135.5206228956229,204.25,135.30508417508418,206.62499999999997,135.08954545454546C208.99999999999997,134.87400673400674,211.375,134.658468013468,213.75,134.44292929292928C216.125,134.22739057239056,218.5,134.01185185185184,220.875,133.79631313131313C223.25,133.5807744107744,225.625,133.3652356902357,228,133.14969696969698C230.375,132.93415824915826,232.75,132.71861952861954,235.125,132.50308080808082C237.5,132.2875420875421,239.87500000000003,132.07200336700336,242.25000000000003,131.85646464646464C244.625,131.64092592592593,247,131.4253872053872,249.37499999999997,131.2098484848485C251.74999999999997,130.99430976430978,254.125,130.77877104377103,256.5,130.5632323232323C258.875,130.3476936026936,261.25,130.13215488215488,263.625,129.91661616161616C266,129.70107744107744,268.375,129.4855387205387,270.75,129.26999999999998C273.125,129.05446127946126,275.5,128.83892255892255,277.875,128.62338383838383C280.25,128.4078451178451,282.625,128.1923063973064,285,127.97676767676768C287.375,127.76122895622896,289.75,127.54569023569023,292.125,127.33015151515151C294.5,127.1146127946128,296.875,126.89907407407408,299.25,126.68353535353536C301.625,126.46799663299664,304,126.25245791245791,306.375,126.0369191919192C308.75,125.82138047138048,311.125,125.60584175084175,313.5,125.39030303030303C315.875,125.17476430976431,318.25,124.9592255892256,320.625,124.74368686868688C323,124.52814814814816,325.375,124.31260942760942,327.75,124.0970707070707C330.125,123.88153198653198,332.5,123.66599326599328,334.875,123.45045454545456C337.25,123.23491582491584,339.625,123.0193771043771,342,122.80383838383838C344.375,122.58829966329967,346.75,122.37276094276093,349.125,122.15722222222222C351.5,121.9416835016835,353.875,121.72614478114478,356.25,121.51060606060607C358.625,121.29506734006735,361,121.07952861952862,363.375,120.8639898989899C365.75,120.64845117845118,368.125,120.43291245791245,370.5,120.21737373737373C372.875,120.00183501683502,375.25,119.78629629629629,377.625,119.57075757575757C380,119.35521885521885,382.375,119.13968013468013,384.75,118.92414141414142C387.125,118.7086026936027,389.50000000000006,118.49306397306395,391.87500000000006,118.27752525252524C394.25000000000006,118.06198653198652,396.62500000000006,117.84644781144782,399.00000000000006,117.6309090909091C401.375,117.41537037037038,403.75,117.19983164983164,406.12499999999994,116.98429292929292C408.49999999999994,116.7687542087542,410.87499999999994,116.55321548821549,413.24999999999994,116.33767676767677C415.62499999999994,116.12213804713805,418,115.90659932659932,420.375,115.6910606060606C422.75,115.47552188552189,425.125,115.25998316498317,427.5,115.04444444444445C429.875,114.82890572390573,432.25,114.61336700336702,434.625,114.39782828282829C437,114.18228956228955,439.375,113.96675084175082,441.75,113.7512121212121C444.125,113.53567340067339,446.5,113.32013468013469,448.875,113.10459595959597C451.25,112.88905723905725,453.625,112.6735185185185,456,112.45797979797979C458.375,112.24244107744107,460.75,112.02690235690237,463.125,111.81136363636365C465.5,111.59582491582493,467.875,111.38028619528619,470.25,111.16474747474747C472.625,110.94920875420875,475.00000000000006,110.73367003367004,477.37500000000006,110.51813131313132C479.75000000000006,110.3025925925926,482.12500000000006,110.08705387205387,484.50000000000006,109.87151515151515C486.875,109.65597643097644,489.25,109.4404377104377,491.62499999999994,109.22489898989899C493.99999999999994,109.00936026936027,496.37499999999994,108.79382154882154,498.74999999999994,108.57828282828282C501.12499999999994,108.3627441077441,503.5,108.14720538720539,505.875,107.93166666666667C508.25,107.71612794612795,510.625,107.50058922558922,513,107.2850505050505C515.375,107.06951178451179,517.75,106.85397306397306,520.125,106.63843434343434C522.5,106.42289562289562,524.875,106.2073569023569,527.25,105.99181818181819C529.625,105.77627946127947,532,105.56074074074073,534.375,105.34520202020201C536.75,105.12966329966329,539.125,104.91412457912458,541.5,104.69858585858586C543.875,104.48304713804714,546.25,104.26750841750841,548.625,104.05196969696969C551,103.83643097643098,553.375,103.62089225589226,555.75,103.40535353535354C558.125,103.18981481481482,560.5,102.97427609427609,562.875,102.75873737373738C565.25,102.54319865319866,567.625,102.32765993265993,570,102.11212121212121C572.375,101.89658249158249,574.75,101.68104377104378,577.125,101.46550505050506C579.5,101.24996632996634,581.875,101.0344276094276,584.25,100.81888888888888C586.625,100.60335016835016,589,100.38781144781146,591.375,100.17227272727274C593.75,99.95673400673402,596.125,99.74119528619528,598.5,99.52565656565656C600.875,99.31011784511784,603.25,99.09457912457913,605.625,98.87904040404041C608,98.66350168350169,610.375,98.44796296296296,612.75,98.23242424242424C615.125,98.01688552188553,617.5,97.80134680134681,619.875,97.58580808080809C622.25,97.37026936026938,624.625,97.15473063973064,627,96.93919191919193C629.375,96.72365319865321,631.75,96.50811447811448,634.125,96.29257575757576C636.5,96.07703703703704,638.875,95.86149831649831,641.25,95.6459595959596C643.625,95.43042087542088,646,95.21488215488216,648.375,94.99934343434344C650.75,94.78380471380473,653.125,94.56826599326598,655.5,94.35272727272726C657.875,94.13718855218855,660.25,93.92164983164982,662.625,93.7061111111111C665,93.49057239057238,667.375,93.27503367003366,669.75,93.05949494949495C672.125,92.84395622895623,674.5,92.6284175084175,676.875,92.41287878787878C679.25,92.19734006734006,681.625,91.98180134680135,684,91.76626262626263C686.375,91.55072390572391,688.75,91.33518518518518,691.125,91.11964646464646C693.5,90.90410774410775,695.875,90.68856902356902,698.25,90.4730303030303C700.625,90.25749158249158,703,90.04195286195286,705.375,89.82641414141415C707.75,89.61087542087543,710.125,89.39533670033668,712.5,89.17979797979797C714.875,88.96425925925925,717.25,88.74872053872055,719.625,88.53318181818183C722,88.31764309764311,724.375,88.10210437710437,726.75,87.88656565656565C729.125,87.67102693602693,731.5,87.45548821548823,733.875,87.23994949494951C736.25,87.0244107744108,738.625,86.80887205387207,741,86.59333333333333C743.375,86.3777946127946,745.75,86.16225589225587,748.125,85.94671717171715C750.5,85.73117845117844,752.875,85.51563973063973,755.25,85.30010101010102C757.625,85.0845622895623,760,84.86902356902355,762.375,84.65348484848484C764.75,84.43794612794612,767.125,84.2224074074074,769.5,84.00686868686869C771.875,83.79132996632997,774.2500000000001,83.57579124579124,776.6250000000001,83.36025252525252C779.0000000000001,83.1447138047138,781.3750000000001,82.92917508417509,783.7500000000001,82.71363636363637C786.1250000000001,82.49809764309765,788.5000000000001,82.2825589225589,790.8750000000001,82.06702020202019C793.2500000000001,81.85148148148147,795.6250000000001,81.63594276094275,798.0000000000001,81.42040404040404C800.375,81.20486531986532,802.75,80.98932659932659,805.1249999999999,80.77378787878787C807.4999999999999,80.55824915824915,809.8749999999999,80.34271043771045,812.2499999999999,80.12717171717173C814.6249999999999,79.91163299663302,816.9999999999999,79.69609427609427,819.3749999999999,79.48055555555555C821.7499999999999,79.26501683501684,824.1249999999999,79.0494781144781,826.4999999999999,78.83393939393939C828.8749999999999,78.61840067340067,831.25,78.40286195286195,833.625,78.18732323232324C836,77.97178451178452,838.375,77.75624579124577,840.75,77.54070707070706C843.125,77.32516835016834,845.5,77.10962962962962,847.875,76.8940909090909C850.25,76.67855218855219,852.625,76.46301346801346,855,76.24747474747474C857.375,76.03193602693602,859.75,75.81639730639732,862.125,75.6008585858586C864.5,75.38531986531989,866.875,75.16978114478115,869.25,74.95424242424244C871.625,74.73870370370372,874,74.52316498316497,876.375,74.30762626262626C878.75,74.09208754208754,881.125,73.87654882154882,883.5,73.6610101010101C885.875,73.44547138047139,888.25,73.22993265993266,890.625,73.01439393939394C893,72.79885521885522,895.375,72.58331649831649,897.75,72.36777777777777C900.125,72.15223905723906,902.5,71.93670033670034,904.875,71.72116161616162C907.25,71.5056228956229,909.625,71.29008417508416,912,71.07454545454544C914.375,70.85900673400673,916.75,70.64346801346802,919.125,70.4279292929293C921.5,70.21239057239059,923.875,69.99685185185186,926.25,69.78131313131313C928.625,69.5657744107744,931,69.35023569023568,933.375,69.13469696969696C935.75,68.91915824915824,938.125,68.70361952861953,940.5,68.48808080808081C942.875,68.27254208754209,945.25,68.05700336700336,947.625,67.84146464646464C950,67.62592592592593,952.3750000000001,67.41038720538721,954.7500000000001,67.19484848484849C957.1250000000001,66.97930976430978,959.5000000000001,66.76377104377104,961.8750000000001,66.54823232323233C964.2500000000001,66.33269360269361,966.6250000000001,66.11715488215488,969.0000000000001,65.90161616161616C971.3750000000001,65.68607744107744,973.7500000000001,65.47053872053874,976.1250000000001,65.25500000000001C978.5,65.03946127946129,980.875,64.82392255892255,983.2499999999999,64.60838383838383C985.6249999999999,64.3928451178451,987.9999999999999,64.17730639730638,990.3749999999999,63.96176767676767C992.7499999999999,63.746228956228954,995.1249999999999,63.530690235690244,997.4999999999999,63.31515151515153C999.8749999999999,63.09961279461281,1002.2499999999999,62.88407407407409,1004.6249999999999,62.66853535353537C1006.9999999999999,62.452996632996644,1009.375,62.23745791245791,1011.75,62.02191919191919C1014.125,61.806380471380464,1016.5,61.59084175084175,1018.875,61.37530303030303C1021.25,61.15976430976431,1023.625,60.94422558922559,1026,60.72868686868687C1028.375,60.513148148148154,1030.75,60.29760942760944,1033.125,60.08207070707071C1035.5,59.86653198653199,1037.875,59.65099326599325,1040.25,59.43545454545453C1042.625,59.219915824915816,1045,59.004377104377106,1047.375,58.78883838383839C1049.75,58.57329966329967,1052.125,58.357760942760954,1054.5,58.14222222222223C1056.875,57.926683501683506,1059.25,57.71114478114478,1061.625,57.49560606060606C1064,57.28006734006733,1066.375,57.06452861952861,1068.75,56.84898989898989C1071.125,56.633451178451175,1073.5,56.41791245791245,1075.875,56.20237373737373C1078.25,55.986835016835016,1080.625,55.7712962962963,1083,55.555757575757575C1085.375,55.34021885521885,1087.75,55.12468013468012,1090.125,54.9091414141414C1092.5,54.693602693602685,1094.875,54.478063973063975,1097.25,54.26252525252526C1099.625,54.04698653198654,1102,53.831447811447816,1104.375,53.6159090909091C1106.75,53.40037037037038,1109.125,53.18483164983166,1111.5,52.96929292929293C1113.875,52.75375420875421,1116.25,52.538215488215485,1118.625,52.32267676767676C1121,52.10713804713804,1123.375,51.89159932659932,1125.75,51.6760606060606C1128.125,51.460521885521885,1130.5,51.244983164983154,1132.875,51.02944444444444C1135.25,50.81390572390572,1137.625,50.598367003366995,1140,50.38282828282828C1142.375,50.16728956228956,1144.75,49.95175084175084,1147.125,49.73621212121212C1149.5,49.5206734006734,1151.875,49.30513468013469,1154.25,49.089595959595975C1156.625,48.87405723905726,1159,48.65851851851853,1161.375,48.4429797979798C1163.75,48.22744107744108,1166.125,48.01190235690237,1168.5,47.796363636363644C1170.875,47.58082491582492,1173.25,47.36528619528618,1175.625,47.149747474747464C1178,46.93420875420875,1180.375,46.71867003367004,1182.75,46.50313131313132C1185.125,46.2875925925926,1187.5,46.07205387205387,1189.875,45.85651515151515C1192.25,45.64097643097642,1194.625,45.425437710437706,1197,45.20989898989899C1199.375,44.99436026936027,1201.75,44.77882154882154,1204.125,44.56328282828282C1206.5,44.347744107744106,1208.875,44.13220538720538,1211.25,43.916666666666664C1213.625,43.70112794612795,1216,43.48558922558923,1218.375,43.270050505050506C1220.75,43.05451178451178,1223.125,42.83897306397305,1225.5,42.623434343434326C1227.875,42.4078956228956,1230.25,42.192356902356885,1232.625,41.97681818181817C1235,41.76127946127945,1237.375,41.54574074074074,1239.75,41.33020202020202C1242.125,41.114663299663306,1244.5,40.89912457912459,1246.875,40.683585858585865C1249.25,40.46804713804714,1251.625,40.252508417508416,1254,40.03696969696969C1256.375,39.82143097643097,1258.75,39.60589225589225,1261.125,39.39035353535353C1263.5,39.174814814814816,1265.875,38.959276094276106,1268.25,38.74373737373739C1270.625,38.52819865319867,1273,38.31265993265993,1275.375,38.09712121212121C1277.75,37.881582491582485,1280.125,37.66604377104375,1282.5,37.450505050505036C1284.875,37.23496632996632,1287.25,37.01942760942761,1289.625,36.80388888888889C1292,36.588350168350175,1294.375,36.37281144781145,1296.75,36.15727272727273C1299.125,35.941734006734016,1301.5,35.72619528619529,1303.875,35.510656565656575C1306.25,35.29511784511786,1308.625,35.07957912457913,1311,34.86404040404041C1313.375,34.648501683501685,1315.75,34.432962962962954,1318.125,34.21742424242424C1320.5,34.00188552188552,1322.875,33.78634680134681,1325.25,33.57080808080809C1327.625,33.355269360269375,1330,33.13973063973064,1332.375,32.92419191919191C1334.75,32.70865319865319,1337.125,32.49311447811447,1339.5,32.277575757575754C1341.875,32.06203703703704,1344.25,31.84649831649832,1346.625,31.630959595959595C1349,31.41542087542087,1351.375,31.19988215488214,1353.75,30.98434343434342C1356.125,30.7688047138047,1358.5,30.553265993265992,1360.875,30.337727272727275C1363.25,30.122188552188558,1365.625,29.906649831649837,1368,29.691111111111116C1370.375,29.475572390572395,1372.75,29.260033670033664,1375.125,29.04449494949494C1377.5,28.828956228956216,1379.875,28.613417508417502,1382.25,28.39787878787878C1384.625,28.18234006734006,1387,27.966801346801336,1389.375,27.75126262626262C1391.75,27.535723905723902,1394.125,27.3201851851852,1396.5,27.10464646464648C1398.875,26.889107744107758,1401.25,26.67356902356903,1403.625,26.458030303030302C1406,26.242491582491574,1408.375,26.02695286195284,1410.75,25.811414141414122C1413.125,25.595875420875405,1415.5,25.380336700336716,1417.875,25.164797979798C1420.25,24.949259259259282,1422.625,24.733720538720554,1425,24.518181818181823" fill="transparent" stroke-linecap="round" stroke="#1AD4B3" stroke-width="2"></path><g class="visx-group visx-axis visx-axis-bottom" transform="translate(0, 155)"><g class="visx-group visx-axis-tick" transform="translate(0, 0)"><line class="visx-line" x1="0" y1="0" x2="0" y2="8" fill="transparent" shape-rendering="crispEdges" stroke="#F2F0F9" stroke-width="1" stroke-linecap="square"></line><svg x="0" y="0" font-size="11" style="overflow:visible"><text transform="" x="0" y="19" fill="#1B2030" font-size="11" text-anchor="middle"><tspan x="0" dy="0em">0%</tspan></text></svg></g><g class="visx-group visx-axis-tick" transform="translate(0, 0)"><line class="visx-line" x1="356.25" y1="0" x2="356.25" y2="8" fill="transparent" shape-rendering="crispEdges" stroke="#F2F0F9" stroke-width="1" stroke-linecap="square"></line><svg x="0" y="0" font-size="11" style="overflow:visible"><text transform="" x="356.25" y="19" fill="#1B2030" font-size="11" text-anchor="middle"><tspan x="356.25" dy="0em">25%</tspan></text></svg></g><g class="visx-group visx-axis-tick" transform="translate(0, 0)"><line class="visx-line" x1="712.5" y1="0" x2="712.5" y2="8" fill="transparent" shape-rendering="crispEdges" stroke="#F2F0F9" stroke-width="1" stroke-linecap="square"></line><svg x="0" y="0" font-size="11" style="overflow:visible"><text transform="" x="712.5" y="19" fill="#1B2030" font-size="11" text-anchor="middle"><tspan x="712.5" dy="0em">50%</tspan></text></svg></g><g class="visx-group visx-axis-tick" transform="translate(0, 0)"><line class="visx-line" x1="1068.75" y1="0" x2="1068.75" y2="8" fill="transparent" shape-rendering="crispEdges" stroke="#F2F0F9" stroke-width="1" stroke-linecap="square"></line><svg x="0" y="0" font-size="11" style="overflow:visible"><text transform="" x="1068.75" y="19" fill="#1B2030" font-size="11" text-anchor="middle"><tspan x="1068.75" dy="0em">75%</tspan></text></svg></g><g class="visx-group visx-axis-tick" transform="translate(0, 0)"><line class="visx-line" x1="1425" y1="0" x2="1425" y2="8" fill="transparent" shape-rendering="crispEdges" stroke="#F2F0F9" stroke-width="1" stroke-linecap="square"></line><svg x="0" y="0" font-size="11" style="overflow:visible"><text transform="" x="1425" y="19" fill="#1B2030" font-size="11" text-anchor="middle"><tspan x="1425" dy="0em">100%</tspan></text></svg></g></g><g class="visx-group visx-axis visx-axis-left" transform="translate(0, 0)"><g class="visx-group visx-axis-tick" transform="translate(0, 0)"><line class="visx-line" x1="0" y1="155" x2="-8" y2="155" fill="transparent" shape-rendering="crispEdges" stroke="#F2F0F9" stroke-width="1" stroke-linecap="square"></line><svg x="-30" y="0" font-size="11" style="overflow:visible"><text transform="" x="-8" y="155" fill="#1B2030" font-size="11" text-anchor="start"><tspan x="-8" dy="0em">0%</tspan></text></svg></g><g class="visx-group visx-axis-tick" transform="translate(0, 0)"><line class="visx-line" x1="0" y1="98.63636363636364" x2="-8" y2="98.63636363636364" fill="transparent" shape-rendering="crispEdges" stroke="#F2F0F9" stroke-width="1" stroke-linecap="square"></line><svg x="-30" y="0" font-size="11" style="overflow:visible"><text transform="" x="-8" y="98.63636363636364" fill="#1B2030" font-size="11" text-anchor="start"><tspan x="-8" dy="0em">200%</tspan></text></svg></g><g class="visx-group visx-axis-tick" transform="translate(0, 0)"><line class="visx-line" x1="0" y1="42.272727272727266" x2="-8" y2="42.272727272727266" fill="transparent" shape-rendering="crispEdges" stroke="#F2F0F9" stroke-width="1" stroke-linecap="square"></line><svg x="-30" y="0" font-size="11" style="overflow:visible"><text transform="" x="-8" y="42.272727272727266" fill="#1B2030" font-size="11" text-anchor="start"><tspan x="-8" dy="0em">400%</tspan></text></svg></g><line class="visx-line visx-axis-line" x1="0" y1="155.5" x2="0" y2="0.5" fill="transparent" shape-rendering="crispEdges" stroke="#F2F0F9" stroke-width="1"></line></g><rect class="visx-bar" width="1425" height="155" fill="transparent"></rect><line class="visx-line" x1="142.5" y1="58" x2="142.5" y2="155" fill="transparent" shape-rendering="crispEdges" stroke="#CDC8E1" stroke-width="1" pointer-events="none" stroke-dasharray="5"></line><svg x="0" y="0" font-size="11px" style="overflow:visible"><text transform="" x="142.5" y="50" font-size="11px" fill="#555069" stroke="#FFFFFF" stroke-width="1px" text-anchor="middle"><tspan x="142.5" dy="0.355em">uOptimal 10%</tspan></text></svg><svg x="0" y="0" font-size="11px" style="overflow:visible"><text transform="" x="142.5" y="50" font-size="11px" fill="#CDC8E1" text-anchor="middle"><tspan x="142.5" dy="0.355em">uOptimal 10%</tspan></text></svg></g></svg>