<?xml version="1.0"?><svg xmlns="http://www.w3.org/2000/svg" xmlns:xlink= "http://www.w3.org/1999/xlink" style="background: white;" width="1500" height="300"> <g style="color: black; font-size: 13px; font-family: sans-serif; transform: translate(18px, 25px);"><g><circle r="3" cx="-6" cy="-5" style="fill: #1AD4B3" /><text>Borrow APR, variable</text></g><g style="transform: translateX(150px);"><circle r="3" cx="-6" cy="-5" style="fill: #101423" /><text>Borrow APR, stable</text></g></g><g class="visx-group" transform="translate(45, 50)"><g class="visx-group visx-rows" transform="translate(0, 0)"><line class="visx-line" x1="0" y1="155" x2="1425" y2="155" fill="transparent" shape-rendering="crispEdges" stroke="#F2F0F9" stroke-width="1" pointer-events="none"></line><line class="visx-line" x1="0" y1="106.5625" x2="1425" y2="106.5625" fill="transparent" shape-rendering="crispEdges" stroke="#F2F0F9" stroke-width="1" pointer-events="none"></line><line class="visx-line" x1="0" y1="58.125" x2="1425" y2="58.125" fill="transparent" shape-rendering="crispEdges" stroke="#F2F0F9" stroke-width="1" pointer-events="none"></line><line class="visx-line" x1="0" y1="9.6875" x2="1425" y2="9.6875" fill="transparent" shape-rendering="crispEdges" stroke="#F2F0F9" stroke-width="1" pointer-events="none"></line></g><path class="visx-linepath" d="M0,154.99999999985673C2.375,154.97612235907135,4.75,154.95224471828598,7.125,154.9283670774648C9.5,154.90448943664362,11.875,154.88061179577466,14.25,154.85673415492957C16.625,154.83285651408448,19,154.80897887323943,21.375,154.78510123239437C23.75,154.7612235915493,26.125,154.73734595070425,28.5,154.71346830985917C30.875,154.68959066901408,33.25,154.66571302816902,35.625,154.64183538732394C38,154.61795774647885,40.375,154.5940801056338,42.75,154.57020246478874C45.125,154.54632482394368,47.50000000000001,154.52244718309862,49.87500000000001,154.49856954225353C52.25000000000001,154.47469190140848,54.625,154.45081426056336,57,154.4269366197183C59.375,154.40305897887322,61.75,154.37918133802816,64.125,154.3553036971831C66.5,154.33142605633805,68.875,154.307548415493,71.25,154.2836707746479C73.625,154.25979313380282,76,154.23591549295776,78.375,154.21203785211267C80.75,154.1881602112676,83.125,154.16428257042253,85.5,154.14040492957747C87.875,154.1165272887324,90.25,154.0926496478873,92.625,154.06877200704224C95,154.04489436619716,97.37500000000001,154.0210167253521,99.75000000000001,153.99713908450704C102.12500000000001,153.97326144366198,104.5,153.9493838028169,106.875,153.92550616197184C109.25,153.90162852112675,111.625,153.87775088028167,114,153.8538732394366C116.375,153.82999559859152,118.75000000000001,153.80611795774647,121.12500000000001,153.7822403169014C123.50000000000001,153.75836267605635,125.875,153.73448503521126,128.25,153.7106073943662C130.625,153.68672975352112,133,153.66285211267603,135.375,153.63897447183098C137.75,153.61509683098592,140.125,153.59121919014083,142.5,153.56734154929578C144.875,153.54346390845072,147.25,153.51958626760563,149.625,153.49570862676057C152,153.47183098591552,154.375,153.4479533450704,156.75,153.42407570422534C159.125,153.4001980633803,161.5,153.3763204225352,163.875,153.35244278169014C166.25,153.3285651408451,168.625,153.3046875,171,153.28080985915494C173.375,153.25693221830988,175.75,153.23305457746477,178.125,153.2091769366197C180.5,153.18529929577466,182.875,153.16142165492957,185.25,153.1375440140845C187.625,153.11366637323945,190,153.08978873239437,192.375,153.0659110915493C194.75,153.04203345070422,197.12500000000003,153.01815580985917,199.50000000000003,152.99427816901408C201.875,152.97040052816902,204.25,152.94652288732394,206.62499999999997,152.92264524647888C208.99999999999997,152.89876760563382,211.375,152.87488996478876,213.75,152.85101232394368C216.125,152.82713468309862,218.5,152.8032570422535,220.875,152.77937940140845C223.25,152.7555017605634,225.625,152.73162411971833,228,152.70774647887325C230.375,152.68386883802816,232.75,152.65999119718307,235.125,152.63611355633802C237.5,152.61223591549293,239.87500000000003,152.58835827464787,242.25000000000003,152.56448063380282C244.625,152.54060299295776,247,152.51672535211267,249.37499999999997,152.49284771126761C251.74999999999997,152.46897007042253,254.125,152.44509242957747,256.5,152.42121478873239C258.875,152.39733714788733,261.25,152.37345950704224,263.625,152.34958186619718C266,152.32570422535213,268.375,152.30182658450707,270.75,152.27794894366198C273.125,152.2540713028169,275.5,152.23019366197184,277.875,152.20631602112675C280.25,152.18243838028167,282.625,152.1585607394366,285,152.13468309859155C287.375,152.1108054577465,289.75,152.08692781690144,292.125,152.06305017605635C294.5,152.03917253521126,296.875,152.0152948943662,299.25,151.99141725352112C301.625,151.96753961267603,304,151.94366197183098,306.375,151.91978433098592C308.75,151.89590669014086,311.125,151.8720290492958,313.5,151.84815140845072C315.875,151.82427376760563,318.25,151.80039612676057,320.625,151.7765184859155C323,151.7526408450704,325.375,151.72876320422534,327.75,151.7048855633803C330.125,151.68100792253523,332.5,151.65713028169017,334.875,151.6332526408451C337.25,151.609375,339.625,151.58549735915494,342,151.56161971830986C344.375,151.53774207746477,346.75,151.5138644366197,349.125,151.48998679577466C351.5,151.4661091549296,353.875,151.44223151408454,356.25,151.41835387323945C358.625,151.39447623239437,361,151.3705985915493,363.375,151.34672095070422C365.75,151.32284330985914,368.125,151.29896566901408,370.5,151.27508802816902C372.875,151.25121038732397,375.25,151.2273327464789,377.625,151.20345510563382C380,151.17957746478874,382.375,151.15569982394365,384.75,151.1318221830986C387.125,151.1079445422535,389.50000000000006,151.08406690140848,391.87500000000006,151.0601892605634C394.25000000000006,151.03631161971833,396.62500000000006,151.01243397887325,399.00000000000006,150.98855633802816C401.375,150.9646786971831,403.75,150.94080105633802,406.12499999999994,150.91692341549296C408.49999999999994,150.8930457746479,410.87499999999994,150.86916813380282,413.24999999999994,150.84529049295776C415.62499999999994,150.82141285211267,418,150.79753521126761,420.375,150.77365757042253C422.75,150.74977992957747,425.125,150.72590228873239,427.5,150.70202464788733C429.875,150.67814700704227,432.25,150.65426936619718,434.625,150.63039172535213C437,150.60651408450707,439.375,150.58263644366195,441.75,150.5587588028169C444.125,150.53488116197184,446.5,150.51100352112675,448.875,150.4871258802817C451.25,150.46324823943664,453.625,150.43937059859155,456,150.4154929577465C458.375,150.39161531690144,460.75,150.36773767605632,463.125,150.34386003521126C465.5,150.3199823943662,467.875,150.29610475352112,470.25,150.27222711267606C472.625,150.248349471831,475.00000000000006,150.22447183098595,477.37500000000006,150.20059419014086C479.75000000000006,150.1767165492958,482.12500000000006,150.15283890845072,484.50000000000006,150.12896126760563C486.875,150.10508362676057,489.25,150.0812059859155,491.62499999999994,150.05732834507043C493.99999999999994,150.03345070422537,496.37499999999994,150.0095730633803,498.74999999999994,149.98569542253523C501.12499999999994,149.96181778169014,503.5,149.9379401408451,505.875,149.9140625C508.25,149.89018485915494,510.625,149.86630721830988,513,149.8424295774648C515.375,149.8185519366197,517.75,149.79467429577466,520.125,149.77079665492957C522.5,149.74691901408448,524.875,149.72304137323943,527.25,149.69916373239437C529.625,149.6752860915493,532,149.65140845070425,534.375,149.62753080985917C536.75,149.60365316901408,539.125,149.57977552816902,541.5,149.55589788732394C543.875,149.53202024647885,546.25,149.5081426056338,548.625,149.48426496478874C551,149.46038732394368,553.375,149.43650968309862,555.75,149.41263204225353C558.125,149.38875440140845,560.5,149.3648767605634,562.875,149.3409991197183C565.25,149.31712147887322,567.625,149.29324383802816,570,149.2693661971831C572.375,149.24548855633805,574.75,149.221610915493,577.125,149.1977332746479C579.5,149.17385563380282,581.875,149.14997799295776,584.25,149.12610035211267C586.625,149.1022227112676,589,149.07834507042253,591.375,149.05446742957747C593.75,149.0305897887324,596.125,149.00671214788736,598.5,148.98283450704227C600.875,148.95895686619718,603.25,148.93507922535213,605.625,148.91120158450704C608,148.88732394366195,610.375,148.8634463028169,612.75,148.83956866197184C615.125,148.81569102112678,617.5,148.79181338028172,619.875,148.76793573943664C622.25,148.74405809859155,624.625,148.7201804577465,627,148.6963028169014C629.375,148.67242517605632,631.75,148.64854753521126,634.125,148.6246698943662C636.5,148.60079225352115,638.875,148.5769146126761,641.25,148.553036971831C643.625,148.52915933098592,646,148.50528169014086,648.375,148.48140404929578C650.75,148.4575264084507,653.125,148.43364876760563,655.5,148.40977112676057C657.875,148.38589348591552,660.25,148.36201584507046,662.625,148.33813820422537C665,148.3142605633803,667.375,148.29038292253523,669.75,148.26650528169014C672.125,148.24262764084506,674.5,148.21875,676.875,148.19487235915494C679.25,148.17099471830988,681.625,148.14711707746477,684,148.1232394366197C686.375,148.09936179577466,688.75,148.07548415492957,691.125,148.0516065140845C693.5,148.02772887323945,695.875,148.00385123239437,698.25,147.9799735915493C700.625,147.95609595070425,703,147.93221830985914,705.375,147.90834066901408C707.75,147.88446302816902,710.125,147.86058538732394,712.5,147.83670774647888C714.875,147.81283010563382,717.25,147.78895246478874,719.625,147.76507482394368C722,147.74119718309862,724.375,147.7173195422535,726.75,147.69344190140845C729.125,147.6695642605634,731.5,147.6456866197183,733.875,147.62180897887325C736.25,147.5979313380282,738.625,147.5740536971831,741,147.55017605633805C743.375,147.526298415493,745.75,147.50242077464787,748.125,147.47854313380282C750.5,147.45466549295776,752.875,147.43078785211267,755.25,147.40691021126761C757.625,147.38303257042256,760,147.35915492957747,762.375,147.3352772887324C764.75,147.31139964788736,767.125,147.28752200704224,769.5,147.26364436619718C771.875,147.2397667253521,774.2500000000001,147.21588908450704,776.6250000000001,147.19201144366198C779.0000000000001,147.16813380281693,781.3750000000001,147.14425616197184,783.7500000000001,147.12037852112678C786.1250000000001,147.09650088028172,788.5000000000001,147.0726232394366,790.8750000000001,147.04874559859155C793.2500000000001,147.0248679577465,795.6250000000001,147.00099031690144,798.0000000000001,146.97711267605635C800.375,146.9532350352113,802.75,146.92935739436618,805.1249999999999,146.90547975352112C807.4999999999999,146.88160211267603,809.8749999999999,146.85772447183098,812.2499999999999,146.83384683098592C814.6249999999999,146.80996919014086,816.9999999999999,146.7860915492958,819.3749999999999,146.76221390845072C821.7499999999999,146.73833626760563,824.1249999999999,146.71445862676055,826.4999999999999,146.6905809859155C828.8749999999999,146.6667033450704,831.25,146.64282570422534,833.625,146.6189480633803C836,146.59507042253523,838.375,146.57119278169017,840.75,146.5473151408451C843.125,146.5234375,845.5,146.49955985915494,847.875,146.47568221830986C850.25,146.45180457746477,852.625,146.4279269366197,855,146.40404929577466C857.375,146.3801716549296,859.75,146.35629401408454,862.125,146.33241637323945C864.5,146.30853873239437,866.875,146.2846610915493,869.25,146.26078345070422C871.625,146.23690580985914,874,146.21302816901408,876.375,146.18915052816902C878.75,146.16527288732397,881.125,146.1413952464789,883.5,146.11751760563382C885.875,146.09363996478874,888.25,146.06976232394368,890.625,146.0458846830986C893,146.0220070422535,895.375,145.99812940140845,897.75,145.9742517605634C900.125,145.95037411971833,902.5,145.92649647887322,904.875,145.90261883802816C907.25,145.8787411971831,909.625,145.85486355633802,912,145.83098591549296C914.375,145.8071082746479,916.75,145.78323063380282,919.125,145.75935299295776C921.5,145.7354753521127,923.875,145.7115977112676,926.25,145.68772007042253C928.625,145.66384242957747,931,145.63996478873239,933.375,145.61608714788733C935.75,145.59220950704227,938.125,145.56833186619718,940.5,145.54445422535213C942.875,145.52057658450707,945.25,145.49669894366195,947.625,145.4728213028169C950,145.4489436619718,952.3750000000001,145.42506602112675,954.7500000000001,145.4011883802817C957.1250000000001,145.37731073943664,959.5000000000001,145.35343309859155,961.8750000000001,145.3295554577465C964.2500000000001,145.30567781690144,966.6250000000001,145.28180017605632,969.0000000000001,145.25792253521126C971.3750000000001,145.2340448943662,973.7500000000001,145.21016725352112,976.1250000000001,145.18628961267606C978.5,145.162411971831,980.875,145.13853433098592,983.2499999999999,145.11465669014086C985.6249999999999,145.09077904929578,987.9999999999999,145.0669014084507,990.3749999999999,145.04302376760563C992.7499999999999,145.01914612676057,995.1249999999999,144.9952684859155,997.4999999999999,144.97139084507043C999.8749999999999,144.94751320422537,1002.2499999999999,144.9236355633803,1004.6249999999999,144.89975792253523C1006.9999999999999,144.87588028169014,1009.375,144.87588028169014,1011.75,144.828125C1014.125,144.78036971830986,1016.5,143.33602729885058,1018.875,142.58997844827587C1021.25,141.84392959770116,1023.625,141.09788074712645,1026,140.35183189655174C1028.375,139.60578304597703,1030.75,138.8597341954023,1033.125,138.1136853448276C1035.5,137.36763649425288,1037.875,136.62158764367817,1040.25,135.87553879310346C1042.625,135.12948994252875,1045,134.383441091954,1047.375,133.6373922413793C1049.75,132.8913433908046,1052.125,132.14529454022988,1054.5,131.39924568965517C1056.875,130.65319683908046,1059.25,129.90714798850576,1061.625,129.16109913793105C1064,128.41505028735634,1066.375,127.66900143678163,1068.75,126.9229525862069C1071.125,126.17690373563218,1073.5,125.43085488505746,1075.875,124.68480603448275C1078.25,123.93875718390804,1080.625,123.19270833333333,1083,122.44665948275862C1085.375,121.70061063218391,1087.75,120.9545617816092,1090.125,120.20851293103449C1092.5,119.46246408045978,1094.875,118.71641522988504,1097.25,117.97036637931033C1099.625,117.22431752873563,1102,116.47826867816092,1104.375,115.7322198275862C1106.75,114.9861709770115,1109.125,114.24012212643677,1111.5,113.49407327586206C1113.875,112.74802442528735,1116.25,112.00197557471265,1118.625,111.25592672413794C1121,110.50987787356323,1123.375,109.76382902298852,1125.75,109.01778017241381C1128.125,108.2717313218391,1130.5,107.52568247126436,1132.875,106.77963362068965C1135.25,106.03358477011494,1137.625,105.28753591954023,1140,104.54148706896552C1142.375,103.79543821839081,1144.75,103.04938936781609,1147.125,102.30334051724138C1149.5,101.55729166666667,1151.875,100.81124281609195,1154.25,100.06519396551724C1156.625,99.31914511494253,1159,98.5730962643678,1161.375,97.8270474137931C1163.75,97.08099856321839,1166.125,96.33494971264368,1168.5,95.58890086206897C1170.875,94.84285201149426,1173.25,94.09680316091955,1175.625,93.35075431034484C1178,92.60470545977013,1180.375,91.85865660919539,1182.75,91.11260775862068C1185.125,90.36655890804597,1187.5,89.62051005747126,1189.875,88.87446120689656C1192.25,88.12841235632185,1194.625,87.38236350574712,1197,86.63631465517241C1199.375,85.8902658045977,1201.75,85.144216954023,1204.125,84.39816810344828C1206.5,83.65211925287358,1208.875,82.90607040229884,1211.25,82.16002155172413C1213.625,81.41397270114942,1216,80.66792385057471,1218.375,79.921875C1220.75,79.17582614942529,1223.125,78.42977729885058,1225.5,77.68372844827587C1227.875,76.93767959770116,1230.25,76.19163074712642,1232.625,75.44558189655172C1235,74.699533045977,1237.375,73.9534841954023,1239.75,73.20743534482759C1242.125,72.46138649425288,1244.5,71.71533764367815,1246.875,70.96928879310344C1249.25,70.22323994252874,1251.625,69.47719109195403,1254,68.73114224137932C1256.375,67.98509339080461,1258.75,67.2390445402299,1261.125,66.49299568965519C1263.5,65.74694683908048,1265.875,65.00089798850574,1268.25,64.25484913793103C1270.625,63.508800287356316,1273,62.76275143678161,1275.375,62.016702586206904C1277.75,61.270653735632195,1280.125,60.52460488505747,1282.5,59.778556034482754C1284.875,59.03250718390804,1287.25,58.286458333333314,1289.625,57.540409482758605C1292,56.794360632183896,1294.375,56.048311781609186,1296.75,55.30226293103448C1299.125,54.55621408045977,1301.5,53.81016522988504,1303.875,53.06411637931033C1306.25,52.31806752873562,1308.625,51.57201867816091,1311,50.8259698275862C1313.375,50.07992097701149,1315.75,49.33387212643678,1318.125,48.58782327586207C1320.5,47.84177442528736,1322.875,47.09572557471263,1325.25,46.34967672413792C1327.625,45.60362787356321,1330,44.85757902298852,1332.375,44.11153017241381C1334.75,43.3654813218391,1337.125,42.61943247126437,1339.5,41.87338362068966C1341.875,41.12733477011495,1344.25,40.38128591954024,1346.625,39.63523706896553C1349,38.88918821839082,1351.375,38.14313936781609,1353.75,37.39709051724138C1356.125,36.65104166666667,1358.5,35.90499281609196,1360.875,35.15894396551725C1363.25,34.41289511494254,1365.625,33.666846264367834,1368,32.92079741379312C1370.375,32.1747485632184,1372.75,31.428699712643688,1375.125,30.68265086206897C1377.5,29.936602011494255,1379.875,29.19055316091954,1382.25,28.444504310344826C1384.625,27.698455459770113,1387,26.952406609195407,1389.375,26.206357758620694C1391.75,25.46030890804598,1394.125,24.714260057471265,1396.5,23.968211206896548C1398.875,23.22216235632183,1401.25,22.47611350574711,1403.625,21.7300646551724C1406,20.984015804597686,1408.375,20.23796695402298,1410.75,19.491918103448267C1413.125,18.745869252873554,1415.5,17.99982040229883,1417.875,17.25377155172412C1420.25,16.50772270114941,1422.625,15.76167385057471,1425,15.015625000000007" fill="transparent" stroke-linecap="round" stroke="#1AD4B3" stroke-width="2"></path><g class="visx-group visx-axis visx-axis-bottom" transform="translate(0, 155)"><g class="visx-group visx-axis-tick" transform="translate(0, 0)"><line class="visx-line" x1="0" y1="0" x2="0" y2="8" fill="transparent" shape-rendering="crispEdges" stroke="#F2F0F9" stroke-width="1" stroke-linecap="square"></line><svg x="0" y="0" font-size="11" style="overflow:visible"><text transform="" x="0" y="19" fill="#1B2030" font-size="11" text-anchor="middle"><tspan x="0" dy="0em">0%</tspan></text></svg></g><g class="visx-group visx-axis-tick" transform="translate(0, 0)"><line class="visx-line" x1="356.25" y1="0" x2="356.25" y2="8" fill="transparent" shape-rendering="crispEdges" stroke="#F2F0F9" stroke-width="1" stroke-linecap="square"></line><svg x="0" y="0" font-size="11" style="overflow:visible"><text transform="" x="356.25" y="19" fill="#1B2030" font-size="11" text-anchor="middle"><tspan x="356.25" dy="0em">25%</tspan></text></svg></g><g class="visx-group visx-axis-tick" transform="translate(0, 0)"><line class="visx-line" x1="712.5" y1="0" x2="712.5" y2="8" fill="transparent" shape-rendering="crispEdges" stroke="#F2F0F9" stroke-width="1" stroke-linecap="square"></line><svg x="0" y="0" font-size="11" style="overflow:visible"><text transform="" x="712.5" y="19" fill="#1B2030" font-size="11" text-anchor="middle"><tspan x="712.5" dy="0em">50%</tspan></text></svg></g><g class="visx-group visx-axis-tick" transform="translate(0, 0)"><line class="visx-line" x1="1068.75" y1="0" x2="1068.75" y2="8" fill="transparent" shape-rendering="crispEdges" stroke="#F2F0F9" stroke-width="1" stroke-linecap="square"></line><svg x="0" y="0" font-size="11" style="overflow:visible"><text transform="" x="1068.75" y="19" fill="#1B2030" font-size="11" text-anchor="middle"><tspan x="1068.75" dy="0em">75%</tspan></text></svg></g><g class="visx-group visx-axis-tick" transform="translate(0, 0)"><line class="visx-line" x1="1425" y1="0" x2="1425" y2="8" fill="transparent" shape-rendering="crispEdges" stroke="#F2F0F9" stroke-width="1" stroke-linecap="square"></line><svg x="0" y="0" font-size="11" style="overflow:visible"><text transform="" x="1425" y="19" fill="#1B2030" font-size="11" text-anchor="middle"><tspan x="1425" dy="0em">100%</tspan></text></svg></g></g><g class="visx-group visx-axis visx-axis-left" transform="translate(0, 0)"><g class="visx-group visx-axis-tick" transform="translate(0, 0)"><line class="visx-line" x1="0" y1="155" x2="-8" y2="155" fill="transparent" shape-rendering="crispEdges" stroke="#F2F0F9" stroke-width="1" stroke-linecap="square"></line><svg x="-30" y="0" font-size="11" style="overflow:visible"><text transform="" x="-8" y="155" fill="#1B2030" font-size="11" text-anchor="start"><tspan x="-8" dy="0em">0%</tspan></text></svg></g><g class="visx-group visx-axis-tick" transform="translate(0, 0)"><line class="visx-line" x1="0" y1="106.5625" x2="-8" y2="106.5625" fill="transparent" shape-rendering="crispEdges" stroke="#F2F0F9" stroke-width="1" stroke-linecap="square"></line><svg x="-30" y="0" font-size="11" style="overflow:visible"><text transform="" x="-8" y="106.5625" fill="#1B2030" font-size="11" text-anchor="start"><tspan x="-8" dy="0em">50%</tspan></text></svg></g><g class="visx-group visx-axis-tick" transform="translate(0, 0)"><line class="visx-line" x1="0" y1="58.125" x2="-8" y2="58.125" fill="transparent" shape-rendering="crispEdges" stroke="#F2F0F9" stroke-width="1" stroke-linecap="square"></line><svg x="-30" y="0" font-size="11" style="overflow:visible"><text transform="" x="-8" y="58.125" fill="#1B2030" font-size="11" text-anchor="start"><tspan x="-8" dy="0em">100%</tspan></text></svg></g><g class="visx-group visx-axis-tick" transform="translate(0, 0)"><line class="visx-line" x1="0" y1="9.6875" x2="-8" y2="9.6875" fill="transparent" shape-rendering="crispEdges" stroke="#F2F0F9" stroke-width="1" stroke-linecap="square"></line><svg x="-30" y="0" font-size="11" style="overflow:visible"><text transform="" x="-8" y="9.6875" fill="#1B2030" font-size="11" text-anchor="start"><tspan x="-8" dy="0em">150%</tspan></text></svg></g><line class="visx-line visx-axis-line" x1="0" y1="155.5" x2="0" y2="0.5" fill="transparent" shape-rendering="crispEdges" stroke="#F2F0F9" stroke-width="1"></line></g><rect class="visx-bar" width="1425" height="155" fill="transparent"></rect><line class="visx-line" x1="1011.75" y1="58" x2="1011.75" y2="155" fill="transparent" shape-rendering="crispEdges" stroke="#CDC8E1" stroke-width="1" pointer-events="none" stroke-dasharray="5"></line><svg x="0" y="0" font-size="11px" style="overflow:visible"><text transform="" x="1011.75" y="50" font-size="11px" fill="#555069" stroke="#FFFFFF" stroke-width="1px" text-anchor="middle"><tspan x="1011.75" dy="0.355em">uOptimal 71%</tspan></text></svg><svg x="0" y="0" font-size="11px" style="overflow:visible"><text transform="" x="1011.75" y="50" font-size="11px" fill="#CDC8E1" text-anchor="middle"><tspan x="1011.75" dy="0.355em">uOptimal 71%</tspan></text></svg></g></svg>