<?xml version="1.0"?><svg xmlns="http://www.w3.org/2000/svg" xmlns:xlink= "http://www.w3.org/1999/xlink" style="background: white;" width="1500" height="185"> <g style="color: black; font-size: 13px; font-family: sans-serif; transform: translate(18px, 25px);"><g><circle r="3" cx="-6" cy="-5" style="fill: #B6509E" /><text>Borrow APR, variable</text></g><g style="transform: translateX(150px);"><circle r="3" cx="-6" cy="-5" style="fill: rgb(231, 198, 223)" /><text>Borrow APR, stable</text></g><g style="transform: translateX(290px);"><circle r="3" cx="-6" cy="-5" style="fill: rgb(0, 98, 210)" /><text>Utilization Rate</text></g></g><g class="visx-group" transform="translate(40, 50)"><g class="visx-group visx-rows" transform="translate(0, 0)"><line class="visx-line" x1="0" y1="115" x2="1450" y2="115" fill="transparent" shape-rendering="crispEdges" stroke="#000" stroke-width="1" stroke-dasharray="3,3" pointer-events="none"></line><line class="visx-line" x1="0" y1="86.25" x2="1450" y2="86.25" fill="transparent" shape-rendering="crispEdges" stroke="#000" stroke-width="1" stroke-dasharray="3,3" pointer-events="none"></line><line class="visx-line" x1="0" y1="57.5" x2="1450" y2="57.5" fill="transparent" shape-rendering="crispEdges" stroke="#000" stroke-width="1" stroke-dasharray="3,3" pointer-events="none"></line><line class="visx-line" x1="0" y1="28.75" x2="1450" y2="28.75" fill="transparent" shape-rendering="crispEdges" stroke="#000" stroke-width="1" stroke-dasharray="3,3" pointer-events="none"></line><line class="visx-line" x1="0" y1="0" x2="1450" y2="0" fill="transparent" shape-rendering="crispEdges" stroke="#000" stroke-width="1" stroke-dasharray="3,3" pointer-events="none"></line></g><path class="visx-linepath" d="M0,109.25C2.4166666666666665,109.25,4.833333333333334,109.25,7.25,109.25C9.666666666666666,109.25,12.083333333333334,109.25,14.5,109.25C16.916666666666668,109.25,19.333333333333332,109.25,21.75,109.25C24.166666666666668,109.25,26.583333333333332,109.25,29,109.25C31.416666666666668,109.25,33.833333333333336,109.25,36.25,109.25C38.666666666666664,109.25,41.083333333333336,109.25,43.5,109.25C45.91666666666667,109.25,48.333333333333336,109.25,50.75000000000001,109.25C53.16666666666667,109.25,55.583333333333336,109.25,58,109.25C60.416666666666664,109.25,62.833333333333336,109.25,65.25,109.25C67.66666666666667,109.25,70.08333333333333,109.25,72.5,109.25C74.91666666666667,109.25,77.33333333333333,109.25,79.75,109.25C82.16666666666667,109.25,84.58333333333333,109.25,87,109.25C89.41666666666667,109.25,91.83333333333333,109.25,94.25,109.25C96.66666666666667,109.25,99.08333333333334,109.25,101.50000000000001,109.25C103.91666666666667,109.25,106.33333333333334,109.25,108.75,109.25C111.16666666666667,109.25,113.58333333333333,109.25,116,109.25C118.41666666666667,109.25,120.83333333333334,109.25,123.25000000000001,109.25C125.66666666666667,109.25,128.08333333333334,109.25,130.5,109.25C132.91666666666666,109.25,135.33333333333334,109.25,137.75,109.25C140.16666666666666,109.25,142.58333333333334,109.25,145,109.25C147.41666666666666,109.25,149.83333333333334,109.25,152.25,109.25C154.66666666666666,109.25,157.08333333333334,109.25,159.5,109.25C161.91666666666666,109.25,164.33333333333334,109.25,166.75,109.25C169.16666666666666,109.25,171.58333333333334,109.25,174,109.25C176.41666666666666,109.25,178.83333333333334,109.25,181.25,109.25C183.66666666666666,109.25,186.08333333333334,109.25,188.5,109.25C190.91666666666666,109.25,193.33333333333334,109.25,195.75,109.25C198.16666666666669,109.25,200.58333333333334,109.25,203.00000000000003,109.25C205.41666666666669,109.25,207.83333333333331,109.25,210.24999999999997,109.25C212.66666666666666,109.25,215.08333333333331,109.25,217.5,109.25C219.91666666666666,109.25,222.33333333333334,109.25,224.75,109.25C227.16666666666666,109.25,229.58333333333334,109.25,232,109.25C234.41666666666666,109.25,236.83333333333334,109.25,239.25,109.25C241.66666666666669,109.25,244.08333333333334,109.25,246.50000000000003,109.25C248.91666666666669,109.25,251.33333333333331,109.25,253.74999999999997,109.25C256.16666666666663,109.25,258.5833333333333,109.25,261,109.25C263.4166666666667,109.25,265.8333333333333,109.25,268.25,109.25C270.6666666666667,109.25,273.0833333333333,109.25,275.5,109.25C277.9166666666667,109.25,280.3333333333333,109.25,282.75,109.25C285.1666666666667,109.25,287.5833333333333,109.25,290,109.25C292.4166666666667,109.25,294.8333333333333,109.25,297.25,109.25C299.6666666666667,109.25,302.0833333333333,109.25,304.5,109.25C306.9166666666667,109.25,309.3333333333333,109.25,311.75,109.25C314.1666666666667,109.25,316.5833333333333,109.25,319,109.25C321.4166666666667,109.25,323.8333333333333,109.25,326.25,109.25C328.6666666666667,109.25,331.0833333333333,109.25,333.5,109.25C335.9166666666667,109.25,338.3333333333333,109.25,340.75,109.25C343.1666666666667,109.25,345.5833333333333,109.25,348,109.25C350.4166666666667,109.25,352.8333333333333,109.25,355.25,109.25C357.6666666666667,109.25,360.0833333333333,109.25,362.5,109.25C364.9166666666667,109.25,367.3333333333333,109.25,369.75,109.25C372.1666666666667,109.25,374.5833333333333,109.25,377,109.25C379.4166666666667,109.25,381.8333333333333,109.25,384.25,109.25C386.6666666666667,109.25,389.0833333333333,109.25,391.5,109.25C393.9166666666667,109.25,396.33333333333337,109.25,398.75000000000006,109.25C401.16666666666674,109.25,403.58333333333337,109.25,406.00000000000006,109.25C408.4166666666667,109.25,410.8333333333333,109.25,413.24999999999994,109.25C415.66666666666663,109.25,418.08333333333326,109.25,420.49999999999994,109.25C422.91666666666663,109.25,425.3333333333333,109.25,427.75,109.25C430.1666666666667,109.25,432.5833333333333,109.25,435,109.25C437.4166666666667,109.25,439.8333333333333,109.25,442.25,109.25C444.6666666666667,109.25,447.0833333333333,109.25,449.5,109.25C451.9166666666667,109.25,454.3333333333333,109.25,456.75,109.25C459.1666666666667,109.25,461.5833333333333,109.25,464,109.25C466.4166666666667,109.25,468.8333333333333,109.25,471.25,109.25C473.6666666666667,109.25,476.0833333333333,109.25,478.5,109.25C480.9166666666667,109.25,483.33333333333337,109.25,485.75000000000006,109.25C488.16666666666674,109.25,490.58333333333337,109.25,493.00000000000006,109.25C495.4166666666667,109.25,497.8333333333333,109.25,500.24999999999994,109.25C502.66666666666663,109.25,505.08333333333326,109.25,507.49999999999994,109.25C509.91666666666663,109.25,512.3333333333333,109.25,514.75,109.25C517.1666666666666,109.25,519.5833333333334,109.25,522,109.25C524.4166666666666,109.25,526.8333333333334,109.25,529.25,109.25C531.6666666666666,109.25,534.0833333333334,109.25,536.5,109.25C538.9166666666666,109.25,541.3333333333334,109.25,543.75,109.25C546.1666666666666,109.25,548.5833333333334,109.25,551,109.25C553.4166666666666,109.25,555.8333333333334,109.25,558.25,109.25C560.6666666666666,109.25,563.0833333333334,109.25,565.5,109.25C567.9166666666666,109.25,570.3333333333334,109.25,572.75,109.25C575.1666666666666,109.25,577.5833333333334,109.25,580,109.25C582.4166666666666,109.25,584.8333333333334,109.25,587.25,109.25C589.6666666666666,109.25,592.0833333333334,109.25,594.5,109.25C596.9166666666666,109.25,599.3333333333334,109.25,601.75,109.25C604.1666666666666,109.25,606.5833333333334,109.25,609,109.25C611.4166666666666,109.25,613.8333333333334,109.25,616.25,109.25C618.6666666666666,109.25,621.0833333333334,109.25,623.5,109.25C625.9166666666666,109.25,628.3333333333334,109.25,630.75,109.25C633.1666666666666,109.25,635.5833333333334,109.25,638,109.25C640.4166666666666,109.25,642.8333333333334,109.25,645.25,109.25C647.6666666666666,109.25,650.0833333333334,109.25,652.5,109.25C654.9166666666666,109.25,657.3333333333334,109.25,659.75,109.25C662.1666666666666,109.25,664.5833333333334,109.25,667,109.25C669.4166666666666,109.25,671.8333333333334,109.25,674.25,109.25C676.6666666666666,109.25,679.0833333333334,109.25,681.5,109.25C683.9166666666666,109.25,686.3333333333334,109.25,688.75,109.25C691.1666666666666,109.25,693.5833333333334,109.25,696,109.25C698.4166666666666,109.25,700.8333333333334,109.25,703.25,109.25C705.6666666666666,109.25,708.0833333333334,109.25,710.5,109.25C712.9166666666666,109.25,715.3333333333334,109.25,717.75,109.25C720.1666666666666,109.25,722.5833333333334,109.25,725,109.25C727.4166666666666,109.25,729.8333333333334,109.25,732.25,109.25C734.6666666666666,109.25,737.0833333333334,109.25,739.5,109.25C741.9166666666666,109.25,744.3333333333334,109.25,746.75,109.25C749.1666666666666,109.25,751.5833333333334,109.25,754,109.25C756.4166666666666,109.25,758.8333333333334,109.25,761.25,109.25C763.6666666666666,109.25,766.0833333333334,109.25,768.5,109.25C770.9166666666666,109.25,773.3333333333334,109.25,775.75,109.25C778.1666666666666,109.25,780.5833333333334,109.25,783,109.25C785.4166666666667,109.25,787.8333333333334,109.25,790.2500000000001,109.25C792.6666666666667,109.25,795.0833333333335,109.25,797.5000000000001,109.25C799.9166666666667,109.25,802.3333333333335,109.25,804.7500000000001,109.25C807.1666666666667,109.25,809.5833333333335,109.25,812.0000000000001,109.25C814.4166666666667,109.25,816.8333333333333,109.25,819.2499999999999,109.25C821.6666666666665,109.25,824.0833333333333,109.25,826.4999999999999,109.25C828.9166666666665,109.25,831.3333333333333,109.25,833.7499999999999,109.25C836.1666666666665,109.25,838.5833333333333,109.25,840.9999999999999,109.25C843.4166666666666,109.25,845.8333333333333,109.25,848.25,109.25C850.6666666666666,109.25,853.0833333333334,109.25,855.5,109.25C857.9166666666666,109.25,860.3333333333334,109.25,862.75,109.25C865.1666666666666,109.25,867.5833333333334,109.25,870,109.25C872.4166666666666,109.25,874.8333333333334,109.25,877.25,109.25C879.6666666666666,109.25,882.0833333333334,109.25,884.5,109.25C886.9166666666666,109.25,889.3333333333334,109.25,891.75,109.25C894.1666666666666,109.25,896.5833333333334,109.25,899,109.25C901.4166666666666,109.25,903.8333333333334,109.25,906.25,109.25C908.6666666666666,109.25,911.0833333333334,109.25,913.5,109.25C915.9166666666666,109.25,918.3333333333334,109.25,920.75,109.25C923.1666666666666,109.25,925.5833333333334,109.25,928,109.25C930.4166666666666,109.25,932.8333333333334,109.25,935.25,109.25C937.6666666666666,109.25,940.0833333333334,109.25,942.5,109.25C944.9166666666666,109.25,947.3333333333334,109.25,949.75,109.25C952.1666666666666,109.25,954.5833333333334,109.25,957,109.25C959.4166666666666,109.25,961.8333333333334,109.25,964.25,109.25C966.6666666666667,109.25,969.0833333333334,109.25,971.5000000000001,109.25C973.9166666666667,109.25,976.3333333333335,109.25,978.7500000000001,109.25C981.1666666666667,109.25,983.5833333333335,109.25,986.0000000000001,109.25C988.4166666666667,109.25,990.8333333333335,109.25,993.2500000000001,109.25C995.6666666666667,109.25,998.0833333333333,109.25,1000.4999999999999,109.25C1002.9166666666665,109.25,1005.3333333333333,109.25,1007.7499999999999,109.25C1010.1666666666665,109.25,1012.5833333333333,109.25,1014.9999999999999,109.25C1017.4166666666665,109.25,1019.8333333333333,109.25,1022.2499999999999,109.25C1024.6666666666665,109.25,1027.0833333333333,109.25,1029.5,109.25C1031.9166666666667,109.25,1034.3333333333333,109.25,1036.75,109.25C1039.1666666666667,109.25,1041.5833333333333,109.25,1044,109.25C1046.4166666666667,109.25,1048.8333333333333,109.25,1051.25,109.25C1053.6666666666667,109.25,1056.0833333333333,109.25,1058.5,109.25C1060.9166666666667,109.25,1063.3333333333333,109.25,1065.75,109.25C1068.1666666666667,109.25,1070.5833333333333,109.25,1073,109.25C1075.4166666666667,109.25,1077.8333333333333,109.25,1080.25,109.25C1082.6666666666667,109.25,1085.0833333333333,109.25,1087.5,109.25C1089.9166666666667,109.25,1092.3333333333333,109.25,1094.75,109.25C1097.1666666666667,109.25,1099.5833333333333,109.25,1102,109.25C1104.4166666666667,109.25,1106.8333333333333,109.25,1109.25,109.25C1111.6666666666667,109.25,1114.0833333333333,109.25,1116.5,109.25C1118.9166666666667,109.25,1121.3333333333333,109.25,1123.75,109.25C1126.1666666666667,109.25,1128.5833333333333,109.25,1131,109.25C1133.4166666666667,109.25,1135.8333333333333,109.25,1138.25,109.25C1140.6666666666667,109.25,1143.0833333333333,109.25,1145.5,109.25C1147.9166666666667,109.25,1150.3333333333333,109.25,1152.75,109.25C1155.1666666666667,109.25,1157.5833333333333,109.25,1160,109.25C1162.4166666666667,109.25,1164.8333333333333,107.8125,1167.25,107.09375C1169.6666666666667,106.375,1172.0833333333333,105.65625,1174.5,104.9375C1176.9166666666667,104.21875,1179.3333333333333,103.5,1181.75,102.78125C1184.1666666666667,102.0625,1186.5833333333333,101.34375,1189,100.625C1191.4166666666667,99.90625,1193.8333333333333,99.1875,1196.25,98.46875C1198.6666666666667,97.75,1201.0833333333333,97.03125,1203.5,96.3125C1205.9166666666667,95.59375,1208.3333333333333,94.875,1210.75,94.15625C1213.1666666666667,93.4375,1215.5833333333333,92.71875,1218,92C1220.4166666666667,91.28125,1222.8333333333333,90.5625,1225.25,89.84375C1227.6666666666667,89.125,1230.0833333333333,88.40625,1232.5,87.6875C1234.9166666666667,86.96875,1237.3333333333333,86.25,1239.75,85.53125C1242.1666666666667,84.8125,1244.5833333333333,84.09375,1247,83.375C1249.4166666666667,82.65625,1251.8333333333333,81.9375,1254.25,81.21875C1256.6666666666667,80.5,1259.0833333333333,79.78125,1261.5,79.0625C1263.9166666666667,78.34375,1266.3333333333333,77.625,1268.75,76.90625C1271.1666666666667,76.1875,1273.5833333333333,75.46875,1276,74.75C1278.4166666666667,74.03125,1280.8333333333333,73.3125,1283.25,72.59375C1285.6666666666667,71.875,1288.0833333333333,71.15625,1290.5,70.4375C1292.9166666666667,69.71875,1295.3333333333333,69,1297.75,68.28125C1300.1666666666667,67.5625,1302.5833333333333,66.84375,1305,66.125C1307.4166666666667,65.40625,1309.8333333333333,64.6875,1312.25,63.96875C1314.6666666666667,63.25,1317.0833333333333,62.53125,1319.5,61.8125C1321.9166666666667,61.09375,1324.3333333333333,60.37500000000001,1326.75,59.65625000000001C1329.1666666666667,58.93750000000001,1331.5833333333333,58.21875,1334,57.5C1336.4166666666667,56.78125,1338.8333333333333,56.06249999999999,1341.25,55.34374999999999C1343.6666666666667,54.62499999999999,1346.0833333333333,53.90625,1348.5,53.1875C1350.9166666666667,52.46875,1353.3333333333333,51.75,1355.75,51.03125C1358.1666666666667,50.3125,1360.5833333333333,49.59375000000001,1363,48.87500000000001C1365.4166666666667,48.15625000000001,1367.8333333333333,47.4375,1370.25,46.71875C1372.6666666666667,46,1375.0833333333333,45.28124999999999,1377.5,44.56249999999999C1379.9166666666667,43.84374999999999,1382.3333333333333,43.125,1384.75,42.40625C1387.1666666666667,41.6875,1389.5833333333333,40.96875,1392,40.25C1394.4166666666667,39.53125,1396.8333333333333,38.81250000000001,1399.25,38.09375000000001C1401.6666666666667,37.37500000000001,1404.0833333333333,36.65625,1406.5,35.9375C1408.9166666666667,35.21875,1411.3333333333333,34.49999999999999,1413.75,33.78124999999999C1416.1666666666667,33.06249999999999,1418.5833333333333,32.34375,1421,31.625000000000004C1423.4166666666667,30.906250000000004,1425.8333333333333,30.187499999999996,1428.25,29.468749999999996C1430.6666666666667,28.749999999999996,1433.0833333333333,28.031250000000004,1435.5,27.312500000000004C1437.9166666666667,26.593750000000004,1440.3333333333333,25.875,1442.75,25.15625C1445.1666666666667,24.4375,1447.5833333333333,23.718749999999996,1450,22.999999999999996" fill="transparent" stroke-linecap="round" stroke="#B6509E" stroke-width="2"></path><path class="visx-linepath" d="M0,112.125C2.4166666666666665,112.125,4.833333333333334,112.125,7.25,112.125C9.666666666666666,112.125,12.083333333333334,112.125,14.5,112.125C16.916666666666668,112.125,19.333333333333332,112.125,21.75,112.125C24.166666666666668,112.125,26.583333333333332,112.125,29,112.125C31.416666666666668,112.125,33.833333333333336,112.125,36.25,112.125C38.666666666666664,112.125,41.083333333333336,112.125,43.5,112.125C45.91666666666667,112.125,48.333333333333336,112.125,50.75000000000001,112.125C53.16666666666667,112.125,55.583333333333336,112.125,58,112.125C60.416666666666664,112.125,62.833333333333336,112.125,65.25,112.125C67.66666666666667,112.125,70.08333333333333,112.125,72.5,112.125C74.91666666666667,112.125,77.33333333333333,112.125,79.75,112.125C82.16666666666667,112.125,84.58333333333333,112.125,87,112.125C89.41666666666667,112.125,91.83333333333333,112.125,94.25,112.125C96.66666666666667,112.125,99.08333333333334,112.125,101.50000000000001,112.125C103.91666666666667,112.125,106.33333333333334,112.125,108.75,112.125C111.16666666666667,112.125,113.58333333333333,112.125,116,112.125C118.41666666666667,112.125,120.83333333333334,112.125,123.25000000000001,112.125C125.66666666666667,112.125,128.08333333333334,112.125,130.5,112.125C132.91666666666666,112.125,135.33333333333334,112.125,137.75,112.125C140.16666666666666,112.125,142.58333333333334,112.125,145,112.125C147.41666666666666,112.125,149.83333333333334,112.125,152.25,112.125C154.66666666666666,112.125,157.08333333333334,112.125,159.5,112.125C161.91666666666666,112.125,164.33333333333334,112.125,166.75,112.125C169.16666666666666,112.125,171.58333333333334,112.125,174,112.125C176.41666666666666,112.125,178.83333333333334,112.125,181.25,112.125C183.66666666666666,112.125,186.08333333333334,112.125,188.5,112.125C190.91666666666666,112.125,193.33333333333334,112.125,195.75,112.125C198.16666666666669,112.125,200.58333333333334,112.125,203.00000000000003,112.125C205.41666666666669,112.125,207.83333333333331,112.125,210.24999999999997,112.125C212.66666666666666,112.125,215.08333333333331,112.125,217.5,112.125C219.91666666666666,112.125,222.33333333333334,112.125,224.75,112.125C227.16666666666666,112.125,229.58333333333334,112.125,232,112.125C234.41666666666666,112.125,236.83333333333334,112.125,239.25,112.125C241.66666666666669,112.125,244.08333333333334,112.125,246.50000000000003,112.125C248.91666666666669,112.125,251.33333333333331,112.125,253.74999999999997,112.125C256.16666666666663,112.125,258.5833333333333,112.125,261,112.125C263.4166666666667,112.125,265.8333333333333,112.125,268.25,112.125C270.6666666666667,112.125,273.0833333333333,112.125,275.5,112.125C277.9166666666667,112.125,280.3333333333333,112.125,282.75,112.125C285.1666666666667,112.125,287.5833333333333,112.125,290,112.125C292.4166666666667,112.125,294.8333333333333,112.125,297.25,112.125C299.6666666666667,112.125,302.0833333333333,112.125,304.5,112.125C306.9166666666667,112.125,309.3333333333333,112.125,311.75,112.125C314.1666666666667,112.125,316.5833333333333,112.125,319,112.125C321.4166666666667,112.125,323.8333333333333,112.125,326.25,112.125C328.6666666666667,112.125,331.0833333333333,112.125,333.5,112.125C335.9166666666667,112.125,338.3333333333333,112.125,340.75,112.125C343.1666666666667,112.125,345.5833333333333,112.125,348,112.125C350.4166666666667,112.125,352.8333333333333,112.125,355.25,112.125C357.6666666666667,112.125,360.0833333333333,112.125,362.5,112.125C364.9166666666667,112.125,367.3333333333333,112.125,369.75,112.125C372.1666666666667,112.125,374.5833333333333,112.125,377,112.125C379.4166666666667,112.125,381.8333333333333,112.125,384.25,112.125C386.6666666666667,112.125,389.0833333333333,112.125,391.5,112.125C393.9166666666667,112.125,396.33333333333337,112.125,398.75000000000006,112.125C401.16666666666674,112.125,403.58333333333337,112.125,406.00000000000006,112.125C408.4166666666667,112.125,410.8333333333333,112.125,413.24999999999994,112.125C415.66666666666663,112.125,418.08333333333326,112.125,420.49999999999994,112.125C422.91666666666663,112.125,425.3333333333333,112.125,427.75,112.125C430.1666666666667,112.125,432.5833333333333,112.125,435,112.125C437.4166666666667,112.125,439.8333333333333,112.125,442.25,112.125C444.6666666666667,112.125,447.0833333333333,112.125,449.5,112.125C451.9166666666667,112.125,454.3333333333333,112.125,456.75,112.125C459.1666666666667,112.125,461.5833333333333,112.125,464,112.125C466.4166666666667,112.125,468.8333333333333,112.125,471.25,112.125C473.6666666666667,112.125,476.0833333333333,112.125,478.5,112.125C480.9166666666667,112.125,483.33333333333337,112.125,485.75000000000006,112.125C488.16666666666674,112.125,490.58333333333337,112.125,493.00000000000006,112.125C495.4166666666667,112.125,497.8333333333333,112.125,500.24999999999994,112.125C502.66666666666663,112.125,505.08333333333326,112.125,507.49999999999994,112.125C509.91666666666663,112.125,512.3333333333333,112.125,514.75,112.125C517.1666666666666,112.125,519.5833333333334,112.125,522,112.125C524.4166666666666,112.125,526.8333333333334,112.125,529.25,112.125C531.6666666666666,112.125,534.0833333333334,112.125,536.5,112.125C538.9166666666666,112.125,541.3333333333334,112.125,543.75,112.125C546.1666666666666,112.125,548.5833333333334,112.125,551,112.125C553.4166666666666,112.125,555.8333333333334,112.125,558.25,112.125C560.6666666666666,112.125,563.0833333333334,112.125,565.5,112.125C567.9166666666666,112.125,570.3333333333334,112.125,572.75,112.125C575.1666666666666,112.125,577.5833333333334,112.125,580,112.125C582.4166666666666,112.125,584.8333333333334,112.125,587.25,112.125C589.6666666666666,112.125,592.0833333333334,112.125,594.5,112.125C596.9166666666666,112.125,599.3333333333334,112.125,601.75,112.125C604.1666666666666,112.125,606.5833333333334,112.125,609,112.125C611.4166666666666,112.125,613.8333333333334,112.125,616.25,112.125C618.6666666666666,112.125,621.0833333333334,112.125,623.5,112.125C625.9166666666666,112.125,628.3333333333334,112.125,630.75,112.125C633.1666666666666,112.125,635.5833333333334,112.125,638,112.125C640.4166666666666,112.125,642.8333333333334,112.125,645.25,112.125C647.6666666666666,112.125,650.0833333333334,112.125,652.5,112.125C654.9166666666666,112.125,657.3333333333334,112.125,659.75,112.125C662.1666666666666,112.125,664.5833333333334,112.125,667,112.125C669.4166666666666,112.125,671.8333333333334,112.125,674.25,112.125C676.6666666666666,112.125,679.0833333333334,112.125,681.5,112.125C683.9166666666666,112.125,686.3333333333334,112.125,688.75,112.125C691.1666666666666,112.125,693.5833333333334,112.125,696,112.125C698.4166666666666,112.125,700.8333333333334,112.125,703.25,112.125C705.6666666666666,112.125,708.0833333333334,112.125,710.5,112.125C712.9166666666666,112.125,715.3333333333334,112.125,717.75,112.125C720.1666666666666,112.125,722.5833333333334,112.125,725,112.125C727.4166666666666,112.125,729.8333333333334,112.125,732.25,112.125C734.6666666666666,112.125,737.0833333333334,112.125,739.5,112.125C741.9166666666666,112.125,744.3333333333334,112.125,746.75,112.125C749.1666666666666,112.125,751.5833333333334,112.125,754,112.125C756.4166666666666,112.125,758.8333333333334,112.125,761.25,112.125C763.6666666666666,112.125,766.0833333333334,112.125,768.5,112.125C770.9166666666666,112.125,773.3333333333334,112.125,775.75,112.125C778.1666666666666,112.125,780.5833333333334,112.125,783,112.125C785.4166666666667,112.125,787.8333333333334,112.125,790.2500000000001,112.125C792.6666666666667,112.125,795.0833333333335,112.125,797.5000000000001,112.125C799.9166666666667,112.125,802.3333333333335,112.125,804.7500000000001,112.125C807.1666666666667,112.125,809.5833333333335,112.125,812.0000000000001,112.125C814.4166666666667,112.125,816.8333333333333,112.125,819.2499999999999,112.125C821.6666666666665,112.125,824.0833333333333,112.125,826.4999999999999,112.125C828.9166666666665,112.125,831.3333333333333,112.125,833.7499999999999,112.125C836.1666666666665,112.125,838.5833333333333,112.125,840.9999999999999,112.125C843.4166666666666,112.125,845.8333333333333,112.125,848.25,112.125C850.6666666666666,112.125,853.0833333333334,112.125,855.5,112.125C857.9166666666666,112.125,860.3333333333334,112.125,862.75,112.125C865.1666666666666,112.125,867.5833333333334,112.125,870,112.125C872.4166666666666,112.125,874.8333333333334,112.125,877.25,112.125C879.6666666666666,112.125,882.0833333333334,112.125,884.5,112.125C886.9166666666666,112.125,889.3333333333334,112.125,891.75,112.125C894.1666666666666,112.125,896.5833333333334,112.125,899,112.125C901.4166666666666,112.125,903.8333333333334,112.125,906.25,112.125C908.6666666666666,112.125,911.0833333333334,112.125,913.5,112.125C915.9166666666666,112.125,918.3333333333334,112.125,920.75,112.125C923.1666666666666,112.125,925.5833333333334,112.125,928,112.125C930.4166666666666,112.125,932.8333333333334,112.125,935.25,112.125C937.6666666666666,112.125,940.0833333333334,112.125,942.5,112.125C944.9166666666666,112.125,947.3333333333334,112.125,949.75,112.125C952.1666666666666,112.125,954.5833333333334,112.125,957,112.125C959.4166666666666,112.125,961.8333333333334,112.125,964.25,112.125C966.6666666666667,112.125,969.0833333333334,112.125,971.5000000000001,112.125C973.9166666666667,112.125,976.3333333333335,112.125,978.7500000000001,112.125C981.1666666666667,112.125,983.5833333333335,112.125,986.0000000000001,112.125C988.4166666666667,112.125,990.8333333333335,112.125,993.2500000000001,112.125C995.6666666666667,112.125,998.0833333333333,112.125,1000.4999999999999,112.125C1002.9166666666665,112.125,1005.3333333333333,112.125,1007.7499999999999,112.125C1010.1666666666665,112.125,1012.5833333333333,112.125,1014.9999999999999,112.125C1017.4166666666665,112.125,1019.8333333333333,112.125,1022.2499999999999,112.125C1024.6666666666665,112.125,1027.0833333333333,112.125,1029.5,112.125C1031.9166666666667,112.125,1034.3333333333333,112.125,1036.75,112.125C1039.1666666666667,112.125,1041.5833333333333,112.125,1044,112.125C1046.4166666666667,112.125,1048.8333333333333,112.125,1051.25,112.125C1053.6666666666667,112.125,1056.0833333333333,112.125,1058.5,112.125C1060.9166666666667,112.125,1063.3333333333333,112.125,1065.75,112.125C1068.1666666666667,112.125,1070.5833333333333,112.125,1073,112.125C1075.4166666666667,112.125,1077.8333333333333,112.125,1080.25,112.125C1082.6666666666667,112.125,1085.0833333333333,112.125,1087.5,112.125C1089.9166666666667,112.125,1092.3333333333333,112.125,1094.75,112.125C1097.1666666666667,112.125,1099.5833333333333,112.125,1102,112.125C1104.4166666666667,112.125,1106.8333333333333,112.125,1109.25,112.125C1111.6666666666667,112.125,1114.0833333333333,112.125,1116.5,112.125C1118.9166666666667,112.125,1121.3333333333333,112.125,1123.75,112.125C1126.1666666666667,112.125,1128.5833333333333,112.125,1131,112.125C1133.4166666666667,112.125,1135.8333333333333,112.125,1138.25,112.125C1140.6666666666667,112.125,1143.0833333333333,112.125,1145.5,112.125C1147.9166666666667,112.125,1150.3333333333333,112.125,1152.75,112.125C1155.1666666666667,112.125,1157.5833333333333,112.125,1160,112.125C1162.4166666666667,112.125,1164.8333333333333,112.125,1167.25,112.125C1169.6666666666667,112.125,1172.0833333333333,112.125,1174.5,112.125C1176.9166666666667,112.125,1179.3333333333333,112.125,1181.75,112.125C1184.1666666666667,112.125,1186.5833333333333,112.125,1189,112.125C1191.4166666666667,112.125,1193.8333333333333,112.125,1196.25,112.125C1198.6666666666667,112.125,1201.0833333333333,112.125,1203.5,112.125C1205.9166666666667,112.125,1208.3333333333333,112.125,1210.75,112.125C1213.1666666666667,112.125,1215.5833333333333,112.125,1218,112.125C1220.4166666666667,112.125,1222.8333333333333,112.125,1225.25,112.125C1227.6666666666667,112.125,1230.0833333333333,112.125,1232.5,112.125C1234.9166666666667,112.125,1237.3333333333333,112.125,1239.75,112.125C1242.1666666666667,112.125,1244.5833333333333,112.125,1247,112.125C1249.4166666666667,112.125,1251.8333333333333,112.125,1254.25,112.125C1256.6666666666667,112.125,1259.0833333333333,112.125,1261.5,112.125C1263.9166666666667,112.125,1266.3333333333333,112.125,1268.75,112.125C1271.1666666666667,112.125,1273.5833333333333,112.125,1276,112.125C1278.4166666666667,112.125,1280.8333333333333,112.125,1283.25,112.125C1285.6666666666667,112.125,1288.0833333333333,112.125,1290.5,112.125C1292.9166666666667,112.125,1295.3333333333333,112.125,1297.75,112.125C1300.1666666666667,112.125,1302.5833333333333,112.125,1305,112.125C1307.4166666666667,112.125,1309.8333333333333,112.125,1312.25,112.125C1314.6666666666667,112.125,1317.0833333333333,112.125,1319.5,112.125C1321.9166666666667,112.125,1324.3333333333333,112.125,1326.75,112.125C1329.1666666666667,112.125,1331.5833333333333,112.125,1334,112.125C1336.4166666666667,112.125,1338.8333333333333,112.125,1341.25,112.125C1343.6666666666667,112.125,1346.0833333333333,112.125,1348.5,112.125C1350.9166666666667,112.125,1353.3333333333333,112.125,1355.75,112.125C1358.1666666666667,112.125,1360.5833333333333,112.125,1363,112.125C1365.4166666666667,112.125,1367.8333333333333,112.125,1370.25,112.125C1372.6666666666667,112.125,1375.0833333333333,112.125,1377.5,112.125C1379.9166666666667,112.125,1382.3333333333333,112.125,1384.75,112.125C1387.1666666666667,112.125,1389.5833333333333,112.125,1392,112.125C1394.4166666666667,112.125,1396.8333333333333,112.125,1399.25,112.125C1401.6666666666667,112.125,1404.0833333333333,112.125,1406.5,112.125C1408.9166666666667,112.125,1411.3333333333333,112.125,1413.75,112.125C1416.1666666666667,112.125,1418.5833333333333,112.125,1421,112.125C1423.4166666666667,112.125,1425.8333333333333,112.125,1428.25,112.125C1430.6666666666667,112.125,1433.0833333333333,112.125,1435.5,112.125C1437.9166666666667,112.125,1440.3333333333333,112.125,1442.75,112.125C1445.1666666666667,112.125,1447.5833333333333,112.125,1450,112.125" fill="transparent" stroke-linecap="round" stroke="#E7C6DF" stroke-width="2"></path><g class="visx-group visx-axis visx-axis-bottom" transform="translate(0, 115)"><g class="visx-group visx-axis-tick" transform="translate(0, 0)"><line class="visx-line" x1="0" y1="0" x2="0" y2="8" fill="transparent" shape-rendering="crispEdges" stroke="#000" stroke-width="0" stroke-linecap="square"></line><svg x="0" y="0" font-size="10" style="overflow:visible"><text transform="" x="0" y="18" fill="#000" font-size="10" text-anchor="middle"><tspan x="0" dy="0em">0%</tspan></text></svg></g><g class="visx-group visx-axis-tick" transform="translate(0, 0)"><line class="visx-line" x1="362.5" y1="0" x2="362.5" y2="8" fill="transparent" shape-rendering="crispEdges" stroke="#000" stroke-width="0" stroke-linecap="square"></line><svg x="0" y="0" font-size="10" style="overflow:visible"><text transform="" x="362.5" y="18" fill="#000" font-size="10" text-anchor="middle"><tspan x="362.5" dy="0em">25%</tspan></text></svg></g><g class="visx-group visx-axis-tick" transform="translate(0, 0)"><line class="visx-line" x1="725" y1="0" x2="725" y2="8" fill="transparent" shape-rendering="crispEdges" stroke="#000" stroke-width="0" stroke-linecap="square"></line><svg x="0" y="0" font-size="10" style="overflow:visible"><text transform="" x="725" y="18" fill="#000" font-size="10" text-anchor="middle"><tspan x="725" dy="0em">50%</tspan></text></svg></g><g class="visx-group visx-axis-tick" transform="translate(0, 0)"><line class="visx-line" x1="1087.5" y1="0" x2="1087.5" y2="8" fill="transparent" shape-rendering="crispEdges" stroke="#000" stroke-width="0" stroke-linecap="square"></line><svg x="0" y="0" font-size="10" style="overflow:visible"><text transform="" x="1087.5" y="18" fill="#000" font-size="10" text-anchor="middle"><tspan x="1087.5" dy="0em">75%</tspan></text></svg></g><g class="visx-group visx-axis-tick" transform="translate(0, 0)"><line class="visx-line" x1="1450" y1="0" x2="1450" y2="8" fill="transparent" shape-rendering="crispEdges" stroke="#000" stroke-width="0" stroke-linecap="square"></line><svg x="0" y="0" font-size="10" style="overflow:visible"><text transform="" x="1450" y="18" fill="#000" font-size="10" text-anchor="middle"><tspan x="1450" dy="0em">100%</tspan></text></svg></g><line class="visx-line visx-axis-line" x1="0.5" y1="0" x2="1450.5" y2="0" fill="transparent" shape-rendering="crispEdges" stroke="#222" stroke-width="0"></line></g><g class="visx-group visx-axis visx-axis-left" transform="translate(0, 0)"><g class="visx-group visx-axis-tick" transform="translate(0, 0)"><line class="visx-line" x1="0" y1="115" x2="-8" y2="115" fill="transparent" shape-rendering="crispEdges" stroke="#222" stroke-width="0" stroke-linecap="square"></line><svg x="-30" y="0" font-size="8" style="overflow:visible"><text transform="" x="-8" y="115" fill="#000" font-size="8" text-anchor="start"><tspan x="-8" dy="0em">0%</tspan></text></svg></g><g class="visx-group visx-axis-tick" transform="translate(0, 0)"><line class="visx-line" x1="0" y1="57.5" x2="-8" y2="57.5" fill="transparent" shape-rendering="crispEdges" stroke="#222" stroke-width="0" stroke-linecap="square"></line><svg x="-30" y="0" font-size="8" style="overflow:visible"><text transform="" x="-8" y="57.5" fill="#000" font-size="8" text-anchor="start"><tspan x="-8" dy="0em">200%</tspan></text></svg></g><g class="visx-group visx-axis-tick" transform="translate(0, 0)"><line class="visx-line" x1="0" y1="0" x2="-8" y2="0" fill="transparent" shape-rendering="crispEdges" stroke="#222" stroke-width="0" stroke-linecap="square"></line><svg x="-30" y="0" font-size="8" style="overflow:visible"><text transform="" x="-8" y="0" fill="#000" font-size="8" text-anchor="start"><tspan x="-8" dy="0em">400%</tspan></text></svg></g><line class="visx-line visx-axis-line" x1="0" y1="115.5" x2="0" y2="0.5" fill="transparent" shape-rendering="crispEdges" stroke="#222" stroke-width="0"></line></g><rect class="visx-bar" width="1450" height="115" fill="transparent"></rect><line class="visx-line" x1="1160" y1="28" x2="1160" y2="115" fill="transparent" shape-rendering="crispEdges" stroke="#0062D2" stroke-width="1" pointer-events="none" stroke-dasharray="5,2"></line><svg x="0" y="0" font-size="10px" style="overflow:visible"><text transform="" x="1160" y="20" font-size="10px" fill="#fff" stroke="#fff" stroke-width="0.8em" text-anchor="middle"><tspan x="1160" dy="0.355em">Optimal 80%</tspan></text></svg><svg x="0" y="0" font-size="10px" style="overflow:visible"><text transform="" x="1160" y="20" font-size="10px" fill="#62677B" text-anchor="middle"><tspan x="1160" dy="0.355em">Optimal 80%</tspan></text></svg></g></svg>