<?xml version="1.0"?><svg xmlns="http://www.w3.org/2000/svg" xmlns:xlink= "http://www.w3.org/1999/xlink" style="background: white;" width="1500" height="300"> <g style="color: black; font-size: 13px; font-family: sans-serif; transform: translate(18px, 25px);"><g><circle r="3" cx="-6" cy="-5" style="fill: #1AD4B3" /><text>Borrow APR, variable</text></g><g style="transform: translateX(150px);"><circle r="3" cx="-6" cy="-5" style="fill: #101423" /><text>Borrow APR, stable</text></g></g><g class="visx-group" transform="translate(45, 50)"><g class="visx-group visx-rows" transform="translate(0, 0)"><line class="visx-line" x1="0" y1="155" x2="1425" y2="155" fill="transparent" shape-rendering="crispEdges" stroke="#F2F0F9" stroke-width="1" pointer-events="none"></line><line class="visx-line" x1="0" y1="111.94444444444444" x2="1425" y2="111.94444444444444" fill="transparent" shape-rendering="crispEdges" stroke="#F2F0F9" stroke-width="1" pointer-events="none"></line><line class="visx-line" x1="0" y1="68.88888888888889" x2="1425" y2="68.88888888888889" fill="transparent" shape-rendering="crispEdges" stroke="#F2F0F9" stroke-width="1" pointer-events="none"></line><line class="visx-line" x1="0" y1="25.83333333333333" x2="1425" y2="25.83333333333333" fill="transparent" shape-rendering="crispEdges" stroke="#F2F0F9" stroke-width="1" pointer-events="none"></line></g><path class="visx-linepath" d="M0,154.99999999980128C2.375,154.9668803417644,4.75,154.93376068372757,7.125,154.90064102564102C9.5,154.86752136755447,11.875,154.8344017094017,14.25,154.80128205128204C16.625,154.76816239316238,19,154.73504273504273,21.375,154.70192307692307C23.75,154.6688034188034,26.125,154.63568376068378,28.5,154.60256410256412C30.875,154.56944444444446,33.25,154.5363247863248,35.625,154.50320512820514C38,154.47008547008548,40.375,154.43696581196582,42.75,154.40384615384616C45.125,154.3707264957265,47.50000000000001,154.33760683760684,49.87500000000001,154.30448717948718C52.25000000000001,154.27136752136752,54.625,154.23824786324786,57,154.2051282051282C59.375,154.17200854700855,61.75,154.13888888888889,64.125,154.10576923076923C66.5,154.07264957264957,68.875,154.0395299145299,71.25,154.00641025641025C73.625,153.9732905982906,76,153.94017094017096,78.375,153.9070512820513C80.75,153.87393162393164,83.125,153.84081196581198,85.5,153.80769230769232C87.875,153.77457264957266,90.25,153.741452991453,92.625,153.70833333333334C95,153.67521367521368,97.37500000000001,153.64209401709402,99.75000000000001,153.60897435897436C102.12500000000001,153.5758547008547,104.5,153.54273504273505,106.875,153.5096153846154C109.25,153.47649572649573,111.625,153.44337606837607,114,153.4102564102564C116.375,153.37713675213675,118.75000000000001,153.3440170940171,121.12500000000001,153.31089743589743C123.50000000000001,153.27777777777777,125.875,153.24465811965814,128.25,153.21153846153848C130.625,153.17841880341882,133,153.14529914529916,135.375,153.1121794871795C137.75,153.07905982905984,140.125,153.04594017094018,142.5,153.01282051282053C144.875,152.97970085470087,147.25,152.9465811965812,149.625,152.91346153846155C152,152.8803418803419,154.375,152.84722222222223,156.75,152.81410256410257C159.125,152.7809829059829,161.5,152.74786324786325,163.875,152.7147435897436C166.25,152.68162393162393,168.625,152.64850427350427,171,152.6153846153846C173.375,152.58226495726495,175.75,152.54914529914532,178.125,152.51602564102566C180.5,152.482905982906,182.875,152.44978632478632,185.25,152.41666666666666C187.625,152.383547008547,190,152.35042735042734,192.375,152.31730769230768C194.75,152.28418803418802,197.12500000000003,152.25106837606836,199.50000000000003,152.2179487179487C201.875,152.18482905982904,204.25,152.15170940170938,206.62499999999997,152.11858974358972C208.99999999999997,152.08547008547006,211.375,152.05235042735043,213.75,152.01923076923077C216.125,151.98611111111111,218.5,151.95299145299145,220.875,151.9198717948718C223.25,151.88675213675214,225.625,151.85363247863248,228,151.82051282051282C230.375,151.78739316239316,232.75,151.7542735042735,235.125,151.72115384615384C237.5,151.68803418803418,239.87500000000003,151.65491452991452,242.25000000000003,151.62179487179486C244.625,151.5886752136752,247,151.55555555555554,249.37499999999997,151.52243589743588C251.74999999999997,151.48931623931622,254.125,151.45619658119656,256.5,151.4230769230769C258.875,151.38995726495725,261.25,151.35683760683762,263.625,151.32371794871796C266,151.2905982905983,268.375,151.25747863247864,270.75,151.22435897435898C273.125,151.19123931623932,275.5,151.15811965811966,277.875,151.125C280.25,151.09188034188034,282.625,151.05876068376068,285,151.02564102564102C287.375,150.99252136752136,289.75,150.9594017094017,292.125,150.92628205128204C294.5,150.89316239316238,296.875,150.86004273504273,299.25,150.82692307692307C301.625,150.7938034188034,304,150.76068376068375,306.375,150.7275641025641C308.75,150.69444444444443,311.125,150.6613247863248,313.5,150.62820512820514C315.875,150.59508547008548,318.25,150.56196581196582,320.625,150.52884615384616C323,150.4957264957265,325.375,150.46260683760684,327.75,150.42948717948718C330.125,150.39636752136752,332.5,150.36324786324786,334.875,150.3301282051282C337.25,150.29700854700855,339.625,150.26388888888889,342,150.23076923076923C344.375,150.19764957264957,346.75,150.1645299145299,349.125,150.13141025641025C351.5,150.0982905982906,353.875,150.06517094017093,356.25,150.03205128205127C358.625,149.9989316239316,361,149.96581196581198,363.375,149.93269230769232C365.75,149.89957264957266,368.125,149.866452991453,370.5,149.83333333333334C372.875,149.80021367521368,375.25,149.76709401709402,377.625,149.73397435897436C380,149.7008547008547,382.375,149.66773504273505,384.75,149.6346153846154C387.125,149.60149572649573,389.50000000000006,149.56837606837607,391.87500000000006,149.5352564102564C394.25000000000006,149.50213675213675,396.62500000000006,149.4690170940171,399.00000000000006,149.43589743589743C401.375,149.40277777777777,403.75,149.3696581196581,406.12499999999994,149.33653846153845C408.49999999999994,149.3034188034188,410.87499999999994,149.27029914529916,413.24999999999994,149.2371794871795C415.62499999999994,149.20405982905984,418,149.17094017094018,420.375,149.13782051282053C422.75,149.10470085470087,425.125,149.0715811965812,427.5,149.03846153846155C429.875,149.0053418803419,432.25,148.97222222222223,434.625,148.93910256410257C437,148.9059829059829,439.375,148.87286324786325,441.75,148.8397435897436C444.125,148.80662393162393,446.5,148.77350427350427,448.875,148.7403846153846C451.25,148.70726495726495,453.625,148.6741452991453,456,148.64102564102564C458.375,148.60790598290598,460.75,148.57478632478634,463.125,148.54166666666669C465.5,148.50854700854703,467.875,148.47542735042737,470.25,148.4423076923077C472.625,148.40918803418805,475.00000000000006,148.3760683760684,477.37500000000006,148.34294871794873C479.75000000000006,148.30982905982907,482.12500000000006,148.2767094017094,484.50000000000006,148.24358974358975C486.875,148.2104700854701,489.25,148.17735042735043,491.62499999999994,148.14423076923077C493.99999999999994,148.11111111111111,496.37499999999994,148.07799145299145,498.74999999999994,148.0448717948718C501.12499999999994,148.01175213675214,503.5,147.97863247863248,505.875,147.94551282051282C508.25,147.91239316239316,510.625,147.8792735042735,513,147.84615384615384C515.375,147.81303418803418,517.75,147.77991452991452,520.125,147.74679487179486C522.5,147.7136752136752,524.875,147.68055555555554,527.25,147.64743589743588C529.625,147.61431623931622,532,147.58119658119656,534.375,147.5480769230769C536.75,147.51495726495725,539.125,147.4818376068376,541.5,147.44871794871793C543.875,147.41559829059827,546.25,147.38247863247864,548.625,147.34935897435898C551,147.31623931623932,553.375,147.28311965811966,555.75,147.25C558.125,147.21688034188034,560.5,147.18376068376068,562.875,147.15064102564102C565.25,147.11752136752136,567.625,147.0844017094017,570,147.05128205128204C572.375,147.01816239316238,574.75,146.98504273504273,577.125,146.95192307692307C579.5,146.9188034188034,581.875,146.88568376068375,584.25,146.8525641025641C586.625,146.81944444444443,589,146.78632478632477,591.375,146.7532051282051C593.75,146.72008547008545,596.125,146.68696581196582,598.5,146.65384615384616C600.875,146.6207264957265,603.25,146.58760683760684,605.625,146.55448717948718C608,146.52136752136752,610.375,146.48824786324786,612.75,146.4551282051282C615.125,146.42200854700855,617.5,146.38888888888889,619.875,146.35576923076923C622.25,146.32264957264957,624.625,146.2895299145299,627,146.25641025641025C629.375,146.2232905982906,631.75,146.19017094017093,634.125,146.15705128205127C636.5,146.1239316239316,638.875,146.09081196581195,641.25,146.0576923076923C643.625,146.02457264957263,646,145.991452991453,648.375,145.95833333333334C650.75,145.92521367521368,653.125,145.89209401709402,655.5,145.85897435897436C657.875,145.8258547008547,660.25,145.79273504273505,662.625,145.7596153846154C665,145.72649572649573,667.375,145.69337606837607,669.75,145.6602564102564C672.125,145.62713675213675,674.5,145.5940170940171,676.875,145.56089743589743C679.25,145.52777777777777,681.625,145.4946581196581,684,145.46153846153845C686.375,145.4284188034188,688.75,145.39529914529913,691.125,145.36217948717947C693.5,145.32905982905982,695.875,145.29594017094018,698.25,145.26282051282053C700.625,145.22970085470087,703,145.1965811965812,705.375,145.16346153846155C707.75,145.1303418803419,710.125,145.09722222222223,712.5,145.06410256410257C714.875,145.0309829059829,717.25,144.99786324786325,719.625,144.9647435897436C722,144.93162393162393,724.375,144.89850427350427,726.75,144.8653846153846C729.125,144.83226495726495,731.5,144.7991452991453,733.875,144.76602564102564C736.25,144.73290598290598,738.625,144.73290598290598,741,144.66666666666666C743.375,144.60042735042734,745.75,143.8653549382716,748.125,143.46469907407408C750.5,143.06404320987656,752.875,142.66338734567898,755.25,142.26273148148147C757.625,141.86207561728395,760,141.4614197530864,762.375,141.06076388888889C764.75,140.66010802469137,767.125,140.25945216049382,769.5,139.8587962962963C771.875,139.45814043209876,774.2500000000001,139.05748456790124,776.6250000000001,138.6568287037037C779.0000000000001,138.25617283950618,781.3750000000001,137.85551697530863,783.7500000000001,137.45486111111111C786.1250000000001,137.0542052469136,788.5000000000001,136.65354938271605,790.8750000000001,136.25289351851853C793.2500000000001,135.85223765432102,795.6250000000001,135.45158179012347,798.0000000000001,135.05092592592592C800.375,134.6502700617284,802.75,134.24961419753086,805.1249999999999,133.84895833333334C807.4999999999999,133.4483024691358,809.8749999999999,133.04764660493828,812.2499999999999,132.64699074074073C814.6249999999999,132.2463348765432,816.9999999999999,131.84567901234567,819.3749999999999,131.44502314814815C821.7499999999999,131.04436728395063,824.1249999999999,130.6437114197531,826.4999999999999,130.24305555555557C828.8749999999999,129.84239969135803,831.25,129.4417438271605,833.625,129.04108796296296C836,128.64043209876544,838.375,128.2397762345679,840.75,127.83912037037037C843.125,127.43846450617283,845.5,127.03780864197532,847.875,126.63715277777779C850.25,126.23649691358025,852.625,125.83584104938271,855,125.43518518518518C857.375,125.03452932098764,859.75,124.63387345679013,862.125,124.2332175925926C864.5,123.83256172839506,866.875,123.43190586419753,869.25,123.03125C871.625,122.63059413580247,874,122.22993827160494,876.375,121.8292824074074C878.75,121.42862654320987,881.125,121.02797067901236,883.5,120.62731481481482C885.875,120.22665895061729,888.25,119.82600308641975,890.625,119.42534722222221C893,119.02469135802468,895.375,118.62403549382717,897.75,118.22337962962963C900.125,117.8227237654321,902.5,117.42206790123457,904.875,117.02141203703704C907.25,116.6207561728395,909.625,116.22010030864197,912,115.81944444444444C914.375,115.41878858024691,916.75,115.0181327160494,919.125,114.61747685185186C921.5,114.21682098765433,923.875,113.81616512345678,926.25,113.41550925925925C928.625,113.01485339506172,931,112.61419753086419,933.375,112.21354166666666C935.75,111.81288580246913,938.125,111.41222993827161,940.5,111.01157407407408C942.875,110.61091820987654,945.25,110.21026234567901,947.625,109.80960648148148C950,109.40895061728395,952.3750000000001,109.00829475308643,954.7500000000001,108.6076388888889C957.1250000000001,108.20698302469137,959.5000000000001,107.80632716049382,961.8750000000001,107.40567129629629C964.2500000000001,107.00501543209876,966.6250000000001,106.60435956790123,969.0000000000001,106.2037037037037C971.3750000000001,105.80304783950616,973.7500000000001,105.40239197530865,976.1250000000001,105.00173611111111C978.5,104.6010802469136,980.875,104.20042438271604,983.2499999999999,103.79976851851852C985.6249999999999,103.39911265432099,987.9999999999999,102.99845679012347,990.3749999999999,102.59780092592594C992.7499999999999,102.1971450617284,995.1249999999999,101.79648919753085,997.4999999999999,101.39583333333331C999.8749999999999,100.99517746913578,1002.2499999999999,100.59452160493825,1004.6249999999999,100.19386574074073C1006.9999999999999,99.7932098765432,1009.375,99.39255401234568,1011.75,98.99189814814815C1014.125,98.59124228395062,1016.5,98.19058641975309,1018.875,97.78993055555556C1021.25,97.38927469135803,1023.625,96.98861882716051,1026,96.58796296296298C1028.375,96.18730709876544,1030.75,95.78665123456793,1033.125,95.3859953703704C1035.5,94.98533950617286,1037.875,94.5846836419753,1040.25,94.18402777777777C1042.625,93.78337191358024,1045,93.38271604938272,1047.375,92.98206018518519C1049.75,92.58140432098766,1052.125,92.18074845679013,1054.5,91.7800925925926C1056.875,91.37943672839506,1059.25,90.97878086419753,1061.625,90.578125C1064,90.17746913580247,1066.375,89.77681327160494,1068.75,89.3761574074074C1071.125,88.97550154320987,1073.5,88.57484567901236,1075.875,88.17418981481482C1078.25,87.77353395061729,1080.625,87.37287808641976,1083,86.97222222222223C1085.375,86.5715663580247,1087.75,86.17091049382717,1090.125,85.77025462962963C1092.5,85.3695987654321,1094.875,84.96894290123458,1097.25,84.56828703703705C1099.625,84.16763117283952,1102,83.76697530864196,1104.375,83.36631944444443C1106.75,82.9656635802469,1109.125,82.56500771604938,1111.5,82.16435185185185C1113.875,81.76369598765432,1116.25,81.3630401234568,1118.625,80.96238425925927C1121,80.56172839506173,1123.375,80.1610725308642,1125.75,79.76041666666667C1128.125,79.35976080246914,1130.5,78.95910493827162,1132.875,78.55844907407409C1135.25,78.15779320987656,1137.625,77.75713734567901,1140,77.35648148148148C1142.375,76.95582561728395,1144.75,76.55516975308642,1147.125,76.15451388888889C1149.5,75.75385802469135,1151.875,75.35320216049384,1154.25,74.9525462962963C1156.625,74.55189043209877,1159,74.15123456790124,1161.375,73.75057870370371C1163.75,73.34992283950618,1166.125,72.94926697530865,1168.5,72.54861111111111C1170.875,72.14795524691358,1173.25,71.74729938271605,1175.625,71.34664351851852C1178,70.94598765432099,1180.375,70.54533179012346,1182.75,70.14467592592592C1185.125,69.74402006172839,1187.5,69.34336419753087,1189.875,68.94270833333334C1192.25,68.54205246913581,1194.625,68.14139660493827,1197,67.74074074074073C1199.375,67.3400848765432,1201.75,66.93942901234568,1204.125,66.53877314814815C1206.5,66.13811728395062,1208.875,65.73746141975307,1211.25,65.33680555555554C1213.625,64.93614969135801,1216,64.5354938271605,1218.375,64.13483796296296C1220.75,63.73418209876543,1223.125,63.3335262345679,1225.5,62.932870370370374C1227.875,62.53221450617285,1230.25,62.131558641975325,1232.625,61.73090277777779C1235,61.33024691358026,1237.375,60.9295910493827,1239.75,60.52893518518517C1242.125,60.12827932098764,1244.5,59.72762345679011,1246.875,59.32696759259259C1249.25,58.92631172839506,1251.625,58.52565586419753,1254,58.125C1256.375,57.72434413580247,1258.75,57.32368827160494,1261.125,56.92303240740741C1263.5,56.52237654320989,1265.875,56.12172067901236,1268.25,55.72106481481483C1270.625,55.3204089506173,1273,54.91975308641974,1275.375,54.51909722222221C1277.75,54.118441358024675,1280.125,53.71778549382715,1282.5,53.317129629629626C1284.875,52.9164737654321,1287.25,52.51581790123457,1289.625,52.11516203703704C1292,51.714506172839506,1294.375,51.31385030864198,1296.75,50.91319444444445C1299.125,50.51253858024692,1301.5,50.11188271604938,1303.875,49.71122685185185C1306.25,49.310570987654316,1308.625,48.9099151234568,1311,48.50925925925927C1313.375,48.108603395061735,1315.75,47.707947530864196,1318.125,47.307291666666664C1320.5,46.90663580246913,1322.875,46.505979938271594,1325.25,46.10532407407406C1327.625,45.70466820987653,1330,45.304012345679006,1332.375,44.903356481481474C1334.75,44.50270061728394,1337.125,44.10204475308641,1339.5,43.701388888888886C1341.875,43.30073302469136,1344.25,42.90007716049385,1346.625,42.49942129629632C1349,42.09876543209879,1351.375,41.69810956790125,1353.75,41.29745370370372C1356.125,40.896797839506185,1358.5,40.496141975308646,1360.875,40.095486111111114C1363.25,39.69483024691358,1365.625,39.294174382716044,1368,38.89351851851851C1370.375,38.49286265432098,1372.75,38.092206790123456,1375.125,37.691550925925924C1377.5,37.29089506172839,1379.875,36.890239197530875,1382.25,36.48958333333334C1384.625,36.08892746913581,1387,35.688271604938286,1389.375,35.287615740740755C1391.75,34.88695987654322,1394.125,34.486304012345684,1396.5,34.08564814814815C1398.875,33.68499228395062,1401.25,33.28433641975308,1403.625,32.88368055555555C1406,32.48302469135802,1408.375,32.08236882716048,1410.75,31.681712962962948C1413.125,31.28105709876542,1415.5,30.88040123456791,1417.875,30.47974537037038C1420.25,30.079089506172853,1422.625,29.678433641975314,1425,29.27777777777778" fill="transparent" stroke-linecap="round" stroke="#1AD4B3" stroke-width="2"></path><g class="visx-group visx-axis visx-axis-bottom" transform="translate(0, 155)"><g class="visx-group visx-axis-tick" transform="translate(0, 0)"><line class="visx-line" x1="0" y1="0" x2="0" y2="8" fill="transparent" shape-rendering="crispEdges" stroke="#F2F0F9" stroke-width="1" stroke-linecap="square"></line><svg x="0" y="0" font-size="11" style="overflow:visible"><text transform="" x="0" y="19" fill="#1B2030" font-size="11" text-anchor="middle"><tspan x="0" dy="0em">0%</tspan></text></svg></g><g class="visx-group visx-axis-tick" transform="translate(0, 0)"><line class="visx-line" x1="356.25" y1="0" x2="356.25" y2="8" fill="transparent" shape-rendering="crispEdges" stroke="#F2F0F9" stroke-width="1" stroke-linecap="square"></line><svg x="0" y="0" font-size="11" style="overflow:visible"><text transform="" x="356.25" y="19" fill="#1B2030" font-size="11" text-anchor="middle"><tspan x="356.25" dy="0em">25%</tspan></text></svg></g><g class="visx-group visx-axis-tick" transform="translate(0, 0)"><line class="visx-line" x1="712.5" y1="0" x2="712.5" y2="8" fill="transparent" shape-rendering="crispEdges" stroke="#F2F0F9" stroke-width="1" stroke-linecap="square"></line><svg x="0" y="0" font-size="11" style="overflow:visible"><text transform="" x="712.5" y="19" fill="#1B2030" font-size="11" text-anchor="middle"><tspan x="712.5" dy="0em">50%</tspan></text></svg></g><g class="visx-group visx-axis-tick" transform="translate(0, 0)"><line class="visx-line" x1="1068.75" y1="0" x2="1068.75" y2="8" fill="transparent" shape-rendering="crispEdges" stroke="#F2F0F9" stroke-width="1" stroke-linecap="square"></line><svg x="0" y="0" font-size="11" style="overflow:visible"><text transform="" x="1068.75" y="19" fill="#1B2030" font-size="11" text-anchor="middle"><tspan x="1068.75" dy="0em">75%</tspan></text></svg></g><g class="visx-group visx-axis-tick" transform="translate(0, 0)"><line class="visx-line" x1="1425" y1="0" x2="1425" y2="8" fill="transparent" shape-rendering="crispEdges" stroke="#F2F0F9" stroke-width="1" stroke-linecap="square"></line><svg x="0" y="0" font-size="11" style="overflow:visible"><text transform="" x="1425" y="19" fill="#1B2030" font-size="11" text-anchor="middle"><tspan x="1425" dy="0em">100%</tspan></text></svg></g></g><g class="visx-group visx-axis visx-axis-left" transform="translate(0, 0)"><g class="visx-group visx-axis-tick" transform="translate(0, 0)"><line class="visx-line" x1="0" y1="155" x2="-8" y2="155" fill="transparent" shape-rendering="crispEdges" stroke="#F2F0F9" stroke-width="1" stroke-linecap="square"></line><svg x="-30" y="0" font-size="11" style="overflow:visible"><text transform="" x="-8" y="155" fill="#1B2030" font-size="11" text-anchor="start"><tspan x="-8" dy="0em">0%</tspan></text></svg></g><g class="visx-group visx-axis-tick" transform="translate(0, 0)"><line class="visx-line" x1="0" y1="111.94444444444444" x2="-8" y2="111.94444444444444" fill="transparent" shape-rendering="crispEdges" stroke="#F2F0F9" stroke-width="1" stroke-linecap="square"></line><svg x="-30" y="0" font-size="11" style="overflow:visible"><text transform="" x="-8" y="111.94444444444444" fill="#1B2030" font-size="11" text-anchor="start"><tspan x="-8" dy="0em">50%</tspan></text></svg></g><g class="visx-group visx-axis-tick" transform="translate(0, 0)"><line class="visx-line" x1="0" y1="68.88888888888889" x2="-8" y2="68.88888888888889" fill="transparent" shape-rendering="crispEdges" stroke="#F2F0F9" stroke-width="1" stroke-linecap="square"></line><svg x="-30" y="0" font-size="11" style="overflow:visible"><text transform="" x="-8" y="68.88888888888889" fill="#1B2030" font-size="11" text-anchor="start"><tspan x="-8" dy="0em">100%</tspan></text></svg></g><g class="visx-group visx-axis-tick" transform="translate(0, 0)"><line class="visx-line" x1="0" y1="25.83333333333333" x2="-8" y2="25.83333333333333" fill="transparent" shape-rendering="crispEdges" stroke="#F2F0F9" stroke-width="1" stroke-linecap="square"></line><svg x="-30" y="0" font-size="11" style="overflow:visible"><text transform="" x="-8" y="25.83333333333333" fill="#1B2030" font-size="11" text-anchor="start"><tspan x="-8" dy="0em">150%</tspan></text></svg></g><line class="visx-line visx-axis-line" x1="0" y1="155.5" x2="0" y2="0.5" fill="transparent" shape-rendering="crispEdges" stroke="#F2F0F9" stroke-width="1"></line></g><rect class="visx-bar" width="1425" height="155" fill="transparent"></rect><line class="visx-line" x1="741" y1="58" x2="741" y2="155" fill="transparent" shape-rendering="crispEdges" stroke="#CDC8E1" stroke-width="1" pointer-events="none" stroke-dasharray="5"></line><svg x="0" y="0" font-size="11px" style="overflow:visible"><text transform="" x="741" y="50" font-size="11px" fill="#555069" stroke="#FFFFFF" stroke-width="1px" text-anchor="middle"><tspan x="741" dy="0.355em">Optimal utilization 52%</tspan></text></svg><svg x="0" y="0" font-size="11px" style="overflow:visible"><text transform="" x="741" y="50" font-size="11px" fill="#CDC8E1" text-anchor="middle"><tspan x="741" dy="0.355em">Optimal utilization 52%</tspan></text></svg></g></svg>