<?xml version="1.0"?><svg xmlns="http://www.w3.org/2000/svg" xmlns:xlink= "http://www.w3.org/1999/xlink" style="background: white;" width="1500" height="300"> <g style="color: black; font-size: 13px; font-family: sans-serif; transform: translate(18px, 25px);"><g><circle r="3" cx="-6" cy="-5" style="fill: #1AD4B3" /><text>Borrow APR, variable</text></g><g style="transform: translateX(150px);"><circle r="3" cx="-6" cy="-5" style="fill: #101423" /><text>Borrow APR, stable</text></g></g><g class="visx-group" transform="translate(45, 50)"><g class="visx-group visx-rows" transform="translate(0, 0)"><line class="visx-line" x1="0" y1="155" x2="1425" y2="155" fill="transparent" shape-rendering="crispEdges" stroke="#F2F0F9" stroke-width="1" pointer-events="none"></line><line class="visx-line" x1="0" y1="106.5625" x2="1425" y2="106.5625" fill="transparent" shape-rendering="crispEdges" stroke="#F2F0F9" stroke-width="1" pointer-events="none"></line><line class="visx-line" x1="0" y1="58.125" x2="1425" y2="58.125" fill="transparent" shape-rendering="crispEdges" stroke="#F2F0F9" stroke-width="1" pointer-events="none"></line><line class="visx-line" x1="0" y1="9.6875" x2="1425" y2="9.6875" fill="transparent" shape-rendering="crispEdges" stroke="#F2F0F9" stroke-width="1" pointer-events="none"></line></g><path class="visx-linepath" d="M0,154.99999999986696C2.375,154.97782790485198,4.75,154.95565580983697,7.125,154.93348371478874C9.5,154.9113116197405,11.875,154.8891395246479,14.25,154.86696742957747C16.625,154.84479533450704,19,154.8226232394366,21.375,154.80045114436618C23.75,154.77827904929575,26.125,154.75610695422534,28.5,154.7339348591549C30.875,154.71176276408448,33.25,154.68959066901408,35.625,154.66741857394368C38,154.64524647887328,40.375,154.62307438380284,42.75,154.6009022887324C45.125,154.57873019366198,47.50000000000001,154.55655809859155,49.87500000000001,154.53438600352112C52.25000000000001,154.5122139084507,54.625,154.4900418133803,57,154.46786971830986C59.375,154.44569762323943,61.75,154.42352552816902,64.125,154.4013534330986C66.5,154.37918133802816,68.875,154.35700924295776,71.25,154.33483714788733C73.625,154.3126650528169,76,154.2904929577465,78.375,154.26832086267606C80.75,154.24614876760563,83.125,154.2239766725352,85.5,154.20180457746477C87.875,154.17963248239434,90.25,154.15746038732394,92.625,154.1352882922535C95,154.11311619718307,97.37500000000001,154.09094410211267,99.75000000000001,154.06877200704224C102.12500000000001,154.04659991197184,104.5,154.02442781690144,106.875,154.002255721831C109.25,153.98008362676057,111.625,153.95791153169014,114,153.9357394366197C116.375,153.91356734154928,118.75000000000001,153.89139524647888,121.12500000000001,153.86922315140845C123.50000000000001,153.84705105633802,125.875,153.82487896126761,128.25,153.80270686619718C130.625,153.78053477112675,133,153.75836267605635,135.375,153.73619058098592C137.75,153.7140184859155,140.125,153.6918463908451,142.5,153.66967429577466C144.875,153.64750220070422,147.25,153.62533010563382,149.625,153.6031580105634C152,153.58098591549296,154.375,153.55881382042253,156.75,153.5366417253521C159.125,153.51446963028167,161.5,153.49229753521126,163.875,153.47012544014083C166.25,153.4479533450704,168.625,153.42578125,171,153.40360915492957C173.375,153.38143705985914,175.75,153.35926496478874,178.125,153.3370928697183C180.5,153.31492077464787,182.875,153.29274867957747,185.25,153.27057658450704C187.625,153.2484044894366,190,153.2262323943662,192.375,153.20406029929578C194.75,153.18188820422534,197.12500000000003,153.15971610915494,199.50000000000003,153.1375440140845C201.875,153.11537191901408,204.25,153.09319982394368,206.62499999999997,153.07102772887325C208.99999999999997,153.04885563380282,211.375,153.0266835387324,213.75,153.00451144366198C216.125,152.98233934859155,218.5,152.96016725352112,220.875,152.9379951584507C223.25,152.91582306338026,225.625,152.89365096830986,228,152.87147887323943C230.375,152.849306778169,232.75,152.8271346830986,235.125,152.80496258802816C237.5,152.78279049295773,239.87500000000003,152.76061839788733,242.25000000000003,152.7384463028169C244.625,152.71627420774647,247,152.69410211267606,249.37499999999997,152.67193001760563C251.74999999999997,152.6497579225352,254.125,152.6275858274648,256.5,152.60541373239437C258.875,152.58324163732394,261.25,152.56106954225353,263.625,152.5388974471831C266,152.51672535211267,268.375,152.49455325704227,270.75,152.47238116197184C273.125,152.4502090669014,275.5,152.428036971831,277.875,152.40586487676057C280.25,152.38369278169014,282.625,152.3615206866197,285,152.33934859154928C287.375,152.31717649647885,289.75,152.29500440140845,292.125,152.27283230633802C294.5,152.2506602112676,296.875,152.22848811619718,299.25,152.20631602112675C301.625,152.18414392605632,304,152.16197183098592,306.375,152.1397997359155C308.75,152.11762764084506,311.125,152.09545554577466,313.5,152.07328345070422C315.875,152.0511113556338,318.25,152.0289392605634,320.625,152.00676716549296C323,151.98459507042253,325.375,151.96242297535213,327.75,151.9402508802817C330.125,151.91807878521126,332.5,151.89590669014086,334.875,151.87373459507043C337.25,151.8515625,339.625,151.8293904049296,342,151.80721830985917C344.375,151.78504621478874,346.75,151.7628741197183,349.125,151.74070202464787C351.5,151.71852992957744,353.875,151.69635783450704,356.25,151.6741857394366C358.625,151.65201364436618,361,151.62984154929578,363.375,151.60766945422534C365.75,151.5854973591549,368.125,151.5633252640845,370.5,151.54115316901408C372.875,151.51898107394365,375.25,151.49680897887325,377.625,151.47463688380282C380,151.45246478873239,382.375,151.43029269366198,384.75,151.40812059859155C387.125,151.38594850352112,389.50000000000006,151.36377640845072,391.87500000000006,151.3416043133803C394.25000000000006,151.31943221830986,396.62500000000006,151.29726012323945,399.00000000000006,151.27508802816902C401.375,151.2529159330986,403.75,151.2307438380282,406.12499999999994,151.20857174295776C408.49999999999994,151.18639964788733,410.87499999999994,151.1642275528169,413.24999999999994,151.14205545774647C415.62499999999994,151.11988336267603,418,151.09771126760563,420.375,151.0755391725352C422.75,151.05336707746477,425.125,151.03119498239437,427.5,151.00902288732394C429.875,150.9868507922535,432.25,150.9646786971831,434.625,150.94250660211267C437,150.92033450704224,439.375,150.89816241197184,441.75,150.8759903169014C444.125,150.85381822183098,446.5,150.83164612676057,448.875,150.80947403169014C451.25,150.7873019366197,453.625,150.7651298415493,456,150.74295774647888C458.375,150.72078565140845,460.75,150.69861355633805,463.125,150.67644146126761C465.5,150.65426936619718,467.875,150.63209727112678,470.25,150.60992517605635C472.625,150.58775308098592,475.00000000000006,150.5655809859155,477.37500000000006,150.54340889084506C479.75000000000006,150.52123679577463,482.12500000000006,150.49906470070422,484.50000000000006,150.4768926056338C486.875,150.45472051056336,489.25,150.43254841549296,491.62499999999994,150.41037632042253C493.99999999999994,150.3882042253521,496.37499999999994,150.3660321302817,498.74999999999994,150.34386003521126C501.12499999999994,150.32168794014083,503.5,150.29951584507043,505.875,150.27734375C508.25,150.25517165492957,510.625,150.23299955985917,513,150.21082746478874C515.375,150.1886553697183,517.75,150.1664832746479,520.125,150.14431117957747C522.5,150.12213908450704,524.875,150.09996698943664,527.25,150.0777948943662C529.625,150.05562279929578,532,150.03345070422537,534.375,150.01127860915494C536.75,149.9891065140845,539.125,149.96693441901408,541.5,149.94476232394365C543.875,149.92259022887322,546.25,149.90041813380282,548.625,149.87824603873239C551,149.85607394366195,553.375,149.83390184859155,555.75,149.81172975352112C558.125,149.7895576584507,560.5,149.7673855633803,562.875,149.74521346830986C565.25,149.72304137323943,567.625,149.70086927816902,570,149.6786971830986C572.375,149.65652508802816,574.75,149.63435299295776,577.125,149.61218089788733C579.5,149.5900088028169,581.875,149.5678367077465,584.25,149.54566461267606C586.625,149.52349251760563,589,149.50132042253523,591.375,149.4791483274648C593.75,149.45697623239437,596.125,149.43480413732397,598.5,149.41263204225353C600.875,149.3904599471831,603.25,149.3682878521127,605.625,149.34611575704227C608,149.32394366197184,610.375,149.3017715669014,612.75,149.27959947183098C615.125,149.25742737676055,617.5,149.23525528169014,619.875,149.2130831866197C622.25,149.19091109154928,624.625,149.16873899647888,627,149.14656690140845C629.375,149.12439480633802,631.75,149.10222271126761,634.125,149.08005061619718C636.5,149.05787852112675,638.875,149.03570642605635,641.25,149.01353433098592C643.625,148.9913622359155,646,148.96919014084506,648.375,148.94701804577463C650.75,148.9248459507042,653.125,148.9026738556338,655.5,148.8805017605634C657.875,148.858329665493,660.25,148.83615757042256,662.625,148.81398547535213C665,148.7918133802817,667.375,148.7696412852113,669.75,148.74746919014086C672.125,148.72529709507043,674.5,148.703125,676.875,148.68095290492957C679.25,148.65878080985914,681.625,148.63660871478874,684,148.6144366197183C686.375,148.59226452464787,688.75,148.57009242957747,691.125,148.54792033450704C693.5,148.5257482394366,695.875,148.5035761443662,698.25,148.48140404929578C700.625,148.45923195422534,703,148.43705985915494,705.375,148.4148877640845C707.75,148.39271566901408,710.125,148.37054357394365,712.5,148.34837147887322C714.875,148.3261993838028,717.25,148.3040272887324,719.625,148.28185519366198C722,148.25968309859155,724.375,148.23751100352115,726.75,148.21533890845072C729.125,148.1931668133803,731.5,148.17099471830988,733.875,148.14882262323945C736.25,148.12665052816902,738.625,148.1044784330986,741,148.08230633802816C743.375,148.06013424295773,745.75,148.03796214788733,748.125,148.0157900528169C750.5,147.99361795774647,752.875,147.97144586267606,755.25,147.94927376760563C757.625,147.9271016725352,760,147.9049295774648,762.375,147.88275748239437C764.75,147.86058538732394,767.125,147.83841329225353,769.5,147.8162411971831C771.875,147.79406910211267,774.2500000000001,147.77189700704227,776.6250000000001,147.74972491197184C779.0000000000001,147.7275528169014,781.3750000000001,147.705380721831,783.7500000000001,147.68320862676057C786.1250000000001,147.66103653169014,788.5000000000001,147.63886443661974,790.8750000000001,147.6166923415493C793.2500000000001,147.59452024647888,795.6250000000001,147.57234815140848,798.0000000000001,147.55017605633805C800.375,147.52800396126761,802.75,147.50583186619718,805.1249999999999,147.48365977112675C807.4999999999999,147.46148767605632,809.8749999999999,147.43931558098592,812.2499999999999,147.4171434859155C814.6249999999999,147.39497139084506,816.9999999999999,147.37279929577466,819.3749999999999,147.35062720070422C821.7499999999999,147.3284551056338,824.1249999999999,147.3062830105634,826.4999999999999,147.28411091549296C828.8749999999999,147.26193882042253,831.25,147.23976672535213,833.625,147.2175946302817C836,147.19542253521126,838.375,147.17325044014086,840.75,147.15107834507043C843.125,147.12890625,845.5,147.10673415492957,847.875,147.08456205985914C850.25,147.0623899647887,852.625,147.04021786971828,855,147.01804577464787C857.375,146.99587367957747,859.75,146.97370158450707,862.125,146.95152948943664C864.5,146.9293573943662,866.875,146.90718529929578,869.25,146.88501320422534C871.625,146.8628411091549,874,146.8406690140845,876.375,146.81849691901408C878.75,146.79632482394365,881.125,146.77415272887325,883.5,146.75198063380282C885.875,146.72980853873239,888.25,146.70763644366198,890.625,146.68546434859155C893,146.66329225352112,895.375,146.64112015845072,897.75,146.6189480633803C900.125,146.59677596830986,902.5,146.57460387323945,904.875,146.55243177816902C907.25,146.5302596830986,909.625,146.50808758802816,912,146.48591549295773C914.375,146.4637433978873,916.75,146.4415713028169,919.125,146.41939920774647C921.5,146.39722711267603,923.875,146.37505501760566,926.25,146.35288292253523C928.625,146.3307108274648,931,146.30853873239437,933.375,146.28636663732394C935.75,146.2641945422535,938.125,146.2420224471831,940.5,146.21985035211267C942.875,146.19767825704224,945.25,146.17550616197184,947.625,146.1533340669014C950,146.13116197183098,952.3750000000001,146.10898987676057,954.7500000000001,146.08681778169014C957.1250000000001,146.0646456866197,959.5000000000001,146.0424735915493,961.8750000000001,146.02030149647888C964.2500000000001,145.99812940140845,966.6250000000001,145.97595730633805,969.0000000000001,145.95378521126761C971.3750000000001,145.93161311619718,973.7500000000001,145.90944102112675,976.1250000000001,145.88726892605632C978.5,145.8650968309859,980.875,145.84292473591546,983.2499999999999,145.82075264084506C985.6249999999999,145.79858054577463,987.9999999999999,145.77640845070425,990.3749999999999,145.75423635563382C992.7499999999999,145.7320642605634,995.1249999999999,145.70989216549296,997.4999999999999,145.68772007042253C999.8749999999999,145.6655479753521,1002.2499999999999,145.6433758802817,1004.6249999999999,145.62120378521126C1006.9999999999999,145.59903169014083,1009.375,145.59903169014083,1011.75,145.5546875C1014.125,145.51034330985917,1016.5,144.06258979885055,1018.875,143.31654094827584C1021.25,142.57049209770113,1023.625,141.82444324712642,1026,141.07839439655172C1028.375,140.332345545977,1030.75,139.5862966954023,1033.125,138.8402478448276C1035.5,138.09419899425288,1037.875,137.34815014367817,1040.25,136.60210129310346C1042.625,135.85605244252875,1045,135.110003591954,1047.375,134.3639547413793C1049.75,133.6179058908046,1052.125,132.87185704022988,1054.5,132.12580818965517C1056.875,131.37975933908046,1059.25,130.63371048850576,1061.625,129.88766163793105C1064,129.14161278735634,1066.375,128.3955639367816,1068.75,127.64951508620689C1071.125,126.90346623563218,1073.5,126.15741738505747,1075.875,125.41136853448276C1078.25,124.66531968390805,1080.625,123.91927083333331,1083,123.1732219827586C1085.375,122.4271731321839,1087.75,121.68112428160919,1090.125,120.93507543103448C1092.5,120.18902658045977,1094.875,119.44297772988506,1097.25,118.69692887931035C1099.625,117.95088002873564,1102,117.20483117816092,1104.375,116.4587823275862C1106.75,115.7127334770115,1109.125,114.96668462643679,1111.5,114.22063577586208C1113.875,113.47458692528737,1116.25,112.72853807471263,1118.625,111.98248922413792C1121,111.23644037356321,1123.375,110.4903915229885,1125.75,109.7443426724138C1128.125,108.99829382183908,1130.5,108.25224497126436,1132.875,107.50619612068965C1135.25,106.76014727011494,1137.625,106.01409841954022,1140,105.26804956896551C1142.375,104.5220007183908,1144.75,103.77595186781608,1147.125,103.02990301724137C1149.5,102.28385416666666,1151.875,101.53780531609195,1154.25,100.79175646551724C1156.625,100.04570761494253,1159,99.29965876436782,1161.375,98.55360991379311C1163.75,97.8075610632184,1166.125,97.06151221264369,1168.5,96.31546336206898C1170.875,95.56941451149427,1173.25,94.82336566091954,1175.625,94.07731681034483C1178,93.33126795977012,1180.375,92.58521910919539,1182.75,91.83917025862068C1185.125,91.09312140804597,1187.5,90.34707255747126,1189.875,89.60102370689656C1192.25,88.85497485632185,1194.625,88.10892600574712,1197,87.36287715517241C1199.375,86.6168283045977,1201.75,85.87077945402298,1204.125,85.12473060344827C1206.5,84.37868175287356,1208.875,83.63263290229885,1211.25,82.88658405172414C1213.625,82.14053520114943,1216,81.39448635057471,1218.375,80.6484375C1220.75,79.90238864942529,1223.125,79.15633979885057,1225.5,78.41029094827586C1227.875,77.66424209770115,1230.25,76.91819324712644,1232.625,76.17214439655173C1235,75.42609554597702,1237.375,74.6800466954023,1239.75,73.93399784482759C1242.125,73.18794899425288,1244.5,72.44190014367817,1246.875,71.69585129310346C1249.25,70.94980244252875,1251.625,70.20375359195401,1254,69.4577047413793C1256.375,68.7116558908046,1258.75,67.96560704022988,1261.125,67.21955818965517C1263.5,66.47350933908046,1265.875,65.72746048850574,1268.25,64.98141163793103C1270.625,64.23536278735632,1273,63.489313936781606,1275.375,62.7432650862069C1277.75,61.99721623563219,1280.125,61.25116738505748,1282.5,60.50511853448277C1284.875,59.75906968390806,1287.25,59.01302083333333,1289.625,58.26697198275862C1292,57.52092313218391,1294.375,56.7748742816092,1296.75,56.02882543103449C1299.125,55.28277658045978,1301.5,54.53672772988507,1303.875,53.790678879310356C1306.25,53.04463002873564,1308.625,52.29858117816091,1311,51.55253232758619C1313.375,50.806483477011476,1315.75,50.06043462643677,1318.125,49.314385775862064C1320.5,48.568336925287355,1322.875,47.82228807471264,1325.25,47.07623922413793C1327.625,46.33019037356322,1330,45.584141522988496,1332.375,44.83809267241379C1334.75,44.09204382183908,1337.125,43.34599497126437,1339.5,42.59994612068965C1341.875,41.853897270114935,1344.25,41.10784841954021,1346.625,40.3617995689655C1349,39.61575071839079,1351.375,38.86970186781608,1353.75,38.123653017241374C1356.125,37.377604166666664,1358.5,36.631555316091955,1360.875,35.885506465517246C1363.25,35.139457614942536,1365.625,34.39340876436782,1368,33.64735991379311C1370.375,32.9013110632184,1372.75,32.1552622126437,1375.125,31.409213362068982C1377.5,30.663164511494266,1379.875,29.91711566091953,1382.25,29.17106681034482C1384.625,28.425017959770106,1387,27.678969109195414,1389.375,26.932920258620705C1391.75,26.186871408045995,1394.125,25.440822557471268,1396.5,24.694773706896555C1398.875,23.948724856321842,1401.25,23.20267600574714,1403.625,22.456627155172427C1406,21.710578304597714,1408.375,20.96452945402299,1410.75,20.218480603448278C1413.125,19.472431752873565,1415.5,18.726382902298862,1417.875,17.98033405172415C1420.25,17.234285201149437,1422.625,16.488236350574716,1425,15.7421875" fill="transparent" stroke-linecap="round" stroke="#1AD4B3" stroke-width="2"></path><g class="visx-group visx-axis visx-axis-bottom" transform="translate(0, 155)"><g class="visx-group visx-axis-tick" transform="translate(0, 0)"><line class="visx-line" x1="0" y1="0" x2="0" y2="8" fill="transparent" shape-rendering="crispEdges" stroke="#F2F0F9" stroke-width="1" stroke-linecap="square"></line><svg x="0" y="0" font-size="11" style="overflow:visible"><text transform="" x="0" y="19" fill="#1B2030" font-size="11" text-anchor="middle"><tspan x="0" dy="0em">0%</tspan></text></svg></g><g class="visx-group visx-axis-tick" transform="translate(0, 0)"><line class="visx-line" x1="356.25" y1="0" x2="356.25" y2="8" fill="transparent" shape-rendering="crispEdges" stroke="#F2F0F9" stroke-width="1" stroke-linecap="square"></line><svg x="0" y="0" font-size="11" style="overflow:visible"><text transform="" x="356.25" y="19" fill="#1B2030" font-size="11" text-anchor="middle"><tspan x="356.25" dy="0em">25%</tspan></text></svg></g><g class="visx-group visx-axis-tick" transform="translate(0, 0)"><line class="visx-line" x1="712.5" y1="0" x2="712.5" y2="8" fill="transparent" shape-rendering="crispEdges" stroke="#F2F0F9" stroke-width="1" stroke-linecap="square"></line><svg x="0" y="0" font-size="11" style="overflow:visible"><text transform="" x="712.5" y="19" fill="#1B2030" font-size="11" text-anchor="middle"><tspan x="712.5" dy="0em">50%</tspan></text></svg></g><g class="visx-group visx-axis-tick" transform="translate(0, 0)"><line class="visx-line" x1="1068.75" y1="0" x2="1068.75" y2="8" fill="transparent" shape-rendering="crispEdges" stroke="#F2F0F9" stroke-width="1" stroke-linecap="square"></line><svg x="0" y="0" font-size="11" style="overflow:visible"><text transform="" x="1068.75" y="19" fill="#1B2030" font-size="11" text-anchor="middle"><tspan x="1068.75" dy="0em">75%</tspan></text></svg></g><g class="visx-group visx-axis-tick" transform="translate(0, 0)"><line class="visx-line" x1="1425" y1="0" x2="1425" y2="8" fill="transparent" shape-rendering="crispEdges" stroke="#F2F0F9" stroke-width="1" stroke-linecap="square"></line><svg x="0" y="0" font-size="11" style="overflow:visible"><text transform="" x="1425" y="19" fill="#1B2030" font-size="11" text-anchor="middle"><tspan x="1425" dy="0em">100%</tspan></text></svg></g></g><g class="visx-group visx-axis visx-axis-left" transform="translate(0, 0)"><g class="visx-group visx-axis-tick" transform="translate(0, 0)"><line class="visx-line" x1="0" y1="155" x2="-8" y2="155" fill="transparent" shape-rendering="crispEdges" stroke="#F2F0F9" stroke-width="1" stroke-linecap="square"></line><svg x="-30" y="0" font-size="11" style="overflow:visible"><text transform="" x="-8" y="155" fill="#1B2030" font-size="11" text-anchor="start"><tspan x="-8" dy="0em">0%</tspan></text></svg></g><g class="visx-group visx-axis-tick" transform="translate(0, 0)"><line class="visx-line" x1="0" y1="106.5625" x2="-8" y2="106.5625" fill="transparent" shape-rendering="crispEdges" stroke="#F2F0F9" stroke-width="1" stroke-linecap="square"></line><svg x="-30" y="0" font-size="11" style="overflow:visible"><text transform="" x="-8" y="106.5625" fill="#1B2030" font-size="11" text-anchor="start"><tspan x="-8" dy="0em">50%</tspan></text></svg></g><g class="visx-group visx-axis-tick" transform="translate(0, 0)"><line class="visx-line" x1="0" y1="58.125" x2="-8" y2="58.125" fill="transparent" shape-rendering="crispEdges" stroke="#F2F0F9" stroke-width="1" stroke-linecap="square"></line><svg x="-30" y="0" font-size="11" style="overflow:visible"><text transform="" x="-8" y="58.125" fill="#1B2030" font-size="11" text-anchor="start"><tspan x="-8" dy="0em">100%</tspan></text></svg></g><g class="visx-group visx-axis-tick" transform="translate(0, 0)"><line class="visx-line" x1="0" y1="9.6875" x2="-8" y2="9.6875" fill="transparent" shape-rendering="crispEdges" stroke="#F2F0F9" stroke-width="1" stroke-linecap="square"></line><svg x="-30" y="0" font-size="11" style="overflow:visible"><text transform="" x="-8" y="9.6875" fill="#1B2030" font-size="11" text-anchor="start"><tspan x="-8" dy="0em">150%</tspan></text></svg></g><line class="visx-line visx-axis-line" x1="0" y1="155.5" x2="0" y2="0.5" fill="transparent" shape-rendering="crispEdges" stroke="#F2F0F9" stroke-width="1"></line></g><rect class="visx-bar" width="1425" height="155" fill="transparent"></rect><line class="visx-line" x1="1011.75" y1="58" x2="1011.75" y2="155" fill="transparent" shape-rendering="crispEdges" stroke="#CDC8E1" stroke-width="1" pointer-events="none" stroke-dasharray="5"></line><svg x="0" y="0" font-size="11px" style="overflow:visible"><text transform="" x="1011.75" y="50" font-size="11px" fill="#555069" stroke="#FFFFFF" stroke-width="1px" text-anchor="middle"><tspan x="1011.75" dy="0.355em">uOptimal 71%</tspan></text></svg><svg x="0" y="0" font-size="11px" style="overflow:visible"><text transform="" x="1011.75" y="50" font-size="11px" fill="#CDC8E1" text-anchor="middle"><tspan x="1011.75" dy="0.355em">uOptimal 71%</tspan></text></svg></g></svg>