<?xml version="1.0"?><svg xmlns="http://www.w3.org/2000/svg" xmlns:xlink= "http://www.w3.org/1999/xlink" style="background: white;" width="1500" height="185"> <g style="color: black; font-size: 13px; font-family: sans-serif; transform: translate(18px, 25px);"><g><circle r="3" cx="-6" cy="-5" style="fill: #B6509E" /><text>Borrow APR, variable</text></g><g style="transform: translateX(150px);"><circle r="3" cx="-6" cy="-5" style="fill: rgb(231, 198, 223)" /><text>Borrow APR, stable</text></g><g style="transform: translateX(290px);"><circle r="3" cx="-6" cy="-5" style="fill: rgb(0, 98, 210)" /><text>Utilization Rate</text></g></g><g class="visx-group" transform="translate(40, 50)"><g class="visx-group visx-rows" transform="translate(0, 0)"><line class="visx-line" x1="0" y1="115" x2="1450" y2="115" fill="transparent" shape-rendering="crispEdges" stroke="#000" stroke-width="1" stroke-dasharray="3,3" pointer-events="none"></line><line class="visx-line" x1="0" y1="86.25" x2="1450" y2="86.25" fill="transparent" shape-rendering="crispEdges" stroke="#000" stroke-width="1" stroke-dasharray="3,3" pointer-events="none"></line><line class="visx-line" x1="0" y1="57.5" x2="1450" y2="57.5" fill="transparent" shape-rendering="crispEdges" stroke="#000" stroke-width="1" stroke-dasharray="3,3" pointer-events="none"></line><line class="visx-line" x1="0" y1="28.75" x2="1450" y2="28.75" fill="transparent" shape-rendering="crispEdges" stroke="#000" stroke-width="1" stroke-dasharray="3,3" pointer-events="none"></line><line class="visx-line" x1="0" y1="0" x2="1450" y2="0" fill="transparent" shape-rendering="crispEdges" stroke="#000" stroke-width="1" stroke-dasharray="3,3" pointer-events="none"></line></g><path class="visx-linepath" d="M0,109.25C2.4166666666666665,109.25,4.833333333333334,109.25,7.25,109.25C9.666666666666666,109.25,12.083333333333334,109.25,14.5,109.25C16.916666666666668,109.25,19.333333333333332,109.25,21.75,109.25C24.166666666666668,109.25,26.583333333333332,109.25,29,109.25C31.416666666666668,109.25,33.833333333333336,109.25,36.25,109.25C38.666666666666664,109.25,41.083333333333336,109.25,43.5,109.25C45.91666666666667,109.25,48.333333333333336,109.25,50.75000000000001,109.25C53.16666666666667,109.25,55.583333333333336,109.25,58,109.25C60.416666666666664,109.25,62.833333333333336,109.25,65.25,109.25C67.66666666666667,109.25,70.08333333333333,109.25,72.5,109.25C74.91666666666667,109.25,77.33333333333333,109.25,79.75,109.25C82.16666666666667,109.25,84.58333333333333,109.25,87,109.25C89.41666666666667,109.25,91.83333333333333,109.25,94.25,109.25C96.66666666666667,109.25,99.08333333333334,109.25,101.50000000000001,109.25C103.91666666666667,109.25,106.33333333333334,109.25,108.75,109.25C111.16666666666667,109.25,113.58333333333333,109.25,116,109.25C118.41666666666667,109.25,120.83333333333334,109.25,123.25000000000001,109.25C125.66666666666667,109.25,128.08333333333334,109.25,130.5,109.25C132.91666666666666,109.25,135.33333333333334,109.25,137.75,109.25C140.16666666666666,109.25,142.58333333333334,109.25,145,109.25C147.41666666666666,109.25,149.83333333333334,109.25,152.25,109.25C154.66666666666666,109.25,157.08333333333334,109.25,159.5,109.25C161.91666666666666,109.25,164.33333333333334,109.25,166.75,109.25C169.16666666666666,109.25,171.58333333333334,109.25,174,109.25C176.41666666666666,109.25,178.83333333333334,109.25,181.25,109.25C183.66666666666666,109.25,186.08333333333334,109.25,188.5,109.25C190.91666666666666,109.25,193.33333333333334,109.25,195.75,109.25C198.16666666666669,109.25,200.58333333333334,109.25,203.00000000000003,109.25C205.41666666666669,109.25,207.83333333333331,109.25,210.24999999999997,109.25C212.66666666666666,109.25,215.08333333333331,109.25,217.5,109.25C219.91666666666666,109.25,222.33333333333334,109.25,224.75,109.25C227.16666666666666,109.25,229.58333333333334,109.25,232,109.25C234.41666666666666,109.25,236.83333333333334,109.25,239.25,109.25C241.66666666666669,109.25,244.08333333333334,109.25,246.50000000000003,109.25C248.91666666666669,109.25,251.33333333333331,109.25,253.74999999999997,109.25C256.16666666666663,109.25,258.5833333333333,109.25,261,109.25C263.4166666666667,109.25,265.8333333333333,109.25,268.25,109.25C270.6666666666667,109.25,273.0833333333333,109.25,275.5,109.25C277.9166666666667,109.25,280.3333333333333,109.25,282.75,109.25C285.1666666666667,109.25,287.5833333333333,109.25,290,109.25C292.4166666666667,109.25,294.8333333333333,109.25,297.25,109.25C299.6666666666667,109.25,302.0833333333333,109.25,304.5,109.25C306.9166666666667,109.25,309.3333333333333,109.25,311.75,109.25C314.1666666666667,109.25,316.5833333333333,109.25,319,109.25C321.4166666666667,109.25,323.8333333333333,109.25,326.25,109.25C328.6666666666667,109.25,331.0833333333333,109.25,333.5,109.25C335.9166666666667,109.25,338.3333333333333,109.25,340.75,109.25C343.1666666666667,109.25,345.5833333333333,109.25,348,109.25C350.4166666666667,109.25,352.8333333333333,109.25,355.25,109.25C357.6666666666667,109.25,360.0833333333333,109.25,362.5,109.25C364.9166666666667,109.25,367.3333333333333,109.25,369.75,109.25C372.1666666666667,109.25,374.5833333333333,109.25,377,109.25C379.4166666666667,109.25,381.8333333333333,109.25,384.25,109.25C386.6666666666667,109.25,389.0833333333333,109.25,391.5,109.25C393.9166666666667,109.25,396.33333333333337,109.25,398.75000000000006,109.25C401.16666666666674,109.25,403.58333333333337,109.25,406.00000000000006,109.25C408.4166666666667,109.25,410.8333333333333,109.25,413.24999999999994,109.25C415.66666666666663,109.25,418.08333333333326,109.25,420.49999999999994,109.25C422.91666666666663,109.25,425.3333333333333,109.25,427.75,109.25C430.1666666666667,109.25,432.5833333333333,109.25,435,109.25C437.4166666666667,109.25,439.8333333333333,109.25,442.25,109.25C444.6666666666667,109.25,447.0833333333333,109.25,449.5,109.25C451.9166666666667,109.25,454.3333333333333,109.25,456.75,109.25C459.1666666666667,109.25,461.5833333333333,109.25,464,109.25C466.4166666666667,109.25,468.8333333333333,109.25,471.25,109.25C473.6666666666667,109.25,476.0833333333333,109.25,478.5,109.25C480.9166666666667,109.25,483.33333333333337,109.25,485.75000000000006,109.25C488.16666666666674,109.25,490.58333333333337,109.25,493.00000000000006,109.25C495.4166666666667,109.25,497.8333333333333,109.25,500.24999999999994,109.25C502.66666666666663,109.25,505.08333333333326,109.25,507.49999999999994,109.25C509.91666666666663,109.25,512.3333333333333,109.25,514.75,109.25C517.1666666666666,109.25,519.5833333333334,109.25,522,109.25C524.4166666666666,109.25,526.8333333333334,109.25,529.25,109.25C531.6666666666666,109.25,534.0833333333334,109.25,536.5,109.25C538.9166666666666,109.25,541.3333333333334,109.25,543.75,109.25C546.1666666666666,109.25,548.5833333333334,109.25,551,109.25C553.4166666666666,109.25,555.8333333333334,109.25,558.25,109.25C560.6666666666666,109.25,563.0833333333334,109.25,565.5,109.25C567.9166666666666,109.25,570.3333333333334,109.25,572.75,109.25C575.1666666666666,109.25,577.5833333333334,109.25,580,109.25C582.4166666666666,109.25,584.8333333333334,109.25,587.25,109.25C589.6666666666666,109.25,592.0833333333334,109.25,594.5,109.25C596.9166666666666,109.25,599.3333333333334,109.25,601.75,109.25C604.1666666666666,109.25,606.5833333333334,109.25,609,109.25C611.4166666666666,109.25,613.8333333333334,109.25,616.25,109.25C618.6666666666666,109.25,621.0833333333334,109.25,623.5,109.25C625.9166666666666,109.25,628.3333333333334,109.25,630.75,109.25C633.1666666666666,109.25,635.5833333333334,109.25,638,109.25C640.4166666666666,109.25,642.8333333333334,109.25,645.25,109.25C647.6666666666666,109.25,650.0833333333334,109.25,652.5,109.25C654.9166666666666,109.25,657.3333333333334,109.25,659.75,109.25C662.1666666666666,109.25,664.5833333333334,109.25,667,109.25C669.4166666666666,109.25,671.8333333333334,109.25,674.25,109.25C676.6666666666666,109.25,679.0833333333334,109.25,681.5,109.25C683.9166666666666,109.25,686.3333333333334,109.25,688.75,109.25C691.1666666666666,109.25,693.5833333333334,109.25,696,109.25C698.4166666666666,109.25,700.8333333333334,109.25,703.25,109.25C705.6666666666666,109.25,708.0833333333334,109.25,710.5,109.25C712.9166666666666,109.25,715.3333333333334,109.25,717.75,109.25C720.1666666666666,109.25,722.5833333333334,109.25,725,109.25C727.4166666666666,109.25,729.8333333333334,108.675,732.25,108.3875C734.6666666666666,108.10000000000001,737.0833333333334,107.8125,739.5,107.525C741.9166666666666,107.23750000000001,744.3333333333334,106.94999999999999,746.75,106.6625C749.1666666666666,106.375,751.5833333333334,106.0875,754,105.80000000000001C756.4166666666666,105.51250000000002,758.8333333333334,105.225,761.25,104.9375C763.6666666666666,104.65,766.0833333333334,104.36250000000001,768.5,104.075C770.9166666666666,103.7875,773.3333333333334,103.49999999999999,775.75,103.21249999999999C778.1666666666666,102.925,780.5833333333334,102.6375,783,102.35000000000001C785.4166666666667,102.06250000000001,787.8333333333334,101.77500000000002,790.2500000000001,101.48750000000001C792.6666666666667,101.20000000000002,795.0833333333335,100.91250000000001,797.5000000000001,100.625C799.9166666666667,100.33749999999999,802.3333333333335,100.04999999999998,804.7500000000001,99.76249999999999C807.1666666666667,99.475,809.5833333333335,99.18749999999999,812.0000000000001,98.89999999999999C814.4166666666667,98.6125,816.8333333333333,98.325,819.2499999999999,98.03750000000001C821.6666666666665,97.75,824.0833333333333,97.4625,826.4999999999999,97.175C828.9166666666665,96.88749999999999,831.3333333333333,96.6,833.7499999999999,96.3125C836.1666666666665,96.025,838.5833333333333,95.73749999999998,840.9999999999999,95.44999999999999C843.4166666666666,95.1625,845.8333333333333,94.875,848.25,94.5875C850.6666666666666,94.30000000000001,853.0833333333334,94.01249999999999,855.5,93.725C857.9166666666666,93.4375,860.3333333333334,93.14999999999999,862.75,92.8625C865.1666666666666,92.575,867.5833333333334,92.2875,870,92C872.4166666666666,91.7125,874.8333333333334,91.425,877.25,91.1375C879.6666666666666,90.85000000000001,882.0833333333334,90.5625,884.5,90.275C886.9166666666666,89.98750000000001,889.3333333333334,89.69999999999999,891.75,89.4125C894.1666666666666,89.125,896.5833333333334,88.83749999999999,899,88.55C901.4166666666666,88.2625,903.8333333333334,87.975,906.25,87.6875C908.6666666666666,87.4,911.0833333333334,87.1125,913.5,86.825C915.9166666666666,86.53750000000001,918.3333333333334,86.25,920.75,85.9625C923.1666666666666,85.67500000000001,925.5833333333334,85.38749999999999,928,85.1C930.4166666666666,84.8125,932.8333333333334,84.52499999999999,935.25,84.2375C937.6666666666666,83.95,940.0833333333334,83.6625,942.5,83.375C944.9166666666666,83.0875,947.3333333333334,82.80000000000001,949.75,82.5125C952.1666666666666,82.225,954.5833333333334,81.93749999999999,957,81.64999999999999C959.4166666666666,81.3625,961.8333333333334,81.075,964.25,80.78750000000001C966.6666666666667,80.50000000000001,969.0833333333334,80.21250000000002,971.5000000000001,79.92500000000001C973.9166666666667,79.63750000000002,976.3333333333335,79.35000000000001,978.7500000000001,79.0625C981.1666666666667,78.77499999999999,983.5833333333335,78.48749999999998,986.0000000000001,78.19999999999999C988.4166666666667,77.9125,990.8333333333335,77.62499999999999,993.2500000000001,77.33749999999999C995.6666666666667,77.05,998.0833333333333,76.7625,1000.4999999999999,76.47500000000001C1002.9166666666665,76.1875,1005.3333333333333,75.9,1007.7499999999999,75.6125C1010.1666666666665,75.32499999999999,1012.5833333333333,75.0375,1014.9999999999999,74.75C1017.4166666666665,74.4625,1019.8333333333333,74.175,1022.2499999999999,73.8875C1024.6666666666665,73.60000000000001,1027.0833333333333,73.31250000000001,1029.5,73.025C1031.9166666666667,72.73750000000001,1034.3333333333333,72.44999999999999,1036.75,72.1625C1039.1666666666667,71.875,1041.5833333333333,71.58749999999999,1044,71.3C1046.4166666666667,71.0125,1048.8333333333333,70.725,1051.25,70.4375C1053.6666666666667,70.15,1056.0833333333333,69.86250000000001,1058.5,69.575C1060.9166666666667,69.2875,1063.3333333333333,68.99999999999999,1065.75,68.71249999999999C1068.1666666666667,68.425,1070.5833333333333,68.1375,1073,67.85000000000001C1075.4166666666667,67.56250000000001,1077.8333333333333,67.275,1080.25,66.9875C1082.6666666666667,66.69999999999999,1085.0833333333333,66.4125,1087.5,66.125C1089.9166666666667,65.8375,1092.3333333333333,65.55,1094.75,65.2625C1097.1666666666667,64.97500000000001,1099.5833333333333,64.6875,1102,64.4C1104.4166666666667,64.11250000000001,1106.8333333333333,63.825,1109.25,63.5375C1111.6666666666667,63.25,1114.0833333333333,62.96249999999999,1116.5,62.67499999999999C1118.9166666666667,62.38749999999999,1121.3333333333333,62.099999999999994,1123.75,61.8125C1126.1666666666667,61.525000000000006,1128.5833333333333,61.237500000000004,1131,60.95C1133.4166666666667,60.6625,1135.8333333333333,60.375,1138.25,60.0875C1140.6666666666667,59.8,1143.0833333333333,59.5125,1145.5,59.225C1147.9166666666667,58.9375,1150.3333333333333,58.650000000000006,1152.75,58.362500000000004C1155.1666666666667,58.075,1157.5833333333333,57.7875,1160,57.5C1162.4166666666667,57.2125,1164.8333333333333,56.925000000000004,1167.25,56.6375C1169.6666666666667,56.35,1172.0833333333333,56.0625,1174.5,55.775C1176.9166666666667,55.4875,1179.3333333333333,55.2,1181.75,54.9125C1184.1666666666667,54.625,1186.5833333333333,54.3375,1189,54.05C1191.4166666666667,53.762499999999996,1193.8333333333333,53.475,1196.25,53.1875C1198.6666666666667,52.9,1201.0833333333333,52.6125,1203.5,52.324999999999996C1205.9166666666667,52.037499999999994,1208.3333333333333,51.75,1210.75,51.4625C1213.1666666666667,51.175,1215.5833333333333,50.887499999999996,1218,50.599999999999994C1220.4166666666667,50.31249999999999,1222.8333333333333,50.02499999999999,1225.25,49.7375C1227.6666666666667,49.45,1230.0833333333333,49.16250000000001,1232.5,48.87500000000001C1234.9166666666667,48.587500000000006,1237.3333333333333,48.3,1239.75,48.012499999999996C1242.1666666666667,47.724999999999994,1244.5833333333333,47.43750000000001,1247,47.150000000000006C1249.4166666666667,46.862500000000004,1251.8333333333333,46.574999999999996,1254.25,46.287499999999994C1256.6666666666667,45.99999999999999,1259.0833333333333,45.712500000000006,1261.5,45.425000000000004C1263.9166666666667,45.1375,1266.3333333333333,44.849999999999994,1268.75,44.56249999999999C1271.1666666666667,44.27499999999999,1273.5833333333333,43.9875,1276,43.7C1278.4166666666667,43.41250000000001,1280.8333333333333,43.12500000000001,1283.25,42.837500000000006C1285.6666666666667,42.550000000000004,1288.0833333333333,42.2625,1290.5,41.975C1292.9166666666667,41.6875,1295.3333333333333,41.400000000000006,1297.75,41.112500000000004C1300.1666666666667,40.825,1302.5833333333333,40.5375,1305,40.25C1307.4166666666667,39.9625,1309.8333333333333,39.675000000000004,1312.25,39.3875C1314.6666666666667,39.1,1317.0833333333333,38.8125,1319.5,38.525C1321.9166666666667,38.2375,1324.3333333333333,37.95,1326.75,37.6625C1329.1666666666667,37.375,1331.5833333333333,37.0875,1334,36.8C1336.4166666666667,36.512499999999996,1338.8333333333333,36.225,1341.25,35.9375C1343.6666666666667,35.65,1346.0833333333333,35.362500000000004,1348.5,35.075C1350.9166666666667,34.7875,1353.3333333333333,34.5,1355.75,34.2125C1358.1666666666667,33.925,1360.5833333333333,33.6375,1363,33.35C1365.4166666666667,33.0625,1367.8333333333333,32.775,1370.25,32.4875C1372.6666666666667,32.199999999999996,1375.0833333333333,31.912500000000005,1377.5,31.625000000000004C1379.9166666666667,31.337500000000002,1382.3333333333333,31.049999999999997,1384.75,30.762499999999996C1387.1666666666667,30.474999999999994,1389.5833333333333,30.187500000000004,1392,29.900000000000002C1394.4166666666667,29.6125,1396.8333333333333,29.324999999999996,1399.25,29.037499999999994C1401.6666666666667,28.749999999999993,1404.0833333333333,28.4625,1406.5,28.175C1408.9166666666667,27.887500000000003,1411.3333333333333,27.600000000000005,1413.75,27.312500000000004C1416.1666666666667,27.025000000000002,1418.5833333333333,26.7375,1421,26.45C1423.4166666666667,26.162499999999998,1425.8333333333333,25.875000000000004,1428.25,25.587500000000002C1430.6666666666667,25.3,1433.0833333333333,25.0125,1435.5,24.724999999999998C1437.9166666666667,24.437499999999996,1440.3333333333333,24.150000000000002,1442.75,23.8625C1445.1666666666667,23.575,1447.5833333333333,23.287499999999998,1450,22.999999999999996" fill="transparent" stroke-linecap="round" stroke="#B6509E" stroke-width="2"></path><path class="visx-linepath" d="M0,112.125C2.4166666666666665,112.125,4.833333333333334,112.125,7.25,112.125C9.666666666666666,112.125,12.083333333333334,112.125,14.5,112.125C16.916666666666668,112.125,19.333333333333332,112.125,21.75,112.125C24.166666666666668,112.125,26.583333333333332,112.125,29,112.125C31.416666666666668,112.125,33.833333333333336,112.125,36.25,112.125C38.666666666666664,112.125,41.083333333333336,112.125,43.5,112.125C45.91666666666667,112.125,48.333333333333336,112.125,50.75000000000001,112.125C53.16666666666667,112.125,55.583333333333336,112.125,58,112.125C60.416666666666664,112.125,62.833333333333336,112.125,65.25,112.125C67.66666666666667,112.125,70.08333333333333,112.125,72.5,112.125C74.91666666666667,112.125,77.33333333333333,112.125,79.75,112.125C82.16666666666667,112.125,84.58333333333333,112.125,87,112.125C89.41666666666667,112.125,91.83333333333333,112.125,94.25,112.125C96.66666666666667,112.125,99.08333333333334,112.125,101.50000000000001,112.125C103.91666666666667,112.125,106.33333333333334,112.125,108.75,112.125C111.16666666666667,112.125,113.58333333333333,112.125,116,112.125C118.41666666666667,112.125,120.83333333333334,112.125,123.25000000000001,112.125C125.66666666666667,112.125,128.08333333333334,112.125,130.5,112.125C132.91666666666666,112.125,135.33333333333334,112.125,137.75,112.125C140.16666666666666,112.125,142.58333333333334,112.125,145,112.125C147.41666666666666,112.125,149.83333333333334,112.125,152.25,112.125C154.66666666666666,112.125,157.08333333333334,112.125,159.5,112.125C161.91666666666666,112.125,164.33333333333334,112.125,166.75,112.125C169.16666666666666,112.125,171.58333333333334,112.125,174,112.125C176.41666666666666,112.125,178.83333333333334,112.125,181.25,112.125C183.66666666666666,112.125,186.08333333333334,112.125,188.5,112.125C190.91666666666666,112.125,193.33333333333334,112.125,195.75,112.125C198.16666666666669,112.125,200.58333333333334,112.125,203.00000000000003,112.125C205.41666666666669,112.125,207.83333333333331,112.125,210.24999999999997,112.125C212.66666666666666,112.125,215.08333333333331,112.125,217.5,112.125C219.91666666666666,112.125,222.33333333333334,112.125,224.75,112.125C227.16666666666666,112.125,229.58333333333334,112.125,232,112.125C234.41666666666666,112.125,236.83333333333334,112.125,239.25,112.125C241.66666666666669,112.125,244.08333333333334,112.125,246.50000000000003,112.125C248.91666666666669,112.125,251.33333333333331,112.125,253.74999999999997,112.125C256.16666666666663,112.125,258.5833333333333,112.125,261,112.125C263.4166666666667,112.125,265.8333333333333,112.125,268.25,112.125C270.6666666666667,112.125,273.0833333333333,112.125,275.5,112.125C277.9166666666667,112.125,280.3333333333333,112.125,282.75,112.125C285.1666666666667,112.125,287.5833333333333,112.125,290,112.125C292.4166666666667,112.125,294.8333333333333,112.125,297.25,112.125C299.6666666666667,112.125,302.0833333333333,112.125,304.5,112.125C306.9166666666667,112.125,309.3333333333333,112.125,311.75,112.125C314.1666666666667,112.125,316.5833333333333,112.125,319,112.125C321.4166666666667,112.125,323.8333333333333,112.125,326.25,112.125C328.6666666666667,112.125,331.0833333333333,112.125,333.5,112.125C335.9166666666667,112.125,338.3333333333333,112.125,340.75,112.125C343.1666666666667,112.125,345.5833333333333,112.125,348,112.125C350.4166666666667,112.125,352.8333333333333,112.125,355.25,112.125C357.6666666666667,112.125,360.0833333333333,112.125,362.5,112.125C364.9166666666667,112.125,367.3333333333333,112.125,369.75,112.125C372.1666666666667,112.125,374.5833333333333,112.125,377,112.125C379.4166666666667,112.125,381.8333333333333,112.125,384.25,112.125C386.6666666666667,112.125,389.0833333333333,112.125,391.5,112.125C393.9166666666667,112.125,396.33333333333337,112.125,398.75000000000006,112.125C401.16666666666674,112.125,403.58333333333337,112.125,406.00000000000006,112.125C408.4166666666667,112.125,410.8333333333333,112.125,413.24999999999994,112.125C415.66666666666663,112.125,418.08333333333326,112.125,420.49999999999994,112.125C422.91666666666663,112.125,425.3333333333333,112.125,427.75,112.125C430.1666666666667,112.125,432.5833333333333,112.125,435,112.125C437.4166666666667,112.125,439.8333333333333,112.125,442.25,112.125C444.6666666666667,112.125,447.0833333333333,112.125,449.5,112.125C451.9166666666667,112.125,454.3333333333333,112.125,456.75,112.125C459.1666666666667,112.125,461.5833333333333,112.125,464,112.125C466.4166666666667,112.125,468.8333333333333,112.125,471.25,112.125C473.6666666666667,112.125,476.0833333333333,112.125,478.5,112.125C480.9166666666667,112.125,483.33333333333337,112.125,485.75000000000006,112.125C488.16666666666674,112.125,490.58333333333337,112.125,493.00000000000006,112.125C495.4166666666667,112.125,497.8333333333333,112.125,500.24999999999994,112.125C502.66666666666663,112.125,505.08333333333326,112.125,507.49999999999994,112.125C509.91666666666663,112.125,512.3333333333333,112.125,514.75,112.125C517.1666666666666,112.125,519.5833333333334,112.125,522,112.125C524.4166666666666,112.125,526.8333333333334,112.125,529.25,112.125C531.6666666666666,112.125,534.0833333333334,112.125,536.5,112.125C538.9166666666666,112.125,541.3333333333334,112.125,543.75,112.125C546.1666666666666,112.125,548.5833333333334,112.125,551,112.125C553.4166666666666,112.125,555.8333333333334,112.125,558.25,112.125C560.6666666666666,112.125,563.0833333333334,112.125,565.5,112.125C567.9166666666666,112.125,570.3333333333334,112.125,572.75,112.125C575.1666666666666,112.125,577.5833333333334,112.125,580,112.125C582.4166666666666,112.125,584.8333333333334,112.125,587.25,112.125C589.6666666666666,112.125,592.0833333333334,112.125,594.5,112.125C596.9166666666666,112.125,599.3333333333334,112.125,601.75,112.125C604.1666666666666,112.125,606.5833333333334,112.125,609,112.125C611.4166666666666,112.125,613.8333333333334,112.125,616.25,112.125C618.6666666666666,112.125,621.0833333333334,112.125,623.5,112.125C625.9166666666666,112.125,628.3333333333334,112.125,630.75,112.125C633.1666666666666,112.125,635.5833333333334,112.125,638,112.125C640.4166666666666,112.125,642.8333333333334,112.125,645.25,112.125C647.6666666666666,112.125,650.0833333333334,112.125,652.5,112.125C654.9166666666666,112.125,657.3333333333334,112.125,659.75,112.125C662.1666666666666,112.125,664.5833333333334,112.125,667,112.125C669.4166666666666,112.125,671.8333333333334,112.125,674.25,112.125C676.6666666666666,112.125,679.0833333333334,112.125,681.5,112.125C683.9166666666666,112.125,686.3333333333334,112.125,688.75,112.125C691.1666666666666,112.125,693.5833333333334,112.125,696,112.125C698.4166666666666,112.125,700.8333333333334,112.125,703.25,112.125C705.6666666666666,112.125,708.0833333333334,112.125,710.5,112.125C712.9166666666666,112.125,715.3333333333334,112.125,717.75,112.125C720.1666666666666,112.125,722.5833333333334,112.125,725,112.125C727.4166666666666,112.125,729.8333333333334,112.125,732.25,112.125C734.6666666666666,112.125,737.0833333333334,112.125,739.5,112.125C741.9166666666666,112.125,744.3333333333334,112.125,746.75,112.125C749.1666666666666,112.125,751.5833333333334,112.125,754,112.125C756.4166666666666,112.125,758.8333333333334,112.125,761.25,112.125C763.6666666666666,112.125,766.0833333333334,112.125,768.5,112.125C770.9166666666666,112.125,773.3333333333334,112.125,775.75,112.125C778.1666666666666,112.125,780.5833333333334,112.125,783,112.125C785.4166666666667,112.125,787.8333333333334,112.125,790.2500000000001,112.125C792.6666666666667,112.125,795.0833333333335,112.125,797.5000000000001,112.125C799.9166666666667,112.125,802.3333333333335,112.125,804.7500000000001,112.125C807.1666666666667,112.125,809.5833333333335,112.125,812.0000000000001,112.125C814.4166666666667,112.125,816.8333333333333,112.125,819.2499999999999,112.125C821.6666666666665,112.125,824.0833333333333,112.125,826.4999999999999,112.125C828.9166666666665,112.125,831.3333333333333,112.125,833.7499999999999,112.125C836.1666666666665,112.125,838.5833333333333,112.125,840.9999999999999,112.125C843.4166666666666,112.125,845.8333333333333,112.125,848.25,112.125C850.6666666666666,112.125,853.0833333333334,112.125,855.5,112.125C857.9166666666666,112.125,860.3333333333334,112.125,862.75,112.125C865.1666666666666,112.125,867.5833333333334,112.125,870,112.125C872.4166666666666,112.125,874.8333333333334,112.125,877.25,112.125C879.6666666666666,112.125,882.0833333333334,112.125,884.5,112.125C886.9166666666666,112.125,889.3333333333334,112.125,891.75,112.125C894.1666666666666,112.125,896.5833333333334,112.125,899,112.125C901.4166666666666,112.125,903.8333333333334,112.125,906.25,112.125C908.6666666666666,112.125,911.0833333333334,112.125,913.5,112.125C915.9166666666666,112.125,918.3333333333334,112.125,920.75,112.125C923.1666666666666,112.125,925.5833333333334,112.125,928,112.125C930.4166666666666,112.125,932.8333333333334,112.125,935.25,112.125C937.6666666666666,112.125,940.0833333333334,112.125,942.5,112.125C944.9166666666666,112.125,947.3333333333334,112.125,949.75,112.125C952.1666666666666,112.125,954.5833333333334,112.125,957,112.125C959.4166666666666,112.125,961.8333333333334,112.125,964.25,112.125C966.6666666666667,112.125,969.0833333333334,112.125,971.5000000000001,112.125C973.9166666666667,112.125,976.3333333333335,112.125,978.7500000000001,112.125C981.1666666666667,112.125,983.5833333333335,112.125,986.0000000000001,112.125C988.4166666666667,112.125,990.8333333333335,112.125,993.2500000000001,112.125C995.6666666666667,112.125,998.0833333333333,112.125,1000.4999999999999,112.125C1002.9166666666665,112.125,1005.3333333333333,112.125,1007.7499999999999,112.125C1010.1666666666665,112.125,1012.5833333333333,112.125,1014.9999999999999,112.125C1017.4166666666665,112.125,1019.8333333333333,112.125,1022.2499999999999,112.125C1024.6666666666665,112.125,1027.0833333333333,112.125,1029.5,112.125C1031.9166666666667,112.125,1034.3333333333333,112.125,1036.75,112.125C1039.1666666666667,112.125,1041.5833333333333,112.125,1044,112.125C1046.4166666666667,112.125,1048.8333333333333,112.125,1051.25,112.125C1053.6666666666667,112.125,1056.0833333333333,112.125,1058.5,112.125C1060.9166666666667,112.125,1063.3333333333333,112.125,1065.75,112.125C1068.1666666666667,112.125,1070.5833333333333,112.125,1073,112.125C1075.4166666666667,112.125,1077.8333333333333,112.125,1080.25,112.125C1082.6666666666667,112.125,1085.0833333333333,112.125,1087.5,112.125C1089.9166666666667,112.125,1092.3333333333333,112.125,1094.75,112.125C1097.1666666666667,112.125,1099.5833333333333,112.125,1102,112.125C1104.4166666666667,112.125,1106.8333333333333,112.125,1109.25,112.125C1111.6666666666667,112.125,1114.0833333333333,112.125,1116.5,112.125C1118.9166666666667,112.125,1121.3333333333333,112.125,1123.75,112.125C1126.1666666666667,112.125,1128.5833333333333,112.125,1131,112.125C1133.4166666666667,112.125,1135.8333333333333,112.125,1138.25,112.125C1140.6666666666667,112.125,1143.0833333333333,112.125,1145.5,112.125C1147.9166666666667,112.125,1150.3333333333333,112.125,1152.75,112.125C1155.1666666666667,112.125,1157.5833333333333,112.125,1160,112.125C1162.4166666666667,112.125,1164.8333333333333,112.125,1167.25,112.125C1169.6666666666667,112.125,1172.0833333333333,112.125,1174.5,112.125C1176.9166666666667,112.125,1179.3333333333333,112.125,1181.75,112.125C1184.1666666666667,112.125,1186.5833333333333,112.125,1189,112.125C1191.4166666666667,112.125,1193.8333333333333,112.125,1196.25,112.125C1198.6666666666667,112.125,1201.0833333333333,112.125,1203.5,112.125C1205.9166666666667,112.125,1208.3333333333333,112.125,1210.75,112.125C1213.1666666666667,112.125,1215.5833333333333,112.125,1218,112.125C1220.4166666666667,112.125,1222.8333333333333,112.125,1225.25,112.125C1227.6666666666667,112.125,1230.0833333333333,112.125,1232.5,112.125C1234.9166666666667,112.125,1237.3333333333333,112.125,1239.75,112.125C1242.1666666666667,112.125,1244.5833333333333,112.125,1247,112.125C1249.4166666666667,112.125,1251.8333333333333,112.125,1254.25,112.125C1256.6666666666667,112.125,1259.0833333333333,112.125,1261.5,112.125C1263.9166666666667,112.125,1266.3333333333333,112.125,1268.75,112.125C1271.1666666666667,112.125,1273.5833333333333,112.125,1276,112.125C1278.4166666666667,112.125,1280.8333333333333,112.125,1283.25,112.125C1285.6666666666667,112.125,1288.0833333333333,112.125,1290.5,112.125C1292.9166666666667,112.125,1295.3333333333333,112.125,1297.75,112.125C1300.1666666666667,112.125,1302.5833333333333,112.125,1305,112.125C1307.4166666666667,112.125,1309.8333333333333,112.125,1312.25,112.125C1314.6666666666667,112.125,1317.0833333333333,112.125,1319.5,112.125C1321.9166666666667,112.125,1324.3333333333333,112.125,1326.75,112.125C1329.1666666666667,112.125,1331.5833333333333,112.125,1334,112.125C1336.4166666666667,112.125,1338.8333333333333,112.125,1341.25,112.125C1343.6666666666667,112.125,1346.0833333333333,112.125,1348.5,112.125C1350.9166666666667,112.125,1353.3333333333333,112.125,1355.75,112.125C1358.1666666666667,112.125,1360.5833333333333,112.125,1363,112.125C1365.4166666666667,112.125,1367.8333333333333,112.125,1370.25,112.125C1372.6666666666667,112.125,1375.0833333333333,112.125,1377.5,112.125C1379.9166666666667,112.125,1382.3333333333333,112.125,1384.75,112.125C1387.1666666666667,112.125,1389.5833333333333,112.125,1392,112.125C1394.4166666666667,112.125,1396.8333333333333,112.125,1399.25,112.125C1401.6666666666667,112.125,1404.0833333333333,112.125,1406.5,112.125C1408.9166666666667,112.125,1411.3333333333333,112.125,1413.75,112.125C1416.1666666666667,112.125,1418.5833333333333,112.125,1421,112.125C1423.4166666666667,112.125,1425.8333333333333,112.125,1428.25,112.125C1430.6666666666667,112.125,1433.0833333333333,112.125,1435.5,112.125C1437.9166666666667,112.125,1440.3333333333333,112.125,1442.75,112.125C1445.1666666666667,112.125,1447.5833333333333,112.125,1450,112.125" fill="transparent" stroke-linecap="round" stroke="#E7C6DF" stroke-width="2"></path><g class="visx-group visx-axis visx-axis-bottom" transform="translate(0, 115)"><g class="visx-group visx-axis-tick" transform="translate(0, 0)"><line class="visx-line" x1="0" y1="0" x2="0" y2="8" fill="transparent" shape-rendering="crispEdges" stroke="#000" stroke-width="0" stroke-linecap="square"></line><svg x="0" y="0" font-size="10" style="overflow:visible"><text transform="" x="0" y="18" fill="#000" font-size="10" text-anchor="middle"><tspan x="0" dy="0em">0%</tspan></text></svg></g><g class="visx-group visx-axis-tick" transform="translate(0, 0)"><line class="visx-line" x1="362.5" y1="0" x2="362.5" y2="8" fill="transparent" shape-rendering="crispEdges" stroke="#000" stroke-width="0" stroke-linecap="square"></line><svg x="0" y="0" font-size="10" style="overflow:visible"><text transform="" x="362.5" y="18" fill="#000" font-size="10" text-anchor="middle"><tspan x="362.5" dy="0em">25%</tspan></text></svg></g><g class="visx-group visx-axis-tick" transform="translate(0, 0)"><line class="visx-line" x1="725" y1="0" x2="725" y2="8" fill="transparent" shape-rendering="crispEdges" stroke="#000" stroke-width="0" stroke-linecap="square"></line><svg x="0" y="0" font-size="10" style="overflow:visible"><text transform="" x="725" y="18" fill="#000" font-size="10" text-anchor="middle"><tspan x="725" dy="0em">50%</tspan></text></svg></g><g class="visx-group visx-axis-tick" transform="translate(0, 0)"><line class="visx-line" x1="1087.5" y1="0" x2="1087.5" y2="8" fill="transparent" shape-rendering="crispEdges" stroke="#000" stroke-width="0" stroke-linecap="square"></line><svg x="0" y="0" font-size="10" style="overflow:visible"><text transform="" x="1087.5" y="18" fill="#000" font-size="10" text-anchor="middle"><tspan x="1087.5" dy="0em">75%</tspan></text></svg></g><g class="visx-group visx-axis-tick" transform="translate(0, 0)"><line class="visx-line" x1="1450" y1="0" x2="1450" y2="8" fill="transparent" shape-rendering="crispEdges" stroke="#000" stroke-width="0" stroke-linecap="square"></line><svg x="0" y="0" font-size="10" style="overflow:visible"><text transform="" x="1450" y="18" fill="#000" font-size="10" text-anchor="middle"><tspan x="1450" dy="0em">100%</tspan></text></svg></g><line class="visx-line visx-axis-line" x1="0.5" y1="0" x2="1450.5" y2="0" fill="transparent" shape-rendering="crispEdges" stroke="#222" stroke-width="0"></line></g><g class="visx-group visx-axis visx-axis-left" transform="translate(0, 0)"><g class="visx-group visx-axis-tick" transform="translate(0, 0)"><line class="visx-line" x1="0" y1="115" x2="-8" y2="115" fill="transparent" shape-rendering="crispEdges" stroke="#222" stroke-width="0" stroke-linecap="square"></line><svg x="-30" y="0" font-size="8" style="overflow:visible"><text transform="" x="-8" y="115" fill="#000" font-size="8" text-anchor="start"><tspan x="-8" dy="0em">0%</tspan></text></svg></g><g class="visx-group visx-axis-tick" transform="translate(0, 0)"><line class="visx-line" x1="0" y1="57.5" x2="-8" y2="57.5" fill="transparent" shape-rendering="crispEdges" stroke="#222" stroke-width="0" stroke-linecap="square"></line><svg x="-30" y="0" font-size="8" style="overflow:visible"><text transform="" x="-8" y="57.5" fill="#000" font-size="8" text-anchor="start"><tspan x="-8" dy="0em">200%</tspan></text></svg></g><g class="visx-group visx-axis-tick" transform="translate(0, 0)"><line class="visx-line" x1="0" y1="0" x2="-8" y2="0" fill="transparent" shape-rendering="crispEdges" stroke="#222" stroke-width="0" stroke-linecap="square"></line><svg x="-30" y="0" font-size="8" style="overflow:visible"><text transform="" x="-8" y="0" fill="#000" font-size="8" text-anchor="start"><tspan x="-8" dy="0em">400%</tspan></text></svg></g><line class="visx-line visx-axis-line" x1="0" y1="115.5" x2="0" y2="0.5" fill="transparent" shape-rendering="crispEdges" stroke="#222" stroke-width="0"></line></g><rect class="visx-bar" width="1450" height="115" fill="transparent"></rect><line class="visx-line" x1="725" y1="28" x2="725" y2="115" fill="transparent" shape-rendering="crispEdges" stroke="#0062D2" stroke-width="1" pointer-events="none" stroke-dasharray="5,2"></line><svg x="0" y="0" font-size="10px" style="overflow:visible"><text transform="" x="725" y="20" font-size="10px" fill="#fff" stroke="#fff" stroke-width="0.8em" text-anchor="middle"><tspan x="725" dy="0.355em">Optimal 50%</tspan></text></svg><svg x="0" y="0" font-size="10px" style="overflow:visible"><text transform="" x="725" y="20" font-size="10px" fill="#62677B" text-anchor="middle"><tspan x="725" dy="0.355em">Optimal 50%</tspan></text></svg></g></svg>