<?xml version="1.0"?><svg xmlns="http://www.w3.org/2000/svg" xmlns:xlink= "http://www.w3.org/1999/xlink" style="background: white;" width="1500" height="185"> <g style="color: black; font-size: 13px; font-family: sans-serif; transform: translate(18px, 25px);"><g><circle r="3" cx="-6" cy="-5" style="fill: #B6509E" /><text>Borrow APR, variable</text></g><g style="transform: translateX(150px);"><circle r="3" cx="-6" cy="-5" style="fill: rgb(231, 198, 223)" /><text>Borrow APR, stable</text></g><g style="transform: translateX(290px);"><circle r="3" cx="-6" cy="-5" style="fill: rgb(0, 98, 210)" /><text>Utilization Rate</text></g></g><g class="visx-group" transform="translate(40, 50)"><g class="visx-group visx-rows" transform="translate(0, 0)"><line class="visx-line" x1="0" y1="115" x2="1450" y2="115" fill="transparent" shape-rendering="crispEdges" stroke="#000" stroke-width="1" stroke-dasharray="3,3" pointer-events="none"></line><line class="visx-line" x1="0" y1="86.25" x2="1450" y2="86.25" fill="transparent" shape-rendering="crispEdges" stroke="#000" stroke-width="1" stroke-dasharray="3,3" pointer-events="none"></line><line class="visx-line" x1="0" y1="57.5" x2="1450" y2="57.5" fill="transparent" shape-rendering="crispEdges" stroke="#000" stroke-width="1" stroke-dasharray="3,3" pointer-events="none"></line><line class="visx-line" x1="0" y1="28.75" x2="1450" y2="28.75" fill="transparent" shape-rendering="crispEdges" stroke="#000" stroke-width="1" stroke-dasharray="3,3" pointer-events="none"></line><line class="visx-line" x1="0" y1="0" x2="1450" y2="0" fill="transparent" shape-rendering="crispEdges" stroke="#000" stroke-width="1" stroke-dasharray="3,3" pointer-events="none"></line></g><path class="visx-linepath" d="M0,114.99999999992013C2.4166666666666665,114.98668981476823,4.833333333333334,114.97337962961632,7.25,114.96006944444444C9.666666666666666,114.94675925927257,12.083333333333334,114.93344907407408,14.5,114.92013888888889C16.916666666666668,114.9068287037037,19.333333333333332,114.89351851851852,21.75,114.88020833333333C24.166666666666668,114.86689814814814,26.583333333333332,114.85358796296296,29,114.84027777777777C31.416666666666668,114.82696759259258,33.833333333333336,114.81365740740739,36.25,114.80034722222221C38.666666666666664,114.78703703703704,41.083333333333336,114.77372685185186,43.5,114.76041666666667C45.91666666666667,114.74710648148148,48.333333333333336,114.73379629629629,50.75000000000001,114.7204861111111C53.16666666666667,114.70717592592591,55.583333333333336,114.69386574074073,58,114.68055555555556C60.416666666666664,114.66724537037037,62.833333333333336,114.65393518518519,65.25,114.640625C67.66666666666667,114.62731481481481,70.08333333333333,114.61400462962963,72.5,114.60069444444444C74.91666666666667,114.58738425925925,77.33333333333333,114.57407407407408,79.75,114.56076388888889C82.16666666666667,114.5474537037037,84.58333333333333,114.53414351851852,87,114.52083333333333C89.41666666666667,114.50752314814814,91.83333333333333,114.49421296296295,94.25,114.48090277777777C96.66666666666667,114.46759259259258,99.08333333333334,114.45428240740742,101.50000000000001,114.44097222222223C103.91666666666667,114.42766203703704,106.33333333333334,114.41435185185185,108.75,114.40104166666666C111.16666666666667,114.38773148148147,113.58333333333333,114.37442129629629,116,114.36111111111111C118.41666666666667,114.34780092592592,120.83333333333334,114.33449074074075,123.25000000000001,114.32118055555556C125.66666666666667,114.30787037037037,128.08333333333334,114.29456018518519,130.5,114.28125C132.91666666666666,114.26793981481481,135.33333333333334,114.25462962962963,137.75,114.24131944444444C140.16666666666666,114.22800925925925,142.58333333333334,114.21469907407408,145,114.20138888888889C147.41666666666666,114.1880787037037,149.83333333333334,114.1747685185185,152.25,114.16145833333333C154.66666666666666,114.14814814814815,157.08333333333334,114.13483796296298,159.5,114.12152777777779C161.91666666666666,114.1082175925926,164.33333333333334,114.0949074074074,166.75,114.08159722222221C169.16666666666666,114.06828703703702,171.58333333333334,114.05497685185185,174,114.04166666666667C176.41666666666666,114.0283564814815,178.83333333333334,114.0150462962963,181.25,114.00173611111111C183.66666666666666,113.98842592592592,186.08333333333334,113.97511574074075,188.5,113.96180555555556C190.91666666666666,113.94849537037037,193.33333333333334,113.93518518518519,195.75,113.921875C198.16666666666669,113.90856481481481,200.58333333333334,113.89525462962963,203.00000000000003,113.88194444444444C205.41666666666669,113.86863425925925,207.83333333333331,113.85532407407406,210.24999999999997,113.84201388888889C212.66666666666666,113.8287037037037,215.08333333333331,113.81539351851853,217.5,113.80208333333334C219.91666666666666,113.78877314814815,222.33333333333334,113.77546296296296,224.75,113.76215277777777C227.16666666666666,113.74884259259258,229.58333333333334,113.73553240740742,232,113.72222222222223C234.41666666666666,113.70891203703704,236.83333333333334,113.69560185185186,239.25,113.68229166666667C241.66666666666669,113.66898148148148,244.08333333333334,113.6556712962963,246.50000000000003,113.64236111111111C248.91666666666669,113.62905092592592,251.33333333333331,113.61574074074075,253.74999999999997,113.60243055555556C256.16666666666663,113.58912037037037,258.5833333333333,113.57581018518519,261,113.5625C263.4166666666667,113.54918981481481,265.8333333333333,113.53587962962962,268.25,113.52256944444444C270.6666666666667,113.50925925925927,273.0833333333333,113.49594907407409,275.5,113.4826388888889C277.9166666666667,113.46932870370371,280.3333333333333,113.45601851851852,282.75,113.44270833333333C285.1666666666667,113.42939814814814,287.5833333333333,113.41608796296296,290,113.40277777777779C292.4166666666667,113.38946759259261,294.8333333333333,113.37615740740742,297.25,113.36284722222223C299.6666666666667,113.34953703703704,302.0833333333333,113.33622685185186,304.5,113.32291666666667C306.9166666666667,113.30960648148148,309.3333333333333,113.2962962962963,311.75,113.28298611111111C314.1666666666667,113.26967592592592,316.5833333333333,113.25636574074075,319,113.24305555555556C321.4166666666667,113.22974537037037,323.8333333333333,113.21643518518519,326.25,113.203125C328.6666666666667,113.18981481481481,331.0833333333333,113.17650462962963,333.5,113.16319444444444C335.9166666666667,113.14988425925925,338.3333333333333,113.13657407407408,340.75,113.12326388888889C343.1666666666667,113.1099537037037,345.5833333333333,113.09664351851852,348,113.08333333333333C350.4166666666667,113.07002314814814,352.8333333333333,113.05671296296296,355.25,113.04340277777777C357.6666666666667,113.03009259259258,360.0833333333333,113.01678240740739,362.5,113.00347222222221C364.9166666666667,112.99016203703704,367.3333333333333,112.97685185185186,369.75,112.96354166666667C372.1666666666667,112.95023148148148,374.5833333333333,112.93692129629629,377,112.9236111111111C379.4166666666667,112.91030092592591,381.8333333333333,112.89699074074073,384.25,112.88368055555556C386.6666666666667,112.87037037037038,389.0833333333333,112.85706018518519,391.5,112.84375C393.9166666666667,112.83043981481481,396.33333333333337,112.81712962962963,398.75000000000006,112.80381944444444C401.16666666666674,112.79050925925925,403.58333333333337,112.77719907407408,406.00000000000006,112.76388888888889C408.4166666666667,112.7505787037037,410.8333333333333,112.73726851851852,413.24999999999994,112.72395833333333C415.66666666666663,112.71064814814814,418.08333333333326,112.69733796296295,420.49999999999994,112.68402777777777C422.91666666666663,112.67071759259258,425.3333333333333,112.65740740740742,427.75,112.64409722222223C430.1666666666667,112.63078703703704,432.5833333333333,112.61747685185185,435,112.60416666666666C437.4166666666667,112.59085648148147,439.8333333333333,112.5775462962963,442.25,112.56423611111111C444.6666666666667,112.55092592592592,447.0833333333333,112.53761574074075,449.5,112.52430555555556C451.9166666666667,112.51099537037037,454.3333333333333,112.49768518518519,456.75,112.484375C459.1666666666667,112.47106481481481,461.5833333333333,112.45775462962963,464,112.44444444444444C466.4166666666667,112.43113425925925,468.8333333333333,112.41782407407408,471.25,112.40451388888889C473.6666666666667,112.3912037037037,476.0833333333333,112.3778935185185,478.5,112.36458333333333C480.9166666666667,112.35127314814814,483.33333333333337,112.33796296296298,485.75000000000006,112.32465277777779C488.16666666666674,112.3113425925926,490.58333333333337,112.2980324074074,493.00000000000006,112.28472222222221C495.4166666666667,112.27141203703702,497.8333333333333,112.25810185185185,500.24999999999994,112.24479166666667C502.66666666666663,112.23148148148148,505.08333333333326,112.2181712962963,507.49999999999994,112.20486111111111C509.91666666666663,112.19155092592592,512.3333333333333,112.17824074074075,514.75,112.16493055555556C517.1666666666666,112.15162037037037,519.5833333333334,112.13831018518519,522,112.125C524.4166666666666,112.11168981481481,526.8333333333334,112.09837962962963,529.25,112.08506944444444C531.6666666666666,112.07175925925925,534.0833333333334,112.05844907407408,536.5,112.04513888888889C538.9166666666666,112.0318287037037,541.3333333333334,112.01851851851853,543.75,112.00520833333334C546.1666666666666,111.99189814814815,548.5833333333334,111.97858796296296,551,111.96527777777777C553.4166666666666,111.95196759259258,555.8333333333334,111.93865740740742,558.25,111.92534722222223C560.6666666666666,111.91203703703704,563.0833333333334,111.89872685185186,565.5,111.88541666666667C567.9166666666666,111.87210648148148,570.3333333333334,111.8587962962963,572.75,111.84548611111111C575.1666666666666,111.83217592592592,577.5833333333334,111.81886574074075,580,111.80555555555556C582.4166666666666,111.79224537037037,584.8333333333334,111.77893518518519,587.25,111.765625C589.6666666666666,111.75231481481481,592.0833333333334,111.73900462962962,594.5,111.72569444444444C596.9166666666666,111.71238425925927,599.3333333333334,111.69907407407409,601.75,111.6857638888889C604.1666666666666,111.67245370370371,606.5833333333334,111.65914351851852,609,111.64583333333333C611.4166666666666,111.63252314814814,613.8333333333334,111.61921296296296,616.25,111.60590277777779C618.6666666666666,111.59259259259261,621.0833333333334,111.57928240740742,623.5,111.56597222222223C625.9166666666666,111.55266203703704,628.3333333333334,111.53935185185186,630.75,111.52604166666667C633.1666666666666,111.51273148148148,635.5833333333334,111.4994212962963,638,111.48611111111111C640.4166666666666,111.47280092592592,642.8333333333334,111.45949074074075,645.25,111.44618055555556C647.6666666666666,111.43287037037037,650.0833333333334,111.41956018518519,652.5,111.40625C654.9166666666666,111.39293981481481,657.3333333333334,111.37962962962963,659.75,111.36631944444444C662.1666666666666,111.35300925925925,664.5833333333334,111.33969907407408,667,111.32638888888889C669.4166666666666,111.3130787037037,671.8333333333334,111.29976851851852,674.25,111.28645833333333C676.6666666666666,111.27314814814814,679.0833333333334,111.25983796296296,681.5,111.24652777777777C683.9166666666666,111.23321759259258,686.3333333333334,111.21990740740739,688.75,111.20659722222221C691.1666666666666,111.19328703703704,693.5833333333334,111.17997685185186,696,111.16666666666667C698.4166666666666,111.15335648148148,700.8333333333334,111.14004629629629,703.25,111.1267361111111C705.6666666666666,111.11342592592591,708.0833333333334,111.10011574074073,710.5,111.08680555555556C712.9166666666666,111.07349537037038,715.3333333333334,111.06018518518519,717.75,111.046875C720.1666666666666,111.03356481481481,722.5833333333334,111.02025462962963,725,111.00694444444444C727.4166666666666,110.99363425925925,729.8333333333334,110.98032407407408,732.25,110.96701388888889C734.6666666666666,110.9537037037037,737.0833333333334,110.94039351851852,739.5,110.92708333333333C741.9166666666666,110.91377314814814,744.3333333333334,110.90046296296296,746.75,110.88715277777777C749.1666666666666,110.87384259259258,751.5833333333334,110.86053240740742,754,110.84722222222223C756.4166666666666,110.83391203703704,758.8333333333334,110.82060185185185,761.25,110.80729166666666C763.6666666666666,110.79398148148147,766.0833333333334,110.7806712962963,768.5,110.76736111111111C770.9166666666666,110.75405092592592,773.3333333333334,110.74074074074075,775.75,110.72743055555556C778.1666666666666,110.71412037037037,780.5833333333334,110.70081018518519,783,110.6875C785.4166666666667,110.67418981481481,787.8333333333334,110.66087962962963,790.2500000000001,110.64756944444444C792.6666666666667,110.63425925925925,795.0833333333335,110.62094907407408,797.5000000000001,110.60763888888889C799.9166666666667,110.5943287037037,802.3333333333335,110.5810185185185,804.7500000000001,110.56770833333333C807.1666666666667,110.55439814814815,809.5833333333335,110.54108796296298,812.0000000000001,110.52777777777779C814.4166666666667,110.5144675925926,816.8333333333333,110.5011574074074,819.2499999999999,110.48784722222221C821.6666666666665,110.47453703703702,824.0833333333333,110.46122685185185,826.4999999999999,110.44791666666667C828.9166666666665,110.4346064814815,831.3333333333333,110.4212962962963,833.7499999999999,110.40798611111111C836.1666666666665,110.39467592592592,838.5833333333333,110.38136574074075,840.9999999999999,110.36805555555556C843.4166666666666,110.35474537037037,845.8333333333333,110.34143518518519,848.25,110.328125C850.6666666666666,110.31481481481481,853.0833333333334,110.30150462962963,855.5,110.28819444444444C857.9166666666666,110.27488425925925,860.3333333333334,110.26157407407408,862.75,110.24826388888889C865.1666666666666,110.2349537037037,867.5833333333334,110.22164351851853,870,110.20833333333334C872.4166666666666,110.19502314814815,874.8333333333334,110.18171296296296,877.25,110.16840277777777C879.6666666666666,110.15509259259258,882.0833333333334,110.14178240740742,884.5,110.12847222222223C886.9166666666666,110.11516203703704,889.3333333333334,110.10185185185186,891.75,110.08854166666667C894.1666666666666,110.07523148148148,896.5833333333334,110.0619212962963,899,110.04861111111111C901.4166666666666,110.03530092592592,903.8333333333334,110.02199074074075,906.25,110.00868055555556C908.6666666666666,109.99537037037037,911.0833333333334,109.98206018518519,913.5,109.96875C915.9166666666666,109.95543981481481,918.3333333333334,109.94212962962962,920.75,109.92881944444444C923.1666666666666,109.91550925925927,925.5833333333334,109.90219907407409,928,109.8888888888889C930.4166666666666,109.87557870370371,932.8333333333334,109.86226851851852,935.25,109.84895833333333C937.6666666666666,109.83564814814814,940.0833333333334,109.82233796296296,942.5,109.80902777777779C944.9166666666666,109.79571759259261,947.3333333333334,109.78240740740742,949.75,109.76909722222223C952.1666666666666,109.75578703703704,954.5833333333334,109.74247685185186,957,109.72916666666667C959.4166666666666,109.71585648148148,961.8333333333334,109.7025462962963,964.25,109.68923611111111C966.6666666666667,109.67592592592592,969.0833333333334,109.66261574074075,971.5000000000001,109.64930555555556C973.9166666666667,109.63599537037037,976.3333333333335,109.62268518518519,978.7500000000001,109.609375C981.1666666666667,109.59606481481481,983.5833333333335,109.58275462962963,986.0000000000001,109.56944444444444C988.4166666666667,109.55613425925925,990.8333333333335,109.54282407407408,993.2500000000001,109.52951388888889C995.6666666666667,109.51620370370371,998.0833333333333,109.50289351851853,1000.4999999999999,109.48958333333334C1002.9166666666665,109.47627314814815,1005.3333333333333,109.46296296296296,1007.7499999999999,109.44965277777777C1010.1666666666665,109.43634259259258,1012.5833333333333,109.42303240740739,1014.9999999999999,109.40972222222221C1017.4166666666665,109.39641203703704,1019.8333333333333,109.38310185185186,1022.2499999999999,109.36979166666667C1024.6666666666665,109.35648148148148,1027.0833333333333,109.34317129629629,1029.5,109.3298611111111C1031.9166666666667,109.31655092592591,1034.3333333333333,109.30324074074073,1036.75,109.28993055555556C1039.1666666666667,109.27662037037038,1041.5833333333333,109.26331018518519,1044,109.25C1046.4166666666667,109.23668981481481,1048.8333333333333,109.22337962962963,1051.25,109.21006944444444C1053.6666666666667,109.19675925925925,1056.0833333333333,109.18344907407408,1058.5,109.17013888888889C1060.9166666666667,109.1568287037037,1063.3333333333333,109.14351851851852,1065.75,109.13020833333333C1068.1666666666667,109.11689814814814,1070.5833333333333,109.10358796296296,1073,109.09027777777777C1075.4166666666667,109.07696759259258,1077.8333333333333,109.06365740740742,1080.25,109.05034722222223C1082.6666666666667,109.03703703703704,1085.0833333333333,109.02372685185185,1087.5,109.01041666666666C1089.9166666666667,108.99710648148147,1092.3333333333333,108.9837962962963,1094.75,108.97048611111111C1097.1666666666667,108.95717592592592,1099.5833333333333,108.94386574074075,1102,108.93055555555556C1104.4166666666667,108.91724537037037,1106.8333333333333,108.90393518518519,1109.25,108.890625C1111.6666666666667,108.87731481481481,1114.0833333333333,108.86400462962963,1116.5,108.85069444444444C1118.9166666666667,108.83738425925925,1121.3333333333333,108.82407407407408,1123.75,108.81076388888889C1126.1666666666667,108.7974537037037,1128.5833333333333,108.7841435185185,1131,108.77083333333333C1133.4166666666667,108.75752314814815,1135.8333333333333,108.74421296296298,1138.25,108.73090277777779C1140.6666666666667,108.7175925925926,1143.0833333333333,108.7042824074074,1145.5,108.69097222222221C1147.9166666666667,108.67766203703702,1150.3333333333333,108.66435185185185,1152.75,108.65104166666667C1155.1666666666667,108.6377314814815,1157.5833333333333,108.6244212962963,1160,108.61111111111111C1162.4166666666667,108.59780092592592,1164.8333333333333,108.58449074074075,1167.25,108.57118055555556C1169.6666666666667,108.55787037037037,1172.0833333333333,108.54456018518519,1174.5,108.53125C1176.9166666666667,108.51793981481481,1179.3333333333333,108.50462962962963,1181.75,108.49131944444444C1184.1666666666667,108.47800925925925,1186.5833333333333,108.46469907407408,1189,108.45138888888889C1191.4166666666667,108.4380787037037,1193.8333333333333,108.42476851851853,1196.25,108.41145833333334C1198.6666666666667,108.39814814814815,1201.0833333333333,108.38483796296296,1203.5,108.37152777777777C1205.9166666666667,108.35821759259258,1208.3333333333333,108.34490740740742,1210.75,108.33159722222223C1213.1666666666667,108.31828703703704,1215.5833333333333,108.30497685185186,1218,108.29166666666667C1220.4166666666667,108.27835648148148,1222.8333333333333,108.2650462962963,1225.25,108.25173611111111C1227.6666666666667,108.23842592592592,1230.0833333333333,108.22511574074075,1232.5,108.21180555555556C1234.9166666666667,108.19849537037037,1237.3333333333333,108.18518518518519,1239.75,108.171875C1242.1666666666667,108.15856481481481,1244.5833333333333,108.14525462962962,1247,108.13194444444444C1249.4166666666667,108.11863425925927,1251.8333333333333,108.10532407407409,1254.25,108.0920138888889C1256.6666666666667,108.07870370370371,1259.0833333333333,108.06539351851852,1261.5,108.05208333333333C1263.9166666666667,108.03877314814814,1266.3333333333333,108.02546296296296,1268.75,108.01215277777779C1271.1666666666667,107.99884259259261,1273.5833333333333,107.98553240740742,1276,107.97222222222223C1278.4166666666667,107.95891203703704,1280.8333333333333,107.94560185185186,1283.25,107.93229166666667C1285.6666666666667,107.91898148148148,1288.0833333333333,107.9056712962963,1290.5,107.89236111111111C1292.9166666666667,107.87905092592592,1295.3333333333333,107.86574074074075,1297.75,107.85243055555556C1300.1666666666667,107.83912037037037,1302.5833333333333,107.83912037037037,1305,107.8125C1307.4166666666667,107.78587962962963,1309.8333333333333,104.9375,1312.25,103.5C1314.6666666666667,102.0625,1317.0833333333333,100.625,1319.5,99.1875C1321.9166666666667,97.75,1324.3333333333333,96.3125,1326.75,94.875C1329.1666666666667,93.4375,1331.5833333333333,92,1334,90.5625C1336.4166666666667,89.125,1338.8333333333333,87.6875,1341.25,86.25C1343.6666666666667,84.8125,1346.0833333333333,83.375,1348.5,81.9375C1350.9166666666667,80.5,1353.3333333333333,79.0625,1355.75,77.625C1358.1666666666667,76.1875,1360.5833333333333,74.75000000000001,1363,73.31250000000001C1365.4166666666667,71.87500000000001,1367.8333333333333,70.4375,1370.25,69C1372.6666666666667,67.5625,1375.0833333333333,66.125,1377.5,64.6875C1379.9166666666667,63.25,1382.3333333333333,61.8125,1384.75,60.375C1387.1666666666667,58.9375,1389.5833333333333,57.50000000000001,1392,56.06250000000001C1394.4166666666667,54.62500000000001,1396.8333333333333,53.18749999999999,1399.25,51.74999999999999C1401.6666666666667,50.31249999999999,1404.0833333333333,48.875,1406.5,47.4375C1408.9166666666667,46,1411.3333333333333,44.5625,1413.75,43.125C1416.1666666666667,41.6875,1418.5833333333333,40.25,1421,38.8125C1423.4166666666667,37.375,1425.8333333333333,35.93749999999999,1428.25,34.49999999999999C1430.6666666666667,33.06249999999999,1433.0833333333333,31.624999999999996,1435.5,30.187499999999996C1437.9166666666667,28.749999999999996,1440.3333333333333,27.312499999999996,1442.75,25.874999999999996C1445.1666666666667,24.437499999999996,1447.5833333333333,23,1450,21.5625" fill="transparent" stroke-linecap="round" stroke="#B6509E" stroke-width="2"></path><path class="visx-linepath" d="M0,100.62499999996805C2.4166666666666665,100.61967592590729,4.833333333333334,100.61435185184652,7.25,100.60902777777777C9.666666666666666,100.60370370370902,12.083333333333334,100.59837962962962,14.5,100.59305555555555C16.916666666666668,100.58773148148148,19.333333333333332,100.58240740740739,21.75,100.57708333333332C24.166666666666668,100.57175925925925,26.583333333333332,100.56643518518518,29,100.56111111111112C31.416666666666668,100.55578703703705,33.833333333333336,100.55046296296297,36.25,100.54513888888889C38.666666666666664,100.5398148148148,41.083333333333336,100.53449074074074,43.5,100.52916666666667C45.91666666666667,100.5238425925926,48.333333333333336,100.51851851851852,50.75000000000001,100.51319444444445C53.16666666666667,100.50787037037038,55.583333333333336,100.5025462962963,58,100.49722222222223C60.416666666666664,100.49189814814815,62.833333333333336,100.48657407407408,65.25,100.48125C67.66666666666667,100.47592592592592,70.08333333333333,100.47060185185185,72.5,100.46527777777777C74.91666666666667,100.45995370370369,77.33333333333333,100.45462962962964,79.75,100.44930555555555C82.16666666666667,100.44398148148147,84.58333333333333,100.43865740740739,87,100.43333333333332C89.41666666666667,100.42800925925926,91.83333333333333,100.42268518518517,94.25,100.4173611111111C96.66666666666667,100.41203703703704,99.08333333333334,100.40671296296296,101.50000000000001,100.40138888888889C103.91666666666667,100.39606481481482,106.33333333333334,100.39074074074074,108.75,100.38541666666667C111.16666666666667,100.38009259259259,113.58333333333333,100.37476851851851,116,100.36944444444444C118.41666666666667,100.36412037037037,120.83333333333334,100.3587962962963,123.25000000000001,100.35347222222224C125.66666666666667,100.34814814814817,128.08333333333334,100.34282407407407,130.5,100.3375C132.91666666666666,100.33217592592592,135.33333333333334,100.32685185185187,137.75,100.32152777777779C140.16666666666666,100.3162037037037,142.58333333333334,100.31087962962964,145,100.30555555555556C147.41666666666666,100.30023148148148,149.83333333333334,100.29490740740741,152.25,100.28958333333333C154.66666666666666,100.28425925925924,157.08333333333334,100.27893518518519,159.5,100.27361111111111C161.91666666666666,100.26828703703703,164.33333333333334,100.26296296296294,166.75,100.25763888888888C169.16666666666666,100.25231481481481,171.58333333333334,100.24699074074073,174,100.24166666666666C176.41666666666666,100.23634259259259,178.83333333333334,100.23101851851851,181.25,100.22569444444444C183.66666666666666,100.22037037037038,186.08333333333334,100.2150462962963,188.5,100.20972222222223C190.91666666666666,100.20439814814816,193.33333333333334,100.19907407407408,195.75,100.19375000000001C198.16666666666669,100.18842592592594,200.58333333333334,100.18310185185187,203.00000000000003,100.17777777777779C205.41666666666669,100.17245370370372,207.83333333333331,100.16712962962964,210.24999999999997,100.16180555555556C212.66666666666666,100.15648148148148,215.08333333333331,100.15115740740741,217.5,100.14583333333333C219.91666666666666,100.14050925925926,222.33333333333334,100.13518518518518,224.75,100.12986111111111C227.16666666666666,100.12453703703704,229.58333333333334,100.11921296296296,232,100.11388888888888C234.41666666666666,100.1085648148148,236.83333333333334,100.10324074074073,239.25,100.09791666666666C241.66666666666669,100.09259259259258,244.08333333333334,100.0872685185185,246.50000000000003,100.08194444444443C248.91666666666669,100.07662037037036,251.33333333333331,100.0712962962963,253.74999999999997,100.06597222222223C256.16666666666663,100.06064814814816,258.5833333333333,100.05532407407408,261,100.05C263.4166666666667,100.04467592592593,265.8333333333333,100.03935185185185,268.25,100.03402777777778C270.6666666666667,100.02870370370371,273.0833333333333,100.02337962962963,275.5,100.01805555555556C277.9166666666667,100.0127314814815,280.3333333333333,100.00740740740741,282.75,100.00208333333333C285.1666666666667,99.99675925925925,287.5833333333333,99.9914351851852,290,99.98611111111111C292.4166666666667,99.98078703703703,294.8333333333333,99.97546296296295,297.25,99.97013888888888C299.6666666666667,99.96481481481482,302.0833333333333,99.95949074074073,304.5,99.95416666666667C306.9166666666667,99.9488425925926,309.3333333333333,99.94351851851852,311.75,99.93819444444443C314.1666666666667,99.93287037037035,316.5833333333333,99.92754629629628,319,99.92222222222222C321.4166666666667,99.91689814814815,323.8333333333333,99.91157407407407,326.25,99.90625C328.6666666666667,99.90092592592593,331.0833333333333,99.89560185185186,333.5,99.89027777777778C335.9166666666667,99.8849537037037,338.3333333333333,99.87962962962962,340.75,99.87430555555555C343.1666666666667,99.86898148148148,345.5833333333333,99.8636574074074,348,99.85833333333333C350.4166666666667,99.85300925925927,352.8333333333333,99.84768518518518,355.25,99.84236111111112C357.6666666666667,99.83703703703705,360.0833333333333,99.83171296296297,362.5,99.82638888888889C364.9166666666667,99.8210648148148,367.3333333333333,99.81574074074075,369.75,99.81041666666667C372.1666666666667,99.80509259259259,374.5833333333333,99.7997685185185,377,99.79444444444444C379.4166666666667,99.78912037037037,381.8333333333333,99.78379629629629,384.25,99.77847222222222C386.6666666666667,99.77314814814815,389.0833333333333,99.76782407407406,391.5,99.76249999999999C393.9166666666667,99.75717592592592,396.33333333333337,99.75185185185185,398.75000000000006,99.74652777777779C401.16666666666674,99.74120370370372,403.58333333333337,99.73587962962964,406.00000000000006,99.73055555555555C408.4166666666667,99.72523148148149,410.8333333333333,99.7199074074074,413.24999999999994,99.71458333333334C415.66666666666663,99.70925925925927,418.08333333333326,99.70393518518519,420.49999999999994,99.69861111111112C422.91666666666663,99.69328703703704,425.3333333333333,99.68796296296297,427.75,99.68263888888889C430.1666666666667,99.67731481481482,432.5833333333333,99.67199074074074,435,99.66666666666667C437.4166666666667,99.6613425925926,439.8333333333333,99.65601851851852,442.25,99.65069444444444C444.6666666666667,99.64537037037036,447.0833333333333,99.6400462962963,449.5,99.63472222222222C451.9166666666667,99.62939814814814,454.3333333333333,99.62407407407406,456.75,99.61874999999999C459.1666666666667,99.61342592592592,461.5833333333333,99.60810185185184,464,99.60277777777777C466.4166666666667,99.5974537037037,468.8333333333333,99.59212962962962,471.25,99.58680555555556C473.6666666666667,99.58148148148149,476.0833333333333,99.57615740740741,478.5,99.57083333333334C480.9166666666667,99.56550925925926,483.33333333333337,99.56018518518519,485.75000000000006,99.55486111111111C488.16666666666674,99.54953703703704,490.58333333333337,99.54421296296296,493.00000000000006,99.53888888888889C495.4166666666667,99.53356481481482,497.8333333333333,99.52824074074074,500.24999999999994,99.52291666666667C502.66666666666663,99.51759259259259,505.08333333333326,99.51226851851851,507.49999999999994,99.50694444444444C509.91666666666663,99.50162037037036,512.3333333333333,99.49629629629631,514.75,99.49097222222223C517.1666666666666,99.48564814814816,519.5833333333334,99.48032407407408,522,99.475C524.4166666666666,99.46967592592591,526.8333333333334,99.46435185185186,529.25,99.45902777777778C531.6666666666666,99.4537037037037,534.0833333333334,99.44837962962961,536.5,99.44305555555555C538.9166666666666,99.43773148148148,541.3333333333334,99.4324074074074,543.75,99.42708333333333C546.1666666666666,99.42175925925926,548.5833333333334,99.41643518518518,551,99.41111111111111C553.4166666666666,99.40578703703704,555.8333333333334,99.40046296296296,558.25,99.3951388888889C560.6666666666666,99.38981481481483,563.0833333333334,99.38449074074074,565.5,99.37916666666668C567.9166666666666,99.37384259259261,570.3333333333334,99.36851851851853,572.75,99.36319444444445C575.1666666666666,99.35787037037036,577.5833333333334,99.35254629629631,580,99.34722222222223C582.4166666666666,99.34189814814815,584.8333333333334,99.33657407407406,587.25,99.33125C589.6666666666666,99.32592592592593,592.0833333333334,99.32060185185185,594.5,99.31527777777778C596.9166666666666,99.30995370370371,599.3333333333334,99.30462962962963,601.75,99.29930555555555C604.1666666666666,99.29398148148147,606.5833333333334,99.28865740740741,609,99.28333333333333C611.4166666666666,99.27800925925925,613.8333333333334,99.27268518518517,616.25,99.2673611111111C618.6666666666666,99.26203703703703,621.0833333333334,99.25671296296296,623.5,99.2513888888889C625.9166666666666,99.24606481481483,628.3333333333334,99.24074074074073,630.75,99.23541666666667C633.1666666666666,99.2300925925926,635.5833333333334,99.22476851851852,638,99.21944444444445C640.4166666666666,99.21412037037038,642.8333333333334,99.2087962962963,645.25,99.20347222222223C647.6666666666666,99.19814814814816,650.0833333333334,99.19282407407408,652.5,99.1875C654.9166666666666,99.18217592592592,657.3333333333334,99.17685185185186,659.75,99.17152777777778C662.1666666666666,99.1662037037037,664.5833333333334,99.16087962962962,667,99.15555555555555C669.4166666666666,99.15023148148148,671.8333333333334,99.1449074074074,674.25,99.13958333333333C676.6666666666666,99.13425925925927,679.0833333333334,99.12893518518518,681.5,99.1236111111111C683.9166666666666,99.11828703703702,686.3333333333334,99.11296296296295,688.75,99.10763888888889C691.1666666666666,99.10231481481482,693.5833333333334,99.09699074074074,696,99.09166666666667C698.4166666666666,99.0863425925926,700.8333333333334,99.08101851851853,703.25,99.07569444444445C705.6666666666666,99.07037037037037,708.0833333333334,99.06504629629629,710.5,99.05972222222222C712.9166666666666,99.05439814814815,715.3333333333334,99.04907407407407,717.75,99.04375C720.1666666666666,99.03842592592594,722.5833333333334,99.03310185185185,725,99.02777777777779C727.4166666666666,99.02245370370372,729.8333333333334,99.01712962962964,732.25,99.01180555555555C734.6666666666666,99.00648148148147,737.0833333333334,99.00115740740742,739.5,98.99583333333334C741.9166666666666,98.99050925925926,744.3333333333334,98.98518518518517,746.75,98.9798611111111C749.1666666666666,98.97453703703704,751.5833333333334,98.96921296296296,754,98.96388888888889C756.4166666666666,98.95856481481482,758.8333333333334,98.95324074074074,761.25,98.94791666666666C763.6666666666666,98.94259259259258,766.0833333333334,98.93726851851851,768.5,98.93194444444444C770.9166666666666,98.92662037037037,773.3333333333334,98.9212962962963,775.75,98.91597222222222C778.1666666666666,98.91064814814814,780.5833333333334,98.90532407407406,783,98.89999999999999C785.4166666666667,98.89467592592592,787.8333333333334,98.88935185185186,790.2500000000001,98.88402777777779C792.6666666666667,98.87870370370372,795.0833333333335,98.87337962962962,797.5000000000001,98.86805555555556C799.9166666666667,98.86273148148149,802.3333333333335,98.85740740740741,804.7500000000001,98.85208333333334C807.1666666666667,98.84675925925927,809.5833333333335,98.84143518518519,812.0000000000001,98.83611111111111C814.4166666666667,98.83078703703704,816.8333333333333,98.82546296296296,819.2499999999999,98.82013888888889C821.6666666666665,98.81481481481481,824.0833333333333,98.80949074074073,826.4999999999999,98.80416666666666C828.9166666666665,98.79884259259259,831.3333333333333,98.79351851851851,833.7499999999999,98.78819444444444C836.1666666666665,98.78287037037038,838.5833333333333,98.7775462962963,840.9999999999999,98.77222222222223C843.4166666666666,98.76689814814816,845.8333333333333,98.76157407407409,848.25,98.75625000000001C850.6666666666666,98.75092592592594,853.0833333333334,98.74560185185186,855.5,98.74027777777778C857.9166666666666,98.7349537037037,860.3333333333334,98.72962962962961,862.75,98.72430555555555C865.1666666666666,98.71898148148148,867.5833333333334,98.71365740740741,870,98.70833333333334C872.4166666666666,98.70300925925928,874.8333333333334,98.69768518518518,877.25,98.69236111111111C879.6666666666666,98.68703703703704,882.0833333333334,98.68171296296296,884.5,98.6763888888889C886.9166666666666,98.67106481481483,889.3333333333334,98.66574074074074,891.75,98.66041666666666C894.1666666666666,98.65509259259258,896.5833333333334,98.64976851851853,899,98.64444444444445C901.4166666666666,98.63912037037036,903.8333333333334,98.63379629629628,906.25,98.62847222222221C908.6666666666666,98.62314814814815,911.0833333333334,98.61782407407406,913.5,98.6125C915.9166666666666,98.60717592592593,918.3333333333334,98.60185185185185,920.75,98.59652777777778C923.1666666666666,98.59120370370371,925.5833333333334,98.58587962962963,928,98.58055555555555C930.4166666666666,98.57523148148147,932.8333333333334,98.5699074074074,935.25,98.56458333333333C937.6666666666666,98.55925925925926,940.0833333333334,98.55393518518518,942.5,98.54861111111111C944.9166666666666,98.54328703703705,947.3333333333334,98.53796296296298,949.75,98.5326388888889C952.1666666666666,98.52731481481482,954.5833333333334,98.52199074074073,957,98.51666666666667C959.4166666666666,98.5113425925926,961.8333333333334,98.50601851851852,964.25,98.50069444444445C966.6666666666667,98.49537037037037,969.0833333333334,98.4900462962963,971.5000000000001,98.48472222222222C973.9166666666667,98.47939814814815,976.3333333333335,98.47407407407408,978.7500000000001,98.46875C981.1666666666667,98.46342592592592,983.5833333333335,98.45810185185184,986.0000000000001,98.45277777777777C988.4166666666667,98.4474537037037,990.8333333333335,98.44212962962962,993.2500000000001,98.43680555555555C995.6666666666667,98.43148148148148,998.0833333333333,98.4261574074074,1000.4999999999999,98.42083333333333C1002.9166666666665,98.41550925925925,1005.3333333333333,98.41018518518517,1007.7499999999999,98.4048611111111C1010.1666666666665,98.39953703703704,1012.5833333333333,98.39421296296297,1014.9999999999999,98.3888888888889C1017.4166666666665,98.38356481481483,1019.8333333333333,98.37824074074074,1022.2499999999999,98.37291666666667C1024.6666666666665,98.36759259259259,1027.0833333333333,98.36226851851853,1029.5,98.35694444444445C1031.9166666666667,98.35162037037038,1034.3333333333333,98.34629629629629,1036.75,98.34097222222222C1039.1666666666667,98.33564814814815,1041.5833333333333,98.33032407407407,1044,98.325C1046.4166666666667,98.31967592592594,1048.8333333333333,98.31435185185185,1051.25,98.30902777777777C1053.6666666666667,98.30370370370369,1056.0833333333333,98.29837962962962,1058.5,98.29305555555555C1060.9166666666667,98.28773148148149,1063.3333333333333,98.28240740740742,1065.75,98.27708333333334C1068.1666666666667,98.27175925925926,1070.5833333333333,98.26643518518517,1073,98.2611111111111C1075.4166666666667,98.25578703703704,1077.8333333333333,98.25046296296296,1080.25,98.24513888888889C1082.6666666666667,98.23981481481482,1085.0833333333333,98.23449074074074,1087.5,98.22916666666667C1089.9166666666667,98.2238425925926,1092.3333333333333,98.21851851851852,1094.75,98.21319444444445C1097.1666666666667,98.20787037037039,1099.5833333333333,98.2025462962963,1102,98.19722222222222C1104.4166666666667,98.19189814814814,1106.8333333333333,98.18657407407409,1109.25,98.18125C1111.6666666666667,98.17592592592592,1114.0833333333333,98.17060185185184,1116.5,98.16527777777777C1118.9166666666667,98.1599537037037,1121.3333333333333,98.15462962962962,1123.75,98.14930555555556C1126.1666666666667,98.14398148148149,1128.5833333333333,98.13865740740741,1131,98.13333333333333C1133.4166666666667,98.12800925925924,1135.8333333333333,98.12268518518518,1138.25,98.11736111111111C1140.6666666666667,98.11203703703704,1143.0833333333333,98.10671296296297,1145.5,98.10138888888889C1147.9166666666667,98.09606481481481,1150.3333333333333,98.09074074074073,1152.75,98.08541666666666C1155.1666666666667,98.08009259259259,1157.5833333333333,98.07476851851852,1160,98.06944444444446C1162.4166666666667,98.06412037037039,1164.8333333333333,98.0587962962963,1167.25,98.05347222222223C1169.6666666666667,98.04814814814816,1172.0833333333333,98.04282407407408,1174.5,98.03750000000001C1176.9166666666667,98.03217592592594,1179.3333333333333,98.02685185185186,1181.75,98.02152777777778C1184.1666666666667,98.0162037037037,1186.5833333333333,98.01087962962964,1189,98.00555555555556C1191.4166666666667,98.00023148148148,1193.8333333333333,97.9949074074074,1196.25,97.98958333333333C1198.6666666666667,97.98425925925926,1201.0833333333333,97.97893518518518,1203.5,97.97361111111111C1205.9166666666667,97.96828703703704,1208.3333333333333,97.96296296296296,1210.75,97.95763888888888C1213.1666666666667,97.9523148148148,1215.5833333333333,97.94699074074073,1218,97.94166666666666C1220.4166666666667,97.9363425925926,1222.8333333333333,97.93101851851853,1225.25,97.92569444444445C1227.6666666666667,97.92037037037036,1230.0833333333333,97.91504629629628,1232.5,97.90972222222221C1234.9166666666667,97.90439814814815,1237.3333333333333,97.89907407407408,1239.75,97.89375000000001C1242.1666666666667,97.88842592592594,1244.5833333333333,97.88310185185185,1247,97.87777777777778C1249.4166666666667,97.87245370370371,1251.8333333333333,97.86712962962963,1254.25,97.86180555555556C1256.6666666666667,97.8564814814815,1259.0833333333333,97.85115740740741,1261.5,97.84583333333333C1263.9166666666667,97.84050925925925,1266.3333333333333,97.8351851851852,1268.75,97.82986111111111C1271.1666666666667,97.82453703703703,1273.5833333333333,97.81921296296295,1276,97.81388888888888C1278.4166666666667,97.80856481481482,1280.8333333333333,97.80324074074073,1283.25,97.79791666666667C1285.6666666666667,97.7925925925926,1288.0833333333333,97.78726851851852,1290.5,97.78194444444445C1292.9166666666667,97.77662037037038,1295.3333333333333,97.7712962962963,1297.75,97.76597222222222C1300.1666666666667,97.76064814814814,1302.5833333333333,97.76064814814815,1305,97.75C1307.4166666666667,97.73935185185185,1309.8333333333333,94.875,1312.25,93.4375C1314.6666666666667,92,1317.0833333333333,90.5625,1319.5,89.125C1321.9166666666667,87.6875,1324.3333333333333,86.25,1326.75,84.8125C1329.1666666666667,83.375,1331.5833333333333,81.9375,1334,80.5C1336.4166666666667,79.0625,1338.8333333333333,77.625,1341.25,76.1875C1343.6666666666667,74.75,1346.0833333333333,73.3125,1348.5,71.875C1350.9166666666667,70.4375,1353.3333333333333,69,1355.75,67.5625C1358.1666666666667,66.125,1360.5833333333333,64.68750000000001,1363,63.25000000000001C1365.4166666666667,61.81250000000001,1367.8333333333333,60.37499999999999,1370.25,58.93749999999999C1372.6666666666667,57.49999999999999,1375.0833333333333,56.0625,1377.5,54.625C1379.9166666666667,53.1875,1382.3333333333333,51.75,1384.75,50.3125C1387.1666666666667,48.875,1389.5833333333333,47.4375,1392,46C1394.4166666666667,44.5625,1396.8333333333333,43.12500000000001,1399.25,41.68750000000001C1401.6666666666667,40.25000000000001,1404.0833333333333,38.81249999999999,1406.5,37.37499999999999C1408.9166666666667,35.93749999999999,1411.3333333333333,34.50000000000001,1413.75,33.06250000000001C1416.1666666666667,31.625000000000007,1418.5833333333333,30.1875,1421,28.75C1423.4166666666667,27.3125,1425.8333333333333,25.875000000000004,1428.25,24.437500000000004C1430.6666666666667,23.000000000000004,1433.0833333333333,21.562500000000004,1435.5,20.125000000000004C1437.9166666666667,18.687500000000004,1440.3333333333333,17.249999999999996,1442.75,15.812499999999995C1445.1666666666667,14.374999999999995,1447.5833333333333,12.937499999999996,1450,11.499999999999998" fill="transparent" stroke-linecap="round" stroke="#E7C6DF" stroke-width="2"></path><g class="visx-group visx-axis visx-axis-bottom" transform="translate(0, 115)"><g class="visx-group visx-axis-tick" transform="translate(0, 0)"><line class="visx-line" x1="0" y1="0" x2="0" y2="8" fill="transparent" shape-rendering="crispEdges" stroke="#000" stroke-width="0" stroke-linecap="square"></line><svg x="0" y="0" font-size="10" style="overflow:visible"><text transform="" x="0" y="18" fill="#000" font-size="10" text-anchor="middle"><tspan x="0" dy="0em">0%</tspan></text></svg></g><g class="visx-group visx-axis-tick" transform="translate(0, 0)"><line class="visx-line" x1="362.5" y1="0" x2="362.5" y2="8" fill="transparent" shape-rendering="crispEdges" stroke="#000" stroke-width="0" stroke-linecap="square"></line><svg x="0" y="0" font-size="10" style="overflow:visible"><text transform="" x="362.5" y="18" fill="#000" font-size="10" text-anchor="middle"><tspan x="362.5" dy="0em">25%</tspan></text></svg></g><g class="visx-group visx-axis-tick" transform="translate(0, 0)"><line class="visx-line" x1="725" y1="0" x2="725" y2="8" fill="transparent" shape-rendering="crispEdges" stroke="#000" stroke-width="0" stroke-linecap="square"></line><svg x="0" y="0" font-size="10" style="overflow:visible"><text transform="" x="725" y="18" fill="#000" font-size="10" text-anchor="middle"><tspan x="725" dy="0em">50%</tspan></text></svg></g><g class="visx-group visx-axis-tick" transform="translate(0, 0)"><line class="visx-line" x1="1087.5" y1="0" x2="1087.5" y2="8" fill="transparent" shape-rendering="crispEdges" stroke="#000" stroke-width="0" stroke-linecap="square"></line><svg x="0" y="0" font-size="10" style="overflow:visible"><text transform="" x="1087.5" y="18" fill="#000" font-size="10" text-anchor="middle"><tspan x="1087.5" dy="0em">75%</tspan></text></svg></g><g class="visx-group visx-axis-tick" transform="translate(0, 0)"><line class="visx-line" x1="1450" y1="0" x2="1450" y2="8" fill="transparent" shape-rendering="crispEdges" stroke="#000" stroke-width="0" stroke-linecap="square"></line><svg x="0" y="0" font-size="10" style="overflow:visible"><text transform="" x="1450" y="18" fill="#000" font-size="10" text-anchor="middle"><tspan x="1450" dy="0em">100%</tspan></text></svg></g><line class="visx-line visx-axis-line" x1="0.5" y1="0" x2="1450.5" y2="0" fill="transparent" shape-rendering="crispEdges" stroke="#222" stroke-width="0"></line></g><g class="visx-group visx-axis visx-axis-left" transform="translate(0, 0)"><g class="visx-group visx-axis-tick" transform="translate(0, 0)"><line class="visx-line" x1="0" y1="115" x2="-8" y2="115" fill="transparent" shape-rendering="crispEdges" stroke="#222" stroke-width="0" stroke-linecap="square"></line><svg x="-30" y="0" font-size="8" style="overflow:visible"><text transform="" x="-8" y="115" fill="#000" font-size="8" text-anchor="start"><tspan x="-8" dy="0em">0%</tspan></text></svg></g><g class="visx-group visx-axis-tick" transform="translate(0, 0)"><line class="visx-line" x1="0" y1="43.125" x2="-8" y2="43.125" fill="transparent" shape-rendering="crispEdges" stroke="#222" stroke-width="0" stroke-linecap="square"></line><svg x="-30" y="0" font-size="8" style="overflow:visible"><text transform="" x="-8" y="43.125" fill="#000" font-size="8" text-anchor="start"><tspan x="-8" dy="0em">50%</tspan></text></svg></g><line class="visx-line visx-axis-line" x1="0" y1="115.5" x2="0" y2="0.5" fill="transparent" shape-rendering="crispEdges" stroke="#222" stroke-width="0"></line></g><rect class="visx-bar" width="1450" height="115" fill="transparent"></rect><line class="visx-line" x1="1305" y1="28" x2="1305" y2="115" fill="transparent" shape-rendering="crispEdges" stroke="#0062D2" stroke-width="1" pointer-events="none" stroke-dasharray="5,2"></line><svg x="0" y="0" font-size="10px" style="overflow:visible"><text transform="" x="1305" y="20" font-size="10px" fill="#fff" stroke="#fff" stroke-width="0.8em" text-anchor="middle"><tspan x="1305" dy="0.355em">Optimal 90%</tspan></text></svg><svg x="0" y="0" font-size="10px" style="overflow:visible"><text transform="" x="1305" y="20" font-size="10px" fill="#62677B" text-anchor="middle"><tspan x="1305" dy="0.355em">Optimal 90%</tspan></text></svg></g></svg>