<?xml version="1.0"?><svg xmlns="http://www.w3.org/2000/svg" xmlns:xlink= "http://www.w3.org/1999/xlink" style="background: white;" width="1500" height="185"> <g style="color: black; font-size: 13px; font-family: sans-serif; transform: translate(18px, 25px);"><g><circle r="3" cx="-6" cy="-5" style="fill: #B6509E" /><text>Borrow APR, variable</text></g><g style="transform: translateX(150px);"><circle r="3" cx="-6" cy="-5" style="fill: rgb(231, 198, 223)" /><text>Borrow APR, stable</text></g><g style="transform: translateX(290px);"><circle r="3" cx="-6" cy="-5" style="fill: rgb(0, 98, 210)" /><text>Utilization Rate</text></g></g><g class="visx-group" transform="translate(40, 50)"><g class="visx-group visx-rows" transform="translate(0, 0)"><line class="visx-line" x1="0" y1="115" x2="1450" y2="115" fill="transparent" shape-rendering="crispEdges" stroke="#000" stroke-width="1" stroke-dasharray="3,3" pointer-events="none"></line><line class="visx-line" x1="0" y1="82.14285714285714" x2="1450" y2="82.14285714285714" fill="transparent" shape-rendering="crispEdges" stroke="#000" stroke-width="1" stroke-dasharray="3,3" pointer-events="none"></line><line class="visx-line" x1="0" y1="49.28571428571429" x2="1450" y2="49.28571428571429" fill="transparent" shape-rendering="crispEdges" stroke="#000" stroke-width="1" stroke-dasharray="3,3" pointer-events="none"></line><line class="visx-line" x1="0" y1="16.428571428571434" x2="1450" y2="16.428571428571434" fill="transparent" shape-rendering="crispEdges" stroke="#000" stroke-width="1" stroke-dasharray="3,3" pointer-events="none"></line></g><path class="visx-linepath" d="M0,114.99999999993429C2.4166666666666665,114.98904761900928,4.833333333333334,114.97809523808428,7.25,114.96714285714285C9.666666666666666,114.95619047620141,12.083333333333334,114.9452380952381,14.5,114.93428571428572C16.916666666666668,114.92333333333335,19.333333333333332,114.91238095238094,21.75,114.90142857142857C24.166666666666668,114.89047619047619,26.583333333333332,114.8795238095238,29,114.86857142857143C31.416666666666668,114.85761904761905,33.833333333333336,114.84666666666666,36.25,114.83571428571429C38.666666666666664,114.82476190476191,41.083333333333336,114.81380952380952,43.5,114.80285714285715C45.91666666666667,114.79190476190476,48.333333333333336,114.78095238095239,50.75000000000001,114.77C53.16666666666667,114.75904761904762,55.583333333333336,114.74809523809523,58,114.73714285714286C60.416666666666664,114.72619047619048,62.833333333333336,114.7152380952381,65.25,114.70428571428572C67.66666666666667,114.69333333333333,70.08333333333333,114.68238095238094,72.5,114.67142857142856C74.91666666666667,114.66047619047619,77.33333333333333,114.64952380952381,79.75,114.63857142857144C82.16666666666667,114.62761904761906,84.58333333333333,114.61666666666667,87,114.60571428571428C89.41666666666667,114.5947619047619,91.83333333333333,114.58380952380952,94.25,114.57285714285715C96.66666666666667,114.56190476190477,99.08333333333334,114.5509523809524,101.50000000000001,114.54C103.91666666666667,114.52904761904763,106.33333333333334,114.51809523809523,108.75,114.50714285714285C111.16666666666667,114.49619047619046,113.58333333333333,114.48523809523809,116,114.47428571428571C118.41666666666667,114.46333333333334,120.83333333333334,114.45238095238095,123.25000000000001,114.44142857142857C125.66666666666667,114.4304761904762,128.08333333333334,114.41952380952381,130.5,114.40857142857143C132.91666666666666,114.39761904761905,135.33333333333334,114.38666666666666,137.75,114.37571428571428C140.16666666666666,114.3647619047619,142.58333333333334,114.35380952380952,145,114.34285714285714C147.41666666666666,114.33190476190477,149.83333333333334,114.32095238095238,152.25,114.31C154.66666666666666,114.29904761904763,157.08333333333334,114.28809523809522,159.5,114.27714285714285C161.91666666666666,114.26619047619047,164.33333333333334,114.25523809523808,166.75,114.24428571428571C169.16666666666666,114.23333333333333,171.58333333333334,114.22238095238095,174,114.21142857142857C176.41666666666666,114.2004761904762,178.83333333333334,114.18952380952382,181.25,114.17857142857143C183.66666666666666,114.16761904761904,186.08333333333334,114.15666666666665,188.5,114.14571428571428C190.91666666666666,114.1347619047619,193.33333333333334,114.12380952380953,195.75,114.11285714285715C198.16666666666669,114.10190476190478,200.58333333333334,114.09095238095239,203.00000000000003,114.08C205.41666666666669,114.06904761904761,207.83333333333331,114.05809523809522,210.24999999999997,114.04714285714284C212.66666666666666,114.03619047619047,215.08333333333331,114.0252380952381,217.5,114.01428571428572C219.91666666666666,114.00333333333334,222.33333333333334,113.99238095238096,224.75,113.98142857142857C227.16666666666666,113.97047619047618,229.58333333333334,113.9595238095238,232,113.94857142857143C234.41666666666666,113.93761904761905,236.83333333333334,113.92666666666666,239.25,113.91571428571429C241.66666666666669,113.90476190476191,244.08333333333334,113.89380952380954,246.50000000000003,113.88285714285715C248.91666666666669,113.87190476190477,251.33333333333331,113.86095238095237,253.74999999999997,113.85C256.16666666666663,113.83904761904762,258.5833333333333,113.82809523809524,261,113.81714285714287C263.4166666666667,113.8061904761905,265.8333333333333,113.7952380952381,268.25,113.78428571428572C270.6666666666667,113.77333333333333,273.0833333333333,113.76238095238094,275.5,113.75142857142856C277.9166666666667,113.74047619047619,280.3333333333333,113.72952380952381,282.75,113.71857142857144C285.1666666666667,113.70761904761906,287.5833333333333,113.69666666666666,290,113.68571428571428C292.4166666666667,113.67476190476191,294.8333333333333,113.66380952380952,297.25,113.65285714285714C299.6666666666667,113.64190476190477,302.0833333333333,113.63095238095238,304.5,113.62C306.9166666666667,113.60904761904763,309.3333333333333,113.59809523809525,311.75,113.58714285714287C314.1666666666667,113.57619047619048,316.5833333333333,113.5652380952381,319,113.55428571428571C321.4166666666667,113.54333333333332,323.8333333333333,113.53238095238095,326.25,113.52142857142857C328.6666666666667,113.5104761904762,331.0833333333333,113.49952380952382,333.5,113.48857142857143C335.9166666666667,113.47761904761904,338.3333333333333,113.46666666666667,340.75,113.45571428571428C343.1666666666667,113.44476190476189,345.5833333333333,113.43380952380951,348,113.42285714285714C350.4166666666667,113.41190476190476,352.8333333333333,113.40095238095238,355.25,113.39C357.6666666666667,113.37904761904763,360.0833333333333,113.36809523809524,362.5,113.35714285714286C364.9166666666667,113.34619047619049,367.3333333333333,113.33523809523808,369.75,113.32428571428571C372.1666666666667,113.31333333333333,374.5833333333333,113.30238095238094,377,113.29142857142857C379.4166666666667,113.2804761904762,381.8333333333333,113.2695238095238,384.25,113.25857142857143C386.6666666666667,113.24761904761905,389.0833333333333,113.23666666666665,391.5,113.22571428571428C393.9166666666667,113.2147619047619,396.33333333333337,113.20380952380953,398.75000000000006,113.19285714285715C401.16666666666674,113.18190476190478,403.58333333333337,113.17095238095239,406.00000000000006,113.16C408.4166666666667,113.14904761904762,410.8333333333333,113.13809523809523,413.24999999999994,113.12714285714286C415.66666666666663,113.11619047619048,418.08333333333326,113.1052380952381,420.49999999999994,113.09428571428572C422.91666666666663,113.08333333333333,425.3333333333333,113.07238095238095,427.75,113.06142857142856C430.1666666666667,113.05047619047619,432.5833333333333,113.0395238095238,435,113.02857142857142C437.4166666666667,113.01761904761905,439.8333333333333,113.00666666666666,442.25,112.99571428571429C444.6666666666667,112.98476190476191,447.0833333333333,112.97380952380954,449.5,112.96285714285715C451.9166666666667,112.95190476190476,454.3333333333333,112.94095238095237,456.75,112.92999999999999C459.1666666666667,112.91904761904762,461.5833333333333,112.90809523809524,464,112.89714285714287C466.4166666666667,112.88619047619049,468.8333333333333,112.8752380952381,471.25,112.86428571428571C473.6666666666667,112.85333333333332,476.0833333333333,112.84238095238094,478.5,112.83142857142856C480.9166666666667,112.82047619047619,483.33333333333337,112.80952380952381,485.75000000000006,112.79857142857144C488.16666666666674,112.78761904761906,490.58333333333337,112.77666666666667,493.00000000000006,112.76571428571428C495.4166666666667,112.7547619047619,497.8333333333333,112.74380952380952,500.24999999999994,112.73285714285714C502.66666666666663,112.72190476190477,505.08333333333326,112.71095238095238,507.49999999999994,112.7C509.91666666666663,112.68904761904763,512.3333333333333,112.67809523809525,514.75,112.66714285714286C517.1666666666666,112.65619047619049,519.5833333333334,112.64523809523808,522,112.63428571428571C524.4166666666666,112.62333333333333,526.8333333333334,112.61238095238095,529.25,112.60142857142857C531.6666666666666,112.5904761904762,534.0833333333334,112.5795238095238,536.5,112.56857142857143C538.9166666666666,112.55761904761906,541.3333333333334,112.54666666666665,543.75,112.53571428571428C546.1666666666666,112.5247619047619,548.5833333333334,112.51380952380953,551,112.50285714285715C553.4166666666666,112.49190476190478,555.8333333333334,112.48095238095237,558.25,112.47C560.6666666666666,112.45904761904762,563.0833333333334,112.44809523809523,565.5,112.43714285714286C567.9166666666666,112.42619047619048,570.3333333333334,112.4152380952381,572.75,112.40428571428572C575.1666666666666,112.39333333333335,577.5833333333334,112.38238095238094,580,112.37142857142857C582.4166666666666,112.36047619047619,584.8333333333334,112.3495238095238,587.25,112.33857142857143C589.6666666666666,112.32761904761905,592.0833333333334,112.31666666666666,594.5,112.30571428571429C596.9166666666666,112.29476190476191,599.3333333333334,112.28380952380954,601.75,112.27285714285715C604.1666666666666,112.26190476190476,606.5833333333334,112.25095238095238,609,112.24C611.4166666666666,112.2290476190476,613.8333333333334,112.21809523809523,616.25,112.20714285714286C618.6666666666666,112.19619047619048,621.0833333333334,112.1852380952381,623.5,112.17428571428572C625.9166666666666,112.16333333333333,628.3333333333334,112.15238095238095,630.75,112.14142857142856C633.1666666666666,112.13047619047617,635.5833333333334,112.1195238095238,638,112.10857142857142C640.4166666666666,112.09761904761905,642.8333333333334,112.08666666666666,645.25,112.07571428571428C647.6666666666666,112.06476190476191,650.0833333333334,112.06476190476191,652.5,112.04285714285714C654.9166666666666,112.02095238095238,657.3333333333334,111.44545454545455,659.75,111.14675324675325C662.1666666666666,110.84805194805195,664.5833333333334,110.54935064935066,667,110.25064935064935C669.4166666666666,109.95194805194805,671.8333333333334,109.65324675324676,674.25,109.35454545454546C676.6666666666666,109.05584415584416,679.0833333333334,108.75714285714287,681.5,108.45844155844156C683.9166666666666,108.15974025974026,686.3333333333334,107.86103896103897,688.75,107.56233766233767C691.1666666666666,107.26363636363637,693.5833333333334,106.96493506493508,696,106.66623376623377C698.4166666666666,106.36753246753247,700.8333333333334,106.06883116883117,703.25,105.77012987012986C705.6666666666666,105.47142857142856,708.0833333333334,105.17272727272727,710.5,104.87402597402597C712.9166666666666,104.57532467532467,715.3333333333334,104.27662337662338,717.75,103.97792207792207C720.1666666666666,103.67922077922077,722.5833333333334,103.38051948051948,725,103.08181818181818C727.4166666666666,102.78311688311688,729.8333333333334,102.48441558441559,732.25,102.18571428571428C734.6666666666666,101.88701298701298,737.0833333333334,101.58831168831169,739.5,101.28961038961039C741.9166666666666,100.99090909090908,744.3333333333334,100.6922077922078,746.75,100.3935064935065C749.1666666666666,100.09480519480519,751.5833333333334,99.7961038961039,754,99.4974025974026C756.4166666666666,99.1987012987013,758.8333333333334,98.9,761.25,98.6012987012987C763.6666666666666,98.3025974025974,766.0833333333334,98.00389610389611,768.5,97.70519480519481C770.9166666666666,97.4064935064935,773.3333333333334,97.10779220779222,775.75,96.80909090909091C778.1666666666666,96.51038961038961,780.5833333333334,96.21168831168832,783,95.91298701298702C785.4166666666667,95.61428571428571,787.8333333333334,95.31558441558441,790.2500000000001,95.01688311688311C792.6666666666667,94.7181818181818,795.0833333333335,94.41948051948052,797.5000000000001,94.12077922077921C799.9166666666667,93.82207792207791,802.3333333333335,93.52337662337662,804.7500000000001,93.22467532467532C807.1666666666667,92.92597402597401,809.5833333333335,92.62727272727273,812.0000000000001,92.32857142857142C814.4166666666667,92.02987012987013,816.8333333333333,91.73116883116882,819.2499999999999,91.43246753246753C821.6666666666665,91.13376623376622,824.0833333333333,90.83506493506493,826.4999999999999,90.53636363636363C828.9166666666665,90.23766233766233,831.3333333333333,89.93896103896103,833.7499999999999,89.64025974025974C836.1666666666665,89.34155844155845,838.5833333333333,89.04285714285714,840.9999999999999,88.74415584415586C843.4166666666666,88.44545454545455,845.8333333333333,88.14675324675325,848.25,87.84805194805195C850.6666666666666,87.54935064935066,853.0833333333334,87.25064935064937,855.5,86.95194805194807C857.9166666666666,86.65324675324676,860.3333333333334,86.35454545454546,862.75,86.05584415584416C865.1666666666666,85.75714285714285,867.5833333333334,85.45844155844156,870,85.15974025974026C872.4166666666666,84.86103896103896,874.8333333333334,84.56233766233765,877.25,84.26363636363635C879.6666666666666,83.96493506493505,882.0833333333334,83.66623376623377,884.5,83.36753246753247C886.9166666666666,83.06883116883117,889.3333333333334,82.77012987012986,891.75,82.47142857142856C894.1666666666666,82.17272727272726,896.5833333333334,81.87402597402597,899,81.57532467532468C901.4166666666666,81.27662337662339,903.8333333333334,80.97792207792209,906.25,80.67922077922078C908.6666666666666,80.38051948051948,911.0833333333334,80.08181818181819,913.5,79.78311688311689C915.9166666666666,79.48441558441559,918.3333333333334,79.18571428571428,920.75,78.88701298701298C923.1666666666666,78.58831168831168,925.5833333333334,78.28961038961039,928,77.9909090909091C930.4166666666666,77.69220779220781,932.8333333333334,77.39350649350651,935.25,77.0948051948052C937.6666666666666,76.7961038961039,940.0833333333334,76.49740259740261,942.5,76.19870129870131C944.9166666666666,75.9,947.3333333333334,75.6012987012987,949.75,75.3025974025974C952.1666666666666,75.0038961038961,954.5833333333334,74.70519480519481,957,74.4064935064935C959.4166666666666,74.1077922077922,961.8333333333334,73.80909090909091,964.25,73.51038961038961C966.6666666666667,73.2116883116883,969.0833333333334,72.91298701298702,971.5000000000001,72.61428571428571C973.9166666666667,72.31558441558441,976.3333333333335,72.01688311688311,978.7500000000001,71.7181818181818C981.1666666666667,71.4194805194805,983.5833333333335,71.12077922077923,986.0000000000001,70.82207792207792C988.4166666666667,70.52337662337662,990.8333333333335,70.22467532467532,993.2500000000001,69.92597402597401C995.6666666666667,69.62727272727273,998.0833333333333,69.32857142857142,1000.4999999999999,69.02987012987013C1002.9166666666665,68.73116883116883,1005.3333333333333,68.43246753246754,1007.7499999999999,68.13376623376624C1010.1666666666665,67.83506493506493,1012.5833333333333,67.53636363636365,1014.9999999999999,67.23766233766234C1017.4166666666665,66.93896103896104,1019.8333333333333,66.64025974025975,1022.2499999999999,66.34155844155845C1024.6666666666665,66.04285714285714,1027.0833333333333,65.74415584415586,1029.5,65.44545454545455C1031.9166666666667,65.14675324675326,1034.3333333333333,64.84805194805196,1036.75,64.54935064935066C1039.1666666666667,64.25064935064935,1041.5833333333333,63.95194805194805,1044,63.653246753246755C1046.4166666666667,63.35454545454546,1048.8333333333333,63.055844155844156,1051.25,62.75714285714286C1053.6666666666667,62.458441558441564,1056.0833333333333,62.15974025974025,1058.5,61.86103896103896C1060.9166666666667,61.56233766233766,1063.3333333333333,61.26363636363637,1065.75,60.96493506493508C1068.1666666666667,60.66623376623378,1070.5833333333333,60.36753246753247,1073,60.06883116883117C1075.4166666666667,59.770129870129864,1077.8333333333333,59.47142857142857,1080.25,59.17272727272727C1082.6666666666667,58.874025974025976,1085.0833333333333,58.57532467532467,1087.5,58.27662337662338C1089.9166666666667,57.97792207792208,1092.3333333333333,57.67922077922077,1094.75,57.380519480519474C1097.1666666666667,57.08181818181818,1099.5833333333333,56.783116883116875,1102,56.48441558441558C1104.4166666666667,56.18571428571428,1106.8333333333333,55.88701298701298,1109.25,55.588311688311684C1111.6666666666667,55.28961038961039,1114.0833333333333,54.9909090909091,1116.5,54.6922077922078C1118.9166666666667,54.39350649350651,1121.3333333333333,54.0948051948052,1123.75,53.796103896103894C1126.1666666666667,53.49740259740259,1128.5833333333333,53.198701298701295,1131,52.9C1133.4166666666667,52.6012987012987,1135.8333333333333,52.30259740259741,1138.25,52.00389610389611C1140.6666666666667,51.705194805194814,1143.0833333333333,51.406493506493504,1145.5,51.1077922077922C1147.9166666666667,50.8090909090909,1150.3333333333333,50.5103896103896,1152.75,50.211688311688306C1155.1666666666667,49.91298701298701,1157.5833333333333,49.61428571428571,1160,49.31558441558441C1162.4166666666667,49.016883116883115,1164.8333333333333,48.718181818181826,1167.25,48.41948051948053C1169.6666666666667,48.120779220779234,1172.0833333333333,47.82207792207792,1174.5,47.52337662337662C1176.9166666666667,47.22467532467532,1179.3333333333333,46.925974025974014,1181.75,46.62727272727272C1184.1666666666667,46.32857142857142,1186.5833333333333,46.02987012987012,1189,45.73116883116882C1191.4166666666667,45.43246753246753,1193.8333333333333,45.13376623376624,1196.25,44.83506493506494C1198.6666666666667,44.536363636363646,1201.0833333333333,44.23766233766234,1203.5,43.93896103896105C1205.9166666666667,43.64025974025975,1208.3333333333333,43.34155844155845,1210.75,43.04285714285715C1213.1666666666667,42.744155844155856,1215.5833333333333,42.44545454545455,1218,42.14675324675325C1220.4166666666667,41.848051948051946,1222.8333333333333,41.549350649350636,1225.25,41.25064935064934C1227.6666666666667,40.951948051948044,1230.0833333333333,40.653246753246755,1232.5,40.35454545454546C1234.9166666666667,40.05584415584416,1237.3333333333333,39.757142857142846,1239.75,39.45844155844155C1242.1666666666667,39.15974025974025,1244.5833333333333,38.861038961038965,1247,38.56233766233767C1249.4166666666667,38.26363636363637,1251.8333333333333,37.96493506493507,1254.25,37.66623376623377C1256.6666666666667,37.36753246753248,1259.0833333333333,37.06883116883117,1261.5,36.77012987012987C1263.9166666666667,36.471428571428575,1266.3333333333333,36.17272727272728,1268.75,35.874025974025976C1271.1666666666667,35.57532467532467,1273.5833333333333,35.27662337662336,1276,34.97792207792207C1278.4166666666667,34.67922077922077,1280.8333333333333,34.38051948051948,1283.25,34.081818181818186C1285.6666666666667,33.78311688311689,1288.0833333333333,33.48441558441557,1290.5,33.185714285714276C1292.9166666666667,32.88701298701298,1295.3333333333333,32.588311688311684,1297.75,32.28961038961039C1300.1666666666667,31.990909090909092,1302.5833333333333,31.692207792207796,1305,31.393506493506496C1307.4166666666667,31.094805194805197,1309.8333333333333,30.796103896103897,1312.25,30.497402597402598C1314.6666666666667,30.198701298701298,1317.0833333333333,29.899999999999988,1319.5,29.60129870129869C1321.9166666666667,29.30259740259739,1324.3333333333333,29.003896103896103,1326.75,28.705194805194807C1329.1666666666667,28.40649350649351,1331.5833333333333,28.107792207792208,1334,27.80909090909091C1336.4166666666667,27.51038961038961,1338.8333333333333,27.2116883116883,1341.25,26.912987012987C1343.6666666666667,26.6142857142857,1346.0833333333333,26.315584415584414,1348.5,26.01688311688312C1350.9166666666667,25.718181818181822,1353.3333333333333,25.419480519480516,1355.75,25.12077922077922C1358.1666666666667,24.822077922077924,1360.5833333333333,24.523376623376635,1363,24.224675324675335C1365.4166666666667,23.925974025974035,1367.8333333333333,23.62727272727273,1370.25,23.32857142857143C1372.6666666666667,23.02987012987013,1375.0833333333333,22.73116883116883,1377.5,22.43246753246753C1379.9166666666667,22.13376623376623,1382.3333333333333,21.83506493506492,1384.75,21.53636363636362C1387.1666666666667,21.23766233766232,1389.5833333333333,20.93896103896103,1392,20.640259740259737C1394.4166666666667,20.341558441558444,1396.8333333333333,20.042857142857155,1399.25,19.744155844155856C1401.6666666666667,19.445454545454556,1404.0833333333333,19.146753246753246,1406.5,18.848051948051946C1408.9166666666667,18.549350649350647,1411.3333333333333,18.250649350649347,1413.75,17.951948051948047C1416.1666666666667,17.653246753246748,1418.5833333333333,17.35454545454544,1421,17.05584415584414C1423.4166666666667,16.757142857142842,1425.8333333333333,16.458441558441553,1428.25,16.159740259740257C1430.6666666666667,15.861038961038961,1433.0833333333333,15.562337662337658,1435.5,15.26363636363636C1437.9166666666667,14.964935064935062,1440.3333333333333,14.666233766233775,1442.75,14.367532467532476C1445.1666666666667,14.068831168831176,1447.5833333333333,13.770129870129871,1450,13.471428571428566" fill="transparent" stroke-linecap="round" stroke="#B6509E" stroke-width="2"></path><path class="visx-linepath" d="M0,111.71428571427111C2.4166666666666665,111.71185185184333,4.833333333333334,111.70941798941556,7.25,111.70698412698412C9.666666666666666,111.7045502645527,12.083333333333334,111.7021164021164,14.5,111.69968253968254C16.916666666666668,111.69724867724868,19.333333333333332,111.69481481481482,21.75,111.69238095238096C24.166666666666668,111.6899470899471,26.583333333333332,111.68751322751322,29,111.68507936507936C31.416666666666668,111.6826455026455,33.833333333333336,111.68021164021164,36.25,111.67777777777778C38.666666666666664,111.67534391534392,41.083333333333336,111.67291005291005,43.5,111.6704761904762C45.91666666666667,111.66804232804233,48.333333333333336,111.66560846560846,50.75000000000001,111.6631746031746C53.16666666666667,111.66074074074074,55.583333333333336,111.65830687830689,58,111.65587301587303C60.416666666666664,111.65343915343917,62.833333333333336,111.65100529100529,65.25,111.64857142857143C67.66666666666667,111.64613756613757,70.08333333333333,111.6437037037037,72.5,111.64126984126983C74.91666666666667,111.63883597883597,77.33333333333333,111.63640211640212,79.75,111.63396825396826C82.16666666666667,111.6315343915344,84.58333333333333,111.62910052910053,87,111.62666666666667C89.41666666666667,111.6242328042328,91.83333333333333,111.62179894179894,94.25,111.61936507936508C96.66666666666667,111.61693121693122,99.08333333333334,111.61449735449736,101.50000000000001,111.6120634920635C103.91666666666667,111.60962962962964,106.33333333333334,111.60719576719576,108.75,111.6047619047619C111.16666666666667,111.60232804232804,113.58333333333333,111.59989417989418,116,111.59746031746032C118.41666666666667,111.59502645502646,120.83333333333334,111.59259259259258,123.25000000000001,111.59015873015872C125.66666666666667,111.58772486772486,128.08333333333334,111.58529100529101,130.5,111.58285714285715C132.91666666666666,111.58042328042329,135.33333333333334,111.57798941798941,137.75,111.57555555555555C140.16666666666666,111.57312169312169,142.58333333333334,111.57068783068782,145,111.56825396825396C147.41666666666666,111.5658201058201,149.83333333333334,111.56338624338625,152.25,111.56095238095239C154.66666666666666,111.55851851851853,157.08333333333334,111.55608465608465,159.5,111.55365079365079C161.91666666666666,111.55121693121693,164.33333333333334,111.54878306878307,166.75,111.5463492063492C169.16666666666666,111.54391534391534,171.58333333333334,111.54148148148148,174,111.53904761904762C176.41666666666666,111.53661375661376,178.83333333333334,111.53417989417989,181.25,111.53174603174602C183.66666666666666,111.52931216931216,186.08333333333334,111.5268783068783,188.5,111.52444444444444C190.91666666666666,111.52201058201058,193.33333333333334,111.51957671957672,195.75,111.51714285714286C198.16666666666669,111.514708994709,200.58333333333334,111.51227513227514,203.00000000000003,111.50984126984127C205.41666666666669,111.50740740740741,207.83333333333331,111.50497354497354,210.24999999999997,111.50253968253968C212.66666666666666,111.50010582010582,215.08333333333331,111.49767195767195,217.5,111.4952380952381C219.91666666666666,111.49280423280423,222.33333333333334,111.49037037037037,224.75,111.48793650793651C227.16666666666666,111.48550264550265,229.58333333333334,111.48306878306877,232,111.48063492063491C234.41666666666666,111.47820105820105,236.83333333333334,111.4757671957672,239.25,111.47333333333334C241.66666666666669,111.47089947089948,244.08333333333334,111.4684656084656,246.50000000000003,111.46603174603175C248.91666666666669,111.46359788359788,251.33333333333331,111.46116402116402,253.74999999999997,111.45873015873016C256.16666666666663,111.4562962962963,258.5833333333333,111.45386243386243,261,111.45142857142856C263.4166666666667,111.4489947089947,265.8333333333333,111.44656084656084,268.25,111.44412698412698C270.6666666666667,111.44169312169312,273.0833333333333,111.43925925925926,275.5,111.4368253968254C277.9166666666667,111.43439153439154,280.3333333333333,111.43195767195768,282.75,111.42952380952381C285.1666666666667,111.42708994708995,287.5833333333333,111.42465608465609,290,111.42222222222223C292.4166666666667,111.41978835978837,294.8333333333333,111.4173544973545,297.25,111.41492063492063C299.6666666666667,111.41248677248677,302.0833333333333,111.4100529100529,304.5,111.40761904761904C306.9166666666667,111.40518518518518,309.3333333333333,111.40275132275133,311.75,111.40031746031747C314.1666666666667,111.3978835978836,316.5833333333333,111.39544973544973,319,111.39301587301587C321.4166666666667,111.39058201058201,323.8333333333333,111.38814814814815,326.25,111.38571428571429C328.6666666666667,111.38328042328042,331.0833333333333,111.38084656084656,333.5,111.3784126984127C335.9166666666667,111.37597883597884,338.3333333333333,111.37354497354497,340.75,111.3711111111111C343.1666666666667,111.36867724867724,345.5833333333333,111.36624338624338,348,111.36380952380952C350.4166666666667,111.36137566137566,352.8333333333333,111.3589417989418,355.25,111.35650793650794C357.6666666666667,111.35407407407408,360.0833333333333,111.35164021164022,362.5,111.34920634920636C364.9166666666667,111.3467724867725,367.3333333333333,111.34433862433862,369.75,111.34190476190476C372.1666666666667,111.3394708994709,374.5833333333333,111.33703703703704,377,111.33460317460317C379.4166666666667,111.33216931216931,381.8333333333333,111.32973544973545,384.25,111.32730158730159C386.6666666666667,111.32486772486773,389.0833333333333,111.32243386243385,391.5,111.32C393.9166666666667,111.31756613756613,396.33333333333337,111.31513227513229,398.75000000000006,111.31269841269842C401.16666666666674,111.31026455026456,403.58333333333337,111.30783068783069,406.00000000000006,111.30539682539683C408.4166666666667,111.30296296296297,410.8333333333333,111.30052910052909,413.24999999999994,111.29809523809523C415.66666666666663,111.29566137566137,418.08333333333326,111.29322751322752,420.49999999999994,111.29079365079366C422.91666666666663,111.2883597883598,425.3333333333333,111.28592592592592,427.75,111.28349206349206C430.1666666666667,111.2810582010582,432.5833333333333,111.27862433862434,435,111.27619047619048C437.4166666666667,111.27375661375662,439.8333333333333,111.27132275132274,442.25,111.26888888888888C444.6666666666667,111.26645502645502,447.0833333333333,111.26402116402116,449.5,111.2615873015873C451.9166666666667,111.25915343915344,454.3333333333333,111.25671957671958,456.75,111.25428571428571C459.1666666666667,111.25185185185185,461.5833333333333,111.24941798941798,464,111.24698412698412C466.4166666666667,111.24455026455026,468.8333333333333,111.24211640211641,471.25,111.23968253968255C473.6666666666667,111.23724867724869,476.0833333333333,111.23481481481481,478.5,111.23238095238095C480.9166666666667,111.22994708994709,483.33333333333337,111.22751322751323,485.75000000000006,111.22507936507937C488.16666666666674,111.2226455026455,490.58333333333337,111.22021164021164,493.00000000000006,111.21777777777778C495.4166666666667,111.21534391534392,497.8333333333333,111.21291005291005,500.24999999999994,111.21047619047619C502.66666666666663,111.20804232804232,505.08333333333326,111.20560846560846,507.49999999999994,111.2031746031746C509.91666666666663,111.20074074074074,512.3333333333333,111.19830687830688,514.75,111.19587301587302C517.1666666666666,111.19343915343916,519.5833333333334,111.1910052910053,522,111.18857142857144C524.4166666666666,111.18613756613757,526.8333333333334,111.1837037037037,529.25,111.18126984126984C531.6666666666666,111.17883597883598,534.0833333333334,111.17640211640212,536.5,111.17396825396825C538.9166666666666,111.1715343915344,541.3333333333334,111.16910052910053,543.75,111.16666666666667C546.1666666666666,111.16423280423281,548.5833333333334,111.16179894179893,551,111.15936507936507C553.4166666666666,111.15693121693121,555.8333333333334,111.15449735449735,558.25,111.15206349206349C560.6666666666666,111.14962962962963,563.0833333333334,111.14719576719577,565.5,111.1447619047619C567.9166666666666,111.14232804232805,570.3333333333334,111.13989417989417,572.75,111.13746031746031C575.1666666666666,111.13502645502645,577.5833333333334,111.1325925925926,580,111.13015873015874C582.4166666666666,111.12772486772488,584.8333333333334,111.125291005291,587.25,111.12285714285714C589.6666666666666,111.12042328042328,592.0833333333334,111.11798941798942,594.5,111.11555555555556C596.9166666666666,111.1131216931217,599.3333333333334,111.11068783068782,601.75,111.10825396825396C604.1666666666666,111.1058201058201,606.5833333333334,111.10338624338624,609,111.10095238095238C611.4166666666666,111.09851851851852,613.8333333333334,111.09608465608466,616.25,111.0936507936508C618.6666666666666,111.09121693121693,621.0833333333334,111.08878306878306,623.5,111.0863492063492C625.9166666666666,111.08391534391534,628.3333333333334,111.08148148148149,630.75,111.07904761904763C633.1666666666666,111.07661375661377,635.5833333333334,111.07417989417989,638,111.07174603174603C640.4166666666666,111.06931216931217,642.8333333333334,111.0668783068783,645.25,111.06444444444443C647.6666666666666,111.06201058201057,650.0833333333334,111.06201058201057,652.5,111.05714285714286C654.9166666666666,111.05227513227516,657.3333333333334,110.9077922077922,659.75,110.83311688311687C662.1666666666666,110.75844155844155,664.5833333333334,110.68376623376624,667,110.60909090909091C669.4166666666666,110.53441558441558,671.8333333333334,110.45974025974026,674.25,110.38506493506493C676.6666666666666,110.3103896103896,679.0833333333334,110.2357142857143,681.5,110.16103896103897C683.9166666666666,110.08636363636364,686.3333333333334,110.0116883116883,688.75,109.93701298701298C691.1666666666666,109.86233766233765,693.5833333333334,109.78766233766234,696,109.71298701298701C698.4166666666666,109.63831168831169,700.8333333333334,109.56363636363636,703.25,109.48896103896104C705.6666666666666,109.41428571428571,708.0833333333334,109.3396103896104,710.5,109.26493506493507C712.9166666666666,109.19025974025975,715.3333333333334,109.11558441558442,717.75,109.0409090909091C720.1666666666666,108.96623376623377,722.5833333333334,108.89155844155844,725,108.81688311688312C727.4166666666666,108.7422077922078,729.8333333333334,108.66753246753247,732.25,108.59285714285714C734.6666666666666,108.51818181818182,737.0833333333334,108.4435064935065,739.5,108.36883116883118C741.9166666666666,108.29415584415585,744.3333333333334,108.21948051948053,746.75,108.1448051948052C749.1666666666666,108.07012987012988,751.5833333333334,107.99545454545455,754,107.92077922077922C756.4166666666666,107.8461038961039,758.8333333333334,107.77142857142857,761.25,107.69675324675325C763.6666666666666,107.62207792207792,766.0833333333334,107.5474025974026,768.5,107.47272727272727C770.9166666666666,107.39805194805194,773.3333333333334,107.32337662337663,775.75,107.2487012987013C778.1666666666666,107.17402597402598,780.5833333333334,107.09935064935064,783,107.02467532467531C785.4166666666667,106.94999999999999,787.8333333333334,106.87532467532468,790.2500000000001,106.80064935064935C792.6666666666667,106.72597402597403,795.0833333333335,106.6512987012987,797.5000000000001,106.57662337662337C799.9166666666667,106.50194805194805,802.3333333333335,106.42727272727272,804.7500000000001,106.3525974025974C807.1666666666667,106.27792207792207,809.5833333333335,106.20324675324675,812.0000000000001,106.12857142857142C814.4166666666667,106.0538961038961,816.8333333333333,105.97922077922078,819.2499999999999,105.90454545454546C821.6666666666665,105.82987012987013,824.0833333333333,105.7551948051948,826.4999999999999,105.68051948051948C828.9166666666665,105.60584415584415,831.3333333333333,105.53116883116884,833.7499999999999,105.45649350649352C836.1666666666665,105.38181818181819,838.5833333333333,105.30714285714285,840.9999999999999,105.23246753246752C843.4166666666666,105.1577922077922,845.8333333333333,105.08311688311689,848.25,105.00844155844156C850.6666666666666,104.93376623376624,853.0833333333334,104.85909090909091,855.5,104.78441558441558C857.9166666666666,104.70974025974026,860.3333333333334,104.63506493506495,862.75,104.56038961038962C865.1666666666666,104.4857142857143,867.5833333333334,104.41103896103895,870,104.33636363636363C872.4166666666666,104.2616883116883,874.8333333333334,104.18701298701299,877.25,104.11233766233767C879.6666666666666,104.03766233766234,882.0833333333334,103.96298701298701,884.5,103.88831168831169C886.9166666666666,103.81363636363636,889.3333333333334,103.73896103896105,891.75,103.66428571428573C894.1666666666666,103.5896103896104,896.5833333333334,103.51493506493507,899,103.44025974025975C901.4166666666666,103.36558441558442,903.8333333333334,103.2909090909091,906.25,103.21623376623377C908.6666666666666,103.14155844155844,911.0833333333334,103.06688311688312,913.5,102.9922077922078C915.9166666666666,102.91753246753247,918.3333333333334,102.84285714285714,920.75,102.76818181818182C923.1666666666666,102.69350649350649,925.5833333333334,102.61883116883116,928,102.54415584415584C930.4166666666666,102.46948051948051,932.8333333333334,102.39480519480519,935.25,102.32012987012986C937.6666666666666,102.24545454545454,940.0833333333334,102.17077922077922,942.5,102.0961038961039C944.9166666666666,102.02142857142857,947.3333333333334,101.94675324675325,949.75,101.87207792207792C952.1666666666666,101.7974025974026,954.5833333333334,101.72272727272727,957,101.64805194805194C959.4166666666666,101.57337662337662,961.8333333333334,101.49870129870129,964.25,101.42402597402597C966.6666666666667,101.34935064935064,969.0833333333334,101.27467532467533,971.5000000000001,101.2C973.9166666666667,101.12532467532468,976.3333333333335,101.05064935064935,978.7500000000001,100.97597402597403C981.1666666666667,100.9012987012987,983.5833333333335,100.82662337662337,986.0000000000001,100.75194805194805C988.4166666666667,100.67727272727272,990.8333333333335,100.6025974025974,993.2500000000001,100.52792207792207C995.6666666666667,100.45324675324675,998.0833333333333,100.37857142857143,1000.4999999999999,100.30389610389611C1002.9166666666665,100.22922077922078,1005.3333333333333,100.15454545454546,1007.7499999999999,100.07987012987013C1010.1666666666665,100.0051948051948,1012.5833333333333,99.9305194805195,1014.9999999999999,99.85584415584417C1017.4166666666665,99.78116883116884,1019.8333333333333,99.7064935064935,1022.2499999999999,99.63181818181818C1024.6666666666665,99.55714285714285,1027.0833333333333,99.48246753246754,1029.5,99.40779220779221C1031.9166666666667,99.33311688311689,1034.3333333333333,99.25844155844156,1036.75,99.18376623376624C1039.1666666666667,99.10909090909091,1041.5833333333333,99.0344155844156,1044,98.95974025974027C1046.4166666666667,98.88506493506495,1048.8333333333333,98.8103896103896,1051.25,98.73571428571428C1053.6666666666667,98.66103896103895,1056.0833333333333,98.58636363636364,1058.5,98.51168831168832C1060.9166666666667,98.43701298701299,1063.3333333333333,98.36233766233767,1065.75,98.28766233766234C1068.1666666666667,98.21298701298701,1070.5833333333333,98.13831168831169,1073,98.06363636363636C1075.4166666666667,97.98896103896104,1077.8333333333333,97.91428571428573,1080.25,97.8396103896104C1082.6666666666667,97.76493506493507,1085.0833333333333,97.69025974025973,1087.5,97.61558441558441C1089.9166666666667,97.54090909090908,1092.3333333333333,97.46623376623377,1094.75,97.39155844155844C1097.1666666666667,97.31688311688312,1099.5833333333333,97.24220779220778,1102,97.16753246753245C1104.4166666666667,97.09285714285713,1106.8333333333333,97.01818181818182,1109.25,96.94350649350649C1111.6666666666667,96.86883116883116,1114.0833333333333,96.79415584415584,1116.5,96.71948051948051C1118.9166666666667,96.64480519480519,1121.3333333333333,96.57012987012988,1123.75,96.49545454545455C1126.1666666666667,96.42077922077922,1128.5833333333333,96.3461038961039,1131,96.27142857142857C1133.4166666666667,96.19675324675325,1135.8333333333333,96.12207792207793,1138.25,96.04740259740261C1140.6666666666667,95.97272727272728,1143.0833333333333,95.89805194805194,1145.5,95.82337662337662C1147.9166666666667,95.74870129870129,1150.3333333333333,95.67402597402598,1152.75,95.59935064935065C1155.1666666666667,95.52467532467533,1157.5833333333333,95.45,1160,95.37532467532468C1162.4166666666667,95.30064935064935,1164.8333333333333,95.22597402597403,1167.25,95.1512987012987C1169.6666666666667,95.07662337662337,1172.0833333333333,95.00194805194805,1174.5,94.92727272727272C1176.9166666666667,94.8525974025974,1179.3333333333333,94.77792207792209,1181.75,94.70324675324676C1184.1666666666667,94.62857142857143,1186.5833333333333,94.55389610389611,1189,94.47922077922078C1191.4166666666667,94.40454545454546,1193.8333333333333,94.32987012987014,1196.25,94.25519480519482C1198.6666666666667,94.1805194805195,1201.0833333333333,94.10584415584415,1203.5,94.03116883116883C1205.9166666666667,93.9564935064935,1208.3333333333333,93.88181818181819,1210.75,93.80714285714286C1213.1666666666667,93.73246753246754,1215.5833333333333,93.6577922077922,1218,93.58311688311687C1220.4166666666667,93.50844155844155,1222.8333333333333,93.43376623376624,1225.25,93.35909090909091C1227.6666666666667,93.28441558441558,1230.0833333333333,93.20974025974026,1232.5,93.13506493506493C1234.9166666666667,93.0603896103896,1237.3333333333333,92.9857142857143,1239.75,92.91103896103897C1242.1666666666667,92.83636363636364,1244.5833333333333,92.76168831168832,1247,92.68701298701299C1249.4166666666667,92.61233766233767,1251.8333333333333,92.53766233766234,1254.25,92.46298701298701C1256.6666666666667,92.38831168831169,1259.0833333333333,92.31363636363636,1261.5,92.23896103896104C1263.9166666666667,92.16428571428571,1266.3333333333333,92.08961038961039,1268.75,92.01493506493506C1271.1666666666667,91.94025974025973,1273.5833333333333,91.86558441558441,1276,91.79090909090908C1278.4166666666667,91.71623376623376,1280.8333333333333,91.64155844155843,1283.25,91.5668831168831C1285.6666666666667,91.49220779220778,1288.0833333333333,91.41753246753247,1290.5,91.34285714285714C1292.9166666666667,91.26818181818182,1295.3333333333333,91.19350649350649,1297.75,91.11883116883116C1300.1666666666667,91.04415584415584,1302.5833333333333,90.96948051948053,1305,90.8948051948052C1307.4166666666667,90.82012987012988,1309.8333333333333,90.74545454545455,1312.25,90.67077922077922C1314.6666666666667,90.5961038961039,1317.0833333333333,90.52142857142857,1319.5,90.44675324675325C1321.9166666666667,90.37207792207792,1324.3333333333333,90.2974025974026,1326.75,90.22272727272727C1329.1666666666667,90.14805194805194,1331.5833333333333,90.07337662337663,1334,89.9987012987013C1336.4166666666667,89.92402597402598,1338.8333333333333,89.84935064935065,1341.25,89.77467532467533C1343.6666666666667,89.7,1346.0833333333333,89.62532467532468,1348.5,89.55064935064935C1350.9166666666667,89.47597402597403,1353.3333333333333,89.4012987012987,1355.75,89.32662337662337C1358.1666666666667,89.25194805194805,1360.5833333333333,89.17727272727274,1363,89.10259740259741C1365.4166666666667,89.02792207792209,1367.8333333333333,88.95324675324676,1370.25,88.87857142857143C1372.6666666666667,88.80389610389611,1375.0833333333333,88.7292207792208,1377.5,88.65454545454547C1379.9166666666667,88.57987012987014,1382.3333333333333,88.5051948051948,1384.75,88.43051948051948C1387.1666666666667,88.35584415584415,1389.5833333333333,88.28116883116884,1392,88.20649350649352C1394.4166666666667,88.13181818181819,1396.8333333333333,88.05714285714286,1399.25,87.98246753246754C1401.6666666666667,87.90779220779221,1404.0833333333333,87.83311688311689,1406.5,87.75844155844156C1408.9166666666667,87.68376623376624,1411.3333333333333,87.60909090909091,1413.75,87.53441558441558C1416.1666666666667,87.45974025974026,1418.5833333333333,87.38506493506493,1421,87.3103896103896C1423.4166666666667,87.23571428571428,1425.8333333333333,87.16103896103897,1428.25,87.08636363636364C1430.6666666666667,87.01168831168832,1433.0833333333333,86.93701298701299,1435.5,86.86233766233767C1437.9166666666667,86.78766233766234,1440.3333333333333,86.71298701298701,1442.75,86.63831168831169C1445.1666666666667,86.56363636363636,1447.5833333333333,86.48896103896104,1450,86.41428571428571" fill="transparent" stroke-linecap="round" stroke="#E7C6DF" stroke-width="2"></path><g class="visx-group visx-axis visx-axis-bottom" transform="translate(0, 115)"><g class="visx-group visx-axis-tick" transform="translate(0, 0)"><line class="visx-line" x1="0" y1="0" x2="0" y2="8" fill="transparent" shape-rendering="crispEdges" stroke="#000" stroke-width="0" stroke-linecap="square"></line><svg x="0" y="0" font-size="10" style="overflow:visible"><text transform="" x="0" y="18" fill="#000" font-size="10" text-anchor="middle"><tspan x="0" dy="0em">0%</tspan></text></svg></g><g class="visx-group visx-axis-tick" transform="translate(0, 0)"><line class="visx-line" x1="362.5" y1="0" x2="362.5" y2="8" fill="transparent" shape-rendering="crispEdges" stroke="#000" stroke-width="0" stroke-linecap="square"></line><svg x="0" y="0" font-size="10" style="overflow:visible"><text transform="" x="362.5" y="18" fill="#000" font-size="10" text-anchor="middle"><tspan x="362.5" dy="0em">25%</tspan></text></svg></g><g class="visx-group visx-axis-tick" transform="translate(0, 0)"><line class="visx-line" x1="725" y1="0" x2="725" y2="8" fill="transparent" shape-rendering="crispEdges" stroke="#000" stroke-width="0" stroke-linecap="square"></line><svg x="0" y="0" font-size="10" style="overflow:visible"><text transform="" x="725" y="18" fill="#000" font-size="10" text-anchor="middle"><tspan x="725" dy="0em">50%</tspan></text></svg></g><g class="visx-group visx-axis-tick" transform="translate(0, 0)"><line class="visx-line" x1="1087.5" y1="0" x2="1087.5" y2="8" fill="transparent" shape-rendering="crispEdges" stroke="#000" stroke-width="0" stroke-linecap="square"></line><svg x="0" y="0" font-size="10" style="overflow:visible"><text transform="" x="1087.5" y="18" fill="#000" font-size="10" text-anchor="middle"><tspan x="1087.5" dy="0em">75%</tspan></text></svg></g><g class="visx-group visx-axis-tick" transform="translate(0, 0)"><line class="visx-line" x1="1450" y1="0" x2="1450" y2="8" fill="transparent" shape-rendering="crispEdges" stroke="#000" stroke-width="0" stroke-linecap="square"></line><svg x="0" y="0" font-size="10" style="overflow:visible"><text transform="" x="1450" y="18" fill="#000" font-size="10" text-anchor="middle"><tspan x="1450" dy="0em">100%</tspan></text></svg></g><line class="visx-line visx-axis-line" x1="0.5" y1="0" x2="1450.5" y2="0" fill="transparent" shape-rendering="crispEdges" stroke="#222" stroke-width="0"></line></g><g class="visx-group visx-axis visx-axis-left" transform="translate(0, 0)"><g class="visx-group visx-axis-tick" transform="translate(0, 0)"><line class="visx-line" x1="0" y1="115" x2="-8" y2="115" fill="transparent" shape-rendering="crispEdges" stroke="#222" stroke-width="0" stroke-linecap="square"></line><svg x="-30" y="0" font-size="8" style="overflow:visible"><text transform="" x="-8" y="115" fill="#000" font-size="8" text-anchor="start"><tspan x="-8" dy="0em">0%</tspan></text></svg></g><g class="visx-group visx-axis-tick" transform="translate(0, 0)"><line class="visx-line" x1="0" y1="49.28571428571429" x2="-8" y2="49.28571428571429" fill="transparent" shape-rendering="crispEdges" stroke="#222" stroke-width="0" stroke-linecap="square"></line><svg x="-30" y="0" font-size="8" style="overflow:visible"><text transform="" x="-8" y="49.28571428571429" fill="#000" font-size="8" text-anchor="start"><tspan x="-8" dy="0em">200%</tspan></text></svg></g><line class="visx-line visx-axis-line" x1="0" y1="115.5" x2="0" y2="0.5" fill="transparent" shape-rendering="crispEdges" stroke="#222" stroke-width="0"></line></g><rect class="visx-bar" width="1450" height="115" fill="transparent"></rect><line class="visx-line" x1="652.5" y1="28" x2="652.5" y2="115" fill="transparent" shape-rendering="crispEdges" stroke="#0062D2" stroke-width="1" pointer-events="none" stroke-dasharray="5,2"></line><svg x="0" y="0" font-size="10px" style="overflow:visible"><text transform="" x="652.5" y="20" font-size="10px" fill="#fff" stroke="#fff" stroke-width="0.8em" text-anchor="middle"><tspan x="652.5" dy="0.355em">Optimal 45%</tspan></text></svg><svg x="0" y="0" font-size="10px" style="overflow:visible"><text transform="" x="652.5" y="20" font-size="10px" fill="#62677B" text-anchor="middle"><tspan x="652.5" dy="0.355em">Optimal 45%</tspan></text></svg></g></svg>