<?xml version="1.0"?><svg xmlns="http://www.w3.org/2000/svg" xmlns:xlink= "http://www.w3.org/1999/xlink" style="background: white;" width="1500" height="300"> <g style="color: black; font-size: 13px; font-family: sans-serif; transform: translate(18px, 25px);"><g><circle r="3" cx="-6" cy="-5" style="fill: #1AD4B3" /><text>Borrow APR, variable</text></g><g style="transform: translateX(150px);"><circle r="3" cx="-6" cy="-5" style="fill: #101423" /><text>Borrow APR, stable</text></g></g><g class="visx-group" transform="translate(45, 50)"><g class="visx-group visx-rows" transform="translate(0, 0)"><line class="visx-line" x1="0" y1="155" x2="1425" y2="155" fill="transparent" shape-rendering="crispEdges" stroke="#F2F0F9" stroke-width="1" pointer-events="none"></line><line class="visx-line" x1="0" y1="107.3076923076923" x2="1425" y2="107.3076923076923" fill="transparent" shape-rendering="crispEdges" stroke="#F2F0F9" stroke-width="1" pointer-events="none"></line><line class="visx-line" x1="0" y1="59.61538461538461" x2="1425" y2="59.61538461538461" fill="transparent" shape-rendering="crispEdges" stroke="#F2F0F9" stroke-width="1" pointer-events="none"></line><line class="visx-line" x1="0" y1="11.923076923076914" x2="1425" y2="11.923076923076914" fill="transparent" shape-rendering="crispEdges" stroke="#F2F0F9" stroke-width="1" pointer-events="none"></line></g><path class="visx-linepath" d="M0,153.80769230709615C2.375,153.70833333298557,4.75,153.608974358875,7.125,153.5096153846154C9.5,153.41025641035577,11.875,153.31089743589746,14.25,153.21153846153848C16.625,153.1121794871795,19,153.01282051282053,21.375,152.91346153846155C23.75,152.81410256410257,26.125,152.7147435897436,28.5,152.6153846153846C30.875,152.51602564102564,33.25,152.41666666666666,35.625,152.31730769230768C38,152.2179487179487,40.375,152.11858974358975,42.75,152.01923076923077C45.125,151.9198717948718,47.50000000000001,151.82051282051282,49.87500000000001,151.72115384615384C52.25000000000001,151.62179487179486,54.625,151.52243589743588,57,151.4230769230769C59.375,151.32371794871793,61.75,151.22435897435898,64.125,151.125C66.5,151.02564102564102,68.875,150.92628205128204,71.25,150.82692307692307C73.625,150.7275641025641,76,150.62820512820514,78.375,150.52884615384616C80.75,150.42948717948718,83.125,150.3301282051282,85.5,150.23076923076923C87.875,150.13141025641025,90.25,150.0320512820513,92.625,149.93269230769232C95,149.83333333333334,97.37500000000001,149.73397435897436,99.75000000000001,149.6346153846154C102.12500000000001,149.5352564102564,104.5,149.43589743589743,106.875,149.33653846153845C109.25,149.23717948717947,111.625,149.13782051282053,114,149.03846153846155C116.375,148.93910256410257,118.75000000000001,148.8397435897436,121.12500000000001,148.7403846153846C123.50000000000001,148.64102564102564,125.875,148.54166666666669,128.25,148.4423076923077C130.625,148.34294871794873,133,148.24358974358975,135.375,148.14423076923077C137.75,148.0448717948718,140.125,147.94551282051282,142.5,147.84615384615384C144.875,147.74679487179486,147.25,147.64743589743588,149.625,147.5480769230769C152,147.44871794871793,154.375,147.34935897435898,156.75,147.25C159.125,147.15064102564102,161.5,147.05128205128204,163.875,146.95192307692307C166.25,146.8525641025641,168.625,146.75320512820514,171,146.65384615384616C173.375,146.55448717948718,175.75,146.4551282051282,178.125,146.35576923076923C180.5,146.25641025641025,182.875,146.15705128205127,185.25,146.0576923076923C187.625,145.95833333333331,190,145.85897435897436,192.375,145.7596153846154C194.75,145.6602564102564,197.12500000000003,145.56089743589743,199.50000000000003,145.46153846153845C201.875,145.36217948717947,204.25,145.26282051282053,206.62499999999997,145.16346153846155C208.99999999999997,145.06410256410257,211.375,144.9647435897436,213.75,144.8653846153846C216.125,144.76602564102564,218.5,144.66666666666669,220.875,144.5673076923077C223.25,144.46794871794873,225.625,144.36858974358975,228,144.26923076923077C230.375,144.1698717948718,232.75,144.07051282051282,235.125,143.97115384615384C237.5,143.87179487179486,239.87500000000003,143.7724358974359,242.25000000000003,143.67307692307693C244.625,143.57371794871796,247,143.47435897435898,249.37499999999997,143.375C251.74999999999997,143.27564102564102,254.125,143.17628205128207,256.5,143.0769230769231C258.875,142.97756410256412,261.25,142.87820512820514,263.625,142.77884615384616C266,142.67948717948718,268.375,142.5801282051282,270.75,142.48076923076923C273.125,142.38141025641025,275.5,142.28205128205127,277.875,142.1826923076923C280.25,142.08333333333331,282.625,142.0584935897436,285,141.8846153846154C287.375,141.71073717948718,289.75,141.3878205128205,292.125,141.13942307692307C294.5,140.89102564102564,296.875,140.6426282051282,299.25,140.39423076923077C301.625,140.14583333333334,304,139.89743589743588,306.375,139.64903846153845C308.75,139.40064102564102,311.125,139.1522435897436,313.5,138.90384615384616C315.875,138.65544871794873,318.25,138.40705128205127,320.625,138.15865384615384C323,137.9102564102564,325.375,137.66185897435895,327.75,137.41346153846152C330.125,137.1650641025641,332.5,136.91666666666666,334.875,136.66826923076923C337.25,136.4198717948718,339.625,136.17147435897436,342,135.92307692307693C344.375,135.6746794871795,346.75,135.42628205128204,349.125,135.1778846153846C351.5,134.92948717948718,353.875,134.68108974358975,356.25,134.43269230769232C358.625,134.1842948717949,361,133.93589743589743,363.375,133.6875C365.75,133.43910256410257,368.125,133.19070512820514,370.5,132.9423076923077C372.875,132.69391025641028,375.25,132.44551282051282,377.625,132.1971153846154C380,131.94871794871796,382.375,131.7003205128205,384.75,131.45192307692307C387.125,131.20352564102564,389.50000000000006,130.9551282051282,391.87500000000006,130.70673076923077C394.25000000000006,130.45833333333334,396.62500000000006,130.20993589743588,399.00000000000006,129.96153846153845C401.375,129.71314102564102,403.75,129.4647435897436,406.12499999999994,129.21634615384616C408.49999999999994,128.96794871794873,410.87499999999994,128.71955128205127,413.24999999999994,128.47115384615384C415.62499999999994,128.2227564102564,418,127.97435897435896,420.375,127.72596153846153C422.75,127.4775641025641,425.125,127.22916666666666,427.5,126.98076923076923C429.875,126.7323717948718,432.25,126.48397435897435,434.625,126.23557692307692C437,125.98717948717949,439.375,125.73878205128204,441.75,125.49038461538461C444.125,125.24198717948718,446.5,124.99358974358974,448.875,124.7451923076923C451.25,124.49679487179488,453.625,124.24839743589743,456,124C458.375,123.75160256410257,460.75,123.50320512820514,463.125,123.25480769230771C465.5,123.00641025641028,467.875,122.7580128205128,470.25,122.50961538461537C472.625,122.26121794871793,475.00000000000006,122.01282051282051,477.37500000000006,121.76442307692308C479.75000000000006,121.51602564102565,482.12500000000006,121.2676282051282,484.50000000000006,121.01923076923077C486.875,120.77083333333334,489.25,120.5224358974359,491.62499999999994,120.27403846153847C493.99999999999994,120.02564102564104,496.37499999999994,119.77724358974359,498.74999999999994,119.52884615384616C501.12499999999994,119.28044871794872,503.5,119.03205128205128,505.875,118.78365384615384C508.25,118.53525641025641,510.625,118.28685897435896,513,118.03846153846153C515.375,117.7900641025641,517.75,117.54166666666666,520.125,117.29326923076923C522.5,117.0448717948718,524.875,116.79647435897435,527.25,116.54807692307692C529.625,116.29967948717949,532,116.05128205128204,534.375,115.80288461538461C536.75,115.55448717948718,539.125,115.30608974358974,541.5,115.0576923076923C543.875,114.80929487179488,546.25,114.56089743589743,548.625,114.3125C551,114.06410256410257,553.375,113.81570512820514,555.75,113.56730769230771C558.125,113.31891025641028,560.5,113.07051282051285,562.875,112.8221153846154C565.25,112.57371794871796,567.625,112.32532051282053,570,112.07692307692308C572.375,111.82852564102564,574.75,111.5801282051282,577.125,111.33173076923077C579.5,111.08333333333334,581.875,110.83493589743591,584.25,110.58653846153847C586.625,110.33814102564102,589,110.08974358974359,591.375,109.84134615384615C593.75,109.5929487179487,596.125,109.34455128205127,598.5,109.09615384615384C600.875,108.84775641025641,603.25,108.59935897435896,605.625,108.35096153846153C608,108.1025641025641,610.375,107.85416666666666,612.75,107.60576923076923C615.125,107.3573717948718,617.5,107.10897435897435,619.875,106.86057692307692C622.25,106.61217948717949,624.625,106.36378205128204,627,106.11538461538461C629.375,105.86698717948718,631.75,105.61858974358974,634.125,105.3701923076923C636.5,105.12179487179488,638.875,104.87339743589743,641.25,104.625C643.625,104.37660256410257,646,104.12820512820514,648.375,103.87980769230771C650.75,103.63141025641028,653.125,103.38301282051283,655.5,103.1346153846154C657.875,102.88621794871797,660.25,102.63782051282053,662.625,102.3894230769231C665,102.14102564102566,667.375,101.89262820512823,669.75,101.64423076923079C672.125,101.39583333333334,674.5,101.14743589743591,676.875,100.89903846153847C679.25,100.65064102564102,681.625,100.40224358974359,684,100.15384615384616C686.375,99.90544871794873,688.75,99.65705128205128,691.125,99.40865384615385C693.5,99.16025641025642,695.875,98.91185897435898,698.25,98.66346153846155C700.625,98.41506410256412,703,98.16666666666666,705.375,97.91826923076923C707.75,97.6698717948718,710.125,97.42147435897435,712.5,97.17307692307692C714.875,96.92467948717949,717.25,96.67628205128204,719.625,96.42788461538461C722,96.17948717948718,724.375,95.93108974358974,726.75,95.6826923076923C729.125,95.43429487179488,731.5,95.18589743589743,733.875,94.9375C736.25,94.68910256410257,738.625,94.44070512820514,741,94.19230769230771C743.375,93.94391025641028,745.75,93.69551282051285,748.125,93.4471153846154C750.5,93.19871794871796,752.875,92.95032051282053,755.25,92.70192307692308C757.625,92.45352564102564,760,92.2051282051282,762.375,91.95673076923077C764.75,91.70833333333334,767.125,91.4599358974359,769.5,91.21153846153847C771.875,90.96314102564102,774.2500000000001,90.71474358974359,776.6250000000001,90.46634615384615C779.0000000000001,90.21794871794872,781.3750000000001,89.96955128205127,783.7500000000001,89.72115384615384C786.1250000000001,89.47275641025641,788.5000000000001,89.22435897435896,790.8750000000001,88.97596153846153C793.2500000000001,88.7275641025641,795.6250000000001,88.47916666666667,798.0000000000001,88.23076923076923C800.375,87.9823717948718,802.75,87.73397435897435,805.1249999999999,87.48557692307692C807.4999999999999,87.23717948717947,809.8749999999999,86.98878205128204,812.2499999999999,86.74038461538461C814.6249999999999,86.49198717948718,816.9999999999999,86.24358974358974,819.3749999999999,85.9951923076923C821.7499999999999,85.74679487179488,824.1249999999999,85.49839743589743,826.4999999999999,85.25C828.8749999999999,85.00160256410257,831.25,84.75320512820514,833.625,84.50480769230771C836,84.25641025641028,838.375,84.00801282051285,840.75,83.7596153846154C843.125,83.51121794871796,845.5,83.26282051282053,847.875,83.01442307692308C850.25,82.76602564102564,852.625,82.5176282051282,855,82.26923076923077C857.375,82.02083333333334,859.75,81.77243589743591,862.125,81.52403846153847C864.5,81.27564102564102,866.875,81.02724358974359,869.25,80.77884615384615C871.625,80.5304487179487,874,80.28205128205127,876.375,80.03365384615384C878.75,79.78525641025641,881.125,79.53685897435896,883.5,79.28846153846153C885.875,79.0400641025641,888.25,78.79166666666666,890.625,78.54326923076923C893,78.2948717948718,895.375,78.04647435897435,897.75,77.79807692307692C900.125,77.54967948717949,902.5,77.30128205128204,904.875,77.05288461538461C907.25,76.80448717948718,909.625,76.55608974358974,912,76.3076923076923C914.375,76.05929487179488,916.75,75.81089743589743,919.125,75.5625C921.5,75.31410256410257,923.875,75.06570512820511,926.25,74.81730769230768C928.625,74.56891025641025,931,74.3205128205128,933.375,74.07211538461537C935.75,73.82371794871794,938.125,73.57532051282051,940.5,73.32692307692308C942.875,73.07852564102565,945.25,72.8301282051282,947.625,72.58173076923077C950,72.33333333333334,952.3750000000001,72.0849358974359,954.7500000000001,71.83653846153847C957.1250000000001,71.58814102564104,959.5000000000001,71.33974358974359,961.8750000000001,71.09134615384616C964.2500000000001,70.84294871794873,966.6250000000001,70.5945512820513,969.0000000000001,70.34615384615385C971.3750000000001,70.09775641025641,973.7500000000001,69.84935897435898,976.1250000000001,69.60096153846153C978.5,69.3525641025641,980.875,69.10416666666666,983.2499999999999,68.85576923076923C985.6249999999999,68.60737179487178,987.9999999999999,68.35897435897435,990.3749999999999,68.11057692307692C992.7499999999999,67.86217948717949,995.1249999999999,67.61378205128204,997.4999999999999,67.36538461538461C999.8749999999999,67.11698717948718,1002.2499999999999,66.86858974358974,1004.6249999999999,66.6201923076923C1006.9999999999999,66.37179487179488,1009.375,66.12339743589745,1011.75,65.875C1014.125,65.62660256410257,1016.5,65.37820512820511,1018.875,65.12980769230768C1021.25,64.88141025641025,1023.625,64.6330128205128,1026,64.38461538461537C1028.375,64.13621794871794,1030.75,63.88782051282051,1033.125,63.63942307692307C1035.5,63.391025641025635,1037.875,63.142628205128204,1040.25,62.89423076923077C1042.625,62.64583333333333,1045,62.3974358974359,1047.375,62.14903846153847C1049.75,61.900641025641036,1052.125,61.6522435897436,1054.5,61.40384615384616C1056.875,61.15544871794872,1059.25,60.90705128205129,1061.625,60.658653846153854C1064,60.410256410256416,1066.375,60.16185897435897,1068.75,59.91346153846153C1071.125,59.665064102564095,1073.5,59.416666666666664,1075.875,59.168269230769226C1078.25,58.91987179487179,1080.625,58.67147435897435,1083,58.42307692307692C1085.375,58.17467948717949,1087.75,57.92628205128206,1090.125,57.67788461538462C1092.5,57.42948717948718,1094.875,57.18108974358975,1097.25,56.932692307692314C1099.625,56.684294871794876,1102,56.435897435897445,1104.375,56.18750000000001C1106.75,55.93910256410257,1109.125,55.690705128205124,1111.5,55.442307692307686C1113.875,55.19391025641025,1116.25,54.94551282051282,1118.625,54.69711538461538C1121,54.44871794871794,1123.375,54.20032051282051,1125.75,53.95192307692307C1128.125,53.703525641025635,1130.5,53.455128205128204,1132.875,53.20673076923077C1135.25,52.95833333333333,1137.625,52.7099358974359,1140,52.46153846153847C1142.375,52.213141025641036,1144.75,51.9647435897436,1147.125,51.71634615384616C1149.5,51.46794871794872,1151.875,51.21955128205129,1154.25,50.971153846153854C1156.625,50.722756410256416,1159,50.47435897435897,1161.375,50.22596153846153C1163.75,49.977564102564095,1166.125,49.729166666666664,1168.5,49.480769230769226C1170.875,49.23237179487179,1173.25,48.98397435897435,1175.625,48.73557692307692C1178,48.48717948717949,1180.375,48.23878205128206,1182.75,47.99038461538462C1185.125,47.74198717948718,1187.5,47.49358974358975,1189.875,47.245192307692314C1192.25,46.996794871794876,1194.625,46.748397435897445,1197,46.50000000000001C1199.375,46.25160256410257,1201.75,46.003205128205124,1204.125,45.754807692307686C1206.5,45.50641025641025,1208.875,45.25801282051282,1211.25,45.00961538461538C1213.625,44.76121794871794,1216,44.51282051282051,1218.375,44.26442307692307C1220.75,44.016025641025635,1223.125,43.767628205128204,1225.5,43.51923076923077C1227.875,43.27083333333333,1230.25,43.0224358974359,1232.625,42.77403846153847C1235,42.525641025641036,1237.375,42.2772435897436,1239.75,42.02884615384616C1242.125,41.78044871794872,1244.5,41.53205128205129,1246.875,41.283653846153854C1249.25,41.035256410256416,1251.625,40.78685897435897,1254,40.53846153846153C1256.375,40.290064102564095,1258.75,40.041666666666664,1261.125,39.793269230769226C1263.5,39.54487179487179,1265.875,39.29647435897435,1268.25,39.04807692307692C1270.625,38.79967948717949,1273,38.55128205128206,1275.375,38.30288461538462C1277.75,38.05448717948718,1280.125,37.80608974358975,1282.5,37.557692307692314C1284.875,37.309294871794876,1287.25,37.060897435897445,1289.625,36.81250000000001C1292,36.56410256410257,1294.375,36.315705128205124,1296.75,36.067307692307686C1299.125,35.81891025641025,1301.5,35.57051282051282,1303.875,35.32211538461538C1306.25,35.07371794871794,1308.625,34.82532051282051,1311,34.57692307692307C1313.375,34.328525641025635,1315.75,34.080128205128204,1318.125,33.83173076923077C1320.5,33.58333333333333,1322.875,33.3349358974359,1325.25,33.08653846153847C1327.625,32.838141025641036,1330,32.5897435897436,1332.375,32.34134615384616C1334.75,32.09294871794872,1337.125,31.84455128205129,1339.5,31.596153846153854C1341.875,31.347756410256416,1344.25,31.09935897435897,1346.625,30.850961538461533C1349,30.602564102564095,1351.375,30.35416666666666,1353.75,30.105769230769226C1356.125,29.857371794871792,1358.5,29.608974358974358,1360.875,29.360576923076923C1363.25,29.11217948717949,1365.625,28.86378205128205,1368,28.615384615384617C1370.375,28.366987179487182,1372.75,28.118589743589748,1375.125,27.870192307692314C1377.5,27.62179487179488,1379.875,27.373397435897445,1382.25,27.125000000000007C1384.625,26.87660256410257,1387,26.628205128205124,1389.375,26.379807692307686C1391.75,26.13141025641025,1394.125,25.883012820512814,1396.5,25.63461538461538C1398.875,25.386217948717945,1401.25,25.137820512820507,1403.625,24.889423076923073C1406,24.64102564102564,1408.375,24.392628205128204,1410.75,24.14423076923077C1413.125,23.895833333333336,1415.5,23.647435897435898,1417.875,23.399038461538463C1420.25,23.15064102564103,1422.625,22.902243589743595,1425,22.65384615384616" fill="transparent" stroke-linecap="round" stroke="#1AD4B3" stroke-width="2"></path><g class="visx-group visx-axis visx-axis-bottom" transform="translate(0, 155)"><g class="visx-group visx-axis-tick" transform="translate(0, 0)"><line class="visx-line" x1="0" y1="0" x2="0" y2="8" fill="transparent" shape-rendering="crispEdges" stroke="#F2F0F9" stroke-width="1" stroke-linecap="square"></line><svg x="0" y="0" font-size="11" style="overflow:visible"><text transform="" x="0" y="19" fill="#1B2030" font-size="11" text-anchor="middle"><tspan x="0" dy="0em">0%</tspan></text></svg></g><g class="visx-group visx-axis-tick" transform="translate(0, 0)"><line class="visx-line" x1="356.25" y1="0" x2="356.25" y2="8" fill="transparent" shape-rendering="crispEdges" stroke="#F2F0F9" stroke-width="1" stroke-linecap="square"></line><svg x="0" y="0" font-size="11" style="overflow:visible"><text transform="" x="356.25" y="19" fill="#1B2030" font-size="11" text-anchor="middle"><tspan x="356.25" dy="0em">25%</tspan></text></svg></g><g class="visx-group visx-axis-tick" transform="translate(0, 0)"><line class="visx-line" x1="712.5" y1="0" x2="712.5" y2="8" fill="transparent" shape-rendering="crispEdges" stroke="#F2F0F9" stroke-width="1" stroke-linecap="square"></line><svg x="0" y="0" font-size="11" style="overflow:visible"><text transform="" x="712.5" y="19" fill="#1B2030" font-size="11" text-anchor="middle"><tspan x="712.5" dy="0em">50%</tspan></text></svg></g><g class="visx-group visx-axis-tick" transform="translate(0, 0)"><line class="visx-line" x1="1068.75" y1="0" x2="1068.75" y2="8" fill="transparent" shape-rendering="crispEdges" stroke="#F2F0F9" stroke-width="1" stroke-linecap="square"></line><svg x="0" y="0" font-size="11" style="overflow:visible"><text transform="" x="1068.75" y="19" fill="#1B2030" font-size="11" text-anchor="middle"><tspan x="1068.75" dy="0em">75%</tspan></text></svg></g><g class="visx-group visx-axis-tick" transform="translate(0, 0)"><line class="visx-line" x1="1425" y1="0" x2="1425" y2="8" fill="transparent" shape-rendering="crispEdges" stroke="#F2F0F9" stroke-width="1" stroke-linecap="square"></line><svg x="0" y="0" font-size="11" style="overflow:visible"><text transform="" x="1425" y="19" fill="#1B2030" font-size="11" text-anchor="middle"><tspan x="1425" dy="0em">100%</tspan></text></svg></g></g><g class="visx-group visx-axis visx-axis-left" transform="translate(0, 0)"><g class="visx-group visx-axis-tick" transform="translate(0, 0)"><line class="visx-line" x1="0" y1="155" x2="-8" y2="155" fill="transparent" shape-rendering="crispEdges" stroke="#F2F0F9" stroke-width="1" stroke-linecap="square"></line><svg x="-30" y="0" font-size="11" style="overflow:visible"><text transform="" x="-8" y="155" fill="#1B2030" font-size="11" text-anchor="start"><tspan x="-8" dy="0em">0%</tspan></text></svg></g><g class="visx-group visx-axis-tick" transform="translate(0, 0)"><line class="visx-line" x1="0" y1="107.3076923076923" x2="-8" y2="107.3076923076923" fill="transparent" shape-rendering="crispEdges" stroke="#F2F0F9" stroke-width="1" stroke-linecap="square"></line><svg x="-30" y="0" font-size="11" style="overflow:visible"><text transform="" x="-8" y="107.3076923076923" fill="#1B2030" font-size="11" text-anchor="start"><tspan x="-8" dy="0em">200%</tspan></text></svg></g><g class="visx-group visx-axis-tick" transform="translate(0, 0)"><line class="visx-line" x1="0" y1="59.61538461538461" x2="-8" y2="59.61538461538461" fill="transparent" shape-rendering="crispEdges" stroke="#F2F0F9" stroke-width="1" stroke-linecap="square"></line><svg x="-30" y="0" font-size="11" style="overflow:visible"><text transform="" x="-8" y="59.61538461538461" fill="#1B2030" font-size="11" text-anchor="start"><tspan x="-8" dy="0em">400%</tspan></text></svg></g><g class="visx-group visx-axis-tick" transform="translate(0, 0)"><line class="visx-line" x1="0" y1="11.923076923076914" x2="-8" y2="11.923076923076914" fill="transparent" shape-rendering="crispEdges" stroke="#F2F0F9" stroke-width="1" stroke-linecap="square"></line><svg x="-30" y="0" font-size="11" style="overflow:visible"><text transform="" x="-8" y="11.923076923076914" fill="#1B2030" font-size="11" text-anchor="start"><tspan x="-8" dy="0em">600%</tspan></text></svg></g><line class="visx-line visx-axis-line" x1="0" y1="155.5" x2="0" y2="0.5" fill="transparent" shape-rendering="crispEdges" stroke="#F2F0F9" stroke-width="1"></line></g><rect class="visx-bar" width="1425" height="155" fill="transparent"></rect><line class="visx-line" x1="285" y1="58" x2="285" y2="155" fill="transparent" shape-rendering="crispEdges" stroke="#CDC8E1" stroke-width="1" pointer-events="none" stroke-dasharray="5"></line><svg x="0" y="0" font-size="11px" style="overflow:visible"><text transform="" x="285" y="50" font-size="11px" fill="#555069" stroke="#FFFFFF" stroke-width="1px" text-anchor="middle"><tspan x="285" dy="0.355em">uOptimal 20%</tspan></text></svg><svg x="0" y="0" font-size="11px" style="overflow:visible"><text transform="" x="285" y="50" font-size="11px" fill="#CDC8E1" text-anchor="middle"><tspan x="285" dy="0.355em">uOptimal 20%</tspan></text></svg></g></svg>