<?xml version="1.0"?><svg xmlns="http://www.w3.org/2000/svg" xmlns:xlink= "http://www.w3.org/1999/xlink" style="background: white;" width="1500" height="300"> <g style="color: black; font-size: 13px; font-family: sans-serif; transform: translate(18px, 25px);"><g><circle r="3" cx="-6" cy="-5" style="fill: #1AD4B3" /><text>Borrow APR, variable</text></g><g style="transform: translateX(150px);"><circle r="3" cx="-6" cy="-5" style="fill: #101423" /><text>Borrow APR, stable</text></g></g><g class="visx-group" transform="translate(45, 50)"><g class="visx-group visx-rows" transform="translate(0, 0)"><line class="visx-line" x1="0" y1="155" x2="1425" y2="155" fill="transparent" shape-rendering="crispEdges" stroke="#F2F0F9" stroke-width="1" pointer-events="none"></line><line class="visx-line" x1="0" y1="77.5" x2="1425" y2="77.5" fill="transparent" shape-rendering="crispEdges" stroke="#F2F0F9" stroke-width="1" pointer-events="none"></line><line class="visx-line" x1="0" y1="0" x2="1425" y2="0" fill="transparent" shape-rendering="crispEdges" stroke="#F2F0F9" stroke-width="1" pointer-events="none"></line></g><path class="visx-linepath" d="M0,145.3124999998947C2.375,145.294950181098,4.75,145.27740036230128,7.125,145.25985054347825C9.5,145.24230072465522,11.875,145.22475090579712,14.25,145.20720108695653C16.625,145.18965126811594,19,145.17210144927537,21.375,145.15455163043478C23.75,145.1370018115942,26.125,145.11945199275362,28.5,145.10190217391303C30.875,145.08435235507244,33.25,145.06680253623188,35.625,145.0492527173913C38,145.03170289855075,40.375,145.01415307971013,42.75,144.99660326086956C45.125,144.97905344202897,47.50000000000001,144.96150362318843,49.87500000000001,144.94395380434784C52.25000000000001,144.92640398550728,54.625,144.90885416666669,57,144.8913043478261C59.375,144.8737545289855,61.75,144.85620471014494,64.125,144.83865489130434C66.5,144.82110507246375,68.875,144.8035552536232,71.25,144.7860054347826C73.625,144.768455615942,76,144.75090579710144,78.375,144.73335597826087C80.75,144.7158061594203,83.125,144.6982563405797,85.5,144.68070652173913C87.875,144.66315670289856,90.25,144.64560688405797,92.625,144.6280570652174C95,144.6105072463768,97.37500000000001,144.59295742753625,99.75000000000001,144.57540760869566C102.12500000000001,144.55785778985506,104.5,144.5403079710145,106.875,144.5227581521739C109.25,144.50520833333331,111.625,144.48765851449272,114,144.47010869565216C116.375,144.45255887681157,118.75000000000001,144.43500905797103,121.12500000000001,144.41745923913044C123.50000000000001,144.39990942028987,125.875,144.38235960144925,128.25,144.3648097826087C130.625,144.3472599637681,133,144.32971014492756,135.375,144.31216032608697C137.75,144.29461050724638,140.125,144.2770606884058,142.5,144.25951086956522C144.875,144.24196105072463,147.25,144.22441123188406,149.625,144.20686141304347C152,144.18931159420288,154.375,144.1717617753623,156.75,144.15421195652175C159.125,144.13666213768118,161.5,144.1191123188406,163.875,144.1015625C166.25,144.0840126811594,168.625,144.06646286231882,171,144.04891304347825C173.375,144.0313632246377,175.75,144.01381340579712,178.125,143.99626358695653C180.5,143.97871376811594,182.875,143.96116394927537,185.25,143.94361413043478C187.625,143.9260643115942,190,143.9085144927536,192.375,143.89096467391303C194.75,143.87341485507244,197.12500000000003,143.8558650362319,199.50000000000003,143.8383152173913C201.875,143.82076539855075,204.25,143.80321557971013,206.62499999999997,143.78566576086956C208.99999999999997,143.76811594202897,211.375,143.75056612318843,213.75,143.73301630434784C216.125,143.71546648550728,218.5,143.69791666666669,220.875,143.6803668478261C223.25,143.6628170289855,225.625,143.64526721014494,228,143.62771739130434C230.375,143.61016757246375,232.75,143.59261775362316,235.125,143.5750679347826C237.5,143.557518115942,239.87500000000003,143.53996829710147,242.25000000000003,143.52241847826087C244.625,143.5048686594203,247,143.4873188405797,249.37499999999997,143.46976902173913C251.74999999999997,143.45221920289853,254.125,143.434669384058,256.5,143.4171195652174C258.875,143.39956974637684,261.25,143.38201992753625,263.625,143.36447010869566C266,143.34692028985506,268.375,143.3293704710145,270.75,143.3118206521739C273.125,143.29427083333331,275.5,143.27672101449275,277.875,143.25917119565216C280.25,143.24162137681157,282.625,143.224071557971,285,143.20652173913044C287.375,143.18897192028987,289.75,143.17142210144925,292.125,143.1538722826087C294.5,143.13632246376812,296.875,143.11877264492756,299.25,143.10122282608697C301.625,143.08367300724638,304,143.0661231884058,306.375,143.04857336956522C308.75,143.03102355072463,311.125,143.01347373188406,313.5,142.99592391304347C315.875,142.97837409420288,318.25,142.9608242753623,320.625,142.94327445652175C323,142.92572463768118,325.375,142.9081748188406,327.75,142.890625C330.125,142.8730751811594,332.5,142.85552536231882,334.875,142.83797554347825C337.25,142.8204257246377,339.625,142.80287590579712,342,142.78532608695653C344.375,142.76777626811594,346.75,142.75022644927537,349.125,142.73267663043478C351.5,142.7151268115942,353.875,142.69757699275362,356.25,142.68002717391303C358.625,142.66247735507244,361,142.64492753623188,363.375,142.6273777173913C365.75,142.60982789855075,368.125,142.59227807971013,370.5,142.57472826086956C372.875,142.557178442029,375.25,142.53962862318843,377.625,142.52207880434784C380,142.50452898550725,382.375,142.48697916666666,384.75,142.46942934782606C387.125,142.45187952898547,389.50000000000006,142.43432971014494,391.87500000000006,142.41677989130434C394.25000000000006,142.39923007246378,396.62500000000006,142.3816802536232,399.00000000000006,142.3641304347826C401.375,142.34658061594203,403.75,142.32903079710144,406.12499999999994,142.31148097826087C408.49999999999994,142.29393115942028,410.87499999999994,142.2763813405797,413.24999999999994,142.25883152173913C415.62499999999994,142.24128170289853,418,142.223731884058,420.375,142.2061820652174C422.75,142.18863224637684,425.125,142.17108242753625,427.5,142.15353260869566C429.875,142.13598278985506,432.25,142.11843297101453,434.625,142.10088315217394C437,142.08333333333334,439.375,142.06578351449275,441.75,142.04823369565216C444.125,142.03068387681157,446.5,142.013134057971,448.875,141.99558423913044C451.25,141.97803442028987,453.625,141.96048460144925,456,141.9429347826087C458.375,141.92538496376812,460.75,141.90783514492756,463.125,141.89028532608697C465.5,141.87273550724638,467.875,141.8551856884058,470.25,141.83763586956522C472.625,141.82008605072463,475.00000000000006,141.80253623188406,477.37500000000006,141.78498641304347C479.75000000000006,141.7674365942029,482.12500000000006,141.74988677536234,484.50000000000006,141.73233695652175C486.875,141.71478713768118,489.25,141.6972373188406,491.62499999999994,141.6796875C493.99999999999994,141.6621376811594,496.37499999999994,141.64458786231882,498.74999999999994,141.62703804347825C501.12499999999994,141.60948822463766,503.5,141.59193840579712,505.875,141.57438858695653C508.25,141.55683876811597,510.625,141.53928894927537,513,141.52173913043478C515.375,141.5041893115942,517.75,141.48663949275362,520.125,141.46908967391303C522.5,141.45153985507244,524.875,141.43399003623188,527.25,141.4164402173913C529.625,141.39889039855075,532,141.38134057971013,534.375,141.36379076086956C536.75,141.346240942029,539.125,141.32869112318843,541.5,141.31114130434784C543.875,141.29359148550725,546.25,141.27604166666666,548.625,141.25849184782606C551,141.24094202898547,553.375,141.22339221014494,555.75,141.20584239130434C558.125,141.18829257246375,560.5,141.1707427536232,562.875,141.1531929347826C565.25,141.135643115942,567.625,141.11809329710144,570,141.10054347826087C572.375,141.0829936594203,574.75,141.0654438405797,577.125,141.04789402173913C579.5,141.03034420289856,581.875,141.012794384058,584.25,140.9952445652174C586.625,140.9776947463768,589,140.96014492753625,591.375,140.94259510869566C593.75,140.92504528985506,596.125,140.90749547101453,598.5,140.88994565217394C600.875,140.87239583333334,603.25,140.85484601449275,605.625,140.83729619565216C608,140.81974637681157,610.375,140.802196557971,612.75,140.78464673913044C615.125,140.76709692028987,617.5,140.74954710144925,619.875,140.7319972826087C622.25,140.71444746376812,624.625,140.69689764492756,627,140.67934782608697C629.375,140.66179800724638,631.75,140.6442481884058,634.125,140.62669836956522C636.5,140.60914855072463,638.875,140.59159873188406,641.25,140.57404891304347C643.625,140.55649909420288,646,140.5389492753623,648.375,140.52139945652175C650.75,140.50384963768118,653.125,140.4862998188406,655.5,140.46875C657.875,140.4512001811594,660.25,140.43365036231882,662.625,140.41610054347825C665,140.3985507246377,667.375,140.38100090579712,669.75,140.36345108695653C672.125,140.34590126811594,674.5,140.32835144927537,676.875,140.31080163043478C679.25,140.2932518115942,681.625,140.27570199275362,684,140.25815217391303C686.375,140.24060235507244,688.75,140.22305253623188,691.125,140.2055027173913C693.5,140.18795289855075,695.875,140.17040307971013,698.25,140.15285326086956C700.625,140.135303442029,703,140.11775362318843,705.375,140.10020380434784C707.75,140.08265398550725,710.125,140.06510416666666,712.5,140.04755434782606C714.875,140.03000452898547,717.25,140.01245471014494,719.625,139.99490489130434C722,139.97735507246375,724.375,139.9598052536232,726.75,139.9422554347826C729.125,139.924705615942,731.5,139.90715579710144,733.875,139.88960597826087C736.25,139.8720561594203,738.625,139.8545063405797,741,139.83695652173913C743.375,139.81940670289856,745.75,139.801856884058,748.125,139.7843070652174C750.5,139.7667572463768,752.875,139.74920742753625,755.25,139.73165760869566C757.625,139.71410778985506,760,139.69655797101453,762.375,139.67900815217394C764.75,139.66145833333334,767.125,139.64390851449275,769.5,139.62635869565216C771.875,139.60880887681157,774.2500000000001,139.59125905797103,776.6250000000001,139.57370923913044C779.0000000000001,139.55615942028987,781.3750000000001,139.53860960144925,783.7500000000001,139.5210597826087C786.1250000000001,139.50350996376812,788.5000000000001,139.48596014492756,790.8750000000001,139.46841032608697C793.2500000000001,139.45086050724638,795.6250000000001,139.4333106884058,798.0000000000001,139.41576086956522C800.375,139.39821105072463,802.75,139.38066123188403,805.1249999999999,139.36311141304347C807.4999999999999,139.34556159420288,809.8749999999999,139.3280117753623,812.2499999999999,139.31046195652175C814.6249999999999,139.29291213768118,816.9999999999999,139.2753623188406,819.3749999999999,139.2578125C821.7499999999999,139.2402626811594,824.1249999999999,139.22271286231882,826.4999999999999,139.20516304347825C828.8749999999999,139.18761322463766,831.25,139.17006340579712,833.625,139.15251358695653C836,139.13496376811597,838.375,139.11741394927537,840.75,139.09986413043478C843.125,139.0823143115942,845.5,139.06476449275362,847.875,139.04721467391303C850.25,139.02966485507244,852.625,139.01211503623188,855,138.9945652173913C857.375,138.97701539855075,859.75,138.95946557971013,862.125,138.94191576086956C864.5,138.924365942029,866.875,138.90681612318843,869.25,138.88926630434784C871.625,138.87171648550725,874,138.85416666666666,876.375,138.83661684782606C878.75,138.81906702898547,881.125,138.80151721014494,883.5,138.78396739130434C885.875,138.76641757246375,888.25,138.7488677536232,890.625,138.7313179347826C893,138.713768115942,895.375,138.69621829710144,897.75,138.67866847826087C900.125,138.6611186594203,902.5,138.6435688405797,904.875,138.62601902173913C907.25,138.60846920289856,909.625,138.590919384058,912,138.5733695652174C914.375,138.5558197463768,916.75,138.53826992753625,919.125,138.52072010869566C921.5,138.50317028985506,923.875,138.48562047101453,926.25,138.46807065217394C928.625,138.45052083333334,931,138.43297101449275,933.375,138.41542119565216C935.75,138.39787137681157,938.125,138.380321557971,940.5,138.36277173913044C942.875,138.34522192028987,945.25,138.32767210144925,947.625,138.3101222826087C950,138.2925724637681,952.3750000000001,138.27502264492756,954.7500000000001,138.25747282608697C957.1250000000001,138.2399230072464,959.5000000000001,138.2223731884058,961.8750000000001,138.20482336956522C964.2500000000001,138.18727355072463,966.6250000000001,138.16972373188406,969.0000000000001,138.15217391304347C971.3750000000001,138.13462409420288,973.7500000000001,138.11707427536234,976.1250000000001,138.09952445652175C978.5,138.08197463768118,980.875,138.0644248188406,983.2499999999999,138.046875C985.6249999999999,138.0293251811594,987.9999999999999,138.01177536231882,990.3749999999999,137.99422554347825C992.7499999999999,137.9766757246377,995.1249999999999,137.95912590579712,997.4999999999999,137.94157608695653C999.8749999999999,137.92402626811594,1002.2499999999999,137.90647644927537,1004.6249999999999,137.88892663043478C1006.9999999999999,137.8713768115942,1009.375,137.85382699275362,1011.75,137.83627717391303C1014.125,137.81872735507247,1016.5,137.80117753623188,1018.875,137.7836277173913C1021.25,137.76607789855075,1023.625,137.74852807971013,1026,137.73097826086956C1028.375,137.713428442029,1030.75,137.69587862318843,1033.125,137.67832880434784C1035.5,137.66077898550725,1037.875,137.64322916666666,1040.25,137.62567934782606C1042.625,137.60812952898547,1045,137.59057971014494,1047.375,137.57302989130434C1049.75,137.55548007246375,1052.125,137.5379302536232,1054.5,137.5203804347826C1056.875,137.502830615942,1059.25,137.48528079710144,1061.625,137.46773097826087C1064,137.4501811594203,1066.375,137.4326313405797,1068.75,137.41508152173913C1071.125,137.39753170289856,1073.5,137.379981884058,1075.875,137.3624320652174C1078.25,137.3448822463768,1080.625,137.32733242753625,1083,137.30978260869566C1085.375,137.29223278985506,1087.75,137.27468297101453,1090.125,137.25713315217394C1092.5,137.23958333333334,1094.875,137.22203351449275,1097.25,137.20448369565216C1099.625,137.18693387681157,1102,137.169384057971,1104.375,137.15183423913044C1106.75,137.13428442028987,1109.125,137.11673460144925,1111.5,137.0991847826087C1113.875,137.08163496376812,1116.25,137.06408514492756,1118.625,137.04653532608697C1121,137.02898550724638,1123.375,137.0114356884058,1125.75,136.99388586956522C1128.125,136.97633605072463,1130.5,136.95878623188406,1132.875,136.94123641304347C1135.25,136.92368659420288,1137.625,136.9061367753623,1140,136.88858695652175C1142.375,136.87103713768118,1144.75,136.8534873188406,1147.125,136.8359375C1149.5,136.8183876811594,1151.875,136.80083786231882,1154.25,136.78328804347825C1156.625,136.7657382246377,1159,136.74818840579712,1161.375,136.73063858695653C1163.75,136.71308876811594,1166.125,136.69553894927537,1168.5,136.67798913043478C1170.875,136.6604393115942,1173.25,136.64288949275362,1175.625,136.62533967391303C1178,136.60778985507244,1180.375,136.59024003623188,1182.75,136.5726902173913C1185.125,136.55514039855075,1187.5,136.53759057971013,1189.875,136.52004076086956C1192.25,136.502490942029,1194.625,136.48494112318843,1197,136.46739130434784C1199.375,136.44984148550725,1201.75,136.43229166666666,1204.125,136.41474184782606C1206.5,136.39719202898547,1208.875,136.37964221014494,1211.25,136.36209239130434C1213.625,136.34454257246375,1216,136.3269927536232,1218.375,136.3094429347826C1220.75,136.291893115942,1223.125,136.27434329710144,1225.5,136.25679347826087C1227.875,136.2392436594203,1230.25,136.2216938405797,1232.625,136.20414402173913C1235,136.18659420289856,1237.375,136.169044384058,1239.75,136.1514945652174C1242.125,136.1339447463768,1244.5,136.11639492753625,1246.875,136.09884510869566C1249.25,136.08129528985506,1251.625,136.06374547101453,1254,136.04619565217394C1256.375,136.02864583333334,1258.75,136.01109601449275,1261.125,135.99354619565216C1263.5,135.97599637681157,1265.875,135.958446557971,1268.25,135.94089673913044C1270.625,135.92334692028987,1273,135.90579710144925,1275.375,135.8882472826087C1277.75,135.87069746376812,1280.125,135.85314764492756,1282.5,135.83559782608697C1284.875,135.81804800724638,1287.25,135.8004981884058,1289.625,135.78294836956522C1292,135.76539855072463,1294.375,135.74784873188406,1296.75,135.73029891304347C1299.125,135.71274909420288,1301.5,135.6951992753623,1303.875,135.67764945652175C1306.25,135.66009963768118,1308.625,135.66009963768116,1311,135.625C1313.375,135.58990036231884,1315.75,130.78125,1318.125,128.359375C1320.5,125.9375,1322.875,123.515625,1325.25,121.09375C1327.625,118.671875,1330,116.25,1332.375,113.828125C1334.75,111.40625,1337.125,108.984375,1339.5,106.5625C1341.875,104.140625,1344.25,101.71875,1346.625,99.296875C1349,96.875,1351.375,94.453125,1353.75,92.03125C1356.125,89.609375,1358.5,87.1875,1360.875,84.765625C1363.25,82.34375,1365.625,79.921875,1368,77.5C1370.375,75.078125,1372.75,72.65625,1375.125,70.234375C1377.5,67.8125,1379.875,65.390625,1382.25,62.96875C1384.625,60.546875,1387,58.125,1389.375,55.703125C1391.75,53.28125,1394.125,50.859375,1396.5,48.4375C1398.875,46.015625,1401.25,43.59375,1403.625,41.171875C1406,38.75,1408.375,36.328125,1410.75,33.90625C1413.125,31.484375,1415.5,29.0625,1417.875,26.640625C1420.25,24.21875,1422.625,21.796875,1425,19.375" fill="transparent" stroke-linecap="round" stroke="#1AD4B3" stroke-width="2"></path><g class="visx-group visx-axis visx-axis-bottom" transform="translate(0, 155)"><g class="visx-group visx-axis-tick" transform="translate(0, 0)"><line class="visx-line" x1="0" y1="0" x2="0" y2="8" fill="transparent" shape-rendering="crispEdges" stroke="#F2F0F9" stroke-width="1" stroke-linecap="square"></line><svg x="0" y="0" font-size="11" style="overflow:visible"><text transform="" x="0" y="19" fill="#1B2030" font-size="11" text-anchor="middle"><tspan x="0" dy="0em">0%</tspan></text></svg></g><g class="visx-group visx-axis-tick" transform="translate(0, 0)"><line class="visx-line" x1="356.25" y1="0" x2="356.25" y2="8" fill="transparent" shape-rendering="crispEdges" stroke="#F2F0F9" stroke-width="1" stroke-linecap="square"></line><svg x="0" y="0" font-size="11" style="overflow:visible"><text transform="" x="356.25" y="19" fill="#1B2030" font-size="11" text-anchor="middle"><tspan x="356.25" dy="0em">25%</tspan></text></svg></g><g class="visx-group visx-axis-tick" transform="translate(0, 0)"><line class="visx-line" x1="712.5" y1="0" x2="712.5" y2="8" fill="transparent" shape-rendering="crispEdges" stroke="#F2F0F9" stroke-width="1" stroke-linecap="square"></line><svg x="0" y="0" font-size="11" style="overflow:visible"><text transform="" x="712.5" y="19" fill="#1B2030" font-size="11" text-anchor="middle"><tspan x="712.5" dy="0em">50%</tspan></text></svg></g><g class="visx-group visx-axis-tick" transform="translate(0, 0)"><line class="visx-line" x1="1068.75" y1="0" x2="1068.75" y2="8" fill="transparent" shape-rendering="crispEdges" stroke="#F2F0F9" stroke-width="1" stroke-linecap="square"></line><svg x="0" y="0" font-size="11" style="overflow:visible"><text transform="" x="1068.75" y="19" fill="#1B2030" font-size="11" text-anchor="middle"><tspan x="1068.75" dy="0em">75%</tspan></text></svg></g><g class="visx-group visx-axis-tick" transform="translate(0, 0)"><line class="visx-line" x1="1425" y1="0" x2="1425" y2="8" fill="transparent" shape-rendering="crispEdges" stroke="#F2F0F9" stroke-width="1" stroke-linecap="square"></line><svg x="0" y="0" font-size="11" style="overflow:visible"><text transform="" x="1425" y="19" fill="#1B2030" font-size="11" text-anchor="middle"><tspan x="1425" dy="0em">100%</tspan></text></svg></g></g><g class="visx-group visx-axis visx-axis-left" transform="translate(0, 0)"><g class="visx-group visx-axis-tick" transform="translate(0, 0)"><line class="visx-line" x1="0" y1="155" x2="-8" y2="155" fill="transparent" shape-rendering="crispEdges" stroke="#F2F0F9" stroke-width="1" stroke-linecap="square"></line><svg x="-30" y="0" font-size="11" style="overflow:visible"><text transform="" x="-8" y="155" fill="#1B2030" font-size="11" text-anchor="start"><tspan x="-8" dy="0em">0%</tspan></text></svg></g><g class="visx-group visx-axis-tick" transform="translate(0, 0)"><line class="visx-line" x1="0" y1="77.5" x2="-8" y2="77.5" fill="transparent" shape-rendering="crispEdges" stroke="#F2F0F9" stroke-width="1" stroke-linecap="square"></line><svg x="-30" y="0" font-size="11" style="overflow:visible"><text transform="" x="-8" y="77.5" fill="#1B2030" font-size="11" text-anchor="start"><tspan x="-8" dy="0em">50%</tspan></text></svg></g><g class="visx-group visx-axis-tick" transform="translate(0, 0)"><line class="visx-line" x1="0" y1="0" x2="-8" y2="0" fill="transparent" shape-rendering="crispEdges" stroke="#F2F0F9" stroke-width="1" stroke-linecap="square"></line><svg x="-30" y="0" font-size="11" style="overflow:visible"><text transform="" x="-8" y="0" fill="#1B2030" font-size="11" text-anchor="start"><tspan x="-8" dy="0em">100%</tspan></text></svg></g><line class="visx-line visx-axis-line" x1="0" y1="155.5" x2="0" y2="0.5" fill="transparent" shape-rendering="crispEdges" stroke="#F2F0F9" stroke-width="1"></line></g><rect class="visx-bar" width="1425" height="155" fill="transparent"></rect><line class="visx-line" x1="1311" y1="58" x2="1311" y2="155" fill="transparent" shape-rendering="crispEdges" stroke="#CDC8E1" stroke-width="1" pointer-events="none" stroke-dasharray="5"></line><svg x="0" y="0" font-size="11px" style="overflow:visible"><text transform="" x="1311" y="50" font-size="11px" fill="#555069" stroke="#FFFFFF" stroke-width="1px" text-anchor="middle"><tspan x="1311" dy="0.355em">Optimal utilization 92%</tspan></text></svg><svg x="0" y="0" font-size="11px" style="overflow:visible"><text transform="" x="1311" y="50" font-size="11px" fill="#CDC8E1" text-anchor="middle"><tspan x="1311" dy="0.355em">Optimal utilization 92%</tspan></text></svg></g></svg>