<?xml version="1.0"?><svg xmlns="http://www.w3.org/2000/svg" xmlns:xlink= "http://www.w3.org/1999/xlink" style="background: white;" width="1500" height="300"> <g style="color: black; font-size: 13px; font-family: sans-serif; transform: translate(18px, 25px);"><g><circle r="3" cx="-6" cy="-5" style="fill: #1AD4B3" /><text>Borrow APR, variable</text></g><g style="transform: translateX(150px);"><circle r="3" cx="-6" cy="-5" style="fill: #101423" /><text>Borrow APR, stable</text></g></g><g class="visx-group" transform="translate(45, 50)"><g class="visx-group visx-rows" transform="translate(0, 0)"><line class="visx-line" x1="0" y1="155" x2="1425" y2="155" fill="transparent" shape-rendering="crispEdges" stroke="#F2F0F9" stroke-width="1" pointer-events="none"></line><line class="visx-line" x1="0" y1="106.5625" x2="1425" y2="106.5625" fill="transparent" shape-rendering="crispEdges" stroke="#F2F0F9" stroke-width="1" pointer-events="none"></line><line class="visx-line" x1="0" y1="58.125" x2="1425" y2="58.125" fill="transparent" shape-rendering="crispEdges" stroke="#F2F0F9" stroke-width="1" pointer-events="none"></line><line class="visx-line" x1="0" y1="9.6875" x2="1425" y2="9.6875" fill="transparent" shape-rendering="crispEdges" stroke="#F2F0F9" stroke-width="1" pointer-events="none"></line></g><path class="visx-linepath" d="M0,154.99999999988495C2.375,154.98082682284956,4.75,154.96165364581415,7.125,154.94248046875C9.5,154.92330729168586,11.875,154.90413411458334,14.25,154.8849609375C16.625,154.86578776041668,19,154.84661458333332,21.375,154.82744140625C23.75,154.80826822916666,26.125,154.78909505208333,28.5,154.769921875C30.875,154.75074869791666,33.25,154.73157552083333,35.625,154.71240234375C38,154.69322916666667,40.375,154.67405598958334,42.75,154.6548828125C45.125,154.63570963541667,47.50000000000001,154.61653645833334,49.87500000000001,154.59736328125C52.25000000000001,154.57819010416668,54.625,154.55901692708335,57,154.53984375000002C59.375,154.52067057291669,61.75,154.50149739583333,64.125,154.48232421875C66.5,154.46315104166666,68.875,154.44397786458333,71.25,154.4248046875C73.625,154.40563151041667,76,154.38645833333334,78.375,154.36728515625C80.75,154.34811197916667,83.125,154.32893880208334,85.5,154.309765625C87.875,154.29059244791668,90.25,154.27141927083332,92.625,154.25224609375C95,154.23307291666666,97.37500000000001,154.21389973958333,99.75000000000001,154.1947265625C102.12500000000001,154.17555338541666,104.5,154.15638020833333,106.875,154.13720703125C109.25,154.11803385416667,111.625,154.09886067708334,114,154.0796875C116.375,154.06051432291667,118.75000000000001,154.04134114583331,121.12500000000001,154.02216796874998C123.50000000000001,154.00299479166665,125.875,153.98382161458332,128.25,153.9646484375C130.625,153.94547526041666,133,153.92630208333333,135.375,153.90712890625C137.75,153.88795572916666,140.125,153.86878255208333,142.5,153.849609375C144.875,153.83043619791667,147.25,153.81126302083334,149.625,153.79208984375C152,153.77291666666667,154.375,153.75374348958334,156.75,153.7345703125C159.125,153.71539713541668,161.5,153.69622395833332,163.875,153.67705078125C166.25,153.65787760416666,168.625,153.63870442708333,171,153.61953125C173.375,153.60035807291666,175.75,153.58118489583333,178.125,153.56201171875C180.5,153.54283854166667,182.875,153.52366536458334,185.25,153.5044921875C187.625,153.48531901041667,190,153.46614583333334,192.375,153.44697265625C194.75,153.42779947916668,197.12500000000003,153.40862630208332,199.50000000000003,153.389453125C201.875,153.37027994791666,204.25,153.35110677083333,206.62499999999997,153.33193359375C208.99999999999997,153.31276041666666,211.375,153.29358723958333,213.75,153.2744140625C216.125,153.25524088541667,218.5,153.23606770833334,220.875,153.21689453125C223.25,153.19772135416667,225.625,153.17854817708334,228,153.159375C230.375,153.14020182291668,232.75,153.12102864583335,235.125,153.10185546875002C237.5,153.08268229166669,239.87500000000003,153.06350911458333,242.25000000000003,153.0443359375C244.625,153.02516276041666,247,153.00598958333333,249.37499999999997,152.98681640625C251.74999999999997,152.96764322916667,254.125,152.94847005208334,256.5,152.929296875C258.875,152.91012369791667,261.25,152.89095052083334,263.625,152.87177734375C266,152.85260416666668,268.375,152.83343098958332,270.75,152.8142578125C273.125,152.79508463541666,275.5,152.77591145833333,277.875,152.75673828125C280.25,152.73756510416666,282.625,152.71839192708333,285,152.69921875C287.375,152.68004557291667,289.75,152.66087239583334,292.125,152.64169921875C294.5,152.62252604166667,296.875,152.60335286458331,299.25,152.58417968749998C301.625,152.56500651041665,304,152.54583333333332,306.375,152.52666015625C308.75,152.50748697916666,311.125,152.48831380208333,313.5,152.469140625C315.875,152.44996744791666,318.25,152.43079427083333,320.625,152.41162109375C323,152.39244791666667,325.375,152.37327473958334,327.75,152.3541015625C330.125,152.33492838541667,332.5,152.31575520833334,334.875,152.29658203125C337.25,152.27740885416668,339.625,152.25823567708332,342,152.2390625C344.375,152.21988932291666,346.75,152.20071614583333,349.125,152.18154296875C351.5,152.16236979166666,353.875,152.14319661458333,356.25,152.1240234375C358.625,152.10485026041667,361,152.08567708333334,363.375,152.06650390625C365.75,152.04733072916667,368.125,152.02815755208334,370.5,152.008984375C372.875,151.98981119791668,375.25,151.97063802083332,377.625,151.95146484375C380,151.93229166666666,382.375,151.91311848958333,384.75,151.8939453125C387.125,151.87477213541666,389.50000000000006,151.85559895833333,391.87500000000006,151.83642578125C394.25000000000006,151.81725260416667,396.62500000000006,151.79807942708334,399.00000000000006,151.77890625C401.375,151.75973307291667,403.75,151.74055989583334,406.12499999999994,151.72138671875C408.49999999999994,151.70221354166668,410.87499999999994,151.68304036458335,413.24999999999994,151.66386718750002C415.62499999999994,151.64469401041669,418,151.62552083333333,420.375,151.60634765625C422.75,151.58717447916666,425.125,151.56800130208333,427.5,151.548828125C429.875,151.52965494791667,432.25,151.51048177083334,434.625,151.49130859375C437,151.47213541666667,439.375,151.45296223958334,441.75,151.4337890625C444.125,151.41461588541668,446.5,151.39544270833332,448.875,151.37626953125C451.25,151.35709635416666,453.625,151.33792317708333,456,151.31875C458.375,151.29957682291666,460.75,151.28040364583333,463.125,151.26123046875C465.5,151.24205729166667,467.875,151.22288411458334,470.25,151.2037109375C472.625,151.18453776041667,475.00000000000006,151.16536458333331,477.37500000000006,151.14619140624998C479.75000000000006,151.12701822916665,482.12500000000006,151.10784505208332,484.50000000000006,151.088671875C486.875,151.06949869791666,489.25,151.05032552083333,491.62499999999994,151.03115234375C493.99999999999994,151.01197916666666,496.37499999999994,150.99280598958333,498.74999999999994,150.9736328125C501.12499999999994,150.95445963541667,503.5,150.93528645833334,505.875,150.91611328125C508.25,150.89694010416667,510.625,150.87776692708334,513,150.85859375C515.375,150.83942057291668,517.75,150.82024739583332,520.125,150.80107421875C522.5,150.78190104166666,524.875,150.76272786458333,527.25,150.7435546875C529.625,150.72438151041666,532,150.70520833333333,534.375,150.68603515625C536.75,150.66686197916667,539.125,150.64768880208334,541.5,150.628515625C543.875,150.60934244791667,546.25,150.59016927083334,548.625,150.57099609375C551,150.55182291666668,553.375,150.53264973958332,555.75,150.5134765625C558.125,150.49430338541666,560.5,150.47513020833333,562.875,150.45595703125C565.25,150.43678385416666,567.625,150.43678385416666,570,150.3984375C572.375,150.36009114583334,574.75,149.67725694444445,577.125,149.31666666666666C579.5,148.95607638888887,581.875,148.59548611111111,584.25,148.23489583333333C586.625,147.87430555555554,589,147.51371527777778,591.375,147.153125C593.75,146.7925347222222,596.125,146.4319444444444,598.5,146.07135416666665C600.875,145.7107638888889,603.25,145.35017361111113,605.625,144.98958333333334C608,144.62899305555555,610.375,144.2684027777778,612.75,143.9078125C615.125,143.54722222222222,617.5,143.18663194444446,619.875,142.82604166666667C622.25,142.46545138888888,624.625,142.10486111111112,627,141.74427083333333C629.375,141.38368055555554,631.75,141.02309027777778,634.125,140.6625C636.5,140.3019097222222,638.875,139.94131944444445,641.25,139.58072916666666C643.625,139.22013888888887,646,138.8595486111111,648.375,138.49895833333335C650.75,138.1383680555556,653.125,137.7777777777778,655.5,137.4171875C657.875,137.05659722222222,660.25,136.69600694444443,662.625,136.33541666666665C665,135.97482638888886,667.375,135.6142361111111,669.75,135.25364583333334C672.125,134.89305555555558,674.5,134.5324652777778,676.875,134.171875C679.25,133.8112847222222,681.625,133.45069444444445,684,133.09010416666666C686.375,132.72951388888887,688.75,132.3689236111111,691.125,132.00833333333333C693.5,131.64774305555557,695.875,131.2871527777778,698.25,130.92656250000002C700.625,130.56597222222223,703,130.20538194444444,705.375,129.84479166666665C707.75,129.48420138888886,710.125,129.12361111111113,712.5,128.76302083333334C714.875,128.40243055555555,717.25,128.04184027777777,719.625,127.68124999999999C722,127.32065972222222,724.375,126.96006944444444,726.75,126.59947916666667C729.125,126.2388888888889,731.5,125.8782986111111,733.875,125.51770833333333C736.25,125.15711805555556,738.625,124.79652777777777,741,124.4359375C743.375,124.07534722222222,745.75,123.71475694444445,748.125,123.35416666666667C750.5,122.9935763888889,752.875,122.63298611111111,755.25,122.27239583333333C757.625,121.91180555555556,760,121.55121527777777,762.375,121.190625C764.75,120.83003472222222,767.125,120.46944444444445,769.5,120.10885416666667C771.875,119.7482638888889,774.2500000000001,119.38767361111113,776.6250000000001,119.02708333333334C779.0000000000001,118.66649305555556,781.3750000000001,118.30590277777777,783.7500000000001,117.9453125C786.1250000000001,117.58472222222223,788.5000000000001,117.22413194444444,790.8750000000001,116.86354166666666C793.2500000000001,116.50295138888889,795.6250000000001,116.14236111111111,798.0000000000001,115.78177083333333C800.375,115.42118055555555,802.75,115.06059027777778,805.1249999999999,114.7C807.4999999999999,114.33940972222221,809.8749999999999,113.97881944444444,812.2499999999999,113.61822916666667C814.6249999999999,113.25763888888889,816.9999999999999,112.89704861111112,819.3749999999999,112.53645833333334C821.7499999999999,112.17586805555557,824.1249999999999,111.81527777777777,826.4999999999999,111.45468749999999C828.8749999999999,111.0940972222222,831.25,110.73350694444443,833.625,110.37291666666665C836,110.01232638888888,838.375,109.6517361111111,840.75,109.29114583333333C843.125,108.93055555555556,845.5,108.56996527777777,847.875,108.209375C850.25,107.84878472222222,852.625,107.48819444444445,855,107.12760416666667C857.375,106.7670138888889,859.75,106.40642361111111,862.125,106.04583333333333C864.5,105.68524305555556,866.875,105.32465277777779,869.25,104.96406250000001C871.625,104.60347222222224,874,104.24288194444445,876.375,103.88229166666667C878.75,103.5217013888889,881.125,103.16111111111111,883.5,102.80052083333334C885.875,102.43993055555556,888.25,102.07934027777777,890.625,101.71875C893,101.35815972222223,895.375,100.99756944444444,897.75,100.63697916666666C900.125,100.27638888888889,902.5,99.91579861111111,904.875,99.55520833333334C907.25,99.19461805555557,909.625,98.83402777777776,912,98.47343749999999C914.375,98.11284722222221,916.75,97.75225694444444,919.125,97.39166666666667C921.5,97.03107638888889,923.875,96.6704861111111,926.25,96.30989583333333C928.625,95.94930555555555,931,95.58871527777778,933.375,95.228125C935.75,94.86753472222223,938.125,94.50694444444444,940.5,94.14635416666667C942.875,93.7857638888889,945.25,93.42517361111112,947.625,93.06458333333335C950,92.70399305555557,952.3750000000001,92.34340277777778,954.7500000000001,91.98281250000001C957.1250000000001,91.62222222222223,959.5000000000001,91.26163194444446,961.8750000000001,90.90104166666669C964.2500000000001,90.54045138888891,966.6250000000001,90.17986111111111,969.0000000000001,89.81927083333333C971.3750000000001,89.45868055555556,973.7500000000001,89.09809027777779,976.1250000000001,88.7375C978.5,88.37690972222222,980.875,88.01631944444445,983.2499999999999,87.65572916666667C985.6249999999999,87.29513888888889,987.9999999999999,86.9345486111111,990.3749999999999,86.57395833333332C992.7499999999999,86.21336805555555,995.1249999999999,85.85277777777777,997.4999999999999,85.4921875C999.8749999999999,85.13159722222223,1002.2499999999999,84.77100694444444,1004.6249999999999,84.41041666666666C1006.9999999999999,84.04982638888887,1009.375,83.6892361111111,1011.75,83.32864583333333C1014.125,82.96805555555555,1016.5,82.60746527777778,1018.875,82.246875C1021.25,81.88628472222223,1023.625,81.52569444444444,1026,81.16510416666667C1028.375,80.80451388888889,1030.75,80.44392361111112,1033.125,80.08333333333334C1035.5,79.72274305555557,1037.875,79.36215277777777,1040.25,79.00156249999999C1042.625,78.64097222222222,1045,78.28038194444444,1047.375,77.91979166666667C1049.75,77.5592013888889,1052.125,77.19861111111112,1054.5,76.83802083333335C1056.875,76.47743055555557,1059.25,76.11684027777778,1061.625,75.75625000000001C1064,75.39565972222223,1066.375,75.03506944444443,1068.75,74.67447916666666C1071.125,74.31388888888888,1073.5,73.95329861111112,1075.875,73.59270833333335C1078.25,73.23211805555557,1080.625,72.87152777777777,1083,72.5109375C1085.375,72.15034722222222,1087.75,71.78975694444443,1090.125,71.42916666666666C1092.5,71.06857638888889,1094.875,70.70798611111111,1097.25,70.34739583333334C1099.625,69.98680555555556,1102,69.62621527777777,1104.375,69.265625C1106.75,68.90503472222223,1109.125,68.54444444444445,1111.5,68.18385416666668C1113.875,67.8232638888889,1116.25,67.4626736111111,1118.625,67.10208333333333C1121,66.74149305555555,1123.375,66.38090277777779,1125.75,66.02031250000002C1128.125,65.65972222222224,1130.5,65.29913194444444,1132.875,64.93854166666667C1135.25,64.57795138888889,1137.625,64.21736111111112,1140,63.856770833333336C1142.375,63.49618055555556,1144.75,63.13559027777778,1147.125,62.775000000000006C1149.5,62.41440972222223,1151.875,62.05381944444446,1154.25,61.693229166666676C1156.625,61.332638888888894,1159,60.972048611111106,1161.375,60.611458333333324C1163.75,60.25086805555554,1166.125,59.89027777777777,1168.5,59.529687499999994C1170.875,59.16909722222222,1173.25,58.80850694444444,1175.625,58.447916666666664C1178,58.08732638888889,1180.375,57.72673611111111,1182.75,57.366145833333334C1185.125,57.00555555555556,1187.5,56.64496527777778,1189.875,56.284375000000004C1192.25,55.92378472222223,1194.625,55.563194444444456,1197,55.202604166666674C1199.375,54.84201388888889,1201.75,54.48142361111111,1204.125,54.12083333333333C1206.5,53.76024305555555,1208.875,53.39965277777778,1211.25,53.0390625C1213.625,52.67847222222222,1216,52.317881944444444,1218.375,51.95729166666666C1220.75,51.59670138888888,1223.125,51.236111111111114,1225.5,50.87552083333333C1227.875,50.51493055555555,1230.25,50.15434027777777,1232.625,49.79374999999999C1235,49.43315972222221,1237.375,49.07256944444443,1239.75,48.71197916666666C1242.125,48.351388888888884,1244.5,47.9907986111111,1246.875,47.63020833333333C1249.25,47.269618055555554,1251.625,46.909027777777794,1254,46.54843750000001C1256.375,46.18784722222223,1258.75,45.82725694444443,1261.125,45.46666666666665C1263.5,45.106076388888866,1265.875,44.74548611111111,1268.25,44.38489583333334C1270.625,44.024305555555564,1273,43.66371527777778,1275.375,43.30312500000001C1277.75,42.942534722222234,1280.125,42.58194444444446,1282.5,42.22135416666668C1284.875,41.8607638888889,1287.25,41.50017361111111,1289.625,41.13958333333333C1292,40.778993055555546,1294.375,40.41840277777777,1296.75,40.0578125C1299.125,39.69722222222222,1301.5,39.33663194444445,1303.875,38.97604166666667C1306.25,38.615451388888886,1308.625,38.2548611111111,1311,37.89427083333332C1313.375,37.53368055555555,1315.75,37.17309027777778,1318.125,36.81250000000001C1320.5,36.45190972222223,1322.875,36.091319444444444,1325.25,35.73072916666666C1327.625,35.37013888888888,1330,35.00954861111111,1332.375,34.648958333333326C1334.75,34.288368055555544,1337.125,33.92777777777777,1339.5,33.567187499999996C1341.875,33.20659722222222,1344.25,32.84600694444447,1346.625,32.48541666666669C1349,32.124826388888906,1351.375,31.7642361111111,1353.75,31.40364583333332C1356.125,31.043055555555544,1358.5,30.682465277777784,1360.875,30.32187500000001C1363.25,29.961284722222235,1365.625,29.600694444444454,1368,29.240104166666676C1370.375,28.879513888888898,1372.75,28.518923611111113,1375.125,28.15833333333333C1377.5,27.79774305555555,1379.875,27.437152777777765,1382.25,27.076562499999984C1384.625,26.715972222222202,1387,26.355381944444424,1389.375,25.99479166666665C1391.75,25.634201388888876,1394.125,25.273611111111116,1396.5,24.913020833333338C1398.875,24.55243055555556,1401.25,24.191840277777768,1403.625,23.83124999999999C1406,23.470659722222212,1408.375,23.110069444444456,1410.75,22.749479166666678C1413.125,22.3888888888889,1415.5,22.02829861111109,1417.875,21.667708333333312C1420.25,21.307118055555534,1422.625,20.946527777777767,1425,20.5859375" fill="transparent" stroke-linecap="round" stroke="#1AD4B3" stroke-width="2"></path><g class="visx-group visx-axis visx-axis-bottom" transform="translate(0, 155)"><g class="visx-group visx-axis-tick" transform="translate(0, 0)"><line class="visx-line" x1="0" y1="0" x2="0" y2="8" fill="transparent" shape-rendering="crispEdges" stroke="#F2F0F9" stroke-width="1" stroke-linecap="square"></line><svg x="0" y="0" font-size="11" style="overflow:visible"><text transform="" x="0" y="19" fill="#1B2030" font-size="11" text-anchor="middle"><tspan x="0" dy="0em">0%</tspan></text></svg></g><g class="visx-group visx-axis-tick" transform="translate(0, 0)"><line class="visx-line" x1="356.25" y1="0" x2="356.25" y2="8" fill="transparent" shape-rendering="crispEdges" stroke="#F2F0F9" stroke-width="1" stroke-linecap="square"></line><svg x="0" y="0" font-size="11" style="overflow:visible"><text transform="" x="356.25" y="19" fill="#1B2030" font-size="11" text-anchor="middle"><tspan x="356.25" dy="0em">25%</tspan></text></svg></g><g class="visx-group visx-axis-tick" transform="translate(0, 0)"><line class="visx-line" x1="712.5" y1="0" x2="712.5" y2="8" fill="transparent" shape-rendering="crispEdges" stroke="#F2F0F9" stroke-width="1" stroke-linecap="square"></line><svg x="0" y="0" font-size="11" style="overflow:visible"><text transform="" x="712.5" y="19" fill="#1B2030" font-size="11" text-anchor="middle"><tspan x="712.5" dy="0em">50%</tspan></text></svg></g><g class="visx-group visx-axis-tick" transform="translate(0, 0)"><line class="visx-line" x1="1068.75" y1="0" x2="1068.75" y2="8" fill="transparent" shape-rendering="crispEdges" stroke="#F2F0F9" stroke-width="1" stroke-linecap="square"></line><svg x="0" y="0" font-size="11" style="overflow:visible"><text transform="" x="1068.75" y="19" fill="#1B2030" font-size="11" text-anchor="middle"><tspan x="1068.75" dy="0em">75%</tspan></text></svg></g><g class="visx-group visx-axis-tick" transform="translate(0, 0)"><line class="visx-line" x1="1425" y1="0" x2="1425" y2="8" fill="transparent" shape-rendering="crispEdges" stroke="#F2F0F9" stroke-width="1" stroke-linecap="square"></line><svg x="0" y="0" font-size="11" style="overflow:visible"><text transform="" x="1425" y="19" fill="#1B2030" font-size="11" text-anchor="middle"><tspan x="1425" dy="0em">100%</tspan></text></svg></g></g><g class="visx-group visx-axis visx-axis-left" transform="translate(0, 0)"><g class="visx-group visx-axis-tick" transform="translate(0, 0)"><line class="visx-line" x1="0" y1="155" x2="-8" y2="155" fill="transparent" shape-rendering="crispEdges" stroke="#F2F0F9" stroke-width="1" stroke-linecap="square"></line><svg x="-30" y="0" font-size="11" style="overflow:visible"><text transform="" x="-8" y="155" fill="#1B2030" font-size="11" text-anchor="start"><tspan x="-8" dy="0em">0%</tspan></text></svg></g><g class="visx-group visx-axis-tick" transform="translate(0, 0)"><line class="visx-line" x1="0" y1="106.5625" x2="-8" y2="106.5625" fill="transparent" shape-rendering="crispEdges" stroke="#F2F0F9" stroke-width="1" stroke-linecap="square"></line><svg x="-30" y="0" font-size="11" style="overflow:visible"><text transform="" x="-8" y="106.5625" fill="#1B2030" font-size="11" text-anchor="start"><tspan x="-8" dy="0em">50%</tspan></text></svg></g><g class="visx-group visx-axis-tick" transform="translate(0, 0)"><line class="visx-line" x1="0" y1="58.125" x2="-8" y2="58.125" fill="transparent" shape-rendering="crispEdges" stroke="#F2F0F9" stroke-width="1" stroke-linecap="square"></line><svg x="-30" y="0" font-size="11" style="overflow:visible"><text transform="" x="-8" y="58.125" fill="#1B2030" font-size="11" text-anchor="start"><tspan x="-8" dy="0em">100%</tspan></text></svg></g><g class="visx-group visx-axis-tick" transform="translate(0, 0)"><line class="visx-line" x1="0" y1="9.6875" x2="-8" y2="9.6875" fill="transparent" shape-rendering="crispEdges" stroke="#F2F0F9" stroke-width="1" stroke-linecap="square"></line><svg x="-30" y="0" font-size="11" style="overflow:visible"><text transform="" x="-8" y="9.6875" fill="#1B2030" font-size="11" text-anchor="start"><tspan x="-8" dy="0em">150%</tspan></text></svg></g><line class="visx-line visx-axis-line" x1="0" y1="155.5" x2="0" y2="0.5" fill="transparent" shape-rendering="crispEdges" stroke="#F2F0F9" stroke-width="1"></line></g><rect class="visx-bar" width="1425" height="155" fill="transparent"></rect><line class="visx-line" x1="570" y1="58" x2="570" y2="155" fill="transparent" shape-rendering="crispEdges" stroke="#CDC8E1" stroke-width="1" pointer-events="none" stroke-dasharray="5"></line><svg x="0" y="0" font-size="11px" style="overflow:visible"><text transform="" x="570" y="50" font-size="11px" fill="#555069" stroke="#FFFFFF" stroke-width="1px" text-anchor="middle"><tspan x="570" dy="0.355em">uOptimal 40%</tspan></text></svg><svg x="0" y="0" font-size="11px" style="overflow:visible"><text transform="" x="570" y="50" font-size="11px" fill="#CDC8E1" text-anchor="middle"><tspan x="570" dy="0.355em">uOptimal 40%</tspan></text></svg></g></svg>