<?xml version="1.0"?><svg xmlns="http://www.w3.org/2000/svg" xmlns:xlink= "http://www.w3.org/1999/xlink" style="background: white;" width="1500" height="300"> <g style="color: black; font-size: 13px; font-family: sans-serif; transform: translate(18px, 25px);"><g><circle r="3" cx="-6" cy="-5" style="fill: #1AD4B3" /><text>Borrow APR, variable</text></g><g style="transform: translateX(150px);"><circle r="3" cx="-6" cy="-5" style="fill: #101423" /><text>Borrow APR, stable</text></g></g><g class="visx-group" transform="translate(45, 50)"><g class="visx-group visx-rows" transform="translate(0, 0)"><line class="visx-line" x1="0" y1="155" x2="1425" y2="155" fill="transparent" shape-rendering="crispEdges" stroke="#F2F0F9" stroke-width="1" pointer-events="none"></line><line class="visx-line" x1="0" y1="77.5" x2="1425" y2="77.5" fill="transparent" shape-rendering="crispEdges" stroke="#F2F0F9" stroke-width="1" pointer-events="none"></line><line class="visx-line" x1="0" y1="0" x2="1425" y2="0" fill="transparent" shape-rendering="crispEdges" stroke="#F2F0F9" stroke-width="1" pointer-events="none"></line></g><path class="visx-linepath" d="M0,154.9999999999564C2.375,154.99273437497456,4.75,154.98546874999272,7.125,154.978203125C9.5,154.97093750000727,11.875,154.963671875,14.25,154.95640625C16.625,154.94914062499998,19,154.941875,21.375,154.934609375C23.75,154.92734375,26.125,154.920078125,28.5,154.9128125C30.875,154.905546875,33.25,154.89828125,35.625,154.891015625C38,154.88375,40.375,154.876484375,42.75,154.86921875C45.125,154.86195312499999,47.50000000000001,154.85468749999998,49.87500000000001,154.84742187499998C52.25000000000001,154.84015624999998,54.625,154.832890625,57,154.825625C59.375,154.818359375,61.75,154.81109375,64.125,154.803828125C66.5,154.7965625,68.875,154.789296875,71.25,154.78203125C73.625,154.774765625,76,154.7675,78.375,154.760234375C80.75,154.75296875,83.125,154.745703125,85.5,154.7384375C87.875,154.731171875,90.25,154.72390625,92.625,154.716640625C95,154.709375,97.37500000000001,154.70210937500002,99.75000000000001,154.69484375000002C102.12500000000001,154.68757812500002,104.5,154.6803125,106.875,154.673046875C109.25,154.66578125,111.625,154.658515625,114,154.65125C116.375,154.643984375,118.75000000000001,154.63671875,121.12500000000001,154.629453125C123.50000000000001,154.6221875,125.875,154.614921875,128.25,154.60765625C130.625,154.600390625,133,154.59312500000001,135.375,154.585859375C137.75,154.57859375,140.125,154.571328125,142.5,154.5640625C144.875,154.556796875,147.25,154.54953125,149.625,154.542265625C152,154.535,154.375,154.527734375,156.75,154.52046875C159.125,154.513203125,161.5,154.5059375,163.875,154.49867187499999C166.25,154.49140624999998,168.625,154.484140625,171,154.476875C173.375,154.469609375,175.75,154.46234375,178.125,154.455078125C180.5,154.4478125,182.875,154.440546875,185.25,154.43328125C187.625,154.426015625,190,154.41875,192.375,154.411484375C194.75,154.40421874999998,197.12500000000003,154.396953125,199.50000000000003,154.3896875C201.875,154.382421875,204.25,154.37515625,206.62499999999997,154.367890625C208.99999999999997,154.360625,211.375,154.353359375,213.75,154.34609375C216.125,154.338828125,218.5,154.3315625,220.875,154.324296875C223.25,154.31703124999999,225.625,154.309765625,228,154.3025C230.375,154.295234375,232.75,154.28796875,235.125,154.280703125C237.5,154.2734375,239.87500000000003,154.266171875,242.25000000000003,154.25890625C244.625,154.251640625,247,154.24437500000002,249.37499999999997,154.23710937500002C251.74999999999997,154.22984375000001,254.125,154.222578125,256.5,154.2153125C258.875,154.208046875,261.25,154.20078125,263.625,154.193515625C266,154.18625,268.375,154.178984375,270.75,154.17171875C273.125,154.164453125,275.5,154.1571875,277.875,154.149921875C280.25,154.14265625,282.625,154.135390625,285,154.128125C287.375,154.120859375,289.75,154.11359375,292.125,154.106328125C294.5,154.0990625,296.875,154.091796875,299.25,154.08453125C301.625,154.077265625,304,154.07,306.375,154.062734375C308.75,154.05546875,311.125,154.048203125,313.5,154.04093749999998C315.875,154.03367187499998,318.25,154.02640625,320.625,154.019140625C323,154.011875,325.375,154.004609375,327.75,153.99734375C330.125,153.990078125,332.5,153.9828125,334.875,153.975546875C337.25,153.96828125,339.625,153.961015625,342,153.95374999999999C344.375,153.94648437499998,346.75,153.93921875,349.125,153.931953125C351.5,153.9246875,353.875,153.917421875,356.25,153.91015625C358.625,153.902890625,361,153.895625,363.375,153.888359375C365.75,153.88109375,368.125,153.873828125,370.5,153.8665625C372.875,153.85929687499998,375.25,153.85203125,377.625,153.844765625C380,153.8375,382.375,153.830234375,384.75,153.82296875C387.125,153.815703125,389.50000000000006,153.8084375,391.87500000000006,153.801171875C394.25000000000006,153.79390625,396.62500000000006,153.78664062500002,399.00000000000006,153.77937500000002C401.375,153.772109375,403.75,153.76484375,406.12499999999994,153.757578125C408.49999999999994,153.7503125,410.87499999999994,153.743046875,413.24999999999994,153.73578125C415.62499999999994,153.728515625,418,153.72125,420.375,153.713984375C422.75,153.70671875,425.125,153.699453125,427.5,153.6921875C429.875,153.684921875,432.25,153.67765625,434.625,153.670390625C437,153.663125,439.375,153.655859375,441.75,153.64859375C444.125,153.641328125,446.5,153.6340625,448.875,153.626796875C451.25,153.61953125,453.625,153.612265625,456,153.605C458.375,153.597734375,460.75,153.59046875,463.125,153.583203125C465.5,153.5759375,467.875,153.568671875,470.25,153.56140625C472.625,153.554140625,475.00000000000006,153.546875,477.37500000000006,153.539609375C479.75000000000006,153.53234375,482.12500000000006,153.525078125,484.50000000000006,153.5178125C486.875,153.510546875,489.25,153.50328125,491.62499999999994,153.49601562499998C493.99999999999994,153.48874999999998,496.37499999999994,153.481484375,498.74999999999994,153.47421875C501.12499999999994,153.466953125,503.5,153.4596875,505.875,153.452421875C508.25,153.44515625,510.625,153.437890625,513,153.430625C515.375,153.423359375,517.75,153.41609375000002,520.125,153.408828125C522.5,153.4015625,524.875,153.394296875,527.25,153.38703125C529.625,153.379765625,532,153.3725,534.375,153.365234375C536.75,153.35796875,539.125,153.350703125,541.5,153.3434375C543.875,153.336171875,546.25,153.32890625000002,548.625,153.32164062500001C551,153.314375,553.375,153.307109375,555.75,153.29984375C558.125,153.292578125,560.5,153.2853125,562.875,153.278046875C565.25,153.27078125,567.625,153.263515625,570,153.25625C572.375,153.248984375,574.75,153.24171875000002,577.125,153.23445312500002C579.5,153.2271875,581.875,153.219921875,584.25,153.21265625C586.625,153.205390625,589,153.198125,591.375,153.190859375C593.75,153.18359375,596.125,153.176328125,598.5,153.1690625C600.875,153.161796875,603.25,153.15453125,605.625,153.147265625C608,153.14,610.375,153.132734375,612.75,153.12546875C615.125,153.118203125,617.5,153.1109375,619.875,153.103671875C622.25,153.09640625,624.625,153.089140625,627,153.081875C629.375,153.074609375,631.75,153.06734375,634.125,153.060078125C636.5,153.0528125,638.875,153.04554687499999,641.25,153.03828124999998C643.625,153.03101562499998,646,153.02375,648.375,153.016484375C650.75,153.00921875,653.125,153.001953125,655.5,152.9946875C657.875,152.987421875,660.25,152.98015625,662.625,152.972890625C665,152.965625,667.375,152.95835937500001,669.75,152.95109375C672.125,152.943828125,674.5,152.9365625,676.875,152.929296875C679.25,152.92203125,681.625,152.914765625,684,152.9075C686.375,152.900234375,688.75,152.89296875,691.125,152.885703125C693.5,152.8784375,695.875,152.87117187500002,698.25,152.86390625C700.625,152.856640625,703,152.849375,705.375,152.842109375C707.75,152.83484375,710.125,152.827578125,712.5,152.8203125C714.875,152.813046875,717.25,152.80578125,719.625,152.798515625C722,152.79125,724.375,152.78398437500002,726.75,152.77671875000001C729.125,152.769453125,731.5,152.7621875,733.875,152.754921875C736.25,152.74765625,738.625,152.740390625,741,152.733125C743.375,152.725859375,745.75,152.71859375,748.125,152.711328125C750.5,152.7040625,752.875,152.696796875,755.25,152.68953125C757.625,152.68226562499999,760,152.675,762.375,152.667734375C764.75,152.66046875,767.125,152.653203125,769.5,152.6459375C771.875,152.638671875,774.2500000000001,152.63140625,776.6250000000001,152.624140625C779.0000000000001,152.616875,781.3750000000001,152.609609375,783.7500000000001,152.60234375C786.1250000000001,152.595078125,788.5000000000001,152.58781249999998,790.8750000000001,152.58054687499998C793.2500000000001,152.57328124999998,795.6250000000001,152.566015625,798.0000000000001,152.55875C800.375,152.551484375,802.75,152.54421875,805.1249999999999,152.536953125C807.4999999999999,152.5296875,809.8749999999999,152.522421875,812.2499999999999,152.51515625C814.6249999999999,152.507890625,816.9999999999999,152.500625,819.3749999999999,152.493359375C821.7499999999999,152.48609375,824.1249999999999,152.478828125,826.4999999999999,152.4715625C828.8749999999999,152.464296875,831.25,152.45703125,833.625,152.449765625C836,152.4425,838.375,152.43523437500002,840.75,152.42796875000002C843.125,152.42070312500002,845.5,152.41343750000001,847.875,152.406171875C850.25,152.39890625,852.625,152.391640625,855,152.384375C857.375,152.377109375,859.75,152.36984375,862.125,152.362578125C864.5,152.3553125,866.875,152.348046875,869.25,152.34078125C871.625,152.333515625,874,152.32625000000002,876.375,152.318984375C878.75,152.31171875,881.125,152.304453125,883.5,152.2971875C885.875,152.289921875,888.25,152.28265625,890.625,152.275390625C893,152.268125,895.375,152.260859375,897.75,152.25359375C900.125,152.246328125,902.5,152.2390625,904.875,152.231796875C907.25,152.22453124999998,909.625,152.217265625,912,152.21C914.375,152.202734375,916.75,152.19546875,919.125,152.188203125C921.5,152.1809375,923.875,152.173671875,926.25,152.16640625C928.625,152.159140625,931,152.151875,933.375,152.144609375C935.75,152.13734374999999,938.125,152.13007812499998,940.5,152.12281249999998C942.875,152.11554687499998,945.25,152.10828125,947.625,152.101015625C950,152.09375,952.3750000000001,152.086484375,954.7500000000001,152.07921875C957.1250000000001,152.071953125,959.5000000000001,152.0646875,961.8750000000001,152.057421875C964.2500000000001,152.05015625,966.6250000000001,152.042890625,969.0000000000001,152.035625C971.3750000000001,152.028359375,973.7500000000001,152.02109375,976.1250000000001,152.013828125C978.5,152.0065625,980.875,151.999296875,983.2499999999999,151.99203125C985.6249999999999,151.984765625,987.9999999999999,151.97750000000002,990.3749999999999,151.97023437500002C992.7499999999999,151.96296875000002,995.1249999999999,151.955703125,997.4999999999999,151.9484375C999.8749999999999,151.941171875,1002.2499999999999,151.93390625,1004.6249999999999,151.926640625C1006.9999999999999,151.919375,1009.375,151.912109375,1011.75,151.90484375C1014.125,151.897578125,1016.5,151.8903125,1018.875,151.883046875C1021.25,151.87578125,1023.625,151.86851562500001,1026,151.86125C1028.375,151.853984375,1030.75,151.84671875,1033.125,151.839453125C1035.5,151.8321875,1037.875,151.824921875,1040.25,151.81765625C1042.625,151.810390625,1045,151.803125,1047.375,151.795859375C1049.75,151.78859375,1052.125,151.781328125,1054.5,151.77406249999999C1056.875,151.76679687499998,1059.25,151.75953125,1061.625,151.752265625C1064,151.745,1066.375,151.737734375,1068.75,151.73046875C1071.125,151.723203125,1073.5,151.7159375,1075.875,151.708671875C1078.25,151.70140625,1080.625,151.694140625,1083,151.686875C1085.375,151.67960937499998,1087.75,151.67234375,1090.125,151.665078125C1092.5,151.6578125,1094.875,151.650546875,1097.25,151.64328125C1099.625,151.636015625,1102,151.62875,1104.375,151.621484375C1106.75,151.61421875,1109.125,151.60695312500002,1111.5,151.59968750000002C1113.875,151.592421875,1116.25,151.58515625,1118.625,151.577890625C1121,151.570625,1123.375,151.563359375,1125.75,151.55609375C1128.125,151.548828125,1130.5,151.5415625,1132.875,151.534296875C1135.25,151.52703125,1137.625,151.52703125,1140,151.51250000000002C1142.375,151.49796875000004,1144.75,149.31666666666666,1147.125,148.21875C1149.5,147.12083333333334,1151.875,146.02291666666667,1154.25,144.925C1156.625,143.82708333333335,1159,142.72916666666669,1161.375,141.63125000000002C1163.75,140.53333333333336,1166.125,139.43541666666667,1168.5,138.3375C1170.875,137.23958333333334,1173.25,136.14166666666665,1175.625,135.04375C1178,133.94583333333333,1180.375,132.84791666666666,1182.75,131.75C1185.125,130.65208333333334,1187.5,129.55416666666667,1189.875,128.45625C1192.25,127.35833333333335,1194.625,126.26041666666666,1197,125.1625C1199.375,124.06458333333333,1201.75,122.96666666666667,1204.125,121.86875C1206.5,120.77083333333334,1208.875,119.67291666666667,1211.25,118.575C1213.625,117.47708333333334,1216,116.37916666666666,1218.375,115.28125C1220.75,114.18333333333334,1223.125,113.08541666666665,1225.5,111.98749999999998C1227.875,110.88958333333332,1230.25,109.79166666666666,1232.625,108.69375C1235,107.59583333333333,1237.375,106.49791666666665,1239.75,105.39999999999999C1242.125,104.30208333333333,1244.5,103.20416666666665,1246.875,102.10624999999999C1249.25,101.00833333333333,1251.625,99.91041666666666,1254,98.8125C1256.375,97.71458333333334,1258.75,96.61666666666666,1261.125,95.51875C1263.5,94.42083333333333,1265.875,93.32291666666666,1268.25,92.225C1270.625,91.12708333333333,1273,90.02916666666665,1275.375,88.93124999999999C1277.75,87.83333333333333,1280.125,86.73541666666667,1282.5,85.6375C1284.875,84.53958333333334,1287.25,83.44166666666666,1289.625,82.34375C1292,81.24583333333334,1294.375,80.14791666666666,1296.75,79.05C1299.125,77.95208333333333,1301.5,76.85416666666667,1303.875,75.75625000000001C1306.25,74.65833333333335,1308.625,73.56041666666667,1311,72.4625C1313.375,71.36458333333334,1315.75,70.26666666666667,1318.125,69.16875C1320.5,68.07083333333334,1322.875,66.97291666666666,1325.25,65.875C1327.625,64.77708333333334,1330,63.67916666666668,1332.375,62.58125000000001C1334.75,61.48333333333334,1337.125,60.385416666666664,1339.5,59.287499999999994C1341.875,58.189583333333324,1344.25,57.091666666666654,1346.625,55.99374999999999C1349,54.89583333333333,1351.375,53.79791666666666,1353.75,52.699999999999996C1356.125,51.60208333333333,1358.5,50.50416666666666,1360.875,49.40625C1363.25,48.30833333333334,1365.625,47.21041666666666,1368,46.1125C1370.375,45.014583333333334,1372.75,43.91666666666667,1375.125,42.81875C1377.5,41.72083333333333,1379.875,40.62291666666667,1382.25,39.525C1384.625,38.42708333333333,1387,37.329166666666666,1389.375,36.23125C1391.75,35.13333333333334,1394.125,34.03541666666666,1396.5,32.9375C1398.875,31.839583333333334,1401.25,30.74166666666667,1403.625,29.643750000000004C1406,28.545833333333338,1408.375,27.44791666666667,1410.75,26.350000000000005C1413.125,25.25208333333334,1415.5,24.15416666666668,1417.875,23.05625000000001C1420.25,21.95833333333334,1422.625,20.860416666666666,1425,19.762499999999992" fill="transparent" stroke-linecap="round" stroke="#1AD4B3" stroke-width="2"></path><g class="visx-group visx-axis visx-axis-bottom" transform="translate(0, 155)"><g class="visx-group visx-axis-tick" transform="translate(0, 0)"><line class="visx-line" x1="0" y1="0" x2="0" y2="8" fill="transparent" shape-rendering="crispEdges" stroke="#F2F0F9" stroke-width="1" stroke-linecap="square"></line><svg x="0" y="0" font-size="11" style="overflow:visible"><text transform="" x="0" y="19" fill="#1B2030" font-size="11" text-anchor="middle"><tspan x="0" dy="0em">0%</tspan></text></svg></g><g class="visx-group visx-axis-tick" transform="translate(0, 0)"><line class="visx-line" x1="356.25" y1="0" x2="356.25" y2="8" fill="transparent" shape-rendering="crispEdges" stroke="#F2F0F9" stroke-width="1" stroke-linecap="square"></line><svg x="0" y="0" font-size="11" style="overflow:visible"><text transform="" x="356.25" y="19" fill="#1B2030" font-size="11" text-anchor="middle"><tspan x="356.25" dy="0em">25%</tspan></text></svg></g><g class="visx-group visx-axis-tick" transform="translate(0, 0)"><line class="visx-line" x1="712.5" y1="0" x2="712.5" y2="8" fill="transparent" shape-rendering="crispEdges" stroke="#F2F0F9" stroke-width="1" stroke-linecap="square"></line><svg x="0" y="0" font-size="11" style="overflow:visible"><text transform="" x="712.5" y="19" fill="#1B2030" font-size="11" text-anchor="middle"><tspan x="712.5" dy="0em">50%</tspan></text></svg></g><g class="visx-group visx-axis-tick" transform="translate(0, 0)"><line class="visx-line" x1="1068.75" y1="0" x2="1068.75" y2="8" fill="transparent" shape-rendering="crispEdges" stroke="#F2F0F9" stroke-width="1" stroke-linecap="square"></line><svg x="0" y="0" font-size="11" style="overflow:visible"><text transform="" x="1068.75" y="19" fill="#1B2030" font-size="11" text-anchor="middle"><tspan x="1068.75" dy="0em">75%</tspan></text></svg></g><g class="visx-group visx-axis-tick" transform="translate(0, 0)"><line class="visx-line" x1="1425" y1="0" x2="1425" y2="8" fill="transparent" shape-rendering="crispEdges" stroke="#F2F0F9" stroke-width="1" stroke-linecap="square"></line><svg x="0" y="0" font-size="11" style="overflow:visible"><text transform="" x="1425" y="19" fill="#1B2030" font-size="11" text-anchor="middle"><tspan x="1425" dy="0em">100%</tspan></text></svg></g></g><g class="visx-group visx-axis visx-axis-left" transform="translate(0, 0)"><g class="visx-group visx-axis-tick" transform="translate(0, 0)"><line class="visx-line" x1="0" y1="155" x2="-8" y2="155" fill="transparent" shape-rendering="crispEdges" stroke="#F2F0F9" stroke-width="1" stroke-linecap="square"></line><svg x="-30" y="0" font-size="11" style="overflow:visible"><text transform="" x="-8" y="155" fill="#1B2030" font-size="11" text-anchor="start"><tspan x="-8" dy="0em">0%</tspan></text></svg></g><g class="visx-group visx-axis-tick" transform="translate(0, 0)"><line class="visx-line" x1="0" y1="77.5" x2="-8" y2="77.5" fill="transparent" shape-rendering="crispEdges" stroke="#F2F0F9" stroke-width="1" stroke-linecap="square"></line><svg x="-30" y="0" font-size="11" style="overflow:visible"><text transform="" x="-8" y="77.5" fill="#1B2030" font-size="11" text-anchor="start"><tspan x="-8" dy="0em">50%</tspan></text></svg></g><g class="visx-group visx-axis-tick" transform="translate(0, 0)"><line class="visx-line" x1="0" y1="0" x2="-8" y2="0" fill="transparent" shape-rendering="crispEdges" stroke="#F2F0F9" stroke-width="1" stroke-linecap="square"></line><svg x="-30" y="0" font-size="11" style="overflow:visible"><text transform="" x="-8" y="0" fill="#1B2030" font-size="11" text-anchor="start"><tspan x="-8" dy="0em">100%</tspan></text></svg></g><line class="visx-line visx-axis-line" x1="0" y1="155.5" x2="0" y2="0.5" fill="transparent" shape-rendering="crispEdges" stroke="#F2F0F9" stroke-width="1"></line></g><rect class="visx-bar" width="1425" height="155" fill="transparent"></rect><line class="visx-line" x1="1140" y1="58" x2="1140" y2="155" fill="transparent" shape-rendering="crispEdges" stroke="#CDC8E1" stroke-width="1" pointer-events="none" stroke-dasharray="5"></line><svg x="0" y="0" font-size="11px" style="overflow:visible"><text transform="" x="1140" y="50" font-size="11px" fill="#555069" stroke="#FFFFFF" stroke-width="1px" text-anchor="middle"><tspan x="1140" dy="0.355em">Optimal utilization 80%</tspan></text></svg><svg x="0" y="0" font-size="11px" style="overflow:visible"><text transform="" x="1140" y="50" font-size="11px" fill="#CDC8E1" text-anchor="middle"><tspan x="1140" dy="0.355em">Optimal utilization 80%</tspan></text></svg></g></svg>