<?xml version="1.0"?><svg xmlns="http://www.w3.org/2000/svg" xmlns:xlink= "http://www.w3.org/1999/xlink" style="background: white;" width="1500" height="185"> <g style="color: black; font-size: 13px; font-family: sans-serif; transform: translate(18px, 25px);"><g><circle r="3" cx="-6" cy="-5" style="fill: #B6509E" /><text>Borrow APR, variable</text></g><g style="transform: translateX(150px);"><circle r="3" cx="-6" cy="-5" style="fill: rgb(231, 198, 223)" /><text>Borrow APR, stable</text></g><g style="transform: translateX(290px);"><circle r="3" cx="-6" cy="-5" style="fill: rgb(0, 98, 210)" /><text>Utilization Rate</text></g></g><g class="visx-group" transform="translate(40, 50)"><g class="visx-group visx-rows" transform="translate(0, 0)"><line class="visx-line" x1="0" y1="115" x2="1450" y2="115" fill="transparent" shape-rendering="crispEdges" stroke="#000" stroke-width="1" stroke-dasharray="3,3" pointer-events="none"></line><line class="visx-line" x1="0" y1="57.5" x2="1450" y2="57.5" fill="transparent" shape-rendering="crispEdges" stroke="#000" stroke-width="1" stroke-dasharray="3,3" pointer-events="none"></line><line class="visx-line" x1="0" y1="0" x2="1450" y2="0" fill="transparent" shape-rendering="crispEdges" stroke="#000" stroke-width="1" stroke-dasharray="3,3" pointer-events="none"></line></g><path class="visx-linepath" d="M0,114.9999999999489C2.4166666666666665,114.99148148145167,4.833333333333334,114.98296296295445,7.25,114.97444444444444C9.666666666666666,114.96592592593444,12.083333333333334,114.9574074074074,14.5,114.94888888888889C16.916666666666668,114.94037037037037,19.333333333333332,114.93185185185185,21.75,114.92333333333333C24.166666666666668,114.91481481481482,26.583333333333332,114.90629629629629,29,114.89777777777778C31.416666666666668,114.88925925925926,33.833333333333336,114.88074074074075,36.25,114.87222222222223C38.666666666666664,114.86370370370372,41.083333333333336,114.85518518518518,43.5,114.84666666666666C45.91666666666667,114.83814814814814,48.333333333333336,114.82962962962962,50.75000000000001,114.82111111111111C53.16666666666667,114.8125925925926,55.583333333333336,114.80407407407407,58,114.79555555555555C60.416666666666664,114.78703703703704,62.833333333333336,114.77851851851851,65.25,114.77C67.66666666666667,114.76148148148148,70.08333333333333,114.75296296296295,72.5,114.74444444444444C74.91666666666667,114.73592592592593,77.33333333333333,114.7274074074074,79.75,114.71888888888888C82.16666666666667,114.71037037037037,84.58333333333333,114.70185185185184,87,114.69333333333333C89.41666666666667,114.68481481481481,91.83333333333333,114.67629629629629,94.25,114.66777777777777C96.66666666666667,114.65925925925926,99.08333333333334,114.65074074074074,101.50000000000001,114.64222222222223C103.91666666666667,114.63370370370372,106.33333333333334,114.62518518518519,108.75,114.61666666666667C111.16666666666667,114.60814814814816,113.58333333333333,114.59962962962963,116,114.59111111111112C118.41666666666667,114.5825925925926,120.83333333333334,114.57407407407408,123.25000000000001,114.56555555555556C125.66666666666667,114.55703703703705,128.08333333333334,114.54851851851852,130.5,114.54C132.91666666666666,114.53148148148148,135.33333333333334,114.52296296296296,137.75,114.51444444444444C140.16666666666666,114.50592592592591,142.58333333333334,114.4974074074074,145,114.48888888888888C147.41666666666666,114.48037037037037,149.83333333333334,114.47185185185184,152.25,114.46333333333332C154.66666666666666,114.45481481481481,157.08333333333334,114.44629629629628,159.5,114.43777777777777C161.91666666666666,114.42925925925925,164.33333333333334,114.42074074074074,166.75,114.41222222222223C169.16666666666666,114.40370370370371,171.58333333333334,114.39518518518518,174,114.38666666666667C176.41666666666666,114.37814814814816,178.83333333333334,114.36962962962963,181.25,114.36111111111111C183.66666666666666,114.3525925925926,186.08333333333334,114.34407407407407,188.5,114.33555555555556C190.91666666666666,114.32703703703704,193.33333333333334,114.31851851851852,195.75,114.31C198.16666666666669,114.30148148148149,200.58333333333334,114.29296296296296,203.00000000000003,114.28444444444445C205.41666666666669,114.27592592592593,207.83333333333331,114.2674074074074,210.24999999999997,114.25888888888889C212.66666666666666,114.25037037037038,215.08333333333331,114.24185185185185,217.5,114.23333333333333C219.91666666666666,114.22481481481482,222.33333333333334,114.21629629629629,224.75,114.20777777777778C227.16666666666666,114.19925925925926,229.58333333333334,114.19074074074074,232,114.18222222222222C234.41666666666666,114.17370370370371,236.83333333333334,114.16518518518518,239.25,114.15666666666667C241.66666666666669,114.14814814814815,244.08333333333334,114.13962962962962,246.50000000000003,114.13111111111111C248.91666666666669,114.1225925925926,251.33333333333331,114.11407407407407,253.74999999999997,114.10555555555555C256.16666666666663,114.09703703703704,258.5833333333333,114.08851851851851,261,114.08C263.4166666666667,114.07148148148148,265.8333333333333,114.06296296296296,268.25,114.05444444444444C270.6666666666667,114.04592592592593,273.0833333333333,114.0374074074074,275.5,114.02888888888889C277.9166666666667,114.02037037037037,280.3333333333333,114.01185185185184,282.75,114.00333333333333C285.1666666666667,113.99481481481482,287.5833333333333,113.9862962962963,290,113.97777777777779C292.4166666666667,113.96925925925927,294.8333333333333,113.96074074074075,297.25,113.95222222222223C299.6666666666667,113.94370370370372,302.0833333333333,113.93518518518519,304.5,113.92666666666668C306.9166666666667,113.91814814814816,309.3333333333333,113.90962962962962,311.75,113.9011111111111C314.1666666666667,113.89259259259259,316.5833333333333,113.88407407407406,319,113.87555555555555C321.4166666666667,113.86703703703704,323.8333333333333,113.85851851851851,326.25,113.85C328.6666666666667,113.84148148148148,331.0833333333333,113.83296296296295,333.5,113.82444444444444C335.9166666666667,113.81592592592592,338.3333333333333,113.8074074074074,340.75,113.79888888888888C343.1666666666667,113.79037037037037,345.5833333333333,113.78185185185184,348,113.77333333333333C350.4166666666667,113.76481481481481,352.8333333333333,113.7562962962963,355.25,113.74777777777778C357.6666666666667,113.73925925925927,360.0833333333333,113.73074074074074,362.5,113.72222222222223C364.9166666666667,113.71370370370371,367.3333333333333,113.70518518518519,369.75,113.69666666666667C372.1666666666667,113.68814814814816,374.5833333333333,113.67962962962963,377,113.67111111111112C379.4166666666667,113.6625925925926,381.8333333333333,113.65407407407407,384.25,113.64555555555556C386.6666666666667,113.63703703703705,389.0833333333333,113.62851851851852,391.5,113.62C393.9166666666667,113.61148148148149,396.33333333333337,113.60296296296298,398.75000000000006,113.59444444444445C401.16666666666674,113.58592592592593,403.58333333333337,113.5774074074074,406.00000000000006,113.56888888888888C408.4166666666667,113.56037037037036,410.8333333333333,113.55185185185184,413.24999999999994,113.54333333333332C415.66666666666663,113.53481481481481,418.08333333333326,113.5262962962963,420.49999999999994,113.51777777777778C422.91666666666663,113.50925925925927,425.3333333333333,113.50074074074074,427.75,113.49222222222222C430.1666666666667,113.48370370370371,432.5833333333333,113.47518518518518,435,113.46666666666667C437.4166666666667,113.45814814814815,439.8333333333333,113.44962962962963,442.25,113.44111111111111C444.6666666666667,113.4325925925926,447.0833333333333,113.42407407407407,449.5,113.41555555555556C451.9166666666667,113.40703703703704,454.3333333333333,113.39851851851851,456.75,113.39C459.1666666666667,113.38148148148149,461.5833333333333,113.37296296296296,464,113.36444444444444C466.4166666666667,113.35592592592593,468.8333333333333,113.3474074074074,471.25,113.33888888888889C473.6666666666667,113.33037037037037,476.0833333333333,113.32185185185185,478.5,113.31333333333333C480.9166666666667,113.30481481481482,483.33333333333337,113.29629629629629,485.75000000000006,113.28777777777778C488.16666666666674,113.27925925925926,490.58333333333337,113.27074074074073,493.00000000000006,113.26222222222222C495.4166666666667,113.2537037037037,497.8333333333333,113.24518518518518,500.24999999999994,113.23666666666666C502.66666666666663,113.22814814814815,505.08333333333326,113.21962962962962,507.49999999999994,113.21111111111111C509.91666666666663,113.2025925925926,512.3333333333333,113.19407407407407,514.75,113.18555555555555C517.1666666666666,113.17703703703704,519.5833333333334,113.16851851851851,522,113.16C524.4166666666666,113.15148148148148,526.8333333333334,113.14296296296295,529.25,113.13444444444444C531.6666666666666,113.12592592592593,534.0833333333334,113.1174074074074,536.5,113.10888888888888C538.9166666666666,113.10037037037037,541.3333333333334,113.09185185185184,543.75,113.08333333333333C546.1666666666666,113.07481481481481,548.5833333333334,113.0662962962963,551,113.05777777777779C553.4166666666666,113.04925925925927,555.8333333333334,113.04074074074074,558.25,113.03222222222223C560.6666666666666,113.02370370370372,563.0833333333334,113.01518518518519,565.5,113.00666666666667C567.9166666666666,112.99814814814816,570.3333333333334,112.98962962962963,572.75,112.98111111111112C575.1666666666666,112.9725925925926,577.5833333333334,112.96407407407406,580,112.95555555555555C582.4166666666666,112.94703703703703,584.8333333333334,112.9385185185185,587.25,112.92999999999999C589.6666666666666,112.92148148148148,592.0833333333334,112.91296296296295,594.5,112.90444444444444C596.9166666666666,112.89592592592592,599.3333333333334,112.8874074074074,601.75,112.87888888888888C604.1666666666666,112.87037037037037,606.5833333333334,112.86185185185184,609,112.85333333333332C611.4166666666666,112.84481481481481,613.8333333333334,112.8362962962963,616.25,112.82777777777778C618.6666666666666,112.81925925925927,621.0833333333334,112.81074074074074,623.5,112.80222222222223C625.9166666666666,112.79370370370371,628.3333333333334,112.78518518518518,630.75,112.77666666666667C633.1666666666666,112.76814814814816,635.5833333333334,112.75962962962963,638,112.75111111111111C640.4166666666666,112.7425925925926,642.8333333333334,112.73407407407407,645.25,112.72555555555556C647.6666666666666,112.71703703703704,650.0833333333334,112.70851851851852,652.5,112.7C654.9166666666666,112.69148148148149,657.3333333333334,112.68296296296296,659.75,112.67444444444445C662.1666666666666,112.66592592592593,664.5833333333334,112.6574074074074,667,112.64888888888889C669.4166666666666,112.64037037037038,671.8333333333334,112.63185185185185,674.25,112.62333333333333C676.6666666666666,112.61481481481482,679.0833333333334,112.60629629629629,681.5,112.59777777777778C683.9166666666666,112.58925925925926,686.3333333333334,112.58074074074074,688.75,112.57222222222222C691.1666666666666,112.56370370370371,693.5833333333334,112.55518518518518,696,112.54666666666667C698.4166666666666,112.53814814814815,700.8333333333334,112.52962962962962,703.25,112.52111111111111C705.6666666666666,112.5125925925926,708.0833333333334,112.50407407407407,710.5,112.49555555555555C712.9166666666666,112.48703703703704,715.3333333333334,112.47851851851851,717.75,112.47C720.1666666666666,112.46148148148148,722.5833333333334,112.45296296296296,725,112.44444444444444C727.4166666666666,112.43592592592593,729.8333333333334,112.4274074074074,732.25,112.41888888888889C734.6666666666666,112.41037037037037,737.0833333333334,112.40185185185186,739.5,112.39333333333335C741.9166666666666,112.38481481481483,744.3333333333334,112.37629629629632,746.75,112.36777777777779C749.1666666666666,112.35925925925926,751.5833333333334,112.35074074074075,754,112.34222222222222C756.4166666666666,112.33370370370369,758.8333333333334,112.32518518518518,761.25,112.31666666666666C763.6666666666666,112.30814814814815,766.0833333333334,112.29962962962962,768.5,112.2911111111111C770.9166666666666,112.2825925925926,773.3333333333334,112.27407407407406,775.75,112.26555555555555C778.1666666666666,112.25703703703704,780.5833333333334,112.24851851851851,783,112.24C785.4166666666667,112.23148148148148,787.8333333333334,112.22296296296295,790.2500000000001,112.21444444444444C792.6666666666667,112.20592592592592,795.0833333333335,112.1974074074074,797.5000000000001,112.18888888888888C799.9166666666667,112.18037037037037,802.3333333333335,112.17185185185186,804.7500000000001,112.16333333333334C807.1666666666667,112.15481481481483,809.5833333333335,112.1462962962963,812.0000000000001,112.13777777777779C814.4166666666667,112.12925925925927,816.8333333333333,112.12074074074074,819.2499999999999,112.11222222222223C821.6666666666665,112.10370370370372,824.0833333333333,112.09518518518519,826.4999999999999,112.08666666666667C828.9166666666665,112.07814814814816,831.3333333333333,112.06962962962963,833.7499999999999,112.06111111111112C836.1666666666665,112.0525925925926,838.5833333333333,112.04407407407408,840.9999999999999,112.03555555555556C843.4166666666666,112.02703703703703,845.8333333333333,112.01851851851852,848.25,112.00999999999999C850.6666666666666,112.00148148148148,853.0833333333334,111.99296296296295,855.5,111.98444444444443C857.9166666666666,111.97592592592592,860.3333333333334,111.96740740740739,862.75,111.95888888888888C865.1666666666666,111.95037037037036,867.5833333333334,111.94185185185185,870,111.93333333333334C872.4166666666666,111.92481481481482,874.8333333333334,111.9162962962963,877.25,111.90777777777778C879.6666666666666,111.89925925925927,882.0833333333334,111.89074074074074,884.5,111.88222222222223C886.9166666666666,111.87370370370371,889.3333333333334,111.86518518518518,891.75,111.85666666666667C894.1666666666666,111.84814814814816,896.5833333333334,111.83962962962963,899,111.83111111111111C901.4166666666666,111.8225925925926,903.8333333333334,111.81407407407407,906.25,111.80555555555556C908.6666666666666,111.79703703703704,911.0833333333334,111.78851851851852,913.5,111.78C915.9166666666666,111.77148148148149,918.3333333333334,111.76296296296296,920.75,111.75444444444445C923.1666666666666,111.74592592592593,925.5833333333334,111.7374074074074,928,111.72888888888889C930.4166666666666,111.72037037037038,932.8333333333334,111.71185185185185,935.25,111.70333333333333C937.6666666666666,111.69481481481482,940.0833333333334,111.68629629629629,942.5,111.67777777777778C944.9166666666666,111.66925925925926,947.3333333333334,111.66074074074074,949.75,111.65222222222222C952.1666666666666,111.64370370370371,954.5833333333334,111.63518518518518,957,111.62666666666667C959.4166666666666,111.61814814814815,961.8333333333334,111.60962962962962,964.25,111.60111111111111C966.6666666666667,111.5925925925926,969.0833333333334,111.58407407407407,971.5000000000001,111.57555555555555C973.9166666666667,111.56703703703704,976.3333333333335,111.55851851851851,978.7500000000001,111.55C981.1666666666667,111.54148148148148,983.5833333333335,111.53296296296296,986.0000000000001,111.52444444444444C988.4166666666667,111.51592592592593,990.8333333333335,111.5074074074074,993.2500000000001,111.49888888888889C995.6666666666667,111.49037037037037,998.0833333333333,111.48185185185186,1000.4999999999999,111.47333333333334C1002.9166666666665,111.46481481481483,1005.3333333333333,111.4562962962963,1007.7499999999999,111.44777777777779C1010.1666666666665,111.43925925925927,1012.5833333333333,111.43074074074076,1014.9999999999999,111.42222222222223C1017.4166666666665,111.4137037037037,1019.8333333333333,111.40518518518518,1022.2499999999999,111.39666666666666C1024.6666666666665,111.38814814814813,1027.0833333333333,111.37962962962962,1029.5,111.3711111111111C1031.9166666666667,111.36259259259259,1034.3333333333333,111.35407407407406,1036.75,111.34555555555555C1039.1666666666667,111.33703703703704,1041.5833333333333,111.32851851851851,1044,111.32C1046.4166666666667,111.31148148148148,1048.8333333333333,111.30296296296295,1051.25,111.29444444444444C1053.6666666666667,111.28592592592592,1056.0833333333333,111.2774074074074,1058.5,111.26888888888888C1060.9166666666667,111.26037037037037,1063.3333333333333,111.25185185185185,1065.75,111.24333333333334C1068.1666666666667,111.23481481481483,1070.5833333333333,111.2262962962963,1073,111.21777777777778C1075.4166666666667,111.20925925925927,1077.8333333333333,111.20074074074074,1080.25,111.19222222222223C1082.6666666666667,111.18370370370371,1085.0833333333333,111.17518518518519,1087.5,111.16666666666667C1089.9166666666667,111.15814814814816,1092.3333333333333,111.14962962962963,1094.75,111.14111111111112C1097.1666666666667,111.1325925925926,1099.5833333333333,111.12407407407407,1102,111.11555555555556C1104.4166666666667,111.10703703703705,1106.8333333333333,111.09851851851852,1109.25,111.09C1111.6666666666667,111.08148148148149,1114.0833333333333,111.07296296296295,1116.5,111.06444444444443C1118.9166666666667,111.05592592592592,1121.3333333333333,111.04740740740739,1123.75,111.03888888888888C1126.1666666666667,111.03037037037036,1128.5833333333333,111.02185185185185,1131,111.01333333333334C1133.4166666666667,111.00481481481482,1135.8333333333333,110.9962962962963,1138.25,110.98777777777778C1140.6666666666667,110.97925925925927,1143.0833333333333,110.97074074074074,1145.5,110.96222222222222C1147.9166666666667,110.95370370370371,1150.3333333333333,110.94518518518518,1152.75,110.93666666666667C1155.1666666666667,110.92814814814815,1157.5833333333333,110.91962962962963,1160,110.91111111111111C1162.4166666666667,110.9025925925926,1164.8333333333333,110.89407407407407,1167.25,110.88555555555556C1169.6666666666667,110.87703703703704,1172.0833333333333,110.86851851851851,1174.5,110.86C1176.9166666666667,110.85148148148149,1179.3333333333333,110.84296296296296,1181.75,110.83444444444444C1184.1666666666667,110.82592592592593,1186.5833333333333,110.8174074074074,1189,110.80888888888889C1191.4166666666667,110.80037037037037,1193.8333333333333,110.79185185185185,1196.25,110.78333333333333C1198.6666666666667,110.77481481481482,1201.0833333333333,110.76629629629629,1203.5,110.75777777777778C1205.9166666666667,110.74925925925926,1208.3333333333333,110.74074074074073,1210.75,110.73222222222222C1213.1666666666667,110.7237037037037,1215.5833333333333,110.71518518518518,1218,110.70666666666666C1220.4166666666667,110.69814814814815,1222.8333333333333,110.68962962962962,1225.25,110.68111111111111C1227.6666666666667,110.6725925925926,1230.0833333333333,110.66407407407407,1232.5,110.65555555555555C1234.9166666666667,110.64703703703704,1237.3333333333333,110.63851851851851,1239.75,110.63C1242.1666666666667,110.62148148148148,1244.5833333333333,110.61296296296295,1247,110.60444444444444C1249.4166666666667,110.59592592592593,1251.8333333333333,110.5874074074074,1254.25,110.57888888888888C1256.6666666666667,110.57037037037037,1259.0833333333333,110.56185185185186,1261.5,110.55333333333334C1263.9166666666667,110.54481481481483,1266.3333333333333,110.5362962962963,1268.75,110.52777777777779C1271.1666666666667,110.51925925925927,1273.5833333333333,110.51074074074074,1276,110.50222222222223C1278.4166666666667,110.49370370370372,1280.8333333333333,110.4851851851852,1283.25,110.47666666666667C1285.6666666666667,110.46814814814815,1288.0833333333333,110.45962962962963,1290.5,110.4511111111111C1292.9166666666667,110.44259259259258,1295.3333333333333,110.43407407407406,1297.75,110.42555555555555C1300.1666666666667,110.41703703703703,1302.5833333333333,110.41703703703703,1305,110.39999999999999C1307.4166666666667,110.38296296296295,1309.8333333333333,107.52499999999999,1312.25,106.08749999999999C1314.6666666666667,104.64999999999999,1317.0833333333333,103.2125,1319.5,101.775C1321.9166666666667,100.3375,1324.3333333333333,98.9,1326.75,97.4625C1329.1666666666667,96.025,1331.5833333333333,94.5875,1334,93.15C1336.4166666666667,91.7125,1338.8333333333333,90.27499999999999,1341.25,88.83749999999999C1343.6666666666667,87.39999999999999,1346.0833333333333,85.96249999999999,1348.5,84.52499999999999C1350.9166666666667,83.08749999999999,1353.3333333333333,81.65,1355.75,80.2125C1358.1666666666667,78.775,1360.5833333333333,77.33749999999999,1363,75.89999999999999C1365.4166666666667,74.46249999999999,1367.8333333333333,73.025,1370.25,71.5875C1372.6666666666667,70.15,1375.0833333333333,68.71249999999999,1377.5,67.27499999999999C1379.9166666666667,65.83749999999999,1382.3333333333333,64.39999999999999,1384.75,62.9625C1387.1666666666667,61.525,1389.5833333333333,60.0875,1392,58.65C1394.4166666666667,57.2125,1396.8333333333333,55.775000000000006,1399.25,54.337500000000006C1401.6666666666667,52.900000000000006,1404.0833333333333,51.462500000000006,1406.5,50.025000000000006C1408.9166666666667,48.587500000000006,1411.3333333333333,47.15,1413.75,45.7125C1416.1666666666667,44.275,1418.5833333333333,42.8375,1421,41.4C1423.4166666666667,39.9625,1425.8333333333333,38.525,1428.25,37.0875C1430.6666666666667,35.65,1433.0833333333333,34.212500000000006,1435.5,32.775000000000006C1437.9166666666667,31.337500000000006,1440.3333333333333,29.900000000000006,1442.75,28.462500000000006C1445.1666666666667,27.025000000000006,1447.5833333333333,25.5875,1450,24.149999999999995" fill="transparent" stroke-linecap="round" stroke="#B6509E" stroke-width="2"></path><path class="visx-linepath" d="M0,109.24999999994888C2.4166666666666665,109.24148148145166,4.833333333333334,109.23296296295445,7.25,109.22444444444444C9.666666666666666,109.21592592593444,12.083333333333334,109.2074074074074,14.5,109.19888888888889C16.916666666666668,109.19037037037037,19.333333333333332,109.18185185185185,21.75,109.17333333333333C24.166666666666668,109.16481481481482,26.583333333333332,109.15629629629629,29,109.14777777777778C31.416666666666668,109.13925925925926,33.833333333333336,109.13074074074073,36.25,109.12222222222222C38.666666666666664,109.1137037037037,41.083333333333336,109.10518518518518,43.5,109.09666666666666C45.91666666666667,109.08814814814815,48.333333333333336,109.07962962962962,50.75000000000001,109.07111111111111C53.16666666666667,109.0625925925926,55.583333333333336,109.05407407407407,58,109.04555555555555C60.416666666666664,109.03703703703704,62.833333333333336,109.02851851851851,65.25,109.02C67.66666666666667,109.01148148148148,70.08333333333333,109.00296296296297,72.5,108.99444444444445C74.91666666666667,108.98592592592594,77.33333333333333,108.97740740740741,79.75,108.9688888888889C82.16666666666667,108.96037037037038,84.58333333333333,108.95185185185186,87,108.94333333333334C89.41666666666667,108.93481481481483,91.83333333333333,108.9262962962963,94.25,108.91777777777779C96.66666666666667,108.90925925925926,99.08333333333334,108.90074074074074,101.50000000000001,108.89222222222222C103.91666666666667,108.8837037037037,106.33333333333334,108.87518518518517,108.75,108.86666666666666C111.16666666666667,108.85814814814815,113.58333333333333,108.84962962962962,116,108.8411111111111C118.41666666666667,108.83259259259259,120.83333333333334,108.82407407407406,123.25000000000001,108.81555555555555C125.66666666666667,108.80703703703703,128.08333333333334,108.7985185185185,130.5,108.78999999999999C132.91666666666666,108.78148148148148,135.33333333333334,108.77296296296296,137.75,108.76444444444445C140.16666666666666,108.75592592592594,142.58333333333334,108.74740740740741,145,108.7388888888889C147.41666666666666,108.73037037037038,149.83333333333334,108.72185185185185,152.25,108.71333333333334C154.66666666666666,108.70481481481482,157.08333333333334,108.6962962962963,159.5,108.68777777777778C161.91666666666666,108.67925925925927,164.33333333333334,108.67074074074074,166.75,108.66222222222223C169.16666666666666,108.65370370370371,171.58333333333334,108.64518518518518,174,108.63666666666667C176.41666666666666,108.62814814814816,178.83333333333334,108.61962962962963,181.25,108.61111111111111C183.66666666666666,108.6025925925926,186.08333333333334,108.59407407407409,188.5,108.58555555555556C190.91666666666666,108.57703703703703,193.33333333333334,108.5685185185185,195.75,108.55999999999999C198.16666666666669,108.55148148148147,200.58333333333334,108.54296296296296,203.00000000000003,108.53444444444445C205.41666666666669,108.52592592592593,207.83333333333331,108.5174074074074,210.24999999999997,108.50888888888889C212.66666666666666,108.50037037037038,215.08333333333331,108.49185185185185,217.5,108.48333333333333C219.91666666666666,108.47481481481482,222.33333333333334,108.46629629629629,224.75,108.45777777777778C227.16666666666666,108.44925925925926,229.58333333333334,108.44074074074074,232,108.43222222222222C234.41666666666666,108.42370370370371,236.83333333333334,108.41518518518518,239.25,108.40666666666667C241.66666666666669,108.39814814814815,244.08333333333334,108.38962962962962,246.50000000000003,108.38111111111111C248.91666666666669,108.3725925925926,251.33333333333331,108.36407407407407,253.74999999999997,108.35555555555555C256.16666666666663,108.34703703703704,258.5833333333333,108.33851851851851,261,108.33C263.4166666666667,108.32148148148148,265.8333333333333,108.31296296296297,268.25,108.30444444444446C270.6666666666667,108.29592592592594,273.0833333333333,108.28740740740741,275.5,108.27888888888889C277.9166666666667,108.27037037037036,280.3333333333333,108.26185185185184,282.75,108.25333333333333C285.1666666666667,108.24481481481482,287.5833333333333,108.23629629629629,290,108.22777777777777C292.4166666666667,108.21925925925926,294.8333333333333,108.21074074074073,297.25,108.20222222222222C299.6666666666667,108.1937037037037,302.0833333333333,108.18518518518518,304.5,108.17666666666666C306.9166666666667,108.16814814814815,309.3333333333333,108.15962962962962,311.75,108.1511111111111C314.1666666666667,108.14259259259259,316.5833333333333,108.13407407407406,319,108.12555555555555C321.4166666666667,108.11703703703704,323.8333333333333,108.10851851851851,326.25,108.1C328.6666666666667,108.09148148148148,331.0833333333333,108.08296296296297,333.5,108.07444444444445C335.9166666666667,108.06592592592594,338.3333333333333,108.05740740740741,340.75,108.0488888888889C343.1666666666667,108.04037037037038,345.5833333333333,108.03185185185185,348,108.02333333333334C350.4166666666667,108.01481481481483,352.8333333333333,108.0062962962963,355.25,107.99777777777778C357.6666666666667,107.98925925925927,360.0833333333333,107.98074074074074,362.5,107.97222222222223C364.9166666666667,107.96370370370371,367.3333333333333,107.95518518518517,369.75,107.94666666666666C372.1666666666667,107.93814814814814,374.5833333333333,107.92962962962962,377,107.9211111111111C379.4166666666667,107.91259259259259,381.8333333333333,107.90407407407406,384.25,107.89555555555555C386.6666666666667,107.88703703703703,389.0833333333333,107.8785185185185,391.5,107.86999999999999C393.9166666666667,107.86148148148148,396.33333333333337,107.85296296296296,398.75000000000006,107.84444444444445C401.16666666666674,107.83592592592593,403.58333333333337,107.8274074074074,406.00000000000006,107.81888888888889C408.4166666666667,107.81037037037038,410.8333333333333,107.80185185185185,413.24999999999994,107.79333333333334C415.66666666666663,107.78481481481482,418.08333333333326,107.7762962962963,420.49999999999994,107.76777777777778C422.91666666666663,107.75925925925927,425.3333333333333,107.75074074074074,427.75,107.74222222222222C430.1666666666667,107.73370370370371,432.5833333333333,107.72518518518518,435,107.71666666666667C437.4166666666667,107.70814814814815,439.8333333333333,107.69962962962963,442.25,107.69111111111111C444.6666666666667,107.6825925925926,447.0833333333333,107.67407407407407,449.5,107.66555555555556C451.9166666666667,107.65703703703704,454.3333333333333,107.6485185185185,456.75,107.63999999999999C459.1666666666667,107.63148148148147,461.5833333333333,107.62296296296296,464,107.61444444444444C466.4166666666667,107.60592592592593,468.8333333333333,107.5974074074074,471.25,107.58888888888889C473.6666666666667,107.58037037037037,476.0833333333333,107.57185185185185,478.5,107.56333333333333C480.9166666666667,107.55481481481482,483.33333333333337,107.54629629629629,485.75000000000006,107.53777777777778C488.16666666666674,107.52925925925926,490.58333333333337,107.52074074074073,493.00000000000006,107.51222222222222C495.4166666666667,107.5037037037037,497.8333333333333,107.49518518518518,500.24999999999994,107.48666666666666C502.66666666666663,107.47814814814815,505.08333333333326,107.46962962962962,507.49999999999994,107.46111111111111C509.91666666666663,107.4525925925926,512.3333333333333,107.44407407407407,514.75,107.43555555555555C517.1666666666666,107.42703703703704,519.5833333333334,107.41851851851851,522,107.41C524.4166666666666,107.40148148148148,526.8333333333334,107.39296296296297,529.25,107.38444444444445C531.6666666666666,107.37592592592594,534.0833333333334,107.36740740740743,536.5,107.3588888888889C538.9166666666666,107.35037037037037,541.3333333333334,107.34185185185186,543.75,107.33333333333333C546.1666666666666,107.3248148148148,548.5833333333334,107.31629629629629,551,107.30777777777777C553.4166666666666,107.29925925925926,555.8333333333334,107.29074074074073,558.25,107.28222222222222C560.6666666666666,107.2737037037037,563.0833333333334,107.26518518518517,565.5,107.25666666666666C567.9166666666666,107.24814814814815,570.3333333333334,107.23962962962962,572.75,107.2311111111111C575.1666666666666,107.22259259259259,577.5833333333334,107.21407407407406,580,107.20555555555555C582.4166666666666,107.19703703703703,584.8333333333334,107.1885185185185,587.25,107.17999999999999C589.6666666666666,107.17148148148148,592.0833333333334,107.16296296296296,594.5,107.15444444444445C596.9166666666666,107.14592592592594,599.3333333333334,107.13740740740741,601.75,107.1288888888889C604.1666666666666,107.12037037037038,606.5833333333334,107.11185185185185,609,107.10333333333334C611.4166666666666,107.09481481481482,613.8333333333334,107.0862962962963,616.25,107.07777777777778C618.6666666666666,107.06925925925927,621.0833333333334,107.06074074074074,623.5,107.05222222222223C625.9166666666666,107.04370370370371,628.3333333333334,107.03518518518518,630.75,107.02666666666667C633.1666666666666,107.01814814814816,635.5833333333334,107.00962962962961,638,107.0011111111111C640.4166666666666,106.99259259259259,642.8333333333334,106.98407407407407,645.25,106.97555555555556C647.6666666666666,106.96703703703704,650.0833333333334,106.9585185185185,652.5,106.94999999999999C654.9166666666666,106.94148148148147,657.3333333333334,106.93296296296296,659.75,106.92444444444445C662.1666666666666,106.91592592592593,664.5833333333334,106.9074074074074,667,106.89888888888889C669.4166666666666,106.89037037037038,671.8333333333334,106.88185185185185,674.25,106.87333333333333C676.6666666666666,106.86481481481482,679.0833333333334,106.85629629629629,681.5,106.84777777777778C683.9166666666666,106.83925925925926,686.3333333333334,106.83074074074074,688.75,106.82222222222222C691.1666666666666,106.81370370370371,693.5833333333334,106.80518518518518,696,106.79666666666667C698.4166666666666,106.78814814814815,700.8333333333334,106.77962962962962,703.25,106.77111111111111C705.6666666666666,106.7625925925926,708.0833333333334,106.75407407407408,710.5,106.74555555555557C712.9166666666666,106.73703703703706,715.3333333333334,106.72851851851851,717.75,106.72C720.1666666666666,106.71148148148148,722.5833333333334,106.70296296296296,725,106.69444444444444C727.4166666666666,106.68592592592593,729.8333333333334,106.6774074074074,732.25,106.66888888888889C734.6666666666666,106.66037037037037,737.0833333333334,106.65185185185184,739.5,106.64333333333333C741.9166666666666,106.63481481481482,744.3333333333334,106.62629629629629,746.75,106.61777777777777C749.1666666666666,106.60925925925926,751.5833333333334,106.60074074074073,754,106.59222222222222C756.4166666666666,106.5837037037037,758.8333333333334,106.57518518518518,761.25,106.56666666666666C763.6666666666666,106.55814814814815,766.0833333333334,106.54962962962962,768.5,106.5411111111111C770.9166666666666,106.5325925925926,773.3333333333334,106.52407407407408,775.75,106.51555555555557C778.1666666666666,106.50703703703705,780.5833333333334,106.49851851851852,783,106.49000000000001C785.4166666666667,106.4814814814815,787.8333333333334,106.47296296296297,790.2500000000001,106.46444444444445C792.6666666666667,106.45592592592594,795.0833333333335,106.44740740740741,797.5000000000001,106.4388888888889C799.9166666666667,106.43037037037038,802.3333333333335,106.42185185185187,804.7500000000001,106.41333333333334C807.1666666666667,106.40481481481481,809.5833333333335,106.3962962962963,812.0000000000001,106.38777777777777C814.4166666666667,106.37925925925926,816.8333333333333,106.37074074074073,819.2499999999999,106.36222222222221C821.6666666666665,106.3537037037037,824.0833333333333,106.34518518518517,826.4999999999999,106.33666666666666C828.9166666666665,106.32814814814814,831.3333333333333,106.31962962962962,833.7499999999999,106.3111111111111C836.1666666666665,106.30259259259259,838.5833333333333,106.29407407407408,840.9999999999999,106.28555555555556C843.4166666666666,106.27703703703705,845.8333333333333,106.26851851851852,848.25,106.26C850.6666666666666,106.25148148148149,853.0833333333334,106.24296296296296,855.5,106.23444444444445C857.9166666666666,106.22592592592594,860.3333333333334,106.2174074074074,862.75,106.2088888888889C865.1666666666666,106.20037037037038,867.5833333333334,106.19185185185185,870,106.18333333333334C872.4166666666666,106.17481481481482,874.8333333333334,106.1662962962963,877.25,106.15777777777778C879.6666666666666,106.14925925925927,882.0833333333334,106.14074074074074,884.5,106.13222222222223C886.9166666666666,106.12370370370371,889.3333333333334,106.11518518518518,891.75,106.10666666666667C894.1666666666666,106.09814814814816,896.5833333333334,106.08962962962963,899,106.08111111111111C901.4166666666666,106.0725925925926,903.8333333333334,106.06407407407407,906.25,106.05555555555556C908.6666666666666,106.04703703703704,911.0833333333334,106.03851851851852,913.5,106.03C915.9166666666666,106.02148148148149,918.3333333333334,106.01296296296296,920.75,106.00444444444445C923.1666666666666,105.99592592592593,925.5833333333334,105.9874074074074,928,105.97888888888889C930.4166666666666,105.97037037037038,932.8333333333334,105.96185185185185,935.25,105.95333333333333C937.6666666666666,105.94481481481482,940.0833333333334,105.93629629629629,942.5,105.92777777777778C944.9166666666666,105.91925925925926,947.3333333333334,105.91074074074074,949.75,105.90222222222222C952.1666666666666,105.89370370370371,954.5833333333334,105.88518518518518,957,105.87666666666667C959.4166666666666,105.86814814814815,961.8333333333334,105.85962962962962,964.25,105.85111111111111C966.6666666666667,105.8425925925926,969.0833333333334,105.83407407407408,971.5000000000001,105.82555555555557C973.9166666666667,105.81703703703705,976.3333333333335,105.80851851851853,978.7500000000001,105.80000000000001C981.1666666666667,105.7914814814815,983.5833333333335,105.78296296296296,986.0000000000001,105.77444444444444C988.4166666666667,105.76592592592593,990.8333333333335,105.7574074074074,993.2500000000001,105.74888888888889C995.6666666666667,105.74037037037037,998.0833333333333,105.73185185185184,1000.4999999999999,105.72333333333333C1002.9166666666665,105.71481481481482,1005.3333333333333,105.70629629629629,1007.7499999999999,105.69777777777777C1010.1666666666665,105.68925925925926,1012.5833333333333,105.68074074074073,1014.9999999999999,105.67222222222222C1017.4166666666665,105.6637037037037,1019.8333333333333,105.65518518518518,1022.2499999999999,105.64666666666666C1024.6666666666665,105.63814814814815,1027.0833333333333,105.62962962962962,1029.5,105.6211111111111C1031.9166666666667,105.61259259259259,1034.3333333333333,105.60407407407408,1036.75,105.59555555555556C1039.1666666666667,105.58703703703705,1041.5833333333333,105.57851851851851,1044,105.57C1046.4166666666667,105.56148148148148,1048.8333333333333,105.55296296296297,1051.25,105.54444444444445C1053.6666666666667,105.53592592592594,1056.0833333333333,105.52740740740741,1058.5,105.5188888888889C1060.9166666666667,105.51037037037038,1063.3333333333333,105.50185185185185,1065.75,105.49333333333334C1068.1666666666667,105.48481481481483,1070.5833333333333,105.47629629629631,1073,105.46777777777778C1075.4166666666667,105.45925925925926,1077.8333333333333,105.45074074074073,1080.25,105.44222222222221C1082.6666666666667,105.4337037037037,1085.0833333333333,105.42518518518519,1087.5,105.41666666666667C1089.9166666666667,105.40814814814816,1092.3333333333333,105.39962962962962,1094.75,105.3911111111111C1097.1666666666667,105.38259259259259,1099.5833333333333,105.37407407407407,1102,105.36555555555556C1104.4166666666667,105.35703703703705,1106.8333333333333,105.34851851851852,1109.25,105.34C1111.6666666666667,105.33148148148149,1114.0833333333333,105.32296296296296,1116.5,105.31444444444445C1118.9166666666667,105.30592592592593,1121.3333333333333,105.2974074074074,1123.75,105.28888888888889C1126.1666666666667,105.28037037037038,1128.5833333333333,105.27185185185185,1131,105.26333333333334C1133.4166666666667,105.25481481481482,1135.8333333333333,105.2462962962963,1138.25,105.23777777777778C1140.6666666666667,105.22925925925927,1143.0833333333333,105.22074074074074,1145.5,105.21222222222222C1147.9166666666667,105.20370370370371,1150.3333333333333,105.19518518518518,1152.75,105.18666666666667C1155.1666666666667,105.17814814814815,1157.5833333333333,105.16962962962963,1160,105.16111111111111C1162.4166666666667,105.1525925925926,1164.8333333333333,105.14407407407407,1167.25,105.13555555555556C1169.6666666666667,105.12703703703704,1172.0833333333333,105.11851851851851,1174.5,105.11C1176.9166666666667,105.10148148148149,1179.3333333333333,105.09296296296296,1181.75,105.08444444444444C1184.1666666666667,105.07592592592593,1186.5833333333333,105.0674074074074,1189,105.05888888888889C1191.4166666666667,105.05037037037037,1193.8333333333333,105.04185185185185,1196.25,105.03333333333333C1198.6666666666667,105.02481481481482,1201.0833333333333,105.01629629629629,1203.5,105.00777777777778C1205.9166666666667,104.99925925925926,1208.3333333333333,104.99074074074073,1210.75,104.98222222222222C1213.1666666666667,104.9737037037037,1215.5833333333333,104.96518518518519,1218,104.95666666666668C1220.4166666666667,104.94814814814816,1222.8333333333333,104.93962962962962,1225.25,104.93111111111111C1227.6666666666667,104.9225925925926,1230.0833333333333,104.91407407407408,1232.5,104.90555555555557C1234.9166666666667,104.89703703703705,1237.3333333333333,104.88851851851852,1239.75,104.88000000000001C1242.1666666666667,104.8714814814815,1244.5833333333333,104.86296296296297,1247,104.85444444444445C1249.4166666666667,104.84592592592594,1251.8333333333333,104.8374074074074,1254.25,104.82888888888888C1256.6666666666667,104.82037037037037,1259.0833333333333,104.81185185185184,1261.5,104.80333333333333C1263.9166666666667,104.79481481481481,1266.3333333333333,104.78629629629629,1268.75,104.77777777777777C1271.1666666666667,104.76925925925926,1273.5833333333333,104.76074074074073,1276,104.75222222222222C1278.4166666666667,104.7437037037037,1280.8333333333333,104.73518518518517,1283.25,104.72666666666666C1285.6666666666667,104.71814814814815,1288.0833333333333,104.70962962962962,1290.5,104.7011111111111C1292.9166666666667,104.69259259259259,1295.3333333333333,104.68407407407408,1297.75,104.67555555555556C1300.1666666666667,104.66703703703705,1302.5833333333333,104.66703703703705,1305,104.65C1307.4166666666667,104.63296296296296,1309.8333333333333,101.775,1312.25,100.3375C1314.6666666666667,98.9,1317.0833333333333,97.46249999999999,1319.5,96.02499999999999C1321.9166666666667,94.58749999999999,1324.3333333333333,93.14999999999999,1326.75,91.71249999999999C1329.1666666666667,90.27499999999999,1331.5833333333333,88.8375,1334,87.4C1336.4166666666667,85.9625,1338.8333333333333,84.52499999999999,1341.25,83.08749999999999C1343.6666666666667,81.64999999999999,1346.0833333333333,80.2125,1348.5,78.775C1350.9166666666667,77.3375,1353.3333333333333,75.89999999999999,1355.75,74.46249999999999C1358.1666666666667,73.02499999999999,1360.5833333333333,71.58749999999999,1363,70.14999999999999C1365.4166666666667,68.71249999999999,1367.8333333333333,67.275,1370.25,65.8375C1372.6666666666667,64.4,1375.0833333333333,62.96249999999999,1377.5,61.52499999999999C1379.9166666666667,60.08749999999999,1382.3333333333333,58.650000000000006,1384.75,57.212500000000006C1387.1666666666667,55.775000000000006,1389.5833333333333,54.3375,1392,52.9C1394.4166666666667,51.4625,1396.8333333333333,50.025,1399.25,48.5875C1401.6666666666667,47.15,1404.0833333333333,45.7125,1406.5,44.275C1408.9166666666667,42.8375,1411.3333333333333,41.400000000000006,1413.75,39.962500000000006C1416.1666666666667,38.525000000000006,1418.5833333333333,37.087500000000006,1421,35.650000000000006C1423.4166666666667,34.212500000000006,1425.8333333333333,32.775,1428.25,31.337499999999995C1430.6666666666667,29.899999999999995,1433.0833333333333,28.4625,1435.5,27.025C1437.9166666666667,25.5875,1440.3333333333333,24.150000000000002,1442.75,22.712500000000002C1445.1666666666667,21.275000000000002,1447.5833333333333,19.837500000000002,1450,18.400000000000002" fill="transparent" stroke-linecap="round" stroke="#E7C6DF" stroke-width="2"></path><g class="visx-group visx-axis visx-axis-bottom" transform="translate(0, 115)"><g class="visx-group visx-axis-tick" transform="translate(0, 0)"><line class="visx-line" x1="0" y1="0" x2="0" y2="8" fill="transparent" shape-rendering="crispEdges" stroke="#000" stroke-width="0" stroke-linecap="square"></line><svg x="0" y="0" font-size="10" style="overflow:visible"><text transform="" x="0" y="18" fill="#000" font-size="10" text-anchor="middle"><tspan x="0" dy="0em">0%</tspan></text></svg></g><g class="visx-group visx-axis-tick" transform="translate(0, 0)"><line class="visx-line" x1="362.5" y1="0" x2="362.5" y2="8" fill="transparent" shape-rendering="crispEdges" stroke="#000" stroke-width="0" stroke-linecap="square"></line><svg x="0" y="0" font-size="10" style="overflow:visible"><text transform="" x="362.5" y="18" fill="#000" font-size="10" text-anchor="middle"><tspan x="362.5" dy="0em">25%</tspan></text></svg></g><g class="visx-group visx-axis-tick" transform="translate(0, 0)"><line class="visx-line" x1="725" y1="0" x2="725" y2="8" fill="transparent" shape-rendering="crispEdges" stroke="#000" stroke-width="0" stroke-linecap="square"></line><svg x="0" y="0" font-size="10" style="overflow:visible"><text transform="" x="725" y="18" fill="#000" font-size="10" text-anchor="middle"><tspan x="725" dy="0em">50%</tspan></text></svg></g><g class="visx-group visx-axis-tick" transform="translate(0, 0)"><line class="visx-line" x1="1087.5" y1="0" x2="1087.5" y2="8" fill="transparent" shape-rendering="crispEdges" stroke="#000" stroke-width="0" stroke-linecap="square"></line><svg x="0" y="0" font-size="10" style="overflow:visible"><text transform="" x="1087.5" y="18" fill="#000" font-size="10" text-anchor="middle"><tspan x="1087.5" dy="0em">75%</tspan></text></svg></g><g class="visx-group visx-axis-tick" transform="translate(0, 0)"><line class="visx-line" x1="1450" y1="0" x2="1450" y2="8" fill="transparent" shape-rendering="crispEdges" stroke="#000" stroke-width="0" stroke-linecap="square"></line><svg x="0" y="0" font-size="10" style="overflow:visible"><text transform="" x="1450" y="18" fill="#000" font-size="10" text-anchor="middle"><tspan x="1450" dy="0em">100%</tspan></text></svg></g><line class="visx-line visx-axis-line" x1="0.5" y1="0" x2="1450.5" y2="0" fill="transparent" shape-rendering="crispEdges" stroke="#222" stroke-width="0"></line></g><g class="visx-group visx-axis visx-axis-left" transform="translate(0, 0)"><g class="visx-group visx-axis-tick" transform="translate(0, 0)"><line class="visx-line" x1="0" y1="115" x2="-8" y2="115" fill="transparent" shape-rendering="crispEdges" stroke="#222" stroke-width="0" stroke-linecap="square"></line><svg x="-30" y="0" font-size="8" style="overflow:visible"><text transform="" x="-8" y="115" fill="#000" font-size="8" text-anchor="start"><tspan x="-8" dy="0em">0%</tspan></text></svg></g><g class="visx-group visx-axis-tick" transform="translate(0, 0)"><line class="visx-line" x1="0" y1="57.5" x2="-8" y2="57.5" fill="transparent" shape-rendering="crispEdges" stroke="#222" stroke-width="0" stroke-linecap="square"></line><svg x="-30" y="0" font-size="8" style="overflow:visible"><text transform="" x="-8" y="57.5" fill="#000" font-size="8" text-anchor="start"><tspan x="-8" dy="0em">50%</tspan></text></svg></g><g class="visx-group visx-axis-tick" transform="translate(0, 0)"><line class="visx-line" x1="0" y1="0" x2="-8" y2="0" fill="transparent" shape-rendering="crispEdges" stroke="#222" stroke-width="0" stroke-linecap="square"></line><svg x="-30" y="0" font-size="8" style="overflow:visible"><text transform="" x="-8" y="0" fill="#000" font-size="8" text-anchor="start"><tspan x="-8" dy="0em">100%</tspan></text></svg></g><line class="visx-line visx-axis-line" x1="0" y1="115.5" x2="0" y2="0.5" fill="transparent" shape-rendering="crispEdges" stroke="#222" stroke-width="0"></line></g><rect class="visx-bar" width="1450" height="115" fill="transparent"></rect><line class="visx-line" x1="1305" y1="28" x2="1305" y2="115" fill="transparent" shape-rendering="crispEdges" stroke="#0062D2" stroke-width="1" pointer-events="none" stroke-dasharray="5,2"></line><svg x="0" y="0" font-size="10px" style="overflow:visible"><text transform="" x="1305" y="20" font-size="10px" fill="#fff" stroke="#fff" stroke-width="0.8em" text-anchor="middle"><tspan x="1305" dy="0.355em">Optimal 90%</tspan></text></svg><svg x="0" y="0" font-size="10px" style="overflow:visible"><text transform="" x="1305" y="20" font-size="10px" fill="#62677B" text-anchor="middle"><tspan x="1305" dy="0.355em">Optimal 90%</tspan></text></svg></g></svg>