<?xml version="1.0"?><svg xmlns="http://www.w3.org/2000/svg" xmlns:xlink= "http://www.w3.org/1999/xlink" style="background: white;" width="1500" height="300"> <g style="color: black; font-size: 13px; font-family: sans-serif; transform: translate(18px, 25px);"><g><circle r="3" cx="-6" cy="-5" style="fill: #1AD4B3" /><text>Borrow APR, variable</text></g><g style="transform: translateX(150px);"><circle r="3" cx="-6" cy="-5" style="fill: #101423" /><text>Borrow APR, stable</text></g></g><g class="visx-group" transform="translate(45, 50)"><g class="visx-group visx-rows" transform="translate(0, 0)"><line class="visx-line" x1="0" y1="155" x2="1425" y2="155" fill="transparent" shape-rendering="crispEdges" stroke="#F2F0F9" stroke-width="1" pointer-events="none"></line><line class="visx-line" x1="0" y1="106.5625" x2="1425" y2="106.5625" fill="transparent" shape-rendering="crispEdges" stroke="#F2F0F9" stroke-width="1" pointer-events="none"></line><line class="visx-line" x1="0" y1="58.125" x2="1425" y2="58.125" fill="transparent" shape-rendering="crispEdges" stroke="#F2F0F9" stroke-width="1" pointer-events="none"></line><line class="visx-line" x1="0" y1="9.6875" x2="1425" y2="9.6875" fill="transparent" shape-rendering="crispEdges" stroke="#F2F0F9" stroke-width="1" pointer-events="none"></line></g><path class="visx-linepath" d="M0,154.99999999986377C2.375,154.97729492179553,4.75,154.9545898437273,7.125,154.931884765625C9.5,154.9091796875227,11.875,154.886474609375,14.25,154.86376953125C16.625,154.841064453125,19,154.818359375,21.375,154.795654296875C23.75,154.77294921875,26.125,154.750244140625,28.5,154.7275390625C30.875,154.704833984375,33.25,154.68212890625,35.625,154.659423828125C38,154.63671875,40.375,154.614013671875,42.75,154.59130859375C45.125,154.568603515625,47.50000000000001,154.5458984375,49.87500000000001,154.523193359375C52.25000000000001,154.50048828125,54.625,154.477783203125,57,154.455078125C59.375,154.432373046875,61.75,154.40966796875,64.125,154.386962890625C66.5,154.3642578125,68.875,154.341552734375,71.25,154.31884765625C73.625,154.296142578125,76,154.2734375,78.375,154.250732421875C80.75,154.22802734375,83.125,154.205322265625,85.5,154.1826171875C87.875,154.159912109375,90.25,154.13720703125,92.625,154.114501953125C95,154.091796875,97.37500000000001,154.069091796875,99.75000000000001,154.04638671875C102.12500000000001,154.023681640625,104.5,154.0009765625,106.875,153.978271484375C109.25,153.95556640625,111.625,153.932861328125,114,153.91015625C116.375,153.887451171875,118.75000000000001,153.86474609375,121.12500000000001,153.842041015625C123.50000000000001,153.8193359375,125.875,153.796630859375,128.25,153.77392578125C130.625,153.751220703125,133,153.728515625,135.375,153.705810546875C137.75,153.68310546875,140.125,153.660400390625,142.5,153.6376953125C144.875,153.614990234375,147.25,153.59228515625,149.625,153.569580078125C152,153.546875,154.375,153.524169921875,156.75,153.50146484375C159.125,153.478759765625,161.5,153.4560546875,163.875,153.433349609375C166.25,153.41064453125,168.625,153.387939453125,171,153.365234375C173.375,153.342529296875,175.75,153.31982421875,178.125,153.297119140625C180.5,153.2744140625,182.875,153.251708984375,185.25,153.22900390625C187.625,153.206298828125,190,153.18359375,192.375,153.160888671875C194.75,153.13818359375,197.12500000000003,153.115478515625,199.50000000000003,153.0927734375C201.875,153.070068359375,204.25,153.04736328125,206.62499999999997,153.024658203125C208.99999999999997,153.001953125,211.375,152.979248046875,213.75,152.95654296875C216.125,152.933837890625,218.5,152.9111328125,220.875,152.888427734375C223.25,152.86572265625,225.625,152.843017578125,228,152.8203125C230.375,152.797607421875,232.75,152.77490234375,235.125,152.752197265625C237.5,152.7294921875,239.87500000000003,152.706787109375,242.25000000000003,152.68408203125C244.625,152.661376953125,247,152.638671875,249.37499999999997,152.615966796875C251.74999999999997,152.59326171875,254.125,152.570556640625,256.5,152.5478515625C258.875,152.525146484375,261.25,152.50244140625,263.625,152.479736328125C266,152.45703125,268.375,152.434326171875,270.75,152.41162109375C273.125,152.388916015625,275.5,152.3662109375,277.875,152.343505859375C280.25,152.32080078125,282.625,152.298095703125,285,152.275390625C287.375,152.252685546875,289.75,152.22998046875,292.125,152.207275390625C294.5,152.1845703125,296.875,152.161865234375,299.25,152.13916015625C301.625,152.116455078125,304,152.09375,306.375,152.071044921875C308.75,152.04833984375,311.125,152.025634765625,313.5,152.0029296875C315.875,151.980224609375,318.25,151.95751953125,320.625,151.934814453125C323,151.912109375,325.375,151.889404296875,327.75,151.86669921875C330.125,151.843994140625,332.5,151.8212890625,334.875,151.798583984375C337.25,151.77587890625,339.625,151.753173828125,342,151.73046875C344.375,151.707763671875,346.75,151.68505859375,349.125,151.662353515625C351.5,151.6396484375,353.875,151.616943359375,356.25,151.59423828125C358.625,151.571533203125,361,151.548828125,363.375,151.526123046875C365.75,151.50341796875,368.125,151.480712890625,370.5,151.4580078125C372.875,151.435302734375,375.25,151.41259765625,377.625,151.389892578125C380,151.3671875,382.375,151.344482421875,384.75,151.32177734375C387.125,151.299072265625,389.50000000000006,151.2763671875,391.87500000000006,151.253662109375C394.25000000000006,151.23095703125,396.62500000000006,151.208251953125,399.00000000000006,151.185546875C401.375,151.162841796875,403.75,151.14013671875,406.12499999999994,151.117431640625C408.49999999999994,151.0947265625,410.87499999999994,151.072021484375,413.24999999999994,151.04931640625C415.62499999999994,151.026611328125,418,151.00390625,420.375,150.981201171875C422.75,150.95849609375,425.125,150.935791015625,427.5,150.9130859375C429.875,150.890380859375,432.25,150.86767578125,434.625,150.844970703125C437,150.822265625,439.375,150.799560546875,441.75,150.77685546875C444.125,150.754150390625,446.5,150.7314453125,448.875,150.708740234375C451.25,150.68603515625,453.625,150.663330078125,456,150.640625C458.375,150.617919921875,460.75,150.59521484375,463.125,150.572509765625C465.5,150.5498046875,467.875,150.527099609375,470.25,150.50439453125C472.625,150.481689453125,475.00000000000006,150.458984375,477.37500000000006,150.436279296875C479.75000000000006,150.41357421875,482.12500000000006,150.390869140625,484.50000000000006,150.3681640625C486.875,150.345458984375,489.25,150.32275390625,491.62499999999994,150.300048828125C493.99999999999994,150.27734375,496.37499999999994,150.254638671875,498.74999999999994,150.23193359375C501.12499999999994,150.209228515625,503.5,150.1865234375,505.875,150.163818359375C508.25,150.14111328125,510.625,150.118408203125,513,150.095703125C515.375,150.072998046875,517.75,150.05029296875,520.125,150.027587890625C522.5,150.0048828125,524.875,149.982177734375,527.25,149.95947265625C529.625,149.936767578125,532,149.9140625,534.375,149.891357421875C536.75,149.86865234375,539.125,149.845947265625,541.5,149.8232421875C543.875,149.800537109375,546.25,149.77783203125,548.625,149.755126953125C551,149.732421875,553.375,149.709716796875,555.75,149.68701171875C558.125,149.664306640625,560.5,149.6416015625,562.875,149.618896484375C565.25,149.59619140625,567.625,149.573486328125,570,149.55078125C572.375,149.528076171875,574.75,149.50537109375,577.125,149.482666015625C579.5,149.4599609375,581.875,149.437255859375,584.25,149.41455078125C586.625,149.391845703125,589,149.369140625,591.375,149.346435546875C593.75,149.32373046875,596.125,149.301025390625,598.5,149.2783203125C600.875,149.255615234375,603.25,149.23291015625,605.625,149.210205078125C608,149.1875,610.375,149.164794921875,612.75,149.14208984375C615.125,149.119384765625,617.5,149.0966796875,619.875,149.073974609375C622.25,149.05126953125,624.625,149.028564453125,627,149.005859375C629.375,148.983154296875,631.75,148.96044921875,634.125,148.937744140625C636.5,148.9150390625,638.875,148.892333984375,641.25,148.86962890625C643.625,148.846923828125,646,148.82421875,648.375,148.801513671875C650.75,148.77880859375,653.125,148.756103515625,655.5,148.7333984375C657.875,148.710693359375,660.25,148.68798828125,662.625,148.665283203125C665,148.642578125,667.375,148.619873046875,669.75,148.59716796875C672.125,148.574462890625,674.5,148.5517578125,676.875,148.529052734375C679.25,148.50634765625,681.625,148.50634765625,684,148.4609375C686.375,148.41552734375,688.75,147.6288060897436,691.125,147.2127403846154C693.5,146.79667467948718,695.875,146.38060897435898,698.25,145.96454326923077C700.625,145.54847756410257,703,145.13241185897436,705.375,144.71634615384616C707.75,144.30028044871796,710.125,143.88421474358972,712.5,143.46814903846152C714.875,143.05208333333331,717.25,142.63601762820514,719.625,142.21995192307693C722,141.80388621794873,724.375,141.3878205128205,726.75,140.9717548076923C729.125,140.5556891025641,731.5,140.1396233974359,733.875,139.7235576923077C736.25,139.3074919871795,738.625,138.89142628205127,741,138.47536057692307C743.375,138.05929487179486,745.75,137.64322916666666,748.125,137.22716346153845C750.5,136.81109775641025,752.875,136.39503205128204,755.25,135.97896634615384C757.625,135.56290064102564,760,135.14683493589743,762.375,134.73076923076923C764.75,134.31470352564102,767.125,133.89863782051282,769.5,133.4825721153846C771.875,133.0665064102564,774.2500000000001,132.6504407051282,776.6250000000001,132.234375C779.0000000000001,131.8183092948718,781.3750000000001,131.4022435897436,783.7500000000001,130.9861778846154C786.1250000000001,130.57011217948718,788.5000000000001,130.15404647435898,790.8750000000001,129.73798076923077C793.2500000000001,129.32191506410257,795.6250000000001,128.90584935897436,798.0000000000001,128.48978365384616C800.375,128.07371794871796,802.75,127.65765224358975,805.1249999999999,127.24158653846155C807.4999999999999,126.82552083333334,809.8749999999999,126.40945512820514,812.2499999999999,125.99338942307693C814.6249999999999,125.57732371794873,816.9999999999999,125.16125801282051,819.3749999999999,124.7451923076923C821.7499999999999,124.3291266025641,824.1249999999999,123.9130608974359,826.4999999999999,123.4969951923077C828.8749999999999,123.08092948717949,831.25,122.66486378205128,833.625,122.24879807692308C836,121.83273237179488,838.375,121.41666666666666,840.75,121.00060096153845C843.125,120.58453525641025,845.5,120.16846955128206,847.875,119.75240384615385C850.25,119.33633814102565,852.625,118.92027243589743,855,118.50420673076923C857.375,118.08814102564102,859.75,117.6720753205128,862.125,117.2560096153846C864.5,116.8399439102564,866.875,116.4238782051282,869.25,116.0078125C871.625,115.5917467948718,874,115.17568108974359,876.375,114.75961538461539C878.75,114.34354967948718,881.125,113.92748397435896,883.5,113.51141826923076C885.875,113.09535256410255,888.25,112.67928685897435,890.625,112.26322115384615C893,111.84715544871794,895.375,111.43108974358974,897.75,111.01502403846153C900.125,110.59895833333333,902.5,110.18289262820514,904.875,109.76682692307693C907.25,109.35076121794873,909.625,108.93469551282051,912,108.5186298076923C914.375,108.1025641025641,916.75,107.68649839743588,919.125,107.27043269230768C921.5,106.85436698717947,923.875,106.43830128205128,926.25,106.02223557692308C928.625,105.60616987179488,931,105.19010416666667,933.375,104.77403846153847C935.75,104.35797275641026,938.125,103.94190705128204,940.5,103.52584134615384C942.875,103.10977564102564,945.25,102.69370993589745,947.625,102.27764423076924C950,101.86157852564104,952.3750000000001,101.44551282051282,954.7500000000001,101.02944711538461C957.1250000000001,100.61338141025641,959.5000000000001,100.1973157051282,961.8750000000001,99.78125C964.2500000000001,99.3651842948718,966.6250000000001,98.94911858974359,969.0000000000001,98.53305288461539C971.3750000000001,98.11698717948718,973.7500000000001,97.70092147435899,976.1250000000001,97.28485576923077C978.5,96.86879006410257,980.875,96.45272435897435,983.2499999999999,96.03665865384615C985.6249999999999,95.62059294871794,987.9999999999999,95.20452724358975,990.3749999999999,94.78846153846155C992.7499999999999,94.37239583333334,995.1249999999999,93.95633012820512,997.4999999999999,93.54026442307692C999.8749999999999,93.12419871794872,1002.2499999999999,92.7081330128205,1004.6249999999999,92.29206730769229C1006.9999999999999,91.87600160256409,1009.375,91.4599358974359,1011.75,91.0438701923077C1014.125,90.62780448717949,1016.5,90.21173878205128,1018.875,89.79567307692308C1021.25,89.37960737179488,1023.625,88.96354166666667,1026,88.54747596153847C1028.375,88.13141025641026,1030.75,87.71534455128204,1033.125,87.29927884615384C1035.5,86.88321314102564,1037.875,86.46714743589742,1040.25,86.05108173076921C1042.625,85.63501602564101,1045,85.21895032051282,1047.375,84.80288461538461C1049.75,84.38681891025641,1052.125,83.9707532051282,1054.5,83.5546875C1056.875,83.1386217948718,1059.25,82.72255608974358,1061.625,82.30649038461537C1064,81.89042467948717,1066.375,81.47435897435898,1068.75,81.05829326923077C1071.125,80.64222756410257,1073.5,80.22616185897436,1075.875,79.81009615384616C1078.25,79.39403044871796,1080.625,78.97796474358974,1083,78.56189903846153C1085.375,78.14583333333333,1087.75,77.72976762820512,1090.125,77.31370192307692C1092.5,76.89763621794872,1094.875,76.4815705128205,1097.25,76.06550480769229C1099.625,75.64943910256409,1102,75.23337339743588,1104.375,74.81730769230768C1106.75,74.40124198717947,1109.125,73.98517628205128,1111.5,73.56911057692308C1113.875,73.15304487179488,1116.25,72.73697916666666,1118.625,72.32091346153845C1121,71.90484775641025,1123.375,71.48878205128206,1125.75,71.07271634615385C1128.125,70.65665064102565,1130.5,70.24058493589745,1132.875,69.82451923076924C1135.25,69.40845352564104,1137.625,68.99238782051282,1140,68.57632211538461C1142.375,68.16025641025641,1144.75,67.7441907051282,1147.125,67.328125C1149.5,66.9120592948718,1151.875,66.49599358974358,1154.25,66.07992788461537C1156.625,65.66386217948717,1159,65.24779647435896,1161.375,64.83173076923076C1163.75,64.41566506410255,1166.125,63.99959935897436,1168.5,63.58353365384615C1170.875,63.16746794871795,1173.25,62.75140224358974,1175.625,62.33533653846153C1178,61.91927083333333,1180.375,61.50320512820513,1182.75,61.08713942307693C1185.125,60.67107371794872,1187.5,60.255008012820525,1189.875,59.83894230769232C1192.25,59.422876602564116,1194.625,59.006810897435905,1197,58.59074519230769C1199.375,58.17467948717948,1201.75,57.758613782051285,1204.125,57.34254807692307C1206.5,56.92648237179486,1208.875,56.51041666666665,1211.25,56.094350961538446C1213.625,55.67828525641024,1216,55.262219551282044,1218.375,54.84615384615384C1220.75,54.430088141025635,1223.125,54.01402243589744,1225.5,53.59795673076923C1227.875,53.18189102564103,1230.25,52.76582532051282,1232.625,52.34975961538461C1235,51.93369391025641,1237.375,51.517628205128204,1239.75,51.1015625C1242.125,50.685496794871796,1244.5,50.2694310897436,1246.875,49.853365384615394C1249.25,49.43729967948719,1251.625,49.021233974358985,1254,48.605168269230774C1256.375,48.18910256410256,1258.75,47.77303685897436,1261.125,47.356971153846146C1263.5,46.940905448717935,1265.875,46.52483974358973,1268.25,46.108774038461526C1270.625,45.69270833333332,1273,45.276642628205124,1275.375,44.86057692307692C1277.75,44.444511217948715,1280.125,44.02844551282052,1282.5,43.612379807692314C1284.875,43.19631410256411,1287.25,42.78024839743589,1289.625,42.364182692307686C1292,41.94811698717948,1294.375,41.532051282051285,1296.75,41.11598557692308C1299.125,40.699919871794876,1301.5,40.28385416666668,1303.875,39.867788461538474C1306.25,39.45172275641027,1308.625,39.035657051282065,1311,38.619591346153854C1313.375,38.20352564102564,1315.75,37.78745993589744,1318.125,37.371394230769226C1320.5,36.955328525641015,1322.875,36.53926282051281,1325.25,36.123197115384606C1327.625,35.7071314102564,1330,35.291065705128204,1332.375,34.875C1334.75,34.458934294871796,1337.125,34.04286858974359,1339.5,33.62680288461539C1341.875,33.21073717948718,1344.25,32.79467147435897,1346.625,32.37860576923077C1349,31.962540064102562,1351.375,31.546474358974365,1353.75,31.13040865384616C1356.125,30.714342948717956,1358.5,30.29827724358974,1360.875,29.882211538461537C1363.25,29.466145833333332,1365.625,29.050080128205135,1368,28.63401442307693C1370.375,28.217948717948726,1372.75,27.801883012820515,1375.125,27.385817307692307C1377.5,26.9697516025641,1379.875,26.553685897435884,1382.25,26.137620192307683C1384.625,25.721554487179482,1387,25.30548878205129,1389.375,24.88942307692309C1391.75,24.47335737179489,1394.125,24.057291666666675,1396.5,23.641225961538467C1398.875,23.22516025641026,1401.25,22.80909455128205,1403.625,22.393028846153843C1406,21.976963141025635,1408.375,21.56089743589742,1410.75,21.14483173076922C1413.125,20.72876602564102,1415.5,20.312700320512832,1417.875,19.89663461538463C1420.25,19.48056891025643,1422.625,19.06450320512822,1425,18.648437500000007" fill="transparent" stroke-linecap="round" stroke="#1AD4B3" stroke-width="2"></path><g class="visx-group visx-axis visx-axis-bottom" transform="translate(0, 155)"><g class="visx-group visx-axis-tick" transform="translate(0, 0)"><line class="visx-line" x1="0" y1="0" x2="0" y2="8" fill="transparent" shape-rendering="crispEdges" stroke="#F2F0F9" stroke-width="1" stroke-linecap="square"></line><svg x="0" y="0" font-size="11" style="overflow:visible"><text transform="" x="0" y="19" fill="#1B2030" font-size="11" text-anchor="middle"><tspan x="0" dy="0em">0%</tspan></text></svg></g><g class="visx-group visx-axis-tick" transform="translate(0, 0)"><line class="visx-line" x1="356.25" y1="0" x2="356.25" y2="8" fill="transparent" shape-rendering="crispEdges" stroke="#F2F0F9" stroke-width="1" stroke-linecap="square"></line><svg x="0" y="0" font-size="11" style="overflow:visible"><text transform="" x="356.25" y="19" fill="#1B2030" font-size="11" text-anchor="middle"><tspan x="356.25" dy="0em">25%</tspan></text></svg></g><g class="visx-group visx-axis-tick" transform="translate(0, 0)"><line class="visx-line" x1="712.5" y1="0" x2="712.5" y2="8" fill="transparent" shape-rendering="crispEdges" stroke="#F2F0F9" stroke-width="1" stroke-linecap="square"></line><svg x="0" y="0" font-size="11" style="overflow:visible"><text transform="" x="712.5" y="19" fill="#1B2030" font-size="11" text-anchor="middle"><tspan x="712.5" dy="0em">50%</tspan></text></svg></g><g class="visx-group visx-axis-tick" transform="translate(0, 0)"><line class="visx-line" x1="1068.75" y1="0" x2="1068.75" y2="8" fill="transparent" shape-rendering="crispEdges" stroke="#F2F0F9" stroke-width="1" stroke-linecap="square"></line><svg x="0" y="0" font-size="11" style="overflow:visible"><text transform="" x="1068.75" y="19" fill="#1B2030" font-size="11" text-anchor="middle"><tspan x="1068.75" dy="0em">75%</tspan></text></svg></g><g class="visx-group visx-axis-tick" transform="translate(0, 0)"><line class="visx-line" x1="1425" y1="0" x2="1425" y2="8" fill="transparent" shape-rendering="crispEdges" stroke="#F2F0F9" stroke-width="1" stroke-linecap="square"></line><svg x="0" y="0" font-size="11" style="overflow:visible"><text transform="" x="1425" y="19" fill="#1B2030" font-size="11" text-anchor="middle"><tspan x="1425" dy="0em">100%</tspan></text></svg></g></g><g class="visx-group visx-axis visx-axis-left" transform="translate(0, 0)"><g class="visx-group visx-axis-tick" transform="translate(0, 0)"><line class="visx-line" x1="0" y1="155" x2="-8" y2="155" fill="transparent" shape-rendering="crispEdges" stroke="#F2F0F9" stroke-width="1" stroke-linecap="square"></line><svg x="-30" y="0" font-size="11" style="overflow:visible"><text transform="" x="-8" y="155" fill="#1B2030" font-size="11" text-anchor="start"><tspan x="-8" dy="0em">0%</tspan></text></svg></g><g class="visx-group visx-axis-tick" transform="translate(0, 0)"><line class="visx-line" x1="0" y1="106.5625" x2="-8" y2="106.5625" fill="transparent" shape-rendering="crispEdges" stroke="#F2F0F9" stroke-width="1" stroke-linecap="square"></line><svg x="-30" y="0" font-size="11" style="overflow:visible"><text transform="" x="-8" y="106.5625" fill="#1B2030" font-size="11" text-anchor="start"><tspan x="-8" dy="0em">50%</tspan></text></svg></g><g class="visx-group visx-axis-tick" transform="translate(0, 0)"><line class="visx-line" x1="0" y1="58.125" x2="-8" y2="58.125" fill="transparent" shape-rendering="crispEdges" stroke="#F2F0F9" stroke-width="1" stroke-linecap="square"></line><svg x="-30" y="0" font-size="11" style="overflow:visible"><text transform="" x="-8" y="58.125" fill="#1B2030" font-size="11" text-anchor="start"><tspan x="-8" dy="0em">100%</tspan></text></svg></g><g class="visx-group visx-axis-tick" transform="translate(0, 0)"><line class="visx-line" x1="0" y1="9.6875" x2="-8" y2="9.6875" fill="transparent" shape-rendering="crispEdges" stroke="#F2F0F9" stroke-width="1" stroke-linecap="square"></line><svg x="-30" y="0" font-size="11" style="overflow:visible"><text transform="" x="-8" y="9.6875" fill="#1B2030" font-size="11" text-anchor="start"><tspan x="-8" dy="0em">150%</tspan></text></svg></g><line class="visx-line visx-axis-line" x1="0" y1="155.5" x2="0" y2="0.5" fill="transparent" shape-rendering="crispEdges" stroke="#F2F0F9" stroke-width="1"></line></g><rect class="visx-bar" width="1425" height="155" fill="transparent"></rect><line class="visx-line" x1="684" y1="58" x2="684" y2="155" fill="transparent" shape-rendering="crispEdges" stroke="#CDC8E1" stroke-width="1" pointer-events="none" stroke-dasharray="5"></line><svg x="0" y="0" font-size="11px" style="overflow:visible"><text transform="" x="684" y="50" font-size="11px" fill="#555069" stroke="#FFFFFF" stroke-width="1px" text-anchor="middle"><tspan x="684" dy="0.355em">uOptimal 48%</tspan></text></svg><svg x="0" y="0" font-size="11px" style="overflow:visible"><text transform="" x="684" y="50" font-size="11px" fill="#CDC8E1" text-anchor="middle"><tspan x="684" dy="0.355em">uOptimal 48%</tspan></text></svg></g></svg>