<?xml version="1.0"?><svg xmlns="http://www.w3.org/2000/svg" xmlns:xlink= "http://www.w3.org/1999/xlink" style="background: white;" width="1500" height="185"> <g style="color: black; font-size: 13px; font-family: sans-serif; transform: translate(18px, 25px);"><g><circle r="3" cx="-6" cy="-5" style="fill: #B6509E" /><text>Borrow APR, variable</text></g><g style="transform: translateX(150px);"><circle r="3" cx="-6" cy="-5" style="fill: rgb(231, 198, 223)" /><text>Borrow APR, stable</text></g><g style="transform: translateX(290px);"><circle r="3" cx="-6" cy="-5" style="fill: rgb(0, 98, 210)" /><text>Utilization Rate</text></g></g><g class="visx-group" transform="translate(40, 50)"><g class="visx-group visx-rows" transform="translate(0, 0)"><line class="visx-line" x1="0" y1="115" x2="1450" y2="115" fill="transparent" shape-rendering="crispEdges" stroke="#000" stroke-width="1" stroke-dasharray="3,3" pointer-events="none"></line><line class="visx-line" x1="0" y1="82.14285714285714" x2="1450" y2="82.14285714285714" fill="transparent" shape-rendering="crispEdges" stroke="#000" stroke-width="1" stroke-dasharray="3,3" pointer-events="none"></line><line class="visx-line" x1="0" y1="49.28571428571429" x2="1450" y2="49.28571428571429" fill="transparent" shape-rendering="crispEdges" stroke="#000" stroke-width="1" stroke-dasharray="3,3" pointer-events="none"></line><line class="visx-line" x1="0" y1="16.428571428571434" x2="1450" y2="16.428571428571434" fill="transparent" shape-rendering="crispEdges" stroke="#000" stroke-width="1" stroke-dasharray="3,3" pointer-events="none"></line></g><path class="visx-linepath" d="M0,114.99999999996349C2.4166666666666665,114.99391534389405,4.833333333333334,114.9878306878246,7.25,114.98174603174603C9.666666666666666,114.97566137566746,12.083333333333334,114.96957671957672,14.5,114.96349206349207C16.916666666666668,114.95740740740742,19.333333333333332,114.95132275132275,21.75,114.9452380952381C24.166666666666668,114.93915343915344,26.583333333333332,114.93306878306878,29,114.92698412698412C31.416666666666668,114.92089947089947,33.833333333333336,114.91481481481482,36.25,114.90873015873017C38.666666666666664,114.90264550264551,41.083333333333336,114.89656084656085,43.5,114.89047619047619C45.91666666666667,114.88439153439154,48.333333333333336,114.87830687830689,50.75000000000001,114.87222222222223C53.16666666666667,114.86613756613758,55.583333333333336,114.8600529100529,58,114.85396825396825C60.416666666666664,114.8478835978836,62.833333333333336,114.84179894179894,65.25,114.83571428571429C67.66666666666667,114.82962962962964,70.08333333333333,114.82354497354497,72.5,114.81746031746032C74.91666666666667,114.81137566137566,77.33333333333333,114.80529100529101,79.75,114.79920634920636C82.16666666666667,114.7931216931217,84.58333333333333,114.78703703703704,87,114.78095238095239C89.41666666666667,114.77486772486773,91.83333333333333,114.76878306878307,94.25,114.76269841269841C96.66666666666667,114.75661375661376,99.08333333333334,114.75052910052909,101.50000000000001,114.74444444444444C103.91666666666667,114.73835978835979,106.33333333333334,114.73227513227513,108.75,114.72619047619048C111.16666666666667,114.72010582010583,113.58333333333333,114.71402116402116,116,114.70793650793651C118.41666666666667,114.70185185185186,120.83333333333334,114.6957671957672,123.25000000000001,114.68968253968255C125.66666666666667,114.6835978835979,128.08333333333334,114.67751322751322,130.5,114.67142857142856C132.91666666666666,114.66534391534391,135.33333333333334,114.65925925925926,137.75,114.6531746031746C140.16666666666666,114.64708994708995,142.58333333333334,114.64100529100529,145,114.63492063492063C147.41666666666666,114.62883597883598,149.83333333333334,114.62275132275133,152.25,114.61666666666667C154.66666666666666,114.61058201058202,157.08333333333334,114.60449735449734,159.5,114.59841269841269C161.91666666666666,114.59232804232803,164.33333333333334,114.58624338624338,166.75,114.58015873015873C169.16666666666666,114.57407407407408,171.58333333333334,114.56798941798941,174,114.56190476190476C176.41666666666666,114.5558201058201,178.83333333333334,114.54973544973545,181.25,114.5436507936508C183.66666666666666,114.53756613756615,186.08333333333334,114.53148148148148,188.5,114.52539682539683C190.91666666666666,114.51931216931217,193.33333333333334,114.5132275132275,195.75,114.50714285714285C198.16666666666669,114.5010582010582,200.58333333333334,114.49497354497353,203.00000000000003,114.48888888888888C205.41666666666669,114.48280423280423,207.83333333333331,114.47671957671957,210.24999999999997,114.47063492063492C212.66666666666666,114.46455026455027,215.08333333333331,114.4584656084656,217.5,114.45238095238095C219.91666666666666,114.4462962962963,222.33333333333334,114.44021164021164,224.75,114.43412698412699C227.16666666666666,114.42804232804234,229.58333333333334,114.42195767195766,232,114.415873015873C234.41666666666666,114.40978835978835,236.83333333333334,114.4037037037037,239.25,114.39761904761905C241.66666666666669,114.39153439153439,244.08333333333334,114.38544973544973,246.50000000000003,114.37936507936507C248.91666666666669,114.37328042328042,251.33333333333331,114.36719576719577,253.74999999999997,114.36111111111111C256.16666666666663,114.35502645502646,258.5833333333333,114.3489417989418,261,114.34285714285714C263.4166666666667,114.33677248677249,265.8333333333333,114.33068783068782,268.25,114.32460317460317C270.6666666666667,114.31851851851852,273.0833333333333,114.31243386243386,275.5,114.30634920634921C277.9166666666667,114.30026455026456,280.3333333333333,114.29417989417989,282.75,114.28809523809524C285.1666666666667,114.28201058201059,287.5833333333333,114.27592592592592,290,114.26984126984127C292.4166666666667,114.26375661375661,294.8333333333333,114.25767195767196,297.25,114.2515873015873C299.6666666666667,114.24550264550265,302.0833333333333,114.23941798941799,304.5,114.23333333333333C306.9166666666667,114.22724867724868,309.3333333333333,114.22116402116401,311.75,114.21507936507936C314.1666666666667,114.20899470899471,316.5833333333333,114.20291005291006,319,114.1968253968254C321.4166666666667,114.19074074074075,323.8333333333333,114.18465608465608,326.25,114.17857142857143C328.6666666666667,114.17248677248678,331.0833333333333,114.16640211640212,333.5,114.16031746031747C335.9166666666667,114.15423280423282,338.3333333333333,114.14814814814814,340.75,114.14206349206349C343.1666666666667,114.13597883597883,345.5833333333333,114.12989417989418,348,114.12380952380953C350.4166666666667,114.11772486772487,352.8333333333333,114.1116402116402,355.25,114.10555555555555C357.6666666666667,114.0994708994709,360.0833333333333,114.09338624338625,362.5,114.0873015873016C364.9166666666667,114.08121693121694,367.3333333333333,114.07513227513228,369.75,114.06904761904762C372.1666666666667,114.06296296296297,374.5833333333333,114.0568783068783,377,114.05079365079365C379.4166666666667,114.044708994709,381.8333333333333,114.03862433862433,384.25,114.03253968253968C386.6666666666667,114.02645502645503,389.0833333333333,114.02037037037037,391.5,114.01428571428572C393.9166666666667,114.00820105820107,396.33333333333337,114.0021164021164,398.75000000000006,113.99603174603175C401.16666666666674,113.9899470899471,403.58333333333337,113.98386243386244,406.00000000000006,113.97777777777779C408.4166666666667,113.97169312169314,410.8333333333333,113.96560846560845,413.24999999999994,113.9595238095238C415.66666666666663,113.95343915343915,418.08333333333326,113.9473544973545,420.49999999999994,113.94126984126984C422.91666666666663,113.93518518518519,425.3333333333333,113.92910052910052,427.75,113.92301587301587C430.1666666666667,113.91693121693122,432.5833333333333,113.91084656084657,435,113.90476190476191C437.4166666666667,113.89867724867726,439.8333333333333,113.89259259259258,442.25,113.88650793650793C444.6666666666667,113.88042328042327,447.0833333333333,113.87433862433862,449.5,113.86825396825397C451.9166666666667,113.86216931216931,454.3333333333333,113.85608465608465,456.75,113.85C459.1666666666667,113.84391534391534,461.5833333333333,113.83783068783069,464,113.83174603174604C466.4166666666667,113.82566137566138,468.8333333333333,113.81957671957672,471.25,113.81349206349206C473.6666666666667,113.80740740740741,476.0833333333333,113.80132275132274,478.5,113.79523809523809C480.9166666666667,113.78915343915344,483.33333333333337,113.78306878306877,485.75000000000006,113.77698412698412C488.16666666666674,113.77089947089947,490.58333333333337,113.76481481481481,493.00000000000006,113.75873015873016C495.4166666666667,113.7526455026455,497.8333333333333,113.74656084656084,500.24999999999994,113.74047619047619C502.66666666666663,113.73439153439153,505.08333333333326,113.72830687830688,507.49999999999994,113.72222222222223C509.91666666666663,113.71613756613758,512.3333333333333,113.7100529100529,514.75,113.70396825396824C517.1666666666666,113.69788359788359,519.5833333333334,113.69179894179894,522,113.68571428571428C524.4166666666666,113.67962962962963,526.8333333333334,113.67354497354496,529.25,113.66746031746031C531.6666666666666,113.66137566137566,534.0833333333334,113.655291005291,536.5,113.64920634920635C538.9166666666666,113.6431216931217,541.3333333333334,113.63703703703703,543.75,113.63095238095238C546.1666666666666,113.62486772486773,548.5833333333334,113.61878306878306,551,113.6126984126984C553.4166666666666,113.60661375661375,555.8333333333334,113.6005291005291,558.25,113.59444444444445C560.6666666666666,113.5883597883598,563.0833333333334,113.58227513227513,565.5,113.57619047619048C567.9166666666666,113.57010582010582,570.3333333333334,113.56402116402117,572.75,113.55793650793652C575.1666666666666,113.55185185185186,577.5833333333334,113.5457671957672,580,113.53968253968254C582.4166666666666,113.53359788359789,584.8333333333334,113.52751322751323,587.25,113.52142857142857C589.6666666666666,113.51534391534392,592.0833333333334,113.50925925925925,594.5,113.5031746031746C596.9166666666666,113.49708994708995,599.3333333333334,113.4910052910053,601.75,113.48492063492064C604.1666666666666,113.47883597883599,606.5833333333334,113.47275132275132,609,113.46666666666667C611.4166666666666,113.46058201058202,613.8333333333334,113.45449735449736,616.25,113.44841269841271C618.6666666666666,113.44232804232806,621.0833333333334,113.43624338624338,623.5,113.43015873015872C625.9166666666666,113.42407407407407,628.3333333333334,113.41798941798942,630.75,113.41190476190476C633.1666666666666,113.40582010582011,635.5833333333334,113.39973544973545,638,113.39365079365079C640.4166666666666,113.38756613756614,642.8333333333334,113.38148148148149,645.25,113.37539682539683C647.6666666666666,113.36931216931218,650.0833333333334,113.36931216931218,652.5,113.35714285714286C654.9166666666666,113.34497354497354,657.3333333333334,112.75974025974027,659.75,112.46103896103897C662.1666666666666,112.16233766233766,664.5833333333334,111.86363636363637,667,111.56493506493507C669.4166666666666,111.26623376623377,671.8333333333334,110.96753246753248,674.25,110.66883116883118C676.6666666666666,110.37012987012987,679.0833333333334,110.07142857142858,681.5,109.77272727272728C683.9166666666666,109.47402597402598,686.3333333333334,109.17532467532469,688.75,108.87662337662339C691.1666666666666,108.57792207792208,693.5833333333334,108.2792207792208,696,107.98051948051949C698.4166666666666,107.68181818181819,700.8333333333334,107.3831168831169,703.25,107.0844155844156C705.6666666666666,106.78571428571429,708.0833333333334,106.48701298701299,710.5,106.18831168831169C712.9166666666666,105.88961038961038,715.3333333333334,105.5909090909091,717.75,105.29220779220779C720.1666666666666,104.99350649350649,722.5833333333334,104.6948051948052,725,104.3961038961039C727.4166666666666,104.09740259740259,729.8333333333334,103.7987012987013,732.25,103.5C734.6666666666666,103.2012987012987,737.0833333333334,102.90259740259741,739.5,102.6038961038961C741.9166666666666,102.3051948051948,744.3333333333334,102.00649350649351,746.75,101.70779220779221C749.1666666666666,101.4090909090909,751.5833333333334,101.11038961038962,754,100.81168831168831C756.4166666666666,100.51298701298701,758.8333333333334,100.21428571428572,761.25,99.91558441558442C763.6666666666666,99.61688311688312,766.0833333333334,99.31818181818183,768.5,99.01948051948052C770.9166666666666,98.72077922077922,773.3333333333334,98.42207792207793,775.75,98.12337662337663C778.1666666666666,97.82467532467533,780.5833333333334,97.52597402597404,783,97.22727272727273C785.4166666666667,96.92857142857143,787.8333333333334,96.62987012987013,790.2500000000001,96.33116883116882C792.6666666666667,96.03246753246752,795.0833333333335,95.73376623376623,797.5000000000001,95.43506493506493C799.9166666666667,95.13636363636363,802.3333333333335,94.83766233766234,804.7500000000001,94.53896103896103C807.1666666666667,94.24025974025973,809.5833333333335,93.94155844155844,812.0000000000001,93.64285714285714C814.4166666666667,93.34415584415585,816.8333333333333,93.04545454545453,819.2499999999999,92.74675324675324C821.6666666666665,92.44805194805194,824.0833333333333,92.14935064935065,826.4999999999999,91.85064935064935C828.9166666666665,91.55194805194805,831.3333333333333,91.25324675324676,833.7499999999999,90.95454545454545C836.1666666666665,90.65584415584415,838.5833333333333,90.35714285714286,840.9999999999999,90.05844155844156C843.4166666666666,89.75974025974025,845.8333333333333,89.46103896103897,848.25,89.16233766233766C850.6666666666666,88.86363636363637,853.0833333333334,88.56493506493507,855.5,88.26623376623377C857.9166666666666,87.96753246753246,860.3333333333334,87.66883116883118,862.75,87.37012987012987C865.1666666666666,87.07142857142857,867.5833333333334,86.77272727272728,870,86.47402597402598C872.4166666666666,86.17532467532467,874.8333333333334,85.87662337662337,877.25,85.57792207792207C879.6666666666666,85.27922077922076,882.0833333333334,84.98051948051946,884.5,84.68181818181817C886.9166666666666,84.38311688311688,889.3333333333334,84.0844155844156,891.75,83.78571428571429C894.1666666666666,83.48701298701299,896.5833333333334,83.18831168831169,899,82.88961038961038C901.4166666666666,82.59090909090908,903.8333333333334,82.29220779220779,906.25,81.99350649350649C908.6666666666666,81.69480519480518,911.0833333333334,81.39610389610388,913.5,81.09740259740259C915.9166666666666,80.7987012987013,918.3333333333334,80.50000000000001,920.75,80.20129870129871C923.1666666666666,79.90259740259741,925.5833333333334,79.6038961038961,928,79.3051948051948C930.4166666666666,79.0064935064935,932.8333333333334,78.70779220779222,935.25,78.40909090909092C937.6666666666666,78.11038961038962,940.0833333333334,77.81168831168831,942.5,77.51298701298701C944.9166666666666,77.21428571428571,947.3333333333334,76.91558441558442,949.75,76.61688311688312C952.1666666666666,76.31818181818181,954.5833333333334,76.01948051948052,957,75.72077922077922C959.4166666666666,75.42207792207792,961.8333333333334,75.12337662337663,964.25,74.82467532467533C966.6666666666667,74.52597402597402,969.0833333333334,74.22727272727272,971.5000000000001,73.92857142857142C973.9166666666667,73.62987012987011,976.3333333333335,73.33116883116882,978.7500000000001,73.03246753246754C981.1666666666667,72.73376623376625,983.5833333333335,72.43506493506494,986.0000000000001,72.13636363636364C988.4166666666667,71.83766233766234,990.8333333333335,71.53896103896105,993.2500000000001,71.24025974025975C995.6666666666667,70.94155844155844,998.0833333333333,70.64285714285714,1000.4999999999999,70.34415584415584C1002.9166666666665,70.04545454545453,1005.3333333333333,69.74675324675323,1007.7499999999999,69.44805194805194C1010.1666666666665,69.14935064935065,1012.5833333333333,68.85064935064935,1014.9999999999999,68.55194805194806C1017.4166666666665,68.25324675324677,1019.8333333333333,67.95454545454547,1022.2499999999999,67.65584415584416C1024.6666666666665,67.35714285714286,1027.0833333333333,67.05844155844157,1029.5,66.75974025974027C1031.9166666666667,66.46103896103897,1034.3333333333333,66.16233766233766,1036.75,65.86363636363636C1039.1666666666667,65.56493506493506,1041.5833333333333,65.26623376623375,1044,64.96753246753245C1046.4166666666667,64.66883116883115,1048.8333333333333,64.37012987012987,1051.25,64.07142857142857C1053.6666666666667,63.77272727272727,1056.0833333333333,63.47402597402596,1058.5,63.17532467532467C1060.9166666666667,62.87662337662337,1063.3333333333333,62.577922077922075,1065.75,62.27922077922078C1068.1666666666667,61.98051948051948,1070.5833333333333,61.68181818181818,1073,61.383116883116884C1075.4166666666667,61.08441558441559,1077.8333333333333,60.785714285714285,1080.25,60.48701298701299C1082.6666666666667,60.18831168831169,1085.0833333333333,59.88961038961039,1087.5,59.59090909090909C1089.9166666666667,59.2922077922078,1092.3333333333333,58.993506493506494,1094.75,58.6948051948052C1097.1666666666667,58.3961038961039,1099.5833333333333,58.09740259740259,1102,57.798701298701296C1104.4166666666667,57.5,1106.8333333333333,57.2012987012987,1109.25,56.9025974025974C1111.6666666666667,56.603896103896105,1114.0833333333333,56.3051948051948,1116.5,56.006493506493506C1118.9166666666667,55.70779220779221,1121.3333333333333,55.40909090909091,1123.75,55.11038961038961C1126.1666666666667,54.811688311688314,1128.5833333333333,54.51298701298701,1131,54.214285714285715C1133.4166666666667,53.91558441558442,1135.8333333333333,53.616883116883116,1138.25,53.31818181818182C1140.6666666666667,53.019480519480524,1143.0833333333333,52.720779220779214,1145.5,52.42207792207792C1147.9166666666667,52.12337662337662,1150.3333333333333,51.82467532467532,1152.75,51.52597402597402C1155.1666666666667,51.22727272727273,1157.5833333333333,50.92857142857142,1160,50.62987012987013C1162.4166666666667,50.33116883116883,1164.8333333333333,50.03246753246753,1167.25,49.73376623376623C1169.6666666666667,49.435064935064936,1172.0833333333333,49.13636363636363,1174.5,48.83766233766234C1176.9166666666667,48.53896103896104,1179.3333333333333,48.24025974025974,1181.75,47.94155844155844C1184.1666666666667,47.642857142857146,1186.5833333333333,47.344155844155836,1189,47.04545454545454C1191.4166666666667,46.746753246753244,1193.8333333333333,46.448051948051955,1196.25,46.14935064935066C1198.6666666666667,45.85064935064936,1201.0833333333333,45.55194805194807,1203.5,45.25324675324676C1205.9166666666667,44.95454545454546,1208.3333333333333,44.65584415584415,1210.75,44.357142857142854C1213.1666666666667,44.05844155844156,1215.5833333333333,43.75974025974026,1218,43.461038961038966C1220.4166666666667,43.16233766233767,1222.8333333333333,42.86363636363636,1225.25,42.56493506493506C1227.6666666666667,42.26623376623375,1230.0833333333333,41.96753246753246,1232.5,41.66883116883116C1234.9166666666667,41.370129870129865,1237.3333333333333,41.07142857142856,1239.75,40.772727272727266C1242.1666666666667,40.47402597402597,1244.5833333333333,40.17532467532468,1247,39.876623376623385C1249.4166666666667,39.57792207792209,1251.8333333333333,39.27922077922079,1254.25,38.98051948051949C1256.6666666666667,38.68181818181819,1259.0833333333333,38.38311688311688,1261.5,38.08441558441558C1263.9166666666667,37.785714285714285,1266.3333333333333,37.48701298701299,1268.75,37.18831168831169C1271.1666666666667,36.8896103896104,1273.5833333333333,36.590909090909086,1276,36.29220779220778C1278.4166666666667,35.99350649350648,1280.8333333333333,35.694805194805184,1283.25,35.39610389610389C1285.6666666666667,35.09740259740259,1288.0833333333333,34.79870129870129,1290.5,34.49999999999999C1292.9166666666667,34.2012987012987,1295.3333333333333,33.90259740259741,1297.75,33.60389610389611C1300.1666666666667,33.305194805194816,1302.5833333333333,33.006493506493506,1305,32.70779220779221C1307.4166666666667,32.409090909090914,1309.8333333333333,32.11038961038961,1312.25,31.811688311688314C1314.6666666666667,31.512987012987015,1317.0833333333333,31.21428571428572,1319.5,30.91558441558442C1321.9166666666667,30.61688311688312,1324.3333333333333,30.318181818181824,1326.75,30.019480519480524C1329.1666666666667,29.720779220779225,1331.5833333333333,29.422077922077914,1334,29.123376623376615C1336.4166666666667,28.824675324675315,1338.8333333333333,28.525974025974012,1341.25,28.227272727272716C1343.6666666666667,27.92857142857142,1346.0833333333333,27.629870129870127,1348.5,27.331168831168835C1350.9166666666667,27.032467532467543,1353.3333333333333,26.73376623376625,1355.75,26.43506493506495C1358.1666666666667,26.13636363636365,1360.5833333333333,25.83766233766234,1363,25.53896103896104C1365.4166666666667,25.24025974025974,1367.8333333333333,24.941558441558445,1370.25,24.642857142857146C1372.6666666666667,24.344155844155846,1375.0833333333333,24.045454545454536,1377.5,23.746753246753237C1379.9166666666667,23.448051948051937,1382.3333333333333,23.149350649350634,1384.75,22.850649350649338C1387.1666666666667,22.55194805194804,1389.5833333333333,22.25324675324675,1392,21.954545454545457C1394.4166666666667,21.655844155844164,1396.8333333333333,21.357142857142872,1399.25,21.058441558441572C1401.6666666666667,20.759740259740273,1404.0833333333333,20.461038961038962,1406.5,20.162337662337663C1408.9166666666667,19.863636363636363,1411.3333333333333,19.564935064935064,1413.75,19.266233766233768C1416.1666666666667,18.96753246753247,1418.5833333333333,18.668831168831183,1421,18.370129870129883C1423.4166666666667,18.071428571428584,1425.8333333333333,17.772727272727273,1428.25,17.474025974025974C1430.6666666666667,17.175324675324674,1433.0833333333333,16.876623376623378,1435.5,16.57792207792208C1437.9166666666667,16.27922077922078,1440.3333333333333,15.980519480519467,1442.75,15.681818181818167C1445.1666666666667,15.383116883116868,1447.5833333333333,15.084415584415577,1450,14.785714285714285" fill="transparent" stroke-linecap="round" stroke="#B6509E" stroke-width="2"></path><path class="visx-linepath" d="M0,113.02857142856777C2.4166666666666665,113.02796296296083,4.833333333333334,113.02735449735388,7.25,113.02674603174603C9.666666666666666,113.02613756613817,12.083333333333334,113.0255291005291,14.5,113.02492063492063C16.916666666666668,113.02431216931217,19.333333333333332,113.0237037037037,21.75,113.02309523809524C24.166666666666668,113.02248677248677,26.583333333333332,113.0218783068783,29,113.02126984126984C31.416666666666668,113.02066137566138,33.833333333333336,113.02005291005291,36.25,113.01944444444445C38.666666666666664,113.01883597883598,41.083333333333336,113.01822751322752,43.5,113.01761904761905C45.91666666666667,113.01701058201058,48.333333333333336,113.0164021164021,50.75000000000001,113.01579365079364C53.16666666666667,113.01518518518517,55.583333333333336,113.01457671957671,58,113.01396825396824C60.416666666666664,113.01335978835978,62.833333333333336,113.01275132275133,65.25,113.01214285714286C67.66666666666667,113.0115343915344,70.08333333333333,113.01092592592593,72.5,113.01031746031747C74.91666666666667,113.009708994709,77.33333333333333,113.00910052910054,79.75,113.00849206349207C82.16666666666667,113.0078835978836,84.58333333333333,113.00727513227514,87,113.00666666666667C89.41666666666667,113.00605820105821,91.83333333333333,113.00544973544973,94.25,113.00484126984126C96.66666666666667,113.0042328042328,99.08333333333334,113.00362433862433,101.50000000000001,113.00301587301587C103.91666666666667,113.0024074074074,106.33333333333334,113.00179894179894,108.75,113.00119047619047C111.16666666666667,113.00058201058201,113.58333333333333,112.99997354497354,116,112.99936507936508C118.41666666666667,112.99875661375661,120.83333333333334,112.99814814814815,123.25000000000001,112.99753968253968C125.66666666666667,112.99693121693122,128.08333333333334,112.99632275132275,130.5,112.99571428571429C132.91666666666666,112.99510582010582,135.33333333333334,112.99449735449735,137.75,112.99388888888889C140.16666666666666,112.99328042328042,142.58333333333334,112.99267195767194,145,112.99206349206348C147.41666666666666,112.99145502645501,149.83333333333334,112.99084656084656,152.25,112.9902380952381C154.66666666666666,112.98962962962963,157.08333333333334,112.98902116402117,159.5,112.9884126984127C161.91666666666666,112.98780423280424,164.33333333333334,112.98719576719577,166.75,112.9865873015873C169.16666666666666,112.98597883597884,171.58333333333334,112.98537037037038,174,112.98476190476191C176.41666666666666,112.98415343915345,178.83333333333334,112.98354497354498,181.25,112.98293650793651C183.66666666666666,112.98232804232805,186.08333333333334,112.98171957671958,188.5,112.98111111111112C190.91666666666666,112.98050264550265,193.33333333333334,112.97989417989417,195.75,112.97928571428571C198.16666666666669,112.97867724867724,200.58333333333334,112.97806878306878,203.00000000000003,112.97746031746031C205.41666666666669,112.97685185185185,207.83333333333331,112.97624338624338,210.24999999999997,112.97563492063492C212.66666666666666,112.97502645502645,215.08333333333331,112.97441798941799,217.5,112.97380952380952C219.91666666666666,112.97320105820106,222.33333333333334,112.97259259259259,224.75,112.97198412698413C227.16666666666666,112.97137566137566,229.58333333333334,112.9707671957672,232,112.97015873015873C234.41666666666666,112.96955026455026,236.83333333333334,112.9689417989418,239.25,112.96833333333333C241.66666666666669,112.96772486772487,244.08333333333334,112.9671164021164,246.50000000000003,112.96650793650794C248.91666666666669,112.96589947089947,251.33333333333331,112.96529100529101,253.74999999999997,112.96468253968254C256.16666666666663,112.96407407407408,258.5833333333333,112.96346560846561,261,112.96285714285715C263.4166666666667,112.96224867724868,265.8333333333333,112.96164021164022,268.25,112.96103174603175C270.6666666666667,112.96042328042329,273.0833333333333,112.95981481481482,275.5,112.95920634920635C277.9166666666667,112.95859788359789,280.3333333333333,112.95798941798942,282.75,112.95738095238096C285.1666666666667,112.9567724867725,287.5833333333333,112.95616402116401,290,112.95555555555555C292.4166666666667,112.95494708994708,294.8333333333333,112.95433862433862,297.25,112.95373015873015C299.6666666666667,112.95312169312169,302.0833333333333,112.95251322751322,304.5,112.95190476190476C306.9166666666667,112.95129629629629,309.3333333333333,112.95068783068783,311.75,112.95007936507936C314.1666666666667,112.9494708994709,316.5833333333333,112.94886243386243,319,112.94825396825397C321.4166666666667,112.9476455026455,323.8333333333333,112.94703703703703,326.25,112.94642857142857C328.6666666666667,112.9458201058201,331.0833333333333,112.94521164021165,333.5,112.94460317460319C335.9166666666667,112.94399470899472,338.3333333333333,112.94338624338624,340.75,112.94277777777778C343.1666666666667,112.94216931216931,345.5833333333333,112.94156084656085,348,112.94095238095238C350.4166666666667,112.94034391534392,352.8333333333333,112.93973544973545,355.25,112.93912698412699C357.6666666666667,112.93851851851852,360.0833333333333,112.93791005291006,362.5,112.93730158730159C364.9166666666667,112.93669312169312,367.3333333333333,112.93608465608466,369.75,112.9354761904762C372.1666666666667,112.93486772486773,374.5833333333333,112.93425925925926,377,112.9336507936508C379.4166666666667,112.93304232804233,381.8333333333333,112.93243386243387,384.25,112.9318253968254C386.6666666666667,112.93121693121694,389.0833333333333,112.93060846560846,391.5,112.92999999999999C393.9166666666667,112.92939153439153,396.33333333333337,112.92878306878306,398.75000000000006,112.9281746031746C401.16666666666674,112.92756613756613,403.58333333333337,112.92695767195767,406.00000000000006,112.9263492063492C408.4166666666667,112.92574074074074,410.8333333333333,112.92513227513227,413.24999999999994,112.9245238095238C415.66666666666663,112.92391534391534,418.08333333333326,112.92330687830687,420.49999999999994,112.92269841269841C422.91666666666663,112.92208994708994,425.3333333333333,112.92148148148149,427.75,112.92087301587303C430.1666666666667,112.92026455026456,432.5833333333333,112.91965608465608,435,112.91904761904762C437.4166666666667,112.91843915343915,439.8333333333333,112.91783068783069,442.25,112.91722222222222C444.6666666666667,112.91661375661376,447.0833333333333,112.91600529100529,449.5,112.91539682539683C451.9166666666667,112.91478835978836,454.3333333333333,112.9141798941799,456.75,112.91357142857143C459.1666666666667,112.91296296296296,461.5833333333333,112.9123544973545,464,112.91174603174603C466.4166666666667,112.91113756613757,468.8333333333333,112.9105291005291,471.25,112.90992063492064C473.6666666666667,112.90931216931217,476.0833333333333,112.90870370370371,478.5,112.90809523809524C480.9166666666667,112.90748677248678,483.33333333333337,112.9068783068783,485.75000000000006,112.90626984126983C488.16666666666674,112.90566137566137,490.58333333333337,112.9050529100529,493.00000000000006,112.90444444444444C495.4166666666667,112.90383597883597,497.8333333333333,112.9032275132275,500.24999999999994,112.90261904761904C502.66666666666663,112.90201058201058,505.08333333333326,112.90140211640211,507.49999999999994,112.90079365079364C509.91666666666663,112.90018518518518,512.3333333333333,112.89957671957673,514.75,112.89896825396826C517.1666666666666,112.8983597883598,519.5833333333334,112.89775132275133,522,112.89714285714287C524.4166666666666,112.8965343915344,526.8333333333334,112.89592592592594,529.25,112.89531746031747C531.6666666666666,112.894708994709,534.0833333333334,112.89410052910053,536.5,112.89349206349206C538.9166666666666,112.8928835978836,541.3333333333334,112.89227513227513,543.75,112.89166666666667C546.1666666666666,112.8910582010582,548.5833333333334,112.89044973544974,551,112.88984126984127C553.4166666666666,112.8892328042328,555.8333333333334,112.88862433862434,558.25,112.88801587301587C560.6666666666666,112.88740740740741,563.0833333333334,112.88679894179894,565.5,112.88619047619048C567.9166666666666,112.88558201058201,570.3333333333334,112.88497354497355,572.75,112.88436507936508C575.1666666666666,112.88375661375662,577.5833333333334,112.88314814814815,580,112.88253968253969C582.4166666666666,112.88193121693122,584.8333333333334,112.88132275132274,587.25,112.88071428571428C589.6666666666666,112.88010582010581,592.0833333333334,112.87949735449735,594.5,112.87888888888888C596.9166666666666,112.87828042328042,599.3333333333334,112.87767195767195,601.75,112.87706349206348C604.1666666666666,112.87645502645502,606.5833333333334,112.87584656084657,609,112.8752380952381C611.4166666666666,112.87462962962964,613.8333333333334,112.87402116402117,616.25,112.87341269841271C618.6666666666666,112.87280423280424,621.0833333333334,112.87219576719578,623.5,112.87158730158731C625.9166666666666,112.87097883597885,628.3333333333334,112.87037037037037,630.75,112.8697619047619C633.1666666666666,112.86915343915344,635.5833333333334,112.86854497354497,638,112.8679365079365C640.4166666666666,112.86732804232804,642.8333333333334,112.86671957671958,645.25,112.86611111111111C647.6666666666666,112.86550264550264,650.0833333333334,112.86550264550264,652.5,112.86428571428571C654.9166666666666,112.86306878306878,657.3333333333334,112.71493506493506,659.75,112.64025974025974C662.1666666666666,112.56558441558441,664.5833333333334,112.49090909090908,667,112.41623376623376C669.4166666666666,112.34155844155843,671.8333333333334,112.26688311688311,674.25,112.19220779220778C676.6666666666666,112.11753246753246,679.0833333333334,112.04285714285714,681.5,111.96818181818182C683.9166666666666,111.8935064935065,686.3333333333334,111.81883116883117,688.75,111.74415584415584C691.1666666666666,111.66948051948052,693.5833333333334,111.5948051948052,696,111.52012987012988C698.4166666666666,111.44545454545455,700.8333333333334,111.37077922077921,703.25,111.29610389610389C705.6666666666666,111.22142857142856,708.0833333333334,111.14675324675325,710.5,111.07207792207792C712.9166666666666,110.9974025974026,715.3333333333334,110.92272727272727,717.75,110.84805194805195C720.1666666666666,110.77337662337662,722.5833333333334,110.69870129870131,725,110.62402597402598C727.4166666666666,110.54935064935066,729.8333333333334,110.47467532467532,732.25,110.39999999999999C734.6666666666666,110.32532467532467,737.0833333333334,110.25064935064935,739.5,110.17597402597403C741.9166666666666,110.1012987012987,744.3333333333334,110.02662337662338,746.75,109.95194805194805C749.1666666666666,109.87727272727273,751.5833333333334,109.80259740259741,754,109.72792207792209C756.4166666666666,109.65324675324676,758.8333333333334,109.57857142857142,761.25,109.5038961038961C763.6666666666666,109.42922077922077,766.0833333333334,109.35454545454546,768.5,109.27987012987013C770.9166666666666,109.20519480519481,773.3333333333334,109.13051948051948,775.75,109.05584415584416C778.1666666666666,108.98116883116883,780.5833333333334,108.90649350649352,783,108.83181818181819C785.4166666666667,108.75714285714287,787.8333333333334,108.68246753246753,790.2500000000001,108.6077922077922C792.6666666666667,108.53311688311688,795.0833333333335,108.45844155844156,797.5000000000001,108.38376623376624C799.9166666666667,108.30909090909091,802.3333333333335,108.23441558441559,804.7500000000001,108.15974025974026C807.1666666666667,108.08506493506493,809.5833333333335,108.01038961038961,812.0000000000001,107.93571428571428C814.4166666666667,107.86103896103896,816.8333333333333,107.78636363636363,819.2499999999999,107.7116883116883C821.6666666666665,107.63701298701298,824.0833333333333,107.56233766233767,826.4999999999999,107.48766233766234C828.9166666666665,107.41298701298702,831.3333333333333,107.33831168831169,833.7499999999999,107.26363636363637C836.1666666666665,107.18896103896104,838.5833333333333,107.11428571428571,840.9999999999999,107.03961038961039C843.4166666666666,106.96493506493506,845.8333333333333,106.89025974025974,848.25,106.81558441558441C850.6666666666666,106.74090909090908,853.0833333333334,106.66623376623376,855.5,106.59155844155843C857.9166666666666,106.51688311688311,860.3333333333334,106.4422077922078,862.75,106.36753246753247C865.1666666666666,106.29285714285714,867.5833333333334,106.21818181818182,870,106.1435064935065C872.4166666666666,106.06883116883117,874.8333333333334,105.99415584415584,877.25,105.91948051948052C879.6666666666666,105.84480519480519,882.0833333333334,105.77012987012986,884.5,105.69545454545454C886.9166666666666,105.62077922077921,889.3333333333334,105.5461038961039,891.75,105.47142857142858C894.1666666666666,105.39675324675325,896.5833333333334,105.32207792207792,899,105.2474025974026C901.4166666666666,105.17272727272727,903.8333333333334,105.09805194805195,906.25,105.02337662337662C908.6666666666666,104.9487012987013,911.0833333333334,104.87402597402597,913.5,104.79935064935064C915.9166666666666,104.72467532467532,918.3333333333334,104.65,920.75,104.57532467532468C923.1666666666666,104.50064935064935,925.5833333333334,104.42597402597403,928,104.3512987012987C930.4166666666666,104.27662337662338,932.8333333333334,104.20194805194805,935.25,104.12727272727273C937.6666666666666,104.0525974025974,940.0833333333334,103.97792207792207,942.5,103.90324675324675C944.9166666666666,103.82857142857142,947.3333333333334,103.75389610389611,949.75,103.67922077922078C952.1666666666666,103.60454545454546,954.5833333333334,103.52987012987013,957,103.45519480519481C959.4166666666666,103.38051948051948,961.8333333333334,103.30584415584417,964.25,103.23116883116884C966.6666666666667,103.15649350649352,969.0833333333334,103.08181818181818,971.5000000000001,103.00714285714285C973.9166666666667,102.93246753246753,976.3333333333335,102.85779220779222,978.7500000000001,102.78311688311689C981.1666666666667,102.70844155844156,983.5833333333335,102.63376623376624,986.0000000000001,102.55909090909091C988.4166666666667,102.48441558441559,990.8333333333335,102.40974025974026,993.2500000000001,102.33506493506493C995.6666666666667,102.26038961038961,998.0833333333333,102.18571428571428,1000.4999999999999,102.11103896103896C1002.9166666666665,102.03636363636363,1005.3333333333333,101.9616883116883,1007.7499999999999,101.88701298701298C1010.1666666666665,101.81233766233765,1012.5833333333333,101.73766233766234,1014.9999999999999,101.66298701298702C1017.4166666666665,101.58831168831169,1019.8333333333333,101.51363636363635,1022.2499999999999,101.43896103896103C1024.6666666666665,101.3642857142857,1027.0833333333333,101.28961038961039,1029.5,101.21493506493506C1031.9166666666667,101.14025974025974,1034.3333333333333,101.06558441558441,1036.75,100.99090909090908C1039.1666666666667,100.91623376623376,1041.5833333333333,100.84155844155845,1044,100.76688311688312C1046.4166666666667,100.6922077922078,1048.8333333333333,100.61753246753247,1051.25,100.54285714285714C1053.6666666666667,100.46818181818182,1056.0833333333333,100.3935064935065,1058.5,100.31883116883117C1060.9166666666667,100.24415584415584,1063.3333333333333,100.16948051948052,1065.75,100.09480519480519C1068.1666666666667,100.02012987012986,1070.5833333333333,99.94545454545455,1073,99.87077922077923C1075.4166666666667,99.7961038961039,1077.8333333333333,99.72142857142856,1080.25,99.64675324675324C1082.6666666666667,99.57207792207791,1085.0833333333333,99.4974025974026,1087.5,99.42272727272727C1089.9166666666667,99.34805194805195,1092.3333333333333,99.27337662337662,1094.75,99.1987012987013C1097.1666666666667,99.12402597402597,1099.5833333333333,99.04935064935066,1102,98.97467532467533C1104.4166666666667,98.9,1106.8333333333333,98.82532467532468,1109.25,98.75064935064935C1111.6666666666667,98.67597402597403,1114.0833333333333,98.60129870129872,1116.5,98.52662337662339C1118.9166666666667,98.45194805194807,1121.3333333333333,98.37727272727273,1123.75,98.3025974025974C1126.1666666666667,98.22792207792207,1128.5833333333333,98.15324675324676,1131,98.07857142857144C1133.4166666666667,98.00389610389611,1135.8333333333333,97.92922077922077,1138.25,97.85454545454544C1140.6666666666667,97.77987012987012,1143.0833333333333,97.70519480519481,1145.5,97.63051948051948C1147.9166666666667,97.55584415584416,1150.3333333333333,97.48116883116883,1152.75,97.4064935064935C1155.1666666666667,97.33181818181818,1157.5833333333333,97.25714285714285,1160,97.18246753246753C1162.4166666666667,97.1077922077922,1164.8333333333333,97.03311688311689,1167.25,96.95844155844156C1169.6666666666667,96.88376623376624,1172.0833333333333,96.8090909090909,1174.5,96.73441558441557C1176.9166666666667,96.65974025974025,1179.3333333333333,96.58506493506493,1181.75,96.51038961038961C1184.1666666666667,96.43571428571428,1186.5833333333333,96.36103896103896,1189,96.28636363636363C1191.4166666666667,96.2116883116883,1193.8333333333333,96.13701298701298,1196.25,96.06233766233765C1198.6666666666667,95.98766233766233,1201.0833333333333,95.912987012987,1203.5,95.83831168831168C1205.9166666666667,95.76363636363635,1208.3333333333333,95.68896103896104,1210.75,95.61428571428571C1213.1666666666667,95.53961038961039,1215.5833333333333,95.46493506493506,1218,95.39025974025974C1220.4166666666667,95.31558441558441,1222.8333333333333,95.2409090909091,1225.25,95.16623376623377C1227.6666666666667,95.09155844155845,1230.0833333333333,95.01688311688312,1232.5,94.9422077922078C1234.9166666666667,94.86753246753247,1237.3333333333333,94.79285714285714,1239.75,94.71818181818182C1242.1666666666667,94.6435064935065,1244.5833333333333,94.56883116883117,1247,94.49415584415584C1249.4166666666667,94.41948051948052,1251.8333333333333,94.3448051948052,1254.25,94.27012987012988C1256.6666666666667,94.19545454545455,1259.0833333333333,94.12077922077923,1261.5,94.0461038961039C1263.9166666666667,93.97142857142858,1266.3333333333333,93.89675324675325,1268.75,93.82207792207792C1271.1666666666667,93.7474025974026,1273.5833333333333,93.67272727272727,1276,93.59805194805195C1278.4166666666667,93.52337662337662,1280.8333333333333,93.44870129870131,1283.25,93.37402597402598C1285.6666666666667,93.29935064935066,1288.0833333333333,93.22467532467533,1290.5,93.15C1292.9166666666667,93.07532467532468,1295.3333333333333,93.00064935064935,1297.75,92.92597402597403C1300.1666666666667,92.8512987012987,1302.5833333333333,92.77662337662338,1305,92.70194805194805C1307.4166666666667,92.62727272727273,1309.8333333333333,92.5525974025974,1312.25,92.47792207792207C1314.6666666666667,92.40324675324675,1317.0833333333333,92.32857142857144,1319.5,92.25389610389611C1321.9166666666667,92.17922077922078,1324.3333333333333,92.10454545454544,1326.75,92.02987012987012C1329.1666666666667,91.9551948051948,1331.5833333333333,91.88051948051948,1334,91.80584415584416C1336.4166666666667,91.73116883116883,1338.8333333333333,91.6564935064935,1341.25,91.58181818181818C1343.6666666666667,91.50714285714285,1346.0833333333333,91.43246753246754,1348.5,91.35779220779222C1350.9166666666667,91.28311688311689,1353.3333333333333,91.20844155844156,1355.75,91.13376623376624C1358.1666666666667,91.05909090909091,1360.5833333333333,90.98441558441559,1363,90.90974025974026C1365.4166666666667,90.83506493506493,1367.8333333333333,90.76038961038961,1370.25,90.68571428571428C1372.6666666666667,90.61103896103896,1375.0833333333333,90.53636363636363,1377.5,90.4616883116883C1379.9166666666667,90.38701298701298,1382.3333333333333,90.31233766233765,1384.75,90.23766233766233C1387.1666666666667,90.162987012987,1389.5833333333333,90.08831168831169,1392,90.01363636363637C1394.4166666666667,89.93896103896104,1396.8333333333333,89.86428571428571,1399.25,89.78961038961039C1401.6666666666667,89.71493506493506,1404.0833333333333,89.64025974025975,1406.5,89.56558441558442C1408.9166666666667,89.4909090909091,1411.3333333333333,89.41623376623376,1413.75,89.34155844155843C1416.1666666666667,89.26688311688311,1418.5833333333333,89.1922077922078,1421,89.11753246753247C1423.4166666666667,89.04285714285714,1425.8333333333333,88.96818181818182,1428.25,88.8935064935065C1430.6666666666667,88.81883116883117,1433.0833333333333,88.74415584415584,1435.5,88.66948051948052C1437.9166666666667,88.59480519480519,1440.3333333333333,88.52012987012986,1442.75,88.44545454545454C1445.1666666666667,88.37077922077921,1447.5833333333333,88.2961038961039,1450,88.22142857142858" fill="transparent" stroke-linecap="round" stroke="#E7C6DF" stroke-width="2"></path><g class="visx-group visx-axis visx-axis-bottom" transform="translate(0, 115)"><g class="visx-group visx-axis-tick" transform="translate(0, 0)"><line class="visx-line" x1="0" y1="0" x2="0" y2="8" fill="transparent" shape-rendering="crispEdges" stroke="#000" stroke-width="0" stroke-linecap="square"></line><svg x="0" y="0" font-size="10" style="overflow:visible"><text transform="" x="0" y="18" fill="#000" font-size="10" text-anchor="middle"><tspan x="0" dy="0em">0%</tspan></text></svg></g><g class="visx-group visx-axis-tick" transform="translate(0, 0)"><line class="visx-line" x1="362.5" y1="0" x2="362.5" y2="8" fill="transparent" shape-rendering="crispEdges" stroke="#000" stroke-width="0" stroke-linecap="square"></line><svg x="0" y="0" font-size="10" style="overflow:visible"><text transform="" x="362.5" y="18" fill="#000" font-size="10" text-anchor="middle"><tspan x="362.5" dy="0em">25%</tspan></text></svg></g><g class="visx-group visx-axis-tick" transform="translate(0, 0)"><line class="visx-line" x1="725" y1="0" x2="725" y2="8" fill="transparent" shape-rendering="crispEdges" stroke="#000" stroke-width="0" stroke-linecap="square"></line><svg x="0" y="0" font-size="10" style="overflow:visible"><text transform="" x="725" y="18" fill="#000" font-size="10" text-anchor="middle"><tspan x="725" dy="0em">50%</tspan></text></svg></g><g class="visx-group visx-axis-tick" transform="translate(0, 0)"><line class="visx-line" x1="1087.5" y1="0" x2="1087.5" y2="8" fill="transparent" shape-rendering="crispEdges" stroke="#000" stroke-width="0" stroke-linecap="square"></line><svg x="0" y="0" font-size="10" style="overflow:visible"><text transform="" x="1087.5" y="18" fill="#000" font-size="10" text-anchor="middle"><tspan x="1087.5" dy="0em">75%</tspan></text></svg></g><g class="visx-group visx-axis-tick" transform="translate(0, 0)"><line class="visx-line" x1="1450" y1="0" x2="1450" y2="8" fill="transparent" shape-rendering="crispEdges" stroke="#000" stroke-width="0" stroke-linecap="square"></line><svg x="0" y="0" font-size="10" style="overflow:visible"><text transform="" x="1450" y="18" fill="#000" font-size="10" text-anchor="middle"><tspan x="1450" dy="0em">100%</tspan></text></svg></g><line class="visx-line visx-axis-line" x1="0.5" y1="0" x2="1450.5" y2="0" fill="transparent" shape-rendering="crispEdges" stroke="#222" stroke-width="0"></line></g><g class="visx-group visx-axis visx-axis-left" transform="translate(0, 0)"><g class="visx-group visx-axis-tick" transform="translate(0, 0)"><line class="visx-line" x1="0" y1="115" x2="-8" y2="115" fill="transparent" shape-rendering="crispEdges" stroke="#222" stroke-width="0" stroke-linecap="square"></line><svg x="-30" y="0" font-size="8" style="overflow:visible"><text transform="" x="-8" y="115" fill="#000" font-size="8" text-anchor="start"><tspan x="-8" dy="0em">0%</tspan></text></svg></g><g class="visx-group visx-axis-tick" transform="translate(0, 0)"><line class="visx-line" x1="0" y1="49.28571428571429" x2="-8" y2="49.28571428571429" fill="transparent" shape-rendering="crispEdges" stroke="#222" stroke-width="0" stroke-linecap="square"></line><svg x="-30" y="0" font-size="8" style="overflow:visible"><text transform="" x="-8" y="49.28571428571429" fill="#000" font-size="8" text-anchor="start"><tspan x="-8" dy="0em">200%</tspan></text></svg></g><line class="visx-line visx-axis-line" x1="0" y1="115.5" x2="0" y2="0.5" fill="transparent" shape-rendering="crispEdges" stroke="#222" stroke-width="0"></line></g><rect class="visx-bar" width="1450" height="115" fill="transparent"></rect><line class="visx-line" x1="652.5" y1="28" x2="652.5" y2="115" fill="transparent" shape-rendering="crispEdges" stroke="#0062D2" stroke-width="1" pointer-events="none" stroke-dasharray="5,2"></line><svg x="0" y="0" font-size="10px" style="overflow:visible"><text transform="" x="652.5" y="20" font-size="10px" fill="#fff" stroke="#fff" stroke-width="0.8em" text-anchor="middle"><tspan x="652.5" dy="0.355em">Optimal 45%</tspan></text></svg><svg x="0" y="0" font-size="10px" style="overflow:visible"><text transform="" x="652.5" y="20" font-size="10px" fill="#62677B" text-anchor="middle"><tspan x="652.5" dy="0.355em">Optimal 45%</tspan></text></svg></g></svg>