<?xml version="1.0"?><svg xmlns="http://www.w3.org/2000/svg" xmlns:xlink= "http://www.w3.org/1999/xlink" style="background: white;" width="1500" height="300"> <g style="color: black; font-size: 13px; font-family: sans-serif; transform: translate(18px, 25px);"><g><circle r="3" cx="-6" cy="-5" style="fill: #1AD4B3" /><text>Borrow APR, variable</text></g><g style="transform: translateX(150px);"><circle r="3" cx="-6" cy="-5" style="fill: #101423" /><text>Borrow APR, stable</text></g></g><g class="visx-group" transform="translate(45, 50)"><g class="visx-group visx-rows" transform="translate(0, 0)"><line class="visx-line" x1="0" y1="155" x2="1425" y2="155" fill="transparent" shape-rendering="crispEdges" stroke="#F2F0F9" stroke-width="1" pointer-events="none"></line><line class="visx-line" x1="0" y1="111.94444444444444" x2="1425" y2="111.94444444444444" fill="transparent" shape-rendering="crispEdges" stroke="#F2F0F9" stroke-width="1" pointer-events="none"></line><line class="visx-line" x1="0" y1="68.88888888888889" x2="1425" y2="68.88888888888889" fill="transparent" shape-rendering="crispEdges" stroke="#F2F0F9" stroke-width="1" pointer-events="none"></line><line class="visx-line" x1="0" y1="25.83333333333333" x2="1425" y2="25.83333333333333" fill="transparent" shape-rendering="crispEdges" stroke="#F2F0F9" stroke-width="1" pointer-events="none"></line></g><path class="visx-linepath" d="M0,154.99999999986582C2.375,154.9776334775552,4.75,154.95526695524458,7.125,154.93290043290042C9.5,154.91053391055627,11.875,154.88816738816737,14.25,154.86580086580085C16.625,154.84343434343432,19,154.82106782106783,21.375,154.7987012987013C23.75,154.77633477633478,26.125,154.75396825396825,28.5,154.73160173160173C30.875,154.7092352092352,33.25,154.6868686868687,35.625,154.66450216450218C38,154.64213564213566,40.375,154.61976911976913,42.75,154.5974025974026C45.125,154.57503607503608,47.50000000000001,154.55266955266956,49.87500000000001,154.53030303030303C52.25000000000001,154.5079365079365,54.625,154.48556998556998,57,154.46320346320346C59.375,154.44083694083693,61.75,154.41847041847043,64.125,154.3961038961039C66.5,154.37373737373738,68.875,154.35137085137086,71.25,154.32900432900433C73.625,154.3066378066378,76,154.28427128427128,78.375,154.26190476190476C80.75,154.23953823953823,83.125,154.2171717171717,85.5,154.19480519480518C87.875,154.17243867243866,90.25,154.15007215007216,92.625,154.12770562770564C95,154.1053391053391,97.37500000000001,154.0829725829726,99.75000000000001,154.06060606060606C102.12500000000001,154.03823953823954,104.5,154.01587301587304,106.875,153.99350649350652C109.25,153.97113997114,111.625,153.94877344877347,114,153.92640692640694C116.375,153.90404040404042,118.75000000000001,153.8816738816739,121.12500000000001,153.85930735930737C123.50000000000001,153.83694083694084,125.875,153.81457431457432,128.25,153.7922077922078C130.625,153.76984126984127,133,153.74747474747474,135.375,153.72510822510822C137.75,153.7027417027417,140.125,153.68037518037517,142.5,153.65800865800864C144.875,153.63564213564212,147.25,153.61327561327562,149.625,153.5909090909091C152,153.56854256854257,154.375,153.54617604617604,156.75,153.52380952380952C159.125,153.501443001443,161.5,153.4790764790765,163.875,153.45670995670997C166.25,153.43434343434345,168.625,153.41197691197692,171,153.3896103896104C173.375,153.36724386724387,175.75,153.34487734487735,178.125,153.32251082251082C180.5,153.3001443001443,182.875,153.27777777777777,185.25,153.25541125541125C187.625,153.23304473304472,190,153.21067821067822,192.375,153.1883116883117C194.75,153.16594516594517,197.12500000000003,153.14357864357865,199.50000000000003,153.12121212121212C201.875,153.0988455988456,204.25,153.07647907647907,206.62499999999997,153.05411255411255C208.99999999999997,153.03174603174602,211.375,153.0093795093795,213.75,152.98701298701297C216.125,152.96464646464645,218.5,152.94227994227995,220.875,152.91991341991343C223.25,152.8975468975469,225.625,152.87518037518038,228,152.85281385281385C230.375,152.83044733044733,232.75,152.80808080808083,235.125,152.7857142857143C237.5,152.76334776334778,239.87500000000003,152.74098124098126,242.25000000000003,152.71861471861473C244.625,152.6962481962482,247,152.67388167388168,249.37499999999997,152.65151515151516C251.74999999999997,152.62914862914863,254.125,152.6067821067821,256.5,152.58441558441558C258.875,152.56204906204906,261.25,152.53968253968253,263.625,152.517316017316C266,152.49494949494948,268.375,152.47258297258296,270.75,152.45021645021643C273.125,152.4278499278499,275.5,152.4054834054834,277.875,152.38311688311688C280.25,152.36075036075036,282.625,152.33838383838383,285,152.3160173160173C287.375,152.29365079365078,289.75,152.2712842712843,292.125,152.24891774891776C294.5,152.22655122655124,296.875,152.2041847041847,299.25,152.1818181818182C301.625,152.15945165945166,304,152.13708513708514,306.375,152.1147186147186C308.75,152.0923520923521,311.125,152.06998556998556,313.5,152.04761904761904C315.875,152.0252525252525,318.25,152.00288600288602,320.625,151.9805194805195C323,151.95815295815297,325.375,151.93578643578644,327.75,151.91341991341992C330.125,151.8910533910534,332.5,151.86868686868686,334.875,151.84632034632034C337.25,151.82395382395381,339.625,151.8015873015873,342,151.77922077922076C344.375,151.75685425685424,346.75,151.73448773448774,349.125,151.71212121212122C351.5,151.6897546897547,353.875,151.66738816738817,356.25,151.64502164502164C358.625,151.62265512265512,361,151.60028860028862,363.375,151.5779220779221C365.75,151.55555555555557,368.125,151.53318903318905,370.5,151.51082251082252C372.875,151.488455988456,375.25,151.46608946608947,377.625,151.44372294372295C380,151.42135642135642,382.375,151.3989898989899,384.75,151.37662337662337C387.125,151.35425685425685,389.50000000000006,151.33189033189032,391.87500000000006,151.3095238095238C394.25000000000006,151.28715728715727,396.62500000000006,151.26479076479077,399.00000000000006,151.24242424242425C401.375,151.22005772005772,403.75,151.1976911976912,406.12499999999994,151.17532467532467C408.49999999999994,151.15295815295815,410.87499999999994,151.13059163059162,413.24999999999994,151.1082251082251C415.62499999999994,151.08585858585857,418,151.06349206349208,420.375,151.04112554112555C422.75,151.01875901875903,425.125,150.9963924963925,427.5,150.97402597402598C429.875,150.95165945165945,432.25,150.92929292929293,434.625,150.9069264069264C437,150.88455988455988,439.375,150.86219336219335,441.75,150.83982683982683C444.125,150.8174603174603,446.5,150.7950937950938,448.875,150.77272727272728C451.25,150.75036075036076,453.625,150.72799422799423,456,150.7056277056277C458.375,150.68326118326118,460.75,150.66089466089466,463.125,150.63852813852813C465.5,150.6161616161616,467.875,150.5937950937951,470.25,150.57142857142858C472.625,150.54906204906206,475.00000000000006,150.52669552669553,477.37500000000006,150.504329004329C479.75000000000006,150.48196248196248,482.12500000000006,150.45959595959596,484.50000000000006,150.43722943722943C486.875,150.4148629148629,489.25,150.3924963924964,491.62499999999994,150.3701298701299C493.99999999999994,150.34776334776336,496.37499999999994,150.32539682539684,498.74999999999994,150.3030303030303C501.12499999999994,150.2806637806638,503.5,150.25829725829726,505.875,150.23593073593074C508.25,150.2135642135642,510.625,150.1911976911977,513,150.16883116883116C515.375,150.14646464646464,517.75,150.1240981240981,520.125,150.1017316017316C522.5,150.07936507936506,524.875,150.05699855699856,527.25,150.03463203463204C529.625,150.01226551226551,532,149.989898989899,534.375,149.96753246753246C536.75,149.94516594516594,539.125,149.92279942279944,541.5,149.90043290043292C543.875,149.8780663780664,546.25,149.85569985569987,548.625,149.83333333333334C551,149.81096681096682,553.375,149.7886002886003,555.75,149.76623376623377C558.125,149.74386724386724,560.5,149.72150072150072,562.875,149.6991341991342C565.25,149.67676767676767,567.625,149.65440115440114,570,149.63203463203462C572.375,149.6096681096681,574.75,149.5873015873016,577.125,149.56493506493507C579.5,149.54256854256855,581.875,149.52020202020202,584.25,149.4978354978355C586.625,149.47546897546897,589,149.45310245310245,591.375,149.43073593073592C593.75,149.4083694083694,596.125,149.3860028860029,598.5,149.36363636363637C600.875,149.34126984126985,603.25,149.31890331890332,605.625,149.2965367965368C608,149.27417027417027,610.375,149.25180375180375,612.75,149.22943722943722C615.125,149.2070707070707,617.5,149.1847041847042,619.875,149.16233766233768C622.25,149.13997113997115,624.625,149.11760461760463,627,149.0952380952381C629.375,149.07287157287158,631.75,149.05050505050505,634.125,149.02813852813853C636.5,149.005772005772,638.875,148.98340548340548,641.25,148.96103896103895C643.625,148.93867243867243,646,148.9163059163059,648.375,148.89393939393938C650.75,148.87157287157285,653.125,148.84920634920636,655.5,148.82683982683983C657.875,148.8044733044733,660.25,148.78210678210678,662.625,148.75974025974025C665,148.73737373737373,667.375,148.71500721500723,669.75,148.6926406926407C672.125,148.67027417027418,674.5,148.64790764790766,676.875,148.62554112554113C679.25,148.6031746031746,681.625,148.58080808080808,684,148.55844155844156C686.375,148.53607503607503,688.75,148.5137085137085,691.125,148.49134199134198C693.5,148.46897546897546,695.875,148.44660894660893,698.25,148.4242424242424C700.625,148.40187590187588,703,148.3795093795094,705.375,148.35714285714286C707.75,148.33477633477634,710.125,148.3124098124098,712.5,148.2900432900433C714.875,148.26767676767676,717.25,148.24531024531024,719.625,148.2229437229437C722,148.2005772005772,724.375,148.1782106782107,726.75,148.15584415584416C729.125,148.13347763347764,731.5,148.11111111111111,733.875,148.0887445887446C736.25,148.06637806637806,738.625,148.04401154401157,741,148.02164502164504C743.375,147.99927849927852,745.75,147.976911976912,748.125,147.95454545454547C750.5,147.93217893217894,752.875,147.90981240981242,755.25,147.8874458874459C757.625,147.86507936507937,760,147.84271284271284,762.375,147.82034632034632C764.75,147.7979797979798,767.125,147.77561327561327,769.5,147.75324675324674C771.875,147.73088023088022,774.2500000000001,147.7085137085137,776.6250000000001,147.68614718614717C779.0000000000001,147.66378066378064,781.3750000000001,147.64141414141415,783.7500000000001,147.61904761904762C786.1250000000001,147.5966810966811,788.5000000000001,147.57431457431457,790.8750000000001,147.55194805194805C793.2500000000001,147.52958152958152,795.6250000000001,147.50721500721502,798.0000000000001,147.4848484848485C800.375,147.46248196248197,802.75,147.44011544011545,805.1249999999999,147.41774891774892C807.4999999999999,147.3953823953824,809.8749999999999,147.37301587301587,812.2499999999999,147.35064935064935C814.6249999999999,147.32828282828282,816.9999999999999,147.3059163059163,819.3749999999999,147.28354978354977C821.7499999999999,147.26118326118325,824.1249999999999,147.23881673881672,826.4999999999999,147.2164502164502C828.8749999999999,147.19408369408367,831.25,147.17171717171718,833.625,147.14935064935065C836,147.12698412698413,838.375,147.1046176046176,840.75,147.08225108225108C843.125,147.05988455988455,845.5,147.03751803751803,847.875,147.0151515151515C850.25,146.99278499278498,852.625,146.97041847041848,855,146.94805194805195C857.375,146.92568542568543,859.75,146.9033189033189,862.125,146.88095238095238C864.5,146.85858585858585,866.875,146.83621933621936,869.25,146.81385281385283C871.625,146.7914862914863,874,146.76911976911978,876.375,146.74675324675326C878.75,146.72438672438673,881.125,146.7020202020202,883.5,146.67965367965368C885.875,146.65728715728716,888.25,146.63492063492063,890.625,146.6125541125541C893,146.59018759018758,895.375,146.56782106782106,897.75,146.54545454545453C900.125,146.523088023088,902.5,146.5007215007215,904.875,146.478354978355C907.25,146.45598845598846,909.625,146.43362193362194,912,146.4112554112554C914.375,146.38888888888889,916.75,146.3665223665224,919.125,146.34415584415586C921.5,146.32178932178934,923.875,146.2994227994228,926.25,146.2770562770563C928.625,146.25468975468976,931,146.23232323232324,933.375,146.2099567099567C935.75,146.1875901875902,938.125,146.16522366522366,940.5,146.14285714285714C942.875,146.1204906204906,945.25,146.0981240981241,947.625,146.07575757575756C950,146.05339105339104,952.3750000000001,146.0310245310245,954.7500000000001,146.008658008658C957.1250000000001,145.98629148629146,959.5000000000001,145.96392496392497,961.8750000000001,145.94155844155844C964.2500000000001,145.91919191919192,966.6250000000001,145.8968253968254,969.0000000000001,145.87445887445887C971.3750000000001,145.85209235209234,973.7500000000001,145.82972582972585,976.1250000000001,145.80735930735932C978.5,145.7849927849928,980.875,145.76262626262627,983.2499999999999,145.74025974025975C985.6249999999999,145.71789321789322,987.9999999999999,145.6955266955267,990.3749999999999,145.67316017316017C992.7499999999999,145.65079365079364,995.1249999999999,145.62842712842715,997.4999999999999,145.60606060606062C999.8749999999999,145.5836940836941,1002.2499999999999,145.56132756132757,1004.6249999999999,145.53896103896105C1006.9999999999999,145.51659451659452,1009.375,145.494227994228,1011.75,145.47186147186147C1014.125,145.44949494949495,1016.5,145.42712842712842,1018.875,145.4047619047619C1021.25,145.38239538239537,1023.625,145.36002886002885,1026,145.33766233766232C1028.375,145.3152958152958,1030.75,145.2929292929293,1033.125,145.27056277056278C1035.5,145.24819624819625,1037.875,145.22582972582973,1040.25,145.2034632034632C1042.625,145.18109668109668,1045,145.15873015873018,1047.375,145.13636363636365C1049.75,145.11399711399713,1052.125,145.0916305916306,1054.5,145.06926406926408C1056.875,145.04689754689755,1059.25,145.02453102453103,1061.625,145.0021645021645C1064,144.97979797979798,1066.375,144.95743145743145,1068.75,144.93506493506493C1071.125,144.9126984126984,1073.5,144.89033189033188,1075.875,144.86796536796535C1078.25,144.84559884559883,1080.625,144.82323232323233,1083,144.8008658008658C1085.375,144.77849927849928,1087.75,144.75613275613276,1090.125,144.73376623376623C1092.5,144.7113997113997,1094.875,144.7113997113997,1097.25,144.66666666666666C1099.625,144.6219336219336,1102,142.99436392914654,1104.375,142.1582125603865C1106.75,141.32206119162643,1109.125,140.48590982286635,1111.5,139.6497584541063C1113.875,138.81360708534623,1116.25,137.97745571658615,1118.625,137.1413043478261C1121,136.30515297906604,1123.375,135.46900161030595,1125.75,134.6328502415459C1128.125,133.79669887278584,1130.5,132.96054750402575,1132.875,132.1243961352657C1135.25,131.28824476650564,1137.625,130.45209339774556,1140,129.6159420289855C1142.375,128.77979066022544,1144.75,127.94363929146539,1147.125,127.10748792270532C1149.5,126.27133655394525,1151.875,125.43518518518519,1154.25,124.59903381642512C1156.625,123.76288244766505,1159,122.926731078905,1161.375,122.09057971014492C1163.75,121.25442834138485,1166.125,120.4182769726248,1168.5,119.58212560386472C1170.875,118.74597423510465,1173.25,117.9098228663446,1175.625,117.07367149758453C1178,116.23752012882446,1180.375,115.4013687600644,1182.75,114.56521739130434C1185.125,113.72906602254429,1187.5,112.89291465378423,1189.875,112.05676328502416C1192.25,111.22061191626409,1194.625,110.384460547504,1197,109.54830917874395C1199.375,108.71215780998389,1201.75,107.87600644122384,1204.125,107.03985507246378C1206.5,106.20370370370372,1208.875,105.36755233494364,1211.25,104.53140096618357C1213.625,103.6952495974235,1216,102.85909822866346,1218.375,102.02294685990339C1220.75,101.18679549114331,1223.125,100.35064412238324,1225.5,99.51449275362317C1227.875,98.6783413848631,1230.25,97.84219001610306,1232.625,97.006038647343C1235,96.16988727858295,1237.375,95.33373590982288,1239.75,94.4975845410628C1242.125,93.66143317230274,1244.5,92.82528180354268,1246.875,91.98913043478261C1249.25,91.15297906602254,1251.625,90.31682769726245,1254,89.4806763285024C1256.375,88.64452495974234,1258.75,87.80837359098228,1261.125,86.97222222222223C1263.5,86.13607085346217,1265.875,85.2999194847021,1268.25,84.46376811594203C1270.625,83.62761674718196,1273,82.7914653784219,1275.375,81.95531400966183C1277.75,81.11916264090176,1280.125,80.28301127214169,1282.5,79.44685990338164C1284.875,78.61070853462158,1287.25,77.77455716586152,1289.625,76.93840579710147C1292,76.10225442834141,1294.375,75.26610305958133,1296.75,74.42995169082126C1299.125,73.59380032206118,1301.5,72.75764895330111,1303.875,71.92149758454106C1306.25,71.085346215781,1308.625,70.24919484702096,1311,69.41304347826089C1313.375,68.57689210950082,1315.75,67.74074074074075,1318.125,66.90458937198068C1320.5,66.0684380032206,1322.875,65.23228663446056,1325.25,64.3961352657005C1327.625,63.55998389694043,1330,62.72383252818036,1332.375,61.887681159420296C1334.75,61.05152979066023,1337.125,60.21537842190017,1339.5,59.379227053140106C1341.875,58.54307568438004,1344.25,57.70692431561996,1346.625,56.870772946859894C1349,56.03462157809983,1351.375,55.19847020933977,1353.75,54.362318840579704C1356.125,53.52616747181964,1358.5,52.69001610305957,1360.875,51.853864734299506C1363.25,51.01771336553944,1365.625,50.181561996779394,1368,49.34541062801933C1370.375,48.50925925925927,1372.75,47.67310789049918,1375.125,46.83695652173912C1377.5,46.000805152979055,1379.875,45.164653784219006,1382.25,44.32850241545894C1384.625,43.49235104669888,1387,42.656199677938815,1389.375,41.820048309178745C1391.75,40.983896940418674,1394.125,40.147745571658604,1396.5,39.31159420289853C1398.875,38.47544283413846,1401.25,37.639291465378406,1403.625,36.80314009661834C1406,35.96698872785828,1408.375,35.13083735909823,1410.75,34.29468599033817C1413.125,33.4585346215781,1415.5,32.62238325281804,1417.875,31.786231884057973C1420.25,30.95008051529791,1422.625,30.113929146537842,1425,29.27777777777778" fill="transparent" stroke-linecap="round" stroke="#1AD4B3" stroke-width="2"></path><g class="visx-group visx-axis visx-axis-bottom" transform="translate(0, 155)"><g class="visx-group visx-axis-tick" transform="translate(0, 0)"><line class="visx-line" x1="0" y1="0" x2="0" y2="8" fill="transparent" shape-rendering="crispEdges" stroke="#F2F0F9" stroke-width="1" stroke-linecap="square"></line><svg x="0" y="0" font-size="11" style="overflow:visible"><text transform="" x="0" y="19" fill="#1B2030" font-size="11" text-anchor="middle"><tspan x="0" dy="0em">0%</tspan></text></svg></g><g class="visx-group visx-axis-tick" transform="translate(0, 0)"><line class="visx-line" x1="356.25" y1="0" x2="356.25" y2="8" fill="transparent" shape-rendering="crispEdges" stroke="#F2F0F9" stroke-width="1" stroke-linecap="square"></line><svg x="0" y="0" font-size="11" style="overflow:visible"><text transform="" x="356.25" y="19" fill="#1B2030" font-size="11" text-anchor="middle"><tspan x="356.25" dy="0em">25%</tspan></text></svg></g><g class="visx-group visx-axis-tick" transform="translate(0, 0)"><line class="visx-line" x1="712.5" y1="0" x2="712.5" y2="8" fill="transparent" shape-rendering="crispEdges" stroke="#F2F0F9" stroke-width="1" stroke-linecap="square"></line><svg x="0" y="0" font-size="11" style="overflow:visible"><text transform="" x="712.5" y="19" fill="#1B2030" font-size="11" text-anchor="middle"><tspan x="712.5" dy="0em">50%</tspan></text></svg></g><g class="visx-group visx-axis-tick" transform="translate(0, 0)"><line class="visx-line" x1="1068.75" y1="0" x2="1068.75" y2="8" fill="transparent" shape-rendering="crispEdges" stroke="#F2F0F9" stroke-width="1" stroke-linecap="square"></line><svg x="0" y="0" font-size="11" style="overflow:visible"><text transform="" x="1068.75" y="19" fill="#1B2030" font-size="11" text-anchor="middle"><tspan x="1068.75" dy="0em">75%</tspan></text></svg></g><g class="visx-group visx-axis-tick" transform="translate(0, 0)"><line class="visx-line" x1="1425" y1="0" x2="1425" y2="8" fill="transparent" shape-rendering="crispEdges" stroke="#F2F0F9" stroke-width="1" stroke-linecap="square"></line><svg x="0" y="0" font-size="11" style="overflow:visible"><text transform="" x="1425" y="19" fill="#1B2030" font-size="11" text-anchor="middle"><tspan x="1425" dy="0em">100%</tspan></text></svg></g></g><g class="visx-group visx-axis visx-axis-left" transform="translate(0, 0)"><g class="visx-group visx-axis-tick" transform="translate(0, 0)"><line class="visx-line" x1="0" y1="155" x2="-8" y2="155" fill="transparent" shape-rendering="crispEdges" stroke="#F2F0F9" stroke-width="1" stroke-linecap="square"></line><svg x="-30" y="0" font-size="11" style="overflow:visible"><text transform="" x="-8" y="155" fill="#1B2030" font-size="11" text-anchor="start"><tspan x="-8" dy="0em">0%</tspan></text></svg></g><g class="visx-group visx-axis-tick" transform="translate(0, 0)"><line class="visx-line" x1="0" y1="111.94444444444444" x2="-8" y2="111.94444444444444" fill="transparent" shape-rendering="crispEdges" stroke="#F2F0F9" stroke-width="1" stroke-linecap="square"></line><svg x="-30" y="0" font-size="11" style="overflow:visible"><text transform="" x="-8" y="111.94444444444444" fill="#1B2030" font-size="11" text-anchor="start"><tspan x="-8" dy="0em">50%</tspan></text></svg></g><g class="visx-group visx-axis-tick" transform="translate(0, 0)"><line class="visx-line" x1="0" y1="68.88888888888889" x2="-8" y2="68.88888888888889" fill="transparent" shape-rendering="crispEdges" stroke="#F2F0F9" stroke-width="1" stroke-linecap="square"></line><svg x="-30" y="0" font-size="11" style="overflow:visible"><text transform="" x="-8" y="68.88888888888889" fill="#1B2030" font-size="11" text-anchor="start"><tspan x="-8" dy="0em">100%</tspan></text></svg></g><g class="visx-group visx-axis-tick" transform="translate(0, 0)"><line class="visx-line" x1="0" y1="25.83333333333333" x2="-8" y2="25.83333333333333" fill="transparent" shape-rendering="crispEdges" stroke="#F2F0F9" stroke-width="1" stroke-linecap="square"></line><svg x="-30" y="0" font-size="11" style="overflow:visible"><text transform="" x="-8" y="25.83333333333333" fill="#1B2030" font-size="11" text-anchor="start"><tspan x="-8" dy="0em">150%</tspan></text></svg></g><line class="visx-line visx-axis-line" x1="0" y1="155.5" x2="0" y2="0.5" fill="transparent" shape-rendering="crispEdges" stroke="#F2F0F9" stroke-width="1"></line></g><rect class="visx-bar" width="1425" height="155" fill="transparent"></rect><line class="visx-line" x1="1097.25" y1="58" x2="1097.25" y2="155" fill="transparent" shape-rendering="crispEdges" stroke="#CDC8E1" stroke-width="1" pointer-events="none" stroke-dasharray="5"></line><svg x="0" y="0" font-size="11px" style="overflow:visible"><text transform="" x="1097.25" y="50" font-size="11px" fill="#555069" stroke="#FFFFFF" stroke-width="1px" text-anchor="middle"><tspan x="1097.25" dy="0.355em">uOptimal 77%</tspan></text></svg><svg x="0" y="0" font-size="11px" style="overflow:visible"><text transform="" x="1097.25" y="50" font-size="11px" fill="#CDC8E1" text-anchor="middle"><tspan x="1097.25" dy="0.355em">uOptimal 77%</tspan></text></svg></g></svg>