<?xml version="1.0"?><svg xmlns="http://www.w3.org/2000/svg" xmlns:xlink= "http://www.w3.org/1999/xlink" style="background: white;" width="1500" height="300"> <g style="color: black; font-size: 13px; font-family: sans-serif; transform: translate(18px, 25px);"><g><circle r="3" cx="-6" cy="-5" style="fill: #1AD4B3" /><text>Borrow APR, variable</text></g><g style="transform: translateX(150px);"><circle r="3" cx="-6" cy="-5" style="fill: #101423" /><text>Borrow APR, stable</text></g></g><g class="visx-group" transform="translate(45, 50)"><g class="visx-group visx-rows" transform="translate(0, 0)"><line class="visx-line" x1="0" y1="155" x2="1425" y2="155" fill="transparent" shape-rendering="crispEdges" stroke="#F2F0F9" stroke-width="1" pointer-events="none"></line><line class="visx-line" x1="0" y1="90.41666666666666" x2="1425" y2="90.41666666666666" fill="transparent" shape-rendering="crispEdges" stroke="#F2F0F9" stroke-width="1" pointer-events="none"></line><line class="visx-line" x1="0" y1="25.83333333333333" x2="1425" y2="25.83333333333333" fill="transparent" shape-rendering="crispEdges" stroke="#F2F0F9" stroke-width="1" pointer-events="none"></line></g><path class="visx-linepath" d="M0,154.9999999999112C2.375,154.98519965272598,4.75,154.97039930554075,7.125,154.95559895833333C9.5,154.9407986111259,11.875,154.92599826388886,14.25,154.91119791666665C16.625,154.89639756944445,19,154.88159722222224,21.375,154.866796875C23.75,154.85199652777777,26.125,154.83719618055557,28.5,154.82239583333333C30.875,154.8075954861111,33.25,154.7927951388889,35.625,154.77799479166666C38,154.76319444444442,40.375,154.74839409722222,42.75,154.73359375C45.125,154.71879340277778,47.50000000000001,154.70399305555557,49.87500000000001,154.68919270833334C52.25000000000001,154.6743923611111,54.625,154.6595920138889,57,154.64479166666666C59.375,154.62999131944443,61.75,154.6151909722222,64.125,154.600390625C66.5,154.58559027777778,68.875,154.57078993055558,71.25,154.55598958333334C73.625,154.5411892361111,76,154.5263888888889,78.375,154.51158854166667C80.75,154.49678819444443,83.125,154.48198784722223,85.5,154.4671875C87.875,154.45238715277776,90.25,154.43758680555553,92.625,154.42278645833332C95,154.4079861111111,97.37500000000001,154.3931857638889,99.75000000000001,154.37838541666667C102.12500000000001,154.36358506944447,104.5,154.34878472222223,106.875,154.333984375C109.25,154.31918402777777,111.625,154.30438368055556,114,154.28958333333333C116.375,154.2747829861111,118.75000000000001,154.25998263888889,121.12500000000001,154.24518229166665C123.50000000000001,154.23038194444445,125.875,154.2155815972222,128.25,154.20078125C130.625,154.18598090277777,133,154.17118055555557,135.375,154.15638020833333C137.75,154.1415798611111,140.125,154.1267795138889,142.5,154.11197916666666C144.875,154.09717881944442,147.25,154.08237847222222,149.625,154.067578125C152,154.0527777777778,154.375,154.03797743055557,156.75,154.02317708333334C159.125,154.0083767361111,161.5,153.99357638888887,163.875,153.97877604166666C166.25,153.96397569444446,168.625,153.94917534722225,171,153.93437500000002C173.375,153.91957465277778,175.75,153.90477430555555,178.125,153.88997395833331C180.5,153.87517361111108,182.875,153.8603732638889,185.25,153.84557291666667C187.625,153.83077256944443,190,153.81597222222223,192.375,153.801171875C194.75,153.78637152777776,197.12500000000003,153.77157118055555,199.50000000000003,153.75677083333332C201.875,153.74197048611111,204.25,153.72717013888888,206.62499999999997,153.71236979166667C208.99999999999997,153.69756944444444,211.375,153.68276909722223,213.75,153.66796875C216.125,153.65316840277777,218.5,153.63836805555553,220.875,153.62356770833333C223.25,153.60876736111112,225.625,153.5939670138889,228,153.57916666666668C230.375,153.56436631944445,232.75,153.54956597222224,235.125,153.534765625C237.5,153.51996527777777,239.87500000000003,153.50516493055557,242.25000000000003,153.49036458333333C244.625,153.4755642361111,247,153.46076388888886,249.37499999999997,153.44596354166666C251.74999999999997,153.43116319444442,254.125,153.41636284722225,256.5,153.4015625C258.875,153.3867621527778,261.25,153.37196180555557,263.625,153.35716145833334C266,153.3423611111111,268.375,153.3275607638889,270.75,153.31276041666666C273.125,153.29796006944443,275.5,153.2831597222222,277.875,153.268359375C280.25,153.25355902777778,282.625,153.23875868055558,285,153.22395833333334C287.375,153.2091579861111,289.75,153.1943576388889,292.125,153.17955729166667C294.5,153.16475694444443,296.875,153.14995659722223,299.25,153.13515625C301.625,153.12035590277776,304,153.10555555555555,306.375,153.09075520833332C308.75,153.0759548611111,311.125,153.06115451388888,313.5,153.04635416666667C315.875,153.03155381944447,318.25,153.01675347222223,320.625,153.001953125C323,152.98715277777777,325.375,152.97235243055553,327.75,152.95755208333333C330.125,152.94275173611112,332.5,152.9279513888889,334.875,152.91315104166668C337.25,152.89835069444445,339.625,152.88355034722224,342,152.86875C344.375,152.85394965277777,346.75,152.83914930555557,349.125,152.82434895833333C351.5,152.8095486111111,353.875,152.79474826388892,356.25,152.77994791666669C358.625,152.76514756944445,361,152.75034722222222,363.375,152.73554687499998C365.75,152.72074652777775,368.125,152.70594618055554,370.5,152.69114583333334C372.875,152.67634548611113,375.25,152.6615451388889,377.625,152.64674479166666C380,152.63194444444443,382.375,152.6171440972222,384.75,152.60234375C387.125,152.58754340277775,389.50000000000006,152.57274305555558,391.87500000000006,152.55794270833334C394.25000000000006,152.54314236111114,396.62500000000006,152.5283420138889,399.00000000000006,152.51354166666667C401.375,152.49874131944443,403.75,152.4839409722222,406.12499999999994,152.469140625C408.49999999999994,152.45434027777776,410.87499999999994,152.43953993055555,413.24999999999994,152.42473958333335C415.62499999999994,152.40993923611111,418,152.3951388888889,420.375,152.38033854166667C422.75,152.36553819444444,425.125,152.35073784722223,427.5,152.3359375C429.875,152.32113715277777,432.25,152.30633680555556,434.625,152.29153645833333C437,152.2767361111111,439.375,152.26193576388886,441.75,152.24713541666665C444.125,152.23233506944445,446.5,152.21753472222224,448.875,152.202734375C451.25,152.18793402777777,453.625,152.17313368055557,456,152.15833333333333C458.375,152.1435329861111,460.75,152.1287326388889,463.125,152.11393229166666C465.5,152.09913194444442,467.875,152.08433159722222,470.25,152.06953125C472.625,152.05473090277778,475.00000000000006,152.03993055555557,477.37500000000006,152.02513020833334C479.75000000000006,152.0103298611111,482.12500000000006,151.9955295138889,484.50000000000006,151.98072916666666C486.875,151.96592881944443,489.25,151.9511284722222,491.62499999999994,151.936328125C493.99999999999994,151.92152777777775,496.37499999999994,151.90672743055555,498.74999999999994,151.89192708333334C501.12499999999994,151.8771267361111,503.5,151.8623263888889,505.875,151.84752604166667C508.25,151.83272569444443,510.625,151.81792534722223,513,151.803125C515.375,151.78832465277776,517.75,151.77352430555555,520.125,151.75872395833335C522.5,151.74392361111114,524.875,151.7291232638889,527.25,151.71432291666667C529.625,151.69952256944444,532,151.68472222222223,534.375,151.669921875C536.75,151.65512152777777,539.125,151.64032118055556,541.5,151.62552083333333C543.875,151.6107204861111,546.25,151.59592013888886,548.625,151.58111979166665C551,151.56631944444445,553.375,151.55151909722224,555.75,151.53671875C558.125,151.52191840277777,560.5,151.50711805555557,562.875,151.49231770833333C565.25,151.4775173611111,567.625,151.4627170138889,570,151.44791666666666C572.375,151.43311631944442,574.75,151.41831597222222,577.125,151.403515625C579.5,151.3887152777778,581.875,151.37391493055557,584.25,151.35911458333334C586.625,151.3443142361111,589,151.3295138888889,591.375,151.31471354166666C593.75,151.29991319444443,596.125,151.2851128472222,598.5,151.2703125C600.875,151.25551215277778,603.25,151.24071180555558,605.625,151.22591145833334C608,151.2111111111111,610.375,151.1963107638889,612.75,151.18151041666667C615.125,151.16671006944443,617.5,151.15190972222223,619.875,151.137109375C622.25,151.12230902777776,624.625,151.10750868055555,627,151.09270833333335C629.375,151.07790798611114,631.75,151.0631076388889,634.125,151.04830729166667C636.5,151.03350694444444,638.875,151.01870659722223,641.25,151.00390625C643.625,150.98910590277777,646,150.97430555555556,648.375,150.95950520833333C650.75,150.9447048611111,653.125,150.92990451388886,655.5,150.91510416666665C657.875,150.90030381944445,660.25,150.88550347222224,662.625,150.870703125C665,150.85590277777777,667.375,150.84110243055557,669.75,150.82630208333333C672.125,150.8115017361111,674.5,150.7967013888889,676.875,150.78190104166666C679.25,150.76710069444442,681.625,150.75230034722222,684,150.7375C686.375,150.7226996527778,688.75,150.70789930555557,691.125,150.69309895833334C693.5,150.6782986111111,695.875,150.66349826388887,698.25,150.64869791666666C700.625,150.63389756944446,703,150.61909722222225,705.375,150.60429687500002C707.75,150.58949652777778,710.125,150.57469618055555,712.5,150.55989583333331C714.875,150.54509548611108,717.25,150.5302951388889,719.625,150.51549479166667C722,150.50069444444443,724.375,150.48589409722223,726.75,150.47109375C729.125,150.45629340277776,731.5,150.44149305555555,733.875,150.42669270833332C736.25,150.4118923611111,738.625,150.39709201388888,741,150.38229166666667C743.375,150.36749131944447,745.75,150.35269097222223,748.125,150.337890625C750.5,150.32309027777777,752.875,150.30828993055553,755.25,150.29348958333333C757.625,150.27868923611112,760,150.2638888888889,762.375,150.24908854166668C764.75,150.23428819444445,767.125,150.21948784722224,769.5,150.2046875C771.875,150.18988715277777,774.2500000000001,150.17508680555557,776.6250000000001,150.16028645833333C779.0000000000001,150.1454861111111,781.3750000000001,150.1306857638889,783.7500000000001,150.11588541666666C786.1250000000001,150.10108506944442,788.5000000000001,150.08628472222222,790.8750000000001,150.071484375C793.2500000000001,150.0566840277778,795.6250000000001,150.04188368055557,798.0000000000001,150.02708333333334C800.375,150.0122829861111,802.75,149.9974826388889,805.1249999999999,149.98268229166666C807.4999999999999,149.96788194444443,809.8749999999999,149.9530815972222,812.2499999999999,149.93828125C814.6249999999999,149.92348090277778,816.9999999999999,149.90868055555558,819.3749999999999,149.89388020833334C821.7499999999999,149.8790798611111,824.1249999999999,149.8642795138889,826.4999999999999,149.84947916666667C828.8749999999999,149.83467881944443,831.25,149.81987847222223,833.625,149.805078125C836,149.79027777777776,838.375,149.77547743055555,840.75,149.76067708333332C843.125,149.7458767361111,845.5,149.73107638888888,847.875,149.71627604166667C850.25,149.70147569444447,852.625,149.68667534722223,855,149.671875C857.375,149.65707465277777,859.75,149.64227430555553,862.125,149.62747395833333C864.5,149.61267361111112,866.875,149.5978732638889,869.25,149.58307291666668C871.625,149.56827256944445,874,149.55347222222224,876.375,149.538671875C878.75,149.52387152777777,881.125,149.50907118055557,883.5,149.49427083333333C885.875,149.4794704861111,888.25,149.46467013888892,890.625,149.44986979166669C893,149.43506944444445,895.375,149.42026909722222,897.75,149.40546874999998C900.125,149.39066840277775,902.5,149.37586805555554,904.875,149.36106770833334C907.25,149.34626736111113,909.625,149.3314670138889,912,149.31666666666666C914.375,149.30186631944443,916.75,149.2870659722222,919.125,149.272265625C921.5,149.25746527777778,923.875,149.24266493055558,926.25,149.22786458333334C928.625,149.2130642361111,931,149.1982638888889,933.375,149.18346354166667C935.75,149.16866319444443,938.125,149.15386284722223,940.5,149.1390625C942.875,149.12426215277776,945.25,149.10946180555555,947.625,149.09466145833335C950,149.07986111111111,952.3750000000001,149.0650607638889,954.7500000000001,149.05026041666667C957.1250000000001,149.03546006944444,959.5000000000001,149.02065972222223,961.8750000000001,149.005859375C964.2500000000001,148.99105902777777,966.6250000000001,148.97625868055553,969.0000000000001,148.96145833333333C971.3750000000001,148.94665798611112,973.7500000000001,148.9318576388889,976.1250000000001,148.91705729166668C978.5,148.90225694444447,980.875,148.88745659722224,983.2499999999999,148.87265625C985.6249999999999,148.85785590277777,987.9999999999999,148.84305555555557,990.3749999999999,148.82825520833333C992.7499999999999,148.8134548611111,995.1249999999999,148.7986545138889,997.4999999999999,148.78385416666666C999.8749999999999,148.76905381944442,1002.2499999999999,148.75425347222222,1004.6249999999999,148.739453125C1006.9999999999999,148.72465277777778,1009.375,148.70985243055557,1011.75,148.69505208333334C1014.125,148.6802517361111,1016.5,148.6654513888889,1018.875,148.65065104166666C1021.25,148.63585069444443,1023.625,148.6210503472222,1026,148.60625C1028.375,148.59144965277778,1030.75,148.57664930555558,1033.125,148.56184895833334C1035.5,148.5470486111111,1037.875,148.5322482638889,1040.25,148.51744791666667C1042.625,148.50264756944443,1045,148.48784722222223,1047.375,148.473046875C1049.75,148.45824652777776,1052.125,148.44344618055555,1054.5,148.42864583333335C1056.875,148.41384548611114,1059.25,148.3990451388889,1061.625,148.38424479166667C1064,148.36944444444444,1066.375,148.35464409722223,1068.75,148.33984375C1071.125,148.32504340277777,1073.5,148.31024305555556,1075.875,148.29544270833333C1078.25,148.2806423611111,1080.625,148.26584201388886,1083,148.25104166666665C1085.375,148.23624131944445,1087.75,148.22144097222224,1090.125,148.206640625C1092.5,148.19184027777777,1094.875,148.17703993055557,1097.25,148.16223958333333C1099.625,148.1474392361111,1102,148.1326388888889,1104.375,148.11783854166666C1106.75,148.10303819444442,1109.125,148.08823784722222,1111.5,148.0734375C1113.875,148.0586371527778,1116.25,148.04383680555557,1118.625,148.02903645833334C1121,148.0142361111111,1123.375,147.9994357638889,1125.75,147.98463541666666C1128.125,147.96983506944443,1130.5,147.9550347222222,1132.875,147.940234375C1135.25,147.92543402777778,1137.625,147.92543402777778,1140,147.89583333333334C1142.375,147.8662326388889,1144.75,145.74305555555554,1147.125,144.66666666666666C1149.5,143.59027777777777,1151.875,142.51388888888889,1154.25,141.4375C1156.625,140.36111111111111,1159,139.2847222222222,1161.375,138.20833333333331C1163.75,137.13194444444443,1166.125,136.05555555555554,1168.5,134.97916666666666C1170.875,133.90277777777777,1173.25,132.82638888888889,1175.625,131.75C1178,130.67361111111111,1180.375,129.5972222222222,1182.75,128.52083333333331C1185.125,127.44444444444443,1187.5,126.36805555555556,1189.875,125.29166666666667C1192.25,124.21527777777779,1194.625,123.13888888888889,1197,122.0625C1199.375,120.98611111111111,1201.75,119.90972222222221,1204.125,118.83333333333333C1206.5,117.75694444444444,1208.875,116.68055555555556,1211.25,115.60416666666667C1213.625,114.52777777777779,1216,113.45138888888889,1218.375,112.375C1220.75,111.29861111111111,1223.125,110.22222222222221,1225.5,109.14583333333333C1227.875,108.06944444444444,1230.25,106.99305555555556,1232.625,105.91666666666667C1235,104.84027777777779,1237.375,103.76388888888889,1239.75,102.6875C1242.125,101.61111111111111,1244.5,100.53472222222221,1246.875,99.45833333333333C1249.25,98.38194444444444,1251.625,97.30555555555556,1254,96.22916666666667C1256.375,95.15277777777779,1258.75,94.07638888888889,1261.125,93C1263.5,91.92361111111111,1265.875,90.84722222222221,1268.25,89.77083333333333C1270.625,88.69444444444444,1273,87.61805555555556,1275.375,86.54166666666667C1277.75,85.46527777777779,1280.125,84.38888888888887,1282.5,83.31249999999999C1284.875,82.2361111111111,1287.25,81.15972222222223,1289.625,80.08333333333334C1292,79.00694444444446,1294.375,77.93055555555556,1296.75,76.85416666666667C1299.125,75.77777777777779,1301.5,74.70138888888889,1303.875,73.625C1306.25,72.54861111111111,1308.625,71.47222222222223,1311,70.39583333333334C1313.375,69.31944444444446,1315.75,68.24305555555556,1318.125,67.16666666666667C1320.5,66.09027777777779,1322.875,65.01388888888889,1325.25,63.9375C1327.625,62.861111111111114,1330,61.78472222222223,1332.375,60.70833333333334C1334.75,59.63194444444446,1337.125,58.555555555555564,1339.5,57.47916666666667C1341.875,56.40277777777778,1344.25,55.326388888888886,1346.625,54.25C1349,53.173611111111114,1351.375,52.09722222222223,1353.75,51.02083333333334C1356.125,49.94444444444446,1358.5,48.868055555555564,1360.875,47.79166666666667C1363.25,46.71527777777778,1365.625,45.638888888888886,1368,44.5625C1370.375,43.486111111111114,1372.75,42.40972222222223,1375.125,41.33333333333334C1377.5,40.25694444444446,1379.875,39.180555555555564,1382.25,38.10416666666667C1384.625,37.02777777777778,1387,35.951388888888886,1389.375,34.875C1391.75,33.798611111111114,1394.125,32.72222222222223,1396.5,31.645833333333343C1398.875,30.569444444444454,1401.25,29.493055555555557,1403.625,28.416666666666668C1406,27.34027777777778,1408.375,26.2638888888889,1410.75,25.187500000000014C1413.125,24.11111111111113,1415.5,23.034722222222236,1417.875,21.958333333333343C1420.25,20.88194444444445,1422.625,19.80555555555556,1425,18.729166666666668" fill="transparent" stroke-linecap="round" stroke="#1AD4B3" stroke-width="2"></path><g class="visx-group visx-axis visx-axis-bottom" transform="translate(0, 155)"><g class="visx-group visx-axis-tick" transform="translate(0, 0)"><line class="visx-line" x1="0" y1="0" x2="0" y2="8" fill="transparent" shape-rendering="crispEdges" stroke="#F2F0F9" stroke-width="1" stroke-linecap="square"></line><svg x="0" y="0" font-size="11" style="overflow:visible"><text transform="" x="0" y="19" fill="#1B2030" font-size="11" text-anchor="middle"><tspan x="0" dy="0em">0%</tspan></text></svg></g><g class="visx-group visx-axis-tick" transform="translate(0, 0)"><line class="visx-line" x1="356.25" y1="0" x2="356.25" y2="8" fill="transparent" shape-rendering="crispEdges" stroke="#F2F0F9" stroke-width="1" stroke-linecap="square"></line><svg x="0" y="0" font-size="11" style="overflow:visible"><text transform="" x="356.25" y="19" fill="#1B2030" font-size="11" text-anchor="middle"><tspan x="356.25" dy="0em">25%</tspan></text></svg></g><g class="visx-group visx-axis-tick" transform="translate(0, 0)"><line class="visx-line" x1="712.5" y1="0" x2="712.5" y2="8" fill="transparent" shape-rendering="crispEdges" stroke="#F2F0F9" stroke-width="1" stroke-linecap="square"></line><svg x="0" y="0" font-size="11" style="overflow:visible"><text transform="" x="712.5" y="19" fill="#1B2030" font-size="11" text-anchor="middle"><tspan x="712.5" dy="0em">50%</tspan></text></svg></g><g class="visx-group visx-axis-tick" transform="translate(0, 0)"><line class="visx-line" x1="1068.75" y1="0" x2="1068.75" y2="8" fill="transparent" shape-rendering="crispEdges" stroke="#F2F0F9" stroke-width="1" stroke-linecap="square"></line><svg x="0" y="0" font-size="11" style="overflow:visible"><text transform="" x="1068.75" y="19" fill="#1B2030" font-size="11" text-anchor="middle"><tspan x="1068.75" dy="0em">75%</tspan></text></svg></g><g class="visx-group visx-axis-tick" transform="translate(0, 0)"><line class="visx-line" x1="1425" y1="0" x2="1425" y2="8" fill="transparent" shape-rendering="crispEdges" stroke="#F2F0F9" stroke-width="1" stroke-linecap="square"></line><svg x="0" y="0" font-size="11" style="overflow:visible"><text transform="" x="1425" y="19" fill="#1B2030" font-size="11" text-anchor="middle"><tspan x="1425" dy="0em">100%</tspan></text></svg></g></g><g class="visx-group visx-axis visx-axis-left" transform="translate(0, 0)"><g class="visx-group visx-axis-tick" transform="translate(0, 0)"><line class="visx-line" x1="0" y1="155" x2="-8" y2="155" fill="transparent" shape-rendering="crispEdges" stroke="#F2F0F9" stroke-width="1" stroke-linecap="square"></line><svg x="-30" y="0" font-size="11" style="overflow:visible"><text transform="" x="-8" y="155" fill="#1B2030" font-size="11" text-anchor="start"><tspan x="-8" dy="0em">0%</tspan></text></svg></g><g class="visx-group visx-axis-tick" transform="translate(0, 0)"><line class="visx-line" x1="0" y1="90.41666666666666" x2="-8" y2="90.41666666666666" fill="transparent" shape-rendering="crispEdges" stroke="#F2F0F9" stroke-width="1" stroke-linecap="square"></line><svg x="-30" y="0" font-size="11" style="overflow:visible"><text transform="" x="-8" y="90.41666666666666" fill="#1B2030" font-size="11" text-anchor="start"><tspan x="-8" dy="0em">50%</tspan></text></svg></g><g class="visx-group visx-axis-tick" transform="translate(0, 0)"><line class="visx-line" x1="0" y1="25.83333333333333" x2="-8" y2="25.83333333333333" fill="transparent" shape-rendering="crispEdges" stroke="#F2F0F9" stroke-width="1" stroke-linecap="square"></line><svg x="-30" y="0" font-size="11" style="overflow:visible"><text transform="" x="-8" y="25.83333333333333" fill="#1B2030" font-size="11" text-anchor="start"><tspan x="-8" dy="0em">100%</tspan></text></svg></g><line class="visx-line visx-axis-line" x1="0" y1="155.5" x2="0" y2="0.5" fill="transparent" shape-rendering="crispEdges" stroke="#F2F0F9" stroke-width="1"></line></g><rect class="visx-bar" width="1425" height="155" fill="transparent"></rect><line class="visx-line" x1="1140" y1="58" x2="1140" y2="155" fill="transparent" shape-rendering="crispEdges" stroke="#CDC8E1" stroke-width="1" pointer-events="none" stroke-dasharray="5"></line><svg x="0" y="0" font-size="11px" style="overflow:visible"><text transform="" x="1140" y="50" font-size="11px" fill="#555069" stroke="#FFFFFF" stroke-width="1px" text-anchor="middle"><tspan x="1140" dy="0.355em">Optimal utilization 80%</tspan></text></svg><svg x="0" y="0" font-size="11px" style="overflow:visible"><text transform="" x="1140" y="50" font-size="11px" fill="#CDC8E1" text-anchor="middle"><tspan x="1140" dy="0.355em">Optimal utilization 80%</tspan></text></svg></g></svg>