<?xml version="1.0"?><svg xmlns="http://www.w3.org/2000/svg" xmlns:xlink= "http://www.w3.org/1999/xlink" style="background: white;" width="1500" height="300"> <g style="color: black; font-size: 13px; font-family: sans-serif; transform: translate(18px, 25px);"><g><circle r="3" cx="-6" cy="-5" style="fill: #1AD4B3" /><text>Borrow APR, variable</text></g><g style="transform: translateX(150px);"><circle r="3" cx="-6" cy="-5" style="fill: #101423" /><text>Borrow APR, stable</text></g></g><g class="visx-group" transform="translate(45, 50)"><g class="visx-group visx-rows" transform="translate(0, 0)"><line class="visx-line" x1="0" y1="155" x2="1425" y2="155" fill="transparent" shape-rendering="crispEdges" stroke="#F2F0F9" stroke-width="1" pointer-events="none"></line><line class="visx-line" x1="0" y1="84.54545454545453" x2="1425" y2="84.54545454545453" fill="transparent" shape-rendering="crispEdges" stroke="#F2F0F9" stroke-width="1" pointer-events="none"></line><line class="visx-line" x1="0" y1="14.090909090909095" x2="1425" y2="14.090909090909095" fill="transparent" shape-rendering="crispEdges" stroke="#F2F0F9" stroke-width="1" pointer-events="none"></line></g><path class="visx-linepath" d="M0,154.99999999990314C2.375,154.98385416661017,4.75,154.96770833331718,7.125,154.9515625C9.5,154.9354166666828,11.875,154.91927083333331,14.25,154.903125C16.625,154.88697916666666,19,154.8708333333333,21.375,154.85468749999998C23.75,154.83854166666666,26.125,154.82239583333333,28.5,154.80625C30.875,154.79010416666668,33.25,154.77395833333333,35.625,154.7578125C38,154.74166666666667,40.375,154.72552083333332,42.75,154.709375C45.125,154.69322916666667,47.50000000000001,154.67708333333331,49.87500000000001,154.6609375C52.25000000000001,154.64479166666666,54.625,154.62864583333334,57,154.6125C59.375,154.59635416666669,61.75,154.58020833333333,64.125,154.5640625C66.5,154.54791666666668,68.875,154.53177083333333,71.25,154.515625C73.625,154.49947916666667,76,154.48333333333332,78.375,154.4671875C80.75,154.45104166666667,83.125,154.43489583333331,85.5,154.41875C87.875,154.40260416666666,90.25,154.38645833333334,92.625,154.3703125C95,154.35416666666669,97.37500000000001,154.33802083333333,99.75000000000001,154.321875C102.12500000000001,154.30572916666668,104.5,154.28958333333333,106.875,154.2734375C109.25,154.25729166666667,111.625,154.24114583333332,114,154.225C116.375,154.20885416666667,118.75000000000001,154.19270833333331,121.12500000000001,154.1765625C123.50000000000001,154.16041666666666,125.875,154.14427083333334,128.25,154.128125C130.625,154.11197916666669,133,154.09583333333333,135.375,154.0796875C137.75,154.06354166666668,140.125,154.04739583333333,142.5,154.03125C144.875,154.01510416666667,147.25,153.99895833333332,149.625,153.9828125C152,153.96666666666667,154.375,153.95052083333334,156.75,153.93437500000002C159.125,153.9182291666667,161.5,153.90208333333334,163.875,153.8859375C166.25,153.86979166666669,168.625,153.85364583333333,171,153.8375C173.375,153.82135416666668,175.75,153.80520833333333,178.125,153.7890625C180.5,153.77291666666667,182.875,153.75677083333332,185.25,153.740625C187.625,153.72447916666667,190,153.70833333333331,192.375,153.6921875C194.75,153.67604166666666,197.12500000000003,153.6598958333333,199.50000000000003,153.64374999999998C201.875,153.62760416666666,204.25,153.61145833333333,206.62499999999997,153.5953125C208.99999999999997,153.57916666666668,211.375,153.56302083333333,213.75,153.546875C216.125,153.53072916666667,218.5,153.51458333333332,220.875,153.4984375C223.25,153.48229166666667,225.625,153.46614583333331,228,153.45C230.375,153.43385416666666,232.75,153.41770833333334,235.125,153.4015625C237.5,153.38541666666669,239.87500000000003,153.36927083333333,242.25000000000003,153.353125C244.625,153.33697916666668,247,153.32083333333333,249.37499999999997,153.3046875C251.74999999999997,153.28854166666667,254.125,153.27239583333332,256.5,153.25625C258.875,153.24010416666667,261.25,153.22395833333331,263.625,153.2078125C266,153.19166666666666,268.375,153.17552083333334,270.75,153.159375C273.125,153.14322916666669,275.5,153.12708333333333,277.875,153.1109375C280.25,153.09479166666668,282.625,153.07864583333333,285,153.0625C287.375,153.04635416666667,289.75,153.03020833333332,292.125,153.0140625C294.5,152.99791666666667,296.875,152.98177083333331,299.25,152.965625C301.625,152.94947916666666,304,152.93333333333334,306.375,152.9171875C308.75,152.90104166666669,311.125,152.88489583333333,313.5,152.86875C315.875,152.85260416666668,318.25,152.83645833333333,320.625,152.8203125C323,152.80416666666667,325.375,152.78802083333332,327.75,152.771875C330.125,152.75572916666667,332.5,152.73958333333334,334.875,152.72343750000002C337.25,152.7072916666667,339.625,152.69114583333334,342,152.675C344.375,152.65885416666669,346.75,152.64270833333333,349.125,152.6265625C351.5,152.61041666666668,353.875,152.59427083333333,356.25,152.578125C358.625,152.56197916666667,361,152.54583333333332,363.375,152.5296875C365.75,152.51354166666667,368.125,152.49739583333331,370.5,152.48125C372.875,152.46510416666666,375.25,152.4489583333333,377.625,152.43281249999998C380,152.41666666666666,382.375,152.40052083333333,384.75,152.384375C387.125,152.36822916666668,389.50000000000006,152.35208333333333,391.87500000000006,152.3359375C394.25000000000006,152.31979166666667,396.62500000000006,152.30364583333332,399.00000000000006,152.2875C401.375,152.27135416666667,403.75,152.25520833333331,406.12499999999994,152.2390625C408.49999999999994,152.22291666666666,410.87499999999994,152.20677083333334,413.24999999999994,152.190625C415.62499999999994,152.17447916666669,418,152.15833333333333,420.375,152.1421875C422.75,152.12604166666668,425.125,152.10989583333333,427.5,152.09375C429.875,152.07760416666667,432.25,152.06145833333332,434.625,152.0453125C437,152.02916666666667,439.375,152.01302083333331,441.75,151.996875C444.125,151.98072916666666,446.5,151.96458333333334,448.875,151.9484375C451.25,151.93229166666669,453.625,151.91614583333333,456,151.9C458.375,151.88385416666668,460.75,151.86770833333333,463.125,151.8515625C465.5,151.83541666666667,467.875,151.81927083333332,470.25,151.803125C472.625,151.78697916666667,475.00000000000006,151.77083333333331,477.37500000000006,151.7546875C479.75000000000006,151.73854166666666,482.12500000000006,151.72239583333334,484.50000000000006,151.70625C486.875,151.69010416666669,489.25,151.67395833333333,491.62499999999994,151.6578125C493.99999999999994,151.64166666666668,496.37499999999994,151.62552083333333,498.74999999999994,151.609375C501.12499999999994,151.59322916666667,503.5,151.57708333333332,505.875,151.5609375C508.25,151.54479166666667,510.625,151.52864583333334,513,151.51250000000002C515.375,151.4963541666667,517.75,151.48020833333334,520.125,151.4640625C522.5,151.44791666666669,524.875,151.43177083333333,527.25,151.415625C529.625,151.39947916666668,532,151.38333333333333,534.375,151.3671875C536.75,151.35104166666667,539.125,151.33489583333332,541.5,151.31875C543.875,151.30260416666667,546.25,151.28645833333331,548.625,151.2703125C551,151.25416666666666,553.375,151.2380208333333,555.75,151.22187499999998C558.125,151.20572916666666,560.5,151.18958333333333,562.875,151.1734375C565.25,151.15729166666668,567.625,151.14114583333333,570,151.125C572.375,151.10885416666667,574.75,151.09270833333332,577.125,151.0765625C579.5,151.06041666666667,581.875,151.04427083333331,584.25,151.028125C586.625,151.01197916666666,589,150.99583333333334,591.375,150.9796875C593.75,150.96354166666669,596.125,150.94739583333333,598.5,150.93125C600.875,150.91510416666668,603.25,150.89895833333333,605.625,150.8828125C608,150.86666666666667,610.375,150.85052083333332,612.75,150.834375C615.125,150.81822916666667,617.5,150.80208333333331,619.875,150.7859375C622.25,150.76979166666666,624.625,150.75364583333334,627,150.7375C629.375,150.72135416666669,631.75,150.70520833333333,634.125,150.6890625C636.5,150.67291666666668,638.875,150.65677083333333,641.25,150.640625C643.625,150.62447916666667,646,150.60833333333332,648.375,150.5921875C650.75,150.57604166666667,653.125,150.55989583333331,655.5,150.54375C657.875,150.52760416666666,660.25,150.51145833333334,662.625,150.4953125C665,150.47916666666669,667.375,150.46302083333333,669.75,150.446875C672.125,150.43072916666668,674.5,150.41458333333333,676.875,150.3984375C679.25,150.38229166666667,681.625,150.36614583333332,684,150.35C686.375,150.33385416666667,688.75,150.31770833333334,691.125,150.30156250000002C693.5,150.2854166666667,695.875,150.26927083333334,698.25,150.253125C700.625,150.23697916666669,703,150.22083333333333,705.375,150.2046875C707.75,150.18854166666668,710.125,150.17239583333333,712.5,150.15625C714.875,150.14010416666667,717.25,150.12395833333332,719.625,150.1078125C722,150.09166666666667,724.375,150.07552083333331,726.75,150.059375C729.125,150.04322916666666,731.5,150.0270833333333,733.875,150.01093749999998C736.25,149.99479166666666,738.625,149.97864583333333,741,149.9625C743.375,149.94635416666668,745.75,149.93020833333333,748.125,149.9140625C750.5,149.89791666666667,752.875,149.88177083333332,755.25,149.865625C757.625,149.84947916666667,760,149.83333333333331,762.375,149.8171875C764.75,149.80104166666666,767.125,149.78489583333334,769.5,149.76875C771.875,149.75260416666669,774.2500000000001,149.73645833333333,776.6250000000001,149.7203125C779.0000000000001,149.70416666666668,781.3750000000001,149.68802083333333,783.7500000000001,149.671875C786.1250000000001,149.65572916666667,788.5000000000001,149.63958333333332,790.8750000000001,149.6234375C793.2500000000001,149.60729166666667,795.6250000000001,149.59114583333331,798.0000000000001,149.575C800.375,149.55885416666666,802.75,149.54270833333334,805.1249999999999,149.5265625C807.4999999999999,149.51041666666669,809.8749999999999,149.49427083333333,812.2499999999999,149.478125C814.6249999999999,149.46197916666668,816.9999999999999,149.44583333333333,819.3749999999999,149.4296875C821.7499999999999,149.41354166666667,824.1249999999999,149.39739583333332,826.4999999999999,149.38125C828.8749999999999,149.36510416666667,831.25,149.34895833333331,833.625,149.3328125C836,149.31666666666666,838.375,149.30052083333334,840.75,149.284375C843.125,149.26822916666669,845.5,149.25208333333333,847.875,149.2359375C850.25,149.21979166666668,852.625,149.20364583333333,855,149.1875C857.375,149.17135416666667,859.75,149.15520833333332,862.125,149.1390625C864.5,149.12291666666667,866.875,149.10677083333334,869.25,149.09062500000002C871.625,149.0744791666667,874,149.05833333333334,876.375,149.0421875C878.75,149.02604166666669,881.125,149.00989583333333,883.5,148.99375C885.875,148.97760416666668,888.25,148.96145833333333,890.625,148.9453125C893,148.92916666666667,895.375,148.91302083333332,897.75,148.896875C900.125,148.88072916666667,902.5,148.86458333333331,904.875,148.8484375C907.25,148.83229166666666,909.625,148.8161458333333,912,148.79999999999998C914.375,148.78385416666666,916.75,148.76770833333333,919.125,148.7515625C921.5,148.73541666666668,923.875,148.71927083333333,926.25,148.703125C928.625,148.68697916666667,931,148.67083333333332,933.375,148.6546875C935.75,148.63854166666667,938.125,148.62239583333331,940.5,148.60625C942.875,148.59010416666666,945.25,148.57395833333334,947.625,148.5578125C950,148.54166666666669,952.3750000000001,148.52552083333333,954.7500000000001,148.509375C957.1250000000001,148.49322916666668,959.5000000000001,148.47708333333333,961.8750000000001,148.4609375C964.2500000000001,148.44479166666667,966.6250000000001,148.42864583333332,969.0000000000001,148.4125C971.3750000000001,148.39635416666667,973.7500000000001,148.38020833333331,976.1250000000001,148.3640625C978.5,148.34791666666666,980.875,148.33177083333334,983.2499999999999,148.315625C985.6249999999999,148.29947916666669,987.9999999999999,148.28333333333333,990.3749999999999,148.2671875C992.7499999999999,148.25104166666668,995.1249999999999,148.23489583333333,997.4999999999999,148.21875C999.8749999999999,148.20260416666667,1002.2499999999999,148.18645833333332,1004.6249999999999,148.1703125C1006.9999999999999,148.15416666666667,1009.375,148.13802083333331,1011.75,148.121875C1014.125,148.10572916666666,1016.5,148.08958333333334,1018.875,148.0734375C1021.25,148.05729166666669,1023.625,148.04114583333333,1026,148.025C1028.375,148.00885416666668,1030.75,147.99270833333333,1033.125,147.9765625C1035.5,147.96041666666667,1037.875,147.94427083333332,1040.25,147.928125C1042.625,147.91197916666667,1045,147.89583333333334,1047.375,147.87968750000002C1049.75,147.8635416666667,1052.125,147.84739583333334,1054.5,147.83125C1056.875,147.81510416666669,1059.25,147.79895833333333,1061.625,147.7828125C1064,147.76666666666668,1066.375,147.75052083333333,1068.75,147.734375C1071.125,147.71822916666667,1073.5,147.70208333333332,1075.875,147.6859375C1078.25,147.66979166666667,1080.625,147.65364583333331,1083,147.6375C1085.375,147.62135416666666,1087.75,147.6052083333333,1090.125,147.58906249999998C1092.5,147.57291666666666,1094.875,147.55677083333333,1097.25,147.540625C1099.625,147.52447916666668,1102,147.50833333333333,1104.375,147.4921875C1106.75,147.47604166666667,1109.125,147.45989583333332,1111.5,147.44375C1113.875,147.42760416666667,1116.25,147.41145833333331,1118.625,147.3953125C1121,147.37916666666666,1123.375,147.36302083333334,1125.75,147.346875C1128.125,147.33072916666669,1130.5,147.31458333333333,1132.875,147.2984375C1135.25,147.28229166666668,1137.625,147.28229166666668,1140,147.25C1142.375,147.21770833333332,1144.75,145.2068181818182,1147.125,144.18522727272727C1149.5,143.16363636363636,1151.875,142.14204545454547,1154.25,141.12045454545455C1156.625,140.09886363636363,1159,139.07727272727274,1161.375,138.05568181818182C1163.75,137.0340909090909,1166.125,136.0125,1168.5,134.99090909090907C1170.875,133.96931818181815,1173.25,132.94772727272726,1175.625,131.92613636363635C1178,130.90454545454543,1180.375,129.88295454545454,1182.75,128.86136363636362C1185.125,127.83977272727272,1187.5,126.81818181818183,1189.875,125.79659090909092C1192.25,124.77500000000002,1194.625,123.75340909090909,1197,122.73181818181817C1199.375,121.71022727272725,1201.75,120.68863636363636,1204.125,119.66704545454546C1206.5,118.64545454545456,1208.875,117.62386363636364,1211.25,116.60227272727272C1213.625,115.5806818181818,1216,114.55909090909091,1218.375,113.5375C1220.75,112.51590909090908,1223.125,111.49431818181816,1225.5,110.47272727272725C1227.875,109.45113636363635,1230.25,108.42954545454545,1232.625,107.40795454545454C1235,106.38636363636364,1237.375,105.36477272727274,1239.75,104.34318181818182C1242.125,103.3215909090909,1244.5,102.29999999999998,1246.875,101.27840909090908C1249.25,100.25681818181818,1251.625,99.23522727272726,1254,98.21363636363635C1256.375,97.19204545454545,1258.75,96.17045454545453,1261.125,95.14886363636363C1263.5,94.12727272727273,1265.875,93.10568181818184,1268.25,92.08409090909092C1270.625,91.0625,1273,90.04090909090908,1275.375,89.01931818181816C1277.75,87.99772727272725,1280.125,86.97613636363636,1282.5,85.95454545454545C1284.875,84.93295454545455,1287.25,83.91136363636362,1289.625,82.88977272727271C1292,81.86818181818181,1294.375,80.84659090909092,1296.75,79.82500000000002C1299.125,78.80340909090911,1301.5,77.78181818181818,1303.875,76.76022727272726C1306.25,75.73863636363635,1308.625,74.71704545454546,1311,73.69545454545455C1313.375,72.67386363636365,1315.75,71.65227272727273,1318.125,70.63068181818181C1320.5,69.6090909090909,1322.875,68.58749999999999,1325.25,67.56590909090909C1327.625,66.54431818181818,1330,65.52272727272727,1332.375,64.50113636363636C1334.75,63.47954545454545,1337.125,62.45795454545455,1339.5,61.43636363636364C1341.875,60.41477272727273,1344.25,59.393181818181816,1346.625,58.371590909090905C1349,57.349999999999994,1351.375,56.32840909090909,1353.75,55.30681818181818C1356.125,54.28522727272727,1358.5,53.26363636363636,1360.875,52.242045454545455C1363.25,51.22045454545455,1365.625,50.198863636363654,1368,49.177272727272744C1370.375,48.15568181818183,1372.75,47.13409090909091,1375.125,46.1125C1377.5,45.090909090909086,1379.875,44.06931818181818,1382.25,43.04772727272727C1384.625,42.02613636363636,1387,41.00454545454545,1389.375,39.98295454545454C1391.75,38.96136363636363,1394.125,37.93977272727272,1396.5,36.918181818181814C1398.875,35.89659090909091,1401.25,34.87500000000001,1403.625,33.8534090909091C1406,32.8318181818182,1408.375,31.81022727272729,1410.75,30.78863636363638C1413.125,29.767045454545467,1415.5,28.745454545454542,1417.875,27.72386363636363C1420.25,26.70227272727272,1422.625,25.68068181818181,1425,24.659090909090903" fill="transparent" stroke-linecap="round" stroke="#1AD4B3" stroke-width="2"></path><g class="visx-group visx-axis visx-axis-bottom" transform="translate(0, 155)"><g class="visx-group visx-axis-tick" transform="translate(0, 0)"><line class="visx-line" x1="0" y1="0" x2="0" y2="8" fill="transparent" shape-rendering="crispEdges" stroke="#F2F0F9" stroke-width="1" stroke-linecap="square"></line><svg x="0" y="0" font-size="11" style="overflow:visible"><text transform="" x="0" y="19" fill="#1B2030" font-size="11" text-anchor="middle"><tspan x="0" dy="0em">0%</tspan></text></svg></g><g class="visx-group visx-axis-tick" transform="translate(0, 0)"><line class="visx-line" x1="356.25" y1="0" x2="356.25" y2="8" fill="transparent" shape-rendering="crispEdges" stroke="#F2F0F9" stroke-width="1" stroke-linecap="square"></line><svg x="0" y="0" font-size="11" style="overflow:visible"><text transform="" x="356.25" y="19" fill="#1B2030" font-size="11" text-anchor="middle"><tspan x="356.25" dy="0em">25%</tspan></text></svg></g><g class="visx-group visx-axis-tick" transform="translate(0, 0)"><line class="visx-line" x1="712.5" y1="0" x2="712.5" y2="8" fill="transparent" shape-rendering="crispEdges" stroke="#F2F0F9" stroke-width="1" stroke-linecap="square"></line><svg x="0" y="0" font-size="11" style="overflow:visible"><text transform="" x="712.5" y="19" fill="#1B2030" font-size="11" text-anchor="middle"><tspan x="712.5" dy="0em">50%</tspan></text></svg></g><g class="visx-group visx-axis-tick" transform="translate(0, 0)"><line class="visx-line" x1="1068.75" y1="0" x2="1068.75" y2="8" fill="transparent" shape-rendering="crispEdges" stroke="#F2F0F9" stroke-width="1" stroke-linecap="square"></line><svg x="0" y="0" font-size="11" style="overflow:visible"><text transform="" x="1068.75" y="19" fill="#1B2030" font-size="11" text-anchor="middle"><tspan x="1068.75" dy="0em">75%</tspan></text></svg></g><g class="visx-group visx-axis-tick" transform="translate(0, 0)"><line class="visx-line" x1="1425" y1="0" x2="1425" y2="8" fill="transparent" shape-rendering="crispEdges" stroke="#F2F0F9" stroke-width="1" stroke-linecap="square"></line><svg x="0" y="0" font-size="11" style="overflow:visible"><text transform="" x="1425" y="19" fill="#1B2030" font-size="11" text-anchor="middle"><tspan x="1425" dy="0em">100%</tspan></text></svg></g></g><g class="visx-group visx-axis visx-axis-left" transform="translate(0, 0)"><g class="visx-group visx-axis-tick" transform="translate(0, 0)"><line class="visx-line" x1="0" y1="155" x2="-8" y2="155" fill="transparent" shape-rendering="crispEdges" stroke="#F2F0F9" stroke-width="1" stroke-linecap="square"></line><svg x="-30" y="0" font-size="11" style="overflow:visible"><text transform="" x="-8" y="155" fill="#1B2030" font-size="11" text-anchor="start"><tspan x="-8" dy="0em">0%</tspan></text></svg></g><g class="visx-group visx-axis-tick" transform="translate(0, 0)"><line class="visx-line" x1="0" y1="84.54545454545453" x2="-8" y2="84.54545454545453" fill="transparent" shape-rendering="crispEdges" stroke="#F2F0F9" stroke-width="1" stroke-linecap="square"></line><svg x="-30" y="0" font-size="11" style="overflow:visible"><text transform="" x="-8" y="84.54545454545453" fill="#1B2030" font-size="11" text-anchor="start"><tspan x="-8" dy="0em">50%</tspan></text></svg></g><g class="visx-group visx-axis-tick" transform="translate(0, 0)"><line class="visx-line" x1="0" y1="14.090909090909095" x2="-8" y2="14.090909090909095" fill="transparent" shape-rendering="crispEdges" stroke="#F2F0F9" stroke-width="1" stroke-linecap="square"></line><svg x="-30" y="0" font-size="11" style="overflow:visible"><text transform="" x="-8" y="14.090909090909095" fill="#1B2030" font-size="11" text-anchor="start"><tspan x="-8" dy="0em">100%</tspan></text></svg></g><line class="visx-line visx-axis-line" x1="0" y1="155.5" x2="0" y2="0.5" fill="transparent" shape-rendering="crispEdges" stroke="#F2F0F9" stroke-width="1"></line></g><rect class="visx-bar" width="1425" height="155" fill="transparent"></rect><line class="visx-line" x1="1140" y1="58" x2="1140" y2="155" fill="transparent" shape-rendering="crispEdges" stroke="#CDC8E1" stroke-width="1" pointer-events="none" stroke-dasharray="5"></line><svg x="0" y="0" font-size="11px" style="overflow:visible"><text transform="" x="1140" y="50" font-size="11px" fill="#555069" stroke="#FFFFFF" stroke-width="1px" text-anchor="middle"><tspan x="1140" dy="0.355em">Optimal utilization 80%</tspan></text></svg><svg x="0" y="0" font-size="11px" style="overflow:visible"><text transform="" x="1140" y="50" font-size="11px" fill="#CDC8E1" text-anchor="middle"><tspan x="1140" dy="0.355em">Optimal utilization 80%</tspan></text></svg></g></svg>