<?xml version="1.0"?><svg xmlns="http://www.w3.org/2000/svg" xmlns:xlink= "http://www.w3.org/1999/xlink" style="background: white;" width="1500" height="300"> <g style="color: black; font-size: 13px; font-family: sans-serif; transform: translate(18px, 25px);"><g><circle r="3" cx="-6" cy="-5" style="fill: #1AD4B3" /><text>Borrow APR, variable</text></g><g style="transform: translateX(150px);"><circle r="3" cx="-6" cy="-5" style="fill: #101423" /><text>Borrow APR, stable</text></g></g><g class="visx-group" transform="translate(45, 50)"><g class="visx-group visx-rows" transform="translate(0, 0)"><line class="visx-line" x1="0" y1="155" x2="1425" y2="155" fill="transparent" shape-rendering="crispEdges" stroke="#F2F0F9" stroke-width="1" pointer-events="none"></line><line class="visx-line" x1="0" y1="103.33333333333334" x2="1425" y2="103.33333333333334" fill="transparent" shape-rendering="crispEdges" stroke="#F2F0F9" stroke-width="1" pointer-events="none"></line><line class="visx-line" x1="0" y1="51.66666666666667" x2="1425" y2="51.66666666666667" fill="transparent" shape-rendering="crispEdges" stroke="#F2F0F9" stroke-width="1" pointer-events="none"></line><line class="visx-line" x1="0" y1="0" x2="1425" y2="0" fill="transparent" shape-rendering="crispEdges" stroke="#F2F0F9" stroke-width="1" pointer-events="none"></line></g><path class="visx-linepath" d="M0,154.99999999996368C2.375,154.99394531247881,4.75,154.98789062499395,7.125,154.9818359375C9.5,154.97578125000604,11.875,154.9697265625,14.25,154.963671875C16.625,154.95761718749998,19,154.95156250000002,21.375,154.9455078125C23.75,154.939453125,26.125,154.93339843750002,28.5,154.92734375C30.875,154.9212890625,33.25,154.915234375,35.625,154.9091796875C38,154.903125,40.375,154.8970703125,42.75,154.891015625C45.125,154.88496093749998,47.50000000000001,154.87890625,49.87500000000001,154.8728515625C52.25000000000001,154.86679687499998,54.625,154.86074218749997,57,154.85468749999998C59.375,154.84863281249997,61.75,154.842578125,64.125,154.8365234375C66.5,154.83046875000002,68.875,154.8244140625,71.25,154.818359375C73.625,154.8123046875,76,154.80625,78.375,154.8001953125C80.75,154.79414062499998,83.125,154.7880859375,85.5,154.78203125C87.875,154.77597656249998,90.25,154.769921875,92.625,154.7638671875C95,154.7578125,97.37500000000001,154.75175781250002,99.75000000000001,154.745703125C102.12500000000001,154.7396484375,104.5,154.73359375,106.875,154.7275390625C109.25,154.721484375,111.625,154.71542968749998,114,154.709375C116.375,154.70332031249998,118.75000000000001,154.69726562500003,121.12500000000001,154.69121093750002C123.50000000000001,154.68515625000003,125.875,154.67910156250002,128.25,154.673046875C130.625,154.6669921875,133,154.66093750000002,135.375,154.6548828125C137.75,154.648828125,140.125,154.6427734375,142.5,154.63671875C144.875,154.6306640625,147.25,154.624609375,149.625,154.6185546875C152,154.61249999999998,154.375,154.6064453125,156.75,154.600390625C159.125,154.59433593749998,161.5,154.58828125000002,163.875,154.5822265625C166.25,154.576171875,168.625,154.57011718750002,171,154.5640625C173.375,154.5580078125,175.75,154.551953125,178.125,154.5458984375C180.5,154.53984375,182.875,154.5337890625,185.25,154.527734375C187.625,154.52167968749998,190,154.51562499999997,192.375,154.5095703125C194.75,154.50351562499998,197.12500000000003,154.49746093750002,199.50000000000003,154.49140625C201.875,154.48535156250003,204.25,154.47929687500002,206.62499999999997,154.4732421875C208.99999999999997,154.4671875,211.375,154.4611328125,213.75,154.455078125C216.125,154.4490234375,218.5,154.44296875,220.875,154.4369140625C223.25,154.43085937499998,225.625,154.4248046875,228,154.41875C230.375,154.41269531249998,232.75,154.40664062499997,235.125,154.40058593749998C237.5,154.39453124999997,239.87500000000003,154.38847656250002,242.25000000000003,154.382421875C244.625,154.37636718750002,247,154.3703125,249.37499999999997,154.3642578125C251.74999999999997,154.358203125,254.125,154.3521484375,256.5,154.34609375C258.875,154.34003906249998,261.25,154.333984375,263.625,154.3279296875C266,154.32187499999998,268.375,154.31582031250002,270.75,154.309765625C273.125,154.3037109375,275.5,154.29765625000002,277.875,154.2916015625C280.25,154.285546875,282.625,154.2794921875,285,154.2734375C287.375,154.2673828125,289.75,154.26132812499998,292.125,154.2552734375C294.5,154.24921875,296.875,154.2431640625,299.25,154.23710937500002C301.625,154.23105468750003,304,154.22500000000002,306.375,154.2189453125C308.75,154.212890625,311.125,154.20683593750002,313.5,154.20078125C315.875,154.1947265625,318.25,154.188671875,320.625,154.1826171875C323,154.1765625,325.375,154.1705078125,327.75,154.164453125C330.125,154.15839843749998,332.5,154.15234375,334.875,154.1462890625C337.25,154.14023437499998,339.625,154.13417968750002,342,154.128125C344.375,154.1220703125,346.75,154.11601562500002,349.125,154.1099609375C351.5,154.10390625,353.875,154.0978515625,356.25,154.091796875C358.625,154.0857421875,361,154.0796875,363.375,154.0736328125C365.75,154.06757812499998,368.125,154.0615234375,370.5,154.05546875C372.875,154.04941406249998,375.25,154.04335937500002,377.625,154.0373046875C380,154.03125,382.375,154.02519531250002,384.75,154.019140625C387.125,154.0130859375,389.50000000000006,154.00703125,391.87500000000006,154.0009765625C394.25000000000006,153.994921875,396.62500000000006,153.9888671875,399.00000000000006,153.9828125C401.375,153.97675781249998,403.75,153.970703125,406.12499999999994,153.9646484375C408.49999999999994,153.95859374999998,410.87499999999994,153.95253906249997,413.24999999999994,153.94648437499998C415.62499999999994,153.94042968749997,418,153.93437500000002,420.375,153.9283203125C422.75,153.92226562500002,425.125,153.9162109375,427.5,153.91015625C429.875,153.9041015625,432.25,153.898046875,434.625,153.8919921875C437,153.88593749999998,439.375,153.8798828125,441.75,153.873828125C444.125,153.86777343749998,446.5,153.86171875000002,448.875,153.8556640625C451.25,153.849609375,453.625,153.84355468750002,456,153.8375C458.375,153.8314453125,460.75,153.825390625,463.125,153.8193359375C465.5,153.81328125,467.875,153.80722656249998,470.25,153.801171875C472.625,153.79511718749998,475.00000000000006,153.78906250000003,477.37500000000006,153.78300781250002C479.75000000000006,153.77695312500003,482.12500000000006,153.77089843750002,484.50000000000006,153.76484375C486.875,153.7587890625,489.25,153.75273437500002,491.62499999999994,153.7466796875C493.99999999999994,153.740625,496.37499999999994,153.7345703125,498.74999999999994,153.728515625C501.12499999999994,153.7224609375,503.5,153.71640625,505.875,153.7103515625C508.25,153.70429687499998,510.625,153.6982421875,513,153.6921875C515.375,153.68613281249998,517.75,153.68007812500002,520.125,153.6740234375C522.5,153.66796875,524.875,153.66191406250002,527.25,153.655859375C529.625,153.6498046875,532,153.64375,534.375,153.6376953125C536.75,153.631640625,539.125,153.6255859375,541.5,153.61953125C543.875,153.61347656249998,546.25,153.607421875,548.625,153.6013671875C551,153.59531249999998,553.375,153.58925781250002,555.75,153.583203125C558.125,153.5771484375,560.5,153.57109375000002,562.875,153.5650390625C565.25,153.558984375,567.625,153.5529296875,570,153.546875C572.375,153.5408203125,574.75,153.534765625,577.125,153.5287109375C579.5,153.52265624999998,581.875,153.5166015625,584.25,153.510546875C586.625,153.50449218749998,589,153.49843749999997,591.375,153.49238281249998C593.75,153.486328125,596.125,153.4802734375,598.5,153.47421875C600.875,153.46816406250002,603.25,153.462109375,605.625,153.4560546875C608,153.45,610.375,153.4439453125,612.75,153.437890625C615.125,153.43183593749998,617.5,153.42578125,619.875,153.4197265625C622.25,153.41367187499998,624.625,153.40761718750002,627,153.4015625C629.375,153.3955078125,631.75,153.38945312500002,634.125,153.3833984375C636.5,153.37734375,638.875,153.3712890625,641.25,153.365234375C643.625,153.3591796875,646,153.35312499999998,648.375,153.3470703125C650.75,153.341015625,653.125,153.3349609375,655.5,153.32890625000002C657.875,153.32285156250003,660.25,153.31679687500002,662.625,153.3107421875C665,153.3046875,667.375,153.29863281250002,669.75,153.292578125C672.125,153.2865234375,674.5,153.28046875,676.875,153.2744140625C679.25,153.268359375,681.625,153.268359375,684,153.25625C686.375,153.244140625,688.75,152.42825854700857,691.125,152.01426282051284C693.5,151.6002670940171,695.875,151.18627136752136,698.25,150.77227564102563C700.625,150.3582799145299,703,149.94428418803417,705.375,149.53028846153845C707.75,149.11629273504272,710.125,148.70229700854702,712.5,148.2883012820513C714.875,147.87430555555557,717.25,147.46030982905984,719.625,147.0463141025641C722,146.63231837606838,724.375,146.21832264957266,726.75,145.80432692307693C729.125,145.3903311965812,731.5,144.97633547008547,733.875,144.56233974358975C736.25,144.14834401709402,738.625,143.7343482905983,741,143.32035256410256C743.375,142.90635683760684,745.75,142.4923611111111,748.125,142.07836538461538C750.5,141.66436965811965,752.875,141.25037393162393,755.25,140.8363782051282C757.625,140.42238247863247,760,140.00838675213674,762.375,139.59439102564102C764.75,139.1803952991453,767.125,138.7663995726496,769.5,138.35240384615386C771.875,137.93840811965813,774.2500000000001,137.52441239316238,776.6250000000001,137.11041666666665C779.0000000000001,136.69642094017092,781.3750000000001,136.2824252136752,783.7500000000001,135.86842948717947C786.1250000000001,135.45443376068374,788.5000000000001,135.04043803418804,790.8750000000001,134.62644230769232C793.2500000000001,134.2124465811966,795.6250000000001,133.79845085470086,798.0000000000001,133.38445512820513C800.375,132.9704594017094,802.75,132.55646367521368,805.1249999999999,132.14246794871795C807.4999999999999,131.72847222222222,809.8749999999999,131.3144764957265,812.2499999999999,130.90048076923077C814.6249999999999,130.48648504273504,816.9999999999999,130.0724893162393,819.3749999999999,129.65849358974359C821.7499999999999,129.24449786324786,824.1249999999999,128.83050213675213,826.4999999999999,128.4165064102564C828.8749999999999,128.00251068376068,831.25,127.58851495726495,833.625,127.17451923076922C836,126.7605235042735,838.375,126.34652777777778,840.75,125.93253205128205C843.125,125.51853632478633,845.5,125.1045405982906,847.875,124.69054487179487C850.25,124.27654914529914,852.625,123.86255341880343,855,123.4485576923077C857.375,123.03456196581197,859.75,122.62056623931625,862.125,122.20657051282052C864.5,121.79257478632479,866.875,121.37857905982906,869.25,120.96458333333334C871.625,120.55058760683761,874,120.13659188034188,876.375,119.72259615384615C878.75,119.30860042735043,881.125,118.89460470085471,883.5,118.48060897435899C885.875,118.06661324786326,888.25,117.65261752136752,890.625,117.23862179487179C893,116.82462606837606,895.375,116.41063034188033,897.75,115.99663461538461C900.125,115.58263888888888,902.5,115.16864316239317,904.875,114.75464743589744C907.25,114.34065170940171,909.625,113.92665598290598,912,113.51266025641026C914.375,113.09866452991453,916.75,112.68466880341882,919.125,112.27067307692309C921.5,111.85667735042736,923.875,111.44268162393162,926.25,111.02868589743589C928.625,110.61469017094016,931,110.20069444444445,933.375,109.78669871794872C935.75,109.372702991453,938.125,108.95870726495727,940.5,108.54471153846154C942.875,108.13071581196581,945.25,107.71672008547009,947.625,107.30272435897436C950,106.88872863247863,952.3750000000001,106.4747329059829,954.7500000000001,106.06073717948718C957.1250000000001,105.64674145299145,959.5000000000001,105.23274572649574,961.8750000000001,104.81875000000001C964.2500000000001,104.40475427350428,966.6250000000001,103.99075854700855,969.0000000000001,103.57676282051283C971.3750000000001,103.1627670940171,973.7500000000001,102.74877136752139,976.1250000000001,102.33477564102566C978.5,101.92077991452994,980.875,101.5067841880342,983.2499999999999,101.09278846153848C985.6249999999999,100.67879273504273,987.9999999999999,100.264797008547,990.3749999999999,99.85080128205128C992.7499999999999,99.43680555555555,995.1249999999999,99.02280982905984,997.4999999999999,98.60881410256411C999.8749999999999,98.19481837606838,1002.2499999999999,97.78082264957264,1004.6249999999999,97.36682692307691C1006.9999999999999,96.95283119658119,1009.375,96.53883547008547,1011.75,96.12483974358975C1014.125,95.71084401709402,1016.5,95.29684829059829,1018.875,94.88285256410256C1021.25,94.46885683760684,1023.625,94.05486111111112,1026,93.6408653846154C1028.375,93.22686965811967,1030.75,92.81287393162394,1033.125,92.39887820512821C1035.5,91.98488247863249,1037.875,91.57088675213677,1040.25,91.15689102564104C1042.625,90.74289529914532,1045,90.32889957264956,1047.375,89.91490384615383C1049.75,89.5009081196581,1052.125,89.08691239316238,1054.5,88.67291666666665C1056.875,88.25892094017092,1059.25,87.84492521367521,1061.625,87.43092948717948C1064,87.01693376068376,1066.375,86.60293803418803,1068.75,86.1889423076923C1071.125,85.77494658119657,1073.5,85.36095085470086,1075.875,84.94695512820513C1078.25,84.5329594017094,1080.625,84.11896367521369,1083,83.70496794871796C1085.375,83.29097222222224,1087.75,82.8769764957265,1090.125,82.46298076923077C1092.5,82.04898504273504,1094.875,81.6349893162393,1097.25,81.22099358974357C1099.625,80.80699786324784,1102,80.39300213675214,1104.375,79.97900641025642C1106.75,79.56501068376069,1109.125,79.15101495726495,1111.5,78.73701923076922C1113.875,78.3230235042735,1116.25,77.90902777777778,1118.625,77.49503205128205C1121,77.08103632478633,1123.375,76.6670405982906,1125.75,76.25304487179487C1128.125,75.83904914529914,1130.5,75.42505341880343,1132.875,75.0110576923077C1135.25,74.59706196581197,1137.625,74.18306623931625,1140,73.76907051282052C1142.375,73.35507478632479,1144.75,72.94107905982906,1147.125,72.52708333333334C1149.5,72.11308760683761,1151.875,71.69909188034188,1154.25,71.28509615384615C1156.625,70.87110042735043,1159,70.45710470085469,1161.375,70.04310897435896C1163.75,69.62911324786323,1166.125,69.21511752136753,1168.5,68.8011217948718C1170.875,68.38712606837608,1173.25,67.97313034188033,1175.625,67.55913461538461C1178,67.14513888888888,1180.375,66.73114316239317,1182.75,66.31714743589744C1185.125,65.90315170940171,1187.5,65.48915598290597,1189.875,65.07516025641024C1192.25,64.66116452991452,1194.625,64.24716880341882,1197,63.83317307692309C1199.375,63.41917735042736,1201.75,63.00518162393162,1204.125,62.59118589743589C1206.5,62.177190170940165,1208.875,61.763194444444444,1211.25,61.34919871794872C1213.625,60.93520299145299,1216,60.521207264957255,1218.375,60.10721153846153C1220.75,59.6932158119658,1223.125,59.2792200854701,1225.5,58.86522435897437C1227.875,58.451228632478646,1230.25,58.037232905982904,1232.625,57.62323717948718C1235,57.20924145299145,1237.375,56.79524572649573,1239.75,56.38125C1242.125,55.967254273504274,1244.5,55.55325854700854,1246.875,55.13926282051281C1249.25,54.725267094017084,1251.625,54.311271367521364,1254,53.89727564102564C1256.375,53.48327991452991,1258.75,53.06928418803419,1261.125,52.65528846153846C1263.5,52.241292735042734,1265.875,51.82729700854701,1268.25,51.413301282051286C1270.625,50.99930555555556,1273,50.585309829059824,1275.375,50.1713141025641C1277.75,49.75731837606837,1280.125,49.34332264957266,1282.5,48.929326923076935C1284.875,48.51533119658121,1287.25,48.10133547008547,1289.625,47.687339743589746C1292,47.27334401709402,1294.375,46.85934829059828,1296.75,46.44535256410255C1299.125,46.03135683760682,1301.5,45.61736111111112,1303.875,45.203365384615395C1306.25,44.78936965811967,1308.625,44.375373931623926,1311,43.9613782051282C1313.375,43.54738247863247,1315.75,43.13338675213675,1318.125,42.71939102564102C1320.5,42.305395299145296,1322.875,41.891399572649576,1325.25,41.47740384615385C1327.625,41.06340811965812,1330,40.6494123931624,1332.375,40.23541666666667C1334.75,39.821420940170945,1337.125,39.40742521367521,1339.5,38.99342948717948C1341.875,38.579433760683756,1344.25,38.165438034188035,1346.625,37.75144230769231C1349,37.33744658119658,1351.375,36.92345085470086,1353.75,36.50945512820513C1356.125,36.095459401709405,1358.5,35.681463675213685,1360.875,35.26746794871796C1363.25,34.85347222222223,1365.625,34.439476495726495,1368,34.02548076923077C1370.375,33.61148504273504,1372.75,33.19748931623932,1375.125,32.78349358974359C1377.5,32.369497863247865,1379.875,31.95550213675214,1382.25,31.541506410256414C1384.625,31.127510683760686,1387,30.713514957264948,1389.375,30.299519230769224C1391.75,29.8855235042735,1394.125,29.47152777777779,1396.5,29.057532051282067C1398.875,28.643536324786343,1401.25,28.229540598290605,1403.625,27.815544871794874C1406,27.401549145299143,1408.375,26.987553418803405,1410.75,26.57355769230768C1413.125,26.159561965811957,1415.5,25.745566239316247,1417.875,25.331570512820523C1420.25,24.9175747863248,1422.625,24.503579059829065,1425,24.08958333333333" fill="transparent" stroke-linecap="round" stroke="#1AD4B3" stroke-width="2"></path><g class="visx-group visx-axis visx-axis-bottom" transform="translate(0, 155)"><g class="visx-group visx-axis-tick" transform="translate(0, 0)"><line class="visx-line" x1="0" y1="0" x2="0" y2="8" fill="transparent" shape-rendering="crispEdges" stroke="#F2F0F9" stroke-width="1" stroke-linecap="square"></line><svg x="0" y="0" font-size="11" style="overflow:visible"><text transform="" x="0" y="19" fill="#1B2030" font-size="11" text-anchor="middle"><tspan x="0" dy="0em">0%</tspan></text></svg></g><g class="visx-group visx-axis-tick" transform="translate(0, 0)"><line class="visx-line" x1="356.25" y1="0" x2="356.25" y2="8" fill="transparent" shape-rendering="crispEdges" stroke="#F2F0F9" stroke-width="1" stroke-linecap="square"></line><svg x="0" y="0" font-size="11" style="overflow:visible"><text transform="" x="356.25" y="19" fill="#1B2030" font-size="11" text-anchor="middle"><tspan x="356.25" dy="0em">25%</tspan></text></svg></g><g class="visx-group visx-axis-tick" transform="translate(0, 0)"><line class="visx-line" x1="712.5" y1="0" x2="712.5" y2="8" fill="transparent" shape-rendering="crispEdges" stroke="#F2F0F9" stroke-width="1" stroke-linecap="square"></line><svg x="0" y="0" font-size="11" style="overflow:visible"><text transform="" x="712.5" y="19" fill="#1B2030" font-size="11" text-anchor="middle"><tspan x="712.5" dy="0em">50%</tspan></text></svg></g><g class="visx-group visx-axis-tick" transform="translate(0, 0)"><line class="visx-line" x1="1068.75" y1="0" x2="1068.75" y2="8" fill="transparent" shape-rendering="crispEdges" stroke="#F2F0F9" stroke-width="1" stroke-linecap="square"></line><svg x="0" y="0" font-size="11" style="overflow:visible"><text transform="" x="1068.75" y="19" fill="#1B2030" font-size="11" text-anchor="middle"><tspan x="1068.75" dy="0em">75%</tspan></text></svg></g><g class="visx-group visx-axis-tick" transform="translate(0, 0)"><line class="visx-line" x1="1425" y1="0" x2="1425" y2="8" fill="transparent" shape-rendering="crispEdges" stroke="#F2F0F9" stroke-width="1" stroke-linecap="square"></line><svg x="0" y="0" font-size="11" style="overflow:visible"><text transform="" x="1425" y="19" fill="#1B2030" font-size="11" text-anchor="middle"><tspan x="1425" dy="0em">100%</tspan></text></svg></g></g><g class="visx-group visx-axis visx-axis-left" transform="translate(0, 0)"><g class="visx-group visx-axis-tick" transform="translate(0, 0)"><line class="visx-line" x1="0" y1="155" x2="-8" y2="155" fill="transparent" shape-rendering="crispEdges" stroke="#F2F0F9" stroke-width="1" stroke-linecap="square"></line><svg x="-30" y="0" font-size="11" style="overflow:visible"><text transform="" x="-8" y="155" fill="#1B2030" font-size="11" text-anchor="start"><tspan x="-8" dy="0em">0%</tspan></text></svg></g><g class="visx-group visx-axis-tick" transform="translate(0, 0)"><line class="visx-line" x1="0" y1="103.33333333333334" x2="-8" y2="103.33333333333334" fill="transparent" shape-rendering="crispEdges" stroke="#F2F0F9" stroke-width="1" stroke-linecap="square"></line><svg x="-30" y="0" font-size="11" style="overflow:visible"><text transform="" x="-8" y="103.33333333333334" fill="#1B2030" font-size="11" text-anchor="start"><tspan x="-8" dy="0em">200%</tspan></text></svg></g><g class="visx-group visx-axis-tick" transform="translate(0, 0)"><line class="visx-line" x1="0" y1="51.66666666666667" x2="-8" y2="51.66666666666667" fill="transparent" shape-rendering="crispEdges" stroke="#F2F0F9" stroke-width="1" stroke-linecap="square"></line><svg x="-30" y="0" font-size="11" style="overflow:visible"><text transform="" x="-8" y="51.66666666666667" fill="#1B2030" font-size="11" text-anchor="start"><tspan x="-8" dy="0em">400%</tspan></text></svg></g><g class="visx-group visx-axis-tick" transform="translate(0, 0)"><line class="visx-line" x1="0" y1="0" x2="-8" y2="0" fill="transparent" shape-rendering="crispEdges" stroke="#F2F0F9" stroke-width="1" stroke-linecap="square"></line><svg x="-30" y="0" font-size="11" style="overflow:visible"><text transform="" x="-8" y="0" fill="#1B2030" font-size="11" text-anchor="start"><tspan x="-8" dy="0em">600%</tspan></text></svg></g><line class="visx-line visx-axis-line" x1="0" y1="155.5" x2="0" y2="0.5" fill="transparent" shape-rendering="crispEdges" stroke="#F2F0F9" stroke-width="1"></line></g><rect class="visx-bar" width="1425" height="155" fill="transparent"></rect><line class="visx-line" x1="684" y1="58" x2="684" y2="155" fill="transparent" shape-rendering="crispEdges" stroke="#CDC8E1" stroke-width="1" pointer-events="none" stroke-dasharray="5"></line><svg x="0" y="0" font-size="11px" style="overflow:visible"><text transform="" x="684" y="50" font-size="11px" fill="#555069" stroke="#FFFFFF" stroke-width="1px" text-anchor="middle"><tspan x="684" dy="0.355em">uOptimal 48%</tspan></text></svg><svg x="0" y="0" font-size="11px" style="overflow:visible"><text transform="" x="684" y="50" font-size="11px" fill="#CDC8E1" text-anchor="middle"><tspan x="684" dy="0.355em">uOptimal 48%</tspan></text></svg></g></svg>