<?xml version="1.0"?><svg xmlns="http://www.w3.org/2000/svg" xmlns:xlink= "http://www.w3.org/1999/xlink" style="background: white;" width="1500" height="185"> <g style="color: black; font-size: 13px; font-family: sans-serif; transform: translate(18px, 25px);"><g><circle r="3" cx="-6" cy="-5" style="fill: #B6509E" /><text>Borrow APR, variable</text></g><g style="transform: translateX(150px);"><circle r="3" cx="-6" cy="-5" style="fill: rgb(231, 198, 223)" /><text>Borrow APR, stable</text></g><g style="transform: translateX(290px);"><circle r="3" cx="-6" cy="-5" style="fill: rgb(0, 98, 210)" /><text>Utilization Rate</text></g></g><g class="visx-group" transform="translate(40, 50)"><g class="visx-group visx-rows" transform="translate(0, 0)"><line class="visx-line" x1="0" y1="115" x2="1450" y2="115" fill="transparent" shape-rendering="crispEdges" stroke="#000" stroke-width="1" stroke-dasharray="3,3" pointer-events="none"></line><line class="visx-line" x1="0" y1="86.25" x2="1450" y2="86.25" fill="transparent" shape-rendering="crispEdges" stroke="#000" stroke-width="1" stroke-dasharray="3,3" pointer-events="none"></line><line class="visx-line" x1="0" y1="57.5" x2="1450" y2="57.5" fill="transparent" shape-rendering="crispEdges" stroke="#000" stroke-width="1" stroke-dasharray="3,3" pointer-events="none"></line><line class="visx-line" x1="0" y1="28.75" x2="1450" y2="28.75" fill="transparent" shape-rendering="crispEdges" stroke="#000" stroke-width="1" stroke-dasharray="3,3" pointer-events="none"></line><line class="visx-line" x1="0" y1="0" x2="1450" y2="0" fill="transparent" shape-rendering="crispEdges" stroke="#000" stroke-width="1" stroke-dasharray="3,3" pointer-events="none"></line></g><path class="visx-linepath" d="M0,114.99999999976282C2.4166666666666665,114.96046874986165,4.833333333333334,114.92093749996046,7.25,114.88140625C9.666666666666666,114.84187500003954,12.083333333333334,114.80234375,14.5,114.76281250000001C16.916666666666668,114.72328125000001,19.333333333333332,114.68375,21.75,114.64421875C24.166666666666668,114.60468749999998,26.583333333333332,114.56515624999999,29,114.52562499999999C31.416666666666668,114.48609375,33.833333333333336,114.4465625,36.25,114.40703125C38.666666666666664,114.3675,41.083333333333336,114.32796875,43.5,114.2884375C45.91666666666667,114.24890625,48.333333333333336,114.209375,50.75000000000001,114.16984375C53.16666666666667,114.1303125,55.583333333333336,114.09078124999999,58,114.05125C60.416666666666664,114.01171875,62.833333333333336,113.97218749999999,65.25,113.93265625C67.66666666666667,113.893125,70.08333333333333,113.85359375,72.5,113.8140625C74.91666666666667,113.77453125000001,77.33333333333333,113.735,79.75,113.69546875C82.16666666666667,113.65593750000001,84.58333333333333,113.61640625,87,113.576875C89.41666666666667,113.53734375,91.83333333333333,113.4978125,94.25,113.45828125C96.66666666666667,113.41875,99.08333333333334,113.37921874999999,101.50000000000001,113.3396875C103.91666666666667,113.30015625,106.33333333333334,113.26062499999999,108.75,113.22109375C111.16666666666667,113.1815625,113.58333333333333,113.14203125,116,113.1025C118.41666666666667,113.06296875000001,120.83333333333334,113.0234375,123.25000000000001,112.98390625C125.66666666666667,112.94437500000001,128.08333333333334,112.90484375,130.5,112.8653125C132.91666666666666,112.82578125,135.33333333333334,112.78625,137.75,112.74671875C140.16666666666666,112.7071875,142.58333333333334,112.66765625,145,112.628125C147.41666666666666,112.58859375,149.83333333333334,112.54906249999999,152.25,112.50953125C154.66666666666666,112.47,157.08333333333334,112.43046875,159.5,112.3909375C161.91666666666666,112.35140625000001,164.33333333333334,112.31187500000001,166.75,112.27234375C169.16666666666666,112.2328125,171.58333333333334,112.19328124999998,174,112.15374999999999C176.41666666666666,112.11421874999999,178.83333333333334,112.0746875,181.25,112.03515625C183.66666666666666,111.995625,186.08333333333334,111.95609375,188.5,111.9165625C190.91666666666666,111.87703125,193.33333333333334,111.8375,195.75,111.79796875000001C198.16666666666669,111.75843750000001,200.58333333333334,111.71890625000002,203.00000000000003,111.67937500000001C205.41666666666669,111.63984375000001,207.83333333333331,111.60031249999999,210.24999999999997,111.56078124999999C212.66666666666666,111.52125,215.08333333333331,111.48171875,217.5,111.4421875C219.91666666666666,111.40265625,222.33333333333334,111.363125,224.75,111.32359375C227.16666666666666,111.2840625,229.58333333333334,111.24453125,232,111.205C234.41666666666666,111.16546875,236.83333333333334,111.1259375,239.25,111.08640625000001C241.66666666666669,111.04687500000001,244.08333333333334,111.00734375,246.50000000000003,110.9678125C248.91666666666669,110.92828125,251.33333333333331,110.88874999999999,253.74999999999997,110.84921874999999C256.16666666666663,110.8096875,258.5833333333333,110.77015625,261,110.730625C263.4166666666667,110.69109375000001,265.8333333333333,110.6515625,268.25,110.61203125C270.6666666666667,110.5725,273.0833333333333,110.53296875,275.5,110.4934375C277.9166666666667,110.45390625,280.3333333333333,110.41437499999999,282.75,110.37484375C285.1666666666667,110.3353125,287.5833333333333,110.29578124999999,290,110.25625C292.4166666666667,110.21671875,294.8333333333333,110.17718749999999,297.25,110.13765624999999C299.6666666666667,110.098125,302.0833333333333,110.05859375,304.5,110.0190625C306.9166666666667,109.97953125000001,309.3333333333333,109.94,311.75,109.90046875C314.1666666666667,109.8609375,316.5833333333333,109.82140625000001,319,109.78187500000001C321.4166666666667,109.74234375000002,323.8333333333333,109.7028125,326.25,109.66328125C328.6666666666667,109.62375,331.0833333333333,109.58421874999999,333.5,109.5446875C335.9166666666667,109.50515625,338.3333333333333,109.465625,340.75,109.42609375C343.1666666666667,109.38656250000001,345.5833333333333,109.34703125,348,109.3075C350.4166666666667,109.26796875000001,352.8333333333333,109.2284375,355.25,109.18890625C357.6666666666667,109.149375,360.0833333333333,109.10984375,362.5,109.0703125C364.9166666666667,109.03078125,367.3333333333333,108.99125,369.75,108.95171875C372.1666666666667,108.9121875,374.5833333333333,108.87265624999999,377,108.833125C379.4166666666667,108.79359375,381.8333333333333,108.7540625,384.25,108.71453125000001C386.6666666666667,108.67500000000001,389.0833333333333,108.63546875,391.5,108.5959375C393.9166666666667,108.55640625,396.33333333333337,108.51687499999998,398.75000000000006,108.47734374999999C401.16666666666674,108.43781249999999,403.58333333333337,108.39828125,406.00000000000006,108.35875C408.4166666666667,108.31921875,410.8333333333333,108.2796875,413.24999999999994,108.24015625C415.66666666666663,108.200625,418.08333333333326,108.16109374999999,420.49999999999994,108.1215625C422.91666666666663,108.08203125,425.3333333333333,108.0425,427.75,108.00296875000001C430.1666666666667,107.96343750000001,432.5833333333333,107.92390624999999,435,107.88437499999999C437.4166666666667,107.84484375,439.8333333333333,107.8053125,442.25,107.76578125C444.6666666666667,107.72625000000001,447.0833333333333,107.68671875,449.5,107.6471875C451.9166666666667,107.60765625,454.3333333333333,107.568125,456.75,107.52859375C459.1666666666667,107.4890625,461.5833333333333,107.44953124999999,464,107.41C466.4166666666667,107.37046875,468.8333333333333,107.3309375,471.25,107.29140625000001C473.6666666666667,107.25187500000001,476.0833333333333,107.21234374999999,478.5,107.17281249999999C480.9166666666667,107.13328125,483.33333333333337,107.09375,485.75000000000006,107.05421875C488.16666666666674,107.01468750000001,490.58333333333337,106.97515625,493.00000000000006,106.935625C495.4166666666667,106.89609375,497.8333333333333,106.8565625,500.24999999999994,106.81703125C502.66666666666663,106.7775,505.08333333333326,106.73796875000001,507.49999999999994,106.69843750000001C509.91666666666663,106.65890625000002,512.3333333333333,106.619375,514.75,106.57984375C517.1666666666666,106.5403125,519.5833333333334,106.50078124999999,522,106.46124999999999C524.4166666666666,106.42171875,526.8333333333334,106.3821875,529.25,106.34265625C531.6666666666666,106.30312500000001,534.0833333333334,106.26359375,536.5,106.2240625C538.9166666666666,106.18453125,541.3333333333334,106.145,543.75,106.10546875C546.1666666666666,106.0659375,548.5833333333334,106.02640625,551,105.986875C553.4166666666666,105.94734375,555.8333333333334,105.90781249999999,558.25,105.86828125C560.6666666666666,105.82875,563.0833333333334,105.78921874999999,565.5,105.7496875C567.9166666666666,105.71015625,570.3333333333334,105.670625,572.75,105.63109375C575.1666666666666,105.59156250000001,577.5833333333334,105.55203125,580,105.5125C582.4166666666666,105.47296875,584.8333333333334,105.4334375,587.25,105.39390625C589.6666666666666,105.354375,592.0833333333334,105.31484375,594.5,105.2753125C596.9166666666666,105.23578125,599.3333333333334,105.19624999999999,601.75,105.15671875C604.1666666666666,105.1171875,606.5833333333334,105.07765625,609,105.03812500000001C611.4166666666666,104.99859375000001,613.8333333333334,104.9590625,616.25,104.91953125C618.6666666666666,104.88000000000001,621.0833333333334,104.84046875,623.5,104.8009375C625.9166666666666,104.76140625000001,628.3333333333334,104.721875,630.75,104.68234375C633.1666666666666,104.6428125,635.5833333333334,104.60328125,638,104.56375C640.4166666666666,104.52421875,642.8333333333334,104.48468749999999,645.25,104.44515625C647.6666666666666,104.405625,650.0833333333334,104.36609375,652.5,104.32656250000001C654.9166666666666,104.28703125000001,657.3333333333334,104.2475,659.75,104.20796875C662.1666666666666,104.16843750000001,664.5833333333334,104.12890624999999,667,104.08937499999999C669.4166666666666,104.04984375,671.8333333333334,104.0103125,674.25,103.97078125C676.6666666666666,103.93125,679.0833333333334,103.89171875,681.5,103.8521875C683.9166666666666,103.81265625,686.3333333333334,103.773125,688.75,103.73359375C691.1666666666666,103.6940625,693.5833333333334,103.65453125,696,103.61500000000001C698.4166666666666,103.57546875000001,700.8333333333334,103.53593749999999,703.25,103.49640624999999C705.6666666666666,103.456875,708.0833333333334,103.41734374999999,710.5,103.37781249999999C712.9166666666666,103.33828125,715.3333333333334,103.29875,717.75,103.25921875C720.1666666666666,103.2196875,722.5833333333334,103.18015625,725,103.140625C727.4166666666666,103.10109375,729.8333333333334,103.06156250000001,732.25,103.02203125000001C734.6666666666666,102.98250000000002,737.0833333333334,102.94296875,739.5,102.9034375C741.9166666666666,102.86390624999999,744.3333333333334,102.82437499999999,746.75,102.78484375C749.1666666666666,102.7453125,751.5833333333334,102.70578125,754,102.66625C756.4166666666666,102.62671875000001,758.8333333333334,102.5871875,761.25,102.54765625C763.6666666666666,102.508125,766.0833333333334,102.46859375,768.5,102.4290625C770.9166666666666,102.38953125,773.3333333333334,102.35,775.75,102.31046875C778.1666666666666,102.2709375,780.5833333333334,102.23140624999999,783,102.191875C785.4166666666667,102.15234375,787.8333333333334,102.11281249999999,790.2500000000001,102.07328125C792.6666666666667,102.03375,795.0833333333335,101.99421875,797.5000000000001,101.9546875C799.9166666666667,101.91515625000001,802.3333333333335,101.875625,804.7500000000001,101.83609375C807.1666666666667,101.79656250000001,809.5833333333335,101.75703125,812.0000000000001,101.7175C814.4166666666667,101.67796875,816.8333333333333,101.6384375,819.2499999999999,101.59890625C821.6666666666665,101.559375,824.0833333333333,101.51984374999999,826.4999999999999,101.4803125C828.9166666666665,101.44078125,831.3333333333333,101.40124999999999,833.7499999999999,101.36171875C836.1666666666665,101.3221875,838.5833333333333,101.28265625,840.9999999999999,101.243125C843.4166666666666,101.20359375000001,845.8333333333333,101.16406250000001,848.25,101.12453125C850.6666666666666,101.08500000000001,853.0833333333334,101.04546874999998,855.5,101.00593749999999C857.9166666666666,100.96640624999999,860.3333333333334,100.926875,862.75,100.88734375C865.1666666666666,100.8478125,867.5833333333334,100.80828125,870,100.76875C872.4166666666666,100.72921875,874.8333333333334,100.6896875,877.25,100.65015625000001C879.6666666666666,100.61062500000001,882.0833333333334,100.57109375,884.5,100.5315625C886.9166666666666,100.49203125000001,889.3333333333334,100.4525,891.75,100.41296875C894.1666666666666,100.37343750000001,896.5833333333334,100.33390625,899,100.294375C901.4166666666666,100.25484375,903.8333333333334,100.2153125,906.25,100.17578125C908.6666666666666,100.13625,911.0833333333334,100.09671875,913.5,100.0571875C915.9166666666666,100.01765625,918.3333333333334,99.978125,920.75,99.93859375000001C923.1666666666666,99.89906250000001,925.5833333333334,99.85953124999999,928,99.82C930.4166666666666,99.78046875,932.8333333333334,99.7409375,935.25,99.70140625C937.6666666666666,99.66187500000001,940.0833333333334,99.62234375,942.5,99.5828125C944.9166666666666,99.54328125,947.3333333333334,99.50375,949.75,99.46421875C952.1666666666666,99.4246875,954.5833333333334,99.38515625,957,99.345625C959.4166666666666,99.30609375,961.8333333333334,99.26656249999999,964.25,99.22703125C966.6666666666667,99.1875,969.0833333333334,99.14796874999999,971.5000000000001,99.1084375C973.9166666666667,99.06890625,976.3333333333335,99.029375,978.7500000000001,98.98984375C981.1666666666667,98.95031250000001,983.5833333333335,98.91078125,986.0000000000001,98.87125C988.4166666666667,98.83171875000001,990.8333333333335,98.7921875,993.2500000000001,98.75265625C995.6666666666667,98.713125,998.0833333333333,98.67359375,1000.4999999999999,98.6340625C1002.9166666666665,98.59453125,1005.3333333333333,98.55499999999999,1007.7499999999999,98.51546875C1010.1666666666665,98.4759375,1012.5833333333333,98.43640624999999,1014.9999999999999,98.396875C1017.4166666666665,98.35734375,1019.8333333333333,98.3178125,1022.2499999999999,98.27828125C1024.6666666666665,98.23875000000001,1027.0833333333333,98.19921875,1029.5,98.1596875C1031.9166666666667,98.12015625000001,1034.3333333333333,98.080625,1036.75,98.04109375C1039.1666666666667,98.0015625,1041.5833333333333,97.96203124999998,1044,97.92249999999999C1046.4166666666667,97.88296874999999,1048.8333333333333,97.8434375,1051.25,97.80390625C1053.6666666666667,97.764375,1056.0833333333333,97.72484375,1058.5,97.68531250000001C1060.9166666666667,97.64578125000001,1063.3333333333333,97.60625,1065.75,97.56671875C1068.1666666666667,97.52718750000001,1070.5833333333333,97.48765625000001,1073,97.448125C1075.4166666666667,97.40859375,1077.8333333333333,97.36906249999998,1080.25,97.32953124999999C1082.6666666666667,97.28999999999999,1085.0833333333333,97.25046875,1087.5,97.2109375C1089.9166666666667,97.17140625,1092.3333333333333,97.131875,1094.75,97.09234375C1097.1666666666667,97.0528125,1099.5833333333333,97.01328125,1102,96.97375000000001C1104.4166666666667,96.93421875000001,1106.8333333333333,96.8946875,1109.25,96.85515625000001C1111.6666666666667,96.81562500000001,1114.0833333333333,96.77609375,1116.5,96.73656249999999C1118.9166666666667,96.69703124999998,1121.3333333333333,96.65749999999998,1123.75,96.61796874999999C1126.1666666666667,96.57843749999999,1128.5833333333333,96.53890625,1131,96.499375C1133.4166666666667,96.45984375,1135.8333333333333,96.4203125,1138.25,96.38078125C1140.6666666666667,96.34125,1143.0833333333333,96.30171875,1145.5,96.26218750000001C1147.9166666666667,96.22265625000001,1150.3333333333333,96.18312499999999,1152.75,96.14359375C1155.1666666666667,96.1040625,1157.5833333333333,96.1040625,1160,96.02499999999999C1162.4166666666667,95.94593749999999,1164.8333333333333,95.25833333333333,1167.25,94.875C1169.6666666666667,94.49166666666667,1172.0833333333333,94.10833333333333,1174.5,93.725C1176.9166666666667,93.34166666666665,1179.3333333333333,92.95833333333331,1181.75,92.57499999999999C1184.1666666666667,92.19166666666666,1186.5833333333333,91.80833333333332,1189,91.425C1191.4166666666667,91.04166666666667,1193.8333333333333,90.65833333333333,1196.25,90.275C1198.6666666666667,89.89166666666668,1201.0833333333333,89.50833333333333,1203.5,89.125C1205.9166666666667,88.74166666666667,1208.3333333333333,88.35833333333335,1210.75,87.97500000000001C1213.1666666666667,87.59166666666667,1215.5833333333333,87.20833333333334,1218,86.825C1220.4166666666667,86.44166666666666,1222.8333333333333,86.05833333333334,1225.25,85.675C1227.6666666666667,85.29166666666666,1230.0833333333333,84.90833333333333,1232.5,84.52499999999999C1234.9166666666667,84.14166666666665,1237.3333333333333,83.75833333333333,1239.75,83.375C1242.1666666666667,82.99166666666667,1244.5833333333333,82.60833333333332,1247,82.225C1249.4166666666667,81.84166666666667,1251.8333333333333,81.45833333333333,1254.25,81.075C1256.6666666666667,80.69166666666668,1259.0833333333333,80.30833333333334,1261.5,79.92500000000001C1263.9166666666667,79.54166666666669,1266.3333333333333,79.15833333333335,1268.75,78.775C1271.1666666666667,78.39166666666667,1273.5833333333333,78.00833333333333,1276,77.625C1278.4166666666667,77.24166666666667,1280.8333333333333,76.85833333333335,1283.25,76.47500000000001C1285.6666666666667,76.09166666666667,1288.0833333333333,75.70833333333334,1290.5,75.325C1292.9166666666667,74.94166666666666,1295.3333333333333,74.55833333333334,1297.75,74.175C1300.1666666666667,73.79166666666666,1302.5833333333333,73.40833333333333,1305,73.025C1307.4166666666667,72.64166666666668,1309.8333333333333,72.25833333333334,1312.25,71.875C1314.6666666666667,71.49166666666666,1317.0833333333333,71.10833333333332,1319.5,70.725C1321.9166666666667,70.34166666666667,1324.3333333333333,69.95833333333334,1326.75,69.575C1329.1666666666667,69.19166666666666,1331.5833333333333,68.80833333333334,1334,68.425C1336.4166666666667,68.04166666666666,1338.8333333333333,67.65833333333333,1341.25,67.27499999999999C1343.6666666666667,66.89166666666665,1346.0833333333333,66.50833333333333,1348.5,66.125C1350.9166666666667,65.74166666666667,1353.3333333333333,65.35833333333335,1355.75,64.97500000000001C1358.1666666666667,64.59166666666667,1360.5833333333333,64.20833333333333,1363,63.824999999999996C1365.4166666666667,63.44166666666666,1367.8333333333333,63.05833333333334,1370.25,62.675000000000004C1372.6666666666667,62.29166666666667,1375.0833333333333,61.908333333333324,1377.5,61.52499999999999C1379.9166666666667,61.14166666666666,1382.3333333333333,60.75833333333333,1384.75,60.375C1387.1666666666667,59.99166666666667,1389.5833333333333,59.60833333333332,1392,59.22499999999999C1394.4166666666667,58.841666666666654,1396.8333333333333,58.458333333333336,1399.25,58.075C1401.6666666666667,57.69166666666667,1404.0833333333333,57.30833333333332,1406.5,56.92499999999999C1408.9166666666667,56.54166666666666,1411.3333333333333,56.158333333333346,1413.75,55.77500000000001C1416.1666666666667,55.39166666666668,1418.5833333333333,55.00833333333333,1421,54.625C1423.4166666666667,54.24166666666667,1425.8333333333333,53.85833333333334,1428.25,53.47500000000001C1430.6666666666667,53.091666666666676,1433.0833333333333,52.70833333333333,1435.5,52.324999999999996C1437.9166666666667,51.94166666666666,1440.3333333333333,51.55833333333334,1442.75,51.175000000000004C1445.1666666666667,50.79166666666667,1447.5833333333333,50.40833333333333,1450,50.02499999999999" fill="transparent" stroke-linecap="round" stroke="#B6509E" stroke-width="2"></path><path class="visx-linepath" d="M0,84.52499999976281C2.4166666666666665,84.48546874986164,4.833333333333334,84.44593749996046,7.25,84.40640625C9.666666666666666,84.36687500003954,12.083333333333334,84.32734375,14.5,84.2878125C16.916666666666668,84.24828125,19.333333333333332,84.20875,21.75,84.16921875C24.166666666666668,84.1296875,26.583333333333332,84.09015625,29,84.05062500000001C31.416666666666668,84.01109375000001,33.833333333333336,83.9715625,36.25,83.93203125000001C38.666666666666664,83.89250000000001,41.083333333333336,83.85296874999999,43.5,83.81343749999999C45.91666666666667,83.77390625,48.333333333333336,83.734375,50.75000000000001,83.69484375C53.16666666666667,83.65531250000001,55.583333333333336,83.61578125,58,83.57625C60.416666666666664,83.53671875,62.833333333333336,83.4971875,65.25,83.45765625C67.66666666666667,83.418125,70.08333333333333,83.37859375000001,72.5,83.33906250000001C74.91666666666667,83.29953125000002,77.33333333333333,83.25999999999999,79.75,83.22046875C82.16666666666667,83.1809375,84.58333333333333,83.14140625,87,83.101875C89.41666666666667,83.06234375000001,91.83333333333333,83.0228125,94.25,82.98328125C96.66666666666667,82.94375000000001,99.08333333333334,82.90421875,101.50000000000001,82.8646875C103.91666666666667,82.82515625,106.33333333333334,82.785625,108.75,82.74609375C111.16666666666667,82.7065625,113.58333333333333,82.66703125,116,82.6275C118.41666666666667,82.58796875,120.83333333333334,82.54843749999999,123.25000000000001,82.50890625C125.66666666666667,82.469375,128.08333333333334,82.42984375,130.5,82.39031250000001C132.91666666666666,82.35078125000001,135.33333333333334,82.31125,137.75,82.27171875C140.16666666666666,82.23218750000001,142.58333333333334,82.19265625,145,82.153125C147.41666666666666,82.11359375,149.83333333333334,82.07406249999998,152.25,82.03453124999999C154.66666666666666,81.99499999999999,157.08333333333334,81.95546875,159.5,81.9159375C161.91666666666666,81.87640625,164.33333333333334,81.83687499999999,166.75,81.79734375C169.16666666666666,81.7578125,171.58333333333334,81.71828125,174,81.67875000000001C176.41666666666666,81.63921875000001,178.83333333333334,81.5996875,181.25,81.56015625C183.66666666666666,81.52062500000001,186.08333333333334,81.48109375000001,188.5,81.4415625C190.91666666666666,81.40203125,193.33333333333334,81.36249999999998,195.75,81.32296874999999C198.16666666666669,81.28343749999999,200.58333333333334,81.24390625,203.00000000000003,81.204375C205.41666666666669,81.16484375,207.83333333333331,81.12531249999999,210.24999999999997,81.08578125C212.66666666666666,81.04625,215.08333333333331,81.00671875,217.5,80.96718750000001C219.91666666666666,80.92765625000001,222.33333333333334,80.888125,224.75,80.84859375C227.16666666666666,80.80906250000001,229.58333333333334,80.76953124999999,232,80.72999999999999C234.41666666666666,80.69046875,236.83333333333334,80.6509375,239.25,80.61140625C241.66666666666669,80.571875,244.08333333333334,80.53234375,246.50000000000003,80.4928125C248.91666666666669,80.45328125,251.33333333333331,80.41375,253.74999999999997,80.37421875C256.16666666666663,80.3346875,258.5833333333333,80.29515625,261,80.25562500000001C263.4166666666667,80.21609375000001,265.8333333333333,80.17656249999999,268.25,80.13703124999999C270.6666666666667,80.0975,273.0833333333333,80.05796874999999,275.5,80.01843749999999C277.9166666666667,79.97890625,280.3333333333333,79.939375,282.75,79.89984375C285.1666666666667,79.8603125,287.5833333333333,79.82078125,290,79.78125C292.4166666666667,79.74171875,294.8333333333333,79.70218750000001,297.25,79.66265625000001C299.6666666666667,79.62312500000002,302.0833333333333,79.58359375,304.5,79.5440625C306.9166666666667,79.50453124999999,309.3333333333333,79.46499999999999,311.75,79.42546875C314.1666666666667,79.3859375,316.5833333333333,79.34640625,319,79.306875C321.4166666666667,79.26734375000001,323.8333333333333,79.2278125,326.25,79.18828125C328.6666666666667,79.14875,331.0833333333333,79.10921875,333.5,79.0696875C335.9166666666667,79.03015625,338.3333333333333,78.990625,340.75,78.95109375C343.1666666666667,78.9115625,345.5833333333333,78.87203124999999,348,78.8325C350.4166666666667,78.79296875,352.8333333333333,78.75343749999999,355.25,78.71390625C357.6666666666667,78.674375,360.0833333333333,78.63484375,362.5,78.5953125C364.9166666666667,78.55578125000001,367.3333333333333,78.51625,369.75,78.47671875C372.1666666666667,78.43718750000001,374.5833333333333,78.39765625,377,78.358125C379.4166666666667,78.31859375,381.8333333333333,78.2790625,384.25,78.23953125C386.6666666666667,78.2,389.0833333333333,78.16046874999999,391.5,78.1209375C393.9166666666667,78.08140625,396.33333333333337,78.04187499999999,398.75000000000006,78.00234375C401.16666666666674,77.9628125,403.58333333333337,77.92328125,406.00000000000006,77.88375C408.4166666666667,77.84421875000001,410.8333333333333,77.8046875,413.24999999999994,77.76515625C415.66666666666663,77.725625,418.08333333333326,77.68609374999998,420.49999999999994,77.64656249999999C422.91666666666663,77.60703124999999,425.3333333333333,77.5675,427.75,77.52796875C430.1666666666667,77.4884375,432.5833333333333,77.44890625,435,77.409375C437.4166666666667,77.36984375,439.8333333333333,77.3303125,442.25,77.29078125000001C444.6666666666667,77.25125000000001,447.0833333333333,77.21171875000002,449.5,77.1721875C451.9166666666667,77.13265625,454.3333333333333,77.09312499999999,456.75,77.05359374999999C459.1666666666667,77.0140625,461.5833333333333,76.97453125,464,76.935C466.4166666666667,76.89546875,468.8333333333333,76.8559375,471.25,76.81640625C473.6666666666667,76.776875,476.0833333333333,76.73734375,478.5,76.6978125C480.9166666666667,76.65828125,483.33333333333337,76.61875,485.75000000000006,76.57921875000001C488.16666666666674,76.53968750000001,490.58333333333337,76.50015625,493.00000000000006,76.460625C495.4166666666667,76.42109375,497.8333333333333,76.38156249999999,500.24999999999994,76.34203124999999C502.66666666666663,76.3025,505.08333333333326,76.26296875,507.49999999999994,76.2234375C509.91666666666663,76.18390625,512.3333333333333,76.144375,514.75,76.10484375C517.1666666666666,76.0653125,519.5833333333334,76.02578125000001,522,75.98625000000001C524.4166666666666,75.94671875000002,526.8333333333334,75.90718749999999,529.25,75.86765625C531.6666666666666,75.828125,534.0833333333334,75.78859374999999,536.5,75.7490625C538.9166666666666,75.70953125,541.3333333333334,75.67,543.75,75.63046875C546.1666666666666,75.59093750000001,548.5833333333334,75.55140625,551,75.511875C553.4166666666666,75.47234375000001,555.8333333333334,75.4328125,558.25,75.39328125C560.6666666666666,75.35375,563.0833333333334,75.31421875,565.5,75.2746875C567.9166666666666,75.23515625,570.3333333333334,75.19562499999999,572.75,75.15609375C575.1666666666666,75.1165625,577.5833333333334,75.07703124999999,580,75.0375C582.4166666666666,74.99796875,584.8333333333334,74.9584375,587.25,74.91890625C589.6666666666666,74.87937500000001,592.0833333333334,74.83984375,594.5,74.8003125C596.9166666666666,74.76078125000001,599.3333333333334,74.72125,601.75,74.68171875C604.1666666666666,74.6421875,606.5833333333334,74.60265625,609,74.563125C611.4166666666666,74.52359375,613.8333333333334,74.4840625,616.25,74.44453125C618.6666666666666,74.405,621.0833333333334,74.36546875,623.5,74.32593750000001C625.9166666666666,74.28640625000001,628.3333333333334,74.246875,630.75,74.20734375C633.1666666666666,74.16781250000001,635.5833333333334,74.12828125,638,74.08875C640.4166666666666,74.04921875000001,642.8333333333334,74.0096875,645.25,73.97015625C647.6666666666666,73.930625,650.0833333333334,73.89109375,652.5,73.8515625C654.9166666666666,73.81203125,657.3333333333334,73.7725,659.75,73.73296875C662.1666666666666,73.6934375,664.5833333333334,73.65390625,667,73.61437500000001C669.4166666666666,73.57484375000001,671.8333333333334,73.5353125,674.25,73.49578125000001C676.6666666666666,73.45625000000001,679.0833333333334,73.41671874999999,681.5,73.37718749999999C683.9166666666666,73.33765625,686.3333333333334,73.298125,688.75,73.25859375C691.1666666666666,73.2190625,693.5833333333334,73.17953125,696,73.14C698.4166666666666,73.10046875,700.8333333333334,73.06093750000001,703.25,73.02140625000001C705.6666666666666,72.98187500000002,708.0833333333334,72.94234375000002,710.5,72.90281250000001C712.9166666666666,72.86328125,715.3333333333334,72.82374999999999,717.75,72.78421875C720.1666666666666,72.7446875,722.5833333333334,72.70515624999999,725,72.66562499999999C727.4166666666666,72.62609375,729.8333333333334,72.5865625,732.25,72.54703125C734.6666666666666,72.50750000000001,737.0833333333334,72.46796875,739.5,72.4284375C741.9166666666666,72.38890625,744.3333333333334,72.34937500000001,746.75,72.30984375000001C749.1666666666666,72.27031250000002,751.5833333333334,72.23078125,754,72.19125C756.4166666666666,72.15171874999999,758.8333333333334,72.11218749999999,761.25,72.07265625C763.6666666666666,72.033125,766.0833333333334,71.99359374999999,768.5,71.95406249999999C770.9166666666666,71.91453125,773.3333333333334,71.875,775.75,71.83546875C778.1666666666666,71.79593750000001,780.5833333333334,71.75640625,783,71.716875C785.4166666666667,71.67734375,787.8333333333334,71.63781250000001,790.2500000000001,71.59828125000001C792.6666666666667,71.55875000000002,795.0833333333335,71.51921875,797.5000000000001,71.4796875C799.9166666666667,71.44015625,802.3333333333335,71.40062499999999,804.7500000000001,71.36109375C807.1666666666667,71.3215625,809.5833333333335,71.28203124999999,812.0000000000001,71.24249999999999C814.4166666666667,71.20296875,816.8333333333333,71.1634375,819.2499999999999,71.12390625C821.6666666666665,71.08437500000001,824.0833333333333,71.04484375,826.4999999999999,71.0053125C828.9166666666665,70.96578125,831.3333333333333,70.92625,833.7499999999999,70.88671875C836.1666666666665,70.8471875,838.5833333333333,70.80765625,840.9999999999999,70.768125C843.4166666666666,70.72859375,845.8333333333333,70.68906249999999,848.25,70.64953125C850.6666666666666,70.61,853.0833333333334,70.57046874999999,855.5,70.5309375C857.9166666666666,70.49140625,860.3333333333334,70.451875,862.75,70.41234375C865.1666666666666,70.37281250000001,867.5833333333334,70.33328124999998,870,70.29374999999999C872.4166666666666,70.25421874999999,874.8333333333334,70.2146875,877.25,70.17515625C879.6666666666666,70.135625,882.0833333333334,70.09609375,884.5,70.0565625C886.9166666666666,70.01703125,889.3333333333334,69.97749999999999,891.75,69.93796875C894.1666666666666,69.8984375,896.5833333333334,69.85890624999999,899,69.819375C901.4166666666666,69.77984375,903.8333333333334,69.74031249999999,906.25,69.70078124999999C908.6666666666666,69.66125,911.0833333333334,69.62171874999999,913.5,69.58218749999999C915.9166666666666,69.54265625,918.3333333333334,69.503125,920.75,69.46359375C923.1666666666666,69.4240625,925.5833333333334,69.38453125,928,69.345C930.4166666666666,69.30546875,932.8333333333334,69.26593749999999,935.25,69.22640625C937.6666666666666,69.186875,940.0833333333334,69.14734375,942.5,69.10781250000001C944.9166666666666,69.06828125000001,947.3333333333334,69.02875,949.75,68.98921874999999C952.1666666666666,68.94968749999998,954.5833333333334,68.91015624999999,957,68.87062499999999C959.4166666666666,68.83109375,961.8333333333334,68.7915625,964.25,68.75203125C966.6666666666667,68.7125,969.0833333333334,68.67296875,971.5000000000001,68.6334375C973.9166666666667,68.59390625,976.3333333333335,68.554375,978.7500000000001,68.51484375C981.1666666666667,68.4753125,983.5833333333335,68.43578124999999,986.0000000000001,68.39625C988.4166666666667,68.35671875,990.8333333333335,68.3171875,993.2500000000001,68.27765625C995.6666666666667,68.23812500000001,998.0833333333333,68.19859375,1000.4999999999999,68.1590625C1002.9166666666665,68.11953125000001,1005.3333333333333,68.08,1007.7499999999999,68.04046875C1010.1666666666665,68.0009375,1012.5833333333333,67.96140625,1014.9999999999999,67.921875C1017.4166666666665,67.88234375,1019.8333333333333,67.8428125,1022.2499999999999,67.80328125C1024.6666666666665,67.76375,1027.0833333333333,67.72421874999999,1029.5,67.6846875C1031.9166666666667,67.64515625,1034.3333333333333,67.60562499999999,1036.75,67.56609375C1039.1666666666667,67.5265625,1041.5833333333333,67.48703125,1044,67.4475C1046.4166666666667,67.40796875000001,1048.8333333333333,67.3684375,1051.25,67.32890625C1053.6666666666667,67.289375,1056.0833333333333,67.24984374999998,1058.5,67.21031249999999C1060.9166666666667,67.17078124999999,1063.3333333333333,67.13125,1065.75,67.09171875C1068.1666666666667,67.0521875,1070.5833333333333,67.01265624999999,1073,66.973125C1075.4166666666667,66.93359375,1077.8333333333333,66.8940625,1080.25,66.85453125000001C1082.6666666666667,66.81500000000001,1085.0833333333333,66.77546875,1087.5,66.7359375C1089.9166666666667,66.69640625000001,1092.3333333333333,66.656875,1094.75,66.61734375C1097.1666666666667,66.57781250000001,1099.5833333333333,66.53828125,1102,66.49875C1104.4166666666667,66.45921875,1106.8333333333333,66.4196875,1109.25,66.38015625C1111.6666666666667,66.340625,1114.0833333333333,66.30109374999999,1116.5,66.2615625C1118.9166666666667,66.22203125,1121.3333333333333,66.1825,1123.75,66.14296875000001C1126.1666666666667,66.10343750000001,1128.5833333333333,66.06390625,1131,66.024375C1133.4166666666667,65.98484375000001,1135.8333333333333,65.94531249999999,1138.25,65.90578124999999C1140.6666666666667,65.86625,1143.0833333333333,65.82671875,1145.5,65.7871875C1147.9166666666667,65.74765625,1150.3333333333333,65.708125,1152.75,65.66859375C1155.1666666666667,65.6290625,1157.5833333333333,65.6290625,1160,65.55000000000001C1162.4166666666667,65.47093750000002,1164.8333333333333,64.78333333333335,1167.25,64.4C1169.6666666666667,64.01666666666667,1172.0833333333333,63.63333333333334,1174.5,63.25000000000001C1176.9166666666667,62.866666666666674,1179.3333333333333,62.483333333333334,1181.75,62.1C1184.1666666666667,61.71666666666667,1186.5833333333333,61.333333333333336,1189,60.95C1191.4166666666667,60.56666666666667,1193.8333333333333,60.18333333333334,1196.25,59.800000000000004C1198.6666666666667,59.41666666666667,1201.0833333333333,59.03333333333333,1203.5,58.65C1205.9166666666667,58.266666666666666,1208.3333333333333,57.88333333333333,1210.75,57.5C1213.1666666666667,57.11666666666667,1215.5833333333333,56.733333333333334,1218,56.35C1220.4166666666667,55.96666666666667,1222.8333333333333,55.58333333333333,1225.25,55.199999999999996C1227.6666666666667,54.81666666666666,1230.0833333333333,54.43333333333333,1232.5,54.05C1234.9166666666667,53.666666666666664,1237.3333333333333,53.28333333333333,1239.75,52.9C1242.1666666666667,52.516666666666666,1244.5833333333333,52.133333333333326,1247,51.74999999999999C1249.4166666666667,51.36666666666666,1251.8333333333333,50.98333333333333,1254.25,50.599999999999994C1256.6666666666667,50.21666666666666,1259.0833333333333,49.83333333333333,1261.5,49.449999999999996C1263.9166666666667,49.06666666666666,1266.3333333333333,48.68333333333332,1268.75,48.29999999999999C1271.1666666666667,47.91666666666666,1273.5833333333333,47.53333333333334,1276,47.150000000000006C1278.4166666666667,46.76666666666667,1280.8333333333333,46.38333333333333,1283.25,46C1285.6666666666667,45.61666666666667,1288.0833333333333,45.233333333333334,1290.5,44.85C1292.9166666666667,44.46666666666667,1295.3333333333333,44.083333333333336,1297.75,43.7C1300.1666666666667,43.31666666666667,1302.5833333333333,42.93333333333333,1305,42.55C1307.4166666666667,42.166666666666664,1309.8333333333333,41.78333333333333,1312.25,41.4C1314.6666666666667,41.016666666666666,1317.0833333333333,40.63333333333333,1319.5,40.25C1321.9166666666667,39.86666666666667,1324.3333333333333,39.48333333333333,1326.75,39.099999999999994C1329.1666666666667,38.71666666666666,1331.5833333333333,38.33333333333333,1334,37.949999999999996C1336.4166666666667,37.56666666666666,1338.8333333333333,37.18333333333333,1341.25,36.8C1343.6666666666667,36.416666666666664,1346.0833333333333,36.033333333333324,1348.5,35.64999999999999C1350.9166666666667,35.26666666666666,1353.3333333333333,34.883333333333326,1355.75,34.49999999999999C1358.1666666666667,34.11666666666666,1360.5833333333333,33.733333333333334,1363,33.35C1365.4166666666667,32.96666666666667,1367.8333333333333,32.583333333333336,1370.25,32.2C1372.6666666666667,31.81666666666667,1375.0833333333333,31.433333333333334,1377.5,31.05C1379.9166666666667,30.666666666666668,1382.3333333333333,30.283333333333335,1384.75,29.900000000000002C1387.1666666666667,29.51666666666667,1389.5833333333333,29.133333333333333,1392,28.75C1394.4166666666667,28.366666666666667,1396.8333333333333,27.98333333333333,1399.25,27.599999999999998C1401.6666666666667,27.216666666666665,1404.0833333333333,26.833333333333332,1406.5,26.45C1408.9166666666667,26.066666666666666,1411.3333333333333,25.68333333333333,1413.75,25.299999999999997C1416.1666666666667,24.916666666666664,1418.5833333333333,24.533333333333328,1421,24.149999999999995C1423.4166666666667,23.766666666666662,1425.8333333333333,23.38333333333333,1428.25,22.999999999999996C1430.6666666666667,22.616666666666664,1433.0833333333333,22.233333333333338,1435.5,21.850000000000005C1437.9166666666667,21.466666666666672,1440.3333333333333,21.08333333333333,1442.75,20.699999999999992C1445.1666666666667,20.316666666666656,1447.5833333333333,19.933333333333323,1450,19.54999999999999" fill="transparent" stroke-linecap="round" stroke="#E7C6DF" stroke-width="2"></path><g class="visx-group visx-axis visx-axis-bottom" transform="translate(0, 115)"><g class="visx-group visx-axis-tick" transform="translate(0, 0)"><line class="visx-line" x1="0" y1="0" x2="0" y2="8" fill="transparent" shape-rendering="crispEdges" stroke="#000" stroke-width="0" stroke-linecap="square"></line><svg x="0" y="0" font-size="10" style="overflow:visible"><text transform="" x="0" y="18" fill="#000" font-size="10" text-anchor="middle"><tspan x="0" dy="0em">0%</tspan></text></svg></g><g class="visx-group visx-axis-tick" transform="translate(0, 0)"><line class="visx-line" x1="362.5" y1="0" x2="362.5" y2="8" fill="transparent" shape-rendering="crispEdges" stroke="#000" stroke-width="0" stroke-linecap="square"></line><svg x="0" y="0" font-size="10" style="overflow:visible"><text transform="" x="362.5" y="18" fill="#000" font-size="10" text-anchor="middle"><tspan x="362.5" dy="0em">25%</tspan></text></svg></g><g class="visx-group visx-axis-tick" transform="translate(0, 0)"><line class="visx-line" x1="725" y1="0" x2="725" y2="8" fill="transparent" shape-rendering="crispEdges" stroke="#000" stroke-width="0" stroke-linecap="square"></line><svg x="0" y="0" font-size="10" style="overflow:visible"><text transform="" x="725" y="18" fill="#000" font-size="10" text-anchor="middle"><tspan x="725" dy="0em">50%</tspan></text></svg></g><g class="visx-group visx-axis-tick" transform="translate(0, 0)"><line class="visx-line" x1="1087.5" y1="0" x2="1087.5" y2="8" fill="transparent" shape-rendering="crispEdges" stroke="#000" stroke-width="0" stroke-linecap="square"></line><svg x="0" y="0" font-size="10" style="overflow:visible"><text transform="" x="1087.5" y="18" fill="#000" font-size="10" text-anchor="middle"><tspan x="1087.5" dy="0em">75%</tspan></text></svg></g><g class="visx-group visx-axis-tick" transform="translate(0, 0)"><line class="visx-line" x1="1450" y1="0" x2="1450" y2="8" fill="transparent" shape-rendering="crispEdges" stroke="#000" stroke-width="0" stroke-linecap="square"></line><svg x="0" y="0" font-size="10" style="overflow:visible"><text transform="" x="1450" y="18" fill="#000" font-size="10" text-anchor="middle"><tspan x="1450" dy="0em">100%</tspan></text></svg></g><line class="visx-line visx-axis-line" x1="0.5" y1="0" x2="1450.5" y2="0" fill="transparent" shape-rendering="crispEdges" stroke="#222" stroke-width="0"></line></g><g class="visx-group visx-axis visx-axis-left" transform="translate(0, 0)"><g class="visx-group visx-axis-tick" transform="translate(0, 0)"><line class="visx-line" x1="0" y1="115" x2="-8" y2="115" fill="transparent" shape-rendering="crispEdges" stroke="#222" stroke-width="0" stroke-linecap="square"></line><svg x="-30" y="0" font-size="8" style="overflow:visible"><text transform="" x="-8" y="115" fill="#000" font-size="8" text-anchor="start"><tspan x="-8" dy="0em">0%</tspan></text></svg></g><g class="visx-group visx-axis-tick" transform="translate(0, 0)"><line class="visx-line" x1="0" y1="57.5" x2="-8" y2="57.5" fill="transparent" shape-rendering="crispEdges" stroke="#222" stroke-width="0" stroke-linecap="square"></line><svg x="-30" y="0" font-size="8" style="overflow:visible"><text transform="" x="-8" y="57.5" fill="#000" font-size="8" text-anchor="start"><tspan x="-8" dy="0em">10%</tspan></text></svg></g><g class="visx-group visx-axis-tick" transform="translate(0, 0)"><line class="visx-line" x1="0" y1="0" x2="-8" y2="0" fill="transparent" shape-rendering="crispEdges" stroke="#222" stroke-width="0" stroke-linecap="square"></line><svg x="-30" y="0" font-size="8" style="overflow:visible"><text transform="" x="-8" y="0" fill="#000" font-size="8" text-anchor="start"><tspan x="-8" dy="0em">20%</tspan></text></svg></g><line class="visx-line visx-axis-line" x1="0" y1="115.5" x2="0" y2="0.5" fill="transparent" shape-rendering="crispEdges" stroke="#222" stroke-width="0"></line></g><rect class="visx-bar" width="1450" height="115" fill="transparent"></rect><line class="visx-line" x1="1160" y1="28" x2="1160" y2="115" fill="transparent" shape-rendering="crispEdges" stroke="#0062D2" stroke-width="1" pointer-events="none" stroke-dasharray="5,2"></line><svg x="0" y="0" font-size="10px" style="overflow:visible"><text transform="" x="1160" y="20" font-size="10px" fill="#fff" stroke="#fff" stroke-width="0.8em" text-anchor="middle"><tspan x="1160" dy="0.355em">Optimal 80%</tspan></text></svg><svg x="0" y="0" font-size="10px" style="overflow:visible"><text transform="" x="1160" y="20" font-size="10px" fill="#62677B" text-anchor="middle"><tspan x="1160" dy="0.355em">Optimal 80%</tspan></text></svg></g></svg>