<?xml version="1.0"?><svg xmlns="http://www.w3.org/2000/svg" xmlns:xlink= "http://www.w3.org/1999/xlink" style="background: white;" width="1500" height="185"> <g style="color: black; font-size: 13px; font-family: sans-serif; transform: translate(18px, 25px);"><g><circle r="3" cx="-6" cy="-5" style="fill: #B6509E" /><text>Borrow APR, variable</text></g><g style="transform: translateX(150px);"><circle r="3" cx="-6" cy="-5" style="fill: rgb(231, 198, 223)" /><text>Borrow APR, stable</text></g><g style="transform: translateX(290px);"><circle r="3" cx="-6" cy="-5" style="fill: rgb(0, 98, 210)" /><text>Utilization Rate</text></g></g><g class="visx-group" transform="translate(40, 50)"><g class="visx-group visx-rows" transform="translate(0, 0)"><line class="visx-line" x1="0" y1="115" x2="1450" y2="115" fill="transparent" shape-rendering="crispEdges" stroke="#000" stroke-width="1" stroke-dasharray="3,3" pointer-events="none"></line><line class="visx-line" x1="0" y1="73.92857142857142" x2="1450" y2="73.92857142857142" fill="transparent" shape-rendering="crispEdges" stroke="#000" stroke-width="1" stroke-dasharray="3,3" pointer-events="none"></line><line class="visx-line" x1="0" y1="32.857142857142854" x2="1450" y2="32.857142857142854" fill="transparent" shape-rendering="crispEdges" stroke="#000" stroke-width="1" stroke-dasharray="3,3" pointer-events="none"></line></g><path class="visx-linepath" d="M0,114.9999999999526C2.4166666666666665,114.99210164832401,4.833333333333334,114.9842032966954,7.25,114.97630494505495C9.666666666666666,114.9684065934145,12.083333333333334,114.96050824175823,14.5,114.95260989010988C16.916666666666668,114.94471153846153,19.333333333333332,114.93681318681318,21.75,114.92891483516483C24.166666666666668,114.92101648351648,26.583333333333332,114.91311813186813,29,114.90521978021978C31.416666666666668,114.89732142857143,33.833333333333336,114.88942307692308,36.25,114.88152472527473C38.666666666666664,114.87362637362638,41.083333333333336,114.86572802197801,43.5,114.85782967032966C45.91666666666667,114.84993131868131,48.333333333333336,114.84203296703296,50.75000000000001,114.83413461538461C53.16666666666667,114.82623626373626,55.583333333333336,114.81833791208791,58,114.81043956043956C60.416666666666664,114.80254120879121,62.833333333333336,114.79464285714286,65.25,114.78674450549451C67.66666666666667,114.77884615384616,70.08333333333333,114.7709478021978,72.5,114.76304945054945C74.91666666666667,114.7551510989011,77.33333333333333,114.74725274725274,79.75,114.7393543956044C82.16666666666667,114.73145604395604,84.58333333333333,114.7235576923077,87,114.71565934065934C89.41666666666667,114.70776098901099,91.83333333333333,114.69986263736264,94.25,114.69196428571429C96.66666666666667,114.68406593406594,99.08333333333334,114.67616758241758,101.50000000000001,114.66826923076923C103.91666666666667,114.66037087912088,106.33333333333334,114.65247252747253,108.75,114.64457417582418C111.16666666666667,114.63667582417582,113.58333333333333,114.62877747252747,116,114.62087912087912C118.41666666666667,114.61298076923077,120.83333333333334,114.60508241758242,123.25000000000001,114.59718406593407C125.66666666666667,114.58928571428572,128.08333333333334,114.58138736263736,130.5,114.57348901098901C132.91666666666666,114.56559065934066,135.33333333333334,114.5576923076923,137.75,114.54979395604396C140.16666666666666,114.5418956043956,142.58333333333334,114.53399725274726,145,114.5260989010989C147.41666666666666,114.51820054945055,149.83333333333334,114.5103021978022,152.25,114.50240384615385C154.66666666666666,114.4945054945055,157.08333333333334,114.48660714285714,159.5,114.47870879120879C161.91666666666666,114.47081043956044,164.33333333333334,114.46291208791209,166.75,114.45501373626374C169.16666666666666,114.44711538461539,171.58333333333334,114.43921703296704,174,114.43131868131869C176.41666666666666,114.42342032967034,178.83333333333334,114.41552197802199,181.25,114.40762362637363C183.66666666666666,114.39972527472528,186.08333333333334,114.39182692307692,188.5,114.38392857142857C190.91666666666666,114.37603021978022,193.33333333333334,114.36813186813187,195.75,114.36023351648352C198.16666666666669,114.35233516483517,200.58333333333334,114.34443681318682,203.00000000000003,114.33653846153847C205.41666666666669,114.32864010989012,207.83333333333331,114.32074175824177,210.24999999999997,114.31284340659342C212.66666666666666,114.30494505494507,215.08333333333331,114.2970467032967,217.5,114.28914835164835C219.91666666666666,114.28125,222.33333333333334,114.27335164835165,224.75,114.2654532967033C227.16666666666666,114.25755494505495,229.58333333333334,114.2496565934066,232,114.24175824175825C234.41666666666666,114.2338598901099,236.83333333333334,114.22596153846153,239.25,114.21806318681318C241.66666666666669,114.21016483516483,244.08333333333334,114.20226648351648,246.50000000000003,114.19436813186813C248.91666666666669,114.18646978021978,251.33333333333331,114.17857142857143,253.74999999999997,114.17067307692308C256.16666666666663,114.16277472527473,258.5833333333333,114.15487637362638,261,114.14697802197803C263.4166666666667,114.13907967032968,265.8333333333333,114.13118131868131,268.25,114.12328296703296C270.6666666666667,114.11538461538461,273.0833333333333,114.10748626373626,275.5,114.09958791208791C277.9166666666667,114.09168956043956,280.3333333333333,114.08379120879121,282.75,114.07589285714286C285.1666666666667,114.06799450549451,287.5833333333333,114.06009615384616,290,114.05219780219781C292.4166666666667,114.04429945054946,294.8333333333333,114.0364010989011,297.25,114.02850274725274C299.6666666666667,114.0206043956044,302.0833333333333,114.01270604395604,304.5,114.0048076923077C306.9166666666667,113.99690934065934,309.3333333333333,113.98901098901099,311.75,113.98111263736264C314.1666666666667,113.97321428571429,316.5833333333333,113.96531593406594,319,113.95741758241759C321.4166666666667,113.94951923076924,323.8333333333333,113.94162087912088,326.25,113.93372252747253C328.6666666666667,113.92582417582418,331.0833333333333,113.91792582417582,333.5,113.91002747252747C335.9166666666667,113.90212912087912,338.3333333333333,113.89423076923077,340.75,113.88633241758242C343.1666666666667,113.87843406593407,345.5833333333333,113.87053571428572,348,113.86263736263737C350.4166666666667,113.85473901098902,352.8333333333333,113.84684065934066,355.25,113.8389423076923C357.6666666666667,113.83104395604396,360.0833333333333,113.8231456043956,362.5,113.81524725274726C364.9166666666667,113.8073489010989,367.3333333333333,113.79945054945055,369.75,113.7915521978022C372.1666666666667,113.78365384615385,374.5833333333333,113.7757554945055,377,113.76785714285715C379.4166666666667,113.7599587912088,381.8333333333333,113.75206043956044,384.25,113.74416208791209C386.6666666666667,113.73626373626374,389.0833333333333,113.72836538461539,391.5,113.72046703296704C393.9166666666667,113.71256868131869,396.33333333333337,113.70467032967034,398.75000000000006,113.69677197802199C401.16666666666674,113.68887362637363,403.58333333333337,113.68097527472528,406.00000000000006,113.67307692307693C408.4166666666667,113.66517857142858,410.8333333333333,113.65728021978022,413.24999999999994,113.64938186813187C415.66666666666663,113.64148351648352,418.08333333333326,113.63358516483517,420.49999999999994,113.62568681318682C422.91666666666663,113.61778846153847,425.3333333333333,113.60989010989012,427.75,113.60199175824177C430.1666666666667,113.59409340659342,432.5833333333333,113.58619505494507,435,113.57829670329672C437.4166666666667,113.57039835164836,439.8333333333333,113.5625,442.25,113.55460164835165C444.6666666666667,113.5467032967033,447.0833333333333,113.53880494505495,449.5,113.5309065934066C451.9166666666667,113.52300824175825,454.3333333333333,113.5151098901099,456.75,113.50721153846155C459.1666666666667,113.4993131868132,461.5833333333333,113.49141483516485,464,113.4835164835165C466.4166666666667,113.47561813186815,468.8333333333333,113.46771978021978,471.25,113.45982142857143C473.6666666666667,113.45192307692308,476.0833333333333,113.44402472527473,478.5,113.43612637362638C480.9166666666667,113.42822802197803,483.33333333333337,113.42032967032968,485.75000000000006,113.41243131868133C488.16666666666674,113.40453296703298,490.58333333333337,113.39663461538461,493.00000000000006,113.38873626373626C495.4166666666667,113.38083791208791,497.8333333333333,113.37293956043956,500.24999999999994,113.36504120879121C502.66666666666663,113.35714285714286,505.08333333333326,113.34924450549451,507.49999999999994,113.34134615384616C509.91666666666663,113.33344780219781,512.3333333333333,113.32554945054946,514.75,113.31765109890111C517.1666666666666,113.30975274725276,519.5833333333334,113.3018543956044,522,113.29395604395604C524.4166666666666,113.2860576923077,526.8333333333334,113.27815934065934,529.25,113.27026098901099C531.6666666666666,113.26236263736264,534.0833333333334,113.25446428571429,536.5,113.24656593406594C538.9166666666666,113.23866758241759,541.3333333333334,113.23076923076924,543.75,113.22287087912089C546.1666666666666,113.21497252747254,548.5833333333334,113.20707417582418,551,113.19917582417582C553.4166666666666,113.19127747252747,555.8333333333334,113.18337912087911,558.25,113.17548076923076C560.6666666666666,113.16758241758241,563.0833333333334,113.15968406593407,565.5,113.15178571428572C567.9166666666666,113.14388736263737,570.3333333333334,113.13598901098901,572.75,113.12809065934066C575.1666666666666,113.1201923076923,577.5833333333334,113.11229395604394,580,113.10439560439559C582.4166666666666,113.09649725274724,584.8333333333334,113.08859890109889,587.25,113.08070054945054C589.6666666666666,113.07280219780219,592.0833333333334,113.06490384615384,594.5,113.05700549450549C596.9166666666666,113.04910714285714,599.3333333333334,113.04120879120879,601.75,113.03331043956044C604.1666666666666,113.02541208791209,606.5833333333334,113.01751373626372,609,113.00961538461537C611.4166666666666,113.00171703296702,613.8333333333334,112.99381868131867,616.25,112.98592032967032C618.6666666666666,112.97802197802197,621.0833333333334,112.97012362637362,623.5,112.96222527472527C625.9166666666666,112.95432692307692,628.3333333333334,112.94642857142857,630.75,112.93853021978022C633.1666666666666,112.93063186813187,635.5833333333334,112.9227335164835,638,112.91483516483515C640.4166666666666,112.9069368131868,642.8333333333334,112.89903846153845,645.25,112.8911401098901C647.6666666666666,112.88324175824175,650.0833333333334,112.8753434065934,652.5,112.86744505494505C654.9166666666666,112.8595467032967,657.3333333333334,112.85164835164835,659.75,112.84375C662.1666666666666,112.83585164835165,664.5833333333334,112.82795329670328,667,112.82005494505493C669.4166666666666,112.81215659340658,671.8333333333334,112.80425824175823,674.25,112.79635989010988C676.6666666666666,112.78846153846153,679.0833333333334,112.78056318681318,681.5,112.77266483516483C683.9166666666666,112.76476648351648,686.3333333333334,112.75686813186813,688.75,112.74896978021978C691.1666666666666,112.74107142857143,693.5833333333334,112.73317307692307,696,112.72527472527472C698.4166666666666,112.71737637362637,700.8333333333334,112.70947802197801,703.25,112.70157967032966C705.6666666666666,112.69368131868131,708.0833333333334,112.68578296703296,710.5,112.67788461538461C712.9166666666666,112.66998626373626,715.3333333333334,112.66208791208791,717.75,112.65418956043956C720.1666666666666,112.64629120879121,722.5833333333334,112.63839285714285,725,112.6304945054945C727.4166666666666,112.62259615384615,729.8333333333334,112.6146978021978,732.25,112.60679945054945C734.6666666666666,112.5989010989011,737.0833333333334,112.59100274725274,739.5,112.5831043956044C741.9166666666666,112.57520604395604,744.3333333333334,112.5673076923077,746.75,112.55940934065934C749.1666666666666,112.55151098901099,751.5833333333334,112.55151098901099,754,112.53571428571428C756.4166666666666,112.51991758241756,758.8333333333334,111.86259920634922,761.25,111.52604166666667C763.6666666666666,111.18948412698413,766.0833333333334,110.8529265873016,768.5,110.51636904761905C770.9166666666666,110.1798115079365,773.3333333333334,109.84325396825398,775.75,109.50669642857143C778.1666666666666,109.17013888888889,780.5833333333334,108.83358134920634,783,108.49702380952381C785.4166666666667,108.16046626984127,787.8333333333334,107.82390873015873,790.2500000000001,107.48735119047619C792.6666666666667,107.15079365079366,795.0833333333335,106.81423611111111,797.5000000000001,106.47767857142857C799.9166666666667,106.14112103174602,802.3333333333335,105.8045634920635,804.7500000000001,105.46800595238095C807.1666666666667,105.1314484126984,809.5833333333335,104.79489087301587,812.0000000000001,104.45833333333333C814.4166666666667,104.1217757936508,816.8333333333333,103.78521825396824,819.2499999999999,103.44866071428571C821.6666666666665,103.11210317460316,824.0833333333333,102.77554563492063,826.4999999999999,102.43898809523809C828.9166666666665,102.10243055555554,831.3333333333333,101.76587301587301,833.7499999999999,101.42931547619048C836.1666666666665,101.09275793650795,838.5833333333333,100.75620039682539,840.9999999999999,100.41964285714286C843.4166666666666,100.08308531746032,845.8333333333333,99.74652777777779,848.25,99.40997023809524C850.6666666666666,99.07341269841271,853.0833333333334,98.73685515873017,855.5,98.40029761904762C857.9166666666666,98.06374007936508,860.3333333333334,97.72718253968254,862.75,97.390625C865.1666666666666,97.05406746031746,867.5833333333334,96.71750992063492,870,96.38095238095238C872.4166666666666,96.04439484126983,874.8333333333334,95.70783730158729,877.25,95.37127976190476C879.6666666666666,95.03472222222223,882.0833333333334,94.6981646825397,884.5,94.36160714285715C886.9166666666666,94.02504960317461,889.3333333333334,93.68849206349206,891.75,93.35193452380952C894.1666666666666,93.01537698412697,896.5833333333334,92.67881944444446,899,92.34226190476191C901.4166666666666,92.00570436507937,903.8333333333334,91.66914682539684,906.25,91.33258928571429C908.6666666666666,90.99603174603175,911.0833333333334,90.65947420634922,913.5,90.32291666666667C915.9166666666666,89.98635912698413,918.3333333333334,89.6498015873016,920.75,89.31324404761905C923.1666666666666,88.9766865079365,925.5833333333334,88.64012896825396,928,88.30357142857142C930.4166666666666,87.96701388888887,932.8333333333334,87.63045634920636,935.25,87.29389880952381C937.6666666666666,86.95734126984127,940.0833333333334,86.62078373015873,942.5,86.28422619047619C944.9166666666666,85.94766865079364,947.3333333333334,85.61111111111111,949.75,85.27455357142857C952.1666666666666,84.93799603174602,954.5833333333334,84.60143849206351,957,84.26488095238096C959.4166666666666,83.92832341269842,961.8333333333334,83.59176587301586,964.25,83.25520833333333C966.6666666666667,82.91865079365078,969.0833333333334,82.58209325396827,971.5000000000001,82.24553571428572C973.9166666666667,81.90897817460319,976.3333333333335,81.57242063492063,978.7500000000001,81.23586309523809C981.1666666666667,80.89930555555554,983.5833333333335,80.56274801587301,986.0000000000001,80.22619047619047C988.4166666666667,79.88963293650792,990.8333333333335,79.5530753968254,993.2500000000001,79.21651785714286C995.6666666666667,78.87996031746033,998.0833333333333,78.54340277777776,1000.4999999999999,78.20684523809523C1002.9166666666665,77.87028769841268,1005.3333333333333,77.53373015873015,1007.7499999999999,77.19717261904762C1010.1666666666665,76.86061507936509,1012.5833333333333,76.52405753968254,1014.9999999999999,76.1875C1017.4166666666665,75.85094246031746,1019.8333333333333,75.51438492063491,1022.2499999999999,75.17782738095238C1024.6666666666665,74.84126984126983,1027.0833333333333,74.50471230158732,1029.5,74.16815476190477C1031.9166666666667,73.83159722222224,1034.3333333333333,73.49503968253968,1036.75,73.15848214285714C1039.1666666666667,72.8219246031746,1041.5833333333333,72.48536706349205,1044,72.14880952380952C1046.4166666666667,71.81225198412699,1048.8333333333333,71.47569444444446,1051.25,71.13913690476191C1053.6666666666667,70.80257936507937,1056.0833333333333,70.46602182539682,1058.5,70.12946428571428C1060.9166666666667,69.79290674603173,1063.3333333333333,69.4563492063492,1065.75,69.11979166666667C1068.1666666666667,68.78323412698414,1070.5833333333333,68.44667658730161,1073,68.11011904761907C1075.4166666666667,67.77356150793652,1077.8333333333333,67.43700396825398,1080.25,67.10044642857143C1082.6666666666667,66.76388888888889,1085.0833333333333,66.42733134920636,1087.5,66.09077380952381C1089.9166666666667,65.75421626984127,1092.3333333333333,65.41765873015873,1094.75,65.08110119047619C1097.1666666666667,64.74454365079364,1099.5833333333333,64.40798611111111,1102,64.07142857142857C1104.4166666666667,63.734871031746025,1106.8333333333333,63.39831349206348,1109.25,63.06175595238094C1111.6666666666667,62.725198412698404,1114.0833333333333,62.388640873015866,1116.5,62.05208333333333C1118.9166666666667,61.71552579365079,1121.3333333333333,61.37896825396826,1123.75,61.04241071428572C1126.1666666666667,60.705853174603185,1128.5833333333333,60.36929563492063,1131,60.03273809523809C1133.4166666666667,59.69618055555554,1135.8333333333333,59.35962301587301,1138.25,59.023065476190474C1140.6666666666667,58.68650793650794,1143.0833333333333,58.34995039682539,1145.5,58.013392857142854C1147.9166666666667,57.676835317460316,1150.3333333333333,57.34027777777777,1152.75,57.003720238095234C1155.1666666666667,56.667162698412696,1157.5833333333333,56.33060515873015,1160,55.99404761904761C1162.4166666666667,55.657490079365076,1164.8333333333333,55.32093253968254,1167.25,54.984375C1169.6666666666667,54.64781746031746,1172.0833333333333,54.31125992063492,1174.5,53.97470238095238C1176.9166666666667,53.63814484126984,1179.3333333333333,53.3015873015873,1181.75,52.96502976190476C1184.1666666666667,52.62847222222222,1186.5833333333333,52.29191468253968,1189,51.95535714285714C1191.4166666666667,51.6187996031746,1193.8333333333333,51.28224206349206,1196.25,50.94568452380952C1198.6666666666667,50.60912698412697,1201.0833333333333,50.27256944444443,1203.5,49.93601190476189C1205.9166666666667,49.59945436507935,1208.3333333333333,49.26289682539682,1210.75,48.926339285714285C1213.1666666666667,48.58978174603175,1215.5833333333333,48.2532242063492,1218,47.916666666666664C1220.4166666666667,47.58010912698413,1222.8333333333333,47.24355158730159,1225.25,46.90699404761905C1227.6666666666667,46.57043650793651,1230.0833333333333,46.23387896825397,1232.5,45.89732142857143C1234.9166666666667,45.56076388888889,1237.3333333333333,45.22420634920636,1239.75,44.887648809523824C1242.1666666666667,44.55109126984129,1244.5833333333333,44.21453373015875,1247,43.877976190476204C1249.4166666666667,43.54141865079366,1251.8333333333333,43.204861111111114,1254.25,42.86830357142857C1256.6666666666667,42.531746031746025,1259.0833333333333,42.195188492063494,1261.5,41.858630952380956C1263.9166666666667,41.52207341269842,1266.3333333333333,41.18551587301587,1268.75,40.848958333333336C1271.1666666666667,40.5124007936508,1273.5833333333333,40.17584325396825,1276,39.839285714285715C1278.4166666666667,39.50272817460318,1280.8333333333333,39.16617063492064,1283.25,38.8296130952381C1285.6666666666667,38.493055555555564,1288.0833333333333,38.15649801587302,1290.5,37.81994047619048C1292.9166666666667,37.483382936507944,1295.3333333333333,37.1468253968254,1297.75,36.81026785714286C1300.1666666666667,36.47371031746032,1302.5833333333333,36.137152777777786,1305,35.80059523809525C1307.4166666666667,35.46403769841271,1309.8333333333333,35.12748015873016,1312.25,34.79092261904761C1314.6666666666667,34.45436507936507,1317.0833333333333,34.11780753968253,1319.5,33.78124999999999C1321.9166666666667,33.444692460317455,1324.3333333333333,33.108134920634924,1326.75,32.77157738095239C1329.1666666666667,32.43501984126985,1331.5833333333333,32.09846230158729,1334,31.761904761904752C1336.4166666666667,31.42534722222221,1338.8333333333333,31.08878968253968,1341.25,30.752232142857142C1343.6666666666667,30.415674603174605,1346.0833333333333,30.079117063492074,1348.5,29.742559523809533C1350.9166666666667,29.40600198412699,1353.3333333333333,29.06944444444444,1355.75,28.732886904761898C1358.1666666666667,28.396329365079357,1360.5833333333333,28.059771825396826,1363,27.72321428571429C1365.4166666666667,27.38665674603175,1367.8333333333333,27.05009920634922,1370.25,26.71354166666668C1372.6666666666667,26.376984126984137,1375.0833333333333,26.040426587301585,1377.5,25.703869047619044C1379.9166666666667,25.367311507936503,1382.3333333333333,25.03075396825396,1384.75,24.694196428571423C1387.1666666666667,24.357638888888886,1389.5833333333333,24.021081349206355,1392,23.684523809523814C1394.4166666666667,23.347966269841272,1396.8333333333333,23.01140873015872,1399.25,22.67485119047618C1401.6666666666667,22.338293650793638,1404.0833333333333,22.001736111111104,1406.5,21.66517857142857C1408.9166666666667,21.328621031746035,1411.3333333333333,20.992063492063505,1413.75,20.655505952380963C1416.1666666666667,20.318948412698422,1418.5833333333333,19.98239087301587,1421,19.64583333333333C1423.4166666666667,19.309275793650787,1425.8333333333333,18.972718253968257,1428.25,18.63616071428572C1430.6666666666667,18.29960317460318,1433.0833333333333,17.96304563492065,1435.5,17.62648809523811C1437.9166666666667,17.289930555555568,1440.3333333333333,16.953373015873016,1442.75,16.616815476190474C1445.1666666666667,16.280257936507933,1447.5833333333333,15.943700396825392,1450,15.607142857142852" fill="transparent" stroke-linecap="round" stroke="#B6509E" stroke-width="2"></path><path class="visx-linepath" d="M0,110.89285714284135C2.4166666666666665,110.89022435896514,4.833333333333334,110.88759157508893,7.25,110.88495879120879C9.666666666666666,110.88232600732864,12.083333333333334,110.87969322344323,14.5,110.87706043956044C16.916666666666668,110.87442765567765,19.333333333333332,110.87179487179488,21.75,110.86916208791209C24.166666666666668,110.8665293040293,26.583333333333332,110.86389652014653,29,110.86126373626374C31.416666666666668,110.85863095238095,33.833333333333336,110.85599816849818,36.25,110.85336538461539C38.666666666666664,110.8507326007326,41.083333333333336,110.84809981684982,43.5,110.84546703296704C45.91666666666667,110.84283424908425,48.333333333333336,110.84020146520147,50.75000000000001,110.83756868131869C53.16666666666667,110.8349358974359,55.583333333333336,110.83230311355312,58,110.82967032967034C60.416666666666664,110.82703754578755,62.833333333333336,110.82440476190477,65.25,110.82177197802199C67.66666666666667,110.8191391941392,70.08333333333333,110.81650641025642,72.5,110.81387362637363C74.91666666666667,110.81124084249085,77.33333333333333,110.80860805860806,79.75,110.80597527472527C82.16666666666667,110.80334249084248,84.58333333333333,110.80070970695971,87,110.79807692307692C89.41666666666667,110.79544413919413,91.83333333333333,110.79281135531136,94.25,110.79017857142857C96.66666666666667,110.78754578754578,99.08333333333334,110.78491300366301,101.50000000000001,110.78228021978022C103.91666666666667,110.77964743589743,106.33333333333334,110.77701465201466,108.75,110.77438186813187C111.16666666666667,110.77174908424908,113.58333333333333,110.7691163003663,116,110.76648351648352C118.41666666666667,110.76385073260073,120.83333333333334,110.76121794871796,123.25000000000001,110.75858516483517C125.66666666666667,110.75595238095238,128.08333333333334,110.7533195970696,130.5,110.75068681318682C132.91666666666666,110.74805402930403,135.33333333333334,110.74542124542126,137.75,110.74278846153847C140.16666666666666,110.74015567765568,142.58333333333334,110.7375228937729,145,110.73489010989012C147.41666666666666,110.73225732600733,149.83333333333334,110.72962454212455,152.25,110.72699175824177C154.66666666666666,110.72435897435898,157.08333333333334,110.7217261904762,159.5,110.71909340659342C161.91666666666666,110.71646062271063,164.33333333333334,110.71382783882784,166.75,110.71119505494505C169.16666666666666,110.70856227106226,171.58333333333334,110.70592948717949,174,110.7032967032967C176.41666666666666,110.70066391941391,178.83333333333334,110.69803113553114,181.25,110.69539835164835C183.66666666666666,110.69276556776556,186.08333333333334,110.69013278388279,188.5,110.6875C190.91666666666666,110.68486721611721,193.33333333333334,110.68223443223444,195.75,110.67960164835165C198.16666666666669,110.67696886446886,200.58333333333334,110.67433608058609,203.00000000000003,110.6717032967033C205.41666666666669,110.66907051282051,207.83333333333331,110.66643772893774,210.24999999999997,110.66380494505495C212.66666666666666,110.66117216117216,215.08333333333331,110.65853937728939,217.5,110.6559065934066C219.91666666666666,110.65327380952381,222.33333333333334,110.65064102564104,224.75,110.64800824175825C227.16666666666666,110.64537545787546,229.58333333333334,110.64274267399269,232,110.6401098901099C234.41666666666666,110.63747710622711,236.83333333333334,110.63484432234434,239.25,110.63221153846155C241.66666666666669,110.62957875457876,244.08333333333334,110.62694597069597,246.50000000000003,110.62431318681318C248.91666666666669,110.6216804029304,251.33333333333331,110.61904761904762,253.74999999999997,110.61641483516483C256.16666666666663,110.61378205128204,258.5833333333333,110.61114926739927,261,110.60851648351648C263.4166666666667,110.6058836996337,265.8333333333333,110.60325091575092,268.25,110.60061813186813C270.6666666666667,110.59798534798534,273.0833333333333,110.59535256410257,275.5,110.59271978021978C277.9166666666667,110.59008699633699,280.3333333333333,110.58745421245422,282.75,110.58482142857143C285.1666666666667,110.58218864468864,287.5833333333333,110.57955586080587,290,110.57692307692308C292.4166666666667,110.57429029304029,294.8333333333333,110.57165750915752,297.25,110.56902472527473C299.6666666666667,110.56639194139194,302.0833333333333,110.56375915750917,304.5,110.56112637362638C306.9166666666667,110.55849358974359,309.3333333333333,110.55586080586082,311.75,110.55322802197803C314.1666666666667,110.55059523809524,316.5833333333333,110.54796245421247,319,110.54532967032968C321.4166666666667,110.54269688644689,323.8333333333333,110.54006410256412,326.25,110.53743131868133C328.6666666666667,110.53479853479854,331.0833333333333,110.53216575091575,333.5,110.52953296703296C335.9166666666667,110.52690018315018,338.3333333333333,110.5242673992674,340.75,110.52163461538461C343.1666666666667,110.51900183150182,345.5833333333333,110.51636904761905,348,110.51373626373626C350.4166666666667,110.51110347985347,352.8333333333333,110.5084706959707,355.25,110.50583791208791C357.6666666666667,110.50320512820512,360.0833333333333,110.50057234432235,362.5,110.49793956043956C364.9166666666667,110.49530677655677,367.3333333333333,110.492673992674,369.75,110.49004120879121C372.1666666666667,110.48740842490842,374.5833333333333,110.48477564102565,377,110.48214285714286C379.4166666666667,110.47951007326007,381.8333333333333,110.4768772893773,384.25,110.47424450549451C386.6666666666667,110.47161172161172,389.0833333333333,110.46897893772895,391.5,110.46634615384616C393.9166666666667,110.46371336996337,396.33333333333337,110.4610805860806,398.75000000000006,110.45844780219781C401.16666666666674,110.45581501831502,403.58333333333337,110.45318223443225,406.00000000000006,110.45054945054946C408.4166666666667,110.44791666666667,410.8333333333333,110.4452838827839,413.24999999999994,110.44265109890111C415.66666666666663,110.44001831501832,418.08333333333326,110.43738553113553,420.49999999999994,110.43475274725274C422.91666666666663,110.43211996336996,425.3333333333333,110.42948717948718,427.75,110.4268543956044C430.1666666666667,110.4242216117216,432.5833333333333,110.42158882783883,435,110.41895604395604C437.4166666666667,110.41632326007326,439.8333333333333,110.41369047619048,442.25,110.4110576923077C444.6666666666667,110.4084249084249,447.0833333333333,110.40579212454213,449.5,110.40315934065934C451.9166666666667,110.40052655677655,454.3333333333333,110.39789377289378,456.75,110.39526098901099C459.1666666666667,110.3926282051282,461.5833333333333,110.38999542124543,464,110.38736263736264C466.4166666666667,110.38472985347985,468.8333333333333,110.38209706959708,471.25,110.37946428571429C473.6666666666667,110.3768315018315,476.0833333333333,110.37419871794873,478.5,110.37156593406594C480.9166666666667,110.36893315018315,483.33333333333337,110.36630036630038,485.75000000000006,110.36366758241759C488.16666666666674,110.3610347985348,490.58333333333337,110.35840201465203,493.00000000000006,110.35576923076924C495.4166666666667,110.35313644688645,497.8333333333333,110.35050366300366,500.24999999999994,110.34787087912088C502.66666666666663,110.34523809523809,505.08333333333326,110.34260531135531,507.49999999999994,110.33997252747253C509.91666666666663,110.33733974358974,512.3333333333333,110.33470695970696,514.75,110.33207417582418C517.1666666666666,110.32944139194139,519.5833333333334,110.32680860805861,522,110.32417582417582C524.4166666666666,110.32154304029304,526.8333333333334,110.31891025641026,529.25,110.31627747252747C531.6666666666666,110.31364468864469,534.0833333333334,110.31101190476191,536.5,110.30837912087912C538.9166666666666,110.30574633699634,541.3333333333334,110.30311355311356,543.75,110.30048076923077C546.1666666666666,110.29784798534799,548.5833333333334,110.29521520146521,551,110.29258241758242C553.4166666666666,110.28994963369964,555.8333333333334,110.28731684981686,558.25,110.28468406593407C560.6666666666666,110.28205128205128,563.0833333333334,110.27941849816851,565.5,110.27678571428572C567.9166666666666,110.27415293040293,570.3333333333334,110.27152014652016,572.75,110.26888736263737C575.1666666666666,110.26625457875458,577.5833333333334,110.26362179487181,580,110.26098901098902C582.4166666666666,110.25835622710623,584.8333333333334,110.25572344322345,587.25,110.25309065934066C589.6666666666666,110.25045787545787,592.0833333333334,110.2478250915751,594.5,110.2451923076923C596.9166666666666,110.24255952380952,599.3333333333334,110.23992673992674,601.75,110.23729395604396C604.1666666666666,110.23466117216117,606.5833333333334,110.2320283882784,609,110.2293956043956C611.4166666666666,110.22676282051282,613.8333333333334,110.22413003663004,616.25,110.22149725274726C618.6666666666666,110.21886446886447,621.0833333333334,110.2162316849817,623.5,110.2135989010989C625.9166666666666,110.21096611721612,628.3333333333334,110.20833333333334,630.75,110.20570054945055C633.1666666666666,110.20306776556777,635.5833333333334,110.20043498168499,638,110.1978021978022C640.4166666666666,110.19516941391942,642.8333333333334,110.19253663003664,645.25,110.18990384615385C647.6666666666666,110.18727106227107,650.0833333333334,110.18463827838829,652.5,110.1820054945055C654.9166666666666,110.17937271062272,657.3333333333334,110.17673992673994,659.75,110.17410714285715C662.1666666666666,110.17147435897436,664.5833333333334,110.16884157509159,667,110.1662087912088C669.4166666666666,110.16357600732601,671.8333333333334,110.16094322344323,674.25,110.15831043956044C676.6666666666666,110.15567765567765,679.0833333333334,110.15304487179488,681.5,110.15041208791209C683.9166666666666,110.1477793040293,686.3333333333334,110.14514652014653,688.75,110.14251373626374C691.1666666666666,110.13988095238095,693.5833333333334,110.13724816849818,696,110.13461538461539C698.4166666666666,110.1319826007326,700.8333333333334,110.12934981684982,703.25,110.12671703296704C705.6666666666666,110.12408424908425,708.0833333333334,110.12145146520147,710.5,110.11881868131869C712.9166666666666,110.1161858974359,715.3333333333334,110.11355311355312,717.75,110.11092032967034C720.1666666666666,110.10828754578755,722.5833333333334,110.10565476190477,725,110.10302197802199C727.4166666666666,110.1003891941392,729.8333333333334,110.09775641025642,732.25,110.09512362637363C734.6666666666666,110.09249084249085,737.0833333333334,110.08985805860807,739.5,110.08722527472528C741.9166666666666,110.0845924908425,744.3333333333334,110.08195970695972,746.75,110.07932692307693C749.1666666666666,110.07669413919415,751.5833333333334,110.07669413919415,754,110.07142857142857C756.4166666666666,110.066163003663,758.8333333333334,109.85751488095238,761.25,109.75055803571429C763.6666666666666,109.6436011904762,766.0833333333334,109.5366443452381,768.5,109.4296875C770.9166666666666,109.3227306547619,773.3333333333334,109.21577380952382,775.75,109.10881696428572C778.1666666666666,109.00186011904762,780.5833333333334,108.89490327380953,783,108.78794642857143C785.4166666666667,108.68098958333333,787.8333333333334,108.57403273809524,790.2500000000001,108.46707589285714C792.6666666666667,108.36011904761904,795.0833333333335,108.25316220238093,797.5000000000001,108.14620535714285C799.9166666666667,108.03924851190476,802.3333333333335,107.93229166666666,804.7500000000001,107.82533482142857C807.1666666666667,107.71837797619048,809.5833333333335,107.6114211309524,812.0000000000001,107.50446428571429C814.4166666666667,107.3975074404762,816.8333333333333,107.29055059523809,819.2499999999999,107.18359375C821.6666666666665,107.0766369047619,824.0833333333333,106.96968005952382,826.4999999999999,106.86272321428572C828.9166666666665,106.75576636904762,831.3333333333333,106.64880952380953,833.7499999999999,106.54185267857143C836.1666666666665,106.43489583333333,838.5833333333333,106.32793898809524,840.9999999999999,106.22098214285714C843.4166666666666,106.11402529761904,845.8333333333333,106.00706845238095,848.25,105.90011160714285C850.6666666666666,105.79315476190476,853.0833333333334,105.68619791666666,855.5,105.57924107142857C857.9166666666666,105.47228422619048,860.3333333333334,105.36532738095238,862.75,105.25837053571429C865.1666666666666,105.1514136904762,867.5833333333334,105.0444568452381,870,104.9375C872.4166666666666,104.8305431547619,874.8333333333334,104.72358630952382,877.25,104.61662946428572C879.6666666666666,104.50967261904762,882.0833333333334,104.40271577380953,884.5,104.29575892857143C886.9166666666666,104.18880208333333,889.3333333333334,104.08184523809524,891.75,103.97488839285714C894.1666666666666,103.86793154761904,896.5833333333334,103.76097470238093,899,103.65401785714285C901.4166666666666,103.54706101190476,903.8333333333334,103.44010416666666,906.25,103.33314732142857C908.6666666666666,103.22619047619048,911.0833333333334,103.11923363095238,913.5,103.01227678571429C915.9166666666666,102.9053199404762,918.3333333333334,102.7983630952381,920.75,102.69140625C923.1666666666666,102.5844494047619,925.5833333333334,102.47749255952382,928,102.37053571428572C930.4166666666666,102.26357886904762,932.8333333333334,102.15662202380953,935.25,102.04966517857143C937.6666666666666,101.94270833333333,940.0833333333334,101.83575148809524,942.5,101.72879464285714C944.9166666666666,101.62183779761904,947.3333333333334,101.51488095238093,949.75,101.40792410714285C952.1666666666666,101.30096726190476,954.5833333333334,101.19401041666666,957,101.08705357142857C959.4166666666666,100.98009672619048,961.8333333333334,100.87313988095238,964.25,100.76618303571429C966.6666666666667,100.65922619047619,969.0833333333334,100.5522693452381,971.5000000000001,100.4453125C973.9166666666667,100.33835565476191,976.3333333333335,100.23139880952382,978.7500000000001,100.12444196428572C981.1666666666667,100.01748511904762,983.5833333333335,99.91052827380953,986.0000000000001,99.80357142857143C988.4166666666667,99.69661458333333,990.8333333333335,99.58965773809524,993.2500000000001,99.48270089285714C995.6666666666667,99.37574404761904,998.0833333333333,99.26878720238093,1000.4999999999999,99.16183035714285C1002.9166666666665,99.05487351190474,1005.3333333333333,98.94791666666666,1007.7499999999999,98.84095982142857C1010.1666666666665,98.73400297619048,1012.5833333333333,98.62704613095238,1014.9999999999999,98.52008928571429C1017.4166666666665,98.4131324404762,1019.8333333333333,98.30617559523809,1022.2499999999999,98.19921875C1024.6666666666665,98.0922619047619,1027.0833333333333,97.98530505952382,1029.5,97.87834821428572C1031.9166666666667,97.77139136904763,1034.3333333333333,97.66443452380953,1036.75,97.55747767857143C1039.1666666666667,97.45052083333333,1041.5833333333333,97.34356398809524,1044,97.23660714285714C1046.4166666666667,97.12965029761904,1048.8333333333333,97.02269345238093,1051.25,96.91573660714285C1053.6666666666667,96.80877976190476,1056.0833333333333,96.70182291666666,1058.5,96.59486607142857C1060.9166666666667,96.48790922619048,1063.3333333333333,96.38095238095238,1065.75,96.27399553571429C1068.1666666666667,96.1670386904762,1070.5833333333333,96.0600818452381,1073,95.953125C1075.4166666666667,95.8461681547619,1077.8333333333333,95.73921130952382,1080.25,95.63225446428572C1082.6666666666667,95.52529761904762,1085.0833333333333,95.41834077380953,1087.5,95.31138392857143C1089.9166666666667,95.20442708333333,1092.3333333333333,95.09747023809524,1094.75,94.99051339285714C1097.1666666666667,94.88355654761904,1099.5833333333333,94.77659970238093,1102,94.66964285714285C1104.4166666666667,94.56268601190476,1106.8333333333333,94.45572916666666,1109.25,94.34877232142857C1111.6666666666667,94.24181547619048,1114.0833333333333,94.13485863095238,1116.5,94.02790178571429C1118.9166666666667,93.9209449404762,1121.3333333333333,93.8139880952381,1123.75,93.70703125C1126.1666666666667,93.6000744047619,1128.5833333333333,93.49311755952382,1131,93.38616071428572C1133.4166666666667,93.27920386904762,1135.8333333333333,93.17224702380953,1138.25,93.06529017857143C1140.6666666666667,92.95833333333333,1143.0833333333333,92.85137648809524,1145.5,92.74441964285714C1147.9166666666667,92.63746279761904,1150.3333333333333,92.53050595238093,1152.75,92.42354910714285C1155.1666666666667,92.31659226190476,1157.5833333333333,92.20963541666666,1160,92.10267857142857C1162.4166666666667,91.99572172619048,1164.8333333333333,91.88876488095238,1167.25,91.78180803571429C1169.6666666666667,91.6748511904762,1172.0833333333333,91.5678943452381,1174.5,91.4609375C1176.9166666666667,91.3539806547619,1179.3333333333333,91.24702380952382,1181.75,91.14006696428572C1184.1666666666667,91.03311011904762,1186.5833333333333,90.92615327380953,1189,90.81919642857143C1191.4166666666667,90.71223958333333,1193.8333333333333,90.60528273809524,1196.25,90.49832589285714C1198.6666666666667,90.39136904761904,1201.0833333333333,90.28441220238093,1203.5,90.17745535714285C1205.9166666666667,90.07049851190476,1208.3333333333333,89.96354166666666,1210.75,89.85658482142857C1213.1666666666667,89.74962797619048,1215.5833333333333,89.64267113095238,1218,89.53571428571429C1220.4166666666667,89.4287574404762,1222.8333333333333,89.3218005952381,1225.25,89.21484375C1227.6666666666667,89.1078869047619,1230.0833333333333,89.00093005952382,1232.5,88.89397321428572C1234.9166666666667,88.78701636904762,1237.3333333333333,88.68005952380953,1239.75,88.57310267857143C1242.1666666666667,88.46614583333333,1244.5833333333333,88.35918898809524,1247,88.25223214285714C1249.4166666666667,88.14527529761904,1251.8333333333333,88.03831845238093,1254.25,87.93136160714285C1256.6666666666667,87.82440476190476,1259.0833333333333,87.71744791666666,1261.5,87.61049107142857C1263.9166666666667,87.50353422619048,1266.3333333333333,87.39657738095238,1268.75,87.28962053571429C1271.1666666666667,87.1826636904762,1273.5833333333333,87.0757068452381,1276,86.96875C1278.4166666666667,86.8617931547619,1280.8333333333333,86.75483630952382,1283.25,86.64787946428572C1285.6666666666667,86.54092261904762,1288.0833333333333,86.43396577380953,1290.5,86.32700892857143C1292.9166666666667,86.22005208333333,1295.3333333333333,86.11309523809524,1297.75,86.00613839285714C1300.1666666666667,85.89918154761904,1302.5833333333333,85.79222470238093,1305,85.68526785714285C1307.4166666666667,85.57831101190476,1309.8333333333333,85.47135416666666,1312.25,85.36439732142857C1314.6666666666667,85.25744047619048,1317.0833333333333,85.15048363095238,1319.5,85.04352678571429C1321.9166666666667,84.9365699404762,1324.3333333333333,84.8296130952381,1326.75,84.72265625C1329.1666666666667,84.6156994047619,1331.5833333333333,84.50874255952382,1334,84.40178571428572C1336.4166666666667,84.29482886904762,1338.8333333333333,84.18787202380953,1341.25,84.08091517857143C1343.6666666666667,83.97395833333333,1346.0833333333333,83.86700148809524,1348.5,83.76004464285714C1350.9166666666667,83.65308779761904,1353.3333333333333,83.54613095238093,1355.75,83.43917410714285C1358.1666666666667,83.33221726190476,1360.5833333333333,83.22526041666666,1363,83.11830357142857C1365.4166666666667,83.01134672619048,1367.8333333333333,82.90438988095238,1370.25,82.79743303571429C1372.6666666666667,82.6904761904762,1375.0833333333333,82.5835193452381,1377.5,82.4765625C1379.9166666666667,82.3696056547619,1382.3333333333333,82.26264880952382,1384.75,82.15569196428572C1387.1666666666667,82.04873511904762,1389.5833333333333,81.94177827380953,1392,81.83482142857143C1394.4166666666667,81.72786458333333,1396.8333333333333,81.62090773809524,1399.25,81.51395089285714C1401.6666666666667,81.40699404761904,1404.0833333333333,81.30003720238093,1406.5,81.19308035714285C1408.9166666666667,81.08612351190476,1411.3333333333333,80.97916666666666,1413.75,80.87220982142857C1416.1666666666667,80.76525297619048,1418.5833333333333,80.65829613095238,1421,80.55133928571429C1423.4166666666667,80.4443824404762,1425.8333333333333,80.3374255952381,1428.25,80.23046875C1430.6666666666667,80.1235119047619,1433.0833333333333,80.01655505952382,1435.5,79.90959821428572C1437.9166666666667,79.80264136904762,1440.3333333333333,79.69568452380953,1442.75,79.58872767857143C1445.1666666666667,79.48177083333333,1447.5833333333333,79.37481398809524,1450,79.26785714285714" fill="transparent" stroke-linecap="round" stroke="#E7C6DF" stroke-width="2"></path><g class="visx-group visx-axis visx-axis-bottom" transform="translate(0, 115)"><g class="visx-group visx-axis-tick" transform="translate(0, 0)"><line class="visx-line" x1="0" y1="0" x2="0" y2="8" fill="transparent" shape-rendering="crispEdges" stroke="#000" stroke-width="0" stroke-linecap="square"></line><svg x="0" y="0" font-size="10" style="overflow:visible"><text transform="" x="0" y="18" fill="#000" font-size="10" text-anchor="middle"><tspan x="0" dy="0em">0%</tspan></text></svg></g><g class="visx-group visx-axis-tick" transform="translate(0, 0)"><line class="visx-line" x1="362.5" y1="0" x2="362.5" y2="8" fill="transparent" shape-rendering="crispEdges" stroke="#000" stroke-width="0" stroke-linecap="square"></line><svg x="0" y="0" font-size="10" style="overflow:visible"><text transform="" x="362.5" y="18" fill="#000" font-size="10" text-anchor="middle"><tspan x="362.5" dy="0em">25%</tspan></text></svg></g><g class="visx-group visx-axis-tick" transform="translate(0, 0)"><line class="visx-line" x1="725" y1="0" x2="725" y2="8" fill="transparent" shape-rendering="crispEdges" stroke="#000" stroke-width="0" stroke-linecap="square"></line><svg x="0" y="0" font-size="10" style="overflow:visible"><text transform="" x="725" y="18" fill="#000" font-size="10" text-anchor="middle"><tspan x="725" dy="0em">50%</tspan></text></svg></g><g class="visx-group visx-axis-tick" transform="translate(0, 0)"><line class="visx-line" x1="1087.5" y1="0" x2="1087.5" y2="8" fill="transparent" shape-rendering="crispEdges" stroke="#000" stroke-width="0" stroke-linecap="square"></line><svg x="0" y="0" font-size="10" style="overflow:visible"><text transform="" x="1087.5" y="18" fill="#000" font-size="10" text-anchor="middle"><tspan x="1087.5" dy="0em">75%</tspan></text></svg></g><g class="visx-group visx-axis-tick" transform="translate(0, 0)"><line class="visx-line" x1="1450" y1="0" x2="1450" y2="8" fill="transparent" shape-rendering="crispEdges" stroke="#000" stroke-width="0" stroke-linecap="square"></line><svg x="0" y="0" font-size="10" style="overflow:visible"><text transform="" x="1450" y="18" fill="#000" font-size="10" text-anchor="middle"><tspan x="1450" dy="0em">100%</tspan></text></svg></g><line class="visx-line visx-axis-line" x1="0.5" y1="0" x2="1450.5" y2="0" fill="transparent" shape-rendering="crispEdges" stroke="#222" stroke-width="0"></line></g><g class="visx-group visx-axis visx-axis-left" transform="translate(0, 0)"><g class="visx-group visx-axis-tick" transform="translate(0, 0)"><line class="visx-line" x1="0" y1="115" x2="-8" y2="115" fill="transparent" shape-rendering="crispEdges" stroke="#222" stroke-width="0" stroke-linecap="square"></line><svg x="-30" y="0" font-size="8" style="overflow:visible"><text transform="" x="-8" y="115" fill="#000" font-size="8" text-anchor="start"><tspan x="-8" dy="0em">0%</tspan></text></svg></g><g class="visx-group visx-axis-tick" transform="translate(0, 0)"><line class="visx-line" x1="0" y1="73.92857142857142" x2="-8" y2="73.92857142857142" fill="transparent" shape-rendering="crispEdges" stroke="#222" stroke-width="0" stroke-linecap="square"></line><svg x="-30" y="0" font-size="8" style="overflow:visible"><text transform="" x="-8" y="73.92857142857142" fill="#000" font-size="8" text-anchor="start"><tspan x="-8" dy="0em">100%</tspan></text></svg></g><g class="visx-group visx-axis-tick" transform="translate(0, 0)"><line class="visx-line" x1="0" y1="32.857142857142854" x2="-8" y2="32.857142857142854" fill="transparent" shape-rendering="crispEdges" stroke="#222" stroke-width="0" stroke-linecap="square"></line><svg x="-30" y="0" font-size="8" style="overflow:visible"><text transform="" x="-8" y="32.857142857142854" fill="#000" font-size="8" text-anchor="start"><tspan x="-8" dy="0em">200%</tspan></text></svg></g><line class="visx-line visx-axis-line" x1="0" y1="115.5" x2="0" y2="0.5" fill="transparent" shape-rendering="crispEdges" stroke="#222" stroke-width="0"></line></g><rect class="visx-bar" width="1450" height="115" fill="transparent"></rect><line class="visx-line" x1="754" y1="28" x2="754" y2="115" fill="transparent" shape-rendering="crispEdges" stroke="#0062D2" stroke-width="1" pointer-events="none" stroke-dasharray="5,2"></line><svg x="0" y="0" font-size="10px" style="overflow:visible"><text transform="" x="754" y="20" font-size="10px" fill="#fff" stroke="#fff" stroke-width="0.8em" text-anchor="middle"><tspan x="754" dy="0.355em">Optimal 52%</tspan></text></svg><svg x="0" y="0" font-size="10px" style="overflow:visible"><text transform="" x="754" y="20" font-size="10px" fill="#62677B" text-anchor="middle"><tspan x="754" dy="0.355em">Optimal 52%</tspan></text></svg></g></svg>