<?xml version="1.0"?><svg xmlns="http://www.w3.org/2000/svg" xmlns:xlink= "http://www.w3.org/1999/xlink" style="background: white;" width="1500" height="185"> <g style="color: black; font-size: 13px; font-family: sans-serif; transform: translate(18px, 25px);"><g><circle r="3" cx="-6" cy="-5" style="fill: #B6509E" /><text>Borrow APR, variable</text></g><g style="transform: translateX(150px);"><circle r="3" cx="-6" cy="-5" style="fill: rgb(231, 198, 223)" /><text>Borrow APR, stable</text></g><g style="transform: translateX(290px);"><circle r="3" cx="-6" cy="-5" style="fill: rgb(0, 98, 210)" /><text>Utilization Rate</text></g></g><g class="visx-group" transform="translate(40, 50)"><g class="visx-group visx-rows" transform="translate(0, 0)"><line class="visx-line" x1="0" y1="115" x2="1450" y2="115" fill="transparent" shape-rendering="crispEdges" stroke="#000" stroke-width="1" stroke-dasharray="3,3" pointer-events="none"></line><line class="visx-line" x1="0" y1="83.05555555555556" x2="1450" y2="83.05555555555556" fill="transparent" shape-rendering="crispEdges" stroke="#000" stroke-width="1" stroke-dasharray="3,3" pointer-events="none"></line><line class="visx-line" x1="0" y1="51.11111111111111" x2="1450" y2="51.11111111111111" fill="transparent" shape-rendering="crispEdges" stroke="#000" stroke-width="1" stroke-dasharray="3,3" pointer-events="none"></line><line class="visx-line" x1="0" y1="19.16666666666666" x2="1450" y2="19.16666666666666" fill="transparent" shape-rendering="crispEdges" stroke="#000" stroke-width="1" stroke-dasharray="3,3" pointer-events="none"></line></g><path class="visx-linepath" d="M0,114.99999999995022C2.4166666666666665,114.9917027416737,4.833333333333334,114.98340548339719,7.25,114.97510822510823C9.666666666666666,114.96681096681927,12.083333333333334,114.9585137085137,14.5,114.95021645021644C16.916666666666668,114.94191919191918,19.333333333333332,114.93362193362194,21.75,114.92532467532467C24.166666666666668,114.91702741702741,26.583333333333332,114.90873015873015,29,114.90043290043289C31.416666666666668,114.89213564213563,33.833333333333336,114.88383838383837,36.25,114.87554112554112C38.666666666666664,114.86724386724387,41.083333333333336,114.85894660894662,43.5,114.85064935064936C45.91666666666667,114.8423520923521,48.333333333333336,114.83405483405484,50.75000000000001,114.82575757575758C53.16666666666667,114.81746031746032,55.583333333333336,114.80916305916307,58,114.80086580086581C60.416666666666664,114.79256854256855,62.833333333333336,114.78427128427128,65.25,114.77597402597402C67.66666666666667,114.76767676767676,70.08333333333333,114.75937950937951,72.5,114.75108225108225C74.91666666666667,114.74278499278499,77.33333333333333,114.73448773448774,79.75,114.72619047619048C82.16666666666667,114.71789321789322,84.58333333333333,114.70959595959596,87,114.7012987012987C89.41666666666667,114.69300144300144,91.83333333333333,114.68470418470419,94.25,114.67640692640693C96.66666666666667,114.66810966810966,99.08333333333334,114.65981240981242,101.50000000000001,114.65151515151516C103.91666666666667,114.6432178932179,106.33333333333334,114.63492063492063,108.75,114.62662337662337C111.16666666666667,114.61832611832611,113.58333333333333,114.61002886002886,116,114.6017316017316C118.41666666666667,114.59343434343434,120.83333333333334,114.58513708513708,123.25000000000001,114.57683982683982C125.66666666666667,114.56854256854255,128.08333333333334,114.5602453102453,130.5,114.55194805194806C132.91666666666666,114.5436507936508,135.33333333333334,114.53535353535355,137.75,114.52705627705629C140.16666666666666,114.51875901875903,142.58333333333334,114.51046176046177,145,114.5021645021645C147.41666666666666,114.49386724386724,149.83333333333334,114.48556998557,152.25,114.47727272727273C154.66666666666666,114.46897546897547,157.08333333333334,114.46067821067821,159.5,114.45238095238095C161.91666666666666,114.44408369408369,164.33333333333334,114.43578643578644,166.75,114.42748917748918C169.16666666666666,114.41919191919192,171.58333333333334,114.41089466089467,174,114.40259740259741C176.41666666666666,114.39430014430015,178.83333333333334,114.38600288600288,181.25,114.37770562770562C183.66666666666666,114.36940836940836,186.08333333333334,114.36111111111111,188.5,114.35281385281385C190.91666666666666,114.34451659451659,193.33333333333334,114.33621933621933,195.75,114.32792207792207C198.16666666666669,114.3196248196248,200.58333333333334,114.31132756132756,203.00000000000003,114.3030303030303C205.41666666666669,114.29473304473304,207.83333333333331,114.28643578643579,210.24999999999997,114.27813852813853C212.66666666666666,114.26984126984127,215.08333333333331,114.26154401154402,217.5,114.25324675324676C219.91666666666666,114.2449494949495,222.33333333333334,114.23665223665225,224.75,114.22835497835499C227.16666666666666,114.22005772005772,229.58333333333334,114.21176046176046,232,114.2034632034632C234.41666666666666,114.19516594516594,236.83333333333334,114.18686868686869,239.25,114.17857142857143C241.66666666666669,114.17027417027417,244.08333333333334,114.16197691197692,246.50000000000003,114.15367965367966C248.91666666666669,114.1453823953824,251.33333333333331,114.13708513708514,253.74999999999997,114.12878787878788C256.16666666666663,114.12049062049061,258.5833333333333,114.11219336219337,261,114.1038961038961C263.4166666666667,114.09559884559884,265.8333333333333,114.0873015873016,268.25,114.07900432900433C270.6666666666667,114.07070707070707,273.0833333333333,114.06240981240981,275.5,114.05411255411255C277.9166666666667,114.04581529581529,280.3333333333333,114.03751803751804,282.75,114.02922077922078C285.1666666666667,114.02092352092352,287.5833333333333,114.01262626262626,290,114.004329004329C292.4166666666667,113.99603174603173,294.8333333333333,113.98773448773449,297.25,113.97943722943722C299.6666666666667,113.97113997113996,302.0833333333333,113.96284271284273,304.5,113.95454545454547C306.9166666666667,113.9462481962482,309.3333333333333,113.93795093795094,311.75,113.92965367965368C314.1666666666667,113.92135642135642,316.5833333333333,113.91305916305917,319,113.90476190476191C321.4166666666667,113.89646464646465,323.8333333333333,113.88816738816739,326.25,113.87987012987013C328.6666666666667,113.87157287157287,331.0833333333333,113.86327561327562,333.5,113.85497835497836C335.9166666666667,113.8466810966811,338.3333333333333,113.83838383838385,340.75,113.83008658008659C343.1666666666667,113.82178932178932,345.5833333333333,113.81349206349206,348,113.8051948051948C350.4166666666667,113.79689754689754,352.8333333333333,113.78860028860029,355.25,113.78030303030303C357.6666666666667,113.77200577200577,360.0833333333333,113.76370851370851,362.5,113.75541125541125C364.9166666666667,113.74711399711398,367.3333333333333,113.73881673881674,369.75,113.73051948051948C372.1666666666667,113.72222222222221,374.5833333333333,113.71392496392497,377,113.7056277056277C379.4166666666667,113.69733044733044,381.8333333333333,113.68903318903318,384.25,113.68073593073592C386.6666666666667,113.67243867243866,389.0833333333333,113.66414141414143,391.5,113.65584415584416C393.9166666666667,113.6475468975469,396.33333333333337,113.63924963924964,398.75000000000006,113.63095238095238C401.16666666666674,113.62265512265512,403.58333333333337,113.61435786435787,406.00000000000006,113.60606060606061C408.4166666666667,113.59776334776335,410.8333333333333,113.5894660894661,413.24999999999994,113.58116883116884C415.66666666666663,113.57287157287158,418.08333333333326,113.56457431457432,420.49999999999994,113.55627705627705C422.91666666666663,113.54797979797979,425.3333333333333,113.53968253968254,427.75,113.53138528138528C430.1666666666667,113.52308802308802,432.5833333333333,113.51479076479077,435,113.50649350649351C437.4166666666667,113.49819624819625,439.8333333333333,113.48989898989899,442.25,113.48160173160173C444.6666666666667,113.47330447330447,447.0833333333333,113.46500721500722,449.5,113.45670995670996C451.9166666666667,113.4484126984127,454.3333333333333,113.44011544011543,456.75,113.43181818181817C459.1666666666667,113.42352092352091,461.5833333333333,113.41522366522366,464,113.4069264069264C466.4166666666667,113.39862914862914,468.8333333333333,113.3903318903319,471.25,113.38203463203463C473.6666666666667,113.37373737373737,476.0833333333333,113.36544011544012,478.5,113.35714285714286C480.9166666666667,113.3488455988456,483.33333333333337,113.34054834054835,485.75000000000006,113.33225108225109C488.16666666666674,113.32395382395383,490.58333333333337,113.31565656565657,493.00000000000006,113.3073593073593C495.4166666666667,113.29906204906204,497.8333333333333,113.2907647907648,500.24999999999994,113.28246753246754C502.66666666666663,113.27417027417027,505.08333333333326,113.26587301587303,507.49999999999994,113.25757575757576C509.91666666666663,113.2492784992785,512.3333333333333,113.24098124098124,514.75,113.23268398268398C517.1666666666666,113.22438672438672,519.5833333333334,113.21608946608947,522,113.20779220779221C524.4166666666666,113.19949494949495,526.8333333333334,113.19119769119769,529.25,113.18290043290042C531.6666666666666,113.17460317460316,534.0833333333334,113.16630591630592,536.5,113.15800865800865C538.9166666666666,113.14971139971139,541.3333333333334,113.14141414141415,543.75,113.13311688311688C546.1666666666666,113.12481962481962,548.5833333333334,113.11652236652236,551,113.1082251082251C553.4166666666666,113.09992784992784,555.8333333333334,113.09163059163059,558.25,113.08333333333333C560.6666666666666,113.07503607503607,563.0833333333334,113.06673881673882,565.5,113.05844155844156C567.9166666666666,113.0501443001443,570.3333333333334,113.04184704184705,572.75,113.03354978354979C575.1666666666666,113.02525252525253,577.5833333333334,113.01695526695528,580,113.00865800865802C582.4166666666666,113.00036075036076,584.8333333333334,112.9920634920635,587.25,112.98376623376623C589.6666666666666,112.97546897546897,592.0833333333334,112.96717171717172,594.5,112.95887445887446C596.9166666666666,112.9505772005772,599.3333333333334,112.94227994227995,601.75,112.93398268398269C604.1666666666666,112.92568542568543,606.5833333333334,112.91738816738817,609,112.9090909090909C611.4166666666666,112.90079365079364,613.8333333333334,112.8924963924964,616.25,112.88419913419914C618.6666666666666,112.87590187590187,621.0833333333334,112.86760461760461,623.5,112.85930735930735C625.9166666666666,112.85101010101009,628.3333333333334,112.84271284271284,630.75,112.83441558441558C633.1666666666666,112.82611832611832,635.5833333333334,112.81782106782107,638,112.80952380952381C640.4166666666666,112.80122655122655,642.8333333333334,112.79292929292929,645.25,112.78463203463203C647.6666666666666,112.77633477633476,650.0833333333334,112.76803751803753,652.5,112.75974025974027C654.9166666666666,112.75144300144301,657.3333333333334,112.74314574314575,659.75,112.73484848484848C662.1666666666666,112.72655122655122,664.5833333333334,112.71825396825398,667,112.70995670995671C669.4166666666666,112.70165945165945,671.8333333333334,112.6933621933622,674.25,112.68506493506494C676.6666666666666,112.67676767676768,679.0833333333334,112.66847041847042,681.5,112.66017316017316C683.9166666666666,112.6518759018759,686.3333333333334,112.64357864357865,688.75,112.63528138528139C691.1666666666666,112.62698412698413,693.5833333333334,112.61868686868686,696,112.6103896103896C698.4166666666666,112.60209235209234,700.8333333333334,112.5937950937951,703.25,112.58549783549783C705.6666666666666,112.57720057720057,708.0833333333334,112.56890331890332,710.5,112.56060606060606C712.9166666666666,112.5523088023088,715.3333333333334,112.54401154401154,717.75,112.53571428571428C720.1666666666666,112.52741702741702,722.5833333333334,112.51911976911977,725,112.5108225108225C727.4166666666666,112.50252525252525,729.8333333333334,112.494227994228,732.25,112.48593073593074C734.6666666666666,112.47763347763347,737.0833333333334,112.46933621933623,739.5,112.46103896103897C741.9166666666666,112.4527417027417,744.3333333333334,112.44444444444446,746.75,112.4361471861472C749.1666666666666,112.42784992784993,751.5833333333334,112.41955266955267,754,112.41125541125541C756.4166666666666,112.40295815295815,758.8333333333334,112.3946608946609,761.25,112.38636363636364C763.6666666666666,112.37806637806638,766.0833333333334,112.36976911976913,768.5,112.36147186147187C770.9166666666666,112.35317460317461,773.3333333333334,112.34487734487735,775.75,112.33658008658008C778.1666666666666,112.32828282828282,780.5833333333334,112.31998556998558,783,112.31168831168831C785.4166666666667,112.30339105339105,787.8333333333334,112.29509379509379,790.2500000000001,112.28679653679653C792.6666666666667,112.27849927849927,795.0833333333335,112.27020202020202,797.5000000000001,112.26190476190476C799.9166666666667,112.2536075036075,802.3333333333335,112.24531024531025,804.7500000000001,112.23701298701299C807.1666666666667,112.22871572871573,809.5833333333335,112.22041847041847,812.0000000000001,112.2121212121212C814.4166666666667,112.20382395382394,816.8333333333333,112.1955266955267,819.2499999999999,112.18722943722943C821.6666666666665,112.17893217893217,824.0833333333333,112.17063492063492,826.4999999999999,112.16233766233766C828.9166666666665,112.1540404040404,831.3333333333333,112.14574314574315,833.7499999999999,112.13744588744589C836.1666666666665,112.12914862914863,838.5833333333333,112.12085137085138,840.9999999999999,112.11255411255412C843.4166666666666,112.10425685425686,845.8333333333333,112.0959595959596,848.25,112.08766233766234C850.6666666666666,112.07936507936508,853.0833333333334,112.07106782106783,855.5,112.06277056277057C857.9166666666666,112.0544733044733,860.3333333333334,112.04617604617604,862.75,112.03787878787878C865.1666666666666,112.02958152958152,867.5833333333334,112.02128427128427,870,112.01298701298701C872.4166666666666,112.00468975468975,874.8333333333334,111.9963924963925,877.25,111.98809523809524C879.6666666666666,111.97979797979798,882.0833333333334,111.97150072150072,884.5,111.96320346320346C886.9166666666666,111.9549062049062,889.3333333333334,111.94660894660895,891.75,111.93831168831169C894.1666666666666,111.93001443001442,896.5833333333334,111.92171717171718,899,111.91341991341992C901.4166666666666,111.90512265512265,903.8333333333334,111.89682539682539,906.25,111.88852813852813C908.6666666666666,111.88023088023087,911.0833333333334,111.87193362193364,913.5,111.86363636363637C915.9166666666666,111.85533910533911,918.3333333333334,111.84704184704185,920.75,111.83874458874459C923.1666666666666,111.83044733044733,925.5833333333334,111.82215007215008,928,111.81385281385282C930.4166666666666,111.80555555555556,932.8333333333334,111.79725829725831,935.25,111.78896103896105C937.6666666666666,111.78066378066379,940.0833333333334,111.77236652236653,942.5,111.76406926406926C944.9166666666666,111.755772005772,947.3333333333334,111.74747474747475,949.75,111.7391774891775C952.1666666666666,111.73088023088023,954.5833333333334,111.72258297258297,957,111.71428571428571C959.4166666666666,111.70598845598845,961.8333333333334,111.6976911976912,964.25,111.68939393939394C966.6666666666667,111.68109668109668,969.0833333333334,111.67279942279943,971.5000000000001,111.66450216450217C973.9166666666667,111.6562049062049,976.3333333333335,111.64790764790764,978.7500000000001,111.63961038961038C981.1666666666667,111.63131313131312,983.5833333333335,111.62301587301587,986.0000000000001,111.61471861471861C988.4166666666667,111.60642135642135,990.8333333333335,111.59812409812409,993.2500000000001,111.58982683982683C995.6666666666667,111.58152958152957,998.0833333333333,111.57323232323232,1000.4999999999999,111.56493506493507C1002.9166666666665,111.55663780663781,1005.3333333333333,111.54834054834056,1007.7499999999999,111.5400432900433C1010.1666666666665,111.53174603174604,1012.5833333333333,111.52344877344878,1014.9999999999999,111.51515151515152C1017.4166666666665,111.50685425685425,1019.8333333333333,111.498556998557,1022.2499999999999,111.49025974025975C1024.6666666666665,111.48196248196248,1027.0833333333333,111.47366522366522,1029.5,111.46536796536796C1031.9166666666667,111.4570707070707,1034.3333333333333,111.44877344877345,1036.75,111.44047619047619C1039.1666666666667,111.43217893217893,1041.5833333333333,111.42388167388168,1044,111.41558441558442C1046.4166666666667,111.40728715728716,1048.8333333333333,111.3989898989899,1051.25,111.39069264069263C1053.6666666666667,111.38239538239537,1056.0833333333333,111.37409812409813,1058.5,111.36580086580086C1060.9166666666667,111.3575036075036,1063.3333333333333,111.34920634920636,1065.75,111.3409090909091C1068.1666666666667,111.33261183261183,1070.5833333333333,111.32431457431457,1073,111.31601731601731C1075.4166666666667,111.30772005772005,1077.8333333333333,111.29942279942281,1080.25,111.29112554112555C1082.6666666666667,111.28282828282829,1085.0833333333333,111.27453102453103,1087.5,111.26623376623377C1089.9166666666667,111.2579365079365,1092.3333333333333,111.24963924963926,1094.75,111.241341991342C1097.1666666666667,111.23304473304474,1099.5833333333333,111.22474747474747,1102,111.21645021645021C1104.4166666666667,111.20815295815295,1106.8333333333333,111.1998556998557,1109.25,111.19155844155844C1111.6666666666667,111.18326118326118,1114.0833333333333,111.18326118326118,1116.5,111.16666666666667C1118.9166666666667,111.15007215007216,1121.3333333333333,109.92592592592592,1123.75,109.30555555555556C1126.1666666666667,108.68518518518519,1128.5833333333333,108.06481481481481,1131,107.44444444444444C1133.4166666666667,106.82407407407408,1135.8333333333333,106.2037037037037,1138.25,105.58333333333333C1140.6666666666667,104.96296296296296,1143.0833333333333,104.34259259259258,1145.5,103.72222222222221C1147.9166666666667,103.10185185185185,1150.3333333333333,102.48148148148148,1152.75,101.86111111111111C1155.1666666666667,101.24074074074075,1157.5833333333333,100.62037037037037,1160,100C1162.4166666666667,99.37962962962963,1164.8333333333333,98.75925925925925,1167.25,98.13888888888889C1169.6666666666667,97.51851851851852,1172.0833333333333,96.89814814814814,1174.5,96.27777777777777C1176.9166666666667,95.6574074074074,1179.3333333333333,95.03703703703702,1181.75,94.41666666666666C1184.1666666666667,93.79629629629629,1186.5833333333333,93.17592592592592,1189,92.55555555555556C1191.4166666666667,91.93518518518519,1193.8333333333333,91.31481481481481,1196.25,90.69444444444444C1198.6666666666667,90.07407407407408,1201.0833333333333,89.45370370370371,1203.5,88.83333333333334C1205.9166666666667,88.21296296296298,1208.3333333333333,87.59259259259258,1210.75,86.97222222222221C1213.1666666666667,86.35185185185185,1215.5833333333333,85.73148148148148,1218,85.11111111111111C1220.4166666666667,84.49074074074075,1222.8333333333333,83.87037037037037,1225.25,83.25C1227.6666666666667,82.62962962962963,1230.0833333333333,82.00925925925925,1232.5,81.38888888888889C1234.9166666666667,80.76851851851852,1237.3333333333333,80.14814814814815,1239.75,79.52777777777779C1242.1666666666667,78.90740740740742,1244.5833333333333,78.28703703703704,1247,77.66666666666667C1249.4166666666667,77.0462962962963,1251.8333333333333,76.42592592592592,1254.25,75.80555555555556C1256.6666666666667,75.18518518518519,1259.0833333333333,74.56481481481481,1261.5,73.94444444444444C1263.9166666666667,73.32407407407408,1266.3333333333333,72.70370370370368,1268.75,72.08333333333331C1271.1666666666667,71.46296296296295,1273.5833333333333,70.8425925925926,1276,70.22222222222223C1278.4166666666667,69.60185185185186,1280.8333333333333,68.98148148148148,1283.25,68.36111111111111C1285.6666666666667,67.74074074074075,1288.0833333333333,67.12037037037037,1290.5,66.5C1292.9166666666667,65.87962962962963,1295.3333333333333,65.25925925925927,1297.75,64.6388888888889C1300.1666666666667,64.01851851851853,1302.5833333333333,63.39814814814815,1305,62.77777777777778C1307.4166666666667,62.157407407407405,1309.8333333333333,61.53703703703704,1312.25,60.916666666666664C1314.6666666666667,60.29629629629629,1317.0833333333333,59.675925925925924,1319.5,59.05555555555555C1321.9166666666667,58.435185185185176,1324.3333333333333,57.81481481481481,1326.75,57.19444444444444C1329.1666666666667,56.574074074074076,1331.5833333333333,55.953703703703695,1334,55.33333333333333C1336.4166666666667,54.71296296296296,1338.8333333333333,54.092592592592595,1341.25,53.47222222222223C1343.6666666666667,52.85185185185186,1346.0833333333333,52.23148148148148,1348.5,51.61111111111111C1350.9166666666667,50.99074074074073,1353.3333333333333,50.37037037037037,1355.75,49.74999999999999C1358.1666666666667,49.12962962962962,1360.5833333333333,48.50925925925925,1363,47.88888888888888C1365.4166666666667,47.268518518518505,1367.8333333333333,46.64814814814814,1370.25,46.02777777777777C1372.6666666666667,45.407407407407405,1375.0833333333333,44.787037037037024,1377.5,44.16666666666666C1379.9166666666667,43.54629629629629,1382.3333333333333,42.925925925925924,1384.75,42.30555555555556C1387.1666666666667,41.68518518518519,1389.5833333333333,41.064814814814824,1392,40.44444444444445C1394.4166666666667,39.824074074074076,1396.8333333333333,39.20370370370371,1399.25,38.583333333333336C1401.6666666666667,37.96296296296296,1404.0833333333333,37.342592592592595,1406.5,36.72222222222222C1408.9166666666667,36.10185185185185,1411.3333333333333,35.48148148148149,1413.75,34.861111111111114C1416.1666666666667,34.24074074074074,1418.5833333333333,33.62037037037035,1421,32.999999999999986C1423.4166666666667,32.37962962962962,1425.8333333333333,31.75925925925927,1428.25,31.138888888888903C1430.6666666666667,30.518518518518537,1433.0833333333333,29.898148148148163,1435.5,29.27777777777779C1437.9166666666667,28.657407407407415,1440.3333333333333,28.037037037037038,1442.75,27.416666666666664C1445.1666666666667,26.79629629629629,1447.5833333333333,26.175925925925924,1450,25.555555555555554" fill="transparent" stroke-linecap="round" stroke="#B6509E" stroke-width="2"></path><path class="visx-linepath" d="M0,108.61111111109452C2.4166666666666665,108.60834535833568,4.833333333333334,108.60557960557684,7.25,108.60281385281385C9.666666666666666,108.60004810005087,12.083333333333334,108.59728234728234,14.5,108.59451659451659C16.916666666666668,108.59175084175084,19.333333333333332,108.58898508898508,21.75,108.58621933621933C24.166666666666668,108.58345358345358,26.583333333333332,108.58068783068784,29,108.57792207792208C31.416666666666668,108.57515632515633,33.833333333333336,108.57239057239057,36.25,108.56962481962482C38.666666666666664,108.56685906685907,41.083333333333336,108.56409331409331,43.5,108.56132756132756C45.91666666666667,108.5585618085618,48.333333333333336,108.55579605579607,50.75000000000001,108.55303030303031C53.16666666666667,108.55026455026456,55.583333333333336,108.5474987974988,58,108.54473304473305C60.416666666666664,108.5419672919673,62.833333333333336,108.53920153920153,65.25,108.53643578643577C67.66666666666667,108.53367003367002,70.08333333333333,108.53090428090428,72.5,108.52813852813853C74.91666666666667,108.52537277537277,77.33333333333333,108.52260702260702,79.75,108.51984126984127C82.16666666666667,108.51707551707551,84.58333333333333,108.51430976430977,87,108.51154401154402C89.41666666666667,108.50877825877826,91.83333333333333,108.50601250601251,94.25,108.50324675324676C96.66666666666667,108.500481000481,99.08333333333334,108.49771524771525,101.50000000000001,108.4949494949495C103.91666666666667,108.49218374218374,106.33333333333334,108.489417989418,108.75,108.48665223665225C111.16666666666667,108.4838864838865,113.58333333333333,108.48112073112073,116,108.47835497835497C118.41666666666667,108.47558922558922,120.83333333333334,108.47282347282346,123.25000000000001,108.47005772005771C125.66666666666667,108.46729196729196,128.08333333333334,108.46452621452622,130.5,108.46176046176046C132.91666666666666,108.45899470899471,135.33333333333334,108.45622895622895,137.75,108.4534632034632C140.16666666666666,108.45069745069745,142.58333333333334,108.4479316979317,145,108.44516594516594C147.41666666666666,108.44240019240019,149.83333333333334,108.43963443963445,152.25,108.43686868686869C154.66666666666666,108.43410293410294,157.08333333333334,108.43133718133718,159.5,108.42857142857143C161.91666666666666,108.42580567580568,164.33333333333334,108.42303992303992,166.75,108.42027417027417C169.16666666666666,108.41750841750842,171.58333333333334,108.41474266474266,174,108.41197691197691C176.41666666666666,108.40921115921115,178.83333333333334,108.4064454064454,181.25,108.40367965367965C183.66666666666666,108.40091390091389,186.08333333333334,108.39814814814815,188.5,108.3953823953824C190.91666666666666,108.39261664261664,193.33333333333334,108.38985088985089,195.75,108.38708513708514C198.16666666666669,108.38431938431938,200.58333333333334,108.38155363155363,203.00000000000003,108.37878787878788C205.41666666666669,108.37602212602212,207.83333333333331,108.37325637325638,210.24999999999997,108.37049062049063C212.66666666666666,108.36772486772487,215.08333333333331,108.36495911495912,217.5,108.36219336219337C219.91666666666666,108.35942760942761,222.33333333333334,108.35666185666186,224.75,108.3538961038961C227.16666666666666,108.35113035113035,229.58333333333334,108.3483645983646,232,108.34559884559884C234.41666666666666,108.34283309283309,236.83333333333334,108.34006734006734,239.25,108.33730158730158C241.66666666666669,108.33453583453583,244.08333333333334,108.33177008177007,246.50000000000003,108.32900432900432C248.91666666666669,108.32623857623857,251.33333333333331,108.32347282347283,253.74999999999997,108.32070707070707C256.16666666666663,108.31794131794132,258.5833333333333,108.31517556517556,261,108.31240981240981C263.4166666666667,108.30964405964406,265.8333333333333,108.30687830687832,268.25,108.30411255411256C270.6666666666667,108.30134680134681,273.0833333333333,108.29858104858106,275.5,108.2958152958153C277.9166666666667,108.29304954304955,280.3333333333333,108.29028379028378,282.75,108.28751803751803C285.1666666666667,108.28475228475227,287.5833333333333,108.28198653198653,290,108.27922077922078C292.4166666666667,108.27645502645503,294.8333333333333,108.27368927368927,297.25,108.27092352092352C299.6666666666667,108.26815776815776,302.0833333333333,108.26539201539201,304.5,108.26262626262626C306.9166666666667,108.2598605098605,309.3333333333333,108.25709475709476,311.75,108.25432900432901C314.1666666666667,108.25156325156325,316.5833333333333,108.2487974987975,319,108.24603174603175C321.4166666666667,108.243265993266,323.8333333333333,108.24050024050024,326.25,108.23773448773449C328.6666666666667,108.23496873496873,331.0833333333333,108.23220298220299,333.5,108.22943722943724C335.9166666666667,108.22667147667148,338.3333333333333,108.22390572390572,340.75,108.22113997113996C343.1666666666667,108.21837421837421,345.5833333333333,108.21560846560847,348,108.21284271284271C350.4166666666667,108.21007696007696,352.8333333333333,108.20731120731121,355.25,108.20454545454545C357.6666666666667,108.2017797017797,360.0833333333333,108.19901394901395,362.5,108.19624819624819C364.9166666666667,108.19348244348244,367.3333333333333,108.1907166907167,369.75,108.18795093795094C372.1666666666667,108.18518518518519,374.5833333333333,108.18241943241944,377,108.17965367965368C379.4166666666667,108.17688792688793,381.8333333333333,108.17412217412218,384.25,108.17135642135642C386.6666666666667,108.16859066859067,389.0833333333333,108.16582491582491,391.5,108.16305916305916C393.9166666666667,108.1602934102934,396.33333333333337,108.15752765752765,398.75000000000006,108.1547619047619C401.16666666666674,108.15199615199614,403.58333333333337,108.14923039923039,406.00000000000006,108.14646464646464C408.4166666666667,108.14369889369888,410.8333333333333,108.14093314093314,413.24999999999994,108.13816738816739C415.66666666666663,108.13540163540164,418.08333333333326,108.13263588263588,420.49999999999994,108.12987012987013C422.91666666666663,108.12710437710437,425.3333333333333,108.12433862433863,427.75,108.12157287157288C430.1666666666667,108.11880711880713,432.5833333333333,108.11604136604137,435,108.11327561327562C437.4166666666667,108.11050986050986,439.8333333333333,108.10774410774411,442.25,108.10497835497836C444.6666666666667,108.1022126022126,447.0833333333333,108.09944684944685,449.5,108.0966810966811C451.9166666666667,108.09391534391534,454.3333333333333,108.09114959114959,456.75,108.08838383838383C459.1666666666667,108.08561808561808,461.5833333333333,108.08285233285233,464,108.08008658008657C466.4166666666667,108.07732082732082,468.8333333333333,108.07455507455508,471.25,108.07178932178932C473.6666666666667,108.06902356902357,476.0833333333333,108.06625781625782,478.5,108.06349206349206C480.9166666666667,108.06072631072631,483.33333333333337,108.05796055796056,485.75000000000006,108.0551948051948C488.16666666666674,108.05242905242905,490.58333333333337,108.04966329966331,493.00000000000006,108.04689754689755C495.4166666666667,108.0441317941318,497.8333333333333,108.04136604136605,500.24999999999994,108.03860028860029C502.66666666666663,108.03583453583454,505.08333333333326,108.03306878306879,507.49999999999994,108.03030303030303C509.91666666666663,108.02753727753728,512.3333333333333,108.02477152477152,514.75,108.02200577200577C517.1666666666666,108.01924001924002,519.5833333333334,108.01647426647426,522,108.01370851370851C524.4166666666666,108.01094276094275,526.8333333333334,108.00817700817701,529.25,108.00541125541126C531.6666666666666,108.0026455026455,534.0833333333334,107.99987974987975,536.5,107.997113997114C538.9166666666666,107.99434824434825,541.3333333333334,107.99158249158249,543.75,107.98881673881674C546.1666666666666,107.98605098605098,548.5833333333334,107.98328523328524,551,107.98051948051949C553.4166666666666,107.97775372775374,555.8333333333334,107.97498797498798,558.25,107.97222222222223C560.6666666666666,107.96945646945647,563.0833333333334,107.9666907166907,565.5,107.96392496392495C567.9166666666666,107.9611592111592,570.3333333333334,107.95839345839346,572.75,107.9556277056277C575.1666666666666,107.95286195286195,577.5833333333334,107.9500962000962,580,107.94733044733044C582.4166666666666,107.94456469456469,584.8333333333334,107.94179894179894,587.25,107.93903318903318C589.6666666666666,107.93626743626743,592.0833333333334,107.93350168350169,594.5,107.93073593073593C596.9166666666666,107.92797017797018,599.3333333333334,107.92520442520443,601.75,107.92243867243867C604.1666666666666,107.91967291967292,606.5833333333334,107.91690716690718,609,107.91414141414143C611.4166666666666,107.91137566137567,613.8333333333334,107.9086099086099,616.25,107.90584415584415C618.6666666666666,107.9030784030784,621.0833333333334,107.90031265031264,623.5,107.89754689754689C625.9166666666666,107.89478114478113,628.3333333333334,107.8920153920154,630.75,107.88924963924964C633.1666666666666,107.88648388648389,635.5833333333334,107.88371813371813,638,107.88095238095238C640.4166666666666,107.87818662818663,642.8333333333334,107.87542087542087,645.25,107.87265512265512C647.6666666666666,107.86988936988936,650.0833333333334,107.86712361712362,652.5,107.86435786435787C654.9166666666666,107.86159211159212,657.3333333333334,107.85882635882636,659.75,107.85606060606061C662.1666666666666,107.85329485329486,664.5833333333334,107.8505291005291,667,107.84776334776335C669.4166666666666,107.8449975949976,671.8333333333334,107.84223184223184,674.25,107.83946608946609C676.6666666666666,107.83670033670033,679.0833333333334,107.83393458393458,681.5,107.83116883116882C683.9166666666666,107.82840307840307,686.3333333333334,107.82563732563733,688.75,107.82287157287158C691.1666666666666,107.82010582010582,693.5833333333334,107.81734006734007,696,107.81457431457432C698.4166666666666,107.81180856180856,700.8333333333334,107.80904280904281,703.25,107.80627705627705C705.6666666666666,107.8035113035113,708.0833333333334,107.80074555074556,710.5,107.7979797979798C712.9166666666666,107.79521404521405,715.3333333333334,107.7924482924483,717.75,107.78968253968254C720.1666666666666,107.78691678691679,722.5833333333334,107.78415103415104,725,107.78138528138528C727.4166666666666,107.77861952861953,729.8333333333334,107.77585377585378,732.25,107.77308802308802C734.6666666666666,107.77032227032227,737.0833333333334,107.76755651755651,739.5,107.76479076479076C741.9166666666666,107.762025012025,744.3333333333334,107.75925925925925,746.75,107.7564935064935C749.1666666666666,107.75372775372774,751.5833333333334,107.750962000962,754,107.74819624819625C756.4166666666666,107.7454304954305,758.8333333333334,107.74266474266474,761.25,107.73989898989899C763.6666666666666,107.73713323713324,766.0833333333334,107.73436748436748,768.5,107.73160173160173C770.9166666666666,107.72883597883597,773.3333333333334,107.72607022607023,775.75,107.72330447330448C778.1666666666666,107.72053872053873,780.5833333333334,107.71777296777296,783,107.7150072150072C785.4166666666667,107.71224146224145,787.8333333333334,107.70947570947571,790.2500000000001,107.70670995670996C792.6666666666667,107.7039442039442,795.0833333333335,107.70117845117845,797.5000000000001,107.6984126984127C799.9166666666667,107.69564694564694,802.3333333333335,107.69288119288119,804.7500000000001,107.69011544011543C807.1666666666667,107.68734968734968,809.5833333333335,107.68458393458394,812.0000000000001,107.68181818181819C814.4166666666667,107.67905242905243,816.8333333333333,107.67628667628668,819.2499999999999,107.67352092352093C821.6666666666665,107.67075517075517,824.0833333333333,107.66798941798943,826.4999999999999,107.66522366522368C828.9166666666665,107.66245791245792,831.3333333333333,107.65969215969217,833.7499999999999,107.65692640692642C836.1666666666665,107.65416065416066,838.5833333333333,107.6513949013949,840.9999999999999,107.64862914862914C843.4166666666666,107.64586339586339,845.8333333333333,107.64309764309763,848.25,107.64033189033188C850.6666666666666,107.63756613756613,853.0833333333334,107.63480038480039,855.5,107.63203463203463C857.9166666666666,107.62926887926888,860.3333333333334,107.62650312650312,862.75,107.62373737373737C865.1666666666666,107.62097162097162,867.5833333333334,107.61820586820588,870,107.61544011544012C872.4166666666666,107.61267436267437,874.8333333333334,107.60990860990862,877.25,107.60714285714286C879.6666666666666,107.60437710437711,882.0833333333334,107.60161135161135,884.5,107.5988455988456C886.9166666666666,107.59607984607985,889.3333333333334,107.59331409331409,891.75,107.59054834054834C894.1666666666666,107.58778258778258,896.5833333333334,107.58501683501683,899,107.58225108225108C901.4166666666666,107.57948532948532,903.8333333333334,107.57671957671957,906.25,107.57395382395381C908.6666666666666,107.57118807118806,911.0833333333334,107.56842231842232,913.5,107.56565656565657C915.9166666666666,107.56289081289081,918.3333333333334,107.56012506012506,920.75,107.5573593073593C923.1666666666666,107.55459355459355,925.5833333333334,107.5518278018278,928,107.54906204906204C930.4166666666666,107.54629629629629,932.8333333333334,107.54353054353055,935.25,107.5407647907648C937.6666666666666,107.53799903799904,940.0833333333334,107.53523328523329,942.5,107.53246753246754C944.9166666666666,107.52970177970178,947.3333333333334,107.52693602693603,949.75,107.52417027417027C952.1666666666666,107.52140452140452,954.5833333333334,107.51863876863877,957,107.51587301587301C959.4166666666666,107.51310726310726,961.8333333333334,107.5103415103415,964.25,107.50757575757575C966.6666666666667,107.50481000481,969.0833333333334,107.50204425204426,971.5000000000001,107.4992784992785C973.9166666666667,107.49651274651275,976.3333333333335,107.493746993747,978.7500000000001,107.49098124098124C981.1666666666667,107.48821548821549,983.5833333333335,107.48544973544973,986.0000000000001,107.48268398268398C988.4166666666667,107.47991822991823,990.8333333333335,107.47715247715249,993.2500000000001,107.47438672438673C995.6666666666667,107.47162097162098,998.0833333333333,107.46885521885523,1000.4999999999999,107.46608946608947C1002.9166666666665,107.46332371332372,1005.3333333333333,107.46055796055795,1007.7499999999999,107.4577922077922C1010.1666666666665,107.45502645502644,1012.5833333333333,107.4522607022607,1014.9999999999999,107.44949494949495C1017.4166666666665,107.4467291967292,1019.8333333333333,107.44396344396344,1022.2499999999999,107.44119769119769C1024.6666666666665,107.43843193843193,1027.0833333333333,107.4356661856662,1029.5,107.43290043290044C1031.9166666666667,107.43013468013469,1034.3333333333333,107.42736892736893,1036.75,107.42460317460318C1039.1666666666667,107.42183742183742,1041.5833333333333,107.41907166907167,1044,107.41630591630592C1046.4166666666667,107.41354016354016,1048.8333333333333,107.41077441077442,1051.25,107.40800865800867C1053.6666666666667,107.40524290524291,1056.0833333333333,107.40247715247716,1058.5,107.3997113997114C1060.9166666666667,107.39694564694565,1063.3333333333333,107.39417989417989,1065.75,107.39141414141413C1068.1666666666667,107.38864838864838,1070.5833333333333,107.38588263588264,1073,107.38311688311688C1075.4166666666667,107.38035113035113,1077.8333333333333,107.37758537758538,1080.25,107.37481962481962C1082.6666666666667,107.37205387205387,1085.0833333333333,107.36928811928811,1087.5,107.36652236652236C1089.9166666666667,107.3637566137566,1092.3333333333333,107.36099086099087,1094.75,107.35822510822511C1097.1666666666667,107.35545935545936,1099.5833333333333,107.3526936026936,1102,107.34992784992785C1104.4166666666667,107.3471620971621,1106.8333333333333,107.34439634439636,1109.25,107.3416305916306C1111.6666666666667,107.33886483886485,1114.0833333333333,107.33886483886485,1116.5,107.33333333333333C1118.9166666666667,107.3278018278018,1121.3333333333333,106.0925925925926,1123.75,105.47222222222223C1126.1666666666667,104.85185185185186,1128.5833333333333,104.23148148148148,1131,103.61111111111111C1133.4166666666667,102.99074074074075,1135.8333333333333,102.37037037037037,1138.25,101.75C1140.6666666666667,101.12962962962963,1143.0833333333333,100.50925925925925,1145.5,99.88888888888889C1147.9166666666667,99.26851851851852,1150.3333333333333,98.64814814814814,1152.75,98.02777777777777C1155.1666666666667,97.4074074074074,1157.5833333333333,96.78703703703704,1160,96.16666666666667C1162.4166666666667,95.5462962962963,1164.8333333333333,94.92592592592592,1167.25,94.30555555555556C1169.6666666666667,93.68518518518519,1172.0833333333333,93.06481481481481,1174.5,92.44444444444444C1176.9166666666667,91.82407407407408,1179.3333333333333,91.2037037037037,1181.75,90.58333333333333C1184.1666666666667,89.96296296296296,1186.5833333333333,89.34259259259258,1189,88.72222222222221C1191.4166666666667,88.10185185185185,1193.8333333333333,87.48148148148147,1196.25,86.8611111111111C1198.6666666666667,86.24074074074073,1201.0833333333333,85.62037037037037,1203.5,85C1205.9166666666667,84.37962962962963,1208.3333333333333,83.75925925925927,1210.75,83.1388888888889C1213.1666666666667,82.51851851851853,1215.5833333333333,81.89814814814814,1218,81.27777777777777C1220.4166666666667,80.6574074074074,1222.8333333333333,80.03703703703704,1225.25,79.41666666666667C1227.6666666666667,78.7962962962963,1230.0833333333333,78.17592592592591,1232.5,77.55555555555554C1234.9166666666667,76.93518518518518,1237.3333333333333,76.31481481481481,1239.75,75.69444444444444C1242.1666666666667,75.07407407407408,1244.5833333333333,74.4537037037037,1247,73.83333333333333C1249.4166666666667,73.21296296296296,1251.8333333333333,72.5925925925926,1254.25,71.97222222222223C1256.6666666666667,71.35185185185186,1259.0833333333333,70.73148148148148,1261.5,70.11111111111111C1263.9166666666667,69.49074074074075,1266.3333333333333,68.87037037037037,1268.75,68.25C1271.1666666666667,67.62962962962963,1273.5833333333333,67.00925925925924,1276,66.38888888888887C1278.4166666666667,65.7685185185185,1280.8333333333333,65.14814814814814,1283.25,64.52777777777777C1285.6666666666667,63.907407407407405,1288.0833333333333,63.28703703703703,1290.5,62.666666666666664C1292.9166666666667,62.0462962962963,1295.3333333333333,61.425925925925924,1297.75,60.80555555555556C1300.1666666666667,60.18518518518519,1302.5833333333333,59.56481481481481,1305,58.94444444444444C1307.4166666666667,58.324074074074076,1309.8333333333333,57.70370370370371,1312.25,57.08333333333334C1314.6666666666667,56.462962962962976,1317.0833333333333,55.842592592592595,1319.5,55.22222222222222C1321.9166666666667,54.60185185185185,1324.3333333333333,53.981481481481474,1326.75,53.36111111111111C1329.1666666666667,52.74074074074074,1331.5833333333333,52.12037037037038,1334,51.50000000000001C1336.4166666666667,50.87962962962963,1338.8333333333333,50.25925925925925,1341.25,49.638888888888886C1343.6666666666667,49.01851851851852,1346.0833333333333,48.39814814814815,1348.5,47.777777777777786C1350.9166666666667,47.15740740740742,1353.3333333333333,46.53703703703704,1355.75,45.91666666666667C1358.1666666666667,45.296296296296305,1360.5833333333333,44.67592592592594,1363,44.055555555555564C1365.4166666666667,43.43518518518519,1367.8333333333333,42.81481481481481,1370.25,42.194444444444436C1372.6666666666667,41.57407407407406,1375.0833333333333,40.953703703703695,1377.5,40.33333333333333C1379.9166666666667,39.71296296296296,1382.3333333333333,39.09259259259258,1384.75,38.472222222222214C1387.1666666666667,37.85185185185185,1389.5833333333333,37.23148148148148,1392,36.611111111111114C1394.4166666666667,35.99074074074075,1396.8333333333333,35.37037037037037,1399.25,34.74999999999999C1401.6666666666667,34.12962962962962,1404.0833333333333,33.50925925925926,1406.5,32.88888888888889C1408.9166666666667,32.268518518518526,1411.3333333333333,31.648148148148152,1413.75,31.02777777777778C1416.1666666666667,30.407407407407405,1418.5833333333333,29.78703703703703,1421,29.166666666666657C1423.4166666666667,28.546296296296283,1425.8333333333333,27.92592592592591,1428.25,27.305555555555543C1430.6666666666667,26.685185185185176,1433.0833333333333,26.064814814814817,1435.5,25.444444444444446C1437.9166666666667,24.824074074074076,1440.3333333333333,24.203703703703702,1442.75,23.583333333333332C1445.1666666666667,22.962962962962962,1447.5833333333333,22.34259259259259,1450,21.72222222222222" fill="transparent" stroke-linecap="round" stroke="#E7C6DF" stroke-width="2"></path><g class="visx-group visx-axis visx-axis-bottom" transform="translate(0, 115)"><g class="visx-group visx-axis-tick" transform="translate(0, 0)"><line class="visx-line" x1="0" y1="0" x2="0" y2="8" fill="transparent" shape-rendering="crispEdges" stroke="#000" stroke-width="0" stroke-linecap="square"></line><svg x="0" y="0" font-size="10" style="overflow:visible"><text transform="" x="0" y="18" fill="#000" font-size="10" text-anchor="middle"><tspan x="0" dy="0em">0%</tspan></text></svg></g><g class="visx-group visx-axis-tick" transform="translate(0, 0)"><line class="visx-line" x1="362.5" y1="0" x2="362.5" y2="8" fill="transparent" shape-rendering="crispEdges" stroke="#000" stroke-width="0" stroke-linecap="square"></line><svg x="0" y="0" font-size="10" style="overflow:visible"><text transform="" x="362.5" y="18" fill="#000" font-size="10" text-anchor="middle"><tspan x="362.5" dy="0em">25%</tspan></text></svg></g><g class="visx-group visx-axis-tick" transform="translate(0, 0)"><line class="visx-line" x1="725" y1="0" x2="725" y2="8" fill="transparent" shape-rendering="crispEdges" stroke="#000" stroke-width="0" stroke-linecap="square"></line><svg x="0" y="0" font-size="10" style="overflow:visible"><text transform="" x="725" y="18" fill="#000" font-size="10" text-anchor="middle"><tspan x="725" dy="0em">50%</tspan></text></svg></g><g class="visx-group visx-axis-tick" transform="translate(0, 0)"><line class="visx-line" x1="1087.5" y1="0" x2="1087.5" y2="8" fill="transparent" shape-rendering="crispEdges" stroke="#000" stroke-width="0" stroke-linecap="square"></line><svg x="0" y="0" font-size="10" style="overflow:visible"><text transform="" x="1087.5" y="18" fill="#000" font-size="10" text-anchor="middle"><tspan x="1087.5" dy="0em">75%</tspan></text></svg></g><g class="visx-group visx-axis-tick" transform="translate(0, 0)"><line class="visx-line" x1="1450" y1="0" x2="1450" y2="8" fill="transparent" shape-rendering="crispEdges" stroke="#000" stroke-width="0" stroke-linecap="square"></line><svg x="0" y="0" font-size="10" style="overflow:visible"><text transform="" x="1450" y="18" fill="#000" font-size="10" text-anchor="middle"><tspan x="1450" dy="0em">100%</tspan></text></svg></g><line class="visx-line visx-axis-line" x1="0.5" y1="0" x2="1450.5" y2="0" fill="transparent" shape-rendering="crispEdges" stroke="#222" stroke-width="0"></line></g><g class="visx-group visx-axis visx-axis-left" transform="translate(0, 0)"><g class="visx-group visx-axis-tick" transform="translate(0, 0)"><line class="visx-line" x1="0" y1="115" x2="-8" y2="115" fill="transparent" shape-rendering="crispEdges" stroke="#222" stroke-width="0" stroke-linecap="square"></line><svg x="-30" y="0" font-size="8" style="overflow:visible"><text transform="" x="-8" y="115" fill="#000" font-size="8" text-anchor="start"><tspan x="-8" dy="0em">0%</tspan></text></svg></g><g class="visx-group visx-axis-tick" transform="translate(0, 0)"><line class="visx-line" x1="0" y1="51.11111111111111" x2="-8" y2="51.11111111111111" fill="transparent" shape-rendering="crispEdges" stroke="#222" stroke-width="0" stroke-linecap="square"></line><svg x="-30" y="0" font-size="8" style="overflow:visible"><text transform="" x="-8" y="51.11111111111111" fill="#000" font-size="8" text-anchor="start"><tspan x="-8" dy="0em">100%</tspan></text></svg></g><line class="visx-line visx-axis-line" x1="0" y1="115.5" x2="0" y2="0.5" fill="transparent" shape-rendering="crispEdges" stroke="#222" stroke-width="0"></line></g><rect class="visx-bar" width="1450" height="115" fill="transparent"></rect><line class="visx-line" x1="1116.5" y1="28" x2="1116.5" y2="115" fill="transparent" shape-rendering="crispEdges" stroke="#0062D2" stroke-width="1" pointer-events="none" stroke-dasharray="5,2"></line><svg x="0" y="0" font-size="10px" style="overflow:visible"><text transform="" x="1116.5" y="20" font-size="10px" fill="#fff" stroke="#fff" stroke-width="0.8em" text-anchor="middle"><tspan x="1116.5" dy="0.355em">Optimal 77%</tspan></text></svg><svg x="0" y="0" font-size="10px" style="overflow:visible"><text transform="" x="1116.5" y="20" font-size="10px" fill="#62677B" text-anchor="middle"><tspan x="1116.5" dy="0.355em">Optimal 77%</tspan></text></svg></g></svg>