<?xml version="1.0"?><svg xmlns="http://www.w3.org/2000/svg" xmlns:xlink= "http://www.w3.org/1999/xlink" style="background: white;" width="1500" height="300"> <g style="color: black; font-size: 13px; font-family: sans-serif; transform: translate(18px, 25px);"><g><circle r="3" cx="-6" cy="-5" style="fill: #1AD4B3" /><text>Borrow APR, variable</text></g><g style="transform: translateX(150px);"><circle r="3" cx="-6" cy="-5" style="fill: #101423" /><text>Borrow APR, stable</text></g></g><g class="visx-group" transform="translate(45, 50)"><g class="visx-group visx-rows" transform="translate(0, 0)"><line class="visx-line" x1="0" y1="155" x2="1425" y2="155" fill="transparent" shape-rendering="crispEdges" stroke="#F2F0F9" stroke-width="1" pointer-events="none"></line><line class="visx-line" x1="0" y1="77.5" x2="1425" y2="77.5" fill="transparent" shape-rendering="crispEdges" stroke="#F2F0F9" stroke-width="1" pointer-events="none"></line><line class="visx-line" x1="0" y1="0" x2="1425" y2="0" fill="transparent" shape-rendering="crispEdges" stroke="#F2F0F9" stroke-width="1" pointer-events="none"></line></g><path class="visx-linepath" d="M0,154.99999999977612C2.375,154.9626851850546,4.75,154.92537037033304,7.125,154.88805555555555C9.5,154.85074074077806,11.875,154.8134259259259,14.25,154.7761111111111C16.625,154.7387962962963,19,154.70148148148147,21.375,154.66416666666666C23.75,154.62685185185185,26.125,154.58953703703702,28.5,154.5522222222222C30.875,154.5149074074074,33.25,154.47759259259257,35.625,154.44027777777777C38,154.40296296296296,40.375,154.36564814814815,42.75,154.32833333333335C45.125,154.29101851851854,47.50000000000001,154.25370370370368,49.87500000000001,154.21638888888887C52.25000000000001,154.17907407407407,54.625,154.14175925925926,57,154.10444444444445C59.375,154.06712962962965,61.75,154.0298148148148,64.125,153.9925C66.5,153.9551851851852,68.875,153.91787037037037,71.25,153.88055555555556C73.625,153.84324074074075,76,153.80592592592592,78.375,153.7686111111111C80.75,153.7312962962963,83.125,153.69398148148147,85.5,153.65666666666667C87.875,153.61935185185186,90.25,153.58203703703703,92.625,153.54472222222222C95,153.5074074074074,97.37500000000001,153.47009259259258,99.75000000000001,153.43277777777777C102.12500000000001,153.39546296296297,104.5,153.35814814814813,106.875,153.32083333333333C109.25,153.28351851851852,111.625,153.24620370370369,114,153.20888888888888C116.375,153.17157407407407,118.75000000000001,153.13425925925924,121.12500000000001,153.09694444444443C123.50000000000001,153.05962962962963,125.875,153.0223148148148,128.25,152.98499999999999C130.625,152.94768518518518,133,152.91037037037037,135.375,152.87305555555557C137.75,152.83574074074076,140.125,152.7984259259259,142.5,152.7611111111111C144.875,152.72379629629629,147.25,152.68648148148148,149.625,152.64916666666667C152,152.61185185185187,154.375,152.57453703703703,156.75,152.53722222222223C159.125,152.49990740740742,161.5,152.46259259259259,163.875,152.42527777777778C166.25,152.38796296296297,168.625,152.35064814814814,171,152.31333333333333C173.375,152.27601851851853,175.75,152.2387037037037,178.125,152.20138888888889C180.5,152.16407407407408,182.875,152.12675925925925,185.25,152.08944444444444C187.625,152.05212962962963,190,152.0148148148148,192.375,151.9775C194.75,151.9401851851852,197.12500000000003,151.90287037037035,199.50000000000003,151.86555555555555C201.875,151.82824074074074,204.25,151.79092592592593,206.62499999999997,151.75361111111113C208.99999999999997,151.71629629629632,211.375,151.67898148148146,213.75,151.64166666666665C216.125,151.60435185185185,218.5,151.56703703703704,220.875,151.52972222222223C223.25,151.49240740740743,225.625,151.4550925925926,228,151.4177777777778C230.375,151.38046296296298,232.75,151.34314814814815,235.125,151.30583333333334C237.5,151.26851851851853,239.87500000000003,151.2312037037037,242.25000000000003,151.1938888888889C244.625,151.1565740740741,247,151.11925925925925,249.37499999999997,151.08194444444445C251.74999999999997,151.04462962962964,254.125,151.0073148148148,256.5,150.97C258.875,150.9326851851852,261.25,150.89537037037036,263.625,150.85805555555555C266,150.82074074074075,268.375,150.7834259259259,270.75,150.7461111111111C273.125,150.7087962962963,275.5,150.67148148148146,277.875,150.63416666666666C280.25,150.59685185185185,282.625,150.55953703703705,285,150.52222222222224C287.375,150.48490740740743,289.75,150.44759259259257,292.125,150.41027777777776C294.5,150.37296296296296,296.875,150.33564814814815,299.25,150.29833333333335C301.625,150.26101851851854,304,150.2237037037037,306.375,150.1863888888889C308.75,150.1490740740741,311.125,150.11175925925926,313.5,150.07444444444445C315.875,150.03712962962965,318.25,149.9998148148148,320.625,149.9625C323,149.9251851851852,325.375,149.88787037037036,327.75,149.85055555555556C330.125,149.81324074074075,332.5,149.77592592592592,334.875,149.7386111111111C337.25,149.7012962962963,339.625,149.66398148148147,342,149.62666666666667C344.375,149.58935185185186,346.75,149.55203703703702,349.125,149.51472222222222C351.5,149.4774074074074,353.875,149.44009259259258,356.25,149.40277777777777C358.625,149.36546296296297,361,149.32814814814813,363.375,149.29083333333332C365.75,149.25351851851852,368.125,149.21620370370368,370.5,149.17888888888888C372.875,149.14157407407407,375.25,149.10425925925927,377.625,149.06694444444446C380,149.02962962962965,382.375,148.9923148148148,384.75,148.95499999999998C387.125,148.91768518518518,389.50000000000006,148.88037037037037,391.87500000000006,148.84305555555557C394.25000000000006,148.80574074074076,396.62500000000006,148.76842592592592,399.00000000000006,148.73111111111112C401.375,148.6937962962963,403.75,148.65648148148148,406.12499999999994,148.61916666666667C408.49999999999994,148.58185185185187,410.87499999999994,148.54453703703703,413.24999999999994,148.50722222222223C415.62499999999994,148.46990740740742,418,148.43259259259258,420.375,148.39527777777778C422.75,148.35796296296297,425.125,148.32064814814814,427.5,148.28333333333333C429.875,148.24601851851853,432.25,148.2087037037037,434.625,148.17138888888888C437,148.13407407407408,439.375,148.09675925925924,441.75,148.05944444444444C444.125,148.02212962962963,446.5,147.9848148148148,448.875,147.9475C451.25,147.91018518518518,453.625,147.87287037037038,456,147.83555555555557C458.375,147.79824074074077,460.75,147.7609259259259,463.125,147.7236111111111C465.5,147.6862962962963,467.875,147.64898148148148,470.25,147.61166666666668C472.625,147.57435185185187,475.00000000000006,147.537037037037,477.37500000000006,147.4997222222222C479.75000000000006,147.4624074074074,482.12500000000006,147.4250925925926,484.50000000000006,147.38777777777779C486.875,147.35046296296298,489.25,147.31314814814814,491.62499999999994,147.27583333333334C493.99999999999994,147.23851851851853,496.37499999999994,147.2012037037037,498.74999999999994,147.1638888888889C501.12499999999994,147.12657407407409,503.5,147.08925925925925,505.875,147.05194444444444C508.25,147.01462962962964,510.625,146.9773148148148,513,146.94C515.375,146.9026851851852,517.75,146.86537037037036,520.125,146.82805555555555C522.5,146.79074074074074,524.875,146.7534259259259,527.25,146.7161111111111C529.625,146.6787962962963,532,146.64148148148146,534.375,146.60416666666666C536.75,146.56685185185185,539.125,146.52953703703702,541.5,146.4922222222222C543.875,146.4549074074074,546.25,146.4175925925926,548.625,146.3802777777778C551,146.34296296296299,553.375,146.30564814814815,555.75,146.26833333333335C558.125,146.23101851851854,560.5,146.1937037037037,562.875,146.1563888888889C565.25,146.1190740740741,567.625,146.08175925925926,570,146.04444444444445C572.375,146.00712962962965,574.75,145.9698148148148,577.125,145.9325C579.5,145.8951851851852,581.875,145.85787037037036,584.25,145.82055555555556C586.625,145.78324074074075,589,145.74592592592592,591.375,145.7086111111111C593.75,145.6712962962963,596.125,145.63398148148147,598.5,145.59666666666666C600.875,145.55935185185186,603.25,145.52203703703702,605.625,145.48472222222222C608,145.4474074074074,610.375,145.41009259259258,612.75,145.37277777777777C615.125,145.33546296296296,617.5,145.29814814814816,619.875,145.26083333333335C622.25,145.22351851851855,624.625,145.18620370370368,627,145.14888888888888C629.375,145.11157407407407,631.75,145.07425925925926,634.125,145.03694444444446C636.5,144.99962962962965,638.875,144.96231481481482,641.25,144.925C643.625,144.8876851851852,646,144.85037037037037,648.375,144.81305555555556C650.75,144.77574074074076,653.125,144.73842592592592,655.5,144.70111111111112C657.875,144.6637962962963,660.25,144.62648148148148,662.625,144.58916666666667C665,144.55185185185186,667.375,144.51453703703703,669.75,144.47722222222222C672.125,144.43990740740742,674.5,144.40259259259258,676.875,144.36527777777778C679.25,144.32796296296297,681.625,144.29064814814814,684,144.25333333333333C686.375,144.21601851851852,688.75,144.1787037037037,691.125,144.14138888888888C693.5,144.10407407407408,695.875,144.06675925925924,698.25,144.02944444444444C700.625,143.99212962962963,703,143.9548148148148,705.375,143.9175C707.75,143.88018518518518,710.125,143.84287037037038,712.5,143.80555555555557C714.875,143.76824074074077,717.25,143.7309259259259,719.625,143.6936111111111C722,143.6562962962963,724.375,143.61898148148148,726.75,143.58166666666668C729.125,143.54435185185187,731.5,143.50703703703704,733.875,143.46972222222223C736.25,143.43240740740742,738.625,143.3950925925926,741,143.35777777777778C743.375,143.32046296296298,745.75,143.28314814814814,748.125,143.24583333333334C750.5,143.20851851851853,752.875,143.1712037037037,755.25,143.1338888888889C757.625,143.09657407407408,760,143.05925925925925,762.375,143.02194444444444C764.75,142.98462962962964,767.125,142.9473148148148,769.5,142.91C771.875,142.8726851851852,774.2500000000001,142.83537037037036,776.6250000000001,142.79805555555555C779.0000000000001,142.76074074074074,781.3750000000001,142.7234259259259,783.7500000000001,142.6861111111111C786.1250000000001,142.6487962962963,788.5000000000001,142.61148148148146,790.8750000000001,142.57416666666666C793.2500000000001,142.53685185185185,795.6250000000001,142.49953703703702,798.0000000000001,142.4622222222222C800.375,142.4249074074074,802.75,142.3875925925926,805.1249999999999,142.3502777777778C807.4999999999999,142.31296296296298,809.8749999999999,142.27564814814812,812.2499999999999,142.23833333333332C814.6249999999999,142.2010185185185,816.9999999999999,142.1637037037037,819.3749999999999,142.1263888888889C821.7499999999999,142.0890740740741,824.1249999999999,142.05175925925926,826.4999999999999,142.01444444444445C828.8749999999999,141.97712962962964,831.25,141.9398148148148,833.625,141.9025C836,141.8651851851852,838.375,141.82787037037036,840.75,141.79055555555556C843.125,141.75324074074075,845.5,141.71592592592592,847.875,141.6786111111111C850.25,141.6412962962963,852.625,141.60398148148147,855,141.56666666666666C857.375,141.52935185185186,859.75,141.49203703703702,862.125,141.45472222222222C864.5,141.4174074074074,866.875,141.38009259259258,869.25,141.34277777777777C871.625,141.30546296296296,874,141.26814814814813,876.375,141.23083333333332C878.75,141.19351851851852,881.125,141.15620370370368,883.5,141.11888888888888C885.875,141.08157407407407,888.25,141.04425925925923,890.625,141.00694444444443C893,140.96962962962962,895.375,140.93231481481482,897.75,140.895C900.125,140.8576851851852,902.5,140.82037037037037,904.875,140.78305555555556C907.25,140.74574074074076,909.625,140.70842592592592,912,140.67111111111112C914.375,140.6337962962963,916.75,140.59648148148148,919.125,140.55916666666667C921.5,140.52185185185186,923.875,140.48453703703703,926.25,140.44722222222222C928.625,140.40990740740742,931,140.37259259259258,933.375,140.33527777777778C935.75,140.29796296296297,938.125,140.26064814814814,940.5,140.22333333333333C942.875,140.18601851851852,945.25,140.1487037037037,947.625,140.11138888888888C950,140.07407407407408,952.3750000000001,140.03675925925924,954.7500000000001,139.99944444444444C957.1250000000001,139.96212962962963,959.5000000000001,139.9248148148148,961.8750000000001,139.8875C964.2500000000001,139.85018518518518,966.6250000000001,139.81287037037038,969.0000000000001,139.77555555555557C971.3750000000001,139.73824074074076,973.7500000000001,139.7009259259259,976.1250000000001,139.6636111111111C978.5,139.6262962962963,980.875,139.58898148148148,983.2499999999999,139.55166666666668C985.6249999999999,139.51435185185187,987.9999999999999,139.47703703703704,990.3749999999999,139.43972222222223C992.7499999999999,139.40240740740742,995.1249999999999,139.3650925925926,997.4999999999999,139.32777777777778C999.8749999999999,139.29046296296298,1002.2499999999999,139.25314814814814,1004.6249999999999,139.21583333333334C1006.9999999999999,139.17851851851853,1009.375,139.1412037037037,1011.75,139.1038888888889C1014.125,139.06657407407408,1016.5,139.02925925925925,1018.875,138.99194444444444C1021.25,138.95462962962964,1023.625,138.9173148148148,1026,138.88C1028.375,138.8426851851852,1030.75,138.80537037037038,1033.125,138.76805555555558C1035.5,138.73074074074077,1037.875,138.6934259259259,1040.25,138.6561111111111C1042.625,138.6187962962963,1045,138.5814814814815,1047.375,138.54416666666668C1049.75,138.50685185185188,1052.125,138.46953703703701,1054.5,138.4322222222222C1056.875,138.3949074074074,1059.25,138.3575925925926,1061.625,138.3202777777778C1064,138.28296296296298,1066.375,138.24564814814812,1068.75,138.20833333333331C1071.125,138.1710185185185,1073.5,138.1337037037037,1075.875,138.0963888888889C1078.25,138.0590740740741,1080.625,138.02175925925926,1083,137.98444444444445C1085.375,137.94712962962964,1087.75,137.9098148148148,1090.125,137.8725C1092.5,137.8351851851852,1094.875,137.79787037037036,1097.25,137.76055555555556C1099.625,137.72324074074075,1102,137.68592592592591,1104.375,137.6486111111111C1106.75,137.6112962962963,1109.125,137.57398148148147,1111.5,137.53666666666666C1113.875,137.49935185185186,1116.25,137.46203703703702,1118.625,137.42472222222221C1121,137.3874074074074,1123.375,137.3500925925926,1125.75,137.3127777777778C1128.125,137.275462962963,1130.5,137.23814814814813,1132.875,137.20083333333332C1135.25,137.16351851851852,1137.625,137.1262037037037,1140,137.0888888888889C1142.375,137.0515740740741,1144.75,137.01425925925926,1147.125,136.97694444444446C1149.5,136.93962962962965,1151.875,136.90231481481482,1154.25,136.865C1156.625,136.8276851851852,1159,136.79037037037034,1161.375,136.75305555555553C1163.75,136.71574074074073,1166.125,136.67842592592592,1168.5,136.64111111111112C1170.875,136.6037962962963,1173.25,136.56648148148147,1175.625,136.52916666666667C1178,136.49185185185186,1180.375,136.45453703703703,1182.75,136.41722222222222C1185.125,136.37990740740742,1187.5,136.34259259259258,1189.875,136.30527777777777C1192.25,136.26796296296297,1194.625,136.23064814814813,1197,136.19333333333333C1199.375,136.15601851851852,1201.75,136.1187037037037,1204.125,136.08138888888888C1206.5,136.04407407407408,1208.875,136.00675925925924,1211.25,135.96944444444443C1213.625,135.93212962962963,1216,135.89481481481482,1218.375,135.85750000000002C1220.75,135.8201851851852,1223.125,135.78287037037035,1225.5,135.74555555555554C1227.875,135.70824074074073,1230.25,135.67092592592593,1232.625,135.63361111111112C1235,135.59629629629632,1237.375,135.55898148148145,1239.75,135.52166666666665C1242.125,135.48435185185184,1244.5,135.44703703703703,1246.875,135.40972222222223C1249.25,135.37240740740742,1251.625,135.3350925925926,1254,135.29777777777778C1256.375,135.26046296296298,1258.75,135.22314814814814,1261.125,135.18583333333333C1263.5,135.14851851851853,1265.875,135.1112037037037,1268.25,135.0738888888889C1270.625,135.03657407407408,1273,134.99925925925925,1275.375,134.96194444444444C1277.75,134.92462962962964,1280.125,134.92462962962964,1282.5,134.85C1284.875,134.77537037037035,1287.25,130.975,1289.625,129.0375C1292,127.1,1294.375,125.16250000000001,1296.75,123.22500000000001C1299.125,121.28750000000001,1301.5,119.35000000000001,1303.875,117.41250000000001C1306.25,115.47500000000001,1308.625,113.5375,1311,111.6C1313.375,109.6625,1315.75,107.725,1318.125,105.7875C1320.5,103.85,1322.875,101.91250000000001,1325.25,99.97500000000001C1327.625,98.03750000000001,1330,96.1,1332.375,94.1625C1334.75,92.225,1337.125,90.28750000000001,1339.5,88.35000000000001C1341.875,86.41250000000001,1344.25,84.475,1346.625,82.5375C1349,80.6,1351.375,78.6625,1353.75,76.725C1356.125,74.7875,1358.5,72.85000000000001,1360.875,70.91250000000001C1363.25,68.97500000000001,1365.625,67.03750000000001,1368,65.10000000000001C1370.375,63.16250000000001,1372.75,61.224999999999994,1375.125,59.287499999999994C1377.5,57.349999999999994,1379.875,55.412499999999994,1382.25,53.474999999999994C1384.625,51.537499999999994,1387,49.6,1389.375,47.6625C1391.75,45.725,1394.125,43.7875,1396.5,41.85C1398.875,39.9125,1401.25,37.97500000000001,1403.625,36.03750000000001C1406,34.10000000000001,1408.375,32.162499999999994,1410.75,30.22499999999999C1413.125,28.287499999999987,1415.5,26.349999999999994,1417.875,24.412499999999994C1420.25,22.474999999999994,1422.625,20.537499999999998,1425,18.599999999999998" fill="transparent" stroke-linecap="round" stroke="#1AD4B3" stroke-width="2"></path><g class="visx-group visx-axis visx-axis-bottom" transform="translate(0, 155)"><g class="visx-group visx-axis-tick" transform="translate(0, 0)"><line class="visx-line" x1="0" y1="0" x2="0" y2="8" fill="transparent" shape-rendering="crispEdges" stroke="#F2F0F9" stroke-width="1" stroke-linecap="square"></line><svg x="0" y="0" font-size="11" style="overflow:visible"><text transform="" x="0" y="19" fill="#1B2030" font-size="11" text-anchor="middle"><tspan x="0" dy="0em">0%</tspan></text></svg></g><g class="visx-group visx-axis-tick" transform="translate(0, 0)"><line class="visx-line" x1="356.25" y1="0" x2="356.25" y2="8" fill="transparent" shape-rendering="crispEdges" stroke="#F2F0F9" stroke-width="1" stroke-linecap="square"></line><svg x="0" y="0" font-size="11" style="overflow:visible"><text transform="" x="356.25" y="19" fill="#1B2030" font-size="11" text-anchor="middle"><tspan x="356.25" dy="0em">25%</tspan></text></svg></g><g class="visx-group visx-axis-tick" transform="translate(0, 0)"><line class="visx-line" x1="712.5" y1="0" x2="712.5" y2="8" fill="transparent" shape-rendering="crispEdges" stroke="#F2F0F9" stroke-width="1" stroke-linecap="square"></line><svg x="0" y="0" font-size="11" style="overflow:visible"><text transform="" x="712.5" y="19" fill="#1B2030" font-size="11" text-anchor="middle"><tspan x="712.5" dy="0em">50%</tspan></text></svg></g><g class="visx-group visx-axis-tick" transform="translate(0, 0)"><line class="visx-line" x1="1068.75" y1="0" x2="1068.75" y2="8" fill="transparent" shape-rendering="crispEdges" stroke="#F2F0F9" stroke-width="1" stroke-linecap="square"></line><svg x="0" y="0" font-size="11" style="overflow:visible"><text transform="" x="1068.75" y="19" fill="#1B2030" font-size="11" text-anchor="middle"><tspan x="1068.75" dy="0em">75%</tspan></text></svg></g><g class="visx-group visx-axis-tick" transform="translate(0, 0)"><line class="visx-line" x1="1425" y1="0" x2="1425" y2="8" fill="transparent" shape-rendering="crispEdges" stroke="#F2F0F9" stroke-width="1" stroke-linecap="square"></line><svg x="0" y="0" font-size="11" style="overflow:visible"><text transform="" x="1425" y="19" fill="#1B2030" font-size="11" text-anchor="middle"><tspan x="1425" dy="0em">100%</tspan></text></svg></g></g><g class="visx-group visx-axis visx-axis-left" transform="translate(0, 0)"><g class="visx-group visx-axis-tick" transform="translate(0, 0)"><line class="visx-line" x1="0" y1="155" x2="-8" y2="155" fill="transparent" shape-rendering="crispEdges" stroke="#F2F0F9" stroke-width="1" stroke-linecap="square"></line><svg x="-30" y="0" font-size="11" style="overflow:visible"><text transform="" x="-8" y="155" fill="#1B2030" font-size="11" text-anchor="start"><tspan x="-8" dy="0em">0%</tspan></text></svg></g><g class="visx-group visx-axis-tick" transform="translate(0, 0)"><line class="visx-line" x1="0" y1="77.5" x2="-8" y2="77.5" fill="transparent" shape-rendering="crispEdges" stroke="#F2F0F9" stroke-width="1" stroke-linecap="square"></line><svg x="-30" y="0" font-size="11" style="overflow:visible"><text transform="" x="-8" y="77.5" fill="#1B2030" font-size="11" text-anchor="start"><tspan x="-8" dy="0em">50%</tspan></text></svg></g><g class="visx-group visx-axis-tick" transform="translate(0, 0)"><line class="visx-line" x1="0" y1="0" x2="-8" y2="0" fill="transparent" shape-rendering="crispEdges" stroke="#F2F0F9" stroke-width="1" stroke-linecap="square"></line><svg x="-30" y="0" font-size="11" style="overflow:visible"><text transform="" x="-8" y="0" fill="#1B2030" font-size="11" text-anchor="start"><tspan x="-8" dy="0em">100%</tspan></text></svg></g><line class="visx-line visx-axis-line" x1="0" y1="155.5" x2="0" y2="0.5" fill="transparent" shape-rendering="crispEdges" stroke="#F2F0F9" stroke-width="1"></line></g><rect class="visx-bar" width="1425" height="155" fill="transparent"></rect><line class="visx-line" x1="1282.5" y1="58" x2="1282.5" y2="155" fill="transparent" shape-rendering="crispEdges" stroke="#CDC8E1" stroke-width="1" pointer-events="none" stroke-dasharray="5"></line><svg x="0" y="0" font-size="11px" style="overflow:visible"><text transform="" x="1282.5" y="50" font-size="11px" fill="#555069" stroke="#FFFFFF" stroke-width="1px" text-anchor="middle"><tspan x="1282.5" dy="0.355em">uOptimal 90%</tspan></text></svg><svg x="0" y="0" font-size="11px" style="overflow:visible"><text transform="" x="1282.5" y="50" font-size="11px" fill="#CDC8E1" text-anchor="middle"><tspan x="1282.5" dy="0.355em">uOptimal 90%</tspan></text></svg></g></svg>