<?xml version="1.0"?><svg xmlns="http://www.w3.org/2000/svg" xmlns:xlink= "http://www.w3.org/1999/xlink" style="background: white;" width="1500" height="300"> <g style="color: black; font-size: 13px; font-family: sans-serif; transform: translate(18px, 25px);"><g><circle r="3" cx="-6" cy="-5" style="fill: #1AD4B3" /><text>Borrow APR, variable</text></g><g style="transform: translateX(150px);"><circle r="3" cx="-6" cy="-5" style="fill: #101423" /><text>Borrow APR, stable</text></g></g><g class="visx-group" transform="translate(45, 50)"><g class="visx-group visx-rows" transform="translate(0, 0)"><line class="visx-line" x1="0" y1="155" x2="1425" y2="155" fill="transparent" shape-rendering="crispEdges" stroke="#F2F0F9" stroke-width="1" pointer-events="none"></line><line class="visx-line" x1="0" y1="107.3076923076923" x2="1425" y2="107.3076923076923" fill="transparent" shape-rendering="crispEdges" stroke="#F2F0F9" stroke-width="1" pointer-events="none"></line><line class="visx-line" x1="0" y1="59.61538461538461" x2="1425" y2="59.61538461538461" fill="transparent" shape-rendering="crispEdges" stroke="#F2F0F9" stroke-width="1" pointer-events="none"></line><line class="visx-line" x1="0" y1="11.923076923076914" x2="1425" y2="11.923076923076914" fill="transparent" shape-rendering="crispEdges" stroke="#F2F0F9" stroke-width="1" pointer-events="none"></line></g><path class="visx-linepath" d="M0,154.99999999880768C2.375,154.80128205058654,4.75,154.6025641023654,7.125,154.40384615384616C9.5,154.20512820532693,11.875,154.00641025641028,14.25,153.80769230769232C16.625,153.60897435897436,19,153.41025641025644,21.375,153.21153846153848C23.75,153.01282051282053,26.125,152.81410256410257,28.5,152.6153846153846C30.875,152.41666666666666,33.25,152.21794871794873,35.625,152.01923076923077C38,151.82051282051282,40.375,151.62179487179486,42.75,151.4230769230769C45.125,151.22435897435895,47.50000000000001,151.02564102564102,49.87500000000001,150.82692307692307C52.25000000000001,150.6282051282051,54.625,150.42948717948718,57,150.23076923076923C59.375,150.03205128205127,61.75,149.83333333333334,64.125,149.6346153846154C66.5,149.43589743589743,68.875,149.2371794871795,71.25,149.03846153846155C73.625,148.8397435897436,76,148.64102564102566,78.375,148.4423076923077C80.75,148.24358974358975,83.125,148.0448717948718,85.5,147.84615384615384C87.875,147.64743589743588,90.25,147.44871794871796,92.625,147.25C95,147.05128205128204,97.37500000000001,146.85256410256412,99.75000000000001,146.65384615384616C102.12500000000001,146.4551282051282,104.5,146.25641025641025,106.875,146.0576923076923C109.25,145.85897435897434,111.625,145.6602564102564,114,145.46153846153845C116.375,145.2628205128205,118.75000000000001,145.06410256410257,121.12500000000001,144.8653846153846C123.50000000000001,144.66666666666666,125.875,144.46794871794873,128.25,144.26923076923077C130.625,144.07051282051282,133,143.8717948717949,135.375,143.67307692307693C137.75,143.47435897435898,140.125,143.28668091168095,142.5,143.0769230769231C144.875,142.86716524216524,147.25,142.63532763532763,149.625,142.4145299145299C152,142.1937321937322,154.375,141.97293447293447,156.75,141.75213675213675C159.125,141.53133903133903,161.5,141.3105413105413,163.875,141.0897435897436C166.25,140.86894586894587,168.625,140.64814814814815,171,140.42735042735043C173.375,140.2065527065527,175.75,139.985754985755,178.125,139.76495726495727C180.5,139.54415954415956,182.875,139.32336182336184,185.25,139.10256410256412C187.625,138.8817663817664,190,138.66096866096868,192.375,138.44017094017096C194.75,138.21937321937324,197.12500000000003,137.9985754985755,199.50000000000003,137.77777777777777C201.875,137.55698005698005,204.25,137.33618233618233,206.62499999999997,137.1153846153846C208.99999999999997,136.8945868945869,211.375,136.67378917378917,213.75,136.45299145299145C216.125,136.23219373219374,218.5,136.01139601139602,220.875,135.7905982905983C223.25,135.56980056980058,225.625,135.34900284900286,228,135.12820512820514C230.375,134.90740740740742,232.75,134.6866096866097,235.125,134.46581196581198C237.5,134.24501424501426,239.87500000000003,134.02421652421654,242.25000000000003,133.80341880341882C244.625,133.5826210826211,247,133.36182336182338,249.37499999999997,133.14102564102566C251.74999999999997,132.92022792022794,254.125,132.6994301994302,256.5,132.47863247863248C258.875,132.25783475783476,261.25,132.03703703703704,263.625,131.81623931623932C266,131.5954415954416,268.375,131.37464387464388,270.75,131.15384615384616C273.125,130.93304843304844,275.5,130.71225071225072,277.875,130.491452991453C280.25,130.27065527065528,282.625,130.04985754985756,285,129.82905982905984C287.375,129.60826210826212,289.75,129.3874643874644,292.125,129.16666666666669C294.5,128.94586894586897,296.875,128.72507122507122,299.25,128.5042735042735C301.625,128.28347578347578,304,128.06267806267806,306.375,127.84188034188034C308.75,127.62108262108262,311.125,127.40028490028489,313.5,127.17948717948717C315.875,126.95868945868945,318.25,126.73789173789173,320.625,126.51709401709401C323,126.29629629629629,325.375,126.07549857549857,327.75,125.85470085470085C330.125,125.63390313390313,332.5,125.41310541310541,334.875,125.1923076923077C337.25,124.97150997150997,339.625,124.75071225071225,342,124.52991452991454C344.375,124.30911680911682,346.75,124.08831908831908,349.125,123.86752136752136C351.5,123.64672364672364,353.875,123.42592592592594,356.25,123.20512820512822C358.625,122.9843304843305,361,122.76353276353275,363.375,122.54273504273503C365.75,122.32193732193731,368.125,122.1011396011396,370.5,121.88034188034187C372.875,121.65954415954415,375.25,121.43874643874643,377.625,121.21794871794872C380,120.997150997151,382.375,120.77635327635328,384.75,120.55555555555556C387.125,120.33475783475784,389.50000000000006,120.11396011396012,391.87500000000006,119.8931623931624C394.25000000000006,119.67236467236468,396.62500000000006,119.45156695156695,399.00000000000006,119.23076923076923C401.375,119.0099715099715,403.75,118.78917378917377,406.12499999999994,118.56837606837605C408.49999999999994,118.34757834757833,410.87499999999994,118.12678062678062,413.24999999999994,117.9059829059829C415.62499999999994,117.68518518518518,418,117.46438746438746,420.375,117.24358974358974C422.75,117.02279202279202,425.125,116.8019943019943,427.5,116.58119658119658C429.875,116.36039886039886,432.25,116.13960113960114,434.625,115.91880341880342C437,115.6980056980057,439.375,115.47720797720798,441.75,115.25641025641026C444.125,115.03561253561254,446.5,114.81481481481482,448.875,114.5940170940171C451.25,114.37321937321938,453.625,114.15242165242167,456,113.93162393162395C458.375,113.71082621082623,460.75,113.4900284900285,463.125,113.26923076923077C465.5,113.04843304843305,467.875,112.82763532763533,470.25,112.60683760683762C472.625,112.3860398860399,475.00000000000006,112.16524216524216,477.37500000000006,111.94444444444444C479.75000000000006,111.72364672364672,482.12500000000006,111.502849002849,484.50000000000006,111.28205128205128C486.875,111.06125356125357,489.25,110.84045584045585,491.62499999999994,110.61965811965813C493.99999999999994,110.3988603988604,496.37499999999994,110.17806267806266,498.74999999999994,109.95726495726494C501.12499999999994,109.73646723646722,503.5,109.5156695156695,505.875,109.29487179487178C508.25,109.07407407407406,510.625,108.85327635327634,513,108.63247863247862C515.375,108.4116809116809,517.75,108.19088319088318,520.125,107.97008547008546C522.5,107.74928774928775,524.875,107.52849002849003,527.25,107.3076923076923C529.625,107.08689458689459,532,106.86609686609687,534.375,106.64529914529915C536.75,106.42450142450143,539.125,106.20370370370371,541.5,105.98290598290599C543.875,105.76210826210827,546.25,105.54131054131055,548.625,105.32051282051283C551,105.09971509971511,553.375,104.87891737891738,555.75,104.65811965811966C558.125,104.43732193732194,560.5,104.21652421652422,562.875,103.9957264957265C565.25,103.77492877492878,567.625,103.55413105413106,570,103.33333333333334C572.375,103.11253561253562,574.75,102.89173789173789,577.125,102.67094017094017C579.5,102.45014245014245,581.875,102.22934472934473,584.25,102.00854700854701C586.625,101.78774928774929,589,101.56695156695157,591.375,101.34615384615385C593.75,101.12535612535613,596.125,100.9045584045584,598.5,100.68376068376068C600.875,100.46296296296296,603.25,100.24216524216524,605.625,100.02136752136752C608,99.8005698005698,610.375,99.57977207977207,612.75,99.35897435897435C615.125,99.13817663817663,617.5,98.91737891737891,619.875,98.69658119658119C622.25,98.47578347578347,624.625,98.25498575498575,627,98.03418803418803C629.375,97.81339031339031,631.75,97.5925925925926,634.125,97.37179487179488C636.5,97.15099715099716,638.875,96.93019943019942,641.25,96.7094017094017C643.625,96.48860398860398,646,96.26780626780626,648.375,96.04700854700855C650.75,95.82621082621083,653.125,95.6054131054131,655.5,95.38461538461539C657.875,95.16381766381767,660.25,94.94301994301995,662.625,94.72222222222223C665,94.50142450142451,667.375,94.28062678062679,669.75,94.05982905982907C672.125,93.83903133903135,674.5,93.61823361823363,676.875,93.3974358974359C679.25,93.17663817663816,681.625,92.95584045584043,684,92.73504273504271C686.375,92.51424501424499,688.75,92.29344729344731,691.125,92.0726495726496C693.5,91.85185185185188,695.875,91.63105413105416,698.25,91.41025641025642C700.625,91.18945868945869,703,90.96866096866096,705.375,90.74786324786324C707.75,90.52706552706552,710.125,90.3062678062678,712.5,90.08547008547008C714.875,89.86467236467236,717.25,89.64387464387464,719.625,89.42307692307692C722,89.2022792022792,724.375,88.98148148148148,726.75,88.76068376068376C729.125,88.53988603988604,731.5,88.31908831908831,733.875,88.09829059829059C736.25,87.87749287749287,738.625,87.65669515669515,741,87.43589743589743C743.375,87.21509971509971,745.75,86.99430199430199,748.125,86.77350427350427C750.5,86.55270655270655,752.875,86.33190883190883,755.25,86.11111111111111C757.625,85.8903133903134,760,85.66951566951568,762.375,85.44871794871796C764.75,85.22792022792024,767.125,85.00712250712252,769.5,84.7863247863248C771.875,84.56552706552708,774.2500000000001,84.34472934472936,776.6250000000001,84.12393162393164C779.0000000000001,83.90313390313392,781.3750000000001,83.68233618233617,783.7500000000001,83.46153846153845C786.1250000000001,83.24074074074073,788.5000000000001,83.01994301994301,790.8750000000001,82.7991452991453C793.2500000000001,82.57834757834758,795.6250000000001,82.35754985754986,798.0000000000001,82.13675213675214C800.375,81.91595441595442,802.75,81.69515669515668,805.1249999999999,81.47435897435896C807.4999999999999,81.25356125356124,809.8749999999999,81.03276353276352,812.2499999999999,80.8119658119658C814.6249999999999,80.59116809116809,816.9999999999999,80.37037037037038,819.3749999999999,80.14957264957266C821.7499999999999,79.92877492877494,824.1249999999999,79.70797720797722,826.4999999999999,79.4871794871795C828.8749999999999,79.26638176638178,831.25,79.04558404558404,833.625,78.82478632478632C836,78.6039886039886,838.375,78.38319088319088,840.75,78.16239316239316C843.125,77.94159544159544,845.5,77.72079772079772,847.875,77.5C850.25,77.27920227920228,852.625,77.05840455840456,855,76.83760683760684C857.375,76.61680911680912,859.75,76.3960113960114,862.125,76.17521367521368C864.5,75.95441595441596,866.875,75.73361823361822,869.25,75.5128205128205C871.625,75.29202279202278,874,75.07122507122506,876.375,74.85042735042734C878.75,74.62962962962962,881.125,74.40883190883191,883.5,74.1880341880342C885.875,73.96723646723648,888.25,73.74643874643876,890.625,73.52564102564104C893,73.30484330484332,895.375,73.08404558404558,897.75,72.86324786324786C900.125,72.64245014245014,902.5,72.42165242165242,904.875,72.2008547008547C907.25,71.98005698005699,909.625,71.75925925925927,912,71.53846153846155C914.375,71.31766381766383,916.75,71.09686609686611,919.125,70.87606837606839C921.5,70.65527065527067,923.875,70.43447293447294,926.25,70.21367521367522C928.625,69.9928774928775,931,69.77207977207976,933.375,69.55128205128204C935.75,69.33048433048432,938.125,69.1096866096866,940.5,68.88888888888889C942.875,68.66809116809117,945.25,68.44729344729346,947.625,68.22649572649574C950,68.00569800569802,952.3750000000001,67.78490028490029,954.7500000000001,67.56410256410257C957.1250000000001,67.34330484330485,959.5000000000001,67.12250712250713,961.8750000000001,66.90170940170941C964.2500000000001,66.68091168091169,966.6250000000001,66.46011396011396,969.0000000000001,66.23931623931624C971.3750000000001,66.01851851851852,973.7500000000001,65.7977207977208,976.1250000000001,65.57692307692308C978.5,65.35612535612536,980.875,65.13532763532763,983.2499999999999,64.91452991452991C985.6249999999999,64.69373219373219,987.9999999999999,64.47293447293447,990.3749999999999,64.25213675213675C992.7499999999999,64.03133903133903,995.1249999999999,63.8105413105413,997.4999999999999,63.589743589743584C999.8749999999999,63.368945868945865,1002.2499999999999,63.148148148148145,1004.6249999999999,62.927350427350426C1006.9999999999999,62.706552706552706,1009.375,62.48575498575499,1011.75,62.26495726495727C1014.125,62.04415954415955,1016.5,61.82336182336183,1018.875,61.60256410256411C1021.25,61.38176638176639,1023.625,61.16096866096865,1026,60.94017094017093C1028.375,60.71937321937321,1030.75,60.49857549857549,1033.125,60.27777777777777C1035.5,60.05698005698005,1037.875,59.83618233618233,1040.25,59.61538461538461C1042.625,59.394586894586894,1045,59.17378917378917,1047.375,58.95299145299145C1049.75,58.73219373219373,1052.125,58.51139601139601,1054.5,58.29059829059829C1056.875,58.06980056980057,1059.25,57.84900284900285,1061.625,57.62820512820513C1064,57.40740740740741,1066.375,57.18660968660969,1068.75,56.96581196581197C1071.125,56.745014245014254,1073.5,56.52421652421651,1075.875,56.30341880341879C1078.25,56.082621082621074,1080.625,55.861823361823355,1083,55.641025641025635C1085.375,55.420227920227916,1087.75,55.19943019943019,1090.125,54.97863247863247C1092.5,54.75783475783475,1094.875,54.53703703703703,1097.25,54.31623931623931C1099.625,54.09544159544159,1102,53.87464387464387,1104.375,53.65384615384615C1106.75,53.433048433048434,1109.125,53.212250712250714,1111.5,52.991452991452995C1113.875,52.770655270655276,1116.25,52.54985754985755,1118.625,52.32905982905983C1121,52.10826210826211,1123.375,51.88746438746439,1125.75,51.66666666666667C1128.125,51.44586894586895,1130.5,51.22507122507123,1132.875,51.00427350427351C1135.25,50.783475783475794,1137.625,50.56267806267805,1140,50.341880341880334C1142.375,50.121082621082614,1144.75,49.900284900284895,1147.125,49.679487179487175C1149.5,49.458689458689456,1151.875,49.23789173789174,1154.25,49.01709401709402C1156.625,48.7962962962963,1159,48.57549857549857,1161.375,48.35470085470085C1163.75,48.13390313390313,1166.125,47.91310541310541,1168.5,47.69230769230769C1170.875,47.471509971509974,1173.25,47.250712250712255,1175.625,47.029914529914535C1178,46.809116809116816,1180.375,46.588319088319096,1182.75,46.36752136752138C1185.125,46.14672364672366,1187.5,45.92592592592593,1189.875,45.70512820512821C1192.25,45.48433048433049,1194.625,45.26353276353277,1197,45.04273504273505C1199.375,44.821937321937334,1201.75,44.6011396011396,1204.125,44.38034188034188C1206.5,44.15954415954416,1208.875,43.938746438746435,1211.25,43.717948717948715C1213.625,43.497150997150996,1216,43.27635327635328,1218.375,43.05555555555556C1220.75,42.83475783475784,1223.125,42.61396011396012,1225.5,42.3931623931624C1227.875,42.17236467236468,1230.25,41.95156695156696,1232.625,41.73076923076924C1235,41.50997150997152,1237.375,41.289173789173795,1239.75,41.068376068376075C1242.125,40.847578347578356,1244.5,40.626780626780636,1246.875,40.40598290598292C1249.25,40.1851851851852,1251.625,39.96438746438746,1254,39.74358974358974C1256.375,39.52279202279202,1258.75,39.3019943019943,1261.125,39.08119658119658C1263.5,38.86039886039886,1265.875,38.63960113960114,1268.25,38.41880341880342C1270.625,38.1980056980057,1273,37.97720797720798,1275.375,37.75641025641026C1277.75,37.53561253561254,1280.125,37.3148148148148,1282.5,37.09401709401708C1284.875,36.873219373219364,1287.25,36.652421652421644,1289.625,36.431623931623925C1292,36.210826210826205,1294.375,35.99002849002848,1296.75,35.76923076923076C1299.125,35.54843304843304,1301.5,35.32763532763532,1303.875,35.1068376068376C1306.25,34.88603988603988,1308.625,34.66524216524216,1311,34.44444444444444C1313.375,34.22364672364672,1315.75,34.002849002849004,1318.125,33.782051282051285C1320.5,33.561253561253565,1322.875,33.34045584045584,1325.25,33.11965811965812C1327.625,32.8988603988604,1330,32.678062678062666,1332.375,32.45726495726495C1334.75,32.23646723646723,1337.125,32.01566951566951,1339.5,31.794871794871785C1341.875,31.574074074074066,1344.25,31.35327635327635,1346.625,31.132478632478627C1349,30.911680911680904,1351.375,30.690883190883167,1353.75,30.470085470085447C1356.125,30.249287749287728,1358.5,30.02849002849002,1360.875,29.807692307692307C1363.25,29.586894586894594,1365.625,29.366096866096882,1368,29.145299145299163C1370.375,28.924501424501443,1372.75,28.703703703703706,1375.125,28.482905982905987C1377.5,28.262108262108267,1379.875,28.041310541310562,1382.25,27.820512820512842C1384.625,27.599715099715123,1387,27.378917378917393,1389.375,27.158119658119666C1391.75,26.93732193732194,1394.125,26.716524216524213,1396.5,26.495726495726487C1398.875,26.27492877492876,1401.25,26.05413105413103,1403.625,25.83333333333331C1406,25.61253561253559,1408.375,25.391737891737886,1410.75,25.170940170940167C1413.125,24.950142450142447,1415.5,24.72934472934471,1417.875,24.50854700854699C1420.25,24.28774928774927,1422.625,24.06695156695156,1425,23.846153846153847" fill="transparent" stroke-linecap="round" stroke="#1AD4B3" stroke-width="2"></path><g class="visx-group visx-axis visx-axis-bottom" transform="translate(0, 155)"><g class="visx-group visx-axis-tick" transform="translate(0, 0)"><line class="visx-line" x1="0" y1="0" x2="0" y2="8" fill="transparent" shape-rendering="crispEdges" stroke="#F2F0F9" stroke-width="1" stroke-linecap="square"></line><svg x="0" y="0" font-size="11" style="overflow:visible"><text transform="" x="0" y="19" fill="#1B2030" font-size="11" text-anchor="middle"><tspan x="0" dy="0em">0%</tspan></text></svg></g><g class="visx-group visx-axis-tick" transform="translate(0, 0)"><line class="visx-line" x1="356.25" y1="0" x2="356.25" y2="8" fill="transparent" shape-rendering="crispEdges" stroke="#F2F0F9" stroke-width="1" stroke-linecap="square"></line><svg x="0" y="0" font-size="11" style="overflow:visible"><text transform="" x="356.25" y="19" fill="#1B2030" font-size="11" text-anchor="middle"><tspan x="356.25" dy="0em">25%</tspan></text></svg></g><g class="visx-group visx-axis-tick" transform="translate(0, 0)"><line class="visx-line" x1="712.5" y1="0" x2="712.5" y2="8" fill="transparent" shape-rendering="crispEdges" stroke="#F2F0F9" stroke-width="1" stroke-linecap="square"></line><svg x="0" y="0" font-size="11" style="overflow:visible"><text transform="" x="712.5" y="19" fill="#1B2030" font-size="11" text-anchor="middle"><tspan x="712.5" dy="0em">50%</tspan></text></svg></g><g class="visx-group visx-axis-tick" transform="translate(0, 0)"><line class="visx-line" x1="1068.75" y1="0" x2="1068.75" y2="8" fill="transparent" shape-rendering="crispEdges" stroke="#F2F0F9" stroke-width="1" stroke-linecap="square"></line><svg x="0" y="0" font-size="11" style="overflow:visible"><text transform="" x="1068.75" y="19" fill="#1B2030" font-size="11" text-anchor="middle"><tspan x="1068.75" dy="0em">75%</tspan></text></svg></g><g class="visx-group visx-axis-tick" transform="translate(0, 0)"><line class="visx-line" x1="1425" y1="0" x2="1425" y2="8" fill="transparent" shape-rendering="crispEdges" stroke="#F2F0F9" stroke-width="1" stroke-linecap="square"></line><svg x="0" y="0" font-size="11" style="overflow:visible"><text transform="" x="1425" y="19" fill="#1B2030" font-size="11" text-anchor="middle"><tspan x="1425" dy="0em">100%</tspan></text></svg></g></g><g class="visx-group visx-axis visx-axis-left" transform="translate(0, 0)"><g class="visx-group visx-axis-tick" transform="translate(0, 0)"><line class="visx-line" x1="0" y1="155" x2="-8" y2="155" fill="transparent" shape-rendering="crispEdges" stroke="#F2F0F9" stroke-width="1" stroke-linecap="square"></line><svg x="-30" y="0" font-size="11" style="overflow:visible"><text transform="" x="-8" y="155" fill="#1B2030" font-size="11" text-anchor="start"><tspan x="-8" dy="0em">0%</tspan></text></svg></g><g class="visx-group visx-axis-tick" transform="translate(0, 0)"><line class="visx-line" x1="0" y1="107.3076923076923" x2="-8" y2="107.3076923076923" fill="transparent" shape-rendering="crispEdges" stroke="#F2F0F9" stroke-width="1" stroke-linecap="square"></line><svg x="-30" y="0" font-size="11" style="overflow:visible"><text transform="" x="-8" y="107.3076923076923" fill="#1B2030" font-size="11" text-anchor="start"><tspan x="-8" dy="0em">200%</tspan></text></svg></g><g class="visx-group visx-axis-tick" transform="translate(0, 0)"><line class="visx-line" x1="0" y1="59.61538461538461" x2="-8" y2="59.61538461538461" fill="transparent" shape-rendering="crispEdges" stroke="#F2F0F9" stroke-width="1" stroke-linecap="square"></line><svg x="-30" y="0" font-size="11" style="overflow:visible"><text transform="" x="-8" y="59.61538461538461" fill="#1B2030" font-size="11" text-anchor="start"><tspan x="-8" dy="0em">400%</tspan></text></svg></g><g class="visx-group visx-axis-tick" transform="translate(0, 0)"><line class="visx-line" x1="0" y1="11.923076923076914" x2="-8" y2="11.923076923076914" fill="transparent" shape-rendering="crispEdges" stroke="#F2F0F9" stroke-width="1" stroke-linecap="square"></line><svg x="-30" y="0" font-size="11" style="overflow:visible"><text transform="" x="-8" y="11.923076923076914" fill="#1B2030" font-size="11" text-anchor="start"><tspan x="-8" dy="0em">600%</tspan></text></svg></g><line class="visx-line visx-axis-line" x1="0" y1="155.5" x2="0" y2="0.5" fill="transparent" shape-rendering="crispEdges" stroke="#F2F0F9" stroke-width="1"></line></g><rect class="visx-bar" width="1425" height="155" fill="transparent"></rect><line class="visx-line" x1="142.5" y1="58" x2="142.5" y2="155" fill="transparent" shape-rendering="crispEdges" stroke="#CDC8E1" stroke-width="1" pointer-events="none" stroke-dasharray="5"></line><svg x="0" y="0" font-size="11px" style="overflow:visible"><text transform="" x="142.5" y="50" font-size="11px" fill="#555069" stroke="#FFFFFF" stroke-width="1px" text-anchor="middle"><tspan x="142.5" dy="0.355em">uOptimal 10%</tspan></text></svg><svg x="0" y="0" font-size="11px" style="overflow:visible"><text transform="" x="142.5" y="50" font-size="11px" fill="#CDC8E1" text-anchor="middle"><tspan x="142.5" dy="0.355em">uOptimal 10%</tspan></text></svg></g></svg>