<?xml version="1.0"?><svg xmlns="http://www.w3.org/2000/svg" xmlns:xlink= "http://www.w3.org/1999/xlink" style="background: white;" width="1500" height="185"> <g style="color: black; font-size: 13px; font-family: sans-serif; transform: translate(18px, 25px);"><g><circle r="3" cx="-6" cy="-5" style="fill: #B6509E" /><text>Borrow APR, variable</text></g><g style="transform: translateX(150px);"><circle r="3" cx="-6" cy="-5" style="fill: rgb(231, 198, 223)" /><text>Borrow APR, stable</text></g><g style="transform: translateX(290px);"><circle r="3" cx="-6" cy="-5" style="fill: rgb(0, 98, 210)" /><text>Utilization Rate</text></g></g><g class="visx-group" transform="translate(40, 50)"><g class="visx-group visx-rows" transform="translate(0, 0)"><line class="visx-line" x1="0" y1="115" x2="1450" y2="115" fill="transparent" shape-rendering="crispEdges" stroke="#000" stroke-width="1" stroke-dasharray="3,3" pointer-events="none"></line><line class="visx-line" x1="0" y1="86.25" x2="1450" y2="86.25" fill="transparent" shape-rendering="crispEdges" stroke="#000" stroke-width="1" stroke-dasharray="3,3" pointer-events="none"></line><line class="visx-line" x1="0" y1="57.5" x2="1450" y2="57.5" fill="transparent" shape-rendering="crispEdges" stroke="#000" stroke-width="1" stroke-dasharray="3,3" pointer-events="none"></line><line class="visx-line" x1="0" y1="28.75" x2="1450" y2="28.75" fill="transparent" shape-rendering="crispEdges" stroke="#000" stroke-width="1" stroke-dasharray="3,3" pointer-events="none"></line><line class="visx-line" x1="0" y1="0" x2="1450" y2="0" fill="transparent" shape-rendering="crispEdges" stroke="#000" stroke-width="1" stroke-dasharray="3,3" pointer-events="none"></line></g><path class="visx-linepath" d="M0,112.12499999984188C2.4166666666666665,112.0986458332411,4.833333333333334,112.07229166664033,7.25,112.04593750000001C9.666666666666666,112.01958333335969,12.083333333333334,111.99322916666667,14.5,111.966875C16.916666666666668,111.94052083333334,19.333333333333332,111.91416666666666,21.75,111.8878125C24.166666666666668,111.86145833333333,26.583333333333332,111.83510416666665,29,111.80874999999999C31.416666666666668,111.78239583333333,33.833333333333336,111.75604166666666,36.25,111.7296875C38.666666666666664,111.70333333333333,41.083333333333336,111.67697916666667,43.5,111.650625C45.91666666666667,111.62427083333334,48.333333333333336,111.59791666666666,50.75000000000001,111.5715625C53.16666666666667,111.54520833333333,55.583333333333336,111.51885416666667,58,111.4925C60.416666666666664,111.46614583333334,62.833333333333336,111.43979166666666,65.25,111.4134375C67.66666666666667,111.38708333333334,70.08333333333333,111.36072916666667,72.5,111.33437500000001C74.91666666666667,111.30802083333334,77.33333333333333,111.28166666666665,79.75,111.25531249999999C82.16666666666667,111.22895833333332,84.58333333333333,111.20260416666666,87,111.17625C89.41666666666667,111.14989583333333,91.83333333333333,111.12354166666667,94.25,111.0971875C96.66666666666667,111.07083333333334,99.08333333333334,111.04447916666666,101.50000000000001,111.018125C103.91666666666667,110.99177083333333,106.33333333333334,110.96541666666667,108.75,110.9390625C111.16666666666667,110.91270833333334,113.58333333333333,110.88635416666666,116,110.86C118.41666666666667,110.83364583333334,120.83333333333334,110.80729166666667,123.25000000000001,110.78093750000001C125.66666666666667,110.75458333333334,128.08333333333334,110.72822916666667,130.5,110.701875C132.91666666666666,110.67552083333334,135.33333333333334,110.64916666666666,137.75,110.6228125C140.16666666666666,110.59645833333333,142.58333333333334,110.57010416666667,145,110.54375C147.41666666666666,110.51739583333334,149.83333333333334,110.49104166666666,152.25,110.4646875C154.66666666666666,110.43833333333333,157.08333333333334,110.41197916666667,159.5,110.385625C161.91666666666666,110.35927083333334,164.33333333333334,110.33291666666666,166.75,110.3065625C169.16666666666666,110.28020833333333,171.58333333333334,110.25385416666667,174,110.2275C176.41666666666666,110.20114583333334,178.83333333333334,110.17479166666666,181.25,110.1484375C183.66666666666666,110.12208333333334,186.08333333333334,110.09572916666666,188.5,110.069375C190.91666666666666,110.04302083333333,193.33333333333334,110.01666666666667,195.75,109.9903125C198.16666666666669,109.96395833333334,200.58333333333334,109.93760416666666,203.00000000000003,109.91125C205.41666666666669,109.88489583333333,207.83333333333331,109.85854166666667,210.24999999999997,109.8321875C212.66666666666666,109.80583333333334,215.08333333333331,109.77947916666666,217.5,109.753125C219.91666666666666,109.72677083333333,222.33333333333334,109.70041666666667,224.75,109.6740625C227.16666666666666,109.64770833333334,229.58333333333334,109.62135416666666,232,109.595C234.41666666666666,109.56864583333333,236.83333333333334,109.54229166666667,239.25,109.5159375C241.66666666666669,109.48958333333334,244.08333333333334,109.46322916666665,246.50000000000003,109.43687499999999C248.91666666666669,109.41052083333332,251.33333333333331,109.38416666666666,253.74999999999997,109.3578125C256.16666666666663,109.33145833333333,258.5833333333333,109.30510416666667,261,109.27875C263.4166666666667,109.25239583333334,265.8333333333333,109.22604166666666,268.25,109.1996875C270.6666666666667,109.17333333333333,273.0833333333333,109.14697916666667,275.5,109.120625C277.9166666666667,109.09427083333334,280.3333333333333,109.06791666666666,282.75,109.0415625C285.1666666666667,109.01520833333333,287.5833333333333,108.98885416666667,290,108.9625C292.4166666666667,108.93614583333334,294.8333333333333,108.90979166666668,297.25,108.88343750000001C299.6666666666667,108.85708333333335,302.0833333333333,108.83072916666666,304.5,108.804375C306.9166666666667,108.77802083333333,309.3333333333333,108.75166666666667,311.75,108.7253125C314.1666666666667,108.69895833333334,316.5833333333333,108.67260416666666,319,108.64625C321.4166666666667,108.61989583333333,323.8333333333333,108.59354166666667,326.25,108.5671875C328.6666666666667,108.54083333333334,331.0833333333333,108.51447916666666,333.5,108.488125C335.9166666666667,108.46177083333333,338.3333333333333,108.43541666666667,340.75,108.4090625C343.1666666666667,108.38270833333334,345.5833333333333,108.35635416666666,348,108.33C350.4166666666667,108.30364583333333,352.8333333333333,108.27729166666667,355.25,108.2509375C357.6666666666667,108.22458333333334,360.0833333333333,108.19822916666666,362.5,108.171875C364.9166666666667,108.14552083333334,367.3333333333333,108.11916666666666,369.75,108.0928125C372.1666666666667,108.06645833333333,374.5833333333333,108.04010416666667,377,108.01375C379.4166666666667,107.98739583333334,381.8333333333333,107.96104166666666,384.25,107.9346875C386.6666666666667,107.90833333333333,389.0833333333333,107.88197916666667,391.5,107.855625C393.9166666666667,107.82927083333334,396.33333333333337,107.80291666666668,398.75000000000006,107.77656250000001C401.16666666666674,107.75020833333335,403.58333333333337,107.72385416666667,406.00000000000006,107.6975C408.4166666666667,107.67114583333334,410.8333333333333,107.64479166666666,413.24999999999994,107.6184375C415.66666666666663,107.59208333333333,418.08333333333326,107.56572916666666,420.49999999999994,107.53937499999999C422.91666666666663,107.51302083333333,425.3333333333333,107.48666666666666,427.75,107.4603125C430.1666666666667,107.43395833333334,432.5833333333333,107.40760416666666,435,107.38125C437.4166666666667,107.35489583333333,439.8333333333333,107.32854166666667,442.25,107.3021875C444.6666666666667,107.27583333333334,447.0833333333333,107.24947916666666,449.5,107.223125C451.9166666666667,107.19677083333333,454.3333333333333,107.17041666666667,456.75,107.1440625C459.1666666666667,107.11770833333334,461.5833333333333,107.09135416666668,464,107.06500000000001C466.4166666666667,107.03864583333335,468.8333333333333,107.01229166666666,471.25,106.98593749999999C473.6666666666667,106.95958333333333,476.0833333333333,106.93322916666666,478.5,106.906875C480.9166666666667,106.88052083333334,483.33333333333337,106.85416666666666,485.75000000000006,106.8278125C488.16666666666674,106.80145833333333,490.58333333333337,106.77510416666667,493.00000000000006,106.74875C495.4166666666667,106.72239583333334,497.8333333333333,106.69604166666666,500.24999999999994,106.6696875C502.66666666666663,106.64333333333333,505.08333333333326,106.61697916666667,507.49999999999994,106.590625C509.91666666666663,106.56427083333334,512.3333333333333,106.53791666666666,514.75,106.5115625C517.1666666666666,106.48520833333333,519.5833333333334,106.45885416666667,522,106.4325C524.4166666666666,106.40614583333334,526.8333333333334,106.37979166666666,529.25,106.3534375C531.6666666666666,106.32708333333333,534.0833333333334,106.30072916666666,536.5,106.27437499999999C538.9166666666666,106.24802083333333,541.3333333333334,106.22166666666666,543.75,106.1953125C546.1666666666666,106.16895833333334,548.5833333333334,106.14260416666666,551,106.11625C553.4166666666666,106.08989583333333,555.8333333333334,106.06354166666667,558.25,106.0371875C560.6666666666666,106.01083333333334,563.0833333333334,105.98447916666667,565.5,105.95812500000001C567.9166666666666,105.93177083333335,570.3333333333334,105.90541666666667,572.75,105.8790625C575.1666666666666,105.85270833333334,577.5833333333334,105.82635416666668,580,105.80000000000001C582.4166666666666,105.77364583333335,584.8333333333334,105.74729166666665,587.25,105.72093749999999C589.6666666666666,105.69458333333333,592.0833333333334,105.66822916666666,594.5,105.641875C596.9166666666666,105.61552083333333,599.3333333333334,105.58916666666667,601.75,105.5628125C604.1666666666666,105.53645833333334,606.5833333333334,105.51010416666666,609,105.48375C611.4166666666666,105.45739583333334,613.8333333333334,105.43104166666666,616.25,105.4046875C618.6666666666666,105.37833333333333,621.0833333333334,105.35197916666667,623.5,105.325625C625.9166666666666,105.29927083333334,628.3333333333334,105.27291666666667,630.75,105.24656250000001C633.1666666666666,105.22020833333335,635.5833333333334,105.19385416666667,638,105.1675C640.4166666666666,105.14114583333334,642.8333333333334,105.11479166666666,645.25,105.0884375C647.6666666666666,105.06208333333333,650.0833333333334,105.03572916666666,652.5,105.00937499999999C654.9166666666666,104.98302083333333,657.3333333333334,104.95666666666666,659.75,104.9303125C662.1666666666666,104.90395833333334,664.5833333333334,104.87760416666667,667,104.85125000000001C669.4166666666666,104.82489583333334,671.8333333333334,104.79854166666667,674.25,104.7721875C676.6666666666666,104.74583333333334,679.0833333333334,104.71947916666666,681.5,104.693125C683.9166666666666,104.66677083333333,686.3333333333334,104.64041666666667,688.75,104.6140625C691.1666666666666,104.58770833333334,693.5833333333334,104.56135416666666,696,104.535C698.4166666666666,104.50864583333333,700.8333333333334,104.48229166666665,703.25,104.45593749999999C705.6666666666666,104.42958333333333,708.0833333333334,104.40322916666666,710.5,104.376875C712.9166666666666,104.35052083333333,715.3333333333334,104.32416666666666,717.75,104.29781249999999C720.1666666666666,104.27145833333333,722.5833333333334,104.24510416666666,725,104.21875C727.4166666666666,104.19239583333334,729.8333333333334,104.16604166666667,732.25,104.13968750000001C734.6666666666666,104.11333333333334,737.0833333333334,104.08697916666667,739.5,104.060625C741.9166666666666,104.03427083333334,744.3333333333334,104.00791666666667,746.75,103.98156250000001C749.1666666666666,103.95520833333335,751.5833333333334,103.92885416666667,754,103.9025C756.4166666666666,103.87614583333334,758.8333333333334,103.84979166666666,761.25,103.8234375C763.6666666666666,103.79708333333333,766.0833333333334,103.77072916666667,768.5,103.744375C770.9166666666666,103.71802083333334,773.3333333333334,103.69166666666666,775.75,103.6653125C778.1666666666666,103.63895833333333,780.5833333333334,103.61260416666666,783,103.58624999999999C785.4166666666667,103.55989583333333,787.8333333333334,103.53354166666666,790.2500000000001,103.5071875C792.6666666666667,103.48083333333334,795.0833333333335,103.45447916666667,797.5000000000001,103.42812500000001C799.9166666666667,103.40177083333334,802.3333333333335,103.37541666666667,804.7500000000001,103.3490625C807.1666666666667,103.32270833333334,809.5833333333335,103.29635416666666,812.0000000000001,103.27C814.4166666666667,103.24364583333333,816.8333333333333,103.21729166666665,819.2499999999999,103.19093749999999C821.6666666666665,103.16458333333333,824.0833333333333,103.13822916666666,826.4999999999999,103.111875C828.9166666666665,103.08552083333333,831.3333333333333,103.05916666666667,833.7499999999999,103.0328125C836.1666666666665,103.00645833333334,838.5833333333333,102.98010416666666,840.9999999999999,102.95375C843.4166666666666,102.92739583333334,845.8333333333333,102.90104166666666,848.25,102.8746875C850.6666666666666,102.84833333333333,853.0833333333334,102.82197916666667,855.5,102.795625C857.9166666666666,102.76927083333334,860.3333333333334,102.74291666666667,862.75,102.71656250000001C865.1666666666666,102.69020833333335,867.5833333333334,102.66385416666665,870,102.63749999999999C872.4166666666666,102.61114583333332,874.8333333333334,102.58479166666666,877.25,102.5584375C879.6666666666666,102.53208333333333,882.0833333333334,102.50572916666665,884.5,102.47937499999999C886.9166666666666,102.45302083333333,889.3333333333334,102.42666666666666,891.75,102.4003125C894.1666666666666,102.37395833333333,896.5833333333334,102.34760416666667,899,102.32125C901.4166666666666,102.29489583333334,903.8333333333334,102.26854166666666,906.25,102.2421875C908.6666666666666,102.21583333333334,911.0833333333334,102.18947916666667,913.5,102.16312500000001C915.9166666666666,102.13677083333334,918.3333333333334,102.11041666666667,920.75,102.0840625C923.1666666666666,102.05770833333334,925.5833333333334,102.03135416666666,928,102.005C930.4166666666666,101.97864583333333,932.8333333333334,101.95229166666667,935.25,101.9259375C937.6666666666666,101.89958333333334,940.0833333333334,101.87322916666666,942.5,101.846875C944.9166666666666,101.82052083333333,947.3333333333334,101.79416666666667,949.75,101.7678125C952.1666666666666,101.74145833333334,954.5833333333334,101.71510416666666,957,101.68875C959.4166666666666,101.66239583333333,961.8333333333334,101.63604166666667,964.25,101.6096875C966.6666666666667,101.58333333333334,969.0833333333334,101.55697916666666,971.5000000000001,101.530625C973.9166666666667,101.50427083333334,976.3333333333335,101.47791666666667,978.7500000000001,101.45156250000001C981.1666666666667,101.42520833333334,983.5833333333335,101.39885416666665,986.0000000000001,101.37249999999999C988.4166666666667,101.34614583333332,990.8333333333335,101.31979166666666,993.2500000000001,101.2934375C995.6666666666667,101.26708333333333,998.0833333333333,101.24072916666667,1000.4999999999999,101.214375C1002.9166666666665,101.18802083333334,1005.3333333333333,101.16166666666666,1007.7499999999999,101.1353125C1010.1666666666665,101.10895833333333,1012.5833333333333,101.08260416666667,1014.9999999999999,101.05625C1017.4166666666665,101.02989583333334,1019.8333333333333,101.00354166666666,1022.2499999999999,100.9771875C1024.6666666666665,100.95083333333334,1027.0833333333333,100.92447916666667,1029.5,100.89812500000001C1031.9166666666667,100.87177083333334,1034.3333333333333,100.84541666666667,1036.75,100.8190625C1039.1666666666667,100.79270833333334,1041.5833333333333,100.76635416666666,1044,100.74C1046.4166666666667,100.71364583333333,1048.8333333333333,100.68729166666665,1051.25,100.66093749999999C1053.6666666666667,100.63458333333332,1056.0833333333333,100.60822916666666,1058.5,100.581875C1060.9166666666667,100.55552083333333,1063.3333333333333,100.52916666666667,1065.75,100.5028125C1068.1666666666667,100.47645833333334,1070.5833333333333,100.45010416666666,1073,100.42375C1075.4166666666667,100.39739583333333,1077.8333333333333,100.37104166666667,1080.25,100.3446875C1082.6666666666667,100.31833333333334,1085.0833333333333,100.29197916666666,1087.5,100.265625C1089.9166666666667,100.23927083333334,1092.3333333333333,100.21291666666666,1094.75,100.1865625C1097.1666666666667,100.16020833333333,1099.5833333333333,100.13385416666667,1102,100.1075C1104.4166666666667,100.08114583333334,1106.8333333333333,100.05479166666666,1109.25,100.0284375C1111.6666666666667,100.00208333333333,1114.0833333333333,99.97572916666667,1116.5,99.949375C1118.9166666666667,99.92302083333334,1121.3333333333333,99.89666666666666,1123.75,99.8703125C1126.1666666666667,99.84395833333333,1128.5833333333333,99.81760416666667,1131,99.79125C1133.4166666666667,99.76489583333334,1135.8333333333333,99.73854166666668,1138.25,99.71218750000001C1140.6666666666667,99.68583333333335,1143.0833333333333,99.65947916666667,1145.5,99.633125C1147.9166666666667,99.60677083333334,1150.3333333333333,99.58041666666665,1152.75,99.55406249999999C1155.1666666666667,99.52770833333332,1157.5833333333333,99.52770833333332,1160,99.475C1162.4166666666667,99.42229166666667,1164.8333333333333,98.0375,1167.25,97.31875C1169.6666666666667,96.6,1172.0833333333333,95.88125000000001,1174.5,95.16250000000001C1176.9166666666667,94.44375000000001,1179.3333333333333,93.725,1181.75,93.00625C1184.1666666666667,92.2875,1186.5833333333333,91.56875000000001,1189,90.85000000000001C1191.4166666666667,90.13125000000001,1193.8333333333333,89.4125,1196.25,88.69375C1198.6666666666667,87.975,1201.0833333333333,87.25625,1203.5,86.5375C1205.9166666666667,85.81875,1208.3333333333333,85.10000000000001,1210.75,84.38125000000001C1213.1666666666667,83.66250000000001,1215.5833333333333,82.94375000000001,1218,82.22500000000001C1220.4166666666667,81.50625000000001,1222.8333333333333,80.78750000000001,1225.25,80.06875000000001C1227.6666666666667,79.35000000000001,1230.0833333333333,78.63125,1232.5,77.9125C1234.9166666666667,77.19375,1237.3333333333333,76.475,1239.75,75.75625C1242.1666666666667,75.0375,1244.5833333333333,74.31875000000001,1247,73.60000000000001C1249.4166666666667,72.88125000000001,1251.8333333333333,72.16250000000001,1254.25,71.44375000000001C1256.6666666666667,70.72500000000001,1259.0833333333333,70.00625000000001,1261.5,69.28750000000001C1263.9166666666667,68.56875000000001,1266.3333333333333,67.85,1268.75,67.13125C1271.1666666666667,66.4125,1273.5833333333333,65.69375,1276,64.975C1278.4166666666667,64.25625,1280.8333333333333,63.5375,1283.25,62.81875C1285.6666666666667,62.1,1288.0833333333333,61.38125000000001,1290.5,60.66250000000001C1292.9166666666667,59.94375000000001,1295.3333333333333,59.225,1297.75,58.50625C1300.1666666666667,57.7875,1302.5833333333333,57.06875,1305,56.35C1307.4166666666667,55.63125,1309.8333333333333,54.912499999999994,1312.25,54.193749999999994C1314.6666666666667,53.474999999999994,1317.0833333333333,52.75625,1319.5,52.0375C1321.9166666666667,51.31875,1324.3333333333333,50.599999999999994,1326.75,49.881249999999994C1329.1666666666667,49.162499999999994,1331.5833333333333,48.44375,1334,47.725C1336.4166666666667,47.00625,1338.8333333333333,46.2875,1341.25,45.56875C1343.6666666666667,44.85,1346.0833333333333,44.131249999999994,1348.5,43.412499999999994C1350.9166666666667,42.693749999999994,1353.3333333333333,41.975,1355.75,41.25625C1358.1666666666667,40.5375,1360.5833333333333,39.818749999999994,1363,39.099999999999994C1365.4166666666667,38.381249999999994,1367.8333333333333,37.6625,1370.25,36.94375C1372.6666666666667,36.225,1375.0833333333333,35.50625,1377.5,34.7875C1379.9166666666667,34.06875,1382.3333333333333,33.349999999999994,1384.75,32.631249999999994C1387.1666666666667,31.912499999999994,1389.5833333333333,31.19375,1392,30.475C1394.4166666666667,29.75625,1396.8333333333333,29.037499999999998,1399.25,28.318749999999998C1401.6666666666667,27.599999999999998,1404.0833333333333,26.881250000000005,1406.5,26.162500000000005C1408.9166666666667,25.443750000000005,1411.3333333333333,24.725,1413.75,24.006249999999998C1416.1666666666667,23.287499999999994,1418.5833333333333,22.568749999999994,1421,21.849999999999994C1423.4166666666667,21.131249999999994,1425.8333333333333,20.4125,1428.25,19.69375C1430.6666666666667,18.975,1433.0833333333333,18.256249999999998,1435.5,17.537499999999998C1437.9166666666667,16.818749999999998,1440.3333333333333,16.100000000000005,1442.75,15.381250000000005C1445.1666666666667,14.662500000000005,1447.5833333333333,13.943750000000003,1450,13.225" fill="transparent" stroke-linecap="round" stroke="#B6509E" stroke-width="2"></path><path class="visx-linepath" d="M0,109.24999999998562C2.4166666666666665,109.24760416665828,4.833333333333334,109.24520833333094,7.25,109.2428125C9.666666666666666,109.24041666666906,12.083333333333334,109.23802083333334,14.5,109.235625C16.916666666666668,109.23322916666666,19.333333333333332,109.23083333333334,21.75,109.2284375C24.166666666666668,109.22604166666666,26.583333333333332,109.22364583333334,29,109.22125C31.416666666666668,109.21885416666666,33.833333333333336,109.21645833333334,36.25,109.2140625C38.666666666666664,109.21166666666666,41.083333333333336,109.20927083333333,43.5,109.206875C45.91666666666667,109.20447916666666,48.333333333333336,109.20208333333333,50.75000000000001,109.1996875C53.16666666666667,109.19729166666666,55.583333333333336,109.19489583333332,58,109.1925C60.416666666666664,109.19010416666666,62.833333333333336,109.18770833333335,65.25,109.18531250000001C67.66666666666667,109.18291666666667,70.08333333333333,109.18052083333333,72.5,109.178125C74.91666666666667,109.17572916666666,77.33333333333333,109.17333333333332,79.75,109.1709375C82.16666666666667,109.16854166666667,84.58333333333333,109.16614583333335,87,109.16375000000001C89.41666666666667,109.16135416666667,91.83333333333333,109.15895833333333,94.25,109.15656249999999C96.66666666666667,109.15416666666665,99.08333333333334,109.15177083333334,101.50000000000001,109.149375C103.91666666666667,109.14697916666668,106.33333333333334,109.14458333333334,108.75,109.1421875C111.16666666666667,109.13979166666667,113.58333333333333,109.13739583333333,116,109.13499999999999C118.41666666666667,109.13260416666665,120.83333333333334,109.13020833333334,123.25000000000001,109.1278125C125.66666666666667,109.12541666666668,128.08333333333334,109.12302083333334,130.5,109.120625C132.91666666666666,109.11822916666667,135.33333333333334,109.11583333333334,137.75,109.1134375C140.16666666666666,109.11104166666667,142.58333333333334,109.10864583333334,145,109.10625C147.41666666666666,109.10385416666666,149.83333333333334,109.10145833333334,152.25,109.0990625C154.66666666666666,109.09666666666666,157.08333333333334,109.09427083333334,159.5,109.091875C161.91666666666666,109.08947916666666,164.33333333333334,109.08708333333334,166.75,109.0846875C169.16666666666666,109.08229166666666,171.58333333333334,109.07989583333334,174,109.0775C176.41666666666666,109.07510416666666,178.83333333333334,109.07270833333334,181.25,109.0703125C183.66666666666666,109.06791666666666,186.08333333333334,109.06552083333334,188.5,109.063125C190.91666666666666,109.06072916666666,193.33333333333334,109.05833333333334,195.75,109.0559375C198.16666666666669,109.05354166666666,200.58333333333334,109.05114583333334,203.00000000000003,109.04875C205.41666666666669,109.04635416666666,207.83333333333331,109.04395833333334,210.24999999999997,109.0415625C212.66666666666666,109.03916666666666,215.08333333333331,109.03677083333334,217.5,109.034375C219.91666666666666,109.03197916666666,222.33333333333334,109.02958333333333,224.75,109.0271875C227.16666666666666,109.02479166666666,229.58333333333334,109.02239583333333,232,109.02C234.41666666666666,109.01760416666666,236.83333333333334,109.01520833333332,239.25,109.0128125C241.66666666666669,109.01041666666666,244.08333333333334,109.00802083333335,246.50000000000003,109.00562500000001C248.91666666666669,109.00322916666667,251.33333333333331,109.00083333333333,253.74999999999997,108.9984375C256.16666666666663,108.99604166666666,258.5833333333333,108.99364583333333,261,108.99125C263.4166666666667,108.98885416666667,265.8333333333333,108.98645833333333,268.25,108.98406250000001C270.6666666666667,108.98166666666668,273.0833333333333,108.97927083333335,275.5,108.976875C277.9166666666667,108.97447916666667,280.3333333333333,108.97208333333333,282.75,108.96968749999999C285.1666666666667,108.96729166666665,287.5833333333333,108.96489583333334,290,108.9625C292.4166666666667,108.96010416666667,294.8333333333333,108.95770833333334,297.25,108.9553125C299.6666666666667,108.95291666666667,302.0833333333333,108.95052083333333,304.5,108.94812499999999C306.9166666666667,108.94572916666665,309.3333333333333,108.94333333333333,311.75,108.9409375C314.1666666666667,108.93854166666668,316.5833333333333,108.93614583333334,319,108.93375C321.4166666666667,108.93135416666667,323.8333333333333,108.92895833333333,326.25,108.92656249999999C328.6666666666667,108.92416666666665,331.0833333333333,108.92177083333334,333.5,108.919375C335.9166666666667,108.91697916666666,338.3333333333333,108.91458333333334,340.75,108.9121875C343.1666666666667,108.90979166666666,345.5833333333333,108.90739583333334,348,108.905C350.4166666666667,108.90260416666666,352.8333333333333,108.90020833333334,355.25,108.8978125C357.6666666666667,108.89541666666666,360.0833333333333,108.89302083333334,362.5,108.890625C364.9166666666667,108.88822916666666,367.3333333333333,108.88583333333335,369.75,108.88343750000001C372.1666666666667,108.88104166666668,374.5833333333333,108.87864583333334,377,108.87625C379.4166666666667,108.87385416666666,381.8333333333333,108.87145833333332,384.25,108.8690625C386.6666666666667,108.86666666666667,389.0833333333333,108.86427083333335,391.5,108.86187500000001C393.9166666666667,108.85947916666667,396.33333333333337,108.85708333333334,398.75000000000006,108.8546875C401.16666666666674,108.85229166666666,403.58333333333337,108.84989583333333,406.00000000000006,108.8475C408.4166666666667,108.84510416666667,410.8333333333333,108.84270833333335,413.24999999999994,108.84031250000001C415.66666666666663,108.83791666666667,418.08333333333326,108.83552083333333,420.49999999999994,108.833125C422.91666666666663,108.83072916666666,425.3333333333333,108.82833333333333,427.75,108.8259375C430.1666666666667,108.82354166666667,432.5833333333333,108.82114583333335,435,108.81875000000001C437.4166666666667,108.81635416666667,439.8333333333333,108.81395833333333,442.25,108.8115625C444.6666666666667,108.80916666666666,447.0833333333333,108.80677083333333,449.5,108.804375C451.9166666666667,108.80197916666665,454.3333333333333,108.79958333333335,456.75,108.7971875C459.1666666666667,108.79479166666667,461.5833333333333,108.79239583333333,464,108.78999999999999C466.4166666666667,108.78760416666665,468.8333333333333,108.78520833333332,471.25,108.78281249999999C473.6666666666667,108.78041666666667,476.0833333333333,108.77802083333334,478.5,108.775625C480.9166666666667,108.77322916666667,483.33333333333337,108.77083333333333,485.75000000000006,108.76843749999999C488.16666666666674,108.76604166666665,490.58333333333337,108.76364583333334,493.00000000000006,108.76125C495.4166666666667,108.75885416666668,497.8333333333333,108.75645833333334,500.24999999999994,108.7540625C502.66666666666663,108.75166666666667,505.08333333333326,108.74927083333334,507.49999999999994,108.746875C509.91666666666663,108.74447916666666,512.3333333333333,108.74208333333334,514.75,108.7396875C517.1666666666666,108.73729166666666,519.5833333333334,108.73489583333334,522,108.7325C524.4166666666666,108.73010416666666,526.8333333333334,108.72770833333334,529.25,108.7253125C531.6666666666666,108.72291666666666,534.0833333333334,108.72052083333334,536.5,108.718125C538.9166666666666,108.71572916666666,541.3333333333334,108.71333333333334,543.75,108.7109375C546.1666666666666,108.70854166666666,548.5833333333334,108.70614583333334,551,108.70375C553.4166666666666,108.70135416666666,555.8333333333334,108.69895833333334,558.25,108.6965625C560.6666666666666,108.69416666666666,563.0833333333334,108.69177083333334,565.5,108.689375C567.9166666666666,108.68697916666666,570.3333333333334,108.68458333333334,572.75,108.6821875C575.1666666666666,108.67979166666666,577.5833333333334,108.67739583333334,580,108.675C582.4166666666666,108.67260416666666,584.8333333333334,108.67020833333333,587.25,108.6678125C589.6666666666666,108.66541666666666,592.0833333333334,108.66302083333332,594.5,108.660625C596.9166666666666,108.65822916666667,599.3333333333334,108.65583333333335,601.75,108.65343750000001C604.1666666666666,108.65104166666667,606.5833333333334,108.64864583333333,609,108.64625C611.4166666666666,108.64385416666666,613.8333333333334,108.64145833333333,616.25,108.63906250000001C618.6666666666666,108.63666666666668,621.0833333333334,108.63427083333335,623.5,108.63187500000001C625.9166666666666,108.62947916666667,628.3333333333334,108.62708333333333,630.75,108.6246875C633.1666666666666,108.62229166666665,635.5833333333334,108.61989583333335,638,108.6175C640.4166666666666,108.61510416666667,642.8333333333334,108.61270833333334,645.25,108.6103125C647.6666666666666,108.60791666666667,650.0833333333334,108.60552083333333,652.5,108.60312499999999C654.9166666666666,108.60072916666665,657.3333333333334,108.59833333333333,659.75,108.5959375C662.1666666666666,108.59354166666668,664.5833333333334,108.59114583333334,667,108.58875C669.4166666666666,108.58635416666667,671.8333333333334,108.58395833333333,674.25,108.58156249999999C676.6666666666666,108.57916666666665,679.0833333333334,108.57677083333334,681.5,108.574375C683.9166666666666,108.57197916666667,686.3333333333334,108.56958333333334,688.75,108.5671875C691.1666666666666,108.56479166666666,693.5833333333334,108.56239583333333,696,108.55999999999999C698.4166666666666,108.55760416666665,700.8333333333334,108.55520833333333,703.25,108.5528125C705.6666666666666,108.55041666666668,708.0833333333334,108.54802083333334,710.5,108.545625C712.9166666666666,108.54322916666666,715.3333333333334,108.54083333333332,717.75,108.53843749999999C720.1666666666666,108.53604166666665,722.5833333333334,108.53364583333334,725,108.53125C727.4166666666666,108.52885416666666,729.8333333333334,108.52645833333334,732.25,108.5240625C734.6666666666666,108.52166666666666,737.0833333333334,108.51927083333334,739.5,108.516875C741.9166666666666,108.51447916666666,744.3333333333334,108.51208333333334,746.75,108.5096875C749.1666666666666,108.50729166666666,751.5833333333334,108.50489583333334,754,108.5025C756.4166666666666,108.50010416666666,758.8333333333334,108.49770833333335,761.25,108.49531250000001C763.6666666666666,108.49291666666667,766.0833333333334,108.49052083333333,768.5,108.488125C770.9166666666666,108.48572916666666,773.3333333333334,108.48333333333332,775.75,108.4809375C778.1666666666666,108.47854166666667,780.5833333333334,108.47614583333335,783,108.47375000000001C785.4166666666667,108.47135416666667,787.8333333333334,108.46895833333333,790.2500000000001,108.4665625C792.6666666666667,108.46416666666666,795.0833333333335,108.46177083333333,797.5000000000001,108.459375C799.9166666666667,108.45697916666666,802.3333333333335,108.45458333333335,804.7500000000001,108.45218750000001C807.1666666666667,108.44979166666667,809.5833333333335,108.44739583333333,812.0000000000001,108.445C814.4166666666667,108.44260416666665,816.8333333333333,108.44020833333332,819.2499999999999,108.43781249999999C821.6666666666665,108.43541666666665,824.0833333333333,108.43302083333333,826.4999999999999,108.430625C828.9166666666665,108.42822916666668,831.3333333333333,108.42583333333334,833.7499999999999,108.4234375C836.1666666666665,108.42104166666667,838.5833333333333,108.41864583333333,840.9999999999999,108.41624999999999C843.4166666666666,108.41385416666665,845.8333333333333,108.41145833333334,848.25,108.4090625C850.6666666666666,108.40666666666668,853.0833333333334,108.40427083333334,855.5,108.401875C857.9166666666666,108.39947916666667,860.3333333333334,108.39708333333334,862.75,108.3946875C865.1666666666666,108.39229166666667,867.5833333333334,108.38989583333334,870,108.3875C872.4166666666666,108.38510416666666,874.8333333333334,108.38270833333334,877.25,108.3803125C879.6666666666666,108.37791666666666,882.0833333333334,108.37552083333334,884.5,108.373125C886.9166666666666,108.37072916666666,889.3333333333334,108.36833333333334,891.75,108.3659375C894.1666666666666,108.36354166666666,896.5833333333334,108.36114583333334,899,108.35875C901.4166666666666,108.35635416666666,903.8333333333334,108.35395833333334,906.25,108.3515625C908.6666666666666,108.34916666666666,911.0833333333334,108.34677083333334,913.5,108.344375C915.9166666666666,108.34197916666666,918.3333333333334,108.33958333333334,920.75,108.3371875C923.1666666666666,108.33479166666666,925.5833333333334,108.33239583333334,928,108.33C930.4166666666666,108.32760416666666,932.8333333333334,108.32520833333334,935.25,108.3228125C937.6666666666666,108.32041666666666,940.0833333333334,108.31802083333334,942.5,108.315625C944.9166666666666,108.31322916666666,947.3333333333334,108.31083333333333,949.75,108.3084375C952.1666666666666,108.30604166666666,954.5833333333334,108.30364583333333,957,108.30125C959.4166666666666,108.29885416666666,961.8333333333334,108.29645833333332,964.25,108.2940625C966.6666666666667,108.29166666666666,969.0833333333334,108.28927083333335,971.5000000000001,108.28687500000001C973.9166666666667,108.28447916666667,976.3333333333335,108.28208333333333,978.7500000000001,108.2796875C981.1666666666667,108.27729166666666,983.5833333333335,108.27489583333332,986.0000000000001,108.2725C988.4166666666667,108.27010416666667,990.8333333333335,108.26770833333335,993.2500000000001,108.26531250000001C995.6666666666667,108.26291666666667,998.0833333333333,108.26052083333333,1000.4999999999999,108.25812499999999C1002.9166666666665,108.25572916666665,1005.3333333333333,108.25333333333333,1007.7499999999999,108.2509375C1010.1666666666665,108.24854166666668,1012.5833333333333,108.24614583333334,1014.9999999999999,108.24375C1017.4166666666665,108.24135416666667,1019.8333333333333,108.23895833333333,1022.2499999999999,108.23656249999999C1024.6666666666665,108.23416666666665,1027.0833333333333,108.23177083333334,1029.5,108.229375C1031.9166666666667,108.22697916666668,1034.3333333333333,108.22458333333334,1036.75,108.2221875C1039.1666666666667,108.21979166666667,1041.5833333333333,108.21739583333334,1044,108.215C1046.4166666666667,108.21260416666667,1048.8333333333333,108.21020833333334,1051.25,108.2078125C1053.6666666666667,108.20541666666666,1056.0833333333333,108.20302083333334,1058.5,108.200625C1060.9166666666667,108.19822916666666,1063.3333333333333,108.19583333333334,1065.75,108.1934375C1068.1666666666667,108.19104166666666,1070.5833333333333,108.18864583333334,1073,108.18625C1075.4166666666667,108.18385416666666,1077.8333333333333,108.18145833333334,1080.25,108.1790625C1082.6666666666667,108.17666666666666,1085.0833333333333,108.17427083333334,1087.5,108.171875C1089.9166666666667,108.16947916666666,1092.3333333333333,108.16708333333334,1094.75,108.1646875C1097.1666666666667,108.16229166666666,1099.5833333333333,108.15989583333334,1102,108.1575C1104.4166666666667,108.15510416666666,1106.8333333333333,108.15270833333334,1109.25,108.1503125C1111.6666666666667,108.14791666666666,1114.0833333333333,108.14552083333334,1116.5,108.143125C1118.9166666666667,108.14072916666666,1121.3333333333333,108.13833333333334,1123.75,108.1359375C1126.1666666666667,108.13354166666666,1128.5833333333333,108.13114583333333,1131,108.12875C1133.4166666666667,108.12635416666666,1135.8333333333333,108.12395833333333,1138.25,108.1215625C1140.6666666666667,108.11916666666666,1143.0833333333333,108.11677083333333,1145.5,108.114375C1147.9166666666667,108.11197916666666,1150.3333333333333,108.10958333333335,1152.75,108.10718750000001C1155.1666666666667,108.10479166666667,1157.5833333333333,108.10479166666667,1160,108.1C1162.4166666666667,108.09520833333332,1164.8333333333333,107.38125000000001,1167.25,107.02187500000001C1169.6666666666667,106.66250000000001,1172.0833333333333,106.30312500000001,1174.5,105.94375000000001C1176.9166666666667,105.58437500000001,1179.3333333333333,105.225,1181.75,104.865625C1184.1666666666667,104.50625,1186.5833333333333,104.146875,1189,103.7875C1191.4166666666667,103.428125,1193.8333333333333,103.06875,1196.25,102.709375C1198.6666666666667,102.35,1201.0833333333333,101.99062500000001,1203.5,101.63125000000001C1205.9166666666667,101.27187500000001,1208.3333333333333,100.91250000000001,1210.75,100.55312500000001C1213.1666666666667,100.19375000000001,1215.5833333333333,99.834375,1218,99.475C1220.4166666666667,99.115625,1222.8333333333333,98.75625,1225.25,98.396875C1227.6666666666667,98.0375,1230.0833333333333,97.678125,1232.5,97.31875C1234.9166666666667,96.959375,1237.3333333333333,96.60000000000001,1239.75,96.24062500000001C1242.1666666666667,95.88125000000001,1244.5833333333333,95.52187500000001,1247,95.16250000000001C1249.4166666666667,94.80312500000001,1251.8333333333333,94.44375,1254.25,94.084375C1256.6666666666667,93.725,1259.0833333333333,93.365625,1261.5,93.00625C1263.9166666666667,92.646875,1266.3333333333333,92.2875,1268.75,91.928125C1271.1666666666667,91.56875,1273.5833333333333,91.20937500000001,1276,90.85000000000001C1278.4166666666667,90.49062500000001,1280.8333333333333,90.13125000000001,1283.25,89.77187500000001C1285.6666666666667,89.41250000000001,1288.0833333333333,89.053125,1290.5,88.69375C1292.9166666666667,88.334375,1295.3333333333333,87.975,1297.75,87.615625C1300.1666666666667,87.25625,1302.5833333333333,86.896875,1305,86.5375C1307.4166666666667,86.178125,1309.8333333333333,85.81875000000001,1312.25,85.45937500000001C1314.6666666666667,85.10000000000001,1317.0833333333333,84.74062500000001,1319.5,84.38125000000001C1321.9166666666667,84.02187500000001,1324.3333333333333,83.6625,1326.75,83.303125C1329.1666666666667,82.94375,1331.5833333333333,82.58437500000001,1334,82.22500000000001C1336.4166666666667,81.86562500000001,1338.8333333333333,81.50625,1341.25,81.146875C1343.6666666666667,80.7875,1346.0833333333333,80.42812500000001,1348.5,80.06875000000001C1350.9166666666667,79.70937500000001,1353.3333333333333,79.35000000000001,1355.75,78.99062500000001C1358.1666666666667,78.63125000000001,1360.5833333333333,78.271875,1363,77.9125C1365.4166666666667,77.553125,1367.8333333333333,77.19375000000001,1370.25,76.83437500000001C1372.6666666666667,76.47500000000001,1375.0833333333333,76.115625,1377.5,75.75625C1379.9166666666667,75.396875,1382.3333333333333,75.03750000000001,1384.75,74.67812500000001C1387.1666666666667,74.31875000000001,1389.5833333333333,73.95937500000001,1392,73.60000000000001C1394.4166666666667,73.24062500000001,1396.8333333333333,72.88125,1399.25,72.521875C1401.6666666666667,72.1625,1404.0833333333333,71.80312500000001,1406.5,71.44375000000001C1408.9166666666667,71.08437500000001,1411.3333333333333,70.725,1413.75,70.365625C1416.1666666666667,70.00625,1418.5833333333333,69.64687500000001,1421,69.28750000000001C1423.4166666666667,68.92812500000001,1425.8333333333333,68.56875000000001,1428.25,68.20937500000001C1430.6666666666667,67.85000000000001,1433.0833333333333,67.490625,1435.5,67.13125C1437.9166666666667,66.771875,1440.3333333333333,66.41250000000001,1442.75,66.05312500000001C1445.1666666666667,65.69375000000001,1447.5833333333333,65.334375,1450,64.975" fill="transparent" stroke-linecap="round" stroke="#E7C6DF" stroke-width="2"></path><g class="visx-group visx-axis visx-axis-bottom" transform="translate(0, 115)"><g class="visx-group visx-axis-tick" transform="translate(0, 0)"><line class="visx-line" x1="0" y1="0" x2="0" y2="8" fill="transparent" shape-rendering="crispEdges" stroke="#000" stroke-width="0" stroke-linecap="square"></line><svg x="0" y="0" font-size="10" style="overflow:visible"><text transform="" x="0" y="18" fill="#000" font-size="10" text-anchor="middle"><tspan x="0" dy="0em">0%</tspan></text></svg></g><g class="visx-group visx-axis-tick" transform="translate(0, 0)"><line class="visx-line" x1="362.5" y1="0" x2="362.5" y2="8" fill="transparent" shape-rendering="crispEdges" stroke="#000" stroke-width="0" stroke-linecap="square"></line><svg x="0" y="0" font-size="10" style="overflow:visible"><text transform="" x="362.5" y="18" fill="#000" font-size="10" text-anchor="middle"><tspan x="362.5" dy="0em">25%</tspan></text></svg></g><g class="visx-group visx-axis-tick" transform="translate(0, 0)"><line class="visx-line" x1="725" y1="0" x2="725" y2="8" fill="transparent" shape-rendering="crispEdges" stroke="#000" stroke-width="0" stroke-linecap="square"></line><svg x="0" y="0" font-size="10" style="overflow:visible"><text transform="" x="725" y="18" fill="#000" font-size="10" text-anchor="middle"><tspan x="725" dy="0em">50%</tspan></text></svg></g><g class="visx-group visx-axis-tick" transform="translate(0, 0)"><line class="visx-line" x1="1087.5" y1="0" x2="1087.5" y2="8" fill="transparent" shape-rendering="crispEdges" stroke="#000" stroke-width="0" stroke-linecap="square"></line><svg x="0" y="0" font-size="10" style="overflow:visible"><text transform="" x="1087.5" y="18" fill="#000" font-size="10" text-anchor="middle"><tspan x="1087.5" dy="0em">75%</tspan></text></svg></g><g class="visx-group visx-axis-tick" transform="translate(0, 0)"><line class="visx-line" x1="1450" y1="0" x2="1450" y2="8" fill="transparent" shape-rendering="crispEdges" stroke="#000" stroke-width="0" stroke-linecap="square"></line><svg x="0" y="0" font-size="10" style="overflow:visible"><text transform="" x="1450" y="18" fill="#000" font-size="10" text-anchor="middle"><tspan x="1450" dy="0em">100%</tspan></text></svg></g><line class="visx-line visx-axis-line" x1="0.5" y1="0" x2="1450.5" y2="0" fill="transparent" shape-rendering="crispEdges" stroke="#222" stroke-width="0"></line></g><g class="visx-group visx-axis visx-axis-left" transform="translate(0, 0)"><g class="visx-group visx-axis-tick" transform="translate(0, 0)"><line class="visx-line" x1="0" y1="115" x2="-8" y2="115" fill="transparent" shape-rendering="crispEdges" stroke="#222" stroke-width="0" stroke-linecap="square"></line><svg x="-30" y="0" font-size="8" style="overflow:visible"><text transform="" x="-8" y="115" fill="#000" font-size="8" text-anchor="start"><tspan x="-8" dy="0em">0%</tspan></text></svg></g><g class="visx-group visx-axis-tick" transform="translate(0, 0)"><line class="visx-line" x1="0" y1="57.5" x2="-8" y2="57.5" fill="transparent" shape-rendering="crispEdges" stroke="#222" stroke-width="0" stroke-linecap="square"></line><svg x="-30" y="0" font-size="8" style="overflow:visible"><text transform="" x="-8" y="57.5" fill="#000" font-size="8" text-anchor="start"><tspan x="-8" dy="0em">100%</tspan></text></svg></g><g class="visx-group visx-axis-tick" transform="translate(0, 0)"><line class="visx-line" x1="0" y1="0" x2="-8" y2="0" fill="transparent" shape-rendering="crispEdges" stroke="#222" stroke-width="0" stroke-linecap="square"></line><svg x="-30" y="0" font-size="8" style="overflow:visible"><text transform="" x="-8" y="0" fill="#000" font-size="8" text-anchor="start"><tspan x="-8" dy="0em">200%</tspan></text></svg></g><line class="visx-line visx-axis-line" x1="0" y1="115.5" x2="0" y2="0.5" fill="transparent" shape-rendering="crispEdges" stroke="#222" stroke-width="0"></line></g><rect class="visx-bar" width="1450" height="115" fill="transparent"></rect><line class="visx-line" x1="1160" y1="28" x2="1160" y2="115" fill="transparent" shape-rendering="crispEdges" stroke="#0062D2" stroke-width="1" pointer-events="none" stroke-dasharray="5,2"></line><svg x="0" y="0" font-size="10px" style="overflow:visible"><text transform="" x="1160" y="20" font-size="10px" fill="#fff" stroke="#fff" stroke-width="0.8em" text-anchor="middle"><tspan x="1160" dy="0.355em">Optimal 80%</tspan></text></svg><svg x="0" y="0" font-size="10px" style="overflow:visible"><text transform="" x="1160" y="20" font-size="10px" fill="#62677B" text-anchor="middle"><tspan x="1160" dy="0.355em">Optimal 80%</tspan></text></svg></g></svg>