<?xml version="1.0"?><svg xmlns="http://www.w3.org/2000/svg" xmlns:xlink= "http://www.w3.org/1999/xlink" style="background: white;" width="1500" height="300"> <g style="color: black; font-size: 13px; font-family: sans-serif; transform: translate(18px, 25px);"><g><circle r="3" cx="-6" cy="-5" style="fill: #1AD4B3" /><text>Borrow APR, variable</text></g><g style="transform: translateX(150px);"><circle r="3" cx="-6" cy="-5" style="fill: #101423" /><text>Borrow APR, stable</text></g></g><g class="visx-group" transform="translate(45, 50)"><g class="visx-group visx-rows" transform="translate(0, 0)"><line class="visx-line" x1="0" y1="155" x2="1425" y2="155" fill="transparent" shape-rendering="crispEdges" stroke="#F2F0F9" stroke-width="1" pointer-events="none"></line><line class="visx-line" x1="0" y1="99.64285714285714" x2="1425" y2="99.64285714285714" fill="transparent" shape-rendering="crispEdges" stroke="#F2F0F9" stroke-width="1" pointer-events="none"></line><line class="visx-line" x1="0" y1="44.285714285714285" x2="1425" y2="44.285714285714285" fill="transparent" shape-rendering="crispEdges" stroke="#F2F0F9" stroke-width="1" pointer-events="none"></line></g><path class="visx-linepath" d="M0,154.99999999988822C2.375,154.9813701922425,4.75,154.96274038459677,7.125,154.9441105769231C9.5,154.92548076924942,11.875,154.90685096153845,14.25,154.88822115384613C16.625,154.8695913461538,19,154.85096153846152,21.375,154.83233173076923C23.75,154.81370192307693,26.125,154.79507211538464,28.5,154.77644230769232C30.875,154.7578125,33.25,154.7391826923077,35.625,154.7205528846154C38,154.70192307692307,40.375,154.68329326923075,42.75,154.66466346153845C45.125,154.64603365384613,47.50000000000001,154.62740384615387,49.87500000000001,154.60877403846155C52.25000000000001,154.59014423076925,54.625,154.5715144230769,57,154.5528846153846C59.375,154.5342548076923,61.75,154.515625,64.125,154.4969951923077C66.5,154.47836538461542,68.875,154.4597355769231,71.25,154.44110576923077C73.625,154.42247596153845,76,154.40384615384613,78.375,154.38521634615384C80.75,154.36658653846155,83.125,154.34795673076923,85.5,154.32932692307693C87.875,154.31069711538464,90.25,154.29206730769232,92.625,154.2734375C95,154.25480769230768,97.37500000000001,154.2361778846154,99.75000000000001,154.21754807692307C102.12500000000001,154.19891826923077,104.5,154.18028846153845,106.875,154.16165865384616C109.25,154.14302884615384,111.625,154.12439903846152,114,154.10576923076923C116.375,154.0871394230769,118.75000000000001,154.06850961538464,121.12500000000001,154.04987980769232C123.50000000000001,154.03125000000003,125.875,154.0126201923077,128.25,153.9939903846154C130.625,153.97536057692307,133,153.95673076923077,135.375,153.93810096153845C137.75,153.91947115384613,140.125,153.90084134615387,142.5,153.88221153846155C144.875,153.86358173076923,147.25,153.84495192307693,149.625,153.8263221153846C152,153.8076923076923,154.375,153.7890625,156.75,153.77043269230768C159.125,153.75180288461536,161.5,153.7331730769231,163.875,153.71454326923077C166.25,153.69591346153845,168.625,153.67728365384616,171,153.65865384615384C173.375,153.64002403846152,175.75,153.62139423076923,178.125,153.6027644230769C180.5,153.58413461538458,182.875,153.56550480769232,185.25,153.546875C187.625,153.52824519230768,190,153.50961538461536,192.375,153.49098557692307C194.75,153.47235576923075,197.12500000000003,153.45372596153848,199.50000000000003,153.43509615384616C201.875,153.41646634615387,204.25,153.39783653846155,206.62499999999997,153.37920673076923C208.99999999999997,153.3605769230769,211.375,153.3419471153846,213.75,153.3233173076923C216.125,153.3046875,218.5,153.28605769230768,220.875,153.2674278846154C223.25,153.2487980769231,225.625,153.2301682692308,228,153.21153846153848C230.375,153.19290865384616,232.75,153.17427884615384,235.125,153.15564903846152C237.5,153.1370192307692,239.87500000000003,153.1183894230769,242.25000000000003,153.0997596153846C244.625,153.08112980769232,247,153.0625,249.37499999999997,153.0438701923077C251.74999999999997,153.0252403846154,254.125,153.0066105769231,256.5,152.98798076923077C258.875,152.96935096153845,261.25,152.95072115384613,263.625,152.93209134615384C266,152.91346153846155,268.375,152.89483173076923,270.75,152.87620192307693C273.125,152.85757211538464,275.5,152.83894230769232,277.875,152.8203125C280.25,152.80168269230768,282.625,152.78305288461542,285,152.7644230769231C287.375,152.74579326923077,289.75,152.72716346153848,292.125,152.70853365384616C294.5,152.68990384615384,296.875,152.67127403846155,299.25,152.65264423076923C301.625,152.6340144230769,304,152.61538461538464,306.375,152.59675480769232C308.75,152.578125,311.125,152.5594951923077,313.5,152.5408653846154C315.875,152.52223557692307,318.25,152.50360576923077,320.625,152.48497596153845C323,152.46634615384613,325.375,152.44771634615387,327.75,152.42908653846155C330.125,152.41045673076923,332.5,152.39182692307693,334.875,152.3731971153846C337.25,152.3545673076923,339.625,152.3359375,342,152.31730769230768C344.375,152.29867788461536,346.75,152.2800480769231,349.125,152.26141826923077C351.5,152.24278846153845,353.875,152.22415865384613,356.25,152.20552884615384C358.625,152.18689903846155,361,152.16826923076923,363.375,152.14963942307693C365.75,152.13100961538464,368.125,152.11237980769232,370.5,152.09375C372.875,152.07512019230768,375.25,152.05649038461536,377.625,152.03786057692307C380,152.01923076923077,382.375,152.00060096153845,384.75,151.98197115384616C387.125,151.96334134615384,389.50000000000006,151.94471153846155,391.87500000000006,151.92608173076923C394.25000000000006,151.9074519230769,396.62500000000006,151.8888221153846,399.00000000000006,151.8701923076923C401.375,151.8515625,403.75,151.83293269230768,406.12499999999994,151.8143028846154C408.49999999999994,151.79567307692307,410.87499999999994,151.77704326923075,413.24999999999994,151.75841346153845C415.62499999999994,151.73978365384613,418,151.72115384615387,420.375,151.70252403846155C422.75,151.68389423076925,425.125,151.66526442307693,427.5,151.6466346153846C429.875,151.6280048076923,432.25,151.609375,434.625,151.59074519230768C437,151.57211538461536,439.375,151.5534855769231,441.75,151.53485576923077C444.125,151.51622596153845,446.5,151.49759615384616,448.875,151.47896634615384C451.25,151.46033653846152,453.625,151.44170673076923,456,151.4230769230769C458.375,151.40444711538458,460.75,151.3858173076923,463.125,151.3671875C465.5,151.3485576923077,467.875,151.32992788461542,470.25,151.3112980769231C472.625,151.29266826923077,475.00000000000006,151.27403846153845,477.37500000000006,151.25540865384613C479.75000000000006,151.2367788461538,482.12500000000006,151.21814903846152,484.50000000000006,151.19951923076923C486.875,151.18088942307693,489.25,151.1622596153846,491.62499999999994,151.14362980769232C493.99999999999994,151.125,496.37499999999994,151.1063701923077,498.74999999999994,151.0877403846154C501.12499999999994,151.06911057692307,503.5,151.05048076923077,505.875,151.03185096153845C508.25,151.01322115384616,510.625,150.99459134615387,513,150.97596153846155C515.375,150.95733173076923,517.75,150.9387019230769,520.125,150.9200721153846C522.5,150.90144230769232,524.875,150.8828125,527.25,150.8641826923077C529.625,150.84555288461542,532,150.8269230769231,534.375,150.80829326923077C536.75,150.78966346153845,539.125,150.77103365384613,541.5,150.75240384615384C543.875,150.73377403846155,546.25,150.71514423076923,548.625,150.69651442307693C551,150.67788461538464,553.375,150.65925480769232,555.75,150.640625C558.125,150.62199519230768,560.5,150.60336538461536,562.875,150.58473557692307C565.25,150.56610576923077,567.625,150.54747596153845,570,150.52884615384616C572.375,150.51021634615387,574.75,150.49158653846155,577.125,150.47295673076923C579.5,150.4543269230769,581.875,150.43569711538464,584.25,150.41706730769232C586.625,150.3984375,589,150.3798076923077,591.375,150.3611778846154C593.75,150.34254807692307,596.125,150.32391826923077,598.5,150.30528846153845C600.875,150.28665865384613,603.25,150.26802884615387,605.625,150.24939903846155C608,150.23076923076923,610.375,150.21213942307693,612.75,150.1935096153846C615.125,150.1748798076923,617.5,150.15625,619.875,150.13762019230768C622.25,150.11899038461536,624.625,150.1003605769231,627,150.08173076923077C629.375,150.06310096153845,631.75,150.04447115384616,634.125,150.02584134615384C636.5,150.00721153846152,638.875,149.98858173076923,641.25,149.9699519230769C643.625,149.95132211538458,646,149.93269230769232,648.375,149.9140625C650.75,149.89543269230768,653.125,149.87680288461536,655.5,149.85817307692307C657.875,149.83954326923077,660.25,149.82091346153845,662.625,149.80228365384616C665,149.78365384615387,667.375,149.76502403846155,669.75,149.74639423076923C672.125,149.7277644230769,674.5,149.70913461538458,676.875,149.6905048076923C679.25,149.671875,681.625,149.65324519230768,684,149.6346153846154C686.375,149.6159855769231,688.75,149.5973557692308,691.125,149.57872596153848C693.5,149.56009615384616,695.875,149.54146634615384,698.25,149.52283653846152C700.625,149.5042067307692,703,149.4855769230769,705.375,149.4669471153846C707.75,149.44831730769232,710.125,149.4296875,712.5,149.4110576923077C714.875,149.39242788461542,717.25,149.3737980769231,719.625,149.35516826923077C722,149.33653846153845,724.375,149.31790865384613,726.75,149.29927884615384C729.125,149.28064903846155,731.5,149.26201923076923,733.875,149.24338942307693C736.25,149.22475961538464,738.625,149.2247596153846,741,149.1875C743.375,149.1502403846154,745.75,148.28025793650792,748.125,147.8266369047619C750.5,147.37301587301587,752.875,146.91939484126982,755.25,146.4657738095238C757.625,146.01215277777777,760,145.55853174603172,762.375,145.1049107142857C764.75,144.65128968253967,767.125,144.19766865079364,769.5,143.74404761904762C771.875,143.2904265873016,774.2500000000001,142.83680555555554,776.6250000000001,142.38318452380952C779.0000000000001,141.9295634920635,781.3750000000001,141.47594246031744,783.7500000000001,141.02232142857142C786.1250000000001,140.5687003968254,788.5000000000001,140.11507936507934,790.8750000000001,139.66145833333331C793.2500000000001,139.2078373015873,795.6250000000001,138.75421626984127,798.0000000000001,138.30059523809524C800.375,137.84697420634922,802.75,137.39335317460316,805.1249999999999,136.93973214285714C807.4999999999999,136.4861111111111,809.8749999999999,136.03249007936506,812.2499999999999,135.57886904761904C814.6249999999999,135.125248015873,816.9999999999999,134.67162698412696,819.3749999999999,134.21800595238093C821.7499999999999,133.7643849206349,824.1249999999999,133.31076388888889,826.4999999999999,132.85714285714286C828.8749999999999,132.40352182539684,831.25,131.94990079365078,833.625,131.49627976190476C836,131.04265873015873,838.375,130.58903769841268,840.75,130.13541666666666C843.125,129.68179563492063,845.5,129.2281746031746,847.875,128.77455357142858C850.25,128.32093253968256,852.625,127.8673115079365,855,127.41369047619047C857.375,126.96006944444443,859.75,126.50644841269839,862.125,126.05282738095237C864.5,125.59920634920634,866.875,125.14558531746032,869.25,124.69196428571429C871.625,124.23834325396827,874,123.78472222222223,876.375,123.33110119047619C878.75,122.87748015873015,881.125,122.42385912698413,883.5,121.97023809523809C885.875,121.51661706349205,888.25,121.06299603174602,890.625,120.609375C893,120.15575396825398,895.375,119.70213293650792,897.75,119.2485119047619C900.125,118.79489087301587,902.5,118.34126984126985,904.875,117.88764880952381C907.25,117.43402777777777,909.625,116.98040674603173,912,116.52678571428571C914.375,116.07316468253968,916.75,115.61954365079366,919.125,115.16592261904763C921.5,114.71230158730161,923.875,114.25868055555557,926.25,113.80505952380953C928.625,113.3514384920635,931,112.89781746031747,933.375,112.44419642857143C935.75,111.99057539682539,938.125,111.53695436507937,940.5,111.08333333333333C942.875,110.62971230158729,945.25,110.17609126984127,947.625,109.72247023809524C950,109.2688492063492,952.3750000000001,108.81522817460319,954.7500000000001,108.36160714285715C957.1250000000001,107.90798611111113,959.5000000000001,107.45436507936508,961.8750000000001,107.00074404761904C964.2500000000001,106.547123015873,966.6250000000001,106.09350198412697,969.0000000000001,105.63988095238095C971.3750000000001,105.18625992063492,973.7500000000001,104.7326388888889,976.1250000000001,104.27901785714286C978.5,103.82539682539684,980.875,103.37177579365078,983.2499999999999,102.91815476190476C985.6249999999999,102.46453373015872,987.9999999999999,102.01091269841271,990.3749999999999,101.55729166666667C992.7499999999999,101.10367063492063,995.1249999999999,100.65004960317458,997.4999999999999,100.19642857142856C999.8749999999999,99.74280753968253,1002.2499999999999,99.2891865079365,1004.6249999999999,98.83556547619048C1006.9999999999999,98.38194444444446,1009.375,97.92832341269843,1011.75,97.4747023809524C1014.125,97.02108134920637,1016.5,96.5674603174603,1018.875,96.11383928571428C1021.25,95.66021825396825,1023.625,95.20659722222223,1026,94.7529761904762C1028.375,94.29935515873018,1030.75,93.84573412698413,1033.125,93.39211309523809C1035.5,92.93849206349205,1037.875,92.48487103174602,1040.25,92.03125C1042.625,91.57762896825398,1045,91.12400793650794,1047.375,90.6703869047619C1049.75,90.21676587301586,1052.125,89.76314484126982,1054.5,89.3095238095238C1056.875,88.85590277777777,1059.25,88.40228174603175,1061.625,87.94866071428572C1064,87.4950396825397,1066.375,87.04141865079366,1068.75,86.58779761904762C1071.125,86.13417658730158,1073.5,85.68055555555554,1075.875,85.22693452380952C1078.25,84.7733134920635,1080.625,84.31969246031747,1083,83.86607142857144C1085.375,83.41245039682542,1087.75,82.95882936507937,1090.125,82.50520833333333C1092.5,82.05158730158729,1094.875,81.59796626984127,1097.25,81.14434523809523C1099.625,80.69072420634919,1102,80.23710317460316,1104.375,79.78348214285714C1106.75,79.32986111111111,1109.125,78.87624007936508,1111.5,78.42261904761905C1113.875,77.96899801587303,1116.25,77.51537698412699,1118.625,77.06175595238096C1121,76.60813492063494,1123.375,76.1545138888889,1125.75,75.70089285714286C1128.125,75.24727182539682,1130.5,74.79365079365078,1132.875,74.34002976190476C1135.25,73.88640873015873,1137.625,73.43278769841271,1140,72.97916666666667C1142.375,72.52554563492063,1144.75,72.07192460317461,1147.125,71.61830357142857C1149.5,71.16468253968253,1151.875,70.7110615079365,1154.25,70.25744047619048C1156.625,69.80381944444446,1159,69.3501984126984,1161.375,68.89657738095238C1163.75,68.44295634920636,1166.125,67.98933531746032,1168.5,67.53571428571429C1170.875,67.08209325396827,1173.25,66.62847222222223,1175.625,66.1748511904762C1178,65.72123015873018,1180.375,65.26760912698414,1182.75,64.8139880952381C1185.125,64.36036706349206,1187.5,63.90674603174604,1189.875,63.45312500000001C1192.25,62.999503968253975,1194.625,62.54588293650794,1197,62.092261904761905C1199.375,61.63864087301587,1201.75,61.18501984126984,1204.125,60.73139880952381C1206.5,60.27777777777778,1208.875,59.82415674603174,1211.25,59.37053571428571C1213.625,58.91691468253968,1216,58.463293650793645,1218.375,58.00967261904761C1220.75,57.55605158730158,1223.125,57.102430555555564,1225.5,56.64880952380953C1227.875,56.1951884920635,1230.25,55.74156746031746,1232.625,55.28794642857143C1235,54.8343253968254,1237.375,54.38070436507936,1239.75,53.92708333333333C1242.125,53.4734623015873,1244.5,53.01984126984128,1246.875,52.56622023809525C1249.25,52.112599206349216,1251.625,51.65897817460319,1254,51.20535714285715C1256.375,50.751736111111114,1258.75,50.29811507936507,1261.125,49.84449404761904C1263.5,49.390873015873005,1265.875,48.93725198412698,1268.25,48.48363095238095C1270.625,48.03000992063492,1273,47.576388888888886,1275.375,47.122767857142854C1277.75,46.66914682539682,1280.125,46.215525793650784,1282.5,45.76190476190475C1284.875,45.30828373015872,1287.25,44.8546626984127,1289.625,44.40104166666667C1292,43.94742063492064,1294.375,43.49379960317461,1296.75,43.04017857142858C1299.125,42.586557539682545,1301.5,42.13293650793652,1303.875,41.67931547619049C1306.25,41.22569444444446,1308.625,40.772073412698404,1311,40.31845238095237C1313.375,39.86483134920634,1315.75,39.41121031746032,1318.125,38.95758928571429C1320.5,38.50396825396826,1322.875,38.05034722222223,1325.25,37.5967261904762C1327.625,37.143105158730165,1330,36.68948412698411,1332.375,36.23586309523808C1334.75,35.78224206349205,1337.125,35.32862103174603,1339.5,34.875C1341.875,34.42137896825397,1344.25,33.96775793650793,1346.625,33.5141369047619C1349,33.060515873015866,1351.375,32.60689484126983,1353.75,32.153273809523796C1356.125,31.699652777777764,1358.5,31.246031746031743,1360.875,30.792410714285715C1363.25,30.338789682539687,1365.625,29.88516865079365,1368,29.431547619047617C1370.375,28.977926587301585,1372.75,28.524305555555546,1375.125,28.07068452380952C1377.5,27.61706349206349,1379.875,27.16344246031747,1382.25,26.709821428571438C1384.625,26.256200396825406,1387,25.802579365079353,1389.375,25.34895833333332C1391.75,24.89533730158729,1394.125,24.44171626984127,1396.5,23.988095238095237C1398.875,23.534474206349206,1401.25,23.08085317460317,1403.625,22.62723214285714C1406,22.173611111111107,1408.375,21.71999007936507,1410.75,21.26636904761904C1413.125,20.812748015873012,1415.5,20.359126984126988,1417.875,19.90550595238096C1420.25,19.45188492063493,1422.625,18.998263888888896,1425,18.54464285714286" fill="transparent" stroke-linecap="round" stroke="#1AD4B3" stroke-width="2"></path><g class="visx-group visx-axis visx-axis-bottom" transform="translate(0, 155)"><g class="visx-group visx-axis-tick" transform="translate(0, 0)"><line class="visx-line" x1="0" y1="0" x2="0" y2="8" fill="transparent" shape-rendering="crispEdges" stroke="#F2F0F9" stroke-width="1" stroke-linecap="square"></line><svg x="0" y="0" font-size="11" style="overflow:visible"><text transform="" x="0" y="19" fill="#1B2030" font-size="11" text-anchor="middle"><tspan x="0" dy="0em">0%</tspan></text></svg></g><g class="visx-group visx-axis-tick" transform="translate(0, 0)"><line class="visx-line" x1="356.25" y1="0" x2="356.25" y2="8" fill="transparent" shape-rendering="crispEdges" stroke="#F2F0F9" stroke-width="1" stroke-linecap="square"></line><svg x="0" y="0" font-size="11" style="overflow:visible"><text transform="" x="356.25" y="19" fill="#1B2030" font-size="11" text-anchor="middle"><tspan x="356.25" dy="0em">25%</tspan></text></svg></g><g class="visx-group visx-axis-tick" transform="translate(0, 0)"><line class="visx-line" x1="712.5" y1="0" x2="712.5" y2="8" fill="transparent" shape-rendering="crispEdges" stroke="#F2F0F9" stroke-width="1" stroke-linecap="square"></line><svg x="0" y="0" font-size="11" style="overflow:visible"><text transform="" x="712.5" y="19" fill="#1B2030" font-size="11" text-anchor="middle"><tspan x="712.5" dy="0em">50%</tspan></text></svg></g><g class="visx-group visx-axis-tick" transform="translate(0, 0)"><line class="visx-line" x1="1068.75" y1="0" x2="1068.75" y2="8" fill="transparent" shape-rendering="crispEdges" stroke="#F2F0F9" stroke-width="1" stroke-linecap="square"></line><svg x="0" y="0" font-size="11" style="overflow:visible"><text transform="" x="1068.75" y="19" fill="#1B2030" font-size="11" text-anchor="middle"><tspan x="1068.75" dy="0em">75%</tspan></text></svg></g><g class="visx-group visx-axis-tick" transform="translate(0, 0)"><line class="visx-line" x1="1425" y1="0" x2="1425" y2="8" fill="transparent" shape-rendering="crispEdges" stroke="#F2F0F9" stroke-width="1" stroke-linecap="square"></line><svg x="0" y="0" font-size="11" style="overflow:visible"><text transform="" x="1425" y="19" fill="#1B2030" font-size="11" text-anchor="middle"><tspan x="1425" dy="0em">100%</tspan></text></svg></g></g><g class="visx-group visx-axis visx-axis-left" transform="translate(0, 0)"><g class="visx-group visx-axis-tick" transform="translate(0, 0)"><line class="visx-line" x1="0" y1="155" x2="-8" y2="155" fill="transparent" shape-rendering="crispEdges" stroke="#F2F0F9" stroke-width="1" stroke-linecap="square"></line><svg x="-30" y="0" font-size="11" style="overflow:visible"><text transform="" x="-8" y="155" fill="#1B2030" font-size="11" text-anchor="start"><tspan x="-8" dy="0em">0%</tspan></text></svg></g><g class="visx-group visx-axis-tick" transform="translate(0, 0)"><line class="visx-line" x1="0" y1="99.64285714285714" x2="-8" y2="99.64285714285714" fill="transparent" shape-rendering="crispEdges" stroke="#F2F0F9" stroke-width="1" stroke-linecap="square"></line><svg x="-30" y="0" font-size="11" style="overflow:visible"><text transform="" x="-8" y="99.64285714285714" fill="#1B2030" font-size="11" text-anchor="start"><tspan x="-8" dy="0em">100%</tspan></text></svg></g><g class="visx-group visx-axis-tick" transform="translate(0, 0)"><line class="visx-line" x1="0" y1="44.285714285714285" x2="-8" y2="44.285714285714285" fill="transparent" shape-rendering="crispEdges" stroke="#F2F0F9" stroke-width="1" stroke-linecap="square"></line><svg x="-30" y="0" font-size="11" style="overflow:visible"><text transform="" x="-8" y="44.285714285714285" fill="#1B2030" font-size="11" text-anchor="start"><tspan x="-8" dy="0em">200%</tspan></text></svg></g><line class="visx-line visx-axis-line" x1="0" y1="155.5" x2="0" y2="0.5" fill="transparent" shape-rendering="crispEdges" stroke="#F2F0F9" stroke-width="1"></line></g><rect class="visx-bar" width="1425" height="155" fill="transparent"></rect><line class="visx-line" x1="741" y1="58" x2="741" y2="155" fill="transparent" shape-rendering="crispEdges" stroke="#CDC8E1" stroke-width="1" pointer-events="none" stroke-dasharray="5"></line><svg x="0" y="0" font-size="11px" style="overflow:visible"><text transform="" x="741" y="50" font-size="11px" fill="#555069" stroke="#FFFFFF" stroke-width="1px" text-anchor="middle"><tspan x="741" dy="0.355em">uOptimal 52%</tspan></text></svg><svg x="0" y="0" font-size="11px" style="overflow:visible"><text transform="" x="741" y="50" font-size="11px" fill="#CDC8E1" text-anchor="middle"><tspan x="741" dy="0.355em">uOptimal 52%</tspan></text></svg></g></svg>