<?xml version="1.0"?><svg xmlns="http://www.w3.org/2000/svg" xmlns:xlink= "http://www.w3.org/1999/xlink" style="background: white;" width="1500" height="185"> <g style="color: black; font-size: 13px; font-family: sans-serif; transform: translate(18px, 25px);"><g><circle r="3" cx="-6" cy="-5" style="fill: #B6509E" /><text>Borrow APR, variable</text></g><g style="transform: translateX(150px);"><circle r="3" cx="-6" cy="-5" style="fill: rgb(231, 198, 223)" /><text>Borrow APR, stable</text></g><g style="transform: translateX(290px);"><circle r="3" cx="-6" cy="-5" style="fill: rgb(0, 98, 210)" /><text>Utilization Rate</text></g></g><g class="visx-group" transform="translate(40, 50)"><g class="visx-group visx-rows" transform="translate(0, 0)"><line class="visx-line" x1="0" y1="115" x2="1450" y2="115" fill="transparent" shape-rendering="crispEdges" stroke="#000" stroke-width="1" stroke-dasharray="3,3" pointer-events="none"></line><line class="visx-line" x1="0" y1="86.25" x2="1450" y2="86.25" fill="transparent" shape-rendering="crispEdges" stroke="#000" stroke-width="1" stroke-dasharray="3,3" pointer-events="none"></line><line class="visx-line" x1="0" y1="57.5" x2="1450" y2="57.5" fill="transparent" shape-rendering="crispEdges" stroke="#000" stroke-width="1" stroke-dasharray="3,3" pointer-events="none"></line><line class="visx-line" x1="0" y1="28.75" x2="1450" y2="28.75" fill="transparent" shape-rendering="crispEdges" stroke="#000" stroke-width="1" stroke-dasharray="3,3" pointer-events="none"></line><line class="visx-line" x1="0" y1="0" x2="1450" y2="0" fill="transparent" shape-rendering="crispEdges" stroke="#000" stroke-width="1" stroke-dasharray="3,3" pointer-events="none"></line></g><path class="visx-linepath" d="M0,114.99999999992013C2.4166666666666665,114.98668981476823,4.833333333333334,114.97337962961632,7.25,114.96006944444444C9.666666666666666,114.94675925927257,12.083333333333334,114.93344907407408,14.5,114.92013888888889C16.916666666666668,114.9068287037037,19.333333333333332,114.89351851851852,21.75,114.88020833333333C24.166666666666668,114.86689814814814,26.583333333333332,114.85358796296296,29,114.84027777777777C31.416666666666668,114.82696759259258,33.833333333333336,114.81365740740739,36.25,114.80034722222221C38.666666666666664,114.78703703703704,41.083333333333336,114.77372685185186,43.5,114.76041666666667C45.91666666666667,114.74710648148148,48.333333333333336,114.73379629629629,50.75000000000001,114.7204861111111C53.16666666666667,114.70717592592591,55.583333333333336,114.69386574074073,58,114.68055555555556C60.416666666666664,114.66724537037037,62.833333333333336,114.65393518518519,65.25,114.640625C67.66666666666667,114.62731481481481,70.08333333333333,114.61400462962963,72.5,114.60069444444444C74.91666666666667,114.58738425925925,77.33333333333333,114.57407407407408,79.75,114.56076388888889C82.16666666666667,114.5474537037037,84.58333333333333,114.53414351851852,87,114.52083333333333C89.41666666666667,114.50752314814814,91.83333333333333,114.49421296296295,94.25,114.48090277777777C96.66666666666667,114.46759259259258,99.08333333333334,114.45428240740742,101.50000000000001,114.44097222222223C103.91666666666667,114.42766203703704,106.33333333333334,114.41435185185185,108.75,114.40104166666666C111.16666666666667,114.38773148148147,113.58333333333333,114.37442129629629,116,114.36111111111111C118.41666666666667,114.34780092592592,120.83333333333334,114.33449074074075,123.25000000000001,114.32118055555556C125.66666666666667,114.30787037037037,128.08333333333334,114.29456018518519,130.5,114.28125C132.91666666666666,114.26793981481481,135.33333333333334,114.25462962962963,137.75,114.24131944444444C140.16666666666666,114.22800925925925,142.58333333333334,114.21469907407408,145,114.20138888888889C147.41666666666666,114.1880787037037,149.83333333333334,114.1747685185185,152.25,114.16145833333333C154.66666666666666,114.14814814814815,157.08333333333334,114.13483796296298,159.5,114.12152777777779C161.91666666666666,114.1082175925926,164.33333333333334,114.0949074074074,166.75,114.08159722222221C169.16666666666666,114.06828703703702,171.58333333333334,114.05497685185185,174,114.04166666666667C176.41666666666666,114.0283564814815,178.83333333333334,114.0150462962963,181.25,114.00173611111111C183.66666666666666,113.98842592592592,186.08333333333334,113.97511574074075,188.5,113.96180555555556C190.91666666666666,113.94849537037037,193.33333333333334,113.93518518518519,195.75,113.921875C198.16666666666669,113.90856481481481,200.58333333333334,113.89525462962963,203.00000000000003,113.88194444444444C205.41666666666669,113.86863425925925,207.83333333333331,113.85532407407406,210.24999999999997,113.84201388888889C212.66666666666666,113.8287037037037,215.08333333333331,113.81539351851853,217.5,113.80208333333334C219.91666666666666,113.78877314814815,222.33333333333334,113.77546296296296,224.75,113.76215277777777C227.16666666666666,113.74884259259258,229.58333333333334,113.73553240740742,232,113.72222222222223C234.41666666666666,113.70891203703704,236.83333333333334,113.69560185185186,239.25,113.68229166666667C241.66666666666669,113.66898148148148,244.08333333333334,113.6556712962963,246.50000000000003,113.64236111111111C248.91666666666669,113.62905092592592,251.33333333333331,113.61574074074075,253.74999999999997,113.60243055555556C256.16666666666663,113.58912037037037,258.5833333333333,113.57581018518519,261,113.5625C263.4166666666667,113.54918981481481,265.8333333333333,113.53587962962962,268.25,113.52256944444444C270.6666666666667,113.50925925925927,273.0833333333333,113.49594907407409,275.5,113.4826388888889C277.9166666666667,113.46932870370371,280.3333333333333,113.45601851851852,282.75,113.44270833333333C285.1666666666667,113.42939814814814,287.5833333333333,113.41608796296296,290,113.40277777777779C292.4166666666667,113.38946759259261,294.8333333333333,113.37615740740742,297.25,113.36284722222223C299.6666666666667,113.34953703703704,302.0833333333333,113.33622685185186,304.5,113.32291666666667C306.9166666666667,113.30960648148148,309.3333333333333,113.2962962962963,311.75,113.28298611111111C314.1666666666667,113.26967592592592,316.5833333333333,113.25636574074075,319,113.24305555555556C321.4166666666667,113.22974537037037,323.8333333333333,113.21643518518519,326.25,113.203125C328.6666666666667,113.18981481481481,331.0833333333333,113.17650462962963,333.5,113.16319444444444C335.9166666666667,113.14988425925925,338.3333333333333,113.13657407407408,340.75,113.12326388888889C343.1666666666667,113.1099537037037,345.5833333333333,113.09664351851852,348,113.08333333333333C350.4166666666667,113.07002314814814,352.8333333333333,113.05671296296296,355.25,113.04340277777777C357.6666666666667,113.03009259259258,360.0833333333333,113.01678240740739,362.5,113.00347222222221C364.9166666666667,112.99016203703704,367.3333333333333,112.97685185185186,369.75,112.96354166666667C372.1666666666667,112.95023148148148,374.5833333333333,112.93692129629629,377,112.9236111111111C379.4166666666667,112.91030092592591,381.8333333333333,112.89699074074073,384.25,112.88368055555556C386.6666666666667,112.87037037037038,389.0833333333333,112.85706018518519,391.5,112.84375C393.9166666666667,112.83043981481481,396.33333333333337,112.81712962962963,398.75000000000006,112.80381944444444C401.16666666666674,112.79050925925925,403.58333333333337,112.77719907407408,406.00000000000006,112.76388888888889C408.4166666666667,112.7505787037037,410.8333333333333,112.73726851851852,413.24999999999994,112.72395833333333C415.66666666666663,112.71064814814814,418.08333333333326,112.69733796296295,420.49999999999994,112.68402777777777C422.91666666666663,112.67071759259258,425.3333333333333,112.65740740740742,427.75,112.64409722222223C430.1666666666667,112.63078703703704,432.5833333333333,112.61747685185185,435,112.60416666666666C437.4166666666667,112.59085648148147,439.8333333333333,112.5775462962963,442.25,112.56423611111111C444.6666666666667,112.55092592592592,447.0833333333333,112.53761574074075,449.5,112.52430555555556C451.9166666666667,112.51099537037037,454.3333333333333,112.49768518518519,456.75,112.484375C459.1666666666667,112.47106481481481,461.5833333333333,112.45775462962963,464,112.44444444444444C466.4166666666667,112.43113425925925,468.8333333333333,112.41782407407408,471.25,112.40451388888889C473.6666666666667,112.3912037037037,476.0833333333333,112.3778935185185,478.5,112.36458333333333C480.9166666666667,112.35127314814814,483.33333333333337,112.33796296296298,485.75000000000006,112.32465277777779C488.16666666666674,112.3113425925926,490.58333333333337,112.2980324074074,493.00000000000006,112.28472222222221C495.4166666666667,112.27141203703702,497.8333333333333,112.25810185185185,500.24999999999994,112.24479166666667C502.66666666666663,112.23148148148148,505.08333333333326,112.2181712962963,507.49999999999994,112.20486111111111C509.91666666666663,112.19155092592592,512.3333333333333,112.17824074074075,514.75,112.16493055555556C517.1666666666666,112.15162037037037,519.5833333333334,112.13831018518519,522,112.125C524.4166666666666,112.11168981481481,526.8333333333334,112.09837962962963,529.25,112.08506944444444C531.6666666666666,112.07175925925925,534.0833333333334,112.05844907407408,536.5,112.04513888888889C538.9166666666666,112.0318287037037,541.3333333333334,112.01851851851853,543.75,112.00520833333334C546.1666666666666,111.99189814814815,548.5833333333334,111.97858796296296,551,111.96527777777777C553.4166666666666,111.95196759259258,555.8333333333334,111.93865740740742,558.25,111.92534722222223C560.6666666666666,111.91203703703704,563.0833333333334,111.89872685185186,565.5,111.88541666666667C567.9166666666666,111.87210648148148,570.3333333333334,111.8587962962963,572.75,111.84548611111111C575.1666666666666,111.83217592592592,577.5833333333334,111.81886574074075,580,111.80555555555556C582.4166666666666,111.79224537037037,584.8333333333334,111.77893518518519,587.25,111.765625C589.6666666666666,111.75231481481481,592.0833333333334,111.73900462962962,594.5,111.72569444444444C596.9166666666666,111.71238425925927,599.3333333333334,111.69907407407409,601.75,111.6857638888889C604.1666666666666,111.67245370370371,606.5833333333334,111.65914351851852,609,111.64583333333333C611.4166666666666,111.63252314814814,613.8333333333334,111.61921296296296,616.25,111.60590277777779C618.6666666666666,111.59259259259261,621.0833333333334,111.57928240740742,623.5,111.56597222222223C625.9166666666666,111.55266203703704,628.3333333333334,111.53935185185186,630.75,111.52604166666667C633.1666666666666,111.51273148148148,635.5833333333334,111.4994212962963,638,111.48611111111111C640.4166666666666,111.47280092592592,642.8333333333334,111.45949074074075,645.25,111.44618055555556C647.6666666666666,111.43287037037037,650.0833333333334,111.41956018518519,652.5,111.40625C654.9166666666666,111.39293981481481,657.3333333333334,111.37962962962963,659.75,111.36631944444444C662.1666666666666,111.35300925925925,664.5833333333334,111.33969907407408,667,111.32638888888889C669.4166666666666,111.3130787037037,671.8333333333334,111.29976851851852,674.25,111.28645833333333C676.6666666666666,111.27314814814814,679.0833333333334,111.25983796296296,681.5,111.24652777777777C683.9166666666666,111.23321759259258,686.3333333333334,111.21990740740739,688.75,111.20659722222221C691.1666666666666,111.19328703703704,693.5833333333334,111.17997685185186,696,111.16666666666667C698.4166666666666,111.15335648148148,700.8333333333334,111.14004629629629,703.25,111.1267361111111C705.6666666666666,111.11342592592591,708.0833333333334,111.10011574074073,710.5,111.08680555555556C712.9166666666666,111.07349537037038,715.3333333333334,111.06018518518519,717.75,111.046875C720.1666666666666,111.03356481481481,722.5833333333334,111.02025462962963,725,111.00694444444444C727.4166666666666,110.99363425925925,729.8333333333334,110.98032407407408,732.25,110.96701388888889C734.6666666666666,110.9537037037037,737.0833333333334,110.94039351851852,739.5,110.92708333333333C741.9166666666666,110.91377314814814,744.3333333333334,110.90046296296296,746.75,110.88715277777777C749.1666666666666,110.87384259259258,751.5833333333334,110.86053240740742,754,110.84722222222223C756.4166666666666,110.83391203703704,758.8333333333334,110.82060185185185,761.25,110.80729166666666C763.6666666666666,110.79398148148147,766.0833333333334,110.7806712962963,768.5,110.76736111111111C770.9166666666666,110.75405092592592,773.3333333333334,110.74074074074075,775.75,110.72743055555556C778.1666666666666,110.71412037037037,780.5833333333334,110.70081018518519,783,110.6875C785.4166666666667,110.67418981481481,787.8333333333334,110.66087962962963,790.2500000000001,110.64756944444444C792.6666666666667,110.63425925925925,795.0833333333335,110.62094907407408,797.5000000000001,110.60763888888889C799.9166666666667,110.5943287037037,802.3333333333335,110.5810185185185,804.7500000000001,110.56770833333333C807.1666666666667,110.55439814814815,809.5833333333335,110.54108796296298,812.0000000000001,110.52777777777779C814.4166666666667,110.5144675925926,816.8333333333333,110.5011574074074,819.2499999999999,110.48784722222221C821.6666666666665,110.47453703703702,824.0833333333333,110.46122685185185,826.4999999999999,110.44791666666667C828.9166666666665,110.4346064814815,831.3333333333333,110.4212962962963,833.7499999999999,110.40798611111111C836.1666666666665,110.39467592592592,838.5833333333333,110.38136574074075,840.9999999999999,110.36805555555556C843.4166666666666,110.35474537037037,845.8333333333333,110.34143518518519,848.25,110.328125C850.6666666666666,110.31481481481481,853.0833333333334,110.30150462962963,855.5,110.28819444444444C857.9166666666666,110.27488425925925,860.3333333333334,110.26157407407408,862.75,110.24826388888889C865.1666666666666,110.2349537037037,867.5833333333334,110.22164351851853,870,110.20833333333334C872.4166666666666,110.19502314814815,874.8333333333334,110.18171296296296,877.25,110.16840277777777C879.6666666666666,110.15509259259258,882.0833333333334,110.14178240740742,884.5,110.12847222222223C886.9166666666666,110.11516203703704,889.3333333333334,110.10185185185186,891.75,110.08854166666667C894.1666666666666,110.07523148148148,896.5833333333334,110.0619212962963,899,110.04861111111111C901.4166666666666,110.03530092592592,903.8333333333334,110.02199074074075,906.25,110.00868055555556C908.6666666666666,109.99537037037037,911.0833333333334,109.98206018518519,913.5,109.96875C915.9166666666666,109.95543981481481,918.3333333333334,109.94212962962962,920.75,109.92881944444444C923.1666666666666,109.91550925925927,925.5833333333334,109.90219907407409,928,109.8888888888889C930.4166666666666,109.87557870370371,932.8333333333334,109.86226851851852,935.25,109.84895833333333C937.6666666666666,109.83564814814814,940.0833333333334,109.82233796296296,942.5,109.80902777777779C944.9166666666666,109.79571759259261,947.3333333333334,109.78240740740742,949.75,109.76909722222223C952.1666666666666,109.75578703703704,954.5833333333334,109.74247685185186,957,109.72916666666667C959.4166666666666,109.71585648148148,961.8333333333334,109.7025462962963,964.25,109.68923611111111C966.6666666666667,109.67592592592592,969.0833333333334,109.66261574074075,971.5000000000001,109.64930555555556C973.9166666666667,109.63599537037037,976.3333333333335,109.62268518518519,978.7500000000001,109.609375C981.1666666666667,109.59606481481481,983.5833333333335,109.58275462962963,986.0000000000001,109.56944444444444C988.4166666666667,109.55613425925925,990.8333333333335,109.54282407407408,993.2500000000001,109.52951388888889C995.6666666666667,109.51620370370371,998.0833333333333,109.50289351851853,1000.4999999999999,109.48958333333334C1002.9166666666665,109.47627314814815,1005.3333333333333,109.46296296296296,1007.7499999999999,109.44965277777777C1010.1666666666665,109.43634259259258,1012.5833333333333,109.42303240740739,1014.9999999999999,109.40972222222221C1017.4166666666665,109.39641203703704,1019.8333333333333,109.38310185185186,1022.2499999999999,109.36979166666667C1024.6666666666665,109.35648148148148,1027.0833333333333,109.34317129629629,1029.5,109.3298611111111C1031.9166666666667,109.31655092592591,1034.3333333333333,109.30324074074073,1036.75,109.28993055555556C1039.1666666666667,109.27662037037038,1041.5833333333333,109.26331018518519,1044,109.25C1046.4166666666667,109.23668981481481,1048.8333333333333,109.22337962962963,1051.25,109.21006944444444C1053.6666666666667,109.19675925925925,1056.0833333333333,109.18344907407408,1058.5,109.17013888888889C1060.9166666666667,109.1568287037037,1063.3333333333333,109.14351851851852,1065.75,109.13020833333333C1068.1666666666667,109.11689814814814,1070.5833333333333,109.10358796296296,1073,109.09027777777777C1075.4166666666667,109.07696759259258,1077.8333333333333,109.06365740740742,1080.25,109.05034722222223C1082.6666666666667,109.03703703703704,1085.0833333333333,109.02372685185185,1087.5,109.01041666666666C1089.9166666666667,108.99710648148147,1092.3333333333333,108.9837962962963,1094.75,108.97048611111111C1097.1666666666667,108.95717592592592,1099.5833333333333,108.94386574074075,1102,108.93055555555556C1104.4166666666667,108.91724537037037,1106.8333333333333,108.90393518518519,1109.25,108.890625C1111.6666666666667,108.87731481481481,1114.0833333333333,108.86400462962963,1116.5,108.85069444444444C1118.9166666666667,108.83738425925925,1121.3333333333333,108.82407407407408,1123.75,108.81076388888889C1126.1666666666667,108.7974537037037,1128.5833333333333,108.7841435185185,1131,108.77083333333333C1133.4166666666667,108.75752314814815,1135.8333333333333,108.74421296296298,1138.25,108.73090277777779C1140.6666666666667,108.7175925925926,1143.0833333333333,108.7042824074074,1145.5,108.69097222222221C1147.9166666666667,108.67766203703702,1150.3333333333333,108.66435185185185,1152.75,108.65104166666667C1155.1666666666667,108.6377314814815,1157.5833333333333,108.6244212962963,1160,108.61111111111111C1162.4166666666667,108.59780092592592,1164.8333333333333,108.58449074074075,1167.25,108.57118055555556C1169.6666666666667,108.55787037037037,1172.0833333333333,108.54456018518519,1174.5,108.53125C1176.9166666666667,108.51793981481481,1179.3333333333333,108.50462962962963,1181.75,108.49131944444444C1184.1666666666667,108.47800925925925,1186.5833333333333,108.46469907407408,1189,108.45138888888889C1191.4166666666667,108.4380787037037,1193.8333333333333,108.42476851851853,1196.25,108.41145833333334C1198.6666666666667,108.39814814814815,1201.0833333333333,108.38483796296296,1203.5,108.37152777777777C1205.9166666666667,108.35821759259258,1208.3333333333333,108.34490740740742,1210.75,108.33159722222223C1213.1666666666667,108.31828703703704,1215.5833333333333,108.30497685185186,1218,108.29166666666667C1220.4166666666667,108.27835648148148,1222.8333333333333,108.2650462962963,1225.25,108.25173611111111C1227.6666666666667,108.23842592592592,1230.0833333333333,108.22511574074075,1232.5,108.21180555555556C1234.9166666666667,108.19849537037037,1237.3333333333333,108.18518518518519,1239.75,108.171875C1242.1666666666667,108.15856481481481,1244.5833333333333,108.14525462962962,1247,108.13194444444444C1249.4166666666667,108.11863425925927,1251.8333333333333,108.10532407407409,1254.25,108.0920138888889C1256.6666666666667,108.07870370370371,1259.0833333333333,108.06539351851852,1261.5,108.05208333333333C1263.9166666666667,108.03877314814814,1266.3333333333333,108.02546296296296,1268.75,108.01215277777779C1271.1666666666667,107.99884259259261,1273.5833333333333,107.98553240740742,1276,107.97222222222223C1278.4166666666667,107.95891203703704,1280.8333333333333,107.94560185185186,1283.25,107.93229166666667C1285.6666666666667,107.91898148148148,1288.0833333333333,107.9056712962963,1290.5,107.89236111111111C1292.9166666666667,107.87905092592592,1295.3333333333333,107.86574074074075,1297.75,107.85243055555556C1300.1666666666667,107.83912037037037,1302.5833333333333,107.83912037037037,1305,107.8125C1307.4166666666667,107.78587962962963,1309.8333333333333,104.9375,1312.25,103.5C1314.6666666666667,102.0625,1317.0833333333333,100.625,1319.5,99.1875C1321.9166666666667,97.75,1324.3333333333333,96.3125,1326.75,94.875C1329.1666666666667,93.4375,1331.5833333333333,92,1334,90.5625C1336.4166666666667,89.125,1338.8333333333333,87.6875,1341.25,86.25C1343.6666666666667,84.8125,1346.0833333333333,83.375,1348.5,81.9375C1350.9166666666667,80.5,1353.3333333333333,79.0625,1355.75,77.625C1358.1666666666667,76.1875,1360.5833333333333,74.75000000000001,1363,73.31250000000001C1365.4166666666667,71.87500000000001,1367.8333333333333,70.4375,1370.25,69C1372.6666666666667,67.5625,1375.0833333333333,66.125,1377.5,64.6875C1379.9166666666667,63.25,1382.3333333333333,61.8125,1384.75,60.375C1387.1666666666667,58.9375,1389.5833333333333,57.50000000000001,1392,56.06250000000001C1394.4166666666667,54.62500000000001,1396.8333333333333,53.18749999999999,1399.25,51.74999999999999C1401.6666666666667,50.31249999999999,1404.0833333333333,48.875,1406.5,47.4375C1408.9166666666667,46,1411.3333333333333,44.5625,1413.75,43.125C1416.1666666666667,41.6875,1418.5833333333333,40.25,1421,38.8125C1423.4166666666667,37.375,1425.8333333333333,35.93749999999999,1428.25,34.49999999999999C1430.6666666666667,33.06249999999999,1433.0833333333333,31.624999999999996,1435.5,30.187499999999996C1437.9166666666667,28.749999999999996,1440.3333333333333,27.312499999999996,1442.75,25.874999999999996C1445.1666666666667,24.437499999999996,1447.5833333333333,23,1450,21.5625" fill="transparent" stroke-linecap="round" stroke="#B6509E" stroke-width="2"></path><path class="visx-linepath" d="M0,107.81249999992013C2.4166666666666665,107.79918981476823,4.833333333333334,107.78587962961632,7.25,107.77256944444444C9.666666666666666,107.75925925927257,12.083333333333334,107.74594907407408,14.5,107.73263888888889C16.916666666666668,107.7193287037037,19.333333333333332,107.70601851851853,21.75,107.69270833333334C24.166666666666668,107.67939814814815,26.583333333333332,107.66608796296296,29,107.65277777777777C31.416666666666668,107.63946759259258,33.833333333333336,107.62615740740739,36.25,107.61284722222221C38.666666666666664,107.59953703703704,41.083333333333336,107.58622685185186,43.5,107.57291666666667C45.91666666666667,107.55960648148148,48.333333333333336,107.54629629629629,50.75000000000001,107.5329861111111C53.16666666666667,107.51967592592591,55.583333333333336,107.50636574074073,58,107.49305555555556C60.416666666666664,107.47974537037037,62.833333333333336,107.46643518518519,65.25,107.453125C67.66666666666667,107.43981481481481,70.08333333333333,107.42650462962963,72.5,107.41319444444444C74.91666666666667,107.39988425925925,77.33333333333333,107.38657407407408,79.75,107.37326388888889C82.16666666666667,107.3599537037037,84.58333333333333,107.34664351851852,87,107.33333333333333C89.41666666666667,107.32002314814814,91.83333333333333,107.30671296296295,94.25,107.29340277777777C96.66666666666667,107.28009259259258,99.08333333333334,107.26678240740742,101.50000000000001,107.25347222222223C103.91666666666667,107.24016203703704,106.33333333333334,107.22685185185185,108.75,107.21354166666666C111.16666666666667,107.20023148148147,113.58333333333333,107.18692129629629,116,107.17361111111111C118.41666666666667,107.16030092592592,120.83333333333334,107.14699074074075,123.25000000000001,107.13368055555556C125.66666666666667,107.12037037037037,128.08333333333334,107.10706018518519,130.5,107.09375C132.91666666666666,107.08043981481481,135.33333333333334,107.06712962962963,137.75,107.05381944444444C140.16666666666666,107.04050925925925,142.58333333333334,107.02719907407408,145,107.01388888888889C147.41666666666666,107.0005787037037,149.83333333333334,106.9872685185185,152.25,106.97395833333333C154.66666666666666,106.96064814814815,157.08333333333334,106.94733796296298,159.5,106.93402777777779C161.91666666666666,106.9207175925926,164.33333333333334,106.9074074074074,166.75,106.89409722222221C169.16666666666666,106.88078703703702,171.58333333333334,106.86747685185185,174,106.85416666666667C176.41666666666666,106.8408564814815,178.83333333333334,106.8275462962963,181.25,106.81423611111111C183.66666666666666,106.80092592592592,186.08333333333334,106.78761574074075,188.5,106.77430555555556C190.91666666666666,106.76099537037037,193.33333333333334,106.74768518518519,195.75,106.734375C198.16666666666669,106.72106481481481,200.58333333333334,106.70775462962963,203.00000000000003,106.69444444444444C205.41666666666669,106.68113425925925,207.83333333333331,106.66782407407406,210.24999999999997,106.65451388888889C212.66666666666666,106.6412037037037,215.08333333333331,106.62789351851853,217.5,106.61458333333334C219.91666666666666,106.60127314814815,222.33333333333334,106.58796296296296,224.75,106.57465277777777C227.16666666666666,106.56134259259258,229.58333333333334,106.54803240740742,232,106.53472222222223C234.41666666666666,106.52141203703704,236.83333333333334,106.50810185185186,239.25,106.49479166666667C241.66666666666669,106.48148148148148,244.08333333333334,106.4681712962963,246.50000000000003,106.45486111111111C248.91666666666669,106.44155092592592,251.33333333333331,106.42824074074075,253.74999999999997,106.41493055555556C256.16666666666663,106.40162037037037,258.5833333333333,106.38831018518519,261,106.375C263.4166666666667,106.36168981481481,265.8333333333333,106.34837962962962,268.25,106.33506944444444C270.6666666666667,106.32175925925927,273.0833333333333,106.30844907407409,275.5,106.2951388888889C277.9166666666667,106.28182870370371,280.3333333333333,106.26851851851852,282.75,106.25520833333333C285.1666666666667,106.24189814814814,287.5833333333333,106.22858796296296,290,106.21527777777779C292.4166666666667,106.20196759259261,294.8333333333333,106.18865740740742,297.25,106.17534722222223C299.6666666666667,106.16203703703704,302.0833333333333,106.14872685185185,304.5,106.13541666666666C306.9166666666667,106.12210648148147,309.3333333333333,106.1087962962963,311.75,106.09548611111111C314.1666666666667,106.08217592592592,316.5833333333333,106.06886574074075,319,106.05555555555556C321.4166666666667,106.04224537037037,323.8333333333333,106.02893518518519,326.25,106.015625C328.6666666666667,106.00231481481481,331.0833333333333,105.98900462962963,333.5,105.97569444444444C335.9166666666667,105.96238425925925,338.3333333333333,105.94907407407408,340.75,105.93576388888889C343.1666666666667,105.9224537037037,345.5833333333333,105.90914351851852,348,105.89583333333333C350.4166666666667,105.88252314814814,352.8333333333333,105.86921296296296,355.25,105.85590277777777C357.6666666666667,105.84259259259258,360.0833333333333,105.82928240740739,362.5,105.81597222222221C364.9166666666667,105.80266203703704,367.3333333333333,105.78935185185186,369.75,105.77604166666667C372.1666666666667,105.76273148148148,374.5833333333333,105.74942129629629,377,105.7361111111111C379.4166666666667,105.72280092592591,381.8333333333333,105.70949074074073,384.25,105.69618055555556C386.6666666666667,105.68287037037038,389.0833333333333,105.66956018518519,391.5,105.65625C393.9166666666667,105.64293981481481,396.33333333333337,105.62962962962963,398.75000000000006,105.61631944444444C401.16666666666674,105.60300925925925,403.58333333333337,105.58969907407408,406.00000000000006,105.57638888888889C408.4166666666667,105.5630787037037,410.8333333333333,105.54976851851852,413.24999999999994,105.53645833333333C415.66666666666663,105.52314814814814,418.08333333333326,105.50983796296295,420.49999999999994,105.49652777777777C422.91666666666663,105.48321759259258,425.3333333333333,105.46990740740742,427.75,105.45659722222223C430.1666666666667,105.44328703703704,432.5833333333333,105.42997685185185,435,105.41666666666666C437.4166666666667,105.40335648148147,439.8333333333333,105.3900462962963,442.25,105.37673611111111C444.6666666666667,105.36342592592592,447.0833333333333,105.35011574074075,449.5,105.33680555555556C451.9166666666667,105.32349537037037,454.3333333333333,105.31018518518519,456.75,105.296875C459.1666666666667,105.28356481481481,461.5833333333333,105.27025462962963,464,105.25694444444444C466.4166666666667,105.24363425925925,468.8333333333333,105.23032407407408,471.25,105.21701388888889C473.6666666666667,105.2037037037037,476.0833333333333,105.1903935185185,478.5,105.17708333333333C480.9166666666667,105.16377314814814,483.33333333333337,105.15046296296298,485.75000000000006,105.13715277777779C488.16666666666674,105.1238425925926,490.58333333333337,105.1105324074074,493.00000000000006,105.09722222222221C495.4166666666667,105.08391203703702,497.8333333333333,105.07060185185185,500.24999999999994,105.05729166666667C502.66666666666663,105.04398148148148,505.08333333333326,105.0306712962963,507.49999999999994,105.01736111111111C509.91666666666663,105.00405092592592,512.3333333333333,104.99074074074075,514.75,104.97743055555556C517.1666666666666,104.96412037037037,519.5833333333334,104.95081018518519,522,104.9375C524.4166666666666,104.92418981481481,526.8333333333334,104.91087962962963,529.25,104.89756944444444C531.6666666666666,104.88425925925925,534.0833333333334,104.87094907407408,536.5,104.85763888888889C538.9166666666666,104.8443287037037,541.3333333333334,104.83101851851853,543.75,104.81770833333334C546.1666666666666,104.80439814814815,548.5833333333334,104.79108796296296,551,104.77777777777777C553.4166666666666,104.76446759259258,555.8333333333334,104.75115740740742,558.25,104.73784722222223C560.6666666666666,104.72453703703704,563.0833333333334,104.71122685185186,565.5,104.69791666666667C567.9166666666666,104.68460648148148,570.3333333333334,104.6712962962963,572.75,104.65798611111111C575.1666666666666,104.64467592592592,577.5833333333334,104.63136574074075,580,104.61805555555556C582.4166666666666,104.60474537037037,584.8333333333334,104.59143518518519,587.25,104.578125C589.6666666666666,104.56481481481481,592.0833333333334,104.55150462962962,594.5,104.53819444444444C596.9166666666666,104.52488425925927,599.3333333333334,104.51157407407409,601.75,104.4982638888889C604.1666666666666,104.48495370370371,606.5833333333334,104.47164351851852,609,104.45833333333333C611.4166666666666,104.44502314814814,613.8333333333334,104.43171296296296,616.25,104.41840277777779C618.6666666666666,104.40509259259261,621.0833333333334,104.39178240740742,623.5,104.37847222222223C625.9166666666666,104.36516203703704,628.3333333333334,104.35185185185185,630.75,104.33854166666666C633.1666666666666,104.32523148148147,635.5833333333334,104.3119212962963,638,104.29861111111111C640.4166666666666,104.28530092592592,642.8333333333334,104.27199074074075,645.25,104.25868055555556C647.6666666666666,104.24537037037037,650.0833333333334,104.23206018518519,652.5,104.21875C654.9166666666666,104.20543981481481,657.3333333333334,104.19212962962963,659.75,104.17881944444444C662.1666666666666,104.16550925925925,664.5833333333334,104.15219907407408,667,104.13888888888889C669.4166666666666,104.1255787037037,671.8333333333334,104.11226851851852,674.25,104.09895833333333C676.6666666666666,104.08564814814814,679.0833333333334,104.07233796296296,681.5,104.05902777777777C683.9166666666666,104.04571759259258,686.3333333333334,104.03240740740739,688.75,104.01909722222221C691.1666666666666,104.00578703703704,693.5833333333334,103.99247685185185,696,103.97916666666667C698.4166666666666,103.9658564814815,700.8333333333334,103.9525462962963,703.25,103.93923611111111C705.6666666666666,103.92592592592592,708.0833333333334,103.91261574074075,710.5,103.89930555555556C712.9166666666666,103.88599537037037,715.3333333333334,103.87268518518519,717.75,103.859375C720.1666666666666,103.84606481481481,722.5833333333334,103.83275462962963,725,103.81944444444444C727.4166666666666,103.80613425925925,729.8333333333334,103.79282407407408,732.25,103.77951388888889C734.6666666666666,103.7662037037037,737.0833333333334,103.75289351851852,739.5,103.73958333333333C741.9166666666666,103.72627314814814,744.3333333333334,103.71296296296296,746.75,103.69965277777777C749.1666666666666,103.68634259259258,751.5833333333334,103.67303240740742,754,103.65972222222223C756.4166666666666,103.64641203703704,758.8333333333334,103.63310185185185,761.25,103.61979166666666C763.6666666666666,103.60648148148147,766.0833333333334,103.5931712962963,768.5,103.57986111111111C770.9166666666666,103.56655092592592,773.3333333333334,103.55324074074075,775.75,103.53993055555556C778.1666666666666,103.52662037037037,780.5833333333334,103.51331018518519,783,103.5C785.4166666666667,103.48668981481481,787.8333333333334,103.47337962962963,790.2500000000001,103.46006944444444C792.6666666666667,103.44675925925925,795.0833333333335,103.43344907407408,797.5000000000001,103.42013888888889C799.9166666666667,103.4068287037037,802.3333333333335,103.3935185185185,804.7500000000001,103.38020833333333C807.1666666666667,103.36689814814815,809.5833333333335,103.35358796296298,812.0000000000001,103.34027777777779C814.4166666666667,103.3269675925926,816.8333333333333,103.3136574074074,819.2499999999999,103.30034722222221C821.6666666666665,103.28703703703702,824.0833333333333,103.27372685185185,826.4999999999999,103.26041666666667C828.9166666666665,103.2471064814815,831.3333333333333,103.2337962962963,833.7499999999999,103.22048611111111C836.1666666666665,103.20717592592592,838.5833333333333,103.19386574074075,840.9999999999999,103.18055555555556C843.4166666666666,103.16724537037037,845.8333333333333,103.15393518518519,848.25,103.140625C850.6666666666666,103.12731481481481,853.0833333333334,103.11400462962963,855.5,103.10069444444444C857.9166666666666,103.08738425925925,860.3333333333334,103.07407407407408,862.75,103.06076388888889C865.1666666666666,103.0474537037037,867.5833333333334,103.03414351851853,870,103.02083333333334C872.4166666666666,103.00752314814815,874.8333333333334,102.99421296296296,877.25,102.98090277777777C879.6666666666666,102.96759259259258,882.0833333333334,102.95428240740742,884.5,102.94097222222223C886.9166666666666,102.92766203703704,889.3333333333334,102.91435185185186,891.75,102.90104166666667C894.1666666666666,102.88773148148148,896.5833333333334,102.8744212962963,899,102.86111111111111C901.4166666666666,102.84780092592592,903.8333333333334,102.83449074074075,906.25,102.82118055555556C908.6666666666666,102.80787037037037,911.0833333333334,102.79456018518519,913.5,102.78125C915.9166666666666,102.76793981481481,918.3333333333334,102.75462962962962,920.75,102.74131944444444C923.1666666666666,102.72800925925927,925.5833333333334,102.71469907407409,928,102.7013888888889C930.4166666666666,102.68807870370371,932.8333333333334,102.67476851851852,935.25,102.66145833333333C937.6666666666666,102.64814814814814,940.0833333333334,102.63483796296296,942.5,102.62152777777779C944.9166666666666,102.60821759259261,947.3333333333334,102.59490740740742,949.75,102.58159722222223C952.1666666666666,102.56828703703704,954.5833333333334,102.55497685185185,957,102.54166666666666C959.4166666666666,102.52835648148147,961.8333333333334,102.5150462962963,964.25,102.50173611111111C966.6666666666667,102.48842592592592,969.0833333333334,102.47511574074073,971.5000000000001,102.46180555555554C973.9166666666667,102.44849537037035,976.3333333333335,102.43518518518518,978.7500000000001,102.421875C981.1666666666667,102.40856481481482,983.5833333333335,102.39525462962965,986.0000000000001,102.38194444444446C988.4166666666667,102.36863425925927,990.8333333333335,102.35532407407408,993.2500000000001,102.34201388888889C995.6666666666667,102.3287037037037,998.0833333333333,102.31539351851852,1000.4999999999999,102.30208333333333C1002.9166666666665,102.28877314814814,1005.3333333333333,102.27546296296296,1007.7499999999999,102.26215277777777C1010.1666666666665,102.24884259259258,1012.5833333333333,102.23553240740739,1014.9999999999999,102.22222222222221C1017.4166666666665,102.20891203703704,1019.8333333333333,102.19560185185185,1022.2499999999999,102.18229166666667C1024.6666666666665,102.16898148148148,1027.0833333333333,102.1556712962963,1029.5,102.14236111111111C1031.9166666666667,102.12905092592592,1034.3333333333333,102.11574074074075,1036.75,102.10243055555556C1039.1666666666667,102.08912037037037,1041.5833333333333,102.07581018518519,1044,102.0625C1046.4166666666667,102.04918981481481,1048.8333333333333,102.03587962962963,1051.25,102.02256944444444C1053.6666666666667,102.00925925925925,1056.0833333333333,101.99594907407408,1058.5,101.98263888888889C1060.9166666666667,101.9693287037037,1063.3333333333333,101.95601851851852,1065.75,101.94270833333333C1068.1666666666667,101.92939814814814,1070.5833333333333,101.91608796296296,1073,101.90277777777777C1075.4166666666667,101.88946759259258,1077.8333333333333,101.87615740740742,1080.25,101.86284722222223C1082.6666666666667,101.84953703703704,1085.0833333333333,101.83622685185185,1087.5,101.82291666666666C1089.9166666666667,101.80960648148147,1092.3333333333333,101.7962962962963,1094.75,101.78298611111111C1097.1666666666667,101.76967592592592,1099.5833333333333,101.75636574074075,1102,101.74305555555556C1104.4166666666667,101.72974537037037,1106.8333333333333,101.71643518518519,1109.25,101.703125C1111.6666666666667,101.68981481481481,1114.0833333333333,101.67650462962963,1116.5,101.66319444444444C1118.9166666666667,101.64988425925925,1121.3333333333333,101.63657407407408,1123.75,101.62326388888889C1126.1666666666667,101.6099537037037,1128.5833333333333,101.5966435185185,1131,101.58333333333333C1133.4166666666667,101.57002314814815,1135.8333333333333,101.55671296296298,1138.25,101.54340277777779C1140.6666666666667,101.5300925925926,1143.0833333333333,101.5167824074074,1145.5,101.50347222222221C1147.9166666666667,101.49016203703702,1150.3333333333333,101.47685185185185,1152.75,101.46354166666667C1155.1666666666667,101.4502314814815,1157.5833333333333,101.4369212962963,1160,101.42361111111111C1162.4166666666667,101.41030092592592,1164.8333333333333,101.39699074074075,1167.25,101.38368055555556C1169.6666666666667,101.37037037037037,1172.0833333333333,101.35706018518519,1174.5,101.34375C1176.9166666666667,101.33043981481481,1179.3333333333333,101.31712962962963,1181.75,101.30381944444444C1184.1666666666667,101.29050925925925,1186.5833333333333,101.27719907407408,1189,101.26388888888889C1191.4166666666667,101.2505787037037,1193.8333333333333,101.23726851851853,1196.25,101.22395833333334C1198.6666666666667,101.21064814814815,1201.0833333333333,101.19733796296296,1203.5,101.18402777777777C1205.9166666666667,101.17071759259258,1208.3333333333333,101.15740740740742,1210.75,101.14409722222223C1213.1666666666667,101.13078703703704,1215.5833333333333,101.11747685185186,1218,101.10416666666667C1220.4166666666667,101.09085648148148,1222.8333333333333,101.0775462962963,1225.25,101.06423611111111C1227.6666666666667,101.05092592592592,1230.0833333333333,101.03761574074075,1232.5,101.02430555555556C1234.9166666666667,101.01099537037037,1237.3333333333333,100.99768518518519,1239.75,100.984375C1242.1666666666667,100.97106481481481,1244.5833333333333,100.95775462962963,1247,100.94444444444444C1249.4166666666667,100.93113425925925,1251.8333333333333,100.91782407407408,1254.25,100.90451388888889C1256.6666666666667,100.8912037037037,1259.0833333333333,100.8778935185185,1261.5,100.86458333333333C1263.9166666666667,100.85127314814815,1266.3333333333333,100.83796296296296,1268.75,100.82465277777779C1271.1666666666667,100.81134259259261,1273.5833333333333,100.79803240740742,1276,100.78472222222223C1278.4166666666667,100.77141203703704,1280.8333333333333,100.75810185185186,1283.25,100.74479166666667C1285.6666666666667,100.73148148148148,1288.0833333333333,100.7181712962963,1290.5,100.70486111111111C1292.9166666666667,100.69155092592592,1295.3333333333333,100.67824074074073,1297.75,100.66493055555554C1300.1666666666667,100.65162037037035,1302.5833333333333,100.65162037037037,1305,100.625C1307.4166666666667,100.59837962962963,1309.8333333333333,97.75,1312.25,96.3125C1314.6666666666667,94.875,1317.0833333333333,93.4375,1319.5,92C1321.9166666666667,90.5625,1324.3333333333333,89.125,1326.75,87.6875C1329.1666666666667,86.25,1331.5833333333333,84.8125,1334,83.375C1336.4166666666667,81.9375,1338.8333333333333,80.5,1341.25,79.0625C1343.6666666666667,77.625,1346.0833333333333,76.18749999999999,1348.5,74.74999999999999C1350.9166666666667,73.31249999999999,1353.3333333333333,71.875,1355.75,70.4375C1358.1666666666667,69,1360.5833333333333,67.5625,1363,66.125C1365.4166666666667,64.6875,1367.8333333333333,63.25,1370.25,61.8125C1372.6666666666667,60.375,1375.0833333333333,58.9375,1377.5,57.5C1379.9166666666667,56.0625,1382.3333333333333,54.625,1384.75,53.1875C1387.1666666666667,51.75,1389.5833333333333,50.31250000000001,1392,48.87500000000001C1394.4166666666667,47.43750000000001,1396.8333333333333,45.99999999999999,1399.25,44.56249999999999C1401.6666666666667,43.12499999999999,1404.0833333333333,41.6875,1406.5,40.25C1408.9166666666667,38.8125,1411.3333333333333,37.374999999999986,1413.75,35.937499999999986C1416.1666666666667,34.499999999999986,1418.5833333333333,33.062500000000014,1421,31.625000000000014C1423.4166666666667,30.187500000000018,1425.8333333333333,28.750000000000007,1428.25,27.312500000000004C1430.6666666666667,25.875,1433.0833333333333,24.437499999999996,1435.5,22.999999999999996C1437.9166666666667,21.562499999999996,1440.3333333333333,20.124999999999996,1442.75,18.687499999999996C1445.1666666666667,17.249999999999996,1447.5833333333333,15.812499999999998,1450,14.375" fill="transparent" stroke-linecap="round" stroke="#E7C6DF" stroke-width="2"></path><g class="visx-group visx-axis visx-axis-bottom" transform="translate(0, 115)"><g class="visx-group visx-axis-tick" transform="translate(0, 0)"><line class="visx-line" x1="0" y1="0" x2="0" y2="8" fill="transparent" shape-rendering="crispEdges" stroke="#000" stroke-width="0" stroke-linecap="square"></line><svg x="0" y="0" font-size="10" style="overflow:visible"><text transform="" x="0" y="18" fill="#000" font-size="10" text-anchor="middle"><tspan x="0" dy="0em">0%</tspan></text></svg></g><g class="visx-group visx-axis-tick" transform="translate(0, 0)"><line class="visx-line" x1="362.5" y1="0" x2="362.5" y2="8" fill="transparent" shape-rendering="crispEdges" stroke="#000" stroke-width="0" stroke-linecap="square"></line><svg x="0" y="0" font-size="10" style="overflow:visible"><text transform="" x="362.5" y="18" fill="#000" font-size="10" text-anchor="middle"><tspan x="362.5" dy="0em">25%</tspan></text></svg></g><g class="visx-group visx-axis-tick" transform="translate(0, 0)"><line class="visx-line" x1="725" y1="0" x2="725" y2="8" fill="transparent" shape-rendering="crispEdges" stroke="#000" stroke-width="0" stroke-linecap="square"></line><svg x="0" y="0" font-size="10" style="overflow:visible"><text transform="" x="725" y="18" fill="#000" font-size="10" text-anchor="middle"><tspan x="725" dy="0em">50%</tspan></text></svg></g><g class="visx-group visx-axis-tick" transform="translate(0, 0)"><line class="visx-line" x1="1087.5" y1="0" x2="1087.5" y2="8" fill="transparent" shape-rendering="crispEdges" stroke="#000" stroke-width="0" stroke-linecap="square"></line><svg x="0" y="0" font-size="10" style="overflow:visible"><text transform="" x="1087.5" y="18" fill="#000" font-size="10" text-anchor="middle"><tspan x="1087.5" dy="0em">75%</tspan></text></svg></g><g class="visx-group visx-axis-tick" transform="translate(0, 0)"><line class="visx-line" x1="1450" y1="0" x2="1450" y2="8" fill="transparent" shape-rendering="crispEdges" stroke="#000" stroke-width="0" stroke-linecap="square"></line><svg x="0" y="0" font-size="10" style="overflow:visible"><text transform="" x="1450" y="18" fill="#000" font-size="10" text-anchor="middle"><tspan x="1450" dy="0em">100%</tspan></text></svg></g><line class="visx-line visx-axis-line" x1="0.5" y1="0" x2="1450.5" y2="0" fill="transparent" shape-rendering="crispEdges" stroke="#222" stroke-width="0"></line></g><g class="visx-group visx-axis visx-axis-left" transform="translate(0, 0)"><g class="visx-group visx-axis-tick" transform="translate(0, 0)"><line class="visx-line" x1="0" y1="115" x2="-8" y2="115" fill="transparent" shape-rendering="crispEdges" stroke="#222" stroke-width="0" stroke-linecap="square"></line><svg x="-30" y="0" font-size="8" style="overflow:visible"><text transform="" x="-8" y="115" fill="#000" font-size="8" text-anchor="start"><tspan x="-8" dy="0em">0%</tspan></text></svg></g><g class="visx-group visx-axis-tick" transform="translate(0, 0)"><line class="visx-line" x1="0" y1="43.125" x2="-8" y2="43.125" fill="transparent" shape-rendering="crispEdges" stroke="#222" stroke-width="0" stroke-linecap="square"></line><svg x="-30" y="0" font-size="8" style="overflow:visible"><text transform="" x="-8" y="43.125" fill="#000" font-size="8" text-anchor="start"><tspan x="-8" dy="0em">50%</tspan></text></svg></g><line class="visx-line visx-axis-line" x1="0" y1="115.5" x2="0" y2="0.5" fill="transparent" shape-rendering="crispEdges" stroke="#222" stroke-width="0"></line></g><rect class="visx-bar" width="1450" height="115" fill="transparent"></rect><line class="visx-line" x1="1305" y1="28" x2="1305" y2="115" fill="transparent" shape-rendering="crispEdges" stroke="#0062D2" stroke-width="1" pointer-events="none" stroke-dasharray="5,2"></line><svg x="0" y="0" font-size="10px" style="overflow:visible"><text transform="" x="1305" y="20" font-size="10px" fill="#fff" stroke="#fff" stroke-width="0.8em" text-anchor="middle"><tspan x="1305" dy="0.355em">Optimal 90%</tspan></text></svg><svg x="0" y="0" font-size="10px" style="overflow:visible"><text transform="" x="1305" y="20" font-size="10px" fill="#62677B" text-anchor="middle"><tspan x="1305" dy="0.355em">Optimal 90%</tspan></text></svg></g></svg>