<?xml version="1.0"?><svg xmlns="http://www.w3.org/2000/svg" xmlns:xlink= "http://www.w3.org/1999/xlink" style="background: white;" width="1500" height="300"> <g style="color: black; font-size: 13px; font-family: sans-serif; transform: translate(18px, 25px);"><g><circle r="3" cx="-6" cy="-5" style="fill: #1AD4B3" /><text>Borrow APR, variable</text></g><g style="transform: translateX(150px);"><circle r="3" cx="-6" cy="-5" style="fill: #101423" /><text>Borrow APR, stable</text></g></g><g class="visx-group" transform="translate(45, 50)"><g class="visx-group visx-rows" transform="translate(0, 0)"><line class="visx-line" x1="0" y1="155" x2="1425" y2="155" fill="transparent" shape-rendering="crispEdges" stroke="#F2F0F9" stroke-width="1" pointer-events="none"></line><line class="visx-line" x1="0" y1="103.33333333333334" x2="1425" y2="103.33333333333334" fill="transparent" shape-rendering="crispEdges" stroke="#F2F0F9" stroke-width="1" pointer-events="none"></line><line class="visx-line" x1="0" y1="51.66666666666667" x2="1425" y2="51.66666666666667" fill="transparent" shape-rendering="crispEdges" stroke="#F2F0F9" stroke-width="1" pointer-events="none"></line><line class="visx-line" x1="0" y1="0" x2="1425" y2="0" fill="transparent" shape-rendering="crispEdges" stroke="#F2F0F9" stroke-width="1" pointer-events="none"></line></g><path class="visx-linepath" d="M0,154.9999999999616C2.375,154.99359984982743,4.75,154.9871996996933,7.125,154.98079954954954C9.5,154.9743993994058,11.875,154.96799924924926,14.25,154.96159909909912C16.625,154.95519894894898,19,154.9487987987988,21.375,154.94239864864863C23.75,154.93599849849846,26.125,154.92959834834832,28.5,154.92319819819818C30.875,154.91679804804804,33.25,154.9103978978979,35.625,154.90399774774775C38,154.8975975975976,40.375,154.89119744744744,42.75,154.8847972972973C45.125,154.87839714714715,47.50000000000001,154.87199699699698,49.87500000000001,154.86559684684684C52.25000000000001,154.8591966966967,54.625,154.85279654654653,57,154.8463963963964C59.375,154.83999624624624,61.75,154.83359609609607,64.125,154.82719594594593C66.5,154.8207957957958,68.875,154.81439564564565,71.25,154.8079954954955C73.625,154.80159534534536,76,154.7951951951952,78.375,154.78879504504505C80.75,154.7823948948949,83.125,154.77599474474474,85.5,154.7695945945946C87.875,154.76319444444445,90.25,154.75679429429428,92.625,154.75039414414414C95,154.743993993994,97.37500000000001,154.73759384384383,99.75000000000001,154.73119369369368C102.12500000000001,154.72479354354354,104.5,154.71839339339337,106.875,154.71199324324323C109.25,154.70559309309309,111.625,154.69919294294294,114,154.6927927927928C116.375,154.68639264264266,118.75000000000001,154.6799924924925,121.12500000000001,154.67359234234235C123.50000000000001,154.6671921921922,125.875,154.66079204204203,128.25,154.6543918918919C130.625,154.64799174174175,133,154.64159159159158,135.375,154.63519144144144C137.75,154.6287912912913,140.125,154.62239114114112,142.5,154.61599099099098C144.875,154.60959084084084,147.25,154.6031906906907,149.625,154.59679054054055C152,154.5903903903904,154.375,154.58399024024024,156.75,154.5775900900901C159.125,154.57118993993996,161.5,154.56478978978978,163.875,154.55838963963964C166.25,154.5519894894895,168.625,154.54558933933933,171,154.5391891891892C173.375,154.53278903903905,175.75,154.52638888888887,178.125,154.51998873873873C180.5,154.5135885885886,182.875,154.50718843843842,185.25,154.50078828828828C187.625,154.49438813813813,190,154.487987987988,192.375,154.48158783783785C194.75,154.4751876876877,197.12500000000003,154.46878753753754,199.50000000000003,154.4623873873874C201.875,154.45598723723725,204.25,154.44958708708708,206.62499999999997,154.44318693693694C208.99999999999997,154.4367867867868,211.375,154.43038663663663,213.75,154.42398648648648C216.125,154.41758633633634,218.5,154.41118618618617,220.875,154.40478603603603C223.25,154.3983858858859,225.625,154.39198573573574,228,154.3855855855856C230.375,154.37918543543546,232.75,154.3727852852853,235.125,154.36638513513515C237.5,154.359984984985,239.87500000000003,154.35358483483483,242.25000000000003,154.3471846846847C244.625,154.34078453453455,247,154.33438438438438,249.37499999999997,154.32798423423424C251.74999999999997,154.3215840840841,254.125,154.31518393393392,256.5,154.30878378378378C258.875,154.30238363363364,261.25,154.29598348348347,263.625,154.28958333333333C266,154.28318318318318,268.375,154.27678303303304,270.75,154.2703828828829C273.125,154.26398273273276,275.5,154.25758258258256,277.875,154.25118243243242C280.25,154.24478228228227,282.625,154.23838213213213,285,154.231981981982C287.375,154.22558183183185,289.75,154.21918168168168,292.125,154.21278153153153C294.5,154.2063813813814,296.875,154.19998123123122,299.25,154.19358108108108C301.625,154.18718093093094,304,154.1807807807808,306.375,154.17438063063065C308.75,154.1679804804805,311.125,154.1615803303303,313.5,154.15518018018017C315.875,154.14878003003003,318.25,154.14237987987985,320.625,154.1359797297297C323,154.12957957957957,325.375,154.12317942942943,327.75,154.11677927927929C330.125,154.11037912912914,332.5,154.10397897897897,334.875,154.09757882882883C337.25,154.0911786786787,339.625,154.08477852852852,342,154.07837837837837C344.375,154.07197822822823,346.75,154.06557807807806,349.125,154.05917792792792C351.5,154.05277777777778,353.875,154.0463776276276,356.25,154.03997747747746C358.625,154.03357732732732,361,154.02717717717718,363.375,154.02077702702704C365.75,154.0143768768769,368.125,154.00797672672672,370.5,154.00157657657658C372.875,153.99517642642644,375.25,153.98877627627627,377.625,153.98237612612613C380,153.97597597597598,382.375,153.9695758258258,384.75,153.96317567567567C387.125,153.95677552552553,389.50000000000006,153.95037537537536,391.87500000000006,153.94397522522522C394.25000000000006,153.93757507507507,396.62500000000006,153.9311749249249,399.00000000000006,153.92477477477476C401.375,153.91837462462462,403.75,153.91197447447448,406.12499999999994,153.90557432432433C408.49999999999994,153.8991741741742,410.87499999999994,153.89277402402402,413.24999999999994,153.88637387387388C415.62499999999994,153.87997372372374,418,153.87357357357357,420.375,153.86717342342342C422.75,153.86077327327328,425.125,153.8543731231231,427.5,153.84797297297297C429.875,153.84157282282283,432.25,153.83517267267266,434.625,153.8287725225225C437,153.82237237237237,439.375,153.81597222222223,441.75,153.8095720720721C444.125,153.80317192192194,446.5,153.79677177177177,448.875,153.79037162162163C451.25,153.7839714714715,453.625,153.77757132132132,456,153.77117117117118C458.375,153.76477102102103,460.75,153.75837087087086,463.125,153.75197072072072C465.5,153.74557057057058,467.875,153.7391704204204,470.25,153.73277027027027C472.625,153.72637012012012,475.00000000000006,153.71996996996995,477.37500000000006,153.7135698198198C479.75000000000006,153.70716966966967,482.12500000000006,153.70076951951953,484.50000000000006,153.69436936936938C486.875,153.68796921921924,489.25,153.68156906906907,491.62499999999994,153.67516891891893C493.99999999999994,153.66876876876879,496.37499999999994,153.66236861861861,498.74999999999994,153.65596846846847C501.12499999999994,153.64956831831833,503.5,153.64316816816816,505.875,153.63676801801802C508.25,153.63036786786788,510.625,153.6239677177177,513,153.61756756756756C515.375,153.61116741741742,517.75,153.60476726726728,520.125,153.59836711711714C522.5,153.591966966967,524.875,153.591966966967,527.25,153.57916666666668C529.625,153.56636636636637,532,152.84653880070547,534.375,152.48022486772487C536.75,152.11391093474427,539.125,151.74759700176367,541.5,151.38128306878306C543.875,151.01496913580246,546.25,150.64865520282186,548.625,150.28234126984125C551,149.91602733686065,553.375,149.54971340388008,555.75,149.18339947089947C558.125,148.81708553791887,560.5,148.45077160493827,562.875,148.08445767195767C565.25,147.71814373897706,567.625,147.3518298059965,570,146.98551587301588C572.375,146.61920194003528,574.75,146.25288800705468,577.125,145.88657407407408C579.5,145.52026014109347,581.875,145.15394620811287,584.25,144.78763227513227C586.625,144.42131834215166,589,144.05500440917106,591.375,143.68869047619046C593.75,143.32237654320986,596.125,142.95606261022928,598.5,142.58974867724868C600.875,142.22343474426808,603.25,141.8571208112875,605.625,141.4908068783069C608,141.1244929453263,610.375,140.7581790123457,612.75,140.3918650793651C615.125,140.0255511463845,617.5,139.65923721340388,619.875,139.29292328042328C622.25,138.92660934744268,624.625,138.56029541446208,627,138.19398148148147C629.375,137.82766754850087,631.75,137.4613536155203,634.125,137.0950396825397C636.5,136.7287257495591,638.875,136.3624118165785,641.25,135.99609788359788C643.625,135.62978395061728,646,135.26347001763668,648.375,134.89715608465607C650.75,134.53084215167547,653.125,134.1645282186949,655.5,133.7982142857143C657.875,133.4319003527337,660.25,133.0655864197531,662.625,132.6992724867725C665,132.33295855379188,667.375,131.96664462081128,669.75,131.60033068783068C672.125,131.23401675485007,674.5,130.86770282186947,676.875,130.50138888888887C679.25,130.13507495590827,681.625,129.7687610229277,684,129.4024470899471C686.375,129.03613315696649,688.75,128.6698192239859,691.125,128.3035052910053C693.5,127.9371913580247,695.875,127.57087742504409,698.25,127.20456349206349C700.625,126.83824955908288,703,126.47193562610231,705.375,126.1056216931217C707.75,125.7393077601411,710.125,125.3729938271605,712.5,125.0066798941799C714.875,124.6403659611993,717.25,124.2740520282187,719.625,123.9077380952381C722,123.5414241622575,724.375,123.1751102292769,726.75,122.8087962962963C729.125,122.44248236331569,731.5,122.07616843033509,733.875,121.70985449735448C736.25,121.34354056437388,738.625,120.97722663139328,741,120.61091269841269C743.375,120.2445987654321,745.75,119.87828483245151,748.125,119.51197089947091C750.5,119.14565696649031,752.875,118.7793430335097,755.25,118.4130291005291C757.625,118.0467151675485,760,117.68040123456791,762.375,117.3140873015873C764.75,116.9477733686067,767.125,116.5814594356261,769.5,116.2151455026455C771.875,115.8488315696649,774.2500000000001,115.4825176366843,776.6250000000001,115.1162037037037C779.0000000000001,114.74988977072312,781.3750000000001,114.38357583774251,783.7500000000001,114.01726190476191C786.1250000000001,113.6509479717813,788.5000000000001,113.2846340388007,790.8750000000001,112.9183201058201C793.2500000000001,112.5520061728395,795.6250000000001,112.18569223985891,798.0000000000001,111.8193783068783C800.375,111.45306437389772,802.75,111.0867504409171,805.1249999999999,110.72043650793651C807.4999999999999,110.35412257495591,809.8749999999999,109.9878086419753,812.2499999999999,109.6214947089947C814.6249999999999,109.2551807760141,816.9999999999999,108.88886684303351,819.3749999999999,108.52255291005291C821.7499999999999,108.1562389770723,824.1249999999999,107.7899250440917,826.4999999999999,107.42361111111111C828.8749999999999,107.05729717813051,831.25,106.69098324514992,833.625,106.32466931216932C836,105.95835537918873,838.375,105.59204144620813,840.75,105.22572751322753C843.125,104.85941358024692,845.5,104.4930996472663,847.875,104.1267857142857C850.25,103.7604717813051,852.625,103.39415784832451,855,103.02784391534391C857.375,102.6615299823633,859.75,102.29521604938273,862.125,101.92890211640213C864.5,101.56258818342152,866.875,101.19627425044094,869.25,100.82996031746033C871.625,100.46364638447973,874,100.09733245149911,876.375,99.73101851851851C878.75,99.36470458553791,881.125,98.99839065255732,883.5,98.63207671957672C885.875,98.26576278659611,888.25,97.89944885361552,890.625,97.53313492063492C893,97.16682098765432,895.375,96.80050705467374,897.75,96.43419312169314C900.125,96.06787918871254,902.5,95.70156525573191,904.875,95.3352513227513C907.25,94.9689373897707,909.625,94.60262345679013,912,94.23630952380952C914.375,93.86999559082892,916.75,93.50368165784833,919.125,93.13736772486773C921.5,92.77105379188713,923.875,92.40473985890652,926.25,92.03842592592592C928.625,91.67211199294532,931,91.30579805996472,933.375,90.93948412698411C935.75,90.57317019400351,938.125,90.20685626102292,940.5,89.84054232804232C942.875,89.47422839506171,945.25,89.10791446208113,947.625,88.74160052910054C950,88.37528659611993,952.3750000000001,88.00897266313935,954.7500000000001,87.64265873015874C957.1250000000001,87.27634479717814,959.5000000000001,86.91003086419754,961.8750000000001,86.54371693121693C964.2500000000001,86.17740299823633,966.6250000000001,85.81108906525573,969.0000000000001,85.44477513227513C971.3750000000001,85.07846119929452,973.7500000000001,84.71214726631393,976.1250000000001,84.34583333333333C978.5,83.97951940035274,980.875,83.61320546737214,983.2499999999999,83.24689153439155C985.6249999999999,82.88057760141095,987.9999999999999,82.51426366843035,990.3749999999999,82.14794973544974C992.7499999999999,81.78163580246914,995.1249999999999,81.41532186948854,997.4999999999999,81.04900793650793C999.8749999999999,80.68269400352733,1002.2499999999999,80.31638007054673,1004.6249999999999,79.95006613756614C1006.9999999999999,79.58375220458554,1009.375,79.21743827160495,1011.75,78.85112433862435C1014.125,78.48481040564374,1016.5,78.11849647266314,1018.875,77.75218253968254C1021.25,77.38586860670193,1023.625,77.01955467372133,1026,76.65324074074073C1028.375,76.28692680776012,1030.75,75.92061287477955,1033.125,75.55429894179895C1035.5,75.18798500881834,1037.875,74.82167107583774,1040.25,74.45535714285714C1042.625,74.08904320987654,1045,73.72272927689595,1047.375,73.35641534391534C1049.75,72.99010141093474,1052.125,72.62378747795415,1054.5,72.25747354497355C1056.875,71.89115961199295,1059.25,71.52484567901234,1061.625,71.15853174603174C1064,70.79221781305114,1066.375,70.42590388007056,1068.75,70.05958994708996C1071.125,69.69327601410936,1073.5,69.32696208112876,1075.875,68.96064814814815C1078.25,68.59433421516755,1080.625,68.22802028218696,1083,67.86170634920636C1085.375,67.49539241622576,1087.75,67.12907848324515,1090.125,66.76276455026455C1092.5,66.39645061728395,1094.875,66.03013668430336,1097.25,65.66382275132275C1099.625,65.29750881834215,1102,64.93119488536153,1104.375,64.56488095238093C1106.75,64.19856701940033,1109.125,63.83225308641976,1111.5,63.465939153439166C1113.875,63.09962522045857,1116.25,62.73331128747796,1118.625,62.36699735449736C1121,62.000683421516754,1123.375,61.634369488536166,1125.75,61.26805555555556C1128.125,60.90174162257496,1130.5,60.53542768959434,1132.875,60.16911375661374C1135.25,59.80279982363314,1137.625,59.43648589065256,1140,59.07017195767197C1142.375,58.70385802469137,1144.75,58.33754409171076,1147.125,57.97123015873016C1149.5,57.604916225749555,1151.875,57.23860229276895,1154.25,56.87228835978835C1156.625,56.50597442680775,1159,56.13966049382714,1161.375,55.77334656084654C1163.75,55.407032627865945,1166.125,55.04071869488536,1168.5,54.67440476190477C1170.875,54.30809082892417,1173.25,53.94177689594357,1175.625,53.575462962962966C1178,53.20914902998236,1180.375,52.84283509700176,1182.75,52.47652116402116C1185.125,52.110207231040555,1187.5,51.74389329805996,1189.875,51.37757936507936C1192.25,51.01126543209877,1194.625,50.64495149911818,1197,50.278637566137576C1199.375,49.91232363315697,1201.75,49.54600970017637,1204.125,49.17969576719577C1206.5,48.813381834215164,1208.875,48.44706790123456,1211.25,48.08075396825396C1213.625,47.714440035273356,1216,47.34812610229277,1218.375,46.98181216931217C1220.75,46.615498236331575,1223.125,46.249184303350965,1225.5,45.88287037037036C1227.875,45.51655643738976,1230.25,45.150242504409164,1232.625,44.78392857142857C1235,44.41761463844797,1237.375,44.05130070546738,1239.75,43.68498677248678C1242.125,43.31867283950618,1244.5,42.952358906525575,1246.875,42.58604497354497C1249.25,42.21973104056437,1251.625,41.85341710758376,1254,41.48710317460316C1256.375,41.12078924162257,1258.75,40.754475308641986,1261.125,40.38816137566139C1263.5,40.021847442680794,1265.875,39.65553350970016,1268.25,39.28921957671957C1270.625,38.92290564373897,1273,38.5565917107584,1275.375,38.190277777777794C1277.75,37.82396384479719,1280.125,37.457649911816574,1282.5,37.09133597883597C1284.875,36.72502204585537,1287.25,36.35870811287477,1289.625,35.99239417989418C1292,35.62608024691358,1294.375,35.259766313932985,1296.75,34.89345238095239C1299.125,34.527138447971794,1301.5,34.160824514991184,1303.875,33.79451058201058C1306.25,33.42819664902998,1308.625,33.06188271604937,1311,32.69556878306877C1313.375,32.32925485008818,1315.75,31.9629409171076,1318.125,31.596626984127C1320.5,31.2303130511464,1322.875,30.863999118165776,1325.25,30.497685185185173C1327.625,30.13137125220457,1330,29.765057319223985,1332.375,29.398743386243385C1334.75,29.032429453262786,1337.125,28.666115520282176,1339.5,28.299801587301577C1341.875,27.933487654320977,1344.25,27.56717372134038,1346.625,27.200859788359786C1349,26.83454585537919,1351.375,26.468231922398594,1353.75,26.101917989417995C1356.125,25.735604056437396,1358.5,25.369290123456786,1360.875,25.002976190476186C1363.25,24.636662257495587,1365.625,24.270348324514995,1368,23.9040343915344C1370.375,23.537720458553803,1372.75,23.171406525573207,1375.125,22.805092592592608C1377.5,22.43877865961201,1379.875,22.0724647266314,1382.25,21.7061507936508C1384.625,21.3398368606702,1387,20.973522927689608,1389.375,20.60720899470901C1391.75,20.24089506172841,1394.125,19.874581128747806,1396.5,19.5082671957672C1398.875,19.141953262786593,1401.25,18.775639329805976,1403.625,18.409325396825377C1406,18.043011463844778,1408.375,17.676697530864203,1410.75,17.310383597883604C1413.125,16.944069664903004,1415.5,16.577755731922377,1417.875,16.211441798941777C1420.25,15.845127865961178,1422.625,15.478813932980591,1425,15.112500000000004" fill="transparent" stroke-linecap="round" stroke="#1AD4B3" stroke-width="2"></path><g class="visx-group visx-axis visx-axis-bottom" transform="translate(0, 155)"><g class="visx-group visx-axis-tick" transform="translate(0, 0)"><line class="visx-line" x1="0" y1="0" x2="0" y2="8" fill="transparent" shape-rendering="crispEdges" stroke="#F2F0F9" stroke-width="1" stroke-linecap="square"></line><svg x="0" y="0" font-size="11" style="overflow:visible"><text transform="" x="0" y="19" fill="#1B2030" font-size="11" text-anchor="middle"><tspan x="0" dy="0em">0%</tspan></text></svg></g><g class="visx-group visx-axis-tick" transform="translate(0, 0)"><line class="visx-line" x1="356.25" y1="0" x2="356.25" y2="8" fill="transparent" shape-rendering="crispEdges" stroke="#F2F0F9" stroke-width="1" stroke-linecap="square"></line><svg x="0" y="0" font-size="11" style="overflow:visible"><text transform="" x="356.25" y="19" fill="#1B2030" font-size="11" text-anchor="middle"><tspan x="356.25" dy="0em">25%</tspan></text></svg></g><g class="visx-group visx-axis-tick" transform="translate(0, 0)"><line class="visx-line" x1="712.5" y1="0" x2="712.5" y2="8" fill="transparent" shape-rendering="crispEdges" stroke="#F2F0F9" stroke-width="1" stroke-linecap="square"></line><svg x="0" y="0" font-size="11" style="overflow:visible"><text transform="" x="712.5" y="19" fill="#1B2030" font-size="11" text-anchor="middle"><tspan x="712.5" dy="0em">50%</tspan></text></svg></g><g class="visx-group visx-axis-tick" transform="translate(0, 0)"><line class="visx-line" x1="1068.75" y1="0" x2="1068.75" y2="8" fill="transparent" shape-rendering="crispEdges" stroke="#F2F0F9" stroke-width="1" stroke-linecap="square"></line><svg x="0" y="0" font-size="11" style="overflow:visible"><text transform="" x="1068.75" y="19" fill="#1B2030" font-size="11" text-anchor="middle"><tspan x="1068.75" dy="0em">75%</tspan></text></svg></g><g class="visx-group visx-axis-tick" transform="translate(0, 0)"><line class="visx-line" x1="1425" y1="0" x2="1425" y2="8" fill="transparent" shape-rendering="crispEdges" stroke="#F2F0F9" stroke-width="1" stroke-linecap="square"></line><svg x="0" y="0" font-size="11" style="overflow:visible"><text transform="" x="1425" y="19" fill="#1B2030" font-size="11" text-anchor="middle"><tspan x="1425" dy="0em">100%</tspan></text></svg></g></g><g class="visx-group visx-axis visx-axis-left" transform="translate(0, 0)"><g class="visx-group visx-axis-tick" transform="translate(0, 0)"><line class="visx-line" x1="0" y1="155" x2="-8" y2="155" fill="transparent" shape-rendering="crispEdges" stroke="#F2F0F9" stroke-width="1" stroke-linecap="square"></line><svg x="-30" y="0" font-size="11" style="overflow:visible"><text transform="" x="-8" y="155" fill="#1B2030" font-size="11" text-anchor="start"><tspan x="-8" dy="0em">0%</tspan></text></svg></g><g class="visx-group visx-axis-tick" transform="translate(0, 0)"><line class="visx-line" x1="0" y1="103.33333333333334" x2="-8" y2="103.33333333333334" fill="transparent" shape-rendering="crispEdges" stroke="#F2F0F9" stroke-width="1" stroke-linecap="square"></line><svg x="-30" y="0" font-size="11" style="overflow:visible"><text transform="" x="-8" y="103.33333333333334" fill="#1B2030" font-size="11" text-anchor="start"><tspan x="-8" dy="0em">200%</tspan></text></svg></g><g class="visx-group visx-axis-tick" transform="translate(0, 0)"><line class="visx-line" x1="0" y1="51.66666666666667" x2="-8" y2="51.66666666666667" fill="transparent" shape-rendering="crispEdges" stroke="#F2F0F9" stroke-width="1" stroke-linecap="square"></line><svg x="-30" y="0" font-size="11" style="overflow:visible"><text transform="" x="-8" y="51.66666666666667" fill="#1B2030" font-size="11" text-anchor="start"><tspan x="-8" dy="0em">400%</tspan></text></svg></g><g class="visx-group visx-axis-tick" transform="translate(0, 0)"><line class="visx-line" x1="0" y1="0" x2="-8" y2="0" fill="transparent" shape-rendering="crispEdges" stroke="#F2F0F9" stroke-width="1" stroke-linecap="square"></line><svg x="-30" y="0" font-size="11" style="overflow:visible"><text transform="" x="-8" y="0" fill="#1B2030" font-size="11" text-anchor="start"><tspan x="-8" dy="0em">600%</tspan></text></svg></g><line class="visx-line visx-axis-line" x1="0" y1="155.5" x2="0" y2="0.5" fill="transparent" shape-rendering="crispEdges" stroke="#F2F0F9" stroke-width="1"></line></g><rect class="visx-bar" width="1425" height="155" fill="transparent"></rect><line class="visx-line" x1="527.25" y1="58" x2="527.25" y2="155" fill="transparent" shape-rendering="crispEdges" stroke="#CDC8E1" stroke-width="1" pointer-events="none" stroke-dasharray="5"></line><svg x="0" y="0" font-size="11px" style="overflow:visible"><text transform="" x="527.25" y="50" font-size="11px" fill="#555069" stroke="#FFFFFF" stroke-width="1px" text-anchor="middle"><tspan x="527.25" dy="0.355em">uOptimal 37%</tspan></text></svg><svg x="0" y="0" font-size="11px" style="overflow:visible"><text transform="" x="527.25" y="50" font-size="11px" fill="#CDC8E1" text-anchor="middle"><tspan x="527.25" dy="0.355em">uOptimal 37%</tspan></text></svg></g></svg>