<?xml version="1.0"?><svg xmlns="http://www.w3.org/2000/svg" xmlns:xlink= "http://www.w3.org/1999/xlink" style="background: white;" width="1500" height="300"> <g style="color: black; font-size: 13px; font-family: sans-serif; transform: translate(18px, 25px);"><g><circle r="3" cx="-6" cy="-5" style="fill: #1AD4B3" /><text>Borrow APR, variable</text></g><g style="transform: translateX(150px);"><circle r="3" cx="-6" cy="-5" style="fill: #101423" /><text>Borrow APR, stable</text></g></g><g class="visx-group" transform="translate(45, 50)"><g class="visx-group visx-rows" transform="translate(0, 0)"><line class="visx-line" x1="0" y1="155" x2="1425" y2="155" fill="transparent" shape-rendering="crispEdges" stroke="#F2F0F9" stroke-width="1" pointer-events="none"></line><line class="visx-line" x1="0" y1="77.5" x2="1425" y2="77.5" fill="transparent" shape-rendering="crispEdges" stroke="#F2F0F9" stroke-width="1" pointer-events="none"></line><line class="visx-line" x1="0" y1="0" x2="1425" y2="0" fill="transparent" shape-rendering="crispEdges" stroke="#F2F0F9" stroke-width="1" pointer-events="none"></line></g><path class="visx-linepath" d="M0,154.99999999995694C2.375,154.99282407404897,4.75,154.98564814814097,7.125,154.97847222222222C9.5,154.97129629630348,11.875,154.96412037037038,14.25,154.95694444444445C16.625,154.9497685185185,19,154.9425925925926,21.375,154.93541666666667C23.75,154.92824074074073,26.125,154.92106481481483,28.5,154.9138888888889C30.875,154.90671296296296,33.25,154.89953703703705,35.625,154.89236111111111C38,154.88518518518518,40.375,154.87800925925927,42.75,154.87083333333334C45.125,154.8636574074074,47.50000000000001,154.8564814814815,49.87500000000001,154.84930555555556C52.25000000000001,154.84212962962962,54.625,154.83495370370372,57,154.82777777777778C59.375,154.82060185185185,61.75,154.81342592592594,64.125,154.80625C66.5,154.79907407407407,68.875,154.79189814814816,71.25,154.78472222222223C73.625,154.7775462962963,76,154.7703703703704,78.375,154.76319444444445C80.75,154.75601851851852,83.125,154.7488425925926,85.5,154.74166666666667C87.875,154.73449074074074,90.25,154.72731481481483,92.625,154.7201388888889C95,154.71296296296296,97.37500000000001,154.70578703703706,99.75000000000001,154.69861111111112C102.12500000000001,154.69143518518518,104.5,154.68425925925928,106.875,154.67708333333334C109.25,154.6699074074074,111.625,154.6627314814815,114,154.65555555555557C116.375,154.64837962962963,118.75000000000001,154.6412037037037,121.12500000000001,154.63402777777776C123.50000000000001,154.62685185185182,125.875,154.61967592592592,128.25,154.6125C130.625,154.60532407407408,133,154.59814814814817,135.375,154.59097222222223C137.75,154.5837962962963,140.125,154.5766203703704,142.5,154.56944444444446C144.875,154.56226851851852,147.25,154.5550925925926,149.625,154.54791666666665C152,154.54074074074072,154.375,154.5335648148148,156.75,154.52638888888887C159.125,154.51921296296294,161.5,154.51203703703703,163.875,154.5048611111111C166.25,154.49768518518516,168.625,154.49050925925928,171,154.48333333333335C173.375,154.4761574074074,175.75,154.4689814814815,178.125,154.46180555555557C180.5,154.45462962962964,182.875,154.4474537037037,185.25,154.44027777777777C187.625,154.43310185185183,190,154.42592592592592,192.375,154.41875C194.75,154.41157407407405,197.12500000000003,154.40439814814815,199.50000000000003,154.3972222222222C201.875,154.3900462962963,204.25,154.3828703703704,206.62499999999997,154.37569444444446C208.99999999999997,154.36851851851853,211.375,154.3613425925926,213.75,154.35416666666666C216.125,154.34699074074072,218.5,154.33981481481482,220.875,154.33263888888888C223.25,154.32546296296294,225.625,154.31828703703704,228,154.3111111111111C230.375,154.30393518518517,232.75,154.29675925925926,235.125,154.28958333333333C237.5,154.2824074074074,239.87500000000003,154.27523148148148,242.25000000000003,154.26805555555555C244.625,154.2608796296296,247,154.2537037037037,249.37499999999997,154.24652777777777C251.74999999999997,154.23935185185184,254.125,154.23217592592593,256.5,154.225C258.875,154.21782407407406,261.25,154.21064814814815,263.625,154.20347222222222C266,154.19629629629628,268.375,154.18912037037038,270.75,154.18194444444444C273.125,154.1747685185185,275.5,154.1675925925926,277.875,154.16041666666666C280.25,154.15324074074073,282.625,154.14606481481482,285,154.13888888888889C287.375,154.13171296296295,289.75,154.12453703703704,292.125,154.1173611111111C294.5,154.11018518518517,296.875,154.10300925925927,299.25,154.09583333333333C301.625,154.0886574074074,304,154.0814814814815,306.375,154.07430555555555C308.75,154.06712962962962,311.125,154.0599537037037,313.5,154.05277777777778C315.875,154.04560185185184,318.25,154.03842592592594,320.625,154.03125C323,154.02407407407406,325.375,154.01689814814816,327.75,154.00972222222222C330.125,154.0025462962963,332.5,153.99537037037038,334.875,153.98819444444445C337.25,153.9810185185185,339.625,153.9738425925926,342,153.96666666666667C344.375,153.95949074074073,346.75,153.95231481481483,349.125,153.9451388888889C351.5,153.93796296296296,353.875,153.93078703703705,356.25,153.92361111111111C358.625,153.91643518518518,361,153.90925925925927,363.375,153.90208333333334C365.75,153.8949074074074,368.125,153.8877314814815,370.5,153.88055555555556C372.875,153.87337962962962,375.25,153.86620370370372,377.625,153.85902777777778C380,153.85185185185185,382.375,153.84467592592594,384.75,153.8375C387.125,153.83032407407407,389.50000000000006,153.82314814814816,391.87500000000006,153.81597222222223C394.25000000000006,153.8087962962963,396.62500000000006,153.8016203703704,399.00000000000006,153.79444444444445C401.375,153.78726851851852,403.75,153.7800925925926,406.12499999999994,153.77291666666667C408.49999999999994,153.76574074074074,410.87499999999994,153.75856481481483,413.24999999999994,153.7513888888889C415.62499999999994,153.74421296296296,418,153.73703703703706,420.375,153.72986111111112C422.75,153.72268518518518,425.125,153.71550925925928,427.5,153.70833333333334C429.875,153.7011574074074,432.25,153.6939814814815,434.625,153.68680555555557C437,153.67962962962963,439.375,153.67245370370372,441.75,153.6652777777778C444.125,153.65810185185185,446.5,153.65092592592592,448.875,153.64374999999998C451.25,153.63657407407405,453.625,153.62939814814814,456,153.62222222222223C458.375,153.61504629629633,460.75,153.6078703703704,463.125,153.60069444444446C465.5,153.59351851851852,467.875,153.58634259259262,470.25,153.57916666666668C472.625,153.57199074074074,475.00000000000006,153.5648148148148,477.37500000000006,153.55763888888887C479.75000000000006,153.55046296296294,482.12500000000006,153.54328703703703,484.50000000000006,153.5361111111111C486.875,153.5289351851852,489.25,153.52175925925926,491.62499999999994,153.51458333333335C493.99999999999994,153.5074074074074,496.37499999999994,153.5002314814815,498.74999999999994,153.49305555555557C501.12499999999994,153.48587962962964,503.5,153.4787037037037,505.875,153.47152777777777C508.25,153.46435185185183,510.625,153.45717592592592,513,153.45C515.375,153.44282407407405,517.75,153.43564814814815,520.125,153.4284722222222C522.5,153.42129629629628,524.875,153.41412037037037,527.25,153.40694444444443C529.625,153.3997685185185,532,153.39259259259262,534.375,153.38541666666669C536.75,153.37824074074075,539.125,153.37106481481482,541.5,153.36388888888888C543.875,153.35671296296294,546.25,153.34953703703704,548.625,153.3423611111111C551,153.33518518518517,553.375,153.32800925925926,555.75,153.32083333333333C558.125,153.3136574074074,560.5,153.30648148148148,562.875,153.29930555555555C565.25,153.2921296296296,567.625,153.2849537037037,570,153.27777777777777C572.375,153.27060185185184,574.75,153.26342592592593,577.125,153.25625C579.5,153.24907407407406,581.875,153.24189814814815,584.25,153.23472222222222C586.625,153.22754629629628,589,153.22037037037038,591.375,153.21319444444444C593.75,153.2060185185185,596.125,153.1988425925926,598.5,153.19166666666666C600.875,153.18449074074073,603.25,153.17731481481482,605.625,153.17013888888889C608,153.16296296296295,610.375,153.15578703703704,612.75,153.1486111111111C615.125,153.14143518518517,617.5,153.13425925925927,619.875,153.12708333333333C622.25,153.1199074074074,624.625,153.1127314814815,627,153.10555555555555C629.375,153.09837962962962,631.75,153.0912037037037,634.125,153.08402777777778C636.5,153.07685185185184,638.875,153.06967592592594,641.25,153.0625C643.625,153.05532407407406,646,153.04814814814816,648.375,153.04097222222222C650.75,153.0337962962963,653.125,153.02662037037038,655.5,153.01944444444445C657.875,153.0122685185185,660.25,153.0050925925926,662.625,152.99791666666667C665,152.99074074074073,667.375,152.98356481481483,669.75,152.9763888888889C672.125,152.96921296296296,674.5,152.96203703703705,676.875,152.95486111111111C679.25,152.94768518518518,681.625,152.94050925925927,684,152.93333333333334C686.375,152.9261574074074,688.75,152.9189814814815,691.125,152.91180555555556C693.5,152.90462962962962,695.875,152.89745370370372,698.25,152.89027777777778C700.625,152.88310185185185,703,152.87592592592594,705.375,152.86875C707.75,152.86157407407407,710.125,152.85439814814816,712.5,152.84722222222223C714.875,152.8400462962963,717.25,152.8328703703704,719.625,152.82569444444445C722,152.81851851851852,724.375,152.8113425925926,726.75,152.80416666666667C729.125,152.79699074074074,731.5,152.78981481481483,733.875,152.7826388888889C736.25,152.77546296296296,738.625,152.76828703703703,741,152.7611111111111C743.375,152.75393518518516,745.75,152.74675925925925,748.125,152.73958333333334C750.5,152.73240740740744,752.875,152.7252314814815,755.25,152.71805555555557C757.625,152.71087962962963,760,152.70370370370372,762.375,152.6965277777778C764.75,152.68935185185185,767.125,152.68217592592595,769.5,152.675C771.875,152.66782407407408,774.2500000000001,152.66064814814814,776.6250000000001,152.6534722222222C779.0000000000001,152.64629629629627,781.3750000000001,152.6391203703704,783.7500000000001,152.63194444444446C786.1250000000001,152.62476851851852,788.5000000000001,152.61759259259262,790.8750000000001,152.61041666666668C793.2500000000001,152.60324074074074,795.6250000000001,152.59606481481484,798.0000000000001,152.5888888888889C800.375,152.58171296296297,802.75,152.57453703703703,805.1249999999999,152.5673611111111C807.4999999999999,152.56018518518516,809.8749999999999,152.55300925925926,812.2499999999999,152.54583333333332C814.6249999999999,152.53865740740738,816.9999999999999,152.53148148148148,819.3749999999999,152.52430555555554C821.7499999999999,152.5171296296296,824.1249999999999,152.50995370370373,826.4999999999999,152.5027777777778C828.8749999999999,152.49560185185186,831.25,152.48842592592592,833.625,152.48125C836,152.47407407407405,838.375,152.46689814814815,840.75,152.4597222222222C843.125,152.45254629629628,845.5,152.44537037037037,847.875,152.43819444444443C850.25,152.4310185185185,852.625,152.42384259259256,855,152.41666666666666C857.375,152.40949074074075,859.75,152.40231481481484,862.125,152.3951388888889C864.5,152.38796296296297,866.875,152.38078703703704,869.25,152.3736111111111C871.625,152.36643518518517,874,152.35925925925926,876.375,152.35208333333333C878.75,152.3449074074074,881.125,152.33773148148148,883.5,152.33055555555555C885.875,152.3233796296296,888.25,152.3162037037037,890.625,152.30902777777777C893,152.30185185185184,895.375,152.29467592592593,897.75,152.2875C900.125,152.28032407407406,902.5,152.27314814814815,904.875,152.26597222222222C907.25,152.25879629629628,909.625,152.25162037037038,912,152.24444444444444C914.375,152.2372685185185,916.75,152.2300925925926,919.125,152.22291666666666C921.5,152.21574074074073,923.875,152.20856481481482,926.25,152.20138888888889C928.625,152.19421296296295,931,152.18703703703704,933.375,152.1798611111111C935.75,152.17268518518517,938.125,152.16550925925927,940.5,152.15833333333333C942.875,152.1511574074074,945.25,152.1439814814815,947.625,152.13680555555555C950,152.12962962962962,952.3750000000001,152.1224537037037,954.7500000000001,152.11527777777778C957.1250000000001,152.10810185185184,959.5000000000001,152.10092592592594,961.8750000000001,152.09375C964.2500000000001,152.08657407407406,966.6250000000001,152.07939814814816,969.0000000000001,152.07222222222222C971.3750000000001,152.0650462962963,973.7500000000001,152.05787037037038,976.1250000000001,152.05069444444445C978.5,152.0435185185185,980.875,152.0363425925926,983.2499999999999,152.02916666666667C985.6249999999999,152.02199074074073,987.9999999999999,152.01481481481483,990.3749999999999,152.0076388888889C992.7499999999999,152.00046296296296,995.1249999999999,151.99328703703705,997.4999999999999,151.98611111111111C999.8749999999999,151.97893518518518,1002.2499999999999,151.97175925925927,1004.6249999999999,151.96458333333334C1006.9999999999999,151.9574074074074,1009.375,151.9502314814815,1011.75,151.94305555555556C1014.125,151.93587962962962,1016.5,151.92870370370372,1018.875,151.92152777777778C1021.25,151.91435185185185,1023.625,151.90717592592594,1026,151.9C1028.375,151.89282407407407,1030.75,151.88564814814816,1033.125,151.87847222222223C1035.5,151.8712962962963,1037.875,151.8641203703704,1040.25,151.85694444444445C1042.625,151.84976851851852,1045,151.8425925925926,1047.375,151.83541666666667C1049.75,151.82824074074074,1052.125,151.82106481481483,1054.5,151.8138888888889C1056.875,151.80671296296296,1059.25,151.79953703703706,1061.625,151.79236111111112C1064,151.78518518518518,1066.375,151.77800925925925,1068.75,151.77083333333331C1071.125,151.76365740740738,1073.5,151.7564814814815,1075.875,151.74930555555557C1078.25,151.74212962962963,1080.625,151.73495370370372,1083,151.7277777777778C1085.375,151.72060185185185,1087.75,151.71342592592595,1090.125,151.70625C1092.5,151.69907407407408,1094.875,151.69189814814817,1097.25,151.68472222222223C1099.625,151.6775462962963,1102,151.67037037037036,1104.375,151.66319444444443C1106.75,151.6560185185185,1109.125,151.6488425925926,1111.5,151.64166666666665C1113.875,151.63449074074072,1116.25,151.62731481481484,1118.625,151.6201388888889C1121,151.61296296296297,1123.375,151.60578703703706,1125.75,151.59861111111113C1128.125,151.5914351851852,1130.5,151.58425925925926,1132.875,151.57708333333332C1135.25,151.56990740740738,1137.625,151.56273148148148,1140,151.55555555555554C1142.375,151.5483796296296,1144.75,151.54120370370373,1147.125,151.5340277777778C1149.5,151.52685185185186,1151.875,151.51967592592595,1154.25,151.51250000000002C1156.625,151.50532407407408,1159,151.49814814814815,1161.375,151.4909722222222C1163.75,151.48379629629628,1166.125,151.47662037037037,1168.5,151.46944444444443C1170.875,151.4622685185185,1173.25,151.4550925925926,1175.625,151.44791666666666C1178,151.44074074074072,1180.375,151.43356481481482,1182.75,151.42638888888888C1185.125,151.41921296296294,1187.5,151.41203703703704,1189.875,151.4048611111111C1192.25,151.39768518518517,1194.625,151.39050925925926,1197,151.38333333333333C1199.375,151.3761574074074,1201.75,151.36898148148148,1204.125,151.36180555555555C1206.5,151.3546296296296,1208.875,151.3474537037037,1211.25,151.34027777777777C1213.625,151.33310185185184,1216,151.32592592592593,1218.375,151.31875C1220.75,151.31157407407406,1223.125,151.30439814814815,1225.5,151.29722222222222C1227.875,151.29004629629628,1230.25,151.28287037037038,1232.625,151.27569444444444C1235,151.2685185185185,1237.375,151.2613425925926,1239.75,151.25416666666666C1242.125,151.24699074074073,1244.5,151.23981481481482,1246.875,151.23263888888889C1249.25,151.22546296296295,1251.625,151.21828703703704,1254,151.2111111111111C1256.375,151.20393518518517,1258.75,151.19675925925927,1261.125,151.18958333333333C1263.5,151.1824074074074,1265.875,151.1752314814815,1268.25,151.16805555555555C1270.625,151.16087962962962,1273,151.1537037037037,1275.375,151.14652777777778C1277.75,151.13935185185184,1280.125,151.13935185185184,1282.5,151.125C1284.875,151.11064814814816,1287.25,146.73333333333332,1289.625,144.5375C1292,142.34166666666667,1294.375,140.14583333333331,1296.75,137.95C1299.125,135.75416666666666,1301.5,133.55833333333334,1303.875,131.3625C1306.25,129.16666666666669,1308.625,126.97083333333333,1311,124.77499999999999C1313.375,122.57916666666665,1315.75,120.38333333333333,1318.125,118.1875C1320.5,115.99166666666667,1322.875,113.79583333333332,1325.25,111.6C1327.625,109.40416666666667,1330,107.20833333333334,1332.375,105.0125C1334.75,102.81666666666666,1337.125,100.62083333333334,1339.5,98.425C1341.875,96.22916666666666,1344.25,94.03333333333333,1346.625,91.8375C1349,89.64166666666668,1351.375,87.44583333333333,1353.75,85.25C1356.125,83.05416666666667,1358.5,80.85833333333335,1360.875,78.66250000000001C1363.25,76.46666666666667,1365.625,74.27083333333333,1368,72.07499999999999C1370.375,69.87916666666665,1372.75,67.68333333333332,1375.125,65.4875C1377.5,63.291666666666664,1379.875,61.09583333333333,1382.25,58.9C1384.625,56.704166666666666,1387,54.50833333333333,1389.375,52.3125C1391.75,50.11666666666667,1394.125,47.92083333333334,1396.5,45.72500000000001C1398.875,43.529166666666676,1401.25,41.33333333333332,1403.625,39.13749999999999C1406,36.941666666666656,1408.375,34.74583333333333,1410.75,32.55C1413.125,30.354166666666664,1415.5,28.15833333333333,1417.875,25.9625C1420.25,23.766666666666666,1422.625,21.570833333333333,1425,19.375" fill="transparent" stroke-linecap="round" stroke="#1AD4B3" stroke-width="2"></path><g class="visx-group visx-axis visx-axis-bottom" transform="translate(0, 155)"><g class="visx-group visx-axis-tick" transform="translate(0, 0)"><line class="visx-line" x1="0" y1="0" x2="0" y2="8" fill="transparent" shape-rendering="crispEdges" stroke="#F2F0F9" stroke-width="1" stroke-linecap="square"></line><svg x="0" y="0" font-size="11" style="overflow:visible"><text transform="" x="0" y="19" fill="#1B2030" font-size="11" text-anchor="middle"><tspan x="0" dy="0em">0%</tspan></text></svg></g><g class="visx-group visx-axis-tick" transform="translate(0, 0)"><line class="visx-line" x1="356.25" y1="0" x2="356.25" y2="8" fill="transparent" shape-rendering="crispEdges" stroke="#F2F0F9" stroke-width="1" stroke-linecap="square"></line><svg x="0" y="0" font-size="11" style="overflow:visible"><text transform="" x="356.25" y="19" fill="#1B2030" font-size="11" text-anchor="middle"><tspan x="356.25" dy="0em">25%</tspan></text></svg></g><g class="visx-group visx-axis-tick" transform="translate(0, 0)"><line class="visx-line" x1="712.5" y1="0" x2="712.5" y2="8" fill="transparent" shape-rendering="crispEdges" stroke="#F2F0F9" stroke-width="1" stroke-linecap="square"></line><svg x="0" y="0" font-size="11" style="overflow:visible"><text transform="" x="712.5" y="19" fill="#1B2030" font-size="11" text-anchor="middle"><tspan x="712.5" dy="0em">50%</tspan></text></svg></g><g class="visx-group visx-axis-tick" transform="translate(0, 0)"><line class="visx-line" x1="1068.75" y1="0" x2="1068.75" y2="8" fill="transparent" shape-rendering="crispEdges" stroke="#F2F0F9" stroke-width="1" stroke-linecap="square"></line><svg x="0" y="0" font-size="11" style="overflow:visible"><text transform="" x="1068.75" y="19" fill="#1B2030" font-size="11" text-anchor="middle"><tspan x="1068.75" dy="0em">75%</tspan></text></svg></g><g class="visx-group visx-axis-tick" transform="translate(0, 0)"><line class="visx-line" x1="1425" y1="0" x2="1425" y2="8" fill="transparent" shape-rendering="crispEdges" stroke="#F2F0F9" stroke-width="1" stroke-linecap="square"></line><svg x="0" y="0" font-size="11" style="overflow:visible"><text transform="" x="1425" y="19" fill="#1B2030" font-size="11" text-anchor="middle"><tspan x="1425" dy="0em">100%</tspan></text></svg></g></g><g class="visx-group visx-axis visx-axis-left" transform="translate(0, 0)"><g class="visx-group visx-axis-tick" transform="translate(0, 0)"><line class="visx-line" x1="0" y1="155" x2="-8" y2="155" fill="transparent" shape-rendering="crispEdges" stroke="#F2F0F9" stroke-width="1" stroke-linecap="square"></line><svg x="-30" y="0" font-size="11" style="overflow:visible"><text transform="" x="-8" y="155" fill="#1B2030" font-size="11" text-anchor="start"><tspan x="-8" dy="0em">0%</tspan></text></svg></g><g class="visx-group visx-axis-tick" transform="translate(0, 0)"><line class="visx-line" x1="0" y1="77.5" x2="-8" y2="77.5" fill="transparent" shape-rendering="crispEdges" stroke="#F2F0F9" stroke-width="1" stroke-linecap="square"></line><svg x="-30" y="0" font-size="11" style="overflow:visible"><text transform="" x="-8" y="77.5" fill="#1B2030" font-size="11" text-anchor="start"><tspan x="-8" dy="0em">50%</tspan></text></svg></g><g class="visx-group visx-axis-tick" transform="translate(0, 0)"><line class="visx-line" x1="0" y1="0" x2="-8" y2="0" fill="transparent" shape-rendering="crispEdges" stroke="#F2F0F9" stroke-width="1" stroke-linecap="square"></line><svg x="-30" y="0" font-size="11" style="overflow:visible"><text transform="" x="-8" y="0" fill="#1B2030" font-size="11" text-anchor="start"><tspan x="-8" dy="0em">100%</tspan></text></svg></g><line class="visx-line visx-axis-line" x1="0" y1="155.5" x2="0" y2="0.5" fill="transparent" shape-rendering="crispEdges" stroke="#F2F0F9" stroke-width="1"></line></g><rect class="visx-bar" width="1425" height="155" fill="transparent"></rect><line class="visx-line" x1="1282.5" y1="58" x2="1282.5" y2="155" fill="transparent" shape-rendering="crispEdges" stroke="#CDC8E1" stroke-width="1" pointer-events="none" stroke-dasharray="5"></line><svg x="0" y="0" font-size="11px" style="overflow:visible"><text transform="" x="1282.5" y="50" font-size="11px" fill="#555069" stroke="#FFFFFF" stroke-width="1px" text-anchor="middle"><tspan x="1282.5" dy="0.355em">Optimal utilization 90%</tspan></text></svg><svg x="0" y="0" font-size="11px" style="overflow:visible"><text transform="" x="1282.5" y="50" font-size="11px" fill="#CDC8E1" text-anchor="middle"><tspan x="1282.5" dy="0.355em">Optimal utilization 90%</tspan></text></svg></g></svg>