<?xml version="1.0"?><svg xmlns="http://www.w3.org/2000/svg" xmlns:xlink= "http://www.w3.org/1999/xlink" style="background: white;" width="1500" height="185"> <g style="color: black; font-size: 13px; font-family: sans-serif; transform: translate(18px, 25px);"><g><circle r="3" cx="-6" cy="-5" style="fill: #B6509E" /><text>Borrow APR, variable</text></g><g style="transform: translateX(150px);"><circle r="3" cx="-6" cy="-5" style="fill: rgb(231, 198, 223)" /><text>Borrow APR, stable</text></g><g style="transform: translateX(290px);"><circle r="3" cx="-6" cy="-5" style="fill: rgb(0, 98, 210)" /><text>Utilization Rate</text></g></g><g class="visx-group" transform="translate(40, 50)"><g class="visx-group visx-rows" transform="translate(0, 0)"><line class="visx-line" x1="0" y1="115" x2="1450" y2="115" fill="transparent" shape-rendering="crispEdges" stroke="#000" stroke-width="1" stroke-dasharray="3,3" pointer-events="none"></line><line class="visx-line" x1="0" y1="89.44444444444444" x2="1450" y2="89.44444444444444" fill="transparent" shape-rendering="crispEdges" stroke="#000" stroke-width="1" stroke-dasharray="3,3" pointer-events="none"></line><line class="visx-line" x1="0" y1="63.88888888888889" x2="1450" y2="63.88888888888889" fill="transparent" shape-rendering="crispEdges" stroke="#000" stroke-width="1" stroke-dasharray="3,3" pointer-events="none"></line><line class="visx-line" x1="0" y1="38.333333333333336" x2="1450" y2="38.333333333333336" fill="transparent" shape-rendering="crispEdges" stroke="#000" stroke-width="1" stroke-dasharray="3,3" pointer-events="none"></line><line class="visx-line" x1="0" y1="12.777777777777784" x2="1450" y2="12.777777777777784" fill="transparent" shape-rendering="crispEdges" stroke="#000" stroke-width="1" stroke-dasharray="3,3" pointer-events="none"></line></g><path class="visx-linepath" d="M0,0C2.4166666666666665,6.899999999999993,4.833333333333334,13.799999999999986,7.25,13.799999999999986C9.666666666666666,13.799999999999986,12.083333333333334,13.799999999999986,14.5,13.799999999999986C16.916666666666668,13.799999999999986,19.333333333333332,13.799999999999986,21.75,13.799999999999986C24.166666666666668,13.799999999999986,26.583333333333332,13.799999999999986,29,13.799999999999986C31.416666666666668,13.799999999999986,33.833333333333336,13.799999999999986,36.25,13.799999999999986C38.666666666666664,13.799999999999986,41.083333333333336,13.799999999999986,43.5,13.799999999999986C45.91666666666667,13.799999999999986,48.333333333333336,13.799999999999986,50.75000000000001,13.799999999999986C53.16666666666667,13.799999999999986,55.583333333333336,13.799999999999986,58,13.799999999999986C60.416666666666664,13.799999999999986,62.833333333333336,13.799999999999986,65.25,13.799999999999986C67.66666666666667,13.799999999999986,70.08333333333333,13.799999999999986,72.5,13.799999999999986C74.91666666666667,13.799999999999986,77.33333333333333,13.799999999999986,79.75,13.799999999999986C82.16666666666667,13.799999999999986,84.58333333333333,13.799999999999986,87,13.799999999999986C89.41666666666667,13.799999999999986,91.83333333333333,13.799999999999986,94.25,13.799999999999986C96.66666666666667,13.799999999999986,99.08333333333334,13.799999999999986,101.50000000000001,13.799999999999986C103.91666666666667,13.799999999999986,106.33333333333334,13.799999999999986,108.75,13.799999999999986C111.16666666666667,13.799999999999986,113.58333333333333,13.799999999999986,116,13.799999999999986C118.41666666666667,13.799999999999986,120.83333333333334,13.799999999999986,123.25000000000001,13.799999999999986C125.66666666666667,13.799999999999986,128.08333333333334,13.799999999999986,130.5,13.799999999999986C132.91666666666666,13.799999999999986,135.33333333333334,13.799999999999986,137.75,13.799999999999986C140.16666666666666,13.799999999999986,142.58333333333334,13.799999999999986,145,13.799999999999986C147.41666666666666,13.799999999999986,149.83333333333334,13.799999999999986,152.25,13.799999999999986C154.66666666666666,13.799999999999986,157.08333333333334,13.799999999999986,159.5,13.799999999999986C161.91666666666666,13.799999999999986,164.33333333333334,13.799999999999986,166.75,13.799999999999986C169.16666666666666,13.799999999999986,171.58333333333334,13.799999999999986,174,13.799999999999986C176.41666666666666,13.799999999999986,178.83333333333334,13.799999999999986,181.25,13.799999999999986C183.66666666666666,13.799999999999986,186.08333333333334,13.799999999999986,188.5,13.799999999999986C190.91666666666666,13.799999999999986,193.33333333333334,13.799999999999986,195.75,13.799999999999986C198.16666666666669,13.799999999999986,200.58333333333334,13.799999999999986,203.00000000000003,13.799999999999986C205.41666666666669,13.799999999999986,207.83333333333331,13.799999999999986,210.24999999999997,13.799999999999986C212.66666666666666,13.799999999999986,215.08333333333331,13.799999999999986,217.5,13.799999999999986C219.91666666666666,13.799999999999986,222.33333333333334,13.799999999999986,224.75,13.799999999999986C227.16666666666666,13.799999999999986,229.58333333333334,13.799999999999986,232,13.799999999999986C234.41666666666666,13.799999999999986,236.83333333333334,13.799999999999986,239.25,13.799999999999986C241.66666666666669,13.799999999999986,244.08333333333334,13.799999999999986,246.50000000000003,13.799999999999986C248.91666666666669,13.799999999999986,251.33333333333331,13.799999999999986,253.74999999999997,13.799999999999986C256.16666666666663,13.799999999999986,258.5833333333333,13.799999999999986,261,13.799999999999986C263.4166666666667,13.799999999999986,265.8333333333333,13.799999999999986,268.25,13.799999999999986C270.6666666666667,13.799999999999986,273.0833333333333,13.799999999999986,275.5,13.799999999999986C277.9166666666667,13.799999999999986,280.3333333333333,13.799999999999986,282.75,13.799999999999986C285.1666666666667,13.799999999999986,287.5833333333333,13.799999999999986,290,13.799999999999986C292.4166666666667,13.799999999999986,294.8333333333333,13.799999999999986,297.25,13.799999999999986C299.6666666666667,13.799999999999986,302.0833333333333,13.799999999999986,304.5,13.799999999999986C306.9166666666667,13.799999999999986,309.3333333333333,13.799999999999986,311.75,13.799999999999986C314.1666666666667,13.799999999999986,316.5833333333333,13.799999999999986,319,13.799999999999986C321.4166666666667,13.799999999999986,323.8333333333333,13.799999999999986,326.25,13.799999999999986C328.6666666666667,13.799999999999986,331.0833333333333,13.799999999999986,333.5,13.799999999999986C335.9166666666667,13.799999999999986,338.3333333333333,13.799999999999986,340.75,13.799999999999986C343.1666666666667,13.799999999999986,345.5833333333333,13.799999999999986,348,13.799999999999986C350.4166666666667,13.799999999999986,352.8333333333333,13.799999999999986,355.25,13.799999999999986C357.6666666666667,13.799999999999986,360.0833333333333,13.799999999999986,362.5,13.799999999999986C364.9166666666667,13.799999999999986,367.3333333333333,13.799999999999986,369.75,13.799999999999986C372.1666666666667,13.799999999999986,374.5833333333333,13.799999999999986,377,13.799999999999986C379.4166666666667,13.799999999999986,381.8333333333333,13.799999999999986,384.25,13.799999999999986C386.6666666666667,13.799999999999986,389.0833333333333,13.799999999999986,391.5,13.799999999999986C393.9166666666667,13.799999999999986,396.33333333333337,13.799999999999986,398.75000000000006,13.799999999999986C401.16666666666674,13.799999999999986,403.58333333333337,13.799999999999986,406.00000000000006,13.799999999999986C408.4166666666667,13.799999999999986,410.8333333333333,13.799999999999986,413.24999999999994,13.799999999999986C415.66666666666663,13.799999999999986,418.08333333333326,13.799999999999986,420.49999999999994,13.799999999999986C422.91666666666663,13.799999999999986,425.3333333333333,13.799999999999986,427.75,13.799999999999986C430.1666666666667,13.799999999999986,432.5833333333333,13.799999999999986,435,13.799999999999986C437.4166666666667,13.799999999999986,439.8333333333333,13.799999999999986,442.25,13.799999999999986C444.6666666666667,13.799999999999986,447.0833333333333,13.799999999999986,449.5,13.799999999999986C451.9166666666667,13.799999999999986,454.3333333333333,13.799999999999986,456.75,13.799999999999986C459.1666666666667,13.799999999999986,461.5833333333333,13.799999999999986,464,13.799999999999986C466.4166666666667,13.799999999999986,468.8333333333333,13.799999999999986,471.25,13.799999999999986C473.6666666666667,13.799999999999986,476.0833333333333,13.799999999999986,478.5,13.799999999999986C480.9166666666667,13.799999999999986,483.33333333333337,13.799999999999986,485.75000000000006,13.799999999999986C488.16666666666674,13.799999999999986,490.58333333333337,13.799999999999986,493.00000000000006,13.799999999999986C495.4166666666667,13.799999999999986,497.8333333333333,13.799999999999986,500.24999999999994,13.799999999999986C502.66666666666663,13.799999999999986,505.08333333333326,13.799999999999986,507.49999999999994,13.799999999999986C509.91666666666663,13.799999999999986,512.3333333333333,13.799999999999986,514.75,13.799999999999986C517.1666666666666,13.799999999999986,519.5833333333334,13.799999999999986,522,13.799999999999986C524.4166666666666,13.799999999999986,526.8333333333334,13.799999999999986,529.25,13.799999999999986C531.6666666666666,13.799999999999986,534.0833333333334,13.799999999999986,536.5,13.799999999999986C538.9166666666666,13.799999999999986,541.3333333333334,13.799999999999986,543.75,13.799999999999986C546.1666666666666,13.799999999999986,548.5833333333334,13.799999999999986,551,13.799999999999986C553.4166666666666,13.799999999999986,555.8333333333334,13.799999999999986,558.25,13.799999999999986C560.6666666666666,13.799999999999986,563.0833333333334,13.799999999999986,565.5,13.799999999999986C567.9166666666666,13.799999999999986,570.3333333333334,13.799999999999986,572.75,13.799999999999986C575.1666666666666,13.799999999999986,577.5833333333334,13.799999999999986,580,13.799999999999986C582.4166666666666,13.799999999999986,584.8333333333334,13.799999999999986,587.25,13.799999999999986C589.6666666666666,13.799999999999986,592.0833333333334,13.799999999999986,594.5,13.799999999999986C596.9166666666666,13.799999999999986,599.3333333333334,13.799999999999986,601.75,13.799999999999986C604.1666666666666,13.799999999999986,606.5833333333334,13.799999999999986,609,13.799999999999986C611.4166666666666,13.799999999999986,613.8333333333334,13.799999999999986,616.25,13.799999999999986C618.6666666666666,13.799999999999986,621.0833333333334,13.799999999999986,623.5,13.799999999999986C625.9166666666666,13.799999999999986,628.3333333333334,13.799999999999986,630.75,13.799999999999986C633.1666666666666,13.799999999999986,635.5833333333334,13.799999999999986,638,13.799999999999986C640.4166666666666,13.799999999999986,642.8333333333334,13.799999999999986,645.25,13.799999999999986C647.6666666666666,13.799999999999986,650.0833333333334,13.799999999999986,652.5,13.799999999999986C654.9166666666666,13.799999999999986,657.3333333333334,13.799999999999986,659.75,13.799999999999986C662.1666666666666,13.799999999999986,664.5833333333334,13.799999999999986,667,13.799999999999986C669.4166666666666,13.799999999999986,671.8333333333334,13.799999999999986,674.25,13.799999999999986C676.6666666666666,13.799999999999986,679.0833333333334,13.799999999999986,681.5,13.799999999999986C683.9166666666666,13.799999999999986,686.3333333333334,13.799999999999986,688.75,13.799999999999986C691.1666666666666,13.799999999999986,693.5833333333334,13.799999999999986,696,13.799999999999986C698.4166666666666,13.799999999999986,700.8333333333334,13.799999999999986,703.25,13.799999999999986C705.6666666666666,13.799999999999986,708.0833333333334,13.799999999999986,710.5,13.799999999999986C712.9166666666666,13.799999999999986,715.3333333333334,13.799999999999986,717.75,13.799999999999986C720.1666666666666,13.799999999999986,722.5833333333334,13.799999999999986,725,13.799999999999986C727.4166666666666,13.799999999999986,729.8333333333334,13.799999999999986,732.25,13.799999999999986C734.6666666666666,13.799999999999986,737.0833333333334,13.799999999999986,739.5,13.799999999999986C741.9166666666666,13.799999999999986,744.3333333333334,13.799999999999986,746.75,13.799999999999986C749.1666666666666,13.799999999999986,751.5833333333334,13.799999999999986,754,13.799999999999986C756.4166666666666,13.799999999999986,758.8333333333334,13.799999999999986,761.25,13.799999999999986C763.6666666666666,13.799999999999986,766.0833333333334,13.799999999999986,768.5,13.799999999999986C770.9166666666666,13.799999999999986,773.3333333333334,13.799999999999986,775.75,13.799999999999986C778.1666666666666,13.799999999999986,780.5833333333334,13.799999999999986,783,13.799999999999986C785.4166666666667,13.799999999999986,787.8333333333334,13.799999999999986,790.2500000000001,13.799999999999986C792.6666666666667,13.799999999999986,795.0833333333335,13.799999999999986,797.5000000000001,13.799999999999986C799.9166666666667,13.799999999999986,802.3333333333335,13.799999999999986,804.7500000000001,13.799999999999986C807.1666666666667,13.799999999999986,809.5833333333335,13.799999999999986,812.0000000000001,13.799999999999986C814.4166666666667,13.799999999999986,816.8333333333333,13.799999999999986,819.2499999999999,13.799999999999986C821.6666666666665,13.799999999999986,824.0833333333333,13.799999999999986,826.4999999999999,13.799999999999986C828.9166666666665,13.799999999999986,831.3333333333333,13.799999999999986,833.7499999999999,13.799999999999986C836.1666666666665,13.799999999999986,838.5833333333333,13.799999999999986,840.9999999999999,13.799999999999986C843.4166666666666,13.799999999999986,845.8333333333333,13.799999999999986,848.25,13.799999999999986C850.6666666666666,13.799999999999986,853.0833333333334,13.799999999999986,855.5,13.799999999999986C857.9166666666666,13.799999999999986,860.3333333333334,13.799999999999986,862.75,13.799999999999986C865.1666666666666,13.799999999999986,867.5833333333334,13.799999999999986,870,13.799999999999986C872.4166666666666,13.799999999999986,874.8333333333334,13.799999999999986,877.25,13.799999999999986C879.6666666666666,13.799999999999986,882.0833333333334,13.799999999999986,884.5,13.799999999999986C886.9166666666666,13.799999999999986,889.3333333333334,13.799999999999986,891.75,13.799999999999986C894.1666666666666,13.799999999999986,896.5833333333334,13.799999999999986,899,13.799999999999986C901.4166666666666,13.799999999999986,903.8333333333334,13.799999999999986,906.25,13.799999999999986C908.6666666666666,13.799999999999986,911.0833333333334,13.799999999999986,913.5,13.799999999999986C915.9166666666666,13.799999999999986,918.3333333333334,13.799999999999986,920.75,13.799999999999986C923.1666666666666,13.799999999999986,925.5833333333334,13.799999999999986,928,13.799999999999986C930.4166666666666,13.799999999999986,932.8333333333334,13.799999999999986,935.25,13.799999999999986C937.6666666666666,13.799999999999986,940.0833333333334,13.799999999999986,942.5,13.799999999999986C944.9166666666666,13.799999999999986,947.3333333333334,13.799999999999986,949.75,13.799999999999986C952.1666666666666,13.799999999999986,954.5833333333334,13.799999999999986,957,13.799999999999986C959.4166666666666,13.799999999999986,961.8333333333334,13.799999999999986,964.25,13.799999999999986C966.6666666666667,13.799999999999986,969.0833333333334,13.799999999999986,971.5000000000001,13.799999999999986C973.9166666666667,13.799999999999986,976.3333333333335,13.799999999999986,978.7500000000001,13.799999999999986C981.1666666666667,13.799999999999986,983.5833333333335,13.799999999999986,986.0000000000001,13.799999999999986C988.4166666666667,13.799999999999986,990.8333333333335,13.799999999999986,993.2500000000001,13.799999999999986C995.6666666666667,13.799999999999986,998.0833333333333,13.799999999999986,1000.4999999999999,13.799999999999986C1002.9166666666665,13.799999999999986,1005.3333333333333,13.799999999999986,1007.7499999999999,13.799999999999986C1010.1666666666665,13.799999999999986,1012.5833333333333,13.799999999999986,1014.9999999999999,13.799999999999986C1017.4166666666665,13.799999999999986,1019.8333333333333,13.799999999999986,1022.2499999999999,13.799999999999986C1024.6666666666665,13.799999999999986,1027.0833333333333,13.799999999999986,1029.5,13.799999999999986C1031.9166666666667,13.799999999999986,1034.3333333333333,13.799999999999986,1036.75,13.799999999999986C1039.1666666666667,13.799999999999986,1041.5833333333333,13.799999999999986,1044,13.799999999999986C1046.4166666666667,13.799999999999986,1048.8333333333333,13.799999999999986,1051.25,13.799999999999986C1053.6666666666667,13.799999999999986,1056.0833333333333,13.799999999999986,1058.5,13.799999999999986C1060.9166666666667,13.799999999999986,1063.3333333333333,13.799999999999986,1065.75,13.799999999999986C1068.1666666666667,13.799999999999986,1070.5833333333333,13.799999999999986,1073,13.799999999999986C1075.4166666666667,13.799999999999986,1077.8333333333333,13.799999999999986,1080.25,13.799999999999986C1082.6666666666667,13.799999999999986,1085.0833333333333,13.799999999999986,1087.5,13.799999999999986C1089.9166666666667,13.799999999999986,1092.3333333333333,13.799999999999986,1094.75,13.799999999999986C1097.1666666666667,13.799999999999986,1099.5833333333333,13.799999999999986,1102,13.799999999999986C1104.4166666666667,13.799999999999986,1106.8333333333333,13.799999999999986,1109.25,13.799999999999986C1111.6666666666667,13.799999999999986,1114.0833333333333,13.799999999999986,1116.5,13.799999999999986C1118.9166666666667,13.799999999999986,1121.3333333333333,13.799999999999986,1123.75,13.799999999999986C1126.1666666666667,13.799999999999986,1128.5833333333333,13.799999999999986,1131,13.799999999999986C1133.4166666666667,13.799999999999986,1135.8333333333333,13.799999999999986,1138.25,13.799999999999986C1140.6666666666667,13.799999999999986,1143.0833333333333,13.799999999999986,1145.5,13.799999999999986C1147.9166666666667,13.799999999999986,1150.3333333333333,13.799999999999986,1152.75,13.799999999999986C1155.1666666666667,13.799999999999986,1157.5833333333333,13.799999999999986,1160,13.799999999999986C1162.4166666666667,13.799999999999986,1164.8333333333333,13.799999999999986,1167.25,13.799999999999986C1169.6666666666667,13.799999999999986,1172.0833333333333,13.799999999999986,1174.5,13.799999999999986C1176.9166666666667,13.799999999999986,1179.3333333333333,13.799999999999986,1181.75,13.799999999999986C1184.1666666666667,13.799999999999986,1186.5833333333333,13.799999999999986,1189,13.799999999999986C1191.4166666666667,13.799999999999986,1193.8333333333333,13.799999999999986,1196.25,13.799999999999986C1198.6666666666667,13.799999999999986,1201.0833333333333,13.799999999999986,1203.5,13.799999999999986C1205.9166666666667,13.799999999999986,1208.3333333333333,13.799999999999986,1210.75,13.799999999999986C1213.1666666666667,13.799999999999986,1215.5833333333333,13.799999999999986,1218,13.799999999999986C1220.4166666666667,13.799999999999986,1222.8333333333333,13.799999999999986,1225.25,13.799999999999986C1227.6666666666667,13.799999999999986,1230.0833333333333,13.799999999999986,1232.5,13.799999999999986C1234.9166666666667,13.799999999999986,1237.3333333333333,13.799999999999986,1239.75,13.799999999999986C1242.1666666666667,13.799999999999986,1244.5833333333333,13.799999999999986,1247,13.799999999999986C1249.4166666666667,13.799999999999986,1251.8333333333333,13.799999999999986,1254.25,13.799999999999986C1256.6666666666667,13.799999999999986,1259.0833333333333,13.799999999999986,1261.5,13.799999999999986C1263.9166666666667,13.799999999999986,1266.3333333333333,13.799999999999986,1268.75,13.799999999999986C1271.1666666666667,13.799999999999986,1273.5833333333333,13.799999999999986,1276,13.799999999999986C1278.4166666666667,13.799999999999986,1280.8333333333333,13.799999999999986,1283.25,13.799999999999986C1285.6666666666667,13.799999999999986,1288.0833333333333,13.799999999999986,1290.5,13.799999999999986C1292.9166666666667,13.799999999999986,1295.3333333333333,13.799999999999986,1297.75,13.799999999999986C1300.1666666666667,13.799999999999986,1302.5833333333333,13.799999999999986,1305,13.799999999999986C1307.4166666666667,13.799999999999986,1309.8333333333333,13.799999999999986,1312.25,13.799999999999986C1314.6666666666667,13.799999999999986,1317.0833333333333,13.799999999999986,1319.5,13.799999999999986C1321.9166666666667,13.799999999999986,1324.3333333333333,13.799999999999986,1326.75,13.799999999999986C1329.1666666666667,13.799999999999986,1331.5833333333333,13.799999999999986,1334,13.799999999999986C1336.4166666666667,13.799999999999986,1338.8333333333333,13.799999999999986,1341.25,13.799999999999986C1343.6666666666667,13.799999999999986,1346.0833333333333,13.799999999999986,1348.5,13.799999999999986C1350.9166666666667,13.799999999999986,1353.3333333333333,13.799999999999986,1355.75,13.799999999999986C1358.1666666666667,13.799999999999986,1360.5833333333333,13.799999999999986,1363,13.799999999999986C1365.4166666666667,13.799999999999986,1367.8333333333333,13.799999999999986,1370.25,13.799999999999986C1372.6666666666667,13.799999999999986,1375.0833333333333,13.799999999999986,1377.5,13.799999999999986C1379.9166666666667,13.799999999999986,1382.3333333333333,13.799999999999986,1384.75,13.799999999999986C1387.1666666666667,13.799999999999986,1389.5833333333333,13.799999999999986,1392,13.799999999999986C1394.4166666666667,13.799999999999986,1396.8333333333333,13.799999999999986,1399.25,13.799999999999986C1401.6666666666667,13.799999999999986,1404.0833333333333,13.799999999999986,1406.5,13.799999999999986C1408.9166666666667,13.799999999999986,1411.3333333333333,13.799999999999986,1413.75,13.799999999999986C1416.1666666666667,13.799999999999986,1418.5833333333333,13.799999999999986,1421,13.799999999999986C1423.4166666666667,13.799999999999986,1425.8333333333333,13.799999999999986,1428.25,13.799999999999986C1430.6666666666667,13.799999999999986,1433.0833333333333,13.799999999999986,1435.5,13.799999999999986C1437.9166666666667,13.799999999999986,1440.3333333333333,13.799999999999986,1442.75,13.799999999999986C1445.1666666666667,13.799999999999986,1447.5833333333333,13.799999999999986,1450,13.799999999999986" fill="transparent" stroke-linecap="round" stroke="#B6509E" stroke-width="2"></path><path class="visx-linepath" d="M0,0C2.4166666666666665,57.49999999999999,4.833333333333334,115,7.25,115C9.666666666666666,115,12.083333333333334,115,14.5,115C16.916666666666668,115,19.333333333333332,115,21.75,115C24.166666666666668,115,26.583333333333332,115,29,115C31.416666666666668,115,33.833333333333336,115,36.25,115C38.666666666666664,115,41.083333333333336,115,43.5,115C45.91666666666667,115,48.333333333333336,115,50.75000000000001,115C53.16666666666667,115,55.583333333333336,115,58,115C60.416666666666664,115,62.833333333333336,115,65.25,115C67.66666666666667,115,70.08333333333333,115,72.5,115C74.91666666666667,115,77.33333333333333,115,79.75,115C82.16666666666667,115,84.58333333333333,115,87,115C89.41666666666667,115,91.83333333333333,115,94.25,115C96.66666666666667,115,99.08333333333334,115,101.50000000000001,115C103.91666666666667,115,106.33333333333334,115,108.75,115C111.16666666666667,115,113.58333333333333,115,116,115C118.41666666666667,115,120.83333333333334,115,123.25000000000001,115C125.66666666666667,115,128.08333333333334,115,130.5,115C132.91666666666666,115,135.33333333333334,115,137.75,115C140.16666666666666,115,142.58333333333334,115,145,115C147.41666666666666,115,149.83333333333334,115,152.25,115C154.66666666666666,115,157.08333333333334,115,159.5,115C161.91666666666666,115,164.33333333333334,115,166.75,115C169.16666666666666,115,171.58333333333334,115,174,115C176.41666666666666,115,178.83333333333334,115,181.25,115C183.66666666666666,115,186.08333333333334,115,188.5,115C190.91666666666666,115,193.33333333333334,115,195.75,115C198.16666666666669,115,200.58333333333334,115,203.00000000000003,115C205.41666666666669,115,207.83333333333331,115,210.24999999999997,115C212.66666666666666,115,215.08333333333331,115,217.5,115C219.91666666666666,115,222.33333333333334,115,224.75,115C227.16666666666666,115,229.58333333333334,115,232,115C234.41666666666666,115,236.83333333333334,115,239.25,115C241.66666666666669,115,244.08333333333334,115,246.50000000000003,115C248.91666666666669,115,251.33333333333331,115,253.74999999999997,115C256.16666666666663,115,258.5833333333333,115,261,115C263.4166666666667,115,265.8333333333333,115,268.25,115C270.6666666666667,115,273.0833333333333,115,275.5,115C277.9166666666667,115,280.3333333333333,115,282.75,115C285.1666666666667,115,287.5833333333333,115,290,115C292.4166666666667,115,294.8333333333333,115,297.25,115C299.6666666666667,115,302.0833333333333,115,304.5,115C306.9166666666667,115,309.3333333333333,115,311.75,115C314.1666666666667,115,316.5833333333333,115,319,115C321.4166666666667,115,323.8333333333333,115,326.25,115C328.6666666666667,115,331.0833333333333,115,333.5,115C335.9166666666667,115,338.3333333333333,115,340.75,115C343.1666666666667,115,345.5833333333333,115,348,115C350.4166666666667,115,352.8333333333333,115,355.25,115C357.6666666666667,115,360.0833333333333,115,362.5,115C364.9166666666667,115,367.3333333333333,115,369.75,115C372.1666666666667,115,374.5833333333333,115,377,115C379.4166666666667,115,381.8333333333333,115,384.25,115C386.6666666666667,115,389.0833333333333,115,391.5,115C393.9166666666667,115,396.33333333333337,115,398.75000000000006,115C401.16666666666674,115,403.58333333333337,115,406.00000000000006,115C408.4166666666667,115,410.8333333333333,115,413.24999999999994,115C415.66666666666663,115,418.08333333333326,115,420.49999999999994,115C422.91666666666663,115,425.3333333333333,115,427.75,115C430.1666666666667,115,432.5833333333333,115,435,115C437.4166666666667,115,439.8333333333333,115,442.25,115C444.6666666666667,115,447.0833333333333,115,449.5,115C451.9166666666667,115,454.3333333333333,115,456.75,115C459.1666666666667,115,461.5833333333333,115,464,115C466.4166666666667,115,468.8333333333333,115,471.25,115C473.6666666666667,115,476.0833333333333,115,478.5,115C480.9166666666667,115,483.33333333333337,115,485.75000000000006,115C488.16666666666674,115,490.58333333333337,115,493.00000000000006,115C495.4166666666667,115,497.8333333333333,115,500.24999999999994,115C502.66666666666663,115,505.08333333333326,115,507.49999999999994,115C509.91666666666663,115,512.3333333333333,115,514.75,115C517.1666666666666,115,519.5833333333334,115,522,115C524.4166666666666,115,526.8333333333334,115,529.25,115C531.6666666666666,115,534.0833333333334,115,536.5,115C538.9166666666666,115,541.3333333333334,115,543.75,115C546.1666666666666,115,548.5833333333334,115,551,115C553.4166666666666,115,555.8333333333334,115,558.25,115C560.6666666666666,115,563.0833333333334,115,565.5,115C567.9166666666666,115,570.3333333333334,115,572.75,115C575.1666666666666,115,577.5833333333334,115,580,115C582.4166666666666,115,584.8333333333334,115,587.25,115C589.6666666666666,115,592.0833333333334,115,594.5,115C596.9166666666666,115,599.3333333333334,115,601.75,115C604.1666666666666,115,606.5833333333334,115,609,115C611.4166666666666,115,613.8333333333334,115,616.25,115C618.6666666666666,115,621.0833333333334,115,623.5,115C625.9166666666666,115,628.3333333333334,115,630.75,115C633.1666666666666,115,635.5833333333334,115,638,115C640.4166666666666,115,642.8333333333334,115,645.25,115C647.6666666666666,115,650.0833333333334,115,652.5,115C654.9166666666666,115,657.3333333333334,115,659.75,115C662.1666666666666,115,664.5833333333334,115,667,115C669.4166666666666,115,671.8333333333334,115,674.25,115C676.6666666666666,115,679.0833333333334,115,681.5,115C683.9166666666666,115,686.3333333333334,115,688.75,115C691.1666666666666,115,693.5833333333334,115,696,115C698.4166666666666,115,700.8333333333334,115,703.25,115C705.6666666666666,115,708.0833333333334,115,710.5,115C712.9166666666666,115,715.3333333333334,115,717.75,115C720.1666666666666,115,722.5833333333334,115,725,115C727.4166666666666,115,729.8333333333334,115,732.25,115C734.6666666666666,115,737.0833333333334,115,739.5,115C741.9166666666666,115,744.3333333333334,115,746.75,115C749.1666666666666,115,751.5833333333334,115,754,115C756.4166666666666,115,758.8333333333334,115,761.25,115C763.6666666666666,115,766.0833333333334,115,768.5,115C770.9166666666666,115,773.3333333333334,115,775.75,115C778.1666666666666,115,780.5833333333334,115,783,115C785.4166666666667,115,787.8333333333334,115,790.2500000000001,115C792.6666666666667,115,795.0833333333335,115,797.5000000000001,115C799.9166666666667,115,802.3333333333335,115,804.7500000000001,115C807.1666666666667,115,809.5833333333335,115,812.0000000000001,115C814.4166666666667,115,816.8333333333333,115,819.2499999999999,115C821.6666666666665,115,824.0833333333333,115,826.4999999999999,115C828.9166666666665,115,831.3333333333333,115,833.7499999999999,115C836.1666666666665,115,838.5833333333333,115,840.9999999999999,115C843.4166666666666,115,845.8333333333333,115,848.25,115C850.6666666666666,115,853.0833333333334,115,855.5,115C857.9166666666666,115,860.3333333333334,115,862.75,115C865.1666666666666,115,867.5833333333334,115,870,115C872.4166666666666,115,874.8333333333334,115,877.25,115C879.6666666666666,115,882.0833333333334,115,884.5,115C886.9166666666666,115,889.3333333333334,115,891.75,115C894.1666666666666,115,896.5833333333334,115,899,115C901.4166666666666,115,903.8333333333334,115,906.25,115C908.6666666666666,115,911.0833333333334,115,913.5,115C915.9166666666666,115,918.3333333333334,115,920.75,115C923.1666666666666,115,925.5833333333334,115,928,115C930.4166666666666,115,932.8333333333334,115,935.25,115C937.6666666666666,115,940.0833333333334,115,942.5,115C944.9166666666666,115,947.3333333333334,115,949.75,115C952.1666666666666,115,954.5833333333334,115,957,115C959.4166666666666,115,961.8333333333334,115,964.25,115C966.6666666666667,115,969.0833333333334,115,971.5000000000001,115C973.9166666666667,115,976.3333333333335,115,978.7500000000001,115C981.1666666666667,115,983.5833333333335,115,986.0000000000001,115C988.4166666666667,115,990.8333333333335,115,993.2500000000001,115C995.6666666666667,115,998.0833333333333,115,1000.4999999999999,115C1002.9166666666665,115,1005.3333333333333,115,1007.7499999999999,115C1010.1666666666665,115,1012.5833333333333,115,1014.9999999999999,115C1017.4166666666665,115,1019.8333333333333,115,1022.2499999999999,115C1024.6666666666665,115,1027.0833333333333,115,1029.5,115C1031.9166666666667,115,1034.3333333333333,115,1036.75,115C1039.1666666666667,115,1041.5833333333333,115,1044,115C1046.4166666666667,115,1048.8333333333333,115,1051.25,115C1053.6666666666667,115,1056.0833333333333,115,1058.5,115C1060.9166666666667,115,1063.3333333333333,115,1065.75,115C1068.1666666666667,115,1070.5833333333333,115,1073,115C1075.4166666666667,115,1077.8333333333333,115,1080.25,115C1082.6666666666667,115,1085.0833333333333,115,1087.5,115C1089.9166666666667,115,1092.3333333333333,115,1094.75,115C1097.1666666666667,115,1099.5833333333333,115,1102,115C1104.4166666666667,115,1106.8333333333333,115,1109.25,115C1111.6666666666667,115,1114.0833333333333,115,1116.5,115C1118.9166666666667,115,1121.3333333333333,115,1123.75,115C1126.1666666666667,115,1128.5833333333333,115,1131,115C1133.4166666666667,115,1135.8333333333333,115,1138.25,115C1140.6666666666667,115,1143.0833333333333,115,1145.5,115C1147.9166666666667,115,1150.3333333333333,115,1152.75,115C1155.1666666666667,115,1157.5833333333333,115,1160,115C1162.4166666666667,115,1164.8333333333333,115,1167.25,115C1169.6666666666667,115,1172.0833333333333,115,1174.5,115C1176.9166666666667,115,1179.3333333333333,115,1181.75,115C1184.1666666666667,115,1186.5833333333333,115,1189,115C1191.4166666666667,115,1193.8333333333333,115,1196.25,115C1198.6666666666667,115,1201.0833333333333,115,1203.5,115C1205.9166666666667,115,1208.3333333333333,115,1210.75,115C1213.1666666666667,115,1215.5833333333333,115,1218,115C1220.4166666666667,115,1222.8333333333333,115,1225.25,115C1227.6666666666667,115,1230.0833333333333,115,1232.5,115C1234.9166666666667,115,1237.3333333333333,115,1239.75,115C1242.1666666666667,115,1244.5833333333333,115,1247,115C1249.4166666666667,115,1251.8333333333333,115,1254.25,115C1256.6666666666667,115,1259.0833333333333,115,1261.5,115C1263.9166666666667,115,1266.3333333333333,115,1268.75,115C1271.1666666666667,115,1273.5833333333333,115,1276,115C1278.4166666666667,115,1280.8333333333333,115,1283.25,115C1285.6666666666667,115,1288.0833333333333,115,1290.5,115C1292.9166666666667,115,1295.3333333333333,115,1297.75,115C1300.1666666666667,115,1302.5833333333333,115,1305,115C1307.4166666666667,115,1309.8333333333333,115,1312.25,115C1314.6666666666667,115,1317.0833333333333,115,1319.5,115C1321.9166666666667,115,1324.3333333333333,115,1326.75,115C1329.1666666666667,115,1331.5833333333333,115,1334,115C1336.4166666666667,115,1338.8333333333333,115,1341.25,115C1343.6666666666667,115,1346.0833333333333,115,1348.5,115C1350.9166666666667,115,1353.3333333333333,115,1355.75,115C1358.1666666666667,115,1360.5833333333333,115,1363,115C1365.4166666666667,115,1367.8333333333333,115,1370.25,115C1372.6666666666667,115,1375.0833333333333,115,1377.5,115C1379.9166666666667,115,1382.3333333333333,115,1384.75,115C1387.1666666666667,115,1389.5833333333333,115,1392,115C1394.4166666666667,115,1396.8333333333333,115,1399.25,115C1401.6666666666667,115,1404.0833333333333,115,1406.5,115C1408.9166666666667,115,1411.3333333333333,115,1413.75,115C1416.1666666666667,115,1418.5833333333333,115,1421,115C1423.4166666666667,115,1425.8333333333333,115,1428.25,115C1430.6666666666667,115,1433.0833333333333,115,1435.5,115C1437.9166666666667,115,1440.3333333333333,115,1442.75,115C1445.1666666666667,115,1447.5833333333333,115,1450,115" fill="transparent" stroke-linecap="round" stroke="#E7C6DF" stroke-width="2"></path><g class="visx-group visx-axis visx-axis-bottom" transform="translate(0, 115)"><g class="visx-group visx-axis-tick" transform="translate(0, 0)"><line class="visx-line" x1="0" y1="0" x2="0" y2="8" fill="transparent" shape-rendering="crispEdges" stroke="#000" stroke-width="0" stroke-linecap="square"></line><svg x="0" y="0" font-size="10" style="overflow:visible"><text transform="" x="0" y="18" fill="#000" font-size="10" text-anchor="middle"><tspan x="0" dy="0em">0%</tspan></text></svg></g><g class="visx-group visx-axis-tick" transform="translate(0, 0)"><line class="visx-line" x1="362.5" y1="0" x2="362.5" y2="8" fill="transparent" shape-rendering="crispEdges" stroke="#000" stroke-width="0" stroke-linecap="square"></line><svg x="0" y="0" font-size="10" style="overflow:visible"><text transform="" x="362.5" y="18" fill="#000" font-size="10" text-anchor="middle"><tspan x="362.5" dy="0em">25%</tspan></text></svg></g><g class="visx-group visx-axis-tick" transform="translate(0, 0)"><line class="visx-line" x1="725" y1="0" x2="725" y2="8" fill="transparent" shape-rendering="crispEdges" stroke="#000" stroke-width="0" stroke-linecap="square"></line><svg x="0" y="0" font-size="10" style="overflow:visible"><text transform="" x="725" y="18" fill="#000" font-size="10" text-anchor="middle"><tspan x="725" dy="0em">50%</tspan></text></svg></g><g class="visx-group visx-axis-tick" transform="translate(0, 0)"><line class="visx-line" x1="1087.5" y1="0" x2="1087.5" y2="8" fill="transparent" shape-rendering="crispEdges" stroke="#000" stroke-width="0" stroke-linecap="square"></line><svg x="0" y="0" font-size="10" style="overflow:visible"><text transform="" x="1087.5" y="18" fill="#000" font-size="10" text-anchor="middle"><tspan x="1087.5" dy="0em">75%</tspan></text></svg></g><g class="visx-group visx-axis-tick" transform="translate(0, 0)"><line class="visx-line" x1="1450" y1="0" x2="1450" y2="8" fill="transparent" shape-rendering="crispEdges" stroke="#000" stroke-width="0" stroke-linecap="square"></line><svg x="0" y="0" font-size="10" style="overflow:visible"><text transform="" x="1450" y="18" fill="#000" font-size="10" text-anchor="middle"><tspan x="1450" dy="0em">100%</tspan></text></svg></g><line class="visx-line visx-axis-line" x1="0.5" y1="0" x2="1450.5" y2="0" fill="transparent" shape-rendering="crispEdges" stroke="#222" stroke-width="0"></line></g><g class="visx-group visx-axis visx-axis-left" transform="translate(0, 0)"><g class="visx-group visx-axis-tick" transform="translate(0, 0)"><line class="visx-line" x1="0" y1="115" x2="-8" y2="115" fill="transparent" shape-rendering="crispEdges" stroke="#222" stroke-width="0" stroke-linecap="square"></line><svg x="-30" y="0" font-size="8" style="overflow:visible"><text transform="" x="-8" y="115" fill="#000" font-size="8" text-anchor="start"><tspan x="-8" dy="0em">0%</tspan></text></svg></g><g class="visx-group visx-axis-tick" transform="translate(0, 0)"><line class="visx-line" x1="0" y1="51.11111111111111" x2="-8" y2="51.11111111111111" fill="transparent" shape-rendering="crispEdges" stroke="#222" stroke-width="0" stroke-linecap="square"></line><svg x="-30" y="0" font-size="8" style="overflow:visible"><text transform="" x="-8" y="51.11111111111111" fill="#000" font-size="8" text-anchor="start"><tspan x="-8" dy="0em">5%</tspan></text></svg></g><line class="visx-line visx-axis-line" x1="0" y1="115.5" x2="0" y2="0.5" fill="transparent" shape-rendering="crispEdges" stroke="#222" stroke-width="0"></line></g><rect class="visx-bar" width="1450" height="115" fill="transparent"></rect><line class="visx-line" x1="0" y1="28" x2="0" y2="115" fill="transparent" shape-rendering="crispEdges" stroke="#0062D2" stroke-width="1" pointer-events="none" stroke-dasharray="5,2"></line><svg x="0" y="0" font-size="10px" style="overflow:visible"><text transform="" x="0" y="20" font-size="10px" fill="#fff" stroke="#fff" stroke-width="0.8em" text-anchor="middle"><tspan x="0" dy="0.355em">Optimal 0%</tspan></text></svg><svg x="0" y="0" font-size="10px" style="overflow:visible"><text transform="" x="0" y="20" font-size="10px" fill="#62677B" text-anchor="middle"><tspan x="0" dy="0.355em">Optimal 0%</tspan></text></svg></g></svg>