<?xml version="1.0"?><svg xmlns="http://www.w3.org/2000/svg" xmlns:xlink= "http://www.w3.org/1999/xlink" style="background: white;" width="1500" height="185"> <g style="color: black; font-size: 13px; font-family: sans-serif; transform: translate(18px, 25px);"><g><circle r="3" cx="-6" cy="-5" style="fill: #B6509E" /><text>Borrow APR, variable</text></g><g style="transform: translateX(150px);"><circle r="3" cx="-6" cy="-5" style="fill: rgb(231, 198, 223)" /><text>Borrow APR, stable</text></g><g style="transform: translateX(290px);"><circle r="3" cx="-6" cy="-5" style="fill: rgb(0, 98, 210)" /><text>Utilization Rate</text></g></g><g class="visx-group" transform="translate(40, 50)"><g class="visx-group visx-rows" transform="translate(0, 0)"><line class="visx-line" x1="0" y1="115" x2="1450" y2="115" fill="transparent" shape-rendering="crispEdges" stroke="#000" stroke-width="1" stroke-dasharray="3,3" pointer-events="none"></line><line class="visx-line" x1="0" y1="86.25" x2="1450" y2="86.25" fill="transparent" shape-rendering="crispEdges" stroke="#000" stroke-width="1" stroke-dasharray="3,3" pointer-events="none"></line><line class="visx-line" x1="0" y1="57.5" x2="1450" y2="57.5" fill="transparent" shape-rendering="crispEdges" stroke="#000" stroke-width="1" stroke-dasharray="3,3" pointer-events="none"></line><line class="visx-line" x1="0" y1="28.75" x2="1450" y2="28.75" fill="transparent" shape-rendering="crispEdges" stroke="#000" stroke-width="1" stroke-dasharray="3,3" pointer-events="none"></line><line class="visx-line" x1="0" y1="0" x2="1450" y2="0" fill="transparent" shape-rendering="crispEdges" stroke="#000" stroke-width="1" stroke-dasharray="3,3" pointer-events="none"></line></g><path class="visx-linepath" d="M0,114.99999999990416C2.4166666666666665,114.98402777772188,4.833333333333334,114.96805555553958,7.25,114.95208333333333C9.666666666666666,114.93611111112709,12.083333333333334,114.92013888888889,14.5,114.90416666666667C16.916666666666668,114.88819444444445,19.333333333333332,114.87222222222222,21.75,114.85625C24.166666666666668,114.84027777777779,26.583333333333332,114.82430555555554,29,114.80833333333332C31.416666666666668,114.7923611111111,33.833333333333336,114.77638888888889,36.25,114.76041666666667C38.666666666666664,114.74444444444445,41.083333333333336,114.72847222222222,43.5,114.7125C45.91666666666667,114.69652777777777,48.333333333333336,114.68055555555554,50.75000000000001,114.66458333333333C53.16666666666667,114.64861111111111,55.583333333333336,114.63263888888889,58,114.61666666666667C60.416666666666664,114.60069444444446,62.833333333333336,114.58472222222221,65.25,114.56875C67.66666666666667,114.55277777777778,70.08333333333333,114.53680555555555,72.5,114.52083333333333C74.91666666666667,114.50486111111111,77.33333333333333,114.48888888888888,79.75,114.47291666666666C82.16666666666667,114.45694444444445,84.58333333333333,114.44097222222221,87,114.425C89.41666666666667,114.40902777777778,91.83333333333333,114.39305555555555,94.25,114.37708333333333C96.66666666666667,114.36111111111111,99.08333333333334,114.34513888888888,101.50000000000001,114.32916666666667C103.91666666666667,114.31319444444445,106.33333333333334,114.29722222222222,108.75,114.28125C111.16666666666667,114.26527777777778,113.58333333333333,114.24930555555555,116,114.23333333333333C118.41666666666667,114.21736111111112,120.83333333333334,114.20138888888889,123.25000000000001,114.18541666666667C125.66666666666667,114.16944444444445,128.08333333333334,114.15347222222222,130.5,114.1375C132.91666666666666,114.12152777777779,135.33333333333334,114.10555555555555,137.75,114.08958333333334C140.16666666666666,114.07361111111112,142.58333333333334,114.05763888888889,145,114.04166666666667C147.41666666666666,114.02569444444445,149.83333333333334,114.00972222222221,152.25,113.99374999999999C154.66666666666666,113.97777777777777,157.08333333333334,113.96180555555556,159.5,113.94583333333334C161.91666666666666,113.92986111111112,164.33333333333334,113.91388888888889,166.75,113.89791666666667C169.16666666666666,113.88194444444446,171.58333333333334,113.86597222222221,174,113.85C176.41666666666666,113.83402777777778,178.83333333333334,113.81805555555556,181.25,113.80208333333334C183.66666666666666,113.78611111111113,186.08333333333334,113.77013888888888,188.5,113.75416666666666C190.91666666666666,113.73819444444445,193.33333333333334,113.72222222222221,195.75,113.70625C198.16666666666669,113.69027777777778,200.58333333333334,113.67430555555555,203.00000000000003,113.65833333333333C205.41666666666669,113.64236111111111,207.83333333333331,113.62638888888888,210.24999999999997,113.61041666666667C212.66666666666666,113.59444444444445,215.08333333333331,113.57847222222222,217.5,113.5625C219.91666666666666,113.54652777777778,222.33333333333334,113.53055555555555,224.75,113.51458333333333C227.16666666666666,113.49861111111112,229.58333333333334,113.48263888888889,232,113.46666666666667C234.41666666666666,113.45069444444445,236.83333333333334,113.4347222222222,239.25,113.41874999999999C241.66666666666669,113.40277777777777,244.08333333333334,113.38680555555555,246.50000000000003,113.37083333333334C248.91666666666669,113.35486111111112,251.33333333333331,113.33888888888889,253.74999999999997,113.32291666666667C256.16666666666663,113.30694444444444,258.5833333333333,113.29097222222221,261,113.27499999999999C263.4166666666667,113.25902777777777,265.8333333333333,113.24305555555556,268.25,113.22708333333334C270.6666666666667,113.21111111111112,273.0833333333333,113.19513888888888,275.5,113.17916666666666C277.9166666666667,113.16319444444444,280.3333333333333,113.14722222222223,282.75,113.13125000000001C285.1666666666667,113.11527777777779,287.5833333333333,113.09930555555555,290,113.08333333333333C292.4166666666667,113.06736111111111,294.8333333333333,113.05138888888888,297.25,113.03541666666666C299.6666666666667,113.01944444444445,302.0833333333333,113.00347222222223,304.5,112.98750000000001C306.9166666666667,112.9715277777778,309.3333333333333,112.95555555555555,311.75,112.93958333333333C314.1666666666667,112.92361111111111,316.5833333333333,112.90763888888888,319,112.89166666666667C321.4166666666667,112.87569444444445,323.8333333333333,112.85972222222222,326.25,112.84375C328.6666666666667,112.82777777777778,331.0833333333333,112.81180555555555,333.5,112.79583333333333C335.9166666666667,112.77986111111112,338.3333333333333,112.76388888888889,340.75,112.74791666666667C343.1666666666667,112.73194444444445,345.5833333333333,112.71597222222222,348,112.7C350.4166666666667,112.68402777777779,352.8333333333333,112.66805555555555,355.25,112.65208333333334C357.6666666666667,112.63611111111112,360.0833333333333,112.62013888888887,362.5,112.60416666666666C364.9166666666667,112.58819444444444,367.3333333333333,112.57222222222222,369.75,112.55625C372.1666666666667,112.54027777777779,374.5833333333333,112.52430555555556,377,112.50833333333334C379.4166666666667,112.49236111111112,381.8333333333333,112.47638888888888,384.25,112.46041666666666C386.6666666666667,112.44444444444444,389.0833333333333,112.42847222222223,391.5,112.41250000000001C393.9166666666667,112.39652777777779,396.33333333333337,112.38055555555556,398.75000000000006,112.36458333333333C401.16666666666674,112.34861111111111,403.58333333333337,112.33263888888888,406.00000000000006,112.31666666666666C408.4166666666667,112.30069444444445,410.8333333333333,112.28472222222221,413.24999999999994,112.26875C415.66666666666663,112.25277777777778,418.08333333333326,112.23680555555555,420.49999999999994,112.22083333333333C422.91666666666663,112.20486111111111,425.3333333333333,112.18888888888888,427.75,112.17291666666667C430.1666666666667,112.15694444444445,432.5833333333333,112.14097222222222,435,112.125C437.4166666666667,112.10902777777778,439.8333333333333,112.09305555555555,442.25,112.07708333333333C444.6666666666667,112.06111111111112,447.0833333333333,112.04513888888889,449.5,112.02916666666667C451.9166666666667,112.01319444444445,454.3333333333333,111.99722222222222,456.75,111.98125C459.1666666666667,111.96527777777779,461.5833333333333,111.94930555555555,464,111.93333333333334C466.4166666666667,111.91736111111112,468.8333333333333,111.90138888888889,471.25,111.88541666666667C473.6666666666667,111.86944444444445,476.0833333333333,111.85347222222222,478.5,111.8375C480.9166666666667,111.82152777777777,483.33333333333337,111.80555555555554,485.75000000000006,111.78958333333333C488.16666666666674,111.77361111111111,490.58333333333337,111.75763888888889,493.00000000000006,111.74166666666667C495.4166666666667,111.72569444444446,497.8333333333333,111.70972222222221,500.24999999999994,111.69375C502.66666666666663,111.67777777777776,505.08333333333326,111.66180555555555,507.49999999999994,111.64583333333333C509.91666666666663,111.62986111111111,512.3333333333333,111.6138888888889,514.75,111.59791666666668C517.1666666666666,111.58194444444446,519.5833333333334,111.56597222222221,522,111.55C524.4166666666666,111.53402777777778,526.8333333333334,111.51805555555555,529.25,111.50208333333333C531.6666666666666,111.48611111111111,534.0833333333334,111.47013888888888,536.5,111.45416666666667C538.9166666666666,111.43819444444445,541.3333333333334,111.42222222222222,543.75,111.40625C546.1666666666666,111.39027777777778,548.5833333333334,111.37430555555555,551,111.35833333333333C553.4166666666666,111.34236111111112,555.8333333333334,111.32638888888889,558.25,111.31041666666667C560.6666666666666,111.29444444444445,563.0833333333334,111.27847222222222,565.5,111.2625C567.9166666666666,111.24652777777779,570.3333333333334,111.23055555555554,572.75,111.21458333333332C575.1666666666666,111.1986111111111,577.5833333333334,111.18263888888889,580,111.16666666666667C582.4166666666666,111.15069444444445,584.8333333333334,111.13472222222222,587.25,111.11875C589.6666666666666,111.10277777777779,592.0833333333334,111.08680555555554,594.5,111.07083333333333C596.9166666666666,111.05486111111111,599.3333333333334,111.03888888888889,601.75,111.02291666666667C604.1666666666666,111.00694444444446,606.5833333333334,110.99097222222221,609,110.975C611.4166666666666,110.95902777777778,613.8333333333334,110.94305555555555,616.25,110.92708333333333C618.6666666666666,110.91111111111111,621.0833333333334,110.89513888888888,623.5,110.87916666666666C625.9166666666666,110.86319444444445,628.3333333333334,110.84722222222221,630.75,110.83125C633.1666666666666,110.81527777777778,635.5833333333334,110.79930555555555,638,110.78333333333333C640.4166666666666,110.76736111111111,642.8333333333334,110.75138888888888,645.25,110.73541666666667C647.6666666666666,110.71944444444445,650.0833333333334,110.70347222222222,652.5,110.6875C654.9166666666666,110.67152777777778,657.3333333333334,110.65555555555555,659.75,110.63958333333333C662.1666666666666,110.62361111111112,664.5833333333334,110.60763888888889,667,110.59166666666667C669.4166666666666,110.57569444444445,671.8333333333334,110.55972222222222,674.25,110.54375C676.6666666666666,110.52777777777779,679.0833333333334,110.51180555555555,681.5,110.49583333333334C683.9166666666666,110.47986111111112,686.3333333333334,110.46388888888889,688.75,110.44791666666667C691.1666666666666,110.43194444444445,693.5833333333334,110.41597222222221,696,110.39999999999999C698.4166666666666,110.38402777777777,700.8333333333334,110.36805555555556,703.25,110.35208333333334C705.6666666666666,110.33611111111112,708.0833333333334,110.32013888888889,710.5,110.30416666666667C712.9166666666666,110.28819444444446,715.3333333333334,110.27222222222221,717.75,110.25625C720.1666666666666,110.24027777777778,722.5833333333334,110.22430555555556,725,110.20833333333334C727.4166666666666,110.19236111111113,729.8333333333334,110.17638888888888,732.25,110.16041666666666C734.6666666666666,110.14444444444445,737.0833333333334,110.12847222222221,739.5,110.1125C741.9166666666666,110.09652777777778,744.3333333333334,110.08055555555555,746.75,110.06458333333333C749.1666666666666,110.04861111111111,751.5833333333334,110.03263888888888,754,110.01666666666667C756.4166666666666,110.00069444444445,758.8333333333334,109.98472222222222,761.25,109.96875C763.6666666666666,109.95277777777778,766.0833333333334,109.93680555555555,768.5,109.92083333333333C770.9166666666666,109.90486111111112,773.3333333333334,109.88888888888889,775.75,109.87291666666667C778.1666666666666,109.85694444444445,780.5833333333334,109.8409722222222,783,109.82499999999999C785.4166666666667,109.80902777777777,787.8333333333334,109.79305555555555,790.2500000000001,109.77708333333334C792.6666666666667,109.76111111111112,795.0833333333335,109.74513888888889,797.5000000000001,109.72916666666667C799.9166666666667,109.71319444444445,802.3333333333335,109.69722222222221,804.7500000000001,109.68124999999999C807.1666666666667,109.66527777777777,809.5833333333335,109.64930555555556,812.0000000000001,109.63333333333334C814.4166666666667,109.61736111111112,816.8333333333333,109.60138888888888,819.2499999999999,109.58541666666666C821.6666666666665,109.56944444444444,824.0833333333333,109.55347222222223,826.4999999999999,109.53750000000001C828.9166666666665,109.52152777777779,831.3333333333333,109.50555555555556,833.7499999999999,109.48958333333334C836.1666666666665,109.47361111111113,838.5833333333333,109.45763888888888,840.9999999999999,109.44166666666666C843.4166666666666,109.42569444444445,845.8333333333333,109.40972222222223,848.25,109.39375000000001C850.6666666666666,109.3777777777778,853.0833333333334,109.36180555555555,855.5,109.34583333333333C857.9166666666666,109.32986111111111,860.3333333333334,109.31388888888888,862.75,109.29791666666667C865.1666666666666,109.28194444444445,867.5833333333334,109.26597222222222,870,109.25C872.4166666666666,109.23402777777778,874.8333333333334,109.21805555555555,877.25,109.20208333333333C879.6666666666666,109.18611111111112,882.0833333333334,109.17013888888889,884.5,109.15416666666667C886.9166666666666,109.13819444444445,889.3333333333334,109.12222222222222,891.75,109.10625C894.1666666666666,109.09027777777779,896.5833333333334,109.07430555555555,899,109.05833333333334C901.4166666666666,109.04236111111112,903.8333333333334,109.02638888888887,906.25,109.01041666666666C908.6666666666666,108.99444444444444,911.0833333333334,108.97847222222222,913.5,108.9625C915.9166666666666,108.94652777777779,918.3333333333334,108.93055555555554,920.75,108.91458333333333C923.1666666666666,108.89861111111111,925.5833333333334,108.88263888888888,928,108.86666666666666C930.4166666666666,108.85069444444444,932.8333333333334,108.83472222222223,935.25,108.81875000000001C937.6666666666666,108.80277777777779,940.0833333333334,108.78680555555555,942.5,108.77083333333333C944.9166666666666,108.75486111111111,947.3333333333334,108.73888888888888,949.75,108.72291666666666C952.1666666666666,108.70694444444445,954.5833333333334,108.69097222222223,957,108.67500000000001C959.4166666666666,108.6590277777778,961.8333333333334,108.64305555555555,964.25,108.62708333333333C966.6666666666667,108.6111111111111,969.0833333333334,108.59513888888888,971.5000000000001,108.57916666666667C973.9166666666667,108.56319444444445,976.3333333333335,108.54722222222222,978.7500000000001,108.53125C981.1666666666667,108.51527777777778,983.5833333333335,108.49930555555555,986.0000000000001,108.48333333333333C988.4166666666667,108.46736111111112,990.8333333333335,108.45138888888889,993.2500000000001,108.43541666666667C995.6666666666667,108.41944444444445,998.0833333333333,108.40347222222222,1000.4999999999999,108.3875C1002.9166666666665,108.37152777777779,1005.3333333333333,108.35555555555555,1007.7499999999999,108.33958333333334C1010.1666666666665,108.32361111111112,1012.5833333333333,108.30763888888889,1014.9999999999999,108.29166666666667C1017.4166666666665,108.27569444444445,1019.8333333333333,108.25972222222222,1022.2499999999999,108.24375C1024.6666666666665,108.22777777777777,1027.0833333333333,108.21180555555554,1029.5,108.19583333333333C1031.9166666666667,108.17986111111111,1034.3333333333333,108.16388888888889,1036.75,108.14791666666667C1039.1666666666667,108.13194444444446,1041.5833333333333,108.11597222222221,1044,108.1C1046.4166666666667,108.08402777777778,1048.8333333333333,108.06805555555555,1051.25,108.05208333333333C1053.6666666666667,108.03611111111111,1056.0833333333333,108.0201388888889,1058.5,108.00416666666668C1060.9166666666667,107.98819444444446,1063.3333333333333,107.97222222222221,1065.75,107.95625C1068.1666666666667,107.94027777777778,1070.5833333333333,107.92430555555555,1073,107.90833333333333C1075.4166666666667,107.89236111111111,1077.8333333333333,107.87638888888888,1080.25,107.86041666666667C1082.6666666666667,107.84444444444445,1085.0833333333333,107.82847222222222,1087.5,107.8125C1089.9166666666667,107.79652777777778,1092.3333333333333,107.78055555555555,1094.75,107.76458333333333C1097.1666666666667,107.74861111111112,1099.5833333333333,107.73263888888889,1102,107.71666666666667C1104.4166666666667,107.70069444444445,1106.8333333333333,107.68472222222222,1109.25,107.66875C1111.6666666666667,107.65277777777779,1114.0833333333333,107.63680555555554,1116.5,107.62083333333332C1118.9166666666667,107.6048611111111,1121.3333333333333,107.58888888888889,1123.75,107.57291666666667C1126.1666666666667,107.55694444444445,1128.5833333333333,107.54097222222222,1131,107.525C1133.4166666666667,107.50902777777779,1135.8333333333333,107.49305555555554,1138.25,107.47708333333333C1140.6666666666667,107.46111111111111,1143.0833333333333,107.44513888888889,1145.5,107.42916666666667C1147.9166666666667,107.41319444444446,1150.3333333333333,107.39722222222221,1152.75,107.38125C1155.1666666666667,107.36527777777778,1157.5833333333333,107.34930555555555,1160,107.33333333333333C1162.4166666666667,107.31736111111111,1164.8333333333333,107.30138888888888,1167.25,107.28541666666666C1169.6666666666667,107.26944444444445,1172.0833333333333,107.25347222222221,1174.5,107.2375C1176.9166666666667,107.22152777777778,1179.3333333333333,107.20555555555555,1181.75,107.18958333333333C1184.1666666666667,107.17361111111111,1186.5833333333333,107.15763888888888,1189,107.14166666666667C1191.4166666666667,107.12569444444445,1193.8333333333333,107.10972222222222,1196.25,107.09375C1198.6666666666667,107.07777777777778,1201.0833333333333,107.06180555555555,1203.5,107.04583333333333C1205.9166666666667,107.02986111111112,1208.3333333333333,107.01388888888889,1210.75,106.99791666666667C1213.1666666666667,106.98194444444445,1215.5833333333333,106.9659722222222,1218,106.94999999999999C1220.4166666666667,106.93402777777777,1222.8333333333333,106.91805555555555,1225.25,106.90208333333334C1227.6666666666667,106.88611111111112,1230.0833333333333,106.87013888888889,1232.5,106.85416666666667C1234.9166666666667,106.83819444444445,1237.3333333333333,106.82222222222221,1239.75,106.80624999999999C1242.1666666666667,106.79027777777777,1244.5833333333333,106.77430555555556,1247,106.75833333333334C1249.4166666666667,106.74236111111112,1251.8333333333333,106.72638888888889,1254.25,106.71041666666667C1256.6666666666667,106.69444444444446,1259.0833333333333,106.67847222222221,1261.5,106.6625C1263.9166666666667,106.64652777777778,1266.3333333333333,106.63055555555556,1268.75,106.61458333333334C1271.1666666666667,106.59861111111113,1273.5833333333333,106.58263888888888,1276,106.56666666666666C1278.4166666666667,106.55069444444445,1280.8333333333333,106.53472222222221,1283.25,106.51875C1285.6666666666667,106.50277777777778,1288.0833333333333,106.48680555555555,1290.5,106.47083333333333C1292.9166666666667,106.45486111111111,1295.3333333333333,106.43888888888888,1297.75,106.42291666666667C1300.1666666666667,106.40694444444445,1302.5833333333333,106.40694444444445,1305,106.375C1307.4166666666667,106.34305555555555,1309.8333333333333,103.5,1312.25,102.0625C1314.6666666666667,100.625,1317.0833333333333,99.1875,1319.5,97.75C1321.9166666666667,96.3125,1324.3333333333333,94.875,1326.75,93.4375C1329.1666666666667,92,1331.5833333333333,90.5625,1334,89.125C1336.4166666666667,87.6875,1338.8333333333333,86.25,1341.25,84.8125C1343.6666666666667,83.375,1346.0833333333333,81.9375,1348.5,80.5C1350.9166666666667,79.0625,1353.3333333333333,77.625,1355.75,76.1875C1358.1666666666667,74.75,1360.5833333333333,73.3125,1363,71.875C1365.4166666666667,70.4375,1367.8333333333333,69,1370.25,67.5625C1372.6666666666667,66.125,1375.0833333333333,64.68750000000001,1377.5,63.25000000000001C1379.9166666666667,61.81250000000001,1382.3333333333333,60.37499999999999,1384.75,58.93749999999999C1387.1666666666667,57.49999999999999,1389.5833333333333,56.0625,1392,54.625C1394.4166666666667,53.1875,1396.8333333333333,51.75,1399.25,50.3125C1401.6666666666667,48.875,1404.0833333333333,47.4375,1406.5,46C1408.9166666666667,44.5625,1411.3333333333333,43.12500000000001,1413.75,41.68750000000001C1416.1666666666667,40.25000000000001,1418.5833333333333,38.81249999999999,1421,37.37499999999999C1423.4166666666667,35.93749999999999,1425.8333333333333,34.50000000000001,1428.25,33.06250000000001C1430.6666666666667,31.625000000000007,1433.0833333333333,30.1875,1435.5,28.75C1437.9166666666667,27.3125,1440.3333333333333,25.875000000000004,1442.75,24.437500000000004C1445.1666666666667,23.000000000000004,1447.5833333333333,21.562500000000004,1450,20.125000000000004" fill="transparent" stroke-linecap="round" stroke="#B6509E" stroke-width="2"></path><path class="visx-linepath" d="M0,104.93749999999201C2.4166666666666665,104.93616898147683,4.833333333333334,104.93483796296164,7.25,104.93350694444445C9.666666666666666,104.93217592592725,12.083333333333334,104.9308449074074,14.5,104.92951388888889C16.916666666666668,104.92818287037038,19.333333333333332,104.92685185185184,21.75,104.92552083333332C24.166666666666668,104.92418981481481,26.583333333333332,104.92285879629628,29,104.92152777777777C31.416666666666668,104.92019675925926,33.833333333333336,104.91886574074073,36.25,104.91753472222221C38.666666666666664,104.9162037037037,41.083333333333336,104.91487268518519,43.5,104.91354166666667C45.91666666666667,104.91221064814816,48.333333333333336,104.91087962962962,50.75000000000001,104.9095486111111C53.16666666666667,104.90821759259259,55.583333333333336,104.90688657407408,58,104.90555555555557C60.416666666666664,104.90422453703705,62.833333333333336,104.90289351851852,65.25,104.90156250000001C67.66666666666667,104.9002314814815,70.08333333333333,104.89890046296296,72.5,104.89756944444444C74.91666666666667,104.89623842592593,77.33333333333333,104.8949074074074,79.75,104.89357638888889C82.16666666666667,104.89224537037038,84.58333333333333,104.89091435185185,87,104.88958333333333C89.41666666666667,104.88825231481482,91.83333333333333,104.8869212962963,94.25,104.88559027777778C96.66666666666667,104.88425925925927,99.08333333333334,104.88292824074074,101.50000000000001,104.88159722222223C103.91666666666667,104.88026620370371,106.33333333333334,104.87893518518518,108.75,104.87760416666667C111.16666666666667,104.87627314814816,113.58333333333333,104.87494212962963,116,104.87361111111112C118.41666666666667,104.87228009259259,120.83333333333334,104.87094907407408,123.25000000000001,104.86961805555555C125.66666666666667,104.86828703703704,128.08333333333334,104.86695601851851,130.5,104.865625C132.91666666666666,104.86429398148148,135.33333333333334,104.86296296296295,137.75,104.86163194444444C140.16666666666666,104.86030092592593,142.58333333333334,104.8589699074074,145,104.85763888888889C147.41666666666666,104.85630787037037,149.83333333333334,104.85497685185184,152.25,104.85364583333333C154.66666666666666,104.85231481481482,157.08333333333334,104.85098379629629,159.5,104.84965277777778C161.91666666666666,104.84832175925926,164.33333333333334,104.84699074074074,166.75,104.84565972222222C169.16666666666666,104.84432870370371,171.58333333333334,104.84299768518518,174,104.84166666666667C176.41666666666666,104.84033564814816,178.83333333333334,104.83900462962961,181.25,104.8376736111111C183.66666666666666,104.83634259259259,186.08333333333334,104.83501157407406,188.5,104.83368055555555C190.91666666666666,104.83234953703703,193.33333333333334,104.83101851851852,195.75,104.8296875C198.16666666666669,104.82835648148149,200.58333333333334,104.82702546296296,203.00000000000003,104.82569444444445C205.41666666666669,104.82436342592594,207.83333333333331,104.82303240740741,210.24999999999997,104.8217013888889C212.66666666666666,104.82037037037038,215.08333333333331,104.81903935185186,217.5,104.81770833333334C219.91666666666666,104.81637731481483,222.33333333333334,104.8150462962963,224.75,104.81371527777779C227.16666666666666,104.81238425925928,229.58333333333334,104.81105324074073,232,104.80972222222222C234.41666666666666,104.8083912037037,236.83333333333334,104.80706018518518,239.25,104.80572916666667C241.66666666666669,104.80439814814815,244.08333333333334,104.80306712962962,246.50000000000003,104.80173611111111C248.91666666666669,104.8004050925926,251.33333333333331,104.79907407407407,253.74999999999997,104.79774305555556C256.16666666666663,104.79641203703704,258.5833333333333,104.79508101851852,261,104.79375C263.4166666666667,104.79241898148149,265.8333333333333,104.79108796296296,268.25,104.78975694444445C270.6666666666667,104.78842592592594,273.0833333333333,104.78709490740741,275.5,104.7857638888889C277.9166666666667,104.78443287037038,280.3333333333333,104.78310185185184,282.75,104.78177083333333C285.1666666666667,104.78043981481481,287.5833333333333,104.77910879629628,290,104.77777777777777C292.4166666666667,104.77644675925926,294.8333333333333,104.77511574074073,297.25,104.77378472222222C299.6666666666667,104.7724537037037,302.0833333333333,104.77112268518518,304.5,104.76979166666666C306.9166666666667,104.76846064814815,309.3333333333333,104.76712962962962,311.75,104.76579861111111C314.1666666666667,104.7644675925926,316.5833333333333,104.76313657407407,319,104.76180555555555C321.4166666666667,104.76047453703704,323.8333333333333,104.75914351851851,326.25,104.7578125C328.6666666666667,104.75648148148149,331.0833333333333,104.75515046296296,333.5,104.75381944444445C335.9166666666667,104.75248842592593,338.3333333333333,104.75115740740739,340.75,104.74982638888888C343.1666666666667,104.74849537037036,345.5833333333333,104.74716435185185,348,104.74583333333334C350.4166666666667,104.74450231481482,352.8333333333333,104.7431712962963,355.25,104.74184027777778C357.6666666666667,104.74050925925927,360.0833333333333,104.73917824074074,362.5,104.73784722222223C364.9166666666667,104.73651620370372,367.3333333333333,104.73518518518519,369.75,104.73385416666667C372.1666666666667,104.73252314814816,374.5833333333333,104.73119212962963,377,104.72986111111112C379.4166666666667,104.7285300925926,381.8333333333333,104.72719907407406,384.25,104.72586805555555C386.6666666666667,104.72453703703704,389.0833333333333,104.72320601851851,391.5,104.721875C393.9166666666667,104.72054398148148,396.33333333333337,104.71921296296296,398.75000000000006,104.71788194444444C401.16666666666674,104.71655092592593,403.58333333333337,104.7152199074074,406.00000000000006,104.71388888888889C408.4166666666667,104.71255787037038,410.8333333333333,104.71122685185185,413.24999999999994,104.70989583333333C415.66666666666663,104.70856481481482,418.08333333333326,104.7072337962963,420.49999999999994,104.70590277777778C422.91666666666663,104.70457175925927,425.3333333333333,104.70324074074074,427.75,104.70190972222223C430.1666666666667,104.70057870370371,432.5833333333333,104.69924768518518,435,104.69791666666667C437.4166666666667,104.69658564814816,439.8333333333333,104.69525462962962,442.25,104.6939236111111C444.6666666666667,104.69259259259259,447.0833333333333,104.69126157407406,449.5,104.68993055555555C451.9166666666667,104.68859953703704,454.3333333333333,104.68726851851851,456.75,104.6859375C459.1666666666667,104.68460648148148,461.5833333333333,104.68327546296295,464,104.68194444444444C466.4166666666667,104.68061342592593,468.8333333333333,104.6792824074074,471.25,104.67795138888889C473.6666666666667,104.67662037037037,476.0833333333333,104.67528935185184,478.5,104.67395833333333C480.9166666666667,104.67262731481482,483.33333333333337,104.67129629629632,485.75000000000006,104.66996527777779C488.16666666666674,104.66863425925928,490.58333333333337,104.66730324074074,493.00000000000006,104.66597222222221C495.4166666666667,104.6646412037037,497.8333333333333,104.66331018518518,500.24999999999994,104.66197916666667C502.66666666666663,104.66064814814816,505.08333333333326,104.65931712962963,507.49999999999994,104.65798611111111C509.91666666666663,104.6566550925926,512.3333333333333,104.65532407407407,514.75,104.65399305555556C517.1666666666666,104.65266203703705,519.5833333333334,104.65133101851852,522,104.65C524.4166666666666,104.64866898148149,526.8333333333334,104.64733796296296,529.25,104.64600694444445C531.6666666666666,104.64467592592594,534.0833333333334,104.64334490740741,536.5,104.6420138888889C538.9166666666666,104.64068287037038,541.3333333333334,104.63935185185184,543.75,104.63802083333333C546.1666666666666,104.63668981481482,548.5833333333334,104.63535879629629,551,104.63402777777777C553.4166666666666,104.63269675925926,555.8333333333334,104.63136574074073,558.25,104.63003472222222C560.6666666666666,104.6287037037037,563.0833333333334,104.62737268518518,565.5,104.62604166666667C567.9166666666666,104.62471064814815,570.3333333333334,104.62337962962962,572.75,104.62204861111111C575.1666666666666,104.6207175925926,577.5833333333334,104.61938657407407,580,104.61805555555556C582.4166666666666,104.61672453703704,584.8333333333334,104.61539351851852,587.25,104.6140625C589.6666666666666,104.61273148148149,592.0833333333334,104.61140046296296,594.5,104.61006944444445C596.9166666666666,104.60873842592594,599.3333333333334,104.6074074074074,601.75,104.60607638888888C604.1666666666666,104.60474537037037,606.5833333333334,104.60341435185184,609,104.60208333333333C611.4166666666666,104.60075231481481,613.8333333333334,104.59942129629628,616.25,104.59809027777777C618.6666666666666,104.59675925925926,621.0833333333334,104.59542824074073,623.5,104.59409722222222C625.9166666666666,104.5927662037037,628.3333333333334,104.59143518518518,630.75,104.59010416666666C633.1666666666666,104.58877314814815,635.5833333333334,104.58744212962962,638,104.58611111111111C640.4166666666666,104.5847800925926,642.8333333333334,104.58344907407407,645.25,104.58211805555555C647.6666666666666,104.58078703703704,650.0833333333334,104.57945601851851,652.5,104.578125C654.9166666666666,104.57679398148149,657.3333333333334,104.57546296296296,659.75,104.57413194444445C662.1666666666666,104.57280092592593,664.5833333333334,104.5714699074074,667,104.57013888888889C669.4166666666666,104.56880787037038,671.8333333333334,104.56747685185185,674.25,104.56614583333334C676.6666666666666,104.56481481481482,679.0833333333334,104.5634837962963,681.5,104.56215277777778C683.9166666666666,104.56082175925927,686.3333333333334,104.55949074074074,688.75,104.55815972222223C691.1666666666666,104.55682870370372,693.5833333333334,104.55549768518519,696,104.55416666666667C698.4166666666666,104.55283564814816,700.8333333333334,104.55150462962962,703.25,104.5501736111111C705.6666666666666,104.54884259259259,708.0833333333334,104.54751157407406,710.5,104.54618055555555C712.9166666666666,104.54484953703704,715.3333333333334,104.54351851851851,717.75,104.5421875C720.1666666666666,104.54085648148148,722.5833333333334,104.53952546296296,725,104.53819444444444C727.4166666666666,104.53686342592593,729.8333333333334,104.5355324074074,732.25,104.53420138888889C734.6666666666666,104.53287037037038,737.0833333333334,104.53153935185185,739.5,104.53020833333333C741.9166666666666,104.52887731481482,744.3333333333334,104.5275462962963,746.75,104.52621527777778C749.1666666666666,104.52488425925927,751.5833333333334,104.52355324074072,754,104.52222222222221C756.4166666666666,104.5208912037037,758.8333333333334,104.51956018518517,761.25,104.51822916666666C763.6666666666666,104.51689814814814,766.0833333333334,104.51556712962962,768.5,104.5142361111111C770.9166666666666,104.51290509259259,773.3333333333334,104.51157407407408,775.75,104.51024305555556C778.1666666666666,104.50891203703705,780.5833333333334,104.50758101851851,783,104.50625C785.4166666666667,104.50491898148148,787.8333333333334,104.50358796296297,790.2500000000001,104.50225694444445C792.6666666666667,104.50092592592594,795.0833333333335,104.49959490740741,797.5000000000001,104.4982638888889C799.9166666666667,104.49693287037039,802.3333333333335,104.49560185185184,804.7500000000001,104.49427083333333C807.1666666666667,104.49293981481482,809.5833333333335,104.49160879629629,812.0000000000001,104.49027777777778C814.4166666666667,104.48894675925926,816.8333333333333,104.48761574074074,819.2499999999999,104.48628472222222C821.6666666666665,104.48495370370371,824.0833333333333,104.48362268518518,826.4999999999999,104.48229166666667C828.9166666666665,104.48096064814816,831.3333333333333,104.47962962962963,833.7499999999999,104.47829861111111C836.1666666666665,104.4769675925926,838.5833333333333,104.47563657407407,840.9999999999999,104.47430555555556C843.4166666666666,104.47297453703705,845.8333333333333,104.47164351851852,848.25,104.4703125C850.6666666666666,104.46898148148149,853.0833333333334,104.46765046296296,855.5,104.46631944444445C857.9166666666666,104.46498842592594,860.3333333333334,104.4636574074074,862.75,104.46232638888888C865.1666666666666,104.46099537037037,867.5833333333334,104.45966435185184,870,104.45833333333333C872.4166666666666,104.45700231481482,874.8333333333334,104.45567129629629,877.25,104.45434027777777C879.6666666666666,104.45300925925926,882.0833333333334,104.45167824074073,884.5,104.45034722222222C886.9166666666666,104.4490162037037,889.3333333333334,104.44768518518518,891.75,104.44635416666667C894.1666666666666,104.44502314814815,896.5833333333334,104.44369212962962,899,104.44236111111111C901.4166666666666,104.4410300925926,903.8333333333334,104.43969907407407,906.25,104.43836805555556C908.6666666666666,104.43703703703704,911.0833333333334,104.4357060185185,913.5,104.43437499999999C915.9166666666666,104.43304398148148,918.3333333333334,104.43171296296295,920.75,104.43038194444443C923.1666666666666,104.42905092592592,925.5833333333334,104.42771990740741,928,104.4263888888889C930.4166666666666,104.42505787037038,932.8333333333334,104.42372685185184,935.25,104.42239583333333C937.6666666666666,104.42106481481481,940.0833333333334,104.4197337962963,942.5,104.41840277777779C944.9166666666666,104.41707175925927,947.3333333333334,104.41574074074074,949.75,104.41440972222223C952.1666666666666,104.41307870370372,954.5833333333334,104.41174768518519,957,104.41041666666668C959.4166666666666,104.40908564814816,961.8333333333334,104.40775462962962,964.25,104.40642361111111C966.6666666666667,104.40509259259258,969.0833333333334,104.40376157407407,971.5000000000001,104.40243055555555C973.9166666666667,104.40109953703704,976.3333333333335,104.39976851851851,978.7500000000001,104.3984375C981.1666666666667,104.39710648148149,983.5833333333335,104.39577546296296,986.0000000000001,104.39444444444445C988.4166666666667,104.39311342592593,990.8333333333335,104.3917824074074,993.2500000000001,104.39045138888889C995.6666666666667,104.38912037037038,998.0833333333333,104.38778935185185,1000.4999999999999,104.38645833333334C1002.9166666666665,104.38512731481482,1005.3333333333333,104.3837962962963,1007.7499999999999,104.38246527777778C1010.1666666666665,104.38113425925927,1012.5833333333333,104.37980324074074,1014.9999999999999,104.37847222222223C1017.4166666666665,104.37714120370372,1019.8333333333333,104.37581018518517,1022.2499999999999,104.37447916666666C1024.6666666666665,104.37314814814813,1027.0833333333333,104.37181712962962,1029.5,104.3704861111111C1031.9166666666667,104.36915509259259,1034.3333333333333,104.36782407407406,1036.75,104.36649305555555C1039.1666666666667,104.36516203703704,1041.5833333333333,104.36383101851851,1044,104.3625C1046.4166666666667,104.36116898148148,1048.8333333333333,104.35983796296296,1051.25,104.35850694444444C1053.6666666666667,104.35717592592593,1056.0833333333333,104.3558449074074,1058.5,104.35451388888889C1060.9166666666667,104.35318287037038,1063.3333333333333,104.35185185185185,1065.75,104.35052083333333C1068.1666666666667,104.34918981481482,1070.5833333333333,104.34785879629628,1073,104.34652777777777C1075.4166666666667,104.34519675925925,1077.8333333333333,104.34386574074072,1080.25,104.34253472222221C1082.6666666666667,104.3412037037037,1085.0833333333333,104.33987268518517,1087.5,104.33854166666666C1089.9166666666667,104.33721064814814,1092.3333333333333,104.33587962962963,1094.75,104.33454861111112C1097.1666666666667,104.3332175925926,1099.5833333333333,104.33188657407408,1102,104.33055555555556C1104.4166666666667,104.32922453703705,1106.8333333333333,104.32789351851852,1109.25,104.32656250000001C1111.6666666666667,104.3252314814815,1114.0833333333333,104.32390046296297,1116.5,104.32256944444445C1118.9166666666667,104.32123842592594,1121.3333333333333,104.3199074074074,1123.75,104.31857638888889C1126.1666666666667,104.31724537037037,1128.5833333333333,104.31591435185184,1131,104.31458333333333C1133.4166666666667,104.31325231481482,1135.8333333333333,104.31192129629629,1138.25,104.31059027777778C1140.6666666666667,104.30925925925926,1143.0833333333333,104.30792824074074,1145.5,104.30659722222222C1147.9166666666667,104.30526620370371,1150.3333333333333,104.30393518518518,1152.75,104.30260416666667C1155.1666666666667,104.30127314814816,1157.5833333333333,104.29994212962963,1160,104.29861111111111C1162.4166666666667,104.2972800925926,1164.8333333333333,104.29594907407407,1167.25,104.29461805555556C1169.6666666666667,104.29328703703705,1172.0833333333333,104.2919560185185,1174.5,104.29062499999999C1176.9166666666667,104.28929398148148,1179.3333333333333,104.28796296296295,1181.75,104.28663194444444C1184.1666666666667,104.28530092592592,1186.5833333333333,104.2839699074074,1189,104.28263888888888C1191.4166666666667,104.28130787037037,1193.8333333333333,104.27997685185184,1196.25,104.27864583333333C1198.6666666666667,104.27731481481482,1201.0833333333333,104.27598379629629,1203.5,104.27465277777777C1205.9166666666667,104.27332175925926,1208.3333333333333,104.27199074074073,1210.75,104.27065972222222C1213.1666666666667,104.2693287037037,1215.5833333333333,104.26799768518518,1218,104.26666666666667C1220.4166666666667,104.26533564814815,1222.8333333333333,104.26400462962962,1225.25,104.26267361111111C1227.6666666666667,104.2613425925926,1230.0833333333333,104.26001157407407,1232.5,104.25868055555556C1234.9166666666667,104.25734953703704,1237.3333333333333,104.25601851851852,1239.75,104.2546875C1242.1666666666667,104.25335648148149,1244.5833333333333,104.25202546296296,1247,104.25069444444445C1249.4166666666667,104.24936342592594,1251.8333333333333,104.24803240740741,1254.25,104.2467013888889C1256.6666666666667,104.24537037037038,1259.0833333333333,104.24403935185185,1261.5,104.24270833333334C1263.9166666666667,104.24137731481483,1266.3333333333333,104.2400462962963,1268.75,104.23871527777779C1271.1666666666667,104.23738425925927,1273.5833333333333,104.23605324074074,1276,104.23472222222223C1278.4166666666667,104.23339120370372,1280.8333333333333,104.23206018518518,1283.25,104.23072916666666C1285.6666666666667,104.22939814814815,1288.0833333333333,104.22806712962962,1290.5,104.22673611111111C1292.9166666666667,104.2254050925926,1295.3333333333333,104.22407407407407,1297.75,104.22274305555555C1300.1666666666667,104.22141203703704,1302.5833333333333,104.22141203703704,1305,104.21875C1307.4166666666667,104.21608796296296,1309.8333333333333,101.34375,1312.25,99.90625C1314.6666666666667,98.46875,1317.0833333333333,97.03125,1319.5,95.59375C1321.9166666666667,94.15625,1324.3333333333333,92.71875,1326.75,91.28125C1329.1666666666667,89.84375,1331.5833333333333,88.40625,1334,86.96875C1336.4166666666667,85.53125,1338.8333333333333,84.09375,1341.25,82.65625C1343.6666666666667,81.21875,1346.0833333333333,79.78125,1348.5,78.34375C1350.9166666666667,76.90625,1353.3333333333333,75.46875,1355.75,74.03125C1358.1666666666667,72.59375,1360.5833333333333,71.15625,1363,69.71875C1365.4166666666667,68.28125,1367.8333333333333,66.84375,1370.25,65.40625C1372.6666666666667,63.96875,1375.0833333333333,62.53125,1377.5,61.09375C1379.9166666666667,59.65625,1382.3333333333333,58.21875,1384.75,56.78125C1387.1666666666667,55.34375,1389.5833333333333,53.90625000000001,1392,52.46875000000001C1394.4166666666667,51.03125000000001,1396.8333333333333,49.59374999999999,1399.25,48.15624999999999C1401.6666666666667,46.71874999999999,1404.0833333333333,45.28125,1406.5,43.84375C1408.9166666666667,42.40625,1411.3333333333333,40.96875,1413.75,39.53125C1416.1666666666667,38.09375,1418.5833333333333,36.65624999999999,1421,35.21874999999999C1423.4166666666667,33.78124999999999,1425.8333333333333,32.34375,1428.25,30.906250000000004C1430.6666666666667,29.468750000000004,1433.0833333333333,28.031249999999996,1435.5,26.593749999999996C1437.9166666666667,25.156249999999996,1440.3333333333333,23.718749999999996,1442.75,22.281249999999996C1445.1666666666667,20.843749999999996,1447.5833333333333,19.40625,1450,17.96875" fill="transparent" stroke-linecap="round" stroke="#E7C6DF" stroke-width="2"></path><g class="visx-group visx-axis visx-axis-bottom" transform="translate(0, 115)"><g class="visx-group visx-axis-tick" transform="translate(0, 0)"><line class="visx-line" x1="0" y1="0" x2="0" y2="8" fill="transparent" shape-rendering="crispEdges" stroke="#000" stroke-width="0" stroke-linecap="square"></line><svg x="0" y="0" font-size="10" style="overflow:visible"><text transform="" x="0" y="18" fill="#000" font-size="10" text-anchor="middle"><tspan x="0" dy="0em">0%</tspan></text></svg></g><g class="visx-group visx-axis-tick" transform="translate(0, 0)"><line class="visx-line" x1="362.5" y1="0" x2="362.5" y2="8" fill="transparent" shape-rendering="crispEdges" stroke="#000" stroke-width="0" stroke-linecap="square"></line><svg x="0" y="0" font-size="10" style="overflow:visible"><text transform="" x="362.5" y="18" fill="#000" font-size="10" text-anchor="middle"><tspan x="362.5" dy="0em">25%</tspan></text></svg></g><g class="visx-group visx-axis-tick" transform="translate(0, 0)"><line class="visx-line" x1="725" y1="0" x2="725" y2="8" fill="transparent" shape-rendering="crispEdges" stroke="#000" stroke-width="0" stroke-linecap="square"></line><svg x="0" y="0" font-size="10" style="overflow:visible"><text transform="" x="725" y="18" fill="#000" font-size="10" text-anchor="middle"><tspan x="725" dy="0em">50%</tspan></text></svg></g><g class="visx-group visx-axis-tick" transform="translate(0, 0)"><line class="visx-line" x1="1087.5" y1="0" x2="1087.5" y2="8" fill="transparent" shape-rendering="crispEdges" stroke="#000" stroke-width="0" stroke-linecap="square"></line><svg x="0" y="0" font-size="10" style="overflow:visible"><text transform="" x="1087.5" y="18" fill="#000" font-size="10" text-anchor="middle"><tspan x="1087.5" dy="0em">75%</tspan></text></svg></g><g class="visx-group visx-axis-tick" transform="translate(0, 0)"><line class="visx-line" x1="1450" y1="0" x2="1450" y2="8" fill="transparent" shape-rendering="crispEdges" stroke="#000" stroke-width="0" stroke-linecap="square"></line><svg x="0" y="0" font-size="10" style="overflow:visible"><text transform="" x="1450" y="18" fill="#000" font-size="10" text-anchor="middle"><tspan x="1450" dy="0em">100%</tspan></text></svg></g><line class="visx-line visx-axis-line" x1="0.5" y1="0" x2="1450.5" y2="0" fill="transparent" shape-rendering="crispEdges" stroke="#222" stroke-width="0"></line></g><g class="visx-group visx-axis visx-axis-left" transform="translate(0, 0)"><g class="visx-group visx-axis-tick" transform="translate(0, 0)"><line class="visx-line" x1="0" y1="115" x2="-8" y2="115" fill="transparent" shape-rendering="crispEdges" stroke="#222" stroke-width="0" stroke-linecap="square"></line><svg x="-30" y="0" font-size="8" style="overflow:visible"><text transform="" x="-8" y="115" fill="#000" font-size="8" text-anchor="start"><tspan x="-8" dy="0em">0%</tspan></text></svg></g><g class="visx-group visx-axis-tick" transform="translate(0, 0)"><line class="visx-line" x1="0" y1="43.125" x2="-8" y2="43.125" fill="transparent" shape-rendering="crispEdges" stroke="#222" stroke-width="0" stroke-linecap="square"></line><svg x="-30" y="0" font-size="8" style="overflow:visible"><text transform="" x="-8" y="43.125" fill="#000" font-size="8" text-anchor="start"><tspan x="-8" dy="0em">50%</tspan></text></svg></g><line class="visx-line visx-axis-line" x1="0" y1="115.5" x2="0" y2="0.5" fill="transparent" shape-rendering="crispEdges" stroke="#222" stroke-width="0"></line></g><rect class="visx-bar" width="1450" height="115" fill="transparent"></rect><line class="visx-line" x1="1305" y1="28" x2="1305" y2="115" fill="transparent" shape-rendering="crispEdges" stroke="#0062D2" stroke-width="1" pointer-events="none" stroke-dasharray="5,2"></line><svg x="0" y="0" font-size="10px" style="overflow:visible"><text transform="" x="1305" y="20" font-size="10px" fill="#fff" stroke="#fff" stroke-width="0.8em" text-anchor="middle"><tspan x="1305" dy="0.355em">Optimal 90%</tspan></text></svg><svg x="0" y="0" font-size="10px" style="overflow:visible"><text transform="" x="1305" y="20" font-size="10px" fill="#62677B" text-anchor="middle"><tspan x="1305" dy="0.355em">Optimal 90%</tspan></text></svg></g></svg>