<?xml version="1.0"?><svg xmlns="http://www.w3.org/2000/svg" xmlns:xlink= "http://www.w3.org/1999/xlink" style="background: white;" width="1500" height="185"> <g style="color: black; font-size: 13px; font-family: sans-serif; transform: translate(18px, 25px);"><g><circle r="3" cx="-6" cy="-5" style="fill: #B6509E" /><text>Borrow APR, variable</text></g><g style="transform: translateX(150px);"><circle r="3" cx="-6" cy="-5" style="fill: rgb(231, 198, 223)" /><text>Borrow APR, stable</text></g><g style="transform: translateX(290px);"><circle r="3" cx="-6" cy="-5" style="fill: rgb(0, 98, 210)" /><text>Utilization Rate</text></g></g><g class="visx-group" transform="translate(40, 50)"><g class="visx-group visx-rows" transform="translate(0, 0)"><line class="visx-line" x1="0" y1="115" x2="1450" y2="115" fill="transparent" shape-rendering="crispEdges" stroke="#000" stroke-width="1" stroke-dasharray="3,3" pointer-events="none"></line><line class="visx-line" x1="0" y1="57.5" x2="1450" y2="57.5" fill="transparent" shape-rendering="crispEdges" stroke="#000" stroke-width="1" stroke-dasharray="3,3" pointer-events="none"></line><line class="visx-line" x1="0" y1="0" x2="1450" y2="0" fill="transparent" shape-rendering="crispEdges" stroke="#000" stroke-width="1" stroke-dasharray="3,3" pointer-events="none"></line></g><path class="visx-linepath" d="M0,110.39999999985625C2.4166666666666665,110.37604166658281,4.833333333333334,110.35208333330938,7.25,110.328125C9.666666666666666,110.30416666669062,12.083333333333334,110.28020833333332,14.5,110.25625C16.916666666666668,110.23229166666667,19.333333333333332,110.20833333333334,21.75,110.184375C24.166666666666668,110.16041666666666,26.583333333333332,110.13645833333334,29,110.1125C31.416666666666668,110.08854166666666,33.833333333333336,110.06458333333333,36.25,110.040625C38.666666666666664,110.01666666666668,41.083333333333336,109.99270833333334,43.5,109.96875C45.91666666666667,109.94479166666666,48.333333333333336,109.92083333333333,50.75000000000001,109.896875C53.16666666666667,109.87291666666665,55.583333333333336,109.84895833333331,58,109.82499999999999C60.416666666666664,109.80104166666665,62.833333333333336,109.77708333333334,65.25,109.753125C67.66666666666667,109.72916666666666,70.08333333333333,109.70520833333333,72.5,109.68124999999999C74.91666666666667,109.65729166666665,77.33333333333333,109.63333333333333,79.75,109.609375C82.16666666666667,109.58541666666667,84.58333333333333,109.56145833333335,87,109.53750000000001C89.41666666666667,109.51354166666667,91.83333333333333,109.48958333333333,94.25,109.465625C96.66666666666667,109.44166666666666,99.08333333333334,109.41770833333335,101.50000000000001,109.39375000000001C103.91666666666667,109.36979166666669,106.33333333333334,109.34583333333335,108.75,109.321875C111.16666666666667,109.29791666666667,113.58333333333333,109.27395833333334,116,109.25C118.41666666666667,109.22604166666666,120.83333333333334,109.20208333333333,123.25000000000001,109.178125C125.66666666666667,109.15416666666667,128.08333333333334,109.13020833333333,130.5,109.10625C132.91666666666666,109.08229166666666,135.33333333333334,109.05833333333334,137.75,109.034375C140.16666666666666,109.01041666666666,142.58333333333334,108.98645833333333,145,108.9625C147.41666666666666,108.93854166666668,149.83333333333334,108.91458333333333,152.25,108.890625C154.66666666666666,108.86666666666667,157.08333333333334,108.84270833333335,159.5,108.81875000000001C161.91666666666666,108.79479166666667,164.33333333333334,108.77083333333334,166.75,108.746875C169.16666666666666,108.72291666666666,171.58333333333334,108.69895833333334,174,108.675C176.41666666666666,108.65104166666666,178.83333333333334,108.62708333333333,181.25,108.60312499999999C183.66666666666666,108.57916666666665,186.08333333333334,108.55520833333333,188.5,108.53125C190.91666666666666,108.50729166666667,193.33333333333334,108.48333333333332,195.75,108.459375C198.16666666666669,108.43541666666665,200.58333333333334,108.41145833333334,203.00000000000003,108.3875C205.41666666666669,108.36354166666668,207.83333333333331,108.33958333333332,210.24999999999997,108.315625C212.66666666666666,108.29166666666666,215.08333333333331,108.26770833333335,217.5,108.24375C219.91666666666666,108.21979166666668,222.33333333333334,108.19583333333334,224.75,108.171875C227.16666666666666,108.14791666666666,229.58333333333334,108.12395833333333,232,108.1C234.41666666666666,108.07604166666665,236.83333333333334,108.05208333333331,239.25,108.02812499999999C241.66666666666669,108.00416666666665,244.08333333333334,107.98020833333334,246.50000000000003,107.95625C248.91666666666669,107.93229166666667,251.33333333333331,107.90833333333332,253.74999999999997,107.88437499999999C256.16666666666663,107.86041666666665,258.5833333333333,107.83645833333333,261,107.8125C263.4166666666667,107.78854166666667,265.8333333333333,107.76458333333335,268.25,107.74062500000001C270.6666666666667,107.71666666666667,273.0833333333333,107.69270833333334,275.5,107.66875C277.9166666666667,107.64479166666666,280.3333333333333,107.62083333333334,282.75,107.59687500000001C285.1666666666667,107.57291666666669,287.5833333333333,107.54895833333335,290,107.525C292.4166666666667,107.50104166666667,294.8333333333333,107.47708333333334,297.25,107.453125C299.6666666666667,107.42916666666666,302.0833333333333,107.40520833333332,304.5,107.38125C306.9166666666667,107.35729166666667,309.3333333333333,107.33333333333334,311.75,107.309375C314.1666666666667,107.28541666666666,316.5833333333333,107.26145833333334,319,107.2375C321.4166666666667,107.21354166666666,323.8333333333333,107.18958333333333,326.25,107.165625C328.6666666666667,107.14166666666668,331.0833333333333,107.11770833333333,333.5,107.09375C335.9166666666667,107.06979166666667,338.3333333333333,107.04583333333335,340.75,107.02187500000001C343.1666666666667,106.99791666666667,345.5833333333333,106.97395833333331,348,106.94999999999999C350.4166666666667,106.92604166666666,352.8333333333333,106.90208333333334,355.25,106.87812500000001C357.6666666666667,106.85416666666669,360.0833333333333,106.83020833333333,362.5,106.80624999999999C364.9166666666667,106.78229166666665,367.3333333333333,106.75833333333333,369.75,106.734375C372.1666666666667,106.71041666666667,374.5833333333333,106.68645833333332,377,106.6625C379.4166666666667,106.63854166666667,381.8333333333333,106.61458333333334,384.25,106.590625C386.6666666666667,106.56666666666666,389.0833333333333,106.54270833333332,391.5,106.51875C393.9166666666667,106.49479166666666,396.33333333333337,106.47083333333335,398.75000000000006,106.446875C401.16666666666674,106.42291666666668,403.58333333333337,106.39895833333334,406.00000000000006,106.375C408.4166666666667,106.35104166666666,410.8333333333333,106.32708333333333,413.24999999999994,106.303125C415.66666666666663,106.27916666666665,418.08333333333326,106.25520833333331,420.49999999999994,106.23124999999999C422.91666666666663,106.20729166666665,425.3333333333333,106.18333333333334,427.75,106.159375C430.1666666666667,106.13541666666667,432.5833333333333,106.11145833333333,435,106.08749999999999C437.4166666666667,106.06354166666665,439.8333333333333,106.03958333333333,442.25,106.015625C444.6666666666667,105.99166666666667,447.0833333333333,105.96770833333335,449.5,105.94375000000001C451.9166666666667,105.91979166666667,454.3333333333333,105.89583333333334,456.75,105.871875C459.1666666666667,105.84791666666666,461.5833333333333,105.82395833333334,464,105.80000000000001C466.4166666666667,105.77604166666669,468.8333333333333,105.75208333333335,471.25,105.728125C473.6666666666667,105.70416666666667,476.0833333333333,105.68020833333334,478.5,105.65625C480.9166666666667,105.63229166666666,483.33333333333337,105.60833333333333,485.75000000000006,105.584375C488.16666666666674,105.56041666666667,490.58333333333337,105.53645833333334,493.00000000000006,105.5125C495.4166666666667,105.48854166666668,497.8333333333333,105.46458333333332,500.24999999999994,105.440625C502.66666666666663,105.41666666666666,505.08333333333326,105.39270833333333,507.49999999999994,105.36875C509.91666666666663,105.34479166666667,512.3333333333333,105.32083333333334,514.75,105.296875C517.1666666666666,105.27291666666667,519.5833333333334,105.24895833333335,522,105.22500000000001C524.4166666666666,105.20104166666667,526.8333333333334,105.17708333333331,529.25,105.15312499999999C531.6666666666666,105.12916666666666,534.0833333333334,105.10520833333334,536.5,105.08125000000001C538.9166666666666,105.05729166666669,541.3333333333334,105.03333333333333,543.75,105.00937499999999C546.1666666666666,104.98541666666665,548.5833333333334,104.96145833333333,551,104.9375C553.4166666666666,104.91354166666667,555.8333333333334,104.88958333333332,558.25,104.865625C560.6666666666666,104.84166666666667,563.0833333333334,104.81770833333334,565.5,104.79375C567.9166666666666,104.76979166666666,570.3333333333334,104.74583333333334,572.75,104.721875C575.1666666666666,104.69791666666666,577.5833333333334,104.67395833333333,580,104.65C582.4166666666666,104.62604166666668,584.8333333333334,104.60208333333334,587.25,104.578125C589.6666666666666,104.55416666666666,592.0833333333334,104.53020833333333,594.5,104.50625C596.9166666666666,104.48229166666665,599.3333333333334,104.45833333333331,601.75,104.43437499999999C604.1666666666666,104.41041666666666,606.5833333333334,104.38645833333334,609,104.3625C611.4166666666666,104.33854166666666,613.8333333333334,104.31458333333333,616.25,104.29062499999999C618.6666666666666,104.26666666666665,621.0833333333334,104.24270833333333,623.5,104.21875C625.9166666666666,104.19479166666667,628.3333333333334,104.17083333333335,630.75,104.14687500000001C633.1666666666666,104.12291666666667,635.5833333333334,104.09895833333334,638,104.075C640.4166666666666,104.05104166666666,642.8333333333334,104.02708333333334,645.25,104.00312500000001C647.6666666666666,103.97916666666669,650.0833333333334,103.95520833333335,652.5,103.93125C654.9166666666666,103.90729166666667,657.3333333333334,103.88333333333334,659.75,103.859375C662.1666666666666,103.83541666666666,664.5833333333334,103.81145833333332,667,103.7875C669.4166666666666,103.76354166666667,671.8333333333334,103.73958333333334,674.25,103.715625C676.6666666666666,103.69166666666666,679.0833333333334,103.66770833333334,681.5,103.64375C683.9166666666666,103.61979166666666,686.3333333333334,103.59583333333333,688.75,103.571875C691.1666666666666,103.54791666666668,693.5833333333334,103.52395833333333,696,103.5C698.4166666666666,103.47604166666667,700.8333333333334,103.45208333333335,703.25,103.42812500000001C705.6666666666666,103.40416666666667,708.0833333333334,103.38020833333331,710.5,103.35624999999999C712.9166666666666,103.33229166666666,715.3333333333334,103.30833333333334,717.75,103.28437500000001C720.1666666666666,103.26041666666669,722.5833333333334,103.23645833333333,725,103.21249999999999C727.4166666666666,103.18854166666665,729.8333333333334,103.16458333333333,732.25,103.140625C734.6666666666666,103.11666666666667,737.0833333333334,103.09270833333332,739.5,103.06875C741.9166666666666,103.04479166666667,744.3333333333334,103.02083333333334,746.75,102.996875C749.1666666666666,102.97291666666666,751.5833333333334,102.94895833333334,754,102.925C756.4166666666666,102.90104166666666,758.8333333333334,102.87708333333333,761.25,102.853125C763.6666666666666,102.82916666666668,766.0833333333334,102.80520833333334,768.5,102.78125C770.9166666666666,102.75729166666666,773.3333333333334,102.73333333333333,775.75,102.709375C778.1666666666666,102.68541666666665,780.5833333333334,102.66145833333331,783,102.63749999999999C785.4166666666667,102.61354166666665,787.8333333333334,102.58958333333334,790.2500000000001,102.565625C792.6666666666667,102.54166666666667,795.0833333333335,102.51770833333333,797.5000000000001,102.49374999999999C799.9166666666667,102.46979166666665,802.3333333333335,102.44583333333333,804.7500000000001,102.421875C807.1666666666667,102.39791666666667,809.5833333333335,102.37395833333335,812.0000000000001,102.35000000000001C814.4166666666667,102.32604166666668,816.8333333333333,102.30208333333333,819.2499999999999,102.278125C821.6666666666665,102.25416666666666,824.0833333333333,102.23020833333334,826.4999999999999,102.20625000000001C828.9166666666665,102.18229166666669,831.3333333333333,102.15833333333335,833.7499999999999,102.134375C836.1666666666665,102.11041666666667,838.5833333333333,102.08645833333334,840.9999999999999,102.0625C843.4166666666666,102.03854166666666,845.8333333333333,102.01458333333333,848.25,101.990625C850.6666666666666,101.96666666666667,853.0833333333334,101.94270833333334,855.5,101.91875C857.9166666666666,101.89479166666666,860.3333333333334,101.87083333333334,862.75,101.846875C865.1666666666666,101.82291666666666,867.5833333333334,101.79895833333333,870,101.775C872.4166666666666,101.75104166666668,874.8333333333334,101.72708333333333,877.25,101.703125C879.6666666666666,101.67916666666667,882.0833333333334,101.65520833333335,884.5,101.63125000000001C886.9166666666666,101.60729166666667,889.3333333333334,101.58333333333331,891.75,101.55937499999999C894.1666666666666,101.53541666666666,896.5833333333334,101.51145833333334,899,101.48750000000001C901.4166666666666,101.46354166666669,903.8333333333334,101.43958333333333,906.25,101.41562499999999C908.6666666666666,101.39166666666665,911.0833333333334,101.36770833333333,913.5,101.34375C915.9166666666666,101.31979166666667,918.3333333333334,101.29583333333332,920.75,101.271875C923.1666666666666,101.24791666666667,925.5833333333334,101.22395833333334,928,101.2C930.4166666666666,101.17604166666666,932.8333333333334,101.15208333333334,935.25,101.128125C937.6666666666666,101.10416666666666,940.0833333333334,101.08020833333333,942.5,101.05625C944.9166666666666,101.03229166666668,947.3333333333334,101.00833333333334,949.75,100.984375C952.1666666666666,100.96041666666666,954.5833333333334,100.93645833333333,957,100.9125C959.4166666666666,100.88854166666665,961.8333333333334,100.86458333333331,964.25,100.84062499999999C966.6666666666667,100.81666666666665,969.0833333333334,100.79270833333334,971.5000000000001,100.76875C973.9166666666667,100.74479166666667,976.3333333333335,100.72083333333333,978.7500000000001,100.69687499999999C981.1666666666667,100.67291666666665,983.5833333333335,100.64895833333333,986.0000000000001,100.625C988.4166666666667,100.60104166666667,990.8333333333335,100.57708333333335,993.2500000000001,100.55312500000001C995.6666666666667,100.52916666666668,998.0833333333333,100.50520833333333,1000.4999999999999,100.48125C1002.9166666666665,100.45729166666666,1005.3333333333333,100.43333333333334,1007.7499999999999,100.40937500000001C1010.1666666666665,100.38541666666669,1012.5833333333333,100.36145833333335,1014.9999999999999,100.3375C1017.4166666666665,100.31354166666667,1019.8333333333333,100.28958333333334,1022.2499999999999,100.265625C1024.6666666666665,100.24166666666666,1027.0833333333333,100.21770833333333,1029.5,100.19375C1031.9166666666667,100.16979166666667,1034.3333333333333,100.14583333333334,1036.75,100.121875C1039.1666666666667,100.09791666666666,1041.5833333333333,100.07395833333334,1044,100.05C1046.4166666666667,100.02604166666666,1048.8333333333333,100.00208333333333,1051.25,99.978125C1053.6666666666667,99.95416666666668,1056.0833333333333,99.93020833333333,1058.5,99.90625C1060.9166666666667,99.88229166666667,1063.3333333333333,99.85833333333335,1065.75,99.83437500000001C1068.1666666666667,99.81041666666667,1070.5833333333333,99.78645833333331,1073,99.76249999999999C1075.4166666666667,99.73854166666666,1077.8333333333333,99.71458333333334,1080.25,99.69062500000001C1082.6666666666667,99.66666666666669,1085.0833333333333,99.64270833333333,1087.5,99.61874999999999C1089.9166666666667,99.59479166666665,1092.3333333333333,99.57083333333333,1094.75,99.546875C1097.1666666666667,99.52291666666667,1099.5833333333333,99.49895833333332,1102,99.475C1104.4166666666667,99.45104166666667,1106.8333333333333,99.42708333333334,1109.25,99.403125C1111.6666666666667,99.37916666666666,1114.0833333333333,99.35520833333334,1116.5,99.33125C1118.9166666666667,99.30729166666666,1121.3333333333333,99.28333333333333,1123.75,99.259375C1126.1666666666667,99.23541666666668,1128.5833333333333,99.21145833333334,1131,99.1875C1133.4166666666667,99.16354166666666,1135.8333333333333,99.13958333333333,1138.25,99.115625C1140.6666666666667,99.09166666666665,1143.0833333333333,99.06770833333331,1145.5,99.04374999999999C1147.9166666666667,99.01979166666666,1150.3333333333333,98.99583333333334,1152.75,98.971875C1155.1666666666667,98.94791666666666,1157.5833333333333,98.94791666666666,1160,98.89999999999999C1162.4166666666667,98.85208333333333,1164.8333333333333,97.4625,1167.25,96.74375C1169.6666666666667,96.025,1172.0833333333333,95.30625,1174.5,94.5875C1176.9166666666667,93.86875,1179.3333333333333,93.14999999999999,1181.75,92.43124999999999C1184.1666666666667,91.71249999999999,1186.5833333333333,90.99375,1189,90.275C1191.4166666666667,89.55625,1193.8333333333333,88.83749999999999,1196.25,88.11874999999999C1198.6666666666667,87.39999999999999,1201.0833333333333,86.68125,1203.5,85.9625C1205.9166666666667,85.24375,1208.3333333333333,84.525,1210.75,83.80625C1213.1666666666667,83.0875,1215.5833333333333,82.36874999999999,1218,81.64999999999999C1220.4166666666667,80.93124999999999,1222.8333333333333,80.21249999999999,1225.25,79.49374999999999C1227.6666666666667,78.77499999999999,1230.0833333333333,78.05624999999999,1232.5,77.33749999999999C1234.9166666666667,76.61874999999999,1237.3333333333333,75.9,1239.75,75.18125C1242.1666666666667,74.4625,1244.5833333333333,73.74375,1247,73.025C1249.4166666666667,72.30625,1251.8333333333333,71.58749999999999,1254.25,70.86874999999999C1256.6666666666667,70.14999999999999,1259.0833333333333,69.43124999999999,1261.5,68.71249999999999C1263.9166666666667,67.99374999999999,1266.3333333333333,67.27499999999999,1268.75,66.55624999999999C1271.1666666666667,65.83749999999999,1273.5833333333333,65.11875,1276,64.4C1278.4166666666667,63.681250000000006,1280.8333333333333,62.9625,1283.25,62.24375C1285.6666666666667,61.525,1288.0833333333333,60.80625,1290.5,60.0875C1292.9166666666667,59.36875,1295.3333333333333,58.64999999999999,1297.75,57.93124999999999C1300.1666666666667,57.21249999999999,1302.5833333333333,56.49375,1305,55.775C1307.4166666666667,55.05625,1309.8333333333333,54.337500000000006,1312.25,53.618750000000006C1314.6666666666667,52.900000000000006,1317.0833333333333,52.18125,1319.5,51.4625C1321.9166666666667,50.74375,1324.3333333333333,50.025,1326.75,49.30625C1329.1666666666667,48.5875,1331.5833333333333,47.868750000000006,1334,47.150000000000006C1336.4166666666667,46.431250000000006,1338.8333333333333,45.7125,1341.25,44.99375C1343.6666666666667,44.275,1346.0833333333333,43.556250000000006,1348.5,42.837500000000006C1350.9166666666667,42.118750000000006,1353.3333333333333,41.4,1355.75,40.68125C1358.1666666666667,39.9625,1360.5833333333333,39.24375,1363,38.525C1365.4166666666667,37.80625,1367.8333333333333,37.087500000000006,1370.25,36.368750000000006C1372.6666666666667,35.650000000000006,1375.0833333333333,34.93125,1377.5,34.2125C1379.9166666666667,33.49375,1382.3333333333333,32.775000000000006,1384.75,32.056250000000006C1387.1666666666667,31.337500000000006,1389.5833333333333,30.618750000000006,1392,29.900000000000002C1394.4166666666667,29.18125,1396.8333333333333,28.462499999999995,1399.25,27.743749999999995C1401.6666666666667,27.024999999999995,1404.0833333333333,26.306250000000002,1406.5,25.587500000000002C1408.9166666666667,24.868750000000002,1411.3333333333333,24.15,1413.75,23.43125C1416.1666666666667,22.7125,1418.5833333333333,21.993750000000006,1421,21.275000000000006C1423.4166666666667,20.556250000000006,1425.8333333333333,19.837500000000006,1428.25,19.118750000000002C1430.6666666666667,18.4,1433.0833333333333,17.681249999999995,1435.5,16.962499999999995C1437.9166666666667,16.243749999999995,1440.3333333333333,15.525000000000004,1442.75,14.806250000000004C1445.1666666666667,14.087500000000004,1447.5833333333333,13.368750000000002,1450,12.649999999999999" fill="transparent" stroke-linecap="round" stroke="#B6509E" stroke-width="2"></path><path class="visx-linepath" d="M0,103.49999999997125C2.4166666666666665,103.49520833331655,4.833333333333334,103.49041666666187,7.25,103.485625C9.666666666666666,103.48083333333813,12.083333333333334,103.47604166666667,14.5,103.47125000000001C16.916666666666668,103.46645833333335,19.333333333333332,103.46166666666667,21.75,103.456875C24.166666666666668,103.45208333333332,26.583333333333332,103.44729166666666,29,103.4425C31.416666666666668,103.43770833333333,33.833333333333336,103.43291666666667,36.25,103.42812500000001C38.666666666666664,103.42333333333335,41.083333333333336,103.41854166666666,43.5,103.41375C45.91666666666667,103.40895833333332,48.333333333333336,103.40416666666665,50.75000000000001,103.39937499999999C53.16666666666667,103.39458333333333,55.583333333333336,103.38979166666667,58,103.385C60.416666666666664,103.38020833333334,62.833333333333336,103.37541666666667,65.25,103.370625C67.66666666666667,103.36583333333334,70.08333333333333,103.36104166666665,72.5,103.35624999999999C74.91666666666667,103.35145833333333,77.33333333333333,103.34666666666666,79.75,103.341875C82.16666666666667,103.33708333333334,84.58333333333333,103.33229166666666,87,103.3275C89.41666666666667,103.32270833333334,91.83333333333333,103.31791666666666,94.25,103.313125C96.66666666666667,103.30833333333334,99.08333333333334,103.30354166666666,101.50000000000001,103.29875C103.91666666666667,103.29395833333334,106.33333333333334,103.28916666666667,108.75,103.28437500000001C111.16666666666667,103.27958333333335,113.58333333333333,103.27479166666666,116,103.27C118.41666666666667,103.26520833333332,120.83333333333334,103.26041666666666,123.25000000000001,103.255625C125.66666666666667,103.25083333333333,128.08333333333334,103.24604166666667,130.5,103.24125000000001C132.91666666666666,103.23645833333335,135.33333333333334,103.23166666666668,137.75,103.226875C140.16666666666666,103.22208333333333,142.58333333333334,103.21729166666665,145,103.21249999999999C147.41666666666666,103.20770833333333,149.83333333333334,103.20291666666667,152.25,103.198125C154.66666666666666,103.19333333333334,157.08333333333334,103.18854166666668,159.5,103.18375C161.91666666666666,103.17895833333333,164.33333333333334,103.17416666666665,166.75,103.16937499999999C169.16666666666666,103.16458333333333,171.58333333333334,103.15979166666666,174,103.155C176.41666666666666,103.15020833333334,178.83333333333334,103.14541666666666,181.25,103.140625C183.66666666666666,103.13583333333334,186.08333333333334,103.13104166666666,188.5,103.12625C190.91666666666666,103.12145833333334,193.33333333333334,103.11666666666666,195.75,103.111875C198.16666666666669,103.10708333333334,200.58333333333334,103.10229166666666,203.00000000000003,103.0975C205.41666666666669,103.09270833333333,207.83333333333331,103.08791666666667,210.24999999999997,103.08312500000001C212.66666666666666,103.07833333333335,215.08333333333331,103.07354166666666,217.5,103.06875C219.91666666666666,103.06395833333333,222.33333333333334,103.05916666666667,224.75,103.05437500000001C227.16666666666666,103.04958333333335,229.58333333333334,103.04479166666667,232,103.04C234.41666666666666,103.03520833333334,236.83333333333334,103.03041666666665,239.25,103.02562499999999C241.66666666666669,103.02083333333333,244.08333333333334,103.01604166666667,246.50000000000003,103.01125C248.91666666666669,103.00645833333334,251.33333333333331,103.00166666666667,253.74999999999997,102.996875C256.16666666666663,102.99208333333334,258.5833333333333,102.98729166666666,261,102.9825C263.4166666666667,102.97770833333334,265.8333333333333,102.97291666666666,268.25,102.968125C270.6666666666667,102.96333333333334,273.0833333333333,102.95854166666666,275.5,102.95375C277.9166666666667,102.94895833333334,280.3333333333333,102.94416666666666,282.75,102.939375C285.1666666666667,102.93458333333334,287.5833333333333,102.92979166666666,290,102.925C292.4166666666667,102.92020833333333,294.8333333333333,102.91541666666666,297.25,102.910625C299.6666666666667,102.90583333333333,302.0833333333333,102.90104166666666,304.5,102.89625C306.9166666666667,102.89145833333333,309.3333333333333,102.88666666666666,311.75,102.881875C314.1666666666667,102.87708333333333,316.5833333333333,102.87229166666667,319,102.8675C321.4166666666667,102.86270833333334,323.8333333333333,102.85791666666667,326.25,102.853125C328.6666666666667,102.84833333333334,331.0833333333333,102.84354166666667,333.5,102.83875C335.9166666666667,102.83395833333334,338.3333333333333,102.82916666666667,340.75,102.824375C343.1666666666667,102.81958333333334,345.5833333333333,102.81479166666666,348,102.81C350.4166666666667,102.80520833333334,352.8333333333333,102.80041666666666,355.25,102.795625C357.6666666666667,102.79083333333334,360.0833333333333,102.78604166666666,362.5,102.78125C364.9166666666667,102.77645833333334,367.3333333333333,102.77166666666666,369.75,102.766875C372.1666666666667,102.76208333333334,374.5833333333333,102.75729166666666,377,102.7525C379.4166666666667,102.74770833333334,381.8333333333333,102.74291666666666,384.25,102.738125C386.6666666666667,102.73333333333333,389.0833333333333,102.72854166666666,391.5,102.72375C393.9166666666667,102.71895833333333,396.33333333333337,102.71416666666666,398.75000000000006,102.709375C401.16666666666674,102.70458333333333,403.58333333333337,102.69979166666667,406.00000000000006,102.69500000000001C408.4166666666667,102.69020833333335,410.8333333333333,102.68541666666665,413.24999999999994,102.68062499999999C415.66666666666663,102.67583333333333,418.08333333333326,102.67104166666667,420.49999999999994,102.66625C422.91666666666663,102.66145833333334,425.3333333333333,102.65666666666668,427.75,102.651875C430.1666666666667,102.64708333333334,432.5833333333333,102.64229166666665,435,102.63749999999999C437.4166666666667,102.63270833333333,439.8333333333333,102.62791666666666,442.25,102.623125C444.6666666666667,102.61833333333334,447.0833333333333,102.61354166666666,449.5,102.60875C451.9166666666667,102.60395833333334,454.3333333333333,102.59916666666668,456.75,102.59437500000001C459.1666666666667,102.58958333333335,461.5833333333333,102.58479166666666,464,102.58C466.4166666666667,102.57520833333334,468.8333333333333,102.57041666666666,471.25,102.565625C473.6666666666667,102.56083333333333,476.0833333333333,102.55604166666667,478.5,102.55125000000001C480.9166666666667,102.54645833333335,483.33333333333337,102.54166666666667,485.75000000000006,102.536875C488.16666666666674,102.53208333333333,490.58333333333337,102.52729166666666,493.00000000000006,102.5225C495.4166666666667,102.51770833333333,497.8333333333333,102.51291666666667,500.24999999999994,102.508125C502.66666666666663,102.50333333333334,505.08333333333326,102.49854166666665,507.49999999999994,102.49374999999999C509.91666666666663,102.48895833333331,512.3333333333333,102.48416666666665,514.75,102.47937499999999C517.1666666666666,102.47458333333333,519.5833333333334,102.46979166666667,522,102.465C524.4166666666666,102.46020833333334,526.8333333333334,102.45541666666668,529.25,102.450625C531.6666666666666,102.44583333333333,534.0833333333334,102.44104166666665,536.5,102.43624999999999C538.9166666666666,102.43145833333332,541.3333333333334,102.42666666666666,543.75,102.421875C546.1666666666666,102.41708333333334,548.5833333333334,102.41229166666668,551,102.40750000000001C553.4166666666666,102.40270833333335,555.8333333333334,102.39791666666667,558.25,102.393125C560.6666666666666,102.38833333333332,563.0833333333334,102.38354166666666,565.5,102.37875C567.9166666666666,102.37395833333333,570.3333333333334,102.36916666666667,572.75,102.36437500000001C575.1666666666666,102.35958333333335,577.5833333333334,102.35479166666667,580,102.35000000000001C582.4166666666666,102.34520833333335,584.8333333333334,102.34041666666666,587.25,102.335625C589.6666666666666,102.33083333333333,592.0833333333334,102.32604166666667,594.5,102.32125C596.9166666666666,102.31645833333334,599.3333333333334,102.31166666666667,601.75,102.306875C604.1666666666666,102.30208333333334,606.5833333333334,102.29729166666665,609,102.29249999999999C611.4166666666666,102.28770833333333,613.8333333333334,102.28291666666667,616.25,102.278125C618.6666666666666,102.27333333333334,621.0833333333334,102.26854166666666,623.5,102.26375C625.9166666666666,102.25895833333334,628.3333333333334,102.25416666666665,630.75,102.24937499999999C633.1666666666666,102.24458333333332,635.5833333333334,102.23979166666666,638,102.235C640.4166666666666,102.23020833333334,642.8333333333334,102.22541666666666,645.25,102.220625C647.6666666666666,102.21583333333334,650.0833333333334,102.21104166666667,652.5,102.20625000000001C654.9166666666666,102.20145833333335,657.3333333333334,102.19666666666666,659.75,102.191875C662.1666666666666,102.18708333333333,664.5833333333334,102.18229166666666,667,102.1775C669.4166666666666,102.17270833333333,671.8333333333334,102.16791666666667,674.25,102.16312500000001C676.6666666666666,102.15833333333335,679.0833333333334,102.15354166666665,681.5,102.14874999999999C683.9166666666666,102.14395833333333,686.3333333333334,102.13916666666667,688.75,102.134375C691.1666666666666,102.12958333333334,693.5833333333334,102.12479166666667,696,102.12C698.4166666666666,102.11520833333334,700.8333333333334,102.11041666666667,703.25,102.105625C705.6666666666666,102.10083333333334,708.0833333333334,102.09604166666666,710.5,102.09125C712.9166666666666,102.08645833333334,715.3333333333334,102.08166666666666,717.75,102.076875C720.1666666666666,102.07208333333334,722.5833333333334,102.06729166666666,725,102.0625C727.4166666666666,102.05770833333334,729.8333333333334,102.05291666666666,732.25,102.048125C734.6666666666666,102.04333333333334,737.0833333333334,102.03854166666666,739.5,102.03375C741.9166666666666,102.02895833333334,744.3333333333334,102.02416666666666,746.75,102.019375C749.1666666666666,102.01458333333333,751.5833333333334,102.00979166666666,754,102.005C756.4166666666666,102.00020833333333,758.8333333333334,101.99541666666666,761.25,101.990625C763.6666666666666,101.98583333333333,766.0833333333334,101.98104166666666,768.5,101.97625C770.9166666666666,101.97145833333333,773.3333333333334,101.96666666666667,775.75,101.961875C778.1666666666666,101.95708333333334,780.5833333333334,101.95229166666667,783,101.9475C785.4166666666667,101.94270833333334,787.8333333333334,101.93791666666667,790.2500000000001,101.933125C792.6666666666667,101.92833333333334,795.0833333333335,101.92354166666667,797.5000000000001,101.91875C799.9166666666667,101.91395833333334,802.3333333333335,101.90916666666666,804.7500000000001,101.904375C807.1666666666667,101.89958333333334,809.5833333333335,101.89479166666666,812.0000000000001,101.89C814.4166666666667,101.88520833333334,816.8333333333333,101.88041666666666,819.2499999999999,101.875625C821.6666666666665,101.87083333333334,824.0833333333333,101.86604166666666,826.4999999999999,101.86125C828.9166666666665,101.85645833333334,831.3333333333333,101.85166666666666,833.7499999999999,101.846875C836.1666666666665,101.84208333333333,838.5833333333333,101.83729166666666,840.9999999999999,101.8325C843.4166666666666,101.82770833333333,845.8333333333333,101.82291666666667,848.25,101.81812500000001C850.6666666666666,101.81333333333335,853.0833333333334,101.80854166666666,855.5,101.80375C857.9166666666666,101.79895833333333,860.3333333333334,101.79416666666665,862.75,101.78937499999999C865.1666666666666,101.78458333333333,867.5833333333334,101.77979166666667,870,101.775C872.4166666666666,101.77020833333334,874.8333333333334,101.76541666666665,877.25,101.76062499999999C879.6666666666666,101.75583333333333,882.0833333333334,101.75104166666667,884.5,101.74625C886.9166666666666,101.74145833333334,889.3333333333334,101.73666666666666,891.75,101.731875C894.1666666666666,101.72708333333334,896.5833333333334,101.72229166666666,899,101.7175C901.4166666666666,101.71270833333334,903.8333333333334,101.70791666666666,906.25,101.703125C908.6666666666666,101.69833333333334,911.0833333333334,101.69354166666666,913.5,101.68875C915.9166666666666,101.68395833333334,918.3333333333334,101.67916666666667,920.75,101.67437500000001C923.1666666666666,101.66958333333335,925.5833333333334,101.66479166666667,928,101.66C930.4166666666666,101.65520833333332,932.8333333333334,101.65041666666666,935.25,101.645625C937.6666666666666,101.64083333333333,940.0833333333334,101.63604166666667,942.5,101.63125000000001C944.9166666666666,101.62645833333335,947.3333333333334,101.62166666666667,949.75,101.616875C952.1666666666666,101.61208333333332,954.5833333333334,101.60729166666665,957,101.60249999999999C959.4166666666666,101.59770833333333,961.8333333333334,101.59291666666667,964.25,101.588125C966.6666666666667,101.58333333333334,969.0833333333334,101.57854166666668,971.5000000000001,101.57375C973.9166666666667,101.56895833333334,976.3333333333335,101.56416666666665,978.7500000000001,101.55937499999999C981.1666666666667,101.55458333333333,983.5833333333335,101.54979166666666,986.0000000000001,101.545C988.4166666666667,101.54020833333334,990.8333333333335,101.53541666666666,993.2500000000001,101.530625C995.6666666666667,101.52583333333334,998.0833333333333,101.52104166666666,1000.4999999999999,101.51625C1002.9166666666665,101.51145833333334,1005.3333333333333,101.50666666666666,1007.7499999999999,101.501875C1010.1666666666665,101.49708333333334,1012.5833333333333,101.49229166666667,1014.9999999999999,101.48750000000001C1017.4166666666665,101.48270833333335,1019.8333333333333,101.47791666666666,1022.2499999999999,101.473125C1024.6666666666665,101.46833333333332,1027.0833333333333,101.46354166666666,1029.5,101.45875C1031.9166666666667,101.45395833333333,1034.3333333333333,101.44916666666667,1036.75,101.44437500000001C1039.1666666666667,101.43958333333335,1041.5833333333333,101.43479166666668,1044,101.43C1046.4166666666667,101.42520833333333,1048.8333333333333,101.42041666666665,1051.25,101.41562499999999C1053.6666666666667,101.41083333333333,1056.0833333333333,101.40604166666667,1058.5,101.40125C1060.9166666666667,101.39645833333334,1063.3333333333333,101.39166666666668,1065.75,101.386875C1068.1666666666667,101.38208333333333,1070.5833333333333,101.37729166666665,1073,101.37249999999999C1075.4166666666667,101.36770833333333,1077.8333333333333,101.36291666666666,1080.25,101.358125C1082.6666666666667,101.35333333333334,1085.0833333333333,101.34854166666666,1087.5,101.34375C1089.9166666666667,101.33895833333334,1092.3333333333333,101.33416666666666,1094.75,101.329375C1097.1666666666667,101.32458333333334,1099.5833333333333,101.31979166666666,1102,101.315C1104.4166666666667,101.31020833333334,1106.8333333333333,101.30541666666666,1109.25,101.300625C1111.6666666666667,101.29583333333333,1114.0833333333333,101.29104166666667,1116.5,101.28625000000001C1118.9166666666667,101.28145833333335,1121.3333333333333,101.27666666666666,1123.75,101.271875C1126.1666666666667,101.26708333333333,1128.5833333333333,101.26229166666667,1131,101.25750000000001C1133.4166666666667,101.25270833333335,1135.8333333333333,101.24791666666667,1138.25,101.243125C1140.6666666666667,101.23833333333334,1143.0833333333333,101.23354166666665,1145.5,101.22874999999999C1147.9166666666667,101.22395833333333,1150.3333333333333,101.21916666666667,1152.75,101.214375C1155.1666666666667,101.20958333333334,1157.5833333333333,101.20958333333334,1160,101.2C1162.4166666666667,101.19041666666666,1164.8333333333333,99.76249999999999,1167.25,99.04374999999999C1169.6666666666667,98.32499999999999,1172.0833333333333,97.60625,1174.5,96.8875C1176.9166666666667,96.16875,1179.3333333333333,95.45,1181.75,94.73125C1184.1666666666667,94.0125,1186.5833333333333,93.29374999999999,1189,92.57499999999999C1191.4166666666667,91.85624999999999,1193.8333333333333,91.1375,1196.25,90.41875C1198.6666666666667,89.7,1201.0833333333333,88.98124999999999,1203.5,88.26249999999999C1205.9166666666667,87.54374999999999,1208.3333333333333,86.825,1210.75,86.10625C1213.1666666666667,85.3875,1215.5833333333333,84.66875,1218,83.95C1220.4166666666667,83.23125,1222.8333333333333,82.51249999999999,1225.25,81.79374999999999C1227.6666666666667,81.07499999999999,1230.0833333333333,80.35625,1232.5,79.6375C1234.9166666666667,78.91875,1237.3333333333333,78.2,1239.75,77.48125C1242.1666666666667,76.7625,1244.5833333333333,76.04375,1247,75.325C1249.4166666666667,74.60625,1251.8333333333333,73.8875,1254.25,73.16875C1256.6666666666667,72.45,1259.0833333333333,71.73124999999999,1261.5,71.01249999999999C1263.9166666666667,70.29374999999999,1266.3333333333333,69.575,1268.75,68.85625C1271.1666666666667,68.1375,1273.5833333333333,67.41875,1276,66.7C1278.4166666666667,65.98125,1280.8333333333333,65.2625,1283.25,64.54375C1285.6666666666667,63.825,1288.0833333333333,63.106249999999996,1290.5,62.387499999999996C1292.9166666666667,61.668749999999996,1295.3333333333333,60.949999999999996,1297.75,60.231249999999996C1300.1666666666667,59.512499999999996,1302.5833333333333,58.79375,1305,58.075C1307.4166666666667,57.35625,1309.8333333333333,56.637499999999996,1312.25,55.918749999999996C1314.6666666666667,55.199999999999996,1317.0833333333333,54.48125,1319.5,53.7625C1321.9166666666667,53.04375,1324.3333333333333,52.324999999999996,1326.75,51.606249999999996C1329.1666666666667,50.887499999999996,1331.5833333333333,50.16875,1334,49.45C1336.4166666666667,48.73125,1338.8333333333333,48.0125,1341.25,47.29375C1343.6666666666667,46.575,1346.0833333333333,45.856249999999996,1348.5,45.137499999999996C1350.9166666666667,44.418749999999996,1353.3333333333333,43.7,1355.75,42.98125C1358.1666666666667,42.2625,1360.5833333333333,41.543749999999996,1363,40.824999999999996C1365.4166666666667,40.106249999999996,1367.8333333333333,39.3875,1370.25,38.66875C1372.6666666666667,37.95,1375.0833333333333,37.23125,1377.5,36.5125C1379.9166666666667,35.79375,1382.3333333333333,35.074999999999996,1384.75,34.356249999999996C1387.1666666666667,33.637499999999996,1389.5833333333333,32.91875,1392,32.2C1394.4166666666667,31.481250000000003,1396.8333333333333,30.7625,1399.25,30.04375C1401.6666666666667,29.325,1404.0833333333333,28.606250000000006,1406.5,27.887500000000006C1408.9166666666667,27.168750000000006,1411.3333333333333,26.450000000000003,1413.75,25.73125C1416.1666666666667,25.012499999999996,1418.5833333333333,24.293749999999996,1421,23.574999999999996C1423.4166666666667,22.856249999999996,1425.8333333333333,22.137500000000003,1428.25,21.418750000000003C1430.6666666666667,20.700000000000003,1433.0833333333333,19.98125,1435.5,19.2625C1437.9166666666667,18.54375,1440.3333333333333,17.825000000000006,1442.75,17.106250000000006C1445.1666666666667,16.387500000000006,1447.5833333333333,15.668750000000005,1450,14.950000000000001" fill="transparent" stroke-linecap="round" stroke="#E7C6DF" stroke-width="2"></path><g class="visx-group visx-axis visx-axis-bottom" transform="translate(0, 115)"><g class="visx-group visx-axis-tick" transform="translate(0, 0)"><line class="visx-line" x1="0" y1="0" x2="0" y2="8" fill="transparent" shape-rendering="crispEdges" stroke="#000" stroke-width="0" stroke-linecap="square"></line><svg x="0" y="0" font-size="10" style="overflow:visible"><text transform="" x="0" y="18" fill="#000" font-size="10" text-anchor="middle"><tspan x="0" dy="0em">0%</tspan></text></svg></g><g class="visx-group visx-axis-tick" transform="translate(0, 0)"><line class="visx-line" x1="362.5" y1="0" x2="362.5" y2="8" fill="transparent" shape-rendering="crispEdges" stroke="#000" stroke-width="0" stroke-linecap="square"></line><svg x="0" y="0" font-size="10" style="overflow:visible"><text transform="" x="362.5" y="18" fill="#000" font-size="10" text-anchor="middle"><tspan x="362.5" dy="0em">25%</tspan></text></svg></g><g class="visx-group visx-axis-tick" transform="translate(0, 0)"><line class="visx-line" x1="725" y1="0" x2="725" y2="8" fill="transparent" shape-rendering="crispEdges" stroke="#000" stroke-width="0" stroke-linecap="square"></line><svg x="0" y="0" font-size="10" style="overflow:visible"><text transform="" x="725" y="18" fill="#000" font-size="10" text-anchor="middle"><tspan x="725" dy="0em">50%</tspan></text></svg></g><g class="visx-group visx-axis-tick" transform="translate(0, 0)"><line class="visx-line" x1="1087.5" y1="0" x2="1087.5" y2="8" fill="transparent" shape-rendering="crispEdges" stroke="#000" stroke-width="0" stroke-linecap="square"></line><svg x="0" y="0" font-size="10" style="overflow:visible"><text transform="" x="1087.5" y="18" fill="#000" font-size="10" text-anchor="middle"><tspan x="1087.5" dy="0em">75%</tspan></text></svg></g><g class="visx-group visx-axis-tick" transform="translate(0, 0)"><line class="visx-line" x1="1450" y1="0" x2="1450" y2="8" fill="transparent" shape-rendering="crispEdges" stroke="#000" stroke-width="0" stroke-linecap="square"></line><svg x="0" y="0" font-size="10" style="overflow:visible"><text transform="" x="1450" y="18" fill="#000" font-size="10" text-anchor="middle"><tspan x="1450" dy="0em">100%</tspan></text></svg></g><line class="visx-line visx-axis-line" x1="0.5" y1="0" x2="1450.5" y2="0" fill="transparent" shape-rendering="crispEdges" stroke="#222" stroke-width="0"></line></g><g class="visx-group visx-axis visx-axis-left" transform="translate(0, 0)"><g class="visx-group visx-axis-tick" transform="translate(0, 0)"><line class="visx-line" x1="0" y1="115" x2="-8" y2="115" fill="transparent" shape-rendering="crispEdges" stroke="#222" stroke-width="0" stroke-linecap="square"></line><svg x="-30" y="0" font-size="8" style="overflow:visible"><text transform="" x="-8" y="115" fill="#000" font-size="8" text-anchor="start"><tspan x="-8" dy="0em">0%</tspan></text></svg></g><g class="visx-group visx-axis-tick" transform="translate(0, 0)"><line class="visx-line" x1="0" y1="57.5" x2="-8" y2="57.5" fill="transparent" shape-rendering="crispEdges" stroke="#222" stroke-width="0" stroke-linecap="square"></line><svg x="-30" y="0" font-size="8" style="overflow:visible"><text transform="" x="-8" y="57.5" fill="#000" font-size="8" text-anchor="start"><tspan x="-8" dy="0em">50%</tspan></text></svg></g><g class="visx-group visx-axis-tick" transform="translate(0, 0)"><line class="visx-line" x1="0" y1="0" x2="-8" y2="0" fill="transparent" shape-rendering="crispEdges" stroke="#222" stroke-width="0" stroke-linecap="square"></line><svg x="-30" y="0" font-size="8" style="overflow:visible"><text transform="" x="-8" y="0" fill="#000" font-size="8" text-anchor="start"><tspan x="-8" dy="0em">100%</tspan></text></svg></g><line class="visx-line visx-axis-line" x1="0" y1="115.5" x2="0" y2="0.5" fill="transparent" shape-rendering="crispEdges" stroke="#222" stroke-width="0"></line></g><rect class="visx-bar" width="1450" height="115" fill="transparent"></rect><line class="visx-line" x1="1160" y1="28" x2="1160" y2="115" fill="transparent" shape-rendering="crispEdges" stroke="#0062D2" stroke-width="1" pointer-events="none" stroke-dasharray="5,2"></line><svg x="0" y="0" font-size="10px" style="overflow:visible"><text transform="" x="1160" y="20" font-size="10px" fill="#fff" stroke="#fff" stroke-width="0.8em" text-anchor="middle"><tspan x="1160" dy="0.355em">Optimal 80%</tspan></text></svg><svg x="0" y="0" font-size="10px" style="overflow:visible"><text transform="" x="1160" y="20" font-size="10px" fill="#62677B" text-anchor="middle"><tspan x="1160" dy="0.355em">Optimal 80%</tspan></text></svg></g></svg>