<?xml version="1.0"?><svg xmlns="http://www.w3.org/2000/svg" xmlns:xlink= "http://www.w3.org/1999/xlink" style="background: white;" width="1500" height="185"> <g style="color: black; font-size: 13px; font-family: sans-serif; transform: translate(18px, 25px);"><g><circle r="3" cx="-6" cy="-5" style="fill: #B6509E" /><text>Borrow APR, variable</text></g><g style="transform: translateX(150px);"><circle r="3" cx="-6" cy="-5" style="fill: rgb(231, 198, 223)" /><text>Borrow APR, stable</text></g><g style="transform: translateX(290px);"><circle r="3" cx="-6" cy="-5" style="fill: rgb(0, 98, 210)" /><text>Utilization Rate</text></g></g><g class="visx-group" transform="translate(40, 50)"><g class="visx-group visx-rows" transform="translate(0, 0)"><line class="visx-line" x1="0" y1="115" x2="1450" y2="115" fill="transparent" shape-rendering="crispEdges" stroke="#000" stroke-width="1" stroke-dasharray="3,3" pointer-events="none"></line><line class="visx-line" x1="0" y1="57.5" x2="1450" y2="57.5" fill="transparent" shape-rendering="crispEdges" stroke="#000" stroke-width="1" stroke-dasharray="3,3" pointer-events="none"></line><line class="visx-line" x1="0" y1="0" x2="1450" y2="0" fill="transparent" shape-rendering="crispEdges" stroke="#000" stroke-width="1" stroke-dasharray="3,3" pointer-events="none"></line></g><path class="visx-linepath" d="M0,114.99999999996167C2.4166666666666665,114.99361111108875,4.833333333333334,114.98722222221583,7.25,114.98083333333334C9.666666666666666,114.97444444445084,12.083333333333334,114.96805555555557,14.5,114.96166666666667C16.916666666666668,114.95527777777778,19.333333333333332,114.9488888888889,21.75,114.94250000000001C24.166666666666668,114.93611111111112,26.583333333333332,114.92972222222222,29,114.92333333333333C31.416666666666668,114.91694444444444,33.833333333333336,114.91055555555556,36.25,114.90416666666667C38.666666666666664,114.89777777777778,41.083333333333336,114.8913888888889,43.5,114.885C45.91666666666667,114.87861111111111,48.333333333333336,114.87222222222223,50.75000000000001,114.86583333333334C53.16666666666667,114.85944444444445,55.583333333333336,114.85305555555556,58,114.84666666666666C60.416666666666664,114.84027777777777,62.833333333333336,114.8338888888889,65.25,114.8275C67.66666666666667,114.82111111111111,70.08333333333333,114.81472222222222,72.5,114.80833333333332C74.91666666666667,114.80194444444443,77.33333333333333,114.79555555555555,79.75,114.78916666666666C82.16666666666667,114.78277777777777,84.58333333333333,114.77638888888889,87,114.77C89.41666666666667,114.7636111111111,91.83333333333333,114.75722222222223,94.25,114.75083333333333C96.66666666666667,114.74444444444444,99.08333333333334,114.73805555555556,101.50000000000001,114.73166666666667C103.91666666666667,114.72527777777778,106.33333333333334,114.7188888888889,108.75,114.7125C111.16666666666667,114.70611111111111,113.58333333333333,114.69972222222222,116,114.69333333333333C118.41666666666667,114.68694444444444,120.83333333333334,114.68055555555556,123.25000000000001,114.67416666666666C125.66666666666667,114.66777777777777,128.08333333333334,114.6613888888889,130.5,114.655C132.91666666666666,114.64861111111111,135.33333333333334,114.64222222222223,137.75,114.63583333333334C140.16666666666666,114.62944444444445,142.58333333333334,114.62305555555557,145,114.61666666666667C147.41666666666666,114.61027777777778,149.83333333333334,114.6038888888889,152.25,114.59750000000001C154.66666666666666,114.59111111111112,157.08333333333334,114.58472222222223,159.5,114.57833333333333C161.91666666666666,114.57194444444444,164.33333333333334,114.56555555555556,166.75,114.55916666666667C169.16666666666666,114.55277777777778,171.58333333333334,114.5463888888889,174,114.54C176.41666666666666,114.53361111111111,178.83333333333334,114.52722222222222,181.25,114.52083333333333C183.66666666666666,114.51444444444444,186.08333333333334,114.50805555555556,188.5,114.50166666666667C190.91666666666666,114.49527777777777,193.33333333333334,114.4888888888889,195.75,114.4825C198.16666666666669,114.47611111111111,200.58333333333334,114.46972222222222,203.00000000000003,114.46333333333332C205.41666666666669,114.45694444444443,207.83333333333331,114.45055555555555,210.24999999999997,114.44416666666666C212.66666666666666,114.43777777777777,215.08333333333331,114.43138888888889,217.5,114.425C219.91666666666666,114.4186111111111,222.33333333333334,114.41222222222223,224.75,114.40583333333333C227.16666666666666,114.39944444444444,229.58333333333334,114.39305555555556,232,114.38666666666667C234.41666666666666,114.38027777777778,236.83333333333334,114.3738888888889,239.25,114.3675C241.66666666666669,114.36111111111111,244.08333333333334,114.35472222222222,246.50000000000003,114.34833333333333C248.91666666666669,114.34194444444444,251.33333333333331,114.33555555555556,253.74999999999997,114.32916666666667C256.16666666666663,114.32277777777777,258.5833333333333,114.3163888888889,261,114.31C263.4166666666667,114.30361111111111,265.8333333333333,114.29722222222223,268.25,114.29083333333334C270.6666666666667,114.28444444444445,273.0833333333333,114.27805555555557,275.5,114.27166666666668C277.9166666666667,114.26527777777778,280.3333333333333,114.2588888888889,282.75,114.25250000000001C285.1666666666667,114.24611111111112,287.5833333333333,114.23972222222223,290,114.23333333333333C292.4166666666667,114.22694444444444,294.8333333333333,114.22055555555556,297.25,114.21416666666667C299.6666666666667,114.20777777777778,302.0833333333333,114.20138888888889,304.5,114.195C306.9166666666667,114.1886111111111,309.3333333333333,114.18222222222222,311.75,114.17583333333333C314.1666666666667,114.16944444444444,316.5833333333333,114.16305555555556,319,114.15666666666667C321.4166666666667,114.15027777777777,323.8333333333333,114.1438888888889,326.25,114.1375C328.6666666666667,114.13111111111111,331.0833333333333,114.12472222222222,333.5,114.11833333333333C335.9166666666667,114.11194444444443,338.3333333333333,114.10555555555555,340.75,114.09916666666666C343.1666666666667,114.09277777777777,345.5833333333333,114.08638888888889,348,114.08C350.4166666666667,114.0736111111111,352.8333333333333,114.06722222222223,355.25,114.06083333333333C357.6666666666667,114.05444444444444,360.0833333333333,114.04805555555556,362.5,114.04166666666667C364.9166666666667,114.03527777777778,367.3333333333333,114.0288888888889,369.75,114.02250000000001C372.1666666666667,114.01611111111112,374.5833333333333,114.00972222222222,377,114.00333333333333C379.4166666666667,113.99694444444444,381.8333333333333,113.99055555555556,384.25,113.98416666666667C386.6666666666667,113.97777777777777,389.0833333333333,113.9713888888889,391.5,113.965C393.9166666666667,113.95861111111111,396.33333333333337,113.95222222222223,398.75000000000006,113.94583333333334C401.16666666666674,113.93944444444445,403.58333333333337,113.93305555555557,406.00000000000006,113.92666666666668C408.4166666666667,113.92027777777778,410.8333333333333,113.91388888888889,413.24999999999994,113.9075C415.66666666666663,113.9011111111111,418.08333333333326,113.89472222222221,420.49999999999994,113.88833333333332C422.91666666666663,113.88194444444443,425.3333333333333,113.87555555555555,427.75,113.86916666666666C430.1666666666667,113.86277777777777,432.5833333333333,113.85638888888889,435,113.85C437.4166666666667,113.8436111111111,439.8333333333333,113.83722222222222,442.25,113.83083333333333C444.6666666666667,113.82444444444444,447.0833333333333,113.81805555555556,449.5,113.81166666666667C451.9166666666667,113.80527777777777,454.3333333333333,113.7988888888889,456.75,113.7925C459.1666666666667,113.78611111111111,461.5833333333333,113.77972222222222,464,113.77333333333333C466.4166666666667,113.76694444444443,468.8333333333333,113.76055555555556,471.25,113.75416666666666C473.6666666666667,113.74777777777777,476.0833333333333,113.74138888888889,478.5,113.735C480.9166666666667,113.7286111111111,483.33333333333337,113.72222222222223,485.75000000000006,113.71583333333334C488.16666666666674,113.70944444444444,490.58333333333337,113.70305555555557,493.00000000000006,113.69666666666667C495.4166666666667,113.69027777777778,497.8333333333333,113.6838888888889,500.24999999999994,113.67750000000001C502.66666666666663,113.67111111111112,505.08333333333326,113.66472222222222,507.49999999999994,113.65833333333333C509.91666666666663,113.65194444444444,512.3333333333333,113.64555555555556,514.75,113.63916666666667C517.1666666666666,113.63277777777778,519.5833333333334,113.6263888888889,522,113.62C524.4166666666666,113.61361111111111,526.8333333333334,113.60722222222223,529.25,113.60083333333334C531.6666666666666,113.59444444444445,534.0833333333334,113.58805555555556,536.5,113.58166666666666C538.9166666666666,113.57527777777777,541.3333333333334,113.56888888888889,543.75,113.5625C546.1666666666666,113.55611111111111,548.5833333333334,113.54972222222221,551,113.54333333333332C553.4166666666666,113.53694444444443,555.8333333333334,113.53055555555555,558.25,113.52416666666666C560.6666666666666,113.51777777777777,563.0833333333334,113.51138888888889,565.5,113.505C567.9166666666666,113.4986111111111,570.3333333333334,113.49222222222222,572.75,113.48583333333333C575.1666666666666,113.47944444444444,577.5833333333334,113.47305555555556,580,113.46666666666667C582.4166666666666,113.46027777777778,584.8333333333334,113.4538888888889,587.25,113.4475C589.6666666666666,113.44111111111111,592.0833333333334,113.43472222222222,594.5,113.42833333333333C596.9166666666666,113.42194444444443,599.3333333333334,113.41555555555556,601.75,113.40916666666666C604.1666666666666,113.40277777777777,606.5833333333334,113.3963888888889,609,113.39C611.4166666666666,113.38361111111111,613.8333333333334,113.37722222222223,616.25,113.37083333333334C618.6666666666666,113.36444444444444,621.0833333333334,113.35805555555557,623.5,113.35166666666667C625.9166666666666,113.34527777777778,628.3333333333334,113.3388888888889,630.75,113.33250000000001C633.1666666666666,113.32611111111112,635.5833333333334,113.31972222222223,638,113.31333333333333C640.4166666666666,113.30694444444444,642.8333333333334,113.30055555555556,645.25,113.29416666666667C647.6666666666666,113.28777777777778,650.0833333333334,113.28138888888888,652.5,113.27499999999999C654.9166666666666,113.2686111111111,657.3333333333334,113.26222222222222,659.75,113.25583333333333C662.1666666666666,113.24944444444444,664.5833333333334,113.24305555555556,667,113.23666666666666C669.4166666666666,113.23027777777777,671.8333333333334,113.2238888888889,674.25,113.2175C676.6666666666666,113.21111111111111,679.0833333333334,113.20472222222222,681.5,113.19833333333332C683.9166666666666,113.19194444444443,686.3333333333334,113.18555555555555,688.75,113.17916666666666C691.1666666666666,113.17277777777777,693.5833333333334,113.16638888888889,696,113.16C698.4166666666666,113.1536111111111,700.8333333333334,113.14722222222223,703.25,113.14083333333333C705.6666666666666,113.13444444444444,708.0833333333334,113.12805555555556,710.5,113.12166666666667C712.9166666666666,113.11527777777778,715.3333333333334,113.1088888888889,717.75,113.1025C720.1666666666666,113.09611111111111,722.5833333333334,113.08972222222222,725,113.08333333333333C727.4166666666666,113.07694444444444,729.8333333333334,113.07055555555556,732.25,113.06416666666667C734.6666666666666,113.05777777777777,737.0833333333334,113.0513888888889,739.5,113.045C741.9166666666666,113.03861111111111,744.3333333333334,113.03222222222223,746.75,113.02583333333334C749.1666666666666,113.01944444444445,751.5833333333334,113.01305555555557,754,113.00666666666667C756.4166666666666,113.00027777777778,758.8333333333334,112.9938888888889,761.25,112.98750000000001C763.6666666666666,112.98111111111112,766.0833333333334,112.97472222222223,768.5,112.96833333333333C770.9166666666666,112.96194444444444,773.3333333333334,112.95555555555555,775.75,112.94916666666666C778.1666666666666,112.94277777777776,780.5833333333334,112.93638888888889,783,112.92999999999999C785.4166666666667,112.9236111111111,787.8333333333334,112.91722222222222,790.2500000000001,112.91083333333333C792.6666666666667,112.90444444444444,795.0833333333335,112.89805555555556,797.5000000000001,112.89166666666667C799.9166666666667,112.88527777777777,802.3333333333335,112.8788888888889,804.7500000000001,112.8725C807.1666666666667,112.86611111111111,809.5833333333335,112.85972222222222,812.0000000000001,112.85333333333332C814.4166666666667,112.84694444444443,816.8333333333333,112.84055555555555,819.2499999999999,112.83416666666666C821.6666666666665,112.82777777777777,824.0833333333333,112.82138888888889,826.4999999999999,112.815C828.9166666666665,112.8086111111111,831.3333333333333,112.80222222222223,833.7499999999999,112.79583333333333C836.1666666666665,112.78944444444444,838.5833333333333,112.78305555555556,840.9999999999999,112.77666666666667C843.4166666666666,112.77027777777778,845.8333333333333,112.7638888888889,848.25,112.75750000000001C850.6666666666666,112.75111111111111,853.0833333333334,112.74472222222222,855.5,112.73833333333333C857.9166666666666,112.73194444444444,860.3333333333334,112.72555555555556,862.75,112.71916666666667C865.1666666666666,112.71277777777777,867.5833333333334,112.7063888888889,870,112.7C872.4166666666666,112.69361111111111,874.8333333333334,112.68722222222223,877.25,112.68083333333334C879.6666666666666,112.67444444444445,882.0833333333334,112.66805555555555,884.5,112.66166666666666C886.9166666666666,112.65527777777777,889.3333333333334,112.64888888888889,891.75,112.6425C894.1666666666666,112.6361111111111,896.5833333333334,112.62972222222223,899,112.62333333333333C901.4166666666666,112.61694444444444,903.8333333333334,112.61055555555555,906.25,112.60416666666666C908.6666666666666,112.59777777777776,911.0833333333334,112.59138888888889,913.5,112.585C915.9166666666666,112.5786111111111,918.3333333333334,112.57222222222222,920.75,112.56583333333333C923.1666666666666,112.55944444444444,925.5833333333334,112.55305555555556,928,112.54666666666667C930.4166666666666,112.54027777777777,932.8333333333334,112.5338888888889,935.25,112.5275C937.6666666666666,112.52111111111111,940.0833333333334,112.51472222222222,942.5,112.50833333333333C944.9166666666666,112.50194444444443,947.3333333333334,112.49555555555555,949.75,112.48916666666666C952.1666666666666,112.48277777777777,954.5833333333334,112.47638888888889,957,112.47C959.4166666666666,112.4636111111111,961.8333333333334,112.45722222222223,964.25,112.45083333333334C966.6666666666667,112.44444444444444,969.0833333333334,112.43805555555556,971.5000000000001,112.43166666666667C973.9166666666667,112.42527777777778,976.3333333333335,112.4188888888889,978.7500000000001,112.41250000000001C981.1666666666667,112.40611111111112,983.5833333333335,112.39972222222224,986.0000000000001,112.39333333333335C988.4166666666667,112.38694444444445,990.8333333333335,112.38055555555556,993.2500000000001,112.37416666666667C995.6666666666667,112.36777777777777,998.0833333333333,112.3613888888889,1000.4999999999999,112.355C1002.9166666666665,112.34861111111111,1005.3333333333333,112.34222222222222,1007.7499999999999,112.33583333333333C1010.1666666666665,112.32944444444443,1012.5833333333333,112.32305555555556,1014.9999999999999,112.31666666666666C1017.4166666666665,112.31027777777777,1019.8333333333333,112.30388888888889,1022.2499999999999,112.2975C1024.6666666666665,112.2911111111111,1027.0833333333333,112.28472222222223,1029.5,112.27833333333334C1031.9166666666667,112.27194444444444,1034.3333333333333,112.26555555555555,1036.75,112.25916666666666C1039.1666666666667,112.25277777777777,1041.5833333333333,112.24638888888889,1044,112.24C1046.4166666666667,112.2336111111111,1048.8333333333333,112.22722222222222,1051.25,112.22083333333333C1053.6666666666667,112.21444444444444,1056.0833333333333,112.20805555555556,1058.5,112.20166666666667C1060.9166666666667,112.19527777777778,1063.3333333333333,112.1888888888889,1065.75,112.1825C1068.1666666666667,112.17611111111111,1070.5833333333333,112.16972222222223,1073,112.16333333333334C1075.4166666666667,112.15694444444445,1077.8333333333333,112.15055555555556,1080.25,112.14416666666666C1082.6666666666667,112.13777777777777,1085.0833333333333,112.13138888888889,1087.5,112.125C1089.9166666666667,112.11861111111111,1092.3333333333333,112.11222222222223,1094.75,112.10583333333334C1097.1666666666667,112.09944444444444,1099.5833333333333,112.09305555555557,1102,112.08666666666667C1104.4166666666667,112.08027777777778,1106.8333333333333,112.0738888888889,1109.25,112.06750000000001C1111.6666666666667,112.06111111111112,1114.0833333333333,112.05472222222224,1116.5,112.04833333333335C1118.9166666666667,112.04194444444445,1121.3333333333333,112.03555555555556,1123.75,112.02916666666667C1126.1666666666667,112.02277777777778,1128.5833333333333,112.01638888888888,1131,112.00999999999999C1133.4166666666667,112.0036111111111,1135.8333333333333,111.99722222222222,1138.25,111.99083333333333C1140.6666666666667,111.98444444444443,1143.0833333333333,111.97805555555556,1145.5,111.97166666666666C1147.9166666666667,111.96527777777777,1150.3333333333333,111.9588888888889,1152.75,111.9525C1155.1666666666667,111.94611111111111,1157.5833333333333,111.93972222222223,1160,111.93333333333334C1162.4166666666667,111.92694444444444,1164.8333333333333,111.92055555555555,1167.25,111.91416666666666C1169.6666666666667,111.90777777777777,1172.0833333333333,111.90138888888889,1174.5,111.895C1176.9166666666667,111.8886111111111,1179.3333333333333,111.88222222222223,1181.75,111.87583333333333C1184.1666666666667,111.86944444444444,1186.5833333333333,111.86305555555556,1189,111.85666666666667C1191.4166666666667,111.85027777777778,1193.8333333333333,111.8438888888889,1196.25,111.8375C1198.6666666666667,111.83111111111111,1201.0833333333333,111.82472222222223,1203.5,111.81833333333334C1205.9166666666667,111.81194444444445,1208.3333333333333,111.80555555555556,1210.75,111.79916666666666C1213.1666666666667,111.79277777777777,1215.5833333333333,111.7863888888889,1218,111.78C1220.4166666666667,111.77361111111111,1222.8333333333333,111.76722222222223,1225.25,111.76083333333334C1227.6666666666667,111.75444444444445,1230.0833333333333,111.74805555555557,1232.5,111.74166666666667C1234.9166666666667,111.73527777777778,1237.3333333333333,111.72888888888889,1239.75,111.7225C1242.1666666666667,111.7161111111111,1244.5833333333333,111.70972222222223,1247,111.70333333333333C1249.4166666666667,111.69694444444444,1251.8333333333333,111.69055555555555,1254.25,111.68416666666666C1256.6666666666667,111.67777777777776,1259.0833333333333,111.67138888888888,1261.5,111.66499999999999C1263.9166666666667,111.6586111111111,1266.3333333333333,111.65222222222222,1268.75,111.64583333333333C1271.1666666666667,111.63944444444444,1273.5833333333333,111.63305555555556,1276,111.62666666666667C1278.4166666666667,111.62027777777777,1280.8333333333333,111.6138888888889,1283.25,111.6075C1285.6666666666667,111.60111111111111,1288.0833333333333,111.59472222222223,1290.5,111.58833333333334C1292.9166666666667,111.58194444444445,1295.3333333333333,111.57555555555555,1297.75,111.56916666666666C1300.1666666666667,111.56277777777777,1302.5833333333333,111.56277777777777,1305,111.55C1307.4166666666667,111.53722222222223,1309.8333333333333,108.48333333333332,1312.25,106.94999999999999C1314.6666666666667,105.41666666666666,1317.0833333333333,103.88333333333334,1319.5,102.35000000000001C1321.9166666666667,100.81666666666668,1324.3333333333333,99.28333333333333,1326.75,97.75C1329.1666666666667,96.21666666666667,1331.5833333333333,94.68333333333334,1334,93.15C1336.4166666666667,91.61666666666667,1338.8333333333333,90.08333333333333,1341.25,88.55C1343.6666666666667,87.01666666666667,1346.0833333333333,85.48333333333333,1348.5,83.95C1350.9166666666667,82.41666666666667,1353.3333333333333,80.88333333333333,1355.75,79.35C1358.1666666666667,77.81666666666666,1360.5833333333333,76.28333333333333,1363,74.75C1365.4166666666667,73.21666666666667,1367.8333333333333,71.68333333333332,1370.25,70.14999999999999C1372.6666666666667,68.61666666666666,1375.0833333333333,67.08333333333334,1377.5,65.55000000000001C1379.9166666666667,64.01666666666668,1382.3333333333333,62.483333333333334,1384.75,60.95C1387.1666666666667,59.41666666666667,1389.5833333333333,57.88333333333334,1392,56.35C1394.4166666666667,54.81666666666666,1396.8333333333333,53.283333333333324,1399.25,51.74999999999999C1401.6666666666667,50.21666666666666,1404.0833333333333,48.68333333333334,1406.5,47.150000000000006C1408.9166666666667,45.616666666666674,1411.3333333333333,44.08333333333333,1413.75,42.55C1416.1666666666667,41.016666666666666,1418.5833333333333,39.48333333333333,1421,37.949999999999996C1423.4166666666667,36.416666666666664,1425.8333333333333,34.88333333333333,1428.25,33.35C1430.6666666666667,31.81666666666667,1433.0833333333333,30.283333333333335,1435.5,28.75C1437.9166666666667,27.216666666666665,1440.3333333333333,25.683333333333326,1442.75,24.149999999999995C1445.1666666666667,22.616666666666664,1447.5833333333333,21.083333333333332,1450,19.550000000000004" fill="transparent" stroke-linecap="round" stroke="#B6509E" stroke-width="2"></path><path class="visx-linepath" d="M0,103.49999999997445C2.4166666666666665,103.49574074072584,4.833333333333334,103.49148148147722,7.25,103.48722222222221C9.666666666666666,103.4829629629672,12.083333333333334,103.4787037037037,14.5,103.47444444444444C16.916666666666668,103.47018518518519,19.333333333333332,103.46592592592592,21.75,103.46166666666666C24.166666666666668,103.4574074074074,26.583333333333332,103.45314814814814,29,103.44888888888889C31.416666666666668,103.44462962962963,33.833333333333336,103.44037037037037,36.25,103.43611111111112C38.666666666666664,103.43185185185186,41.083333333333336,103.42759259259259,43.5,103.42333333333333C45.91666666666667,103.41907407407408,48.333333333333336,103.41481481481482,50.75000000000001,103.41055555555556C53.16666666666667,103.4062962962963,55.583333333333336,103.40203703703703,58,103.39777777777778C60.416666666666664,103.39351851851852,62.833333333333336,103.38925925925926,65.25,103.385C67.66666666666667,103.38074074074075,70.08333333333333,103.37648148148148,72.5,103.37222222222222C74.91666666666667,103.36796296296296,77.33333333333333,103.3637037037037,79.75,103.35944444444445C82.16666666666667,103.35518518518519,84.58333333333333,103.35092592592594,87,103.34666666666668C89.41666666666667,103.34240740740742,91.83333333333333,103.33814814814815,94.25,103.3338888888889C96.66666666666667,103.32962962962964,99.08333333333334,103.32537037037038,101.50000000000001,103.32111111111112C103.91666666666667,103.31685185185187,106.33333333333334,103.3125925925926,108.75,103.30833333333334C111.16666666666667,103.30407407407408,113.58333333333333,103.29981481481482,116,103.29555555555557C118.41666666666667,103.29129629629631,120.83333333333334,103.28703703703704,123.25000000000001,103.28277777777778C125.66666666666667,103.27851851851852,128.08333333333334,103.27425925925925,130.5,103.27C132.91666666666666,103.26574074074074,135.33333333333334,103.26148148148148,137.75,103.25722222222223C140.16666666666666,103.25296296296297,142.58333333333334,103.2487037037037,145,103.24444444444444C147.41666666666666,103.24018518518518,149.83333333333334,103.23592592592591,152.25,103.23166666666665C154.66666666666666,103.2274074074074,157.08333333333334,103.22314814814814,159.5,103.21888888888888C161.91666666666666,103.21462962962963,164.33333333333334,103.21037037037037,166.75,103.20611111111111C169.16666666666666,103.20185185185186,171.58333333333334,103.19759259259258,174,103.19333333333333C176.41666666666666,103.18907407407407,178.83333333333334,103.18481481481481,181.25,103.18055555555556C183.66666666666666,103.1762962962963,186.08333333333334,103.17203703703703,188.5,103.16777777777777C190.91666666666666,103.16351851851852,193.33333333333334,103.15925925925926,195.75,103.155C198.16666666666669,103.15074074074074,200.58333333333334,103.14648148148147,203.00000000000003,103.14222222222222C205.41666666666669,103.13796296296296,207.83333333333331,103.1337037037037,210.24999999999997,103.12944444444445C212.66666666666666,103.12518518518519,215.08333333333331,103.12092592592593,217.5,103.11666666666667C219.91666666666666,103.11240740740742,222.33333333333334,103.10814814814815,224.75,103.10388888888889C227.16666666666666,103.09962962962963,229.58333333333334,103.09537037037036,232,103.0911111111111C234.41666666666666,103.08685185185185,236.83333333333334,103.08259259259259,239.25,103.07833333333333C241.66666666666669,103.07407407407408,244.08333333333334,103.06981481481482,246.50000000000003,103.06555555555556C248.91666666666669,103.0612962962963,251.33333333333331,103.05703703703703,253.74999999999997,103.05277777777778C256.16666666666663,103.04851851851852,258.5833333333333,103.04425925925926,261,103.04C263.4166666666667,103.03574074074075,265.8333333333333,103.03148148148148,268.25,103.02722222222222C270.6666666666667,103.02296296296296,273.0833333333333,103.01870370370371,275.5,103.01444444444445C277.9166666666667,103.0101851851852,280.3333333333333,103.00592592592592,282.75,103.00166666666667C285.1666666666667,102.99740740740741,287.5833333333333,102.99314814814815,290,102.9888888888889C292.4166666666667,102.98462962962964,294.8333333333333,102.98037037037037,297.25,102.97611111111111C299.6666666666667,102.97185185185185,302.0833333333333,102.9675925925926,304.5,102.96333333333334C306.9166666666667,102.95907407407408,309.3333333333333,102.95481481481481,311.75,102.95055555555555C314.1666666666667,102.9462962962963,316.5833333333333,102.94203703703703,319,102.93777777777777C321.4166666666667,102.93351851851851,323.8333333333333,102.92925925925925,326.25,102.925C328.6666666666667,102.92074074074074,331.0833333333333,102.91648148148147,333.5,102.91222222222221C335.9166666666667,102.90796296296296,338.3333333333333,102.9037037037037,340.75,102.89944444444444C343.1666666666667,102.89518518518518,345.5833333333333,102.89092592592593,348,102.88666666666667C350.4166666666667,102.88240740740741,352.8333333333333,102.87814814814814,355.25,102.87388888888889C357.6666666666667,102.86962962962963,360.0833333333333,102.86537037037037,362.5,102.86111111111111C364.9166666666667,102.85685185185186,367.3333333333333,102.85259259259259,369.75,102.84833333333333C372.1666666666667,102.84407407407407,374.5833333333333,102.83981481481482,377,102.83555555555556C379.4166666666667,102.8312962962963,381.8333333333333,102.82703703703703,384.25,102.82277777777777C386.6666666666667,102.81851851851852,389.0833333333333,102.81425925925926,391.5,102.81C393.9166666666667,102.80574074074075,396.33333333333337,102.80148148148149,398.75000000000006,102.79722222222223C401.16666666666674,102.79296296296297,403.58333333333337,102.7887037037037,406.00000000000006,102.78444444444445C408.4166666666667,102.78018518518519,410.8333333333333,102.77592592592592,413.24999999999994,102.77166666666666C415.66666666666663,102.7674074074074,418.08333333333326,102.76314814814815,420.49999999999994,102.75888888888889C422.91666666666663,102.75462962962963,425.3333333333333,102.75037037037038,427.75,102.74611111111112C430.1666666666667,102.74185185185186,432.5833333333333,102.73759259259259,435,102.73333333333333C437.4166666666667,102.72907407407408,439.8333333333333,102.72481481481482,442.25,102.72055555555556C444.6666666666667,102.7162962962963,447.0833333333333,102.71203703703704,449.5,102.70777777777778C451.9166666666667,102.70351851851852,454.3333333333333,102.69925925925926,456.75,102.69500000000001C459.1666666666667,102.69074074074075,461.5833333333333,102.68648148148148,464,102.68222222222222C466.4166666666667,102.67796296296297,468.8333333333333,102.67370370370371,471.25,102.66944444444445C473.6666666666667,102.6651851851852,476.0833333333333,102.66092592592592,478.5,102.65666666666667C480.9166666666667,102.65240740740741,483.33333333333337,102.64814814814814,485.75000000000006,102.64388888888888C488.16666666666674,102.63962962962962,490.58333333333337,102.63537037037035,493.00000000000006,102.6311111111111C495.4166666666667,102.62685185185184,497.8333333333333,102.62259259259258,500.24999999999994,102.61833333333333C502.66666666666663,102.61407407407407,505.08333333333326,102.60981481481481,507.49999999999994,102.60555555555555C509.91666666666663,102.6012962962963,512.3333333333333,102.59703703703703,514.75,102.59277777777777C517.1666666666666,102.58851851851851,519.5833333333334,102.58425925925926,522,102.58C524.4166666666666,102.57574074074074,526.8333333333334,102.57148148148147,529.25,102.56722222222221C531.6666666666666,102.56296296296296,534.0833333333334,102.5587037037037,536.5,102.55444444444444C538.9166666666666,102.55018518518519,541.3333333333334,102.54592592592591,543.75,102.54166666666666C546.1666666666666,102.5374074074074,548.5833333333334,102.53314814814814,551,102.52888888888889C553.4166666666666,102.52462962962963,555.8333333333334,102.52037037037037,558.25,102.51611111111112C560.6666666666666,102.51185185185186,563.0833333333334,102.50759259259259,565.5,102.50333333333333C567.9166666666666,102.49907407407407,570.3333333333334,102.49481481481482,572.75,102.49055555555556C575.1666666666666,102.4862962962963,577.5833333333334,102.48203703703705,580,102.47777777777779C582.4166666666666,102.47351851851853,584.8333333333334,102.46925925925926,587.25,102.465C589.6666666666666,102.46074074074075,592.0833333333334,102.45648148148148,594.5,102.45222222222222C596.9166666666666,102.44796296296296,599.3333333333334,102.4437037037037,601.75,102.43944444444445C604.1666666666666,102.43518518518519,606.5833333333334,102.43092592592593,609,102.42666666666668C611.4166666666666,102.42240740740742,613.8333333333334,102.41814814814815,616.25,102.41388888888889C618.6666666666666,102.40962962962963,621.0833333333334,102.40537037037038,623.5,102.40111111111112C625.9166666666666,102.39685185185186,628.3333333333334,102.39259259259259,630.75,102.38833333333334C633.1666666666666,102.38407407407408,635.5833333333334,102.37981481481482,638,102.37555555555556C640.4166666666666,102.37129629629631,642.8333333333334,102.36703703703704,645.25,102.36277777777778C647.6666666666666,102.35851851851852,650.0833333333334,102.35425925925927,652.5,102.35000000000001C654.9166666666666,102.34574074074075,657.3333333333334,102.34148148148148,659.75,102.33722222222222C662.1666666666666,102.33296296296297,664.5833333333334,102.3287037037037,667,102.32444444444444C669.4166666666666,102.32018518518518,671.8333333333334,102.31592592592591,674.25,102.31166666666665C676.6666666666666,102.3074074074074,679.0833333333334,102.30314814814814,681.5,102.29888888888888C683.9166666666666,102.29462962962963,686.3333333333334,102.29037037037037,688.75,102.28611111111111C691.1666666666666,102.28185185185185,693.5833333333334,102.27759259259258,696,102.27333333333333C698.4166666666666,102.26907407407407,700.8333333333334,102.26481481481481,703.25,102.26055555555556C705.6666666666666,102.2562962962963,708.0833333333334,102.25203703703703,710.5,102.24777777777777C712.9166666666666,102.24351851851851,715.3333333333334,102.23925925925926,717.75,102.235C720.1666666666666,102.23074074074074,722.5833333333334,102.22648148148147,725,102.22222222222221C727.4166666666666,102.21796296296296,729.8333333333334,102.2137037037037,732.25,102.20944444444444C734.6666666666666,102.20518518518519,737.0833333333334,102.20092592592593,739.5,102.19666666666667C741.9166666666666,102.19240740740742,744.3333333333334,102.18814814814814,746.75,102.18388888888889C749.1666666666666,102.17962962962963,751.5833333333334,102.17537037037036,754,102.1711111111111C756.4166666666666,102.16685185185185,758.8333333333334,102.16259259259259,761.25,102.15833333333333C763.6666666666666,102.15407407407407,766.0833333333334,102.14981481481482,768.5,102.14555555555556C770.9166666666666,102.1412962962963,773.3333333333334,102.13703703703703,775.75,102.13277777777778C778.1666666666666,102.12851851851852,780.5833333333334,102.12425925925926,783,102.12C785.4166666666667,102.11574074074075,787.8333333333334,102.11148148148149,790.2500000000001,102.10722222222223C792.6666666666667,102.10296296296298,795.0833333333335,102.0987037037037,797.5000000000001,102.09444444444445C799.9166666666667,102.09018518518519,802.3333333333335,102.08592592592593,804.7500000000001,102.08166666666668C807.1666666666667,102.07740740740742,809.5833333333335,102.07314814814815,812.0000000000001,102.06888888888889C814.4166666666667,102.06462962962964,816.8333333333333,102.06037037037038,819.2499999999999,102.05611111111112C821.6666666666665,102.05185185185186,824.0833333333333,102.0475925925926,826.4999999999999,102.04333333333334C828.9166666666665,102.03907407407408,831.3333333333333,102.03481481481481,833.7499999999999,102.03055555555555C836.1666666666665,102.0262962962963,838.5833333333333,102.02203703703704,840.9999999999999,102.01777777777778C843.4166666666666,102.01351851851852,845.8333333333333,102.00925925925925,848.25,102.005C850.6666666666666,102.00074074074074,853.0833333333334,101.99648148148147,855.5,101.99222222222221C857.9166666666666,101.98796296296295,860.3333333333334,101.9837037037037,862.75,101.97944444444444C865.1666666666666,101.97518518518518,867.5833333333334,101.97092592592593,870,101.96666666666667C872.4166666666666,101.96240740740741,874.8333333333334,101.95814814814814,877.25,101.95388888888888C879.6666666666666,101.94962962962963,882.0833333333334,101.94537037037037,884.5,101.94111111111111C886.9166666666666,101.93685185185186,889.3333333333334,101.93259259259258,891.75,101.92833333333333C894.1666666666666,101.92407407407407,896.5833333333334,101.91981481481481,899,101.91555555555556C901.4166666666666,101.9112962962963,903.8333333333334,101.90703703703703,906.25,101.90277777777777C908.6666666666666,101.89851851851851,911.0833333333334,101.89425925925926,913.5,101.89C915.9166666666666,101.88574074074074,918.3333333333334,101.88148148148149,920.75,101.87722222222223C923.1666666666666,101.87296296296297,925.5833333333334,101.8687037037037,928,101.86444444444444C930.4166666666666,101.86018518518519,932.8333333333334,101.85592592592592,935.25,101.85166666666666C937.6666666666666,101.8474074074074,940.0833333333334,101.84314814814815,942.5,101.83888888888889C944.9166666666666,101.83462962962963,947.3333333333334,101.83037037037037,949.75,101.82611111111112C952.1666666666666,101.82185185185186,954.5833333333334,101.81759259259259,957,101.81333333333333C959.4166666666666,101.80907407407408,961.8333333333334,101.80481481481482,964.25,101.80055555555556C966.6666666666667,101.7962962962963,969.0833333333334,101.79203703703703,971.5000000000001,101.78777777777778C973.9166666666667,101.78351851851852,976.3333333333335,101.77925925925926,978.7500000000001,101.775C981.1666666666667,101.77074074074075,983.5833333333335,101.76648148148148,986.0000000000001,101.76222222222222C988.4166666666667,101.75796296296296,990.8333333333335,101.7537037037037,993.2500000000001,101.74944444444445C995.6666666666667,101.74518518518519,998.0833333333333,101.74092592592594,1000.4999999999999,101.73666666666668C1002.9166666666665,101.73240740740742,1005.3333333333333,101.72814814814815,1007.7499999999999,101.7238888888889C1010.1666666666665,101.71962962962964,1012.5833333333333,101.71537037037037,1014.9999999999999,101.71111111111111C1017.4166666666665,101.70685185185185,1019.8333333333333,101.70259259259258,1022.2499999999999,101.69833333333332C1024.6666666666665,101.69407407407407,1027.0833333333333,101.68981481481481,1029.5,101.68555555555555C1031.9166666666667,101.6812962962963,1034.3333333333333,101.67703703703702,1036.75,101.67277777777777C1039.1666666666667,101.66851851851851,1041.5833333333333,101.66425925925925,1044,101.66C1046.4166666666667,101.65574074074074,1048.8333333333333,101.65148148148148,1051.25,101.64722222222223C1053.6666666666667,101.64296296296297,1056.0833333333333,101.6387037037037,1058.5,101.63444444444444C1060.9166666666667,101.63018518518518,1063.3333333333333,101.62592592592593,1065.75,101.62166666666667C1068.1666666666667,101.61740740740741,1070.5833333333333,101.61314814814814,1073,101.60888888888888C1075.4166666666667,101.60462962962963,1077.8333333333333,101.60037037037037,1080.25,101.59611111111111C1082.6666666666667,101.59185185185186,1085.0833333333333,101.58759259259259,1087.5,101.58333333333333C1089.9166666666667,101.57907407407407,1092.3333333333333,101.57481481481481,1094.75,101.57055555555556C1097.1666666666667,101.5662962962963,1099.5833333333333,101.56203703703704,1102,101.55777777777779C1104.4166666666667,101.55351851851853,1106.8333333333333,101.54925925925926,1109.25,101.545C1111.6666666666667,101.54074074074074,1114.0833333333333,101.53648148148147,1116.5,101.53222222222222C1118.9166666666667,101.52796296296296,1121.3333333333333,101.5237037037037,1123.75,101.51944444444445C1126.1666666666667,101.51518518518519,1128.5833333333333,101.51092592592593,1131,101.50666666666667C1133.4166666666667,101.50240740740742,1135.8333333333333,101.49814814814815,1138.25,101.49388888888889C1140.6666666666667,101.48962962962963,1143.0833333333333,101.48537037037038,1145.5,101.48111111111112C1147.9166666666667,101.47685185185186,1150.3333333333333,101.47259259259259,1152.75,101.46833333333333C1155.1666666666667,101.46407407407408,1157.5833333333333,101.45981481481482,1160,101.45555555555556C1162.4166666666667,101.4512962962963,1164.8333333333333,101.44703703703703,1167.25,101.44277777777778C1169.6666666666667,101.43851851851852,1172.0833333333333,101.43425925925926,1174.5,101.43C1176.9166666666667,101.42574074074075,1179.3333333333333,101.42148148148148,1181.75,101.41722222222222C1184.1666666666667,101.41296296296296,1186.5833333333333,101.4087037037037,1189,101.40444444444444C1191.4166666666667,101.40018518518518,1193.8333333333333,101.39592592592592,1196.25,101.39166666666667C1198.6666666666667,101.38740740740741,1201.0833333333333,101.38314814814814,1203.5,101.37888888888888C1205.9166666666667,101.37462962962962,1208.3333333333333,101.37037037037037,1210.75,101.36611111111111C1213.1666666666667,101.36185185185185,1215.5833333333333,101.35759259259258,1218,101.35333333333332C1220.4166666666667,101.34907407407407,1222.8333333333333,101.34481481481481,1225.25,101.34055555555555C1227.6666666666667,101.3362962962963,1230.0833333333333,101.33203703703703,1232.5,101.32777777777777C1234.9166666666667,101.32351851851851,1237.3333333333333,101.31925925925925,1239.75,101.315C1242.1666666666667,101.31074074074074,1244.5833333333333,101.30648148148147,1247,101.30222222222221C1249.4166666666667,101.29796296296296,1251.8333333333333,101.2937037037037,1254.25,101.28944444444444C1256.6666666666667,101.28518518518518,1259.0833333333333,101.28092592592593,1261.5,101.27666666666667C1263.9166666666667,101.27240740740741,1266.3333333333333,101.26814814814814,1268.75,101.26388888888889C1271.1666666666667,101.25962962962963,1273.5833333333333,101.25537037037037,1276,101.25111111111111C1278.4166666666667,101.24685185185186,1280.8333333333333,101.24259259259259,1283.25,101.23833333333333C1285.6666666666667,101.23407407407407,1288.0833333333333,101.22981481481482,1290.5,101.22555555555556C1292.9166666666667,101.2212962962963,1295.3333333333333,101.21703703703703,1297.75,101.21277777777777C1300.1666666666667,101.20851851851852,1302.5833333333333,101.20851851851852,1305,101.2C1307.4166666666667,101.19148148148149,1309.8333333333333,98.325,1312.25,96.8875C1314.6666666666667,95.45,1317.0833333333333,94.01249999999999,1319.5,92.57499999999999C1321.9166666666667,91.13749999999999,1324.3333333333333,89.69999999999999,1326.75,88.26249999999999C1329.1666666666667,86.82499999999999,1331.5833333333333,85.3875,1334,83.95C1336.4166666666667,82.5125,1338.8333333333333,81.075,1341.25,79.6375C1343.6666666666667,78.2,1346.0833333333333,76.7625,1348.5,75.325C1350.9166666666667,73.8875,1353.3333333333333,72.44999999999999,1355.75,71.01249999999999C1358.1666666666667,69.57499999999999,1360.5833333333333,68.1375,1363,66.7C1365.4166666666667,65.2625,1367.8333333333333,63.824999999999996,1370.25,62.387499999999996C1372.6666666666667,60.949999999999996,1375.0833333333333,59.5125,1377.5,58.075C1379.9166666666667,56.6375,1382.3333333333333,55.2,1384.75,53.7625C1387.1666666666667,52.325,1389.5833333333333,50.8875,1392,49.45C1394.4166666666667,48.0125,1396.8333333333333,46.574999999999996,1399.25,45.137499999999996C1401.6666666666667,43.699999999999996,1404.0833333333333,42.262499999999996,1406.5,40.824999999999996C1408.9166666666667,39.387499999999996,1411.3333333333333,37.95,1413.75,36.5125C1416.1666666666667,35.075,1418.5833333333333,33.6375,1421,32.2C1423.4166666666667,30.762500000000003,1425.8333333333333,29.325000000000006,1428.25,27.887500000000006C1430.6666666666667,26.450000000000006,1433.0833333333333,25.012499999999996,1435.5,23.574999999999996C1437.9166666666667,22.137499999999996,1440.3333333333333,20.7,1442.75,19.2625C1445.1666666666667,17.825,1447.5833333333333,16.3875,1450,14.950000000000001" fill="transparent" stroke-linecap="round" stroke="#E7C6DF" stroke-width="2"></path><g class="visx-group visx-axis visx-axis-bottom" transform="translate(0, 115)"><g class="visx-group visx-axis-tick" transform="translate(0, 0)"><line class="visx-line" x1="0" y1="0" x2="0" y2="8" fill="transparent" shape-rendering="crispEdges" stroke="#000" stroke-width="0" stroke-linecap="square"></line><svg x="0" y="0" font-size="10" style="overflow:visible"><text transform="" x="0" y="18" fill="#000" font-size="10" text-anchor="middle"><tspan x="0" dy="0em">0%</tspan></text></svg></g><g class="visx-group visx-axis-tick" transform="translate(0, 0)"><line class="visx-line" x1="362.5" y1="0" x2="362.5" y2="8" fill="transparent" shape-rendering="crispEdges" stroke="#000" stroke-width="0" stroke-linecap="square"></line><svg x="0" y="0" font-size="10" style="overflow:visible"><text transform="" x="362.5" y="18" fill="#000" font-size="10" text-anchor="middle"><tspan x="362.5" dy="0em">25%</tspan></text></svg></g><g class="visx-group visx-axis-tick" transform="translate(0, 0)"><line class="visx-line" x1="725" y1="0" x2="725" y2="8" fill="transparent" shape-rendering="crispEdges" stroke="#000" stroke-width="0" stroke-linecap="square"></line><svg x="0" y="0" font-size="10" style="overflow:visible"><text transform="" x="725" y="18" fill="#000" font-size="10" text-anchor="middle"><tspan x="725" dy="0em">50%</tspan></text></svg></g><g class="visx-group visx-axis-tick" transform="translate(0, 0)"><line class="visx-line" x1="1087.5" y1="0" x2="1087.5" y2="8" fill="transparent" shape-rendering="crispEdges" stroke="#000" stroke-width="0" stroke-linecap="square"></line><svg x="0" y="0" font-size="10" style="overflow:visible"><text transform="" x="1087.5" y="18" fill="#000" font-size="10" text-anchor="middle"><tspan x="1087.5" dy="0em">75%</tspan></text></svg></g><g class="visx-group visx-axis-tick" transform="translate(0, 0)"><line class="visx-line" x1="1450" y1="0" x2="1450" y2="8" fill="transparent" shape-rendering="crispEdges" stroke="#000" stroke-width="0" stroke-linecap="square"></line><svg x="0" y="0" font-size="10" style="overflow:visible"><text transform="" x="1450" y="18" fill="#000" font-size="10" text-anchor="middle"><tspan x="1450" dy="0em">100%</tspan></text></svg></g><line class="visx-line visx-axis-line" x1="0.5" y1="0" x2="1450.5" y2="0" fill="transparent" shape-rendering="crispEdges" stroke="#222" stroke-width="0"></line></g><g class="visx-group visx-axis visx-axis-left" transform="translate(0, 0)"><g class="visx-group visx-axis-tick" transform="translate(0, 0)"><line class="visx-line" x1="0" y1="115" x2="-8" y2="115" fill="transparent" shape-rendering="crispEdges" stroke="#222" stroke-width="0" stroke-linecap="square"></line><svg x="-30" y="0" font-size="8" style="overflow:visible"><text transform="" x="-8" y="115" fill="#000" font-size="8" text-anchor="start"><tspan x="-8" dy="0em">0%</tspan></text></svg></g><g class="visx-group visx-axis-tick" transform="translate(0, 0)"><line class="visx-line" x1="0" y1="57.5" x2="-8" y2="57.5" fill="transparent" shape-rendering="crispEdges" stroke="#222" stroke-width="0" stroke-linecap="square"></line><svg x="-30" y="0" font-size="8" style="overflow:visible"><text transform="" x="-8" y="57.5" fill="#000" font-size="8" text-anchor="start"><tspan x="-8" dy="0em">50%</tspan></text></svg></g><g class="visx-group visx-axis-tick" transform="translate(0, 0)"><line class="visx-line" x1="0" y1="0" x2="-8" y2="0" fill="transparent" shape-rendering="crispEdges" stroke="#222" stroke-width="0" stroke-linecap="square"></line><svg x="-30" y="0" font-size="8" style="overflow:visible"><text transform="" x="-8" y="0" fill="#000" font-size="8" text-anchor="start"><tspan x="-8" dy="0em">100%</tspan></text></svg></g><line class="visx-line visx-axis-line" x1="0" y1="115.5" x2="0" y2="0.5" fill="transparent" shape-rendering="crispEdges" stroke="#222" stroke-width="0"></line></g><rect class="visx-bar" width="1450" height="115" fill="transparent"></rect><line class="visx-line" x1="1305" y1="28" x2="1305" y2="115" fill="transparent" shape-rendering="crispEdges" stroke="#0062D2" stroke-width="1" pointer-events="none" stroke-dasharray="5,2"></line><svg x="0" y="0" font-size="10px" style="overflow:visible"><text transform="" x="1305" y="20" font-size="10px" fill="#fff" stroke="#fff" stroke-width="0.8em" text-anchor="middle"><tspan x="1305" dy="0.355em">Optimal 90%</tspan></text></svg><svg x="0" y="0" font-size="10px" style="overflow:visible"><text transform="" x="1305" y="20" font-size="10px" fill="#62677B" text-anchor="middle"><tspan x="1305" dy="0.355em">Optimal 90%</tspan></text></svg></g></svg>