<?xml version="1.0"?><svg xmlns="http://www.w3.org/2000/svg" xmlns:xlink= "http://www.w3.org/1999/xlink" style="background: white;" width="1500" height="185"> <g style="color: black; font-size: 13px; font-family: sans-serif; transform: translate(18px, 25px);"><g><circle r="3" cx="-6" cy="-5" style="fill: #B6509E" /><text>Borrow APR, variable</text></g><g style="transform: translateX(150px);"><circle r="3" cx="-6" cy="-5" style="fill: rgb(231, 198, 223)" /><text>Borrow APR, stable</text></g><g style="transform: translateX(290px);"><circle r="3" cx="-6" cy="-5" style="fill: rgb(0, 98, 210)" /><text>Utilization Rate</text></g></g><g class="visx-group" transform="translate(40, 50)"><g class="visx-group visx-rows" transform="translate(0, 0)"><line class="visx-line" x1="0" y1="115" x2="1450" y2="115" fill="transparent" shape-rendering="crispEdges" stroke="#000" stroke-width="1" stroke-dasharray="3,3" pointer-events="none"></line><line class="visx-line" x1="0" y1="76.66666666666667" x2="1450" y2="76.66666666666667" fill="transparent" shape-rendering="crispEdges" stroke="#000" stroke-width="1" stroke-dasharray="3,3" pointer-events="none"></line><line class="visx-line" x1="0" y1="38.333333333333336" x2="1450" y2="38.333333333333336" fill="transparent" shape-rendering="crispEdges" stroke="#000" stroke-width="1" stroke-dasharray="3,3" pointer-events="none"></line><line class="visx-line" x1="0" y1="0" x2="1450" y2="0" fill="transparent" shape-rendering="crispEdges" stroke="#000" stroke-width="1" stroke-dasharray="3,3" pointer-events="none"></line></g><path class="visx-linepath" d="M0,0C2.4166666666666665,7.474999999999993,4.833333333333334,14.949999999999989,7.25,14.949999999999989C9.666666666666666,14.949999999999989,12.083333333333334,14.949999999999989,14.5,14.949999999999989C16.916666666666668,14.949999999999989,19.333333333333332,14.949999999999989,21.75,14.949999999999989C24.166666666666668,14.949999999999989,26.583333333333332,14.949999999999989,29,14.949999999999989C31.416666666666668,14.949999999999989,33.833333333333336,14.949999999999989,36.25,14.949999999999989C38.666666666666664,14.949999999999989,41.083333333333336,14.949999999999989,43.5,14.949999999999989C45.91666666666667,14.949999999999989,48.333333333333336,14.949999999999989,50.75000000000001,14.949999999999989C53.16666666666667,14.949999999999989,55.583333333333336,14.949999999999989,58,14.949999999999989C60.416666666666664,14.949999999999989,62.833333333333336,14.949999999999989,65.25,14.949999999999989C67.66666666666667,14.949999999999989,70.08333333333333,14.949999999999989,72.5,14.949999999999989C74.91666666666667,14.949999999999989,77.33333333333333,14.949999999999989,79.75,14.949999999999989C82.16666666666667,14.949999999999989,84.58333333333333,14.949999999999989,87,14.949999999999989C89.41666666666667,14.949999999999989,91.83333333333333,14.949999999999989,94.25,14.949999999999989C96.66666666666667,14.949999999999989,99.08333333333334,14.949999999999989,101.50000000000001,14.949999999999989C103.91666666666667,14.949999999999989,106.33333333333334,14.949999999999989,108.75,14.949999999999989C111.16666666666667,14.949999999999989,113.58333333333333,14.949999999999989,116,14.949999999999989C118.41666666666667,14.949999999999989,120.83333333333334,14.949999999999989,123.25000000000001,14.949999999999989C125.66666666666667,14.949999999999989,128.08333333333334,14.949999999999989,130.5,14.949999999999989C132.91666666666666,14.949999999999989,135.33333333333334,14.949999999999989,137.75,14.949999999999989C140.16666666666666,14.949999999999989,142.58333333333334,14.949999999999989,145,14.949999999999989C147.41666666666666,14.949999999999989,149.83333333333334,14.949999999999989,152.25,14.949999999999989C154.66666666666666,14.949999999999989,157.08333333333334,14.949999999999989,159.5,14.949999999999989C161.91666666666666,14.949999999999989,164.33333333333334,14.949999999999989,166.75,14.949999999999989C169.16666666666666,14.949999999999989,171.58333333333334,14.949999999999989,174,14.949999999999989C176.41666666666666,14.949999999999989,178.83333333333334,14.949999999999989,181.25,14.949999999999989C183.66666666666666,14.949999999999989,186.08333333333334,14.949999999999989,188.5,14.949999999999989C190.91666666666666,14.949999999999989,193.33333333333334,14.949999999999989,195.75,14.949999999999989C198.16666666666669,14.949999999999989,200.58333333333334,14.949999999999989,203.00000000000003,14.949999999999989C205.41666666666669,14.949999999999989,207.83333333333331,14.949999999999989,210.24999999999997,14.949999999999989C212.66666666666666,14.949999999999989,215.08333333333331,14.949999999999989,217.5,14.949999999999989C219.91666666666666,14.949999999999989,222.33333333333334,14.949999999999989,224.75,14.949999999999989C227.16666666666666,14.949999999999989,229.58333333333334,14.949999999999989,232,14.949999999999989C234.41666666666666,14.949999999999989,236.83333333333334,14.949999999999989,239.25,14.949999999999989C241.66666666666669,14.949999999999989,244.08333333333334,14.949999999999989,246.50000000000003,14.949999999999989C248.91666666666669,14.949999999999989,251.33333333333331,14.949999999999989,253.74999999999997,14.949999999999989C256.16666666666663,14.949999999999989,258.5833333333333,14.949999999999989,261,14.949999999999989C263.4166666666667,14.949999999999989,265.8333333333333,14.949999999999989,268.25,14.949999999999989C270.6666666666667,14.949999999999989,273.0833333333333,14.949999999999989,275.5,14.949999999999989C277.9166666666667,14.949999999999989,280.3333333333333,14.949999999999989,282.75,14.949999999999989C285.1666666666667,14.949999999999989,287.5833333333333,14.949999999999989,290,14.949999999999989C292.4166666666667,14.949999999999989,294.8333333333333,14.949999999999989,297.25,14.949999999999989C299.6666666666667,14.949999999999989,302.0833333333333,14.949999999999989,304.5,14.949999999999989C306.9166666666667,14.949999999999989,309.3333333333333,14.949999999999989,311.75,14.949999999999989C314.1666666666667,14.949999999999989,316.5833333333333,14.949999999999989,319,14.949999999999989C321.4166666666667,14.949999999999989,323.8333333333333,14.949999999999989,326.25,14.949999999999989C328.6666666666667,14.949999999999989,331.0833333333333,14.949999999999989,333.5,14.949999999999989C335.9166666666667,14.949999999999989,338.3333333333333,14.949999999999989,340.75,14.949999999999989C343.1666666666667,14.949999999999989,345.5833333333333,14.949999999999989,348,14.949999999999989C350.4166666666667,14.949999999999989,352.8333333333333,14.949999999999989,355.25,14.949999999999989C357.6666666666667,14.949999999999989,360.0833333333333,14.949999999999989,362.5,14.949999999999989C364.9166666666667,14.949999999999989,367.3333333333333,14.949999999999989,369.75,14.949999999999989C372.1666666666667,14.949999999999989,374.5833333333333,14.949999999999989,377,14.949999999999989C379.4166666666667,14.949999999999989,381.8333333333333,14.949999999999989,384.25,14.949999999999989C386.6666666666667,14.949999999999989,389.0833333333333,14.949999999999989,391.5,14.949999999999989C393.9166666666667,14.949999999999989,396.33333333333337,14.949999999999989,398.75000000000006,14.949999999999989C401.16666666666674,14.949999999999989,403.58333333333337,14.949999999999989,406.00000000000006,14.949999999999989C408.4166666666667,14.949999999999989,410.8333333333333,14.949999999999989,413.24999999999994,14.949999999999989C415.66666666666663,14.949999999999989,418.08333333333326,14.949999999999989,420.49999999999994,14.949999999999989C422.91666666666663,14.949999999999989,425.3333333333333,14.949999999999989,427.75,14.949999999999989C430.1666666666667,14.949999999999989,432.5833333333333,14.949999999999989,435,14.949999999999989C437.4166666666667,14.949999999999989,439.8333333333333,14.949999999999989,442.25,14.949999999999989C444.6666666666667,14.949999999999989,447.0833333333333,14.949999999999989,449.5,14.949999999999989C451.9166666666667,14.949999999999989,454.3333333333333,14.949999999999989,456.75,14.949999999999989C459.1666666666667,14.949999999999989,461.5833333333333,14.949999999999989,464,14.949999999999989C466.4166666666667,14.949999999999989,468.8333333333333,14.949999999999989,471.25,14.949999999999989C473.6666666666667,14.949999999999989,476.0833333333333,14.949999999999989,478.5,14.949999999999989C480.9166666666667,14.949999999999989,483.33333333333337,14.949999999999989,485.75000000000006,14.949999999999989C488.16666666666674,14.949999999999989,490.58333333333337,14.949999999999989,493.00000000000006,14.949999999999989C495.4166666666667,14.949999999999989,497.8333333333333,14.949999999999989,500.24999999999994,14.949999999999989C502.66666666666663,14.949999999999989,505.08333333333326,14.949999999999989,507.49999999999994,14.949999999999989C509.91666666666663,14.949999999999989,512.3333333333333,14.949999999999989,514.75,14.949999999999989C517.1666666666666,14.949999999999989,519.5833333333334,14.949999999999989,522,14.949999999999989C524.4166666666666,14.949999999999989,526.8333333333334,14.949999999999989,529.25,14.949999999999989C531.6666666666666,14.949999999999989,534.0833333333334,14.949999999999989,536.5,14.949999999999989C538.9166666666666,14.949999999999989,541.3333333333334,14.949999999999989,543.75,14.949999999999989C546.1666666666666,14.949999999999989,548.5833333333334,14.949999999999989,551,14.949999999999989C553.4166666666666,14.949999999999989,555.8333333333334,14.949999999999989,558.25,14.949999999999989C560.6666666666666,14.949999999999989,563.0833333333334,14.949999999999989,565.5,14.949999999999989C567.9166666666666,14.949999999999989,570.3333333333334,14.949999999999989,572.75,14.949999999999989C575.1666666666666,14.949999999999989,577.5833333333334,14.949999999999989,580,14.949999999999989C582.4166666666666,14.949999999999989,584.8333333333334,14.949999999999989,587.25,14.949999999999989C589.6666666666666,14.949999999999989,592.0833333333334,14.949999999999989,594.5,14.949999999999989C596.9166666666666,14.949999999999989,599.3333333333334,14.949999999999989,601.75,14.949999999999989C604.1666666666666,14.949999999999989,606.5833333333334,14.949999999999989,609,14.949999999999989C611.4166666666666,14.949999999999989,613.8333333333334,14.949999999999989,616.25,14.949999999999989C618.6666666666666,14.949999999999989,621.0833333333334,14.949999999999989,623.5,14.949999999999989C625.9166666666666,14.949999999999989,628.3333333333334,14.949999999999989,630.75,14.949999999999989C633.1666666666666,14.949999999999989,635.5833333333334,14.949999999999989,638,14.949999999999989C640.4166666666666,14.949999999999989,642.8333333333334,14.949999999999989,645.25,14.949999999999989C647.6666666666666,14.949999999999989,650.0833333333334,14.949999999999989,652.5,14.949999999999989C654.9166666666666,14.949999999999989,657.3333333333334,14.949999999999989,659.75,14.949999999999989C662.1666666666666,14.949999999999989,664.5833333333334,14.949999999999989,667,14.949999999999989C669.4166666666666,14.949999999999989,671.8333333333334,14.949999999999989,674.25,14.949999999999989C676.6666666666666,14.949999999999989,679.0833333333334,14.949999999999989,681.5,14.949999999999989C683.9166666666666,14.949999999999989,686.3333333333334,14.949999999999989,688.75,14.949999999999989C691.1666666666666,14.949999999999989,693.5833333333334,14.949999999999989,696,14.949999999999989C698.4166666666666,14.949999999999989,700.8333333333334,14.949999999999989,703.25,14.949999999999989C705.6666666666666,14.949999999999989,708.0833333333334,14.949999999999989,710.5,14.949999999999989C712.9166666666666,14.949999999999989,715.3333333333334,14.949999999999989,717.75,14.949999999999989C720.1666666666666,14.949999999999989,722.5833333333334,14.949999999999989,725,14.949999999999989C727.4166666666666,14.949999999999989,729.8333333333334,14.949999999999989,732.25,14.949999999999989C734.6666666666666,14.949999999999989,737.0833333333334,14.949999999999989,739.5,14.949999999999989C741.9166666666666,14.949999999999989,744.3333333333334,14.949999999999989,746.75,14.949999999999989C749.1666666666666,14.949999999999989,751.5833333333334,14.949999999999989,754,14.949999999999989C756.4166666666666,14.949999999999989,758.8333333333334,14.949999999999989,761.25,14.949999999999989C763.6666666666666,14.949999999999989,766.0833333333334,14.949999999999989,768.5,14.949999999999989C770.9166666666666,14.949999999999989,773.3333333333334,14.949999999999989,775.75,14.949999999999989C778.1666666666666,14.949999999999989,780.5833333333334,14.949999999999989,783,14.949999999999989C785.4166666666667,14.949999999999989,787.8333333333334,14.949999999999989,790.2500000000001,14.949999999999989C792.6666666666667,14.949999999999989,795.0833333333335,14.949999999999989,797.5000000000001,14.949999999999989C799.9166666666667,14.949999999999989,802.3333333333335,14.949999999999989,804.7500000000001,14.949999999999989C807.1666666666667,14.949999999999989,809.5833333333335,14.949999999999989,812.0000000000001,14.949999999999989C814.4166666666667,14.949999999999989,816.8333333333333,14.949999999999989,819.2499999999999,14.949999999999989C821.6666666666665,14.949999999999989,824.0833333333333,14.949999999999989,826.4999999999999,14.949999999999989C828.9166666666665,14.949999999999989,831.3333333333333,14.949999999999989,833.7499999999999,14.949999999999989C836.1666666666665,14.949999999999989,838.5833333333333,14.949999999999989,840.9999999999999,14.949999999999989C843.4166666666666,14.949999999999989,845.8333333333333,14.949999999999989,848.25,14.949999999999989C850.6666666666666,14.949999999999989,853.0833333333334,14.949999999999989,855.5,14.949999999999989C857.9166666666666,14.949999999999989,860.3333333333334,14.949999999999989,862.75,14.949999999999989C865.1666666666666,14.949999999999989,867.5833333333334,14.949999999999989,870,14.949999999999989C872.4166666666666,14.949999999999989,874.8333333333334,14.949999999999989,877.25,14.949999999999989C879.6666666666666,14.949999999999989,882.0833333333334,14.949999999999989,884.5,14.949999999999989C886.9166666666666,14.949999999999989,889.3333333333334,14.949999999999989,891.75,14.949999999999989C894.1666666666666,14.949999999999989,896.5833333333334,14.949999999999989,899,14.949999999999989C901.4166666666666,14.949999999999989,903.8333333333334,14.949999999999989,906.25,14.949999999999989C908.6666666666666,14.949999999999989,911.0833333333334,14.949999999999989,913.5,14.949999999999989C915.9166666666666,14.949999999999989,918.3333333333334,14.949999999999989,920.75,14.949999999999989C923.1666666666666,14.949999999999989,925.5833333333334,14.949999999999989,928,14.949999999999989C930.4166666666666,14.949999999999989,932.8333333333334,14.949999999999989,935.25,14.949999999999989C937.6666666666666,14.949999999999989,940.0833333333334,14.949999999999989,942.5,14.949999999999989C944.9166666666666,14.949999999999989,947.3333333333334,14.949999999999989,949.75,14.949999999999989C952.1666666666666,14.949999999999989,954.5833333333334,14.949999999999989,957,14.949999999999989C959.4166666666666,14.949999999999989,961.8333333333334,14.949999999999989,964.25,14.949999999999989C966.6666666666667,14.949999999999989,969.0833333333334,14.949999999999989,971.5000000000001,14.949999999999989C973.9166666666667,14.949999999999989,976.3333333333335,14.949999999999989,978.7500000000001,14.949999999999989C981.1666666666667,14.949999999999989,983.5833333333335,14.949999999999989,986.0000000000001,14.949999999999989C988.4166666666667,14.949999999999989,990.8333333333335,14.949999999999989,993.2500000000001,14.949999999999989C995.6666666666667,14.949999999999989,998.0833333333333,14.949999999999989,1000.4999999999999,14.949999999999989C1002.9166666666665,14.949999999999989,1005.3333333333333,14.949999999999989,1007.7499999999999,14.949999999999989C1010.1666666666665,14.949999999999989,1012.5833333333333,14.949999999999989,1014.9999999999999,14.949999999999989C1017.4166666666665,14.949999999999989,1019.8333333333333,14.949999999999989,1022.2499999999999,14.949999999999989C1024.6666666666665,14.949999999999989,1027.0833333333333,14.949999999999989,1029.5,14.949999999999989C1031.9166666666667,14.949999999999989,1034.3333333333333,14.949999999999989,1036.75,14.949999999999989C1039.1666666666667,14.949999999999989,1041.5833333333333,14.949999999999989,1044,14.949999999999989C1046.4166666666667,14.949999999999989,1048.8333333333333,14.949999999999989,1051.25,14.949999999999989C1053.6666666666667,14.949999999999989,1056.0833333333333,14.949999999999989,1058.5,14.949999999999989C1060.9166666666667,14.949999999999989,1063.3333333333333,14.949999999999989,1065.75,14.949999999999989C1068.1666666666667,14.949999999999989,1070.5833333333333,14.949999999999989,1073,14.949999999999989C1075.4166666666667,14.949999999999989,1077.8333333333333,14.949999999999989,1080.25,14.949999999999989C1082.6666666666667,14.949999999999989,1085.0833333333333,14.949999999999989,1087.5,14.949999999999989C1089.9166666666667,14.949999999999989,1092.3333333333333,14.949999999999989,1094.75,14.949999999999989C1097.1666666666667,14.949999999999989,1099.5833333333333,14.949999999999989,1102,14.949999999999989C1104.4166666666667,14.949999999999989,1106.8333333333333,14.949999999999989,1109.25,14.949999999999989C1111.6666666666667,14.949999999999989,1114.0833333333333,14.949999999999989,1116.5,14.949999999999989C1118.9166666666667,14.949999999999989,1121.3333333333333,14.949999999999989,1123.75,14.949999999999989C1126.1666666666667,14.949999999999989,1128.5833333333333,14.949999999999989,1131,14.949999999999989C1133.4166666666667,14.949999999999989,1135.8333333333333,14.949999999999989,1138.25,14.949999999999989C1140.6666666666667,14.949999999999989,1143.0833333333333,14.949999999999989,1145.5,14.949999999999989C1147.9166666666667,14.949999999999989,1150.3333333333333,14.949999999999989,1152.75,14.949999999999989C1155.1666666666667,14.949999999999989,1157.5833333333333,14.949999999999989,1160,14.949999999999989C1162.4166666666667,14.949999999999989,1164.8333333333333,14.949999999999989,1167.25,14.949999999999989C1169.6666666666667,14.949999999999989,1172.0833333333333,14.949999999999989,1174.5,14.949999999999989C1176.9166666666667,14.949999999999989,1179.3333333333333,14.949999999999989,1181.75,14.949999999999989C1184.1666666666667,14.949999999999989,1186.5833333333333,14.949999999999989,1189,14.949999999999989C1191.4166666666667,14.949999999999989,1193.8333333333333,14.949999999999989,1196.25,14.949999999999989C1198.6666666666667,14.949999999999989,1201.0833333333333,14.949999999999989,1203.5,14.949999999999989C1205.9166666666667,14.949999999999989,1208.3333333333333,14.949999999999989,1210.75,14.949999999999989C1213.1666666666667,14.949999999999989,1215.5833333333333,14.949999999999989,1218,14.949999999999989C1220.4166666666667,14.949999999999989,1222.8333333333333,14.949999999999989,1225.25,14.949999999999989C1227.6666666666667,14.949999999999989,1230.0833333333333,14.949999999999989,1232.5,14.949999999999989C1234.9166666666667,14.949999999999989,1237.3333333333333,14.949999999999989,1239.75,14.949999999999989C1242.1666666666667,14.949999999999989,1244.5833333333333,14.949999999999989,1247,14.949999999999989C1249.4166666666667,14.949999999999989,1251.8333333333333,14.949999999999989,1254.25,14.949999999999989C1256.6666666666667,14.949999999999989,1259.0833333333333,14.949999999999989,1261.5,14.949999999999989C1263.9166666666667,14.949999999999989,1266.3333333333333,14.949999999999989,1268.75,14.949999999999989C1271.1666666666667,14.949999999999989,1273.5833333333333,14.949999999999989,1276,14.949999999999989C1278.4166666666667,14.949999999999989,1280.8333333333333,14.949999999999989,1283.25,14.949999999999989C1285.6666666666667,14.949999999999989,1288.0833333333333,14.949999999999989,1290.5,14.949999999999989C1292.9166666666667,14.949999999999989,1295.3333333333333,14.949999999999989,1297.75,14.949999999999989C1300.1666666666667,14.949999999999989,1302.5833333333333,14.949999999999989,1305,14.949999999999989C1307.4166666666667,14.949999999999989,1309.8333333333333,14.949999999999989,1312.25,14.949999999999989C1314.6666666666667,14.949999999999989,1317.0833333333333,14.949999999999989,1319.5,14.949999999999989C1321.9166666666667,14.949999999999989,1324.3333333333333,14.949999999999989,1326.75,14.949999999999989C1329.1666666666667,14.949999999999989,1331.5833333333333,14.949999999999989,1334,14.949999999999989C1336.4166666666667,14.949999999999989,1338.8333333333333,14.949999999999989,1341.25,14.949999999999989C1343.6666666666667,14.949999999999989,1346.0833333333333,14.949999999999989,1348.5,14.949999999999989C1350.9166666666667,14.949999999999989,1353.3333333333333,14.949999999999989,1355.75,14.949999999999989C1358.1666666666667,14.949999999999989,1360.5833333333333,14.949999999999989,1363,14.949999999999989C1365.4166666666667,14.949999999999989,1367.8333333333333,14.949999999999989,1370.25,14.949999999999989C1372.6666666666667,14.949999999999989,1375.0833333333333,14.949999999999989,1377.5,14.949999999999989C1379.9166666666667,14.949999999999989,1382.3333333333333,14.949999999999989,1384.75,14.949999999999989C1387.1666666666667,14.949999999999989,1389.5833333333333,14.949999999999989,1392,14.949999999999989C1394.4166666666667,14.949999999999989,1396.8333333333333,14.949999999999989,1399.25,14.949999999999989C1401.6666666666667,14.949999999999989,1404.0833333333333,14.949999999999989,1406.5,14.949999999999989C1408.9166666666667,14.949999999999989,1411.3333333333333,14.949999999999989,1413.75,14.949999999999989C1416.1666666666667,14.949999999999989,1418.5833333333333,14.949999999999989,1421,14.949999999999989C1423.4166666666667,14.949999999999989,1425.8333333333333,14.949999999999989,1428.25,14.949999999999989C1430.6666666666667,14.949999999999989,1433.0833333333333,14.949999999999989,1435.5,14.949999999999989C1437.9166666666667,14.949999999999989,1440.3333333333333,14.949999999999989,1442.75,14.949999999999989C1445.1666666666667,14.949999999999989,1447.5833333333333,14.949999999999989,1450,14.949999999999989" fill="transparent" stroke-linecap="round" stroke="#B6509E" stroke-width="2"></path><path class="visx-linepath" d="M0,0C2.4166666666666665,57.49999999999999,4.833333333333334,115,7.25,115C9.666666666666666,115,12.083333333333334,115,14.5,115C16.916666666666668,115,19.333333333333332,115,21.75,115C24.166666666666668,115,26.583333333333332,115,29,115C31.416666666666668,115,33.833333333333336,115,36.25,115C38.666666666666664,115,41.083333333333336,115,43.5,115C45.91666666666667,115,48.333333333333336,115,50.75000000000001,115C53.16666666666667,115,55.583333333333336,115,58,115C60.416666666666664,115,62.833333333333336,115,65.25,115C67.66666666666667,115,70.08333333333333,115,72.5,115C74.91666666666667,115,77.33333333333333,115,79.75,115C82.16666666666667,115,84.58333333333333,115,87,115C89.41666666666667,115,91.83333333333333,115,94.25,115C96.66666666666667,115,99.08333333333334,115,101.50000000000001,115C103.91666666666667,115,106.33333333333334,115,108.75,115C111.16666666666667,115,113.58333333333333,115,116,115C118.41666666666667,115,120.83333333333334,115,123.25000000000001,115C125.66666666666667,115,128.08333333333334,115,130.5,115C132.91666666666666,115,135.33333333333334,115,137.75,115C140.16666666666666,115,142.58333333333334,115,145,115C147.41666666666666,115,149.83333333333334,115,152.25,115C154.66666666666666,115,157.08333333333334,115,159.5,115C161.91666666666666,115,164.33333333333334,115,166.75,115C169.16666666666666,115,171.58333333333334,115,174,115C176.41666666666666,115,178.83333333333334,115,181.25,115C183.66666666666666,115,186.08333333333334,115,188.5,115C190.91666666666666,115,193.33333333333334,115,195.75,115C198.16666666666669,115,200.58333333333334,115,203.00000000000003,115C205.41666666666669,115,207.83333333333331,115,210.24999999999997,115C212.66666666666666,115,215.08333333333331,115,217.5,115C219.91666666666666,115,222.33333333333334,115,224.75,115C227.16666666666666,115,229.58333333333334,115,232,115C234.41666666666666,115,236.83333333333334,115,239.25,115C241.66666666666669,115,244.08333333333334,115,246.50000000000003,115C248.91666666666669,115,251.33333333333331,115,253.74999999999997,115C256.16666666666663,115,258.5833333333333,115,261,115C263.4166666666667,115,265.8333333333333,115,268.25,115C270.6666666666667,115,273.0833333333333,115,275.5,115C277.9166666666667,115,280.3333333333333,115,282.75,115C285.1666666666667,115,287.5833333333333,115,290,115C292.4166666666667,115,294.8333333333333,115,297.25,115C299.6666666666667,115,302.0833333333333,115,304.5,115C306.9166666666667,115,309.3333333333333,115,311.75,115C314.1666666666667,115,316.5833333333333,115,319,115C321.4166666666667,115,323.8333333333333,115,326.25,115C328.6666666666667,115,331.0833333333333,115,333.5,115C335.9166666666667,115,338.3333333333333,115,340.75,115C343.1666666666667,115,345.5833333333333,115,348,115C350.4166666666667,115,352.8333333333333,115,355.25,115C357.6666666666667,115,360.0833333333333,115,362.5,115C364.9166666666667,115,367.3333333333333,115,369.75,115C372.1666666666667,115,374.5833333333333,115,377,115C379.4166666666667,115,381.8333333333333,115,384.25,115C386.6666666666667,115,389.0833333333333,115,391.5,115C393.9166666666667,115,396.33333333333337,115,398.75000000000006,115C401.16666666666674,115,403.58333333333337,115,406.00000000000006,115C408.4166666666667,115,410.8333333333333,115,413.24999999999994,115C415.66666666666663,115,418.08333333333326,115,420.49999999999994,115C422.91666666666663,115,425.3333333333333,115,427.75,115C430.1666666666667,115,432.5833333333333,115,435,115C437.4166666666667,115,439.8333333333333,115,442.25,115C444.6666666666667,115,447.0833333333333,115,449.5,115C451.9166666666667,115,454.3333333333333,115,456.75,115C459.1666666666667,115,461.5833333333333,115,464,115C466.4166666666667,115,468.8333333333333,115,471.25,115C473.6666666666667,115,476.0833333333333,115,478.5,115C480.9166666666667,115,483.33333333333337,115,485.75000000000006,115C488.16666666666674,115,490.58333333333337,115,493.00000000000006,115C495.4166666666667,115,497.8333333333333,115,500.24999999999994,115C502.66666666666663,115,505.08333333333326,115,507.49999999999994,115C509.91666666666663,115,512.3333333333333,115,514.75,115C517.1666666666666,115,519.5833333333334,115,522,115C524.4166666666666,115,526.8333333333334,115,529.25,115C531.6666666666666,115,534.0833333333334,115,536.5,115C538.9166666666666,115,541.3333333333334,115,543.75,115C546.1666666666666,115,548.5833333333334,115,551,115C553.4166666666666,115,555.8333333333334,115,558.25,115C560.6666666666666,115,563.0833333333334,115,565.5,115C567.9166666666666,115,570.3333333333334,115,572.75,115C575.1666666666666,115,577.5833333333334,115,580,115C582.4166666666666,115,584.8333333333334,115,587.25,115C589.6666666666666,115,592.0833333333334,115,594.5,115C596.9166666666666,115,599.3333333333334,115,601.75,115C604.1666666666666,115,606.5833333333334,115,609,115C611.4166666666666,115,613.8333333333334,115,616.25,115C618.6666666666666,115,621.0833333333334,115,623.5,115C625.9166666666666,115,628.3333333333334,115,630.75,115C633.1666666666666,115,635.5833333333334,115,638,115C640.4166666666666,115,642.8333333333334,115,645.25,115C647.6666666666666,115,650.0833333333334,115,652.5,115C654.9166666666666,115,657.3333333333334,115,659.75,115C662.1666666666666,115,664.5833333333334,115,667,115C669.4166666666666,115,671.8333333333334,115,674.25,115C676.6666666666666,115,679.0833333333334,115,681.5,115C683.9166666666666,115,686.3333333333334,115,688.75,115C691.1666666666666,115,693.5833333333334,115,696,115C698.4166666666666,115,700.8333333333334,115,703.25,115C705.6666666666666,115,708.0833333333334,115,710.5,115C712.9166666666666,115,715.3333333333334,115,717.75,115C720.1666666666666,115,722.5833333333334,115,725,115C727.4166666666666,115,729.8333333333334,115,732.25,115C734.6666666666666,115,737.0833333333334,115,739.5,115C741.9166666666666,115,744.3333333333334,115,746.75,115C749.1666666666666,115,751.5833333333334,115,754,115C756.4166666666666,115,758.8333333333334,115,761.25,115C763.6666666666666,115,766.0833333333334,115,768.5,115C770.9166666666666,115,773.3333333333334,115,775.75,115C778.1666666666666,115,780.5833333333334,115,783,115C785.4166666666667,115,787.8333333333334,115,790.2500000000001,115C792.6666666666667,115,795.0833333333335,115,797.5000000000001,115C799.9166666666667,115,802.3333333333335,115,804.7500000000001,115C807.1666666666667,115,809.5833333333335,115,812.0000000000001,115C814.4166666666667,115,816.8333333333333,115,819.2499999999999,115C821.6666666666665,115,824.0833333333333,115,826.4999999999999,115C828.9166666666665,115,831.3333333333333,115,833.7499999999999,115C836.1666666666665,115,838.5833333333333,115,840.9999999999999,115C843.4166666666666,115,845.8333333333333,115,848.25,115C850.6666666666666,115,853.0833333333334,115,855.5,115C857.9166666666666,115,860.3333333333334,115,862.75,115C865.1666666666666,115,867.5833333333334,115,870,115C872.4166666666666,115,874.8333333333334,115,877.25,115C879.6666666666666,115,882.0833333333334,115,884.5,115C886.9166666666666,115,889.3333333333334,115,891.75,115C894.1666666666666,115,896.5833333333334,115,899,115C901.4166666666666,115,903.8333333333334,115,906.25,115C908.6666666666666,115,911.0833333333334,115,913.5,115C915.9166666666666,115,918.3333333333334,115,920.75,115C923.1666666666666,115,925.5833333333334,115,928,115C930.4166666666666,115,932.8333333333334,115,935.25,115C937.6666666666666,115,940.0833333333334,115,942.5,115C944.9166666666666,115,947.3333333333334,115,949.75,115C952.1666666666666,115,954.5833333333334,115,957,115C959.4166666666666,115,961.8333333333334,115,964.25,115C966.6666666666667,115,969.0833333333334,115,971.5000000000001,115C973.9166666666667,115,976.3333333333335,115,978.7500000000001,115C981.1666666666667,115,983.5833333333335,115,986.0000000000001,115C988.4166666666667,115,990.8333333333335,115,993.2500000000001,115C995.6666666666667,115,998.0833333333333,115,1000.4999999999999,115C1002.9166666666665,115,1005.3333333333333,115,1007.7499999999999,115C1010.1666666666665,115,1012.5833333333333,115,1014.9999999999999,115C1017.4166666666665,115,1019.8333333333333,115,1022.2499999999999,115C1024.6666666666665,115,1027.0833333333333,115,1029.5,115C1031.9166666666667,115,1034.3333333333333,115,1036.75,115C1039.1666666666667,115,1041.5833333333333,115,1044,115C1046.4166666666667,115,1048.8333333333333,115,1051.25,115C1053.6666666666667,115,1056.0833333333333,115,1058.5,115C1060.9166666666667,115,1063.3333333333333,115,1065.75,115C1068.1666666666667,115,1070.5833333333333,115,1073,115C1075.4166666666667,115,1077.8333333333333,115,1080.25,115C1082.6666666666667,115,1085.0833333333333,115,1087.5,115C1089.9166666666667,115,1092.3333333333333,115,1094.75,115C1097.1666666666667,115,1099.5833333333333,115,1102,115C1104.4166666666667,115,1106.8333333333333,115,1109.25,115C1111.6666666666667,115,1114.0833333333333,115,1116.5,115C1118.9166666666667,115,1121.3333333333333,115,1123.75,115C1126.1666666666667,115,1128.5833333333333,115,1131,115C1133.4166666666667,115,1135.8333333333333,115,1138.25,115C1140.6666666666667,115,1143.0833333333333,115,1145.5,115C1147.9166666666667,115,1150.3333333333333,115,1152.75,115C1155.1666666666667,115,1157.5833333333333,115,1160,115C1162.4166666666667,115,1164.8333333333333,115,1167.25,115C1169.6666666666667,115,1172.0833333333333,115,1174.5,115C1176.9166666666667,115,1179.3333333333333,115,1181.75,115C1184.1666666666667,115,1186.5833333333333,115,1189,115C1191.4166666666667,115,1193.8333333333333,115,1196.25,115C1198.6666666666667,115,1201.0833333333333,115,1203.5,115C1205.9166666666667,115,1208.3333333333333,115,1210.75,115C1213.1666666666667,115,1215.5833333333333,115,1218,115C1220.4166666666667,115,1222.8333333333333,115,1225.25,115C1227.6666666666667,115,1230.0833333333333,115,1232.5,115C1234.9166666666667,115,1237.3333333333333,115,1239.75,115C1242.1666666666667,115,1244.5833333333333,115,1247,115C1249.4166666666667,115,1251.8333333333333,115,1254.25,115C1256.6666666666667,115,1259.0833333333333,115,1261.5,115C1263.9166666666667,115,1266.3333333333333,115,1268.75,115C1271.1666666666667,115,1273.5833333333333,115,1276,115C1278.4166666666667,115,1280.8333333333333,115,1283.25,115C1285.6666666666667,115,1288.0833333333333,115,1290.5,115C1292.9166666666667,115,1295.3333333333333,115,1297.75,115C1300.1666666666667,115,1302.5833333333333,115,1305,115C1307.4166666666667,115,1309.8333333333333,115,1312.25,115C1314.6666666666667,115,1317.0833333333333,115,1319.5,115C1321.9166666666667,115,1324.3333333333333,115,1326.75,115C1329.1666666666667,115,1331.5833333333333,115,1334,115C1336.4166666666667,115,1338.8333333333333,115,1341.25,115C1343.6666666666667,115,1346.0833333333333,115,1348.5,115C1350.9166666666667,115,1353.3333333333333,115,1355.75,115C1358.1666666666667,115,1360.5833333333333,115,1363,115C1365.4166666666667,115,1367.8333333333333,115,1370.25,115C1372.6666666666667,115,1375.0833333333333,115,1377.5,115C1379.9166666666667,115,1382.3333333333333,115,1384.75,115C1387.1666666666667,115,1389.5833333333333,115,1392,115C1394.4166666666667,115,1396.8333333333333,115,1399.25,115C1401.6666666666667,115,1404.0833333333333,115,1406.5,115C1408.9166666666667,115,1411.3333333333333,115,1413.75,115C1416.1666666666667,115,1418.5833333333333,115,1421,115C1423.4166666666667,115,1425.8333333333333,115,1428.25,115C1430.6666666666667,115,1433.0833333333333,115,1435.5,115C1437.9166666666667,115,1440.3333333333333,115,1442.75,115C1445.1666666666667,115,1447.5833333333333,115,1450,115" fill="transparent" stroke-linecap="round" stroke="#E7C6DF" stroke-width="2"></path><g class="visx-group visx-axis visx-axis-bottom" transform="translate(0, 115)"><g class="visx-group visx-axis-tick" transform="translate(0, 0)"><line class="visx-line" x1="0" y1="0" x2="0" y2="8" fill="transparent" shape-rendering="crispEdges" stroke="#000" stroke-width="0" stroke-linecap="square"></line><svg x="0" y="0" font-size="10" style="overflow:visible"><text transform="" x="0" y="18" fill="#000" font-size="10" text-anchor="middle"><tspan x="0" dy="0em">0%</tspan></text></svg></g><g class="visx-group visx-axis-tick" transform="translate(0, 0)"><line class="visx-line" x1="362.5" y1="0" x2="362.5" y2="8" fill="transparent" shape-rendering="crispEdges" stroke="#000" stroke-width="0" stroke-linecap="square"></line><svg x="0" y="0" font-size="10" style="overflow:visible"><text transform="" x="362.5" y="18" fill="#000" font-size="10" text-anchor="middle"><tspan x="362.5" dy="0em">25%</tspan></text></svg></g><g class="visx-group visx-axis-tick" transform="translate(0, 0)"><line class="visx-line" x1="725" y1="0" x2="725" y2="8" fill="transparent" shape-rendering="crispEdges" stroke="#000" stroke-width="0" stroke-linecap="square"></line><svg x="0" y="0" font-size="10" style="overflow:visible"><text transform="" x="725" y="18" fill="#000" font-size="10" text-anchor="middle"><tspan x="725" dy="0em">50%</tspan></text></svg></g><g class="visx-group visx-axis-tick" transform="translate(0, 0)"><line class="visx-line" x1="1087.5" y1="0" x2="1087.5" y2="8" fill="transparent" shape-rendering="crispEdges" stroke="#000" stroke-width="0" stroke-linecap="square"></line><svg x="0" y="0" font-size="10" style="overflow:visible"><text transform="" x="1087.5" y="18" fill="#000" font-size="10" text-anchor="middle"><tspan x="1087.5" dy="0em">75%</tspan></text></svg></g><g class="visx-group visx-axis-tick" transform="translate(0, 0)"><line class="visx-line" x1="1450" y1="0" x2="1450" y2="8" fill="transparent" shape-rendering="crispEdges" stroke="#000" stroke-width="0" stroke-linecap="square"></line><svg x="0" y="0" font-size="10" style="overflow:visible"><text transform="" x="1450" y="18" fill="#000" font-size="10" text-anchor="middle"><tspan x="1450" dy="0em">100%</tspan></text></svg></g><line class="visx-line visx-axis-line" x1="0.5" y1="0" x2="1450.5" y2="0" fill="transparent" shape-rendering="crispEdges" stroke="#222" stroke-width="0"></line></g><g class="visx-group visx-axis visx-axis-left" transform="translate(0, 0)"><g class="visx-group visx-axis-tick" transform="translate(0, 0)"><line class="visx-line" x1="0" y1="115" x2="-8" y2="115" fill="transparent" shape-rendering="crispEdges" stroke="#222" stroke-width="0" stroke-linecap="square"></line><svg x="-30" y="0" font-size="8" style="overflow:visible"><text transform="" x="-8" y="115" fill="#000" font-size="8" text-anchor="start"><tspan x="-8" dy="0em">0%</tspan></text></svg></g><g class="visx-group visx-axis-tick" transform="translate(0, 0)"><line class="visx-line" x1="0" y1="76.66666666666667" x2="-8" y2="76.66666666666667" fill="transparent" shape-rendering="crispEdges" stroke="#222" stroke-width="0" stroke-linecap="square"></line><svg x="-30" y="0" font-size="8" style="overflow:visible"><text transform="" x="-8" y="76.66666666666667" fill="#000" font-size="8" text-anchor="start"><tspan x="-8" dy="0em">2%</tspan></text></svg></g><g class="visx-group visx-axis-tick" transform="translate(0, 0)"><line class="visx-line" x1="0" y1="38.333333333333336" x2="-8" y2="38.333333333333336" fill="transparent" shape-rendering="crispEdges" stroke="#222" stroke-width="0" stroke-linecap="square"></line><svg x="-30" y="0" font-size="8" style="overflow:visible"><text transform="" x="-8" y="38.333333333333336" fill="#000" font-size="8" text-anchor="start"><tspan x="-8" dy="0em">4%</tspan></text></svg></g><g class="visx-group visx-axis-tick" transform="translate(0, 0)"><line class="visx-line" x1="0" y1="0" x2="-8" y2="0" fill="transparent" shape-rendering="crispEdges" stroke="#222" stroke-width="0" stroke-linecap="square"></line><svg x="-30" y="0" font-size="8" style="overflow:visible"><text transform="" x="-8" y="0" fill="#000" font-size="8" text-anchor="start"><tspan x="-8" dy="0em">6%</tspan></text></svg></g><line class="visx-line visx-axis-line" x1="0" y1="115.5" x2="0" y2="0.5" fill="transparent" shape-rendering="crispEdges" stroke="#222" stroke-width="0"></line></g><rect class="visx-bar" width="1450" height="115" fill="transparent"></rect><line class="visx-line" x1="0" y1="28" x2="0" y2="115" fill="transparent" shape-rendering="crispEdges" stroke="#0062D2" stroke-width="1" pointer-events="none" stroke-dasharray="5,2"></line><svg x="0" y="0" font-size="10px" style="overflow:visible"><text transform="" x="0" y="20" font-size="10px" fill="#fff" stroke="#fff" stroke-width="0.8em" text-anchor="middle"><tspan x="0" dy="0.355em">Optimal 0%</tspan></text></svg><svg x="0" y="0" font-size="10px" style="overflow:visible"><text transform="" x="0" y="20" font-size="10px" fill="#62677B" text-anchor="middle"><tspan x="0" dy="0.355em">Optimal 0%</tspan></text></svg></g></svg>