<?xml version="1.0"?><svg xmlns="http://www.w3.org/2000/svg" xmlns:xlink= "http://www.w3.org/1999/xlink" style="background: white;" width="1500" height="300"> <g style="color: black; font-size: 13px; font-family: sans-serif; transform: translate(18px, 25px);"><g><circle r="3" cx="-6" cy="-5" style="fill: #1AD4B3" /><text>Borrow APR, variable</text></g><g style="transform: translateX(150px);"><circle r="3" cx="-6" cy="-5" style="fill: #101423" /><text>Borrow APR, stable</text></g></g><g class="visx-group" transform="translate(45, 50)"><g class="visx-group visx-rows" transform="translate(0, 0)"><line class="visx-line" x1="0" y1="155" x2="1425" y2="155" fill="transparent" shape-rendering="crispEdges" stroke="#F2F0F9" stroke-width="1" pointer-events="none"></line><line class="visx-line" x1="0" y1="120.55555555555556" x2="1425" y2="120.55555555555556" fill="transparent" shape-rendering="crispEdges" stroke="#F2F0F9" stroke-width="1" pointer-events="none"></line><line class="visx-line" x1="0" y1="86.11111111111111" x2="1425" y2="86.11111111111111" fill="transparent" shape-rendering="crispEdges" stroke="#F2F0F9" stroke-width="1" pointer-events="none"></line><line class="visx-line" x1="0" y1="51.66666666666667" x2="1425" y2="51.66666666666667" fill="transparent" shape-rendering="crispEdges" stroke="#F2F0F9" stroke-width="1" pointer-events="none"></line><line class="visx-line" x1="0" y1="17.22222222222223" x2="1425" y2="17.22222222222223" fill="transparent" shape-rendering="crispEdges" stroke="#F2F0F9" stroke-width="1" pointer-events="none"></line></g><path class="visx-linepath" d="M0,154.99999999987563C2.375,154.97926954725256,4.75,154.9585390946295,7.125,154.93780864197532C9.5,154.91707818932116,11.875,154.89634773662553,14.25,154.87561728395062C16.625,154.8548868312757,19,154.8341563786008,21.375,154.8134259259259C23.75,154.79269547325103,26.125,154.77196502057612,28.5,154.75123456790124C30.875,154.73050411522635,33.25,154.7097736625514,35.625,154.68904320987653C38,154.66831275720165,40.375,154.64758230452674,42.75,154.62685185185185C45.125,154.60612139917697,47.50000000000001,154.5853909465021,49.87500000000001,154.56466049382718C52.25000000000001,154.5439300411523,54.625,154.52319958847738,57,154.50246913580247C59.375,154.48173868312756,61.75,154.46100823045265,64.125,154.44027777777777C66.5,154.41954732510288,68.875,154.39881687242797,71.25,154.3780864197531C73.625,154.3573559670782,76,154.33662551440327,78.375,154.31589506172838C80.75,154.2951646090535,83.125,154.2744341563786,85.5,154.2537037037037C87.875,154.23297325102882,90.25,154.2122427983539,92.625,154.19151234567903C95,154.17078189300412,97.37500000000001,154.15005144032924,99.75000000000001,154.12932098765432C102.12500000000001,154.1085905349794,104.5,154.0878600823045,106.875,154.06712962962962C109.25,154.0463991769547,111.625,154.02566872427983,114,154.00493827160494C116.375,153.98420781893003,118.75000000000001,153.96347736625515,121.12500000000001,153.94274691358024C123.50000000000001,153.92201646090535,125.875,153.90128600823044,128.25,153.88055555555556C130.625,153.85982510288065,133,153.83909465020574,135.375,153.81836419753085C137.75,153.79763374485597,140.125,153.77690329218106,142.5,153.75617283950618C144.875,153.7354423868313,147.25,153.71471193415636,149.625,153.69398148148147C152,153.6732510288066,154.375,153.65252057613168,156.75,153.6317901234568C159.125,153.6110596707819,161.5,153.590329218107,163.875,153.56959876543212C166.25,153.54886831275724,168.625,153.52813786008232,171,153.5074074074074C173.375,153.4866769547325,175.75,153.4659465020576,178.125,153.4452160493827C180.5,153.42448559670783,182.875,153.4037551440329,185.25,153.38302469135803C187.625,153.36229423868315,190,153.3415637860082,192.375,153.32083333333333C194.75,153.30010288065841,197.12500000000003,153.27937242798356,199.50000000000003,153.25864197530865C201.875,153.23791152263377,204.25,153.21718106995883,206.62499999999997,153.19645061728394C208.99999999999997,153.17572016460903,211.375,153.15498971193418,213.75,153.13425925925927C216.125,153.11352880658438,218.5,153.09279835390944,220.875,153.07206790123456C223.25,153.05133744855968,225.625,153.03060699588477,228,153.00987654320988C230.375,152.989146090535,232.75,152.96841563786006,235.125,152.94768518518518C237.5,152.92695473251027,239.87500000000003,152.9062242798354,242.25000000000003,152.8854938271605C244.625,152.86476337448562,247,152.8440329218107,249.37499999999997,152.8233024691358C251.74999999999997,152.80257201646089,254.125,152.781841563786,256.5,152.7611111111111C258.875,152.7403806584362,261.25,152.7196502057613,263.625,152.69891975308641C266,152.67818930041153,268.375,152.65745884773662,270.75,152.63672839506174C273.125,152.61599794238685,275.5,152.59526748971192,277.875,152.57453703703703C280.25,152.55380658436215,282.625,152.53307613168724,285,152.51234567901236C287.375,152.49161522633747,289.75,152.47088477366256,292.125,152.45015432098765C294.5,152.42942386831274,296.875,152.40869341563783,299.25,152.38796296296294C301.625,152.36723251028806,304,152.34650205761315,306.375,152.32577160493827C308.75,152.30504115226339,311.125,152.28431069958847,313.5,152.2635802469136C315.875,152.2428497942387,318.25,152.22211934156377,320.625,152.20138888888889C323,152.180658436214,325.375,152.1599279835391,327.75,152.1391975308642C330.125,152.11846707818933,332.5,152.09773662551441,334.875,152.0770061728395C337.25,152.0562757201646,339.625,152.03554526748968,342,152.0148148148148C344.375,151.99408436213992,346.75,151.973353909465,349.125,151.95262345679012C351.5,151.93189300411524,353.875,151.91116255144033,356.25,151.89043209876544C358.625,151.86970164609056,361,151.84897119341565,363.375,151.82824074074074C365.75,151.80751028806583,368.125,151.78677983539092,370.5,151.76604938271603C372.875,151.74531893004115,375.25,151.72458847736624,377.625,151.70385802469136C380,151.68312757201647,382.375,151.66239711934153,384.75,151.64166666666665C387.125,151.62093621399174,389.50000000000006,151.60020576131686,391.87500000000006,151.57947530864197C394.25000000000006,151.5587448559671,396.62500000000006,151.5380144032922,399.00000000000006,151.5172839506173C401.375,151.49655349794241,403.75,151.4758230452675,406.12499999999994,151.4550925925926C408.49999999999994,151.43436213991768,410.87499999999994,151.41363168724277,413.24999999999994,151.3929012345679C415.62499999999994,151.37217078189298,418,151.3514403292181,420.375,151.3307098765432C422.75,151.30997942386833,425.125,151.28924897119342,427.5,151.26851851851853C429.875,151.24778806584365,432.25,151.2270576131687,434.625,151.20632716049383C437,151.18559670781895,439.375,151.16486625514403,441.75,151.14413580246915C444.125,151.12340534979427,446.5,151.10267489711936,448.875,151.08194444444445C451.25,151.06121399176953,453.625,151.04048353909462,456,151.01975308641974C458.375,150.99902263374486,460.75,150.97829218106995,463.125,150.95756172839506C465.5,150.93683127572018,467.875,150.91610082304527,470.25,150.8953703703704C472.625,150.87463991769548,475.00000000000006,150.8539094650206,477.37500000000006,150.83317901234568C479.75000000000006,150.81244855967077,482.12500000000006,150.7917181069959,484.50000000000006,150.77098765432098C486.875,150.7502572016461,489.25,150.72952674897118,491.62499999999994,150.7087962962963C493.99999999999994,150.6880658436214,496.37499999999994,150.66733539094648,498.74999999999994,150.6466049382716C501.12499999999994,150.62587448559668,503.5,150.6051440329218,505.875,150.58441358024692C508.25,150.56368312757203,510.625,150.54295267489712,513,150.52222222222224C515.375,150.50149176954736,517.75,150.48076131687245,520.125,150.46003086419753C522.5,150.43930041152262,524.875,150.4185699588477,527.25,150.39783950617283C529.625,150.37710905349795,532,150.35637860082304,534.375,150.33564814814815C536.75,150.31491769547327,539.125,150.29418724279833,541.5,150.27345679012345C543.875,150.25272633744856,546.25,150.23199588477365,548.625,150.21126543209877C551,150.1905349794239,553.375,150.16980452674895,555.75,150.14907407407406C558.125,150.12834362139918,560.5,150.10761316872427,562.875,150.0868827160494C565.25,150.0661522633745,567.625,150.04542181069957,570,150.02469135802468C572.375,150.0039609053498,574.75,149.9832304526749,577.125,149.9625C579.5,149.94176954732512,581.875,149.92103909465018,584.25,149.9003086419753C586.625,149.87957818930042,589,149.8588477366255,591.375,149.83811728395062C593.75,149.81738683127574,596.125,149.79665637860083,598.5,149.77592592592592C600.875,149.755195473251,603.25,149.7344650205761,605.625,149.7137345679012C608,149.69300411522633,610.375,149.67227366255142,612.75,149.65154320987654C615.125,149.63081275720165,617.5,149.61008230452674,619.875,149.58935185185186C622.25,149.56862139917698,624.625,149.54789094650204,627,149.52716049382715C629.375,149.50643004115227,631.75,149.48569958847736,634.125,149.46496913580248C636.5,149.4442386831276,638.875,149.42350823045265,641.25,149.40277777777777C643.625,149.3820473251029,646,149.36131687242798,648.375,149.3405864197531C650.75,149.3198559670782,653.125,149.29912551440327,655.5,149.2783950617284C657.875,149.2576646090535,660.25,149.2369341563786,662.625,149.2162037037037C665,149.19547325102883,667.375,149.1747427983539,669.75,149.154012345679C672.125,149.13328189300412,674.5,149.1125514403292,676.875,149.09182098765433C679.25,149.07109053497945,681.625,149.0503600823045,684,149.02962962962962C686.375,149.00889917695474,688.75,148.98816872427983,691.125,148.96743827160495C693.5,148.94670781893007,695.875,148.92597736625513,698.25,148.90524691358024C700.625,148.88451646090536,703,148.86378600823045,705.375,148.84305555555557C707.75,148.82232510288068,710.125,148.80159465020577,712.5,148.78086419753086C714.875,148.76013374485595,717.25,148.73940329218104,719.625,148.71867283950616C722,148.69794238683127,724.375,148.67721193415636,726.75,148.65648148148148C729.125,148.6357510288066,731.5,148.61502057613168,733.875,148.5942901234568C736.25,148.57355967078192,738.625,148.55282921810698,741,148.5320987654321C743.375,148.5113683127572,745.75,148.4906378600823,748.125,148.46990740740742C750.5,148.44917695473254,752.875,148.42844650205762,755.25,148.4077160493827C757.625,148.3869855967078,760,148.3662551440329,762.375,148.345524691358C764.75,148.32479423868313,767.125,148.30406378600821,769.5,148.28333333333333C771.875,148.26260288065845,774.2500000000001,148.24187242798357,776.6250000000001,148.22114197530865C779.0000000000001,148.20041152263377,781.3750000000001,148.17968106995883,783.7500000000001,148.15895061728395C786.1250000000001,148.13822016460907,788.5000000000001,148.11748971193416,790.8750000000001,148.09675925925927C793.2500000000001,148.0760288065844,795.6250000000001,148.05529835390948,798.0000000000001,148.03456790123457C800.375,148.01383744855966,802.75,147.99310699588474,805.1249999999999,147.97237654320986C807.4999999999999,147.95164609053495,809.8749999999999,147.93091563786007,812.2499999999999,147.91018518518518C814.6249999999999,147.8894547325103,816.9999999999999,147.8687242798354,819.3749999999999,147.8479938271605C821.7499999999999,147.82726337448563,824.1249999999999,147.8065329218107,826.4999999999999,147.7858024691358C828.8749999999999,147.7650720164609,831.25,147.744341563786,833.625,147.7236111111111C836,147.70288065843621,838.375,147.6821502057613,840.75,147.66141975308642C843.125,147.64068930041154,845.5,147.6199588477366,847.875,147.59922839506171C850.25,147.57849794238683,852.625,147.55776748971192,855,147.53703703703704C857.375,147.51630658436216,859.75,147.49557613168724,862.125,147.47484567901236C864.5,147.45411522633748,866.875,147.43338477366257,869.25,147.41265432098766C871.625,147.39192386831274,874,147.37119341563783,876.375,147.35046296296295C878.75,147.32973251028807,881.125,147.30900205761316,883.5,147.28827160493827C885.875,147.2675411522634,888.25,147.24681069958848,890.625,147.2260802469136C893,147.2053497942387,895.375,147.1846193415638,897.75,147.1638888888889C900.125,147.14315843621398,902.5,147.12242798353907,904.875,147.1016975308642C907.25,147.0809670781893,909.625,147.0602366255144,912,147.0395061728395C914.375,147.01877572016463,916.75,146.9980452674897,919.125,146.9773148148148C921.5,146.95658436213992,923.875,146.935853909465,926.25,146.91512345679013C928.625,146.89439300411524,931,146.87366255144033,933.375,146.85293209876545C935.75,146.83220164609057,938.125,146.81147119341566,940.5,146.79074074074074C942.875,146.77001028806583,945.25,146.74927983539092,947.625,146.72854938271604C950,146.70781893004113,952.3750000000001,146.68708847736627,954.7500000000001,146.66635802469136C957.1250000000001,146.64562757201648,959.5000000000001,146.62489711934154,961.8750000000001,146.60416666666666C964.2500000000001,146.58343621399177,966.6250000000001,146.56270576131686,969.0000000000001,146.54197530864198C971.3750000000001,146.5212448559671,973.7500000000001,146.50051440329221,976.1250000000001,146.4797839506173C978.5,146.45905349794242,980.875,146.4383230452675,983.2499999999999,146.4175925925926C985.6249999999999,146.3968621399177,987.9999999999999,146.37613168724278,990.3749999999999,146.3554012345679C992.7499999999999,146.334670781893,995.1249999999999,146.3139403292181,997.4999999999999,146.29320987654322C999.8749999999999,146.27247942386833,1002.2499999999999,146.2517489711934,1004.6249999999999,146.2310185185185C1006.9999999999999,146.2102880658436,1009.375,146.18955761316874,1011.75,146.16882716049383C1014.125,146.14809670781895,1016.5,146.127366255144,1018.875,146.10663580246913C1021.25,146.08590534979425,1023.625,146.06517489711933,1026,146.04444444444445C1028.375,146.02371399176957,1030.75,146.00298353909463,1033.125,145.98225308641975C1035.5,145.96152263374486,1037.875,145.94079218106995,1040.25,145.92006172839507C1042.625,145.8993312757202,1045,145.87860082304525,1047.375,145.85787037037036C1049.75,145.83713991769548,1052.125,145.81640946502057,1054.5,145.7956790123457C1056.875,145.7749485596708,1059.25,145.7542181069959,1061.625,145.73348765432098C1064,145.71275720164607,1066.375,145.69202674897116,1068.75,145.67129629629628C1071.125,145.6505658436214,1073.5,145.62983539094648,1075.875,145.6091049382716C1078.25,145.58837448559672,1080.625,145.5676440329218,1083,145.54691358024692C1085.375,145.52618312757204,1087.75,145.5054526748971,1090.125,145.48472222222222C1092.5,145.46399176954733,1094.875,145.44326131687242,1097.25,145.42253086419754C1099.625,145.40180041152266,1102,145.38106995884772,1104.375,145.36033950617283C1106.75,145.33960905349795,1109.125,145.31887860082304,1111.5,145.29814814814816C1113.875,145.27741769547328,1116.25,145.25668724279834,1118.625,145.23595679012345C1121,145.21522633744857,1123.375,145.19449588477366,1125.75,145.17376543209878C1128.125,145.1530349794239,1130.5,145.13230452674895,1132.875,145.11157407407407C1135.25,145.0908436213992,1137.625,145.07011316872428,1140,145.0493827160494C1142.375,145.0286522633745,1144.75,145.00792181069957,1147.125,144.9871913580247C1149.5,144.9664609053498,1151.875,144.9457304526749,1154.25,144.925C1156.625,144.90426954732513,1159,144.8835390946502,1161.375,144.8628086419753C1163.75,144.84207818930042,1166.125,144.8213477366255,1168.5,144.80061728395063C1170.875,144.77988683127575,1173.25,144.75915637860084,1175.625,144.73842592592592C1178,144.717695473251,1180.375,144.6969650205761,1182.75,144.67623456790122C1185.125,144.65550411522634,1187.5,144.63477366255142,1189.875,144.61404320987654C1192.25,144.59331275720166,1194.625,144.57258230452675,1197,144.55185185185186C1199.375,144.53112139917698,1201.75,144.51039094650204,1204.125,144.48966049382716C1206.5,144.46893004115228,1208.875,144.44819958847737,1211.25,144.42746913580248C1213.625,144.4067386831276,1216,144.3860082304527,1218.375,144.36527777777778C1220.75,144.34454732510287,1223.125,144.32381687242795,1225.5,144.30308641975307C1227.875,144.2823559670782,1230.25,144.26162551440328,1232.625,144.2408950617284C1235,144.2201646090535,1237.375,144.1994341563786,1239.75,144.17870370370372C1242.125,144.15797325102884,1244.5,144.13724279835392,1246.875,144.116512345679C1249.25,144.0957818930041,1251.625,144.0750514403292,1254,144.0543209876543C1256.375,144.03359053497942,1258.75,144.0128600823045,1261.125,143.99212962962963C1263.5,143.97139917695475,1265.875,143.9506687242798,1268.25,143.92993827160493C1270.625,143.90920781893004,1273,143.88847736625513,1275.375,143.86774691358025C1277.75,143.84701646090537,1280.125,143.84701646090537,1282.5,143.80555555555557C1284.875,143.76409465020578,1287.25,139.5,1289.625,137.34722222222223C1292,135.19444444444446,1294.375,133.04166666666666,1296.75,130.88888888888889C1299.125,128.73611111111111,1301.5,126.58333333333334,1303.875,124.43055555555556C1306.25,122.27777777777777,1308.625,120.125,1311,117.97222222222221C1313.375,115.81944444444443,1315.75,113.66666666666666,1318.125,111.51388888888889C1320.5,109.36111111111111,1322.875,107.20833333333334,1325.25,105.05555555555556C1327.625,102.90277777777777,1330,100.75,1332.375,98.59722222222221C1334.75,96.44444444444443,1337.125,94.29166666666666,1339.5,92.13888888888889C1341.875,89.98611111111111,1344.25,87.83333333333334,1346.625,85.68055555555556C1349,83.52777777777777,1351.375,81.375,1353.75,79.22222222222221C1356.125,77.06944444444443,1358.5,74.91666666666666,1360.875,72.76388888888889C1363.25,70.61111111111111,1365.625,68.45833333333334,1368,66.30555555555556C1370.375,64.15277777777777,1372.75,61.99999999999999,1375.125,59.847222222222214C1377.5,57.694444444444436,1379.875,55.54166666666666,1382.25,53.388888888888886C1384.625,51.236111111111114,1387,49.08333333333334,1389.375,46.930555555555564C1391.75,44.777777777777786,1394.125,42.62499999999999,1396.5,40.472222222222214C1398.875,38.319444444444436,1401.25,36.166666666666664,1403.625,34.013888888888886C1406,31.86111111111111,1408.375,29.70833333333334,1410.75,27.55555555555556C1413.125,25.402777777777782,1415.5,23.249999999999993,1417.875,21.097222222222214C1420.25,18.944444444444436,1422.625,16.791666666666664,1425,14.63888888888889" fill="transparent" stroke-linecap="round" stroke="#1AD4B3" stroke-width="2"></path><g class="visx-group visx-axis visx-axis-bottom" transform="translate(0, 155)"><g class="visx-group visx-axis-tick" transform="translate(0, 0)"><line class="visx-line" x1="0" y1="0" x2="0" y2="8" fill="transparent" shape-rendering="crispEdges" stroke="#F2F0F9" stroke-width="1" stroke-linecap="square"></line><svg x="0" y="0" font-size="11" style="overflow:visible"><text transform="" x="0" y="19" fill="#1B2030" font-size="11" text-anchor="middle"><tspan x="0" dy="0em">0%</tspan></text></svg></g><g class="visx-group visx-axis-tick" transform="translate(0, 0)"><line class="visx-line" x1="356.25" y1="0" x2="356.25" y2="8" fill="transparent" shape-rendering="crispEdges" stroke="#F2F0F9" stroke-width="1" stroke-linecap="square"></line><svg x="0" y="0" font-size="11" style="overflow:visible"><text transform="" x="356.25" y="19" fill="#1B2030" font-size="11" text-anchor="middle"><tspan x="356.25" dy="0em">25%</tspan></text></svg></g><g class="visx-group visx-axis-tick" transform="translate(0, 0)"><line class="visx-line" x1="712.5" y1="0" x2="712.5" y2="8" fill="transparent" shape-rendering="crispEdges" stroke="#F2F0F9" stroke-width="1" stroke-linecap="square"></line><svg x="0" y="0" font-size="11" style="overflow:visible"><text transform="" x="712.5" y="19" fill="#1B2030" font-size="11" text-anchor="middle"><tspan x="712.5" dy="0em">50%</tspan></text></svg></g><g class="visx-group visx-axis-tick" transform="translate(0, 0)"><line class="visx-line" x1="1068.75" y1="0" x2="1068.75" y2="8" fill="transparent" shape-rendering="crispEdges" stroke="#F2F0F9" stroke-width="1" stroke-linecap="square"></line><svg x="0" y="0" font-size="11" style="overflow:visible"><text transform="" x="1068.75" y="19" fill="#1B2030" font-size="11" text-anchor="middle"><tspan x="1068.75" dy="0em">75%</tspan></text></svg></g><g class="visx-group visx-axis-tick" transform="translate(0, 0)"><line class="visx-line" x1="1425" y1="0" x2="1425" y2="8" fill="transparent" shape-rendering="crispEdges" stroke="#F2F0F9" stroke-width="1" stroke-linecap="square"></line><svg x="0" y="0" font-size="11" style="overflow:visible"><text transform="" x="1425" y="19" fill="#1B2030" font-size="11" text-anchor="middle"><tspan x="1425" dy="0em">100%</tspan></text></svg></g></g><g class="visx-group visx-axis visx-axis-left" transform="translate(0, 0)"><g class="visx-group visx-axis-tick" transform="translate(0, 0)"><line class="visx-line" x1="0" y1="155" x2="-8" y2="155" fill="transparent" shape-rendering="crispEdges" stroke="#F2F0F9" stroke-width="1" stroke-linecap="square"></line><svg x="-30" y="0" font-size="11" style="overflow:visible"><text transform="" x="-8" y="155" fill="#1B2030" font-size="11" text-anchor="start"><tspan x="-8" dy="0em">0%</tspan></text></svg></g><g class="visx-group visx-axis-tick" transform="translate(0, 0)"><line class="visx-line" x1="0" y1="120.55555555555556" x2="-8" y2="120.55555555555556" fill="transparent" shape-rendering="crispEdges" stroke="#F2F0F9" stroke-width="1" stroke-linecap="square"></line><svg x="-30" y="0" font-size="11" style="overflow:visible"><text transform="" x="-8" y="120.55555555555556" fill="#1B2030" font-size="11" text-anchor="start"><tspan x="-8" dy="0em">20%</tspan></text></svg></g><g class="visx-group visx-axis-tick" transform="translate(0, 0)"><line class="visx-line" x1="0" y1="86.11111111111111" x2="-8" y2="86.11111111111111" fill="transparent" shape-rendering="crispEdges" stroke="#F2F0F9" stroke-width="1" stroke-linecap="square"></line><svg x="-30" y="0" font-size="11" style="overflow:visible"><text transform="" x="-8" y="86.11111111111111" fill="#1B2030" font-size="11" text-anchor="start"><tspan x="-8" dy="0em">40%</tspan></text></svg></g><g class="visx-group visx-axis-tick" transform="translate(0, 0)"><line class="visx-line" x1="0" y1="51.66666666666667" x2="-8" y2="51.66666666666667" fill="transparent" shape-rendering="crispEdges" stroke="#F2F0F9" stroke-width="1" stroke-linecap="square"></line><svg x="-30" y="0" font-size="11" style="overflow:visible"><text transform="" x="-8" y="51.66666666666667" fill="#1B2030" font-size="11" text-anchor="start"><tspan x="-8" dy="0em">60%</tspan></text></svg></g><g class="visx-group visx-axis-tick" transform="translate(0, 0)"><line class="visx-line" x1="0" y1="17.22222222222223" x2="-8" y2="17.22222222222223" fill="transparent" shape-rendering="crispEdges" stroke="#F2F0F9" stroke-width="1" stroke-linecap="square"></line><svg x="-30" y="0" font-size="11" style="overflow:visible"><text transform="" x="-8" y="17.22222222222223" fill="#1B2030" font-size="11" text-anchor="start"><tspan x="-8" dy="0em">80%</tspan></text></svg></g><line class="visx-line visx-axis-line" x1="0" y1="155.5" x2="0" y2="0.5" fill="transparent" shape-rendering="crispEdges" stroke="#F2F0F9" stroke-width="1"></line></g><rect class="visx-bar" width="1425" height="155" fill="transparent"></rect><line class="visx-line" x1="1282.5" y1="58" x2="1282.5" y2="155" fill="transparent" shape-rendering="crispEdges" stroke="#CDC8E1" stroke-width="1" pointer-events="none" stroke-dasharray="5"></line><svg x="0" y="0" font-size="11px" style="overflow:visible"><text transform="" x="1282.5" y="50" font-size="11px" fill="#555069" stroke="#FFFFFF" stroke-width="1px" text-anchor="middle"><tspan x="1282.5" dy="0.355em">Optimal utilization 90%</tspan></text></svg><svg x="0" y="0" font-size="11px" style="overflow:visible"><text transform="" x="1282.5" y="50" font-size="11px" fill="#CDC8E1" text-anchor="middle"><tspan x="1282.5" dy="0.355em">Optimal utilization 90%</tspan></text></svg></g></svg>