<?xml version="1.0"?><svg xmlns="http://www.w3.org/2000/svg" xmlns:xlink= "http://www.w3.org/1999/xlink" style="background: white;" width="1500" height="185"> <g style="color: black; font-size: 13px; font-family: sans-serif; transform: translate(18px, 25px);"><g><circle r="3" cx="-6" cy="-5" style="fill: #B6509E" /><text>Borrow APR, variable</text></g><g style="transform: translateX(150px);"><circle r="3" cx="-6" cy="-5" style="fill: rgb(231, 198, 223)" /><text>Borrow APR, stable</text></g><g style="transform: translateX(290px);"><circle r="3" cx="-6" cy="-5" style="fill: rgb(0, 98, 210)" /><text>Utilization Rate</text></g></g><g class="visx-group" transform="translate(40, 50)"><g class="visx-group visx-rows" transform="translate(0, 0)"><line class="visx-line" x1="0" y1="115" x2="1450" y2="115" fill="transparent" shape-rendering="crispEdges" stroke="#000" stroke-width="1" stroke-dasharray="3,3" pointer-events="none"></line><line class="visx-line" x1="0" y1="57.5" x2="1450" y2="57.5" fill="transparent" shape-rendering="crispEdges" stroke="#000" stroke-width="1" stroke-dasharray="3,3" pointer-events="none"></line><line class="visx-line" x1="0" y1="0" x2="1450" y2="0" fill="transparent" shape-rendering="crispEdges" stroke="#000" stroke-width="1" stroke-dasharray="3,3" pointer-events="none"></line></g><path class="visx-linepath" d="M0,114.99999999995256C2.4166666666666665,114.99209374997233,4.833333333333334,114.98418749999209,7.25,114.97628125C9.666666666666666,114.96837500000791,12.083333333333334,114.96046875,14.5,114.9525625C16.916666666666668,114.94465625,19.333333333333332,114.93675,21.75,114.92884375C24.166666666666668,114.9209375,26.583333333333332,114.91303125,29,114.905125C31.416666666666668,114.89721875,33.833333333333336,114.8893125,36.25,114.88140625C38.666666666666664,114.87349999999999,41.083333333333336,114.86559375,43.5,114.8576875C45.91666666666667,114.84978124999999,48.333333333333336,114.841875,50.75000000000001,114.83396875C53.16666666666667,114.82606249999999,55.583333333333336,114.81815625,58,114.81025C60.416666666666664,114.80234374999999,62.833333333333336,114.79443749999999,65.25,114.78653125C67.66666666666667,114.778625,70.08333333333333,114.77071875000001,72.5,114.76281250000001C74.91666666666667,114.75490625,77.33333333333333,114.747,79.75,114.73909375C82.16666666666667,114.73118749999999,84.58333333333333,114.72328124999999,87,114.715375C89.41666666666667,114.70746875,91.83333333333333,114.69956250000001,94.25,114.69165625000001C96.66666666666667,114.68375,99.08333333333334,114.67584375,101.50000000000001,114.6679375C103.91666666666667,114.66003124999999,106.33333333333334,114.65212499999998,108.75,114.64421875C111.16666666666667,114.63631249999999,113.58333333333333,114.62840625000001,116,114.6205C118.41666666666667,114.61259375,120.83333333333334,114.6046875,123.25000000000001,114.59678124999999C125.66666666666667,114.58887499999999,128.08333333333334,114.58096875,130.5,114.5730625C132.91666666666666,114.56515625,135.33333333333334,114.55725000000001,137.75,114.54934375C140.16666666666666,114.5414375,142.58333333333334,114.53353125,145,114.52562499999999C147.41666666666666,114.51771874999999,149.83333333333334,114.5098125,152.25,114.50190625C154.66666666666666,114.49400000000001,157.08333333333334,114.48609375000001,159.5,114.4781875C161.91666666666666,114.47028125,164.33333333333334,114.462375,166.75,114.45446874999999C169.16666666666666,114.44656249999998,171.58333333333334,114.43865625,174,114.43075C176.41666666666666,114.42284375000001,178.83333333333334,114.41493750000001,181.25,114.40703125C183.66666666666666,114.399125,186.08333333333334,114.39121875,188.5,114.38331249999999C190.91666666666666,114.37540624999998,193.33333333333334,114.36749999999999,195.75,114.35959375C198.16666666666669,114.3516875,200.58333333333334,114.34378125,203.00000000000003,114.335875C205.41666666666669,114.32796875,207.83333333333331,114.3200625,210.24999999999997,114.31215625C212.66666666666666,114.30425,215.08333333333331,114.29634375,217.5,114.2884375C219.91666666666666,114.28053125,222.33333333333334,114.272625,224.75,114.26471875C227.16666666666666,114.2568125,229.58333333333334,114.24890625,232,114.241C234.41666666666666,114.23309375,236.83333333333334,114.2251875,239.25,114.21728125C241.66666666666669,114.209375,244.08333333333334,114.20146875,246.50000000000003,114.1935625C248.91666666666669,114.18565625,251.33333333333331,114.17775,253.74999999999997,114.16984375C256.16666666666663,114.1619375,258.5833333333333,114.15403125,261,114.146125C263.4166666666667,114.13821875,265.8333333333333,114.1303125,268.25,114.12240625C270.6666666666667,114.11449999999999,273.0833333333333,114.10659375,275.5,114.0986875C277.9166666666667,114.09078124999999,280.3333333333333,114.082875,282.75,114.07496875C285.1666666666667,114.06706249999999,287.5833333333333,114.05915625,290,114.05125C292.4166666666667,114.04334374999999,294.8333333333333,114.0354375,297.25,114.02753125C299.6666666666667,114.01962499999999,302.0833333333333,114.01171874999999,304.5,114.0038125C306.9166666666667,113.99590625,309.3333333333333,113.988,311.75,113.98009375000001C314.1666666666667,113.97218750000002,316.5833333333333,113.96428125000001,319,113.95637500000001C321.4166666666667,113.94846875,323.8333333333333,113.9405625,326.25,113.93265625C328.6666666666667,113.92474999999999,331.0833333333333,113.91684375,333.5,113.90893750000001C335.9166666666667,113.90103125000002,338.3333333333333,113.89312500000001,340.75,113.88521875C343.1666666666667,113.8773125,345.5833333333333,113.86940625,348,113.86149999999999C350.4166666666667,113.85359374999999,352.8333333333333,113.8456875,355.25,113.83778125C357.6666666666667,113.82987500000002,360.0833333333333,113.82196875000001,362.5,113.8140625C364.9166666666667,113.80615625,367.3333333333333,113.79825,369.75,113.79034374999999C372.1666666666667,113.78243749999999,374.5833333333333,113.77453125,377,113.766625C379.4166666666667,113.75871875000001,381.8333333333333,113.75081250000001,384.25,113.74290625C386.6666666666667,113.735,389.0833333333333,113.72709375000001,391.5,113.7191875C393.9166666666667,113.71128125,396.33333333333337,113.70337500000001,398.75000000000006,113.69546875C401.16666666666674,113.6875625,403.58333333333337,113.67965625000001,406.00000000000006,113.67175C408.4166666666667,113.66384375,410.8333333333333,113.65593750000001,413.24999999999994,113.64803125C415.66666666666663,113.640125,418.08333333333326,113.63221875,420.49999999999994,113.6243125C422.91666666666663,113.61640625,425.3333333333333,113.6085,427.75,113.60059375C430.1666666666667,113.5926875,432.5833333333333,113.58478125,435,113.576875C437.4166666666667,113.56896875,439.8333333333333,113.5610625,442.25,113.55315625C444.6666666666667,113.54525,447.0833333333333,113.53734375,449.5,113.5294375C451.9166666666667,113.52153125,454.3333333333333,113.513625,456.75,113.50571875C459.1666666666667,113.4978125,461.5833333333333,113.48990625,464,113.482C466.4166666666667,113.47409375,468.8333333333333,113.4661875,471.25,113.45828125C473.6666666666667,113.450375,476.0833333333333,113.44246875,478.5,113.4345625C480.9166666666667,113.42665625,483.33333333333337,113.41875,485.75000000000006,113.41084375C488.16666666666674,113.40293750000001,490.58333333333337,113.39503125000002,493.00000000000006,113.38712500000001C495.4166666666667,113.37921875,497.8333333333333,113.3713125,500.24999999999994,113.36340625C502.66666666666663,113.35549999999999,505.08333333333326,113.34759374999999,507.49999999999994,113.3396875C509.91666666666663,113.33178124999999,512.3333333333333,113.32387500000002,514.75,113.31596875000001C517.1666666666666,113.3080625,519.5833333333334,113.30015625,522,113.29225C524.4166666666666,113.28434374999999,526.8333333333334,113.27643749999999,529.25,113.26853125C531.6666666666666,113.260625,534.0833333333334,113.25271875000001,536.5,113.24481250000001C538.9166666666666,113.23690625,541.3333333333334,113.229,543.75,113.22109375C546.1666666666666,113.21318749999999,548.5833333333334,113.20528124999998,551,113.197375C553.4166666666666,113.18946875,555.8333333333334,113.18156250000001,558.25,113.17365625000001C560.6666666666666,113.16575,563.0833333333334,113.15784375,565.5,113.1499375C567.9166666666666,113.14203124999999,570.3333333333334,113.134125,572.75,113.12621875C575.1666666666666,113.11831250000002,577.5833333333334,113.11040625000001,580,113.1025C582.4166666666666,113.09459375,584.8333333333334,113.0866875,587.25,113.07878124999999C589.6666666666666,113.07087499999999,592.0833333333334,113.06296875,594.5,113.0550625C596.9166666666666,113.04715625000001,599.3333333333334,113.03925000000001,601.75,113.03134375C604.1666666666666,113.0234375,606.5833333333334,113.01553125,609,113.00762499999999C611.4166666666666,112.99971874999999,613.8333333333334,112.9918125,616.25,112.98390625C618.6666666666666,112.97600000000001,621.0833333333334,112.96809375000001,623.5,112.9601875C625.9166666666666,112.95228125,628.3333333333334,112.944375,630.75,112.93646874999999C633.1666666666666,112.92856249999998,635.5833333333334,112.92065625,638,112.91275C640.4166666666666,112.90484375000001,642.8333333333334,112.8969375,645.25,112.88903125C647.6666666666666,112.881125,650.0833333333334,112.87321875,652.5,112.8653125C654.9166666666666,112.85740625,657.3333333333334,112.8495,659.75,112.84159375C662.1666666666666,112.8336875,664.5833333333334,112.82578125,667,112.817875C669.4166666666666,112.80996875,671.8333333333334,112.8020625,674.25,112.79415625C676.6666666666666,112.78625,679.0833333333334,112.77834375,681.5,112.7704375C683.9166666666666,112.76253125,686.3333333333334,112.754625,688.75,112.74671875C691.1666666666666,112.7388125,693.5833333333334,112.73090625,696,112.723C698.4166666666666,112.71509375,700.8333333333334,112.7071875,703.25,112.69928125C705.6666666666666,112.691375,708.0833333333334,112.68346875,710.5,112.6755625C712.9166666666666,112.66765625,715.3333333333334,112.65975,717.75,112.65184375C720.1666666666666,112.64393749999999,722.5833333333334,112.63603125,725,112.628125C727.4166666666666,112.62021874999999,729.8333333333334,112.6123125,732.25,112.60440625C734.6666666666666,112.59649999999999,737.0833333333334,112.58859375,739.5,112.5806875C741.9166666666666,112.57278124999999,744.3333333333334,112.56487499999999,746.75,112.55696875C749.1666666666666,112.5490625,751.5833333333334,112.54115625000001,754,112.53325000000001C756.4166666666666,112.52534375,758.8333333333334,112.5174375,761.25,112.50953125C763.6666666666666,112.50162499999999,766.0833333333334,112.49371874999999,768.5,112.4858125C770.9166666666666,112.47790625,773.3333333333334,112.47000000000001,775.75,112.46209375000001C778.1666666666666,112.4541875,780.5833333333334,112.44628125,783,112.438375C785.4166666666667,112.43046874999999,787.8333333333334,112.4225625,790.2500000000001,112.41465625C792.6666666666667,112.40675,795.0833333333335,112.39884375000001,797.5000000000001,112.3909375C799.9166666666667,112.38303125,802.3333333333335,112.375125,804.7500000000001,112.36721874999999C807.1666666666667,112.35931249999999,809.5833333333335,112.35140625000001,812.0000000000001,112.3435C814.4166666666667,112.33559375000002,816.8333333333333,112.32768750000001,819.2499999999999,112.31978125C821.6666666666665,112.311875,824.0833333333333,112.30396875,826.4999999999999,112.29606249999999C828.9166666666665,112.28815624999999,831.3333333333333,112.28025,833.7499999999999,112.27234375C836.1666666666665,112.26443750000001,838.5833333333333,112.25653125000001,840.9999999999999,112.248625C843.4166666666666,112.24071875,845.8333333333333,112.2328125,848.25,112.22490624999999C850.6666666666666,112.21699999999998,853.0833333333334,112.20909375,855.5,112.2011875C857.9166666666666,112.19328125000001,860.3333333333334,112.18537500000001,862.75,112.17746875C865.1666666666666,112.1695625,867.5833333333334,112.16165625,870,112.15374999999999C872.4166666666666,112.14584374999998,874.8333333333334,112.13793749999999,877.25,112.13003125C879.6666666666666,112.12212500000001,882.0833333333334,112.11421875,884.5,112.1063125C886.9166666666666,112.09840625,889.3333333333334,112.0905,891.75,112.08259375C894.1666666666666,112.0746875,896.5833333333334,112.06678125,899,112.058875C901.4166666666666,112.05096875,903.8333333333334,112.0430625,906.25,112.03515625C908.6666666666666,112.02725,911.0833333333334,112.01934375,913.5,112.0114375C915.9166666666666,112.00353125,918.3333333333334,111.995625,920.75,111.98771875C923.1666666666666,111.9798125,925.5833333333334,111.97190625,928,111.964C930.4166666666666,111.95609375,932.8333333333334,111.9481875,935.25,111.94028125C937.6666666666666,111.932375,940.0833333333334,111.92446875,942.5,111.9165625C944.9166666666666,111.90865624999999,947.3333333333334,111.90075,949.75,111.89284375C952.1666666666666,111.88493749999999,954.5833333333334,111.87703125,957,111.869125C959.4166666666666,111.86121874999999,961.8333333333334,111.8533125,964.25,111.84540625C966.6666666666667,111.83749999999999,969.0833333333334,111.82959375,971.5000000000001,111.8216875C973.9166666666667,111.81378125,976.3333333333335,111.80587500000001,978.7500000000001,111.79796875000001C981.1666666666667,111.7900625,983.5833333333335,111.78215625,986.0000000000001,111.77425C988.4166666666667,111.76634374999999,990.8333333333335,111.75843750000001,993.2500000000001,111.75053125000001C995.6666666666667,111.742625,998.0833333333333,111.73471875,1000.4999999999999,111.7268125C1002.9166666666665,111.71890624999999,1005.3333333333333,111.71099999999998,1007.7499999999999,111.70309375C1010.1666666666665,111.6951875,1012.5833333333333,111.68728125,1014.9999999999999,111.67937500000001C1017.4166666666665,111.67146875000002,1019.8333333333333,111.66356250000001,1022.2499999999999,111.65565625C1024.6666666666665,111.64775,1027.0833333333333,111.63984375,1029.5,111.63193749999999C1031.9166666666667,111.62403124999999,1034.3333333333333,111.616125,1036.75,111.60821875C1039.1666666666667,111.60031250000002,1041.5833333333333,111.59240625000001,1044,111.5845C1046.4166666666667,111.57659375,1048.8333333333333,111.5686875,1051.25,111.56078124999999C1053.6666666666667,111.55287499999999,1056.0833333333333,111.54496875,1058.5,111.5370625C1060.9166666666667,111.52915625000001,1063.3333333333333,111.52125000000001,1065.75,111.51334375C1068.1666666666667,111.5054375,1070.5833333333333,111.49753125000001,1073,111.489625C1075.4166666666667,111.48171875,1077.8333333333333,111.47381250000001,1080.25,111.46590625C1082.6666666666667,111.458,1085.0833333333333,111.45009375000001,1087.5,111.4421875C1089.9166666666667,111.43428125,1092.3333333333333,111.42637500000001,1094.75,111.41846875C1097.1666666666667,111.4105625,1099.5833333333333,111.40265625,1102,111.39475C1104.4166666666667,111.38684375,1106.8333333333333,111.3789375,1109.25,111.37103125C1111.6666666666667,111.363125,1114.0833333333333,111.35521875,1116.5,111.3473125C1118.9166666666667,111.33940625,1121.3333333333333,111.3315,1123.75,111.32359375C1126.1666666666667,111.3156875,1128.5833333333333,111.30778125,1131,111.299875C1133.4166666666667,111.29196875,1135.8333333333333,111.2840625,1138.25,111.27615625C1140.6666666666667,111.26825,1143.0833333333333,111.26034375,1145.5,111.2524375C1147.9166666666667,111.24453125,1150.3333333333333,111.236625,1152.75,111.22871875C1155.1666666666667,111.2208125,1157.5833333333333,111.2208125,1160,111.205C1162.4166666666667,111.1891875,1164.8333333333333,111.05166666666666,1167.25,110.975C1169.6666666666667,110.89833333333333,1172.0833333333333,110.82166666666666,1174.5,110.74499999999999C1176.9166666666667,110.66833333333332,1179.3333333333333,110.59166666666667,1181.75,110.515C1184.1666666666667,110.43833333333333,1186.5833333333333,110.36166666666666,1189,110.285C1191.4166666666667,110.20833333333333,1193.8333333333333,110.13166666666666,1196.25,110.05499999999999C1198.6666666666667,109.97833333333332,1201.0833333333333,109.90166666666666,1203.5,109.82499999999999C1205.9166666666667,109.74833333333332,1208.3333333333333,109.67166666666667,1210.75,109.595C1213.1666666666667,109.51833333333333,1215.5833333333333,109.44166666666666,1218,109.365C1220.4166666666667,109.28833333333333,1222.8333333333333,109.21166666666666,1225.25,109.13499999999999C1227.6666666666667,109.05833333333332,1230.0833333333333,108.98166666666667,1232.5,108.905C1234.9166666666667,108.82833333333333,1237.3333333333333,108.75166666666667,1239.75,108.675C1242.1666666666667,108.59833333333333,1244.5833333333333,108.52166666666666,1247,108.445C1249.4166666666667,108.36833333333333,1251.8333333333333,108.29166666666667,1254.25,108.215C1256.6666666666667,108.13833333333334,1259.0833333333333,108.06166666666668,1261.5,107.98500000000001C1263.9166666666667,107.90833333333335,1266.3333333333333,107.83166666666668,1268.75,107.75500000000001C1271.1666666666667,107.67833333333334,1273.5833333333333,107.60166666666667,1276,107.525C1278.4166666666667,107.44833333333334,1280.8333333333333,107.37166666666667,1283.25,107.295C1285.6666666666667,107.21833333333333,1288.0833333333333,107.14166666666668,1290.5,107.06500000000001C1292.9166666666667,106.98833333333334,1295.3333333333333,106.91166666666668,1297.75,106.83500000000001C1300.1666666666667,106.75833333333334,1302.5833333333333,106.68166666666667,1305,106.605C1307.4166666666667,106.52833333333334,1309.8333333333333,106.45166666666667,1312.25,106.375C1314.6666666666667,106.29833333333333,1317.0833333333333,106.22166666666668,1319.5,106.14500000000001C1321.9166666666667,106.06833333333334,1324.3333333333333,105.99166666666667,1326.75,105.915C1329.1666666666667,105.83833333333334,1331.5833333333333,105.76166666666667,1334,105.685C1336.4166666666667,105.60833333333333,1338.8333333333333,105.53166666666667,1341.25,105.455C1343.6666666666667,105.37833333333333,1346.0833333333333,105.30166666666668,1348.5,105.22500000000001C1350.9166666666667,105.14833333333334,1353.3333333333333,105.07166666666667,1355.75,104.995C1358.1666666666667,104.91833333333334,1360.5833333333333,104.84166666666667,1363,104.765C1365.4166666666667,104.68833333333333,1367.8333333333333,104.61166666666666,1370.25,104.535C1372.6666666666667,104.45833333333333,1375.0833333333333,104.38166666666667,1377.5,104.305C1379.9166666666667,104.22833333333334,1382.3333333333333,104.15166666666667,1384.75,104.075C1387.1666666666667,103.99833333333333,1389.5833333333333,103.92166666666667,1392,103.845C1394.4166666666667,103.76833333333333,1396.8333333333333,103.69166666666668,1399.25,103.61500000000001C1401.6666666666667,103.53833333333334,1404.0833333333333,103.46166666666667,1406.5,103.385C1408.9166666666667,103.30833333333334,1411.3333333333333,103.23166666666667,1413.75,103.155C1416.1666666666667,103.07833333333333,1418.5833333333333,103.00166666666667,1421,102.925C1423.4166666666667,102.84833333333333,1425.8333333333333,102.77166666666668,1428.25,102.69500000000001C1430.6666666666667,102.61833333333334,1433.0833333333333,102.54166666666667,1435.5,102.465C1437.9166666666667,102.38833333333334,1440.3333333333333,102.31166666666667,1442.75,102.235C1445.1666666666667,102.15833333333333,1447.5833333333333,102.08166666666666,1450,102.005" fill="transparent" stroke-linecap="round" stroke="#B6509E" stroke-width="2"></path><path class="visx-linepath" d="M0,103.49999999997125C2.4166666666666665,103.49520833331655,4.833333333333334,103.49041666666187,7.25,103.485625C9.666666666666666,103.48083333333813,12.083333333333334,103.47604166666667,14.5,103.47125000000001C16.916666666666668,103.46645833333335,19.333333333333332,103.46166666666667,21.75,103.456875C24.166666666666668,103.45208333333332,26.583333333333332,103.44729166666666,29,103.4425C31.416666666666668,103.43770833333333,33.833333333333336,103.43291666666667,36.25,103.42812500000001C38.666666666666664,103.42333333333335,41.083333333333336,103.41854166666666,43.5,103.41375C45.91666666666667,103.40895833333332,48.333333333333336,103.40416666666665,50.75000000000001,103.39937499999999C53.16666666666667,103.39458333333333,55.583333333333336,103.38979166666667,58,103.385C60.416666666666664,103.38020833333334,62.833333333333336,103.37541666666667,65.25,103.370625C67.66666666666667,103.36583333333334,70.08333333333333,103.36104166666665,72.5,103.35624999999999C74.91666666666667,103.35145833333333,77.33333333333333,103.34666666666666,79.75,103.341875C82.16666666666667,103.33708333333334,84.58333333333333,103.33229166666666,87,103.3275C89.41666666666667,103.32270833333334,91.83333333333333,103.31791666666666,94.25,103.313125C96.66666666666667,103.30833333333334,99.08333333333334,103.30354166666666,101.50000000000001,103.29875C103.91666666666667,103.29395833333334,106.33333333333334,103.28916666666667,108.75,103.28437500000001C111.16666666666667,103.27958333333335,113.58333333333333,103.27479166666666,116,103.27C118.41666666666667,103.26520833333332,120.83333333333334,103.26041666666666,123.25000000000001,103.255625C125.66666666666667,103.25083333333333,128.08333333333334,103.24604166666667,130.5,103.24125000000001C132.91666666666666,103.23645833333335,135.33333333333334,103.23166666666668,137.75,103.226875C140.16666666666666,103.22208333333333,142.58333333333334,103.21729166666665,145,103.21249999999999C147.41666666666666,103.20770833333333,149.83333333333334,103.20291666666667,152.25,103.198125C154.66666666666666,103.19333333333334,157.08333333333334,103.18854166666668,159.5,103.18375C161.91666666666666,103.17895833333333,164.33333333333334,103.17416666666665,166.75,103.16937499999999C169.16666666666666,103.16458333333333,171.58333333333334,103.15979166666666,174,103.155C176.41666666666666,103.15020833333334,178.83333333333334,103.14541666666666,181.25,103.140625C183.66666666666666,103.13583333333334,186.08333333333334,103.13104166666666,188.5,103.12625C190.91666666666666,103.12145833333334,193.33333333333334,103.11666666666666,195.75,103.111875C198.16666666666669,103.10708333333334,200.58333333333334,103.10229166666666,203.00000000000003,103.0975C205.41666666666669,103.09270833333333,207.83333333333331,103.08791666666667,210.24999999999997,103.08312500000001C212.66666666666666,103.07833333333335,215.08333333333331,103.07354166666666,217.5,103.06875C219.91666666666666,103.06395833333333,222.33333333333334,103.05916666666667,224.75,103.05437500000001C227.16666666666666,103.04958333333335,229.58333333333334,103.04479166666667,232,103.04C234.41666666666666,103.03520833333334,236.83333333333334,103.03041666666665,239.25,103.02562499999999C241.66666666666669,103.02083333333333,244.08333333333334,103.01604166666667,246.50000000000003,103.01125C248.91666666666669,103.00645833333334,251.33333333333331,103.00166666666667,253.74999999999997,102.996875C256.16666666666663,102.99208333333334,258.5833333333333,102.98729166666666,261,102.9825C263.4166666666667,102.97770833333334,265.8333333333333,102.97291666666666,268.25,102.968125C270.6666666666667,102.96333333333334,273.0833333333333,102.95854166666666,275.5,102.95375C277.9166666666667,102.94895833333334,280.3333333333333,102.94416666666666,282.75,102.939375C285.1666666666667,102.93458333333334,287.5833333333333,102.92979166666666,290,102.925C292.4166666666667,102.92020833333333,294.8333333333333,102.91541666666666,297.25,102.910625C299.6666666666667,102.90583333333333,302.0833333333333,102.90104166666666,304.5,102.89625C306.9166666666667,102.89145833333333,309.3333333333333,102.88666666666666,311.75,102.881875C314.1666666666667,102.87708333333333,316.5833333333333,102.87229166666667,319,102.8675C321.4166666666667,102.86270833333334,323.8333333333333,102.85791666666667,326.25,102.853125C328.6666666666667,102.84833333333334,331.0833333333333,102.84354166666667,333.5,102.83875C335.9166666666667,102.83395833333334,338.3333333333333,102.82916666666667,340.75,102.824375C343.1666666666667,102.81958333333334,345.5833333333333,102.81479166666666,348,102.81C350.4166666666667,102.80520833333334,352.8333333333333,102.80041666666666,355.25,102.795625C357.6666666666667,102.79083333333334,360.0833333333333,102.78604166666666,362.5,102.78125C364.9166666666667,102.77645833333334,367.3333333333333,102.77166666666666,369.75,102.766875C372.1666666666667,102.76208333333334,374.5833333333333,102.75729166666666,377,102.7525C379.4166666666667,102.74770833333334,381.8333333333333,102.74291666666666,384.25,102.738125C386.6666666666667,102.73333333333333,389.0833333333333,102.72854166666666,391.5,102.72375C393.9166666666667,102.71895833333333,396.33333333333337,102.71416666666666,398.75000000000006,102.709375C401.16666666666674,102.70458333333333,403.58333333333337,102.69979166666667,406.00000000000006,102.69500000000001C408.4166666666667,102.69020833333335,410.8333333333333,102.68541666666665,413.24999999999994,102.68062499999999C415.66666666666663,102.67583333333333,418.08333333333326,102.67104166666667,420.49999999999994,102.66625C422.91666666666663,102.66145833333334,425.3333333333333,102.65666666666668,427.75,102.651875C430.1666666666667,102.64708333333334,432.5833333333333,102.64229166666665,435,102.63749999999999C437.4166666666667,102.63270833333333,439.8333333333333,102.62791666666666,442.25,102.623125C444.6666666666667,102.61833333333334,447.0833333333333,102.61354166666666,449.5,102.60875C451.9166666666667,102.60395833333334,454.3333333333333,102.59916666666668,456.75,102.59437500000001C459.1666666666667,102.58958333333335,461.5833333333333,102.58479166666666,464,102.58C466.4166666666667,102.57520833333334,468.8333333333333,102.57041666666666,471.25,102.565625C473.6666666666667,102.56083333333333,476.0833333333333,102.55604166666667,478.5,102.55125000000001C480.9166666666667,102.54645833333335,483.33333333333337,102.54166666666667,485.75000000000006,102.536875C488.16666666666674,102.53208333333333,490.58333333333337,102.52729166666666,493.00000000000006,102.5225C495.4166666666667,102.51770833333333,497.8333333333333,102.51291666666667,500.24999999999994,102.508125C502.66666666666663,102.50333333333334,505.08333333333326,102.49854166666665,507.49999999999994,102.49374999999999C509.91666666666663,102.48895833333331,512.3333333333333,102.48416666666665,514.75,102.47937499999999C517.1666666666666,102.47458333333333,519.5833333333334,102.46979166666667,522,102.465C524.4166666666666,102.46020833333334,526.8333333333334,102.45541666666668,529.25,102.450625C531.6666666666666,102.44583333333333,534.0833333333334,102.44104166666665,536.5,102.43624999999999C538.9166666666666,102.43145833333332,541.3333333333334,102.42666666666666,543.75,102.421875C546.1666666666666,102.41708333333334,548.5833333333334,102.41229166666668,551,102.40750000000001C553.4166666666666,102.40270833333335,555.8333333333334,102.39791666666667,558.25,102.393125C560.6666666666666,102.38833333333332,563.0833333333334,102.38354166666666,565.5,102.37875C567.9166666666666,102.37395833333333,570.3333333333334,102.36916666666667,572.75,102.36437500000001C575.1666666666666,102.35958333333335,577.5833333333334,102.35479166666667,580,102.35000000000001C582.4166666666666,102.34520833333335,584.8333333333334,102.34041666666666,587.25,102.335625C589.6666666666666,102.33083333333333,592.0833333333334,102.32604166666667,594.5,102.32125C596.9166666666666,102.31645833333334,599.3333333333334,102.31166666666667,601.75,102.306875C604.1666666666666,102.30208333333334,606.5833333333334,102.29729166666665,609,102.29249999999999C611.4166666666666,102.28770833333333,613.8333333333334,102.28291666666667,616.25,102.278125C618.6666666666666,102.27333333333334,621.0833333333334,102.26854166666666,623.5,102.26375C625.9166666666666,102.25895833333334,628.3333333333334,102.25416666666665,630.75,102.24937499999999C633.1666666666666,102.24458333333332,635.5833333333334,102.23979166666666,638,102.235C640.4166666666666,102.23020833333334,642.8333333333334,102.22541666666666,645.25,102.220625C647.6666666666666,102.21583333333334,650.0833333333334,102.21104166666667,652.5,102.20625000000001C654.9166666666666,102.20145833333335,657.3333333333334,102.19666666666666,659.75,102.191875C662.1666666666666,102.18708333333333,664.5833333333334,102.18229166666666,667,102.1775C669.4166666666666,102.17270833333333,671.8333333333334,102.16791666666667,674.25,102.16312500000001C676.6666666666666,102.15833333333335,679.0833333333334,102.15354166666665,681.5,102.14874999999999C683.9166666666666,102.14395833333333,686.3333333333334,102.13916666666667,688.75,102.134375C691.1666666666666,102.12958333333334,693.5833333333334,102.12479166666667,696,102.12C698.4166666666666,102.11520833333334,700.8333333333334,102.11041666666667,703.25,102.105625C705.6666666666666,102.10083333333334,708.0833333333334,102.09604166666666,710.5,102.09125C712.9166666666666,102.08645833333334,715.3333333333334,102.08166666666666,717.75,102.076875C720.1666666666666,102.07208333333334,722.5833333333334,102.06729166666666,725,102.0625C727.4166666666666,102.05770833333334,729.8333333333334,102.05291666666666,732.25,102.048125C734.6666666666666,102.04333333333334,737.0833333333334,102.03854166666666,739.5,102.03375C741.9166666666666,102.02895833333334,744.3333333333334,102.02416666666666,746.75,102.019375C749.1666666666666,102.01458333333333,751.5833333333334,102.00979166666666,754,102.005C756.4166666666666,102.00020833333333,758.8333333333334,101.99541666666666,761.25,101.990625C763.6666666666666,101.98583333333333,766.0833333333334,101.98104166666666,768.5,101.97625C770.9166666666666,101.97145833333333,773.3333333333334,101.96666666666667,775.75,101.961875C778.1666666666666,101.95708333333334,780.5833333333334,101.95229166666667,783,101.9475C785.4166666666667,101.94270833333334,787.8333333333334,101.93791666666667,790.2500000000001,101.933125C792.6666666666667,101.92833333333334,795.0833333333335,101.92354166666667,797.5000000000001,101.91875C799.9166666666667,101.91395833333334,802.3333333333335,101.90916666666666,804.7500000000001,101.904375C807.1666666666667,101.89958333333334,809.5833333333335,101.89479166666666,812.0000000000001,101.89C814.4166666666667,101.88520833333334,816.8333333333333,101.88041666666666,819.2499999999999,101.875625C821.6666666666665,101.87083333333334,824.0833333333333,101.86604166666666,826.4999999999999,101.86125C828.9166666666665,101.85645833333334,831.3333333333333,101.85166666666666,833.7499999999999,101.846875C836.1666666666665,101.84208333333333,838.5833333333333,101.83729166666666,840.9999999999999,101.8325C843.4166666666666,101.82770833333333,845.8333333333333,101.82291666666667,848.25,101.81812500000001C850.6666666666666,101.81333333333335,853.0833333333334,101.80854166666666,855.5,101.80375C857.9166666666666,101.79895833333333,860.3333333333334,101.79416666666665,862.75,101.78937499999999C865.1666666666666,101.78458333333333,867.5833333333334,101.77979166666667,870,101.775C872.4166666666666,101.77020833333334,874.8333333333334,101.76541666666665,877.25,101.76062499999999C879.6666666666666,101.75583333333333,882.0833333333334,101.75104166666667,884.5,101.74625C886.9166666666666,101.74145833333334,889.3333333333334,101.73666666666666,891.75,101.731875C894.1666666666666,101.72708333333334,896.5833333333334,101.72229166666666,899,101.7175C901.4166666666666,101.71270833333334,903.8333333333334,101.70791666666666,906.25,101.703125C908.6666666666666,101.69833333333334,911.0833333333334,101.69354166666666,913.5,101.68875C915.9166666666666,101.68395833333334,918.3333333333334,101.67916666666667,920.75,101.67437500000001C923.1666666666666,101.66958333333335,925.5833333333334,101.66479166666667,928,101.66C930.4166666666666,101.65520833333332,932.8333333333334,101.65041666666666,935.25,101.645625C937.6666666666666,101.64083333333333,940.0833333333334,101.63604166666667,942.5,101.63125000000001C944.9166666666666,101.62645833333335,947.3333333333334,101.62166666666667,949.75,101.616875C952.1666666666666,101.61208333333332,954.5833333333334,101.60729166666665,957,101.60249999999999C959.4166666666666,101.59770833333333,961.8333333333334,101.59291666666667,964.25,101.588125C966.6666666666667,101.58333333333334,969.0833333333334,101.57854166666668,971.5000000000001,101.57375C973.9166666666667,101.56895833333334,976.3333333333335,101.56416666666665,978.7500000000001,101.55937499999999C981.1666666666667,101.55458333333333,983.5833333333335,101.54979166666666,986.0000000000001,101.545C988.4166666666667,101.54020833333334,990.8333333333335,101.53541666666666,993.2500000000001,101.530625C995.6666666666667,101.52583333333334,998.0833333333333,101.52104166666666,1000.4999999999999,101.51625C1002.9166666666665,101.51145833333334,1005.3333333333333,101.50666666666666,1007.7499999999999,101.501875C1010.1666666666665,101.49708333333334,1012.5833333333333,101.49229166666667,1014.9999999999999,101.48750000000001C1017.4166666666665,101.48270833333335,1019.8333333333333,101.47791666666666,1022.2499999999999,101.473125C1024.6666666666665,101.46833333333332,1027.0833333333333,101.46354166666666,1029.5,101.45875C1031.9166666666667,101.45395833333333,1034.3333333333333,101.44916666666667,1036.75,101.44437500000001C1039.1666666666667,101.43958333333335,1041.5833333333333,101.43479166666668,1044,101.43C1046.4166666666667,101.42520833333333,1048.8333333333333,101.42041666666665,1051.25,101.41562499999999C1053.6666666666667,101.41083333333333,1056.0833333333333,101.40604166666667,1058.5,101.40125C1060.9166666666667,101.39645833333334,1063.3333333333333,101.39166666666668,1065.75,101.386875C1068.1666666666667,101.38208333333333,1070.5833333333333,101.37729166666665,1073,101.37249999999999C1075.4166666666667,101.36770833333333,1077.8333333333333,101.36291666666666,1080.25,101.358125C1082.6666666666667,101.35333333333334,1085.0833333333333,101.34854166666666,1087.5,101.34375C1089.9166666666667,101.33895833333334,1092.3333333333333,101.33416666666666,1094.75,101.329375C1097.1666666666667,101.32458333333334,1099.5833333333333,101.31979166666666,1102,101.315C1104.4166666666667,101.31020833333334,1106.8333333333333,101.30541666666666,1109.25,101.300625C1111.6666666666667,101.29583333333333,1114.0833333333333,101.29104166666667,1116.5,101.28625000000001C1118.9166666666667,101.28145833333335,1121.3333333333333,101.27666666666666,1123.75,101.271875C1126.1666666666667,101.26708333333333,1128.5833333333333,101.26229166666667,1131,101.25750000000001C1133.4166666666667,101.25270833333335,1135.8333333333333,101.24791666666667,1138.25,101.243125C1140.6666666666667,101.23833333333334,1143.0833333333333,101.23354166666665,1145.5,101.22874999999999C1147.9166666666667,101.22395833333333,1150.3333333333333,101.21916666666667,1152.75,101.214375C1155.1666666666667,101.20958333333334,1157.5833333333333,101.20958333333334,1160,101.2C1162.4166666666667,101.19041666666666,1164.8333333333333,99.76249999999999,1167.25,99.04374999999999C1169.6666666666667,98.32499999999999,1172.0833333333333,97.60625,1174.5,96.8875C1176.9166666666667,96.16875,1179.3333333333333,95.45,1181.75,94.73125C1184.1666666666667,94.0125,1186.5833333333333,93.29374999999999,1189,92.57499999999999C1191.4166666666667,91.85624999999999,1193.8333333333333,91.1375,1196.25,90.41875C1198.6666666666667,89.7,1201.0833333333333,88.98124999999999,1203.5,88.26249999999999C1205.9166666666667,87.54374999999999,1208.3333333333333,86.825,1210.75,86.10625C1213.1666666666667,85.3875,1215.5833333333333,84.66875,1218,83.95C1220.4166666666667,83.23125,1222.8333333333333,82.51249999999999,1225.25,81.79374999999999C1227.6666666666667,81.07499999999999,1230.0833333333333,80.35625,1232.5,79.6375C1234.9166666666667,78.91875,1237.3333333333333,78.2,1239.75,77.48125C1242.1666666666667,76.7625,1244.5833333333333,76.04375,1247,75.325C1249.4166666666667,74.60625,1251.8333333333333,73.8875,1254.25,73.16875C1256.6666666666667,72.45,1259.0833333333333,71.73124999999999,1261.5,71.01249999999999C1263.9166666666667,70.29374999999999,1266.3333333333333,69.575,1268.75,68.85625C1271.1666666666667,68.1375,1273.5833333333333,67.41875,1276,66.7C1278.4166666666667,65.98125,1280.8333333333333,65.2625,1283.25,64.54375C1285.6666666666667,63.825,1288.0833333333333,63.106249999999996,1290.5,62.387499999999996C1292.9166666666667,61.668749999999996,1295.3333333333333,60.949999999999996,1297.75,60.231249999999996C1300.1666666666667,59.512499999999996,1302.5833333333333,58.79375,1305,58.075C1307.4166666666667,57.35625,1309.8333333333333,56.637499999999996,1312.25,55.918749999999996C1314.6666666666667,55.199999999999996,1317.0833333333333,54.48125,1319.5,53.7625C1321.9166666666667,53.04375,1324.3333333333333,52.324999999999996,1326.75,51.606249999999996C1329.1666666666667,50.887499999999996,1331.5833333333333,50.16875,1334,49.45C1336.4166666666667,48.73125,1338.8333333333333,48.0125,1341.25,47.29375C1343.6666666666667,46.575,1346.0833333333333,45.856249999999996,1348.5,45.137499999999996C1350.9166666666667,44.418749999999996,1353.3333333333333,43.7,1355.75,42.98125C1358.1666666666667,42.2625,1360.5833333333333,41.543749999999996,1363,40.824999999999996C1365.4166666666667,40.106249999999996,1367.8333333333333,39.3875,1370.25,38.66875C1372.6666666666667,37.95,1375.0833333333333,37.23125,1377.5,36.5125C1379.9166666666667,35.79375,1382.3333333333333,35.074999999999996,1384.75,34.356249999999996C1387.1666666666667,33.637499999999996,1389.5833333333333,32.91875,1392,32.2C1394.4166666666667,31.481250000000003,1396.8333333333333,30.7625,1399.25,30.04375C1401.6666666666667,29.325,1404.0833333333333,28.606250000000006,1406.5,27.887500000000006C1408.9166666666667,27.168750000000006,1411.3333333333333,26.450000000000003,1413.75,25.73125C1416.1666666666667,25.012499999999996,1418.5833333333333,24.293749999999996,1421,23.574999999999996C1423.4166666666667,22.856249999999996,1425.8333333333333,22.137500000000003,1428.25,21.418750000000003C1430.6666666666667,20.700000000000003,1433.0833333333333,19.98125,1435.5,19.2625C1437.9166666666667,18.54375,1440.3333333333333,17.825000000000006,1442.75,17.106250000000006C1445.1666666666667,16.387500000000006,1447.5833333333333,15.668750000000005,1450,14.950000000000001" fill="transparent" stroke-linecap="round" stroke="#E7C6DF" stroke-width="2"></path><g class="visx-group visx-axis visx-axis-bottom" transform="translate(0, 115)"><g class="visx-group visx-axis-tick" transform="translate(0, 0)"><line class="visx-line" x1="0" y1="0" x2="0" y2="8" fill="transparent" shape-rendering="crispEdges" stroke="#000" stroke-width="0" stroke-linecap="square"></line><svg x="0" y="0" font-size="10" style="overflow:visible"><text transform="" x="0" y="18" fill="#000" font-size="10" text-anchor="middle"><tspan x="0" dy="0em">0%</tspan></text></svg></g><g class="visx-group visx-axis-tick" transform="translate(0, 0)"><line class="visx-line" x1="362.5" y1="0" x2="362.5" y2="8" fill="transparent" shape-rendering="crispEdges" stroke="#000" stroke-width="0" stroke-linecap="square"></line><svg x="0" y="0" font-size="10" style="overflow:visible"><text transform="" x="362.5" y="18" fill="#000" font-size="10" text-anchor="middle"><tspan x="362.5" dy="0em">25%</tspan></text></svg></g><g class="visx-group visx-axis-tick" transform="translate(0, 0)"><line class="visx-line" x1="725" y1="0" x2="725" y2="8" fill="transparent" shape-rendering="crispEdges" stroke="#000" stroke-width="0" stroke-linecap="square"></line><svg x="0" y="0" font-size="10" style="overflow:visible"><text transform="" x="725" y="18" fill="#000" font-size="10" text-anchor="middle"><tspan x="725" dy="0em">50%</tspan></text></svg></g><g class="visx-group visx-axis-tick" transform="translate(0, 0)"><line class="visx-line" x1="1087.5" y1="0" x2="1087.5" y2="8" fill="transparent" shape-rendering="crispEdges" stroke="#000" stroke-width="0" stroke-linecap="square"></line><svg x="0" y="0" font-size="10" style="overflow:visible"><text transform="" x="1087.5" y="18" fill="#000" font-size="10" text-anchor="middle"><tspan x="1087.5" dy="0em">75%</tspan></text></svg></g><g class="visx-group visx-axis-tick" transform="translate(0, 0)"><line class="visx-line" x1="1450" y1="0" x2="1450" y2="8" fill="transparent" shape-rendering="crispEdges" stroke="#000" stroke-width="0" stroke-linecap="square"></line><svg x="0" y="0" font-size="10" style="overflow:visible"><text transform="" x="1450" y="18" fill="#000" font-size="10" text-anchor="middle"><tspan x="1450" dy="0em">100%</tspan></text></svg></g><line class="visx-line visx-axis-line" x1="0.5" y1="0" x2="1450.5" y2="0" fill="transparent" shape-rendering="crispEdges" stroke="#222" stroke-width="0"></line></g><g class="visx-group visx-axis visx-axis-left" transform="translate(0, 0)"><g class="visx-group visx-axis-tick" transform="translate(0, 0)"><line class="visx-line" x1="0" y1="115" x2="-8" y2="115" fill="transparent" shape-rendering="crispEdges" stroke="#222" stroke-width="0" stroke-linecap="square"></line><svg x="-30" y="0" font-size="8" style="overflow:visible"><text transform="" x="-8" y="115" fill="#000" font-size="8" text-anchor="start"><tspan x="-8" dy="0em">0%</tspan></text></svg></g><g class="visx-group visx-axis-tick" transform="translate(0, 0)"><line class="visx-line" x1="0" y1="57.5" x2="-8" y2="57.5" fill="transparent" shape-rendering="crispEdges" stroke="#222" stroke-width="0" stroke-linecap="square"></line><svg x="-30" y="0" font-size="8" style="overflow:visible"><text transform="" x="-8" y="57.5" fill="#000" font-size="8" text-anchor="start"><tspan x="-8" dy="0em">50%</tspan></text></svg></g><g class="visx-group visx-axis-tick" transform="translate(0, 0)"><line class="visx-line" x1="0" y1="0" x2="-8" y2="0" fill="transparent" shape-rendering="crispEdges" stroke="#222" stroke-width="0" stroke-linecap="square"></line><svg x="-30" y="0" font-size="8" style="overflow:visible"><text transform="" x="-8" y="0" fill="#000" font-size="8" text-anchor="start"><tspan x="-8" dy="0em">100%</tspan></text></svg></g><line class="visx-line visx-axis-line" x1="0" y1="115.5" x2="0" y2="0.5" fill="transparent" shape-rendering="crispEdges" stroke="#222" stroke-width="0"></line></g><rect class="visx-bar" width="1450" height="115" fill="transparent"></rect><line class="visx-line" x1="1160" y1="28" x2="1160" y2="115" fill="transparent" shape-rendering="crispEdges" stroke="#0062D2" stroke-width="1" pointer-events="none" stroke-dasharray="5,2"></line><svg x="0" y="0" font-size="10px" style="overflow:visible"><text transform="" x="1160" y="20" font-size="10px" fill="#fff" stroke="#fff" stroke-width="0.8em" text-anchor="middle"><tspan x="1160" dy="0.355em">Optimal 80%</tspan></text></svg><svg x="0" y="0" font-size="10px" style="overflow:visible"><text transform="" x="1160" y="20" font-size="10px" fill="#62677B" text-anchor="middle"><tspan x="1160" dy="0.355em">Optimal 80%</tspan></text></svg></g></svg>