<?xml version="1.0"?><svg xmlns="http://www.w3.org/2000/svg" xmlns:xlink= "http://www.w3.org/1999/xlink" style="background: white;" width="1500" height="300"> <g style="color: black; font-size: 13px; font-family: sans-serif; transform: translate(18px, 25px);"><g><circle r="3" cx="-6" cy="-5" style="fill: #1AD4B3" /><text>Borrow APR, variable</text></g><g style="transform: translateX(150px);"><circle r="3" cx="-6" cy="-5" style="fill: #101423" /><text>Borrow APR, stable</text></g></g><g class="visx-group" transform="translate(45, 50)"><g class="visx-group visx-rows" transform="translate(0, 0)"><line class="visx-line" x1="0" y1="155" x2="1425" y2="155" fill="transparent" shape-rendering="crispEdges" stroke="#F2F0F9" stroke-width="1" pointer-events="none"></line><line class="visx-line" x1="0" y1="103.33333333333334" x2="1425" y2="103.33333333333334" fill="transparent" shape-rendering="crispEdges" stroke="#F2F0F9" stroke-width="1" pointer-events="none"></line><line class="visx-line" x1="0" y1="51.66666666666667" x2="1425" y2="51.66666666666667" fill="transparent" shape-rendering="crispEdges" stroke="#F2F0F9" stroke-width="1" pointer-events="none"></line><line class="visx-line" x1="0" y1="0" x2="1425" y2="0" fill="transparent" shape-rendering="crispEdges" stroke="#F2F0F9" stroke-width="1" pointer-events="none"></line></g><path class="visx-linepath" d="M0,154.99999999996683C2.375,154.99447259757824,4.75,154.98894519518964,7.125,154.98341779279278C9.5,154.9778903903959,11.875,154.972362987988,14.25,154.96683558558559C16.625,154.96130818318318,19,154.9557807807808,21.375,154.9502533783784C23.75,154.94472597597598,26.125,154.93919857357358,28.5,154.93367117117117C30.875,154.92814376876876,33.25,154.92261636636638,35.625,154.91708896396398C38,154.91156156156157,40.375,154.90603415915916,42.75,154.90050675675676C45.125,154.89497935435435,47.50000000000001,154.88945195195194,49.87500000000001,154.88392454954953C52.25000000000001,154.87839714714713,54.625,154.87286974474475,57,154.86734234234234C59.375,154.86181493993993,61.75,154.85628753753755,64.125,154.85076013513515C66.5,154.84523273273274,68.875,154.83970533033033,71.25,154.83417792792793C73.625,154.82865052552552,76,154.82312312312314,78.375,154.81759572072073C80.75,154.81206831831832,83.125,154.80654091591592,85.5,154.8010135135135C87.875,154.7954861111111,90.25,154.7899587087087,92.625,154.7844313063063C95,154.77890390390388,97.37500000000001,154.7733765015015,99.75000000000001,154.7678490990991C102.12500000000001,154.7623216966967,104.5,154.7567942942943,106.875,154.7512668918919C109.25,154.7457394894895,111.625,154.7402120870871,114,154.73468468468468C116.375,154.72915728228227,118.75000000000001,154.7236298798799,121.12500000000001,154.7181024774775C123.50000000000001,154.71257507507508,125.875,154.70704767267267,128.25,154.70152027027027C130.625,154.69599286786786,133,154.69046546546545,135.375,154.68493806306304C137.75,154.67941066066064,140.125,154.67388325825826,142.5,154.66835585585585C144.875,154.66282845345344,147.25,154.65730105105106,149.625,154.65177364864866C152,154.64624624624625,154.375,154.64071884384384,156.75,154.63519144144144C159.125,154.62966403903903,161.5,154.62413663663665,163.875,154.61860923423424C166.25,154.61308183183183,168.625,154.60755442942943,171,154.60202702702702C173.375,154.5964996246246,175.75,154.5909722222222,178.125,154.5854448198198C180.5,154.5799174174174,182.875,154.574390015015,185.25,154.5688626126126C187.625,154.5633352102102,190,154.55780780780782,192.375,154.5522804054054C194.75,154.546753003003,197.12500000000003,154.5412256006006,199.50000000000003,154.5356981981982C201.875,154.53017079579578,204.25,154.5246433933934,206.62499999999997,154.519115990991C208.99999999999997,154.5135885885886,211.375,154.50806118618618,213.75,154.50253378378378C216.125,154.49700638138137,218.5,154.491478978979,220.875,154.48595157657658C223.25,154.48042417417417,225.625,154.4748967717718,228,154.4693693693694C230.375,154.46384196696698,232.75,154.45831456456457,235.125,154.45278716216217C237.5,154.44725975975976,239.87500000000003,154.44173235735735,242.25000000000003,154.43620495495495C244.625,154.43067755255254,247,154.42515015015016,249.37499999999997,154.41962274774775C251.74999999999997,154.41409534534534,254.125,154.40856794294294,256.5,154.40304054054053C258.875,154.39751313813812,261.25,154.39198573573574,263.625,154.38645833333334C266,154.38093093093093,268.375,154.37540352852855,270.75,154.36987612612614C273.125,154.36434872372374,275.5,154.35882132132133,277.875,154.35329391891892C280.25,154.34776651651651,282.625,154.3422391141141,285,154.3367117117117C287.375,154.3311843093093,289.75,154.32565690690691,292.125,154.3201295045045C294.5,154.3146021021021,296.875,154.3090746996997,299.25,154.30354729729729C301.625,154.29801989489488,304,154.2924924924925,306.375,154.2869650900901C308.75,154.28143768768768,311.125,154.2759102852853,313.5,154.2703828828829C315.875,154.2648554804805,318.25,154.25932807807808,320.625,154.25380067567568C323,154.24827327327327,325.375,154.24274587087086,327.75,154.23721846846846C330.125,154.23169106606605,332.5,154.22616366366367,334.875,154.22063626126126C337.25,154.21510885885886,339.625,154.20958145645648,342,154.20405405405407C344.375,154.19852665165166,346.75,154.19299924924925,349.125,154.18747184684685C351.5,154.18194444444444,353.875,154.17641704204206,356.25,154.17088963963965C358.625,154.16536223723725,361,154.15983483483484,363.375,154.15430743243243C365.75,154.14878003003003,368.125,154.14325262762762,370.5,154.1377252252252C372.875,154.1321978228228,375.25,154.12667042042042,377.625,154.12114301801802C380,154.1156156156156,382.375,154.11008821321323,384.75,154.10456081081082C387.125,154.09903340840842,389.50000000000006,154.093506006006,391.87500000000006,154.0879786036036C394.25000000000006,154.0824512012012,396.62500000000006,154.07692379879882,399.00000000000006,154.0713963963964C401.375,154.065868993994,403.75,154.0603415915916,406.12499999999994,154.0548141891892C408.49999999999994,154.04928678678678,410.87499999999994,154.04375938438437,413.24999999999994,154.03823198198197C415.62499999999994,154.03270457957956,418,154.02717717717718,420.375,154.02164977477477C422.75,154.01612237237237,425.125,154.01059496997,427.5,154.00506756756758C429.875,153.99954016516517,432.25,153.99401276276276,434.625,153.98848536036036C437,153.98295795795795,439.375,153.97743055555557,441.75,153.97190315315316C444.125,153.96637575075076,446.5,153.96084834834835,448.875,153.95532094594594C451.25,153.94979354354354,453.625,153.94426614114113,456,153.93873873873872C458.375,153.9332113363363,460.75,153.92768393393393,463.125,153.92215653153153C465.5,153.91662912912912,467.875,153.91110172672674,470.25,153.90557432432433C472.625,153.90004692192193,475.00000000000006,153.89451951951952,477.37500000000006,153.8889921171171C479.75000000000006,153.8834647147147,482.12500000000006,153.87793731231233,484.50000000000006,153.87240990990992C486.875,153.8668825075075,489.25,153.8613551051051,491.62499999999994,153.8558277027027C493.99999999999994,153.8503003003003,496.37499999999994,153.84477289789788,498.74999999999994,153.83924549549548C501.12499999999994,153.83371809309307,503.5,153.8281906906907,505.875,153.82266328828828C508.25,153.81713588588588,510.625,153.8116084834835,513,153.8060810810811C515.375,153.80055367867868,517.75,153.79502627627627,520.125,153.78949887387387C522.5,153.78397147147146,524.875,153.78397147147146,527.25,153.77291666666667C529.625,153.7618618618619,532,153.04028880070547,534.375,152.67397486772487C536.75,152.30766093474426,539.125,151.94134700176366,541.5,151.57503306878306C543.875,151.20871913580245,546.25,150.84240520282188,548.625,150.47609126984128C551,150.10977733686067,553.375,149.74346340388007,555.75,149.37714947089947C558.125,149.01083553791887,560.5,148.6445216049383,562.875,148.2782076719577C565.25,147.91189373897708,567.625,147.54557980599648,570,147.17926587301588C572.375,146.81295194003528,574.75,146.44663800705467,577.125,146.08032407407407C579.5,145.71401014109347,581.875,145.34769620811286,584.25,144.98138227513226C586.625,144.61506834215166,589,144.24875440917108,591.375,143.88244047619048C593.75,143.51612654320988,596.125,143.14981261022928,598.5,142.78349867724867C600.875,142.41718474426807,603.25,142.0508708112875,605.625,141.6845568783069C608,141.3182429453263,610.375,140.9519290123457,612.75,140.58561507936508C615.125,140.21930114638448,617.5,139.85298721340388,619.875,139.48667328042328C622.25,139.12035934744267,624.625,138.75404541446207,627,138.38773148148147C629.375,138.02141754850086,631.75,137.6551036155203,634.125,137.2887896825397C636.5,136.92247574955908,638.875,136.55616181657848,641.25,136.18984788359788C643.625,135.82353395061727,646,135.4572200176367,648.375,135.0909060846561C650.75,134.7245921516755,653.125,134.3582782186949,655.5,133.9919642857143C657.875,133.6256503527337,660.25,133.25933641975308,662.625,132.89302248677248C665,132.52670855379188,667.375,132.16039462081127,669.75,131.79408068783067C672.125,131.42776675485007,674.5,131.0614528218695,676.875,130.6951388888889C679.25,130.3288249559083,681.625,129.96251102292769,684,129.59619708994708C686.375,129.22988315696648,688.75,128.8635692239859,691.125,128.4972552910053C693.5,128.1309413580247,695.875,127.76462742504411,698.25,127.39831349206351C700.625,127.0319995590829,703,126.6656856261023,705.375,126.2993716931217C707.75,125.9330577601411,710.125,125.5667438271605,712.5,125.20042989417989C714.875,124.83411596119929,717.25,124.4678020282187,719.625,124.1014880952381C722,123.7351741622575,724.375,123.36886022927689,726.75,123.00254629629629C729.125,122.63623236331568,731.5,122.2699184303351,733.875,121.9036044973545C736.25,121.53729056437389,738.625,121.1709766313933,741,120.8046626984127C743.375,120.4383487654321,745.75,120.07203483245151,748.125,119.7057208994709C750.5,119.3394069664903,752.875,118.9730930335097,755.25,118.6067791005291C757.625,118.24046516754849,760,117.8741512345679,762.375,117.5078373015873C764.75,117.1415233686067,767.125,116.77520943562608,769.5,116.40889550264549C771.875,116.04258156966489,774.2500000000001,115.67626763668432,776.6250000000001,115.30995370370371C779.0000000000001,114.94363977072312,781.3750000000001,114.57732583774252,783.7500000000001,114.21101190476192C786.1250000000001,113.84469797178132,788.5000000000001,113.47838403880071,790.8750000000001,113.11207010582011C793.2500000000001,112.7457561728395,795.6250000000001,112.3794422398589,798.0000000000001,112.0131283068783C800.375,111.64681437389771,802.75,111.2805004409171,805.1249999999999,110.9141865079365C807.4999999999999,110.5478725749559,809.8749999999999,110.18155864197533,812.2499999999999,109.81524470899473C814.6249999999999,109.44893077601412,816.9999999999999,109.08261684303352,819.3749999999999,108.71630291005292C821.7499999999999,108.34998897707231,824.1249999999999,107.98367504409171,826.4999999999999,107.61736111111111C828.8749999999999,107.2510471781305,831.25,106.88473324514992,833.625,106.51841931216931C836,106.15210537918871,838.375,105.78579144620811,840.75,105.4194775132275C843.125,105.0531635802469,845.5,104.68684964726631,847.875,104.32053571428571C850.25,103.95422178130511,852.625,103.5879078483245,855,103.2215939153439C857.375,102.8552799823633,859.75,102.48896604938273,862.125,102.12265211640212C864.5,101.75633818342152,866.875,101.39002425044093,869.25,101.02371031746033C871.625,100.65739638447972,874,100.29108245149912,876.375,99.92476851851852C878.75,99.55845458553792,881.125,99.19214065255731,883.5,98.82582671957671C885.875,98.45951278659611,888.25,98.09319885361552,890.625,97.72688492063492C893,97.36057098765431,895.375,96.99425705467374,897.75,96.62794312169314C900.125,96.26162918871253,902.5,95.89531525573193,904.875,95.52900132275133C907.25,95.16268738977072,909.625,94.79637345679014,912,94.43005952380953C914.375,94.06374559082893,916.75,93.69743165784833,919.125,93.33111772486772C921.5,92.96480379188712,923.875,92.59848985890653,926.25,92.23217592592593C928.625,91.86586199294533,931,91.49954805996475,933.375,91.13323412698415C935.75,90.76692019400355,938.125,90.40060626102292,940.5,90.03429232804231C942.875,89.66797839506171,945.25,89.30166446208112,947.625,88.93535052910053C950,88.56903659611993,952.3750000000001,88.20272266313934,954.7500000000001,87.83640873015874C957.1250000000001,87.47009479717813,959.5000000000001,87.10378086419753,961.8750000000001,86.73746693121693C964.2500000000001,86.37115299823633,966.6250000000001,86.00483906525572,969.0000000000001,85.63852513227512C971.3750000000001,85.27221119929452,973.7500000000001,84.90589726631393,976.1250000000001,84.53958333333333C978.5,84.17326940035274,980.875,83.80695546737213,983.2499999999999,83.44064153439155C985.6249999999999,83.07432760141094,987.9999999999999,82.70801366843034,990.3749999999999,82.34169973544974C992.7499999999999,81.97538580246913,995.1249999999999,81.60907186948853,997.4999999999999,81.24275793650793C999.8749999999999,80.87644400352733,1002.2499999999999,80.51013007054672,1004.6249999999999,80.14381613756613C1006.9999999999999,79.77750220458553,1009.375,79.41118827160494,1011.75,79.04487433862434C1014.125,78.67856040564375,1016.5,78.31224647266315,1018.875,77.94593253968254C1021.25,77.57961860670194,1023.625,77.21330467372135,1026,76.84699074074075C1028.375,76.48067680776015,1030.75,76.11436287477954,1033.125,75.74804894179894C1035.5,75.38173500881834,1037.875,75.01542107583775,1040.25,74.64910714285715C1042.625,74.28279320987654,1045,73.91647927689594,1047.375,73.55016534391534C1049.75,73.18385141093474,1052.125,72.81753747795416,1054.5,72.45122354497356C1056.875,72.08490961199296,1059.25,71.71859567901235,1061.625,71.35228174603175C1064,70.98596781305115,1066.375,70.61965388007054,1068.75,70.25333994708994C1071.125,69.88702601410934,1073.5,69.52071208112875,1075.875,69.15439814814815C1078.25,68.78808421516754,1080.625,68.42177028218696,1083,68.05545634920635C1085.375,67.68914241622575,1087.75,67.32282848324515,1090.125,66.95651455026454C1092.5,66.59020061728394,1094.875,66.22388668430334,1097.25,65.85757275132273C1099.625,65.49125881834213,1102,65.12494488536154,1104.375,64.75863095238095C1106.75,64.39231701940037,1109.125,64.02600308641976,1111.5,63.65968915343916C1113.875,63.29337522045856,1116.25,62.927061287477954,1118.625,62.56074735449735C1121,62.19443342151675,1123.375,61.82811948853616,1125.75,61.461805555555564C1128.125,61.09549162257497,1130.5,60.72917768959436,1132.875,60.362863756613756C1135.25,59.99654982363315,1137.625,59.630235890652564,1140,59.26392195767196C1142.375,58.89760802469136,1144.75,58.53129409171075,1147.125,58.16498015873015C1149.5,57.79866622574956,1151.875,57.43235229276896,1154.25,57.066038359788365C1156.625,56.69972442680777,1159,56.333410493827174,1161.375,55.96709656084657C1163.75,55.60078262786597,1166.125,55.23446869488535,1168.5,54.86815476190475C1170.875,54.501840828924145,1173.25,54.135526895943556,1175.625,53.76921296296296C1178,53.402899029982365,1180.375,53.03658509700176,1182.75,52.670271164021166C1185.125,52.30395723104057,1187.5,51.93764329805998,1189.875,51.57132936507938C1192.25,51.205015432098776,1194.625,50.83870149911817,1197,50.47238756613757C1199.375,50.10607363315697,1201.75,49.739759700176364,1204.125,49.37344576719576C1206.5,49.00713183421516,1208.875,48.64081790123457,1211.25,48.274503968253974C1213.625,47.90819003527338,1216,47.54187610229277,1218.375,47.175562169312165C1220.75,46.80924823633156,1223.125,46.44293430335095,1225.5,46.07662037037036C1227.875,45.71030643738976,1230.25,45.34399250440919,1232.625,44.977678571428584C1235,44.61136463844798,1237.375,44.245050705467364,1239.75,43.87873677248676C1242.125,43.51242283950616,1244.5,43.14610890652556,1246.875,42.779794973544966C1249.25,42.41348104056437,1251.625,42.047167107583775,1254,41.68085317460318C1256.375,41.31453924162258,1258.75,40.948225308641966,1261.125,40.58191137566137C1263.5,40.215597442680775,1265.875,39.849283509700186,1268.25,39.48296957671958C1270.625,39.11665564373898,1273,38.75034171075838,1275.375,38.384027777777774C1277.75,38.01771384479717,1280.125,37.651399911816576,1282.5,37.28508597883598C1284.875,36.918772045855384,1287.25,36.55245811287479,1289.625,36.18614417989419C1292,35.8198302469136,1294.375,35.45351631393299,1296.75,35.087202380952384C1299.125,34.72088844797178,1301.5,34.35457451499117,1303.875,33.988260582010575C1306.25,33.62194664902998,1308.625,33.25563271604939,1311,32.88931878306879C1313.375,32.523004850088185,1315.75,32.15669091710758,1318.125,31.79037698412698C1320.5,31.42406305114638,1322.875,31.057749118165784,1325.25,30.69143518518519C1327.625,30.325121252204593,1330,29.958807319223997,1332.375,29.592493386243397C1334.75,29.226179453262798,1337.125,28.859865520282188,1339.5,28.49355158730159C1341.875,28.12723765432099,1344.25,27.760923721340397,1346.625,27.394609788359798C1349,27.0282958553792,1351.375,26.661981922398596,1353.75,26.295667989417993C1356.125,25.92935405643739,1358.5,25.56304012345678,1360.875,25.196726190476184C1363.25,24.83041225749559,1365.625,24.46409832451501,1368,24.09778439153441C1370.375,23.73147045855381,1372.75,23.365156525573187,1375.125,22.998842592592585C1377.5,22.63252865961198,1379.875,22.26621472663139,1382.25,21.899900793650794C1384.625,21.533586860670198,1387,21.167272927689606,1389.375,20.800958994709006C1391.75,20.434645061728407,1394.125,20.068331128747797,1396.5,19.702017195767198C1398.875,19.3357032627866,1401.25,18.969389329806006,1403.625,18.603075396825407C1406,18.236761463844807,1408.375,17.8704475308642,1410.75,17.504133597883598C1413.125,17.137819664902995,1415.5,16.77150573192239,1417.875,16.40519179894179C1420.25,16.03887786596119,1422.625,15.672563932980594,1425,15.30625" fill="transparent" stroke-linecap="round" stroke="#1AD4B3" stroke-width="2"></path><g class="visx-group visx-axis visx-axis-bottom" transform="translate(0, 155)"><g class="visx-group visx-axis-tick" transform="translate(0, 0)"><line class="visx-line" x1="0" y1="0" x2="0" y2="8" fill="transparent" shape-rendering="crispEdges" stroke="#F2F0F9" stroke-width="1" stroke-linecap="square"></line><svg x="0" y="0" font-size="11" style="overflow:visible"><text transform="" x="0" y="19" fill="#1B2030" font-size="11" text-anchor="middle"><tspan x="0" dy="0em">0%</tspan></text></svg></g><g class="visx-group visx-axis-tick" transform="translate(0, 0)"><line class="visx-line" x1="356.25" y1="0" x2="356.25" y2="8" fill="transparent" shape-rendering="crispEdges" stroke="#F2F0F9" stroke-width="1" stroke-linecap="square"></line><svg x="0" y="0" font-size="11" style="overflow:visible"><text transform="" x="356.25" y="19" fill="#1B2030" font-size="11" text-anchor="middle"><tspan x="356.25" dy="0em">25%</tspan></text></svg></g><g class="visx-group visx-axis-tick" transform="translate(0, 0)"><line class="visx-line" x1="712.5" y1="0" x2="712.5" y2="8" fill="transparent" shape-rendering="crispEdges" stroke="#F2F0F9" stroke-width="1" stroke-linecap="square"></line><svg x="0" y="0" font-size="11" style="overflow:visible"><text transform="" x="712.5" y="19" fill="#1B2030" font-size="11" text-anchor="middle"><tspan x="712.5" dy="0em">50%</tspan></text></svg></g><g class="visx-group visx-axis-tick" transform="translate(0, 0)"><line class="visx-line" x1="1068.75" y1="0" x2="1068.75" y2="8" fill="transparent" shape-rendering="crispEdges" stroke="#F2F0F9" stroke-width="1" stroke-linecap="square"></line><svg x="0" y="0" font-size="11" style="overflow:visible"><text transform="" x="1068.75" y="19" fill="#1B2030" font-size="11" text-anchor="middle"><tspan x="1068.75" dy="0em">75%</tspan></text></svg></g><g class="visx-group visx-axis-tick" transform="translate(0, 0)"><line class="visx-line" x1="1425" y1="0" x2="1425" y2="8" fill="transparent" shape-rendering="crispEdges" stroke="#F2F0F9" stroke-width="1" stroke-linecap="square"></line><svg x="0" y="0" font-size="11" style="overflow:visible"><text transform="" x="1425" y="19" fill="#1B2030" font-size="11" text-anchor="middle"><tspan x="1425" dy="0em">100%</tspan></text></svg></g></g><g class="visx-group visx-axis visx-axis-left" transform="translate(0, 0)"><g class="visx-group visx-axis-tick" transform="translate(0, 0)"><line class="visx-line" x1="0" y1="155" x2="-8" y2="155" fill="transparent" shape-rendering="crispEdges" stroke="#F2F0F9" stroke-width="1" stroke-linecap="square"></line><svg x="-30" y="0" font-size="11" style="overflow:visible"><text transform="" x="-8" y="155" fill="#1B2030" font-size="11" text-anchor="start"><tspan x="-8" dy="0em">0%</tspan></text></svg></g><g class="visx-group visx-axis-tick" transform="translate(0, 0)"><line class="visx-line" x1="0" y1="103.33333333333334" x2="-8" y2="103.33333333333334" fill="transparent" shape-rendering="crispEdges" stroke="#F2F0F9" stroke-width="1" stroke-linecap="square"></line><svg x="-30" y="0" font-size="11" style="overflow:visible"><text transform="" x="-8" y="103.33333333333334" fill="#1B2030" font-size="11" text-anchor="start"><tspan x="-8" dy="0em">200%</tspan></text></svg></g><g class="visx-group visx-axis-tick" transform="translate(0, 0)"><line class="visx-line" x1="0" y1="51.66666666666667" x2="-8" y2="51.66666666666667" fill="transparent" shape-rendering="crispEdges" stroke="#F2F0F9" stroke-width="1" stroke-linecap="square"></line><svg x="-30" y="0" font-size="11" style="overflow:visible"><text transform="" x="-8" y="51.66666666666667" fill="#1B2030" font-size="11" text-anchor="start"><tspan x="-8" dy="0em">400%</tspan></text></svg></g><g class="visx-group visx-axis-tick" transform="translate(0, 0)"><line class="visx-line" x1="0" y1="0" x2="-8" y2="0" fill="transparent" shape-rendering="crispEdges" stroke="#F2F0F9" stroke-width="1" stroke-linecap="square"></line><svg x="-30" y="0" font-size="11" style="overflow:visible"><text transform="" x="-8" y="0" fill="#1B2030" font-size="11" text-anchor="start"><tspan x="-8" dy="0em">600%</tspan></text></svg></g><line class="visx-line visx-axis-line" x1="0" y1="155.5" x2="0" y2="0.5" fill="transparent" shape-rendering="crispEdges" stroke="#F2F0F9" stroke-width="1"></line></g><rect class="visx-bar" width="1425" height="155" fill="transparent"></rect><line class="visx-line" x1="527.25" y1="58" x2="527.25" y2="155" fill="transparent" shape-rendering="crispEdges" stroke="#CDC8E1" stroke-width="1" pointer-events="none" stroke-dasharray="5"></line><svg x="0" y="0" font-size="11px" style="overflow:visible"><text transform="" x="527.25" y="50" font-size="11px" fill="#555069" stroke="#FFFFFF" stroke-width="1px" text-anchor="middle"><tspan x="527.25" dy="0.355em">uOptimal 37%</tspan></text></svg><svg x="0" y="0" font-size="11px" style="overflow:visible"><text transform="" x="527.25" y="50" font-size="11px" fill="#CDC8E1" text-anchor="middle"><tspan x="527.25" dy="0.355em">uOptimal 37%</tspan></text></svg></g></svg>