<?xml version="1.0"?><svg xmlns="http://www.w3.org/2000/svg" xmlns:xlink= "http://www.w3.org/1999/xlink" style="background: white;" width="1500" height="185"> <g style="color: black; font-size: 13px; font-family: sans-serif; transform: translate(18px, 25px);"><g><circle r="3" cx="-6" cy="-5" style="fill: #B6509E" /><text>Borrow APR, variable</text></g><g style="transform: translateX(150px);"><circle r="3" cx="-6" cy="-5" style="fill: rgb(231, 198, 223)" /><text>Borrow APR, stable</text></g><g style="transform: translateX(290px);"><circle r="3" cx="-6" cy="-5" style="fill: rgb(0, 98, 210)" /><text>Utilization Rate</text></g></g><g class="visx-group" transform="translate(40, 50)"><g class="visx-group visx-rows" transform="translate(0, 0)"><line class="visx-line" x1="0" y1="115" x2="1450" y2="115" fill="transparent" shape-rendering="crispEdges" stroke="#000" stroke-width="1" stroke-dasharray="3,3" pointer-events="none"></line><line class="visx-line" x1="0" y1="79.0625" x2="1450" y2="79.0625" fill="transparent" shape-rendering="crispEdges" stroke="#000" stroke-width="1" stroke-dasharray="3,3" pointer-events="none"></line><line class="visx-line" x1="0" y1="43.125" x2="1450" y2="43.125" fill="transparent" shape-rendering="crispEdges" stroke="#000" stroke-width="1" stroke-dasharray="3,3" pointer-events="none"></line><line class="visx-line" x1="0" y1="7.1875" x2="1450" y2="7.1875" fill="transparent" shape-rendering="crispEdges" stroke="#000" stroke-width="1" stroke-dasharray="3,3" pointer-events="none"></line></g><path class="visx-linepath" d="M0,114.999999999944C2.4166666666666665,114.99066558438292,4.833333333333334,114.98133116882184,7.25,114.97199675324676C9.666666666666666,114.96266233767167,12.083333333333334,114.95332792207792,14.5,114.9439935064935C16.916666666666668,114.93465909090908,19.333333333333332,114.92532467532467,21.75,114.91599025974025C24.166666666666668,114.90665584415584,26.583333333333332,114.89732142857143,29,114.88798701298701C31.416666666666668,114.87865259740259,33.833333333333336,114.86931818181819,36.25,114.85998376623377C38.666666666666664,114.85064935064935,41.083333333333336,114.84131493506493,43.5,114.83198051948051C45.91666666666667,114.82264610389609,48.333333333333336,114.81331168831169,50.75000000000001,114.80397727272727C53.16666666666667,114.79464285714285,55.583333333333336,114.78530844155844,58,114.77597402597402C60.416666666666664,114.7666396103896,62.833333333333336,114.7573051948052,65.25,114.74797077922078C67.66666666666667,114.73863636363636,70.08333333333333,114.72930194805195,72.5,114.71996753246754C74.91666666666667,114.71063311688312,77.33333333333333,114.70129870129871,79.75,114.69196428571429C82.16666666666667,114.68262987012987,84.58333333333333,114.67329545454547,87,114.66396103896105C89.41666666666667,114.65462662337663,91.83333333333333,114.64529220779221,94.25,114.63595779220779C96.66666666666667,114.62662337662337,99.08333333333334,114.61728896103897,101.50000000000001,114.60795454545455C103.91666666666667,114.59862012987013,106.33333333333334,114.58928571428572,108.75,114.5799512987013C111.16666666666667,114.57061688311688,113.58333333333333,114.56128246753248,116,114.55194805194806C118.41666666666667,114.54261363636364,120.83333333333334,114.53327922077922,123.25000000000001,114.5239448051948C125.66666666666667,114.51461038961038,128.08333333333334,114.50527597402598,130.5,114.49594155844156C132.91666666666666,114.48660714285714,135.33333333333334,114.47727272727273,137.75,114.46793831168831C140.16666666666666,114.4586038961039,142.58333333333334,114.44926948051948,145,114.43993506493506C147.41666666666666,114.43060064935064,149.83333333333334,114.42126623376623,152.25,114.41193181818181C154.66666666666666,114.4025974025974,157.08333333333334,114.39326298701299,159.5,114.38392857142857C161.91666666666666,114.37459415584415,164.33333333333334,114.36525974025975,166.75,114.35592532467533C169.16666666666666,114.3465909090909,171.58333333333334,114.33725649350649,174,114.32792207792207C176.41666666666666,114.31858766233765,178.83333333333334,114.30925324675323,181.25,114.29991883116882C183.66666666666666,114.29058441558442,186.08333333333334,114.28125000000001,188.5,114.2719155844156C190.91666666666666,114.26258116883118,193.33333333333334,114.25324675324676,195.75,114.24391233766234C198.16666666666669,114.23457792207792,200.58333333333334,114.22524350649351,203.00000000000003,114.2159090909091C205.41666666666669,114.20657467532467,207.83333333333331,114.19724025974027,210.24999999999997,114.18790584415585C212.66666666666666,114.17857142857143,215.08333333333331,114.16923701298703,217.5,114.1599025974026C219.91666666666666,114.15056818181819,222.33333333333334,114.14123376623377,224.75,114.13189935064935C227.16666666666666,114.12256493506493,229.58333333333334,114.11323051948052,232,114.1038961038961C234.41666666666666,114.09456168831169,236.83333333333334,114.08522727272728,239.25,114.07589285714286C241.66666666666669,114.06655844155844,244.08333333333334,114.05722402597402,246.50000000000003,114.0478896103896C248.91666666666669,114.03855519480518,251.33333333333331,114.02922077922078,253.74999999999997,114.01988636363636C256.16666666666663,114.01055194805194,258.5833333333333,114.00121753246754,261,113.99188311688312C263.4166666666667,113.9825487012987,265.8333333333333,113.97321428571429,268.25,113.96387987012987C270.6666666666667,113.95454545454545,273.0833333333333,113.94521103896103,275.5,113.93587662337661C277.9166666666667,113.9265422077922,280.3333333333333,113.91720779220779,282.75,113.90787337662337C285.1666666666667,113.89853896103895,287.5833333333333,113.88920454545455,290,113.87987012987013C292.4166666666667,113.87053571428571,294.8333333333333,113.8612012987013,297.25,113.85186688311688C299.6666666666667,113.84253246753246,302.0833333333333,113.83319805194806,304.5,113.82386363636364C306.9166666666667,113.81452922077922,309.3333333333333,113.80519480519482,311.75,113.7958603896104C314.1666666666667,113.78652597402598,316.5833333333333,113.77719155844157,319,113.76785714285715C321.4166666666667,113.75852272727273,323.8333333333333,113.74918831168831,326.25,113.7398538961039C328.6666666666667,113.73051948051948,331.0833333333333,113.72118506493507,333.5,113.71185064935065C335.9166666666667,113.70251623376623,338.3333333333333,113.69318181818183,340.75,113.68384740259741C343.1666666666667,113.67451298701299,345.5833333333333,113.66517857142858,348,113.65584415584416C350.4166666666667,113.64650974025975,352.8333333333333,113.63717532467533,355.25,113.6278409090909C357.6666666666667,113.61850649350649,360.0833333333333,113.60917207792208,362.5,113.59983766233766C364.9166666666667,113.59050324675324,367.3333333333333,113.58116883116884,369.75,113.57183441558442C372.1666666666667,113.5625,374.5833333333333,113.55316558441558,377,113.54383116883116C379.4166666666667,113.53449675324674,381.8333333333333,113.52516233766234,384.25,113.51582792207792C386.6666666666667,113.5064935064935,389.0833333333333,113.4971590909091,391.5,113.48782467532467C393.9166666666667,113.47849025974025,396.33333333333337,113.46915584415585,398.75000000000006,113.45982142857143C401.16666666666674,113.45048701298701,403.58333333333337,113.44115259740259,406.00000000000006,113.43181818181817C408.4166666666667,113.42248376623375,410.8333333333333,113.41314935064935,413.24999999999994,113.40381493506493C415.66666666666663,113.39448051948051,418.08333333333326,113.3851461038961,420.49999999999994,113.37581168831169C422.91666666666663,113.36647727272727,425.3333333333333,113.35714285714286,427.75,113.34780844155844C430.1666666666667,113.33847402597402,432.5833333333333,113.32913961038962,435,113.3198051948052C437.4166666666667,113.31047077922078,439.8333333333333,113.30113636363637,442.25,113.29180194805195C444.6666666666667,113.28246753246754,447.0833333333333,113.27313311688313,449.5,113.26379870129871C451.9166666666667,113.25446428571429,454.3333333333333,113.24512987012987,456.75,113.23579545454545C459.1666666666667,113.22646103896103,461.5833333333333,113.21712662337663,464,113.20779220779221C466.4166666666667,113.19845779220779,468.8333333333333,113.18912337662339,471.25,113.17978896103897C473.6666666666667,113.17045454545455,476.0833333333333,113.16112012987014,478.5,113.15178571428572C480.9166666666667,113.1424512987013,483.33333333333337,113.13311688311688,485.75000000000006,113.12378246753246C488.16666666666674,113.11444805194805,490.58333333333337,113.10511363636364,493.00000000000006,113.09577922077922C495.4166666666667,113.0864448051948,497.8333333333333,113.0771103896104,500.24999999999994,113.06777597402598C502.66666666666663,113.05844155844156,505.08333333333326,113.04910714285714,507.49999999999994,113.03977272727272C509.91666666666663,113.0304383116883,512.3333333333333,113.0211038961039,514.75,113.01176948051948C517.1666666666666,113.00243506493506,519.5833333333334,112.99310064935065,522,112.98376623376623C524.4166666666666,112.97443181818181,526.8333333333334,112.96509740259741,529.25,112.95576298701299C531.6666666666666,112.94642857142857,534.0833333333334,112.93709415584415,536.5,112.92775974025973C538.9166666666666,112.91842532467531,541.3333333333334,112.9090909090909,543.75,112.89975649350649C546.1666666666666,112.89042207792207,548.5833333333334,112.88108766233768,551,112.87175324675326C553.4166666666666,112.86241883116884,555.8333333333334,112.85308441558442,558.25,112.84375C560.6666666666666,112.83441558441558,563.0833333333334,112.82508116883118,565.5,112.81574675324676C567.9166666666666,112.80641233766234,570.3333333333334,112.79707792207793,572.75,112.78774350649351C575.1666666666666,112.7784090909091,577.5833333333334,112.76907467532469,580,112.75974025974027C582.4166666666666,112.75040584415585,584.8333333333334,112.74107142857143,587.25,112.73173701298701C589.6666666666666,112.72240259740259,592.0833333333334,112.71306818181819,594.5,112.70373376623377C596.9166666666666,112.69439935064935,599.3333333333334,112.68506493506494,601.75,112.67573051948052C604.1666666666666,112.6663961038961,606.5833333333334,112.65706168831169,609,112.64772727272727C611.4166666666666,112.63839285714285,613.8333333333334,112.62905844155844,616.25,112.61972402597402C618.6666666666666,112.6103896103896,621.0833333333334,112.6010551948052,623.5,112.59172077922078C625.9166666666666,112.58238636363636,628.3333333333334,112.57305194805195,630.75,112.56371753246754C633.1666666666666,112.55438311688312,635.5833333333334,112.5450487012987,638,112.53571428571428C640.4166666666666,112.52637987012986,642.8333333333334,112.51704545454545,645.25,112.50771103896103C647.6666666666666,112.49837662337661,650.0833333333334,112.48904220779221,652.5,112.47970779220779C654.9166666666666,112.47037337662337,657.3333333333334,112.46103896103895,659.75,112.45170454545453C662.1666666666666,112.44237012987011,664.5833333333334,112.43303571428572,667,112.4237012987013C669.4166666666666,112.41436688311688,671.8333333333334,112.40503246753248,674.25,112.39569805194806C676.6666666666666,112.38636363636364,679.0833333333334,112.37702922077924,681.5,112.36769480519482C683.9166666666666,112.3583603896104,686.3333333333334,112.34902597402598,688.75,112.33969155844156C691.1666666666666,112.33035714285714,693.5833333333334,112.32102272727273,696,112.31168831168831C698.4166666666666,112.3023538961039,700.8333333333334,112.29301948051949,703.25,112.28368506493507C705.6666666666666,112.27435064935065,708.0833333333334,112.26501623376623,710.5,112.25568181818181C712.9166666666666,112.2463474025974,715.3333333333334,112.23701298701299,717.75,112.22767857142857C720.1666666666666,112.21834415584415,722.5833333333334,112.20900974025975,725,112.19967532467533C727.4166666666666,112.1903409090909,729.8333333333334,112.1810064935065,732.25,112.17167207792208C734.6666666666666,112.16233766233766,737.0833333333334,112.15300324675324,739.5,112.14366883116882C741.9166666666666,112.1343344155844,744.3333333333334,112.125,746.75,112.11566558441558C749.1666666666666,112.10633116883116,751.5833333333334,112.09699675324676,754,112.08766233766234C756.4166666666666,112.07832792207792,758.8333333333334,112.06899350649351,761.25,112.0596590909091C763.6666666666666,112.05032467532467,766.0833333333334,112.04099025974025,768.5,112.03165584415584C770.9166666666666,112.02232142857142,773.3333333333334,112.01298701298701,775.75,112.00365259740259C778.1666666666666,111.99431818181817,780.5833333333334,111.98498376623377,783,111.97564935064935C785.4166666666667,111.96631493506493,787.8333333333334,111.95698051948052,790.2500000000001,111.9476461038961C792.6666666666667,111.93831168831169,795.0833333333335,111.92897727272728,797.5000000000001,111.91964285714286C799.9166666666667,111.91030844155844,802.3333333333335,111.90097402597404,804.7500000000001,111.89163961038962C807.1666666666667,111.8823051948052,809.5833333333335,111.8729707792208,812.0000000000001,111.86363636363637C814.4166666666667,111.85430194805195,816.8333333333333,111.84496753246754,819.2499999999999,111.83563311688312C821.6666666666665,111.8262987012987,824.0833333333333,111.81696428571429,826.4999999999999,111.80762987012987C828.9166666666665,111.79829545454545,831.3333333333333,111.78896103896105,833.7499999999999,111.77962662337663C836.1666666666665,111.77029220779221,838.5833333333333,111.76095779220779,840.9999999999999,111.75162337662337C843.4166666666666,111.74228896103895,845.8333333333333,111.73295454545455,848.25,111.72362012987013C850.6666666666666,111.71428571428571,853.0833333333334,111.7049512987013,855.5,111.69561688311688C857.9166666666666,111.68628246753246,860.3333333333334,111.67694805194806,862.75,111.66761363636364C865.1666666666666,111.65827922077922,867.5833333333334,111.6489448051948,870,111.63961038961038C872.4166666666666,111.63027597402596,874.8333333333334,111.62094155844156,877.25,111.61160714285714C879.6666666666666,111.60227272727272,882.0833333333334,111.59293831168831,884.5,111.5836038961039C886.9166666666666,111.57426948051948,889.3333333333334,111.56493506493507,891.75,111.55560064935065C894.1666666666666,111.54626623376623,896.5833333333334,111.53693181818181,899,111.5275974025974C901.4166666666666,111.51826298701297,903.8333333333334,111.50892857142857,906.25,111.49959415584415C908.6666666666666,111.49025974025973,911.0833333333334,111.48092532467533,913.5,111.4715909090909C915.9166666666666,111.46225649350649,918.3333333333334,111.45292207792208,920.75,111.44358766233766C923.1666666666666,111.43425324675324,925.5833333333334,111.42491883116884,928,111.41558441558442C930.4166666666666,111.40625,932.8333333333334,111.3969155844156,935.25,111.38758116883118C937.6666666666666,111.37824675324676,940.0833333333334,111.36891233766235,942.5,111.35957792207793C944.9166666666666,111.35024350649351,947.3333333333334,111.3409090909091,949.75,111.33157467532467C952.1666666666666,111.32224025974025,954.5833333333334,111.31290584415585,957,111.30357142857143C959.4166666666666,111.29423701298701,961.8333333333334,111.2849025974026,964.25,111.27556818181819C966.6666666666667,111.26623376623377,969.0833333333334,111.25689935064935,971.5000000000001,111.24756493506493C973.9166666666667,111.23823051948051,976.3333333333335,111.2288961038961,978.7500000000001,111.21956168831169C981.1666666666667,111.21022727272727,983.5833333333335,111.20089285714286,986.0000000000001,111.19155844155844C988.4166666666667,111.18222402597402,990.8333333333335,111.17288961038962,993.2500000000001,111.1635551948052C995.6666666666667,111.15422077922078,998.0833333333333,111.14488636363636,1000.4999999999999,111.13555194805194C1002.9166666666665,111.12621753246752,1005.3333333333333,111.11688311688312,1007.7499999999999,111.1075487012987C1010.1666666666665,111.09821428571428,1012.5833333333333,111.08887987012987,1014.9999999999999,111.07954545454545C1017.4166666666665,111.07021103896103,1019.8333333333333,111.06087662337661,1022.2499999999999,111.0515422077922C1024.6666666666665,111.04220779220778,1027.0833333333333,111.03287337662337,1029.5,111.02353896103895C1031.9166666666667,111.01420454545455,1034.3333333333333,111.00487012987014,1036.75,110.99553571428572C1039.1666666666667,110.9862012987013,1041.5833333333333,110.9768668831169,1044,110.96753246753248C1046.4166666666667,110.95819805194806,1048.8333333333333,110.94886363636364,1051.25,110.93952922077922C1053.6666666666667,110.9301948051948,1056.0833333333333,110.9208603896104,1058.5,110.91152597402598C1060.9166666666667,110.90219155844156,1063.3333333333333,110.89285714285715,1065.75,110.88352272727273C1068.1666666666667,110.87418831168831,1070.5833333333333,110.8648538961039,1073,110.85551948051948C1075.4166666666667,110.84618506493506,1077.8333333333333,110.83685064935065,1080.25,110.82751623376623C1082.6666666666667,110.81818181818181,1085.0833333333333,110.80884740259741,1087.5,110.79951298701299C1089.9166666666667,110.79017857142857,1092.3333333333333,110.78084415584416,1094.75,110.77150974025975C1097.1666666666667,110.76217532467533,1099.5833333333333,110.7528409090909,1102,110.74350649350649C1104.4166666666667,110.73417207792207,1106.8333333333333,110.72483766233766,1109.25,110.71550324675324C1111.6666666666667,110.70616883116882,1114.0833333333333,110.70616883116882,1116.5,110.6875C1118.9166666666667,110.66883116883118,1121.3333333333333,109.29166666666667,1123.75,108.59375C1126.1666666666667,107.89583333333333,1128.5833333333333,107.19791666666667,1131,106.5C1133.4166666666667,105.80208333333333,1135.8333333333333,105.10416666666667,1138.25,104.40625C1140.6666666666667,103.70833333333333,1143.0833333333333,103.01041666666667,1145.5,102.3125C1147.9166666666667,101.61458333333333,1150.3333333333333,100.91666666666667,1152.75,100.21875C1155.1666666666667,99.52083333333333,1157.5833333333333,98.82291666666667,1160,98.125C1162.4166666666667,97.42708333333333,1164.8333333333333,96.72916666666667,1167.25,96.03125C1169.6666666666667,95.33333333333333,1172.0833333333333,94.63541666666667,1174.5,93.9375C1176.9166666666667,93.23958333333333,1179.3333333333333,92.54166666666667,1181.75,91.84375C1184.1666666666667,91.14583333333333,1186.5833333333333,90.44791666666667,1189,89.75C1191.4166666666667,89.05208333333333,1193.8333333333333,88.35416666666667,1196.25,87.65625C1198.6666666666667,86.95833333333333,1201.0833333333333,86.26041666666667,1203.5,85.5625C1205.9166666666667,84.86458333333333,1208.3333333333333,84.16666666666667,1210.75,83.46875C1213.1666666666667,82.77083333333333,1215.5833333333333,82.07291666666667,1218,81.375C1220.4166666666667,80.67708333333333,1222.8333333333333,79.97916666666667,1225.25,79.28125C1227.6666666666667,78.58333333333333,1230.0833333333333,77.88541666666666,1232.5,77.1875C1234.9166666666667,76.48958333333334,1237.3333333333333,75.79166666666669,1239.75,75.09375000000001C1242.1666666666667,74.39583333333334,1244.5833333333333,73.69791666666667,1247,73C1249.4166666666667,72.30208333333333,1251.8333333333333,71.60416666666667,1254.25,70.90625C1256.6666666666667,70.20833333333333,1259.0833333333333,69.51041666666667,1261.5,68.8125C1263.9166666666667,68.11458333333333,1266.3333333333333,67.41666666666667,1268.75,66.71875C1271.1666666666667,66.02083333333333,1273.5833333333333,65.32291666666667,1276,64.625C1278.4166666666667,63.92708333333333,1280.8333333333333,63.22916666666666,1283.25,62.53124999999999C1285.6666666666667,61.83333333333333,1288.0833333333333,61.13541666666668,1290.5,60.437500000000014C1292.9166666666667,59.73958333333335,1295.3333333333333,59.04166666666667,1297.75,58.34375C1300.1666666666667,57.64583333333333,1302.5833333333333,56.94791666666666,1305,56.24999999999999C1307.4166666666667,55.55208333333333,1309.8333333333333,54.854166666666664,1312.25,54.15625C1314.6666666666667,53.458333333333336,1317.0833333333333,52.76041666666667,1319.5,52.0625C1321.9166666666667,51.36458333333333,1324.3333333333333,50.66666666666666,1326.75,49.96874999999999C1329.1666666666667,49.27083333333333,1331.5833333333333,48.572916666666664,1334,47.875C1336.4166666666667,47.177083333333336,1338.8333333333333,46.47916666666667,1341.25,45.78125C1343.6666666666667,45.08333333333333,1346.0833333333333,44.38541666666666,1348.5,43.68749999999999C1350.9166666666667,42.98958333333333,1353.3333333333333,42.29166666666667,1355.75,41.59375C1358.1666666666667,40.89583333333333,1360.5833333333333,40.19791666666666,1363,39.499999999999986C1365.4166666666667,38.802083333333314,1367.8333333333333,38.10416666666666,1370.25,37.40624999999999C1372.6666666666667,36.70833333333333,1375.0833333333333,36.010416666666664,1377.5,35.3125C1379.9166666666667,34.614583333333336,1382.3333333333333,33.91666666666667,1384.75,33.21875C1387.1666666666667,32.52083333333333,1389.5833333333333,31.822916666666657,1392,31.124999999999993C1394.4166666666667,30.42708333333333,1396.8333333333333,29.729166666666675,1399.25,29.03125000000001C1401.6666666666667,28.333333333333346,1404.0833333333333,27.635416666666668,1406.5,26.9375C1408.9166666666667,26.239583333333332,1411.3333333333333,25.54166666666666,1413.75,24.843749999999993C1416.1666666666667,24.145833333333325,1418.5833333333333,23.44791666666666,1421,22.749999999999996C1423.4166666666667,22.052083333333332,1425.8333333333333,21.35416666666668,1428.25,20.656250000000014C1430.6666666666667,19.95833333333335,1433.0833333333333,19.26041666666667,1435.5,18.562500000000004C1437.9166666666667,17.864583333333336,1440.3333333333333,17.166666666666675,1442.75,16.468750000000007C1445.1666666666667,15.77083333333334,1447.5833333333333,15.07291666666667,1450,14.375" fill="transparent" stroke-linecap="round" stroke="#B6509E" stroke-width="2"></path><path class="visx-linepath" d="M0,107.81249999998133C2.4166666666666665,107.80938852812763,4.833333333333334,107.80627705627394,7.25,107.80316558441558C9.666666666666666,107.80005411255722,12.083333333333334,107.79694264069265,14.5,107.79383116883118C16.916666666666668,107.7907196969697,19.333333333333332,107.78760822510823,21.75,107.78449675324676C24.166666666666668,107.78138528138528,26.583333333333332,107.77827380952381,29,107.77516233766234C31.416666666666668,107.77205086580086,33.833333333333336,107.7689393939394,36.25,107.76582792207793C38.666666666666664,107.76271645021646,41.083333333333336,107.75960497835499,43.5,107.75649350649351C45.91666666666667,107.75338203463204,48.333333333333336,107.75027056277057,50.75000000000001,107.7471590909091C53.16666666666667,107.74404761904762,55.583333333333336,107.74093614718615,58,107.73782467532467C60.416666666666664,107.7347132034632,62.833333333333336,107.73160173160173,65.25,107.72849025974025C67.66666666666667,107.72537878787878,70.08333333333333,107.72226731601732,72.5,107.71915584415585C74.91666666666667,107.71604437229438,77.33333333333333,107.7129329004329,79.75,107.70982142857143C82.16666666666667,107.70670995670996,84.58333333333333,107.70359848484848,87,107.70048701298701C89.41666666666667,107.69737554112554,91.83333333333333,107.69426406926408,94.25,107.6911525974026C96.66666666666667,107.68804112554113,99.08333333333334,107.68492965367966,101.50000000000001,107.68181818181819C103.91666666666667,107.67870670995671,106.33333333333334,107.67559523809524,108.75,107.67248376623377C111.16666666666667,107.6693722943723,113.58333333333333,107.66626082251082,116,107.66314935064935C118.41666666666667,107.66003787878788,120.83333333333334,107.6569264069264,123.25000000000001,107.65381493506493C125.66666666666667,107.65070346320346,128.08333333333334,107.64759199134198,130.5,107.64448051948051C132.91666666666666,107.64136904761904,135.33333333333334,107.63825757575758,137.75,107.6351461038961C140.16666666666666,107.63203463203463,142.58333333333334,107.62892316017316,145,107.62581168831169C147.41666666666666,107.62270021645021,149.83333333333334,107.61958874458874,152.25,107.61647727272727C154.66666666666666,107.6133658008658,157.08333333333334,107.61025432900433,159.5,107.60714285714286C161.91666666666666,107.60403138528139,164.33333333333334,107.60091991341992,166.75,107.59780844155844C169.16666666666666,107.59469696969697,171.58333333333334,107.5915854978355,174,107.58847402597402C176.41666666666666,107.58536255411255,178.83333333333334,107.58225108225109,181.25,107.57913961038962C183.66666666666666,107.57602813852814,186.08333333333334,107.57291666666667,188.5,107.5698051948052C190.91666666666666,107.56669372294373,193.33333333333334,107.56358225108225,195.75,107.56047077922078C198.16666666666669,107.5573593073593,200.58333333333334,107.55424783549783,203.00000000000003,107.55113636363636C205.41666666666669,107.54802489177489,207.83333333333331,107.54491341991341,210.24999999999997,107.54180194805194C212.66666666666666,107.53869047619047,215.08333333333331,107.53557900432901,217.5,107.53246753246754C219.91666666666666,107.52935606060606,222.33333333333334,107.52624458874459,224.75,107.52313311688312C227.16666666666666,107.52002164502164,229.58333333333334,107.51691017316017,232,107.5137987012987C234.41666666666666,107.51068722943722,236.83333333333334,107.50757575757576,239.25,107.50446428571429C241.66666666666669,107.50135281385282,244.08333333333334,107.49824134199135,246.50000000000003,107.49512987012987C248.91666666666669,107.4920183982684,251.33333333333331,107.48890692640693,253.74999999999997,107.48579545454545C256.16666666666663,107.48268398268398,258.5833333333333,107.47957251082252,261,107.47646103896105C263.4166666666667,107.47334956709958,265.8333333333333,107.47023809523809,268.25,107.46712662337661C270.6666666666667,107.46401515151514,273.0833333333333,107.46090367965367,275.5,107.4577922077922C277.9166666666667,107.45468073593072,280.3333333333333,107.45156926406926,282.75,107.44845779220779C285.1666666666667,107.44534632034632,287.5833333333333,107.44223484848484,290,107.43912337662337C292.4166666666667,107.4360119047619,294.8333333333333,107.43290043290042,297.25,107.42978896103895C299.6666666666667,107.42667748917748,302.0833333333333,107.42356601731602,304.5,107.42045454545455C306.9166666666667,107.41734307359307,309.3333333333333,107.4142316017316,311.75,107.41112012987013C314.1666666666667,107.40800865800865,316.5833333333333,107.4048971861472,319,107.40178571428572C321.4166666666667,107.39867424242425,323.8333333333333,107.39556277056278,326.25,107.3924512987013C328.6666666666667,107.38933982683983,331.0833333333333,107.38622835497836,333.5,107.38311688311688C335.9166666666667,107.38000541125541,338.3333333333333,107.37689393939395,340.75,107.37378246753248C343.1666666666667,107.370670995671,345.5833333333333,107.36755952380953,348,107.36444805194806C350.4166666666667,107.36133658008659,352.8333333333333,107.3582251082251,355.25,107.35511363636363C357.6666666666667,107.35200216450215,360.0833333333333,107.3488906926407,362.5,107.34577922077922C364.9166666666667,107.34266774891775,367.3333333333333,107.33955627705627,369.75,107.3364448051948C372.1666666666667,107.33333333333333,374.5833333333333,107.33022186147186,377,107.32711038961038C379.4166666666667,107.32399891774891,381.8333333333333,107.32088744588745,384.25,107.31777597402598C386.6666666666667,107.3146645021645,389.0833333333333,107.31155303030303,391.5,107.30844155844156C393.9166666666667,107.30533008658008,396.33333333333337,107.30221861471861,398.75000000000006,107.29910714285714C401.16666666666674,107.29599567099567,403.58333333333337,107.2928841991342,406.00000000000006,107.28977272727273C408.4166666666667,107.28666125541126,410.8333333333333,107.28354978354979,413.24999999999994,107.28043831168831C415.66666666666663,107.27732683982684,418.08333333333326,107.27421536796537,420.49999999999994,107.2711038961039C422.91666666666663,107.26799242424242,425.3333333333333,107.26488095238095,427.75,107.26176948051948C430.1666666666667,107.258658008658,432.5833333333333,107.25554653679653,435,107.25243506493506C437.4166666666667,107.24932359307358,439.8333333333333,107.24621212121212,442.25,107.24310064935065C444.6666666666667,107.23998917748918,447.0833333333333,107.2368777056277,449.5,107.23376623376623C451.9166666666667,107.23065476190476,454.3333333333333,107.22754329004329,456.75,107.22443181818181C459.1666666666667,107.22132034632034,461.5833333333333,107.21820887445888,464,107.21509740259741C466.4166666666667,107.21198593073593,468.8333333333333,107.20887445887446,471.25,107.20576298701299C473.6666666666667,107.20265151515152,476.0833333333333,107.19954004329004,478.5,107.19642857142857C480.9166666666667,107.1933170995671,483.33333333333337,107.19020562770564,485.75000000000006,107.18709415584416C488.16666666666674,107.18398268398269,490.58333333333337,107.18087121212122,493.00000000000006,107.17775974025975C495.4166666666667,107.17464826839827,497.8333333333333,107.1715367965368,500.24999999999994,107.16842532467533C502.66666666666663,107.16531385281385,505.08333333333326,107.1622023809524,507.49999999999994,107.15909090909092C509.91666666666663,107.15597943722945,512.3333333333333,107.15286796536796,514.75,107.14975649350649C517.1666666666666,107.14664502164501,519.5833333333334,107.14353354978354,522,107.14042207792207C524.4166666666666,107.1373106060606,526.8333333333334,107.13419913419914,529.25,107.13108766233766C531.6666666666666,107.12797619047619,534.0833333333334,107.12486471861472,536.5,107.12175324675324C538.9166666666666,107.11864177489177,541.3333333333334,107.1155303030303,543.75,107.11241883116882C546.1666666666666,107.10930735930735,548.5833333333334,107.10619588744589,551,107.10308441558442C553.4166666666666,107.09997294372295,555.8333333333334,107.09686147186147,558.25,107.09375C560.6666666666666,107.09063852813853,563.0833333333334,107.08752705627707,565.5,107.0844155844156C567.9166666666666,107.08130411255412,570.3333333333334,107.07819264069265,572.75,107.07508116883118C575.1666666666666,107.0719696969697,577.5833333333334,107.06885822510822,580,107.06574675324674C582.4166666666666,107.06263528138527,584.8333333333334,107.05952380952381,587.25,107.05641233766234C589.6666666666666,107.05330086580086,592.0833333333334,107.05018939393939,594.5,107.04707792207792C596.9166666666666,107.04396645021644,599.3333333333334,107.04085497835497,601.75,107.0377435064935C604.1666666666666,107.03463203463203,606.5833333333334,107.03152056277057,609,107.0284090909091C611.4166666666666,107.02529761904762,613.8333333333334,107.02218614718615,616.25,107.01907467532467C618.6666666666666,107.0159632034632,621.0833333333334,107.01285173160173,623.5,107.00974025974025C625.9166666666666,107.00662878787878,628.3333333333334,107.00351731601732,630.75,107.00040584415585C633.1666666666666,106.99729437229438,635.5833333333334,106.9941829004329,638,106.99107142857143C640.4166666666666,106.98795995670996,642.8333333333334,106.98484848484848,645.25,106.98173701298701C647.6666666666666,106.97862554112554,650.0833333333334,106.97551406926408,652.5,106.9724025974026C654.9166666666666,106.96929112554113,657.3333333333334,106.96617965367966,659.75,106.96306818181819C662.1666666666666,106.95995670995671,664.5833333333334,106.95684523809524,667,106.95373376623377C669.4166666666666,106.9506222943723,671.8333333333334,106.94751082251082,674.25,106.94439935064935C676.6666666666666,106.94128787878788,679.0833333333334,106.9381764069264,681.5,106.93506493506493C683.9166666666666,106.93195346320346,686.3333333333334,106.928841991342,688.75,106.92573051948052C691.1666666666666,106.92261904761905,693.5833333333334,106.91950757575758,696,106.9163961038961C698.4166666666666,106.91328463203463,700.8333333333334,106.91017316017316,703.25,106.90706168831169C705.6666666666666,106.90395021645021,708.0833333333334,106.90083874458875,710.5,106.89772727272728C712.9166666666666,106.89461580086581,715.3333333333334,106.89150432900433,717.75,106.88839285714286C720.1666666666666,106.88528138528139,722.5833333333334,106.88216991341992,725,106.87905844155844C727.4166666666666,106.87594696969697,729.8333333333334,106.87283549783551,732.25,106.86972402597404C734.6666666666666,106.86661255411256,737.0833333333334,106.86350108225108,739.5,106.8603896103896C741.9166666666666,106.85727813852813,744.3333333333334,106.85416666666666,746.75,106.85105519480518C749.1666666666666,106.84794372294371,751.5833333333334,106.84483225108225,754,106.84172077922078C756.4166666666666,106.8386093073593,758.8333333333334,106.83549783549783,761.25,106.83238636363636C763.6666666666666,106.82927489177489,766.0833333333334,106.82616341991341,768.5,106.82305194805194C770.9166666666666,106.81994047619047,773.3333333333334,106.81682900432901,775.75,106.81371753246754C778.1666666666666,106.81060606060606,780.5833333333334,106.80749458874459,783,106.80438311688312C785.4166666666667,106.80127164502164,787.8333333333334,106.79816017316017,790.2500000000001,106.7950487012987C792.6666666666667,106.79193722943722,795.0833333333335,106.78882575757576,797.5000000000001,106.78571428571429C799.9166666666667,106.78260281385282,802.3333333333335,106.77949134199135,804.7500000000001,106.77637987012987C807.1666666666667,106.7732683982684,809.5833333333335,106.77015692640694,812.0000000000001,106.76704545454547C814.4166666666667,106.763933982684,816.8333333333333,106.7608225108225,819.2499999999999,106.75771103896103C821.6666666666665,106.75459956709956,824.0833333333333,106.75148809523809,826.4999999999999,106.74837662337661C828.9166666666665,106.74526515151514,831.3333333333333,106.74215367965368,833.7499999999999,106.73904220779221C836.1666666666665,106.73593073593074,838.5833333333333,106.73281926406926,840.9999999999999,106.72970779220779C843.4166666666666,106.72659632034632,845.8333333333333,106.72348484848484,848.25,106.72037337662337C850.6666666666666,106.7172619047619,853.0833333333334,106.71415043290044,855.5,106.71103896103897C857.9166666666666,106.7079274891775,860.3333333333334,106.70481601731602,862.75,106.70170454545455C865.1666666666666,106.69859307359307,867.5833333333334,106.6954816017316,870,106.69237012987013C872.4166666666666,106.68925865800865,874.8333333333334,106.6861471861472,877.25,106.68303571428572C879.6666666666666,106.67992424242425,882.0833333333334,106.67681277056278,884.5,106.6737012987013C886.9166666666666,106.67058982683983,889.3333333333334,106.66747835497836,891.75,106.66436688311688C894.1666666666666,106.66125541125541,896.5833333333334,106.65814393939394,899,106.65503246753246C901.4166666666666,106.65192099567099,903.8333333333334,106.64880952380952,906.25,106.64569805194805C908.6666666666666,106.64258658008657,911.0833333333334,106.63947510822511,913.5,106.63636363636364C915.9166666666666,106.63325216450217,918.3333333333334,106.6301406926407,920.75,106.62702922077922C923.1666666666666,106.62391774891775,925.5833333333334,106.62080627705627,928,106.6176948051948C930.4166666666666,106.61458333333333,932.8333333333334,106.61147186147187,935.25,106.6083603896104C937.6666666666666,106.60524891774892,940.0833333333334,106.60213744588745,942.5,106.59902597402598C944.9166666666666,106.5959145021645,947.3333333333334,106.59280303030303,949.75,106.58969155844156C952.1666666666666,106.58658008658008,954.5833333333334,106.58346861471863,957,106.58035714285715C959.4166666666666,106.57724567099568,961.8333333333334,106.5741341991342,964.25,106.57102272727273C966.6666666666667,106.56791125541126,969.0833333333334,106.56479978354979,971.5000000000001,106.56168831168831C973.9166666666667,106.55857683982684,976.3333333333335,106.55546536796537,978.7500000000001,106.5523538961039C981.1666666666667,106.54924242424242,983.5833333333335,106.54613095238095,986.0000000000001,106.54301948051948C988.4166666666667,106.539908008658,990.8333333333335,106.53679653679653,993.2500000000001,106.53368506493506C995.6666666666667,106.53057359307358,998.0833333333333,106.52746212121212,1000.4999999999999,106.52435064935065C1002.9166666666665,106.52123917748918,1005.3333333333333,106.5181277056277,1007.7499999999999,106.51501623376623C1010.1666666666665,106.51190476190476,1012.5833333333333,106.50879329004329,1014.9999999999999,106.50568181818181C1017.4166666666665,106.50257034632034,1019.8333333333333,106.49945887445888,1022.2499999999999,106.49634740259741C1024.6666666666665,106.49323593073593,1027.0833333333333,106.49012445887446,1029.5,106.48701298701299C1031.9166666666667,106.48390151515152,1034.3333333333333,106.48079004329004,1036.75,106.47767857142857C1039.1666666666667,106.4745670995671,1041.5833333333333,106.47145562770564,1044,106.46834415584416C1046.4166666666667,106.46523268398269,1048.8333333333333,106.4621212121212,1051.25,106.45900974025973C1053.6666666666667,106.45589826839826,1056.0833333333333,106.4527867965368,1058.5,106.44967532467533C1060.9166666666667,106.44656385281385,1063.3333333333333,106.44345238095238,1065.75,106.4403409090909C1068.1666666666667,106.43722943722943,1070.5833333333333,106.43411796536796,1073,106.43100649350649C1075.4166666666667,106.42789502164501,1077.8333333333333,106.42478354978356,1080.25,106.42167207792208C1082.6666666666667,106.41856060606061,1085.0833333333333,106.41544913419914,1087.5,106.41233766233766C1089.9166666666667,106.40922619047619,1092.3333333333333,106.40611471861472,1094.75,106.40300324675324C1097.1666666666667,106.39989177489177,1099.5833333333333,106.39678030303031,1102,106.39366883116884C1104.4166666666667,106.39055735930737,1106.8333333333333,106.38744588744589,1109.25,106.38433441558442C1111.6666666666667,106.38122294372295,1114.0833333333333,106.38122294372295,1116.5,106.375C1118.9166666666667,106.36877705627705,1121.3333333333333,105.59375,1123.75,105.203125C1126.1666666666667,104.8125,1128.5833333333333,104.421875,1131,104.03125C1133.4166666666667,103.640625,1135.8333333333333,103.25,1138.25,102.859375C1140.6666666666667,102.46875,1143.0833333333333,102.078125,1145.5,101.6875C1147.9166666666667,101.296875,1150.3333333333333,100.90625,1152.75,100.515625C1155.1666666666667,100.125,1157.5833333333333,99.734375,1160,99.34375C1162.4166666666667,98.953125,1164.8333333333333,98.5625,1167.25,98.171875C1169.6666666666667,97.78125,1172.0833333333333,97.390625,1174.5,97C1176.9166666666667,96.609375,1179.3333333333333,96.21875,1181.75,95.828125C1184.1666666666667,95.4375,1186.5833333333333,95.04687500000001,1189,94.65625000000001C1191.4166666666667,94.26562500000001,1193.8333333333333,93.875,1196.25,93.484375C1198.6666666666667,93.09375,1201.0833333333333,92.703125,1203.5,92.3125C1205.9166666666667,91.921875,1208.3333333333333,91.53125,1210.75,91.140625C1213.1666666666667,90.75,1215.5833333333333,90.359375,1218,89.96875C1220.4166666666667,89.578125,1222.8333333333333,89.1875,1225.25,88.796875C1227.6666666666667,88.40625,1230.0833333333333,88.015625,1232.5,87.625C1234.9166666666667,87.234375,1237.3333333333333,86.84375,1239.75,86.453125C1242.1666666666667,86.0625,1244.5833333333333,85.671875,1247,85.28125C1249.4166666666667,84.890625,1251.8333333333333,84.5,1254.25,84.109375C1256.6666666666667,83.71875,1259.0833333333333,83.328125,1261.5,82.9375C1263.9166666666667,82.546875,1266.3333333333333,82.15625,1268.75,81.765625C1271.1666666666667,81.375,1273.5833333333333,80.984375,1276,80.59375C1278.4166666666667,80.203125,1280.8333333333333,79.8125,1283.25,79.421875C1285.6666666666667,79.03125,1288.0833333333333,78.64062500000001,1290.5,78.25000000000001C1292.9166666666667,77.85937500000001,1295.3333333333333,77.46875,1297.75,77.078125C1300.1666666666667,76.6875,1302.5833333333333,76.296875,1305,75.90625C1307.4166666666667,75.515625,1309.8333333333333,75.125,1312.25,74.734375C1314.6666666666667,74.34375,1317.0833333333333,73.953125,1319.5,73.5625C1321.9166666666667,73.171875,1324.3333333333333,72.78125,1326.75,72.390625C1329.1666666666667,72,1331.5833333333333,71.609375,1334,71.21875C1336.4166666666667,70.828125,1338.8333333333333,70.4375,1341.25,70.046875C1343.6666666666667,69.65625,1346.0833333333333,69.26562499999999,1348.5,68.87499999999999C1350.9166666666667,68.48437499999999,1353.3333333333333,68.09375,1355.75,67.703125C1358.1666666666667,67.3125,1360.5833333333333,66.921875,1363,66.53125C1365.4166666666667,66.140625,1367.8333333333333,65.75,1370.25,65.359375C1372.6666666666667,64.96875,1375.0833333333333,64.578125,1377.5,64.1875C1379.9166666666667,63.796875,1382.3333333333333,63.40625000000001,1384.75,63.01562500000001C1387.1666666666667,62.62500000000001,1389.5833333333333,62.23437499999999,1392,61.84374999999999C1394.4166666666667,61.45312499999999,1396.8333333333333,61.0625,1399.25,60.671875C1401.6666666666667,60.28125,1404.0833333333333,59.890625,1406.5,59.5C1408.9166666666667,59.109375,1411.3333333333333,58.71875000000001,1413.75,58.32812500000001C1416.1666666666667,57.93750000000001,1418.5833333333333,57.54687499999999,1421,57.15624999999999C1423.4166666666667,56.76562499999999,1425.8333333333333,56.37500000000001,1428.25,55.98437500000001C1430.6666666666667,55.59375000000001,1433.0833333333333,55.203125,1435.5,54.8125C1437.9166666666667,54.421875,1440.3333333333333,54.03124999999999,1442.75,53.64062499999999C1445.1666666666667,53.24999999999999,1447.5833333333333,52.859375,1450,52.46875000000001" fill="transparent" stroke-linecap="round" stroke="#E7C6DF" stroke-width="2"></path><g class="visx-group visx-axis visx-axis-bottom" transform="translate(0, 115)"><g class="visx-group visx-axis-tick" transform="translate(0, 0)"><line class="visx-line" x1="0" y1="0" x2="0" y2="8" fill="transparent" shape-rendering="crispEdges" stroke="#000" stroke-width="0" stroke-linecap="square"></line><svg x="0" y="0" font-size="10" style="overflow:visible"><text transform="" x="0" y="18" fill="#000" font-size="10" text-anchor="middle"><tspan x="0" dy="0em">0%</tspan></text></svg></g><g class="visx-group visx-axis-tick" transform="translate(0, 0)"><line class="visx-line" x1="362.5" y1="0" x2="362.5" y2="8" fill="transparent" shape-rendering="crispEdges" stroke="#000" stroke-width="0" stroke-linecap="square"></line><svg x="0" y="0" font-size="10" style="overflow:visible"><text transform="" x="362.5" y="18" fill="#000" font-size="10" text-anchor="middle"><tspan x="362.5" dy="0em">25%</tspan></text></svg></g><g class="visx-group visx-axis-tick" transform="translate(0, 0)"><line class="visx-line" x1="725" y1="0" x2="725" y2="8" fill="transparent" shape-rendering="crispEdges" stroke="#000" stroke-width="0" stroke-linecap="square"></line><svg x="0" y="0" font-size="10" style="overflow:visible"><text transform="" x="725" y="18" fill="#000" font-size="10" text-anchor="middle"><tspan x="725" dy="0em">50%</tspan></text></svg></g><g class="visx-group visx-axis-tick" transform="translate(0, 0)"><line class="visx-line" x1="1087.5" y1="0" x2="1087.5" y2="8" fill="transparent" shape-rendering="crispEdges" stroke="#000" stroke-width="0" stroke-linecap="square"></line><svg x="0" y="0" font-size="10" style="overflow:visible"><text transform="" x="1087.5" y="18" fill="#000" font-size="10" text-anchor="middle"><tspan x="1087.5" dy="0em">75%</tspan></text></svg></g><g class="visx-group visx-axis-tick" transform="translate(0, 0)"><line class="visx-line" x1="1450" y1="0" x2="1450" y2="8" fill="transparent" shape-rendering="crispEdges" stroke="#000" stroke-width="0" stroke-linecap="square"></line><svg x="0" y="0" font-size="10" style="overflow:visible"><text transform="" x="1450" y="18" fill="#000" font-size="10" text-anchor="middle"><tspan x="1450" dy="0em">100%</tspan></text></svg></g><line class="visx-line visx-axis-line" x1="0.5" y1="0" x2="1450.5" y2="0" fill="transparent" shape-rendering="crispEdges" stroke="#222" stroke-width="0"></line></g><g class="visx-group visx-axis visx-axis-left" transform="translate(0, 0)"><g class="visx-group visx-axis-tick" transform="translate(0, 0)"><line class="visx-line" x1="0" y1="115" x2="-8" y2="115" fill="transparent" shape-rendering="crispEdges" stroke="#222" stroke-width="0" stroke-linecap="square"></line><svg x="-30" y="0" font-size="8" style="overflow:visible"><text transform="" x="-8" y="115" fill="#000" font-size="8" text-anchor="start"><tspan x="-8" dy="0em">0%</tspan></text></svg></g><g class="visx-group visx-axis-tick" transform="translate(0, 0)"><line class="visx-line" x1="0" y1="43.125" x2="-8" y2="43.125" fill="transparent" shape-rendering="crispEdges" stroke="#222" stroke-width="0" stroke-linecap="square"></line><svg x="-30" y="0" font-size="8" style="overflow:visible"><text transform="" x="-8" y="43.125" fill="#000" font-size="8" text-anchor="start"><tspan x="-8" dy="0em">100%</tspan></text></svg></g><line class="visx-line visx-axis-line" x1="0" y1="115.5" x2="0" y2="0.5" fill="transparent" shape-rendering="crispEdges" stroke="#222" stroke-width="0"></line></g><rect class="visx-bar" width="1450" height="115" fill="transparent"></rect><line class="visx-line" x1="1116.5" y1="28" x2="1116.5" y2="115" fill="transparent" shape-rendering="crispEdges" stroke="#0062D2" stroke-width="1" pointer-events="none" stroke-dasharray="5,2"></line><svg x="0" y="0" font-size="10px" style="overflow:visible"><text transform="" x="1116.5" y="20" font-size="10px" fill="#fff" stroke="#fff" stroke-width="0.8em" text-anchor="middle"><tspan x="1116.5" dy="0.355em">Optimal 77%</tspan></text></svg><svg x="0" y="0" font-size="10px" style="overflow:visible"><text transform="" x="1116.5" y="20" font-size="10px" fill="#62677B" text-anchor="middle"><tspan x="1116.5" dy="0.355em">Optimal 77%</tspan></text></svg></g></svg>