<?xml version="1.0"?><svg xmlns="http://www.w3.org/2000/svg" xmlns:xlink= "http://www.w3.org/1999/xlink" style="background: white;" width="1500" height="300"> <g style="color: black; font-size: 13px; font-family: sans-serif; transform: translate(18px, 25px);"><g><circle r="3" cx="-6" cy="-5" style="fill: #1AD4B3" /><text>Borrow APR, variable</text></g><g style="transform: translateX(150px);"><circle r="3" cx="-6" cy="-5" style="fill: #101423" /><text>Borrow APR, stable</text></g></g><g class="visx-group" transform="translate(45, 50)"><g class="visx-group visx-rows" transform="translate(0, 0)"><line class="visx-line" x1="0" y1="155" x2="1425" y2="155" fill="transparent" shape-rendering="crispEdges" stroke="#F2F0F9" stroke-width="1" pointer-events="none"></line><line class="visx-line" x1="0" y1="110.71428571428572" x2="1425" y2="110.71428571428572" fill="transparent" shape-rendering="crispEdges" stroke="#F2F0F9" stroke-width="1" pointer-events="none"></line><line class="visx-line" x1="0" y1="66.42857142857143" x2="1425" y2="66.42857142857143" fill="transparent" shape-rendering="crispEdges" stroke="#F2F0F9" stroke-width="1" pointer-events="none"></line><line class="visx-line" x1="0" y1="22.14285714285715" x2="1425" y2="22.14285714285715" fill="transparent" shape-rendering="crispEdges" stroke="#F2F0F9" stroke-width="1" pointer-events="none"></line></g><path class="visx-linepath" d="M0,22.14285714285715C2.375,22.14285714285715,4.75,22.14285714285715,7.125,22.14285714285715C9.5,22.14285714285715,11.875,22.14285714285715,14.25,22.14285714285715C16.625,22.14285714285715,19,22.14285714285715,21.375,22.14285714285715C23.75,22.14285714285715,26.125,22.14285714285715,28.5,22.14285714285715C30.875,22.14285714285715,33.25,22.14285714285715,35.625,22.14285714285715C38,22.14285714285715,40.375,22.14285714285715,42.75,22.14285714285715C45.125,22.14285714285715,47.50000000000001,22.14285714285715,49.87500000000001,22.14285714285715C52.25000000000001,22.14285714285715,54.625,22.14285714285715,57,22.14285714285715C59.375,22.14285714285715,61.75,22.14285714285715,64.125,22.14285714285715C66.5,22.14285714285715,68.875,22.14285714285715,71.25,22.14285714285715C73.625,22.14285714285715,76,22.14285714285715,78.375,22.14285714285715C80.75,22.14285714285715,83.125,22.14285714285715,85.5,22.14285714285715C87.875,22.14285714285715,90.25,22.14285714285715,92.625,22.14285714285715C95,22.14285714285715,97.37500000000001,22.14285714285715,99.75000000000001,22.14285714285715C102.12500000000001,22.14285714285715,104.5,22.14285714285715,106.875,22.14285714285715C109.25,22.14285714285715,111.625,22.14285714285715,114,22.14285714285715C116.375,22.14285714285715,118.75000000000001,22.14285714285715,121.12500000000001,22.14285714285715C123.50000000000001,22.14285714285715,125.875,22.14285714285715,128.25,22.14285714285715C130.625,22.14285714285715,133,22.14285714285715,135.375,22.14285714285715C137.75,22.14285714285715,140.125,22.14285714285715,142.5,22.14285714285715C144.875,22.14285714285715,147.25,22.14285714285715,149.625,22.14285714285715C152,22.14285714285715,154.375,22.14285714285715,156.75,22.14285714285715C159.125,22.14285714285715,161.5,22.14285714285715,163.875,22.14285714285715C166.25,22.14285714285715,168.625,22.14285714285715,171,22.14285714285715C173.375,22.14285714285715,175.75,22.14285714285715,178.125,22.14285714285715C180.5,22.14285714285715,182.875,22.14285714285715,185.25,22.14285714285715C187.625,22.14285714285715,190,22.14285714285715,192.375,22.14285714285715C194.75,22.14285714285715,197.12500000000003,22.14285714285715,199.50000000000003,22.14285714285715C201.875,22.14285714285715,204.25,22.14285714285715,206.62499999999997,22.14285714285715C208.99999999999997,22.14285714285715,211.375,22.14285714285715,213.75,22.14285714285715C216.125,22.14285714285715,218.5,22.14285714285715,220.875,22.14285714285715C223.25,22.14285714285715,225.625,22.14285714285715,228,22.14285714285715C230.375,22.14285714285715,232.75,22.14285714285715,235.125,22.14285714285715C237.5,22.14285714285715,239.87500000000003,22.14285714285715,242.25000000000003,22.14285714285715C244.625,22.14285714285715,247,22.14285714285715,249.37499999999997,22.14285714285715C251.74999999999997,22.14285714285715,254.125,22.14285714285715,256.5,22.14285714285715C258.875,22.14285714285715,261.25,22.14285714285715,263.625,22.14285714285715C266,22.14285714285715,268.375,22.14285714285715,270.75,22.14285714285715C273.125,22.14285714285715,275.5,22.14285714285715,277.875,22.14285714285715C280.25,22.14285714285715,282.625,22.14285714285715,285,22.14285714285715C287.375,22.14285714285715,289.75,22.14285714285715,292.125,22.14285714285715C294.5,22.14285714285715,296.875,22.14285714285715,299.25,22.14285714285715C301.625,22.14285714285715,304,22.14285714285715,306.375,22.14285714285715C308.75,22.14285714285715,311.125,22.14285714285715,313.5,22.14285714285715C315.875,22.14285714285715,318.25,22.14285714285715,320.625,22.14285714285715C323,22.14285714285715,325.375,22.14285714285715,327.75,22.14285714285715C330.125,22.14285714285715,332.5,22.14285714285715,334.875,22.14285714285715C337.25,22.14285714285715,339.625,22.14285714285715,342,22.14285714285715C344.375,22.14285714285715,346.75,22.14285714285715,349.125,22.14285714285715C351.5,22.14285714285715,353.875,22.14285714285715,356.25,22.14285714285715C358.625,22.14285714285715,361,22.14285714285715,363.375,22.14285714285715C365.75,22.14285714285715,368.125,22.14285714285715,370.5,22.14285714285715C372.875,22.14285714285715,375.25,22.14285714285715,377.625,22.14285714285715C380,22.14285714285715,382.375,22.14285714285715,384.75,22.14285714285715C387.125,22.14285714285715,389.50000000000006,22.14285714285715,391.87500000000006,22.14285714285715C394.25000000000006,22.14285714285715,396.62500000000006,22.14285714285715,399.00000000000006,22.14285714285715C401.375,22.14285714285715,403.75,22.14285714285715,406.12499999999994,22.14285714285715C408.49999999999994,22.14285714285715,410.87499999999994,22.14285714285715,413.24999999999994,22.14285714285715C415.62499999999994,22.14285714285715,418,22.14285714285715,420.375,22.14285714285715C422.75,22.14285714285715,425.125,22.14285714285715,427.5,22.14285714285715C429.875,22.14285714285715,432.25,22.14285714285715,434.625,22.14285714285715C437,22.14285714285715,439.375,22.14285714285715,441.75,22.14285714285715C444.125,22.14285714285715,446.5,22.14285714285715,448.875,22.14285714285715C451.25,22.14285714285715,453.625,22.14285714285715,456,22.14285714285715C458.375,22.14285714285715,460.75,22.14285714285715,463.125,22.14285714285715C465.5,22.14285714285715,467.875,22.14285714285715,470.25,22.14285714285715C472.625,22.14285714285715,475.00000000000006,22.14285714285715,477.37500000000006,22.14285714285715C479.75000000000006,22.14285714285715,482.12500000000006,22.14285714285715,484.50000000000006,22.14285714285715C486.875,22.14285714285715,489.25,22.14285714285715,491.62499999999994,22.14285714285715C493.99999999999994,22.14285714285715,496.37499999999994,22.14285714285715,498.74999999999994,22.14285714285715C501.12499999999994,22.14285714285715,503.5,22.14285714285715,505.875,22.14285714285715C508.25,22.14285714285715,510.625,22.14285714285715,513,22.14285714285715C515.375,22.14285714285715,517.75,22.14285714285715,520.125,22.14285714285715C522.5,22.14285714285715,524.875,22.14285714285715,527.25,22.14285714285715C529.625,22.14285714285715,532,22.14285714285715,534.375,22.14285714285715C536.75,22.14285714285715,539.125,22.14285714285715,541.5,22.14285714285715C543.875,22.14285714285715,546.25,22.14285714285715,548.625,22.14285714285715C551,22.14285714285715,553.375,22.14285714285715,555.75,22.14285714285715C558.125,22.14285714285715,560.5,22.14285714285715,562.875,22.14285714285715C565.25,22.14285714285715,567.625,22.14285714285715,570,22.14285714285715C572.375,22.14285714285715,574.75,22.14285714285715,577.125,22.14285714285715C579.5,22.14285714285715,581.875,22.14285714285715,584.25,22.14285714285715C586.625,22.14285714285715,589,22.14285714285715,591.375,22.14285714285715C593.75,22.14285714285715,596.125,22.14285714285715,598.5,22.14285714285715C600.875,22.14285714285715,603.25,22.14285714285715,605.625,22.14285714285715C608,22.14285714285715,610.375,22.14285714285715,612.75,22.14285714285715C615.125,22.14285714285715,617.5,22.14285714285715,619.875,22.14285714285715C622.25,22.14285714285715,624.625,22.14285714285715,627,22.14285714285715C629.375,22.14285714285715,631.75,22.14285714285715,634.125,22.14285714285715C636.5,22.14285714285715,638.875,22.14285714285715,641.25,22.14285714285715C643.625,22.14285714285715,646,22.14285714285715,648.375,22.14285714285715C650.75,22.14285714285715,653.125,22.14285714285715,655.5,22.14285714285715C657.875,22.14285714285715,660.25,22.14285714285715,662.625,22.14285714285715C665,22.14285714285715,667.375,22.14285714285715,669.75,22.14285714285715C672.125,22.14285714285715,674.5,22.14285714285715,676.875,22.14285714285715C679.25,22.14285714285715,681.625,22.14285714285715,684,22.14285714285715C686.375,22.14285714285715,688.75,22.14285714285715,691.125,22.14285714285715C693.5,22.14285714285715,695.875,22.14285714285715,698.25,22.14285714285715C700.625,22.14285714285715,703,22.14285714285715,705.375,22.14285714285715C707.75,22.14285714285715,710.125,22.14285714285715,712.5,22.14285714285715C714.875,22.14285714285715,717.25,22.14285714285715,719.625,22.14285714285715C722,22.14285714285715,724.375,22.14285714285715,726.75,22.14285714285715C729.125,22.14285714285715,731.5,22.14285714285715,733.875,22.14285714285715C736.25,22.14285714285715,738.625,22.14285714285715,741,22.14285714285715C743.375,22.14285714285715,745.75,22.14285714285715,748.125,22.14285714285715C750.5,22.14285714285715,752.875,22.14285714285715,755.25,22.14285714285715C757.625,22.14285714285715,760,22.14285714285715,762.375,22.14285714285715C764.75,22.14285714285715,767.125,22.14285714285715,769.5,22.14285714285715C771.875,22.14285714285715,774.2500000000001,22.14285714285715,776.6250000000001,22.14285714285715C779.0000000000001,22.14285714285715,781.3750000000001,22.14285714285715,783.7500000000001,22.14285714285715C786.1250000000001,22.14285714285715,788.5000000000001,22.14285714285715,790.8750000000001,22.14285714285715C793.2500000000001,22.14285714285715,795.6250000000001,22.14285714285715,798.0000000000001,22.14285714285715C800.375,22.14285714285715,802.75,22.14285714285715,805.1249999999999,22.14285714285715C807.4999999999999,22.14285714285715,809.8749999999999,22.14285714285715,812.2499999999999,22.14285714285715C814.6249999999999,22.14285714285715,816.9999999999999,22.14285714285715,819.3749999999999,22.14285714285715C821.7499999999999,22.14285714285715,824.1249999999999,22.14285714285715,826.4999999999999,22.14285714285715C828.8749999999999,22.14285714285715,831.25,22.14285714285715,833.625,22.14285714285715C836,22.14285714285715,838.375,22.14285714285715,840.75,22.14285714285715C843.125,22.14285714285715,845.5,22.14285714285715,847.875,22.14285714285715C850.25,22.14285714285715,852.625,22.14285714285715,855,22.14285714285715C857.375,22.14285714285715,859.75,22.14285714285715,862.125,22.14285714285715C864.5,22.14285714285715,866.875,22.14285714285715,869.25,22.14285714285715C871.625,22.14285714285715,874,22.14285714285715,876.375,22.14285714285715C878.75,22.14285714285715,881.125,22.14285714285715,883.5,22.14285714285715C885.875,22.14285714285715,888.25,22.14285714285715,890.625,22.14285714285715C893,22.14285714285715,895.375,22.14285714285715,897.75,22.14285714285715C900.125,22.14285714285715,902.5,22.14285714285715,904.875,22.14285714285715C907.25,22.14285714285715,909.625,22.14285714285715,912,22.14285714285715C914.375,22.14285714285715,916.75,22.14285714285715,919.125,22.14285714285715C921.5,22.14285714285715,923.875,22.14285714285715,926.25,22.14285714285715C928.625,22.14285714285715,931,22.14285714285715,933.375,22.14285714285715C935.75,22.14285714285715,938.125,22.14285714285715,940.5,22.14285714285715C942.875,22.14285714285715,945.25,22.14285714285715,947.625,22.14285714285715C950,22.14285714285715,952.3750000000001,22.14285714285715,954.7500000000001,22.14285714285715C957.1250000000001,22.14285714285715,959.5000000000001,22.14285714285715,961.8750000000001,22.14285714285715C964.2500000000001,22.14285714285715,966.6250000000001,22.14285714285715,969.0000000000001,22.14285714285715C971.3750000000001,22.14285714285715,973.7500000000001,22.14285714285715,976.1250000000001,22.14285714285715C978.5,22.14285714285715,980.875,22.14285714285715,983.2499999999999,22.14285714285715C985.6249999999999,22.14285714285715,987.9999999999999,22.14285714285715,990.3749999999999,22.14285714285715C992.7499999999999,22.14285714285715,995.1249999999999,22.14285714285715,997.4999999999999,22.14285714285715C999.8749999999999,22.14285714285715,1002.2499999999999,22.14285714285715,1004.6249999999999,22.14285714285715C1006.9999999999999,22.14285714285715,1009.375,22.14285714285715,1011.75,22.14285714285715C1014.125,22.14285714285715,1016.5,22.14285714285715,1018.875,22.14285714285715C1021.25,22.14285714285715,1023.625,22.14285714285715,1026,22.14285714285715C1028.375,22.14285714285715,1030.75,22.14285714285715,1033.125,22.14285714285715C1035.5,22.14285714285715,1037.875,22.14285714285715,1040.25,22.14285714285715C1042.625,22.14285714285715,1045,22.14285714285715,1047.375,22.14285714285715C1049.75,22.14285714285715,1052.125,22.14285714285715,1054.5,22.14285714285715C1056.875,22.14285714285715,1059.25,22.14285714285715,1061.625,22.14285714285715C1064,22.14285714285715,1066.375,22.14285714285715,1068.75,22.14285714285715C1071.125,22.14285714285715,1073.5,22.14285714285715,1075.875,22.14285714285715C1078.25,22.14285714285715,1080.625,22.14285714285715,1083,22.14285714285715C1085.375,22.14285714285715,1087.75,22.14285714285715,1090.125,22.14285714285715C1092.5,22.14285714285715,1094.875,22.14285714285715,1097.25,22.14285714285715C1099.625,22.14285714285715,1102,22.14285714285715,1104.375,22.14285714285715C1106.75,22.14285714285715,1109.125,22.14285714285715,1111.5,22.14285714285715C1113.875,22.14285714285715,1116.25,22.14285714285715,1118.625,22.14285714285715C1121,22.14285714285715,1123.375,22.14285714285715,1125.75,22.14285714285715C1128.125,22.14285714285715,1130.5,22.14285714285715,1132.875,22.14285714285715C1135.25,22.14285714285715,1137.625,22.14285714285715,1140,22.14285714285715C1142.375,22.14285714285715,1144.75,22.14285714285715,1147.125,22.14285714285715C1149.5,22.14285714285715,1151.875,22.14285714285715,1154.25,22.14285714285715C1156.625,22.14285714285715,1159,22.14285714285715,1161.375,22.14285714285715C1163.75,22.14285714285715,1166.125,22.14285714285715,1168.5,22.14285714285715C1170.875,22.14285714285715,1173.25,22.14285714285715,1175.625,22.14285714285715C1178,22.14285714285715,1180.375,22.14285714285715,1182.75,22.14285714285715C1185.125,22.14285714285715,1187.5,22.14285714285715,1189.875,22.14285714285715C1192.25,22.14285714285715,1194.625,22.14285714285715,1197,22.14285714285715C1199.375,22.14285714285715,1201.75,22.14285714285715,1204.125,22.14285714285715C1206.5,22.14285714285715,1208.875,22.14285714285715,1211.25,22.14285714285715C1213.625,22.14285714285715,1216,22.14285714285715,1218.375,22.14285714285715C1220.75,22.14285714285715,1223.125,22.14285714285715,1225.5,22.14285714285715C1227.875,22.14285714285715,1230.25,22.14285714285715,1232.625,22.14285714285715C1235,22.14285714285715,1237.375,22.14285714285715,1239.75,22.14285714285715C1242.125,22.14285714285715,1244.5,22.14285714285715,1246.875,22.14285714285715C1249.25,22.14285714285715,1251.625,22.14285714285715,1254,22.14285714285715C1256.375,22.14285714285715,1258.75,22.14285714285715,1261.125,22.14285714285715C1263.5,22.14285714285715,1265.875,22.14285714285715,1268.25,22.14285714285715C1270.625,22.14285714285715,1273,22.14285714285715,1275.375,22.14285714285715C1277.75,22.14285714285715,1280.125,22.14285714285715,1282.5,22.14285714285715C1284.875,22.14285714285715,1287.25,22.14285714285715,1289.625,22.14285714285715C1292,22.14285714285715,1294.375,22.14285714285715,1296.75,22.14285714285715C1299.125,22.14285714285715,1301.5,22.14285714285715,1303.875,22.14285714285715C1306.25,22.14285714285715,1308.625,22.14285714285715,1311,22.14285714285715C1313.375,22.14285714285715,1315.75,22.14285714285715,1318.125,22.14285714285715C1320.5,22.14285714285715,1322.875,22.14285714285715,1325.25,22.14285714285715C1327.625,22.14285714285715,1330,22.14285714285715,1332.375,22.14285714285715C1334.75,22.14285714285715,1337.125,22.14285714285715,1339.5,22.14285714285715C1341.875,22.14285714285715,1344.25,22.14285714285715,1346.625,22.14285714285715C1349,22.14285714285715,1351.375,22.14285714285715,1353.75,22.14285714285715C1356.125,22.14285714285715,1358.5,22.14285714285715,1360.875,22.14285714285715C1363.25,22.14285714285715,1365.625,22.14285714285715,1368,22.14285714285715C1370.375,22.14285714285715,1372.75,22.14285714285715,1375.125,22.14285714285715C1377.5,22.14285714285715,1379.875,22.14285714285715,1382.25,22.14285714285715C1384.625,22.14285714285715,1387,22.14285714285715,1389.375,22.14285714285715C1391.75,22.14285714285715,1394.125,22.14285714285715,1396.5,22.14285714285715C1398.875,22.14285714285715,1401.25,22.14285714285715,1403.625,22.14285714285715C1406,22.14285714285715,1408.375,22.14285714285715,1410.75,22.14285714285715C1413.125,22.14285714285715,1415.5,22.14285714285715,1417.875,22.14285714285715C1420.25,22.14285714285715,1422.625,22.14285714285715,1425,22.14285714285715" fill="transparent" stroke-linecap="round" stroke="#1AD4B3" stroke-width="2"></path><g class="visx-group visx-axis visx-axis-bottom" transform="translate(0, 155)"><g class="visx-group visx-axis-tick" transform="translate(0, 0)"><line class="visx-line" x1="0" y1="0" x2="0" y2="8" fill="transparent" shape-rendering="crispEdges" stroke="#F2F0F9" stroke-width="1" stroke-linecap="square"></line><svg x="0" y="0" font-size="11" style="overflow:visible"><text transform="" x="0" y="19" fill="#1B2030" font-size="11" text-anchor="middle"><tspan x="0" dy="0em">0%</tspan></text></svg></g><g class="visx-group visx-axis-tick" transform="translate(0, 0)"><line class="visx-line" x1="356.25" y1="0" x2="356.25" y2="8" fill="transparent" shape-rendering="crispEdges" stroke="#F2F0F9" stroke-width="1" stroke-linecap="square"></line><svg x="0" y="0" font-size="11" style="overflow:visible"><text transform="" x="356.25" y="19" fill="#1B2030" font-size="11" text-anchor="middle"><tspan x="356.25" dy="0em">25%</tspan></text></svg></g><g class="visx-group visx-axis-tick" transform="translate(0, 0)"><line class="visx-line" x1="712.5" y1="0" x2="712.5" y2="8" fill="transparent" shape-rendering="crispEdges" stroke="#F2F0F9" stroke-width="1" stroke-linecap="square"></line><svg x="0" y="0" font-size="11" style="overflow:visible"><text transform="" x="712.5" y="19" fill="#1B2030" font-size="11" text-anchor="middle"><tspan x="712.5" dy="0em">50%</tspan></text></svg></g><g class="visx-group visx-axis-tick" transform="translate(0, 0)"><line class="visx-line" x1="1068.75" y1="0" x2="1068.75" y2="8" fill="transparent" shape-rendering="crispEdges" stroke="#F2F0F9" stroke-width="1" stroke-linecap="square"></line><svg x="0" y="0" font-size="11" style="overflow:visible"><text transform="" x="1068.75" y="19" fill="#1B2030" font-size="11" text-anchor="middle"><tspan x="1068.75" dy="0em">75%</tspan></text></svg></g><g class="visx-group visx-axis-tick" transform="translate(0, 0)"><line class="visx-line" x1="1425" y1="0" x2="1425" y2="8" fill="transparent" shape-rendering="crispEdges" stroke="#F2F0F9" stroke-width="1" stroke-linecap="square"></line><svg x="0" y="0" font-size="11" style="overflow:visible"><text transform="" x="1425" y="19" fill="#1B2030" font-size="11" text-anchor="middle"><tspan x="1425" dy="0em">100%</tspan></text></svg></g></g><g class="visx-group visx-axis visx-axis-left" transform="translate(0, 0)"><g class="visx-group visx-axis-tick" transform="translate(0, 0)"><line class="visx-line" x1="0" y1="155" x2="-8" y2="155" fill="transparent" shape-rendering="crispEdges" stroke="#F2F0F9" stroke-width="1" stroke-linecap="square"></line><svg x="-30" y="0" font-size="11" style="overflow:visible"><text transform="" x="-8" y="155" fill="#1B2030" font-size="11" text-anchor="start"><tspan x="-8" dy="0em">0%</tspan></text></svg></g><g class="visx-group visx-axis-tick" transform="translate(0, 0)"><line class="visx-line" x1="0" y1="110.71428571428572" x2="-8" y2="110.71428571428572" fill="transparent" shape-rendering="crispEdges" stroke="#F2F0F9" stroke-width="1" stroke-linecap="square"></line><svg x="-30" y="0" font-size="11" style="overflow:visible"><text transform="" x="-8" y="110.71428571428572" fill="#1B2030" font-size="11" text-anchor="start"><tspan x="-8" dy="0em">2%</tspan></text></svg></g><g class="visx-group visx-axis-tick" transform="translate(0, 0)"><line class="visx-line" x1="0" y1="66.42857142857143" x2="-8" y2="66.42857142857143" fill="transparent" shape-rendering="crispEdges" stroke="#F2F0F9" stroke-width="1" stroke-linecap="square"></line><svg x="-30" y="0" font-size="11" style="overflow:visible"><text transform="" x="-8" y="66.42857142857143" fill="#1B2030" font-size="11" text-anchor="start"><tspan x="-8" dy="0em">4%</tspan></text></svg></g><g class="visx-group visx-axis-tick" transform="translate(0, 0)"><line class="visx-line" x1="0" y1="22.14285714285715" x2="-8" y2="22.14285714285715" fill="transparent" shape-rendering="crispEdges" stroke="#F2F0F9" stroke-width="1" stroke-linecap="square"></line><svg x="-30" y="0" font-size="11" style="overflow:visible"><text transform="" x="-8" y="22.14285714285715" fill="#1B2030" font-size="11" text-anchor="start"><tspan x="-8" dy="0em">6%</tspan></text></svg></g><line class="visx-line visx-axis-line" x1="0" y1="155.5" x2="0" y2="0.5" fill="transparent" shape-rendering="crispEdges" stroke="#F2F0F9" stroke-width="1"></line></g><rect class="visx-bar" width="1425" height="155" fill="transparent"></rect><line class="visx-line" x1="1410.75" y1="58" x2="1410.75" y2="155" fill="transparent" shape-rendering="crispEdges" stroke="#CDC8E1" stroke-width="1" pointer-events="none" stroke-dasharray="5"></line><svg x="0" y="0" font-size="11px" style="overflow:visible"><text transform="" x="1410.75" y="50" font-size="11px" fill="#555069" stroke="#FFFFFF" stroke-width="1px" text-anchor="middle"><tspan x="1410.75" dy="0.355em">Optimal utilization 99%</tspan></text></svg><svg x="0" y="0" font-size="11px" style="overflow:visible"><text transform="" x="1410.75" y="50" font-size="11px" fill="#CDC8E1" text-anchor="middle"><tspan x="1410.75" dy="0.355em">Optimal utilization 99%</tspan></text></svg></g></svg>