<?xml version="1.0"?><svg xmlns="http://www.w3.org/2000/svg" xmlns:xlink= "http://www.w3.org/1999/xlink" style="background: white;" width="1500" height="185"> <g style="color: black; font-size: 13px; font-family: sans-serif; transform: translate(18px, 25px);"><g><circle r="3" cx="-6" cy="-5" style="fill: #B6509E" /><text>Borrow APR, variable</text></g><g style="transform: translateX(150px);"><circle r="3" cx="-6" cy="-5" style="fill: rgb(231, 198, 223)" /><text>Borrow APR, stable</text></g><g style="transform: translateX(290px);"><circle r="3" cx="-6" cy="-5" style="fill: rgb(0, 98, 210)" /><text>Utilization Rate</text></g></g><g class="visx-group" transform="translate(40, 50)"><g class="visx-group visx-rows" transform="translate(0, 0)"><line class="visx-line" x1="0" y1="115" x2="1450" y2="115" fill="transparent" shape-rendering="crispEdges" stroke="#000" stroke-width="1" stroke-dasharray="3,3" pointer-events="none"></line><line class="visx-line" x1="0" y1="67.08333333333333" x2="1450" y2="67.08333333333333" fill="transparent" shape-rendering="crispEdges" stroke="#000" stroke-width="1" stroke-dasharray="3,3" pointer-events="none"></line><line class="visx-line" x1="0" y1="19.16666666666666" x2="1450" y2="19.16666666666666" fill="transparent" shape-rendering="crispEdges" stroke="#000" stroke-width="1" stroke-dasharray="3,3" pointer-events="none"></line></g><path class="visx-linepath" d="M0,114.9999999999401C2.4166666666666665,114.99001736107617,4.833333333333334,114.98003472221224,7.25,114.97005208333333C9.666666666666666,114.96006944445442,12.083333333333334,114.95008680555556,14.5,114.94010416666667C16.916666666666668,114.93012152777779,19.333333333333332,114.92013888888889,21.75,114.91015625C24.166666666666668,114.90017361111111,26.583333333333332,114.89019097222221,29,114.88020833333333C31.416666666666668,114.87022569444444,33.833333333333336,114.86024305555554,36.25,114.85026041666666C38.666666666666664,114.84027777777777,41.083333333333336,114.83029513888889,43.5,114.8203125C45.91666666666667,114.81032986111111,48.333333333333336,114.80034722222221,50.75000000000001,114.79036458333333C53.16666666666667,114.78038194444444,55.583333333333336,114.77039930555556,58,114.76041666666667C60.416666666666664,114.75043402777779,62.833333333333336,114.74045138888889,65.25,114.73046875C67.66666666666667,114.72048611111111,70.08333333333333,114.71050347222223,72.5,114.70052083333334C74.91666666666667,114.69053819444446,77.33333333333333,114.68055555555556,79.75,114.67057291666667C82.16666666666667,114.66059027777779,84.58333333333333,114.65060763888889,87,114.640625C89.41666666666667,114.63064236111111,91.83333333333333,114.62065972222221,94.25,114.61067708333333C96.66666666666667,114.60069444444444,99.08333333333334,114.59071180555556,101.50000000000001,114.58072916666667C103.91666666666667,114.57074652777779,106.33333333333334,114.56076388888889,108.75,114.55078125C111.16666666666667,114.54079861111111,113.58333333333333,114.53081597222221,116,114.52083333333333C118.41666666666667,114.51085069444444,120.83333333333334,114.50086805555556,123.25000000000001,114.49088541666667C125.66666666666667,114.48090277777779,128.08333333333334,114.47092013888889,130.5,114.4609375C132.91666666666666,114.45095486111111,135.33333333333334,114.44097222222221,137.75,114.43098958333333C140.16666666666666,114.42100694444444,142.58333333333334,114.41102430555554,145,114.40104166666666C147.41666666666666,114.39105902777777,149.83333333333334,114.38107638888889,152.25,114.37109375C154.66666666666666,114.36111111111111,157.08333333333334,114.35112847222221,159.5,114.34114583333333C161.91666666666666,114.33116319444444,164.33333333333334,114.32118055555556,166.75,114.31119791666667C169.16666666666666,114.30121527777779,171.58333333333334,114.29123263888889,174,114.28125C176.41666666666666,114.27126736111111,178.83333333333334,114.26128472222223,181.25,114.25130208333334C183.66666666666666,114.24131944444446,186.08333333333334,114.23133680555556,188.5,114.22135416666667C190.91666666666666,114.21137152777779,193.33333333333334,114.20138888888889,195.75,114.19140625C198.16666666666669,114.18142361111111,200.58333333333334,114.17144097222221,203.00000000000003,114.16145833333333C205.41666666666669,114.15147569444444,207.83333333333331,114.14149305555556,210.24999999999997,114.13151041666667C212.66666666666666,114.12152777777779,215.08333333333331,114.11154513888889,217.5,114.1015625C219.91666666666666,114.09157986111111,222.33333333333334,114.08159722222221,224.75,114.07161458333333C227.16666666666666,114.06163194444444,229.58333333333334,114.05164930555556,232,114.04166666666667C234.41666666666666,114.03168402777779,236.83333333333334,114.02170138888889,239.25,114.01171875C241.66666666666669,114.00173611111111,244.08333333333334,113.99175347222221,246.50000000000003,113.98177083333333C248.91666666666669,113.97178819444444,251.33333333333331,113.96180555555554,253.74999999999997,113.95182291666666C256.16666666666663,113.94184027777777,258.5833333333333,113.93185763888889,261,113.921875C263.4166666666667,113.91189236111111,265.8333333333333,113.90190972222221,268.25,113.89192708333333C270.6666666666667,113.88194444444444,273.0833333333333,113.87196180555556,275.5,113.86197916666667C277.9166666666667,113.85199652777779,280.3333333333333,113.84201388888889,282.75,113.83203125C285.1666666666667,113.82204861111111,287.5833333333333,113.81206597222223,290,113.80208333333334C292.4166666666667,113.79210069444446,294.8333333333333,113.78211805555556,297.25,113.77213541666667C299.6666666666667,113.76215277777779,302.0833333333333,113.75217013888889,304.5,113.7421875C306.9166666666667,113.73220486111111,309.3333333333333,113.72222222222221,311.75,113.71223958333333C314.1666666666667,113.70225694444444,316.5833333333333,113.69227430555556,319,113.68229166666667C321.4166666666667,113.67230902777779,323.8333333333333,113.66232638888889,326.25,113.65234375C328.6666666666667,113.64236111111111,331.0833333333333,113.63237847222221,333.5,113.62239583333333C335.9166666666667,113.61241319444444,338.3333333333333,113.60243055555556,340.75,113.59244791666667C343.1666666666667,113.58246527777779,345.5833333333333,113.57248263888889,348,113.5625C350.4166666666667,113.55251736111111,352.8333333333333,113.54253472222221,355.25,113.53255208333333C357.6666666666667,113.52256944444444,360.0833333333333,113.51258680555554,362.5,113.50260416666666C364.9166666666667,113.49262152777777,367.3333333333333,113.48263888888889,369.75,113.47265625C372.1666666666667,113.46267361111111,374.5833333333333,113.45269097222221,377,113.44270833333333C379.4166666666667,113.43272569444444,381.8333333333333,113.42274305555556,384.25,113.41276041666667C386.6666666666667,113.40277777777779,389.0833333333333,113.39279513888889,391.5,113.3828125C393.9166666666667,113.37282986111111,396.33333333333337,113.36284722222223,398.75000000000006,113.35286458333334C401.16666666666674,113.34288194444446,403.58333333333337,113.33289930555556,406.00000000000006,113.32291666666667C408.4166666666667,113.31293402777779,410.8333333333333,113.30295138888889,413.24999999999994,113.29296875C415.66666666666663,113.28298611111111,418.08333333333326,113.27300347222221,420.49999999999994,113.26302083333333C422.91666666666663,113.25303819444444,425.3333333333333,113.24305555555556,427.75,113.23307291666667C430.1666666666667,113.22309027777779,432.5833333333333,113.21310763888889,435,113.203125C437.4166666666667,113.19314236111111,439.8333333333333,113.18315972222221,442.25,113.17317708333333C444.6666666666667,113.16319444444444,447.0833333333333,113.15321180555556,449.5,113.14322916666667C451.9166666666667,113.13324652777779,454.3333333333333,113.12326388888889,456.75,113.11328125C459.1666666666667,113.10329861111111,461.5833333333333,113.09331597222221,464,113.08333333333333C466.4166666666667,113.07335069444444,468.8333333333333,113.06336805555554,471.25,113.05338541666666C473.6666666666667,113.04340277777777,476.0833333333333,113.03342013888889,478.5,113.0234375C480.9166666666667,113.01345486111111,483.33333333333337,113.00347222222221,485.75000000000006,112.99348958333333C488.16666666666674,112.98350694444444,490.58333333333337,112.97352430555556,493.00000000000006,112.96354166666667C495.4166666666667,112.95355902777779,497.8333333333333,112.94357638888889,500.24999999999994,112.93359375C502.66666666666663,112.92361111111111,505.08333333333326,112.91362847222223,507.49999999999994,112.90364583333334C509.91666666666663,112.89366319444446,512.3333333333333,112.88368055555556,514.75,112.87369791666667C517.1666666666666,112.86371527777779,519.5833333333334,112.85373263888889,522,112.84375C524.4166666666666,112.83376736111111,526.8333333333334,112.82378472222221,529.25,112.81380208333333C531.6666666666666,112.80381944444444,534.0833333333334,112.79383680555556,536.5,112.78385416666667C538.9166666666666,112.77387152777779,541.3333333333334,112.76388888888889,543.75,112.75390625C546.1666666666666,112.74392361111111,548.5833333333334,112.73394097222221,551,112.72395833333333C553.4166666666666,112.71397569444444,555.8333333333334,112.70399305555556,558.25,112.69401041666667C560.6666666666666,112.68402777777779,563.0833333333334,112.67404513888889,565.5,112.6640625C567.9166666666666,112.65407986111111,570.3333333333334,112.64409722222221,572.75,112.63411458333333C575.1666666666666,112.62413194444444,577.5833333333334,112.61414930555554,580,112.60416666666666C582.4166666666666,112.59418402777777,584.8333333333334,112.58420138888889,587.25,112.57421875C589.6666666666666,112.56423611111111,592.0833333333334,112.55425347222221,594.5,112.54427083333333C596.9166666666666,112.53428819444444,599.3333333333334,112.52430555555556,601.75,112.51432291666667C604.1666666666666,112.50434027777779,606.5833333333334,112.49435763888889,609,112.484375C611.4166666666666,112.47439236111111,613.8333333333334,112.46440972222223,616.25,112.45442708333334C618.6666666666666,112.44444444444446,621.0833333333334,112.43446180555556,623.5,112.42447916666667C625.9166666666666,112.41449652777779,628.3333333333334,112.40451388888889,630.75,112.39453125C633.1666666666666,112.38454861111111,635.5833333333334,112.37456597222221,638,112.36458333333333C640.4166666666666,112.35460069444444,642.8333333333334,112.34461805555556,645.25,112.33463541666667C647.6666666666666,112.32465277777779,650.0833333333334,112.31467013888889,652.5,112.3046875C654.9166666666666,112.29470486111111,657.3333333333334,112.28472222222221,659.75,112.27473958333333C662.1666666666666,112.26475694444444,664.5833333333334,112.25477430555556,667,112.24479166666667C669.4166666666666,112.23480902777779,671.8333333333334,112.22482638888889,674.25,112.21484375C676.6666666666666,112.20486111111111,679.0833333333334,112.19487847222221,681.5,112.18489583333333C683.9166666666666,112.17491319444444,686.3333333333334,112.16493055555554,688.75,112.15494791666666C691.1666666666666,112.14496527777777,693.5833333333334,112.13498263888889,696,112.125C698.4166666666666,112.11501736111111,700.8333333333334,112.10503472222221,703.25,112.09505208333333C705.6666666666666,112.08506944444444,708.0833333333334,112.07508680555556,710.5,112.06510416666667C712.9166666666666,112.05512152777779,715.3333333333334,112.04513888888889,717.75,112.03515625C720.1666666666666,112.02517361111111,722.5833333333334,112.01519097222223,725,112.00520833333334C727.4166666666666,111.99522569444446,729.8333333333334,111.98524305555556,732.25,111.97526041666667C734.6666666666666,111.96527777777779,737.0833333333334,111.95529513888889,739.5,111.9453125C741.9166666666666,111.93532986111111,744.3333333333334,111.92534722222221,746.75,111.91536458333333C749.1666666666666,111.90538194444444,751.5833333333334,111.89539930555556,754,111.88541666666667C756.4166666666666,111.87543402777779,758.8333333333334,111.86545138888889,761.25,111.85546875C763.6666666666666,111.84548611111111,766.0833333333334,111.83550347222221,768.5,111.82552083333333C770.9166666666666,111.81553819444444,773.3333333333334,111.80555555555556,775.75,111.79557291666667C778.1666666666666,111.78559027777779,780.5833333333334,111.77560763888889,783,111.765625C785.4166666666667,111.75564236111111,787.8333333333334,111.74565972222221,790.2500000000001,111.73567708333333C792.6666666666667,111.72569444444444,795.0833333333335,111.71571180555554,797.5000000000001,111.70572916666666C799.9166666666667,111.69574652777777,802.3333333333335,111.68576388888889,804.7500000000001,111.67578125C807.1666666666667,111.66579861111111,809.5833333333335,111.65581597222221,812.0000000000001,111.64583333333333C814.4166666666667,111.63585069444444,816.8333333333333,111.62586805555556,819.2499999999999,111.61588541666667C821.6666666666665,111.60590277777779,824.0833333333333,111.59592013888889,826.4999999999999,111.5859375C828.9166666666665,111.57595486111111,831.3333333333333,111.56597222222223,833.7499999999999,111.55598958333334C836.1666666666665,111.54600694444446,838.5833333333333,111.53602430555556,840.9999999999999,111.52604166666667C843.4166666666666,111.51605902777779,845.8333333333333,111.50607638888889,848.25,111.49609375C850.6666666666666,111.48611111111111,853.0833333333334,111.47612847222221,855.5,111.46614583333333C857.9166666666666,111.45616319444444,860.3333333333334,111.44618055555556,862.75,111.43619791666667C865.1666666666666,111.42621527777779,867.5833333333334,111.41623263888889,870,111.40625C872.4166666666666,111.39626736111111,874.8333333333334,111.38628472222221,877.25,111.37630208333333C879.6666666666666,111.36631944444444,882.0833333333334,111.35633680555556,884.5,111.34635416666667C886.9166666666666,111.33637152777779,889.3333333333334,111.32638888888889,891.75,111.31640625C894.1666666666666,111.30642361111111,896.5833333333334,111.29644097222221,899,111.28645833333333C901.4166666666666,111.27647569444444,903.8333333333334,111.26649305555554,906.25,111.25651041666666C908.6666666666666,111.24652777777777,911.0833333333334,111.23654513888889,913.5,111.2265625C915.9166666666666,111.21657986111111,918.3333333333334,111.20659722222221,920.75,111.19661458333333C923.1666666666666,111.18663194444444,925.5833333333334,111.17664930555556,928,111.16666666666667C930.4166666666666,111.15668402777779,932.8333333333334,111.14670138888889,935.25,111.13671875C937.6666666666666,111.12673611111111,940.0833333333334,111.11675347222223,942.5,111.10677083333334C944.9166666666666,111.09678819444446,947.3333333333334,111.08680555555556,949.75,111.07682291666667C952.1666666666666,111.06684027777779,954.5833333333334,111.05685763888889,957,111.046875C959.4166666666666,111.03689236111111,961.8333333333334,111.02690972222221,964.25,111.01692708333333C966.6666666666667,111.00694444444444,969.0833333333334,110.99696180555556,971.5000000000001,110.98697916666667C973.9166666666667,110.97699652777779,976.3333333333335,110.96701388888889,978.7500000000001,110.95703125C981.1666666666667,110.94704861111111,983.5833333333335,110.93706597222221,986.0000000000001,110.92708333333333C988.4166666666667,110.91710069444444,990.8333333333335,110.90711805555556,993.2500000000001,110.89713541666667C995.6666666666667,110.88715277777779,998.0833333333333,110.87717013888889,1000.4999999999999,110.8671875C1002.9166666666665,110.85720486111111,1005.3333333333333,110.84722222222221,1007.7499999999999,110.83723958333333C1010.1666666666665,110.82725694444444,1012.5833333333333,110.81727430555554,1014.9999999999999,110.80729166666666C1017.4166666666665,110.79730902777777,1019.8333333333333,110.78732638888889,1022.2499999999999,110.77734375C1024.6666666666665,110.76736111111111,1027.0833333333333,110.75737847222221,1029.5,110.74739583333333C1031.9166666666667,110.73741319444444,1034.3333333333333,110.72743055555556,1036.75,110.71744791666667C1039.1666666666667,110.70746527777779,1041.5833333333333,110.69748263888889,1044,110.6875C1046.4166666666667,110.67751736111111,1048.8333333333333,110.66753472222223,1051.25,110.65755208333334C1053.6666666666667,110.64756944444446,1056.0833333333333,110.63758680555556,1058.5,110.62760416666667C1060.9166666666667,110.61762152777779,1063.3333333333333,110.60763888888889,1065.75,110.59765625C1068.1666666666667,110.58767361111111,1070.5833333333333,110.57769097222221,1073,110.56770833333333C1075.4166666666667,110.55772569444444,1077.8333333333333,110.54774305555556,1080.25,110.53776041666667C1082.6666666666667,110.52777777777779,1085.0833333333333,110.51779513888889,1087.5,110.5078125C1089.9166666666667,110.49782986111111,1092.3333333333333,110.48784722222221,1094.75,110.47786458333333C1097.1666666666667,110.46788194444444,1099.5833333333333,110.45789930555556,1102,110.44791666666667C1104.4166666666667,110.43793402777779,1106.8333333333333,110.42795138888889,1109.25,110.41796875C1111.6666666666667,110.40798611111111,1114.0833333333333,110.39800347222221,1116.5,110.38802083333333C1118.9166666666667,110.37803819444444,1121.3333333333333,110.36805555555554,1123.75,110.35807291666666C1126.1666666666667,110.34809027777777,1128.5833333333333,110.33810763888889,1131,110.328125C1133.4166666666667,110.31814236111111,1135.8333333333333,110.30815972222221,1138.25,110.29817708333333C1140.6666666666667,110.28819444444444,1143.0833333333333,110.27821180555556,1145.5,110.26822916666667C1147.9166666666667,110.25824652777779,1150.3333333333333,110.24826388888889,1152.75,110.23828125C1155.1666666666667,110.22829861111111,1157.5833333333333,110.22829861111111,1160,110.20833333333334C1162.4166666666667,110.18836805555557,1164.8333333333333,108.61111111111111,1167.25,107.8125C1169.6666666666667,107.01388888888889,1172.0833333333333,106.21527777777777,1174.5,105.41666666666666C1176.9166666666667,104.61805555555554,1179.3333333333333,103.81944444444446,1181.75,103.02083333333334C1184.1666666666667,102.22222222222223,1186.5833333333333,101.42361111111111,1189,100.625C1191.4166666666667,99.82638888888889,1193.8333333333333,99.02777777777777,1196.25,98.22916666666666C1198.6666666666667,97.43055555555554,1201.0833333333333,96.63194444444446,1203.5,95.83333333333334C1205.9166666666667,95.03472222222223,1208.3333333333333,94.23611111111111,1210.75,93.4375C1213.1666666666667,92.63888888888889,1215.5833333333333,91.84027777777777,1218,91.04166666666666C1220.4166666666667,90.24305555555554,1222.8333333333333,89.44444444444444,1225.25,88.64583333333333C1227.6666666666667,87.84722222222221,1230.0833333333333,87.04861111111111,1232.5,86.25C1234.9166666666667,85.45138888888889,1237.3333333333333,84.65277777777779,1239.75,83.85416666666667C1242.1666666666667,83.05555555555556,1244.5833333333333,82.25694444444444,1247,81.45833333333333C1249.4166666666667,80.65972222222221,1251.8333333333333,79.86111111111111,1254.25,79.0625C1256.6666666666667,78.26388888888889,1259.0833333333333,77.46527777777779,1261.5,76.66666666666667C1263.9166666666667,75.86805555555556,1266.3333333333333,75.06944444444444,1268.75,74.27083333333333C1271.1666666666667,73.47222222222221,1273.5833333333333,72.67361111111111,1276,71.875C1278.4166666666667,71.07638888888889,1280.8333333333333,70.27777777777779,1283.25,69.47916666666667C1285.6666666666667,68.68055555555556,1288.0833333333333,67.88194444444444,1290.5,67.08333333333333C1292.9166666666667,66.28472222222221,1295.3333333333333,65.48611111111111,1297.75,64.6875C1300.1666666666667,63.888888888888886,1302.5833333333333,63.09027777777777,1305,62.291666666666664C1307.4166666666667,61.49305555555556,1309.8333333333333,60.69444444444444,1312.25,59.895833333333336C1314.6666666666667,59.09722222222223,1317.0833333333333,58.298611111111114,1319.5,57.5C1321.9166666666667,56.701388888888886,1324.3333333333333,55.90277777777777,1326.75,55.104166666666664C1329.1666666666667,54.30555555555556,1331.5833333333333,53.50694444444444,1334,52.708333333333336C1336.4166666666667,51.90972222222223,1338.8333333333333,51.111111111111114,1341.25,50.3125C1343.6666666666667,49.513888888888886,1346.0833333333333,48.71527777777777,1348.5,47.916666666666664C1350.9166666666667,47.11805555555556,1353.3333333333333,46.31944444444444,1355.75,45.520833333333336C1358.1666666666667,44.72222222222223,1360.5833333333333,43.923611111111114,1363,43.125C1365.4166666666667,42.326388888888886,1367.8333333333333,41.52777777777777,1370.25,40.729166666666664C1372.6666666666667,39.93055555555556,1375.0833333333333,39.13194444444444,1377.5,38.333333333333336C1379.9166666666667,37.53472222222223,1382.3333333333333,36.736111111111114,1384.75,35.9375C1387.1666666666667,35.138888888888886,1389.5833333333333,34.34027777777777,1392,33.541666666666664C1394.4166666666667,32.74305555555556,1396.8333333333333,31.94444444444445,1399.25,31.14583333333334C1401.6666666666667,30.34722222222223,1404.0833333333333,29.548611111111114,1406.5,28.75C1408.9166666666667,27.951388888888886,1411.3333333333333,27.15277777777777,1413.75,26.35416666666666C1416.1666666666667,25.55555555555555,1418.5833333333333,24.75694444444445,1421,23.95833333333334C1423.4166666666667,23.15972222222223,1425.8333333333333,22.361111111111114,1428.25,21.5625C1430.6666666666667,20.763888888888886,1433.0833333333333,19.965277777777768,1435.5,19.16666666666666C1437.9166666666667,18.368055555555554,1440.3333333333333,17.56944444444446,1442.75,16.77083333333335C1445.1666666666667,15.97222222222224,1447.5833333333333,15.17361111111112,1450,14.375" fill="transparent" stroke-linecap="round" stroke="#B6509E" stroke-width="2"></path><path class="visx-linepath" d="M0,105.41666666664271C2.4166666666666665,105.41267361109713,4.833333333333334,105.40868055555156,7.25,105.4046875C9.666666666666666,105.40069444444843,12.083333333333334,105.39670138888889,14.5,105.39270833333333C16.916666666666668,105.38871527777778,19.333333333333332,105.38472222222222,21.75,105.38072916666667C24.166666666666668,105.37673611111111,26.583333333333332,105.37274305555556,29,105.36875C31.416666666666668,105.36475694444445,33.833333333333336,105.36076388888888,36.25,105.35677083333333C38.666666666666664,105.35277777777777,41.083333333333336,105.34878472222222,43.5,105.34479166666667C45.91666666666667,105.34079861111111,48.333333333333336,105.33680555555554,50.75000000000001,105.33281249999999C53.16666666666667,105.32881944444443,55.583333333333336,105.32482638888888,58,105.32083333333333C60.416666666666664,105.31684027777777,62.833333333333336,105.31284722222223,65.25,105.30885416666668C67.66666666666667,105.30486111111112,70.08333333333333,105.30086805555555,72.5,105.296875C74.91666666666667,105.29288194444445,77.33333333333333,105.28888888888889,79.75,105.28489583333334C82.16666666666667,105.28090277777778,84.58333333333333,105.27690972222221,87,105.27291666666666C89.41666666666667,105.2689236111111,91.83333333333333,105.26493055555555,94.25,105.2609375C96.66666666666667,105.25694444444444,99.08333333333334,105.25295138888889,101.50000000000001,105.24895833333333C103.91666666666667,105.24496527777778,106.33333333333334,105.24097222222221,108.75,105.23697916666666C111.16666666666667,105.2329861111111,113.58333333333333,105.22899305555556,116,105.22500000000001C118.41666666666667,105.22100694444445,120.83333333333334,105.21701388888889,123.25000000000001,105.21302083333333C125.66666666666667,105.20902777777778,128.08333333333334,105.20503472222222,130.5,105.20104166666667C132.91666666666666,105.19704861111111,135.33333333333334,105.19305555555555,137.75,105.18906249999999C140.16666666666666,105.18506944444444,142.58333333333334,105.18107638888888,145,105.17708333333333C147.41666666666666,105.17309027777777,149.83333333333334,105.16909722222223,152.25,105.16510416666668C154.66666666666666,105.16111111111113,157.08333333333334,105.15711805555556,159.5,105.153125C161.91666666666666,105.14913194444445,164.33333333333334,105.1451388888889,166.75,105.14114583333334C169.16666666666666,105.13715277777779,171.58333333333334,105.13315972222222,174,105.12916666666666C176.41666666666666,105.12517361111111,178.83333333333334,105.12118055555555,181.25,105.1171875C183.66666666666666,105.11319444444445,186.08333333333334,105.10920138888889,188.5,105.10520833333334C190.91666666666666,105.10121527777778,193.33333333333334,105.09722222222221,195.75,105.09322916666666C198.16666666666669,105.0892361111111,200.58333333333334,105.08524305555557,203.00000000000003,105.08125000000001C205.41666666666669,105.07725694444446,207.83333333333331,105.07326388888889,210.24999999999997,105.06927083333333C212.66666666666666,105.06527777777778,215.08333333333331,105.06128472222223,217.5,105.05729166666667C219.91666666666666,105.05329861111112,222.33333333333334,105.04930555555556,224.75,105.04531250000001C227.16666666666666,105.04131944444445,229.58333333333334,105.03732638888889,232,105.03333333333333C234.41666666666666,105.02934027777778,236.83333333333334,105.02534722222222,239.25,105.02135416666667C241.66666666666669,105.01736111111111,244.08333333333334,105.01336805555555,246.50000000000003,105.00937499999999C248.91666666666669,105.00538194444444,251.33333333333331,105.0013888888889,253.74999999999997,104.99739583333334C256.16666666666663,104.99340277777779,258.5833333333333,104.98940972222222,261,104.98541666666667C263.4166666666667,104.98142361111111,265.8333333333333,104.97743055555556,268.25,104.9734375C270.6666666666667,104.96944444444445,273.0833333333333,104.9654513888889,275.5,104.96145833333334C277.9166666666667,104.95746527777779,280.3333333333333,104.95347222222222,282.75,104.94947916666666C285.1666666666667,104.94548611111111,287.5833333333333,104.94149305555555,290,104.9375C292.4166666666667,104.93350694444445,294.8333333333333,104.92951388888888,297.25,104.92552083333332C299.6666666666667,104.92152777777777,302.0833333333333,104.91753472222223,304.5,104.91354166666667C306.9166666666667,104.90954861111112,309.3333333333333,104.90555555555557,311.75,104.90156250000001C314.1666666666667,104.89756944444446,316.5833333333333,104.89357638888889,319,104.88958333333333C321.4166666666667,104.88559027777778,323.8333333333333,104.88159722222223,326.25,104.87760416666667C328.6666666666667,104.87361111111112,331.0833333333333,104.86961805555555,333.5,104.865625C335.9166666666667,104.86163194444444,338.3333333333333,104.85763888888889,340.75,104.85364583333333C343.1666666666667,104.84965277777778,345.5833333333333,104.84565972222222,348,104.84166666666667C350.4166666666667,104.83767361111111,352.8333333333333,104.83368055555556,355.25,104.8296875C357.6666666666667,104.82569444444445,360.0833333333333,104.8217013888889,362.5,104.81770833333334C364.9166666666667,104.81371527777779,367.3333333333333,104.80972222222222,369.75,104.80572916666667C372.1666666666667,104.80173611111111,374.5833333333333,104.79774305555556,377,104.79375C379.4166666666667,104.78975694444445,381.8333333333333,104.78576388888888,384.25,104.78177083333333C386.6666666666667,104.77777777777777,389.0833333333333,104.77378472222222,391.5,104.76979166666666C393.9166666666667,104.76579861111111,396.33333333333337,104.76180555555555,398.75000000000006,104.7578125C401.16666666666674,104.75381944444445,403.58333333333337,104.74982638888889,406.00000000000006,104.74583333333334C408.4166666666667,104.74184027777778,410.8333333333333,104.73784722222223,413.24999999999994,104.73385416666667C415.66666666666663,104.72986111111112,418.08333333333326,104.72586805555555,420.49999999999994,104.721875C422.91666666666663,104.71788194444444,425.3333333333333,104.71388888888889,427.75,104.70989583333333C430.1666666666667,104.70590277777778,432.5833333333333,104.70190972222223,435,104.69791666666667C437.4166666666667,104.69392361111112,439.8333333333333,104.68993055555555,442.25,104.6859375C444.6666666666667,104.68194444444444,447.0833333333333,104.67795138888889,449.5,104.67395833333333C451.9166666666667,104.66996527777778,454.3333333333333,104.66597222222222,456.75,104.66197916666667C459.1666666666667,104.65798611111111,461.5833333333333,104.65399305555556,464,104.65C466.4166666666667,104.64600694444445,468.8333333333333,104.64201388888888,471.25,104.63802083333333C473.6666666666667,104.63402777777777,476.0833333333333,104.63003472222222,478.5,104.62604166666667C480.9166666666667,104.62204861111111,483.33333333333337,104.61805555555556,485.75000000000006,104.6140625C488.16666666666674,104.61006944444445,490.58333333333337,104.60607638888888,493.00000000000006,104.60208333333333C495.4166666666667,104.59809027777777,497.8333333333333,104.59409722222222,500.24999999999994,104.59010416666666C502.66666666666663,104.58611111111111,505.08333333333326,104.58211805555555,507.49999999999994,104.578125C509.91666666666663,104.57413194444445,512.3333333333333,104.57013888888889,514.75,104.56614583333334C517.1666666666666,104.56215277777778,519.5833333333334,104.55815972222223,522,104.55416666666667C524.4166666666666,104.55017361111112,526.8333333333334,104.54618055555555,529.25,104.5421875C531.6666666666666,104.53819444444444,534.0833333333334,104.53420138888889,536.5,104.53020833333333C538.9166666666666,104.52621527777778,541.3333333333334,104.52222222222221,543.75,104.51822916666666C546.1666666666666,104.5142361111111,548.5833333333334,104.51024305555555,551,104.50625C553.4166666666666,104.50225694444444,555.8333333333334,104.49826388888889,558.25,104.49427083333333C560.6666666666666,104.49027777777778,563.0833333333334,104.48628472222222,565.5,104.48229166666667C567.9166666666666,104.47829861111111,570.3333333333334,104.47430555555556,572.75,104.4703125C575.1666666666666,104.46631944444445,577.5833333333334,104.46232638888888,580,104.45833333333333C582.4166666666666,104.45434027777777,584.8333333333334,104.45034722222222,587.25,104.44635416666667C589.6666666666666,104.44236111111111,592.0833333333334,104.43836805555554,594.5,104.43437499999999C596.9166666666666,104.43038194444443,599.3333333333334,104.42638888888888,601.75,104.42239583333333C604.1666666666666,104.41840277777777,606.5833333333334,104.41440972222223,609,104.41041666666668C611.4166666666666,104.40642361111112,613.8333333333334,104.40243055555555,616.25,104.3984375C618.6666666666666,104.39444444444445,621.0833333333334,104.39045138888889,623.5,104.38645833333334C625.9166666666666,104.38246527777778,628.3333333333334,104.37847222222221,630.75,104.37447916666666C633.1666666666666,104.3704861111111,635.5833333333334,104.36649305555555,638,104.3625C640.4166666666666,104.35850694444444,642.8333333333334,104.35451388888889,645.25,104.35052083333333C647.6666666666666,104.34652777777778,650.0833333333334,104.34253472222221,652.5,104.33854166666666C654.9166666666666,104.3345486111111,657.3333333333334,104.33055555555556,659.75,104.32656250000001C662.1666666666666,104.32256944444445,664.5833333333334,104.31857638888889,667,104.31458333333333C669.4166666666666,104.31059027777778,671.8333333333334,104.30659722222222,674.25,104.30260416666667C676.6666666666666,104.29861111111111,679.0833333333334,104.29461805555555,681.5,104.29062499999999C683.9166666666666,104.28663194444444,686.3333333333334,104.28263888888888,688.75,104.27864583333333C691.1666666666666,104.27465277777777,693.5833333333334,104.27065972222222,696,104.26666666666667C698.4166666666666,104.26267361111111,700.8333333333334,104.25868055555554,703.25,104.25468749999999C705.6666666666666,104.25069444444443,708.0833333333334,104.2467013888889,710.5,104.24270833333334C712.9166666666666,104.23871527777779,715.3333333333334,104.23472222222222,717.75,104.23072916666666C720.1666666666666,104.22673611111111,722.5833333333334,104.22274305555555,725,104.21875C727.4166666666666,104.21475694444445,729.8333333333334,104.21076388888889,732.25,104.20677083333334C734.6666666666666,104.20277777777778,737.0833333333334,104.19878472222221,739.5,104.19479166666666C741.9166666666666,104.1907986111111,744.3333333333334,104.18680555555557,746.75,104.18281250000001C749.1666666666666,104.17881944444446,751.5833333333334,104.17482638888887,754,104.17083333333332C756.4166666666666,104.16684027777777,758.8333333333334,104.16284722222223,761.25,104.15885416666667C763.6666666666666,104.15486111111112,766.0833333333334,104.15086805555556,768.5,104.14687500000001C770.9166666666666,104.14288194444445,773.3333333333334,104.13888888888889,775.75,104.13489583333333C778.1666666666666,104.13090277777778,780.5833333333334,104.12690972222222,783,104.12291666666667C785.4166666666667,104.11892361111111,787.8333333333334,104.11493055555555,790.2500000000001,104.11093749999999C792.6666666666667,104.10694444444444,795.0833333333335,104.1029513888889,797.5000000000001,104.09895833333334C799.9166666666667,104.09496527777779,802.3333333333335,104.09097222222222,804.7500000000001,104.08697916666667C807.1666666666667,104.08298611111111,809.5833333333335,104.07899305555556,812.0000000000001,104.075C814.4166666666667,104.07100694444445,816.8333333333333,104.0670138888889,819.2499999999999,104.06302083333334C821.6666666666665,104.05902777777779,824.0833333333333,104.05503472222222,826.4999999999999,104.05104166666666C828.9166666666665,104.04704861111111,831.3333333333333,104.04305555555555,833.7499999999999,104.0390625C836.1666666666665,104.03506944444445,838.5833333333333,104.03107638888888,840.9999999999999,104.02708333333332C843.4166666666666,104.02309027777777,845.8333333333333,104.01909722222223,848.25,104.01510416666667C850.6666666666666,104.01111111111112,853.0833333333334,104.00711805555557,855.5,104.00312500000001C857.9166666666666,103.99913194444446,860.3333333333334,103.99513888888889,862.75,103.99114583333333C865.1666666666666,103.98715277777778,867.5833333333334,103.98315972222223,870,103.97916666666667C872.4166666666666,103.97517361111112,874.8333333333334,103.97118055555555,877.25,103.9671875C879.6666666666666,103.96319444444444,882.0833333333334,103.95920138888889,884.5,103.95520833333333C886.9166666666666,103.95121527777778,889.3333333333334,103.94722222222222,891.75,103.94322916666667C894.1666666666666,103.93923611111111,896.5833333333334,103.93524305555556,899,103.93125C901.4166666666666,103.92725694444445,903.8333333333334,103.9232638888889,906.25,103.91927083333334C908.6666666666666,103.91527777777779,911.0833333333334,103.91128472222222,913.5,103.90729166666667C915.9166666666666,103.90329861111111,918.3333333333334,103.89930555555556,920.75,103.8953125C923.1666666666666,103.89131944444445,925.5833333333334,103.88732638888888,928,103.88333333333333C930.4166666666666,103.87934027777777,932.8333333333334,103.87534722222222,935.25,103.87135416666666C937.6666666666666,103.86736111111111,940.0833333333334,103.86336805555555,942.5,103.859375C944.9166666666666,103.85538194444445,947.3333333333334,103.85138888888889,949.75,103.84739583333334C952.1666666666666,103.84340277777778,954.5833333333334,103.83940972222223,957,103.83541666666667C959.4166666666666,103.83142361111112,961.8333333333334,103.82743055555555,964.25,103.8234375C966.6666666666667,103.81944444444444,969.0833333333334,103.81545138888889,971.5000000000001,103.81145833333333C973.9166666666667,103.80746527777778,976.3333333333335,103.80347222222223,978.7500000000001,103.79947916666667C981.1666666666667,103.79548611111112,983.5833333333335,103.79149305555555,986.0000000000001,103.7875C988.4166666666667,103.78350694444444,990.8333333333335,103.77951388888889,993.2500000000001,103.77552083333333C995.6666666666667,103.77152777777778,998.0833333333333,103.76753472222222,1000.4999999999999,103.76354166666667C1002.9166666666665,103.75954861111111,1005.3333333333333,103.75555555555556,1007.7499999999999,103.7515625C1010.1666666666665,103.74756944444445,1012.5833333333333,103.74357638888888,1014.9999999999999,103.73958333333333C1017.4166666666665,103.73559027777777,1019.8333333333333,103.73159722222222,1022.2499999999999,103.72760416666667C1024.6666666666665,103.72361111111111,1027.0833333333333,103.71961805555556,1029.5,103.715625C1031.9166666666667,103.71163194444445,1034.3333333333333,103.70763888888888,1036.75,103.70364583333333C1039.1666666666667,103.69965277777777,1041.5833333333333,103.69565972222222,1044,103.69166666666666C1046.4166666666667,103.68767361111111,1048.8333333333333,103.68368055555555,1051.25,103.6796875C1053.6666666666667,103.67569444444445,1056.0833333333333,103.67170138888889,1058.5,103.66770833333334C1060.9166666666667,103.66371527777778,1063.3333333333333,103.65972222222223,1065.75,103.65572916666667C1068.1666666666667,103.65173611111112,1070.5833333333333,103.64774305555555,1073,103.64375C1075.4166666666667,103.63975694444444,1077.8333333333333,103.63576388888889,1080.25,103.63177083333333C1082.6666666666667,103.62777777777778,1085.0833333333333,103.62378472222221,1087.5,103.61979166666666C1089.9166666666667,103.6157986111111,1092.3333333333333,103.61180555555555,1094.75,103.6078125C1097.1666666666667,103.60381944444444,1099.5833333333333,103.59982638888889,1102,103.59583333333333C1104.4166666666667,103.59184027777778,1106.8333333333333,103.58784722222222,1109.25,103.58385416666667C1111.6666666666667,103.57986111111111,1114.0833333333333,103.57586805555556,1116.5,103.571875C1118.9166666666667,103.56788194444445,1121.3333333333333,103.56388888888888,1123.75,103.55989583333333C1126.1666666666667,103.55590277777777,1128.5833333333333,103.55190972222222,1131,103.54791666666667C1133.4166666666667,103.54392361111111,1135.8333333333333,103.53993055555554,1138.25,103.53593749999999C1140.6666666666667,103.53194444444443,1143.0833333333333,103.52795138888888,1145.5,103.52395833333333C1147.9166666666667,103.51996527777777,1150.3333333333333,103.51597222222223,1152.75,103.51197916666668C1155.1666666666667,103.50798611111112,1157.5833333333333,103.50798611111112,1160,103.5C1162.4166666666667,103.49201388888888,1164.8333333333333,102.30208333333333,1167.25,101.703125C1169.6666666666667,101.10416666666667,1172.0833333333333,100.50520833333333,1174.5,99.90625C1176.9166666666667,99.30729166666667,1179.3333333333333,98.70833333333333,1181.75,98.109375C1184.1666666666667,97.51041666666667,1186.5833333333333,96.91145833333333,1189,96.3125C1191.4166666666667,95.71354166666667,1193.8333333333333,95.11458333333333,1196.25,94.515625C1198.6666666666667,93.91666666666667,1201.0833333333333,93.31770833333333,1203.5,92.71875C1205.9166666666667,92.11979166666667,1208.3333333333333,91.52083333333333,1210.75,90.921875C1213.1666666666667,90.32291666666667,1215.5833333333333,89.72395833333333,1218,89.125C1220.4166666666667,88.52604166666667,1222.8333333333333,87.92708333333333,1225.25,87.328125C1227.6666666666667,86.72916666666667,1230.0833333333333,86.13020833333333,1232.5,85.53125C1234.9166666666667,84.93229166666667,1237.3333333333333,84.33333333333333,1239.75,83.734375C1242.1666666666667,83.13541666666667,1244.5833333333333,82.53645833333333,1247,81.9375C1249.4166666666667,81.33854166666667,1251.8333333333333,80.73958333333333,1254.25,80.140625C1256.6666666666667,79.54166666666667,1259.0833333333333,78.94270833333333,1261.5,78.34375C1263.9166666666667,77.74479166666667,1266.3333333333333,77.14583333333333,1268.75,76.546875C1271.1666666666667,75.94791666666667,1273.5833333333333,75.34895833333333,1276,74.75C1278.4166666666667,74.15104166666667,1280.8333333333333,73.55208333333333,1283.25,72.953125C1285.6666666666667,72.35416666666667,1288.0833333333333,71.75520833333333,1290.5,71.15625C1292.9166666666667,70.55729166666667,1295.3333333333333,69.95833333333333,1297.75,69.359375C1300.1666666666667,68.76041666666667,1302.5833333333333,68.16145833333334,1305,67.5625C1307.4166666666667,66.96354166666666,1309.8333333333333,66.36458333333331,1312.25,65.76562499999999C1314.6666666666667,65.16666666666666,1317.0833333333333,64.56770833333333,1319.5,63.96875C1321.9166666666667,63.36979166666667,1324.3333333333333,62.77083333333333,1326.75,62.171875C1329.1666666666667,61.57291666666667,1331.5833333333333,60.97395833333335,1334,60.375000000000014C1336.4166666666667,59.77604166666668,1338.8333333333333,59.177083333333336,1341.25,58.578125C1343.6666666666667,57.979166666666664,1346.0833333333333,57.38020833333333,1348.5,56.78124999999999C1350.9166666666667,56.18229166666666,1353.3333333333333,55.58333333333333,1355.75,54.984375C1358.1666666666667,54.38541666666667,1360.5833333333333,53.786458333333336,1363,53.1875C1365.4166666666667,52.588541666666664,1367.8333333333333,51.989583333333336,1370.25,51.390625C1372.6666666666667,50.791666666666664,1375.0833333333333,50.192708333333336,1377.5,49.59375C1379.9166666666667,48.994791666666664,1382.3333333333333,48.395833333333336,1384.75,47.796875C1387.1666666666667,47.197916666666664,1389.5833333333333,46.598958333333336,1392,46C1394.4166666666667,45.401041666666664,1396.8333333333333,44.802083333333336,1399.25,44.203125C1401.6666666666667,43.604166666666664,1404.0833333333333,43.005208333333336,1406.5,42.40625C1408.9166666666667,41.807291666666664,1411.3333333333333,41.208333333333336,1413.75,40.609375C1416.1666666666667,40.010416666666664,1418.5833333333333,39.411458333333336,1421,38.8125C1423.4166666666667,38.213541666666664,1425.8333333333333,37.614583333333336,1428.25,37.015625C1430.6666666666667,36.416666666666664,1433.0833333333333,35.817708333333336,1435.5,35.21875C1437.9166666666667,34.619791666666664,1440.3333333333333,34.020833333333336,1442.75,33.421875C1445.1666666666667,32.822916666666664,1447.5833333333333,32.223958333333336,1450,31.625000000000004" fill="transparent" stroke-linecap="round" stroke="#E7C6DF" stroke-width="2"></path><g class="visx-group visx-axis visx-axis-bottom" transform="translate(0, 115)"><g class="visx-group visx-axis-tick" transform="translate(0, 0)"><line class="visx-line" x1="0" y1="0" x2="0" y2="8" fill="transparent" shape-rendering="crispEdges" stroke="#000" stroke-width="0" stroke-linecap="square"></line><svg x="0" y="0" font-size="10" style="overflow:visible"><text transform="" x="0" y="18" fill="#000" font-size="10" text-anchor="middle"><tspan x="0" dy="0em">0%</tspan></text></svg></g><g class="visx-group visx-axis-tick" transform="translate(0, 0)"><line class="visx-line" x1="362.5" y1="0" x2="362.5" y2="8" fill="transparent" shape-rendering="crispEdges" stroke="#000" stroke-width="0" stroke-linecap="square"></line><svg x="0" y="0" font-size="10" style="overflow:visible"><text transform="" x="362.5" y="18" fill="#000" font-size="10" text-anchor="middle"><tspan x="362.5" dy="0em">25%</tspan></text></svg></g><g class="visx-group visx-axis-tick" transform="translate(0, 0)"><line class="visx-line" x1="725" y1="0" x2="725" y2="8" fill="transparent" shape-rendering="crispEdges" stroke="#000" stroke-width="0" stroke-linecap="square"></line><svg x="0" y="0" font-size="10" style="overflow:visible"><text transform="" x="725" y="18" fill="#000" font-size="10" text-anchor="middle"><tspan x="725" dy="0em">50%</tspan></text></svg></g><g class="visx-group visx-axis-tick" transform="translate(0, 0)"><line class="visx-line" x1="1087.5" y1="0" x2="1087.5" y2="8" fill="transparent" shape-rendering="crispEdges" stroke="#000" stroke-width="0" stroke-linecap="square"></line><svg x="0" y="0" font-size="10" style="overflow:visible"><text transform="" x="1087.5" y="18" fill="#000" font-size="10" text-anchor="middle"><tspan x="1087.5" dy="0em">75%</tspan></text></svg></g><g class="visx-group visx-axis-tick" transform="translate(0, 0)"><line class="visx-line" x1="1450" y1="0" x2="1450" y2="8" fill="transparent" shape-rendering="crispEdges" stroke="#000" stroke-width="0" stroke-linecap="square"></line><svg x="0" y="0" font-size="10" style="overflow:visible"><text transform="" x="1450" y="18" fill="#000" font-size="10" text-anchor="middle"><tspan x="1450" dy="0em">100%</tspan></text></svg></g><line class="visx-line visx-axis-line" x1="0.5" y1="0" x2="1450.5" y2="0" fill="transparent" shape-rendering="crispEdges" stroke="#222" stroke-width="0"></line></g><g class="visx-group visx-axis visx-axis-left" transform="translate(0, 0)"><g class="visx-group visx-axis-tick" transform="translate(0, 0)"><line class="visx-line" x1="0" y1="115" x2="-8" y2="115" fill="transparent" shape-rendering="crispEdges" stroke="#222" stroke-width="0" stroke-linecap="square"></line><svg x="-30" y="0" font-size="8" style="overflow:visible"><text transform="" x="-8" y="115" fill="#000" font-size="8" text-anchor="start"><tspan x="-8" dy="0em">0%</tspan></text></svg></g><g class="visx-group visx-axis-tick" transform="translate(0, 0)"><line class="visx-line" x1="0" y1="67.08333333333333" x2="-8" y2="67.08333333333333" fill="transparent" shape-rendering="crispEdges" stroke="#222" stroke-width="0" stroke-linecap="square"></line><svg x="-30" y="0" font-size="8" style="overflow:visible"><text transform="" x="-8" y="67.08333333333333" fill="#000" font-size="8" text-anchor="start"><tspan x="-8" dy="0em">50%</tspan></text></svg></g><g class="visx-group visx-axis-tick" transform="translate(0, 0)"><line class="visx-line" x1="0" y1="19.16666666666666" x2="-8" y2="19.16666666666666" fill="transparent" shape-rendering="crispEdges" stroke="#222" stroke-width="0" stroke-linecap="square"></line><svg x="-30" y="0" font-size="8" style="overflow:visible"><text transform="" x="-8" y="19.16666666666666" fill="#000" font-size="8" text-anchor="start"><tspan x="-8" dy="0em">100%</tspan></text></svg></g><line class="visx-line visx-axis-line" x1="0" y1="115.5" x2="0" y2="0.5" fill="transparent" shape-rendering="crispEdges" stroke="#222" stroke-width="0"></line></g><rect class="visx-bar" width="1450" height="115" fill="transparent"></rect><line class="visx-line" x1="1160" y1="28" x2="1160" y2="115" fill="transparent" shape-rendering="crispEdges" stroke="#0062D2" stroke-width="1" pointer-events="none" stroke-dasharray="5,2"></line><svg x="0" y="0" font-size="10px" style="overflow:visible"><text transform="" x="1160" y="20" font-size="10px" fill="#fff" stroke="#fff" stroke-width="0.8em" text-anchor="middle"><tspan x="1160" dy="0.355em">Optimal 80%</tspan></text></svg><svg x="0" y="0" font-size="10px" style="overflow:visible"><text transform="" x="1160" y="20" font-size="10px" fill="#62677B" text-anchor="middle"><tspan x="1160" dy="0.355em">Optimal 80%</tspan></text></svg></g></svg>