<?xml version="1.0"?><svg xmlns="http://www.w3.org/2000/svg" xmlns:xlink= "http://www.w3.org/1999/xlink" style="background: white;" width="1500" height="185"> <g style="color: black; font-size: 13px; font-family: sans-serif; transform: translate(18px, 25px);"><g><circle r="3" cx="-6" cy="-5" style="fill: #B6509E" /><text>Borrow APR, variable</text></g><g style="transform: translateX(150px);"><circle r="3" cx="-6" cy="-5" style="fill: rgb(231, 198, 223)" /><text>Borrow APR, stable</text></g><g style="transform: translateX(290px);"><circle r="3" cx="-6" cy="-5" style="fill: rgb(0, 98, 210)" /><text>Utilization Rate</text></g></g><g class="visx-group" transform="translate(40, 50)"><g class="visx-group visx-rows" transform="translate(0, 0)"><line class="visx-line" x1="0" y1="115" x2="1450" y2="115" fill="transparent" shape-rendering="crispEdges" stroke="#000" stroke-width="1" stroke-dasharray="3,3" pointer-events="none"></line><line class="visx-line" x1="0" y1="83.05555555555556" x2="1450" y2="83.05555555555556" fill="transparent" shape-rendering="crispEdges" stroke="#000" stroke-width="1" stroke-dasharray="3,3" pointer-events="none"></line><line class="visx-line" x1="0" y1="51.11111111111111" x2="1450" y2="51.11111111111111" fill="transparent" shape-rendering="crispEdges" stroke="#000" stroke-width="1" stroke-dasharray="3,3" pointer-events="none"></line><line class="visx-line" x1="0" y1="19.16666666666666" x2="1450" y2="19.16666666666666" fill="transparent" shape-rendering="crispEdges" stroke="#000" stroke-width="1" stroke-dasharray="3,3" pointer-events="none"></line></g><path class="visx-linepath" d="M0,114.99999999994525C2.4166666666666665,114.99087301584107,4.833333333333334,114.9817460317369,7.25,114.97261904761905C9.666666666666666,114.96349206350119,12.083333333333334,114.95436507936508,14.5,114.9452380952381C16.916666666666668,114.93611111111112,19.333333333333332,114.92698412698412,21.75,114.91785714285714C24.166666666666668,114.90873015873017,26.583333333333332,114.89960317460317,29,114.89047619047619C31.416666666666668,114.88134920634921,33.833333333333336,114.87222222222222,36.25,114.86309523809524C38.666666666666664,114.85396825396826,41.083333333333336,114.84484126984127,43.5,114.83571428571429C45.91666666666667,114.8265873015873,48.333333333333336,114.8174603174603,50.75000000000001,114.80833333333332C53.16666666666667,114.79920634920634,55.583333333333336,114.79007936507936,58,114.78095238095239C60.416666666666664,114.7718253968254,62.833333333333336,114.76269841269841,65.25,114.75357142857143C67.66666666666667,114.74444444444445,70.08333333333333,114.73531746031748,72.5,114.72619047619048C74.91666666666667,114.71706349206349,77.33333333333333,114.7079365079365,79.75,114.69880952380952C82.16666666666667,114.68968253968254,84.58333333333333,114.68055555555554,87,114.67142857142856C89.41666666666667,114.66230158730158,91.83333333333333,114.6531746031746,94.25,114.64404761904763C96.66666666666667,114.63492063492065,99.08333333333334,114.62579365079365,101.50000000000001,114.61666666666667C103.91666666666667,114.6075396825397,106.33333333333334,114.5984126984127,108.75,114.58928571428572C111.16666666666667,114.58015873015873,113.58333333333333,114.57103174603174,116,114.56190476190476C118.41666666666667,114.55277777777776,120.83333333333334,114.54365079365078,123.25000000000001,114.5345238095238C125.66666666666667,114.52539682539683,128.08333333333334,114.51626984126983,130.5,114.50714285714285C132.91666666666666,114.49801587301587,135.33333333333334,114.4888888888889,137.75,114.47976190476192C140.16666666666666,114.47063492063494,142.58333333333334,114.46150793650793,145,114.45238095238095C147.41666666666666,114.44325396825397,149.83333333333334,114.43412698412698,152.25,114.425C154.66666666666666,114.41587301587302,157.08333333333334,114.40674603174602,159.5,114.39761904761905C161.91666666666666,114.38849206349207,164.33333333333334,114.37936507936507,166.75,114.3702380952381C169.16666666666666,114.36111111111111,171.58333333333334,114.35198412698412,174,114.34285714285714C176.41666666666666,114.33373015873016,178.83333333333334,114.32460317460317,181.25,114.31547619047619C183.66666666666666,114.30634920634921,186.08333333333334,114.29722222222222,188.5,114.28809523809524C190.91666666666666,114.27896825396826,193.33333333333334,114.26984126984127,195.75,114.26071428571429C198.16666666666669,114.2515873015873,200.58333333333334,114.24246031746031,203.00000000000003,114.23333333333333C205.41666666666669,114.22420634920636,207.83333333333331,114.21507936507936,210.24999999999997,114.20595238095238C212.66666666666666,114.1968253968254,215.08333333333331,114.18769841269841,217.5,114.17857142857143C219.91666666666666,114.16944444444445,222.33333333333334,114.16031746031746,224.75,114.15119047619048C227.16666666666666,114.1420634920635,229.58333333333334,114.1329365079365,232,114.12380952380953C234.41666666666666,114.11468253968255,236.83333333333334,114.10555555555554,239.25,114.09642857142856C241.66666666666669,114.08730158730158,244.08333333333334,114.0781746031746,246.50000000000003,114.06904761904762C248.91666666666669,114.05992063492064,251.33333333333331,114.05079365079365,253.74999999999997,114.04166666666667C256.16666666666663,114.03253968253969,258.5833333333333,114.02341269841271,261,114.01428571428572C263.4166666666667,114.00515873015874,265.8333333333333,113.99603174603175,268.25,113.98690476190475C270.6666666666667,113.97777777777776,273.0833333333333,113.96865079365078,275.5,113.9595238095238C277.9166666666667,113.95039682539682,280.3333333333333,113.94126984126984,282.75,113.93214285714286C285.1666666666667,113.92301587301588,287.5833333333333,113.91388888888889,290,113.90476190476191C292.4166666666667,113.89563492063493,294.8333333333333,113.88650793650794,297.25,113.87738095238096C299.6666666666667,113.86825396825398,302.0833333333333,113.85912698412699,304.5,113.85C306.9166666666667,113.840873015873,309.3333333333333,113.83174603174602,311.75,113.82261904761904C314.1666666666667,113.81349206349206,316.5833333333333,113.80436507936507,319,113.79523809523809C321.4166666666667,113.78611111111111,323.8333333333333,113.77698412698413,326.25,113.76785714285715C328.6666666666667,113.75873015873017,331.0833333333333,113.74960317460318,333.5,113.74047619047619C335.9166666666667,113.7313492063492,338.3333333333333,113.72222222222221,340.75,113.71309523809524C343.1666666666667,113.70396825396826,345.5833333333333,113.69484126984126,348,113.68571428571428C350.4166666666667,113.6765873015873,352.8333333333333,113.66746031746031,355.25,113.65833333333333C357.6666666666667,113.64920634920635,360.0833333333333,113.64007936507936,362.5,113.63095238095238C364.9166666666667,113.6218253968254,367.3333333333333,113.6126984126984,369.75,113.60357142857143C372.1666666666667,113.59444444444445,374.5833333333333,113.58531746031746,377,113.57619047619048C379.4166666666667,113.5670634920635,381.8333333333333,113.5579365079365,384.25,113.54880952380952C386.6666666666667,113.53968253968254,389.0833333333333,113.53055555555555,391.5,113.52142857142857C393.9166666666667,113.5123015873016,396.33333333333337,113.5031746031746,398.75000000000006,113.49404761904762C401.16666666666674,113.48492063492064,403.58333333333337,113.47579365079365,406.00000000000006,113.46666666666667C408.4166666666667,113.45753968253969,410.8333333333333,113.4484126984127,413.24999999999994,113.43928571428572C415.66666666666663,113.43015873015874,418.08333333333326,113.42103174603174,420.49999999999994,113.41190476190476C422.91666666666663,113.40277777777777,425.3333333333333,113.39365079365078,427.75,113.3845238095238C430.1666666666667,113.37539682539682,432.5833333333333,113.36626984126984,435,113.35714285714286C437.4166666666667,113.34801587301588,439.8333333333333,113.33888888888889,442.25,113.32976190476191C444.6666666666667,113.32063492063493,447.0833333333333,113.31150793650795,449.5,113.30238095238096C451.9166666666667,113.29325396825396,454.3333333333333,113.28412698412697,456.75,113.27499999999999C459.1666666666667,113.26587301587301,461.5833333333333,113.25674603174602,464,113.24761904761904C466.4166666666667,113.23849206349206,468.8333333333333,113.22936507936508,471.25,113.2202380952381C473.6666666666667,113.21111111111112,476.0833333333333,113.20198412698413,478.5,113.19285714285715C480.9166666666667,113.18373015873017,483.33333333333337,113.17460317460319,485.75000000000006,113.1654761904762C488.16666666666674,113.15634920634922,490.58333333333337,113.14722222222223,493.00000000000006,113.13809523809523C495.4166666666667,113.12896825396825,497.8333333333333,113.11984126984126,500.24999999999994,113.11071428571428C502.66666666666663,113.1015873015873,505.08333333333326,113.09246031746031,507.49999999999994,113.08333333333333C509.91666666666663,113.07420634920635,512.3333333333333,113.06507936507937,514.75,113.05595238095239C517.1666666666666,113.04682539682541,519.5833333333334,113.0376984126984,522,113.02857142857142C524.4166666666666,113.01944444444445,526.8333333333334,113.01031746031745,529.25,113.00119047619047C531.6666666666666,112.9920634920635,534.0833333333334,112.9829365079365,536.5,112.97380952380952C538.9166666666666,112.96468253968254,541.3333333333334,112.95555555555555,543.75,112.94642857142857C546.1666666666666,112.93730158730159,548.5833333333334,112.9281746031746,551,112.91904761904762C553.4166666666666,112.90992063492064,555.8333333333334,112.90079365079364,558.25,112.89166666666667C560.6666666666666,112.88253968253969,563.0833333333334,112.8734126984127,565.5,112.86428571428571C567.9166666666666,112.85515873015873,570.3333333333334,112.84603174603174,572.75,112.83690476190476C575.1666666666666,112.82777777777778,577.5833333333334,112.81865079365079,580,112.80952380952381C582.4166666666666,112.80039682539683,584.8333333333334,112.79126984126984,587.25,112.78214285714286C589.6666666666666,112.77301587301588,592.0833333333334,112.76388888888889,594.5,112.7547619047619C596.9166666666666,112.74563492063493,599.3333333333334,112.73650793650793,601.75,112.72738095238095C604.1666666666666,112.71825396825398,606.5833333333334,112.70912698412698,609,112.7C611.4166666666666,112.69087301587302,613.8333333333334,112.68174603174602,616.25,112.67261904761904C618.6666666666666,112.66349206349206,621.0833333333334,112.65436507936508,623.5,112.6452380952381C625.9166666666666,112.63611111111112,628.3333333333334,112.62698412698413,630.75,112.61785714285715C633.1666666666666,112.60873015873017,635.5833333333334,112.59960317460317,638,112.5904761904762C640.4166666666666,112.58134920634922,642.8333333333334,112.57222222222222,645.25,112.56309523809523C647.6666666666666,112.55396825396824,650.0833333333334,112.54484126984126,652.5,112.53571428571428C654.9166666666666,112.5265873015873,657.3333333333334,112.5174603174603,659.75,112.50833333333333C662.1666666666666,112.49920634920635,664.5833333333334,112.49007936507937,667,112.48095238095239C669.4166666666666,112.47182539682541,671.8333333333334,112.46269841269842,674.25,112.45357142857144C676.6666666666666,112.44444444444446,679.0833333333334,112.43531746031746,681.5,112.42619047619047C683.9166666666666,112.41706349206348,686.3333333333334,112.4079365079365,688.75,112.39880952380952C691.1666666666666,112.38968253968254,693.5833333333334,112.38055555555555,696,112.37142857142857C698.4166666666666,112.36230158730159,700.8333333333334,112.35317460317461,703.25,112.34404761904763C705.6666666666666,112.33492063492065,708.0833333333334,112.32579365079366,710.5,112.31666666666666C712.9166666666666,112.30753968253967,715.3333333333334,112.29841269841269,717.75,112.28928571428571C720.1666666666666,112.28015873015873,722.5833333333334,112.27103174603174,725,112.26190476190476C727.4166666666666,112.25277777777778,729.8333333333334,112.24365079365079,732.25,112.23452380952381C734.6666666666666,112.22539682539683,737.0833333333334,112.21626984126983,739.5,112.20714285714286C741.9166666666666,112.19801587301588,744.3333333333334,112.18888888888888,746.75,112.1797619047619C749.1666666666666,112.17063492063492,751.5833333333334,112.16150793650793,754,112.15238095238095C756.4166666666666,112.14325396825397,758.8333333333334,112.13412698412698,761.25,112.125C763.6666666666666,112.11587301587302,766.0833333333334,112.10674603174603,768.5,112.09761904761905C770.9166666666666,112.08849206349207,773.3333333333334,112.07936507936508,775.75,112.0702380952381C778.1666666666666,112.06111111111112,780.5833333333334,112.05198412698412,783,112.04285714285714C785.4166666666667,112.03373015873017,787.8333333333334,112.02460317460317,790.2500000000001,112.01547619047619C792.6666666666667,112.00634920634921,795.0833333333335,111.99722222222223,797.5000000000001,111.98809523809524C799.9166666666667,111.97896825396825,802.3333333333335,111.96984126984125,804.7500000000001,111.96071428571427C807.1666666666667,111.9515873015873,809.5833333333335,111.94246031746032,812.0000000000001,111.93333333333334C814.4166666666667,111.92420634920636,816.8333333333333,111.91507936507936,819.2499999999999,111.90595238095239C821.6666666666665,111.8968253968254,824.0833333333333,111.88769841269841,826.4999999999999,111.87857142857143C828.9166666666665,111.86944444444445,831.3333333333333,111.86031746031748,833.7499999999999,111.85119047619048C836.1666666666665,111.84206349206349,838.5833333333333,111.8329365079365,840.9999999999999,111.82380952380952C843.4166666666666,111.81468253968254,845.8333333333333,111.80555555555556,848.25,111.79642857142858C850.6666666666666,111.7873015873016,853.0833333333334,111.7781746031746,855.5,111.76904761904763C857.9166666666666,111.75992063492065,860.3333333333334,111.75079365079367,862.75,111.74166666666667C865.1666666666666,111.73253968253968,867.5833333333334,111.72341269841269,870,111.71428571428571C872.4166666666666,111.70515873015873,874.8333333333334,111.69603174603174,877.25,111.68690476190476C879.6666666666666,111.67777777777778,882.0833333333334,111.66865079365078,884.5,111.6595238095238C886.9166666666666,111.65039682539683,889.3333333333334,111.64126984126985,891.75,111.63214285714287C894.1666666666666,111.62301587301589,896.5833333333334,111.61388888888888,899,111.6047619047619C901.4166666666666,111.59563492063492,903.8333333333334,111.58650793650793,906.25,111.57738095238095C908.6666666666666,111.56825396825397,911.0833333333334,111.55912698412698,913.5,111.55C915.9166666666666,111.54087301587302,918.3333333333334,111.53174603174602,920.75,111.52261904761905C923.1666666666666,111.51349206349207,925.5833333333334,111.50436507936507,928,111.4952380952381C930.4166666666666,111.48611111111111,932.8333333333334,111.47698412698412,935.25,111.46785714285714C937.6666666666666,111.45873015873016,940.0833333333334,111.44960317460317,942.5,111.44047619047619C944.9166666666666,111.43134920634921,947.3333333333334,111.42222222222222,949.75,111.41309523809524C952.1666666666666,111.40396825396826,954.5833333333334,111.39484126984127,957,111.38571428571429C959.4166666666666,111.3765873015873,961.8333333333334,111.36746031746031,964.25,111.35833333333333C966.6666666666667,111.34920634920636,969.0833333333334,111.34007936507936,971.5000000000001,111.33095238095238C973.9166666666667,111.3218253968254,976.3333333333335,111.31269841269841,978.7500000000001,111.30357142857143C981.1666666666667,111.29444444444445,983.5833333333335,111.28531746031746,986.0000000000001,111.27619047619048C988.4166666666667,111.2670634920635,990.8333333333335,111.25793650793649,993.2500000000001,111.24880952380951C995.6666666666667,111.23968253968253,998.0833333333333,111.23055555555555,1000.4999999999999,111.22142857142858C1002.9166666666665,111.2123015873016,1005.3333333333333,111.2031746031746,1007.7499999999999,111.19404761904762C1010.1666666666665,111.18492063492064,1012.5833333333333,111.18492063492064,1014.9999999999999,111.16666666666667C1017.4166666666665,111.1484126984127,1019.8333333333333,110.10185185185185,1022.2499999999999,109.56944444444444C1024.6666666666665,109.03703703703704,1027.0833333333333,108.50462962962963,1029.5,107.97222222222223C1031.9166666666667,107.43981481481482,1034.3333333333333,106.9074074074074,1036.75,106.375C1039.1666666666667,105.8425925925926,1041.5833333333333,105.31018518518518,1044,104.77777777777777C1046.4166666666667,104.24537037037037,1048.8333333333333,103.71296296296296,1051.25,103.18055555555556C1053.6666666666667,102.64814814814815,1056.0833333333333,102.11574074074073,1058.5,101.58333333333333C1060.9166666666667,101.05092592592592,1063.3333333333333,100.51851851851852,1065.75,99.98611111111111C1068.1666666666667,99.45370370370371,1070.5833333333333,98.9212962962963,1073,98.3888888888889C1075.4166666666667,97.8564814814815,1077.8333333333333,97.32407407407408,1080.25,96.79166666666667C1082.6666666666667,96.25925925925927,1085.0833333333333,95.72685185185185,1087.5,95.19444444444444C1089.9166666666667,94.66203703703704,1092.3333333333333,94.12962962962963,1094.75,93.59722222222223C1097.1666666666667,93.06481481481482,1099.5833333333333,92.5324074074074,1102,92C1104.4166666666667,91.4675925925926,1106.8333333333333,90.93518518518518,1109.25,90.40277777777777C1111.6666666666667,89.87037037037037,1114.0833333333333,89.33796296296296,1116.5,88.80555555555556C1118.9166666666667,88.27314814814815,1121.3333333333333,87.74074074074073,1123.75,87.20833333333333C1126.1666666666667,86.67592592592592,1128.5833333333333,86.14351851851852,1131,85.61111111111111C1133.4166666666667,85.07870370370371,1135.8333333333333,84.5462962962963,1138.25,84.0138888888889C1140.6666666666667,83.4814814814815,1143.0833333333333,82.94907407407408,1145.5,82.41666666666667C1147.9166666666667,81.88425925925927,1150.3333333333333,81.35185185185185,1152.75,80.81944444444444C1155.1666666666667,80.28703703703704,1157.5833333333333,79.75462962962963,1160,79.22222222222223C1162.4166666666667,78.68981481481482,1164.8333333333333,78.1574074074074,1167.25,77.625C1169.6666666666667,77.0925925925926,1172.0833333333333,76.56018518518518,1174.5,76.02777777777777C1176.9166666666667,75.49537037037037,1179.3333333333333,74.96296296296295,1181.75,74.43055555555554C1184.1666666666667,73.89814814814814,1186.5833333333333,73.36574074074073,1189,72.83333333333333C1191.4166666666667,72.30092592592592,1193.8333333333333,71.76851851851852,1196.25,71.23611111111111C1198.6666666666667,70.70370370370371,1201.0833333333333,70.1712962962963,1203.5,69.6388888888889C1205.9166666666667,69.1064814814815,1208.3333333333333,68.57407407407408,1210.75,68.04166666666667C1213.1666666666667,67.50925925925927,1215.5833333333333,66.97685185185185,1218,66.44444444444444C1220.4166666666667,65.91203703703704,1222.8333333333333,65.37962962962963,1225.25,64.84722222222223C1227.6666666666667,64.31481481481482,1230.0833333333333,63.78240740740742,1232.5,63.25000000000001C1234.9166666666667,62.717592592592595,1237.3333333333333,62.18518518518519,1239.75,61.65277777777778C1242.1666666666667,61.12037037037037,1244.5833333333333,60.58796296296295,1247,60.05555555555554C1249.4166666666667,59.52314814814814,1251.8333333333333,58.99074074074073,1254.25,58.45833333333333C1256.6666666666667,57.925925925925924,1259.0833333333333,57.39351851851852,1261.5,56.861111111111114C1263.9166666666667,56.32870370370371,1266.3333333333333,55.79629629629629,1268.75,55.263888888888886C1271.1666666666667,54.73148148148148,1273.5833333333333,54.199074074074076,1276,53.666666666666664C1278.4166666666667,53.13425925925925,1280.8333333333333,52.60185185185184,1283.25,52.069444444444436C1285.6666666666667,51.53703703703703,1288.0833333333333,51.004629629629626,1290.5,50.47222222222222C1292.9166666666667,49.93981481481482,1295.3333333333333,49.40740740740741,1297.75,48.87500000000001C1300.1666666666667,48.3425925925926,1302.5833333333333,47.81018518518519,1305,47.27777777777778C1307.4166666666667,46.74537037037037,1309.8333333333333,46.21296296296296,1312.25,45.68055555555556C1314.6666666666667,45.14814814814815,1317.0833333333333,44.61574074074073,1319.5,44.08333333333333C1321.9166666666667,43.550925925925924,1324.3333333333333,43.01851851851852,1326.75,42.486111111111114C1329.1666666666667,41.95370370370371,1331.5833333333333,41.421296296296305,1334,40.8888888888889C1336.4166666666667,40.356481481481495,1338.8333333333333,39.824074074074076,1341.25,39.291666666666664C1343.6666666666667,38.75925925925925,1346.0833333333333,38.22685185185185,1348.5,37.694444444444436C1350.9166666666667,37.162037037037024,1353.3333333333333,36.62962962962961,1355.75,36.09722222222221C1358.1666666666667,35.5648148148148,1360.5833333333333,35.03240740740741,1363,34.50000000000001C1365.4166666666667,33.9675925925926,1367.8333333333333,33.43518518518518,1370.25,32.90277777777778C1372.6666666666667,32.370370370370374,1375.0833333333333,31.83796296296297,1377.5,31.30555555555556C1379.9166666666667,30.773148148148152,1382.3333333333333,30.240740740740737,1384.75,29.70833333333333C1387.1666666666667,29.17592592592592,1389.5833333333333,28.643518518518523,1392,28.111111111111114C1394.4166666666667,27.578703703703706,1396.8333333333333,27.046296296296294,1399.25,26.513888888888886C1401.6666666666667,25.981481481481477,1404.0833333333333,25.449074074074076,1406.5,24.916666666666668C1408.9166666666667,24.38425925925926,1411.3333333333333,23.851851851851848,1413.75,23.31944444444444C1416.1666666666667,22.78703703703703,1418.5833333333333,22.254629629629626,1421,21.72222222222222C1423.4166666666667,21.189814814814817,1425.8333333333333,20.657407407407412,1428.25,20.125000000000004C1430.6666666666667,19.592592592592595,1433.0833333333333,19.060185185185183,1435.5,18.527777777777775C1437.9166666666667,17.995370370370367,1440.3333333333333,17.46296296296297,1442.75,16.93055555555556C1445.1666666666667,16.398148148148152,1447.5833333333333,15.865740740740742,1450,15.33333333333333" fill="transparent" stroke-linecap="round" stroke="#B6509E" stroke-width="2"></path><path class="visx-linepath" d="M0,108.61111111109287C2.4166666666666665,108.60806878305814,4.833333333333334,108.60502645502342,7.25,108.60198412698414C9.666666666666666,108.59894179894485,12.083333333333334,108.59589947089947,14.5,108.59285714285714C16.916666666666668,108.58981481481482,19.333333333333332,108.58677248677247,21.75,108.58373015873015C24.166666666666668,108.58068783068782,26.583333333333332,108.57764550264551,29,108.57460317460318C31.416666666666668,108.57156084656086,33.833333333333336,108.56851851851852,36.25,108.56547619047619C38.666666666666664,108.56243386243386,41.083333333333336,108.55939153439154,43.5,108.55634920634921C45.91666666666667,108.55330687830688,48.333333333333336,108.55026455026454,50.75000000000001,108.54722222222222C53.16666666666667,108.54417989417989,55.583333333333336,108.54113756613756,58,108.53809523809524C60.416666666666664,108.53505291005291,62.833333333333336,108.53201058201059,65.25,108.52896825396826C67.66666666666667,108.52592592592593,70.08333333333333,108.52288359788359,72.5,108.51984126984127C74.91666666666667,108.51679894179894,77.33333333333333,108.51375661375661,79.75,108.51071428571429C82.16666666666667,108.50767195767196,84.58333333333333,108.50462962962963,87,108.5015873015873C89.41666666666667,108.49854497354498,91.83333333333333,108.49550264550264,94.25,108.49246031746031C96.66666666666667,108.48941798941799,99.08333333333334,108.48637566137566,101.50000000000001,108.48333333333333C103.91666666666667,108.48029100529101,106.33333333333334,108.47724867724867,108.75,108.47420634920634C111.16666666666667,108.47116402116401,113.58333333333333,108.4681216931217,116,108.46507936507938C118.41666666666667,108.46203703703705,120.83333333333334,108.45899470899471,123.25000000000001,108.45595238095238C125.66666666666667,108.45291005291006,128.08333333333334,108.44986772486772,130.5,108.44682539682539C132.91666666666666,108.44378306878306,135.33333333333334,108.44074074074074,137.75,108.43769841269841C140.16666666666666,108.43465608465608,142.58333333333334,108.43161375661376,145,108.42857142857143C147.41666666666666,108.4255291005291,149.83333333333334,108.42248677248678,152.25,108.41944444444445C154.66666666666666,108.41640211640212,157.08333333333334,108.41335978835978,159.5,108.41031746031746C161.91666666666666,108.40727513227513,164.33333333333334,108.40423280423279,166.75,108.40119047619046C169.16666666666666,108.39814814814814,171.58333333333334,108.39510582010583,174,108.3920634920635C176.41666666666666,108.38902116402117,178.83333333333334,108.38597883597883,181.25,108.3829365079365C183.66666666666666,108.37989417989418,186.08333333333334,108.37685185185185,188.5,108.37380952380953C190.91666666666666,108.3707671957672,193.33333333333334,108.36772486772486,195.75,108.36468253968253C198.16666666666669,108.3616402116402,200.58333333333334,108.35859788359788,203.00000000000003,108.35555555555555C205.41666666666669,108.35251322751323,207.83333333333331,108.3494708994709,210.24999999999997,108.34642857142858C212.66666666666666,108.34338624338625,215.08333333333331,108.34034391534391,217.5,108.33730158730158C219.91666666666666,108.33425925925926,222.33333333333334,108.33121693121693,224.75,108.3281746031746C227.16666666666666,108.32513227513228,229.58333333333334,108.32208994708995,232,108.31904761904762C234.41666666666666,108.3160052910053,236.83333333333334,108.31296296296296,239.25,108.30992063492063C241.66666666666669,108.3068783068783,244.08333333333334,108.30383597883598,246.50000000000003,108.30079365079365C248.91666666666669,108.29775132275132,251.33333333333331,108.294708994709,253.74999999999997,108.29166666666667C256.16666666666663,108.28862433862435,258.5833333333333,108.28558201058202,261,108.28253968253969C263.4166666666667,108.27949735449737,265.8333333333333,108.27645502645503,268.25,108.2734126984127C270.6666666666667,108.27037037037037,273.0833333333333,108.26732804232803,275.5,108.2642857142857C277.9166666666667,108.26124338624338,280.3333333333333,108.25820105820107,282.75,108.25515873015874C285.1666666666667,108.25211640211641,287.5833333333333,108.24907407407407,290,108.24603174603175C292.4166666666667,108.24298941798942,294.8333333333333,108.2399470899471,297.25,108.23690476190477C299.6666666666667,108.23386243386244,302.0833333333333,108.2308201058201,304.5,108.22777777777777C306.9166666666667,108.22473544973545,309.3333333333333,108.22169312169312,311.75,108.2186507936508C314.1666666666667,108.21560846560847,316.5833333333333,108.21256613756614,319,108.20952380952382C321.4166666666667,108.20648148148149,323.8333333333333,108.20343915343915,326.25,108.20039682539682C328.6666666666667,108.1973544973545,331.0833333333333,108.19431216931217,333.5,108.19126984126984C335.9166666666667,108.18822751322752,338.3333333333333,108.18518518518519,340.75,108.18214285714286C343.1666666666667,108.17910052910054,345.5833333333333,108.1760582010582,348,108.17301587301587C350.4166666666667,108.16997354497354,352.8333333333333,108.16693121693122,355.25,108.16388888888889C357.6666666666667,108.16084656084657,360.0833333333333,108.15780423280422,362.5,108.1547619047619C364.9166666666667,108.15171957671957,367.3333333333333,108.14867724867725,369.75,108.14563492063492C372.1666666666667,108.14259259259259,374.5833333333333,108.13955026455027,377,108.13650793650794C379.4166666666667,108.13346560846561,381.8333333333333,108.13042328042327,384.25,108.12738095238095C386.6666666666667,108.12433862433862,389.0833333333333,108.1212962962963,391.5,108.11825396825397C393.9166666666667,108.11521164021164,396.33333333333337,108.11216931216931,398.75000000000006,108.10912698412699C401.16666666666674,108.10608465608466,403.58333333333337,108.10304232804232,406.00000000000006,108.1C408.4166666666667,108.09695767195767,410.8333333333333,108.09391534391534,413.24999999999994,108.09087301587302C415.66666666666663,108.08783068783069,418.08333333333326,108.08478835978835,420.49999999999994,108.08174603174602C422.91666666666663,108.0787037037037,425.3333333333333,108.07566137566138,427.75,108.07261904761906C430.1666666666667,108.06957671957673,432.5833333333333,108.06653439153439,435,108.06349206349206C437.4166666666667,108.06044973544974,439.8333333333333,108.05740740740741,442.25,108.05436507936508C444.6666666666667,108.05132275132276,447.0833333333333,108.04828042328042,449.5,108.04523809523809C451.9166666666667,108.04219576719576,454.3333333333333,108.03915343915344,456.75,108.03611111111111C459.1666666666667,108.03306878306879,461.5833333333333,108.03002645502646,464,108.02698412698413C466.4166666666667,108.0239417989418,468.8333333333333,108.02089947089947,471.25,108.01785714285714C473.6666666666667,108.01481481481481,476.0833333333333,108.01177248677249,478.5,108.00873015873016C480.9166666666667,108.00568783068783,483.33333333333337,108.0026455026455,485.75000000000006,107.99960317460318C488.16666666666674,107.99656084656085,490.58333333333337,107.99351851851851,493.00000000000006,107.99047619047619C495.4166666666667,107.98743386243386,497.8333333333333,107.98439153439153,500.24999999999994,107.98134920634921C502.66666666666663,107.97830687830688,505.08333333333326,107.97526455026455,507.49999999999994,107.97222222222223C509.91666666666663,107.9691798941799,512.3333333333333,107.96613756613756,514.75,107.96309523809524C517.1666666666666,107.96005291005291,519.5833333333334,107.95701058201058,522,107.95396825396826C524.4166666666666,107.95092592592593,526.8333333333334,107.94788359788359,529.25,107.94484126984126C531.6666666666666,107.94179894179894,534.0833333333334,107.93875661375661,536.5,107.93571428571428C538.9166666666666,107.93267195767196,541.3333333333334,107.92962962962963,543.75,107.9265873015873C546.1666666666666,107.92354497354498,548.5833333333334,107.92050264550264,551,107.91746031746031C553.4166666666666,107.91441798941798,555.8333333333334,107.91137566137566,558.25,107.90833333333333C560.6666666666666,107.905291005291,563.0833333333334,107.90224867724868,565.5,107.89920634920635C567.9166666666666,107.89616402116403,570.3333333333334,107.8931216931217,572.75,107.89007936507937C575.1666666666666,107.88703703703705,577.5833333333334,107.8839947089947,580,107.88095238095238C582.4166666666666,107.87791005291005,584.8333333333334,107.87486772486771,587.25,107.87182539682539C589.6666666666666,107.86878306878306,592.0833333333334,107.86574074074075,594.5,107.86269841269842C596.9166666666666,107.8596560846561,599.3333333333334,107.85661375661375,601.75,107.85357142857143C604.1666666666666,107.8505291005291,606.5833333333334,107.84748677248677,609,107.84444444444445C611.4166666666666,107.84140211640212,613.8333333333334,107.83835978835978,616.25,107.83531746031746C618.6666666666666,107.83227513227513,621.0833333333334,107.8292328042328,623.5,107.82619047619048C625.9166666666666,107.82314814814815,628.3333333333334,107.82010582010582,630.75,107.8170634920635C633.1666666666666,107.81402116402117,635.5833333333334,107.81097883597883,638,107.8079365079365C640.4166666666666,107.80489417989418,642.8333333333334,107.80185185185185,645.25,107.79880952380952C647.6666666666666,107.7957671957672,650.0833333333334,107.79272486772487,652.5,107.78968253968254C654.9166666666666,107.78664021164022,657.3333333333334,107.78359788359788,659.75,107.78055555555555C662.1666666666666,107.77751322751323,664.5833333333334,107.7744708994709,667,107.77142857142857C669.4166666666666,107.76838624338625,671.8333333333334,107.7653439153439,674.25,107.76230158730158C676.6666666666666,107.75925925925925,679.0833333333334,107.75621693121694,681.5,107.75317460317461C683.9166666666666,107.75013227513229,686.3333333333334,107.74708994708995,688.75,107.74404761904762C691.1666666666666,107.7410052910053,693.5833333333334,107.73796296296295,696,107.73492063492063C698.4166666666666,107.7318783068783,700.8333333333334,107.72883597883597,703.25,107.72579365079365C705.6666666666666,107.72275132275132,708.0833333333334,107.719708994709,710.5,107.71666666666667C712.9166666666666,107.71362433862434,715.3333333333334,107.71058201058202,717.75,107.70753968253969C720.1666666666666,107.70449735449736,722.5833333333334,107.70145502645502,725,107.6984126984127C727.4166666666666,107.69537037037037,729.8333333333334,107.69232804232804,732.25,107.68928571428572C734.6666666666666,107.68624338624339,737.0833333333334,107.68320105820106,739.5,107.68015873015874C741.9166666666666,107.67711640211641,744.3333333333334,107.67407407407407,746.75,107.67103174603174C749.1666666666666,107.66798941798942,751.5833333333334,107.66494708994709,754,107.66190476190476C756.4166666666666,107.65886243386244,758.8333333333334,107.6558201058201,761.25,107.65277777777777C763.6666666666666,107.64973544973545,766.0833333333334,107.64669312169312,768.5,107.64365079365079C770.9166666666666,107.64060846560847,773.3333333333334,107.63756613756614,775.75,107.63452380952381C778.1666666666666,107.63148148148149,780.5833333333334,107.62843915343915,783,107.62539682539682C785.4166666666667,107.6223544973545,787.8333333333334,107.61931216931217,790.2500000000001,107.61626984126984C792.6666666666667,107.61322751322751,795.0833333333335,107.61018518518519,797.5000000000001,107.60714285714286C799.9166666666667,107.60410052910053,802.3333333333335,107.6010582010582,804.7500000000001,107.59801587301587C807.1666666666667,107.59497354497354,809.5833333333335,107.59193121693121,812.0000000000001,107.58888888888889C814.4166666666667,107.58584656084656,816.8333333333333,107.58280423280424,819.2499999999999,107.57976190476191C821.6666666666665,107.57671957671958,824.0833333333333,107.57367724867726,826.4999999999999,107.57063492063493C828.9166666666665,107.5675925925926,831.3333333333333,107.56455026455026,833.7499999999999,107.56150793650794C836.1666666666665,107.55846560846561,838.5833333333333,107.55542328042327,840.9999999999999,107.55238095238094C843.4166666666666,107.54933862433862,845.8333333333333,107.5462962962963,848.25,107.54325396825398C850.6666666666666,107.54021164021165,853.0833333333334,107.53716931216931,855.5,107.53412698412698C857.9166666666666,107.53108465608466,860.3333333333334,107.52804232804233,862.75,107.525C865.1666666666666,107.52195767195768,867.5833333333334,107.51891534391534,870,107.51587301587301C872.4166666666666,107.51283068783069,874.8333333333334,107.50978835978836,877.25,107.50674603174603C879.6666666666666,107.5037037037037,882.0833333333334,107.50066137566138,884.5,107.49761904761905C886.9166666666666,107.49457671957673,889.3333333333334,107.49153439153439,891.75,107.48849206349206C894.1666666666666,107.48544973544973,896.5833333333334,107.48240740740741,899,107.47936507936508C901.4166666666666,107.47632275132275,903.8333333333334,107.47328042328043,906.25,107.4702380952381C908.6666666666666,107.46719576719578,911.0833333333334,107.46415343915343,913.5,107.46111111111111C915.9166666666666,107.45806878306878,918.3333333333334,107.45502645502646,920.75,107.45198412698413C923.1666666666666,107.4489417989418,925.5833333333334,107.44589947089946,928,107.44285714285714C930.4166666666666,107.43981481481481,932.8333333333334,107.4367724867725,935.25,107.43373015873017C937.6666666666666,107.43068783068784,940.0833333333334,107.4276455026455,942.5,107.42460317460318C944.9166666666666,107.42156084656085,947.3333333333334,107.41851851851851,949.75,107.41547619047618C952.1666666666666,107.41243386243386,954.5833333333334,107.40939153439153,957,107.4063492063492C959.4166666666666,107.40330687830688,961.8333333333334,107.40026455026455,964.25,107.39722222222223C966.6666666666667,107.3941798941799,969.0833333333334,107.39113756613757,971.5000000000001,107.38809523809525C973.9166666666667,107.38505291005292,976.3333333333335,107.38201058201058,978.7500000000001,107.37896825396825C981.1666666666667,107.37592592592593,983.5833333333335,107.37288359788359,986.0000000000001,107.36984126984126C988.4166666666667,107.36679894179893,990.8333333333335,107.36375661375662,993.2500000000001,107.3607142857143C995.6666666666667,107.35767195767197,998.0833333333333,107.35462962962963,1000.4999999999999,107.3515873015873C1002.9166666666665,107.34854497354497,1005.3333333333333,107.34550264550265,1007.7499999999999,107.34246031746032C1010.1666666666665,107.339417989418,1012.5833333333333,107.339417989418,1014.9999999999999,107.33333333333333C1017.4166666666665,107.32724867724866,1019.8333333333333,106.80092592592592,1022.2499999999999,106.53472222222223C1024.6666666666665,106.26851851851852,1027.0833333333333,106.00231481481482,1029.5,105.73611111111111C1031.9166666666667,105.4699074074074,1034.3333333333333,105.20370370370371,1036.75,104.9375C1039.1666666666667,104.67129629629629,1041.5833333333333,104.40509259259258,1044,104.13888888888889C1046.4166666666667,103.87268518518519,1048.8333333333333,103.6064814814815,1051.25,103.34027777777779C1053.6666666666667,103.07407407407408,1056.0833333333333,102.80787037037037,1058.5,102.54166666666666C1060.9166666666667,102.27546296296295,1063.3333333333333,102.00925925925927,1065.75,101.74305555555556C1068.1666666666667,101.47685185185185,1070.5833333333333,101.21064814814815,1073,100.94444444444444C1075.4166666666667,100.67824074074073,1077.8333333333333,100.41203703703704,1080.25,100.14583333333333C1082.6666666666667,99.87962962962962,1085.0833333333333,99.61342592592592,1087.5,99.34722222222223C1089.9166666666667,99.08101851851853,1092.3333333333333,98.81481481481482,1094.75,98.54861111111111C1097.1666666666667,98.2824074074074,1099.5833333333333,98.01620370370371,1102,97.75C1104.4166666666667,97.48379629629629,1106.8333333333333,97.21759259259258,1109.25,96.95138888888889C1111.6666666666667,96.68518518518519,1114.0833333333333,96.4189814814815,1116.5,96.15277777777779C1118.9166666666667,95.88657407407408,1121.3333333333333,95.62037037037037,1123.75,95.35416666666666C1126.1666666666667,95.08796296296295,1128.5833333333333,94.82175925925927,1131,94.55555555555556C1133.4166666666667,94.28935185185185,1135.8333333333333,94.02314814814815,1138.25,93.75694444444444C1140.6666666666667,93.49074074074073,1143.0833333333333,93.22453703703704,1145.5,92.95833333333333C1147.9166666666667,92.69212962962962,1150.3333333333333,92.42592592592592,1152.75,92.15972222222223C1155.1666666666667,91.89351851851853,1157.5833333333333,91.62731481481482,1160,91.36111111111111C1162.4166666666667,91.0949074074074,1164.8333333333333,90.82870370370371,1167.25,90.5625C1169.6666666666667,90.29629629629629,1172.0833333333333,90.03009259259258,1174.5,89.76388888888889C1176.9166666666667,89.49768518518519,1179.3333333333333,89.2314814814815,1181.75,88.96527777777779C1184.1666666666667,88.69907407407408,1186.5833333333333,88.43287037037037,1189,88.16666666666666C1191.4166666666667,87.90046296296295,1193.8333333333333,87.63425925925927,1196.25,87.36805555555556C1198.6666666666667,87.10185185185185,1201.0833333333333,86.83564814814815,1203.5,86.56944444444444C1205.9166666666667,86.30324074074073,1208.3333333333333,86.03703703703704,1210.75,85.77083333333333C1213.1666666666667,85.50462962962962,1215.5833333333333,85.23842592592592,1218,84.97222222222223C1220.4166666666667,84.70601851851853,1222.8333333333333,84.43981481481482,1225.25,84.17361111111111C1227.6666666666667,83.9074074074074,1230.0833333333333,83.6412037037037,1232.5,83.375C1234.9166666666667,83.1087962962963,1237.3333333333333,82.84259259259261,1239.75,82.5763888888889C1242.1666666666667,82.31018518518519,1244.5833333333333,82.0439814814815,1247,81.77777777777779C1249.4166666666667,81.51157407407408,1251.8333333333333,81.24537037037037,1254.25,80.97916666666666C1256.6666666666667,80.71296296296295,1259.0833333333333,80.44675925925927,1261.5,80.18055555555556C1263.9166666666667,79.91435185185185,1266.3333333333333,79.64814814814815,1268.75,79.38194444444444C1271.1666666666667,79.11574074074073,1273.5833333333333,78.84953703703704,1276,78.58333333333333C1278.4166666666667,78.31712962962962,1280.8333333333333,78.05092592592592,1283.25,77.78472222222223C1285.6666666666667,77.51851851851853,1288.0833333333333,77.25231481481482,1290.5,76.98611111111111C1292.9166666666667,76.7199074074074,1295.3333333333333,76.45370370370371,1297.75,76.1875C1300.1666666666667,75.92129629629629,1302.5833333333333,75.65509259259258,1305,75.38888888888889C1307.4166666666667,75.12268518518519,1309.8333333333333,74.8564814814815,1312.25,74.59027777777779C1314.6666666666667,74.32407407407408,1317.0833333333333,74.05787037037037,1319.5,73.79166666666666C1321.9166666666667,73.52546296296295,1324.3333333333333,73.25925925925927,1326.75,72.99305555555556C1329.1666666666667,72.72685185185185,1331.5833333333333,72.46064814814815,1334,72.19444444444444C1336.4166666666667,71.92824074074073,1338.8333333333333,71.66203703703704,1341.25,71.39583333333333C1343.6666666666667,71.12962962962962,1346.0833333333333,70.86342592592592,1348.5,70.59722222222223C1350.9166666666667,70.33101851851853,1353.3333333333333,70.06481481481482,1355.75,69.79861111111111C1358.1666666666667,69.5324074074074,1360.5833333333333,69.26620370370371,1363,69C1365.4166666666667,68.73379629629629,1367.8333333333333,68.46759259259258,1370.25,68.20138888888889C1372.6666666666667,67.93518518518519,1375.0833333333333,67.6689814814815,1377.5,67.40277777777779C1379.9166666666667,67.13657407407408,1382.3333333333333,66.87037037037037,1384.75,66.60416666666666C1387.1666666666667,66.33796296296295,1389.5833333333333,66.07175925925927,1392,65.80555555555556C1394.4166666666667,65.53935185185185,1396.8333333333333,65.27314814814815,1399.25,65.00694444444444C1401.6666666666667,64.74074074074073,1404.0833333333333,64.47453703703704,1406.5,64.20833333333333C1408.9166666666667,63.942129629629626,1411.3333333333333,63.67592592592593,1413.75,63.40972222222223C1416.1666666666667,63.143518518518526,1418.5833333333333,62.877314814814824,1421,62.61111111111112C1423.4166666666667,62.34490740740742,1425.8333333333333,62.07870370370371,1428.25,61.8125C1430.6666666666667,61.54629629629629,1433.0833333333333,61.28009259259259,1435.5,61.013888888888886C1437.9166666666667,60.74768518518518,1440.3333333333333,60.48148148148148,1442.75,60.21527777777778C1445.1666666666667,59.949074074074076,1447.5833333333333,59.68287037037037,1450,59.41666666666666" fill="transparent" stroke-linecap="round" stroke="#E7C6DF" stroke-width="2"></path><g class="visx-group visx-axis visx-axis-bottom" transform="translate(0, 115)"><g class="visx-group visx-axis-tick" transform="translate(0, 0)"><line class="visx-line" x1="0" y1="0" x2="0" y2="8" fill="transparent" shape-rendering="crispEdges" stroke="#000" stroke-width="0" stroke-linecap="square"></line><svg x="0" y="0" font-size="10" style="overflow:visible"><text transform="" x="0" y="18" fill="#000" font-size="10" text-anchor="middle"><tspan x="0" dy="0em">0%</tspan></text></svg></g><g class="visx-group visx-axis-tick" transform="translate(0, 0)"><line class="visx-line" x1="362.5" y1="0" x2="362.5" y2="8" fill="transparent" shape-rendering="crispEdges" stroke="#000" stroke-width="0" stroke-linecap="square"></line><svg x="0" y="0" font-size="10" style="overflow:visible"><text transform="" x="362.5" y="18" fill="#000" font-size="10" text-anchor="middle"><tspan x="362.5" dy="0em">25%</tspan></text></svg></g><g class="visx-group visx-axis-tick" transform="translate(0, 0)"><line class="visx-line" x1="725" y1="0" x2="725" y2="8" fill="transparent" shape-rendering="crispEdges" stroke="#000" stroke-width="0" stroke-linecap="square"></line><svg x="0" y="0" font-size="10" style="overflow:visible"><text transform="" x="725" y="18" fill="#000" font-size="10" text-anchor="middle"><tspan x="725" dy="0em">50%</tspan></text></svg></g><g class="visx-group visx-axis-tick" transform="translate(0, 0)"><line class="visx-line" x1="1087.5" y1="0" x2="1087.5" y2="8" fill="transparent" shape-rendering="crispEdges" stroke="#000" stroke-width="0" stroke-linecap="square"></line><svg x="0" y="0" font-size="10" style="overflow:visible"><text transform="" x="1087.5" y="18" fill="#000" font-size="10" text-anchor="middle"><tspan x="1087.5" dy="0em">75%</tspan></text></svg></g><g class="visx-group visx-axis-tick" transform="translate(0, 0)"><line class="visx-line" x1="1450" y1="0" x2="1450" y2="8" fill="transparent" shape-rendering="crispEdges" stroke="#000" stroke-width="0" stroke-linecap="square"></line><svg x="0" y="0" font-size="10" style="overflow:visible"><text transform="" x="1450" y="18" fill="#000" font-size="10" text-anchor="middle"><tspan x="1450" dy="0em">100%</tspan></text></svg></g><line class="visx-line visx-axis-line" x1="0.5" y1="0" x2="1450.5" y2="0" fill="transparent" shape-rendering="crispEdges" stroke="#222" stroke-width="0"></line></g><g class="visx-group visx-axis visx-axis-left" transform="translate(0, 0)"><g class="visx-group visx-axis-tick" transform="translate(0, 0)"><line class="visx-line" x1="0" y1="115" x2="-8" y2="115" fill="transparent" shape-rendering="crispEdges" stroke="#222" stroke-width="0" stroke-linecap="square"></line><svg x="-30" y="0" font-size="8" style="overflow:visible"><text transform="" x="-8" y="115" fill="#000" font-size="8" text-anchor="start"><tspan x="-8" dy="0em">0%</tspan></text></svg></g><g class="visx-group visx-axis-tick" transform="translate(0, 0)"><line class="visx-line" x1="0" y1="51.11111111111111" x2="-8" y2="51.11111111111111" fill="transparent" shape-rendering="crispEdges" stroke="#222" stroke-width="0" stroke-linecap="square"></line><svg x="-30" y="0" font-size="8" style="overflow:visible"><text transform="" x="-8" y="51.11111111111111" fill="#000" font-size="8" text-anchor="start"><tspan x="-8" dy="0em">100%</tspan></text></svg></g><line class="visx-line visx-axis-line" x1="0" y1="115.5" x2="0" y2="0.5" fill="transparent" shape-rendering="crispEdges" stroke="#222" stroke-width="0"></line></g><rect class="visx-bar" width="1450" height="115" fill="transparent"></rect><line class="visx-line" x1="1014.9999999999999" y1="28" x2="1014.9999999999999" y2="115" fill="transparent" shape-rendering="crispEdges" stroke="#0062D2" stroke-width="1" pointer-events="none" stroke-dasharray="5,2"></line><svg x="0" y="0" font-size="10px" style="overflow:visible"><text transform="" x="1014.9999999999999" y="20" font-size="10px" fill="#fff" stroke="#fff" stroke-width="0.8em" text-anchor="middle"><tspan x="1014.9999999999999" dy="0.355em">Optimal 70%</tspan></text></svg><svg x="0" y="0" font-size="10px" style="overflow:visible"><text transform="" x="1014.9999999999999" y="20" font-size="10px" fill="#62677B" text-anchor="middle"><tspan x="1014.9999999999999" dy="0.355em">Optimal 70%</tspan></text></svg></g></svg>