<?xml version="1.0"?><svg xmlns="http://www.w3.org/2000/svg" xmlns:xlink= "http://www.w3.org/1999/xlink" style="background: white;" width="1500" height="300"> <g style="color: black; font-size: 13px; font-family: sans-serif; transform: translate(18px, 25px);"><g><circle r="3" cx="-6" cy="-5" style="fill: #1AD4B3" /><text>Borrow APR, variable</text></g><g style="transform: translateX(150px);"><circle r="3" cx="-6" cy="-5" style="fill: #101423" /><text>Borrow APR, stable</text></g></g><g class="visx-group" transform="translate(45, 50)"><g class="visx-group visx-rows" transform="translate(0, 0)"><line class="visx-line" x1="0" y1="155" x2="1425" y2="155" fill="transparent" shape-rendering="crispEdges" stroke="#F2F0F9" stroke-width="1" pointer-events="none"></line><line class="visx-line" x1="0" y1="116.25" x2="1425" y2="116.25" fill="transparent" shape-rendering="crispEdges" stroke="#F2F0F9" stroke-width="1" pointer-events="none"></line><line class="visx-line" x1="0" y1="77.5" x2="1425" y2="77.5" fill="transparent" shape-rendering="crispEdges" stroke="#F2F0F9" stroke-width="1" pointer-events="none"></line><line class="visx-line" x1="0" y1="38.75" x2="1425" y2="38.75" fill="transparent" shape-rendering="crispEdges" stroke="#F2F0F9" stroke-width="1" pointer-events="none"></line><line class="visx-line" x1="0" y1="0" x2="1425" y2="0" fill="transparent" shape-rendering="crispEdges" stroke="#F2F0F9" stroke-width="1" pointer-events="none"></line></g><path class="visx-linepath" d="M0,154.9999999998631C2.375,154.97718523542738,4.75,154.95437047099168,7.125,154.93155570652175C9.5,154.90874094205182,11.875,154.88592617753625,14.25,154.8631114130435C16.625,154.84029664855075,19,154.81748188405797,21.375,154.79466711956522C23.75,154.77185235507247,26.125,154.74903759057972,28.5,154.72622282608697C30.875,154.70340806159422,33.25,154.68059329710144,35.625,154.6577785326087C38,154.63496376811594,40.375,154.6121490036232,42.75,154.58933423913044C45.125,154.5665194746377,47.50000000000001,154.5437047101449,49.87500000000001,154.52088994565216C52.25000000000001,154.4980751811594,54.625,154.47526041666666,57,154.4524456521739C59.375,154.42963088768116,61.75,154.4068161231884,64.125,154.38400135869566C66.5,154.3611865942029,68.875,154.33837182971016,71.25,154.3155570652174C73.625,154.29274230072465,76,154.26992753623188,78.375,154.24711277173913C80.75,154.22429800724638,83.125,154.20148324275362,85.5,154.17866847826087C87.875,154.15585371376812,90.25,154.13303894927535,92.625,154.1102241847826C95,154.08740942028984,97.37500000000001,154.0645946557971,99.75000000000001,154.04177989130434C102.12500000000001,154.0189651268116,104.5,153.99615036231884,106.875,153.9733355978261C109.25,153.95052083333334,111.625,153.92770606884056,114,153.9048913043478C116.375,153.88207653985506,118.75000000000001,153.8592617753623,121.12500000000001,153.83644701086956C123.50000000000001,153.8136322463768,125.875,153.79081748188406,128.25,153.7680027173913C130.625,153.74518795289856,133,153.7223731884058,135.375,153.69955842391306C137.75,153.6767436594203,140.125,153.65392889492753,142.5,153.63111413043478C144.875,153.60829936594203,147.25,153.58548460144928,149.625,153.56266983695653C152,153.53985507246378,154.375,153.517040307971,156.75,153.49422554347825C159.125,153.4714107789855,161.5,153.44859601449275,163.875,153.42578125C166.25,153.40296648550725,168.625,153.3801517210145,171,153.35733695652175C173.375,153.334522192029,175.75,153.31170742753622,178.125,153.28889266304347C180.5,153.26607789855072,182.875,153.24326313405797,185.25,153.22044836956522C187.625,153.19763360507247,190,153.17481884057972,192.375,153.15200407608697C194.75,153.12918931159422,197.12500000000003,153.10637454710144,199.50000000000003,153.0835597826087C201.875,153.06074501811594,204.25,153.0379302536232,206.62499999999997,153.01511548913044C208.99999999999997,152.9923007246377,211.375,152.9694859601449,213.75,152.94667119565216C216.125,152.9238564311594,218.5,152.90104166666666,220.875,152.8782269021739C223.25,152.85541213768116,225.625,152.8325973731884,228,152.80978260869566C230.375,152.7869678442029,232.75,152.76415307971016,235.125,152.7413383152174C237.5,152.71852355072465,239.87500000000003,152.69570878623188,242.25000000000003,152.67289402173913C244.625,152.65007925724638,247,152.62726449275362,249.37499999999997,152.60444972826087C251.74999999999997,152.58163496376812,254.125,152.55882019927537,256.5,152.53600543478262C258.875,152.51319067028987,261.25,152.4903759057971,263.625,152.46756114130434C266,152.4447463768116,268.375,152.42193161231884,270.75,152.3991168478261C273.125,152.37630208333334,275.5,152.35348731884056,277.875,152.3306725543478C280.25,152.30785778985506,282.625,152.2850430253623,285,152.26222826086956C287.375,152.2394134963768,289.75,152.21659873188406,292.125,152.1937839673913C294.5,152.17096920289856,296.875,152.14815443840578,299.25,152.12533967391303C301.625,152.10252490942028,304,152.07971014492753,306.375,152.05689538043478C308.75,152.03408061594203,311.125,152.01126585144928,313.5,151.98845108695653C315.875,151.96563632246378,318.25,151.942821557971,320.625,151.92000679347825C323,151.8971920289855,325.375,151.87437726449275,327.75,151.8515625C330.125,151.82874773550725,332.5,151.80593297101447,334.875,151.78311820652172C337.25,151.76030344202897,339.625,151.73748867753622,342,151.71467391304347C344.375,151.69185914855072,346.75,151.66904438405797,349.125,151.64622961956522C351.5,151.62341485507247,353.875,151.60060009057972,356.25,151.57778532608697C358.625,151.55497056159422,361,151.53215579710144,363.375,151.5093410326087C365.75,151.48652626811594,368.125,151.4637115036232,370.5,151.44089673913044C372.875,151.4180819746377,375.25,151.39526721014494,377.625,151.3724524456522C380,151.34963768115944,382.375,151.32682291666666,384.75,151.3040081521739C387.125,151.28119338768116,389.50000000000006,151.2583786231884,391.87500000000006,151.23556385869566C394.25000000000006,151.2127490942029,396.62500000000006,151.18993432971013,399.00000000000006,151.16711956521738C401.375,151.14430480072463,403.75,151.12149003623188,406.12499999999994,151.09867527173913C408.49999999999994,151.07586050724638,410.87499999999994,151.05304574275362,413.24999999999994,151.03023097826087C415.62499999999994,151.00741621376812,418,150.98460144927537,420.375,150.96178668478262C422.75,150.93897192028987,425.125,150.9161571557971,427.5,150.89334239130434C429.875,150.8705276268116,432.25,150.84771286231884,434.625,150.8248980978261C437,150.80208333333334,439.375,150.77926856884056,441.75,150.7564538043478C444.125,150.73363903985506,446.5,150.7108242753623,448.875,150.68800951086956C451.25,150.6651947463768,453.625,150.64237998188406,456,150.6195652173913C458.375,150.59675045289856,460.75,150.57393568840578,463.125,150.55112092391303C465.5,150.52830615942028,467.875,150.50549139492753,470.25,150.48267663043478C472.625,150.45986186594203,475.00000000000006,150.43704710144928,477.37500000000006,150.41423233695653C479.75000000000006,150.39141757246378,482.12500000000006,150.36860280797103,484.50000000000006,150.34578804347828C486.875,150.32297327898553,489.25,150.30015851449275,491.62499999999994,150.27734375C493.99999999999994,150.25452898550725,496.37499999999994,150.2317142210145,498.74999999999994,150.20889945652175C501.12499999999994,150.186084692029,503.5,150.16326992753622,505.875,150.14045516304347C508.25,150.11764039855072,510.625,150.09482563405797,513,150.07201086956522C515.375,150.04919610507247,517.75,150.02638134057972,520.125,150.00356657608697C522.5,149.98075181159422,524.875,149.95793704710144,527.25,149.9351222826087C529.625,149.91230751811594,532,149.8894927536232,534.375,149.86667798913044C536.75,149.8438632246377,539.125,149.82104846014494,541.5,149.7982336956522C543.875,149.77541893115944,546.25,149.75260416666666,548.625,149.7297894021739C551,149.70697463768116,553.375,149.6841598731884,555.75,149.66134510869566C558.125,149.6385303442029,560.5,149.61571557971013,562.875,149.59290081521738C565.25,149.57008605072463,567.625,149.54727128623188,570,149.52445652173913C572.375,149.50164175724638,574.75,149.47882699275362,577.125,149.45601222826087C579.5,149.43319746376812,581.875,149.41038269927535,584.25,149.3875679347826C586.625,149.36475317028984,589,149.3419384057971,591.375,149.31912364130434C593.75,149.2963088768116,596.125,149.27349411231884,598.5,149.2506793478261C600.875,149.22786458333334,603.25,149.2050498188406,605.625,149.18223505434784C608,149.1594202898551,610.375,149.1366055253623,612.75,149.11379076086956C615.125,149.0909759963768,617.5,149.06816123188406,619.875,149.0453464673913C622.25,149.02253170289856,624.625,148.99971693840578,627,148.97690217391303C629.375,148.95408740942028,631.75,148.93127264492753,634.125,148.90845788043478C636.5,148.88564311594203,638.875,148.86282835144928,641.25,148.84001358695653C643.625,148.81719882246378,646,148.794384057971,648.375,148.77156929347825C650.75,148.7487545289855,653.125,148.72593976449275,655.5,148.703125C657.875,148.68031023550725,660.25,148.6574954710145,662.625,148.63468070652175C665,148.611865942029,667.375,148.58905117753622,669.75,148.56623641304347C672.125,148.54342164855072,674.5,148.52060688405797,676.875,148.49779211956522C679.25,148.47497735507247,681.625,148.4521625905797,684,148.42934782608694C686.375,148.4065330615942,688.75,148.38371829710144,691.125,148.3609035326087C693.5,148.33808876811594,695.875,148.3152740036232,698.25,148.29245923913044C700.625,148.2696444746377,703,148.24682971014494,705.375,148.2240149456522C707.75,148.20120018115944,710.125,148.17838541666666,712.5,148.1555706521739C714.875,148.13275588768116,717.25,148.1099411231884,719.625,148.08712635869566C722,148.0643115942029,724.375,148.04149682971016,726.75,148.0186820652174C729.125,147.99586730072465,731.5,147.97305253623188,733.875,147.95023777173913C736.25,147.92742300724638,738.625,147.90460824275362,741,147.88179347826087C743.375,147.85897871376812,745.75,147.83616394927535,748.125,147.8133491847826C750.5,147.79053442028984,752.875,147.7677196557971,755.25,147.74490489130434C757.625,147.7220901268116,760,147.69927536231884,762.375,147.6764605978261C764.75,147.65364583333334,767.125,147.6308310688406,769.5,147.60801630434784C771.875,147.5852015398551,774.2500000000001,147.5623867753623,776.6250000000001,147.53957201086956C779.0000000000001,147.5167572463768,781.3750000000001,147.49394248188406,783.7500000000001,147.4711277173913C786.1250000000001,147.44831295289856,788.5000000000001,147.42549818840578,790.8750000000001,147.40268342391303C793.2500000000001,147.37986865942028,795.6250000000001,147.35705389492753,798.0000000000001,147.33423913043478C800.375,147.31142436594203,802.75,147.28860960144925,805.1249999999999,147.2657948369565C807.4999999999999,147.24298007246375,809.8749999999999,147.220165307971,812.2499999999999,147.19735054347825C814.6249999999999,147.1745357789855,816.9999999999999,147.15172101449275,819.3749999999999,147.12890625C821.7499999999999,147.10609148550725,824.1249999999999,147.0832767210145,826.4999999999999,147.06046195652175C828.8749999999999,147.037647192029,831.25,147.01483242753625,833.625,146.9920176630435C836,146.96920289855075,838.375,146.94638813405797,840.75,146.92357336956522C843.125,146.90075860507247,845.5,146.87794384057972,847.875,146.85512907608697C850.25,146.83231431159422,852.625,146.80949954710144,855,146.7866847826087C857.375,146.76387001811594,859.75,146.7410552536232,862.125,146.71824048913044C864.5,146.6954257246377,866.875,146.6726109601449,869.25,146.64979619565216C871.625,146.6269814311594,874,146.60416666666666,876.375,146.5813519021739C878.75,146.55853713768116,881.125,146.5357223731884,883.5,146.51290760869566C885.875,146.4900928442029,888.25,146.46727807971016,890.625,146.4444633152174C893,146.42164855072465,895.375,146.39883378623188,897.75,146.37601902173913C900.125,146.35320425724638,902.5,146.33038949275362,904.875,146.30757472826087C907.25,146.28475996376812,909.625,146.26194519927535,912,146.2391304347826C914.375,146.21631567028984,916.75,146.1935009057971,919.125,146.17068614130434C921.5,146.1478713768116,923.875,146.12505661231884,926.25,146.1022418478261C928.625,146.07942708333334,931,146.05661231884056,933.375,146.0337975543478C935.75,146.01098278985506,938.125,145.9881680253623,940.5,145.96535326086956C942.875,145.9425384963768,945.25,145.91972373188406,947.625,145.8969089673913C950,145.87409420289856,952.3750000000001,145.8512794384058,954.7500000000001,145.82846467391306C957.1250000000001,145.8056499094203,959.5000000000001,145.78283514492753,961.8750000000001,145.76002038043478C964.2500000000001,145.73720561594203,966.6250000000001,145.71439085144928,969.0000000000001,145.69157608695653C971.3750000000001,145.66876132246378,973.7500000000001,145.645946557971,976.1250000000001,145.62313179347825C978.5,145.6003170289855,980.875,145.57750226449275,983.2499999999999,145.5546875C985.6249999999999,145.53187273550725,987.9999999999999,145.5090579710145,990.3749999999999,145.48624320652175C992.7499999999999,145.463428442029,995.1249999999999,145.44061367753622,997.4999999999999,145.41779891304347C999.8749999999999,145.39498414855072,1002.2499999999999,145.37216938405797,1004.6249999999999,145.34935461956522C1006.9999999999999,145.32653985507247,1009.375,145.30372509057972,1011.75,145.28091032608697C1014.125,145.25809556159422,1016.5,145.23528079710144,1018.875,145.2124660326087C1021.25,145.18965126811594,1023.625,145.1668365036232,1026,145.14402173913044C1028.375,145.1212069746377,1030.75,145.0983922101449,1033.125,145.07557744565216C1035.5,145.0527626811594,1037.875,145.02994791666666,1040.25,145.0071331521739C1042.625,144.98431838768116,1045,144.9615036231884,1047.375,144.93868885869566C1049.75,144.9158740942029,1052.125,144.89305932971013,1054.5,144.87024456521738C1056.875,144.84742980072463,1059.25,144.82461503623188,1061.625,144.80180027173913C1064,144.77898550724638,1066.375,144.75617074275362,1068.75,144.73335597826087C1071.125,144.71054121376812,1073.5,144.68772644927537,1075.875,144.66491168478262C1078.25,144.64209692028987,1080.625,144.6192821557971,1083,144.59646739130434C1085.375,144.5736526268116,1087.75,144.55083786231884,1090.125,144.5280230978261C1092.5,144.50520833333334,1094.875,144.48239356884056,1097.25,144.4595788043478C1099.625,144.43676403985506,1102,144.4139492753623,1104.375,144.39113451086956C1106.75,144.3683197463768,1109.125,144.34550498188406,1111.5,144.3226902173913C1113.875,144.29987545289856,1116.25,144.27706068840578,1118.625,144.25424592391303C1121,144.23143115942028,1123.375,144.20861639492753,1125.75,144.18580163043478C1128.125,144.16298686594203,1130.5,144.14017210144928,1132.875,144.11735733695653C1135.25,144.09454257246378,1137.625,144.071727807971,1140,144.04891304347825C1142.375,144.0260982789855,1144.75,144.00328351449275,1147.125,143.98046875C1149.5,143.95765398550725,1151.875,143.93483922101447,1154.25,143.91202445652172C1156.625,143.88920969202897,1159,143.86639492753622,1161.375,143.84358016304347C1163.75,143.82076539855072,1166.125,143.79795063405797,1168.5,143.77513586956522C1170.875,143.75232110507247,1173.25,143.72950634057972,1175.625,143.70669157608697C1178,143.68387681159422,1180.375,143.66106204710144,1182.75,143.6382472826087C1185.125,143.61543251811594,1187.5,143.5926177536232,1189.875,143.56980298913044C1192.25,143.5469882246377,1194.625,143.52417346014494,1197,143.5013586956522C1199.375,143.47854393115944,1201.75,143.45572916666666,1204.125,143.4329144021739C1206.5,143.41009963768116,1208.875,143.3872848731884,1211.25,143.36447010869566C1213.625,143.3416553442029,1216,143.31884057971013,1218.375,143.29602581521738C1220.75,143.27321105072463,1223.125,143.25039628623188,1225.5,143.22758152173913C1227.875,143.20476675724638,1230.25,143.18195199275362,1232.625,143.15913722826087C1235,143.13632246376812,1237.375,143.11350769927537,1239.75,143.09069293478262C1242.125,143.06787817028987,1244.5,143.0450634057971,1246.875,143.02224864130434C1249.25,142.9994338768116,1251.625,142.97661911231884,1254,142.9538043478261C1256.375,142.93098958333334,1258.75,142.90817481884056,1261.125,142.8853600543478C1263.5,142.86254528985506,1265.875,142.8397305253623,1268.25,142.81691576086956C1270.625,142.7941009963768,1273,142.77128623188406,1275.375,142.7484714673913C1277.75,142.72565670289856,1280.125,142.70284193840578,1282.5,142.68002717391303C1284.875,142.65721240942028,1287.25,142.63439764492753,1289.625,142.61158288043478C1292,142.58876811594203,1294.375,142.56595335144928,1296.75,142.54313858695653C1299.125,142.52032382246378,1301.5,142.49750905797103,1303.875,142.47469429347828C1306.25,142.45187952898553,1308.625,142.45187952898553,1311,142.40625C1313.375,142.36062047101447,1315.75,137.5625,1318.125,135.140625C1320.5,132.71875,1322.875,130.296875,1325.25,127.875C1327.625,125.453125,1330,123.03125,1332.375,120.609375C1334.75,118.1875,1337.125,115.765625,1339.5,113.34375C1341.875,110.921875,1344.25,108.5,1346.625,106.078125C1349,103.65625,1351.375,101.23437500000001,1353.75,98.81250000000001C1356.125,96.39062500000001,1358.5,93.96875,1360.875,91.546875C1363.25,89.125,1365.625,86.703125,1368,84.28125C1370.375,81.859375,1372.75,79.4375,1375.125,77.015625C1377.5,74.59375,1379.875,72.171875,1382.25,69.75C1384.625,67.328125,1387,64.90625,1389.375,62.48437499999999C1391.75,60.06249999999999,1394.125,57.64062499999999,1396.5,55.21874999999999C1398.875,52.79687499999999,1401.25,50.37499999999999,1403.625,47.95312499999999C1406,45.53124999999999,1408.375,43.10937499999999,1410.75,40.68749999999999C1413.125,38.26562499999999,1415.5,35.84375000000001,1417.875,33.42187500000001C1420.25,31.000000000000007,1422.625,28.578125,1425,26.156249999999993" fill="transparent" stroke-linecap="round" stroke="#1AD4B3" stroke-width="2"></path><g class="visx-group visx-axis visx-axis-bottom" transform="translate(0, 155)"><g class="visx-group visx-axis-tick" transform="translate(0, 0)"><line class="visx-line" x1="0" y1="0" x2="0" y2="8" fill="transparent" shape-rendering="crispEdges" stroke="#F2F0F9" stroke-width="1" stroke-linecap="square"></line><svg x="0" y="0" font-size="11" style="overflow:visible"><text transform="" x="0" y="19" fill="#1B2030" font-size="11" text-anchor="middle"><tspan x="0" dy="0em">0%</tspan></text></svg></g><g class="visx-group visx-axis-tick" transform="translate(0, 0)"><line class="visx-line" x1="356.25" y1="0" x2="356.25" y2="8" fill="transparent" shape-rendering="crispEdges" stroke="#F2F0F9" stroke-width="1" stroke-linecap="square"></line><svg x="0" y="0" font-size="11" style="overflow:visible"><text transform="" x="356.25" y="19" fill="#1B2030" font-size="11" text-anchor="middle"><tspan x="356.25" dy="0em">25%</tspan></text></svg></g><g class="visx-group visx-axis-tick" transform="translate(0, 0)"><line class="visx-line" x1="712.5" y1="0" x2="712.5" y2="8" fill="transparent" shape-rendering="crispEdges" stroke="#F2F0F9" stroke-width="1" stroke-linecap="square"></line><svg x="0" y="0" font-size="11" style="overflow:visible"><text transform="" x="712.5" y="19" fill="#1B2030" font-size="11" text-anchor="middle"><tspan x="712.5" dy="0em">50%</tspan></text></svg></g><g class="visx-group visx-axis-tick" transform="translate(0, 0)"><line class="visx-line" x1="1068.75" y1="0" x2="1068.75" y2="8" fill="transparent" shape-rendering="crispEdges" stroke="#F2F0F9" stroke-width="1" stroke-linecap="square"></line><svg x="0" y="0" font-size="11" style="overflow:visible"><text transform="" x="1068.75" y="19" fill="#1B2030" font-size="11" text-anchor="middle"><tspan x="1068.75" dy="0em">75%</tspan></text></svg></g><g class="visx-group visx-axis-tick" transform="translate(0, 0)"><line class="visx-line" x1="1425" y1="0" x2="1425" y2="8" fill="transparent" shape-rendering="crispEdges" stroke="#F2F0F9" stroke-width="1" stroke-linecap="square"></line><svg x="0" y="0" font-size="11" style="overflow:visible"><text transform="" x="1425" y="19" fill="#1B2030" font-size="11" text-anchor="middle"><tspan x="1425" dy="0em">100%</tspan></text></svg></g></g><g class="visx-group visx-axis visx-axis-left" transform="translate(0, 0)"><g class="visx-group visx-axis-tick" transform="translate(0, 0)"><line class="visx-line" x1="0" y1="155" x2="-8" y2="155" fill="transparent" shape-rendering="crispEdges" stroke="#F2F0F9" stroke-width="1" stroke-linecap="square"></line><svg x="-30" y="0" font-size="11" style="overflow:visible"><text transform="" x="-8" y="155" fill="#1B2030" font-size="11" text-anchor="start"><tspan x="-8" dy="0em">0%</tspan></text></svg></g><g class="visx-group visx-axis-tick" transform="translate(0, 0)"><line class="visx-line" x1="0" y1="116.25" x2="-8" y2="116.25" fill="transparent" shape-rendering="crispEdges" stroke="#F2F0F9" stroke-width="1" stroke-linecap="square"></line><svg x="-30" y="0" font-size="11" style="overflow:visible"><text transform="" x="-8" y="116.25" fill="#1B2030" font-size="11" text-anchor="start"><tspan x="-8" dy="0em">20%</tspan></text></svg></g><g class="visx-group visx-axis-tick" transform="translate(0, 0)"><line class="visx-line" x1="0" y1="77.5" x2="-8" y2="77.5" fill="transparent" shape-rendering="crispEdges" stroke="#F2F0F9" stroke-width="1" stroke-linecap="square"></line><svg x="-30" y="0" font-size="11" style="overflow:visible"><text transform="" x="-8" y="77.5" fill="#1B2030" font-size="11" text-anchor="start"><tspan x="-8" dy="0em">40%</tspan></text></svg></g><g class="visx-group visx-axis-tick" transform="translate(0, 0)"><line class="visx-line" x1="0" y1="38.75" x2="-8" y2="38.75" fill="transparent" shape-rendering="crispEdges" stroke="#F2F0F9" stroke-width="1" stroke-linecap="square"></line><svg x="-30" y="0" font-size="11" style="overflow:visible"><text transform="" x="-8" y="38.75" fill="#1B2030" font-size="11" text-anchor="start"><tspan x="-8" dy="0em">60%</tspan></text></svg></g><g class="visx-group visx-axis-tick" transform="translate(0, 0)"><line class="visx-line" x1="0" y1="0" x2="-8" y2="0" fill="transparent" shape-rendering="crispEdges" stroke="#F2F0F9" stroke-width="1" stroke-linecap="square"></line><svg x="-30" y="0" font-size="11" style="overflow:visible"><text transform="" x="-8" y="0" fill="#1B2030" font-size="11" text-anchor="start"><tspan x="-8" dy="0em">80%</tspan></text></svg></g><line class="visx-line visx-axis-line" x1="0" y1="155.5" x2="0" y2="0.5" fill="transparent" shape-rendering="crispEdges" stroke="#F2F0F9" stroke-width="1"></line></g><rect class="visx-bar" width="1425" height="155" fill="transparent"></rect><line class="visx-line" x1="1311" y1="58" x2="1311" y2="155" fill="transparent" shape-rendering="crispEdges" stroke="#CDC8E1" stroke-width="1" pointer-events="none" stroke-dasharray="5"></line><svg x="0" y="0" font-size="11px" style="overflow:visible"><text transform="" x="1311" y="50" font-size="11px" fill="#555069" stroke="#FFFFFF" stroke-width="1px" text-anchor="middle"><tspan x="1311" dy="0.355em">Optimal utilization 92%</tspan></text></svg><svg x="0" y="0" font-size="11px" style="overflow:visible"><text transform="" x="1311" y="50" font-size="11px" fill="#CDC8E1" text-anchor="middle"><tspan x="1311" dy="0.355em">Optimal utilization 92%</tspan></text></svg></g></svg>