<?xml version="1.0"?><svg xmlns="http://www.w3.org/2000/svg" xmlns:xlink= "http://www.w3.org/1999/xlink" style="background: white;" width="1500" height="300"> <g style="color: black; font-size: 13px; font-family: sans-serif; transform: translate(18px, 25px);"><g><circle r="3" cx="-6" cy="-5" style="fill: #1AD4B3" /><text>Borrow APR, variable</text></g><g style="transform: translateX(150px);"><circle r="3" cx="-6" cy="-5" style="fill: #101423" /><text>Borrow APR, stable</text></g></g><g class="visx-group" transform="translate(45, 50)"><g class="visx-group visx-rows" transform="translate(0, 0)"><line class="visx-line" x1="0" y1="155" x2="1425" y2="155" fill="transparent" shape-rendering="crispEdges" stroke="#F2F0F9" stroke-width="1" pointer-events="none"></line><line class="visx-line" x1="0" y1="103.33333333333334" x2="1425" y2="103.33333333333334" fill="transparent" shape-rendering="crispEdges" stroke="#F2F0F9" stroke-width="1" pointer-events="none"></line><line class="visx-line" x1="0" y1="51.66666666666667" x2="1425" y2="51.66666666666667" fill="transparent" shape-rendering="crispEdges" stroke="#F2F0F9" stroke-width="1" pointer-events="none"></line><line class="visx-line" x1="0" y1="0" x2="1425" y2="0" fill="transparent" shape-rendering="crispEdges" stroke="#F2F0F9" stroke-width="1" pointer-events="none"></line></g><path class="visx-linepath" d="M0,154.9999999999963C2.375,154.99938492063276,4.75,154.99876984126922,7.125,154.99815476190477C9.5,154.99753968254032,11.875,154.9969246031746,14.25,154.99630952380951C16.625,154.99569444444444,19,154.99507936507936,21.375,154.9944642857143C23.75,154.9938492063492,26.125,154.9932341269841,28.5,154.99261904761903C30.875,154.99200396825395,33.25,154.99138888888888,35.625,154.9907738095238C38,154.99015873015873,40.375,154.98954365079365,42.75,154.98892857142857C45.125,154.9883134920635,47.50000000000001,154.98769841269842,49.87500000000001,154.98708333333335C52.25000000000001,154.98646825396827,54.625,154.98585317460316,57,154.9852380952381C59.375,154.984623015873,61.75,154.98400793650794,64.125,154.98339285714286C66.5,154.98277777777778,68.875,154.9821626984127,71.25,154.98154761904763C73.625,154.98093253968256,76,154.98031746031745,78.375,154.97970238095238C80.75,154.9790873015873,83.125,154.97847222222222,85.5,154.97785714285715C87.875,154.97724206349207,90.25,154.97662698412697,92.625,154.9760119047619C95,154.9753968253968,97.37500000000001,154.97478174603174,99.75000000000001,154.97416666666666C102.12500000000001,154.97355158730159,104.5,154.9729365079365,106.875,154.97232142857143C109.25,154.97170634920636,111.625,154.97109126984128,114,154.9704761904762C116.375,154.96986111111113,118.75000000000001,154.96924603174602,121.12500000000001,154.96863095238095C123.50000000000001,154.96801587301587,125.875,154.9674007936508,128.25,154.96678571428572C130.625,154.96617063492064,133,154.96555555555557,135.375,154.9649404761905C137.75,154.96432539682542,140.125,154.9637103174603,142.5,154.96309523809524C144.875,154.96248015873016,147.25,154.96186507936508,149.625,154.96125C152,154.96063492063493,154.375,154.96001984126983,156.75,154.95940476190475C159.125,154.95878968253967,161.5,154.9581746031746,163.875,154.95755952380952C166.25,154.95694444444445,168.625,154.95632936507934,171,154.95571428571427C173.375,154.9550992063492,175.75,154.9544841269841,178.125,154.95386904761904C180.5,154.95325396825396,182.875,154.95263888888888,185.25,154.9520238095238C187.625,154.95140873015873,190,154.95079365079366,192.375,154.95017857142858C194.75,154.9495634920635,197.12500000000003,154.94894841269843,199.50000000000003,154.94833333333335C201.875,154.94771825396828,204.25,154.94710317460317,206.62499999999997,154.9464880952381C208.99999999999997,154.94587301587302,211.375,154.94525793650794,213.75,154.94464285714287C216.125,154.9440277777778,218.5,154.9434126984127,220.875,154.9427976190476C223.25,154.94218253968253,225.625,154.94156746031746,228,154.94095238095238C230.375,154.9403373015873,232.75,154.9397222222222,235.125,154.93910714285713C237.5,154.93849206349205,239.87500000000003,154.93787698412697,242.25000000000003,154.9372619047619C244.625,154.93664682539682,247,154.93603174603174,249.37499999999997,154.93541666666667C251.74999999999997,154.9348015873016,254.125,154.93418650793652,256.5,154.93357142857144C258.875,154.93295634920636,261.25,154.93234126984126,263.625,154.93172619047618C266,154.9311111111111,268.375,154.93049603174603,270.75,154.92988095238096C273.125,154.92926587301588,275.5,154.9286507936508,277.875,154.92803571428573C280.25,154.92742063492065,282.625,154.92680555555555,285,154.92619047619047C287.375,154.9255753968254,289.75,154.92496031746032,292.125,154.92434523809524C294.5,154.92373015873017,296.875,154.9231150793651,299.25,154.9225C301.625,154.92188492063494,304,154.92126984126983,306.375,154.92065476190476C308.75,154.92003968253968,311.125,154.9194246031746,313.5,154.91880952380953C315.875,154.91819444444445,318.25,154.91757936507935,320.625,154.91696428571427C323,154.9163492063492,325.375,154.91573412698412,327.75,154.91511904761904C330.125,154.91450396825397,332.5,154.9138888888889,334.875,154.91327380952382C337.25,154.91265873015874,339.625,154.91204365079366,342,154.9114285714286C344.375,154.9108134920635,346.75,154.9101984126984,349.125,154.90958333333333C351.5,154.90896825396825,353.875,154.90835317460318,356.25,154.9077380952381C358.625,154.90712301587303,361,154.90650793650795,363.375,154.90589285714287C365.75,154.9052777777778,368.125,154.9046626984127,370.5,154.90404761904762C372.875,154.90343253968254,375.25,154.90281746031746,377.625,154.9022023809524C380,154.9015873015873,382.375,154.9009722222222,384.75,154.90035714285713C387.125,154.89974206349206,389.50000000000006,154.89912698412698,391.87500000000006,154.8985119047619C394.25000000000006,154.89789682539683,396.62500000000006,154.89728174603172,399.00000000000006,154.89666666666665C401.375,154.89605158730157,403.75,154.8954365079365,406.12499999999994,154.89482142857142C408.49999999999994,154.89420634920634,410.87499999999994,154.89359126984127,413.24999999999994,154.8929761904762C415.62499999999994,154.89236111111111,418,154.89174603174604,420.375,154.89113095238096C422.75,154.8905158730159,425.125,154.8899007936508,427.5,154.88928571428573C429.875,154.88867063492066,432.25,154.88805555555555,434.625,154.88744047619048C437,154.8868253968254,439.375,154.88621031746032,441.75,154.88559523809525C444.125,154.88498015873017,446.5,154.88436507936507,448.875,154.88375C451.25,154.88313492063492,453.625,154.88251984126984,456,154.88190476190476C458.375,154.8812896825397,460.75,154.88067460317458,463.125,154.8800595238095C465.5,154.87944444444443,467.875,154.87882936507935,470.25,154.87821428571428C472.625,154.8775992063492,475.00000000000006,154.87698412698413,477.37500000000006,154.87636904761905C479.75000000000006,154.87575396825397,482.12500000000006,154.8751388888889,484.50000000000006,154.87452380952382C486.875,154.87390873015875,489.25,154.87329365079364,491.62499999999994,154.87267857142857C493.99999999999994,154.8720634920635,496.37499999999994,154.8720634920635,498.74999999999994,154.87083333333334C501.12499999999994,154.86960317460318,503.5,154.20844017094018,505.875,153.87724358974359C508.25,153.54604700854702,510.625,153.21485042735043,513,152.88365384615386C515.375,152.5524572649573,517.75,152.2212606837607,520.125,151.8900641025641C522.5,151.55886752136752,524.875,151.22767094017095,527.25,150.89647435897436C529.625,150.56527777777777,532,150.2340811965812,534.375,149.9028846153846C536.75,149.571688034188,539.125,149.24049145299148,541.5,148.90929487179488C543.875,148.5780982905983,546.25,148.24690170940173,548.625,147.91570512820513C551,147.58450854700854,553.375,147.25331196581197,555.75,146.92211538461538C558.125,146.5909188034188,560.5,146.2597222222222,562.875,145.92852564102563C565.25,145.59732905982906,567.625,145.26613247863247,570,144.9349358974359C572.375,144.60373931623934,574.75,144.27254273504275,577.125,143.94134615384615C579.5,143.61014957264956,581.875,143.278952991453,584.25,142.9477564102564C586.625,142.6165598290598,589,142.28536324786324,591.375,141.95416666666665C593.75,141.62297008547006,596.125,141.29177350427352,598.5,140.96057692307693C600.875,140.62938034188033,603.25,140.29818376068377,605.625,139.96698717948718C608,139.63579059829058,610.375,139.30459401709402,612.75,138.97339743589743C615.125,138.64220085470083,617.5,138.3110042735043,619.875,137.9798076923077C622.25,137.6486111111111,624.625,137.31741452991454,627,136.98621794871795C629.375,136.65502136752136,631.75,136.3238247863248,634.125,135.9926282051282C636.5,135.6614316239316,638.875,135.330235042735,641.25,134.99903846153845C643.625,134.66784188034188,646,134.3366452991453,648.375,134.00544871794872C650.75,133.67425213675216,653.125,133.34305555555557,655.5,133.01185897435897C657.875,132.68066239316238,660.25,132.3494658119658,662.625,132.01826923076922C665,131.68707264957263,667.375,131.35587606837606,669.75,131.02467948717947C672.125,130.69348290598288,674.5,130.36228632478634,676.875,130.03108974358975C679.25,129.69989316239315,681.625,129.36869658119656,684,129.0375C686.375,128.70630341880343,688.75,128.37510683760686,691.125,128.04391025641027C693.5,127.71271367521369,695.875,127.38151709401708,698.25,127.0503205128205C700.625,126.71912393162393,703,126.38792735042735,705.375,126.05673076923077C707.75,125.72553418803419,710.125,125.39433760683761,712.5,125.06314102564103C714.875,124.73194444444445,717.25,124.40074786324786,719.625,124.06955128205128C722,123.7383547008547,724.375,123.40715811965812,726.75,123.07596153846154C729.125,122.74476495726496,731.5,122.41356837606837,733.875,122.08237179487179C736.25,121.75117521367521,738.625,121.41997863247863,741,121.08878205128205C743.375,120.75758547008547,745.75,120.42638888888888,748.125,120.0951923076923C750.5,119.76399572649572,752.875,119.43279914529914,755.25,119.10160256410256C757.625,118.77040598290598,760,118.4392094017094,762.375,118.10801282051283C764.75,117.77681623931625,767.125,117.44561965811965,769.5,117.11442307692307C771.875,116.7832264957265,774.2500000000001,116.45202991452993,776.6250000000001,116.12083333333335C779.0000000000001,115.78963675213677,781.3750000000001,115.45844017094016,783.7500000000001,115.12724358974359C786.1250000000001,114.796047008547,788.5000000000001,114.46485042735043,790.8750000000001,114.13365384615385C793.2500000000001,113.80245726495727,795.6250000000001,113.47126068376069,798.0000000000001,113.1400641025641C800.375,112.80886752136752,802.75,112.47767094017094,805.1249999999999,112.14647435897436C807.4999999999999,111.81527777777777,809.8749999999999,111.48408119658119,812.2499999999999,111.15288461538461C814.6249999999999,110.82168803418803,816.9999999999999,110.49049145299145,819.3749999999999,110.15929487179487C821.7499999999999,109.82809829059829,824.1249999999999,109.49690170940171,826.4999999999999,109.16570512820513C828.8749999999999,108.83450854700855,831.25,108.50331196581199,833.625,108.1721153846154C836,107.84091880341882,838.375,107.50972222222221,840.75,107.17852564102563C843.125,106.84732905982905,845.5,106.51613247863247,847.875,106.18493589743589C850.25,105.85373931623931,852.625,105.52254273504273,855,105.19134615384615C857.375,104.86014957264958,859.75,104.528952991453,862.125,104.19775641025642C864.5,103.86655982905984,866.875,103.53536324786323,869.25,103.20416666666665C871.625,102.87297008547007,874,102.5417735042735,876.375,102.21057692307691C878.75,101.87938034188033,881.125,101.54818376068376,883.5,101.21698717948718C885.875,100.8857905982906,888.25,100.55459401709402,890.625,100.22339743589744C893,99.89220085470086,895.375,99.56100427350428,897.75,99.2298076923077C900.125,98.89861111111112,902.5,98.56741452991454,904.875,98.23621794871796C907.25,97.90502136752139,909.625,97.57382478632479,912,97.24262820512821C914.375,96.91143162393163,916.75,96.58023504273505,919.125,96.24903846153848C921.5,95.9178418803419,923.875,95.5866452991453,926.25,95.25544871794872C928.625,94.92425213675214,931,94.59305555555557,933.375,94.26185897435899C935.75,93.93066239316241,938.125,93.5994658119658,940.5,93.26826923076922C942.875,92.93707264957264,945.25,92.60587606837606,947.625,92.27467948717948C950,91.9434829059829,952.3750000000001,91.61228632478633,954.7500000000001,91.28108974358975C957.1250000000001,90.94989316239317,959.5000000000001,90.61869658119659,961.8750000000001,90.28750000000001C964.2500000000001,89.95630341880343,966.6250000000001,89.62510683760684,969.0000000000001,89.29391025641026C971.3750000000001,88.96271367521368,973.7500000000001,88.63151709401711,976.1250000000001,88.30032051282052C978.5,87.96912393162394,980.875,87.63792735042735,983.2499999999999,87.30673076923077C985.6249999999999,86.97553418803417,987.9999999999999,86.64433760683761,990.3749999999999,86.31314102564103C992.7499999999999,85.98194444444445,995.1249999999999,85.65074786324786,997.4999999999999,85.31955128205128C999.8749999999999,84.9883547008547,1002.2499999999999,84.65715811965812,1004.6249999999999,84.32596153846154C1006.9999999999999,83.99476495726496,1009.375,83.66356837606837,1011.75,83.33237179487179C1014.125,83.00117521367521,1016.5,82.66997863247863,1018.875,82.33878205128205C1021.25,82.00758547008547,1023.625,81.67638888888888,1026,81.3451923076923C1028.375,81.01399572649572,1030.75,80.68279914529914,1033.125,80.35160256410256C1035.5,80.02040598290598,1037.875,79.6892094017094,1040.25,79.35801282051283C1042.625,79.02681623931625,1045,78.69561965811965,1047.375,78.36442307692307C1049.75,78.0332264957265,1052.125,77.70202991452993,1054.5,77.37083333333335C1056.875,77.03963675213677,1059.25,76.70844017094016,1061.625,76.37724358974359C1064,76.046047008547,1066.375,75.71485042735043,1068.75,75.38365384615385C1071.125,75.05245726495727,1073.5,74.72126068376069,1075.875,74.39006410256411C1078.25,74.05886752136753,1080.625,73.72767094017095,1083,73.39647435897437C1085.375,73.0652777777778,1087.75,72.73408119658123,1090.125,72.40288461538464C1092.5,72.07168803418804,1094.875,71.74049145299144,1097.25,71.40929487179486C1099.625,71.07809829059828,1102,70.74690170940171,1104.375,70.41570512820513C1106.75,70.08450854700855,1109.125,69.75331196581196,1111.5,69.42211538461538C1113.875,69.0909188034188,1116.25,68.75972222222224,1118.625,68.42852564102566C1121,68.09732905982908,1123.375,67.76613247863246,1125.75,67.43493589743588C1128.125,67.1037393162393,1130.5,66.77254273504273,1132.875,66.44134615384615C1135.25,66.11014957264958,1137.625,65.77895299145298,1140,65.4477564102564C1142.375,65.11655982905982,1144.75,64.78536324786326,1147.125,64.45416666666668C1149.5,64.1229700854701,1151.875,63.79177350427351,1154.25,63.46057692307692C1156.625,63.129380341880335,1159,62.798183760683756,1161.375,62.46698717948718C1163.75,62.1357905982906,1166.125,61.80459401709402,1168.5,61.47339743589744C1170.875,61.14220085470086,1173.25,60.81100427350428,1175.625,60.479807692307695C1178,60.14861111111111,1180.375,59.81741452991453,1182.75,59.48621794871794C1185.125,59.15502136752136,1187.5,58.82382478632478,1189.875,58.4926282051282C1192.25,58.16143162393162,1194.625,57.83023504273504,1197,57.49903846153846C1199.375,57.16784188034188,1201.75,56.8366452991453,1204.125,56.50544871794872C1206.5,56.17425213675213,1208.875,55.843055555555544,1211.25,55.511858974358965C1213.625,55.180662393162386,1216,54.84946581196582,1218.375,54.51826923076924C1220.75,54.18707264957266,1223.125,53.85587606837606,1225.5,53.52467948717948C1227.875,53.193482905982904,1230.25,52.86228632478634,1232.625,52.53108974358976C1235,52.19989316239318,1237.375,51.86869658119657,1239.75,51.53749999999999C1242.125,51.2063034188034,1244.5,50.87510683760684,1246.875,50.543910256410264C1249.25,50.212713675213685,1251.625,49.881517094017084,1254,49.550320512820505C1256.375,49.219123931623926,1258.75,48.88792735042736,1261.125,48.55673076923078C1263.5,48.2255341880342,1265.875,47.894337606837595,1268.25,47.56314102564101C1270.625,47.23194444444442,1273,46.900747863247865,1275.375,46.569551282051286C1277.75,46.23835470085471,1280.125,45.90715811965813,1282.5,45.57596153846155C1284.875,45.24476495726497,1287.25,44.91356837606839,1289.625,44.582371794871804C1292,44.25117521367522,1294.375,43.91997863247863,1296.75,43.588782051282045C1299.125,43.25758547008546,1301.5,42.92638888888889,1303.875,42.59519230769231C1306.25,42.26399572649573,1308.625,41.93279914529915,1311,41.60160256410257C1313.375,41.27040598290599,1315.75,40.93920940170941,1318.125,40.608012820512826C1320.5,40.27681623931624,1322.875,39.945619658119654,1325.25,39.61442307692307C1327.625,39.28322649572648,1330,38.95202991452991,1332.375,38.62083333333333C1334.75,38.28963675213675,1337.125,37.95844017094017,1339.5,37.62724358974359C1341.875,37.29604700854701,1344.25,36.96485042735043,1346.625,36.63365384615385C1349,36.30245726495727,1351.375,35.971260683760676,1353.75,35.6400641025641C1356.125,35.30886752136752,1358.5,34.97767094017095,1360.875,34.64647435897437C1363.25,34.315277777777794,1365.625,33.984081196581194,1368,33.652884615384615C1370.375,33.321688034188035,1372.75,32.99049145299148,1375.125,32.65929487179489C1377.5,32.328098290598305,1379.875,31.9969017094017,1382.25,31.665705128205115C1384.625,31.33450854700853,1387,31.003311965811953,1389.375,30.672115384615374C1391.75,30.340918803418795,1394.125,30.009722222222216,1396.5,29.678525641025637C1398.875,29.347329059829057,1401.25,29.016132478632475,1403.625,28.684935897435896C1406,28.353739316239317,1408.375,28.022542735042737,1410.75,27.691346153846155C1413.125,27.360149572649572,1415.5,27.02895299145298,1417.875,26.6977564102564C1420.25,26.36655982905982,1422.625,26.03536324786325,1425,25.704166666666676" fill="transparent" stroke-linecap="round" stroke="#1AD4B3" stroke-width="2"></path><g class="visx-group visx-axis visx-axis-bottom" transform="translate(0, 155)"><g class="visx-group visx-axis-tick" transform="translate(0, 0)"><line class="visx-line" x1="0" y1="0" x2="0" y2="8" fill="transparent" shape-rendering="crispEdges" stroke="#F2F0F9" stroke-width="1" stroke-linecap="square"></line><svg x="0" y="0" font-size="11" style="overflow:visible"><text transform="" x="0" y="19" fill="#1B2030" font-size="11" text-anchor="middle"><tspan x="0" dy="0em">0%</tspan></text></svg></g><g class="visx-group visx-axis-tick" transform="translate(0, 0)"><line class="visx-line" x1="356.25" y1="0" x2="356.25" y2="8" fill="transparent" shape-rendering="crispEdges" stroke="#F2F0F9" stroke-width="1" stroke-linecap="square"></line><svg x="0" y="0" font-size="11" style="overflow:visible"><text transform="" x="356.25" y="19" fill="#1B2030" font-size="11" text-anchor="middle"><tspan x="356.25" dy="0em">25%</tspan></text></svg></g><g class="visx-group visx-axis-tick" transform="translate(0, 0)"><line class="visx-line" x1="712.5" y1="0" x2="712.5" y2="8" fill="transparent" shape-rendering="crispEdges" stroke="#F2F0F9" stroke-width="1" stroke-linecap="square"></line><svg x="0" y="0" font-size="11" style="overflow:visible"><text transform="" x="712.5" y="19" fill="#1B2030" font-size="11" text-anchor="middle"><tspan x="712.5" dy="0em">50%</tspan></text></svg></g><g class="visx-group visx-axis-tick" transform="translate(0, 0)"><line class="visx-line" x1="1068.75" y1="0" x2="1068.75" y2="8" fill="transparent" shape-rendering="crispEdges" stroke="#F2F0F9" stroke-width="1" stroke-linecap="square"></line><svg x="0" y="0" font-size="11" style="overflow:visible"><text transform="" x="1068.75" y="19" fill="#1B2030" font-size="11" text-anchor="middle"><tspan x="1068.75" dy="0em">75%</tspan></text></svg></g><g class="visx-group visx-axis-tick" transform="translate(0, 0)"><line class="visx-line" x1="1425" y1="0" x2="1425" y2="8" fill="transparent" shape-rendering="crispEdges" stroke="#F2F0F9" stroke-width="1" stroke-linecap="square"></line><svg x="0" y="0" font-size="11" style="overflow:visible"><text transform="" x="1425" y="19" fill="#1B2030" font-size="11" text-anchor="middle"><tspan x="1425" dy="0em">100%</tspan></text></svg></g></g><g class="visx-group visx-axis visx-axis-left" transform="translate(0, 0)"><g class="visx-group visx-axis-tick" transform="translate(0, 0)"><line class="visx-line" x1="0" y1="155" x2="-8" y2="155" fill="transparent" shape-rendering="crispEdges" stroke="#F2F0F9" stroke-width="1" stroke-linecap="square"></line><svg x="-30" y="0" font-size="11" style="overflow:visible"><text transform="" x="-8" y="155" fill="#1B2030" font-size="11" text-anchor="start"><tspan x="-8" dy="0em">0%</tspan></text></svg></g><g class="visx-group visx-axis-tick" transform="translate(0, 0)"><line class="visx-line" x1="0" y1="103.33333333333334" x2="-8" y2="103.33333333333334" fill="transparent" shape-rendering="crispEdges" stroke="#F2F0F9" stroke-width="1" stroke-linecap="square"></line><svg x="-30" y="0" font-size="11" style="overflow:visible"><text transform="" x="-8" y="103.33333333333334" fill="#1B2030" font-size="11" text-anchor="start"><tspan x="-8" dy="0em">20%</tspan></text></svg></g><g class="visx-group visx-axis-tick" transform="translate(0, 0)"><line class="visx-line" x1="0" y1="51.66666666666667" x2="-8" y2="51.66666666666667" fill="transparent" shape-rendering="crispEdges" stroke="#F2F0F9" stroke-width="1" stroke-linecap="square"></line><svg x="-30" y="0" font-size="11" style="overflow:visible"><text transform="" x="-8" y="51.66666666666667" fill="#1B2030" font-size="11" text-anchor="start"><tspan x="-8" dy="0em">40%</tspan></text></svg></g><g class="visx-group visx-axis-tick" transform="translate(0, 0)"><line class="visx-line" x1="0" y1="0" x2="-8" y2="0" fill="transparent" shape-rendering="crispEdges" stroke="#F2F0F9" stroke-width="1" stroke-linecap="square"></line><svg x="-30" y="0" font-size="11" style="overflow:visible"><text transform="" x="-8" y="0" fill="#1B2030" font-size="11" text-anchor="start"><tspan x="-8" dy="0em">60%</tspan></text></svg></g><line class="visx-line visx-axis-line" x1="0" y1="155.5" x2="0" y2="0.5" fill="transparent" shape-rendering="crispEdges" stroke="#F2F0F9" stroke-width="1"></line></g><rect class="visx-bar" width="1425" height="155" fill="transparent"></rect><line class="visx-line" x1="498.74999999999994" y1="58" x2="498.74999999999994" y2="155" fill="transparent" shape-rendering="crispEdges" stroke="#CDC8E1" stroke-width="1" pointer-events="none" stroke-dasharray="5"></line><svg x="0" y="0" font-size="11px" style="overflow:visible"><text transform="" x="498.74999999999994" y="50" font-size="11px" fill="#555069" stroke="#FFFFFF" stroke-width="1px" text-anchor="middle"><tspan x="498.74999999999994" dy="0.355em">Optimal utilization 35%</tspan></text></svg><svg x="0" y="0" font-size="11px" style="overflow:visible"><text transform="" x="498.74999999999994" y="50" font-size="11px" fill="#CDC8E1" text-anchor="middle"><tspan x="498.74999999999994" dy="0.355em">Optimal utilization 35%</tspan></text></svg></g></svg>