<?xml version="1.0"?><svg xmlns="http://www.w3.org/2000/svg" xmlns:xlink= "http://www.w3.org/1999/xlink" style="background: white;" width="1500" height="300"> <g style="color: black; font-size: 13px; font-family: sans-serif; transform: translate(18px, 25px);"><g><circle r="3" cx="-6" cy="-5" style="fill: #1AD4B3" /><text>Borrow APR, variable</text></g><g style="transform: translateX(150px);"><circle r="3" cx="-6" cy="-5" style="fill: #101423" /><text>Borrow APR, stable</text></g></g><g class="visx-group" transform="translate(45, 50)"><g class="visx-group visx-rows" transform="translate(0, 0)"><line class="visx-line" x1="0" y1="155" x2="1425" y2="155" fill="transparent" shape-rendering="crispEdges" stroke="#F2F0F9" stroke-width="1" pointer-events="none"></line><line class="visx-line" x1="0" y1="99.64285714285714" x2="1425" y2="99.64285714285714" fill="transparent" shape-rendering="crispEdges" stroke="#F2F0F9" stroke-width="1" pointer-events="none"></line><line class="visx-line" x1="0" y1="44.285714285714285" x2="1425" y2="44.285714285714285" fill="transparent" shape-rendering="crispEdges" stroke="#F2F0F9" stroke-width="1" pointer-events="none"></line></g><path class="visx-linepath" d="M0,154.99999999987224C2.375,154.97870879113427,4.75,154.9574175823963,7.125,154.93612637362637C9.5,154.91483516485644,11.875,154.89354395604397,14.25,154.87225274725276C16.625,154.85096153846155,19,154.82967032967034,21.375,154.80837912087912C23.75,154.7870879120879,26.125,154.7657967032967,28.5,154.7445054945055C30.875,154.72321428571428,33.25,154.7019230769231,35.625,154.68063186813188C38,154.65934065934067,40.375,154.63804945054946,42.75,154.61675824175825C45.125,154.59546703296704,47.50000000000001,154.57417582417582,49.87500000000001,154.5528846153846C52.25000000000001,154.5315934065934,54.625,154.5103021978022,57,154.48901098901098C59.375,154.46771978021977,61.75,154.44642857142858,64.125,154.42513736263737C66.5,154.40384615384616,68.875,154.38255494505495,71.25,154.36126373626374C73.625,154.33997252747253,76,154.3186813186813,78.375,154.2973901098901C80.75,154.2760989010989,83.125,154.2548076923077,85.5,154.2335164835165C87.875,154.21222527472528,90.25,154.19093406593407,92.625,154.16964285714286C95,154.14835164835165,97.37500000000001,154.12706043956044,99.75000000000001,154.10576923076923C102.12500000000001,154.08447802197801,104.5,154.06318681318683,106.875,154.04189560439562C109.25,154.0206043956044,111.625,153.9993131868132,114,153.97802197802199C116.375,153.95673076923077,118.75000000000001,153.93543956043956,121.12500000000001,153.91414835164835C123.50000000000001,153.89285714285714,125.875,153.87156593406593,128.25,153.85027472527472C130.625,153.8289835164835,133,153.80769230769232,135.375,153.7864010989011C137.75,153.7651098901099,140.125,153.7438186813187,142.5,153.72252747252747C144.875,153.70123626373626,147.25,153.67994505494505,149.625,153.65865384615384C152,153.63736263736263,154.375,153.61607142857144,156.75,153.59478021978023C159.125,153.57348901098902,161.5,153.5521978021978,163.875,153.5309065934066C166.25,153.5096153846154,168.625,153.48832417582418,171,153.46703296703296C173.375,153.44574175824175,175.75,153.42445054945057,178.125,153.40315934065936C180.5,153.38186813186815,182.875,153.36057692307693,185.25,153.33928571428572C187.625,153.3179945054945,190,153.2967032967033,192.375,153.2754120879121C194.75,153.25412087912088,197.12500000000003,153.2328296703297,199.50000000000003,153.21153846153848C201.875,153.19024725274727,204.25,153.16895604395606,206.62499999999997,153.14766483516485C208.99999999999997,153.12637362637363,211.375,153.10508241758242,213.75,153.0837912087912C216.125,153.0625,218.5,153.0412087912088,220.875,153.01991758241758C223.25,152.99862637362637,225.625,152.97733516483518,228,152.95604395604397C230.375,152.93475274725276,232.75,152.91346153846155,235.125,152.89217032967034C237.5,152.87087912087912,239.87500000000003,152.8495879120879,242.25000000000003,152.8282967032967C244.625,152.8070054945055,247,152.7857142857143,249.37499999999997,152.7644230769231C251.74999999999997,152.74313186813188,254.125,152.72184065934067,256.5,152.70054945054946C258.875,152.67925824175825,261.25,152.65796703296704,263.625,152.63667582417582C266,152.6153846153846,268.375,152.59409340659343,270.75,152.57280219780222C273.125,152.551510989011,275.5,152.5302197802198,277.875,152.50892857142858C280.25,152.48763736263737,282.625,152.46634615384616,285,152.44505494505495C287.375,152.42376373626374,289.75,152.40247252747253,292.125,152.3811813186813C294.5,152.3598901098901,296.875,152.3385989010989,299.25,152.31730769230768C301.625,152.29601648351647,304,152.27472527472526,306.375,152.25343406593404C308.75,152.23214285714283,311.125,152.21085164835165,313.5,152.18956043956044C315.875,152.16826923076923,318.25,152.14697802197801,320.625,152.1256868131868C323,152.1043956043956,325.375,152.08310439560438,327.75,152.06181318681317C330.125,152.04052197802196,332.5,152.01923076923077,334.875,151.99793956043956C337.25,151.97664835164835,339.625,151.95535714285714,342,151.93406593406593C344.375,151.91277472527472,346.75,151.8914835164835,349.125,151.8701923076923C351.5,151.84890109890108,353.875,151.8276098901099,356.25,151.8063186813187C358.625,151.78502747252747,361,151.76373626373626,363.375,151.74244505494505C365.75,151.72115384615384,368.125,151.69986263736263,370.5,151.67857142857142C372.875,151.6572802197802,375.25,151.63598901098902,377.625,151.6146978021978C380,151.5934065934066,382.375,151.5721153846154,384.75,151.55082417582418C387.125,151.52953296703296,389.50000000000006,151.50824175824175,391.87500000000006,151.48695054945054C394.25000000000006,151.46565934065933,396.62500000000006,151.44436813186812,399.00000000000006,151.4230769230769C401.375,151.4017857142857,403.75,151.3804945054945,406.12499999999994,151.3592032967033C408.49999999999994,151.3379120879121,410.87499999999994,151.31662087912088,413.24999999999994,151.29532967032966C415.62499999999994,151.27403846153845,418,151.25274725274724,420.375,151.23145604395603C422.75,151.21016483516482,425.125,151.18887362637363,427.5,151.16758241758242C429.875,151.1462912087912,432.25,151.125,434.625,151.1037087912088C437,151.08241758241758,439.375,151.06112637362637,441.75,151.03983516483515C444.125,151.01854395604394,446.5,150.99725274725276,448.875,150.97596153846155C451.25,150.95467032967034,453.625,150.93337912087912,456,150.9120879120879C458.375,150.8907967032967,460.75,150.8695054945055,463.125,150.84821428571428C465.5,150.82692307692307,467.875,150.80563186813188,470.25,150.78434065934067C472.625,150.76304945054946,475.00000000000006,150.74175824175825,477.37500000000006,150.72046703296704C479.75000000000006,150.69917582417582,482.12500000000006,150.6778846153846,484.50000000000006,150.6565934065934C486.875,150.6353021978022,489.25,150.61401098901098,491.62499999999994,150.59271978021977C493.99999999999994,150.57142857142856,496.37499999999994,150.55013736263737,498.74999999999994,150.52884615384616C501.12499999999994,150.50755494505495,503.5,150.48626373626374,505.875,150.46497252747253C508.25,150.4436813186813,510.625,150.4223901098901,513,150.4010989010989C515.375,150.37980769230768,517.75,150.3585164835165,520.125,150.33722527472528C522.5,150.31593406593407,524.875,150.29464285714286,527.25,150.27335164835165C529.625,150.25206043956044,532,150.23076923076923,534.375,150.20947802197801C536.75,150.1881868131868,539.125,150.16689560439562,541.5,150.1456043956044C543.875,150.1243131868132,546.25,150.10302197802199,548.625,150.08173076923077C551,150.06043956043956,553.375,150.03914835164835,555.75,150.01785714285714C558.125,149.99656593406593,560.5,149.97527472527472,562.875,149.9539835164835C565.25,149.9326923076923,567.625,149.9114010989011,570,149.8901098901099C572.375,149.8688186813187,574.75,149.84752747252747,577.125,149.82623626373626C579.5,149.80494505494505,581.875,149.78365384615384,584.25,149.76236263736263C586.625,149.74107142857142,589,149.71978021978023,591.375,149.69848901098902C593.75,149.6771978021978,596.125,149.6559065934066,598.5,149.6346153846154C600.875,149.61332417582418,603.25,149.59203296703296,605.625,149.57074175824175C608,149.54945054945054,610.375,149.52815934065936,612.75,149.50686813186815C615.125,149.48557692307693,617.5,149.46428571428572,619.875,149.4429945054945C622.25,149.4217032967033,624.625,149.4004120879121,627,149.37912087912088C629.375,149.35782967032966,631.75,149.33653846153848,634.125,149.31524725274727C636.5,149.29395604395606,638.875,149.27266483516485,641.25,149.25137362637363C643.625,149.23008241758242,646,149.2087912087912,648.375,149.1875C650.75,149.1662087912088,653.125,149.14491758241758,655.5,149.12362637362637C657.875,149.10233516483515,660.25,149.08104395604397,662.625,149.05975274725276C665,149.03846153846155,667.375,149.01717032967034,669.75,148.99587912087912C672.125,148.9745879120879,674.5,148.9532967032967,676.875,148.9320054945055C679.25,148.91071428571428,681.625,148.8894230769231,684,148.86813186813188C686.375,148.84684065934067,688.75,148.82554945054946,691.125,148.80425824175825C693.5,148.78296703296704,695.875,148.76167582417582,698.25,148.7403846153846C700.625,148.7190934065934,703,148.69780219780222,705.375,148.676510989011C707.75,148.6552197802198,710.125,148.63392857142858,712.5,148.61263736263737C714.875,148.59134615384616,717.25,148.57005494505495,719.625,148.54876373626374C722,148.52747252747253,724.375,148.5061813186813,726.75,148.4848901098901C729.125,148.4635989010989,731.5,148.4423076923077,733.875,148.4210164835165C736.25,148.39972527472528,738.625,148.39972527472528,741,148.35714285714286C743.375,148.31456043956044,745.75,147.44990079365078,748.125,146.99627976190476C750.5,146.54265873015873,752.875,146.08903769841268,755.25,145.63541666666666C757.625,145.18179563492063,760,144.72817460317458,762.375,144.27455357142856C764.75,143.82093253968253,767.125,143.3673115079365,769.5,142.91369047619048C771.875,142.46006944444446,774.2500000000001,142.0064484126984,776.6250000000001,141.55282738095238C779.0000000000001,141.09920634920636,781.3750000000001,140.6455853174603,783.7500000000001,140.19196428571428C786.1250000000001,139.73834325396825,788.5000000000001,139.2847222222222,790.8750000000001,138.83110119047618C793.2500000000001,138.37748015873015,795.6250000000001,137.92385912698413,798.0000000000001,137.4702380952381C800.375,137.01661706349208,802.75,136.56299603174602,805.1249999999999,136.109375C807.4999999999999,135.65575396825395,809.8749999999999,135.20213293650792,812.2499999999999,134.7485119047619C814.6249999999999,134.29489087301587,816.9999999999999,133.84126984126982,819.3749999999999,133.3876488095238C821.7499999999999,132.93402777777777,824.1249999999999,132.48040674603175,826.4999999999999,132.02678571428572C828.8749999999999,131.5731646825397,831.25,131.11954365079364,833.625,130.66592261904762C836,130.2123015873016,838.375,129.75868055555554,840.75,129.30505952380952C843.125,128.8514384920635,845.5,128.39781746031747,847.875,127.94419642857143C850.25,127.49057539682539,852.625,127.03695436507937,855,126.58333333333333C857.375,126.12971230158729,859.75,125.67609126984127,862.125,125.22247023809523C864.5,124.76884920634919,866.875,124.31522817460316,869.25,123.86160714285714C871.625,123.40798611111111,874,122.95436507936509,876.375,122.50074404761905C878.75,122.04712301587301,881.125,121.59350198412699,883.5,121.13988095238095C885.875,120.68625992063491,888.25,120.23263888888889,890.625,119.77901785714285C893,119.32539682539681,895.375,118.87177579365078,897.75,118.41815476190476C900.125,117.96453373015873,902.5,117.51091269841268,904.875,117.05729166666666C907.25,116.60367063492063,909.625,116.15004960317461,912,115.69642857142857C914.375,115.24280753968253,916.75,114.7891865079365,919.125,114.33556547619047C921.5,113.88194444444443,923.875,113.4283234126984,926.25,112.97470238095238C928.625,112.52108134920636,931,112.06746031746033,933.375,111.61383928571429C935.75,111.16021825396825,938.125,110.70659722222223,940.5,110.25297619047619C942.875,109.79935515873015,945.25,109.34573412698413,947.625,108.8921130952381C950,108.43849206349206,952.3750000000001,107.98487103174604,954.7500000000001,107.53125C957.1250000000001,107.07762896825398,959.5000000000001,106.62400793650792,961.8750000000001,106.1703869047619C964.2500000000001,105.71676587301587,966.6250000000001,105.26314484126983,969.0000000000001,104.80952380952381C971.3750000000001,104.35590277777779,973.7500000000001,103.90228174603176,976.1250000000001,103.44866071428572C978.5,102.9950396825397,980.875,102.54141865079364,983.2499999999999,102.08779761904762C985.6249999999999,101.63417658730158,987.9999999999999,101.18055555555554,990.3749999999999,100.72693452380952C992.7499999999999,100.2733134920635,995.1249999999999,99.81969246031746,997.4999999999999,99.36607142857143C999.8749999999999,98.9124503968254,1002.2499999999999,98.45882936507937,1004.6249999999999,98.00520833333334C1006.9999999999999,97.5515873015873,1009.375,97.09796626984128,1011.75,96.64434523809524C1014.125,96.19072420634922,1016.5,95.73710317460316,1018.875,95.28348214285714C1021.25,94.82986111111111,1023.625,94.3762400793651,1026,93.92261904761907C1028.375,93.46899801587303,1030.75,93.01537698412697,1033.125,92.56175595238093C1035.5,92.1081349206349,1037.875,91.65451388888889,1040.25,91.20089285714286C1042.625,90.74727182539684,1045,90.2936507936508,1047.375,89.84002976190476C1049.75,89.38640873015872,1052.125,88.93278769841268,1054.5,88.47916666666666C1056.875,88.02554563492063,1059.25,87.57192460317461,1061.625,87.11830357142858C1064,86.66468253968256,1066.375,86.21106150793652,1068.75,85.75744047619048C1071.125,85.30381944444444,1073.5,84.85019841269842,1075.875,84.39657738095238C1078.25,83.94295634920634,1080.625,83.4893353174603,1083,83.03571428571428C1085.375,82.58209325396825,1087.75,82.12847222222223,1090.125,81.6748511904762C1092.5,81.22123015873018,1094.875,80.76760912698414,1097.25,80.3139880952381C1099.625,79.86036706349206,1102,79.40674603174604,1104.375,78.953125C1106.75,78.49950396825396,1109.125,78.04588293650792,1111.5,77.5922619047619C1113.875,77.13864087301587,1116.25,76.68501984126985,1118.625,76.23139880952382C1121,75.7777777777778,1123.375,75.32415674603175,1125.75,74.87053571428571C1128.125,74.41691468253967,1130.5,73.96329365079363,1132.875,73.5096726190476C1135.25,73.05605158730158,1137.625,72.60243055555556,1140,72.14880952380953C1142.375,71.69518849206351,1144.75,71.24156746031747,1147.125,70.78794642857143C1149.5,70.33432539682539,1151.875,69.88070436507937,1154.25,69.42708333333333C1156.625,68.97346230158729,1159,68.51984126984127,1161.375,68.06622023809524C1163.75,67.61259920634922,1166.125,67.15897817460319,1168.5,66.70535714285715C1170.875,66.25173611111111,1173.25,65.79811507936509,1175.625,65.34449404761905C1178,64.89087301587301,1180.375,64.43725198412699,1182.75,63.98363095238095C1185.125,63.53000992063492,1187.5,63.07638888888888,1189.875,62.62276785714285C1192.25,62.169146825396815,1194.625,61.715525793650784,1197,61.26190476190475C1199.375,60.80828373015872,1201.75,60.35466269841268,1204.125,59.90104166666665C1206.5,59.44742063492062,1208.875,58.9937996031746,1211.25,58.54017857142857C1213.625,58.08655753968254,1216,57.6329365079365,1218.375,57.17931547619047C1220.75,56.725694444444436,1223.125,56.272073412698404,1225.5,55.81845238095237C1227.875,55.36483134920634,1230.25,54.91121031746032,1232.625,54.45758928571429C1235,54.00396825396826,1237.375,53.55034722222222,1239.75,53.09672619047619C1242.125,52.64310515873016,1244.5,52.18948412698413,1246.875,51.735863095238095C1249.25,51.28224206349206,1251.625,50.828621031746025,1254,50.37499999999999C1256.375,49.92137896825396,1258.75,49.46775793650792,1261.125,49.01413690476189C1263.5,48.56051587301586,1265.875,48.10689484126984,1268.25,47.65327380952381C1270.625,47.19965277777778,1273,46.74603174603175,1275.375,46.292410714285715C1277.75,45.838789682539684,1280.125,45.385168650793666,1282.5,44.931547619047635C1284.875,44.4779265873016,1287.25,44.024305555555564,1289.625,43.57068452380953C1292,43.1170634920635,1294.375,42.66344246031746,1296.75,42.20982142857143C1299.125,41.7562003968254,1301.5,41.30257936507938,1303.875,40.84895833333335C1306.25,40.39533730158732,1308.625,39.941716269841265,1311,39.488095238095234C1313.375,39.0344742063492,1315.75,38.58085317460317,1318.125,38.12723214285714C1320.5,37.67361111111111,1322.875,37.21999007936509,1325.25,36.76636904761906C1327.625,36.31274801587303,1330,35.85912698412697,1332.375,35.40550595238094C1334.75,34.95188492063491,1337.125,34.498263888888886,1339.5,34.044642857142854C1341.875,33.59102182539682,1344.25,33.137400793650805,1346.625,32.68377976190477C1349,32.23015873015874,1351.375,31.77653769841269,1353.75,31.322916666666657C1356.125,30.869295634920626,1358.5,30.415674603174605,1360.875,29.962053571428577C1363.25,29.50843253968255,1365.625,29.054811507936527,1368,28.601190476190496C1370.375,28.147569444444464,1372.75,27.693948412698415,1375.125,27.24032738095238C1377.5,26.786706349206344,1379.875,26.333085317460313,1382.25,25.87946428571428C1384.625,25.42584325396825,1387,24.97222222222223,1389.375,24.518601190476197C1391.75,24.064980158730165,1394.125,23.611359126984112,1396.5,23.15773809523808C1398.875,22.70411706349205,1401.25,22.250496031746028,1403.625,21.796875C1406,21.343253968253972,1408.375,20.88963293650795,1410.75,20.43601190476192C1413.125,19.982390873015888,1415.5,19.528769841269835,1417.875,19.075148809523803C1420.25,18.62152777777777,1422.625,18.167906746031743,1425,17.71428571428572" fill="transparent" stroke-linecap="round" stroke="#1AD4B3" stroke-width="2"></path><g class="visx-group visx-axis visx-axis-bottom" transform="translate(0, 155)"><g class="visx-group visx-axis-tick" transform="translate(0, 0)"><line class="visx-line" x1="0" y1="0" x2="0" y2="8" fill="transparent" shape-rendering="crispEdges" stroke="#F2F0F9" stroke-width="1" stroke-linecap="square"></line><svg x="0" y="0" font-size="11" style="overflow:visible"><text transform="" x="0" y="19" fill="#1B2030" font-size="11" text-anchor="middle"><tspan x="0" dy="0em">0%</tspan></text></svg></g><g class="visx-group visx-axis-tick" transform="translate(0, 0)"><line class="visx-line" x1="356.25" y1="0" x2="356.25" y2="8" fill="transparent" shape-rendering="crispEdges" stroke="#F2F0F9" stroke-width="1" stroke-linecap="square"></line><svg x="0" y="0" font-size="11" style="overflow:visible"><text transform="" x="356.25" y="19" fill="#1B2030" font-size="11" text-anchor="middle"><tspan x="356.25" dy="0em">25%</tspan></text></svg></g><g class="visx-group visx-axis-tick" transform="translate(0, 0)"><line class="visx-line" x1="712.5" y1="0" x2="712.5" y2="8" fill="transparent" shape-rendering="crispEdges" stroke="#F2F0F9" stroke-width="1" stroke-linecap="square"></line><svg x="0" y="0" font-size="11" style="overflow:visible"><text transform="" x="712.5" y="19" fill="#1B2030" font-size="11" text-anchor="middle"><tspan x="712.5" dy="0em">50%</tspan></text></svg></g><g class="visx-group visx-axis-tick" transform="translate(0, 0)"><line class="visx-line" x1="1068.75" y1="0" x2="1068.75" y2="8" fill="transparent" shape-rendering="crispEdges" stroke="#F2F0F9" stroke-width="1" stroke-linecap="square"></line><svg x="0" y="0" font-size="11" style="overflow:visible"><text transform="" x="1068.75" y="19" fill="#1B2030" font-size="11" text-anchor="middle"><tspan x="1068.75" dy="0em">75%</tspan></text></svg></g><g class="visx-group visx-axis-tick" transform="translate(0, 0)"><line class="visx-line" x1="1425" y1="0" x2="1425" y2="8" fill="transparent" shape-rendering="crispEdges" stroke="#F2F0F9" stroke-width="1" stroke-linecap="square"></line><svg x="0" y="0" font-size="11" style="overflow:visible"><text transform="" x="1425" y="19" fill="#1B2030" font-size="11" text-anchor="middle"><tspan x="1425" dy="0em">100%</tspan></text></svg></g></g><g class="visx-group visx-axis visx-axis-left" transform="translate(0, 0)"><g class="visx-group visx-axis-tick" transform="translate(0, 0)"><line class="visx-line" x1="0" y1="155" x2="-8" y2="155" fill="transparent" shape-rendering="crispEdges" stroke="#F2F0F9" stroke-width="1" stroke-linecap="square"></line><svg x="-30" y="0" font-size="11" style="overflow:visible"><text transform="" x="-8" y="155" fill="#1B2030" font-size="11" text-anchor="start"><tspan x="-8" dy="0em">0%</tspan></text></svg></g><g class="visx-group visx-axis-tick" transform="translate(0, 0)"><line class="visx-line" x1="0" y1="99.64285714285714" x2="-8" y2="99.64285714285714" fill="transparent" shape-rendering="crispEdges" stroke="#F2F0F9" stroke-width="1" stroke-linecap="square"></line><svg x="-30" y="0" font-size="11" style="overflow:visible"><text transform="" x="-8" y="99.64285714285714" fill="#1B2030" font-size="11" text-anchor="start"><tspan x="-8" dy="0em">100%</tspan></text></svg></g><g class="visx-group visx-axis-tick" transform="translate(0, 0)"><line class="visx-line" x1="0" y1="44.285714285714285" x2="-8" y2="44.285714285714285" fill="transparent" shape-rendering="crispEdges" stroke="#F2F0F9" stroke-width="1" stroke-linecap="square"></line><svg x="-30" y="0" font-size="11" style="overflow:visible"><text transform="" x="-8" y="44.285714285714285" fill="#1B2030" font-size="11" text-anchor="start"><tspan x="-8" dy="0em">200%</tspan></text></svg></g><line class="visx-line visx-axis-line" x1="0" y1="155.5" x2="0" y2="0.5" fill="transparent" shape-rendering="crispEdges" stroke="#F2F0F9" stroke-width="1"></line></g><rect class="visx-bar" width="1425" height="155" fill="transparent"></rect><line class="visx-line" x1="741" y1="58" x2="741" y2="155" fill="transparent" shape-rendering="crispEdges" stroke="#CDC8E1" stroke-width="1" pointer-events="none" stroke-dasharray="5"></line><svg x="0" y="0" font-size="11px" style="overflow:visible"><text transform="" x="741" y="50" font-size="11px" fill="#555069" stroke="#FFFFFF" stroke-width="1px" text-anchor="middle"><tspan x="741" dy="0.355em">uOptimal 52%</tspan></text></svg><svg x="0" y="0" font-size="11px" style="overflow:visible"><text transform="" x="741" y="50" font-size="11px" fill="#CDC8E1" text-anchor="middle"><tspan x="741" dy="0.355em">uOptimal 52%</tspan></text></svg></g></svg>