<?xml version="1.0"?><svg xmlns="http://www.w3.org/2000/svg" xmlns:xlink= "http://www.w3.org/1999/xlink" style="background: white;" width="1500" height="185"> <g style="color: black; font-size: 13px; font-family: sans-serif; transform: translate(18px, 25px);"><g><circle r="3" cx="-6" cy="-5" style="fill: #B6509E" /><text>Borrow APR, variable</text></g><g style="transform: translateX(150px);"><circle r="3" cx="-6" cy="-5" style="fill: rgb(231, 198, 223)" /><text>Borrow APR, stable</text></g><g style="transform: translateX(290px);"><circle r="3" cx="-6" cy="-5" style="fill: rgb(0, 98, 210)" /><text>Utilization Rate</text></g></g><g class="visx-group" transform="translate(40, 50)"><g class="visx-group visx-rows" transform="translate(0, 0)"><line class="visx-line" x1="0" y1="115" x2="1450" y2="115" fill="transparent" shape-rendering="crispEdges" stroke="#000" stroke-width="1" stroke-dasharray="3,3" pointer-events="none"></line><line class="visx-line" x1="0" y1="73.92857142857142" x2="1450" y2="73.92857142857142" fill="transparent" shape-rendering="crispEdges" stroke="#000" stroke-width="1" stroke-dasharray="3,3" pointer-events="none"></line><line class="visx-line" x1="0" y1="32.857142857142854" x2="1450" y2="32.857142857142854" fill="transparent" shape-rendering="crispEdges" stroke="#000" stroke-width="1" stroke-dasharray="3,3" pointer-events="none"></line></g><path class="visx-linepath" d="M0,110.89285714275604C2.4166666666666665,110.87600732594835,4.833333333333334,110.85915750914064,7.25,110.84230769230768C9.666666666666666,110.82545787547473,12.083333333333334,110.80860805860806,14.5,110.79175824175825C16.916666666666668,110.77490842490843,19.333333333333332,110.7580586080586,21.75,110.74120879120879C24.166666666666668,110.72435897435898,26.583333333333332,110.70750915750915,29,110.69065934065934C31.416666666666668,110.67380952380952,33.833333333333336,110.65695970695971,36.25,110.6401098901099C38.666666666666664,110.62326007326008,41.083333333333336,110.60641025641024,43.5,110.58956043956043C45.91666666666667,110.57271062271062,48.333333333333336,110.5558608058608,50.75000000000001,110.53901098901099C53.16666666666667,110.52216117216118,55.583333333333336,110.50531135531136,58,110.48846153846155C60.416666666666664,110.47161172161174,62.833333333333336,110.4547619047619,65.25,110.43791208791208C67.66666666666667,110.42106227106227,70.08333333333333,110.40421245421246,72.5,110.38736263736264C74.91666666666667,110.37051282051283,77.33333333333333,110.353663003663,79.75,110.33681318681319C82.16666666666667,110.31996336996338,84.58333333333333,110.30311355311355,87,110.28626373626373C89.41666666666667,110.26941391941392,91.83333333333333,110.2525641025641,94.25,110.23571428571428C96.66666666666667,110.21886446886447,99.08333333333334,110.20201465201465,101.50000000000001,110.18516483516484C103.91666666666667,110.16831501831503,106.33333333333334,110.1514652014652,108.75,110.13461538461539C111.16666666666667,110.11776556776557,113.58333333333333,110.10091575091575,116,110.08406593406593C118.41666666666667,110.06721611721612,120.83333333333334,110.05036630036629,123.25000000000001,110.03351648351648C125.66666666666667,110.01666666666667,128.08333333333334,109.99981684981684,130.5,109.98296703296703C132.91666666666666,109.96611721611721,135.33333333333334,109.9492673992674,137.75,109.93241758241759C140.16666666666666,109.91556776556777,142.58333333333334,109.89871794871794,145,109.88186813186813C147.41666666666666,109.86501831501832,149.83333333333334,109.84816849816849,152.25,109.83131868131868C154.66666666666666,109.81446886446886,157.08333333333334,109.79761904761905,159.5,109.78076923076924C161.91666666666666,109.76391941391942,164.33333333333334,109.74706959706958,166.75,109.73021978021977C169.16666666666666,109.71336996336996,171.58333333333334,109.69652014652014,174,109.67967032967033C176.41666666666666,109.66282051282052,178.83333333333334,109.64597069597069,181.25,109.62912087912088C183.66666666666666,109.61227106227106,186.08333333333334,109.59542124542124,188.5,109.57857142857142C190.91666666666666,109.56172161172161,193.33333333333334,109.5448717948718,195.75,109.52802197802198C198.16666666666669,109.51117216117217,200.58333333333334,109.49432234432234,203.00000000000003,109.47747252747253C205.41666666666669,109.46062271062272,207.83333333333331,109.44377289377289,210.24999999999997,109.42692307692307C212.66666666666666,109.41007326007326,215.08333333333331,109.39322344322343,217.5,109.37637362637362C219.91666666666666,109.35952380952381,222.33333333333334,109.342673992674,224.75,109.32582417582418C227.16666666666666,109.30897435897437,229.58333333333334,109.29212454212454,232,109.27527472527473C234.41666666666666,109.25842490842491,236.83333333333334,109.24157509157509,239.25,109.22472527472527C241.66666666666669,109.20787545787546,244.08333333333334,109.19102564102565,246.50000000000003,109.17417582417583C248.91666666666669,109.15732600732602,251.33333333333331,109.14047619047618,253.74999999999997,109.12362637362637C256.16666666666663,109.10677655677655,258.5833333333333,109.08992673992674,261,109.07307692307693C263.4166666666667,109.05622710622711,265.8333333333333,109.03937728937728,268.25,109.02252747252747C270.6666666666667,109.00567765567766,273.0833333333333,108.98882783882783,275.5,108.97197802197802C277.9166666666667,108.9551282051282,280.3333333333333,108.93827838827839,282.75,108.92142857142858C285.1666666666667,108.90457875457876,287.5833333333333,108.88772893772894,290,108.87087912087912C292.4166666666667,108.85402930402931,294.8333333333333,108.83717948717948,297.25,108.82032967032967C299.6666666666667,108.80347985347986,302.0833333333333,108.78663003663004,304.5,108.76978021978023C306.9166666666667,108.75293040293042,309.3333333333333,108.73608058608058,311.75,108.71923076923076C314.1666666666667,108.70238095238095,316.5833333333333,108.68553113553114,319,108.66868131868132C321.4166666666667,108.65183150183151,323.8333333333333,108.63498168498168,326.25,108.61813186813187C328.6666666666667,108.60128205128206,331.0833333333333,108.58443223443223,333.5,108.56758241758241C335.9166666666667,108.5507326007326,338.3333333333333,108.53388278388277,340.75,108.51703296703296C343.1666666666667,108.50018315018315,345.5833333333333,108.48333333333333,348,108.46648351648352C350.4166666666667,108.44963369963371,352.8333333333333,108.43278388278388,355.25,108.41593406593407C357.6666666666667,108.39908424908425,360.0833333333333,108.38223443223443,362.5,108.36538461538461C364.9166666666667,108.3485347985348,367.3333333333333,108.33168498168499,369.75,108.31483516483517C372.1666666666667,108.29798534798536,374.5833333333333,108.28113553113552,377,108.2642857142857C379.4166666666667,108.24743589743589,381.8333333333333,108.23058608058608,384.25,108.21373626373627C386.6666666666667,108.19688644688645,389.0833333333333,108.18003663003662,391.5,108.16318681318681C393.9166666666667,108.146336996337,396.33333333333337,108.12948717948717,398.75000000000006,108.11263736263736C401.16666666666674,108.09578754578754,403.58333333333337,108.07893772893773,406.00000000000006,108.06208791208792C408.4166666666667,108.0452380952381,410.8333333333333,108.02838827838828,413.24999999999994,108.01153846153846C415.66666666666663,107.99468864468865,418.08333333333326,107.97783882783882,420.49999999999994,107.96098901098901C422.91666666666663,107.9441391941392,425.3333333333333,107.92728937728937,427.75,107.91043956043956C430.1666666666667,107.89358974358974,432.5833333333333,107.87673992673993,435,107.85989010989012C437.4166666666667,107.8430402930403,439.8333333333333,107.82619047619048,442.25,107.80934065934066C444.6666666666667,107.79249084249085,447.0833333333333,107.77564102564102,449.5,107.75879120879121C451.9166666666667,107.7419413919414,454.3333333333333,107.72509157509157,456.75,107.70824175824175C459.1666666666667,107.69139194139194,461.5833333333333,107.67454212454211,464,107.6576923076923C466.4166666666667,107.64084249084249,468.8333333333333,107.62399267399267,471.25,107.60714285714286C473.6666666666667,107.59029304029305,476.0833333333333,107.57344322344322,478.5,107.55659340659341C480.9166666666667,107.5397435897436,483.33333333333337,107.52289377289377,485.75000000000006,107.50604395604395C488.16666666666674,107.48919413919414,490.58333333333337,107.47234432234433,493.00000000000006,107.45549450549451C495.4166666666667,107.4386446886447,497.8333333333333,107.42179487179486,500.24999999999994,107.40494505494505C502.66666666666663,107.38809523809523,505.08333333333326,107.37124542124542,507.49999999999994,107.3543956043956C509.91666666666663,107.33754578754579,512.3333333333333,107.32069597069598,514.75,107.30384615384617C517.1666666666666,107.28699633699635,519.5833333333334,107.27014652014651,522,107.2532967032967C524.4166666666666,107.23644688644688,526.8333333333334,107.21959706959707,529.25,107.20274725274726C531.6666666666666,107.18589743589745,534.0833333333334,107.16904761904762,536.5,107.1521978021978C538.9166666666666,107.13534798534799,541.3333333333334,107.11849816849816,543.75,107.10164835164835C546.1666666666666,107.08479853479854,548.5833333333334,107.06794871794871,551,107.0510989010989C553.4166666666666,107.03424908424908,555.8333333333334,107.01739926739927,558.25,107.00054945054946C560.6666666666666,106.98369963369964,563.0833333333334,106.9668498168498,565.5,106.94999999999999C567.9166666666666,106.93315018315018,570.3333333333334,106.91630036630036,572.75,106.89945054945055C575.1666666666666,106.88260073260074,577.5833333333334,106.86575091575092,580,106.84890109890111C582.4166666666666,106.8320512820513,584.8333333333334,106.81520146520145,587.25,106.79835164835164C589.6666666666666,106.78150183150183,592.0833333333334,106.76465201465201,594.5,106.7478021978022C596.9166666666666,106.73095238095239,599.3333333333334,106.71410256410256,601.75,106.69725274725275C604.1666666666666,106.68040293040293,606.5833333333334,106.6635531135531,609,106.6467032967033C611.4166666666666,106.62985347985348,613.8333333333334,106.61300366300367,616.25,106.59615384615385C618.6666666666666,106.57930402930404,621.0833333333334,106.5624542124542,623.5,106.54560439560439C625.9166666666666,106.52875457875457,628.3333333333334,106.51190476190476,630.75,106.49505494505495C633.1666666666666,106.47820512820513,635.5833333333334,106.4613553113553,638,106.44450549450549C640.4166666666666,106.42765567765568,642.8333333333334,106.41080586080585,645.25,106.39395604395604C647.6666666666666,106.37710622710622,650.0833333333334,106.36025641025641,652.5,106.3434065934066C654.9166666666666,106.32655677655679,657.3333333333334,106.30970695970696,659.75,106.29285714285714C662.1666666666666,106.27600732600733,664.5833333333334,106.2591575091575,667,106.24230769230769C669.4166666666666,106.22545787545788,671.8333333333334,106.20860805860805,674.25,106.19175824175824C676.6666666666666,106.17490842490842,679.0833333333334,106.15805860805861,681.5,106.1412087912088C683.9166666666666,106.12435897435898,686.3333333333334,106.10750915750916,688.75,106.09065934065934C691.1666666666666,106.07380952380953,693.5833333333334,106.0569597069597,696,106.04010989010989C698.4166666666666,106.02326007326008,700.8333333333334,106.00641025641026,703.25,105.98956043956045C705.6666666666666,105.97271062271064,708.0833333333334,105.9558608058608,710.5,105.93901098901098C712.9166666666666,105.92216117216117,715.3333333333334,105.90531135531135,717.75,105.88846153846154C720.1666666666666,105.87161172161173,722.5833333333334,105.8547619047619,725,105.83791208791209C727.4166666666666,105.82106227106227,729.8333333333334,105.80421245421245,732.25,105.78736263736263C734.6666666666666,105.77051282051282,737.0833333333334,105.75366300366301,739.5,105.7368131868132C741.9166666666666,105.71996336996338,744.3333333333334,105.70311355311355,746.75,105.68626373626374C749.1666666666666,105.66941391941393,751.5833333333334,105.6525641025641,754,105.63571428571429C756.4166666666666,105.61886446886447,758.8333333333334,105.60201465201465,761.25,105.58516483516483C763.6666666666666,105.56831501831502,766.0833333333334,105.55146520146519,768.5,105.53461538461538C770.9166666666666,105.51776556776557,773.3333333333334,105.50091575091575,775.75,105.48406593406594C778.1666666666666,105.46721611721613,780.5833333333334,105.4503663003663,783,105.43351648351648C785.4166666666667,105.41666666666667,787.8333333333334,105.39981684981684,790.2500000000001,105.38296703296703C792.6666666666667,105.36611721611722,795.0833333333335,105.34926739926739,797.5000000000001,105.33241758241758C799.9166666666667,105.31556776556776,802.3333333333335,105.29871794871795,804.7500000000001,105.28186813186814C807.1666666666667,105.26501831501832,809.5833333333335,105.24816849816848,812.0000000000001,105.23131868131867C814.4166666666667,105.21446886446886,816.8333333333333,105.19761904761904,819.2499999999999,105.18076923076923C821.6666666666665,105.16391941391942,824.0833333333333,105.1470695970696,826.4999999999999,105.13021978021979C828.9166666666665,105.11336996336998,831.3333333333333,105.09652014652013,833.7499999999999,105.07967032967032C836.1666666666665,105.06282051282051,838.5833333333333,105.0459706959707,840.9999999999999,105.02912087912088C843.4166666666666,105.01227106227107,845.8333333333333,104.99542124542124,848.25,104.97857142857143C850.6666666666666,104.96172161172161,853.0833333333334,104.94487179487179,855.5,104.92802197802197C857.9166666666666,104.91117216117216,860.3333333333334,104.89432234432235,862.75,104.87747252747253C865.1666666666666,104.86062271062272,867.5833333333334,104.8437728937729,870,104.82692307692308C872.4166666666666,104.81007326007327,874.8333333333334,104.79322344322344,877.25,104.77637362637363C879.6666666666666,104.75952380952381,882.0833333333334,104.74267399267399,884.5,104.72582417582417C886.9166666666666,104.70897435897436,889.3333333333334,104.69212454212455,891.75,104.67527472527473C894.1666666666666,104.65842490842492,896.5833333333334,104.64157509157508,899,104.62472527472526C901.4166666666666,104.60787545787545,903.8333333333334,104.59102564102564,906.25,104.57417582417582C908.6666666666666,104.55732600732601,911.0833333333334,104.54047619047618,913.5,104.52362637362637C915.9166666666666,104.50677655677656,918.3333333333334,104.48992673992673,920.75,104.47307692307692C923.1666666666666,104.4562271062271,925.5833333333334,104.43937728937729,928,104.42252747252748C930.4166666666666,104.40567765567766,932.8333333333334,104.38882783882784,935.25,104.37197802197802C937.6666666666666,104.35512820512821,940.0833333333334,104.35512820512821,942.5,104.32142857142857C944.9166666666666,104.28772893772893,947.3333333333334,103.5391156462585,949.75,103.14795918367346C952.1666666666666,102.75680272108843,954.5833333333334,102.36564625850339,957,101.97448979591836C959.4166666666666,101.58333333333333,961.8333333333334,101.1921768707483,964.25,100.80102040816327C966.6666666666667,100.40986394557824,969.0833333333334,100.01870748299321,971.5000000000001,99.62755102040816C973.9166666666667,99.23639455782313,976.3333333333335,98.84523809523809,978.7500000000001,98.45408163265306C981.1666666666667,98.06292517006803,983.5833333333335,97.671768707483,986.0000000000001,97.28061224489797C988.4166666666667,96.88945578231294,990.8333333333335,96.4982993197279,993.2500000000001,96.10714285714286C995.6666666666667,95.71598639455783,998.0833333333333,95.32482993197279,1000.4999999999999,94.93367346938776C1002.9166666666665,94.54251700680271,1005.3333333333333,94.15136054421768,1007.7499999999999,93.76020408163265C1010.1666666666665,93.36904761904762,1012.5833333333333,92.97789115646258,1014.9999999999999,92.58673469387755C1017.4166666666665,92.19557823129252,1019.8333333333333,91.80442176870747,1022.2499999999999,91.41326530612244C1024.6666666666665,91.02210884353741,1027.0833333333333,90.63095238095238,1029.5,90.23979591836735C1031.9166666666667,89.84863945578232,1034.3333333333333,89.45748299319727,1036.75,89.06632653061224C1039.1666666666667,88.67517006802721,1041.5833333333333,88.28401360544217,1044,87.89285714285714C1046.4166666666667,87.50170068027211,1048.8333333333333,87.11054421768708,1051.25,86.71938775510205C1053.6666666666667,86.32823129251702,1056.0833333333333,85.93707482993196,1058.5,85.54591836734693C1060.9166666666667,85.1547619047619,1063.3333333333333,84.76360544217687,1065.75,84.37244897959184C1068.1666666666667,83.9812925170068,1070.5833333333333,83.59013605442176,1073,83.19897959183673C1075.4166666666667,82.8078231292517,1077.8333333333333,82.41666666666666,1080.25,82.02551020408163C1082.6666666666667,81.6343537414966,1085.0833333333333,81.24319727891157,1087.5,80.85204081632654C1089.9166666666667,80.4608843537415,1092.3333333333333,80.06972789115646,1094.75,79.67857142857143C1097.1666666666667,79.2874149659864,1099.5833333333333,78.89625850340136,1102,78.50510204081633C1104.4166666666667,78.1139455782313,1106.8333333333333,77.72278911564625,1109.25,77.33163265306122C1111.6666666666667,76.94047619047619,1114.0833333333333,76.54931972789116,1116.5,76.15816326530613C1118.9166666666667,75.7670068027211,1121.3333333333333,75.37585034013604,1123.75,74.98469387755101C1126.1666666666667,74.59353741496598,1128.5833333333333,74.20238095238095,1131,73.81122448979592C1133.4166666666667,73.42006802721089,1135.8333333333333,73.02891156462584,1138.25,72.63775510204081C1140.6666666666667,72.24659863945578,1143.0833333333333,71.85544217687075,1145.5,71.46428571428572C1147.9166666666667,71.07312925170069,1150.3333333333333,70.68197278911566,1152.75,70.29081632653063C1155.1666666666667,69.8996598639456,1157.5833333333333,69.50850340136054,1160,69.11734693877551C1162.4166666666667,68.72619047619048,1164.8333333333333,68.33503401360545,1167.25,67.94387755102042C1169.6666666666667,67.55272108843539,1172.0833333333333,67.16156462585033,1174.5,66.7704081632653C1176.9166666666667,66.37925170068027,1179.3333333333333,65.98809523809524,1181.75,65.59693877551021C1184.1666666666667,65.20578231292518,1186.5833333333333,64.81462585034012,1189,64.42346938775509C1191.4166666666667,64.03231292517006,1193.8333333333333,63.641156462585045,1196.25,63.25000000000001C1198.6666666666667,62.85884353741497,1201.0833333333333,62.467687074829925,1203.5,62.07653061224489C1205.9166666666667,61.68537414965985,1208.3333333333333,61.29421768707483,1210.75,60.9030612244898C1213.1666666666667,60.511904761904766,1215.5833333333333,60.12074829931974,1218,59.729591836734706C1220.4166666666667,59.33843537414967,1222.8333333333333,58.94727891156463,1225.25,58.55612244897959C1227.6666666666667,58.164965986394556,1230.0833333333333,57.773809523809526,1232.5,57.38265306122449C1234.9166666666667,56.99149659863945,1237.3333333333333,56.60034013605441,1239.75,56.20918367346938C1242.1666666666667,55.81802721088435,1244.5833333333333,55.42687074829932,1247,55.035714285714285C1249.4166666666667,54.64455782312925,1251.8333333333333,54.25340136054422,1254.25,53.86224489795918C1256.6666666666667,53.47108843537414,1259.0833333333333,53.07993197278911,1261.5,52.688775510204074C1263.9166666666667,52.29761904761904,1266.3333333333333,51.906462585034,1268.75,51.51530612244897C1271.1666666666667,51.12414965986394,1273.5833333333333,50.73299319727891,1276,50.34183673469388C1278.4166666666667,49.95068027210885,1280.8333333333333,49.55952380952381,1283.25,49.16836734693878C1285.6666666666667,48.77721088435375,1288.0833333333333,48.38605442176871,1290.5,47.994897959183675C1292.9166666666667,47.60374149659864,1295.3333333333333,47.21258503401361,1297.75,46.82142857142857C1300.1666666666667,46.43027210884353,1302.5833333333333,46.039115646258495,1305,45.647959183673464C1307.4166666666667,45.256802721088434,1309.8333333333333,44.8656462585034,1312.25,44.474489795918366C1314.6666666666667,44.08333333333333,1317.0833333333333,43.69217687074829,1319.5,43.30102040816326C1321.9166666666667,42.90986394557823,1324.3333333333333,42.51870748299321,1326.75,42.12755102040817C1329.1666666666667,41.73639455782313,1331.5833333333333,41.34523809523809,1334,40.95408163265306C1336.4166666666667,40.56292517006803,1338.8333333333333,40.171768707483,1341.25,39.780612244897966C1343.6666666666667,39.389455782312936,1346.0833333333333,38.9982993197279,1348.5,38.60714285714286C1350.9166666666667,38.215986394557824,1353.3333333333333,37.824829931972786,1355.75,37.433673469387756C1358.1666666666667,37.042517006802726,1360.5833333333333,36.651360544217695,1363,36.260204081632665C1365.4166666666667,35.869047619047635,1367.8333333333333,35.47789115646259,1370.25,35.08673469387755C1372.6666666666667,34.695578231292515,1375.0833333333333,34.30442176870749,1377.5,33.91326530612246C1379.9166666666667,33.52210884353743,1382.3333333333333,33.130952380952394,1384.75,32.739795918367356C1387.1666666666667,32.34863945578232,1389.5833333333333,31.957482993197278,1392,31.56632653061224C1394.4166666666667,31.175170068027203,1396.8333333333333,30.784013605442173,1399.25,30.39285714285714C1401.6666666666667,30.001700680272105,1404.0833333333333,29.610544217687067,1406.5,29.219387755102034C1408.9166666666667,28.828231292517,1411.3333333333333,28.437074829931976,1413.75,28.045918367346943C1416.1666666666667,27.65476190476191,1418.5833333333333,27.263605442176864,1421,26.872448979591827C1423.4166666666667,26.48129251700679,1425.8333333333333,26.090136054421755,1428.25,25.698979591836725C1430.6666666666667,25.307823129251695,1433.0833333333333,24.916666666666668,1435.5,24.525510204081634C1437.9166666666667,24.1343537414966,1440.3333333333333,23.743197278911563,1442.75,23.35204081632653C1445.1666666666667,22.960884353741495,1447.5833333333333,22.569727891156468,1450,22.178571428571438" fill="transparent" stroke-linecap="round" stroke="#B6509E" stroke-width="2"></path><path class="visx-linepath" d="M0,106.78571428558791C2.4166666666666665,106.7646520145783,4.833333333333334,106.74358974356868,7.25,106.72252747252747C9.666666666666666,106.70146520148627,12.083333333333334,106.68040293040292,14.5,106.65934065934066C16.916666666666668,106.6382783882784,19.333333333333332,106.61721611721612,21.75,106.59615384615385C24.166666666666668,106.57509157509159,26.583333333333332,106.55402930402931,29,106.53296703296704C31.416666666666668,106.51190476190476,33.833333333333336,106.49084249084248,36.25,106.46978021978022C38.666666666666664,106.44871794871796,41.083333333333336,106.42765567765568,43.5,106.40659340659342C45.91666666666667,106.38553113553114,48.333333333333336,106.36446886446888,50.75000000000001,106.3434065934066C53.16666666666667,106.32234432234432,55.583333333333336,106.30128205128204,58,106.28021978021978C60.416666666666664,106.2591575091575,62.833333333333336,106.23809523809524,65.25,106.21703296703298C67.66666666666667,106.19597069597071,70.08333333333333,106.17490842490844,72.5,106.15384615384616C74.91666666666667,106.13278388278388,77.33333333333333,106.1117216117216,79.75,106.09065934065934C82.16666666666667,106.06959706959708,84.58333333333333,106.0485347985348,87,106.02747252747254C89.41666666666667,106.00641025641028,91.83333333333333,105.985347985348,94.25,105.96428571428572C96.66666666666667,105.94322344322345,99.08333333333334,105.92216117216118,101.50000000000001,105.9010989010989C103.91666666666667,105.88003663003663,106.33333333333334,105.85897435897435,108.75,105.83791208791209C111.16666666666667,105.81684981684981,113.58333333333333,105.79578754578755,116,105.77472527472528C118.41666666666667,105.75366300366301,120.83333333333334,105.73260073260074,123.25000000000001,105.71153846153847C125.66666666666667,105.69047619047619,128.08333333333334,105.66941391941393,130.5,105.64835164835165C132.91666666666666,105.62728937728937,135.33333333333334,105.60622710622711,137.75,105.58516483516483C140.16666666666666,105.56410256410255,142.58333333333334,105.54304029304029,145,105.52197802197801C147.41666666666666,105.50091575091574,149.83333333333334,105.47985347985346,152.25,105.4587912087912C154.66666666666666,105.43772893772893,157.08333333333334,105.41666666666666,159.5,105.3956043956044C161.91666666666666,105.37454212454213,164.33333333333334,105.35347985347985,166.75,105.33241758241758C169.16666666666666,105.3113553113553,171.58333333333334,105.29029304029302,174,105.26923076923076C176.41666666666666,105.2481684981685,178.83333333333334,105.22710622710622,181.25,105.20604395604396C183.66666666666666,105.1849816849817,186.08333333333334,105.16391941391942,188.5,105.14285714285714C190.91666666666666,105.12179487179486,193.33333333333334,105.10073260073258,195.75,105.07967032967032C198.16666666666669,105.05860805860804,200.58333333333334,105.0375457875458,203.00000000000003,105.01648351648352C205.41666666666669,104.99542124542126,207.83333333333331,104.97435897435898,210.24999999999997,104.9532967032967C212.66666666666666,104.93223443223442,215.08333333333331,104.91117216117216,217.5,104.89010989010988C219.91666666666666,104.86904761904762,222.33333333333334,104.84798534798534,224.75,104.82692307692308C227.16666666666666,104.80586080586082,229.58333333333334,104.78479853479854,232,104.76373626373626C234.41666666666666,104.74267399267399,236.83333333333334,104.72161172161171,239.25,104.70054945054945C241.66666666666669,104.67948717948717,244.08333333333334,104.65842490842492,246.50000000000003,104.63736263736264C248.91666666666669,104.61630036630038,251.33333333333331,104.5952380952381,253.74999999999997,104.57417582417582C256.16666666666663,104.55311355311355,258.5833333333333,104.53205128205128,261,104.51098901098901C263.4166666666667,104.48992673992673,265.8333333333333,104.46886446886447,268.25,104.44780219780219C270.6666666666667,104.42673992673991,273.0833333333333,104.40567765567766,275.5,104.38461538461539C277.9166666666667,104.36355311355311,280.3333333333333,104.34249084249085,282.75,104.32142857142857C285.1666666666667,104.30036630036629,287.5833333333333,104.27930402930403,290,104.25824175824175C292.4166666666667,104.23717948717947,294.8333333333333,104.21611721611723,297.25,104.19505494505495C299.6666666666667,104.17399267399267,302.0833333333333,104.15293040293041,304.5,104.13186813186813C306.9166666666667,104.11080586080585,309.3333333333333,104.08974358974359,311.75,104.06868131868131C314.1666666666667,104.04761904761904,316.5833333333333,104.02655677655679,319,104.00549450549451C321.4166666666667,103.98443223443223,323.8333333333333,103.96336996336997,326.25,103.9423076923077C328.6666666666667,103.92124542124542,331.0833333333333,103.90018315018315,333.5,103.87912087912088C335.9166666666667,103.8580586080586,338.3333333333333,103.83699633699635,340.75,103.81593406593407C343.1666666666667,103.7948717948718,345.5833333333333,103.77380952380953,348,103.75274725274726C350.4166666666667,103.73168498168498,352.8333333333333,103.71062271062272,355.25,103.68956043956044C357.6666666666667,103.66849816849816,360.0833333333333,103.64743589743591,362.5,103.62637362637363C364.9166666666667,103.60531135531136,367.3333333333333,103.5842490842491,369.75,103.56318681318682C372.1666666666667,103.54212454212454,374.5833333333333,103.52106227106228,377,103.5C379.4166666666667,103.47893772893772,381.8333333333333,103.45787545787545,384.25,103.43681318681318C386.6666666666667,103.41575091575092,389.0833333333333,103.39468864468864,391.5,103.37362637362638C393.9166666666667,103.3525641025641,396.33333333333337,103.33150183150184,398.75000000000006,103.31043956043956C401.16666666666674,103.28937728937728,403.58333333333337,103.26831501831502,406.00000000000006,103.24725274725274C408.4166666666667,103.22619047619048,410.8333333333333,103.2051282051282,413.24999999999994,103.18406593406594C415.66666666666663,103.16300366300366,418.08333333333326,103.1419413919414,420.49999999999994,103.12087912087912C422.91666666666663,103.09981684981685,425.3333333333333,103.07875457875458,427.75,103.0576923076923C430.1666666666667,103.03663003663004,432.5833333333333,103.01556776556777,435,102.9945054945055C437.4166666666667,102.97344322344324,439.8333333333333,102.95238095238096,442.25,102.93131868131869C444.6666666666667,102.91025641025641,447.0833333333333,102.88919413919413,449.5,102.86813186813187C451.9166666666667,102.8470695970696,454.3333333333333,102.82600732600733,456.75,102.80494505494507C459.1666666666667,102.7838827838828,461.5833333333333,102.76282051282053,464,102.74175824175825C466.4166666666667,102.72069597069597,468.8333333333333,102.6996336996337,471.25,102.67857142857143C473.6666666666667,102.65750915750917,476.0833333333333,102.63644688644689,478.5,102.61538461538463C480.9166666666667,102.59432234432235,483.33333333333337,102.57326007326009,485.75000000000006,102.55219780219781C488.16666666666674,102.53113553113553,490.58333333333337,102.51007326007326,493.00000000000006,102.48901098901098C495.4166666666667,102.4679487179487,497.8333333333333,102.44688644688644,500.24999999999994,102.42582417582418C502.66666666666663,102.4047619047619,505.08333333333326,102.38369963369964,507.49999999999994,102.36263736263736C509.91666666666663,102.34157509157508,512.3333333333333,102.32051282051282,514.75,102.29945054945054C517.1666666666666,102.27838827838828,519.5833333333334,102.25732600732601,522,102.23626373626374C524.4166666666666,102.21520146520146,526.8333333333334,102.1941391941392,529.25,102.17307692307692C531.6666666666666,102.15201465201464,534.0833333333334,102.13095238095238,536.5,102.1098901098901C538.9166666666666,102.08882783882783,541.3333333333334,102.06776556776555,543.75,102.04670329670328C546.1666666666666,102.02564102564102,548.5833333333334,102.00457875457874,551,101.98351648351648C553.4166666666666,101.96245421245422,555.8333333333334,101.94139194139194,558.25,101.92032967032966C560.6666666666666,101.89926739926739,563.0833333333334,101.87820512820511,565.5,101.85714285714285C567.9166666666666,101.83608058608058,570.3333333333334,101.8150183150183,572.75,101.79395604395604C575.1666666666666,101.77289377289378,577.5833333333334,101.7518315018315,580,101.73076923076923C582.4166666666666,101.70970695970695,584.8333333333334,101.68864468864467,587.25,101.66758241758241C589.6666666666666,101.64652014652015,592.0833333333334,101.62545787545787,594.5,101.6043956043956C596.9166666666666,101.58333333333334,599.3333333333334,101.56227106227107,601.75,101.54120879120879C604.1666666666666,101.52014652014651,606.5833333333334,101.49908424908423,609,101.47802197802197C611.4166666666666,101.45695970695971,613.8333333333334,101.43589743589743,616.25,101.41483516483517C618.6666666666666,101.3937728937729,621.0833333333334,101.37271062271063,623.5,101.35164835164835C625.9166666666666,101.33058608058607,628.3333333333334,101.3095238095238,630.75,101.28846153846153C633.1666666666666,101.26739926739927,635.5833333333334,101.24633699633699,638,101.22527472527473C640.4166666666666,101.20421245421247,642.8333333333334,101.18315018315019,645.25,101.16208791208791C647.6666666666666,101.14102564102564,650.0833333333334,101.11996336996337,652.5,101.0989010989011C654.9166666666666,101.07783882783882,657.3333333333334,101.05677655677655,659.75,101.03571428571428C662.1666666666666,101.014652014652,664.5833333333334,100.99358974358975,667,100.97252747252747C669.4166666666666,100.9514652014652,671.8333333333334,100.93040293040293,674.25,100.90934065934066C676.6666666666666,100.88827838827838,679.0833333333334,100.86721611721612,681.5,100.84615384615384C683.9166666666666,100.82509157509156,686.3333333333334,100.80402930402931,688.75,100.78296703296704C691.1666666666666,100.76190476190476,693.5833333333334,100.7408424908425,696,100.71978021978022C698.4166666666666,100.69871794871794,700.8333333333334,100.67765567765568,703.25,100.6565934065934C705.6666666666666,100.63553113553112,708.0833333333334,100.61446886446888,710.5,100.5934065934066C712.9166666666666,100.57234432234432,715.3333333333334,100.55128205128206,717.75,100.53021978021978C720.1666666666666,100.5091575091575,722.5833333333334,100.48809523809524,725,100.46703296703296C727.4166666666666,100.44597069597069,729.8333333333334,100.42490842490844,732.25,100.40384615384616C734.6666666666666,100.38278388278388,737.0833333333334,100.36172161172162,739.5,100.34065934065934C741.9166666666666,100.31959706959707,744.3333333333334,100.2985347985348,746.75,100.27747252747253C749.1666666666666,100.25641025641025,751.5833333333334,100.235347985348,754,100.21428571428572C756.4166666666666,100.19322344322345,758.8333333333334,100.17216117216118,761.25,100.1510989010989C763.6666666666666,100.13003663003663,766.0833333333334,100.10897435897436,768.5,100.08791208791209C770.9166666666666,100.06684981684981,773.3333333333334,100.04578754578753,775.75,100.02472527472527C778.1666666666666,100.00366300366301,780.5833333333334,99.98260073260073,783,99.96153846153847C785.4166666666667,99.94047619047619,787.8333333333334,99.91941391941393,790.2500000000001,99.89835164835165C792.6666666666667,99.87728937728937,795.0833333333335,99.8562271062271,797.5000000000001,99.83516483516483C799.9166666666667,99.81410256410257,802.3333333333335,99.79304029304029,804.7500000000001,99.77197802197803C807.1666666666667,99.75091575091577,809.5833333333335,99.72985347985349,812.0000000000001,99.70879120879121C814.4166666666667,99.68772893772893,816.8333333333333,99.66666666666666,819.2499999999999,99.6456043956044C821.6666666666665,99.62454212454212,824.0833333333333,99.60347985347985,826.4999999999999,99.58241758241759C828.9166666666665,99.56135531135533,831.3333333333333,99.54029304029305,833.7499999999999,99.51923076923077C836.1666666666665,99.4981684981685,838.5833333333333,99.47710622710622,840.9999999999999,99.45604395604396C843.4166666666666,99.43498168498168,845.8333333333333,99.41391941391943,848.25,99.39285714285715C850.6666666666666,99.37179487179489,853.0833333333334,99.35073260073261,855.5,99.32967032967034C857.9166666666666,99.30860805860806,860.3333333333334,99.28754578754578,862.75,99.26648351648352C865.1666666666666,99.24542124542126,867.5833333333334,99.22435897435898,870,99.20329670329672C872.4166666666666,99.18223443223445,874.8333333333334,99.16117216117217,877.25,99.1401098901099C879.6666666666666,99.11904761904762,882.0833333333334,99.09798534798536,884.5,99.07692307692308C886.9166666666666,99.0558608058608,889.3333333333334,99.03479853479854,891.75,99.01373626373626C894.1666666666666,98.99267399267399,896.5833333333334,98.97161172161174,899,98.95054945054946C901.4166666666666,98.92948717948718,903.8333333333334,98.90842490842492,906.25,98.88736263736264C908.6666666666666,98.86630036630036,911.0833333333334,98.8452380952381,913.5,98.82417582417582C915.9166666666666,98.80311355311355,918.3333333333334,98.7820512820513,920.75,98.76098901098902C923.1666666666666,98.73992673992674,925.5833333333334,98.71886446886448,928,98.6978021978022C930.4166666666666,98.67673992673993,932.8333333333334,98.65567765567766,935.25,98.63461538461539C937.6666666666666,98.61355311355311,940.0833333333334,98.61355311355312,942.5,98.57142857142858C944.9166666666666,98.52930402930404,947.3333333333334,97.78911564625851,949.75,97.39795918367348C952.1666666666666,97.00680272108845,954.5833333333334,96.6156462585034,957,96.22448979591837C959.4166666666666,95.83333333333334,961.8333333333334,95.4421768707483,964.25,95.05102040816327C966.6666666666667,94.65986394557822,969.0833333333334,94.26870748299321,971.5000000000001,93.87755102040816C973.9166666666667,93.48639455782313,976.3333333333335,93.09523809523809,978.7500000000001,92.70408163265306C981.1666666666667,92.31292517006803,983.5833333333335,91.92176870748298,986.0000000000001,91.53061224489795C988.4166666666667,91.13945578231292,990.8333333333335,90.7482993197279,993.2500000000001,90.35714285714286C995.6666666666667,89.96598639455783,998.0833333333333,89.57482993197279,1000.4999999999999,89.18367346938776C1002.9166666666665,88.79251700680271,1005.3333333333333,88.4013605442177,1007.7499999999999,88.01020408163266C1010.1666666666665,87.61904761904763,1012.5833333333333,87.22789115646258,1014.9999999999999,86.83673469387755C1017.4166666666665,86.44557823129252,1019.8333333333333,86.05442176870748,1022.2499999999999,85.66326530612245C1024.6666666666665,85.27210884353741,1027.0833333333333,84.88095238095238,1029.5,84.48979591836734C1031.9166666666667,84.0986394557823,1034.3333333333333,83.70748299319727,1036.75,83.31632653061224C1039.1666666666667,82.92517006802721,1041.5833333333333,82.53401360544217,1044,82.14285714285714C1046.4166666666667,81.75170068027211,1048.8333333333333,81.36054421768708,1051.25,80.96938775510205C1053.6666666666667,80.57823129251702,1056.0833333333333,80.18707482993199,1058.5,79.79591836734696C1060.9166666666667,79.40476190476193,1063.3333333333333,79.01360544217687,1065.75,78.62244897959184C1068.1666666666667,78.2312925170068,1070.5833333333333,77.84013605442176,1073,77.44897959183673C1075.4166666666667,77.0578231292517,1077.8333333333333,76.66666666666666,1080.25,76.27551020408163C1082.6666666666667,75.8843537414966,1085.0833333333333,75.49319727891157,1087.5,75.10204081632654C1089.9166666666667,74.7108843537415,1092.3333333333333,74.31972789115645,1094.75,73.92857142857142C1097.1666666666667,73.53741496598639,1099.5833333333333,73.14625850340136,1102,72.75510204081633C1104.4166666666667,72.3639455782313,1106.8333333333333,71.97278911564625,1109.25,71.58163265306122C1111.6666666666667,71.19047619047619,1114.0833333333333,70.79931972789116,1116.5,70.40816326530613C1118.9166666666667,70.0170068027211,1121.3333333333333,69.62585034013605,1123.75,69.23469387755102C1126.1666666666667,68.843537414966,1128.5833333333333,68.45238095238095,1131,68.06122448979592C1133.4166666666667,67.67006802721089,1135.8333333333333,67.27891156462584,1138.25,66.88775510204081C1140.6666666666667,66.49659863945578,1143.0833333333333,66.10544217687074,1145.5,65.71428571428571C1147.9166666666667,65.32312925170068,1150.3333333333333,64.93197278911565,1152.75,64.54081632653062C1155.1666666666667,64.14965986394559,1157.5833333333333,63.75850340136054,1160,63.367346938775505C1162.4166666666667,62.97619047619047,1164.8333333333333,62.58503401360543,1167.25,62.1938775510204C1169.6666666666667,61.80272108843537,1172.0833333333333,61.41156462585034,1174.5,61.02040816326531C1176.9166666666667,60.62925170068028,1179.3333333333333,60.23809523809524,1181.75,59.8469387755102C1184.1666666666667,59.455782312925166,1186.5833333333333,59.064625850340136,1189,58.673469387755105C1191.4166666666667,58.282312925170075,1193.8333333333333,57.89115646258504,1196.25,57.5C1198.6666666666667,57.10884353741496,1201.0833333333333,56.717687074829925,1203.5,56.326530612244895C1205.9166666666667,55.935374149659864,1208.3333333333333,55.544217687074834,1210.75,55.153061224489804C1213.1666666666667,54.76190476190477,1215.5833333333333,54.37074829931973,1218,53.97959183673469C1220.4166666666667,53.588435374149654,1222.8333333333333,53.19727891156464,1225.25,52.8061224489796C1227.6666666666667,52.41496598639456,1230.0833333333333,52.02380952380952,1232.5,51.63265306122448C1234.9166666666667,51.24149659863944,1237.3333333333333,50.85034013605442,1239.75,50.45918367346939C1242.1666666666667,50.06802721088436,1244.5833333333333,49.67687074829932,1247,49.28571428571429C1249.4166666666667,48.89455782312926,1251.8333333333333,48.503401360544224,1254.25,48.11224489795919C1256.6666666666667,47.72108843537415,1259.0833333333333,47.32993197278912,1261.5,46.93877551020408C1263.9166666666667,46.547619047619044,1266.3333333333333,46.15646258503401,1268.75,45.765306122448976C1271.1666666666667,45.374149659863946,1273.5833333333333,44.98299319727893,1276,44.59183673469389C1278.4166666666667,44.200680272108855,1280.8333333333333,43.80952380952381,1283.25,43.41836734693877C1285.6666666666667,43.027210884353735,1288.0833333333333,42.636054421768705,1290.5,42.24489795918367C1292.9166666666667,41.85374149659863,1295.3333333333333,41.4625850340136,1297.75,41.07142857142857C1300.1666666666667,40.68027210884354,1302.5833333333333,40.2891156462585,1305,39.897959183673464C1307.4166666666667,39.50680272108843,1309.8333333333333,39.11564625850339,1312.25,38.72448979591836C1314.6666666666667,38.33333333333333,1317.0833333333333,37.9421768707483,1319.5,37.55102040816327C1321.9166666666667,37.15986394557824,1324.3333333333333,36.76870748299319,1326.75,36.377551020408156C1329.1666666666667,35.98639455782312,1331.5833333333333,35.5952380952381,1334,35.204081632653065C1336.4166666666667,34.81292517006803,1338.8333333333333,34.42176870748298,1341.25,34.030612244897945C1343.6666666666667,33.63945578231291,1346.0833333333333,33.248299319727884,1348.5,32.857142857142854C1350.9166666666667,32.465986394557824,1353.3333333333333,32.07482993197279,1355.75,31.683673469387763C1358.1666666666667,31.292517006802733,1360.5833333333333,30.9013605442177,1363,30.51020408163266C1365.4166666666667,30.119047619047624,1367.8333333333333,29.727891156462583,1370.25,29.336734693877546C1372.6666666666667,28.945578231292508,1375.0833333333333,28.55442176870747,1377.5,28.16326530612244C1379.9166666666667,27.77210884353741,1382.3333333333333,27.380952380952387,1384.75,26.989795918367353C1387.1666666666667,26.59863945578232,1389.5833333333333,26.207482993197285,1392,25.816326530612248C1394.4166666666667,25.42517006802721,1396.8333333333333,25.034013605442166,1399.25,24.64285714285713C1401.6666666666667,24.251700680272098,1404.0833333333333,23.86054421768707,1406.5,23.46938775510204C1408.9166666666667,23.07823129251701,1411.3333333333333,22.687074829931973,1413.75,22.29591836734694C1416.1666666666667,21.904761904761905,1418.5833333333333,21.513605442176882,1421,21.122448979591848C1423.4166666666667,20.731292517006814,1425.8333333333333,20.34013605442177,1428.25,19.948979591836732C1430.6666666666667,19.557823129251695,1433.0833333333333,19.16666666666666,1435.5,18.775510204081627C1437.9166666666667,18.384353741496593,1440.3333333333333,17.993197278911566,1442.75,17.602040816326536C1445.1666666666667,17.210884353741505,1447.5833333333333,16.819727891156468,1450,16.428571428571434" fill="transparent" stroke-linecap="round" stroke="#E7C6DF" stroke-width="2"></path><g class="visx-group visx-axis visx-axis-bottom" transform="translate(0, 115)"><g class="visx-group visx-axis-tick" transform="translate(0, 0)"><line class="visx-line" x1="0" y1="0" x2="0" y2="8" fill="transparent" shape-rendering="crispEdges" stroke="#000" stroke-width="0" stroke-linecap="square"></line><svg x="0" y="0" font-size="10" style="overflow:visible"><text transform="" x="0" y="18" fill="#000" font-size="10" text-anchor="middle"><tspan x="0" dy="0em">0%</tspan></text></svg></g><g class="visx-group visx-axis-tick" transform="translate(0, 0)"><line class="visx-line" x1="362.5" y1="0" x2="362.5" y2="8" fill="transparent" shape-rendering="crispEdges" stroke="#000" stroke-width="0" stroke-linecap="square"></line><svg x="0" y="0" font-size="10" style="overflow:visible"><text transform="" x="362.5" y="18" fill="#000" font-size="10" text-anchor="middle"><tspan x="362.5" dy="0em">25%</tspan></text></svg></g><g class="visx-group visx-axis-tick" transform="translate(0, 0)"><line class="visx-line" x1="725" y1="0" x2="725" y2="8" fill="transparent" shape-rendering="crispEdges" stroke="#000" stroke-width="0" stroke-linecap="square"></line><svg x="0" y="0" font-size="10" style="overflow:visible"><text transform="" x="725" y="18" fill="#000" font-size="10" text-anchor="middle"><tspan x="725" dy="0em">50%</tspan></text></svg></g><g class="visx-group visx-axis-tick" transform="translate(0, 0)"><line class="visx-line" x1="1087.5" y1="0" x2="1087.5" y2="8" fill="transparent" shape-rendering="crispEdges" stroke="#000" stroke-width="0" stroke-linecap="square"></line><svg x="0" y="0" font-size="10" style="overflow:visible"><text transform="" x="1087.5" y="18" fill="#000" font-size="10" text-anchor="middle"><tspan x="1087.5" dy="0em">75%</tspan></text></svg></g><g class="visx-group visx-axis-tick" transform="translate(0, 0)"><line class="visx-line" x1="1450" y1="0" x2="1450" y2="8" fill="transparent" shape-rendering="crispEdges" stroke="#000" stroke-width="0" stroke-linecap="square"></line><svg x="0" y="0" font-size="10" style="overflow:visible"><text transform="" x="1450" y="18" fill="#000" font-size="10" text-anchor="middle"><tspan x="1450" dy="0em">100%</tspan></text></svg></g><line class="visx-line visx-axis-line" x1="0.5" y1="0" x2="1450.5" y2="0" fill="transparent" shape-rendering="crispEdges" stroke="#222" stroke-width="0"></line></g><g class="visx-group visx-axis visx-axis-left" transform="translate(0, 0)"><g class="visx-group visx-axis-tick" transform="translate(0, 0)"><line class="visx-line" x1="0" y1="115" x2="-8" y2="115" fill="transparent" shape-rendering="crispEdges" stroke="#222" stroke-width="0" stroke-linecap="square"></line><svg x="-30" y="0" font-size="8" style="overflow:visible"><text transform="" x="-8" y="115" fill="#000" font-size="8" text-anchor="start"><tspan x="-8" dy="0em">0%</tspan></text></svg></g><g class="visx-group visx-axis-tick" transform="translate(0, 0)"><line class="visx-line" x1="0" y1="73.92857142857142" x2="-8" y2="73.92857142857142" fill="transparent" shape-rendering="crispEdges" stroke="#222" stroke-width="0" stroke-linecap="square"></line><svg x="-30" y="0" font-size="8" style="overflow:visible"><text transform="" x="-8" y="73.92857142857142" fill="#000" font-size="8" text-anchor="start"><tspan x="-8" dy="0em">50%</tspan></text></svg></g><g class="visx-group visx-axis-tick" transform="translate(0, 0)"><line class="visx-line" x1="0" y1="32.857142857142854" x2="-8" y2="32.857142857142854" fill="transparent" shape-rendering="crispEdges" stroke="#222" stroke-width="0" stroke-linecap="square"></line><svg x="-30" y="0" font-size="8" style="overflow:visible"><text transform="" x="-8" y="32.857142857142854" fill="#000" font-size="8" text-anchor="start"><tspan x="-8" dy="0em">100%</tspan></text></svg></g><line class="visx-line visx-axis-line" x1="0" y1="115.5" x2="0" y2="0.5" fill="transparent" shape-rendering="crispEdges" stroke="#222" stroke-width="0"></line></g><rect class="visx-bar" width="1450" height="115" fill="transparent"></rect><line class="visx-line" x1="942.5" y1="28" x2="942.5" y2="115" fill="transparent" shape-rendering="crispEdges" stroke="#0062D2" stroke-width="1" pointer-events="none" stroke-dasharray="5,2"></line><svg x="0" y="0" font-size="10px" style="overflow:visible"><text transform="" x="942.5" y="20" font-size="10px" fill="#fff" stroke="#fff" stroke-width="0.8em" text-anchor="middle"><tspan x="942.5" dy="0.355em">Optimal 65%</tspan></text></svg><svg x="0" y="0" font-size="10px" style="overflow:visible"><text transform="" x="942.5" y="20" font-size="10px" fill="#62677B" text-anchor="middle"><tspan x="942.5" dy="0.355em">Optimal 65%</tspan></text></svg></g></svg>