<?xml version="1.0"?><svg xmlns="http://www.w3.org/2000/svg" xmlns:xlink= "http://www.w3.org/1999/xlink" style="background: white;" width="1500" height="185"> <g style="color: black; font-size: 13px; font-family: sans-serif; transform: translate(18px, 25px);"><g><circle r="3" cx="-6" cy="-5" style="fill: #B6509E" /><text>Borrow APR, variable</text></g><g style="transform: translateX(150px);"><circle r="3" cx="-6" cy="-5" style="fill: rgb(231, 198, 223)" /><text>Borrow APR, stable</text></g><g style="transform: translateX(290px);"><circle r="3" cx="-6" cy="-5" style="fill: rgb(0, 98, 210)" /><text>Utilization Rate</text></g></g><g class="visx-group" transform="translate(40, 50)"><g class="visx-group visx-rows" transform="translate(0, 0)"><line class="visx-line" x1="0" y1="115" x2="1450" y2="115" fill="transparent" shape-rendering="crispEdges" stroke="#000" stroke-width="1" stroke-dasharray="3,3" pointer-events="none"></line><line class="visx-line" x1="0" y1="69" x2="1450" y2="69" fill="transparent" shape-rendering="crispEdges" stroke="#000" stroke-width="1" stroke-dasharray="3,3" pointer-events="none"></line><line class="visx-line" x1="0" y1="22.999999999999996" x2="1450" y2="22.999999999999996" fill="transparent" shape-rendering="crispEdges" stroke="#000" stroke-width="1" stroke-dasharray="3,3" pointer-events="none"></line></g><path class="visx-linepath" d="M0,114.99999999993C2.4166666666666665,114.9883333332925,4.833333333333334,114.976666666655,7.25,114.965C9.666666666666666,114.953333333345,12.083333333333334,114.94166666666666,14.5,114.92999999999999C16.916666666666668,114.91833333333332,19.333333333333332,114.90666666666668,21.75,114.89500000000001C24.166666666666668,114.88333333333334,26.583333333333332,114.87166666666667,29,114.86C31.416666666666668,114.84833333333333,33.833333333333336,114.83666666666667,36.25,114.825C38.666666666666664,114.81333333333333,41.083333333333336,114.80166666666666,43.5,114.78999999999999C45.91666666666667,114.77833333333332,48.333333333333336,114.76666666666668,50.75000000000001,114.75500000000001C53.16666666666667,114.74333333333334,55.583333333333336,114.73166666666667,58,114.72C60.416666666666664,114.70833333333333,62.833333333333336,114.69666666666667,65.25,114.685C67.66666666666667,114.67333333333333,70.08333333333333,114.66166666666666,72.5,114.64999999999999C74.91666666666667,114.63833333333332,77.33333333333333,114.62666666666668,79.75,114.61500000000001C82.16666666666667,114.60333333333334,84.58333333333333,114.59166666666667,87,114.58C89.41666666666667,114.56833333333333,91.83333333333333,114.55666666666667,94.25,114.545C96.66666666666667,114.53333333333333,99.08333333333334,114.52166666666666,101.50000000000001,114.50999999999999C103.91666666666667,114.49833333333332,106.33333333333334,114.48666666666668,108.75,114.47500000000001C111.16666666666667,114.46333333333334,113.58333333333333,114.45166666666667,116,114.44C118.41666666666667,114.42833333333333,120.83333333333334,114.41666666666667,123.25000000000001,114.405C125.66666666666667,114.39333333333333,128.08333333333334,114.38166666666666,130.5,114.36999999999999C132.91666666666666,114.35833333333332,135.33333333333334,114.34666666666666,137.75,114.335C140.16666666666666,114.32333333333332,142.58333333333334,114.31166666666667,145,114.3C147.41666666666666,114.28833333333333,149.83333333333334,114.27666666666667,152.25,114.265C154.66666666666666,114.25333333333333,157.08333333333334,114.24166666666667,159.5,114.23C161.91666666666666,114.21833333333333,164.33333333333334,114.20666666666666,166.75,114.195C169.16666666666666,114.18333333333332,171.58333333333334,114.17166666666668,174,114.16000000000001C176.41666666666666,114.14833333333334,178.83333333333334,114.13666666666667,181.25,114.125C183.66666666666666,114.11333333333333,186.08333333333334,114.10166666666667,188.5,114.09C190.91666666666666,114.07833333333333,193.33333333333334,114.06666666666666,195.75,114.05499999999999C198.16666666666669,114.04333333333332,200.58333333333334,114.03166666666668,203.00000000000003,114.02000000000001C205.41666666666669,114.00833333333334,207.83333333333331,113.99666666666667,210.24999999999997,113.985C212.66666666666666,113.97333333333333,215.08333333333331,113.96166666666667,217.5,113.95C219.91666666666666,113.93833333333333,222.33333333333334,113.92666666666666,224.75,113.91499999999999C227.16666666666666,113.90333333333332,229.58333333333334,113.89166666666668,232,113.88000000000001C234.41666666666666,113.86833333333334,236.83333333333334,113.85666666666667,239.25,113.845C241.66666666666669,113.83333333333333,244.08333333333334,113.82166666666667,246.50000000000003,113.81C248.91666666666669,113.79833333333333,251.33333333333331,113.78666666666666,253.74999999999997,113.77499999999999C256.16666666666663,113.76333333333332,258.5833333333333,113.75166666666667,261,113.74C263.4166666666667,113.72833333333332,265.8333333333333,113.71666666666667,268.25,113.705C270.6666666666667,113.69333333333333,273.0833333333333,113.68166666666667,275.5,113.67C277.9166666666667,113.65833333333333,280.3333333333333,113.64666666666666,282.75,113.63499999999999C285.1666666666667,113.62333333333332,287.5833333333333,113.61166666666666,290,113.6C292.4166666666667,113.58833333333332,294.8333333333333,113.57666666666667,297.25,113.565C299.6666666666667,113.55333333333333,302.0833333333333,113.54166666666667,304.5,113.53C306.9166666666667,113.51833333333333,309.3333333333333,113.50666666666667,311.75,113.495C314.1666666666667,113.48333333333333,316.5833333333333,113.47166666666666,319,113.46C321.4166666666667,113.44833333333332,323.8333333333333,113.43666666666668,326.25,113.42500000000001C328.6666666666667,113.41333333333334,331.0833333333333,113.41333333333334,333.5,113.39C335.9166666666667,113.36666666666666,338.3333333333333,112.97878787878788,340.75,112.77318181818183C343.1666666666667,112.56757575757577,345.5833333333333,112.3619696969697,348,112.15636363636364C350.4166666666667,111.95075757575758,352.8333333333333,111.74515151515152,355.25,111.53954545454546C357.6666666666667,111.3339393939394,360.0833333333333,111.12833333333333,362.5,110.92272727272727C364.9166666666667,110.71712121212121,367.3333333333333,110.51151515151514,369.75,110.30590909090908C372.1666666666667,110.10030303030302,374.5833333333333,109.89469696969697,377,109.68909090909091C379.4166666666667,109.48348484848485,381.8333333333333,109.27787878787878,384.25,109.07227272727272C386.6666666666667,108.86666666666666,389.0833333333333,108.6610606060606,391.5,108.45545454545454C393.9166666666667,108.24984848484848,396.33333333333337,108.04424242424243,398.75000000000006,107.83863636363637C401.16666666666674,107.63303030303031,403.58333333333337,107.42742424242424,406.00000000000006,107.22181818181818C408.4166666666667,107.01621212121212,410.8333333333333,106.81060606060606,413.24999999999994,106.605C415.66666666666663,106.39939393939395,418.08333333333326,106.19378787878787,420.49999999999994,105.98818181818181C422.91666666666663,105.78257575757576,425.3333333333333,105.57696969696968,427.75,105.37136363636363C430.1666666666667,105.16575757575757,432.5833333333333,104.96015151515151,435,104.75454545454545C437.4166666666667,104.54893939393939,439.8333333333333,104.34333333333333,442.25,104.13772727272728C444.6666666666667,103.93212121212122,447.0833333333333,103.72651515151514,449.5,103.52090909090909C451.9166666666667,103.31530303030303,454.3333333333333,103.10969696969697,456.75,102.90409090909091C459.1666666666667,102.69848484848485,461.5833333333333,102.4928787878788,464,102.28727272727274C466.4166666666667,102.08166666666668,468.8333333333333,101.87606060606059,471.25,101.67045454545453C473.6666666666667,101.46484848484847,476.0833333333333,101.25924242424242,478.5,101.05363636363636C480.9166666666667,100.8480303030303,483.33333333333337,100.64242424242424,485.75000000000006,100.43681818181818C488.16666666666674,100.23121212121212,490.58333333333337,100.02560606060605,493.00000000000006,99.82C495.4166666666667,99.61439393939393,497.8333333333333,99.40878787878788,500.24999999999994,99.20318181818182C502.66666666666663,98.99757575757576,505.08333333333326,98.7919696969697,507.49999999999994,98.58636363636364C509.91666666666663,98.38075757575758,512.3333333333333,98.17515151515151,514.75,97.96954545454545C517.1666666666666,97.7639393939394,519.5833333333334,97.55833333333334,522,97.35272727272728C524.4166666666666,97.14712121212122,526.8333333333334,96.94151515151516,529.25,96.7359090909091C531.6666666666666,96.53030303030305,534.0833333333334,96.32469696969696,536.5,96.1190909090909C538.9166666666666,95.91348484848484,541.3333333333334,95.70787878787878,543.75,95.50227272727273C546.1666666666666,95.29666666666667,548.5833333333334,95.09106060606061,551,94.88545454545455C553.4166666666666,94.67984848484849,555.8333333333334,94.47424242424242,558.25,94.26863636363636C560.6666666666666,94.0630303030303,563.0833333333334,93.85742424242424,565.5,93.65181818181819C567.9166666666666,93.44621212121213,570.3333333333334,93.24060606060605,572.75,93.035C575.1666666666666,92.82939393939394,577.5833333333334,92.62378787878787,580,92.41818181818181C582.4166666666666,92.21257575757575,584.8333333333334,92.00696969696969,587.25,91.80136363636363C589.6666666666666,91.59575757575757,592.0833333333334,91.39015151515152,594.5,91.18454545454546C596.9166666666666,90.9789393939394,599.3333333333334,90.77333333333333,601.75,90.56772727272727C604.1666666666666,90.36212121212121,606.5833333333334,90.15651515151515,609,89.9509090909091C611.4166666666666,89.74530303030303,613.8333333333334,89.53969696969698,616.25,89.33409090909092C618.6666666666666,89.12848484848486,621.0833333333334,88.92287878787877,623.5,88.71727272727271C625.9166666666666,88.51166666666666,628.3333333333334,88.30606060606061,630.75,88.10045454545455C633.1666666666666,87.8948484848485,635.5833333333334,87.68924242424242,638,87.48363636363636C640.4166666666666,87.2780303030303,642.8333333333334,87.07242424242423,645.25,86.86681818181818C647.6666666666666,86.66121212121212,650.0833333333334,86.45560606060606,652.5,86.25C654.9166666666666,86.04439393939394,657.3333333333334,85.83878787878788,659.75,85.63318181818182C662.1666666666666,85.42757575757577,664.5833333333334,85.2219696969697,667,85.01636363636364C669.4166666666666,84.81075757575758,671.8333333333334,84.6051515151515,674.25,84.39954545454545C676.6666666666666,84.19393939393939,679.0833333333334,83.98833333333334,681.5,83.78272727272729C683.9166666666666,83.57712121212123,686.3333333333334,83.37151515151514,688.75,83.16590909090908C691.1666666666666,82.96030303030302,693.5833333333334,82.75469696969697,696,82.5490909090909C698.4166666666666,82.34348484848485,700.8333333333334,82.13787878787879,703.25,81.93227272727273C705.6666666666666,81.72666666666667,708.0833333333334,81.52106060606059,710.5,81.31545454545453C712.9166666666666,81.10984848484847,715.3333333333334,80.90424242424243,717.75,80.69863636363637C720.1666666666666,80.49303030303031,722.5833333333334,80.28742424242424,725,80.08181818181818C727.4166666666666,79.87621212121212,729.8333333333334,79.67060606060606,732.25,79.465C734.6666666666666,79.25939393939395,737.0833333333334,79.05378787878787,739.5,78.84818181818181C741.9166666666666,78.64257575757576,744.3333333333334,78.4369696969697,746.75,78.23136363636364C749.1666666666666,78.02575757575758,751.5833333333334,77.82015151515151,754,77.61454545454545C756.4166666666666,77.40893939393939,758.8333333333334,77.20333333333332,761.25,76.99772727272726C763.6666666666666,76.7921212121212,766.0833333333334,76.58651515151516,768.5,76.3809090909091C770.9166666666666,76.17530303030304,773.3333333333334,75.96969696969695,775.75,75.7640909090909C778.1666666666666,75.55848484848484,780.5833333333334,75.3528787878788,783,75.14727272727274C785.4166666666667,74.94166666666668,787.8333333333334,74.7360606060606,790.2500000000001,74.53045454545455C792.6666666666667,74.32484848484849,795.0833333333335,74.11924242424243,797.5000000000001,73.91363636363637C799.9166666666667,73.70803030303031,802.3333333333335,73.50242424242424,804.7500000000001,73.29681818181818C807.1666666666667,73.09121212121212,809.5833333333335,72.88560606060607,812.0000000000001,72.68C814.4166666666667,72.47439393939395,816.8333333333333,72.26878787878788,819.2499999999999,72.06318181818182C821.6666666666665,71.85757575757576,824.0833333333333,71.6519696969697,826.4999999999999,71.44636363636364C828.9166666666665,71.24075757575758,831.3333333333333,71.03515151515153,833.7499999999999,70.82954545454547C836.1666666666665,70.62393939393941,838.5833333333333,70.41833333333332,840.9999999999999,70.21272727272726C843.4166666666666,70.0071212121212,845.8333333333333,69.80151515151516,848.25,69.5959090909091C850.6666666666666,69.39030303030304,853.0833333333334,69.18469696969697,855.5,68.97909090909091C857.9166666666666,68.77348484848486,860.3333333333334,68.56787878787878,862.75,68.36227272727272C865.1666666666666,68.15666666666667,867.5833333333334,67.95106060606061,870,67.74545454545455C872.4166666666666,67.53984848484849,874.8333333333334,67.33424242424242,877.25,67.12863636363636C879.6666666666666,66.9230303030303,882.0833333333334,66.71742424242423,884.5,66.51181818181817C886.9166666666666,66.30621212121211,889.3333333333334,66.10060606060607,891.75,65.89500000000001C894.1666666666666,65.68939393939395,896.5833333333334,65.48378787878788,899,65.27818181818182C901.4166666666666,65.07257575757576,903.8333333333334,64.86696969696969,906.25,64.66136363636363C908.6666666666666,64.45575757575757,911.0833333333334,64.25015151515152,913.5,64.04454545454546C915.9166666666666,63.8389393939394,918.3333333333334,63.63333333333333,920.75,63.427727272727275C923.1666666666666,63.222121212121216,925.5833333333334,63.01651515151515,928,62.81090909090909C930.4166666666666,62.605303030303034,932.8333333333334,62.399696969696976,935.25,62.19409090909092C937.6666666666666,61.98848484848486,940.0833333333334,61.782878787878786,942.5,61.57727272727272C944.9166666666666,61.371666666666655,947.3333333333334,61.1660606060606,949.75,60.96045454545454C952.1666666666666,60.75484848484848,954.5833333333334,60.54924242424242,957,60.343636363636364C959.4166666666666,60.138030303030305,961.8333333333334,59.932424242424226,964.25,59.72681818181817C966.6666666666667,59.5212121212121,969.0833333333334,59.31560606060606,971.5000000000001,59.11C973.9166666666667,58.90439393939394,976.3333333333335,58.69878787878787,978.7500000000001,58.49318181818181C981.1666666666667,58.28757575757575,983.5833333333335,58.0819696969697,986.0000000000001,57.87636363636364C988.4166666666667,57.670757575757584,990.8333333333335,57.465151515151526,993.2500000000001,57.25954545454546C995.6666666666667,57.0539393939394,998.0833333333333,56.84833333333333,1000.4999999999999,56.64272727272727C1002.9166666666665,56.437121212121205,1005.3333333333333,56.23151515151516,1007.7499999999999,56.0259090909091C1010.1666666666665,55.820303030303045,1012.5833333333333,55.61469696969698,1014.9999999999999,55.40909090909092C1017.4166666666665,55.20348484848486,1019.8333333333333,54.99787878787879,1022.2499999999999,54.79227272727273C1024.6666666666665,54.586666666666666,1027.0833333333333,54.381060606060615,1029.5,54.17545454545455C1031.9166666666667,53.96984848484849,1034.3333333333333,53.764242424242425,1036.75,53.55863636363637C1039.1666666666667,53.35303030303031,1041.5833333333333,53.14742424242424,1044,52.941818181818185C1046.4166666666667,52.73621212121213,1048.8333333333333,52.530606060606054,1051.25,52.324999999999996C1053.6666666666667,52.11939393939394,1056.0833333333333,51.91378787878787,1058.5,51.708181818181814C1060.9166666666667,51.502575757575755,1063.3333333333333,51.2969696969697,1065.75,51.09136363636364C1068.1666666666667,50.88575757575758,1070.5833333333333,50.680151515151515,1073,50.474545454545456C1075.4166666666667,50.2689393939394,1077.8333333333333,50.06333333333333,1080.25,49.857727272727274C1082.6666666666667,49.652121212121216,1085.0833333333333,49.44651515151515,1087.5,49.24090909090909C1089.9166666666667,49.035303030303034,1092.3333333333333,48.829696969696975,1094.75,48.62409090909092C1097.1666666666667,48.41848484848486,1099.5833333333333,48.21287878787879,1102,48.007272727272735C1104.4166666666667,47.80166666666668,1106.8333333333333,47.59606060606061,1109.25,47.39045454545455C1111.6666666666667,47.184848484848494,1114.0833333333333,46.97924242424242,1116.5,46.77363636363636C1118.9166666666667,46.568030303030305,1121.3333333333333,46.36242424242424,1123.75,46.15681818181818C1126.1666666666667,45.95121212121212,1128.5833333333333,45.74560606060606,1131,45.54C1133.4166666666667,45.33439393939394,1135.8333333333333,45.12878787878788,1138.25,44.923181818181824C1140.6666666666667,44.717575757575766,1143.0833333333333,44.511969696969686,1145.5,44.30636363636363C1147.9166666666667,44.10075757575757,1150.3333333333333,43.89515151515151,1152.75,43.68954545454545C1155.1666666666667,43.483939393939394,1157.5833333333333,43.27833333333333,1160,43.07272727272727C1162.4166666666667,42.86712121212121,1164.8333333333333,42.66151515151515,1167.25,42.45590909090909C1169.6666666666667,42.25030303030303,1172.0833333333333,42.04469696969696,1174.5,41.8390909090909C1176.9166666666667,41.63348484848484,1179.3333333333333,41.42787878787879,1181.75,41.22227272727273C1184.1666666666667,41.01666666666667,1186.5833333333333,40.81106060606061,1189,40.60545454545455C1191.4166666666667,40.39984848484849,1193.8333333333333,40.194242424242425,1196.25,39.98863636363637C1198.6666666666667,39.78303030303031,1201.0833333333333,39.57742424242425,1203.5,39.37181818181819C1205.9166666666667,39.16621212121213,1208.3333333333333,38.96060606060606,1210.75,38.754999999999995C1213.1666666666667,38.54939393939393,1215.5833333333333,38.34378787878787,1218,38.13818181818181C1220.4166666666667,37.932575757575755,1222.8333333333333,37.7269696969697,1225.25,37.52136363636364C1227.6666666666667,37.31575757575758,1230.0833333333333,37.11015151515152,1232.5,36.904545454545456C1234.9166666666667,36.69893939393939,1237.3333333333333,36.49333333333332,1239.75,36.28772727272726C1242.1666666666667,36.0821212121212,1244.5833333333333,35.87651515151514,1247,35.670909090909085C1249.4166666666667,35.465303030303026,1251.8333333333333,35.25969696969696,1254.25,35.0540909090909C1256.6666666666667,34.848484848484844,1259.0833333333333,34.64287878787878,1261.5,34.43727272727272C1263.9166666666667,34.23166666666666,1266.3333333333333,34.02606060606059,1268.75,33.82045454545453C1271.1666666666667,33.61484848484847,1273.5833333333333,33.40924242424242,1276,33.20363636363636C1278.4166666666667,32.998030303030305,1280.8333333333333,32.79242424242424,1283.25,32.58681818181818C1285.6666666666667,32.38121212121212,1288.0833333333333,32.175606060606064,1290.5,31.970000000000002C1292.9166666666667,31.764393939393944,1295.3333333333333,31.558787878787886,1297.75,31.353181818181824C1300.1666666666667,31.147575757575762,1302.5833333333333,30.941969696969693,1305,30.73636363636363C1307.4166666666667,30.53075757575757,1309.8333333333333,30.325151515151507,1312.25,30.11954545454545C1314.6666666666667,29.91393939393939,1317.0833333333333,29.70833333333333,1319.5,29.50272727272727C1321.9166666666667,29.297121212121212,1324.3333333333333,29.09151515151515,1326.75,28.885909090909088C1329.1666666666667,28.680303030303026,1331.5833333333333,28.47469696969696,1334,28.2690909090909C1336.4166666666667,28.063484848484837,1338.8333333333333,27.857878787878775,1341.25,27.652272727272717C1343.6666666666667,27.44666666666666,1346.0833333333333,27.241060606060596,1348.5,27.035454545454538C1350.9166666666667,26.82984848484848,1353.3333333333333,26.62424242424243,1355.75,26.41863636363637C1358.1666666666667,26.213030303030312,1360.5833333333333,26.00742424242424,1363,25.801818181818177C1365.4166666666667,25.596212121212115,1367.8333333333333,25.390606060606054,1370.25,25.184999999999995C1372.6666666666667,24.979393939393937,1375.0833333333333,24.773787878787875,1377.5,24.568181818181817C1379.9166666666667,24.362575757575758,1382.3333333333333,24.156969696969696,1384.75,23.951363636363638C1387.1666666666667,23.74575757575758,1389.5833333333333,23.540151515151518,1392,23.334545454545456C1394.4166666666667,23.128939393939394,1396.8333333333333,22.92333333333332,1399.25,22.717727272727263C1401.6666666666667,22.512121212121205,1404.0833333333333,22.306515151515153,1406.5,22.100909090909095C1408.9166666666667,21.895303030303037,1411.3333333333333,21.689696969696975,1413.75,21.484090909090916C1416.1666666666667,21.278484848484858,1418.5833333333333,21.0728787878788,1421,20.867272727272738C1423.4166666666667,20.661666666666676,1425.8333333333333,20.456060606060607,1428.25,20.250454545454545C1430.6666666666667,20.044848484848483,1433.0833333333333,19.83924242424242,1435.5,19.633636363636363C1437.9166666666667,19.428030303030305,1440.3333333333333,19.222424242424243,1442.75,19.016818181818184C1445.1666666666667,18.811212121212126,1447.5833333333333,18.605606060606064,1450,18.400000000000002" fill="transparent" stroke-linecap="round" stroke="#B6509E" stroke-width="2"></path><path class="visx-linepath" d="M0,112.69999999998001C2.4166666666666665,112.696666666655,4.833333333333334,112.69333333333002,7.25,112.69000000000001C9.666666666666666,112.68666666667,12.083333333333334,112.68333333333332,14.5,112.67999999999999C16.916666666666668,112.67666666666666,19.333333333333332,112.67333333333332,21.75,112.66999999999999C24.166666666666668,112.66666666666666,26.583333333333332,112.66333333333333,29,112.66C31.416666666666668,112.65666666666667,33.833333333333336,112.65333333333332,36.25,112.64999999999999C38.666666666666664,112.64666666666666,41.083333333333336,112.64333333333333,43.5,112.64C45.91666666666667,112.63666666666667,48.333333333333336,112.63333333333333,50.75000000000001,112.63C53.16666666666667,112.62666666666667,55.583333333333336,112.62333333333333,58,112.62C60.416666666666664,112.61666666666667,62.833333333333336,112.61333333333333,65.25,112.61C67.66666666666667,112.60666666666667,70.08333333333333,112.60333333333332,72.5,112.6C74.91666666666667,112.59666666666666,77.33333333333333,112.59333333333333,79.75,112.59C82.16666666666667,112.58666666666667,84.58333333333333,112.58333333333333,87,112.58C89.41666666666667,112.57666666666667,91.83333333333333,112.57333333333334,94.25,112.57000000000001C96.66666666666667,112.56666666666668,99.08333333333334,112.56333333333333,101.50000000000001,112.56C103.91666666666667,112.55666666666667,106.33333333333334,112.55333333333333,108.75,112.55C111.16666666666667,112.54666666666667,113.58333333333333,112.54333333333332,116,112.53999999999999C118.41666666666667,112.53666666666666,120.83333333333334,112.53333333333333,123.25000000000001,112.53C125.66666666666667,112.52666666666667,128.08333333333334,112.52333333333333,130.5,112.52C132.91666666666666,112.51666666666667,135.33333333333334,112.51333333333332,137.75,112.50999999999999C140.16666666666666,112.50666666666666,142.58333333333334,112.50333333333333,145,112.5C147.41666666666666,112.49666666666667,149.83333333333334,112.49333333333333,152.25,112.49C154.66666666666666,112.48666666666666,157.08333333333334,112.48333333333333,159.5,112.48C161.91666666666666,112.47666666666667,164.33333333333334,112.47333333333333,166.75,112.47C169.16666666666666,112.46666666666667,171.58333333333334,112.46333333333334,174,112.46000000000001C176.41666666666666,112.45666666666668,178.83333333333334,112.45333333333333,181.25,112.45C183.66666666666666,112.44666666666667,186.08333333333334,112.44333333333334,188.5,112.44000000000001C190.91666666666666,112.43666666666668,193.33333333333334,112.43333333333334,195.75,112.43C198.16666666666669,112.42666666666668,200.58333333333334,112.42333333333333,203.00000000000003,112.42C205.41666666666669,112.41666666666667,207.83333333333331,112.41333333333333,210.24999999999997,112.41C212.66666666666666,112.40666666666667,215.08333333333331,112.40333333333332,217.5,112.39999999999999C219.91666666666666,112.39666666666666,222.33333333333334,112.39333333333333,224.75,112.39C227.16666666666666,112.38666666666667,229.58333333333334,112.38333333333333,232,112.38C234.41666666666666,112.37666666666667,236.83333333333334,112.37333333333333,239.25,112.37C241.66666666666669,112.36666666666667,244.08333333333334,112.36333333333333,246.50000000000003,112.36C248.91666666666669,112.35666666666667,251.33333333333331,112.35333333333332,253.74999999999997,112.35C256.16666666666663,112.34666666666666,258.5833333333333,112.34333333333333,261,112.34C263.4166666666667,112.33666666666667,265.8333333333333,112.33333333333333,268.25,112.33C270.6666666666667,112.32666666666667,273.0833333333333,112.32333333333334,275.5,112.32000000000001C277.9166666666667,112.31666666666668,280.3333333333333,112.31333333333333,282.75,112.31C285.1666666666667,112.30666666666667,287.5833333333333,112.30333333333334,290,112.30000000000001C292.4166666666667,112.29666666666668,294.8333333333333,112.29333333333334,297.25,112.29C299.6666666666667,112.28666666666668,302.0833333333333,112.28333333333333,304.5,112.28C306.9166666666667,112.27666666666667,309.3333333333333,112.27333333333333,311.75,112.27C314.1666666666667,112.26666666666667,316.5833333333333,112.26333333333332,319,112.25999999999999C321.4166666666667,112.25666666666666,323.8333333333333,112.25333333333333,326.25,112.25C328.6666666666667,112.24666666666667,331.0833333333333,112.24666666666667,333.5,112.24C335.9166666666667,112.23333333333332,338.3333333333333,112.16532467532467,340.75,112.127987012987C343.1666666666667,112.09064935064934,345.5833333333333,112.0533116883117,348,112.01597402597403C350.4166666666667,111.97863636363637,352.8333333333333,111.9412987012987,355.25,111.90396103896104C357.6666666666667,111.86662337662338,360.0833333333333,111.82928571428572,362.5,111.79194805194805C364.9166666666667,111.75461038961039,367.3333333333333,111.71727272727273,369.75,111.67993506493507C372.1666666666667,111.6425974025974,374.5833333333333,111.60525974025974,377,111.56792207792208C379.4166666666667,111.53058441558441,381.8333333333333,111.49324675324675,384.25,111.45590909090909C386.6666666666667,111.41857142857143,389.0833333333333,111.38123376623376,391.5,111.3438961038961C393.9166666666667,111.30655844155844,396.33333333333337,111.26922077922077,398.75000000000006,111.23188311688311C401.16666666666674,111.19454545454545,403.58333333333337,111.1572077922078,406.00000000000006,111.11987012987014C408.4166666666667,111.08253246753247,410.8333333333333,111.04519480519481,413.24999999999994,111.00785714285715C415.66666666666663,110.97051948051949,418.08333333333326,110.93318181818182,420.49999999999994,110.89584415584416C422.91666666666663,110.8585064935065,425.3333333333333,110.82116883116883,427.75,110.78383116883117C430.1666666666667,110.74649350649351,432.5833333333333,110.70915584415584,435,110.67181818181818C437.4166666666667,110.63448051948052,439.8333333333333,110.59714285714286,442.25,110.5598051948052C444.6666666666667,110.52246753246753,447.0833333333333,110.48512987012987,449.5,110.4477922077922C451.9166666666667,110.41045454545454,454.3333333333333,110.37311688311688,456.75,110.33577922077922C459.1666666666667,110.29844155844155,461.5833333333333,110.26110389610389,464,110.22376623376623C466.4166666666667,110.18642857142856,468.8333333333333,110.14909090909092,471.25,110.11175324675325C473.6666666666667,110.07441558441559,476.0833333333333,110.03707792207793,478.5,109.99974025974026C480.9166666666667,109.9624025974026,483.33333333333337,109.92506493506494,485.75000000000006,109.88772727272728C488.16666666666674,109.85038961038961,490.58333333333337,109.81305194805195,493.00000000000006,109.77571428571429C495.4166666666667,109.73837662337662,497.8333333333333,109.70103896103896,500.24999999999994,109.6637012987013C502.66666666666663,109.62636363636364,505.08333333333326,109.58902597402597,507.49999999999994,109.55168831168831C509.91666666666663,109.51435064935065,512.3333333333333,109.47701298701298,514.75,109.43967532467532C517.1666666666666,109.40233766233766,519.5833333333334,109.365,522,109.32766233766233C524.4166666666666,109.29032467532467,526.8333333333334,109.25298701298702,529.25,109.21564935064936C531.6666666666666,109.1783116883117,534.0833333333334,109.14097402597403,536.5,109.10363636363637C538.9166666666666,109.0662987012987,541.3333333333334,109.02896103896104,543.75,108.99162337662338C546.1666666666666,108.95428571428572,548.5833333333334,108.91694805194804,551,108.87961038961038C553.4166666666666,108.84227272727271,555.8333333333334,108.80493506493507,558.25,108.7675974025974C560.6666666666666,108.73025974025974,563.0833333333334,108.69292207792208,565.5,108.65558441558441C567.9166666666666,108.61824675324675,570.3333333333334,108.58090909090909,572.75,108.54357142857143C575.1666666666666,108.50623376623376,577.5833333333334,108.4688961038961,580,108.43155844155844C582.4166666666666,108.39422077922077,584.8333333333334,108.35688311688313,587.25,108.31954545454546C589.6666666666666,108.2822077922078,592.0833333333334,108.24487012987014,594.5,108.20753246753247C596.9166666666666,108.17019480519481,599.3333333333334,108.13285714285715,601.75,108.09551948051949C604.1666666666666,108.05818181818182,606.5833333333334,108.02084415584416,609,107.9835064935065C611.4166666666666,107.94616883116883,613.8333333333334,107.90883116883117,616.25,107.87149350649351C618.6666666666666,107.83415584415584,621.0833333333334,107.79681818181818,623.5,107.75948051948052C625.9166666666666,107.72214285714286,628.3333333333334,107.6848051948052,630.75,107.64746753246753C633.1666666666666,107.61012987012987,635.5833333333334,107.5727922077922,638,107.53545454545454C640.4166666666666,107.49811688311688,642.8333333333334,107.46077922077922,645.25,107.42344155844155C647.6666666666666,107.38610389610389,650.0833333333334,107.34876623376624,652.5,107.31142857142858C654.9166666666666,107.27409090909092,657.3333333333334,107.23675324675325,659.75,107.19941558441559C662.1666666666666,107.16207792207793,664.5833333333334,107.12474025974026,667,107.0874025974026C669.4166666666666,107.05006493506494,671.8333333333334,107.01272727272728,674.25,106.97538961038961C676.6666666666666,106.93805194805195,679.0833333333334,106.90071428571429,681.5,106.86337662337662C683.9166666666666,106.82603896103896,686.3333333333334,106.7887012987013,688.75,106.75136363636364C691.1666666666666,106.71402597402597,693.5833333333334,106.67668831168831,696,106.63935064935065C698.4166666666666,106.60201298701298,700.8333333333334,106.56467532467532,703.25,106.52733766233766C705.6666666666666,106.49,708.0833333333334,106.45266233766235,710.5,106.41532467532468C712.9166666666666,106.37798701298702,715.3333333333334,106.34064935064936,717.75,106.3033116883117C720.1666666666666,106.26597402597403,722.5833333333334,106.22863636363637,725,106.1912987012987C727.4166666666666,106.15396103896104,729.8333333333334,106.11662337662337,732.25,106.0792857142857C734.6666666666666,106.04194805194804,737.0833333333334,106.00461038961039,739.5,105.96727272727273C741.9166666666666,105.92993506493507,744.3333333333334,105.8925974025974,746.75,105.85525974025974C749.1666666666666,105.81792207792208,751.5833333333334,105.78058441558441,754,105.74324675324675C756.4166666666666,105.70590909090909,758.8333333333334,105.66857142857143,761.25,105.63123376623376C763.6666666666666,105.5938961038961,766.0833333333334,105.55655844155844,768.5,105.51922077922077C770.9166666666666,105.48188311688311,773.3333333333334,105.44454545454546,775.75,105.4072077922078C778.1666666666666,105.36987012987014,780.5833333333334,105.33253246753246,783,105.2951948051948C785.4166666666667,105.25785714285713,787.8333333333334,105.22051948051949,790.2500000000001,105.18318181818182C792.6666666666667,105.14584415584416,795.0833333333335,105.10850649350648,797.5000000000001,105.07116883116882C799.9166666666667,105.03383116883116,802.3333333333335,104.99649350649351,804.7500000000001,104.95915584415584C807.1666666666667,104.92181818181818,809.5833333333335,104.88448051948052,812.0000000000001,104.84714285714286C814.4166666666667,104.8098051948052,816.8333333333333,104.77246753246753,819.2499999999999,104.73512987012987C821.6666666666665,104.6977922077922,824.0833333333333,104.66045454545454,826.4999999999999,104.62311688311688C828.9166666666665,104.58577922077922,831.3333333333333,104.54844155844157,833.7499999999999,104.5111038961039C836.1666666666665,104.47376623376624,838.5833333333333,104.43642857142858,840.9999999999999,104.39909090909092C843.4166666666666,104.36175324675325,845.8333333333333,104.32441558441558,848.25,104.28707792207791C850.6666666666666,104.24974025974025,853.0833333333334,104.21240259740259,855.5,104.17506493506492C857.9166666666666,104.13772727272726,860.3333333333334,104.10038961038961,862.75,104.06305194805195C865.1666666666666,104.02571428571429,867.5833333333334,103.98837662337662,870,103.95103896103896C872.4166666666666,103.9137012987013,874.8333333333334,103.87636363636364,877.25,103.83902597402597C879.6666666666666,103.80168831168831,882.0833333333334,103.76435064935065,884.5,103.72701298701298C886.9166666666666,103.68967532467532,889.3333333333334,103.65233766233767,891.75,103.61500000000001C894.1666666666666,103.57766233766235,896.5833333333334,103.54032467532468,899,103.50298701298702C901.4166666666666,103.46564935064936,903.8333333333334,103.4283116883117,906.25,103.39097402597403C908.6666666666666,103.35363636363637,911.0833333333334,103.31629870129869,913.5,103.27896103896103C915.9166666666666,103.24162337662337,918.3333333333334,103.20428571428572,920.75,103.16694805194805C923.1666666666666,103.12961038961039,925.5833333333334,103.09227272727273,928,103.05493506493507C930.4166666666666,103.0175974025974,932.8333333333334,102.98025974025974,935.25,102.94292207792208C937.6666666666666,102.90558441558441,940.0833333333334,102.86824675324675,942.5,102.83090909090909C944.9166666666666,102.79357142857143,947.3333333333334,102.75623376623376,949.75,102.7188961038961C952.1666666666666,102.68155844155844,954.5833333333334,102.64422077922079,957,102.60688311688313C959.4166666666666,102.56954545454546,961.8333333333334,102.5322077922078,964.25,102.49487012987014C966.6666666666667,102.45753246753247,969.0833333333334,102.4201948051948,971.5000000000001,102.38285714285713C973.9166666666667,102.34551948051947,976.3333333333335,102.30818181818181,978.7500000000001,102.27084415584415C981.1666666666667,102.23350649350648,983.5833333333335,102.19616883116883,986.0000000000001,102.15883116883117C988.4166666666667,102.12149350649351,990.8333333333335,102.08415584415584,993.2500000000001,102.04681818181818C995.6666666666667,102.00948051948052,998.0833333333333,101.97214285714286,1000.4999999999999,101.9348051948052C1002.9166666666665,101.89746753246753,1005.3333333333333,101.86012987012987,1007.7499999999999,101.8227922077922C1010.1666666666665,101.78545454545454,1012.5833333333333,101.7481168831169,1014.9999999999999,101.71077922077923C1017.4166666666665,101.67344155844157,1019.8333333333333,101.6361038961039,1022.2499999999999,101.59876623376624C1024.6666666666665,101.56142857142858,1027.0833333333333,101.5240909090909,1029.5,101.48675324675324C1031.9166666666667,101.44941558441558,1034.3333333333333,101.41207792207791,1036.75,101.37474025974025C1039.1666666666667,101.33740259740259,1041.5833333333333,101.30006493506494,1044,101.26272727272728C1046.4166666666667,101.22538961038961,1048.8333333333333,101.18805194805195,1051.25,101.15071428571429C1053.6666666666667,101.11337662337662,1056.0833333333333,101.07603896103896,1058.5,101.0387012987013C1060.9166666666667,101.00136363636364,1063.3333333333333,100.96402597402597,1065.75,100.92668831168831C1068.1666666666667,100.88935064935065,1070.5833333333333,100.852012987013,1073,100.81467532467533C1075.4166666666667,100.77733766233767,1077.8333333333333,100.74000000000001,1080.25,100.70266233766235C1082.6666666666667,100.66532467532468,1085.0833333333333,100.62798701298702,1087.5,100.59064935064936C1089.9166666666667,100.5533116883117,1092.3333333333333,100.51597402597402,1094.75,100.47863636363635C1097.1666666666667,100.44129870129869,1099.5833333333333,100.40396103896104,1102,100.36662337662338C1104.4166666666667,100.32928571428572,1106.8333333333333,100.29194805194805,1109.25,100.25461038961039C1111.6666666666667,100.21727272727273,1114.0833333333333,100.17993506493507,1116.5,100.1425974025974C1118.9166666666667,100.10525974025974,1121.3333333333333,100.06792207792208,1123.75,100.03058441558441C1126.1666666666667,99.99324675324675,1128.5833333333333,99.95590909090909,1131,99.91857142857143C1133.4166666666667,99.88123376623376,1135.8333333333333,99.84389610389611,1138.25,99.80655844155845C1140.6666666666667,99.76922077922079,1143.0833333333333,99.73188311688311,1145.5,99.69454545454545C1147.9166666666667,99.65720779220779,1150.3333333333333,99.61987012987012,1152.75,99.58253246753246C1155.1666666666667,99.5451948051948,1157.5833333333333,99.50785714285713,1160,99.47051948051947C1162.4166666666667,99.43318181818181,1164.8333333333333,99.39584415584416,1167.25,99.3585064935065C1169.6666666666667,99.32116883116883,1172.0833333333333,99.28383116883117,1174.5,99.24649350649351C1176.9166666666667,99.20915584415584,1179.3333333333333,99.17181818181818,1181.75,99.13448051948052C1184.1666666666667,99.09714285714286,1186.5833333333333,99.0598051948052,1189,99.02246753246753C1191.4166666666667,98.98512987012987,1193.8333333333333,98.94779220779222,1196.25,98.91045454545456C1198.6666666666667,98.8731168831169,1201.0833333333333,98.83577922077923,1203.5,98.79844155844157C1205.9166666666667,98.7611038961039,1208.3333333333333,98.72376623376623,1210.75,98.68642857142856C1213.1666666666667,98.6490909090909,1215.5833333333333,98.61175324675324,1218,98.57441558441558C1220.4166666666667,98.53707792207791,1222.8333333333333,98.49974025974026,1225.25,98.4624025974026C1227.6666666666667,98.42506493506494,1230.0833333333333,98.38772727272728,1232.5,98.35038961038961C1234.9166666666667,98.31305194805195,1237.3333333333333,98.27571428571429,1239.75,98.23837662337662C1242.1666666666667,98.20103896103896,1244.5833333333333,98.1637012987013,1247,98.12636363636364C1249.4166666666667,98.08902597402597,1251.8333333333333,98.05168831168831,1254.25,98.01435064935065C1256.6666666666667,97.97701298701298,1259.0833333333333,97.93967532467532,1261.5,97.90233766233766C1263.9166666666667,97.865,1266.3333333333333,97.82766233766235,1268.75,97.79032467532468C1271.1666666666667,97.75298701298702,1273.5833333333333,97.71564935064934,1276,97.67831168831168C1278.4166666666667,97.64097402597402,1280.8333333333333,97.60363636363635,1283.25,97.56629870129869C1285.6666666666667,97.52896103896103,1288.0833333333333,97.49162337662338,1290.5,97.45428571428572C1292.9166666666667,97.41694805194805,1295.3333333333333,97.37961038961039,1297.75,97.34227272727273C1300.1666666666667,97.30493506493507,1302.5833333333333,97.2675974025974,1305,97.23025974025974C1307.4166666666667,97.19292207792208,1309.8333333333333,97.15558441558441,1312.25,97.11824675324675C1314.6666666666667,97.08090909090909,1317.0833333333333,97.04357142857144,1319.5,97.00623376623378C1321.9166666666667,96.96889610389611,1324.3333333333333,96.93155844155844,1326.75,96.89422077922077C1329.1666666666667,96.85688311688311,1331.5833333333333,96.81954545454545,1334,96.78220779220779C1336.4166666666667,96.74487012987012,1338.8333333333333,96.70753246753246,1341.25,96.6701948051948C1343.6666666666667,96.63285714285713,1346.0833333333333,96.59551948051949,1348.5,96.55818181818182C1350.9166666666667,96.52084415584416,1353.3333333333333,96.4835064935065,1355.75,96.44616883116883C1358.1666666666667,96.40883116883117,1360.5833333333333,96.37149350649351,1363,96.33415584415584C1365.4166666666667,96.29681818181818,1367.8333333333333,96.25948051948052,1370.25,96.22214285714286C1372.6666666666667,96.1848051948052,1375.0833333333333,96.14746753246754,1377.5,96.11012987012988C1379.9166666666667,96.07279220779222,1382.3333333333333,96.03545454545456,1384.75,95.9981168831169C1387.1666666666667,95.96077922077923,1389.5833333333333,95.92344155844155,1392,95.88610389610389C1394.4166666666667,95.84876623376623,1396.8333333333333,95.81142857142856,1399.25,95.7740909090909C1401.6666666666667,95.73675324675324,1404.0833333333333,95.69941558441559,1406.5,95.66207792207793C1408.9166666666667,95.62474025974026,1411.3333333333333,95.5874025974026,1413.75,95.55006493506494C1416.1666666666667,95.51272727272728,1418.5833333333333,95.47538961038961,1421,95.43805194805195C1423.4166666666667,95.40071428571429,1425.8333333333333,95.36337662337662,1428.25,95.32603896103896C1430.6666666666667,95.2887012987013,1433.0833333333333,95.25136363636364,1435.5,95.21402597402597C1437.9166666666667,95.17668831168831,1440.3333333333333,95.13935064935065,1442.75,95.10201298701298C1445.1666666666667,95.06467532467532,1447.5833333333333,95.02733766233767,1450,94.99000000000001" fill="transparent" stroke-linecap="round" stroke="#E7C6DF" stroke-width="2"></path><g class="visx-group visx-axis visx-axis-bottom" transform="translate(0, 115)"><g class="visx-group visx-axis-tick" transform="translate(0, 0)"><line class="visx-line" x1="0" y1="0" x2="0" y2="8" fill="transparent" shape-rendering="crispEdges" stroke="#000" stroke-width="0" stroke-linecap="square"></line><svg x="0" y="0" font-size="10" style="overflow:visible"><text transform="" x="0" y="18" fill="#000" font-size="10" text-anchor="middle"><tspan x="0" dy="0em">0%</tspan></text></svg></g><g class="visx-group visx-axis-tick" transform="translate(0, 0)"><line class="visx-line" x1="362.5" y1="0" x2="362.5" y2="8" fill="transparent" shape-rendering="crispEdges" stroke="#000" stroke-width="0" stroke-linecap="square"></line><svg x="0" y="0" font-size="10" style="overflow:visible"><text transform="" x="362.5" y="18" fill="#000" font-size="10" text-anchor="middle"><tspan x="362.5" dy="0em">25%</tspan></text></svg></g><g class="visx-group visx-axis-tick" transform="translate(0, 0)"><line class="visx-line" x1="725" y1="0" x2="725" y2="8" fill="transparent" shape-rendering="crispEdges" stroke="#000" stroke-width="0" stroke-linecap="square"></line><svg x="0" y="0" font-size="10" style="overflow:visible"><text transform="" x="725" y="18" fill="#000" font-size="10" text-anchor="middle"><tspan x="725" dy="0em">50%</tspan></text></svg></g><g class="visx-group visx-axis-tick" transform="translate(0, 0)"><line class="visx-line" x1="1087.5" y1="0" x2="1087.5" y2="8" fill="transparent" shape-rendering="crispEdges" stroke="#000" stroke-width="0" stroke-linecap="square"></line><svg x="0" y="0" font-size="10" style="overflow:visible"><text transform="" x="1087.5" y="18" fill="#000" font-size="10" text-anchor="middle"><tspan x="1087.5" dy="0em">75%</tspan></text></svg></g><g class="visx-group visx-axis-tick" transform="translate(0, 0)"><line class="visx-line" x1="1450" y1="0" x2="1450" y2="8" fill="transparent" shape-rendering="crispEdges" stroke="#000" stroke-width="0" stroke-linecap="square"></line><svg x="0" y="0" font-size="10" style="overflow:visible"><text transform="" x="1450" y="18" fill="#000" font-size="10" text-anchor="middle"><tspan x="1450" dy="0em">100%</tspan></text></svg></g><line class="visx-line visx-axis-line" x1="0.5" y1="0" x2="1450.5" y2="0" fill="transparent" shape-rendering="crispEdges" stroke="#222" stroke-width="0"></line></g><g class="visx-group visx-axis visx-axis-left" transform="translate(0, 0)"><g class="visx-group visx-axis-tick" transform="translate(0, 0)"><line class="visx-line" x1="0" y1="115" x2="-8" y2="115" fill="transparent" shape-rendering="crispEdges" stroke="#222" stroke-width="0" stroke-linecap="square"></line><svg x="-30" y="0" font-size="8" style="overflow:visible"><text transform="" x="-8" y="115" fill="#000" font-size="8" text-anchor="start"><tspan x="-8" dy="0em">0%</tspan></text></svg></g><g class="visx-group visx-axis-tick" transform="translate(0, 0)"><line class="visx-line" x1="0" y1="69" x2="-8" y2="69" fill="transparent" shape-rendering="crispEdges" stroke="#222" stroke-width="0" stroke-linecap="square"></line><svg x="-30" y="0" font-size="8" style="overflow:visible"><text transform="" x="-8" y="69" fill="#000" font-size="8" text-anchor="start"><tspan x="-8" dy="0em">200%</tspan></text></svg></g><g class="visx-group visx-axis-tick" transform="translate(0, 0)"><line class="visx-line" x1="0" y1="22.999999999999996" x2="-8" y2="22.999999999999996" fill="transparent" shape-rendering="crispEdges" stroke="#222" stroke-width="0" stroke-linecap="square"></line><svg x="-30" y="0" font-size="8" style="overflow:visible"><text transform="" x="-8" y="22.999999999999996" fill="#000" font-size="8" text-anchor="start"><tspan x="-8" dy="0em">400%</tspan></text></svg></g><line class="visx-line visx-axis-line" x1="0" y1="115.5" x2="0" y2="0.5" fill="transparent" shape-rendering="crispEdges" stroke="#222" stroke-width="0"></line></g><rect class="visx-bar" width="1450" height="115" fill="transparent"></rect><line class="visx-line" x1="333.5" y1="28" x2="333.5" y2="115" fill="transparent" shape-rendering="crispEdges" stroke="#0062D2" stroke-width="1" pointer-events="none" stroke-dasharray="5,2"></line><svg x="0" y="0" font-size="10px" style="overflow:visible"><text transform="" x="333.5" y="20" font-size="10px" fill="#fff" stroke="#fff" stroke-width="0.8em" text-anchor="middle"><tspan x="333.5" dy="0.355em">Optimal 23%</tspan></text></svg><svg x="0" y="0" font-size="10px" style="overflow:visible"><text transform="" x="333.5" y="20" font-size="10px" fill="#62677B" text-anchor="middle"><tspan x="333.5" dy="0.355em">Optimal 23%</tspan></text></svg></g></svg>