<?xml version="1.0"?><svg xmlns="http://www.w3.org/2000/svg" xmlns:xlink= "http://www.w3.org/1999/xlink" style="background: white;" width="1500" height="300"> <g style="color: black; font-size: 13px; font-family: sans-serif; transform: translate(18px, 25px);"><g><circle r="3" cx="-6" cy="-5" style="fill: #1AD4B3" /><text>Borrow APR, variable</text></g><g style="transform: translateX(150px);"><circle r="3" cx="-6" cy="-5" style="fill: #101423" /><text>Borrow APR, stable</text></g></g><g class="visx-group" transform="translate(45, 50)"><g class="visx-group visx-rows" transform="translate(0, 0)"><line class="visx-line" x1="0" y1="155" x2="1425" y2="155" fill="transparent" shape-rendering="crispEdges" stroke="#F2F0F9" stroke-width="1" pointer-events="none"></line><line class="visx-line" x1="0" y1="110.71428571428572" x2="1425" y2="110.71428571428572" fill="transparent" shape-rendering="crispEdges" stroke="#F2F0F9" stroke-width="1" pointer-events="none"></line><line class="visx-line" x1="0" y1="66.42857142857143" x2="1425" y2="66.42857142857143" fill="transparent" shape-rendering="crispEdges" stroke="#F2F0F9" stroke-width="1" pointer-events="none"></line><line class="visx-line" x1="0" y1="22.14285714285715" x2="1425" y2="22.14285714285715" fill="transparent" shape-rendering="crispEdges" stroke="#F2F0F9" stroke-width="1" pointer-events="none"></line></g><path class="visx-linepath" d="M0,154.99999999994589C2.375,154.99097883594726,4.75,154.98195767194866,7.125,154.9729365079365C9.5,154.96391534392436,11.875,154.95489417989418,14.25,154.94587301587302C16.625,154.93685185185186,19,154.9278306878307,21.375,154.91880952380953C23.75,154.90978835978837,26.125,154.90076719576717,28.5,154.891746031746C30.875,154.88272486772485,33.25,154.87370370370368,35.625,154.86468253968252C38,154.85566137566136,40.375,154.84664021164022,42.75,154.83761904761906C45.125,154.8285978835979,47.50000000000001,154.81957671957673,49.87500000000001,154.81055555555557C52.25000000000001,154.8015343915344,54.625,154.79251322751324,57,154.78349206349208C59.375,154.7744708994709,61.75,154.76544973544975,64.125,154.7564285714286C66.5,154.74740740740742,68.875,154.73838624338626,71.25,154.7293650793651C73.625,154.72034391534393,76,154.71132275132277,78.375,154.7023015873016C80.75,154.69328042328044,83.125,154.68425925925925,85.5,154.6752380952381C87.875,154.66621693121692,90.25,154.65719576719576,92.625,154.6481746031746C95,154.63915343915343,97.37500000000001,154.63013227513227,99.75000000000001,154.6211111111111C102.12500000000001,154.61208994708994,104.5,154.60306878306878,106.875,154.59404761904761C109.25,154.58502645502645,111.625,154.5760052910053,114,154.56698412698412C116.375,154.55796296296296,118.75000000000001,154.5489417989418,121.12500000000001,154.53992063492063C123.50000000000001,154.53089947089947,125.875,154.5218783068783,128.25,154.51285714285714C130.625,154.50383597883598,133,154.49481481481482,135.375,154.48579365079365C137.75,154.4767724867725,140.125,154.46775132275133,142.5,154.45873015873016C144.875,154.449708994709,147.25,154.44068783068784,149.625,154.43166666666667C152,154.4226455026455,154.375,154.41362433862435,156.75,154.40460317460318C159.125,154.39558201058202,161.5,154.38656084656085,163.875,154.3775396825397C166.25,154.36851851851853,168.625,154.35949735449736,171,154.3504761904762C173.375,154.34145502645504,175.75,154.33243386243387,178.125,154.3234126984127C180.5,154.31439153439155,182.875,154.30537037037038,185.25,154.29634920634922C187.625,154.28732804232806,190,154.2783068783069,192.375,154.26928571428573C194.75,154.26026455026457,197.12500000000003,154.25124338624337,199.50000000000003,154.2422222222222C201.875,154.23320105820105,204.25,154.22417989417988,206.62499999999997,154.21515873015872C208.99999999999997,154.20613756613756,211.375,154.1971164021164,213.75,154.18809523809523C216.125,154.17907407407407,218.5,154.1700529100529,220.875,154.16103174603174C223.25,154.15201058201058,225.625,154.1429894179894,228,154.13396825396825C230.375,154.12494708994709,232.75,154.11592592592592,235.125,154.10690476190476C237.5,154.0978835978836,239.87500000000003,154.08886243386243,242.25000000000003,154.07984126984127C244.625,154.0708201058201,247,154.06179894179894,249.37499999999997,154.05277777777778C251.74999999999997,154.0437566137566,254.125,154.03473544973545,256.5,154.0257142857143C258.875,154.01669312169312,261.25,154.00767195767196,263.625,153.9986507936508C266,153.98962962962963,268.375,153.98060846560847,270.75,153.9715873015873C273.125,153.96256613756614,275.5,153.95354497354498,277.875,153.94452380952382C280.25,153.93550264550265,282.625,153.9264814814815,285,153.91746031746032C287.375,153.90843915343916,289.75,153.899417989418,292.125,153.89039682539683C294.5,153.88137566137567,296.875,153.8723544973545,299.25,153.86333333333334C301.625,153.85431216931218,304,153.84529100529102,306.375,153.83626984126985C308.75,153.8272486772487,311.125,153.8182275132275,313.5,153.80920634920633C315.875,153.80018518518517,318.25,153.791164021164,320.625,153.78214285714284C323,153.77312169312168,325.375,153.76410052910052,327.75,153.75507936507935C330.125,153.7460582010582,332.5,153.73703703703703,334.875,153.72801587301586C337.25,153.7189947089947,339.625,153.70997354497354,342,153.70095238095237C344.375,153.6919312169312,346.75,153.68291005291005,349.125,153.67388888888888C351.5,153.66486772486772,353.875,153.65584656084656,356.25,153.6468253968254C358.625,153.63780423280423,361,153.62878306878306,363.375,153.6197619047619C365.75,153.61074074074074,368.125,153.60171957671957,370.5,153.5926984126984C372.875,153.58367724867725,375.25,153.57465608465608,377.625,153.56563492063492C380,153.55661375661376,382.375,153.5475925925926,384.75,153.53857142857143C387.125,153.52955026455027,389.50000000000006,153.5205291005291,391.87500000000006,153.51150793650794C394.25000000000006,153.50248677248678,396.62500000000006,153.4934656084656,399.00000000000006,153.48444444444445C401.375,153.47542328042329,403.75,153.46640211640212,406.12499999999994,153.45738095238096C408.49999999999994,153.4483597883598,410.87499999999994,153.43933862433863,413.24999999999994,153.43031746031747C415.62499999999994,153.4212962962963,418,153.41227513227514,420.375,153.40325396825398C422.75,153.39423280423281,425.125,153.38521164021162,427.5,153.37619047619046C429.875,153.3671693121693,432.25,153.35814814814813,434.625,153.34912698412697C437,153.3401058201058,439.375,153.33108465608464,441.75,153.32206349206348C444.125,153.31304232804231,446.5,153.30402116402115,448.875,153.295C451.25,153.28597883597882,453.625,153.27695767195766,456,153.2679365079365C458.375,153.25891534391533,460.75,153.24989417989417,463.125,153.240873015873C465.5,153.23185185185184,467.875,153.22283068783068,470.25,153.21380952380952C472.625,153.20478835978835,475.00000000000006,153.1957671957672,477.37500000000006,153.18674603174603C479.75000000000006,153.17772486772486,482.12500000000006,153.1687037037037,484.50000000000006,153.15968253968254C486.875,153.15066137566137,489.25,153.1416402116402,491.62499999999994,153.13261904761904C493.99999999999994,153.12359788359788,496.37499999999994,153.11457671957672,498.74999999999994,153.10555555555555C501.12499999999994,153.0965343915344,503.5,153.08751322751323,505.875,153.07849206349206C508.25,153.0694708994709,510.625,153.06044973544974,513,153.05142857142857C515.375,153.0424074074074,517.75,153.03338624338625,520.125,153.02436507936508C522.5,153.01534391534392,524.875,153.00632275132276,527.25,152.9973015873016C529.625,152.98828042328043,532,152.97925925925927,534.375,152.9702380952381C536.75,152.96121693121694,539.125,152.95219576719575,541.5,152.94317460317458C543.875,152.93415343915342,546.25,152.92513227513226,548.625,152.9161111111111C551,152.90708994708993,553.375,152.89806878306877,555.75,152.8890476190476C558.125,152.88002645502644,560.5,152.87100529100528,562.875,152.8619841269841C565.25,152.85296296296295,567.625,152.8439417989418,570,152.83492063492065C572.375,152.8258994708995,574.75,152.81687830687832,577.125,152.80785714285716C579.5,152.798835978836,581.875,152.78981481481483,584.25,152.78079365079367C586.625,152.7717724867725,589,152.76275132275134,591.375,152.75373015873018C593.75,152.74470899470901,596.125,152.73568783068782,598.5,152.72666666666666C600.875,152.7176455026455,603.25,152.70862433862433,605.625,152.69960317460317C608,152.690582010582,610.375,152.68156084656084,612.75,152.67253968253968C615.125,152.66351851851852,617.5,152.65449735449735,619.875,152.6454761904762C622.25,152.63645502645502,624.625,152.62743386243386,627,152.6184126984127C629.375,152.60939153439153,631.75,152.60037037037037,634.125,152.5913492063492C636.5,152.58232804232804,638.875,152.58232804232804,641.25,152.56428571428572C643.625,152.5462433862434,646,151.7590909090909,648.375,151.3564935064935C650.75,150.9538961038961,653.125,150.5512987012987,655.5,150.1487012987013C657.875,149.7461038961039,660.25,149.34350649350648,662.625,148.9409090909091C665,148.5383116883117,667.375,148.13571428571427,669.75,147.73311688311688C672.125,147.33051948051948,674.5,146.92792207792206,676.875,146.52532467532467C679.25,146.12272727272727,681.625,145.72012987012985,684,145.31753246753246C686.375,144.91493506493507,688.75,144.51233766233764,691.125,144.10974025974025C693.5,143.70714285714286,695.875,143.30454545454546,698.25,142.90194805194807C700.625,142.49935064935067,703,142.09675324675325,705.375,141.69415584415586C707.75,141.29155844155846,710.125,140.88896103896104,712.5,140.48636363636365C714.875,140.08376623376626,717.25,139.68116883116883,719.625,139.27857142857144C722,138.87597402597405,724.375,138.47337662337662,726.75,138.07077922077923C729.125,137.66818181818184,731.5,137.2655844155844,733.875,136.86298701298702C736.25,136.46038961038963,738.625,136.0577922077922,741,135.6551948051948C743.375,135.25259740259742,745.75,134.85,748.125,134.4474025974026C750.5,134.0448051948052,752.875,133.64220779220778,755.25,133.2396103896104C757.625,132.837012987013,760,132.43441558441558,762.375,132.03181818181818C764.75,131.6292207792208,767.125,131.22662337662337,769.5,130.82402597402597C771.875,130.42142857142858,774.2500000000001,130.01883116883116,776.6250000000001,129.61623376623376C779.0000000000001,129.21363636363637,781.3750000000001,128.81103896103895,783.7500000000001,128.40844155844155C786.1250000000001,128.00584415584416,788.5000000000001,127.60324675324675,790.8750000000001,127.20064935064934C793.2500000000001,126.79805194805193,795.6250000000001,126.39545454545454,798.0000000000001,125.99285714285713C800.375,125.59025974025974,802.75,125.18766233766233,805.1249999999999,124.78506493506494C807.4999999999999,124.38246753246753,809.8749999999999,123.97987012987014,812.2499999999999,123.57727272727273C814.6249999999999,123.17467532467532,816.9999999999999,122.77207792207793,819.3749999999999,122.36948051948052C821.7499999999999,121.96688311688311,824.1249999999999,121.5642857142857,826.4999999999999,121.16168831168831C828.8749999999999,120.7590909090909,831.25,120.3564935064935,833.625,119.9538961038961C836,119.5512987012987,838.375,119.14870129870131,840.75,118.7461038961039C843.125,118.3435064935065,845.5,117.94090909090909,847.875,117.53831168831168C850.25,117.13571428571427,852.625,116.73311688311689,855,116.33051948051948C857.375,115.92792207792208,859.75,115.52532467532467,862.125,115.12272727272726C864.5,114.72012987012985,866.875,114.31753246753246,869.25,113.91493506493505C871.625,113.51233766233764,874,113.10974025974025,876.375,112.70714285714286C878.75,112.30454545454546,881.125,111.90194805194807,883.5,111.49935064935066C885.875,111.09675324675325,888.25,110.69415584415584,890.625,110.29155844155844C893,109.88896103896103,895.375,109.48636363636365,897.75,109.08376623376624C900.125,108.68116883116883,902.5,108.27857142857142,904.875,107.87597402597402C907.25,107.47337662337661,909.625,107.07077922077923,912,106.66818181818182C914.375,106.26558441558441,916.75,105.862987012987,919.125,105.4603896103896C921.5,105.05779220779219,923.875,104.6551948051948,926.25,104.2525974025974C928.625,103.85000000000001,931,103.4474025974026,933.375,103.0448051948052C935.75,102.64220779220781,938.125,102.2396103896104,940.5,101.837012987013C942.875,101.43441558441559,945.25,101.03181818181817,947.625,100.62922077922077C950,100.22662337662337,952.3750000000001,99.82402597402599,954.7500000000001,99.42142857142858C957.1250000000001,99.01883116883118,959.5000000000001,98.61623376623378,961.8750000000001,98.21363636363637C964.2500000000001,97.81103896103896,966.6250000000001,97.40844155844157,969.0000000000001,97.00584415584416C971.3750000000001,96.60324675324675,973.7500000000001,96.20064935064934,976.1250000000001,95.79805194805193C978.5,95.39545454545454,980.875,94.99285714285713,983.2499999999999,94.59025974025974C985.6249999999999,94.18766233766233,987.9999999999999,93.78506493506494,990.3749999999999,93.38246753246753C992.7499999999999,92.97987012987012,995.1249999999999,92.57727272727271,997.4999999999999,92.17467532467532C999.8749999999999,91.77207792207793,1002.2499999999999,91.36948051948052,1004.6249999999999,90.96688311688312C1006.9999999999999,90.56428571428572,1009.375,90.16168831168832,1011.75,89.75909090909092C1014.125,89.3564935064935,1016.5,88.9538961038961,1018.875,88.55129870129869C1021.25,88.14870129870128,1023.625,87.7461038961039,1026,87.3435064935065C1028.375,86.94090909090909,1030.75,86.5383116883117,1033.125,86.13571428571429C1035.5,85.73311688311688,1037.875,85.33051948051948,1040.25,84.92792207792208C1042.625,84.52532467532467,1045,84.12272727272726,1047.375,83.72012987012985C1049.75,83.31753246753244,1052.125,82.91493506493507,1054.5,82.51233766233766C1056.875,82.10974025974025,1059.25,81.70714285714286,1061.625,81.30454545454545C1064,80.90194805194804,1066.375,80.49935064935065,1068.75,80.09675324675325C1071.125,79.69415584415586,1073.5,79.29155844155845,1075.875,78.88896103896104C1078.25,78.48636363636363,1080.625,78.08376623376624,1083,77.68116883116883C1085.375,77.27857142857142,1087.75,76.87597402597403,1090.125,76.47337662337662C1092.5,76.07077922077922,1094.875,75.66818181818181,1097.25,75.26558441558441C1099.625,74.86298701298702,1102,74.46038961038963,1104.375,74.05779220779222C1106.75,73.65519480519481,1109.125,73.2525974025974,1111.5,72.85C1113.875,72.44740259740259,1116.25,72.04480519480518,1118.625,71.64220779220778C1121,71.23961038961039,1123.375,70.83701298701301,1125.75,70.4344155844156C1128.125,70.0318181818182,1130.5,69.62922077922077,1132.875,69.22662337662337C1135.25,68.82402597402596,1137.625,68.42142857142858,1140,68.01883116883117C1142.375,67.61623376623376,1144.75,67.21363636363637,1147.125,66.81103896103896C1149.5,66.40844155844155,1151.875,66.00584415584417,1154.25,65.60324675324676C1156.625,65.20064935064936,1159,64.79805194805195,1161.375,64.39545454545454C1163.75,63.99285714285714,1166.125,63.59025974025975,1168.5,63.187662337662346C1170.875,62.785064935064945,1173.25,62.38246753246753,1175.625,61.97987012987012C1178,61.577272727272714,1180.375,61.17467532467531,1182.75,60.77207792207791C1185.125,60.36948051948051,1187.5,59.966883116883125,1189.875,59.564285714285724C1192.25,59.16168831168832,1194.625,58.759090909090915,1197,58.356493506493514C1199.375,57.95389610389611,1201.75,57.55129870129871,1204.125,57.148701298701305C1206.5,56.7461038961039,1208.875,56.34350649350648,1211.25,55.94090909090908C1213.625,55.53831168831168,1216,55.13571428571429,1218.375,54.73311688311689C1220.75,54.33051948051949,1223.125,53.92792207792207,1225.5,53.52532467532466C1227.875,53.12272727272725,1230.25,52.72012987012986,1232.625,52.31753246753246C1235,51.91493506493506,1237.375,51.512337662337664,1239.75,51.10974025974026C1242.125,50.70714285714286,1244.5,50.304545454545455,1246.875,49.901948051948054C1249.25,49.49935064935065,1251.625,49.09675324675325,1254,48.69415584415585C1256.375,48.29155844155845,1258.75,47.88896103896104,1261.125,47.48636363636364C1263.5,47.08376623376624,1265.875,46.68116883116884,1268.25,46.27857142857143C1270.625,45.875974025974024,1273,45.473376623376616,1275.375,45.07077922077921C1277.75,44.6681818181818,1280.125,44.2655844155844,1282.5,43.862987012987C1284.875,43.4603896103896,1287.25,43.057792207792204,1289.625,42.65519480519481C1292,42.25259740259742,1294.375,41.850000000000016,1296.75,41.447402597402615C1299.125,41.044805194805214,1301.5,40.6422077922078,1303.875,40.23961038961039C1306.25,39.83701298701298,1308.625,39.43441558441559,1311,39.03181818181818C1313.375,38.62922077922077,1315.75,38.22662337662336,1318.125,37.82402597402596C1320.5,37.42142857142856,1322.875,37.01883116883117,1325.25,36.61623376623377C1327.625,36.21363636363637,1330,35.81103896103896,1332.375,35.40844155844156C1334.75,35.00584415584416,1337.125,34.60324675324677,1339.5,34.20064935064937C1341.875,33.79805194805197,1344.25,33.39545454545455,1346.625,32.99285714285714C1349,32.59025974025973,1351.375,32.18766233766234,1353.75,31.785064935064934C1356.125,31.382467532467533,1358.5,30.97987012987013,1360.875,30.577272727272728C1363.25,30.174675324675327,1365.625,29.772077922077926,1368,29.36948051948052C1370.375,28.96688311688311,1372.75,28.564285714285695,1375.125,28.16168831168829C1377.5,27.759090909090887,1379.875,27.356493506493486,1382.25,26.953896103896085C1384.625,26.551298701298684,1387,26.14870129870129,1389.375,25.746103896103893C1391.75,25.343506493506496,1394.125,24.940909090909102,1396.5,24.5383116883117C1398.875,24.1357142857143,1401.25,23.73311688311688,1403.625,23.330519480519477C1406,22.927922077922073,1408.375,22.525324675324672,1410.75,22.122727272727268C1413.125,21.720129870129863,1415.5,21.317532467532445,1417.875,20.914935064935044C1420.25,20.512337662337643,1422.625,20.109740259740246,1425,19.707142857142852" fill="transparent" stroke-linecap="round" stroke="#1AD4B3" stroke-width="2"></path><g class="visx-group visx-axis visx-axis-bottom" transform="translate(0, 155)"><g class="visx-group visx-axis-tick" transform="translate(0, 0)"><line class="visx-line" x1="0" y1="0" x2="0" y2="8" fill="transparent" shape-rendering="crispEdges" stroke="#F2F0F9" stroke-width="1" stroke-linecap="square"></line><svg x="0" y="0" font-size="11" style="overflow:visible"><text transform="" x="0" y="19" fill="#1B2030" font-size="11" text-anchor="middle"><tspan x="0" dy="0em">0%</tspan></text></svg></g><g class="visx-group visx-axis-tick" transform="translate(0, 0)"><line class="visx-line" x1="356.25" y1="0" x2="356.25" y2="8" fill="transparent" shape-rendering="crispEdges" stroke="#F2F0F9" stroke-width="1" stroke-linecap="square"></line><svg x="0" y="0" font-size="11" style="overflow:visible"><text transform="" x="356.25" y="19" fill="#1B2030" font-size="11" text-anchor="middle"><tspan x="356.25" dy="0em">25%</tspan></text></svg></g><g class="visx-group visx-axis-tick" transform="translate(0, 0)"><line class="visx-line" x1="712.5" y1="0" x2="712.5" y2="8" fill="transparent" shape-rendering="crispEdges" stroke="#F2F0F9" stroke-width="1" stroke-linecap="square"></line><svg x="0" y="0" font-size="11" style="overflow:visible"><text transform="" x="712.5" y="19" fill="#1B2030" font-size="11" text-anchor="middle"><tspan x="712.5" dy="0em">50%</tspan></text></svg></g><g class="visx-group visx-axis-tick" transform="translate(0, 0)"><line class="visx-line" x1="1068.75" y1="0" x2="1068.75" y2="8" fill="transparent" shape-rendering="crispEdges" stroke="#F2F0F9" stroke-width="1" stroke-linecap="square"></line><svg x="0" y="0" font-size="11" style="overflow:visible"><text transform="" x="1068.75" y="19" fill="#1B2030" font-size="11" text-anchor="middle"><tspan x="1068.75" dy="0em">75%</tspan></text></svg></g><g class="visx-group visx-axis-tick" transform="translate(0, 0)"><line class="visx-line" x1="1425" y1="0" x2="1425" y2="8" fill="transparent" shape-rendering="crispEdges" stroke="#F2F0F9" stroke-width="1" stroke-linecap="square"></line><svg x="0" y="0" font-size="11" style="overflow:visible"><text transform="" x="1425" y="19" fill="#1B2030" font-size="11" text-anchor="middle"><tspan x="1425" dy="0em">100%</tspan></text></svg></g></g><g class="visx-group visx-axis visx-axis-left" transform="translate(0, 0)"><g class="visx-group visx-axis-tick" transform="translate(0, 0)"><line class="visx-line" x1="0" y1="155" x2="-8" y2="155" fill="transparent" shape-rendering="crispEdges" stroke="#F2F0F9" stroke-width="1" stroke-linecap="square"></line><svg x="-30" y="0" font-size="11" style="overflow:visible"><text transform="" x="-8" y="155" fill="#1B2030" font-size="11" text-anchor="start"><tspan x="-8" dy="0em">0%</tspan></text></svg></g><g class="visx-group visx-axis-tick" transform="translate(0, 0)"><line class="visx-line" x1="0" y1="110.71428571428572" x2="-8" y2="110.71428571428572" fill="transparent" shape-rendering="crispEdges" stroke="#F2F0F9" stroke-width="1" stroke-linecap="square"></line><svg x="-30" y="0" font-size="11" style="overflow:visible"><text transform="" x="-8" y="110.71428571428572" fill="#1B2030" font-size="11" text-anchor="start"><tspan x="-8" dy="0em">100%</tspan></text></svg></g><g class="visx-group visx-axis-tick" transform="translate(0, 0)"><line class="visx-line" x1="0" y1="66.42857142857143" x2="-8" y2="66.42857142857143" fill="transparent" shape-rendering="crispEdges" stroke="#F2F0F9" stroke-width="1" stroke-linecap="square"></line><svg x="-30" y="0" font-size="11" style="overflow:visible"><text transform="" x="-8" y="66.42857142857143" fill="#1B2030" font-size="11" text-anchor="start"><tspan x="-8" dy="0em">200%</tspan></text></svg></g><g class="visx-group visx-axis-tick" transform="translate(0, 0)"><line class="visx-line" x1="0" y1="22.14285714285715" x2="-8" y2="22.14285714285715" fill="transparent" shape-rendering="crispEdges" stroke="#F2F0F9" stroke-width="1" stroke-linecap="square"></line><svg x="-30" y="0" font-size="11" style="overflow:visible"><text transform="" x="-8" y="22.14285714285715" fill="#1B2030" font-size="11" text-anchor="start"><tspan x="-8" dy="0em">300%</tspan></text></svg></g><line class="visx-line visx-axis-line" x1="0" y1="155.5" x2="0" y2="0.5" fill="transparent" shape-rendering="crispEdges" stroke="#F2F0F9" stroke-width="1"></line></g><rect class="visx-bar" width="1425" height="155" fill="transparent"></rect><line class="visx-line" x1="641.25" y1="58" x2="641.25" y2="155" fill="transparent" shape-rendering="crispEdges" stroke="#CDC8E1" stroke-width="1" pointer-events="none" stroke-dasharray="5"></line><svg x="0" y="0" font-size="11px" style="overflow:visible"><text transform="" x="641.25" y="50" font-size="11px" fill="#555069" stroke="#FFFFFF" stroke-width="1px" text-anchor="middle"><tspan x="641.25" dy="0.355em">Optimal utilization 45%</tspan></text></svg><svg x="0" y="0" font-size="11px" style="overflow:visible"><text transform="" x="641.25" y="50" font-size="11px" fill="#CDC8E1" text-anchor="middle"><tspan x="641.25" dy="0.355em">Optimal utilization 45%</tspan></text></svg></g></svg>