<?xml version="1.0"?><svg xmlns="http://www.w3.org/2000/svg" xmlns:xlink= "http://www.w3.org/1999/xlink" style="background: white;" width="1500" height="185"> <g style="color: black; font-size: 13px; font-family: sans-serif; transform: translate(18px, 25px);"><g><circle r="3" cx="-6" cy="-5" style="fill: #B6509E" /><text>Borrow APR, variable</text></g><g style="transform: translateX(150px);"><circle r="3" cx="-6" cy="-5" style="fill: rgb(231, 198, 223)" /><text>Borrow APR, stable</text></g><g style="transform: translateX(290px);"><circle r="3" cx="-6" cy="-5" style="fill: rgb(0, 98, 210)" /><text>Utilization Rate</text></g></g><g class="visx-group" transform="translate(40, 50)"><g class="visx-group visx-rows" transform="translate(0, 0)"><line class="visx-line" x1="0" y1="115" x2="1450" y2="115" fill="transparent" shape-rendering="crispEdges" stroke="#000" stroke-width="1" stroke-dasharray="3,3" pointer-events="none"></line><line class="visx-line" x1="0" y1="79.0625" x2="1450" y2="79.0625" fill="transparent" shape-rendering="crispEdges" stroke="#000" stroke-width="1" stroke-dasharray="3,3" pointer-events="none"></line><line class="visx-line" x1="0" y1="43.125" x2="1450" y2="43.125" fill="transparent" shape-rendering="crispEdges" stroke="#000" stroke-width="1" stroke-dasharray="3,3" pointer-events="none"></line><line class="visx-line" x1="0" y1="7.1875" x2="1450" y2="7.1875" fill="transparent" shape-rendering="crispEdges" stroke="#000" stroke-width="1" stroke-dasharray="3,3" pointer-events="none"></line></g><path class="visx-linepath" d="M0,114.99999999995332C2.4166666666666665,114.99222132031909,4.833333333333334,114.98444264068486,7.25,114.97666396103897C9.666666666666666,114.96888528139307,12.083333333333334,114.96110660173161,14.5,114.95332792207793C16.916666666666668,114.94554924242425,19.333333333333332,114.93777056277057,21.75,114.92999188311688C24.166666666666668,114.9222132034632,26.583333333333332,114.91443452380953,29,114.90665584415585C31.416666666666668,114.89887716450217,33.833333333333336,114.89109848484848,36.25,114.8833198051948C38.666666666666664,114.87554112554112,41.083333333333336,114.86776244588745,43.5,114.85998376623377C45.91666666666667,114.85220508658008,48.333333333333336,114.8444264069264,50.75000000000001,114.83664772727272C53.16666666666667,114.82886904761904,55.583333333333336,114.82109036796537,58,114.81331168831169C60.416666666666664,114.805533008658,62.833333333333336,114.79775432900433,65.25,114.78997564935065C67.66666666666667,114.78219696969697,70.08333333333333,114.7744182900433,72.5,114.76663961038962C74.91666666666667,114.75886093073593,77.33333333333333,114.75108225108225,79.75,114.74330357142857C82.16666666666667,114.73552489177489,84.58333333333333,114.72774621212122,87,114.71996753246754C89.41666666666667,114.71218885281385,91.83333333333333,114.70441017316017,94.25,114.69663149350649C96.66666666666667,114.6888528138528,99.08333333333334,114.68107413419914,101.50000000000001,114.67329545454545C103.91666666666667,114.66551677489177,106.33333333333334,114.65773809523809,108.75,114.6499594155844C111.16666666666667,114.64218073593072,113.58333333333333,114.63440205627705,116,114.62662337662337C118.41666666666667,114.61884469696969,120.83333333333334,114.61106601731602,123.25000000000001,114.60328733766234C125.66666666666667,114.59550865800865,128.08333333333334,114.58772997835499,130.5,114.5799512987013C132.91666666666666,114.57217261904762,135.33333333333334,114.56439393939395,137.75,114.55661525974027C140.16666666666666,114.54883658008659,142.58333333333334,114.5410579004329,145,114.53327922077922C147.41666666666666,114.52550054112554,149.83333333333334,114.51772186147187,152.25,114.50994318181819C154.66666666666666,114.5021645021645,157.08333333333334,114.49438582251082,159.5,114.48660714285714C161.91666666666666,114.47882846320346,164.33333333333334,114.47104978354979,166.75,114.4632711038961C169.16666666666666,114.45549242424242,171.58333333333334,114.44771374458874,174,114.43993506493506C176.41666666666666,114.43215638528137,178.83333333333334,114.4243777056277,181.25,114.41659902597402C183.66666666666666,114.40882034632034,186.08333333333334,114.40104166666667,188.5,114.39326298701299C190.91666666666666,114.3854843073593,193.33333333333334,114.37770562770564,195.75,114.36992694805195C198.16666666666669,114.36214826839827,200.58333333333334,114.35436958874459,203.00000000000003,114.3465909090909C205.41666666666669,114.33881222943722,207.83333333333331,114.33103354978356,210.24999999999997,114.32325487012987C212.66666666666666,114.31547619047619,215.08333333333331,114.3076975108225,217.5,114.29991883116882C219.91666666666666,114.29214015151514,222.33333333333334,114.28436147186147,224.75,114.27658279220779C227.16666666666666,114.26880411255411,229.58333333333334,114.26102543290044,232,114.25324675324676C234.41666666666666,114.24546807359307,236.83333333333334,114.23768939393939,239.25,114.22991071428571C241.66666666666669,114.22213203463203,244.08333333333334,114.21435335497836,246.50000000000003,114.20657467532467C248.91666666666669,114.19879599567099,251.33333333333331,114.19101731601732,253.74999999999997,114.18323863636364C256.16666666666663,114.17545995670996,258.5833333333333,114.16768127705629,261,114.1599025974026C263.4166666666667,114.15212391774892,265.8333333333333,114.14434523809524,268.25,114.13656655844156C270.6666666666667,114.12878787878788,273.0833333333333,114.1210091991342,275.5,114.11323051948052C277.9166666666667,114.10545183982684,280.3333333333333,114.09767316017316,282.75,114.08989448051948C285.1666666666667,114.0821158008658,287.5833333333333,114.07433712121212,290,114.06655844155844C292.4166666666667,114.05877976190476,294.8333333333333,114.05100108225108,297.25,114.0432224025974C299.6666666666667,114.03544372294371,302.0833333333333,114.02766504329004,304.5,114.01988636363636C306.9166666666667,114.01210768398268,309.3333333333333,114.00432900432901,311.75,113.99655032467533C314.1666666666667,113.98877164502164,316.5833333333333,113.98099296536797,319,113.97321428571429C321.4166666666667,113.96543560606061,323.8333333333333,113.95765692640693,326.25,113.94987824675324C328.6666666666667,113.94209956709956,331.0833333333333,113.93432088744589,333.5,113.92654220779221C335.9166666666667,113.91876352813853,338.3333333333333,113.91098484848486,340.75,113.90320616883118C343.1666666666667,113.8954274891775,345.5833333333333,113.88764880952381,348,113.87987012987013C350.4166666666667,113.87209145021644,352.8333333333333,113.86431277056278,355.25,113.8565340909091C357.6666666666667,113.84875541125541,360.0833333333333,113.84097673160173,362.5,113.83319805194805C364.9166666666667,113.82541937229436,367.3333333333333,113.8176406926407,369.75,113.80986201298701C372.1666666666667,113.80208333333333,374.5833333333333,113.79430465367966,377,113.78652597402598C379.4166666666667,113.7787472943723,381.8333333333333,113.77096861471863,384.25,113.76318993506494C386.6666666666667,113.75541125541126,389.0833333333333,113.74763257575758,391.5,113.7398538961039C393.9166666666667,113.73207521645021,396.33333333333337,113.72429653679654,398.75000000000006,113.71651785714286C401.16666666666674,113.70873917748918,403.58333333333337,113.7009604978355,406.00000000000006,113.69318181818181C408.4166666666667,113.68540313852813,410.8333333333333,113.67762445887446,413.24999999999994,113.66984577922078C415.66666666666663,113.6620670995671,418.08333333333326,113.65428841991341,420.49999999999994,113.64650974025973C422.91666666666663,113.63873106060605,425.3333333333333,113.63095238095238,427.75,113.6231737012987C430.1666666666667,113.61539502164501,432.5833333333333,113.60761634199135,435,113.59983766233766C437.4166666666667,113.59205898268398,439.8333333333333,113.58428030303031,442.25,113.57650162337663C444.6666666666667,113.56872294372295,447.0833333333333,113.56094426406928,449.5,113.5531655844156C451.9166666666667,113.54538690476191,454.3333333333333,113.53760822510823,456.75,113.52982954545455C459.1666666666667,113.52205086580086,461.5833333333333,113.5142721861472,464,113.50649350649351C466.4166666666667,113.49871482683983,468.8333333333333,113.49093614718615,471.25,113.48315746753246C473.6666666666667,113.47537878787878,476.0833333333333,113.46760010822511,478.5,113.45982142857143C480.9166666666667,113.45204274891775,483.33333333333337,113.44426406926407,485.75000000000006,113.43648538961038C488.16666666666674,113.4287067099567,490.58333333333337,113.42092803030303,493.00000000000006,113.41314935064935C495.4166666666667,113.40537067099567,497.8333333333333,113.397591991342,500.24999999999994,113.38981331168831C502.66666666666663,113.38203463203463,505.08333333333326,113.37425595238096,507.49999999999994,113.36647727272728C509.91666666666663,113.3586985930736,512.3333333333333,113.35091991341992,514.75,113.34314123376623C517.1666666666666,113.33536255411255,519.5833333333334,113.32758387445888,522,113.3198051948052C524.4166666666666,113.31202651515152,526.8333333333334,113.30424783549783,529.25,113.29646915584415C531.6666666666666,113.28869047619047,534.0833333333334,113.2809117965368,536.5,113.27313311688312C538.9166666666666,113.26535443722943,541.3333333333334,113.25757575757575,543.75,113.24979707792207C546.1666666666666,113.24201839826839,548.5833333333334,113.23423971861472,551,113.22646103896103C553.4166666666666,113.21868235930735,555.8333333333334,113.21090367965368,558.25,113.203125C560.6666666666666,113.19534632034632,563.0833333333334,113.18756764069265,565.5,113.17978896103897C567.9166666666666,113.17201028138528,570.3333333333334,113.16423160173161,572.75,113.15645292207793C575.1666666666666,113.14867424242425,577.5833333333334,113.14089556277057,580,113.13311688311688C582.4166666666666,113.1253382034632,584.8333333333334,113.11755952380953,587.25,113.10978084415585C589.6666666666666,113.10200216450217,592.0833333333334,113.09422348484848,594.5,113.0864448051948C596.9166666666666,113.07866612554112,599.3333333333334,113.07088744588745,601.75,113.06310876623377C604.1666666666666,113.05533008658008,606.5833333333334,113.0475514069264,609,113.03977272727272C611.4166666666666,113.03199404761904,613.8333333333334,113.02421536796537,616.25,113.01643668831169C618.6666666666666,113.008658008658,621.0833333333334,113.00087932900433,623.5,112.99310064935065C625.9166666666666,112.98532196969697,628.3333333333334,112.9775432900433,630.75,112.96976461038962C633.1666666666666,112.96198593073593,635.5833333333334,112.95420725108225,638,112.94642857142857C640.4166666666666,112.93864989177489,642.8333333333334,112.93087121212122,645.25,112.92309253246754C647.6666666666666,112.91531385281385,650.0833333333334,112.90753517316017,652.5,112.89975649350649C654.9166666666666,112.8919778138528,657.3333333333334,112.88419913419914,659.75,112.87642045454545C662.1666666666666,112.86864177489177,664.5833333333334,112.86086309523809,667,112.8530844155844C669.4166666666666,112.84530573593072,671.8333333333334,112.83752705627705,674.25,112.82974837662337C676.6666666666666,112.82196969696969,679.0833333333334,112.81419101731602,681.5,112.80641233766234C683.9166666666666,112.79863365800865,686.3333333333334,112.79085497835499,688.75,112.7830762987013C691.1666666666666,112.77529761904762,693.5833333333334,112.76751893939395,696,112.75974025974027C698.4166666666666,112.75196158008659,700.8333333333334,112.7441829004329,703.25,112.73640422077922C705.6666666666666,112.72862554112554,708.0833333333334,112.72084686147187,710.5,112.71306818181819C712.9166666666666,112.7052895021645,715.3333333333334,112.69751082251082,717.75,112.68973214285714C720.1666666666666,112.68195346320346,722.5833333333334,112.67417478354979,725,112.6663961038961C727.4166666666666,112.65861742424242,729.8333333333334,112.65083874458874,732.25,112.64306006493506C734.6666666666666,112.63528138528137,737.0833333333334,112.6275027056277,739.5,112.61972402597402C741.9166666666666,112.61194534632034,744.3333333333334,112.60416666666667,746.75,112.59638798701299C749.1666666666666,112.5886093073593,751.5833333333334,112.58083062770564,754,112.57305194805195C756.4166666666666,112.56527326839827,758.8333333333334,112.55749458874459,761.25,112.5497159090909C763.6666666666666,112.54193722943722,766.0833333333334,112.53415854978356,768.5,112.52637987012987C770.9166666666666,112.51860119047619,773.3333333333334,112.5108225108225,775.75,112.50304383116882C778.1666666666666,112.49526515151514,780.5833333333334,112.48748647186147,783,112.47970779220779C785.4166666666667,112.47192911255411,787.8333333333334,112.46415043290044,790.2500000000001,112.45637175324676C792.6666666666667,112.44859307359307,795.0833333333335,112.44081439393939,797.5000000000001,112.43303571428571C799.9166666666667,112.42525703463203,802.3333333333335,112.41747835497836,804.7500000000001,112.40969967532467C807.1666666666667,112.40192099567099,809.5833333333335,112.39414231601732,812.0000000000001,112.38636363636364C814.4166666666667,112.37858495670996,816.8333333333333,112.37080627705629,819.2499999999999,112.3630275974026C821.6666666666665,112.35524891774892,824.0833333333333,112.34747023809524,826.4999999999999,112.33969155844156C828.9166666666665,112.33191287878788,831.3333333333333,112.3241341991342,833.7499999999999,112.31635551948052C836.1666666666665,112.30857683982684,838.5833333333333,112.30079816017316,840.9999999999999,112.29301948051948C843.4166666666666,112.2852408008658,845.8333333333333,112.27746212121212,848.25,112.26968344155844C850.6666666666666,112.26190476190476,853.0833333333334,112.25412608225108,855.5,112.2463474025974C857.9166666666666,112.23856872294371,860.3333333333334,112.23079004329004,862.75,112.22301136363636C865.1666666666666,112.21523268398268,867.5833333333334,112.20745400432901,870,112.19967532467533C872.4166666666666,112.19189664502164,874.8333333333334,112.18411796536797,877.25,112.17633928571429C879.6666666666666,112.16856060606061,882.0833333333334,112.16078192640693,884.5,112.15300324675324C886.9166666666666,112.14522456709956,889.3333333333334,112.13744588744589,891.75,112.12966720779221C894.1666666666666,112.12188852813853,896.5833333333334,112.11410984848486,899,112.10633116883118C901.4166666666666,112.0985524891775,903.8333333333334,112.09077380952381,906.25,112.08299512987013C908.6666666666666,112.07521645021644,911.0833333333334,112.06743777056278,913.5,112.0596590909091C915.9166666666666,112.05188041125541,918.3333333333334,112.04410173160173,920.75,112.03632305194805C923.1666666666666,112.02854437229436,925.5833333333334,112.0207656926407,928,112.01298701298701C930.4166666666666,112.00520833333333,932.8333333333334,111.99742965367966,935.25,111.98965097402598C937.6666666666666,111.9818722943723,940.0833333333334,111.97409361471863,942.5,111.96631493506494C944.9166666666666,111.95853625541126,947.3333333333334,111.95075757575758,949.75,111.9429788961039C952.1666666666666,111.93520021645021,954.5833333333334,111.92742153679654,957,111.91964285714286C959.4166666666666,111.91186417748918,961.8333333333334,111.9040854978355,964.25,111.89630681818181C966.6666666666667,111.88852813852813,969.0833333333334,111.88074945887446,971.5000000000001,111.87297077922078C973.9166666666667,111.8651920995671,976.3333333333335,111.85741341991341,978.7500000000001,111.84963474025973C981.1666666666667,111.84185606060605,983.5833333333335,111.83407738095238,986.0000000000001,111.8262987012987C988.4166666666667,111.81852002164501,990.8333333333335,111.81074134199135,993.2500000000001,111.80296266233766C995.6666666666667,111.79518398268398,998.0833333333333,111.78740530303031,1000.4999999999999,111.77962662337663C1002.9166666666665,111.77184794372295,1005.3333333333333,111.76406926406928,1007.7499999999999,111.7562905844156C1010.1666666666665,111.74851190476191,1012.5833333333333,111.74073322510823,1014.9999999999999,111.73295454545455C1017.4166666666665,111.72517586580086,1019.8333333333333,111.7173971861472,1022.2499999999999,111.70961850649351C1024.6666666666665,111.70183982683983,1027.0833333333333,111.69406114718615,1029.5,111.68628246753246C1031.9166666666667,111.67850378787878,1034.3333333333333,111.67072510822511,1036.75,111.66294642857143C1039.1666666666667,111.65516774891775,1041.5833333333333,111.64738906926407,1044,111.63961038961038C1046.4166666666667,111.6318317099567,1048.8333333333333,111.62405303030303,1051.25,111.61627435064935C1053.6666666666667,111.60849567099567,1056.0833333333333,111.600716991342,1058.5,111.59293831168831C1060.9166666666667,111.58515963203463,1063.3333333333333,111.57738095238096,1065.75,111.56960227272728C1068.1666666666667,111.5618235930736,1070.5833333333333,111.55404491341992,1073,111.54626623376623C1075.4166666666667,111.53848755411255,1077.8333333333333,111.53070887445888,1080.25,111.5229301948052C1082.6666666666667,111.51515151515152,1085.0833333333333,111.50737283549783,1087.5,111.49959415584415C1089.9166666666667,111.49181547619047,1092.3333333333333,111.4840367965368,1094.75,111.47625811688312C1097.1666666666667,111.46847943722943,1099.5833333333333,111.46070075757575,1102,111.45292207792207C1104.4166666666667,111.44514339826839,1106.8333333333333,111.43736471861472,1109.25,111.42958603896103C1111.6666666666667,111.42180735930735,1114.0833333333333,111.42180735930735,1116.5,111.40625C1118.9166666666667,111.39069264069265,1121.3333333333333,110.01041666666667,1123.75,109.3125C1126.1666666666667,108.61458333333333,1128.5833333333333,107.91666666666667,1131,107.21875C1133.4166666666667,106.52083333333333,1135.8333333333333,105.82291666666667,1138.25,105.125C1140.6666666666667,104.42708333333333,1143.0833333333333,103.72916666666667,1145.5,103.03125C1147.9166666666667,102.33333333333333,1150.3333333333333,101.63541666666667,1152.75,100.9375C1155.1666666666667,100.23958333333333,1157.5833333333333,99.54166666666667,1160,98.84375C1162.4166666666667,98.14583333333333,1164.8333333333333,97.44791666666664,1167.25,96.74999999999999C1169.6666666666667,96.05208333333333,1172.0833333333333,95.35416666666667,1174.5,94.65625000000001C1176.9166666666667,93.95833333333336,1179.3333333333333,93.26041666666667,1181.75,92.5625C1184.1666666666667,91.86458333333333,1186.5833333333333,91.16666666666667,1189,90.46875C1191.4166666666667,89.77083333333333,1193.8333333333333,89.07291666666667,1196.25,88.375C1198.6666666666667,87.67708333333333,1201.0833333333333,86.97916666666667,1203.5,86.28125C1205.9166666666667,85.58333333333333,1208.3333333333333,84.88541666666667,1210.75,84.1875C1213.1666666666667,83.48958333333333,1215.5833333333333,82.79166666666667,1218,82.09375C1220.4166666666667,81.39583333333333,1222.8333333333333,80.69791666666667,1225.25,80C1227.6666666666667,79.30208333333333,1230.0833333333333,78.60416666666667,1232.5,77.90625C1234.9166666666667,77.20833333333333,1237.3333333333333,76.51041666666667,1239.75,75.8125C1242.1666666666667,75.11458333333333,1244.5833333333333,74.41666666666667,1247,73.71875C1249.4166666666667,73.02083333333333,1251.8333333333333,72.32291666666667,1254.25,71.625C1256.6666666666667,70.92708333333333,1259.0833333333333,70.22916666666667,1261.5,69.53125C1263.9166666666667,68.83333333333333,1266.3333333333333,68.13541666666667,1268.75,67.4375C1271.1666666666667,66.73958333333333,1273.5833333333333,66.04166666666667,1276,65.34375C1278.4166666666667,64.64583333333333,1280.8333333333333,63.94791666666667,1283.25,63.25000000000001C1285.6666666666667,62.55208333333334,1288.0833333333333,61.85416666666667,1290.5,61.15625000000001C1292.9166666666667,60.45833333333334,1295.3333333333333,59.760416666666664,1297.75,59.0625C1300.1666666666667,58.364583333333336,1302.5833333333333,57.66666666666667,1305,56.96875000000001C1307.4166666666667,56.27083333333334,1309.8333333333333,55.57291666666666,1312.25,54.87499999999999C1314.6666666666667,54.17708333333333,1317.0833333333333,53.479166666666664,1319.5,52.78125C1321.9166666666667,52.083333333333336,1324.3333333333333,51.38541666666667,1326.75,50.68750000000001C1329.1666666666667,49.98958333333334,1331.5833333333333,49.29166666666666,1334,48.59374999999999C1336.4166666666667,47.89583333333333,1338.8333333333333,47.197916666666664,1341.25,46.5C1343.6666666666667,45.802083333333336,1346.0833333333333,45.10416666666667,1348.5,44.40625000000001C1350.9166666666667,43.70833333333334,1353.3333333333333,43.010416666666664,1355.75,42.31249999999999C1358.1666666666667,41.61458333333332,1360.5833333333333,40.91666666666665,1363,40.218749999999986C1365.4166666666667,39.52083333333332,1367.8333333333333,38.822916666666664,1370.25,38.125C1372.6666666666667,37.427083333333336,1375.0833333333333,36.72916666666666,1377.5,36.03124999999999C1379.9166666666667,35.33333333333333,1382.3333333333333,34.635416666666664,1384.75,33.9375C1387.1666666666667,33.239583333333336,1389.5833333333333,32.54166666666667,1392,31.843750000000004C1394.4166666666667,31.14583333333334,1396.8333333333333,30.447916666666675,1399.25,29.750000000000007C1401.6666666666667,29.05208333333334,1404.0833333333333,28.354166666666668,1406.5,27.65625C1408.9166666666667,26.958333333333332,1411.3333333333333,26.260416666666668,1413.75,25.562500000000004C1416.1666666666667,24.86458333333334,1418.5833333333333,24.16666666666667,1421,23.468750000000007C1423.4166666666667,22.770833333333343,1425.8333333333333,22.07291666666668,1428.25,21.37500000000001C1430.6666666666667,20.677083333333343,1433.0833333333333,19.97916666666667,1435.5,19.281250000000004C1437.9166666666667,18.583333333333336,1440.3333333333333,17.885416666666675,1442.75,17.187500000000007C1445.1666666666667,16.48958333333334,1447.5833333333333,15.79166666666667,1450,15.093749999999998" fill="transparent" stroke-linecap="round" stroke="#B6509E" stroke-width="2"></path><path class="visx-linepath" d="M0,107.81249999998133C2.4166666666666665,107.80938852812763,4.833333333333334,107.80627705627394,7.25,107.80316558441558C9.666666666666666,107.80005411255722,12.083333333333334,107.79694264069265,14.5,107.79383116883118C16.916666666666668,107.7907196969697,19.333333333333332,107.78760822510823,21.75,107.78449675324676C24.166666666666668,107.78138528138528,26.583333333333332,107.77827380952381,29,107.77516233766234C31.416666666666668,107.77205086580086,33.833333333333336,107.7689393939394,36.25,107.76582792207793C38.666666666666664,107.76271645021646,41.083333333333336,107.75960497835499,43.5,107.75649350649351C45.91666666666667,107.75338203463204,48.333333333333336,107.75027056277057,50.75000000000001,107.7471590909091C53.16666666666667,107.74404761904762,55.583333333333336,107.74093614718615,58,107.73782467532467C60.416666666666664,107.7347132034632,62.833333333333336,107.73160173160173,65.25,107.72849025974025C67.66666666666667,107.72537878787878,70.08333333333333,107.72226731601732,72.5,107.71915584415585C74.91666666666667,107.71604437229438,77.33333333333333,107.7129329004329,79.75,107.70982142857143C82.16666666666667,107.70670995670996,84.58333333333333,107.70359848484848,87,107.70048701298701C89.41666666666667,107.69737554112554,91.83333333333333,107.69426406926408,94.25,107.6911525974026C96.66666666666667,107.68804112554113,99.08333333333334,107.68492965367966,101.50000000000001,107.68181818181819C103.91666666666667,107.67870670995671,106.33333333333334,107.67559523809524,108.75,107.67248376623377C111.16666666666667,107.6693722943723,113.58333333333333,107.66626082251082,116,107.66314935064935C118.41666666666667,107.66003787878788,120.83333333333334,107.6569264069264,123.25000000000001,107.65381493506493C125.66666666666667,107.65070346320346,128.08333333333334,107.64759199134198,130.5,107.64448051948051C132.91666666666666,107.64136904761904,135.33333333333334,107.63825757575758,137.75,107.6351461038961C140.16666666666666,107.63203463203463,142.58333333333334,107.62892316017316,145,107.62581168831169C147.41666666666666,107.62270021645021,149.83333333333334,107.61958874458874,152.25,107.61647727272727C154.66666666666666,107.6133658008658,157.08333333333334,107.61025432900433,159.5,107.60714285714286C161.91666666666666,107.60403138528139,164.33333333333334,107.60091991341992,166.75,107.59780844155844C169.16666666666666,107.59469696969697,171.58333333333334,107.5915854978355,174,107.58847402597402C176.41666666666666,107.58536255411255,178.83333333333334,107.58225108225109,181.25,107.57913961038962C183.66666666666666,107.57602813852814,186.08333333333334,107.57291666666667,188.5,107.5698051948052C190.91666666666666,107.56669372294373,193.33333333333334,107.56358225108225,195.75,107.56047077922078C198.16666666666669,107.5573593073593,200.58333333333334,107.55424783549783,203.00000000000003,107.55113636363636C205.41666666666669,107.54802489177489,207.83333333333331,107.54491341991341,210.24999999999997,107.54180194805194C212.66666666666666,107.53869047619047,215.08333333333331,107.53557900432901,217.5,107.53246753246754C219.91666666666666,107.52935606060606,222.33333333333334,107.52624458874459,224.75,107.52313311688312C227.16666666666666,107.52002164502164,229.58333333333334,107.51691017316017,232,107.5137987012987C234.41666666666666,107.51068722943722,236.83333333333334,107.50757575757576,239.25,107.50446428571429C241.66666666666669,107.50135281385282,244.08333333333334,107.49824134199135,246.50000000000003,107.49512987012987C248.91666666666669,107.4920183982684,251.33333333333331,107.48890692640693,253.74999999999997,107.48579545454545C256.16666666666663,107.48268398268398,258.5833333333333,107.47957251082252,261,107.47646103896105C263.4166666666667,107.47334956709958,265.8333333333333,107.47023809523809,268.25,107.46712662337661C270.6666666666667,107.46401515151514,273.0833333333333,107.46090367965367,275.5,107.4577922077922C277.9166666666667,107.45468073593072,280.3333333333333,107.45156926406926,282.75,107.44845779220779C285.1666666666667,107.44534632034632,287.5833333333333,107.44223484848484,290,107.43912337662337C292.4166666666667,107.4360119047619,294.8333333333333,107.43290043290042,297.25,107.42978896103895C299.6666666666667,107.42667748917748,302.0833333333333,107.42356601731602,304.5,107.42045454545455C306.9166666666667,107.41734307359307,309.3333333333333,107.4142316017316,311.75,107.41112012987013C314.1666666666667,107.40800865800865,316.5833333333333,107.4048971861472,319,107.40178571428572C321.4166666666667,107.39867424242425,323.8333333333333,107.39556277056278,326.25,107.3924512987013C328.6666666666667,107.38933982683983,331.0833333333333,107.38622835497836,333.5,107.38311688311688C335.9166666666667,107.38000541125541,338.3333333333333,107.37689393939395,340.75,107.37378246753248C343.1666666666667,107.370670995671,345.5833333333333,107.36755952380953,348,107.36444805194806C350.4166666666667,107.36133658008659,352.8333333333333,107.3582251082251,355.25,107.35511363636363C357.6666666666667,107.35200216450215,360.0833333333333,107.3488906926407,362.5,107.34577922077922C364.9166666666667,107.34266774891775,367.3333333333333,107.33955627705627,369.75,107.3364448051948C372.1666666666667,107.33333333333333,374.5833333333333,107.33022186147186,377,107.32711038961038C379.4166666666667,107.32399891774891,381.8333333333333,107.32088744588745,384.25,107.31777597402598C386.6666666666667,107.3146645021645,389.0833333333333,107.31155303030303,391.5,107.30844155844156C393.9166666666667,107.30533008658008,396.33333333333337,107.30221861471861,398.75000000000006,107.29910714285714C401.16666666666674,107.29599567099567,403.58333333333337,107.2928841991342,406.00000000000006,107.28977272727273C408.4166666666667,107.28666125541126,410.8333333333333,107.28354978354979,413.24999999999994,107.28043831168831C415.66666666666663,107.27732683982684,418.08333333333326,107.27421536796537,420.49999999999994,107.2711038961039C422.91666666666663,107.26799242424242,425.3333333333333,107.26488095238095,427.75,107.26176948051948C430.1666666666667,107.258658008658,432.5833333333333,107.25554653679653,435,107.25243506493506C437.4166666666667,107.24932359307358,439.8333333333333,107.24621212121212,442.25,107.24310064935065C444.6666666666667,107.23998917748918,447.0833333333333,107.2368777056277,449.5,107.23376623376623C451.9166666666667,107.23065476190476,454.3333333333333,107.22754329004329,456.75,107.22443181818181C459.1666666666667,107.22132034632034,461.5833333333333,107.21820887445888,464,107.21509740259741C466.4166666666667,107.21198593073593,468.8333333333333,107.20887445887446,471.25,107.20576298701299C473.6666666666667,107.20265151515152,476.0833333333333,107.19954004329004,478.5,107.19642857142857C480.9166666666667,107.1933170995671,483.33333333333337,107.19020562770564,485.75000000000006,107.18709415584416C488.16666666666674,107.18398268398269,490.58333333333337,107.18087121212122,493.00000000000006,107.17775974025975C495.4166666666667,107.17464826839827,497.8333333333333,107.1715367965368,500.24999999999994,107.16842532467533C502.66666666666663,107.16531385281385,505.08333333333326,107.1622023809524,507.49999999999994,107.15909090909092C509.91666666666663,107.15597943722945,512.3333333333333,107.15286796536796,514.75,107.14975649350649C517.1666666666666,107.14664502164501,519.5833333333334,107.14353354978354,522,107.14042207792207C524.4166666666666,107.1373106060606,526.8333333333334,107.13419913419914,529.25,107.13108766233766C531.6666666666666,107.12797619047619,534.0833333333334,107.12486471861472,536.5,107.12175324675324C538.9166666666666,107.11864177489177,541.3333333333334,107.1155303030303,543.75,107.11241883116882C546.1666666666666,107.10930735930735,548.5833333333334,107.10619588744589,551,107.10308441558442C553.4166666666666,107.09997294372295,555.8333333333334,107.09686147186147,558.25,107.09375C560.6666666666666,107.09063852813853,563.0833333333334,107.08752705627707,565.5,107.0844155844156C567.9166666666666,107.08130411255412,570.3333333333334,107.07819264069265,572.75,107.07508116883118C575.1666666666666,107.0719696969697,577.5833333333334,107.06885822510822,580,107.06574675324674C582.4166666666666,107.06263528138527,584.8333333333334,107.05952380952381,587.25,107.05641233766234C589.6666666666666,107.05330086580086,592.0833333333334,107.05018939393939,594.5,107.04707792207792C596.9166666666666,107.04396645021644,599.3333333333334,107.04085497835497,601.75,107.0377435064935C604.1666666666666,107.03463203463203,606.5833333333334,107.03152056277057,609,107.0284090909091C611.4166666666666,107.02529761904762,613.8333333333334,107.02218614718615,616.25,107.01907467532467C618.6666666666666,107.0159632034632,621.0833333333334,107.01285173160173,623.5,107.00974025974025C625.9166666666666,107.00662878787878,628.3333333333334,107.00351731601732,630.75,107.00040584415585C633.1666666666666,106.99729437229438,635.5833333333334,106.9941829004329,638,106.99107142857143C640.4166666666666,106.98795995670996,642.8333333333334,106.98484848484848,645.25,106.98173701298701C647.6666666666666,106.97862554112554,650.0833333333334,106.97551406926408,652.5,106.9724025974026C654.9166666666666,106.96929112554113,657.3333333333334,106.96617965367966,659.75,106.96306818181819C662.1666666666666,106.95995670995671,664.5833333333334,106.95684523809524,667,106.95373376623377C669.4166666666666,106.9506222943723,671.8333333333334,106.94751082251082,674.25,106.94439935064935C676.6666666666666,106.94128787878788,679.0833333333334,106.9381764069264,681.5,106.93506493506493C683.9166666666666,106.93195346320346,686.3333333333334,106.928841991342,688.75,106.92573051948052C691.1666666666666,106.92261904761905,693.5833333333334,106.91950757575758,696,106.9163961038961C698.4166666666666,106.91328463203463,700.8333333333334,106.91017316017316,703.25,106.90706168831169C705.6666666666666,106.90395021645021,708.0833333333334,106.90083874458875,710.5,106.89772727272728C712.9166666666666,106.89461580086581,715.3333333333334,106.89150432900433,717.75,106.88839285714286C720.1666666666666,106.88528138528139,722.5833333333334,106.88216991341992,725,106.87905844155844C727.4166666666666,106.87594696969697,729.8333333333334,106.87283549783551,732.25,106.86972402597404C734.6666666666666,106.86661255411256,737.0833333333334,106.86350108225108,739.5,106.8603896103896C741.9166666666666,106.85727813852813,744.3333333333334,106.85416666666666,746.75,106.85105519480518C749.1666666666666,106.84794372294371,751.5833333333334,106.84483225108225,754,106.84172077922078C756.4166666666666,106.8386093073593,758.8333333333334,106.83549783549783,761.25,106.83238636363636C763.6666666666666,106.82927489177489,766.0833333333334,106.82616341991341,768.5,106.82305194805194C770.9166666666666,106.81994047619047,773.3333333333334,106.81682900432901,775.75,106.81371753246754C778.1666666666666,106.81060606060606,780.5833333333334,106.80749458874459,783,106.80438311688312C785.4166666666667,106.80127164502164,787.8333333333334,106.79816017316017,790.2500000000001,106.7950487012987C792.6666666666667,106.79193722943722,795.0833333333335,106.78882575757576,797.5000000000001,106.78571428571429C799.9166666666667,106.78260281385282,802.3333333333335,106.77949134199135,804.7500000000001,106.77637987012987C807.1666666666667,106.7732683982684,809.5833333333335,106.77015692640694,812.0000000000001,106.76704545454547C814.4166666666667,106.763933982684,816.8333333333333,106.7608225108225,819.2499999999999,106.75771103896103C821.6666666666665,106.75459956709956,824.0833333333333,106.75148809523809,826.4999999999999,106.74837662337661C828.9166666666665,106.74526515151514,831.3333333333333,106.74215367965368,833.7499999999999,106.73904220779221C836.1666666666665,106.73593073593074,838.5833333333333,106.73281926406926,840.9999999999999,106.72970779220779C843.4166666666666,106.72659632034632,845.8333333333333,106.72348484848484,848.25,106.72037337662337C850.6666666666666,106.7172619047619,853.0833333333334,106.71415043290044,855.5,106.71103896103897C857.9166666666666,106.7079274891775,860.3333333333334,106.70481601731602,862.75,106.70170454545455C865.1666666666666,106.69859307359307,867.5833333333334,106.6954816017316,870,106.69237012987013C872.4166666666666,106.68925865800865,874.8333333333334,106.6861471861472,877.25,106.68303571428572C879.6666666666666,106.67992424242425,882.0833333333334,106.67681277056278,884.5,106.6737012987013C886.9166666666666,106.67058982683983,889.3333333333334,106.66747835497836,891.75,106.66436688311688C894.1666666666666,106.66125541125541,896.5833333333334,106.65814393939394,899,106.65503246753246C901.4166666666666,106.65192099567099,903.8333333333334,106.64880952380952,906.25,106.64569805194805C908.6666666666666,106.64258658008657,911.0833333333334,106.63947510822511,913.5,106.63636363636364C915.9166666666666,106.63325216450217,918.3333333333334,106.6301406926407,920.75,106.62702922077922C923.1666666666666,106.62391774891775,925.5833333333334,106.62080627705627,928,106.6176948051948C930.4166666666666,106.61458333333333,932.8333333333334,106.61147186147187,935.25,106.6083603896104C937.6666666666666,106.60524891774892,940.0833333333334,106.60213744588745,942.5,106.59902597402598C944.9166666666666,106.5959145021645,947.3333333333334,106.59280303030303,949.75,106.58969155844156C952.1666666666666,106.58658008658008,954.5833333333334,106.58346861471863,957,106.58035714285715C959.4166666666666,106.57724567099568,961.8333333333334,106.5741341991342,964.25,106.57102272727273C966.6666666666667,106.56791125541126,969.0833333333334,106.56479978354979,971.5000000000001,106.56168831168831C973.9166666666667,106.55857683982684,976.3333333333335,106.55546536796537,978.7500000000001,106.5523538961039C981.1666666666667,106.54924242424242,983.5833333333335,106.54613095238095,986.0000000000001,106.54301948051948C988.4166666666667,106.539908008658,990.8333333333335,106.53679653679653,993.2500000000001,106.53368506493506C995.6666666666667,106.53057359307358,998.0833333333333,106.52746212121212,1000.4999999999999,106.52435064935065C1002.9166666666665,106.52123917748918,1005.3333333333333,106.5181277056277,1007.7499999999999,106.51501623376623C1010.1666666666665,106.51190476190476,1012.5833333333333,106.50879329004329,1014.9999999999999,106.50568181818181C1017.4166666666665,106.50257034632034,1019.8333333333333,106.49945887445888,1022.2499999999999,106.49634740259741C1024.6666666666665,106.49323593073593,1027.0833333333333,106.49012445887446,1029.5,106.48701298701299C1031.9166666666667,106.48390151515152,1034.3333333333333,106.48079004329004,1036.75,106.47767857142857C1039.1666666666667,106.4745670995671,1041.5833333333333,106.47145562770564,1044,106.46834415584416C1046.4166666666667,106.46523268398269,1048.8333333333333,106.4621212121212,1051.25,106.45900974025973C1053.6666666666667,106.45589826839826,1056.0833333333333,106.4527867965368,1058.5,106.44967532467533C1060.9166666666667,106.44656385281385,1063.3333333333333,106.44345238095238,1065.75,106.4403409090909C1068.1666666666667,106.43722943722943,1070.5833333333333,106.43411796536796,1073,106.43100649350649C1075.4166666666667,106.42789502164501,1077.8333333333333,106.42478354978356,1080.25,106.42167207792208C1082.6666666666667,106.41856060606061,1085.0833333333333,106.41544913419914,1087.5,106.41233766233766C1089.9166666666667,106.40922619047619,1092.3333333333333,106.40611471861472,1094.75,106.40300324675324C1097.1666666666667,106.39989177489177,1099.5833333333333,106.39678030303031,1102,106.39366883116884C1104.4166666666667,106.39055735930737,1106.8333333333333,106.38744588744589,1109.25,106.38433441558442C1111.6666666666667,106.38122294372295,1114.0833333333333,106.38122294372295,1116.5,106.375C1118.9166666666667,106.36877705627705,1121.3333333333333,105.59375,1123.75,105.203125C1126.1666666666667,104.8125,1128.5833333333333,104.421875,1131,104.03125C1133.4166666666667,103.640625,1135.8333333333333,103.25,1138.25,102.859375C1140.6666666666667,102.46875,1143.0833333333333,102.078125,1145.5,101.6875C1147.9166666666667,101.296875,1150.3333333333333,100.90625,1152.75,100.515625C1155.1666666666667,100.125,1157.5833333333333,99.734375,1160,99.34375C1162.4166666666667,98.953125,1164.8333333333333,98.5625,1167.25,98.171875C1169.6666666666667,97.78125,1172.0833333333333,97.390625,1174.5,97C1176.9166666666667,96.609375,1179.3333333333333,96.21875,1181.75,95.828125C1184.1666666666667,95.4375,1186.5833333333333,95.04687500000001,1189,94.65625000000001C1191.4166666666667,94.26562500000001,1193.8333333333333,93.875,1196.25,93.484375C1198.6666666666667,93.09375,1201.0833333333333,92.703125,1203.5,92.3125C1205.9166666666667,91.921875,1208.3333333333333,91.53125,1210.75,91.140625C1213.1666666666667,90.75,1215.5833333333333,90.359375,1218,89.96875C1220.4166666666667,89.578125,1222.8333333333333,89.1875,1225.25,88.796875C1227.6666666666667,88.40625,1230.0833333333333,88.015625,1232.5,87.625C1234.9166666666667,87.234375,1237.3333333333333,86.84375,1239.75,86.453125C1242.1666666666667,86.0625,1244.5833333333333,85.671875,1247,85.28125C1249.4166666666667,84.890625,1251.8333333333333,84.5,1254.25,84.109375C1256.6666666666667,83.71875,1259.0833333333333,83.328125,1261.5,82.9375C1263.9166666666667,82.546875,1266.3333333333333,82.15625,1268.75,81.765625C1271.1666666666667,81.375,1273.5833333333333,80.984375,1276,80.59375C1278.4166666666667,80.203125,1280.8333333333333,79.8125,1283.25,79.421875C1285.6666666666667,79.03125,1288.0833333333333,78.64062500000001,1290.5,78.25000000000001C1292.9166666666667,77.85937500000001,1295.3333333333333,77.46875,1297.75,77.078125C1300.1666666666667,76.6875,1302.5833333333333,76.296875,1305,75.90625C1307.4166666666667,75.515625,1309.8333333333333,75.125,1312.25,74.734375C1314.6666666666667,74.34375,1317.0833333333333,73.953125,1319.5,73.5625C1321.9166666666667,73.171875,1324.3333333333333,72.78125,1326.75,72.390625C1329.1666666666667,72,1331.5833333333333,71.609375,1334,71.21875C1336.4166666666667,70.828125,1338.8333333333333,70.4375,1341.25,70.046875C1343.6666666666667,69.65625,1346.0833333333333,69.26562499999999,1348.5,68.87499999999999C1350.9166666666667,68.48437499999999,1353.3333333333333,68.09375,1355.75,67.703125C1358.1666666666667,67.3125,1360.5833333333333,66.921875,1363,66.53125C1365.4166666666667,66.140625,1367.8333333333333,65.75,1370.25,65.359375C1372.6666666666667,64.96875,1375.0833333333333,64.578125,1377.5,64.1875C1379.9166666666667,63.796875,1382.3333333333333,63.40625000000001,1384.75,63.01562500000001C1387.1666666666667,62.62500000000001,1389.5833333333333,62.23437499999999,1392,61.84374999999999C1394.4166666666667,61.45312499999999,1396.8333333333333,61.0625,1399.25,60.671875C1401.6666666666667,60.28125,1404.0833333333333,59.890625,1406.5,59.5C1408.9166666666667,59.109375,1411.3333333333333,58.71875000000001,1413.75,58.32812500000001C1416.1666666666667,57.93750000000001,1418.5833333333333,57.54687499999999,1421,57.15624999999999C1423.4166666666667,56.76562499999999,1425.8333333333333,56.37500000000001,1428.25,55.98437500000001C1430.6666666666667,55.59375000000001,1433.0833333333333,55.203125,1435.5,54.8125C1437.9166666666667,54.421875,1440.3333333333333,54.03124999999999,1442.75,53.64062499999999C1445.1666666666667,53.24999999999999,1447.5833333333333,52.859375,1450,52.46875000000001" fill="transparent" stroke-linecap="round" stroke="#E7C6DF" stroke-width="2"></path><g class="visx-group visx-axis visx-axis-bottom" transform="translate(0, 115)"><g class="visx-group visx-axis-tick" transform="translate(0, 0)"><line class="visx-line" x1="0" y1="0" x2="0" y2="8" fill="transparent" shape-rendering="crispEdges" stroke="#000" stroke-width="0" stroke-linecap="square"></line><svg x="0" y="0" font-size="10" style="overflow:visible"><text transform="" x="0" y="18" fill="#000" font-size="10" text-anchor="middle"><tspan x="0" dy="0em">0%</tspan></text></svg></g><g class="visx-group visx-axis-tick" transform="translate(0, 0)"><line class="visx-line" x1="362.5" y1="0" x2="362.5" y2="8" fill="transparent" shape-rendering="crispEdges" stroke="#000" stroke-width="0" stroke-linecap="square"></line><svg x="0" y="0" font-size="10" style="overflow:visible"><text transform="" x="362.5" y="18" fill="#000" font-size="10" text-anchor="middle"><tspan x="362.5" dy="0em">25%</tspan></text></svg></g><g class="visx-group visx-axis-tick" transform="translate(0, 0)"><line class="visx-line" x1="725" y1="0" x2="725" y2="8" fill="transparent" shape-rendering="crispEdges" stroke="#000" stroke-width="0" stroke-linecap="square"></line><svg x="0" y="0" font-size="10" style="overflow:visible"><text transform="" x="725" y="18" fill="#000" font-size="10" text-anchor="middle"><tspan x="725" dy="0em">50%</tspan></text></svg></g><g class="visx-group visx-axis-tick" transform="translate(0, 0)"><line class="visx-line" x1="1087.5" y1="0" x2="1087.5" y2="8" fill="transparent" shape-rendering="crispEdges" stroke="#000" stroke-width="0" stroke-linecap="square"></line><svg x="0" y="0" font-size="10" style="overflow:visible"><text transform="" x="1087.5" y="18" fill="#000" font-size="10" text-anchor="middle"><tspan x="1087.5" dy="0em">75%</tspan></text></svg></g><g class="visx-group visx-axis-tick" transform="translate(0, 0)"><line class="visx-line" x1="1450" y1="0" x2="1450" y2="8" fill="transparent" shape-rendering="crispEdges" stroke="#000" stroke-width="0" stroke-linecap="square"></line><svg x="0" y="0" font-size="10" style="overflow:visible"><text transform="" x="1450" y="18" fill="#000" font-size="10" text-anchor="middle"><tspan x="1450" dy="0em">100%</tspan></text></svg></g><line class="visx-line visx-axis-line" x1="0.5" y1="0" x2="1450.5" y2="0" fill="transparent" shape-rendering="crispEdges" stroke="#222" stroke-width="0"></line></g><g class="visx-group visx-axis visx-axis-left" transform="translate(0, 0)"><g class="visx-group visx-axis-tick" transform="translate(0, 0)"><line class="visx-line" x1="0" y1="115" x2="-8" y2="115" fill="transparent" shape-rendering="crispEdges" stroke="#222" stroke-width="0" stroke-linecap="square"></line><svg x="-30" y="0" font-size="8" style="overflow:visible"><text transform="" x="-8" y="115" fill="#000" font-size="8" text-anchor="start"><tspan x="-8" dy="0em">0%</tspan></text></svg></g><g class="visx-group visx-axis-tick" transform="translate(0, 0)"><line class="visx-line" x1="0" y1="43.125" x2="-8" y2="43.125" fill="transparent" shape-rendering="crispEdges" stroke="#222" stroke-width="0" stroke-linecap="square"></line><svg x="-30" y="0" font-size="8" style="overflow:visible"><text transform="" x="-8" y="43.125" fill="#000" font-size="8" text-anchor="start"><tspan x="-8" dy="0em">100%</tspan></text></svg></g><line class="visx-line visx-axis-line" x1="0" y1="115.5" x2="0" y2="0.5" fill="transparent" shape-rendering="crispEdges" stroke="#222" stroke-width="0"></line></g><rect class="visx-bar" width="1450" height="115" fill="transparent"></rect><line class="visx-line" x1="1116.5" y1="28" x2="1116.5" y2="115" fill="transparent" shape-rendering="crispEdges" stroke="#0062D2" stroke-width="1" pointer-events="none" stroke-dasharray="5,2"></line><svg x="0" y="0" font-size="10px" style="overflow:visible"><text transform="" x="1116.5" y="20" font-size="10px" fill="#fff" stroke="#fff" stroke-width="0.8em" text-anchor="middle"><tspan x="1116.5" dy="0.355em">Optimal 77%</tspan></text></svg><svg x="0" y="0" font-size="10px" style="overflow:visible"><text transform="" x="1116.5" y="20" font-size="10px" fill="#62677B" text-anchor="middle"><tspan x="1116.5" dy="0.355em">Optimal 77%</tspan></text></svg></g></svg>