<?xml version="1.0"?><svg xmlns="http://www.w3.org/2000/svg" xmlns:xlink= "http://www.w3.org/1999/xlink" style="background: white;" width="1500" height="300"> <g style="color: black; font-size: 13px; font-family: sans-serif; transform: translate(18px, 25px);"><g><circle r="3" cx="-6" cy="-5" style="fill: #1AD4B3" /><text>Borrow APR, variable</text></g><g style="transform: translateX(150px);"><circle r="3" cx="-6" cy="-5" style="fill: #101423" /><text>Borrow APR, stable</text></g></g><g class="visx-group" transform="translate(45, 50)"><g class="visx-group visx-rows" transform="translate(0, 0)"><line class="visx-line" x1="0" y1="155" x2="1425" y2="155" fill="transparent" shape-rendering="crispEdges" stroke="#F2F0F9" stroke-width="1" pointer-events="none"></line><line class="visx-line" x1="0" y1="110.71428571428572" x2="1425" y2="110.71428571428572" fill="transparent" shape-rendering="crispEdges" stroke="#F2F0F9" stroke-width="1" pointer-events="none"></line><line class="visx-line" x1="0" y1="66.42857142857143" x2="1425" y2="66.42857142857143" fill="transparent" shape-rendering="crispEdges" stroke="#F2F0F9" stroke-width="1" pointer-events="none"></line><line class="visx-line" x1="0" y1="22.14285714285715" x2="1425" y2="22.14285714285715" fill="transparent" shape-rendering="crispEdges" stroke="#F2F0F9" stroke-width="1" pointer-events="none"></line></g><path class="visx-linepath" d="M0,154.99999999993602C2.375,154.9893386243013,4.75,154.9786772486666,7.125,154.96801587301587C9.5,154.95735449736515,11.875,154.94669312169313,14.25,154.93603174603174C16.625,154.92537037037036,19,154.914708994709,21.375,154.90404761904762C23.75,154.89338624338623,26.125,154.88272486772487,28.5,154.8720634920635C30.875,154.8614021164021,33.25,154.85074074074075,35.625,154.84007936507936C38,154.82941798941798,40.375,154.81875661375662,42.75,154.80809523809523C45.125,154.79743386243385,47.50000000000001,154.7867724867725,49.87500000000001,154.7761111111111C52.25000000000001,154.76544973544972,54.625,154.75478835978836,57,154.74412698412698C59.375,154.7334656084656,61.75,154.72280423280424,64.125,154.71214285714285C66.5,154.70148148148147,68.875,154.6908201058201,71.25,154.68015873015872C73.625,154.66949735449734,76,154.65883597883598,78.375,154.6481746031746C80.75,154.6375132275132,83.125,154.62685185185185,85.5,154.61619047619047C87.875,154.60552910052908,90.25,154.59486772486773,92.625,154.58420634920634C95,154.57354497354495,97.37500000000001,154.5628835978836,99.75000000000001,154.5522222222222C102.12500000000001,154.54156084656083,104.5,154.53089947089944,106.875,154.52023809523808C109.25,154.5095767195767,111.625,154.49891534391534,114,154.48825396825399C116.375,154.4775925925926,118.75000000000001,154.46693121693124,121.12500000000001,154.45626984126986C123.50000000000001,154.44560846560847,125.875,154.43494708994712,128.25,154.42428571428573C130.625,154.41362433862435,133,154.402962962963,135.375,154.3923015873016C137.75,154.38164021164022,140.125,154.37097883597886,142.5,154.36031746031748C144.875,154.3496560846561,147.25,154.33899470899473,149.625,154.32833333333335C152,154.31767195767196,154.375,154.3070105820106,156.75,154.29634920634922C159.125,154.28568783068783,161.5,154.27502645502648,163.875,154.2643650793651C166.25,154.2537037037037,168.625,154.24304232804235,171,154.23238095238096C173.375,154.22171957671958,175.75,154.21105820105822,178.125,154.20039682539684C180.5,154.18973544973545,182.875,154.1790740740741,185.25,154.1684126984127C187.625,154.15775132275132,190,154.14708994708997,192.375,154.13642857142858C194.75,154.1257671957672,197.12500000000003,154.11510582010584,199.50000000000003,154.10444444444445C201.875,154.09378306878307,204.25,154.0831216931217,206.62499999999997,154.07246031746033C208.99999999999997,154.06179894179894,211.375,154.05113756613758,213.75,154.0404761904762C216.125,154.0298148148148,218.5,154.01915343915346,220.875,154.00849206349207C223.25,153.99783068783069,225.625,153.98716931216933,228,153.97650793650794C230.375,153.96584656084656,232.75,153.9551851851852,235.125,153.94452380952382C237.5,153.93386243386243,239.87500000000003,153.92320105820107,242.25000000000003,153.9125396825397C244.625,153.9018783068783,247,153.89121693121695,249.37499999999997,153.88055555555556C251.74999999999997,153.86989417989417,254.125,153.85923280423282,256.5,153.84857142857143C258.875,153.83791005291005,261.25,153.8272486772487,263.625,153.8165873015873C266,153.80592592592592,268.375,153.79526455026456,270.75,153.78460317460318C273.125,153.7739417989418,275.5,153.76328042328043,277.875,153.75261904761905C280.25,153.74195767195766,282.625,153.7312962962963,285,153.72063492063492C287.375,153.70997354497354,289.75,153.69931216931218,292.125,153.6886507936508C294.5,153.6779894179894,296.875,153.66732804232805,299.25,153.65666666666667C301.625,153.64600529100528,304,153.63534391534392,306.375,153.62468253968254C308.75,153.61402116402115,311.125,153.6033597883598,313.5,153.5926984126984C315.875,153.58203703703703,318.25,153.57137566137567,320.625,153.56071428571428C323,153.5500529100529,325.375,153.53939153439154,327.75,153.52873015873016C330.125,153.51806878306877,332.5,153.5074074074074,334.875,153.49674603174603C337.25,153.48608465608464,339.625,153.47542328042329,342,153.4647619047619C344.375,153.45410052910051,346.75,153.44343915343916,349.125,153.43277777777777C351.5,153.4221164021164,353.875,153.41145502645503,356.25,153.40079365079364C358.625,153.39013227513226,361,153.3794708994709,363.375,153.36880952380952C365.75,153.35814814814813,368.125,153.34748677248677,370.5,153.3368253968254C372.875,153.326164021164,375.25,153.31550264550265,377.625,153.30484126984126C380,153.29417989417988,382.375,153.28351851851852,384.75,153.27285714285713C387.125,153.26219576719575,389.50000000000006,153.2515343915344,391.87500000000006,153.240873015873C394.25000000000006,153.23021164021162,396.62500000000006,153.21955026455026,399.00000000000006,153.20888888888888C401.375,153.1982275132275,403.75,153.18756613756614,406.12499999999994,153.17690476190475C408.49999999999994,153.16624338624337,410.87499999999994,153.155582010582,413.24999999999994,153.14492063492062C415.62499999999994,153.13425925925924,418,153.12359788359788,420.375,153.1129365079365C422.75,153.1022751322751,425.125,153.09161375661375,427.5,153.08095238095237C429.875,153.07029100529098,432.25,153.05962962962963,434.625,153.04896825396824C437,153.03830687830686,439.375,153.0276455026455,441.75,153.0169841269841C444.125,153.00632275132273,446.5,152.99566137566137,448.875,152.98499999999999C451.25,152.9743386243386,453.625,152.96367724867724,456,152.95301587301586C458.375,152.94235449735447,460.75,152.93169312169312,463.125,152.92103174603173C465.5,152.91037037037034,467.875,152.899708994709,470.25,152.8890476190476C472.625,152.87838624338622,475.00000000000006,152.86772486772486,477.37500000000006,152.85706349206347C479.75000000000006,152.8464021164021,482.12500000000006,152.83574074074073,484.50000000000006,152.82507936507935C486.875,152.81441798941796,489.25,152.8037566137566,491.62499999999994,152.79309523809522C493.99999999999994,152.78243386243383,496.37499999999994,152.77177248677248,498.74999999999994,152.7611111111111C501.12499999999994,152.7504497354497,503.5,152.73978835978835,505.875,152.72912698412696C508.25,152.71846560846558,510.625,152.70780423280422,513,152.69714285714284C515.375,152.68648148148145,517.75,152.6758201058201,520.125,152.6651587301587C522.5,152.65449735449732,524.875,152.64383597883597,527.25,152.6331746031746C529.625,152.62251322751325,532,152.61185185185187,534.375,152.60119047619048C536.75,152.5905291005291,539.125,152.57986772486774,541.5,152.56920634920635C543.875,152.55854497354497,546.25,152.5478835978836,548.625,152.53722222222223C551,152.52656084656084,553.375,152.51589947089948,555.75,152.5052380952381C558.125,152.4945767195767,560.5,152.48391534391536,562.875,152.47325396825397C565.25,152.46259259259259,567.625,152.45193121693123,570,152.44126984126984C572.375,152.43060846560846,574.75,152.4199470899471,577.125,152.40928571428572C579.5,152.39862433862433,581.875,152.38796296296297,584.25,152.3773015873016C586.625,152.3666402116402,589,152.35597883597885,591.375,152.34531746031746C593.75,152.33465608465607,596.125,152.32399470899472,598.5,152.31333333333333C600.875,152.30267195767195,603.25,152.2920105820106,605.625,152.2813492063492C608,152.27068783068782,610.375,152.26002645502646,612.75,152.24936507936508C615.125,152.2387037037037,617.5,152.22804232804233,619.875,152.21738095238095C622.25,152.20671957671956,624.625,152.1960582010582,627,152.18539682539682C629.375,152.17473544973544,631.75,152.16407407407408,634.125,152.1534126984127C636.5,152.1427513227513,638.875,152.1427513227513,641.25,152.12142857142857C643.625,152.10010582010582,646,151.31623376623375,648.375,150.91363636363636C650.75,150.51103896103896,653.125,150.10844155844154,655.5,149.70584415584415C657.875,149.30324675324675,660.25,148.90064935064933,662.625,148.49805194805194C665,148.09545454545454,667.375,147.69285714285712,669.75,147.29025974025973C672.125,146.88766233766233,674.5,146.4850649350649,676.875,146.08246753246752C679.25,145.67987012987012,681.625,145.2772727272727,684,144.8746753246753C686.375,144.47207792207791,688.75,144.06948051948052,691.125,143.66688311688313C693.5,143.26428571428573,695.875,142.8616883116883,698.25,142.45909090909092C700.625,142.05649350649352,703,141.6538961038961,705.375,141.2512987012987C707.75,140.84870129870131,710.125,140.4461038961039,712.5,140.0435064935065C714.875,139.6409090909091,717.25,139.23831168831168,719.625,138.8357142857143C722,138.4331168831169,724.375,138.03051948051947,726.75,137.62792207792208C729.125,137.22532467532469,731.5,136.82272727272726,733.875,136.42012987012987C736.25,136.01753246753248,738.625,135.61493506493505,741,135.21233766233766C743.375,134.80974025974027,745.75,134.40714285714284,748.125,134.00454545454545C750.5,133.60194805194806,752.875,133.19935064935066,755.25,132.79675324675327C757.625,132.39415584415588,760,131.99155844155842,762.375,131.58896103896103C764.75,131.18636363636364,767.125,130.78376623376622,769.5,130.38116883116882C771.875,129.97857142857143,774.2500000000001,129.575974025974,776.6250000000001,129.1733766233766C779.0000000000001,128.77077922077922,781.3750000000001,128.36818181818182,783.7500000000001,127.96558441558443C786.1250000000001,127.56298701298704,788.5000000000001,127.16038961038963,790.8750000000001,126.75779220779222C793.2500000000001,126.35519480519481,795.6250000000001,125.95259740259742,798.0000000000001,125.55000000000001C800.375,125.14740259740262,802.75,124.7448051948052,805.1249999999999,124.3422077922078C807.4999999999999,123.9396103896104,809.8749999999999,123.537012987013,812.2499999999999,123.13441558441559C814.6249999999999,122.73181818181818,816.9999999999999,122.32922077922078,819.3749999999999,121.92662337662337C821.7499999999999,121.52402597402596,824.1249999999999,121.12142857142857,826.4999999999999,120.71883116883117C828.8749999999999,120.31623376623376,831.25,119.91363636363636,833.625,119.51103896103895C836,119.10844155844156,838.375,118.70584415584416,840.75,118.30324675324675C843.125,117.90064935064935,845.5,117.49805194805194,847.875,117.09545454545453C850.25,116.69285714285712,852.625,116.29025974025976,855,115.88766233766235C857.375,115.48506493506494,859.75,115.08246753246752,862.125,114.67987012987011C864.5,114.2772727272727,866.875,113.87467532467532,869.25,113.47207792207793C871.625,113.06948051948054,874,112.66688311688313,876.375,112.26428571428572C878.75,111.86168831168831,881.125,111.45909090909092,883.5,111.05649350649351C885.875,110.6538961038961,888.25,110.25129870129871,890.625,109.8487012987013C893,109.44610389610389,895.375,109.04350649350648,897.75,108.64090909090909C900.125,108.2383116883117,902.5,107.83571428571432,904.875,107.43311688311691C907.25,107.0305194805195,909.625,106.62792207792208,912,106.22532467532467C914.375,105.82272727272726,916.75,105.42012987012987,919.125,105.01753246753248C921.5,104.61493506493508,923.875,104.21233766233767,926.25,103.80974025974027C928.625,103.40714285714286,931,103.00454545454546,933.375,102.60194805194806C935.75,102.19935064935065,938.125,101.79675324675325,940.5,101.39415584415585C942.875,100.99155844155844,945.25,100.58896103896103,947.625,100.18636363636364C950,99.78376623376623,952.3750000000001,99.38116883116884,954.7500000000001,98.97857142857143C957.1250000000001,98.57597402597403,959.5000000000001,98.17337662337664,961.8750000000001,97.77077922077923C964.2500000000001,97.36818181818182,966.6250000000001,96.96558441558442,969.0000000000001,96.56298701298701C971.3750000000001,96.1603896103896,973.7500000000001,95.7577922077922,976.1250000000001,95.3551948051948C978.5,94.9525974025974,980.875,94.54999999999998,983.2499999999999,94.14740259740259C985.6249999999999,93.74480519480518,987.9999999999999,93.3422077922078,990.3749999999999,92.93961038961041C992.7499999999999,92.53701298701301,995.1249999999999,92.13441558441559,997.4999999999999,91.73181818181818C999.8749999999999,91.32922077922078,1002.2499999999999,90.92662337662337,1004.6249999999999,90.52402597402597C1006.9999999999999,90.12142857142857,1009.375,89.71883116883117,1011.75,89.31623376623376C1014.125,88.91363636363637,1016.5,88.51103896103896,1018.875,88.10844155844156C1021.25,87.70584415584415,1023.625,87.30324675324675,1026,86.90064935064935C1028.375,86.49805194805194,1030.75,86.09545454545456,1033.125,85.69285714285715C1035.5,85.29025974025974,1037.875,84.88766233766233,1040.25,84.48506493506493C1042.625,84.08246753246752,1045,83.67987012987012,1047.375,83.27727272727272C1049.75,82.87467532467531,1052.125,82.4720779220779,1054.5,82.0694805194805C1056.875,81.66688311688311,1059.25,81.26428571428573,1061.625,80.86168831168833C1064,80.45909090909092,1066.375,80.05649350649351,1068.75,79.6538961038961C1071.125,79.2512987012987,1073.5,78.84870129870131,1075.875,78.4461038961039C1078.25,78.0435064935065,1080.625,77.64090909090909,1083,77.23831168831168C1085.375,76.83571428571427,1087.75,76.4331168831169,1090.125,76.03051948051949C1092.5,75.62792207792208,1094.875,75.22532467532467,1097.25,74.82272727272726C1099.625,74.42012987012986,1102,74.01753246753248,1104.375,73.61493506493507C1106.75,73.21233766233766,1109.125,72.80974025974027,1111.5,72.40714285714286C1113.875,72.00454545454545,1116.25,71.60194805194806,1118.625,71.19935064935066C1121,70.79675324675327,1123.375,70.39415584415586,1125.75,69.99155844155845C1128.125,69.58896103896105,1130.5,69.18636363636364,1132.875,68.78376623376623C1135.25,68.38116883116882,1137.625,67.97857142857144,1140,67.57597402597403C1142.375,67.17337662337663,1144.75,66.77077922077922,1147.125,66.36818181818181C1149.5,65.9655844155844,1151.875,65.56298701298701,1154.25,65.1603896103896C1156.625,64.75779220779219,1159,64.35519480519478,1161.375,63.95259740259739C1163.75,63.54999999999999,1166.125,63.1474025974026,1168.5,62.7448051948052C1170.875,62.3422077922078,1173.25,61.939610389610394,1175.625,61.53701298701299C1178,61.13441558441559,1180.375,60.731818181818184,1182.75,60.32922077922078C1185.125,59.92662337662338,1187.5,59.52402597402598,1189.875,59.121428571428574C1192.25,58.718831168831166,1194.625,58.31623376623375,1197,57.91363636363635C1199.375,57.51103896103895,1201.75,57.10844155844156,1204.125,56.70584415584416C1206.5,56.30324675324676,1208.875,55.90064935064935,1211.25,55.49805194805195C1213.625,55.09545454545455,1216,54.69285714285714,1218.375,54.29025974025974C1220.75,53.88766233766234,1223.125,53.48506493506493,1225.5,53.08246753246753C1227.875,52.67987012987013,1230.25,52.277272727272724,1232.625,51.87467532467532C1235,51.47207792207792,1237.375,51.06948051948053,1239.75,50.66688311688312C1242.125,50.26428571428571,1244.5,49.86168831168829,1246.875,49.45909090909089C1249.25,49.05649350649349,1251.625,48.653896103896095,1254,48.2512987012987C1256.375,47.84870129870131,1258.75,47.446103896103914,1261.125,47.04350649350651C1263.5,46.64090909090911,1265.875,46.23831168831169,1268.25,45.83571428571428C1270.625,45.433116883116874,1273,45.03051948051948,1275.375,44.62792207792208C1277.75,44.22532467532468,1280.125,43.822727272727285,1282.5,43.420129870129884C1284.875,43.01753246753248,1287.25,42.61493506493507,1289.625,42.21233766233766C1292,41.80974025974025,1294.375,41.40714285714284,1296.75,41.004545454545436C1299.125,40.601948051948035,1301.5,40.199350649350635,1303.875,39.79675324675324C1306.25,39.39415584415585,1308.625,38.99155844155845,1311,38.58896103896105C1313.375,38.18636363636365,1315.75,37.78376623376625,1318.125,37.38116883116884C1320.5,36.978571428571435,1322.875,36.57597402597403,1325.25,36.17337662337662C1327.625,35.77077922077921,1330,35.36818181818181,1332.375,34.96558441558441C1334.75,34.56298701298701,1337.125,34.16038961038962,1339.5,33.75779220779222C1341.875,33.35519480519482,1344.25,32.952597402597405,1346.625,32.55C1349,32.14740259740259,1351.375,31.74480519480519,1353.75,31.342207792207788C1356.125,30.939610389610387,1358.5,30.537012987013,1360.875,30.134415584415596C1363.25,29.73181818181819,1365.625,29.32922077922077,1368,28.92662337662337C1370.375,28.524025974025967,1372.75,28.12142857142858,1375.125,27.71883116883118C1377.5,27.31623376623378,1379.875,26.913636363636375,1382.25,26.51103896103897C1384.625,26.108441558441566,1387,25.70584415584415,1389.375,25.303246753246746C1391.75,24.900649350649342,1394.125,24.498051948051938,1396.5,24.095454545454537C1398.875,23.692857142857136,1401.25,23.290259740259742,1403.625,22.887662337662345C1406,22.485064935064948,1408.375,22.08246753246756,1410.75,21.679870129870157C1413.125,21.277272727272752,1415.5,20.874675324675334,1417.875,20.47207792207793C1420.25,20.069480519480525,1422.625,19.666883116883124,1425,19.264285714285723" fill="transparent" stroke-linecap="round" stroke="#1AD4B3" stroke-width="2"></path><g class="visx-group visx-axis visx-axis-bottom" transform="translate(0, 155)"><g class="visx-group visx-axis-tick" transform="translate(0, 0)"><line class="visx-line" x1="0" y1="0" x2="0" y2="8" fill="transparent" shape-rendering="crispEdges" stroke="#F2F0F9" stroke-width="1" stroke-linecap="square"></line><svg x="0" y="0" font-size="11" style="overflow:visible"><text transform="" x="0" y="19" fill="#1B2030" font-size="11" text-anchor="middle"><tspan x="0" dy="0em">0%</tspan></text></svg></g><g class="visx-group visx-axis-tick" transform="translate(0, 0)"><line class="visx-line" x1="356.25" y1="0" x2="356.25" y2="8" fill="transparent" shape-rendering="crispEdges" stroke="#F2F0F9" stroke-width="1" stroke-linecap="square"></line><svg x="0" y="0" font-size="11" style="overflow:visible"><text transform="" x="356.25" y="19" fill="#1B2030" font-size="11" text-anchor="middle"><tspan x="356.25" dy="0em">25%</tspan></text></svg></g><g class="visx-group visx-axis-tick" transform="translate(0, 0)"><line class="visx-line" x1="712.5" y1="0" x2="712.5" y2="8" fill="transparent" shape-rendering="crispEdges" stroke="#F2F0F9" stroke-width="1" stroke-linecap="square"></line><svg x="0" y="0" font-size="11" style="overflow:visible"><text transform="" x="712.5" y="19" fill="#1B2030" font-size="11" text-anchor="middle"><tspan x="712.5" dy="0em">50%</tspan></text></svg></g><g class="visx-group visx-axis-tick" transform="translate(0, 0)"><line class="visx-line" x1="1068.75" y1="0" x2="1068.75" y2="8" fill="transparent" shape-rendering="crispEdges" stroke="#F2F0F9" stroke-width="1" stroke-linecap="square"></line><svg x="0" y="0" font-size="11" style="overflow:visible"><text transform="" x="1068.75" y="19" fill="#1B2030" font-size="11" text-anchor="middle"><tspan x="1068.75" dy="0em">75%</tspan></text></svg></g><g class="visx-group visx-axis-tick" transform="translate(0, 0)"><line class="visx-line" x1="1425" y1="0" x2="1425" y2="8" fill="transparent" shape-rendering="crispEdges" stroke="#F2F0F9" stroke-width="1" stroke-linecap="square"></line><svg x="0" y="0" font-size="11" style="overflow:visible"><text transform="" x="1425" y="19" fill="#1B2030" font-size="11" text-anchor="middle"><tspan x="1425" dy="0em">100%</tspan></text></svg></g></g><g class="visx-group visx-axis visx-axis-left" transform="translate(0, 0)"><g class="visx-group visx-axis-tick" transform="translate(0, 0)"><line class="visx-line" x1="0" y1="155" x2="-8" y2="155" fill="transparent" shape-rendering="crispEdges" stroke="#F2F0F9" stroke-width="1" stroke-linecap="square"></line><svg x="-30" y="0" font-size="11" style="overflow:visible"><text transform="" x="-8" y="155" fill="#1B2030" font-size="11" text-anchor="start"><tspan x="-8" dy="0em">0%</tspan></text></svg></g><g class="visx-group visx-axis-tick" transform="translate(0, 0)"><line class="visx-line" x1="0" y1="110.71428571428572" x2="-8" y2="110.71428571428572" fill="transparent" shape-rendering="crispEdges" stroke="#F2F0F9" stroke-width="1" stroke-linecap="square"></line><svg x="-30" y="0" font-size="11" style="overflow:visible"><text transform="" x="-8" y="110.71428571428572" fill="#1B2030" font-size="11" text-anchor="start"><tspan x="-8" dy="0em">100%</tspan></text></svg></g><g class="visx-group visx-axis-tick" transform="translate(0, 0)"><line class="visx-line" x1="0" y1="66.42857142857143" x2="-8" y2="66.42857142857143" fill="transparent" shape-rendering="crispEdges" stroke="#F2F0F9" stroke-width="1" stroke-linecap="square"></line><svg x="-30" y="0" font-size="11" style="overflow:visible"><text transform="" x="-8" y="66.42857142857143" fill="#1B2030" font-size="11" text-anchor="start"><tspan x="-8" dy="0em">200%</tspan></text></svg></g><g class="visx-group visx-axis-tick" transform="translate(0, 0)"><line class="visx-line" x1="0" y1="22.14285714285715" x2="-8" y2="22.14285714285715" fill="transparent" shape-rendering="crispEdges" stroke="#F2F0F9" stroke-width="1" stroke-linecap="square"></line><svg x="-30" y="0" font-size="11" style="overflow:visible"><text transform="" x="-8" y="22.14285714285715" fill="#1B2030" font-size="11" text-anchor="start"><tspan x="-8" dy="0em">300%</tspan></text></svg></g><line class="visx-line visx-axis-line" x1="0" y1="155.5" x2="0" y2="0.5" fill="transparent" shape-rendering="crispEdges" stroke="#F2F0F9" stroke-width="1"></line></g><rect class="visx-bar" width="1425" height="155" fill="transparent"></rect><line class="visx-line" x1="641.25" y1="58" x2="641.25" y2="155" fill="transparent" shape-rendering="crispEdges" stroke="#CDC8E1" stroke-width="1" pointer-events="none" stroke-dasharray="5"></line><svg x="0" y="0" font-size="11px" style="overflow:visible"><text transform="" x="641.25" y="50" font-size="11px" fill="#555069" stroke="#FFFFFF" stroke-width="1px" text-anchor="middle"><tspan x="641.25" dy="0.355em">Optimal utilization 45%</tspan></text></svg><svg x="0" y="0" font-size="11px" style="overflow:visible"><text transform="" x="641.25" y="50" font-size="11px" fill="#CDC8E1" text-anchor="middle"><tspan x="641.25" dy="0.355em">Optimal utilization 45%</tspan></text></svg></g></svg>