<?xml version="1.0"?><svg xmlns="http://www.w3.org/2000/svg" xmlns:xlink= "http://www.w3.org/1999/xlink" style="background: white;" width="1500" height="185"> <g style="color: black; font-size: 13px; font-family: sans-serif; transform: translate(18px, 25px);"><g><circle r="3" cx="-6" cy="-5" style="fill: #B6509E" /><text>Borrow APR, variable</text></g><g style="transform: translateX(150px);"><circle r="3" cx="-6" cy="-5" style="fill: rgb(231, 198, 223)" /><text>Borrow APR, stable</text></g><g style="transform: translateX(290px);"><circle r="3" cx="-6" cy="-5" style="fill: rgb(0, 98, 210)" /><text>Utilization Rate</text></g></g><g class="visx-group" transform="translate(40, 50)"><g class="visx-group visx-rows" transform="translate(0, 0)"><line class="visx-line" x1="0" y1="115" x2="1450" y2="115" fill="transparent" shape-rendering="crispEdges" stroke="#000" stroke-width="1" stroke-dasharray="3,3" pointer-events="none"></line><line class="visx-line" x1="0" y1="70.76923076923077" x2="1450" y2="70.76923076923077" fill="transparent" shape-rendering="crispEdges" stroke="#000" stroke-width="1" stroke-dasharray="3,3" pointer-events="none"></line><line class="visx-line" x1="0" y1="26.538461538461533" x2="1450" y2="26.538461538461533" fill="transparent" shape-rendering="crispEdges" stroke="#000" stroke-width="1" stroke-dasharray="3,3" pointer-events="none"></line></g><path class="visx-linepath" d="M0,114.99999999993771C2.4166666666666665,114.98961719028509,4.833333333333334,114.97923438063245,7.25,114.96885157096425C9.666666666666666,114.95846876129605,12.083333333333334,114.94808595160708,14.5,114.9377031419285C16.916666666666668,114.9273203322499,19.333333333333332,114.91693752257133,21.75,114.90655471289274C24.166666666666668,114.89617190321415,26.583333333333332,114.88578909353558,29,114.87540628385699C31.416666666666668,114.8650234741784,33.833333333333336,114.85464066449983,36.25,114.84425785482124C38.666666666666664,114.83387504514265,41.083333333333336,114.82349223546407,43.5,114.81310942578548C45.91666666666667,114.8027266161069,48.333333333333336,114.79234380642832,50.75000000000001,114.78196099674973C53.16666666666667,114.77157818707114,55.583333333333336,114.76119537739257,58,114.75081256771398C60.416666666666664,114.74042975803539,62.833333333333336,114.73004694835682,65.25,114.71966413867823C67.66666666666667,114.70928132899964,70.08333333333333,114.69889851932106,72.5,114.68851570964247C74.91666666666667,114.67813289996388,77.33333333333333,114.6677500902853,79.75,114.6573672806067C82.16666666666667,114.64698447092812,84.58333333333333,114.63660166124956,87,114.62621885157097C89.41666666666667,114.61583604189238,91.83333333333333,114.6054532322138,94.25,114.59507042253522C96.66666666666667,114.58468761285663,99.08333333333334,114.57430480317805,101.50000000000001,114.56392199349946C103.91666666666667,114.55353918382087,106.33333333333334,114.54315637414228,108.75,114.5327735644637C111.16666666666667,114.5223907547851,113.58333333333333,114.51200794510652,116,114.50162513542794C118.41666666666667,114.49124232574935,120.83333333333334,114.4808595160708,123.25000000000001,114.4704767063922C125.66666666666667,114.46009389671363,128.08333333333334,114.44971108703504,130.5,114.43932827735645C132.91666666666666,114.42894546767786,135.33333333333334,114.41856265799929,137.75,114.4081798483207C140.16666666666666,114.39779703864211,142.58333333333334,114.38741422896352,145,114.37703141928493C147.41666666666666,114.36664860960634,149.83333333333334,114.35626579992777,152.25,114.34588299024918C154.66666666666666,114.33550018057059,157.08333333333334,114.32511737089203,159.5,114.31473456121344C161.91666666666666,114.30435175153485,164.33333333333334,114.29396894185628,166.75,114.28358613217769C169.16666666666666,114.2732033224991,171.58333333333334,114.26282051282051,174,114.25243770314192C176.41666666666666,114.24205489346333,178.83333333333334,114.23167208378476,181.25,114.22128927410617C183.66666666666666,114.21090646442758,186.08333333333334,114.20052365474899,188.5,114.19014084507042C190.91666666666666,114.17975803539184,193.33333333333334,114.16937522571327,195.75,114.15899241603468C198.16666666666669,114.14860960635609,200.58333333333334,114.1382267966775,203.00000000000003,114.12784398699891C205.41666666666669,114.11746117732032,207.83333333333331,114.10707836764175,210.24999999999997,114.09669555796316C212.66666666666666,114.08631274828457,215.08333333333331,114.075929938606,217.5,114.0655471289274C219.91666666666666,114.05516431924883,222.33333333333334,114.04478150957026,224.75,114.03439869989167C227.16666666666666,114.02401589021308,229.58333333333334,114.01363308053449,232,114.0032502708559C234.41666666666666,113.99286746117731,236.83333333333334,113.98248465149874,239.25,113.97210184182015C241.66666666666669,113.96171903214156,244.08333333333334,113.95133622246298,246.50000000000003,113.9409534127844C248.91666666666669,113.9305706031058,251.33333333333331,113.92018779342722,253.74999999999997,113.90980498374864C256.16666666666663,113.89942217407005,258.5833333333333,113.8890393643915,261,113.8786565547129C263.4166666666667,113.86827374503432,265.8333333333333,113.85789093535573,268.25,113.84750812567714C270.6666666666667,113.83712531599855,273.0833333333333,113.82674250631997,275.5,113.81635969664138C277.9166666666667,113.8059768869628,280.3333333333333,113.79559407728422,282.75,113.78521126760563C285.1666666666667,113.77482845792704,287.5833333333333,113.76444564824847,290,113.75406283856988C292.4166666666667,113.74368002889129,294.8333333333333,113.73329721921272,297.25,113.72291440953413C299.6666666666667,113.71253159985554,302.0833333333333,113.70214879017696,304.5,113.69176598049837C306.9166666666667,113.68138317081979,309.3333333333333,113.67100036114121,311.75,113.66061755146262C314.1666666666667,113.65023474178403,316.5833333333333,113.63985193210546,319,113.62946912242687C321.4166666666667,113.61908631274828,323.8333333333333,113.6087035030697,326.25,113.59832069339112C328.6666666666667,113.58793788371253,331.0833333333333,113.57755507403395,333.5,113.56717226435536C335.9166666666667,113.55678945467677,338.3333333333333,113.5464066449982,340.75,113.53602383531961C343.1666666666667,113.52564102564102,345.5833333333333,113.51525821596245,348,113.50487540628386C350.4166666666667,113.49449259660527,352.8333333333333,113.4841097869267,355.25,113.4737269772481C357.6666666666667,113.46334416756952,360.0833333333333,113.45296135789094,362.5,113.44257854821235C364.9166666666667,113.43219573853376,367.3333333333333,113.42181292885519,369.75,113.4114301191766C372.1666666666667,113.40104730949801,374.5833333333333,113.39066449981944,377,113.38028169014085C379.4166666666667,113.36989888046226,381.8333333333333,113.35951607078368,384.25,113.3491332611051C386.6666666666667,113.3387504514265,389.0833333333333,113.32836764174792,391.5,113.31798483206933C393.9166666666667,113.30760202239074,396.33333333333337,113.29721921271218,398.75000000000006,113.28683640303359C401.16666666666674,113.27645359335501,403.58333333333337,113.26607078367643,406.00000000000006,113.25568797399784C408.4166666666667,113.24530516431925,410.8333333333333,113.23492235464067,413.24999999999994,113.22453954496208C415.66666666666663,113.2141567352835,418.08333333333326,113.2037739256049,420.49999999999994,113.19339111592632C422.91666666666663,113.18300830624773,425.3333333333333,113.17262549656915,427.75,113.16224268689056C430.1666666666667,113.15185987721199,432.5833333333333,113.1414770675334,435,113.13109425785483C437.4166666666667,113.12071144817625,439.8333333333333,113.11032863849766,442.25,113.09994582881907C444.6666666666667,113.08956301914048,447.0833333333333,113.07918020946191,449.5,113.06879739978332C451.9166666666667,113.05841459010473,454.3333333333333,113.04803178042614,456.75,113.03764897074755C459.1666666666667,113.02726616106897,461.5833333333333,113.01688335139039,464,113.00650054171182C466.4166666666667,112.99611773203324,468.8333333333333,112.98573492235465,471.25,112.97535211267606C473.6666666666667,112.96496930299747,476.0833333333333,112.9545864933189,478.5,112.94420368364031C480.9166666666667,112.93382087396172,483.33333333333337,112.92343806428313,485.75000000000006,112.91305525460454C488.16666666666674,112.90267244492595,490.58333333333337,112.89228963524738,493.00000000000006,112.88190682556879C495.4166666666667,112.87152401589022,497.8333333333333,112.86114120621163,500.24999999999994,112.85075839653305C502.66666666666663,112.84037558685446,505.08333333333326,112.82999277717589,507.49999999999994,112.8196099674973C509.91666666666663,112.80922715781871,512.3333333333333,112.79884434814012,514.75,112.78846153846153C517.1666666666666,112.77807872878294,519.5833333333334,112.76769591910437,522,112.75731310942578C524.4166666666666,112.74693029974719,526.8333333333334,112.7365474900686,529.25,112.72616468039003C531.6666666666666,112.71578187071145,534.0833333333334,112.70539906103288,536.5,112.69501625135429C538.9166666666666,112.6846334416757,541.3333333333334,112.67425063199711,543.75,112.66386782231852C546.1666666666666,112.65348501263993,548.5833333333334,112.64310220296136,551,112.63271939328277C553.4166666666666,112.62233658360418,555.8333333333334,112.6119537739256,558.25,112.60157096424702C560.6666666666666,112.59118815456843,563.0833333333334,112.58080534488985,565.5,112.57042253521126C567.9166666666666,112.56003972553268,570.3333333333334,112.54965691585411,572.75,112.53927410617553C575.1666666666666,112.52889129649694,577.5833333333334,112.51850848681835,580,112.50812567713976C582.4166666666666,112.49774286746117,584.8333333333334,112.4873600577826,587.25,112.476977248104C589.6666666666666,112.46659443842542,592.0833333333334,112.45621162874684,594.5,112.44582881906825C596.9166666666666,112.43544600938966,599.3333333333334,112.42506319971109,601.75,112.4146803900325C604.1666666666666,112.40429758035391,606.5833333333334,112.39391477067534,609,112.38353196099675C611.4166666666666,112.37314915131816,613.8333333333334,112.36276634163958,616.25,112.352383531961C618.6666666666666,112.3420007222824,621.0833333333334,112.33161791260383,623.5,112.32123510292524C625.9166666666666,112.31085229324665,628.3333333333334,112.30046948356808,630.75,112.29008667388949C633.1666666666666,112.2797038642109,635.5833333333334,112.26932105453233,638,112.25893824485374C640.4166666666666,112.24855543517515,642.8333333333334,112.23817262549657,645.25,112.22778981581799C647.6666666666666,112.2174070061394,650.0833333333334,112.20702419646082,652.5,112.19664138678223C654.9166666666666,112.18625857710364,657.3333333333334,112.17587576742507,659.75,112.16549295774648C662.1666666666666,112.15511014806789,664.5833333333334,112.1447273383893,667,112.13434452871071C669.4166666666666,112.12396171903212,671.8333333333334,112.11357890935355,674.25,112.10319609967497C676.6666666666666,112.0928132899964,679.0833333333334,112.08243048031781,681.5,112.07204767063922C683.9166666666666,112.06166486096063,686.3333333333334,112.05128205128206,688.75,112.04089924160347C691.1666666666666,112.03051643192488,693.5833333333334,112.0201336222463,696,112.00975081256772C698.4166666666666,111.99936800288913,700.8333333333334,111.98898519321055,703.25,111.97860238353196C705.6666666666666,111.96821957385337,708.0833333333334,111.9578367641748,710.5,111.94745395449621C712.9166666666666,111.93707114481762,715.3333333333334,111.92668833513905,717.75,111.91630552546046C720.1666666666666,111.90592271578187,722.5833333333334,111.8955399061033,725,111.8851570964247C727.4166666666666,111.87477428674612,729.8333333333334,111.86439147706753,732.25,111.85400866738894C734.6666666666666,111.84362585771035,737.0833333333334,111.83324304803179,739.5,111.8228602383532C741.9166666666666,111.81247742867461,744.3333333333334,111.80209461899604,746.75,111.79171180931745C749.1666666666666,111.78132899963886,751.5833333333334,111.77094618996028,754,111.7605633802817C756.4166666666666,111.7501805706031,758.8333333333334,111.73979776092452,761.25,111.72941495124593C763.6666666666666,111.71903214156734,766.0833333333334,111.70864933188875,768.5,111.69826652221018C770.9166666666666,111.6878837125316,773.3333333333334,111.67750090285301,775.75,111.66711809317444C778.1666666666666,111.65673528349586,780.5833333333334,111.64635247381727,783,111.63596966413868C785.4166666666667,111.6255868544601,787.8333333333334,111.61520404478152,790.2500000000001,111.60482123510293C792.6666666666667,111.59443842542434,795.0833333333335,111.58405561574575,797.5000000000001,111.57367280606717C799.9166666666667,111.56328999638858,802.3333333333335,111.55290718671,804.7500000000001,111.54252437703141C807.1666666666667,111.53214156735282,809.5833333333335,111.52175875767426,812.0000000000001,111.51137594799567C814.4166666666667,111.5009931383171,816.8333333333333,111.49061032863851,819.2499999999999,111.48022751895992C821.6666666666665,111.46984470928133,824.0833333333333,111.45946189960274,826.4999999999999,111.44907908992415C828.9166666666665,111.43869628024557,831.3333333333333,111.42831347056699,833.7499999999999,111.4179306608884C836.1666666666665,111.40754785120981,838.5833333333333,111.39716504153122,840.9999999999999,111.38678223185265C843.4166666666666,111.37639942217406,845.8333333333333,111.3660166124955,848.25,111.35563380281691C850.6666666666666,111.34525099313832,853.0833333333334,111.33486818345973,855.5,111.32448537378114C857.9166666666666,111.31410256410255,860.3333333333334,111.30371975442398,862.75,111.29333694474539C865.1666666666666,111.2829541350668,867.5833333333334,111.27257132538821,870,111.26218851570964C872.4166666666666,111.25180570603106,874.8333333333334,111.24142289635249,877.25,111.2310400866739C879.6666666666666,111.22065727699531,882.0833333333334,111.21027446731672,884.5,111.19989165763813C886.9166666666666,111.18950884795954,889.3333333333334,111.17912603828097,891.75,111.16874322860238C894.1666666666666,111.15836041892379,896.5833333333334,111.14797760924522,899,111.13759479956663C901.4166666666666,111.12721198988804,903.8333333333334,111.11682918020946,906.25,111.10644637053088C908.6666666666666,111.09606356085229,911.0833333333334,111.08568075117371,913.5,111.07529794149512C915.9166666666666,111.06491513181653,918.3333333333334,111.05453232213796,920.75,111.04414951245937C923.1666666666666,111.03376670278078,925.5833333333334,111.0233838931022,928,111.01300108342362C930.4166666666666,111.00261827374503,932.8333333333334,110.99223546406645,935.25,110.98185265438786C937.6666666666666,110.97146984470928,940.0833333333334,110.9610870350307,942.5,110.95070422535211C944.9166666666666,110.94032141567352,947.3333333333334,110.92993860599495,949.75,110.91955579631636C952.1666666666666,110.90917298663777,954.5833333333334,110.8987901769592,957,110.8884073672806C959.4166666666666,110.87802455760202,961.8333333333334,110.86764174792344,964.25,110.85725893824485C966.6666666666667,110.84687612856627,969.0833333333334,110.83649331888769,971.5000000000001,110.8261105092091C973.9166666666667,110.81572769953051,976.3333333333335,110.80534488985194,978.7500000000001,110.79496208017335C981.1666666666667,110.78457927049476,983.5833333333335,110.77419646081619,986.0000000000001,110.7638136511376C988.4166666666667,110.75343084145901,990.8333333333335,110.74304803178043,993.2500000000001,110.73266522210184C995.6666666666667,110.72228241242325,998.0833333333333,110.71189960274468,1000.4999999999999,110.70151679306609C1002.9166666666665,110.6911339833875,1005.3333333333333,110.68075117370893,1007.7499999999999,110.67036836403034C1010.1666666666665,110.65998555435175,1012.5833333333333,110.64960274467317,1014.9999999999999,110.63921993499459C1017.4166666666665,110.628837125316,1019.8333333333333,110.61845431563742,1022.2499999999999,110.60807150595883C1024.6666666666665,110.59768869628024,1027.0833333333333,110.59768869628024,1029.5,110.57692307692308C1031.9166666666667,110.55615745756592,1034.3333333333333,109.50928381962865,1036.75,108.97546419098143C1039.1666666666667,108.4416445623342,1041.5833333333333,107.90782493368701,1044,107.37400530503979C1046.4166666666667,106.84018567639257,1048.8333333333333,106.30636604774534,1051.25,105.77254641909813C1053.6666666666667,105.23872679045093,1056.0833333333333,104.7049071618037,1058.5,104.1710875331565C1060.9166666666667,103.63726790450929,1063.3333333333333,103.10344827586206,1065.75,102.56962864721486C1068.1666666666667,102.03580901856765,1070.5833333333333,101.50198938992042,1073,100.96816976127322C1075.4166666666667,100.43435013262601,1077.8333333333333,99.90053050397879,1080.25,99.36671087533156C1082.6666666666667,98.83289124668434,1085.0833333333333,98.29907161803715,1087.5,97.76525198938992C1089.9166666666667,97.2314323607427,1092.3333333333333,96.69761273209548,1094.75,96.16379310344827C1097.1666666666667,95.62997347480106,1099.5833333333333,95.09615384615384,1102,94.56233421750663C1104.4166666666667,94.02851458885942,1106.8333333333333,93.4946949602122,1109.25,92.96087533156498C1111.6666666666667,92.42705570291776,1114.0833333333333,91.89323607427055,1116.5,91.35941644562334C1118.9166666666667,90.82559681697613,1121.3333333333333,90.29177718832892,1123.75,89.7579575596817C1126.1666666666667,89.22413793103448,1128.5833333333333,88.69031830238725,1131,88.15649867374005C1133.4166666666667,87.62267904509284,1135.8333333333333,87.08885941644562,1138.25,86.5550397877984C1140.6666666666667,86.0212201591512,1143.0833333333333,85.48740053050398,1145.5,84.95358090185677C1147.9166666666667,84.41976127320956,1150.3333333333333,83.88594164456234,1152.75,83.35212201591513C1155.1666666666667,82.81830238726792,1157.5833333333333,82.2844827586207,1160,81.75066312997347C1162.4166666666667,81.21684350132625,1164.8333333333333,80.68302387267904,1167.25,80.14920424403184C1169.6666666666667,79.61538461538463,1172.0833333333333,79.08156498673742,1174.5,78.5477453580902C1176.9166666666667,78.01392572944297,1179.3333333333333,77.48010610079577,1181.75,76.94628647214854C1184.1666666666667,76.41246684350132,1186.5833333333333,75.87864721485411,1189,75.34482758620689C1191.4166666666667,74.81100795755967,1193.8333333333333,74.27718832891244,1196.25,73.74336870026524C1198.6666666666667,73.20954907161803,1201.0833333333333,72.67572944297082,1203.5,72.14190981432361C1205.9166666666667,71.6080901856764,1208.3333333333333,71.0742705570292,1210.75,70.54045092838197C1213.1666666666667,70.00663129973475,1215.5833333333333,69.47281167108754,1218,68.93899204244032C1220.4166666666667,68.4051724137931,1222.8333333333333,67.87135278514587,1225.25,67.33753315649867C1227.6666666666667,66.80371352785146,1230.0833333333333,66.26989389920425,1232.5,65.73607427055704C1234.9166666666667,65.20225464190983,1237.3333333333333,64.66843501326261,1239.75,64.13461538461539C1242.1666666666667,63.60079575596817,1244.5833333333333,63.06697612732095,1247,62.53315649867373C1249.4166666666667,61.99933687002652,1251.8333333333333,61.46551724137931,1254.25,60.931697612732094C1256.6666666666667,60.39787798408488,1259.0833333333333,59.86405835543767,1261.5,59.330238726790455C1263.9166666666667,58.79641909814324,1266.3333333333333,58.262599469496024,1268.75,57.72877984084881C1271.1666666666667,57.19496021220159,1273.5833333333333,56.661140583554385,1276,56.12732095490717C1278.4166666666667,55.593501326259954,1280.8333333333333,55.05968169761273,1283.25,54.525862068965516C1285.6666666666667,53.9920424403183,1288.0833333333333,53.45822281167109,1290.5,52.92440318302388C1292.9166666666667,52.39058355437666,1295.3333333333333,51.856763925729446,1297.75,51.32294429708223C1300.1666666666667,50.789124668435015,1302.5833333333333,50.25530503978779,1305,49.72148541114058C1307.4166666666667,49.18766578249336,1309.8333333333333,48.65384615384614,1312.25,48.120026525198924C1314.6666666666667,47.58620689655171,1317.0833333333333,47.0523872679045,1319.5,46.518567639257284C1321.9166666666667,45.98474801061007,1324.3333333333333,45.450928381962854,1326.75,44.917108753315645C1329.1666666666667,44.38328912466844,1331.5833333333333,43.84946949602123,1334,43.31564986737401C1336.4166666666667,42.7818302387268,1338.8333333333333,42.24801061007959,1341.25,41.714190981432374C1343.6666666666667,41.18037135278516,1346.0833333333333,40.646551724137936,1348.5,40.11273209549072C1350.9166666666667,39.578912466843505,1353.3333333333333,39.0450928381963,1355.75,38.51127320954908C1358.1666666666667,37.977453580901866,1360.5833333333333,37.443633952254636,1363,36.90981432360742C1365.4166666666667,36.375994694960205,1367.8333333333333,35.842175066313,1370.25,35.30835543766578C1372.6666666666667,34.774535809018566,1375.0833333333333,34.240716180371344,1377.5,33.70689655172413C1379.9166666666667,33.17307692307691,1382.3333333333333,32.639257294429704,1384.75,32.10543766578249C1387.1666666666667,31.571618037135273,1389.5833333333333,31.037798408488054,1392,30.50397877984084C1394.4166666666667,29.970159151193624,1396.8333333333333,29.43633952254641,1399.25,28.9025198938992C1401.6666666666667,28.368700265251988,1404.0833333333333,27.834880636604773,1406.5,27.30106100795756C1408.9166666666667,26.76724137931035,1411.3333333333333,26.23342175066314,1413.75,25.699602122015925C1416.1666666666667,25.16578249336871,1418.5833333333333,24.631962864721487,1421,24.09814323607427C1423.4166666666667,23.564323607427056,1425.8333333333333,23.030503978779837,1428.25,22.49668435013262C1430.6666666666667,21.962864721485406,1433.0833333333333,21.429045092838198,1435.5,20.895225464190982C1437.9166666666667,20.361405835543767,1440.3333333333333,19.827586206896548,1442.75,19.293766578249333C1445.1666666666667,18.759946949602117,1447.5833333333333,18.226127320954898,1450,17.69230769230768" fill="transparent" stroke-linecap="round" stroke="#B6509E" stroke-width="2"></path><path class="visx-linepath" d="M0,106.15384615382123C2.4166666666666665,106.14969302996018,4.833333333333334,106.14553990609913,7.25,106.14138678223185C9.666666666666666,106.13723365836456,12.083333333333334,106.13308053448898,14.5,106.12892741061755C16.916666666666668,106.12477428674612,19.333333333333332,106.12062116287468,21.75,106.11646803900325C24.166666666666668,106.11231491513182,26.583333333333332,106.10816179126039,29,106.10400866738895C31.416666666666668,106.09985554351752,33.833333333333336,106.09570241964607,36.25,106.09154929577464C38.666666666666664,106.08739617190321,41.083333333333336,106.08324304803179,43.5,106.07908992416036C45.91666666666667,106.07493680028892,48.333333333333336,106.07078367641748,50.75000000000001,106.06663055254604C53.16666666666667,106.06247742867461,55.583333333333336,106.05832430480318,58,106.05417118093175C60.416666666666664,106.05001805706031,62.833333333333336,106.04586493318887,65.25,106.04171180931743C67.66666666666667,106.037558685446,70.08333333333333,106.03340556157457,72.5,106.02925243770314C74.91666666666667,106.0250993138317,77.33333333333333,106.02094618996027,79.75,106.01679306608884C82.16666666666667,106.0126399422174,84.58333333333333,106.00848681834597,87,106.00433369447454C89.41666666666667,106.0001805706031,91.83333333333333,105.99602744673167,94.25,105.99187432286024C96.66666666666667,105.98772119898881,99.08333333333334,105.98356807511738,101.50000000000001,105.97941495124594C103.91666666666667,105.97526182737451,106.33333333333334,105.97110870350306,108.75,105.96695557963163C111.16666666666667,105.9628024557602,113.58333333333333,105.95864933188876,116,105.95449620801733C118.41666666666667,105.9503430841459,120.83333333333334,105.94618996027447,123.25000000000001,105.94203683640303C125.66666666666667,105.9378837125316,128.08333333333334,105.93373058866017,130.5,105.92957746478874C132.91666666666666,105.9254243409173,135.33333333333334,105.92127121704586,137.75,105.91711809317442C140.16666666666666,105.91296496930299,142.58333333333334,105.90881184543157,145,105.90465872156014C147.41666666666666,105.9005055976887,149.83333333333334,105.89635247381726,152.25,105.89219934994583C154.66666666666666,105.8880462260744,157.08333333333334,105.88389310220296,159.5,105.87973997833153C161.91666666666666,105.8755868544601,164.33333333333334,105.87143373058866,166.75,105.86728060671723C169.16666666666666,105.8631274828458,171.58333333333334,105.85897435897436,174,105.85482123510293C176.41666666666666,105.8506681112315,178.83333333333334,105.84651498736005,181.25,105.84236186348862C183.66666666666666,105.83820873961719,186.08333333333334,105.83405561574577,188.5,105.82990249187434C190.91666666666666,105.8257493680029,193.33333333333334,105.82159624413146,195.75,105.81744312026002C198.16666666666669,105.81328999638859,200.58333333333334,105.80913687251716,203.00000000000003,105.80498374864572C205.41666666666669,105.80083062477429,207.83333333333331,105.79667750090285,210.24999999999997,105.79252437703141C212.66666666666666,105.78837125315998,215.08333333333331,105.78421812928856,217.5,105.78006500541713C219.91666666666666,105.7759118815457,222.33333333333334,105.77175875767425,224.75,105.76760563380282C227.16666666666666,105.76345250993138,229.58333333333334,105.75929938605995,232,105.75514626218852C234.41666666666666,105.75099313831709,236.83333333333334,105.74684001444565,239.25,105.74268689057422C241.66666666666669,105.73853376670279,244.08333333333334,105.73438064283134,246.50000000000003,105.73022751895991C248.91666666666669,105.72607439508847,251.33333333333331,105.72192127121704,253.74999999999997,105.71776814734561C256.16666666666663,105.71361502347418,258.5833333333333,105.70946189960274,261,105.70530877573131C263.4166666666667,105.70115565185988,265.8333333333333,105.69700252798845,268.25,105.69284940411701C270.6666666666667,105.68869628024558,273.0833333333333,105.68454315637413,275.5,105.6803900325027C277.9166666666667,105.67623690863127,280.3333333333333,105.67208378475985,282.75,105.66793066088842C285.1666666666667,105.66377753701698,287.5833333333333,105.65962441314554,290,105.6554712892741C292.4166666666667,105.65131816540267,294.8333333333333,105.64716504153124,297.25,105.6430119176598C299.6666666666667,105.63885879378837,302.0833333333333,105.63470566991693,304.5,105.6305525460455C306.9166666666667,105.62639942217406,309.3333333333333,105.62224629830264,311.75,105.61809317443121C314.1666666666667,105.61394005055978,316.5833333333333,105.60978692668833,319,105.6056338028169C321.4166666666667,105.60148067894546,323.8333333333333,105.59732755507403,326.25,105.5931744312026C328.6666666666667,105.58902130733117,331.0833333333333,105.58486818345973,333.5,105.5807150595883C335.9166666666667,105.57656193571687,338.3333333333333,105.57240881184543,340.75,105.568255687974C343.1666666666667,105.56410256410257,345.5833333333333,105.55994944023112,348,105.55579631635969C350.4166666666667,105.55164319248826,352.8333333333333,105.54749006861684,355.25,105.5433369447454C357.6666666666667,105.53918382087397,360.0833333333333,105.53503069700253,362.5,105.5308775731311C364.9166666666667,105.52672444925966,367.3333333333333,105.52257132538823,369.75,105.5184182015168C372.1666666666667,105.51426507764536,374.5833333333333,105.51011195377393,377,105.5059588299025C379.4166666666667,105.50180570603106,381.8333333333333,105.49765258215963,384.25,105.4934994582882C386.6666666666667,105.48934633441677,389.0833333333333,105.48519321054532,391.5,105.48104008667389C393.9166666666667,105.47688696280245,396.33333333333337,105.47273383893102,398.75000000000006,105.46858071505959C401.16666666666674,105.46442759118816,403.58333333333337,105.46027446731672,406.00000000000006,105.45612134344529C408.4166666666667,105.45196821957386,410.8333333333333,105.44781509570242,413.24999999999994,105.44366197183099C415.66666666666663,105.43950884795956,418.08333333333326,105.43535572408811,420.49999999999994,105.43120260021668C422.91666666666663,105.42704947634525,425.3333333333333,105.42289635247383,427.75,105.4187432286024C430.1666666666667,105.41459010473096,432.5833333333333,105.41043698085952,435,105.40628385698808C437.4166666666667,105.40213073311665,439.8333333333333,105.39797760924522,442.25,105.39382448537378C444.6666666666667,105.38967136150235,447.0833333333333,105.3855182376309,449.5,105.38136511375947C451.9166666666667,105.37721198988804,454.3333333333333,105.37305886601662,456.75,105.36890574214519C459.1666666666667,105.36475261827376,461.5833333333333,105.36059949440231,464,105.35644637053088C466.4166666666667,105.35229324665944,468.8333333333333,105.34814012278801,471.25,105.34398699891658C473.6666666666667,105.33983387504514,476.0833333333333,105.33568075117371,478.5,105.33152762730228C480.9166666666667,105.32737450343085,483.33333333333337,105.3232213795594,485.75000000000006,105.31906825568797C488.16666666666674,105.31491513181653,490.58333333333337,105.3107620079451,493.00000000000006,105.30660888407367C495.4166666666667,105.30245576020224,497.8333333333333,105.2983026363308,500.24999999999994,105.29414951245937C502.66666666666663,105.28999638858794,505.08333333333326,105.2858432647165,507.49999999999994,105.28169014084507C509.91666666666663,105.27753701697364,512.3333333333333,105.27338389310219,514.75,105.26923076923076C517.1666666666666,105.26507764535933,519.5833333333334,105.26092452148791,522,105.25677139761648C524.4166666666666,105.25261827374504,526.8333333333334,105.2484651498736,529.25,105.24431202600216C531.6666666666666,105.24015890213073,534.0833333333334,105.2360057782593,536.5,105.23185265438786C538.9166666666666,105.22769953051643,541.3333333333334,105.22354640664499,543.75,105.21939328277355C546.1666666666666,105.21524015890212,548.5833333333334,105.2110870350307,551,105.20693391115927C553.4166666666666,105.20278078728784,555.8333333333334,105.19862766341639,558.25,105.19447453954496C560.6666666666666,105.19032141567352,563.0833333333334,105.1861682918021,565.5,105.18201516793067C567.9166666666666,105.17786204405924,570.3333333333334,105.17370892018779,572.75,105.16955579631636C575.1666666666666,105.16540267244493,577.5833333333334,105.1612495485735,580,105.15709642470206C582.4166666666666,105.15294330083063,584.8333333333334,105.14879017695918,587.25,105.14463705308775C589.6666666666666,105.14048392921632,592.0833333333334,105.1363308053449,594.5,105.13217768147346C596.9166666666666,105.12802455760203,599.3333333333334,105.12387143373059,601.75,105.11971830985915C604.1666666666666,105.11556518598772,606.5833333333334,105.11141206211629,609,105.10725893824485C611.4166666666666,105.10310581437342,613.8333333333334,105.09895269050199,616.25,105.09479956663056C618.6666666666666,105.09064644275912,621.0833333333334,105.08649331888769,623.5,105.08234019501626C625.9166666666666,105.07818707114482,628.3333333333334,105.07403394727338,630.75,105.06988082340195C633.1666666666666,105.06572769953051,635.5833333333334,105.06157457565908,638,105.05742145178765C640.4166666666666,105.05326832791621,642.8333333333334,105.04911520404478,645.25,105.04496208017335C647.6666666666666,105.04080895630192,650.0833333333334,105.03665583243048,652.5,105.03250270855905C654.9166666666666,105.02834958468762,657.3333333333334,105.02419646081619,659.75,105.02004333694475C662.1666666666666,105.01589021307332,664.5833333333334,105.01173708920189,667,105.00758396533045C669.4166666666666,105.00343084145902,671.8333333333334,104.99927771758757,674.25,104.99512459371614C676.6666666666666,104.99097146984471,679.0833333333334,104.98681834597328,681.5,104.98266522210184C683.9166666666666,104.97851209823041,686.3333333333334,104.97435897435898,688.75,104.97020585048755C691.1666666666666,104.96605272661611,693.5833333333334,104.96189960274468,696,104.95774647887325C698.4166666666666,104.95359335500181,700.8333333333334,104.94944023113037,703.25,104.94528710725893C705.6666666666666,104.9411339833875,708.0833333333334,104.93698085951607,710.5,104.93282773564464C712.9166666666666,104.9286746117732,715.3333333333334,104.92452148790177,717.75,104.92036836403034C720.1666666666666,104.9162152401589,722.5833333333334,104.91206211628746,725,104.90790899241603C727.4166666666666,104.9037558685446,729.8333333333334,104.89960274467316,732.25,104.89544962080173C734.6666666666666,104.8912964969303,737.0833333333334,104.88714337305886,739.5,104.88299024918743C741.9166666666666,104.878837125316,744.3333333333334,104.87468400144456,746.75,104.87053087757313C749.1666666666666,104.8663777537017,751.5833333333334,104.86222462983025,754,104.85807150595882C756.4166666666666,104.85391838208739,758.8333333333334,104.84976525821597,761.25,104.84561213434453C763.6666666666666,104.8414590104731,766.0833333333334,104.83730588660165,768.5,104.83315276273022C770.9166666666666,104.82899963885879,773.3333333333334,104.82484651498736,775.75,104.82069339111592C778.1666666666666,104.81654026724449,780.5833333333334,104.81238714337306,783,104.80823401950163C785.4166666666667,104.8040808956302,787.8333333333334,104.79992777175876,790.2500000000001,104.79577464788733C792.6666666666667,104.7916215240159,795.0833333333335,104.78746840014445,797.5000000000001,104.78331527627302C799.9166666666667,104.77916215240158,802.3333333333335,104.77500902853016,804.7500000000001,104.77085590465873C807.1666666666667,104.7667027807873,809.5833333333335,104.76254965691585,812.0000000000001,104.75839653304442C814.4166666666667,104.75424340917299,816.8333333333333,104.75009028530155,819.2499999999999,104.74593716143012C821.6666666666665,104.74178403755869,824.0833333333333,104.73763091368724,826.4999999999999,104.73347778981581C828.9166666666665,104.72932466594438,831.3333333333333,104.72517154207296,833.7499999999999,104.72101841820152C836.1666666666665,104.71686529433009,838.5833333333333,104.71271217045864,840.9999999999999,104.70855904658721C843.4166666666666,104.70440592271578,845.8333333333333,104.70025279884435,848.25,104.69609967497291C850.6666666666666,104.69194655110148,853.0833333333334,104.68779342723005,855.5,104.68364030335862C857.9166666666666,104.67948717948718,860.3333333333334,104.67533405561575,862.75,104.67118093174432C865.1666666666666,104.66702780787288,867.5833333333334,104.66287468400144,870,104.65872156013C872.4166666666666,104.65456843625857,874.8333333333334,104.65041531238715,877.25,104.64626218851572C879.6666666666666,104.64210906464429,882.0833333333334,104.63795594077284,884.5,104.63380281690141C886.9166666666666,104.62964969302998,889.3333333333334,104.62549656915854,891.75,104.62134344528711C894.1666666666666,104.61719032141568,896.5833333333334,104.61303719754424,899,104.60888407367281C901.4166666666666,104.60473094980138,903.8333333333334,104.60057782592995,906.25,104.59642470205851C908.6666666666666,104.59227157818708,911.0833333333334,104.58811845431563,913.5,104.5839653304442C915.9166666666666,104.57981220657277,918.3333333333334,104.57565908270134,920.75,104.5715059588299C923.1666666666666,104.56735283495847,925.5833333333334,104.56319971108704,928,104.5590465872156C930.4166666666666,104.55489346334417,932.8333333333334,104.55074033947274,935.25,104.5465872156013C937.6666666666666,104.54243409172987,940.0833333333334,104.53828096785843,942.5,104.534127843987C944.9166666666666,104.52997472011556,947.3333333333334,104.52582159624413,949.75,104.5216684723727C952.1666666666666,104.51751534850126,954.5833333333334,104.51336222462983,957,104.5092091007584C959.4166666666666,104.50505597688696,961.8333333333334,104.50090285301552,964.25,104.49674972914408C966.6666666666667,104.49259660527265,969.0833333333334,104.48844348140123,971.5000000000001,104.4842903575298C973.9166666666667,104.48013723365837,976.3333333333335,104.47598410978692,978.7500000000001,104.47183098591549C981.1666666666667,104.46767786204406,983.5833333333335,104.46352473817262,986.0000000000001,104.45937161430119C988.4166666666667,104.45521849042976,990.8333333333335,104.45106536655832,993.2500000000001,104.44691224268689C995.6666666666667,104.44275911881546,998.0833333333333,104.43860599494403,1000.4999999999999,104.4344528710726C1002.9166666666665,104.43029974720116,1005.3333333333333,104.42614662332971,1007.7499999999999,104.42199349945828C1010.1666666666665,104.41784037558685,1012.5833333333333,104.41368725171542,1014.9999999999999,104.40953412784398C1017.4166666666665,104.40538100397255,1019.8333333333333,104.40122788010112,1022.2499999999999,104.39707475622969C1024.6666666666665,104.39292163235825,1027.0833333333333,104.39292163235825,1029.5,104.38461538461539C1031.9166666666667,104.37630913687252,1034.3333333333333,103.62201591511938,1036.75,103.24071618037136C1039.1666666666667,102.85941644562335,1041.5833333333333,102.47811671087534,1044,102.09681697612733C1046.4166666666667,101.71551724137932,1048.8333333333333,101.3342175066313,1051.25,100.95291777188329C1053.6666666666667,100.57161803713528,1056.0833333333333,100.19031830238727,1058.5,99.80901856763926C1060.9166666666667,99.42771883289124,1063.3333333333333,99.04641909814323,1065.75,98.66511936339522C1068.1666666666667,98.28381962864721,1070.5833333333333,97.9025198938992,1073,97.52122015915118C1075.4166666666667,97.13992042440317,1077.8333333333333,96.75862068965517,1080.25,96.37732095490716C1082.6666666666667,95.99602122015915,1085.0833333333333,95.61472148541114,1087.5,95.23342175066313C1089.9166666666667,94.85212201591511,1092.3333333333333,94.4708222811671,1094.75,94.08952254641909C1097.1666666666667,93.70822281167108,1099.5833333333333,93.32692307692307,1102,92.94562334217505C1104.4166666666667,92.56432360742704,1106.8333333333333,92.18302387267904,1109.25,91.80172413793103C1111.6666666666667,91.42042440318302,1114.0833333333333,91.03912466843502,1116.5,90.65782493368701C1118.9166666666667,90.276525198939,1121.3333333333333,89.89522546419099,1123.75,89.51392572944297C1126.1666666666667,89.13262599469496,1128.5833333333333,88.75132625994695,1131,88.37002652519894C1133.4166666666667,87.98872679045093,1135.8333333333333,87.60742705570291,1138.25,87.2261273209549C1140.6666666666667,86.84482758620689,1143.0833333333333,86.46352785145889,1145.5,86.08222811671088C1147.9166666666667,85.70092838196287,1150.3333333333333,85.31962864721486,1152.75,84.93832891246684C1155.1666666666667,84.55702917771883,1157.5833333333333,84.17572944297083,1160,83.79442970822282C1162.4166666666667,83.41312997347481,1164.8333333333333,83.0318302387268,1167.25,82.65053050397879C1169.6666666666667,82.26923076923077,1172.0833333333333,81.88793103448275,1174.5,81.50663129973474C1176.9166666666667,81.12533156498672,1179.3333333333333,80.74403183023873,1181.75,80.36273209549071C1184.1666666666667,79.9814323607427,1186.5833333333333,79.60013262599469,1189,79.21883289124668C1191.4166666666667,78.83753315649867,1193.8333333333333,78.45623342175067,1196.25,78.07493368700266C1198.6666666666667,77.69363395225464,1201.0833333333333,77.31233421750663,1203.5,76.93103448275862C1205.9166666666667,76.54973474801061,1208.3333333333333,76.1684350132626,1210.75,75.78713527851458C1213.1666666666667,75.40583554376657,1215.5833333333333,75.02453580901857,1218,74.64323607427056C1220.4166666666667,74.26193633952255,1222.8333333333333,73.88063660477454,1225.25,73.49933687002653C1227.6666666666667,73.11803713527851,1230.0833333333333,72.73673740053052,1232.5,72.3554376657825C1234.9166666666667,71.97413793103449,1237.3333333333333,71.59283819628648,1239.75,71.21153846153847C1242.1666666666667,70.83023872679045,1244.5833333333333,70.44893899204244,1247,70.06763925729443C1249.4166666666667,69.68633952254642,1251.8333333333333,69.3050397877984,1254.25,68.9237400530504C1256.6666666666667,68.54244031830238,1259.0833333333333,68.16114058355438,1261.5,67.77984084880637C1263.9166666666667,67.39854111405836,1266.3333333333333,67.01724137931035,1268.75,66.63594164456234C1271.1666666666667,66.25464190981432,1273.5833333333333,65.87334217506631,1276,65.4920424403183C1278.4166666666667,65.11074270557029,1280.8333333333333,64.72944297082228,1283.25,64.34814323607426C1285.6666666666667,63.96684350132625,1288.0833333333333,63.58554376657825,1290.5,63.204244031830235C1292.9166666666667,62.82294429708222,1295.3333333333333,62.44164456233422,1297.75,62.060344827586206C1300.1666666666667,61.679045092838194,1302.5833333333333,61.29774535809018,1305,60.91644562334217C1307.4166666666667,60.53514588859416,1309.8333333333333,60.15384615384616,1312.25,59.77254641909815C1314.6666666666667,59.391246684350136,1317.0833333333333,59.009946949602124,1319.5,58.62864721485411C1321.9166666666667,58.2473474801061,1324.3333333333333,57.86604774535809,1326.75,57.484748010610076C1329.1666666666667,57.103448275862064,1331.5833333333333,56.722148541114066,1334,56.340848806366054C1336.4166666666667,55.95954907161804,1338.8333333333333,55.57824933687003,1341.25,55.19694960212202C1343.6666666666667,54.815649867374006,1346.0833333333333,54.434350132625994,1348.5,54.05305039787798C1350.9166666666667,53.67175066312997,1353.3333333333333,53.290450928381965,1355.75,52.90915119363395C1358.1666666666667,52.52785145888594,1360.5833333333333,52.14655172413793,1363,51.76525198938992C1365.4166666666667,51.383952254641905,1367.8333333333333,51.00265251989391,1370.25,50.621352785145895C1372.6666666666667,50.24005305039788,1375.0833333333333,49.85875331564987,1377.5,49.47745358090186C1379.9166666666667,49.09615384615385,1382.3333333333333,48.714854111405835,1384.75,48.33355437665782C1387.1666666666667,47.95225464190981,1389.5833333333333,47.57095490716179,1392,47.18965517241379C1394.4166666666667,46.80835543766578,1396.8333333333333,46.427055702917784,1399.25,46.04575596816977C1401.6666666666667,45.66445623342176,1404.0833333333333,45.28315649867373,1406.5,44.90185676392572C1408.9166666666667,44.52055702917771,1411.3333333333333,44.13925729442971,1413.75,43.7579575596817C1416.1666666666667,43.37665782493369,1418.5833333333333,42.995358090185675,1421,42.61405835543766C1423.4166666666667,42.23275862068965,1425.8333333333333,41.85145888594165,1428.25,41.47015915119364C1430.6666666666667,41.08885941644563,1433.0833333333333,40.70755968169762,1435.5,40.326259946949605C1437.9166666666667,39.94496021220159,1440.3333333333333,39.56366047745358,1442.75,39.18236074270557C1445.1666666666667,38.80106100795756,1447.5833333333333,38.41976127320955,1450,38.03846153846155" fill="transparent" stroke-linecap="round" stroke="#E7C6DF" stroke-width="2"></path><g class="visx-group visx-axis visx-axis-bottom" transform="translate(0, 115)"><g class="visx-group visx-axis-tick" transform="translate(0, 0)"><line class="visx-line" x1="0" y1="0" x2="0" y2="8" fill="transparent" shape-rendering="crispEdges" stroke="#000" stroke-width="0" stroke-linecap="square"></line><svg x="0" y="0" font-size="10" style="overflow:visible"><text transform="" x="0" y="18" fill="#000" font-size="10" text-anchor="middle"><tspan x="0" dy="0em">0%</tspan></text></svg></g><g class="visx-group visx-axis-tick" transform="translate(0, 0)"><line class="visx-line" x1="362.5" y1="0" x2="362.5" y2="8" fill="transparent" shape-rendering="crispEdges" stroke="#000" stroke-width="0" stroke-linecap="square"></line><svg x="0" y="0" font-size="10" style="overflow:visible"><text transform="" x="362.5" y="18" fill="#000" font-size="10" text-anchor="middle"><tspan x="362.5" dy="0em">25%</tspan></text></svg></g><g class="visx-group visx-axis-tick" transform="translate(0, 0)"><line class="visx-line" x1="725" y1="0" x2="725" y2="8" fill="transparent" shape-rendering="crispEdges" stroke="#000" stroke-width="0" stroke-linecap="square"></line><svg x="0" y="0" font-size="10" style="overflow:visible"><text transform="" x="725" y="18" fill="#000" font-size="10" text-anchor="middle"><tspan x="725" dy="0em">50%</tspan></text></svg></g><g class="visx-group visx-axis-tick" transform="translate(0, 0)"><line class="visx-line" x1="1087.5" y1="0" x2="1087.5" y2="8" fill="transparent" shape-rendering="crispEdges" stroke="#000" stroke-width="0" stroke-linecap="square"></line><svg x="0" y="0" font-size="10" style="overflow:visible"><text transform="" x="1087.5" y="18" fill="#000" font-size="10" text-anchor="middle"><tspan x="1087.5" dy="0em">75%</tspan></text></svg></g><g class="visx-group visx-axis-tick" transform="translate(0, 0)"><line class="visx-line" x1="1450" y1="0" x2="1450" y2="8" fill="transparent" shape-rendering="crispEdges" stroke="#000" stroke-width="0" stroke-linecap="square"></line><svg x="0" y="0" font-size="10" style="overflow:visible"><text transform="" x="1450" y="18" fill="#000" font-size="10" text-anchor="middle"><tspan x="1450" dy="0em">100%</tspan></text></svg></g><line class="visx-line visx-axis-line" x1="0.5" y1="0" x2="1450.5" y2="0" fill="transparent" shape-rendering="crispEdges" stroke="#222" stroke-width="0"></line></g><g class="visx-group visx-axis visx-axis-left" transform="translate(0, 0)"><g class="visx-group visx-axis-tick" transform="translate(0, 0)"><line class="visx-line" x1="0" y1="115" x2="-8" y2="115" fill="transparent" shape-rendering="crispEdges" stroke="#222" stroke-width="0" stroke-linecap="square"></line><svg x="-30" y="0" font-size="8" style="overflow:visible"><text transform="" x="-8" y="115" fill="#000" font-size="8" text-anchor="start"><tspan x="-8" dy="0em">0%</tspan></text></svg></g><g class="visx-group visx-axis-tick" transform="translate(0, 0)"><line class="visx-line" x1="0" y1="70.76923076923077" x2="-8" y2="70.76923076923077" fill="transparent" shape-rendering="crispEdges" stroke="#222" stroke-width="0" stroke-linecap="square"></line><svg x="-30" y="0" font-size="8" style="overflow:visible"><text transform="" x="-8" y="70.76923076923077" fill="#000" font-size="8" text-anchor="start"><tspan x="-8" dy="0em">50%</tspan></text></svg></g><g class="visx-group visx-axis-tick" transform="translate(0, 0)"><line class="visx-line" x1="0" y1="26.538461538461533" x2="-8" y2="26.538461538461533" fill="transparent" shape-rendering="crispEdges" stroke="#222" stroke-width="0" stroke-linecap="square"></line><svg x="-30" y="0" font-size="8" style="overflow:visible"><text transform="" x="-8" y="26.538461538461533" fill="#000" font-size="8" text-anchor="start"><tspan x="-8" dy="0em">100%</tspan></text></svg></g><line class="visx-line visx-axis-line" x1="0" y1="115.5" x2="0" y2="0.5" fill="transparent" shape-rendering="crispEdges" stroke="#222" stroke-width="0"></line></g><rect class="visx-bar" width="1450" height="115" fill="transparent"></rect><line class="visx-line" x1="1029.5" y1="28" x2="1029.5" y2="115" fill="transparent" shape-rendering="crispEdges" stroke="#0062D2" stroke-width="1" pointer-events="none" stroke-dasharray="5,2"></line><svg x="0" y="0" font-size="10px" style="overflow:visible"><text transform="" x="1029.5" y="20" font-size="10px" fill="#fff" stroke="#fff" stroke-width="0.8em" text-anchor="middle"><tspan x="1029.5" dy="0.355em">Optimal 71%</tspan></text></svg><svg x="0" y="0" font-size="10px" style="overflow:visible"><text transform="" x="1029.5" y="20" font-size="10px" fill="#62677B" text-anchor="middle"><tspan x="1029.5" dy="0.355em">Optimal 71%</tspan></text></svg></g></svg>