<?xml version="1.0"?><svg xmlns="http://www.w3.org/2000/svg" xmlns:xlink= "http://www.w3.org/1999/xlink" style="background: white;" width="1500" height="300"> <g style="color: black; font-size: 13px; font-family: sans-serif; transform: translate(18px, 25px);"><g><circle r="3" cx="-6" cy="-5" style="fill: #1AD4B3" /><text>Borrow APR, variable</text></g><g style="transform: translateX(150px);"><circle r="3" cx="-6" cy="-5" style="fill: #101423" /><text>Borrow APR, stable</text></g></g><g class="visx-group" transform="translate(45, 50)"><g class="visx-group visx-rows" transform="translate(0, 0)"><line class="visx-line" x1="0" y1="155" x2="1425" y2="155" fill="transparent" shape-rendering="crispEdges" stroke="#F2F0F9" stroke-width="1" pointer-events="none"></line><line class="visx-line" x1="0" y1="111.94444444444444" x2="1425" y2="111.94444444444444" fill="transparent" shape-rendering="crispEdges" stroke="#F2F0F9" stroke-width="1" pointer-events="none"></line><line class="visx-line" x1="0" y1="68.88888888888889" x2="1425" y2="68.88888888888889" fill="transparent" shape-rendering="crispEdges" stroke="#F2F0F9" stroke-width="1" pointer-events="none"></line><line class="visx-line" x1="0" y1="25.83333333333333" x2="1425" y2="25.83333333333333" fill="transparent" shape-rendering="crispEdges" stroke="#F2F0F9" stroke-width="1" pointer-events="none"></line></g><path class="visx-linepath" d="M0,154.7847222221457C2.375,154.7719650205315,4.75,154.75920781891728,7.125,154.74645061728395C9.5,154.73369341565063,11.875,154.72093621399176,14.25,154.70817901234568C16.625,154.6954218106996,19,154.6826646090535,21.375,154.6699074074074C23.75,154.65715020576133,26.125,154.64439300411522,28.5,154.63163580246913C30.875,154.61887860082305,33.25,154.60612139917694,35.625,154.59336419753086C38,154.58060699588478,40.375,154.56784979423867,42.75,154.5550925925926C45.125,154.5423353909465,47.50000000000001,154.5295781893004,49.87500000000001,154.5168209876543C52.25000000000001,154.50406378600823,54.625,154.49130658436215,57,154.47854938271607C59.375,154.46579218107,61.75,154.45303497942385,64.125,154.44027777777777C66.5,154.42752057613168,68.875,154.4147633744856,71.25,154.40200617283952C73.625,154.38924897119344,76,154.3764917695473,78.375,154.36373456790122C80.75,154.35097736625514,83.125,154.33822016460906,85.5,154.32546296296297C87.875,154.3127057613169,90.25,154.29994855967075,92.625,154.28719135802467C95,154.2744341563786,97.37500000000001,154.2616769547325,99.75000000000001,154.24891975308643C102.12500000000001,154.23616255144034,104.5,154.22340534979423,106.875,154.21064814814815C109.25,154.19789094650207,111.625,154.18513374485596,114,154.17237654320988C116.375,154.1596193415638,118.75000000000001,154.1468621399177,121.12500000000001,154.1341049382716C123.50000000000001,154.12134773662552,125.875,154.1085905349794,128.25,154.09583333333333C130.625,154.08307613168725,133,154.07031893004114,135.375,154.05756172839506C137.75,154.04480452674898,140.125,154.03204732510287,142.5,154.01929012345678C144.875,154.0065329218107,147.25,153.9937757201646,149.625,153.9810185185185C152,153.96826131687243,154.375,153.95550411522632,156.75,153.94274691358024C159.125,153.92998971193416,161.5,153.91723251028804,163.875,153.90447530864196C166.25,153.89171810699588,168.625,153.8789609053498,171,153.86620370370372C173.375,153.85344650205764,175.75,153.8406893004115,178.125,153.82793209876542C180.5,153.81517489711933,182.875,153.80241769547325,185.25,153.78966049382717C187.625,153.7769032921811,190,153.76414609053498,192.375,153.7513888888889C194.75,153.73863168724282,197.12500000000003,153.7258744855967,199.50000000000003,153.71311728395062C201.875,153.70036008230454,204.25,153.68760288065843,206.62499999999997,153.67484567901235C208.99999999999997,153.66208847736627,211.375,153.64933127572016,213.75,153.63657407407408C216.125,153.623816872428,218.5,153.61105967078188,220.875,153.5983024691358C223.25,153.58554526748972,225.625,153.5727880658436,228,153.56003086419753C230.375,153.54727366255145,232.75,153.53451646090534,235.125,153.52175925925926C237.5,153.50900205761317,239.87500000000003,153.49624485596706,242.25000000000003,153.48348765432098C244.625,153.4707304526749,247,153.4579732510288,249.37499999999997,153.4452160493827C251.74999999999997,153.43245884773663,254.125,153.41970164609052,256.5,153.40694444444443C258.875,153.39418724279835,261.25,153.38143004115224,263.625,153.36867283950616C266,153.35591563786008,268.375,153.343158436214,270.75,153.33040123456792C273.125,153.31764403292183,275.5,153.3048868312757,277.875,153.2921296296296C280.25,153.27937242798353,282.625,153.26661522633745,285,153.25385802469137C287.375,153.2411008230453,289.75,153.22834362139918,292.125,153.2155864197531C294.5,153.202829218107,296.875,153.1900720164609,299.25,153.17731481481482C301.625,153.16455761316874,304,153.15180041152263,306.375,153.13904320987655C308.75,153.12628600823047,311.125,153.11352880658436,313.5,153.10077160493827C315.875,153.0880144032922,318.25,153.07525720164608,320.625,153.0625C323,153.04974279835392,325.375,153.0369855967078,327.75,153.02422839506173C330.125,153.01147119341564,332.5,152.99871399176953,334.875,152.98595679012345C337.25,152.97319958847737,339.625,152.96044238683126,342,152.94768518518518C344.375,152.9349279835391,346.75,152.922170781893,349.125,152.9094135802469C351.5,152.89665637860082,353.875,152.8838991769547,356.25,152.87114197530863C358.625,152.85838477366255,361,152.84562757201644,363.375,152.83287037037036C365.75,152.82011316872428,368.125,152.8073559670782,370.5,152.7945987654321C372.875,152.78184156378603,375.25,152.7690843621399,377.625,152.7563271604938C380,152.74356995884773,382.375,152.73081275720165,384.75,152.71805555555557C387.125,152.70529835390948,389.50000000000006,152.69254115226337,391.87500000000006,152.6797839506173C394.25000000000006,152.6670267489712,396.62500000000006,152.6542695473251,399.00000000000006,152.64151234567902C401.375,152.62875514403294,403.75,152.61599794238683,406.12499999999994,152.60324074074074C408.49999999999994,152.59048353909466,410.87499999999994,152.57772633744855,413.24999999999994,152.56496913580247C415.62499999999994,152.5522119341564,418,152.53945473251028,420.375,152.5266975308642C422.75,152.51394032921812,425.125,152.501183127572,427.5,152.48842592592592C429.875,152.47566872427984,432.25,152.46291152263373,434.625,152.45015432098765C437,152.43739711934157,439.375,152.42463991769546,441.75,152.41188271604938C444.125,152.3991255144033,446.5,152.38636831275718,448.875,152.3736111111111C451.25,152.36085390946502,453.625,152.3480967078189,456,152.33533950617283C458.375,152.32258230452675,460.75,152.30982510288064,463.125,152.29706790123456C465.5,152.28431069958847,467.875,152.2715534979424,470.25,152.2587962962963C472.625,152.24603909465023,475.00000000000006,152.2332818930041,477.37500000000006,152.220524691358C479.75000000000006,152.20776748971193,482.12500000000006,152.19501028806584,484.50000000000006,152.18225308641976C486.875,152.16949588477368,489.25,152.15673868312757,491.62499999999994,152.1439814814815C493.99999999999994,152.1312242798354,496.37499999999994,152.1184670781893,498.74999999999994,152.10570987654322C501.12499999999994,152.09295267489713,503.5,152.08019547325102,505.875,152.06743827160494C508.25,152.05468106995886,510.625,152.04192386831275,513,152.02916666666667C515.375,152.0164094650206,517.75,152.00365226337448,520.125,151.9908950617284C522.5,151.9781378600823,524.875,151.9653806584362,527.25,151.95262345679012C529.625,151.93986625514404,532,151.92710905349793,534.375,151.91435185185185C536.75,151.90159465020577,539.125,151.88883744855966,541.5,151.87608024691357C543.875,151.8633230452675,546.25,151.85056584362138,548.625,151.8378086419753C551,151.82505144032922,553.375,151.8122942386831,555.75,151.79953703703703C558.125,151.78677983539094,560.5,151.77402263374483,562.875,151.76126543209875C565.25,151.74850823045267,567.625,151.7357510288066,570,151.7229938271605C572.375,151.71023662551443,574.75,151.69747942386832,577.125,151.68472222222223C579.5,151.67196502057615,581.875,151.65920781893004,584.25,151.64645061728396C586.625,151.63369341563788,589,151.62093621399177,591.375,151.6081790123457C593.75,151.5954218106996,596.125,151.5826646090535,598.5,151.5699074074074C600.875,151.55715020576133,603.25,151.54439300411522,605.625,151.53163580246914C608,151.51887860082306,610.375,151.50612139917695,612.75,151.49336419753087C615.125,151.48060699588478,617.5,151.46784979423867,619.875,151.4550925925926C622.25,151.4423353909465,624.625,151.4295781893004,627,151.41682098765432C629.375,151.40406378600824,631.75,151.39130658436213,634.125,151.37854938271605C636.5,151.36579218106996,638.875,151.36579218106996,641.25,151.34027777777777C643.625,151.31476337448558,646,150.5574494949495,648.375,150.16603535353536C650.75,149.77462121212122,653.125,149.38320707070707,655.5,148.99179292929293C657.875,148.60037878787878,660.25,148.20896464646464,662.625,147.8175505050505C665,147.42613636363635,667.375,147.03472222222223,669.75,146.64330808080808C672.125,146.25189393939394,674.5,145.8604797979798,676.875,145.46906565656565C679.25,145.0776515151515,681.625,144.68623737373738,684,144.29482323232324C686.375,143.9034090909091,688.75,143.51199494949495,691.125,143.1205808080808C693.5,142.72916666666666,695.875,142.33775252525254,698.25,141.9463383838384C700.625,141.55492424242425,703,141.1635101010101,705.375,140.77209595959596C707.75,140.3806818181818,710.125,139.9892676767677,712.5,139.59785353535355C714.875,139.2064393939394,717.25,138.81502525252526,719.625,138.42361111111111C722,138.03219696969697,724.375,137.64078282828282,726.75,137.24936868686868C729.125,136.85795454545453,731.5,136.4665404040404,733.875,136.07512626262624C736.25,135.6837121212121,738.625,135.29229797979798,741,134.90088383838383C743.375,134.5094696969697,745.75,134.11805555555554,748.125,133.7266414141414C750.5,133.33522727272725,752.875,132.94381313131314,755.25,132.552398989899C757.625,132.16098484848484,760,131.7695707070707,762.375,131.37815656565655C764.75,130.9867424242424,767.125,130.5953282828283,769.5,130.20391414141415C771.875,129.8125,774.2500000000001,129.42108585858585,776.6250000000001,129.0296717171717C779.0000000000001,128.63825757575756,781.3750000000001,128.24684343434342,783.7500000000001,127.85542929292929C786.1250000000001,127.46401515151514,788.5000000000001,127.07260101010101,790.8750000000001,126.68118686868686C793.2500000000001,126.28977272727272,795.6250000000001,125.89835858585859,798.0000000000001,125.50694444444444C800.375,125.11553030303031,802.75,124.72411616161615,805.1249999999999,124.33270202020202C807.4999999999999,123.94128787878788,809.8749999999999,123.54987373737374,812.2499999999999,123.1584595959596C814.6249999999999,122.76704545454545,816.9999999999999,122.37563131313132,819.3749999999999,121.98421717171718C821.7499999999999,121.59280303030303,824.1249999999999,121.20138888888889,826.4999999999999,120.80997474747475C828.8749999999999,120.41856060606061,831.25,120.02714646464648,833.625,119.63573232323233C836,119.2443181818182,838.375,118.85290404040406,840.75,118.46148989898991C843.125,118.07007575757576,845.5,117.67866161616163,847.875,117.28724747474749C850.25,116.89583333333334,852.625,116.50441919191921,855,116.11300505050507C857.375,115.72159090909092,859.75,115.33017676767679,862.125,114.93876262626264C864.5,114.5473484848485,866.875,114.15593434343434,869.25,113.7645202020202C871.625,113.37310606060605,874,112.98169191919192,876.375,112.59027777777777C878.75,112.19886363636363,881.125,111.80744949494951,883.5,111.41603535353536C885.875,111.02462121212122,888.25,110.63320707070707,890.625,110.24179292929293C893,109.85037878787878,895.375,109.45896464646465,897.75,109.0675505050505C900.125,108.67613636363636,902.5,108.28472222222223,904.875,107.89330808080808C907.25,107.50189393939394,909.625,107.1104797979798,912,106.71906565656566C914.375,106.32765151515152,916.75,105.93623737373736,919.125,105.54482323232321C921.5,105.15340909090907,923.875,104.76199494949492,926.25,104.37058080808079C928.625,103.97916666666666,931,103.58775252525254,933.375,103.1963383838384C935.75,102.80492424242425,938.125,102.41351010101009,940.5,102.02209595959594C942.875,101.6306818181818,945.25,101.23926767676765,947.625,100.84785353535352C950,100.45643939393938,952.3750000000001,100.06502525252525,954.7500000000001,99.6736111111111C957.1250000000001,99.28219696969697,959.5000000000001,98.89078282828282,961.8750000000001,98.49936868686868C964.2500000000001,98.10795454545453,966.6250000000001,97.71654040404039,969.0000000000001,97.32512626262626C971.3750000000001,96.93371212121212,973.7500000000001,96.542297979798,976.1250000000001,96.15088383838385C978.5,95.75946969696972,980.875,95.36805555555554,983.2499999999999,94.97664141414141C985.6249999999999,94.58522727272727,987.9999999999999,94.19381313131314,990.3749999999999,93.80239898989899C992.7499999999999,93.41098484848484,995.1249999999999,93.01957070707071,997.4999999999999,92.62815656565657C999.8749999999999,92.23674242424242,1002.2499999999999,91.84532828282829,1004.6249999999999,91.45391414141415C1006.9999999999999,91.0625,1009.375,90.67108585858585,1011.75,90.27967171717171C1014.125,89.88825757575756,1016.5,89.49684343434343,1018.875,89.10542929292929C1021.25,88.71401515151514,1023.625,88.32260101010101,1026,87.93118686868686C1028.375,87.53977272727272,1030.75,87.14835858585859,1033.125,86.75694444444444C1035.5,86.3655303030303,1037.875,85.97411616161617,1040.25,85.58270202020202C1042.625,85.19128787878788,1045,84.79987373737374,1047.375,84.4084595959596C1049.75,84.01704545454545,1052.125,83.62563131313132,1054.5,83.23421717171718C1056.875,82.84280303030303,1059.25,82.4513888888889,1061.625,82.05997474747475C1064,81.66856060606061,1066.375,81.27714646464646,1068.75,80.88573232323232C1071.125,80.49431818181817,1073.5,80.10290404040404,1075.875,79.71148989898991C1078.25,79.32007575757578,1080.625,78.92866161616163,1083,78.53724747474749C1085.375,78.14583333333334,1087.75,77.75441919191921,1090.125,77.36300505050507C1092.5,76.97159090909092,1094.875,76.58017676767676,1097.25,76.18876262626262C1099.625,75.79734848484847,1102,75.40593434343434,1104.375,75.0145202020202C1106.75,74.62310606060605,1109.125,74.23169191919192,1111.5,73.84027777777777C1113.875,73.44886363636363,1116.25,73.05744949494948,1118.625,72.66603535353535C1121,72.27462121212122,1123.375,71.88320707070709,1125.75,71.49179292929294C1128.125,71.1003787878788,1130.5,70.70896464646465,1132.875,70.3175505050505C1135.25,69.92613636363636,1137.625,69.53472222222223,1140,69.14330808080808C1142.375,68.75189393939394,1144.75,68.36047979797979,1147.125,67.96906565656565C1149.5,67.5776515151515,1151.875,67.18623737373738,1154.25,66.79482323232324C1156.625,66.4034090909091,1159,66.01199494949496,1161.375,65.62058080808082C1163.75,65.22916666666667,1166.125,64.83775252525254,1168.5,64.4463383838384C1170.875,64.05492424242425,1173.25,63.66351010101011,1175.625,63.272095959595966C1178,62.88068181818182,1180.375,62.48926767676766,1182.75,62.09785353535352C1185.125,61.706439393939384,1187.5,61.31502525252526,1189.875,60.92361111111112C1192.25,60.53219696969698,1194.625,60.14078282828282,1197,59.74936868686868C1199.375,59.35795454545453,1201.75,58.966540404040394,1204.125,58.575126262626256C1206.5,58.18371212121212,1208.875,57.792297979797986,1211.25,57.40088383838385C1213.625,57.00946969696971,1216,56.61805555555555,1218.375,56.22664141414141C1220.75,55.83522727272727,1223.125,55.44381313131315,1225.5,55.052398989899004C1227.875,54.66098484848486,1230.25,54.269570707070706,1232.625,53.87815656565656C1235,53.486742424242415,1237.375,53.09532828282828,1239.75,52.70391414141414C1242.125,52.3125,1244.5,51.921085858585855,1246.875,51.529671717171716C1249.25,51.13825757575758,1251.625,50.74684343434343,1254,50.355429292929294C1256.375,49.964015151515156,1258.75,49.57260101010101,1261.125,49.18118686868687C1263.5,48.789772727272734,1265.875,48.39835858585859,1268.25,48.00694444444444C1270.625,47.6155303030303,1273,47.224116161616166,1275.375,46.83270202020202C1277.75,46.441287878787875,1280.125,46.04987373737372,1282.5,45.658459595959584C1284.875,45.267045454545446,1287.25,44.87563131313132,1289.625,44.48421717171718C1292,44.09280303030303,1294.375,43.70138888888888,1296.75,43.30997474747473C1299.125,42.91856060606059,1301.5,42.527146464646435,1303.875,42.1357323232323C1306.25,41.74431818181816,1308.625,41.35290404040403,1311,40.96148989898989C1313.375,40.57007575757575,1315.75,40.17866161616162,1318.125,39.78724747474748C1320.5,39.39583333333334,1322.875,39.004419191919204,1325.25,38.61300505050506C1327.625,38.221590909090914,1330,37.83017676767676,1332.375,37.43876262626262C1334.75,37.047348484848484,1337.125,36.65593434343435,1339.5,36.264520202020215C1341.875,35.87310606060608,1344.25,35.48169191919192,1346.625,35.09027777777777C1349,34.698863636363626,1351.375,34.30744949494949,1353.75,33.91603535353535C1356.125,33.52462121212121,1358.5,33.13320707070708,1360.875,32.74179292929294C1363.25,32.3503787878788,1365.625,31.958964646464647,1368,31.567550505050505C1370.375,31.176136363636363,1372.75,30.78472222222224,1375.125,30.393308080808097C1377.5,30.001893939393955,1379.875,29.6104797979798,1382.25,29.219065656565657C1384.625,28.827651515151516,1387,28.436237373737377,1389.375,28.044823232323235C1391.75,27.653409090909093,1394.125,27.261994949494937,1396.5,26.870580808080796C1398.875,26.479166666666654,1401.25,26.087752525252522,1403.625,25.696338383838388C1406,25.304924242424253,1408.375,24.913510101010125,1410.75,24.522095959595983C1413.125,24.13068181818184,1415.5,23.739267676767685,1417.875,23.34785353535354C1420.25,22.956439393939394,1422.625,22.565025252525256,1425,22.173611111111118" fill="transparent" stroke-linecap="round" stroke="#1AD4B3" stroke-width="2"></path><g class="visx-group visx-axis visx-axis-bottom" transform="translate(0, 155)"><g class="visx-group visx-axis-tick" transform="translate(0, 0)"><line class="visx-line" x1="0" y1="0" x2="0" y2="8" fill="transparent" shape-rendering="crispEdges" stroke="#F2F0F9" stroke-width="1" stroke-linecap="square"></line><svg x="0" y="0" font-size="11" style="overflow:visible"><text transform="" x="0" y="19" fill="#1B2030" font-size="11" text-anchor="middle"><tspan x="0" dy="0em">0%</tspan></text></svg></g><g class="visx-group visx-axis-tick" transform="translate(0, 0)"><line class="visx-line" x1="356.25" y1="0" x2="356.25" y2="8" fill="transparent" shape-rendering="crispEdges" stroke="#F2F0F9" stroke-width="1" stroke-linecap="square"></line><svg x="0" y="0" font-size="11" style="overflow:visible"><text transform="" x="356.25" y="19" fill="#1B2030" font-size="11" text-anchor="middle"><tspan x="356.25" dy="0em">25%</tspan></text></svg></g><g class="visx-group visx-axis-tick" transform="translate(0, 0)"><line class="visx-line" x1="712.5" y1="0" x2="712.5" y2="8" fill="transparent" shape-rendering="crispEdges" stroke="#F2F0F9" stroke-width="1" stroke-linecap="square"></line><svg x="0" y="0" font-size="11" style="overflow:visible"><text transform="" x="712.5" y="19" fill="#1B2030" font-size="11" text-anchor="middle"><tspan x="712.5" dy="0em">50%</tspan></text></svg></g><g class="visx-group visx-axis-tick" transform="translate(0, 0)"><line class="visx-line" x1="1068.75" y1="0" x2="1068.75" y2="8" fill="transparent" shape-rendering="crispEdges" stroke="#F2F0F9" stroke-width="1" stroke-linecap="square"></line><svg x="0" y="0" font-size="11" style="overflow:visible"><text transform="" x="1068.75" y="19" fill="#1B2030" font-size="11" text-anchor="middle"><tspan x="1068.75" dy="0em">75%</tspan></text></svg></g><g class="visx-group visx-axis-tick" transform="translate(0, 0)"><line class="visx-line" x1="1425" y1="0" x2="1425" y2="8" fill="transparent" shape-rendering="crispEdges" stroke="#F2F0F9" stroke-width="1" stroke-linecap="square"></line><svg x="0" y="0" font-size="11" style="overflow:visible"><text transform="" x="1425" y="19" fill="#1B2030" font-size="11" text-anchor="middle"><tspan x="1425" dy="0em">100%</tspan></text></svg></g></g><g class="visx-group visx-axis visx-axis-left" transform="translate(0, 0)"><g class="visx-group visx-axis-tick" transform="translate(0, 0)"><line class="visx-line" x1="0" y1="155" x2="-8" y2="155" fill="transparent" shape-rendering="crispEdges" stroke="#F2F0F9" stroke-width="1" stroke-linecap="square"></line><svg x="-30" y="0" font-size="11" style="overflow:visible"><text transform="" x="-8" y="155" fill="#1B2030" font-size="11" text-anchor="start"><tspan x="-8" dy="0em">0%</tspan></text></svg></g><g class="visx-group visx-axis-tick" transform="translate(0, 0)"><line class="visx-line" x1="0" y1="111.94444444444444" x2="-8" y2="111.94444444444444" fill="transparent" shape-rendering="crispEdges" stroke="#F2F0F9" stroke-width="1" stroke-linecap="square"></line><svg x="-30" y="0" font-size="11" style="overflow:visible"><text transform="" x="-8" y="111.94444444444444" fill="#1B2030" font-size="11" text-anchor="start"><tspan x="-8" dy="0em">50%</tspan></text></svg></g><g class="visx-group visx-axis-tick" transform="translate(0, 0)"><line class="visx-line" x1="0" y1="68.88888888888889" x2="-8" y2="68.88888888888889" fill="transparent" shape-rendering="crispEdges" stroke="#F2F0F9" stroke-width="1" stroke-linecap="square"></line><svg x="-30" y="0" font-size="11" style="overflow:visible"><text transform="" x="-8" y="68.88888888888889" fill="#1B2030" font-size="11" text-anchor="start"><tspan x="-8" dy="0em">100%</tspan></text></svg></g><g class="visx-group visx-axis-tick" transform="translate(0, 0)"><line class="visx-line" x1="0" y1="25.83333333333333" x2="-8" y2="25.83333333333333" fill="transparent" shape-rendering="crispEdges" stroke="#F2F0F9" stroke-width="1" stroke-linecap="square"></line><svg x="-30" y="0" font-size="11" style="overflow:visible"><text transform="" x="-8" y="25.83333333333333" fill="#1B2030" font-size="11" text-anchor="start"><tspan x="-8" dy="0em">150%</tspan></text></svg></g><line class="visx-line visx-axis-line" x1="0" y1="155.5" x2="0" y2="0.5" fill="transparent" shape-rendering="crispEdges" stroke="#F2F0F9" stroke-width="1"></line></g><rect class="visx-bar" width="1425" height="155" fill="transparent"></rect><line class="visx-line" x1="641.25" y1="58" x2="641.25" y2="155" fill="transparent" shape-rendering="crispEdges" stroke="#CDC8E1" stroke-width="1" pointer-events="none" stroke-dasharray="5"></line><svg x="0" y="0" font-size="11px" style="overflow:visible"><text transform="" x="641.25" y="50" font-size="11px" fill="#555069" stroke="#FFFFFF" stroke-width="1px" text-anchor="middle"><tspan x="641.25" dy="0.355em">Optimal utilization 45%</tspan></text></svg><svg x="0" y="0" font-size="11px" style="overflow:visible"><text transform="" x="641.25" y="50" font-size="11px" fill="#CDC8E1" text-anchor="middle"><tspan x="641.25" dy="0.355em">Optimal utilization 45%</tspan></text></svg></g></svg>