<?xml version="1.0"?><svg xmlns="http://www.w3.org/2000/svg" xmlns:xlink= "http://www.w3.org/1999/xlink" style="background: white;" width="1500" height="300"> <g style="color: black; font-size: 13px; font-family: sans-serif; transform: translate(18px, 25px);"><g><circle r="3" cx="-6" cy="-5" style="fill: #1AD4B3" /><text>Borrow APR, variable</text></g><g style="transform: translateX(150px);"><circle r="3" cx="-6" cy="-5" style="fill: #101423" /><text>Borrow APR, stable</text></g></g><g class="visx-group" transform="translate(45, 50)"><g class="visx-group visx-rows" transform="translate(0, 0)"><line class="visx-line" x1="0" y1="155" x2="1425" y2="155" fill="transparent" shape-rendering="crispEdges" stroke="#F2F0F9" stroke-width="1" pointer-events="none"></line><line class="visx-line" x1="0" y1="107.3076923076923" x2="1425" y2="107.3076923076923" fill="transparent" shape-rendering="crispEdges" stroke="#F2F0F9" stroke-width="1" pointer-events="none"></line><line class="visx-line" x1="0" y1="59.61538461538461" x2="1425" y2="59.61538461538461" fill="transparent" shape-rendering="crispEdges" stroke="#F2F0F9" stroke-width="1" pointer-events="none"></line><line class="visx-line" x1="0" y1="11.923076923076914" x2="1425" y2="11.923076923076914" fill="transparent" shape-rendering="crispEdges" stroke="#F2F0F9" stroke-width="1" pointer-events="none"></line></g><path class="visx-linepath" d="M0,154.28461538342307C2.375,154.08589743520193,4.75,153.88717948698078,7.125,153.68846153846155C9.5,153.48974358994232,11.875,153.29102564102564,14.25,153.09230769230768C16.625,152.89358974358973,19,152.6948717948718,21.375,152.49615384615385C23.75,152.2974358974359,26.125,152.09871794871796,28.5,151.9C30.875,151.70128205128205,33.25,151.50256410256412,35.625,151.30384615384617C38,151.1051282051282,40.375,150.90641025641025,42.75,150.7076923076923C45.125,150.50897435897434,47.50000000000001,150.31025641025641,49.87500000000001,150.11153846153846C52.25000000000001,149.9128205128205,54.625,149.71410256410257,57,149.51538461538462C59.375,149.31666666666666,61.75,149.11794871794874,64.125,148.91923076923078C66.5,148.72051282051282,68.875,148.52179487179487,71.25,148.3230769230769C73.625,148.12435897435896,76,147.92564102564103,78.375,147.72692307692307C80.75,147.52820512820512,83.125,147.3294871794872,85.5,147.13076923076923C87.875,146.93205128205128,90.25,146.73333333333335,92.625,146.5346153846154C95,146.33589743589744,97.37500000000001,146.1371794871795,99.75000000000001,145.93846153846155C102.12500000000001,145.7397435897436,104.5,145.54102564102564,106.875,145.34230769230768C109.25,145.14358974358973,111.625,144.9448717948718,114,144.74615384615385C116.375,144.5474358974359,118.75000000000001,144.34871794871793,121.12500000000001,144.14999999999998C123.50000000000001,143.95128205128202,125.875,143.7525641025641,128.25,143.55384615384614C130.625,143.35512820512818,133,143.15641025641025,135.375,142.9576923076923C137.75,142.75897435897434,140.125,142.57129629629628,142.5,142.36153846153846C144.875,142.15178062678063,147.25,141.91994301994302,149.625,141.6991452991453C152,141.47834757834758,154.375,141.25754985754986,156.75,141.03675213675214C159.125,140.81595441595442,161.5,140.5951566951567,163.875,140.37435897435898C166.25,140.15356125356126,168.625,139.93276353276354,171,139.71196581196583C173.375,139.4911680911681,175.75,139.2703703703704,178.125,139.04957264957267C180.5,138.82877492877495,182.875,138.6079772079772,185.25,138.38717948717948C187.625,138.16638176638176,190,137.94558404558404,192.375,137.72478632478632C194.75,137.5039886039886,197.12500000000003,137.28319088319088,199.50000000000003,137.06239316239316C201.875,136.84159544159544,204.25,136.62079772079773,206.62499999999997,136.4C208.99999999999997,136.1792022792023,211.375,135.95840455840457,213.75,135.73760683760685C216.125,135.51680911680913,218.5,135.2960113960114,220.875,135.0752136752137C223.25,134.85441595441597,225.625,134.63361823361822,228,134.4128205128205C230.375,134.19202279202278,232.75,133.97122507122506,235.125,133.75042735042734C237.5,133.52962962962962,239.87500000000003,133.3088319088319,242.25000000000003,133.0880341880342C244.625,132.86723646723647,247,132.64643874643875,249.37499999999997,132.42564102564103C251.74999999999997,132.2048433048433,254.125,131.9840455840456,256.5,131.76324786324787C258.875,131.54245014245015,261.25,131.32165242165243,263.625,131.1008547008547C266,130.880056980057,268.375,130.65925925925927,270.75,130.43846153846155C273.125,130.21766381766383,275.5,129.9968660968661,277.875,129.7760683760684C280.25,129.55527065527068,282.625,129.33447293447296,285,129.11367521367524C287.375,128.89287749287752,289.75,128.67207977207977,292.125,128.45128205128205C294.5,128.23048433048433,296.875,128.0096866096866,299.25,127.78888888888889C301.625,127.56809116809117,304,127.34729344729344,306.375,127.12649572649572C308.75,126.905698005698,311.125,126.68490028490028,313.5,126.46410256410256C315.875,126.24330484330484,318.25,126.02250712250712,320.625,125.8017094017094C323,125.58091168091168,325.375,125.36011396011396,327.75,125.13931623931624C330.125,124.91851851851852,332.5,124.69772079772079,334.875,124.47692307692307C337.25,124.25612535612535,339.625,124.03532763532763,342,123.81452991452991C344.375,123.5937321937322,346.75,123.37293447293447,349.125,123.15213675213676C351.5,122.93133903133904,353.875,122.7105413105413,356.25,122.48974358974358C358.625,122.26894586894586,361,122.04814814814814,363.375,121.82735042735042C365.75,121.6065527065527,368.125,121.38575498575499,370.5,121.16495726495727C372.875,120.94415954415955,375.25,120.72336182336183,377.625,120.50256410256411C380,120.28176638176639,382.375,120.06096866096865,384.75,119.84017094017094C387.125,119.61937321937322,389.50000000000006,119.39857549857551,391.87500000000006,119.17777777777779C394.25000000000006,118.95698005698007,396.62500000000006,118.73618233618232,399.00000000000006,118.5153846153846C401.375,118.29458689458689,403.75,118.07378917378917,406.12499999999994,117.85299145299145C408.49999999999994,117.63219373219373,410.87499999999994,117.41139601139601,413.24999999999994,117.19059829059829C415.62499999999994,116.96980056980057,418,116.74900284900285,420.375,116.52820512820513C422.75,116.30740740740741,425.125,116.08660968660968,427.5,115.86581196581196C429.875,115.64501424501424,432.25,115.42421652421652,434.625,115.2034188034188C437,114.98262108262108,439.375,114.76182336182335,441.75,114.54102564102563C444.125,114.32022792022791,446.5,114.09943019943019,448.875,113.87863247863247C451.25,113.65783475783475,453.625,113.43703703703703,456,113.21623931623931C458.375,112.99544159544159,460.75,112.77464387464387,463.125,112.55384615384615C465.5,112.33304843304843,467.875,112.11225071225071,470.25,111.891452991453C472.625,111.67065527065527,475.00000000000006,111.44985754985755,477.37500000000006,111.22905982905984C479.75000000000006,111.00826210826212,482.12500000000006,110.7874643874644,484.50000000000006,110.56666666666668C486.875,110.34586894586896,489.25,110.12507122507124,491.62499999999994,109.90427350427352C493.99999999999994,109.6834757834758,496.37499999999994,109.46267806267807,498.74999999999994,109.24188034188035C501.12499999999994,109.02108262108263,503.5,108.8002849002849,505.875,108.57948717948717C508.25,108.35868945868945,510.625,108.13789173789174,513,107.91709401709402C515.375,107.6962962962963,517.75,107.47549857549858,520.125,107.25470085470086C522.5,107.03390313390314,524.875,106.81310541310542,527.25,106.5923076923077C529.625,106.37150997150998,532,106.15071225071223,534.375,105.92991452991451C536.75,105.7091168091168,539.125,105.48831908831907,541.5,105.26752136752135C543.875,105.04672364672363,546.25,104.82592592592592,548.625,104.6051282051282C551,104.38433048433048,553.375,104.16353276353276,555.75,103.94273504273504C558.125,103.72193732193732,560.5,103.5011396011396,562.875,103.28034188034188C565.25,103.05954415954416,567.625,102.83874643874644,570,102.61794871794872C572.375,102.397150997151,574.75,102.17635327635328,577.125,101.95555555555556C579.5,101.73475783475784,581.875,101.51396011396012,584.25,101.2931623931624C586.625,101.07236467236469,589,100.85156695156695,591.375,100.63076923076923C593.75,100.40997150997151,596.125,100.18917378917378,598.5,99.96837606837606C600.875,99.74757834757834,603.25,99.52678062678062,605.625,99.3059829059829C608,99.08518518518518,610.375,98.86438746438748,612.75,98.64358974358976C615.125,98.42279202279204,617.5,98.20199430199432,619.875,97.9811965811966C622.25,97.76039886039888,624.625,97.53960113960113,627,97.3188034188034C629.375,97.09800569800566,631.75,96.87720797720796,634.125,96.65641025641024C636.5,96.43561253561252,638.875,96.2148148148148,641.25,95.99401709401708C643.625,95.77321937321936,646,95.55242165242166,648.375,95.33162393162394C650.75,95.11082621082622,653.125,94.89002849002848,655.5,94.66923076923077C657.875,94.44843304843305,660.25,94.22763532763533,662.625,94.0068376068376C665,93.78603988603989,667.375,93.56524216524217,669.75,93.34444444444445C672.125,93.12364672364673,674.5,92.902849002849,676.875,92.68205128205128C679.25,92.46125356125356,681.625,92.24045584045584,684,92.01965811965812C686.375,91.7988603988604,688.75,91.57806267806268,691.125,91.35726495726496C693.5,91.13646723646724,695.875,90.91566951566952,698.25,90.6948717948718C700.625,90.47407407407408,703,90.25327635327635,705.375,90.03247863247863C707.75,89.81168091168091,710.125,89.59088319088319,712.5,89.37008547008547C714.875,89.14928774928775,717.25,88.92849002849003,719.625,88.70769230769231C722,88.48689458689459,724.375,88.26609686609686,726.75,88.04529914529914C729.125,87.82450142450142,731.5,87.6037037037037,733.875,87.38290598290598C736.25,87.16210826210826,738.625,86.94131054131054,741,86.72051282051282C743.375,86.4997150997151,745.75,86.27891737891738,748.125,86.05811965811967C750.5,85.83732193732195,752.875,85.61652421652421,755.25,85.39572649572649C757.625,85.17492877492877,760,84.95413105413105,762.375,84.73333333333333C764.75,84.51253561253561,767.125,84.29173789173788,769.5,84.07094017094016C771.875,83.85014245014244,774.2500000000001,83.62934472934472,776.6250000000001,83.408547008547C779.0000000000001,83.18774928774928,781.3750000000001,82.96695156695156,783.7500000000001,82.74615384615385C786.1250000000001,82.52535612535613,788.5000000000001,82.3045584045584,790.8750000000001,82.08376068376069C793.2500000000001,81.86296296296297,795.6250000000001,81.64216524216525,798.0000000000001,81.42136752136753C800.375,81.20056980056981,802.75,80.97977207977209,805.1249999999999,80.75897435897437C807.4999999999999,80.53817663817665,809.8749999999999,80.31737891737893,812.2499999999999,80.09658119658121C814.6249999999999,79.87578347578349,816.9999999999999,79.65498575498574,819.3749999999999,79.43418803418803C821.7499999999999,79.2133903133903,824.1249999999999,78.99259259259259,826.4999999999999,78.77179487179487C828.8749999999999,78.55099715099715,831.25,78.33019943019943,833.625,78.10940170940171C836,77.88860398860399,838.375,77.66780626780627,840.75,77.44700854700855C843.125,77.22621082621083,845.5,77.00541310541311,847.875,76.78461538461539C850.25,76.56381766381767,852.625,76.34301994301995,855,76.12222222222223C857.375,75.90142450142451,859.75,75.6806267806268,862.125,75.45982905982908C864.5,75.23903133903136,866.875,75.01823361823362,869.25,74.7974358974359C871.625,74.57663817663818,874,74.35584045584045,876.375,74.13504273504273C878.75,73.91424501424501,881.125,73.69344729344729,883.5,73.47264957264957C885.875,73.25185185185185,888.25,73.03105413105413,890.625,72.81025641025641C893,72.5894586894587,895.375,72.36866096866098,897.75,72.14786324786326C900.125,71.92706552706554,902.5,71.70626780626779,904.875,71.48547008547007C907.25,71.26467236467235,909.625,71.04387464387463,912,70.82307692307691C914.375,70.60227920227919,916.75,70.38148148148147,919.125,70.16068376068375C921.5,69.93988603988603,923.875,69.71908831908831,926.25,69.4982905982906C928.625,69.27749287749288,931,69.05669515669516,933.375,68.83589743589744C935.75,68.61509971509972,938.125,68.394301994302,940.5,68.17350427350428C942.875,67.95270655270656,945.25,67.73190883190881,947.625,67.51111111111109C950,67.29031339031337,952.3750000000001,67.06951566951565,954.7500000000001,66.84871794871793C957.1250000000001,66.62792022792021,959.5000000000001,66.4071225071225,961.8750000000001,66.18632478632478C964.2500000000001,65.96552706552706,966.6250000000001,65.74472934472934,969.0000000000001,65.52393162393162C971.3750000000001,65.3031339031339,973.7500000000001,65.08233618233618,976.1250000000001,64.86153846153846C978.5,64.64074074074074,980.875,64.41994301994302,983.2499999999999,64.1991452991453C985.6249999999999,63.978347578347574,987.9999999999999,63.757549857549854,990.3749999999999,63.536752136752135C992.7499999999999,63.315954415954415,995.1249999999999,63.095156695156696,997.4999999999999,62.87435897435898C999.8749999999999,62.65356125356126,1002.2499999999999,62.43276353276354,1004.6249999999999,62.21196581196582C1006.9999999999999,61.99116809116809,1009.375,61.770370370370365,1011.75,61.54957264957264C1014.125,61.32877492877492,1016.5,61.1079772079772,1018.875,60.88717948717948C1021.25,60.66638176638176,1023.625,60.44558404558404,1026,60.22478632478632C1028.375,60.0039886039886,1030.75,59.78319088319086,1033.125,59.56239316239314C1035.5,59.34159544159542,1037.875,59.12079772079772,1040.25,58.9C1042.625,58.67920227920228,1045,58.45840455840456,1047.375,58.23760683760684C1049.75,58.01680911680912,1052.125,57.7960113960114,1054.5,57.57521367521368C1056.875,57.35441595441596,1059.25,57.13361823361824,1061.625,56.912820512820524C1064,56.692022792022804,1066.375,56.47122507122508,1068.75,56.25042735042736C1071.125,56.02962962962964,1073.5,55.80883190883192,1075.875,55.5880341880342C1078.25,55.36723646723648,1080.625,55.14643874643876,1083,54.92564102564104C1085.375,54.70484330484332,1087.75,54.48404558404561,1090.125,54.263247863247884C1092.5,54.04245014245016,1094.875,53.8216524216524,1097.25,53.60085470085468C1099.625,53.38005698005696,1102,53.159259259259265,1104.375,52.938461538461546C1106.75,52.717663817663826,1109.125,52.4968660968661,1111.5,52.27606837606838C1113.875,52.05527065527066,1116.25,51.83447293447294,1118.625,51.61367521367522C1121,51.3928774928775,1123.375,51.17207977207978,1125.75,50.951282051282064C1128.125,50.730484330484344,1130.5,50.509686609686625,1132.875,50.288888888888906C1135.25,50.068091168091186,1137.625,49.847293447293445,1140,49.626495726495726C1142.375,49.40569800569801,1144.75,49.18490028490029,1147.125,48.96410256410257C1149.5,48.74330484330485,1151.875,48.52250712250712,1154.25,48.3017094017094C1156.625,48.08091168091168,1159,47.86011396011395,1161.375,47.63931623931623C1163.75,47.41851851851851,1166.125,47.19772079772079,1168.5,46.97692307692307C1170.875,46.75612535612535,1173.25,46.535327635327626,1175.625,46.314529914529906C1178,46.09373219373219,1180.375,45.87293447293447,1182.75,45.65213675213675C1185.125,45.43133903133903,1187.5,45.21054131054131,1189.875,44.98974358974359C1192.25,44.76894586894587,1194.625,44.54814814814815,1197,44.32735042735043C1199.375,44.10655270655271,1201.75,43.885754985754986,1204.125,43.664957264957266C1206.5,43.44415954415955,1208.875,43.22336182336183,1211.25,43.00256410256411C1213.625,42.78176638176639,1216,42.56096866096867,1218.375,42.34017094017095C1220.75,42.11937321937323,1223.125,41.89857549857549,1225.5,41.67777777777777C1227.875,41.45698005698005,1230.25,41.23618233618233,1232.625,41.01538461538461C1235,40.79458689458689,1237.375,40.57378917378917,1239.75,40.35299145299145C1242.125,40.132193732193734,1244.5,39.91139601139601,1246.875,39.69059829059829C1249.25,39.46980056980057,1251.625,39.24900284900285,1254,39.02820512820513C1256.375,38.80740740740741,1258.75,38.58660968660969,1261.125,38.36581196581197C1263.5,38.14501424501425,1265.875,37.92421652421653,1268.25,37.70341880341881C1270.625,37.482621082621094,1273,37.26182336182337,1275.375,37.04102564102565C1277.75,36.82022792022793,1280.125,36.599430199430216,1282.5,36.37863247863249C1284.875,36.15783475783476,1287.25,35.937037037037015,1289.625,35.716239316239296C1292,35.49544159544158,1294.375,35.27464387464387,1296.75,35.05384615384615C1299.125,34.83304843304843,1301.5,34.61225071225071,1303.875,34.391452991452994C1306.25,34.170655270655274,1308.625,33.949857549857555,1311,33.729059829059835C1313.375,33.508262108262116,1315.75,33.28746438746439,1318.125,33.06666666666667C1320.5,32.84586894586895,1322.875,32.62507122507123,1325.25,32.40427350427351C1327.625,32.18347578347579,1330,31.962678062678055,1332.375,31.741880341880336C1334.75,31.521082621082616,1337.125,31.300284900284908,1339.5,31.07948717948719C1341.875,30.858689458689476,1344.25,30.63789173789176,1346.625,30.417094017094033C1349,30.196296296296307,1351.375,29.975498575498563,1353.75,29.75470085470084C1356.125,29.533903133903117,1358.5,29.313105413105415,1360.875,29.092307692307696C1363.25,28.871509971509976,1365.625,28.65071225071224,1368,28.42991452991452C1370.375,28.2091168091168,1372.75,27.988319088319095,1375.125,27.767521367521375C1377.5,27.546723646723656,1379.875,27.32592592592592,1382.25,27.1051282051282C1384.625,26.88433048433048,1387,26.663532763532775,1389.375,26.442735042735055C1391.75,26.221937321937336,1394.125,26.0011396011396,1396.5,25.78034188034188C1398.875,25.55954415954416,1401.25,25.33874643874645,1403.625,25.117948717948735C1406,24.89715099715102,1408.375,24.676353276353304,1410.75,24.455555555555577C1413.125,24.23475783475785,1415.5,24.013960113960103,1417.875,23.79316239316238C1420.25,23.572364672364657,1422.625,23.351566951566948,1425,23.13076923076924" fill="transparent" stroke-linecap="round" stroke="#1AD4B3" stroke-width="2"></path><g class="visx-group visx-axis visx-axis-bottom" transform="translate(0, 155)"><g class="visx-group visx-axis-tick" transform="translate(0, 0)"><line class="visx-line" x1="0" y1="0" x2="0" y2="8" fill="transparent" shape-rendering="crispEdges" stroke="#F2F0F9" stroke-width="1" stroke-linecap="square"></line><svg x="0" y="0" font-size="11" style="overflow:visible"><text transform="" x="0" y="19" fill="#1B2030" font-size="11" text-anchor="middle"><tspan x="0" dy="0em">0%</tspan></text></svg></g><g class="visx-group visx-axis-tick" transform="translate(0, 0)"><line class="visx-line" x1="356.25" y1="0" x2="356.25" y2="8" fill="transparent" shape-rendering="crispEdges" stroke="#F2F0F9" stroke-width="1" stroke-linecap="square"></line><svg x="0" y="0" font-size="11" style="overflow:visible"><text transform="" x="356.25" y="19" fill="#1B2030" font-size="11" text-anchor="middle"><tspan x="356.25" dy="0em">25%</tspan></text></svg></g><g class="visx-group visx-axis-tick" transform="translate(0, 0)"><line class="visx-line" x1="712.5" y1="0" x2="712.5" y2="8" fill="transparent" shape-rendering="crispEdges" stroke="#F2F0F9" stroke-width="1" stroke-linecap="square"></line><svg x="0" y="0" font-size="11" style="overflow:visible"><text transform="" x="712.5" y="19" fill="#1B2030" font-size="11" text-anchor="middle"><tspan x="712.5" dy="0em">50%</tspan></text></svg></g><g class="visx-group visx-axis-tick" transform="translate(0, 0)"><line class="visx-line" x1="1068.75" y1="0" x2="1068.75" y2="8" fill="transparent" shape-rendering="crispEdges" stroke="#F2F0F9" stroke-width="1" stroke-linecap="square"></line><svg x="0" y="0" font-size="11" style="overflow:visible"><text transform="" x="1068.75" y="19" fill="#1B2030" font-size="11" text-anchor="middle"><tspan x="1068.75" dy="0em">75%</tspan></text></svg></g><g class="visx-group visx-axis-tick" transform="translate(0, 0)"><line class="visx-line" x1="1425" y1="0" x2="1425" y2="8" fill="transparent" shape-rendering="crispEdges" stroke="#F2F0F9" stroke-width="1" stroke-linecap="square"></line><svg x="0" y="0" font-size="11" style="overflow:visible"><text transform="" x="1425" y="19" fill="#1B2030" font-size="11" text-anchor="middle"><tspan x="1425" dy="0em">100%</tspan></text></svg></g></g><g class="visx-group visx-axis visx-axis-left" transform="translate(0, 0)"><g class="visx-group visx-axis-tick" transform="translate(0, 0)"><line class="visx-line" x1="0" y1="155" x2="-8" y2="155" fill="transparent" shape-rendering="crispEdges" stroke="#F2F0F9" stroke-width="1" stroke-linecap="square"></line><svg x="-30" y="0" font-size="11" style="overflow:visible"><text transform="" x="-8" y="155" fill="#1B2030" font-size="11" text-anchor="start"><tspan x="-8" dy="0em">0%</tspan></text></svg></g><g class="visx-group visx-axis-tick" transform="translate(0, 0)"><line class="visx-line" x1="0" y1="107.3076923076923" x2="-8" y2="107.3076923076923" fill="transparent" shape-rendering="crispEdges" stroke="#F2F0F9" stroke-width="1" stroke-linecap="square"></line><svg x="-30" y="0" font-size="11" style="overflow:visible"><text transform="" x="-8" y="107.3076923076923" fill="#1B2030" font-size="11" text-anchor="start"><tspan x="-8" dy="0em">200%</tspan></text></svg></g><g class="visx-group visx-axis-tick" transform="translate(0, 0)"><line class="visx-line" x1="0" y1="59.61538461538461" x2="-8" y2="59.61538461538461" fill="transparent" shape-rendering="crispEdges" stroke="#F2F0F9" stroke-width="1" stroke-linecap="square"></line><svg x="-30" y="0" font-size="11" style="overflow:visible"><text transform="" x="-8" y="59.61538461538461" fill="#1B2030" font-size="11" text-anchor="start"><tspan x="-8" dy="0em">400%</tspan></text></svg></g><g class="visx-group visx-axis-tick" transform="translate(0, 0)"><line class="visx-line" x1="0" y1="11.923076923076914" x2="-8" y2="11.923076923076914" fill="transparent" shape-rendering="crispEdges" stroke="#F2F0F9" stroke-width="1" stroke-linecap="square"></line><svg x="-30" y="0" font-size="11" style="overflow:visible"><text transform="" x="-8" y="11.923076923076914" fill="#1B2030" font-size="11" text-anchor="start"><tspan x="-8" dy="0em">600%</tspan></text></svg></g><line class="visx-line visx-axis-line" x1="0" y1="155.5" x2="0" y2="0.5" fill="transparent" shape-rendering="crispEdges" stroke="#F2F0F9" stroke-width="1"></line></g><rect class="visx-bar" width="1425" height="155" fill="transparent"></rect><line class="visx-line" x1="142.5" y1="58" x2="142.5" y2="155" fill="transparent" shape-rendering="crispEdges" stroke="#CDC8E1" stroke-width="1" pointer-events="none" stroke-dasharray="5"></line><svg x="0" y="0" font-size="11px" style="overflow:visible"><text transform="" x="142.5" y="50" font-size="11px" fill="#555069" stroke="#FFFFFF" stroke-width="1px" text-anchor="middle"><tspan x="142.5" dy="0.355em">uOptimal 10%</tspan></text></svg><svg x="0" y="0" font-size="11px" style="overflow:visible"><text transform="" x="142.5" y="50" font-size="11px" fill="#CDC8E1" text-anchor="middle"><tspan x="142.5" dy="0.355em">uOptimal 10%</tspan></text></svg></g></svg>