<?xml version="1.0"?><svg xmlns="http://www.w3.org/2000/svg" xmlns:xlink= "http://www.w3.org/1999/xlink" style="background: white;" width="1500" height="185"> <g style="color: black; font-size: 13px; font-family: sans-serif; transform: translate(18px, 25px);"><g><circle r="3" cx="-6" cy="-5" style="fill: #B6509E" /><text>Borrow APR, variable</text></g><g style="transform: translateX(150px);"><circle r="3" cx="-6" cy="-5" style="fill: rgb(231, 198, 223)" /><text>Borrow APR, stable</text></g><g style="transform: translateX(290px);"><circle r="3" cx="-6" cy="-5" style="fill: rgb(0, 98, 210)" /><text>Utilization Rate</text></g></g><g class="visx-group" transform="translate(40, 50)"><g class="visx-group visx-rows" transform="translate(0, 0)"><line class="visx-line" x1="0" y1="115" x2="1450" y2="115" fill="transparent" shape-rendering="crispEdges" stroke="#000" stroke-width="1" stroke-dasharray="3,3" pointer-events="none"></line><line class="visx-line" x1="0" y1="86.25" x2="1450" y2="86.25" fill="transparent" shape-rendering="crispEdges" stroke="#000" stroke-width="1" stroke-dasharray="3,3" pointer-events="none"></line><line class="visx-line" x1="0" y1="57.5" x2="1450" y2="57.5" fill="transparent" shape-rendering="crispEdges" stroke="#000" stroke-width="1" stroke-dasharray="3,3" pointer-events="none"></line><line class="visx-line" x1="0" y1="28.75" x2="1450" y2="28.75" fill="transparent" shape-rendering="crispEdges" stroke="#000" stroke-width="1" stroke-dasharray="3,3" pointer-events="none"></line><line class="visx-line" x1="0" y1="0" x2="1450" y2="0" fill="transparent" shape-rendering="crispEdges" stroke="#000" stroke-width="1" stroke-dasharray="3,3" pointer-events="none"></line></g><path class="visx-linepath" d="M0,109.25C2.4166666666666665,109.25,4.833333333333334,109.25,7.25,109.25C9.666666666666666,109.25,12.083333333333334,109.25,14.5,109.25C16.916666666666668,109.25,19.333333333333332,109.25,21.75,109.25C24.166666666666668,109.25,26.583333333333332,109.25,29,109.25C31.416666666666668,109.25,33.833333333333336,109.25,36.25,109.25C38.666666666666664,109.25,41.083333333333336,109.25,43.5,109.25C45.91666666666667,109.25,48.333333333333336,109.25,50.75000000000001,109.25C53.16666666666667,109.25,55.583333333333336,109.25,58,109.25C60.416666666666664,109.25,62.833333333333336,109.25,65.25,109.25C67.66666666666667,109.25,70.08333333333333,109.25,72.5,109.25C74.91666666666667,109.25,77.33333333333333,109.25,79.75,109.25C82.16666666666667,109.25,84.58333333333333,109.25,87,109.25C89.41666666666667,109.25,91.83333333333333,109.25,94.25,109.25C96.66666666666667,109.25,99.08333333333334,109.25,101.50000000000001,109.25C103.91666666666667,109.25,106.33333333333334,109.25,108.75,109.25C111.16666666666667,109.25,113.58333333333333,109.25,116,109.25C118.41666666666667,109.25,120.83333333333334,109.25,123.25000000000001,109.25C125.66666666666667,109.25,128.08333333333334,109.25,130.5,109.25C132.91666666666666,109.25,135.33333333333334,109.25,137.75,109.25C140.16666666666666,109.25,142.58333333333334,109.25,145,109.25C147.41666666666666,109.25,149.83333333333334,109.25,152.25,109.25C154.66666666666666,109.25,157.08333333333334,109.25,159.5,109.25C161.91666666666666,109.25,164.33333333333334,109.25,166.75,109.25C169.16666666666666,109.25,171.58333333333334,109.25,174,109.25C176.41666666666666,109.25,178.83333333333334,109.25,181.25,109.25C183.66666666666666,109.25,186.08333333333334,109.25,188.5,109.25C190.91666666666666,109.25,193.33333333333334,109.25,195.75,109.25C198.16666666666669,109.25,200.58333333333334,109.25,203.00000000000003,109.25C205.41666666666669,109.25,207.83333333333331,109.25,210.24999999999997,109.25C212.66666666666666,109.25,215.08333333333331,109.25,217.5,109.25C219.91666666666666,109.25,222.33333333333334,109.25,224.75,109.25C227.16666666666666,109.25,229.58333333333334,109.25,232,109.25C234.41666666666666,109.25,236.83333333333334,109.25,239.25,109.25C241.66666666666669,109.25,244.08333333333334,109.25,246.50000000000003,109.25C248.91666666666669,109.25,251.33333333333331,109.25,253.74999999999997,109.25C256.16666666666663,109.25,258.5833333333333,109.25,261,109.25C263.4166666666667,109.25,265.8333333333333,109.25,268.25,109.25C270.6666666666667,109.25,273.0833333333333,109.25,275.5,109.25C277.9166666666667,109.25,280.3333333333333,109.25,282.75,109.25C285.1666666666667,109.25,287.5833333333333,109.25,290,109.25C292.4166666666667,109.25,294.8333333333333,109.25,297.25,109.25C299.6666666666667,109.25,302.0833333333333,109.25,304.5,109.25C306.9166666666667,109.25,309.3333333333333,109.25,311.75,109.25C314.1666666666667,109.25,316.5833333333333,109.25,319,109.25C321.4166666666667,109.25,323.8333333333333,109.25,326.25,109.25C328.6666666666667,109.25,331.0833333333333,109.25,333.5,109.25C335.9166666666667,109.25,338.3333333333333,109.25,340.75,109.25C343.1666666666667,109.25,345.5833333333333,109.25,348,109.25C350.4166666666667,109.25,352.8333333333333,109.25,355.25,109.25C357.6666666666667,109.25,360.0833333333333,109.25,362.5,109.25C364.9166666666667,109.25,367.3333333333333,109.25,369.75,109.25C372.1666666666667,109.25,374.5833333333333,109.25,377,109.25C379.4166666666667,109.25,381.8333333333333,109.25,384.25,109.25C386.6666666666667,109.25,389.0833333333333,109.25,391.5,109.25C393.9166666666667,109.25,396.33333333333337,109.25,398.75000000000006,109.25C401.16666666666674,109.25,403.58333333333337,109.25,406.00000000000006,109.25C408.4166666666667,109.25,410.8333333333333,109.25,413.24999999999994,109.25C415.66666666666663,109.25,418.08333333333326,109.25,420.49999999999994,109.25C422.91666666666663,109.25,425.3333333333333,109.25,427.75,109.25C430.1666666666667,109.25,432.5833333333333,109.25,435,109.25C437.4166666666667,109.25,439.8333333333333,109.25,442.25,109.25C444.6666666666667,109.25,447.0833333333333,109.25,449.5,109.25C451.9166666666667,109.25,454.3333333333333,109.25,456.75,109.25C459.1666666666667,109.25,461.5833333333333,109.25,464,109.25C466.4166666666667,109.25,468.8333333333333,109.25,471.25,109.25C473.6666666666667,109.25,476.0833333333333,109.25,478.5,109.25C480.9166666666667,109.25,483.33333333333337,109.25,485.75000000000006,109.25C488.16666666666674,109.25,490.58333333333337,109.25,493.00000000000006,109.25C495.4166666666667,109.25,497.8333333333333,109.25,500.24999999999994,109.25C502.66666666666663,109.25,505.08333333333326,109.25,507.49999999999994,109.25C509.91666666666663,109.25,512.3333333333333,109.25,514.75,109.25C517.1666666666666,109.25,519.5833333333334,109.25,522,109.25C524.4166666666666,109.25,526.8333333333334,109.25,529.25,109.25C531.6666666666666,109.25,534.0833333333334,109.25,536.5,109.25C538.9166666666666,109.25,541.3333333333334,109.25,543.75,109.25C546.1666666666666,109.25,548.5833333333334,109.25,551,109.25C553.4166666666666,109.25,555.8333333333334,109.25,558.25,109.25C560.6666666666666,109.25,563.0833333333334,109.25,565.5,109.25C567.9166666666666,109.25,570.3333333333334,109.25,572.75,109.25C575.1666666666666,109.25,577.5833333333334,109.25,580,109.25C582.4166666666666,109.25,584.8333333333334,109.25,587.25,109.25C589.6666666666666,109.25,592.0833333333334,109.25,594.5,109.25C596.9166666666666,109.25,599.3333333333334,109.25,601.75,109.25C604.1666666666666,109.25,606.5833333333334,109.25,609,109.25C611.4166666666666,109.25,613.8333333333334,109.25,616.25,109.25C618.6666666666666,109.25,621.0833333333334,109.25,623.5,109.25C625.9166666666666,109.25,628.3333333333334,109.25,630.75,109.25C633.1666666666666,109.25,635.5833333333334,109.25,638,109.25C640.4166666666666,109.25,642.8333333333334,109.25,645.25,109.25C647.6666666666666,109.25,650.0833333333334,109.25,652.5,109.25C654.9166666666666,109.25,657.3333333333334,108.72727272727273,659.75,108.4659090909091C662.1666666666666,108.20454545454545,664.5833333333334,107.94318181818183,667,107.68181818181819C669.4166666666666,107.42045454545455,671.8333333333334,107.15909090909092,674.25,106.89772727272728C676.6666666666666,106.63636363636364,679.0833333333334,106.375,681.5,106.11363636363636C683.9166666666666,105.85227272727272,686.3333333333334,105.5909090909091,688.75,105.32954545454545C691.1666666666666,105.06818181818181,693.5833333333334,104.80681818181819,696,104.54545454545455C698.4166666666666,104.2840909090909,700.8333333333334,104.02272727272727,703.25,103.76136363636363C705.6666666666666,103.49999999999999,708.0833333333334,103.23863636363637,710.5,102.97727272727273C712.9166666666666,102.7159090909091,715.3333333333334,102.45454545454547,717.75,102.19318181818183C720.1666666666666,101.93181818181819,722.5833333333334,101.67045454545455,725,101.4090909090909C727.4166666666666,101.14772727272727,729.8333333333334,100.88636363636364,732.25,100.625C734.6666666666666,100.36363636363636,737.0833333333334,100.10227272727273,739.5,99.8409090909091C741.9166666666666,99.57954545454545,744.3333333333334,99.31818181818181,746.75,99.05681818181817C749.1666666666666,98.79545454545453,751.5833333333334,98.5340909090909,754,98.27272727272727C756.4166666666666,98.01136363636363,758.8333333333334,97.75,761.25,97.48863636363636C763.6666666666666,97.22727272727272,766.0833333333334,96.9659090909091,768.5,96.70454545454545C770.9166666666666,96.44318181818181,773.3333333333334,96.18181818181819,775.75,95.92045454545455C778.1666666666666,95.6590909090909,780.5833333333334,95.39772727272728,783,95.13636363636364C785.4166666666667,94.875,787.8333333333334,94.61363636363636,790.2500000000001,94.35227272727272C792.6666666666667,94.09090909090908,795.0833333333335,93.82954545454544,797.5000000000001,93.56818181818181C799.9166666666667,93.30681818181819,802.3333333333335,93.04545454545456,804.7500000000001,92.78409090909092C807.1666666666667,92.52272727272728,809.5833333333335,92.26136363636364,812.0000000000001,92C814.4166666666667,91.73863636363636,816.8333333333333,91.47727272727272,819.2499999999999,91.2159090909091C821.6666666666665,90.95454545454545,824.0833333333333,90.69318181818183,826.4999999999999,90.43181818181819C828.9166666666665,90.17045454545455,831.3333333333333,89.9090909090909,833.7499999999999,89.64772727272727C836.1666666666665,89.38636363636363,838.5833333333333,89.125,840.9999999999999,88.86363636363636C843.4166666666666,88.60227272727272,845.8333333333333,88.3409090909091,848.25,88.07954545454545C850.6666666666666,87.81818181818181,853.0833333333334,87.55681818181817,855.5,87.29545454545453C857.9166666666666,87.03409090909089,860.3333333333334,86.77272727272725,862.75,86.51136363636363C865.1666666666666,86.25,867.5833333333334,85.98863636363637,870,85.72727272727273C872.4166666666666,85.4659090909091,874.8333333333334,85.20454545454545,877.25,84.94318181818181C879.6666666666666,84.68181818181817,882.0833333333334,84.42045454545455,884.5,84.1590909090909C886.9166666666666,83.89772727272727,889.3333333333334,83.63636363636364,891.75,83.375C894.1666666666666,83.11363636363636,896.5833333333334,82.85227272727273,899,82.5909090909091C901.4166666666666,82.32954545454545,903.8333333333334,82.06818181818183,906.25,81.80681818181819C908.6666666666666,81.54545454545455,911.0833333333334,81.28409090909092,913.5,81.02272727272728C915.9166666666666,80.76136363636364,918.3333333333334,80.5,920.75,80.23863636363636C923.1666666666666,79.97727272727272,925.5833333333334,79.7159090909091,928,79.45454545454545C930.4166666666666,79.19318181818181,932.8333333333334,78.93181818181819,935.25,78.67045454545455C937.6666666666666,78.4090909090909,940.0833333333334,78.14772727272728,942.5,77.88636363636364C944.9166666666666,77.625,947.3333333333334,77.36363636363636,949.75,77.10227272727272C952.1666666666666,76.84090909090908,954.5833333333334,76.57954545454547,957,76.31818181818183C959.4166666666666,76.05681818181819,961.8333333333334,75.79545454545455,964.25,75.5340909090909C966.6666666666667,75.27272727272727,969.0833333333334,75.01136363636364,971.5000000000001,74.75C973.9166666666667,74.48863636363636,976.3333333333335,74.22727272727273,978.7500000000001,73.9659090909091C981.1666666666667,73.70454545454545,983.5833333333335,73.44318181818183,986.0000000000001,73.18181818181819C988.4166666666667,72.92045454545455,990.8333333333335,72.6590909090909,993.2500000000001,72.39772727272727C995.6666666666667,72.13636363636364,998.0833333333333,71.875,1000.4999999999999,71.61363636363637C1002.9166666666665,71.35227272727273,1005.3333333333333,71.09090909090911,1007.7499999999999,70.82954545454547C1010.1666666666665,70.56818181818183,1012.5833333333333,70.30681818181819,1014.9999999999999,70.04545454545455C1017.4166666666665,69.7840909090909,1019.8333333333333,69.52272727272728,1022.2499999999999,69.26136363636364C1024.6666666666665,69,1027.0833333333333,68.73863636363637,1029.5,68.47727272727273C1031.9166666666667,68.2159090909091,1034.3333333333333,67.95454545454545,1036.75,67.69318181818181C1039.1666666666667,67.43181818181817,1041.5833333333333,67.17045454545455,1044,66.9090909090909C1046.4166666666667,66.64772727272727,1048.8333333333333,66.38636363636364,1051.25,66.125C1053.6666666666667,65.86363636363636,1056.0833333333333,65.60227272727272,1058.5,65.34090909090908C1060.9166666666667,65.07954545454544,1063.3333333333333,64.81818181818181,1065.75,64.55681818181817C1068.1666666666667,64.29545454545453,1070.5833333333333,64.03409090909089,1073,63.77272727272726C1075.4166666666667,63.511363636363626,1077.8333333333333,63.25,1080.25,62.98863636363637C1082.6666666666667,62.727272727272734,1085.0833333333333,62.46590909090907,1087.5,62.20454545454544C1089.9166666666667,61.943181818181806,1092.3333333333333,61.68181818181819,1094.75,61.420454545454554C1097.1666666666667,61.15909090909092,1099.5833333333333,60.89772727272728,1102,60.63636363636364C1104.4166666666667,60.375,1106.8333333333333,60.113636363636374,1109.25,59.852272727272734C1111.6666666666667,59.59090909090909,1114.0833333333333,59.32954545454545,1116.5,59.06818181818182C1118.9166666666667,58.80681818181819,1121.3333333333333,58.54545454545455,1123.75,58.284090909090914C1126.1666666666667,58.02272727272728,1128.5833333333333,57.76136363636364,1131,57.5C1133.4166666666667,57.23863636363636,1135.8333333333333,56.97727272727272,1138.25,56.715909090909086C1140.6666666666667,56.45454545454545,1143.0833333333333,56.19318181818181,1145.5,55.93181818181818C1147.9166666666667,55.67045454545455,1150.3333333333333,55.4090909090909,1152.75,55.147727272727266C1155.1666666666667,54.88636363636363,1157.5833333333333,54.625,1160,54.36363636363637C1162.4166666666667,54.102272727272734,1164.8333333333333,53.84090909090909,1167.25,53.57954545454546C1169.6666666666667,53.31818181818183,1172.0833333333333,53.05681818181819,1174.5,52.79545454545455C1176.9166666666667,52.53409090909091,1179.3333333333333,52.272727272727266,1181.75,52.01136363636363C1184.1666666666667,51.75,1186.5833333333333,51.48863636363636,1189,51.22727272727273C1191.4166666666667,50.96590909090909,1193.8333333333333,50.70454545454545,1196.25,50.44318181818181C1198.6666666666667,50.18181818181817,1201.0833333333333,49.92045454545454,1203.5,49.65909090909091C1205.9166666666667,49.39772727272727,1208.3333333333333,49.13636363636364,1210.75,48.87500000000001C1213.1666666666667,48.613636363636374,1215.5833333333333,48.352272727272734,1218,48.09090909090909C1220.4166666666667,47.82954545454545,1222.8333333333333,47.56818181818181,1225.25,47.30681818181818C1227.6666666666667,47.04545454545455,1230.0833333333333,46.78409090909091,1232.5,46.52272727272727C1234.9166666666667,46.26136363636364,1237.3333333333333,46,1239.75,45.73863636363636C1242.1666666666667,45.47727272727272,1244.5833333333333,45.21590909090909,1247,44.95454545454545C1249.4166666666667,44.69318181818181,1251.8333333333333,44.43181818181817,1254.25,44.17045454545454C1256.6666666666667,43.90909090909091,1259.0833333333333,43.64772727272727,1261.5,43.38636363636364C1263.9166666666667,43.12500000000001,1266.3333333333333,42.863636363636374,1268.75,42.602272727272734C1271.1666666666667,42.34090909090909,1273.5833333333333,42.07954545454545,1276,41.81818181818182C1278.4166666666667,41.55681818181819,1280.8333333333333,41.29545454545456,1283.25,41.03409090909092C1285.6666666666667,40.77272727272728,1288.0833333333333,40.51136363636364,1290.5,40.25C1292.9166666666667,39.98863636363636,1295.3333333333333,39.72727272727273,1297.75,39.465909090909086C1300.1666666666667,39.204545454545446,1302.5833333333333,38.943181818181806,1305,38.68181818181817C1307.4166666666667,38.42045454545454,1309.8333333333333,38.159090909090914,1312.25,37.89772727272728C1314.6666666666667,37.63636363636365,1317.0833333333333,37.37500000000001,1319.5,37.11363636363637C1321.9166666666667,36.85227272727273,1324.3333333333333,36.59090909090909,1326.75,36.32954545454545C1329.1666666666667,36.06818181818181,1331.5833333333333,35.80681818181819,1334,35.54545454545455C1336.4166666666667,35.28409090909091,1338.8333333333333,35.02272727272727,1341.25,34.76136363636363C1343.6666666666667,34.49999999999999,1346.0833333333333,34.23863636363635,1348.5,33.97727272727272C1350.9166666666667,33.715909090909086,1353.3333333333333,33.45454545454546,1355.75,33.19318181818183C1358.1666666666667,32.931818181818194,1360.5833333333333,32.670454545454554,1363,32.409090909090914C1365.4166666666667,32.14772727272727,1367.8333333333333,31.886363636363644,1370.25,31.625000000000004C1372.6666666666667,31.363636363636363,1375.0833333333333,31.102272727272716,1377.5,30.84090909090908C1379.9166666666667,30.579545454545443,1382.3333333333333,30.318181818181813,1384.75,30.05681818181818C1387.1666666666667,29.795454545454547,1389.5833333333333,29.534090909090907,1392,29.27272727272727C1394.4166666666667,29.011363636363633,1396.8333333333333,28.749999999999993,1399.25,28.48863636363636C1401.6666666666667,28.227272727272727,1404.0833333333333,27.965909090909097,1406.5,27.70454545454546C1408.9166666666667,27.443181818181824,1411.3333333333333,27.181818181818173,1413.75,26.920454545454536C1416.1666666666667,26.6590909090909,1418.5833333333333,26.397727272727273,1421,26.13636363636364C1423.4166666666667,25.875000000000007,1425.8333333333333,25.613636363636363,1428.25,25.352272727272727C1430.6666666666667,25.09090909090909,1433.0833333333333,24.829545454545457,1435.5,24.568181818181817C1437.9166666666667,24.306818181818176,1440.3333333333333,24.04545454545453,1442.75,23.784090909090892C1445.1666666666667,23.522727272727256,1447.5833333333333,23.261363636363626,1450,22.999999999999996" fill="transparent" stroke-linecap="round" stroke="#B6509E" stroke-width="2"></path><path class="visx-linepath" d="M0,112.12499999998721C2.4166666666666665,112.1228703703629,4.833333333333334,112.1207407407386,7.25,112.11861111111111C9.666666666666666,112.11648148148362,12.083333333333334,112.11435185185186,14.5,112.11222222222223C16.916666666666668,112.1100925925926,19.333333333333332,112.10796296296297,21.75,112.10583333333334C24.166666666666668,112.1037037037037,26.583333333333332,112.10157407407408,29,112.09944444444444C31.416666666666668,112.09731481481481,33.833333333333336,112.09518518518519,36.25,112.09305555555557C38.666666666666664,112.09092592592594,41.083333333333336,112.08879629629631,43.5,112.08666666666667C45.91666666666667,112.08453703703704,48.333333333333336,112.08240740740742,50.75000000000001,112.08027777777778C53.16666666666667,112.07814814814814,55.583333333333336,112.07601851851851,58,112.07388888888889C60.416666666666664,112.07175925925925,62.833333333333336,112.06962962962965,65.25,112.06750000000001C67.66666666666667,112.06537037037037,70.08333333333333,112.06324074074075,72.5,112.06111111111112C74.91666666666667,112.05898148148148,77.33333333333333,112.05685185185186,79.75,112.05472222222222C82.16666666666667,112.05259259259259,84.58333333333333,112.05046296296297,87,112.04833333333335C89.41666666666667,112.04620370370372,91.83333333333333,112.04407407407409,94.25,112.04194444444445C96.66666666666667,112.03981481481482,99.08333333333334,112.0376851851852,101.50000000000001,112.03555555555556C103.91666666666667,112.03342592592593,106.33333333333334,112.0312962962963,108.75,112.02916666666667C111.16666666666667,112.02703703703703,113.58333333333333,112.02490740740741,116,112.02277777777778C118.41666666666667,112.02064814814814,120.83333333333334,112.01851851851852,123.25000000000001,112.01638888888888C125.66666666666667,112.01425925925925,128.08333333333334,112.01212962962961,130.5,112.00999999999999C132.91666666666666,112.00787037037036,135.33333333333334,112.00574074074075,137.75,112.00361111111111C140.16666666666666,112.00148148148148,142.58333333333334,111.99935185185186,145,111.99722222222222C147.41666666666666,111.99509259259258,149.83333333333334,111.99296296296296,152.25,111.99083333333333C154.66666666666666,111.98870370370369,157.08333333333334,111.98657407407407,159.5,111.98444444444443C161.91666666666666,111.9823148148148,164.33333333333334,111.98018518518518,166.75,111.97805555555556C169.16666666666666,111.97592592592594,171.58333333333334,111.9737962962963,174,111.97166666666666C176.41666666666666,111.96953703703703,178.83333333333334,111.9674074074074,181.25,111.96527777777777C183.66666666666666,111.96314814814814,186.08333333333334,111.9610185185185,188.5,111.95888888888888C190.91666666666666,111.95675925925926,193.33333333333334,111.95462962962962,195.75,111.9525C198.16666666666669,111.95037037037036,200.58333333333334,111.94824074074074,203.00000000000003,111.94611111111111C205.41666666666669,111.94398148148147,207.83333333333331,111.94185185185184,210.24999999999997,111.93972222222222C212.66666666666666,111.93759259259258,215.08333333333331,111.93546296296297,217.5,111.93333333333334C219.91666666666666,111.93120370370372,222.33333333333334,111.92907407407408,224.75,111.92694444444444C227.16666666666666,111.92481481481481,229.58333333333334,111.92268518518519,232,111.92055555555555C234.41666666666666,111.91842592592592,236.83333333333334,111.91629629629628,239.25,111.91416666666666C241.66666666666669,111.91203703703702,244.08333333333334,111.90990740740742,246.50000000000003,111.90777777777778C248.91666666666669,111.90564814814816,251.33333333333331,111.90351851851852,253.74999999999997,111.90138888888889C256.16666666666663,111.89925925925925,258.5833333333333,111.89712962962963,261,111.895C263.4166666666667,111.89287037037036,265.8333333333333,111.89074074074074,268.25,111.8886111111111C270.6666666666667,111.88648148148147,273.0833333333333,111.88435185185185,275.5,111.88222222222223C277.9166666666667,111.8800925925926,280.3333333333333,111.87796296296297,282.75,111.87583333333333C285.1666666666667,111.8737037037037,287.5833333333333,111.87157407407406,290,111.86944444444444C292.4166666666667,111.86731481481482,294.8333333333333,111.8651851851852,297.25,111.86305555555556C299.6666666666667,111.86092592592593,302.0833333333333,111.8587962962963,304.5,111.85666666666667C306.9166666666667,111.85453703703703,309.3333333333333,111.85240740740741,311.75,111.85027777777778C314.1666666666667,111.84814814814814,316.5833333333333,111.84601851851852,319,111.84388888888888C321.4166666666667,111.84175925925925,323.8333333333333,111.83962962962963,326.25,111.8375C328.6666666666667,111.83537037037038,331.0833333333333,111.83324074074075,333.5,111.83111111111111C335.9166666666667,111.82898148148148,338.3333333333333,111.82685185185184,340.75,111.82472222222222C343.1666666666667,111.8225925925926,345.5833333333333,111.82046296296298,348,111.81833333333334C350.4166666666667,111.8162037037037,352.8333333333333,111.81407407407409,355.25,111.81194444444445C357.6666666666667,111.80981481481481,360.0833333333333,111.80768518518519,362.5,111.80555555555556C364.9166666666667,111.80342592592592,367.3333333333333,111.8012962962963,369.75,111.79916666666666C372.1666666666667,111.79703703703703,374.5833333333333,111.79490740740741,377,111.79277777777779C379.4166666666667,111.79064814814816,381.8333333333333,111.78851851851853,384.25,111.7863888888889C386.6666666666667,111.78425925925926,389.0833333333333,111.78212962962962,391.5,111.78C393.9166666666667,111.77787037037037,396.33333333333337,111.77574074074076,398.75000000000006,111.77361111111112C401.16666666666674,111.7714814814815,403.58333333333337,111.76935185185187,406.00000000000006,111.76722222222223C408.4166666666667,111.7650925925926,410.8333333333333,111.76296296296297,413.24999999999994,111.76083333333334C415.66666666666663,111.7587037037037,418.08333333333326,111.75657407407407,420.49999999999994,111.75444444444445C422.91666666666663,111.75231481481481,425.3333333333333,111.7501851851852,427.75,111.74805555555557C430.1666666666667,111.74592592592595,432.5833333333333,111.74379629629631,435,111.74166666666667C437.4166666666667,111.73953703703704,439.8333333333333,111.73740740740742,442.25,111.73527777777778C444.6666666666667,111.73314814814815,447.0833333333333,111.73101851851852,449.5,111.72888888888889C451.9166666666667,111.72675925925925,454.3333333333333,111.72462962962963,456.75,111.7225C459.1666666666667,111.72037037037036,461.5833333333333,111.71824074074074,464,111.7161111111111C466.4166666666667,111.71398148148147,468.8333333333333,111.71185185185183,471.25,111.70972222222221C473.6666666666667,111.70759259259259,476.0833333333333,111.70546296296295,478.5,111.70333333333333C480.9166666666667,111.7012037037037,483.33333333333337,111.69907407407408,485.75000000000006,111.69694444444444C488.16666666666674,111.6948148148148,490.58333333333337,111.69268518518518,493.00000000000006,111.69055555555555C495.4166666666667,111.68842592592591,497.8333333333333,111.68629629629628,500.24999999999994,111.68416666666666C502.66666666666663,111.68203703703702,505.08333333333326,111.6799074074074,507.49999999999994,111.67777777777778C509.91666666666663,111.67564814814814,512.3333333333333,111.67351851851852,514.75,111.67138888888888C517.1666666666666,111.66925925925925,519.5833333333334,111.66712962962963,522,111.66499999999999C524.4166666666666,111.66287037037036,526.8333333333334,111.66074074074072,529.25,111.6586111111111C531.6666666666666,111.65648148148148,534.0833333333334,111.65435185185186,536.5,111.65222222222222C538.9166666666666,111.65009259259259,541.3333333333334,111.64796296296296,543.75,111.64583333333333C546.1666666666666,111.6437037037037,548.5833333333334,111.64157407407407,551,111.63944444444444C553.4166666666666,111.6373148148148,555.8333333333334,111.63518518518518,558.25,111.63305555555556C560.6666666666666,111.63092592592594,563.0833333333334,111.6287962962963,565.5,111.62666666666667C567.9166666666666,111.62453703703703,570.3333333333334,111.62240740740741,572.75,111.62027777777777C575.1666666666666,111.61814814814814,577.5833333333334,111.6160185185185,580,111.61388888888888C582.4166666666666,111.61175925925926,584.8333333333334,111.60962962962964,587.25,111.6075C589.6666666666666,111.60537037037037,592.0833333333334,111.60324074074074,594.5,111.60111111111111C596.9166666666666,111.59898148148147,599.3333333333334,111.59685185185185,601.75,111.59472222222222C604.1666666666666,111.59259259259258,606.5833333333334,111.59046296296296,609,111.58833333333334C611.4166666666666,111.58620370370372,613.8333333333334,111.58407407407408,616.25,111.58194444444445C618.6666666666666,111.57981481481481,621.0833333333334,111.57768518518519,623.5,111.57555555555555C625.9166666666666,111.57342592592592,628.3333333333334,111.57129629629628,630.75,111.56916666666666C633.1666666666666,111.56703703703704,635.5833333333334,111.56490740740742,638,111.56277777777778C640.4166666666666,111.56064814814815,642.8333333333334,111.55851851851853,645.25,111.55638888888889C647.6666666666666,111.55425925925925,650.0833333333334,111.55425925925925,652.5,111.55C654.9166666666666,111.54574074074074,657.3333333333334,111.41931818181817,659.75,111.35397727272726C662.1666666666666,111.28863636363636,664.5833333333334,111.22329545454545,667,111.15795454545454C669.4166666666666,111.09261363636364,671.8333333333334,111.02727272727272,674.25,110.96193181818181C676.6666666666666,110.8965909090909,679.0833333333334,110.83125,681.5,110.76590909090909C683.9166666666666,110.70056818181818,686.3333333333334,110.63522727272726,688.75,110.56988636363636C691.1666666666666,110.50454545454545,693.5833333333334,110.43920454545454,696,110.37386363636364C698.4166666666666,110.30852272727273,700.8333333333334,110.24318181818181,703.25,110.1778409090909C705.6666666666666,110.1125,708.0833333333334,110.04715909090908,710.5,109.98181818181817C712.9166666666666,109.91647727272726,715.3333333333334,109.85113636363637,717.75,109.78579545454546C720.1666666666666,109.72045454545456,722.5833333333334,109.65511363636364,725,109.58977272727273C727.4166666666666,109.52443181818182,729.8333333333334,109.45909090909092,732.25,109.39375000000001C734.6666666666666,109.3284090909091,737.0833333333334,109.26306818181818,739.5,109.19772727272728C741.9166666666666,109.13238636363637,744.3333333333334,109.06704545454545,746.75,109.00170454545454C749.1666666666666,108.93636363636364,751.5833333333334,108.87102272727273,754,108.80568181818182C756.4166666666666,108.74034090909092,758.8333333333334,108.675,761.25,108.60965909090909C763.6666666666666,108.54431818181818,766.0833333333334,108.47897727272728,768.5,108.41363636363637C770.9166666666666,108.34829545454546,773.3333333333334,108.28295454545454,775.75,108.21761363636364C778.1666666666666,108.15227272727273,780.5833333333334,108.08693181818181,783,108.0215909090909C785.4166666666667,107.95625,787.8333333333334,107.89090909090909,790.2500000000001,107.82556818181818C792.6666666666667,107.76022727272728,795.0833333333335,107.69488636363636,797.5000000000001,107.62954545454545C799.9166666666667,107.56420454545454,802.3333333333335,107.49886363636364,804.7500000000001,107.43352272727273C807.1666666666667,107.36818181818182,809.5833333333335,107.3028409090909,812.0000000000001,107.2375C814.4166666666667,107.17215909090909,816.8333333333333,107.10681818181818,819.2499999999999,107.04147727272728C821.6666666666665,106.97613636363637,824.0833333333333,106.91079545454545,826.4999999999999,106.84545454545454C828.9166666666665,106.78011363636364,831.3333333333333,106.71477272727272,833.7499999999999,106.64943181818181C836.1666666666665,106.5840909090909,838.5833333333333,106.51875,840.9999999999999,106.45340909090909C843.4166666666666,106.38806818181818,845.8333333333333,106.32272727272726,848.25,106.25738636363636C850.6666666666666,106.19204545454545,853.0833333333334,106.12670454545454,855.5,106.06136363636364C857.9166666666666,105.99602272727273,860.3333333333334,105.93068181818181,862.75,105.8653409090909C865.1666666666666,105.8,867.5833333333334,105.73465909090909,870,105.66931818181818C872.4166666666666,105.60397727272728,874.8333333333334,105.53863636363637,877.25,105.47329545454546C879.6666666666666,105.40795454545456,882.0833333333334,105.34261363636362,884.5,105.27727272727272C886.9166666666666,105.21193181818181,889.3333333333334,105.14659090909092,891.75,105.08125000000001C894.1666666666666,105.0159090909091,896.5833333333334,104.95056818181818,899,104.88522727272728C901.4166666666666,104.81988636363637,903.8333333333334,104.75454545454546,906.25,104.68920454545456C908.6666666666666,104.62386363636365,911.0833333333334,104.55852272727273,913.5,104.49318181818182C915.9166666666666,104.42784090909092,918.3333333333334,104.3625,920.75,104.29715909090909C923.1666666666666,104.23181818181818,925.5833333333334,104.16647727272728,928,104.10113636363637C930.4166666666666,104.03579545454546,932.8333333333334,103.97045454545454,935.25,103.90511363636364C937.6666666666666,103.83977272727273,940.0833333333334,103.77443181818182,942.5,103.70909090909092C944.9166666666666,103.64375000000001,947.3333333333334,103.57840909090909,949.75,103.51306818181818C952.1666666666666,103.44772727272728,954.5833333333334,103.38238636363636,957,103.31704545454545C959.4166666666666,103.25170454545454,961.8333333333334,103.18636363636364,964.25,103.12102272727273C966.6666666666667,103.05568181818182,969.0833333333334,102.9903409090909,971.5000000000001,102.925C973.9166666666667,102.85965909090909,976.3333333333335,102.79431818181818,978.7500000000001,102.72897727272728C981.1666666666667,102.66363636363637,983.5833333333335,102.59829545454545,986.0000000000001,102.53295454545454C988.4166666666667,102.46761363636364,990.8333333333335,102.40227272727273,993.2500000000001,102.33693181818182C995.6666666666667,102.27159090909092,998.0833333333333,102.20625,1000.4999999999999,102.14090909090909C1002.9166666666665,102.07556818181818,1005.3333333333333,102.01022727272726,1007.7499999999999,101.94488636363636C1010.1666666666665,101.87954545454545,1012.5833333333333,101.81420454545454,1014.9999999999999,101.74886363636364C1017.4166666666665,101.68352272727273,1019.8333333333333,101.61818181818181,1022.2499999999999,101.5528409090909C1024.6666666666665,101.4875,1027.0833333333333,101.42215909090909,1029.5,101.35681818181818C1031.9166666666667,101.29147727272728,1034.3333333333333,101.22613636363636,1036.75,101.16079545454545C1039.1666666666667,101.09545454545454,1041.5833333333333,101.03011363636364,1044,100.96477272727273C1046.4166666666667,100.89943181818182,1048.8333333333333,100.8340909090909,1051.25,100.76875C1053.6666666666667,100.70340909090909,1056.0833333333333,100.63806818181817,1058.5,100.57272727272726C1060.9166666666667,100.50738636363636,1063.3333333333333,100.44204545454545,1065.75,100.37670454545454C1068.1666666666667,100.31136363636364,1070.5833333333333,100.24602272727272,1073,100.18068181818181C1075.4166666666667,100.1153409090909,1077.8333333333333,100.05,1080.25,99.98465909090909C1082.6666666666667,99.91931818181818,1085.0833333333333,99.85397727272726,1087.5,99.78863636363636C1089.9166666666667,99.72329545454545,1092.3333333333333,99.65795454545454,1094.75,99.59261363636364C1097.1666666666667,99.52727272727273,1099.5833333333333,99.46193181818181,1102,99.3965909090909C1104.4166666666667,99.33125,1106.8333333333333,99.26590909090908,1109.25,99.20056818181817C1111.6666666666667,99.13522727272726,1114.0833333333333,99.06988636363636,1116.5,99.00454545454545C1118.9166666666667,98.93920454545454,1121.3333333333333,98.87386363636362,1123.75,98.80852272727272C1126.1666666666667,98.74318181818181,1128.5833333333333,98.67784090909092,1131,98.61250000000001C1133.4166666666667,98.5471590909091,1135.8333333333333,98.48181818181818,1138.25,98.41647727272728C1140.6666666666667,98.35113636363637,1143.0833333333333,98.28579545454545,1145.5,98.22045454545454C1147.9166666666667,98.15511363636364,1150.3333333333333,98.08977272727273,1152.75,98.02443181818182C1155.1666666666667,97.95909090909092,1157.5833333333333,97.89375,1160,97.82840909090909C1162.4166666666667,97.76306818181818,1164.8333333333333,97.69772727272728,1167.25,97.63238636363637C1169.6666666666667,97.56704545454546,1172.0833333333333,97.50170454545454,1174.5,97.43636363636364C1176.9166666666667,97.37102272727273,1179.3333333333333,97.30568181818181,1181.75,97.2403409090909C1184.1666666666667,97.175,1186.5833333333333,97.10965909090909,1189,97.04431818181818C1191.4166666666667,96.97897727272728,1193.8333333333333,96.91363636363636,1196.25,96.84829545454545C1198.6666666666667,96.78295454545454,1201.0833333333333,96.71761363636364,1203.5,96.65227272727273C1205.9166666666667,96.58693181818182,1208.3333333333333,96.5215909090909,1210.75,96.45625C1213.1666666666667,96.39090909090909,1215.5833333333333,96.32556818181818,1218,96.26022727272728C1220.4166666666667,96.19488636363637,1222.8333333333333,96.12954545454545,1225.25,96.06420454545454C1227.6666666666667,95.99886363636364,1230.0833333333333,95.93352272727272,1232.5,95.86818181818181C1234.9166666666667,95.8028409090909,1237.3333333333333,95.7375,1239.75,95.67215909090909C1242.1666666666667,95.60681818181818,1244.5833333333333,95.54147727272726,1247,95.47613636363636C1249.4166666666667,95.41079545454545,1251.8333333333333,95.34545454545454,1254.25,95.28011363636364C1256.6666666666667,95.21477272727273,1259.0833333333333,95.14943181818181,1261.5,95.0840909090909C1263.9166666666667,95.01875,1266.3333333333333,94.95340909090909,1268.75,94.88806818181818C1271.1666666666667,94.82272727272728,1273.5833333333333,94.75738636363636,1276,94.69204545454545C1278.4166666666667,94.62670454545454,1280.8333333333333,94.56136363636364,1283.25,94.49602272727273C1285.6666666666667,94.43068181818182,1288.0833333333333,94.36534090909092,1290.5,94.30000000000001C1292.9166666666667,94.2346590909091,1295.3333333333333,94.16931818181817,1297.75,94.10397727272726C1300.1666666666667,94.03863636363636,1302.5833333333333,93.97329545454546,1305,93.90795454545456C1307.4166666666667,93.84261363636365,1309.8333333333333,93.77727272727273,1312.25,93.71193181818182C1314.6666666666667,93.64659090909092,1317.0833333333333,93.58125,1319.5,93.51590909090909C1321.9166666666667,93.45056818181818,1324.3333333333333,93.38522727272726,1326.75,93.31988636363636C1329.1666666666667,93.25454545454545,1331.5833333333333,93.18920454545454,1334,93.12386363636364C1336.4166666666667,93.05852272727273,1338.8333333333333,92.99318181818182,1341.25,92.92784090909092C1343.6666666666667,92.86250000000001,1346.0833333333333,92.79715909090909,1348.5,92.73181818181818C1350.9166666666667,92.66647727272728,1353.3333333333333,92.60113636363636,1355.75,92.53579545454545C1358.1666666666667,92.47045454545454,1360.5833333333333,92.40511363636364,1363,92.33977272727273C1365.4166666666667,92.27443181818182,1367.8333333333333,92.2090909090909,1370.25,92.14375C1372.6666666666667,92.07840909090909,1375.0833333333333,92.01306818181818,1377.5,91.94772727272728C1379.9166666666667,91.88238636363637,1382.3333333333333,91.81704545454545,1384.75,91.75170454545454C1387.1666666666667,91.68636363636364,1389.5833333333333,91.62102272727273,1392,91.55568181818182C1394.4166666666667,91.49034090909092,1396.8333333333333,91.425,1399.25,91.35965909090909C1401.6666666666667,91.29431818181818,1404.0833333333333,91.22897727272726,1406.5,91.16363636363636C1408.9166666666667,91.09829545454545,1411.3333333333333,91.03295454545454,1413.75,90.96761363636364C1416.1666666666667,90.90227272727273,1418.5833333333333,90.83693181818181,1421,90.7715909090909C1423.4166666666667,90.70625,1425.8333333333333,90.64090909090909,1428.25,90.57556818181818C1430.6666666666667,90.51022727272728,1433.0833333333333,90.44488636363636,1435.5,90.37954545454545C1437.9166666666667,90.31420454545454,1440.3333333333333,90.24886363636364,1442.75,90.18352272727273C1445.1666666666667,90.11818181818182,1447.5833333333333,90.0528409090909,1450,89.9875" fill="transparent" stroke-linecap="round" stroke="#E7C6DF" stroke-width="2"></path><g class="visx-group visx-axis visx-axis-bottom" transform="translate(0, 115)"><g class="visx-group visx-axis-tick" transform="translate(0, 0)"><line class="visx-line" x1="0" y1="0" x2="0" y2="8" fill="transparent" shape-rendering="crispEdges" stroke="#000" stroke-width="0" stroke-linecap="square"></line><svg x="0" y="0" font-size="10" style="overflow:visible"><text transform="" x="0" y="18" fill="#000" font-size="10" text-anchor="middle"><tspan x="0" dy="0em">0%</tspan></text></svg></g><g class="visx-group visx-axis-tick" transform="translate(0, 0)"><line class="visx-line" x1="362.5" y1="0" x2="362.5" y2="8" fill="transparent" shape-rendering="crispEdges" stroke="#000" stroke-width="0" stroke-linecap="square"></line><svg x="0" y="0" font-size="10" style="overflow:visible"><text transform="" x="362.5" y="18" fill="#000" font-size="10" text-anchor="middle"><tspan x="362.5" dy="0em">25%</tspan></text></svg></g><g class="visx-group visx-axis-tick" transform="translate(0, 0)"><line class="visx-line" x1="725" y1="0" x2="725" y2="8" fill="transparent" shape-rendering="crispEdges" stroke="#000" stroke-width="0" stroke-linecap="square"></line><svg x="0" y="0" font-size="10" style="overflow:visible"><text transform="" x="725" y="18" fill="#000" font-size="10" text-anchor="middle"><tspan x="725" dy="0em">50%</tspan></text></svg></g><g class="visx-group visx-axis-tick" transform="translate(0, 0)"><line class="visx-line" x1="1087.5" y1="0" x2="1087.5" y2="8" fill="transparent" shape-rendering="crispEdges" stroke="#000" stroke-width="0" stroke-linecap="square"></line><svg x="0" y="0" font-size="10" style="overflow:visible"><text transform="" x="1087.5" y="18" fill="#000" font-size="10" text-anchor="middle"><tspan x="1087.5" dy="0em">75%</tspan></text></svg></g><g class="visx-group visx-axis-tick" transform="translate(0, 0)"><line class="visx-line" x1="1450" y1="0" x2="1450" y2="8" fill="transparent" shape-rendering="crispEdges" stroke="#000" stroke-width="0" stroke-linecap="square"></line><svg x="0" y="0" font-size="10" style="overflow:visible"><text transform="" x="1450" y="18" fill="#000" font-size="10" text-anchor="middle"><tspan x="1450" dy="0em">100%</tspan></text></svg></g><line class="visx-line visx-axis-line" x1="0.5" y1="0" x2="1450.5" y2="0" fill="transparent" shape-rendering="crispEdges" stroke="#222" stroke-width="0"></line></g><g class="visx-group visx-axis visx-axis-left" transform="translate(0, 0)"><g class="visx-group visx-axis-tick" transform="translate(0, 0)"><line class="visx-line" x1="0" y1="115" x2="-8" y2="115" fill="transparent" shape-rendering="crispEdges" stroke="#222" stroke-width="0" stroke-linecap="square"></line><svg x="-30" y="0" font-size="8" style="overflow:visible"><text transform="" x="-8" y="115" fill="#000" font-size="8" text-anchor="start"><tspan x="-8" dy="0em">0%</tspan></text></svg></g><g class="visx-group visx-axis-tick" transform="translate(0, 0)"><line class="visx-line" x1="0" y1="57.5" x2="-8" y2="57.5" fill="transparent" shape-rendering="crispEdges" stroke="#222" stroke-width="0" stroke-linecap="square"></line><svg x="-30" y="0" font-size="8" style="overflow:visible"><text transform="" x="-8" y="57.5" fill="#000" font-size="8" text-anchor="start"><tspan x="-8" dy="0em">200%</tspan></text></svg></g><g class="visx-group visx-axis-tick" transform="translate(0, 0)"><line class="visx-line" x1="0" y1="0" x2="-8" y2="0" fill="transparent" shape-rendering="crispEdges" stroke="#222" stroke-width="0" stroke-linecap="square"></line><svg x="-30" y="0" font-size="8" style="overflow:visible"><text transform="" x="-8" y="0" fill="#000" font-size="8" text-anchor="start"><tspan x="-8" dy="0em">400%</tspan></text></svg></g><line class="visx-line visx-axis-line" x1="0" y1="115.5" x2="0" y2="0.5" fill="transparent" shape-rendering="crispEdges" stroke="#222" stroke-width="0"></line></g><rect class="visx-bar" width="1450" height="115" fill="transparent"></rect><line class="visx-line" x1="652.5" y1="28" x2="652.5" y2="115" fill="transparent" shape-rendering="crispEdges" stroke="#0062D2" stroke-width="1" pointer-events="none" stroke-dasharray="5,2"></line><svg x="0" y="0" font-size="10px" style="overflow:visible"><text transform="" x="652.5" y="20" font-size="10px" fill="#fff" stroke="#fff" stroke-width="0.8em" text-anchor="middle"><tspan x="652.5" dy="0.355em">Optimal 45%</tspan></text></svg><svg x="0" y="0" font-size="10px" style="overflow:visible"><text transform="" x="652.5" y="20" font-size="10px" fill="#62677B" text-anchor="middle"><tspan x="652.5" dy="0.355em">Optimal 45%</tspan></text></svg></g></svg>