<?xml version="1.0"?><svg xmlns="http://www.w3.org/2000/svg" xmlns:xlink= "http://www.w3.org/1999/xlink" style="background: white;" width="1500" height="185"> <g style="color: black; font-size: 13px; font-family: sans-serif; transform: translate(18px, 25px);"><g><circle r="3" cx="-6" cy="-5" style="fill: #B6509E" /><text>Borrow APR, variable</text></g><g style="transform: translateX(150px);"><circle r="3" cx="-6" cy="-5" style="fill: rgb(231, 198, 223)" /><text>Borrow APR, stable</text></g><g style="transform: translateX(290px);"><circle r="3" cx="-6" cy="-5" style="fill: rgb(0, 98, 210)" /><text>Utilization Rate</text></g></g><g class="visx-group" transform="translate(40, 50)"><g class="visx-group visx-rows" transform="translate(0, 0)"><line class="visx-line" x1="0" y1="115" x2="1450" y2="115" fill="transparent" shape-rendering="crispEdges" stroke="#000" stroke-width="1" stroke-dasharray="3,3" pointer-events="none"></line><line class="visx-line" x1="0" y1="70.76923076923077" x2="1450" y2="70.76923076923077" fill="transparent" shape-rendering="crispEdges" stroke="#000" stroke-width="1" stroke-dasharray="3,3" pointer-events="none"></line><line class="visx-line" x1="0" y1="26.538461538461533" x2="1450" y2="26.538461538461533" fill="transparent" shape-rendering="crispEdges" stroke="#000" stroke-width="1" stroke-dasharray="3,3" pointer-events="none"></line></g><path class="visx-linepath" d="M0,112.34615384598798C2.4166666666666665,112.31850961528787,4.833333333333334,112.29086538458775,7.25,112.26322115384616C9.666666666666666,112.23557692310457,12.083333333333334,112.20793269230768,14.5,112.18028846153845C16.916666666666668,112.15264423076923,19.333333333333332,112.125,21.75,112.09735576923077C24.166666666666668,112.06971153846155,26.583333333333332,112.0420673076923,29,112.01442307692308C31.416666666666668,111.98677884615385,33.833333333333336,111.95913461538461,36.25,111.93149038461539C38.666666666666664,111.90384615384616,41.083333333333336,111.87620192307692,43.5,111.8485576923077C45.91666666666667,111.82091346153847,48.333333333333336,111.79326923076923,50.75000000000001,111.765625C53.16666666666667,111.73798076923077,55.583333333333336,111.71033653846153,58,111.6826923076923C60.416666666666664,111.65504807692308,62.833333333333336,111.62740384615385,65.25,111.59975961538463C67.66666666666667,111.5721153846154,70.08333333333333,111.54447115384615,72.5,111.51682692307692C74.91666666666667,111.4891826923077,77.33333333333333,111.46153846153847,79.75,111.43389423076924C82.16666666666667,111.40625000000001,84.58333333333333,111.37860576923077,87,111.35096153846153C89.41666666666667,111.32331730769229,91.83333333333333,111.29567307692307,94.25,111.26802884615384C96.66666666666667,111.24038461538461,99.08333333333334,111.21274038461539,101.50000000000001,111.18509615384616C103.91666666666667,111.15745192307693,106.33333333333334,111.12980769230768,108.75,111.10216346153845C111.16666666666667,111.07451923076923,113.58333333333333,111.046875,116,111.01923076923077C118.41666666666667,110.99158653846155,120.83333333333334,110.96394230769229,123.25000000000001,110.93629807692307C125.66666666666667,110.90865384615384,128.08333333333334,110.88100961538461,130.5,110.85336538461539C132.91666666666666,110.82572115384616,135.33333333333334,110.79807692307692,137.75,110.7704326923077C140.16666666666666,110.74278846153847,142.58333333333334,110.71514423076923,145,110.6875C147.41666666666666,110.65985576923077,149.83333333333334,110.63221153846153,152.25,110.6045673076923C154.66666666666666,110.57692307692308,157.08333333333334,110.54927884615384,159.5,110.52163461538461C161.91666666666666,110.49399038461539,164.33333333333334,110.46634615384615,166.75,110.43870192307692C169.16666666666666,110.4110576923077,171.58333333333334,110.38341346153847,174,110.35576923076924C176.41666666666666,110.32812500000001,178.83333333333334,110.30048076923076,181.25,110.27283653846153C183.66666666666666,110.2451923076923,186.08333333333334,110.21754807692308,188.5,110.18990384615385C190.91666666666666,110.16225961538463,193.33333333333334,110.13461538461537,195.75,110.10697115384615C198.16666666666669,110.07932692307692,200.58333333333334,110.0516826923077,203.00000000000003,110.02403846153847C205.41666666666669,109.99639423076924,207.83333333333331,109.96875,210.24999999999997,109.94110576923077C212.66666666666666,109.91346153846155,215.08333333333331,109.8858173076923,217.5,109.85817307692308C219.91666666666666,109.83052884615385,222.33333333333334,109.80288461538461,224.75,109.77524038461539C227.16666666666666,109.74759615384616,229.58333333333334,109.7199519230769,232,109.69230769230768C234.41666666666666,109.66466346153845,236.83333333333334,109.63701923076923,239.25,109.609375C241.66666666666669,109.58173076923077,244.08333333333334,109.55408653846155,246.50000000000003,109.52644230769232C248.91666666666669,109.4987980769231,251.33333333333331,109.47115384615384,253.74999999999997,109.44350961538461C256.16666666666663,109.41586538461537,258.5833333333333,109.38822115384615,261,109.36057692307692C263.4166666666667,109.3329326923077,265.8333333333333,109.30528846153845,268.25,109.27764423076923C270.6666666666667,109.25,273.0833333333333,109.22235576923076,275.5,109.19471153846153C277.9166666666667,109.1670673076923,280.3333333333333,109.13942307692308,282.75,109.11177884615385C285.1666666666667,109.08413461538463,287.5833333333333,109.05649038461537,290,109.02884615384615C292.4166666666667,109.00120192307692,294.8333333333333,108.9735576923077,297.25,108.94591346153847C299.6666666666667,108.91826923076924,302.0833333333333,108.89062499999999,304.5,108.86298076923076C306.9166666666667,108.83533653846153,309.3333333333333,108.8076923076923,311.75,108.78004807692308C314.1666666666667,108.75240384615385,316.5833333333333,108.72475961538461,319,108.69711538461539C321.4166666666667,108.66947115384616,323.8333333333333,108.64182692307692,326.25,108.6141826923077C328.6666666666667,108.58653846153847,331.0833333333333,108.55889423076923,333.5,108.53125C335.9166666666667,108.50360576923077,338.3333333333333,108.47596153846153,340.75,108.4483173076923C343.1666666666667,108.42067307692308,345.5833333333333,108.39302884615384,348,108.36538461538461C350.4166666666667,108.33774038461539,352.8333333333333,108.31009615384616,355.25,108.28245192307693C357.6666666666667,108.25480769230771,360.0833333333333,108.22716346153845,362.5,108.19951923076923C364.9166666666667,108.171875,367.3333333333333,108.14423076923076,369.75,108.11658653846153C372.1666666666667,108.0889423076923,374.5833333333333,108.06129807692307,377,108.03365384615384C379.4166666666667,108.00600961538461,381.8333333333333,107.97836538461539,384.25,107.95072115384616C386.6666666666667,107.92307692307693,389.0833333333333,107.8954326923077,391.5,107.86778846153847C393.9166666666667,107.84014423076923,396.33333333333337,107.81249999999999,398.75000000000006,107.78485576923076C401.16666666666674,107.75721153846153,403.58333333333337,107.7295673076923,406.00000000000006,107.70192307692308C408.4166666666667,107.67427884615385,410.8333333333333,107.64663461538461,413.24999999999994,107.61899038461539C415.66666666666663,107.59134615384616,418.08333333333326,107.56370192307692,420.49999999999994,107.5360576923077C422.91666666666663,107.50841346153847,425.3333333333333,107.48076923076923,427.75,107.453125C430.1666666666667,107.42548076923077,432.5833333333333,107.39783653846153,435,107.3701923076923C437.4166666666667,107.34254807692308,439.8333333333333,107.31490384615384,442.25,107.28725961538461C444.6666666666667,107.25961538461539,447.0833333333333,107.23197115384615,449.5,107.20432692307692C451.9166666666667,107.1766826923077,454.3333333333333,107.14903846153845,456.75,107.12139423076923C459.1666666666667,107.09375,461.5833333333333,107.06610576923077,464,107.03846153846155C466.4166666666667,107.01081730769232,468.8333333333333,106.98317307692307,471.25,106.95552884615384C473.6666666666667,106.92788461538461,476.0833333333333,106.90024038461539,478.5,106.87259615384616C480.9166666666667,106.84495192307693,483.33333333333337,106.81730769230768,485.75000000000006,106.78966346153845C488.16666666666674,106.76201923076923,490.58333333333337,106.734375,493.00000000000006,106.70673076923077C495.4166666666667,106.67908653846155,497.8333333333333,106.6514423076923,500.24999999999994,106.62379807692308C502.66666666666663,106.59615384615385,505.08333333333326,106.56850961538461,507.49999999999994,106.54086538461539C509.91666666666663,106.51322115384616,512.3333333333333,106.48557692307692,514.75,106.4579326923077C517.1666666666666,106.43028846153847,519.5833333333334,106.40264423076923,522,106.375C524.4166666666666,106.34735576923077,526.8333333333334,106.31971153846153,529.25,106.2920673076923C531.6666666666666,106.26442307692308,534.0833333333334,106.23677884615384,536.5,106.20913461538461C538.9166666666666,106.18149038461539,541.3333333333334,106.15384615384615,543.75,106.12620192307692C546.1666666666666,106.0985576923077,548.5833333333334,106.07091346153847,551,106.04326923076924C553.4166666666666,106.01562500000001,555.8333333333334,105.98798076923077,558.25,105.96033653846153C560.6666666666666,105.93269230769229,563.0833333333334,105.90504807692307,565.5,105.87740384615384C567.9166666666666,105.84975961538461,570.3333333333334,105.82211538461539,572.75,105.79447115384616C575.1666666666666,105.76682692307693,577.5833333333334,105.73918269230768,580,105.71153846153845C582.4166666666666,105.68389423076923,584.8333333333334,105.65625,587.25,105.62860576923077C589.6666666666666,105.60096153846155,592.0833333333334,105.57331730769229,594.5,105.54567307692307C596.9166666666666,105.51802884615384,599.3333333333334,105.49038461538461,601.75,105.46274038461539C604.1666666666666,105.43509615384616,606.5833333333334,105.40745192307692,609,105.3798076923077C611.4166666666666,105.35216346153847,613.8333333333334,105.32451923076923,616.25,105.296875C618.6666666666666,105.26923076923077,621.0833333333334,105.24158653846153,623.5,105.2139423076923C625.9166666666666,105.18629807692308,628.3333333333334,105.15865384615384,630.75,105.13100961538461C633.1666666666666,105.10336538461539,635.5833333333334,105.07572115384615,638,105.04807692307692C640.4166666666666,105.0204326923077,642.8333333333334,104.99278846153847,645.25,104.96514423076924C647.6666666666666,104.93750000000001,650.0833333333334,104.90985576923076,652.5,104.88221153846153C654.9166666666666,104.8545673076923,657.3333333333334,104.82692307692308,659.75,104.79927884615385C662.1666666666666,104.77163461538463,664.5833333333334,104.74399038461537,667,104.71634615384615C669.4166666666666,104.68870192307692,671.8333333333334,104.6610576923077,674.25,104.63341346153847C676.6666666666666,104.60576923076924,679.0833333333334,104.578125,681.5,104.55048076923077C683.9166666666666,104.52283653846155,686.3333333333334,104.4951923076923,688.75,104.46754807692308C691.1666666666666,104.43990384615385,693.5833333333334,104.41225961538461,696,104.38461538461539C698.4166666666666,104.35697115384616,700.8333333333334,104.3293269230769,703.25,104.30168269230768C705.6666666666666,104.27403846153845,708.0833333333334,104.24639423076923,710.5,104.21875C712.9166666666666,104.19110576923077,715.3333333333334,104.16346153846155,717.75,104.13581730769232C720.1666666666666,104.1081730769231,722.5833333333334,104.08052884615384,725,104.05288461538461C727.4166666666666,104.02524038461539,729.8333333333334,103.99759615384615,732.25,103.96995192307692C734.6666666666666,103.9423076923077,737.0833333333334,103.91466346153845,739.5,103.88701923076923C741.9166666666666,103.859375,744.3333333333334,103.83173076923076,746.75,103.80408653846153C749.1666666666666,103.7764423076923,751.5833333333334,103.74879807692308,754,103.72115384615385C756.4166666666666,103.69350961538463,758.8333333333334,103.66586538461537,761.25,103.63822115384615C763.6666666666666,103.61057692307692,766.0833333333334,103.5829326923077,768.5,103.55528846153847C770.9166666666666,103.52764423076924,773.3333333333334,103.49999999999999,775.75,103.47235576923076C778.1666666666666,103.44471153846153,780.5833333333334,103.4170673076923,783,103.38942307692308C785.4166666666667,103.36177884615385,787.8333333333334,103.33413461538461,790.2500000000001,103.30649038461539C792.6666666666667,103.27884615384616,795.0833333333335,103.25120192307692,797.5000000000001,103.2235576923077C799.9166666666667,103.19591346153847,802.3333333333335,103.16826923076923,804.7500000000001,103.140625C807.1666666666667,103.11298076923077,809.5833333333335,103.08533653846153,812.0000000000001,103.0576923076923C814.4166666666667,103.03004807692308,816.8333333333333,103.00240384615384,819.2499999999999,102.97475961538461C821.6666666666665,102.94711538461539,824.0833333333333,102.91947115384616,826.4999999999999,102.89182692307693C828.9166666666665,102.86418269230771,831.3333333333333,102.83653846153845,833.7499999999999,102.80889423076923C836.1666666666665,102.78125,838.5833333333333,102.75360576923076,840.9999999999999,102.72596153846153C843.4166666666666,102.6983173076923,845.8333333333333,102.67067307692307,848.25,102.64302884615384C850.6666666666666,102.61538461538461,853.0833333333334,102.58774038461539,855.5,102.56009615384616C857.9166666666666,102.53245192307693,860.3333333333334,102.5048076923077,862.75,102.47716346153847C865.1666666666666,102.44951923076924,867.5833333333334,102.421875,870,102.39423076923077C872.4166666666666,102.36658653846155,874.8333333333334,102.3389423076923,877.25,102.31129807692308C879.6666666666666,102.28365384615385,882.0833333333334,102.25600961538461,884.5,102.22836538461539C886.9166666666666,102.20072115384616,889.3333333333334,102.17307692307692,891.75,102.1454326923077C894.1666666666666,102.11778846153847,896.5833333333334,102.09014423076923,899,102.0625C901.4166666666666,102.03485576923077,903.8333333333334,102.00721153846153,906.25,101.9795673076923C908.6666666666666,101.95192307692308,911.0833333333334,101.92427884615384,913.5,101.89663461538461C915.9166666666666,101.86899038461539,918.3333333333334,101.84134615384615,920.75,101.81370192307692C923.1666666666666,101.7860576923077,925.5833333333334,101.75841346153845,928,101.73076923076923C930.4166666666666,101.703125,932.8333333333334,101.67548076923077,935.25,101.64783653846155C937.6666666666666,101.62019230769232,940.0833333333334,101.59254807692307,942.5,101.56490384615384C944.9166666666666,101.53725961538461,947.3333333333334,101.50961538461539,949.75,101.48197115384616C952.1666666666666,101.45432692307693,954.5833333333334,101.42668269230768,957,101.39903846153845C959.4166666666666,101.37139423076923,961.8333333333334,101.34375,964.25,101.31610576923077C966.6666666666667,101.28846153846155,969.0833333333334,101.2608173076923,971.5000000000001,101.23317307692308C973.9166666666667,101.20552884615385,976.3333333333335,101.17788461538461,978.7500000000001,101.15024038461539C981.1666666666667,101.12259615384616,983.5833333333335,101.09495192307692,986.0000000000001,101.0673076923077C988.4166666666667,101.03966346153847,990.8333333333335,101.01201923076923,993.2500000000001,100.984375C995.6666666666667,100.95673076923077,998.0833333333333,100.92908653846153,1000.4999999999999,100.9014423076923C1002.9166666666665,100.87379807692308,1005.3333333333333,100.84615384615384,1007.7499999999999,100.81850961538461C1010.1666666666665,100.79086538461539,1012.5833333333333,100.76322115384615,1014.9999999999999,100.73557692307692C1017.4166666666665,100.7079326923077,1019.8333333333333,100.68028846153847,1022.2499999999999,100.65264423076924C1024.6666666666665,100.62500000000001,1027.0833333333333,100.59735576923077,1029.5,100.56971153846153C1031.9166666666667,100.5420673076923,1034.3333333333333,100.51442307692307,1036.75,100.48677884615384C1039.1666666666667,100.45913461538461,1041.5833333333333,100.43149038461539,1044,100.40384615384616C1046.4166666666667,100.37620192307693,1048.8333333333333,100.3485576923077,1051.25,100.32091346153847C1053.6666666666667,100.29326923076924,1056.0833333333333,100.265625,1058.5,100.23798076923077C1060.9166666666667,100.21033653846155,1063.3333333333333,100.18269230769229,1065.75,100.15504807692307C1068.1666666666667,100.12740384615384,1070.5833333333333,100.09975961538461,1073,100.07211538461539C1075.4166666666667,100.04447115384616,1077.8333333333333,100.01682692307692,1080.25,99.9891826923077C1082.6666666666667,99.96153846153847,1085.0833333333333,99.93389423076923,1087.5,99.90625C1089.9166666666667,99.87860576923077,1092.3333333333333,99.85096153846153,1094.75,99.8233173076923C1097.1666666666667,99.79567307692308,1099.5833333333333,99.76802884615384,1102,99.74038461538461C1104.4166666666667,99.71274038461539,1106.8333333333333,99.68509615384615,1109.25,99.65745192307692C1111.6666666666667,99.6298076923077,1114.0833333333333,99.60216346153847,1116.5,99.57451923076924C1118.9166666666667,99.54687500000001,1121.3333333333333,99.51923076923076,1123.75,99.49158653846153C1126.1666666666667,99.4639423076923,1128.5833333333333,99.43629807692308,1131,99.40865384615385C1133.4166666666667,99.38100961538463,1135.8333333333333,99.35336538461539,1138.25,99.32572115384615C1140.6666666666667,99.2980769230769,1143.0833333333333,99.27043269230768,1145.5,99.24278846153845C1147.9166666666667,99.21514423076923,1150.3333333333333,99.1875,1152.75,99.15985576923077C1155.1666666666667,99.13221153846155,1157.5833333333333,99.13221153846155,1160,99.07692307692308C1162.4166666666667,99.02163461538461,1164.8333333333333,97.6025641025641,1167.25,96.86538461538461C1169.6666666666667,96.12820512820512,1172.0833333333333,95.39102564102564,1174.5,94.65384615384615C1176.9166666666667,93.91666666666666,1179.3333333333333,93.17948717948718,1181.75,92.4423076923077C1184.1666666666667,91.7051282051282,1186.5833333333333,90.96794871794872,1189,90.23076923076923C1191.4166666666667,89.49358974358974,1193.8333333333333,88.75641025641025,1196.25,88.01923076923076C1198.6666666666667,87.28205128205127,1201.0833333333333,86.5448717948718,1203.5,85.8076923076923C1205.9166666666667,85.07051282051282,1208.3333333333333,84.33333333333334,1210.75,83.59615384615385C1213.1666666666667,82.85897435897436,1215.5833333333333,82.12179487179486,1218,81.38461538461537C1220.4166666666667,80.64743589743588,1222.8333333333333,79.91025641025641,1225.25,79.17307692307692C1227.6666666666667,78.43589743589743,1230.0833333333333,77.69871794871796,1232.5,76.96153846153847C1234.9166666666667,76.22435897435898,1237.3333333333333,75.48717948717949,1239.75,74.75C1242.1666666666667,74.01282051282051,1244.5833333333333,73.27564102564102,1247,72.53846153846153C1249.4166666666667,71.80128205128204,1251.8333333333333,71.06410256410257,1254.25,70.32692307692308C1256.6666666666667,69.58974358974359,1259.0833333333333,68.8525641025641,1261.5,68.11538461538461C1263.9166666666667,67.37820512820512,1266.3333333333333,66.64102564102564,1268.75,65.90384615384615C1271.1666666666667,65.16666666666666,1273.5833333333333,64.42948717948718,1276,63.69230769230769C1278.4166666666667,62.955128205128204,1280.8333333333333,62.217948717948715,1283.25,61.480769230769226C1285.6666666666667,60.74358974358974,1288.0833333333333,60.00641025641025,1290.5,59.26923076923076C1292.9166666666667,58.53205128205127,1295.3333333333333,57.794871794871796,1297.75,57.05769230769231C1300.1666666666667,56.32051282051282,1302.5833333333333,55.58333333333333,1305,54.84615384615384C1307.4166666666667,54.10897435897435,1309.8333333333333,53.371794871794876,1312.25,52.63461538461539C1314.6666666666667,51.8974358974359,1317.0833333333333,51.16025641025641,1319.5,50.42307692307692C1321.9166666666667,49.68589743589743,1324.3333333333333,48.94871794871794,1326.75,48.21153846153845C1329.1666666666667,47.474358974358964,1331.5833333333333,46.73717948717949,1334,46C1336.4166666666667,45.26282051282051,1338.8333333333333,44.52564102564102,1341.25,43.78846153846153C1343.6666666666667,43.051282051282044,1346.0833333333333,42.31410256410257,1348.5,41.57692307692308C1350.9166666666667,40.83974358974359,1353.3333333333333,40.1025641025641,1355.75,39.36538461538461C1358.1666666666667,38.628205128205124,1360.5833333333333,37.891025641025635,1363,37.153846153846146C1365.4166666666667,36.41666666666666,1367.8333333333333,35.67948717948718,1370.25,34.94230769230769C1372.6666666666667,34.205128205128204,1375.0833333333333,33.467948717948715,1377.5,32.730769230769226C1379.9166666666667,31.993589743589737,1382.3333333333333,31.25641025641025,1384.75,30.519230769230763C1387.1666666666667,29.782051282051277,1389.5833333333333,29.044871794871796,1392,28.30769230769231C1394.4166666666667,27.570512820512825,1396.8333333333333,26.83333333333334,1399.25,26.096153846153854C1401.6666666666667,25.35897435897437,1404.0833333333333,24.62179487179488,1406.5,23.88461538461539C1408.9166666666667,23.1474358974359,1411.3333333333333,22.410256410256412,1413.75,21.673076923076923C1416.1666666666667,20.935897435897434,1418.5833333333333,20.198717948717942,1421,19.461538461538456C1423.4166666666667,18.72435897435897,1425.8333333333333,17.98717948717949,1428.25,17.250000000000004C1430.6666666666667,16.512820512820518,1433.0833333333333,15.775641025641036,1435.5,15.038461538461549C1437.9166666666667,14.301282051282062,1440.3333333333333,13.564102564102571,1442.75,12.826923076923082C1445.1666666666667,12.089743589743593,1447.5833333333333,11.352564102564106,1450,10.615384615384617" fill="transparent" stroke-linecap="round" stroke="#B6509E" stroke-width="2"></path><path class="visx-linepath" d="M0,106.15384615382403C2.4166666666666665,106.15016025639736,4.833333333333334,106.14647435897066,7.25,106.14278846153846C9.666666666666666,106.13910256410625,12.083333333333334,106.13541666666667,14.5,106.13173076923077C16.916666666666668,106.12804487179487,19.333333333333332,106.12435897435897,21.75,106.12067307692307C24.166666666666668,106.11698717948717,26.583333333333332,106.11330128205128,29,106.10961538461538C31.416666666666668,106.10592948717948,33.833333333333336,106.10224358974358,36.25,106.09855769230768C38.666666666666664,106.09487179487178,41.083333333333336,106.09118589743588,43.5,106.08749999999999C45.91666666666667,106.08381410256409,48.333333333333336,106.08012820512822,50.75000000000001,106.07644230769232C53.16666666666667,106.07275641025642,55.583333333333336,106.06907051282052,58,106.06538461538462C60.416666666666664,106.06169871794872,62.833333333333336,106.05801282051283,65.25,106.05432692307693C67.66666666666667,106.05064102564103,70.08333333333333,106.04695512820514,72.5,106.04326923076924C74.91666666666667,106.03958333333334,77.33333333333333,106.03589743589744,79.75,106.03221153846154C82.16666666666667,106.02852564102564,84.58333333333333,106.02483974358975,87,106.02115384615385C89.41666666666667,106.01746794871795,91.83333333333333,106.01378205128205,94.25,106.01009615384615C96.66666666666667,106.00641025641025,99.08333333333334,106.00272435897436,101.50000000000001,105.99903846153846C103.91666666666667,105.99535256410256,106.33333333333334,105.99166666666666,108.75,105.98798076923076C111.16666666666667,105.98429487179486,113.58333333333333,105.98060897435897,116,105.97692307692307C118.41666666666667,105.97323717948717,120.83333333333334,105.96955128205128,123.25000000000001,105.96586538461538C125.66666666666667,105.96217948717948,128.08333333333334,105.95849358974358,130.5,105.95480769230768C132.91666666666666,105.95112179487178,135.33333333333334,105.9474358974359,137.75,105.94375000000001C140.16666666666666,105.94006410256412,142.58333333333334,105.93637820512822,145,105.93269230769232C147.41666666666666,105.92900641025642,149.83333333333334,105.92532051282052,152.25,105.92163461538462C154.66666666666666,105.91794871794872,157.08333333333334,105.91426282051283,159.5,105.91057692307693C161.91666666666666,105.90689102564103,164.33333333333334,105.90320512820513,166.75,105.89951923076923C169.16666666666666,105.89583333333333,171.58333333333334,105.89214743589744,174,105.88846153846154C176.41666666666666,105.88477564102564,178.83333333333334,105.88108974358974,181.25,105.87740384615384C183.66666666666666,105.87371794871794,186.08333333333334,105.87003205128205,188.5,105.86634615384615C190.91666666666666,105.86266025641025,193.33333333333334,105.85897435897436,195.75,105.85528846153846C198.16666666666669,105.85160256410256,200.58333333333334,105.84791666666666,203.00000000000003,105.84423076923076C205.41666666666669,105.84054487179486,207.83333333333331,105.83685897435898,210.24999999999997,105.83317307692307C212.66666666666666,105.82948717948717,215.08333333333331,105.82580128205129,217.5,105.82211538461539C219.91666666666666,105.81842948717949,222.33333333333334,105.81474358974359,224.75,105.81105769230768C227.16666666666666,105.80737179487178,229.58333333333334,105.80368589743591,232,105.80000000000001C234.41666666666666,105.79631410256411,236.83333333333334,105.79262820512821,239.25,105.78894230769231C241.66666666666669,105.78525641025641,244.08333333333334,105.78157051282052,246.50000000000003,105.77788461538462C248.91666666666669,105.77419871794872,251.33333333333331,105.77051282051282,253.74999999999997,105.76682692307692C256.16666666666663,105.76314102564102,258.5833333333333,105.75945512820513,261,105.75576923076923C263.4166666666667,105.75208333333333,265.8333333333333,105.74839743589745,268.25,105.74471153846154C270.6666666666667,105.74102564102564,273.0833333333333,105.73733974358974,275.5,105.73365384615384C277.9166666666667,105.72996794871794,280.3333333333333,105.72628205128206,282.75,105.72259615384615C285.1666666666667,105.71891025641025,287.5833333333333,105.71522435897435,290,105.71153846153845C292.4166666666667,105.70785256410255,294.8333333333333,105.70416666666667,297.25,105.70048076923077C299.6666666666667,105.69679487179486,302.0833333333333,105.69310897435898,304.5,105.68942307692308C306.9166666666667,105.68573717948718,309.3333333333333,105.68205128205128,311.75,105.67836538461538C314.1666666666667,105.67467948717947,316.5833333333333,105.6709935897436,319,105.6673076923077C321.4166666666667,105.6636217948718,323.8333333333333,105.6599358974359,326.25,105.65625C328.6666666666667,105.6525641025641,331.0833333333333,105.64887820512821,333.5,105.64519230769231C335.9166666666667,105.64150641025641,338.3333333333333,105.63782051282053,340.75,105.63413461538462C343.1666666666667,105.63044871794872,345.5833333333333,105.62676282051282,348,105.62307692307692C350.4166666666667,105.61939102564102,352.8333333333333,105.61570512820514,355.25,105.61201923076923C357.6666666666667,105.60833333333333,360.0833333333333,105.60464743589743,362.5,105.60096153846153C364.9166666666667,105.59727564102563,367.3333333333333,105.59358974358975,369.75,105.58990384615385C372.1666666666667,105.58621794871794,374.5833333333333,105.58253205128204,377,105.57884615384614C379.4166666666667,105.57516025641024,381.8333333333333,105.57147435897436,384.25,105.56778846153846C386.6666666666667,105.56410256410255,389.0833333333333,105.56041666666667,391.5,105.55673076923077C393.9166666666667,105.55304487179487,396.33333333333337,105.54935897435897,398.75000000000006,105.54567307692307C401.16666666666674,105.54198717948717,403.58333333333337,105.53830128205128,406.00000000000006,105.53461538461538C408.4166666666667,105.53092948717949,410.8333333333333,105.5272435897436,413.24999999999994,105.5235576923077C415.66666666666663,105.5198717948718,418.08333333333326,105.5161858974359,420.49999999999994,105.5125C422.91666666666663,105.5088141025641,425.3333333333333,105.50512820512822,427.75,105.50144230769232C430.1666666666667,105.49775641025641,432.5833333333333,105.49407051282051,435,105.49038461538461C437.4166666666667,105.48669871794871,439.8333333333333,105.48301282051283,442.25,105.47932692307693C444.6666666666667,105.47564102564102,447.0833333333333,105.47195512820512,449.5,105.46826923076922C451.9166666666667,105.46458333333332,454.3333333333333,105.46089743589744,456.75,105.45721153846154C459.1666666666667,105.45352564102564,461.5833333333333,105.44983974358975,464,105.44615384615385C466.4166666666667,105.44246794871795,468.8333333333333,105.43878205128205,471.25,105.43509615384615C473.6666666666667,105.43141025641025,476.0833333333333,105.42772435897436,478.5,105.42403846153846C480.9166666666667,105.42035256410256,483.33333333333337,105.41666666666667,485.75000000000006,105.41298076923077C488.16666666666674,105.40929487179487,490.58333333333337,105.40560897435897,493.00000000000006,105.40192307692307C495.4166666666667,105.39823717948717,497.8333333333333,105.39455128205128,500.24999999999994,105.39086538461538C502.66666666666663,105.38717948717948,505.08333333333326,105.3834935897436,507.49999999999994,105.3798076923077C509.91666666666663,105.37612179487179,512.3333333333333,105.3724358974359,514.75,105.36875C517.1666666666666,105.3650641025641,519.5833333333334,105.3613782051282,522,105.3576923076923C524.4166666666666,105.3540064102564,526.8333333333334,105.35032051282052,529.25,105.34663461538462C531.6666666666666,105.34294871794872,534.0833333333334,105.33926282051283,536.5,105.33557692307693C538.9166666666666,105.33189102564103,541.3333333333334,105.32820512820513,543.75,105.32451923076923C546.1666666666666,105.32083333333333,548.5833333333334,105.31714743589744,551,105.31346153846154C553.4166666666666,105.30977564102564,555.8333333333334,105.30608974358975,558.25,105.30240384615385C560.6666666666666,105.29871794871795,563.0833333333334,105.29503205128205,565.5,105.29134615384615C567.9166666666666,105.28766025641025,570.3333333333334,105.28397435897436,572.75,105.28028846153846C575.1666666666666,105.27660256410256,577.5833333333334,105.27291666666666,580,105.26923076923076C582.4166666666666,105.26554487179486,584.8333333333334,105.26185897435897,587.25,105.25817307692307C589.6666666666666,105.25448717948717,592.0833333333334,105.25080128205128,594.5,105.24711538461538C596.9166666666666,105.24342948717948,599.3333333333334,105.2397435897436,601.75,105.2360576923077C604.1666666666666,105.2323717948718,606.5833333333334,105.22868589743591,609,105.22500000000001C611.4166666666666,105.22131410256411,613.8333333333334,105.21762820512821,616.25,105.2139423076923C618.6666666666666,105.2102564102564,621.0833333333334,105.20657051282052,623.5,105.20288461538462C625.9166666666666,105.19919871794872,628.3333333333334,105.19551282051283,630.75,105.19182692307693C633.1666666666666,105.18814102564103,635.5833333333334,105.18445512820513,638,105.18076923076923C640.4166666666666,105.17708333333333,642.8333333333334,105.17339743589744,645.25,105.16971153846154C647.6666666666666,105.16602564102564,650.0833333333334,105.16233974358974,652.5,105.15865384615384C654.9166666666666,105.15496794871794,657.3333333333334,105.15128205128205,659.75,105.14759615384615C662.1666666666666,105.14391025641025,664.5833333333334,105.14022435897435,667,105.13653846153845C669.4166666666666,105.13285256410255,671.8333333333334,105.12916666666666,674.25,105.12548076923076C676.6666666666666,105.12179487179486,679.0833333333334,105.11810897435898,681.5,105.11442307692307C683.9166666666666,105.11073717948717,686.3333333333334,105.10705128205129,688.75,105.10336538461539C691.1666666666666,105.09967948717949,693.5833333333334,105.0959935897436,696,105.0923076923077C698.4166666666666,105.0886217948718,700.8333333333334,105.0849358974359,703.25,105.08125C705.6666666666666,105.0775641025641,708.0833333333334,105.07387820512821,710.5,105.07019230769231C712.9166666666666,105.06650641025641,715.3333333333334,105.06282051282052,717.75,105.05913461538462C720.1666666666666,105.05544871794872,722.5833333333334,105.05176282051282,725,105.04807692307692C727.4166666666666,105.04439102564102,729.8333333333334,105.04070512820513,732.25,105.03701923076923C734.6666666666666,105.03333333333333,737.0833333333334,105.02964743589743,739.5,105.02596153846153C741.9166666666666,105.02227564102563,744.3333333333334,105.01858974358974,746.75,105.01490384615384C749.1666666666666,105.01121794871794,751.5833333333334,105.00753205128206,754,105.00384615384615C756.4166666666666,105.00016025641025,758.8333333333334,104.99647435897435,761.25,104.99278846153845C763.6666666666666,104.98910256410255,766.0833333333334,104.98541666666667,768.5,104.98173076923077C770.9166666666666,104.97804487179486,773.3333333333334,104.97435897435898,775.75,104.97067307692308C778.1666666666666,104.96698717948718,780.5833333333334,104.96330128205129,783,104.95961538461539C785.4166666666667,104.95592948717949,787.8333333333334,104.95224358974359,790.2500000000001,104.94855769230769C792.6666666666667,104.94487179487179,795.0833333333335,104.9411858974359,797.5000000000001,104.9375C799.9166666666667,104.9338141025641,802.3333333333335,104.93012820512821,804.7500000000001,104.92644230769231C807.1666666666667,104.92275641025641,809.5833333333335,104.91907051282051,812.0000000000001,104.91538461538461C814.4166666666667,104.91169871794871,816.8333333333333,104.90801282051282,819.2499999999999,104.90432692307692C821.6666666666665,104.90064102564102,824.0833333333333,104.89695512820514,826.4999999999999,104.89326923076923C828.9166666666665,104.88958333333333,831.3333333333333,104.88589743589743,833.7499999999999,104.88221153846153C836.1666666666665,104.87852564102563,838.5833333333333,104.87483974358975,840.9999999999999,104.87115384615385C843.4166666666666,104.86746794871794,845.8333333333333,104.86378205128204,848.25,104.86009615384614C850.6666666666666,104.85641025641024,853.0833333333334,104.85272435897436,855.5,104.84903846153846C857.9166666666666,104.84535256410255,860.3333333333334,104.84166666666667,862.75,104.83798076923077C865.1666666666666,104.83429487179487,867.5833333333334,104.83060897435898,870,104.82692307692308C872.4166666666666,104.82323717948718,874.8333333333334,104.8195512820513,877.25,104.81586538461539C879.6666666666666,104.81217948717949,882.0833333333334,104.80849358974359,884.5,104.80480769230769C886.9166666666666,104.80112179487179,889.3333333333334,104.7974358974359,891.75,104.79375C894.1666666666666,104.7900641025641,896.5833333333334,104.78637820512822,899,104.78269230769232C901.4166666666666,104.77900641025641,903.8333333333334,104.77532051282051,906.25,104.77163461538461C908.6666666666666,104.76794871794871,911.0833333333334,104.76426282051283,913.5,104.76057692307693C915.9166666666666,104.75689102564102,918.3333333333334,104.75320512820512,920.75,104.74951923076922C923.1666666666666,104.74583333333332,925.5833333333334,104.74214743589744,928,104.73846153846154C930.4166666666666,104.73477564102564,932.8333333333334,104.73108974358973,935.25,104.72740384615383C937.6666666666666,104.72371794871793,940.0833333333334,104.72003205128205,942.5,104.71634615384615C944.9166666666666,104.71266025641025,947.3333333333334,104.70897435897436,949.75,104.70528846153846C952.1666666666666,104.70160256410256,954.5833333333334,104.69791666666667,957,104.69423076923077C959.4166666666666,104.69054487179487,961.8333333333334,104.68685897435898,964.25,104.68317307692308C966.6666666666667,104.67948717948718,969.0833333333334,104.6758012820513,971.5000000000001,104.6721153846154C973.9166666666667,104.6684294871795,976.3333333333335,104.6647435897436,978.7500000000001,104.6610576923077C981.1666666666667,104.65737179487179,983.5833333333335,104.6536858974359,986.0000000000001,104.65C988.4166666666667,104.6463141025641,990.8333333333335,104.6426282051282,993.2500000000001,104.6389423076923C995.6666666666667,104.6352564102564,998.0833333333333,104.63157051282052,1000.4999999999999,104.62788461538462C1002.9166666666665,104.62419871794872,1005.3333333333333,104.62051282051283,1007.7499999999999,104.61682692307693C1010.1666666666665,104.61314102564103,1012.5833333333333,104.60945512820513,1014.9999999999999,104.60576923076923C1017.4166666666665,104.60208333333333,1019.8333333333333,104.59839743589744,1022.2499999999999,104.59471153846154C1024.6666666666665,104.59102564102564,1027.0833333333333,104.58733974358974,1029.5,104.58365384615384C1031.9166666666667,104.57996794871794,1034.3333333333333,104.57628205128205,1036.75,104.57259615384615C1039.1666666666667,104.56891025641025,1041.5833333333333,104.56522435897436,1044,104.56153846153846C1046.4166666666667,104.55785256410256,1048.8333333333333,104.55416666666667,1051.25,104.55048076923077C1053.6666666666667,104.54679487179487,1056.0833333333333,104.54310897435899,1058.5,104.53942307692309C1060.9166666666667,104.53573717948719,1063.3333333333333,104.53205128205128,1065.75,104.52836538461538C1068.1666666666667,104.52467948717948,1070.5833333333333,104.5209935897436,1073,104.5173076923077C1075.4166666666667,104.5136217948718,1077.8333333333333,104.5099358974359,1080.25,104.50625C1082.6666666666667,104.5025641025641,1085.0833333333333,104.49887820512821,1087.5,104.4951923076923C1089.9166666666667,104.4915064102564,1092.3333333333333,104.48782051282052,1094.75,104.48413461538462C1097.1666666666667,104.48044871794872,1099.5833333333333,104.47676282051282,1102,104.47307692307692C1104.4166666666667,104.46939102564102,1106.8333333333333,104.46570512820513,1109.25,104.46201923076923C1111.6666666666667,104.45833333333333,1114.0833333333333,104.45464743589744,1116.5,104.45096153846154C1118.9166666666667,104.44727564102564,1121.3333333333333,104.44358974358974,1123.75,104.43990384615384C1126.1666666666667,104.43621794871794,1128.5833333333333,104.43253205128205,1131,104.42884615384615C1133.4166666666667,104.42516025641025,1135.8333333333333,104.42147435897436,1138.25,104.41778846153846C1140.6666666666667,104.41410256410256,1143.0833333333333,104.41041666666668,1145.5,104.40673076923078C1147.9166666666667,104.40304487179488,1150.3333333333333,104.39935897435898,1152.75,104.39567307692307C1155.1666666666667,104.39198717948717,1157.5833333333333,104.39198717948717,1160,104.38461538461539C1162.4166666666667,104.3772435897436,1164.8333333333333,103.27884615384615,1167.25,102.72596153846153C1169.6666666666667,102.17307692307692,1172.0833333333333,101.6201923076923,1174.5,101.0673076923077C1176.9166666666667,100.51442307692308,1179.3333333333333,99.96153846153847,1181.75,99.40865384615385C1184.1666666666667,98.85576923076924,1186.5833333333333,98.30288461538461,1189,97.75C1191.4166666666667,97.19711538461539,1193.8333333333333,96.64423076923077,1196.25,96.09134615384616C1198.6666666666667,95.53846153846155,1201.0833333333333,94.98557692307692,1203.5,94.4326923076923C1205.9166666666667,93.8798076923077,1208.3333333333333,93.32692307692308,1210.75,92.77403846153847C1213.1666666666667,92.22115384615385,1215.5833333333333,91.66826923076923,1218,91.11538461538461C1220.4166666666667,90.5625,1222.8333333333333,90.00961538461539,1225.25,89.45673076923077C1227.6666666666667,88.90384615384616,1230.0833333333333,88.35096153846153,1232.5,87.79807692307692C1234.9166666666667,87.2451923076923,1237.3333333333333,86.6923076923077,1239.75,86.13942307692308C1242.1666666666667,85.58653846153847,1244.5833333333333,85.03365384615385,1247,84.48076923076924C1249.4166666666667,83.92788461538463,1251.8333333333333,83.375,1254.25,82.82211538461539C1256.6666666666667,82.26923076923077,1259.0833333333333,81.71634615384615,1261.5,81.16346153846153C1263.9166666666667,80.61057692307692,1266.3333333333333,80.0576923076923,1268.75,79.5048076923077C1271.1666666666667,78.95192307692308,1273.5833333333333,78.39903846153847,1276,77.84615384615385C1278.4166666666667,77.29326923076924,1280.8333333333333,76.74038461538461,1283.25,76.1875C1285.6666666666667,75.63461538461539,1288.0833333333333,75.08173076923076,1290.5,74.52884615384615C1292.9166666666667,73.97596153846153,1295.3333333333333,73.42307692307692,1297.75,72.8701923076923C1300.1666666666667,72.3173076923077,1302.5833333333333,71.76442307692308,1305,71.21153846153847C1307.4166666666667,70.65865384615385,1309.8333333333333,70.10576923076923,1312.25,69.55288461538461C1314.6666666666667,69,1317.0833333333333,68.44711538461539,1319.5,67.89423076923077C1321.9166666666667,67.34134615384616,1324.3333333333333,66.78846153846153,1326.75,66.23557692307692C1329.1666666666667,65.6826923076923,1331.5833333333333,65.1298076923077,1334,64.57692307692308C1336.4166666666667,64.02403846153847,1338.8333333333333,63.47115384615386,1341.25,62.91826923076924C1343.6666666666667,62.36538461538462,1346.0833333333333,61.81249999999999,1348.5,61.25961538461537C1350.9166666666667,60.70673076923075,1353.3333333333333,60.153846153846146,1355.75,59.60096153846153C1358.1666666666667,59.04807692307692,1360.5833333333333,58.49519230769231,1363,57.94230769230769C1365.4166666666667,57.38942307692308,1367.8333333333333,56.83653846153847,1370.25,56.283653846153854C1372.6666666666667,55.73076923076924,1375.0833333333333,55.17788461538461,1377.5,54.625C1379.9166666666667,54.07211538461539,1382.3333333333333,53.519230769230774,1384.75,52.96634615384616C1387.1666666666667,52.41346153846155,1389.5833333333333,51.86057692307692,1392,51.30769230769231C1394.4166666666667,50.75480769230769,1396.8333333333333,50.20192307692308,1399.25,49.64903846153847C1401.6666666666667,49.096153846153854,1404.0833333333333,48.543269230769226,1406.5,47.99038461538461C1408.9166666666667,47.4375,1411.3333333333333,46.88461538461539,1413.75,46.331730769230774C1416.1666666666667,45.77884615384616,1418.5833333333333,45.22596153846153,1421,44.67307692307692C1423.4166666666667,44.12019230769231,1425.8333333333333,43.56730769230769,1428.25,43.01442307692308C1430.6666666666667,42.46153846153847,1433.0833333333333,41.908653846153854,1435.5,41.35576923076924C1437.9166666666667,40.80288461538463,1440.3333333333333,40.25,1442.75,39.69711538461539C1445.1666666666667,39.144230769230774,1447.5833333333333,38.59134615384616,1450,38.03846153846155" fill="transparent" stroke-linecap="round" stroke="#E7C6DF" stroke-width="2"></path><g class="visx-group visx-axis visx-axis-bottom" transform="translate(0, 115)"><g class="visx-group visx-axis-tick" transform="translate(0, 0)"><line class="visx-line" x1="0" y1="0" x2="0" y2="8" fill="transparent" shape-rendering="crispEdges" stroke="#000" stroke-width="0" stroke-linecap="square"></line><svg x="0" y="0" font-size="10" style="overflow:visible"><text transform="" x="0" y="18" fill="#000" font-size="10" text-anchor="middle"><tspan x="0" dy="0em">0%</tspan></text></svg></g><g class="visx-group visx-axis-tick" transform="translate(0, 0)"><line class="visx-line" x1="362.5" y1="0" x2="362.5" y2="8" fill="transparent" shape-rendering="crispEdges" stroke="#000" stroke-width="0" stroke-linecap="square"></line><svg x="0" y="0" font-size="10" style="overflow:visible"><text transform="" x="362.5" y="18" fill="#000" font-size="10" text-anchor="middle"><tspan x="362.5" dy="0em">25%</tspan></text></svg></g><g class="visx-group visx-axis-tick" transform="translate(0, 0)"><line class="visx-line" x1="725" y1="0" x2="725" y2="8" fill="transparent" shape-rendering="crispEdges" stroke="#000" stroke-width="0" stroke-linecap="square"></line><svg x="0" y="0" font-size="10" style="overflow:visible"><text transform="" x="725" y="18" fill="#000" font-size="10" text-anchor="middle"><tspan x="725" dy="0em">50%</tspan></text></svg></g><g class="visx-group visx-axis-tick" transform="translate(0, 0)"><line class="visx-line" x1="1087.5" y1="0" x2="1087.5" y2="8" fill="transparent" shape-rendering="crispEdges" stroke="#000" stroke-width="0" stroke-linecap="square"></line><svg x="0" y="0" font-size="10" style="overflow:visible"><text transform="" x="1087.5" y="18" fill="#000" font-size="10" text-anchor="middle"><tspan x="1087.5" dy="0em">75%</tspan></text></svg></g><g class="visx-group visx-axis-tick" transform="translate(0, 0)"><line class="visx-line" x1="1450" y1="0" x2="1450" y2="8" fill="transparent" shape-rendering="crispEdges" stroke="#000" stroke-width="0" stroke-linecap="square"></line><svg x="0" y="0" font-size="10" style="overflow:visible"><text transform="" x="1450" y="18" fill="#000" font-size="10" text-anchor="middle"><tspan x="1450" dy="0em">100%</tspan></text></svg></g><line class="visx-line visx-axis-line" x1="0.5" y1="0" x2="1450.5" y2="0" fill="transparent" shape-rendering="crispEdges" stroke="#222" stroke-width="0"></line></g><g class="visx-group visx-axis visx-axis-left" transform="translate(0, 0)"><g class="visx-group visx-axis-tick" transform="translate(0, 0)"><line class="visx-line" x1="0" y1="115" x2="-8" y2="115" fill="transparent" shape-rendering="crispEdges" stroke="#222" stroke-width="0" stroke-linecap="square"></line><svg x="-30" y="0" font-size="8" style="overflow:visible"><text transform="" x="-8" y="115" fill="#000" font-size="8" text-anchor="start"><tspan x="-8" dy="0em">0%</tspan></text></svg></g><g class="visx-group visx-axis-tick" transform="translate(0, 0)"><line class="visx-line" x1="0" y1="70.76923076923077" x2="-8" y2="70.76923076923077" fill="transparent" shape-rendering="crispEdges" stroke="#222" stroke-width="0" stroke-linecap="square"></line><svg x="-30" y="0" font-size="8" style="overflow:visible"><text transform="" x="-8" y="70.76923076923077" fill="#000" font-size="8" text-anchor="start"><tspan x="-8" dy="0em">50%</tspan></text></svg></g><g class="visx-group visx-axis-tick" transform="translate(0, 0)"><line class="visx-line" x1="0" y1="26.538461538461533" x2="-8" y2="26.538461538461533" fill="transparent" shape-rendering="crispEdges" stroke="#222" stroke-width="0" stroke-linecap="square"></line><svg x="-30" y="0" font-size="8" style="overflow:visible"><text transform="" x="-8" y="26.538461538461533" fill="#000" font-size="8" text-anchor="start"><tspan x="-8" dy="0em">100%</tspan></text></svg></g><line class="visx-line visx-axis-line" x1="0" y1="115.5" x2="0" y2="0.5" fill="transparent" shape-rendering="crispEdges" stroke="#222" stroke-width="0"></line></g><rect class="visx-bar" width="1450" height="115" fill="transparent"></rect><line class="visx-line" x1="1160" y1="28" x2="1160" y2="115" fill="transparent" shape-rendering="crispEdges" stroke="#0062D2" stroke-width="1" pointer-events="none" stroke-dasharray="5,2"></line><svg x="0" y="0" font-size="10px" style="overflow:visible"><text transform="" x="1160" y="20" font-size="10px" fill="#fff" stroke="#fff" stroke-width="0.8em" text-anchor="middle"><tspan x="1160" dy="0.355em">Optimal 80%</tspan></text></svg><svg x="0" y="0" font-size="10px" style="overflow:visible"><text transform="" x="1160" y="20" font-size="10px" fill="#62677B" text-anchor="middle"><tspan x="1160" dy="0.355em">Optimal 80%</tspan></text></svg></g></svg>