<?xml version="1.0"?><svg xmlns="http://www.w3.org/2000/svg" xmlns:xlink= "http://www.w3.org/1999/xlink" style="background: white;" width="1500" height="300"> <g style="color: black; font-size: 13px; font-family: sans-serif; transform: translate(18px, 25px);"><g><circle r="3" cx="-6" cy="-5" style="fill: #1AD4B3" /><text>Borrow APR, variable</text></g><g style="transform: translateX(150px);"><circle r="3" cx="-6" cy="-5" style="fill: #101423" /><text>Borrow APR, stable</text></g></g><g class="visx-group" transform="translate(45, 50)"><g class="visx-group visx-rows" transform="translate(0, 0)"><line class="visx-line" x1="0" y1="155" x2="1425" y2="155" fill="transparent" shape-rendering="crispEdges" stroke="#F2F0F9" stroke-width="1" pointer-events="none"></line><line class="visx-line" x1="0" y1="116.25" x2="1425" y2="116.25" fill="transparent" shape-rendering="crispEdges" stroke="#F2F0F9" stroke-width="1" pointer-events="none"></line><line class="visx-line" x1="0" y1="77.5" x2="1425" y2="77.5" fill="transparent" shape-rendering="crispEdges" stroke="#F2F0F9" stroke-width="1" pointer-events="none"></line><line class="visx-line" x1="0" y1="38.75" x2="1425" y2="38.75" fill="transparent" shape-rendering="crispEdges" stroke="#F2F0F9" stroke-width="1" pointer-events="none"></line><line class="visx-line" x1="0" y1="0" x2="1425" y2="0" fill="transparent" shape-rendering="crispEdges" stroke="#F2F0F9" stroke-width="1" pointer-events="none"></line></g><path class="visx-linepath" d="M0,154.99999999980625C2.375,154.96770833322032,4.75,154.93541666663435,7.125,154.903125C9.5,154.87083333336562,11.875,154.83854166666669,14.25,154.80625C16.625,154.77395833333333,19,154.74166666666667,21.375,154.709375C23.75,154.67708333333331,26.125,154.64479166666666,28.5,154.6125C30.875,154.58020833333336,33.25,154.54791666666668,35.625,154.515625C38,154.48333333333332,40.375,154.45104166666664,42.75,154.41875C45.125,154.3864583333333,47.50000000000001,154.35416666666669,49.87500000000001,154.321875C52.25000000000001,154.28958333333335,54.625,154.25729166666665,57,154.225C59.375,154.19270833333331,61.75,154.16041666666666,64.125,154.128125C66.5,154.09583333333336,68.875,154.06354166666665,71.25,154.03125C73.625,153.99895833333335,76,153.9666666666667,78.375,153.93437500000002C80.75,153.90208333333334,83.125,153.86979166666669,85.5,153.8375C87.875,153.80520833333333,90.25,153.77291666666667,92.625,153.740625C95,153.70833333333331,97.37500000000001,153.67604166666666,99.75000000000001,153.64374999999998C102.12500000000001,153.61145833333333,104.5,153.57916666666665,106.875,153.546875C109.25,153.51458333333332,111.625,153.48229166666664,114,153.45C116.375,153.4177083333333,118.75000000000001,153.38541666666669,121.12500000000001,153.353125C123.50000000000001,153.32083333333335,125.875,153.28854166666665,128.25,153.25625C130.625,153.22395833333331,133,153.19166666666666,135.375,153.159375C137.75,153.12708333333336,140.125,153.09479166666668,142.5,153.0625C144.875,153.03020833333332,147.25,152.99791666666664,149.625,152.965625C152,152.93333333333334,154.375,152.90104166666669,156.75,152.86875C159.125,152.83645833333333,161.5,152.80416666666667,163.875,152.771875C166.25,152.73958333333331,168.625,152.70729166666666,171,152.675C173.375,152.64270833333336,175.75,152.61041666666668,178.125,152.578125C180.5,152.54583333333332,182.875,152.51354166666664,185.25,152.48125C187.625,152.44895833333334,190,152.41666666666666,192.375,152.384375C194.75,152.35208333333333,197.12500000000003,152.31979166666667,199.50000000000003,152.2875C201.875,152.25520833333334,204.25,152.22291666666666,206.62499999999997,152.190625C208.99999999999997,152.15833333333333,211.375,152.12604166666668,213.75,152.09375C216.125,152.06145833333332,218.5,152.02916666666664,220.875,151.996875C223.25,151.96458333333334,225.625,151.93229166666669,228,151.9C230.375,151.86770833333333,232.75,151.83541666666665,235.125,151.803125C237.5,151.77083333333331,239.87500000000003,151.7385416666667,242.25000000000003,151.70625C244.625,151.67395833333336,247,151.64166666666665,249.37499999999997,151.609375C251.74999999999997,151.57708333333332,254.125,151.5447916666667,256.5,151.51250000000002C258.875,151.48020833333337,261.25,151.44791666666669,263.625,151.415625C266,151.38333333333333,268.375,151.35104166666667,270.75,151.31875C273.125,151.28645833333331,275.5,151.25416666666666,277.875,151.22187499999998C280.25,151.1895833333333,282.625,151.15729166666665,285,151.125C287.375,151.09270833333335,289.75,151.06041666666664,292.125,151.028125C294.5,150.99583333333334,296.875,150.96354166666669,299.25,150.93125C301.625,150.89895833333333,304,150.86666666666667,306.375,150.834375C308.75,150.80208333333331,311.125,150.76979166666666,313.5,150.7375C315.875,150.70520833333336,318.25,150.67291666666668,320.625,150.640625C323,150.60833333333332,325.375,150.57604166666664,327.75,150.54375C330.125,150.51145833333334,332.5,150.47916666666669,334.875,150.446875C337.25,150.41458333333333,339.625,150.38229166666667,342,150.35C344.375,150.31770833333331,346.75,150.28541666666666,349.125,150.253125C351.5,150.22083333333336,353.875,150.18854166666668,356.25,150.15625C358.625,150.12395833333332,361,150.09166666666664,363.375,150.059375C365.75,150.02708333333334,368.125,149.99479166666669,370.5,149.9625C372.875,149.93020833333333,375.25,149.89791666666667,377.625,149.865625C380,149.83333333333331,382.375,149.80104166666666,384.75,149.76875C387.125,149.73645833333333,389.50000000000006,149.70416666666668,391.87500000000006,149.671875C394.25000000000006,149.63958333333332,396.62500000000006,149.60729166666667,399.00000000000006,149.575C401.375,149.54270833333334,403.75,149.51041666666666,406.12499999999994,149.478125C408.49999999999994,149.44583333333333,410.87499999999994,149.41354166666665,413.24999999999994,149.38125C415.62499999999994,149.34895833333331,418,149.3166666666667,420.375,149.284375C422.75,149.25208333333336,425.125,149.21979166666665,427.5,149.1875C429.875,149.15520833333335,432.25,149.1229166666667,434.625,149.09062500000002C437,149.05833333333334,439.375,149.02604166666669,441.75,148.99375C444.125,148.96145833333333,446.5,148.92916666666667,448.875,148.896875C451.25,148.86458333333331,453.625,148.83229166666666,456,148.79999999999998C458.375,148.7677083333333,460.75,148.73541666666665,463.125,148.703125C465.5,148.67083333333335,467.875,148.63854166666664,470.25,148.60625C472.625,148.5739583333333,475.00000000000006,148.54166666666669,477.37500000000006,148.509375C479.75000000000006,148.47708333333335,482.12500000000006,148.44479166666667,484.50000000000006,148.4125C486.875,148.38020833333334,489.25,148.34791666666666,491.62499999999994,148.315625C493.99999999999994,148.28333333333333,496.37499999999994,148.25104166666668,498.74999999999994,148.21875C501.12499999999994,148.18645833333332,503.5,148.15416666666667,505.875,148.121875C508.25,148.08958333333334,510.625,148.05729166666669,513,148.025C515.375,147.99270833333333,517.75,147.96041666666667,520.125,147.928125C522.5,147.89583333333331,524.875,147.86354166666666,527.25,147.83125C529.625,147.79895833333336,532,147.76666666666668,534.375,147.734375C536.75,147.70208333333332,539.125,147.66979166666664,541.5,147.6375C543.875,147.60520833333334,546.25,147.57291666666669,548.625,147.540625C551,147.50833333333333,553.375,147.47604166666667,555.75,147.44375C558.125,147.41145833333331,560.5,147.37916666666666,562.875,147.346875C565.25,147.31458333333336,567.625,147.28229166666668,570,147.25C572.375,147.21770833333332,574.75,147.18541666666664,577.125,147.153125C579.5,147.12083333333334,581.875,147.08854166666669,584.25,147.05625C586.625,147.02395833333333,589,146.99166666666667,591.375,146.959375C593.75,146.92708333333331,596.125,146.89479166666666,598.5,146.8625C600.875,146.83020833333336,603.25,146.79791666666665,605.625,146.765625C608,146.73333333333335,610.375,146.7010416666667,612.75,146.66875000000002C615.125,146.63645833333334,617.5,146.60416666666669,619.875,146.571875C622.25,146.53958333333333,624.625,146.5072916666667,627,146.47500000000002C629.375,146.44270833333334,631.75,146.41041666666666,634.125,146.37812499999998C636.5,146.3458333333333,638.875,146.31354166666665,641.25,146.28125C643.625,146.24895833333335,646,146.21666666666664,648.375,146.184375C650.75,146.15208333333334,653.125,146.11979166666669,655.5,146.0875C657.875,146.05520833333333,660.25,146.02291666666667,662.625,145.990625C665,145.95833333333331,667.375,145.92604166666666,669.75,145.89375C672.125,145.86145833333336,674.5,145.82916666666668,676.875,145.796875C679.25,145.76458333333332,681.625,145.73229166666664,684,145.7C686.375,145.66770833333334,688.75,145.63541666666669,691.125,145.603125C693.5,145.57083333333333,695.875,145.53854166666667,698.25,145.50625C700.625,145.47395833333331,703,145.44166666666666,705.375,145.409375C707.75,145.37708333333336,710.125,145.34479166666668,712.5,145.3125C714.875,145.28020833333332,717.25,145.24791666666664,719.625,145.215625C722,145.18333333333334,724.375,145.15104166666669,726.75,145.11875C729.125,145.08645833333333,731.5,145.05416666666667,733.875,145.021875C736.25,144.98958333333331,738.625,144.95729166666666,741,144.925C743.375,144.89270833333336,745.75,144.86041666666668,748.125,144.828125C750.5,144.79583333333332,752.875,144.76354166666664,755.25,144.73125C757.625,144.69895833333334,760,144.66666666666669,762.375,144.634375C764.75,144.60208333333333,767.125,144.56979166666665,769.5,144.5375C771.875,144.50520833333331,774.2500000000001,144.4729166666667,776.6250000000001,144.440625C779.0000000000001,144.40833333333336,781.3750000000001,144.37604166666665,783.7500000000001,144.34375C786.1250000000001,144.31145833333335,788.5000000000001,144.2791666666667,790.8750000000001,144.24687500000002C793.2500000000001,144.21458333333334,795.6250000000001,144.18229166666666,798.0000000000001,144.14999999999998C800.375,144.1177083333333,802.75,144.08541666666665,805.1249999999999,144.053125C807.4999999999999,144.02083333333331,809.8749999999999,143.98854166666666,812.2499999999999,143.95624999999998C814.6249999999999,143.9239583333333,816.9999999999999,143.89166666666665,819.3749999999999,143.859375C821.7499999999999,143.82708333333335,824.1249999999999,143.79479166666664,826.4999999999999,143.7625C828.8749999999999,143.7302083333333,831.25,143.69791666666669,833.625,143.665625C836,143.63333333333335,838.375,143.60104166666667,840.75,143.56875C843.125,143.53645833333331,845.5,143.50416666666666,847.875,143.471875C850.25,143.43958333333336,852.625,143.40729166666668,855,143.375C857.375,143.34270833333332,859.75,143.31041666666664,862.125,143.278125C864.5,143.24583333333334,866.875,143.21354166666669,869.25,143.18125C871.625,143.14895833333333,874,143.11666666666667,876.375,143.084375C878.75,143.05208333333331,881.125,143.01979166666666,883.5,142.9875C885.875,142.95520833333336,888.25,142.92291666666668,890.625,142.890625C893,142.85833333333332,895.375,142.82604166666664,897.75,142.79375C900.125,142.76145833333334,902.5,142.72916666666669,904.875,142.696875C907.25,142.66458333333333,909.625,142.63229166666667,912,142.6C914.375,142.56770833333331,916.75,142.53541666666666,919.125,142.503125C921.5,142.47083333333336,923.875,142.43854166666668,926.25,142.40625C928.625,142.37395833333332,931,142.34166666666664,933.375,142.309375C935.75,142.27708333333334,938.125,142.24479166666669,940.5,142.2125C942.875,142.18020833333333,945.25,142.14791666666665,947.625,142.115625C950,142.08333333333331,952.3750000000001,142.0510416666667,954.7500000000001,142.01875C957.1250000000001,141.98645833333336,959.5000000000001,141.95416666666665,961.8750000000001,141.921875C964.2500000000001,141.88958333333335,966.6250000000001,141.8572916666667,969.0000000000001,141.82500000000002C971.3750000000001,141.79270833333334,973.7500000000001,141.76041666666666,976.1250000000001,141.72812499999998C978.5,141.6958333333333,980.875,141.66354166666665,983.2499999999999,141.63125C985.6249999999999,141.59895833333331,987.9999999999999,141.56666666666666,990.3749999999999,141.53437499999998C992.7499999999999,141.5020833333333,995.1249999999999,141.46979166666665,997.4999999999999,141.4375C999.8749999999999,141.40520833333335,1002.2499999999999,141.37291666666664,1004.6249999999999,141.340625C1006.9999999999999,141.3083333333333,1009.375,141.27604166666669,1011.75,141.24375C1014.125,141.21145833333335,1016.5,141.17916666666667,1018.875,141.146875C1021.25,141.11458333333331,1023.625,141.08229166666666,1026,141.05C1028.375,141.01770833333336,1030.75,140.98541666666668,1033.125,140.953125C1035.5,140.92083333333332,1037.875,140.88854166666664,1040.25,140.85625C1042.625,140.82395833333334,1045,140.79166666666669,1047.375,140.759375C1049.75,140.72708333333333,1052.125,140.69479166666667,1054.5,140.6625C1056.875,140.63020833333331,1059.25,140.59791666666666,1061.625,140.565625C1064,140.53333333333336,1066.375,140.50104166666668,1068.75,140.46875C1071.125,140.43645833333332,1073.5,140.40416666666664,1075.875,140.371875C1078.25,140.33958333333334,1080.625,140.30729166666669,1083,140.275C1085.375,140.24270833333333,1087.75,140.21041666666667,1090.125,140.178125C1092.5,140.14583333333331,1094.875,140.11354166666666,1097.25,140.08125C1099.625,140.04895833333336,1102,140.01666666666668,1104.375,139.984375C1106.75,139.95208333333332,1109.125,139.91979166666664,1111.5,139.8875C1113.875,139.85520833333334,1116.25,139.82291666666669,1118.625,139.790625C1121,139.75833333333333,1123.375,139.72604166666667,1125.75,139.69375C1128.125,139.66145833333331,1130.5,139.62916666666666,1132.875,139.596875C1135.25,139.56458333333336,1137.625,139.53229166666665,1140,139.5C1142.375,139.46770833333335,1144.75,139.4354166666667,1147.125,139.40312500000002C1149.5,139.37083333333334,1151.875,139.33854166666669,1154.25,139.30625C1156.625,139.27395833333333,1159,139.24166666666667,1161.375,139.209375C1163.75,139.17708333333331,1166.125,139.14479166666666,1168.5,139.11249999999998C1170.875,139.0802083333333,1173.25,139.04791666666665,1175.625,139.015625C1178,138.98333333333335,1180.375,138.95104166666664,1182.75,138.91875C1185.125,138.88645833333334,1187.5,138.85416666666669,1189.875,138.821875C1192.25,138.78958333333333,1194.625,138.75729166666667,1197,138.725C1199.375,138.69270833333331,1201.75,138.66041666666666,1204.125,138.628125C1206.5,138.59583333333336,1208.875,138.56354166666668,1211.25,138.53125C1213.625,138.49895833333332,1216,138.46666666666664,1218.375,138.434375C1220.75,138.40208333333334,1223.125,138.36979166666669,1225.5,138.3375C1227.875,138.30520833333333,1230.25,138.27291666666667,1232.625,138.240625C1235,138.20833333333331,1237.375,138.17604166666666,1239.75,138.14375C1242.125,138.11145833333336,1244.5,138.07916666666668,1246.875,138.046875C1249.25,138.01458333333332,1251.625,137.98229166666664,1254,137.95C1256.375,137.91770833333334,1258.75,137.88541666666669,1261.125,137.853125C1263.5,137.82083333333333,1265.875,137.78854166666667,1268.25,137.75625C1270.625,137.72395833333331,1273,137.69166666666666,1275.375,137.659375C1277.75,137.62708333333336,1280.125,137.62708333333333,1282.5,137.5625C1284.875,137.49791666666667,1287.25,133.6875,1289.625,131.75C1292,129.8125,1294.375,127.875,1296.75,125.9375C1299.125,124,1301.5,122.0625,1303.875,120.125C1306.25,118.1875,1308.625,116.25,1311,114.3125C1313.375,112.375,1315.75,110.4375,1318.125,108.5C1320.5,106.5625,1322.875,104.625,1325.25,102.6875C1327.625,100.75,1330,98.8125,1332.375,96.875C1334.75,94.9375,1337.125,93,1339.5,91.0625C1341.875,89.125,1344.25,87.1875,1346.625,85.25C1349,83.3125,1351.375,81.375,1353.75,79.4375C1356.125,77.5,1358.5,75.5625,1360.875,73.625C1363.25,71.6875,1365.625,69.75,1368,67.8125C1370.375,65.875,1372.75,63.9375,1375.125,62C1377.5,60.0625,1379.875,58.12500000000001,1382.25,56.18750000000001C1384.625,54.25000000000001,1387,52.31249999999999,1389.375,50.37499999999999C1391.75,48.43749999999999,1394.125,46.500000000000014,1396.5,44.562500000000014C1398.875,42.625000000000014,1401.25,40.6875,1403.625,38.75C1406,36.8125,1408.375,34.875,1410.75,32.9375C1413.125,31,1415.5,29.062500000000007,1417.875,27.125000000000007C1420.25,25.187500000000007,1422.625,23.25,1425,21.312499999999993" fill="transparent" stroke-linecap="round" stroke="#1AD4B3" stroke-width="2"></path><g class="visx-group visx-axis visx-axis-bottom" transform="translate(0, 155)"><g class="visx-group visx-axis-tick" transform="translate(0, 0)"><line class="visx-line" x1="0" y1="0" x2="0" y2="8" fill="transparent" shape-rendering="crispEdges" stroke="#F2F0F9" stroke-width="1" stroke-linecap="square"></line><svg x="0" y="0" font-size="11" style="overflow:visible"><text transform="" x="0" y="19" fill="#1B2030" font-size="11" text-anchor="middle"><tspan x="0" dy="0em">0%</tspan></text></svg></g><g class="visx-group visx-axis-tick" transform="translate(0, 0)"><line class="visx-line" x1="356.25" y1="0" x2="356.25" y2="8" fill="transparent" shape-rendering="crispEdges" stroke="#F2F0F9" stroke-width="1" stroke-linecap="square"></line><svg x="0" y="0" font-size="11" style="overflow:visible"><text transform="" x="356.25" y="19" fill="#1B2030" font-size="11" text-anchor="middle"><tspan x="356.25" dy="0em">25%</tspan></text></svg></g><g class="visx-group visx-axis-tick" transform="translate(0, 0)"><line class="visx-line" x1="712.5" y1="0" x2="712.5" y2="8" fill="transparent" shape-rendering="crispEdges" stroke="#F2F0F9" stroke-width="1" stroke-linecap="square"></line><svg x="0" y="0" font-size="11" style="overflow:visible"><text transform="" x="712.5" y="19" fill="#1B2030" font-size="11" text-anchor="middle"><tspan x="712.5" dy="0em">50%</tspan></text></svg></g><g class="visx-group visx-axis-tick" transform="translate(0, 0)"><line class="visx-line" x1="1068.75" y1="0" x2="1068.75" y2="8" fill="transparent" shape-rendering="crispEdges" stroke="#F2F0F9" stroke-width="1" stroke-linecap="square"></line><svg x="0" y="0" font-size="11" style="overflow:visible"><text transform="" x="1068.75" y="19" fill="#1B2030" font-size="11" text-anchor="middle"><tspan x="1068.75" dy="0em">75%</tspan></text></svg></g><g class="visx-group visx-axis-tick" transform="translate(0, 0)"><line class="visx-line" x1="1425" y1="0" x2="1425" y2="8" fill="transparent" shape-rendering="crispEdges" stroke="#F2F0F9" stroke-width="1" stroke-linecap="square"></line><svg x="0" y="0" font-size="11" style="overflow:visible"><text transform="" x="1425" y="19" fill="#1B2030" font-size="11" text-anchor="middle"><tspan x="1425" dy="0em">100%</tspan></text></svg></g></g><g class="visx-group visx-axis visx-axis-left" transform="translate(0, 0)"><g class="visx-group visx-axis-tick" transform="translate(0, 0)"><line class="visx-line" x1="0" y1="155" x2="-8" y2="155" fill="transparent" shape-rendering="crispEdges" stroke="#F2F0F9" stroke-width="1" stroke-linecap="square"></line><svg x="-30" y="0" font-size="11" style="overflow:visible"><text transform="" x="-8" y="155" fill="#1B2030" font-size="11" text-anchor="start"><tspan x="-8" dy="0em">0%</tspan></text></svg></g><g class="visx-group visx-axis-tick" transform="translate(0, 0)"><line class="visx-line" x1="0" y1="116.25" x2="-8" y2="116.25" fill="transparent" shape-rendering="crispEdges" stroke="#F2F0F9" stroke-width="1" stroke-linecap="square"></line><svg x="-30" y="0" font-size="11" style="overflow:visible"><text transform="" x="-8" y="116.25" fill="#1B2030" font-size="11" text-anchor="start"><tspan x="-8" dy="0em">20%</tspan></text></svg></g><g class="visx-group visx-axis-tick" transform="translate(0, 0)"><line class="visx-line" x1="0" y1="77.5" x2="-8" y2="77.5" fill="transparent" shape-rendering="crispEdges" stroke="#F2F0F9" stroke-width="1" stroke-linecap="square"></line><svg x="-30" y="0" font-size="11" style="overflow:visible"><text transform="" x="-8" y="77.5" fill="#1B2030" font-size="11" text-anchor="start"><tspan x="-8" dy="0em">40%</tspan></text></svg></g><g class="visx-group visx-axis-tick" transform="translate(0, 0)"><line class="visx-line" x1="0" y1="38.75" x2="-8" y2="38.75" fill="transparent" shape-rendering="crispEdges" stroke="#F2F0F9" stroke-width="1" stroke-linecap="square"></line><svg x="-30" y="0" font-size="11" style="overflow:visible"><text transform="" x="-8" y="38.75" fill="#1B2030" font-size="11" text-anchor="start"><tspan x="-8" dy="0em">60%</tspan></text></svg></g><g class="visx-group visx-axis-tick" transform="translate(0, 0)"><line class="visx-line" x1="0" y1="0" x2="-8" y2="0" fill="transparent" shape-rendering="crispEdges" stroke="#F2F0F9" stroke-width="1" stroke-linecap="square"></line><svg x="-30" y="0" font-size="11" style="overflow:visible"><text transform="" x="-8" y="0" fill="#1B2030" font-size="11" text-anchor="start"><tspan x="-8" dy="0em">80%</tspan></text></svg></g><line class="visx-line visx-axis-line" x1="0" y1="155.5" x2="0" y2="0.5" fill="transparent" shape-rendering="crispEdges" stroke="#F2F0F9" stroke-width="1"></line></g><rect class="visx-bar" width="1425" height="155" fill="transparent"></rect><line class="visx-line" x1="1282.5" y1="58" x2="1282.5" y2="155" fill="transparent" shape-rendering="crispEdges" stroke="#CDC8E1" stroke-width="1" pointer-events="none" stroke-dasharray="5"></line><svg x="0" y="0" font-size="11px" style="overflow:visible"><text transform="" x="1282.5" y="50" font-size="11px" fill="#555069" stroke="#FFFFFF" stroke-width="1px" text-anchor="middle"><tspan x="1282.5" dy="0.355em">Optimal utilization 90%</tspan></text></svg><svg x="0" y="0" font-size="11px" style="overflow:visible"><text transform="" x="1282.5" y="50" font-size="11px" fill="#CDC8E1" text-anchor="middle"><tspan x="1282.5" dy="0.355em">Optimal utilization 90%</tspan></text></svg></g></svg>