<?xml version="1.0"?><svg xmlns="http://www.w3.org/2000/svg" xmlns:xlink= "http://www.w3.org/1999/xlink" style="background: white;" width="1500" height="185"> <g style="color: black; font-size: 13px; font-family: sans-serif; transform: translate(18px, 25px);"><g><circle r="3" cx="-6" cy="-5" style="fill: #B6509E" /><text>Borrow APR, variable</text></g><g style="transform: translateX(150px);"><circle r="3" cx="-6" cy="-5" style="fill: rgb(231, 198, 223)" /><text>Borrow APR, stable</text></g><g style="transform: translateX(290px);"><circle r="3" cx="-6" cy="-5" style="fill: rgb(0, 98, 210)" /><text>Utilization Rate</text></g></g><g class="visx-group" transform="translate(40, 50)"><g class="visx-group visx-rows" transform="translate(0, 0)"><line class="visx-line" x1="0" y1="115" x2="1450" y2="115" fill="transparent" shape-rendering="crispEdges" stroke="#000" stroke-width="1" stroke-dasharray="3,3" pointer-events="none"></line><line class="visx-line" x1="0" y1="57.5" x2="1450" y2="57.5" fill="transparent" shape-rendering="crispEdges" stroke="#000" stroke-width="1" stroke-dasharray="3,3" pointer-events="none"></line><line class="visx-line" x1="0" y1="0" x2="1450" y2="0" fill="transparent" shape-rendering="crispEdges" stroke="#000" stroke-width="1" stroke-dasharray="3,3" pointer-events="none"></line></g><path class="visx-linepath" d="M0,114.99999999995782C2.4166666666666665,114.99297222219762,4.833333333333334,114.98594444443741,7.25,114.97891666666666C9.666666666666666,114.97188888889592,12.083333333333334,114.96486111111112,14.5,114.95783333333334C16.916666666666668,114.95080555555556,19.333333333333332,114.94377777777777,21.75,114.93674999999999C24.166666666666668,114.92972222222221,26.583333333333332,114.92269444444445,29,114.91566666666667C31.416666666666668,114.90863888888889,33.833333333333336,114.90161111111111,36.25,114.89458333333333C38.666666666666664,114.88755555555555,41.083333333333336,114.88052777777779,43.5,114.8735C45.91666666666667,114.86647222222223,48.333333333333336,114.85944444444445,50.75000000000001,114.85241666666667C53.16666666666667,114.84538888888889,55.583333333333336,114.83836111111111,58,114.83133333333333C60.416666666666664,114.82430555555555,62.833333333333336,114.81727777777778,65.25,114.81025C67.66666666666667,114.80322222222222,70.08333333333333,114.79619444444444,72.5,114.78916666666666C74.91666666666667,114.78213888888888,77.33333333333333,114.77511111111112,79.75,114.76808333333334C82.16666666666667,114.76105555555556,84.58333333333333,114.75402777777778,87,114.747C89.41666666666667,114.73997222222222,91.83333333333333,114.73294444444446,94.25,114.72591666666668C96.66666666666667,114.7188888888889,99.08333333333334,114.7118611111111,101.50000000000001,114.70483333333333C103.91666666666667,114.69780555555555,106.33333333333334,114.69077777777778,108.75,114.68375C111.16666666666667,114.67672222222222,113.58333333333333,114.66969444444445,116,114.66266666666667C118.41666666666667,114.65563888888889,120.83333333333334,114.64861111111111,123.25000000000001,114.64158333333333C125.66666666666667,114.63455555555555,128.08333333333334,114.62752777777779,130.5,114.6205C132.91666666666666,114.61347222222223,135.33333333333334,114.60644444444445,137.75,114.59941666666667C140.16666666666666,114.59238888888889,142.58333333333334,114.58536111111111,145,114.57833333333333C147.41666666666666,114.57130555555555,149.83333333333334,114.56427777777778,152.25,114.55725C154.66666666666666,114.55022222222222,157.08333333333334,114.54319444444445,159.5,114.53616666666667C161.91666666666666,114.5291388888889,164.33333333333334,114.52211111111112,166.75,114.51508333333334C169.16666666666666,114.50805555555556,171.58333333333334,114.50102777777778,174,114.494C176.41666666666666,114.48697222222222,178.83333333333334,114.47994444444444,181.25,114.47291666666666C183.66666666666666,114.46588888888888,186.08333333333334,114.4588611111111,188.5,114.45183333333333C190.91666666666666,114.44480555555555,193.33333333333334,114.43777777777778,195.75,114.43075C198.16666666666669,114.42372222222222,200.58333333333334,114.41669444444445,203.00000000000003,114.40966666666667C205.41666666666669,114.40263888888889,207.83333333333331,114.39561111111112,210.24999999999997,114.38858333333334C212.66666666666666,114.38155555555556,215.08333333333331,114.37452777777779,217.5,114.3675C219.91666666666666,114.36047222222223,222.33333333333334,114.35344444444443,224.75,114.34641666666666C227.16666666666666,114.33938888888888,229.58333333333334,114.33236111111111,232,114.32533333333333C234.41666666666666,114.31830555555555,236.83333333333334,114.31127777777778,239.25,114.30425C241.66666666666669,114.29722222222222,244.08333333333334,114.29019444444445,246.50000000000003,114.28316666666667C248.91666666666669,114.2761388888889,251.33333333333331,114.26911111111112,253.74999999999997,114.26208333333334C256.16666666666663,114.25505555555556,258.5833333333333,114.24802777777778,261,114.241C263.4166666666667,114.23397222222222,265.8333333333333,114.22694444444444,268.25,114.21991666666666C270.6666666666667,114.21288888888888,273.0833333333333,114.2058611111111,275.5,114.19883333333333C277.9166666666667,114.19180555555555,280.3333333333333,114.18477777777778,282.75,114.17775C285.1666666666667,114.17072222222222,287.5833333333333,114.16369444444445,290,114.15666666666667C292.4166666666667,114.14963888888889,294.8333333333333,114.14261111111112,297.25,114.13558333333334C299.6666666666667,114.12855555555556,302.0833333333333,114.12152777777777,304.5,114.11449999999999C306.9166666666667,114.10747222222221,309.3333333333333,114.10044444444445,311.75,114.09341666666667C314.1666666666667,114.08638888888889,316.5833333333333,114.07936111111111,319,114.07233333333333C321.4166666666667,114.06530555555555,323.8333333333333,114.05827777777777,326.25,114.05125C328.6666666666667,114.04422222222222,331.0833333333333,114.03719444444445,333.5,114.03016666666667C335.9166666666667,114.0231388888889,338.3333333333333,114.0161111111111,340.75,114.00908333333332C343.1666666666667,114.00205555555554,345.5833333333333,113.99502777777778,348,113.988C350.4166666666667,113.98097222222222,352.8333333333333,113.97394444444444,355.25,113.96691666666666C357.6666666666667,113.95988888888888,360.0833333333333,113.95286111111112,362.5,113.94583333333334C364.9166666666667,113.93880555555556,367.3333333333333,113.93177777777778,369.75,113.92475C372.1666666666667,113.91772222222222,374.5833333333333,113.91069444444445,377,113.90366666666667C379.4166666666667,113.89663888888889,381.8333333333333,113.88961111111111,384.25,113.88258333333333C386.6666666666667,113.87555555555555,389.0833333333333,113.86852777777777,391.5,113.86149999999999C393.9166666666667,113.85447222222221,396.33333333333337,113.84744444444445,398.75000000000006,113.84041666666667C401.16666666666674,113.83338888888889,403.58333333333337,113.82636111111111,406.00000000000006,113.81933333333333C408.4166666666667,113.81230555555555,410.8333333333333,113.80527777777779,413.24999999999994,113.79825000000001C415.66666666666663,113.79122222222223,418.08333333333326,113.78419444444444,420.49999999999994,113.77716666666666C422.91666666666663,113.77013888888888,425.3333333333333,113.76311111111112,427.75,113.75608333333334C430.1666666666667,113.74905555555556,432.5833333333333,113.74202777777778,435,113.735C437.4166666666667,113.72797222222222,439.8333333333333,113.72094444444444,442.25,113.71391666666666C444.6666666666667,113.70688888888888,447.0833333333333,113.69986111111112,449.5,113.69283333333334C451.9166666666667,113.68580555555556,454.3333333333333,113.67877777777778,456.75,113.67175C459.1666666666667,113.66472222222222,461.5833333333333,113.65769444444445,464,113.65066666666667C466.4166666666667,113.64363888888889,468.8333333333333,113.63661111111111,471.25,113.62958333333333C473.6666666666667,113.62255555555555,476.0833333333333,113.61552777777779,478.5,113.6085C480.9166666666667,113.60147222222223,483.33333333333337,113.59444444444445,485.75000000000006,113.58741666666667C488.16666666666674,113.58038888888889,490.58333333333337,113.57336111111111,493.00000000000006,113.56633333333333C495.4166666666667,113.55930555555555,497.8333333333333,113.55227777777777,500.24999999999994,113.54525C502.66666666666663,113.53822222222222,505.08333333333326,113.53119444444444,507.49999999999994,113.52416666666666C509.91666666666663,113.51713888888888,512.3333333333333,113.51011111111112,514.75,113.50308333333334C517.1666666666666,113.49605555555556,519.5833333333334,113.48902777777778,522,113.482C524.4166666666666,113.47497222222222,526.8333333333334,113.46794444444446,529.25,113.46091666666668C531.6666666666666,113.4538888888889,534.0833333333334,113.44686111111112,536.5,113.43983333333334C538.9166666666666,113.43280555555556,541.3333333333334,113.42577777777777,543.75,113.41874999999999C546.1666666666666,113.41172222222221,548.5833333333334,113.40469444444444,551,113.39766666666667C553.4166666666666,113.39063888888889,555.8333333333334,113.38361111111111,558.25,113.37658333333333C560.6666666666666,113.36955555555555,563.0833333333334,113.36252777777779,565.5,113.3555C567.9166666666666,113.34847222222223,570.3333333333334,113.34144444444445,572.75,113.33441666666667C575.1666666666666,113.32738888888889,577.5833333333334,113.32036111111111,580,113.31333333333333C582.4166666666666,113.30630555555555,584.8333333333334,113.29927777777777,587.25,113.29225C589.6666666666666,113.28522222222222,592.0833333333334,113.27819444444444,594.5,113.27116666666666C596.9166666666666,113.26413888888888,599.3333333333334,113.25711111111112,601.75,113.25008333333334C604.1666666666666,113.24305555555556,606.5833333333334,113.23602777777778,609,113.229C611.4166666666666,113.22197222222222,613.8333333333334,113.21494444444446,616.25,113.20791666666668C618.6666666666666,113.2008888888889,621.0833333333334,113.1938611111111,623.5,113.18683333333333C625.9166666666666,113.17980555555555,628.3333333333334,113.17277777777778,630.75,113.16575C633.1666666666666,113.15872222222222,635.5833333333334,113.15169444444444,638,113.14466666666667C640.4166666666666,113.13763888888889,642.8333333333334,113.13061111111111,645.25,113.12358333333333C647.6666666666666,113.11655555555555,650.0833333333334,113.10952777777779,652.5,113.1025C654.9166666666666,113.09547222222223,657.3333333333334,113.08844444444443,659.75,113.08141666666666C662.1666666666666,113.07438888888888,664.5833333333334,113.06736111111111,667,113.06033333333333C669.4166666666666,113.05330555555555,671.8333333333334,113.04627777777777,674.25,113.03925C676.6666666666666,113.03222222222222,679.0833333333334,113.02519444444445,681.5,113.01816666666667C683.9166666666666,113.0111388888889,686.3333333333334,113.00411111111111,688.75,112.99708333333334C691.1666666666666,112.99005555555556,693.5833333333334,112.98302777777778,696,112.976C698.4166666666666,112.96897222222222,700.8333333333334,112.96194444444444,703.25,112.95491666666666C705.6666666666666,112.94788888888888,708.0833333333334,112.9408611111111,710.5,112.93383333333333C712.9166666666666,112.92680555555555,715.3333333333334,112.91977777777778,717.75,112.91275C720.1666666666666,112.90572222222222,722.5833333333334,112.89869444444444,725,112.89166666666667C727.4166666666666,112.88463888888889,729.8333333333334,112.87761111111112,732.25,112.87058333333334C734.6666666666666,112.86355555555556,737.0833333333334,112.85652777777777,739.5,112.84949999999999C741.9166666666666,112.84247222222221,744.3333333333334,112.83544444444445,746.75,112.82841666666667C749.1666666666666,112.82138888888889,751.5833333333334,112.81436111111111,754,112.80733333333333C756.4166666666666,112.80030555555555,758.8333333333334,112.79327777777777,761.25,112.78625C763.6666666666666,112.77922222222222,766.0833333333334,112.77219444444445,768.5,112.76516666666667C770.9166666666666,112.7581388888889,773.3333333333334,112.75111111111111,775.75,112.74408333333334C778.1666666666666,112.73705555555556,780.5833333333334,112.73002777777778,783,112.723C785.4166666666667,112.71597222222222,787.8333333333334,112.70894444444444,790.2500000000001,112.70191666666666C792.6666666666667,112.69488888888888,795.0833333333335,112.68786111111112,797.5000000000001,112.68083333333334C799.9166666666667,112.67380555555556,802.3333333333335,112.66677777777778,804.7500000000001,112.65975C807.1666666666667,112.65272222222222,809.5833333333335,112.64569444444444,812.0000000000001,112.63866666666667C814.4166666666667,112.63163888888889,816.8333333333333,112.62461111111111,819.2499999999999,112.61758333333333C821.6666666666665,112.61055555555555,824.0833333333333,112.60352777777777,826.4999999999999,112.59649999999999C828.9166666666665,112.58947222222221,831.3333333333333,112.58244444444445,833.7499999999999,112.57541666666667C836.1666666666665,112.56838888888889,838.5833333333333,112.56136111111111,840.9999999999999,112.55433333333333C843.4166666666666,112.54730555555555,845.8333333333333,112.54027777777779,848.25,112.53325000000001C850.6666666666666,112.52622222222223,853.0833333333334,112.51919444444445,855.5,112.51216666666667C857.9166666666666,112.5051388888889,860.3333333333334,112.49811111111111,862.75,112.49108333333334C865.1666666666666,112.48405555555556,867.5833333333334,112.47702777777778,870,112.47C872.4166666666666,112.46297222222222,874.8333333333334,112.45594444444444,877.25,112.44891666666666C879.6666666666666,112.44188888888888,882.0833333333334,112.43486111111112,884.5,112.42783333333334C886.9166666666666,112.42080555555556,889.3333333333334,112.41377777777778,891.75,112.40675C894.1666666666666,112.39972222222222,896.5833333333334,112.39269444444444,899,112.38566666666667C901.4166666666666,112.37863888888889,903.8333333333334,112.37161111111111,906.25,112.36458333333333C908.6666666666666,112.35755555555555,911.0833333333334,112.35052777777778,913.5,112.3435C915.9166666666666,112.33647222222223,918.3333333333334,112.32944444444445,920.75,112.32241666666667C923.1666666666666,112.31538888888889,925.5833333333334,112.30836111111111,928,112.30133333333333C930.4166666666666,112.29430555555555,932.8333333333334,112.28727777777779,935.25,112.28025000000001C937.6666666666666,112.27322222222223,940.0833333333334,112.26619444444444,942.5,112.25916666666666C944.9166666666666,112.25213888888888,947.3333333333334,112.24511111111111,949.75,112.23808333333334C952.1666666666666,112.23105555555556,954.5833333333334,112.22402777777778,957,112.217C959.4166666666666,112.20997222222222,961.8333333333334,112.20294444444446,964.25,112.19591666666668C966.6666666666667,112.1888888888889,969.0833333333334,112.18186111111112,971.5000000000001,112.17483333333334C973.9166666666667,112.16780555555556,976.3333333333335,112.16077777777777,978.7500000000001,112.15374999999999C981.1666666666667,112.14672222222221,983.5833333333335,112.13969444444444,986.0000000000001,112.13266666666667C988.4166666666667,112.12563888888889,990.8333333333335,112.11861111111111,993.2500000000001,112.11158333333333C995.6666666666667,112.10455555555555,998.0833333333333,112.09752777777778,1000.4999999999999,112.0905C1002.9166666666665,112.08347222222223,1005.3333333333333,112.07644444444445,1007.7499999999999,112.06941666666667C1010.1666666666665,112.06238888888889,1012.5833333333333,112.05536111111113,1014.9999999999999,112.04833333333335C1017.4166666666665,112.04130555555557,1019.8333333333333,112.03427777777777,1022.2499999999999,112.02725C1024.6666666666665,112.02022222222222,1027.0833333333333,112.01319444444444,1029.5,112.00616666666666C1031.9166666666667,111.99913888888888,1034.3333333333333,111.99211111111111,1036.75,111.98508333333334C1039.1666666666667,111.97805555555556,1041.5833333333333,111.97102777777778,1044,111.964C1046.4166666666667,111.95697222222222,1048.8333333333333,111.94994444444445,1051.25,111.94291666666668C1053.6666666666667,111.9358888888889,1056.0833333333333,111.9288611111111,1058.5,111.92183333333332C1060.9166666666667,111.91480555555555,1063.3333333333333,111.90777777777778,1065.75,111.90075C1068.1666666666667,111.89372222222222,1070.5833333333333,111.88669444444444,1073,111.87966666666667C1075.4166666666667,111.87263888888889,1077.8333333333333,111.86561111111111,1080.25,111.85858333333333C1082.6666666666667,111.85155555555555,1085.0833333333333,111.84452777777778,1087.5,111.8375C1089.9166666666667,111.83047222222223,1092.3333333333333,111.82344444444445,1094.75,111.81641666666667C1097.1666666666667,111.80938888888889,1099.5833333333333,111.80236111111111,1102,111.79533333333333C1104.4166666666667,111.78830555555555,1106.8333333333333,111.78127777777777,1109.25,111.77425C1111.6666666666667,111.76722222222222,1114.0833333333333,111.76019444444445,1116.5,111.75316666666667C1118.9166666666667,111.7461388888889,1121.3333333333333,111.73911111111111,1123.75,111.73208333333334C1126.1666666666667,111.72505555555556,1128.5833333333333,111.71802777777778,1131,111.711C1133.4166666666667,111.70397222222222,1135.8333333333333,111.69694444444444,1138.25,111.68991666666666C1140.6666666666667,111.68288888888888,1143.0833333333333,111.6758611111111,1145.5,111.66883333333332C1147.9166666666667,111.66180555555555,1150.3333333333333,111.65477777777778,1152.75,111.64775C1155.1666666666667,111.64072222222222,1157.5833333333333,111.63369444444444,1160,111.62666666666667C1162.4166666666667,111.61963888888889,1164.8333333333333,111.61261111111112,1167.25,111.60558333333334C1169.6666666666667,111.59855555555556,1172.0833333333333,111.59152777777778,1174.5,111.5845C1176.9166666666667,111.57747222222223,1179.3333333333333,111.57044444444445,1181.75,111.56341666666667C1184.1666666666667,111.55638888888889,1186.5833333333333,111.54936111111111,1189,111.54233333333333C1191.4166666666667,111.53530555555555,1193.8333333333333,111.52827777777777,1196.25,111.52125C1198.6666666666667,111.51422222222222,1201.0833333333333,111.50719444444445,1203.5,111.50016666666667C1205.9166666666667,111.4931388888889,1208.3333333333333,111.48611111111111,1210.75,111.47908333333334C1213.1666666666667,111.47205555555556,1215.5833333333333,111.46502777777778,1218,111.458C1220.4166666666667,111.45097222222222,1222.8333333333333,111.44394444444444,1225.25,111.43691666666666C1227.6666666666667,111.42988888888888,1230.0833333333333,111.42286111111112,1232.5,111.41583333333334C1234.9166666666667,111.40880555555556,1237.3333333333333,111.40177777777778,1239.75,111.39475C1242.1666666666667,111.38772222222222,1244.5833333333333,111.38069444444444,1247,111.37366666666667C1249.4166666666667,111.36663888888889,1251.8333333333333,111.35961111111112,1254.25,111.35258333333334C1256.6666666666667,111.34555555555556,1259.0833333333333,111.33852777777777,1261.5,111.33149999999999C1263.9166666666667,111.32447222222221,1266.3333333333333,111.31744444444445,1268.75,111.31041666666667C1271.1666666666667,111.30338888888889,1273.5833333333333,111.29636111111111,1276,111.28933333333333C1278.4166666666667,111.28230555555555,1280.8333333333333,111.27527777777779,1283.25,111.26825000000001C1285.6666666666667,111.26122222222223,1288.0833333333333,111.25419444444445,1290.5,111.24716666666667C1292.9166666666667,111.2401388888889,1295.3333333333333,111.2331111111111,1297.75,111.22608333333332C1300.1666666666667,111.21905555555554,1302.5833333333333,111.21905555555554,1305,111.205C1307.4166666666667,111.19094444444445,1309.8333333333333,108.13833333333334,1312.25,106.605C1314.6666666666667,105.07166666666667,1317.0833333333333,103.53833333333333,1319.5,102.005C1321.9166666666667,100.47166666666666,1324.3333333333333,98.93833333333333,1326.75,97.405C1329.1666666666667,95.87166666666667,1331.5833333333333,94.33833333333332,1334,92.80499999999999C1336.4166666666667,91.27166666666666,1338.8333333333333,89.73833333333333,1341.25,88.205C1343.6666666666667,86.67166666666667,1346.0833333333333,85.13833333333334,1348.5,83.605C1350.9166666666667,82.07166666666667,1353.3333333333333,80.53833333333334,1355.75,79.00500000000001C1358.1666666666667,77.47166666666668,1360.5833333333333,75.93833333333333,1363,74.405C1365.4166666666667,72.87166666666667,1367.8333333333333,71.33833333333332,1370.25,69.80499999999999C1372.6666666666667,68.27166666666666,1375.0833333333333,66.73833333333333,1377.5,65.205C1379.9166666666667,63.67166666666667,1382.3333333333333,62.138333333333335,1384.75,60.605000000000004C1387.1666666666667,59.07166666666667,1389.5833333333333,57.53833333333333,1392,56.004999999999995C1394.4166666666667,54.471666666666664,1396.8333333333333,52.938333333333325,1399.25,51.404999999999994C1401.6666666666667,49.87166666666666,1404.0833333333333,48.33833333333334,1406.5,46.80500000000001C1408.9166666666667,45.271666666666675,1411.3333333333333,43.73833333333334,1413.75,42.205C1416.1666666666667,40.67166666666666,1418.5833333333333,39.138333333333314,1421,37.60499999999998C1423.4166666666667,36.07166666666665,1425.8333333333333,34.538333333333334,1428.25,33.005C1430.6666666666667,31.47166666666667,1433.0833333333333,29.938333333333333,1435.5,28.405C1437.9166666666667,26.87166666666667,1440.3333333333333,25.33833333333334,1442.75,23.805000000000007C1445.1666666666667,22.271666666666675,1447.5833333333333,20.73833333333334,1450,19.205000000000005" fill="transparent" stroke-linecap="round" stroke="#B6509E" stroke-width="2"></path><path class="visx-linepath" d="M0,107.75499999994888C2.4166666666666665,107.74648148145167,4.833333333333334,107.73796296295446,7.25,107.72944444444445C9.666666666666666,107.72092592593445,12.083333333333334,107.71240740740741,14.5,107.7038888888889C16.916666666666668,107.69537037037038,19.333333333333332,107.68685185185186,21.75,107.67833333333334C24.166666666666668,107.66981481481483,26.583333333333332,107.66129629629629,29,107.65277777777777C31.416666666666668,107.64425925925926,33.833333333333336,107.63574074074073,36.25,107.62722222222222C38.666666666666664,107.6187037037037,41.083333333333336,107.61018518518517,43.5,107.60166666666666C45.91666666666667,107.59314814814815,48.333333333333336,107.58462962962962,50.75000000000001,107.5761111111111C53.16666666666667,107.56759259259259,55.583333333333336,107.55907407407406,58,107.55055555555555C60.416666666666664,107.54203703703703,62.833333333333336,107.53351851851852,65.25,107.525C67.66666666666667,107.51648148148149,70.08333333333333,107.50796296296296,72.5,107.49944444444445C74.91666666666667,107.49092592592594,77.33333333333333,107.48240740740741,79.75,107.4738888888889C82.16666666666667,107.46537037037038,84.58333333333333,107.45685185185185,87,107.44833333333334C89.41666666666667,107.43981481481482,91.83333333333333,107.4312962962963,94.25,107.42277777777778C96.66666666666667,107.41425925925927,99.08333333333334,107.40574074074074,101.50000000000001,107.39722222222223C103.91666666666667,107.38870370370371,106.33333333333334,107.38018518518518,108.75,107.37166666666667C111.16666666666667,107.36314814814816,113.58333333333333,107.35462962962963,116,107.34611111111111C118.41666666666667,107.33759259259259,120.83333333333334,107.32907407407406,123.25000000000001,107.32055555555554C125.66666666666667,107.31203703703703,128.08333333333334,107.30351851851852,130.5,107.295C132.91666666666666,107.28648148148149,135.33333333333334,107.27796296296296,137.75,107.26944444444445C140.16666666666666,107.26092592592593,142.58333333333334,107.2524074074074,145,107.24388888888889C147.41666666666666,107.23537037037038,149.83333333333334,107.22685185185185,152.25,107.21833333333333C154.66666666666666,107.20981481481482,157.08333333333334,107.20129629629629,159.5,107.19277777777778C161.91666666666666,107.18425925925926,164.33333333333334,107.17574074074074,166.75,107.16722222222222C169.16666666666666,107.15870370370371,171.58333333333334,107.15018518518518,174,107.14166666666667C176.41666666666666,107.13314814814815,178.83333333333334,107.12462962962962,181.25,107.11611111111111C183.66666666666666,107.1075925925926,186.08333333333334,107.09907407407407,188.5,107.09055555555555C190.91666666666666,107.08203703703704,193.33333333333334,107.07351851851853,195.75,107.06500000000001C198.16666666666669,107.0564814814815,200.58333333333334,107.04796296296297,203.00000000000003,107.03944444444444C205.41666666666669,107.03092592592593,207.83333333333331,107.0224074074074,210.24999999999997,107.01388888888889C212.66666666666666,107.00537037037037,215.08333333333331,106.99685185185184,217.5,106.98833333333333C219.91666666666666,106.97981481481482,222.33333333333334,106.97129629629629,224.75,106.96277777777777C227.16666666666666,106.95425925925926,229.58333333333334,106.94574074074073,232,106.93722222222222C234.41666666666666,106.9287037037037,236.83333333333334,106.92018518518518,239.25,106.91166666666666C241.66666666666669,106.90314814814815,244.08333333333334,106.89462962962962,246.50000000000003,106.8861111111111C248.91666666666669,106.87759259259259,251.33333333333331,106.86907407407406,253.74999999999997,106.86055555555555C256.16666666666663,106.85203703703704,258.5833333333333,106.84351851851852,261,106.83500000000001C263.4166666666667,106.8264814814815,265.8333333333333,106.81796296296297,268.25,106.80944444444445C270.6666666666667,106.80092592592594,273.0833333333333,106.79240740740741,275.5,106.7838888888889C277.9166666666667,106.77537037037038,280.3333333333333,106.76685185185185,282.75,106.75833333333334C285.1666666666667,106.74981481481483,287.5833333333333,106.7412962962963,290,106.73277777777778C292.4166666666667,106.72425925925927,294.8333333333333,106.71574074074073,297.25,106.70722222222221C299.6666666666667,106.6987037037037,302.0833333333333,106.69018518518517,304.5,106.68166666666666C306.9166666666667,106.67314814814814,309.3333333333333,106.66462962962962,311.75,106.6561111111111C314.1666666666667,106.64759259259259,316.5833333333333,106.63907407407406,319,106.63055555555555C321.4166666666667,106.62203703703703,323.8333333333333,106.61351851851852,326.25,106.605C328.6666666666667,106.59648148148149,331.0833333333333,106.58796296296296,333.5,106.57944444444445C335.9166666666667,106.57092592592593,338.3333333333333,106.5624074074074,340.75,106.55388888888889C343.1666666666667,106.54537037037038,345.5833333333333,106.53685185185185,348,106.52833333333334C350.4166666666667,106.51981481481482,352.8333333333333,106.5112962962963,355.25,106.50277777777778C357.6666666666667,106.49425925925927,360.0833333333333,106.48574074074074,362.5,106.47722222222222C364.9166666666667,106.46870370370371,367.3333333333333,106.46018518518518,369.75,106.45166666666667C372.1666666666667,106.44314814814815,374.5833333333333,106.43462962962963,377,106.42611111111111C379.4166666666667,106.4175925925926,381.8333333333333,106.40907407407407,384.25,106.40055555555556C386.6666666666667,106.39203703703704,389.0833333333333,106.38351851851851,391.5,106.375C393.9166666666667,106.36648148148149,396.33333333333337,106.35796296296296,398.75000000000006,106.34944444444444C401.16666666666674,106.34092592592593,403.58333333333337,106.3324074074074,406.00000000000006,106.32388888888889C408.4166666666667,106.31537037037037,410.8333333333333,106.30685185185185,413.24999999999994,106.29833333333333C415.66666666666663,106.28981481481482,418.08333333333326,106.28129629629629,420.49999999999994,106.27277777777778C422.91666666666663,106.26425925925926,425.3333333333333,106.25574074074073,427.75,106.24722222222222C430.1666666666667,106.2387037037037,432.5833333333333,106.23018518518518,435,106.22166666666666C437.4166666666667,106.21314814814815,439.8333333333333,106.20462962962962,442.25,106.19611111111111C444.6666666666667,106.1875925925926,447.0833333333333,106.17907407407407,449.5,106.17055555555555C451.9166666666667,106.16203703703704,454.3333333333333,106.15351851851852,456.75,106.14500000000001C459.1666666666667,106.1364814814815,461.5833333333333,106.12796296296298,464,106.11944444444445C466.4166666666667,106.11092592592593,468.8333333333333,106.10240740740741,471.25,106.09388888888888C473.6666666666667,106.08537037037036,476.0833333333333,106.07685185185184,478.5,106.06833333333333C480.9166666666667,106.05981481481481,483.33333333333337,106.05129629629629,485.75000000000006,106.04277777777777C488.16666666666674,106.03425925925926,490.58333333333337,106.02574074074073,493.00000000000006,106.01722222222222C495.4166666666667,106.0087037037037,497.8333333333333,106.00018518518517,500.24999999999994,105.99166666666666C502.66666666666663,105.98314814814815,505.08333333333326,105.97462962962962,507.49999999999994,105.9661111111111C509.91666666666663,105.95759259259259,512.3333333333333,105.94907407407406,514.75,105.94055555555555C517.1666666666666,105.93203703703703,519.5833333333334,105.92351851851852,522,105.915C524.4166666666666,105.90648148148149,526.8333333333334,105.89796296296296,529.25,105.88944444444445C531.6666666666666,105.88092592592594,534.0833333333334,105.87240740740741,536.5,105.8638888888889C538.9166666666666,105.85537037037038,541.3333333333334,105.84685185185185,543.75,105.83833333333334C546.1666666666666,105.82981481481482,548.5833333333334,105.8212962962963,551,105.81277777777778C553.4166666666666,105.80425925925927,555.8333333333334,105.79574074074074,558.25,105.78722222222223C560.6666666666666,105.77870370370371,563.0833333333334,105.77018518518517,565.5,105.76166666666666C567.9166666666666,105.75314814814814,570.3333333333334,105.74462962962963,572.75,105.73611111111111C575.1666666666666,105.7275925925926,577.5833333333334,105.71907407407406,580,105.71055555555554C582.4166666666666,105.70203703703703,584.8333333333334,105.69351851851852,587.25,105.685C589.6666666666666,105.67648148148149,592.0833333333334,105.66796296296296,594.5,105.65944444444445C596.9166666666666,105.65092592592593,599.3333333333334,105.6424074074074,601.75,105.63388888888889C604.1666666666666,105.62537037037038,606.5833333333334,105.61685185185185,609,105.60833333333333C611.4166666666666,105.59981481481482,613.8333333333334,105.59129629629629,616.25,105.58277777777778C618.6666666666666,105.57425925925926,621.0833333333334,105.56574074074074,623.5,105.55722222222222C625.9166666666666,105.54870370370371,628.3333333333334,105.54018518518518,630.75,105.53166666666667C633.1666666666666,105.52314814814815,635.5833333333334,105.51462962962964,638,105.50611111111112C640.4166666666666,105.49759259259261,642.8333333333334,105.48907407407407,645.25,105.48055555555555C647.6666666666666,105.47203703703704,650.0833333333334,105.46351851851851,652.5,105.455C654.9166666666666,105.44648148148148,657.3333333333334,105.43796296296296,659.75,105.42944444444444C662.1666666666666,105.42092592592593,664.5833333333334,105.4124074074074,667,105.40388888888889C669.4166666666666,105.39537037037037,671.8333333333334,105.38685185185184,674.25,105.37833333333333C676.6666666666666,105.36981481481482,679.0833333333334,105.36129629629629,681.5,105.35277777777777C683.9166666666666,105.34425925925926,686.3333333333334,105.33574074074073,688.75,105.32722222222222C691.1666666666666,105.3187037037037,693.5833333333334,105.31018518518518,696,105.30166666666666C698.4166666666666,105.29314814814815,700.8333333333334,105.28462962962963,703.25,105.27611111111112C705.6666666666666,105.2675925925926,708.0833333333334,105.25907407407406,710.5,105.25055555555555C712.9166666666666,105.24203703703704,715.3333333333334,105.23351851851852,717.75,105.22500000000001C720.1666666666666,105.2164814814815,722.5833333333334,105.20796296296297,725,105.19944444444445C727.4166666666666,105.19092592592594,729.8333333333334,105.18240740740742,732.25,105.1738888888889C734.6666666666666,105.16537037037037,737.0833333333334,105.15685185185185,739.5,105.14833333333333C741.9166666666666,105.1398148148148,744.3333333333334,105.13129629629628,746.75,105.12277777777777C749.1666666666666,105.11425925925926,751.5833333333334,105.10574074074073,754,105.09722222222221C756.4166666666666,105.0887037037037,758.8333333333334,105.08018518518517,761.25,105.07166666666666C763.6666666666666,105.06314814814814,766.0833333333334,105.05462962962963,768.5,105.04611111111112C770.9166666666666,105.0375925925926,773.3333333333334,105.02907407407407,775.75,105.02055555555556C778.1666666666666,105.01203703703705,780.5833333333334,105.00351851851852,783,104.995C785.4166666666667,104.98648148148149,787.8333333333334,104.97796296296296,790.2500000000001,104.96944444444445C792.6666666666667,104.96092592592593,795.0833333333335,104.9524074074074,797.5000000000001,104.94388888888889C799.9166666666667,104.93537037037038,802.3333333333335,104.92685185185185,804.7500000000001,104.91833333333334C807.1666666666667,104.90981481481482,809.5833333333335,104.9012962962963,812.0000000000001,104.89277777777778C814.4166666666667,104.88425925925927,816.8333333333333,104.87574074074074,819.2499999999999,104.86722222222222C821.6666666666665,104.85870370370371,824.0833333333333,104.85018518518518,826.4999999999999,104.84166666666667C828.9166666666665,104.83314814814815,831.3333333333333,104.82462962962964,833.7499999999999,104.81611111111111C836.1666666666665,104.80759259259258,838.5833333333333,104.79907407407406,840.9999999999999,104.79055555555554C843.4166666666666,104.78203703703703,845.8333333333333,104.77351851851851,848.25,104.765C850.6666666666666,104.75648148148149,853.0833333333334,104.74796296296296,855.5,104.73944444444444C857.9166666666666,104.73092592592593,860.3333333333334,104.7224074074074,862.75,104.71388888888889C865.1666666666666,104.70537037037037,867.5833333333334,104.69685185185185,870,104.68833333333333C872.4166666666666,104.67981481481482,874.8333333333334,104.67129629629629,877.25,104.66277777777778C879.6666666666666,104.65425925925926,882.0833333333334,104.64574074074073,884.5,104.63722222222222C886.9166666666666,104.6287037037037,889.3333333333334,104.62018518518518,891.75,104.61166666666666C894.1666666666666,104.60314814814815,896.5833333333334,104.59462962962964,899,104.58611111111112C901.4166666666666,104.57759259259261,903.8333333333334,104.56907407407408,906.25,104.56055555555557C908.6666666666666,104.55203703703705,911.0833333333334,104.54351851851851,913.5,104.535C915.9166666666666,104.52648148148148,918.3333333333334,104.51796296296295,920.75,104.50944444444444C923.1666666666666,104.50092592592593,925.5833333333334,104.4924074074074,928,104.48388888888888C930.4166666666666,104.47537037037037,932.8333333333334,104.46685185185184,935.25,104.45833333333333C937.6666666666666,104.44981481481481,940.0833333333334,104.44129629629629,942.5,104.43277777777777C944.9166666666666,104.42425925925926,947.3333333333334,104.41574074074073,949.75,104.40722222222222C952.1666666666666,104.3987037037037,954.5833333333334,104.39018518518517,957,104.38166666666666C959.4166666666666,104.37314814814815,961.8333333333334,104.36462962962963,964.25,104.35611111111112C966.6666666666667,104.3475925925926,969.0833333333334,104.33907407407406,971.5000000000001,104.33055555555555C973.9166666666667,104.32203703703703,976.3333333333335,104.31351851851852,978.7500000000001,104.305C981.1666666666667,104.29648148148149,983.5833333333335,104.28796296296296,986.0000000000001,104.27944444444445C988.4166666666667,104.27092592592594,990.8333333333335,104.26240740740741,993.2500000000001,104.2538888888889C995.6666666666667,104.24537037037038,998.0833333333333,104.23685185185185,1000.4999999999999,104.22833333333334C1002.9166666666665,104.21981481481481,1005.3333333333333,104.2112962962963,1007.7499999999999,104.20277777777777C1010.1666666666665,104.19425925925924,1012.5833333333333,104.18574074074073,1014.9999999999999,104.17722222222221C1017.4166666666665,104.1687037037037,1019.8333333333333,104.16018518518517,1022.2499999999999,104.15166666666666C1024.6666666666665,104.14314814814814,1027.0833333333333,104.13462962962963,1029.5,104.12611111111111C1031.9166666666667,104.1175925925926,1034.3333333333333,104.10907407407407,1036.75,104.10055555555556C1039.1666666666667,104.09203703703704,1041.5833333333333,104.08351851851852,1044,104.075C1046.4166666666667,104.06648148148149,1048.8333333333333,104.05796296296296,1051.25,104.04944444444445C1053.6666666666667,104.04092592592593,1056.0833333333333,104.0324074074074,1058.5,104.02388888888889C1060.9166666666667,104.01537037037038,1063.3333333333333,104.00685185185185,1065.75,103.99833333333333C1068.1666666666667,103.98981481481482,1070.5833333333333,103.98129629629629,1073,103.97277777777778C1075.4166666666667,103.96425925925926,1077.8333333333333,103.95574074074074,1080.25,103.94722222222222C1082.6666666666667,103.93870370370371,1085.0833333333333,103.93018518518518,1087.5,103.92166666666667C1089.9166666666667,103.91314814814815,1092.3333333333333,103.90462962962962,1094.75,103.89611111111111C1097.1666666666667,103.8875925925926,1099.5833333333333,103.87907407407405,1102,103.87055555555554C1104.4166666666667,103.86203703703703,1106.8333333333333,103.85351851851851,1109.25,103.845C1111.6666666666667,103.83648148148148,1114.0833333333333,103.82796296296296,1116.5,103.81944444444444C1118.9166666666667,103.81092592592593,1121.3333333333333,103.8024074074074,1123.75,103.79388888888889C1126.1666666666667,103.78537037037037,1128.5833333333333,103.77685185185184,1131,103.76833333333333C1133.4166666666667,103.75981481481482,1135.8333333333333,103.75129629629629,1138.25,103.74277777777777C1140.6666666666667,103.73425925925926,1143.0833333333333,103.72574074074075,1145.5,103.71722222222223C1147.9166666666667,103.70870370370372,1150.3333333333333,103.70018518518518,1152.75,103.69166666666666C1155.1666666666667,103.68314814814815,1157.5833333333333,103.67462962962964,1160,103.66611111111112C1162.4166666666667,103.65759259259261,1164.8333333333333,103.64907407407408,1167.25,103.64055555555557C1169.6666666666667,103.63203703703705,1172.0833333333333,103.62351851851852,1174.5,103.61500000000001C1176.9166666666667,103.6064814814815,1179.3333333333333,103.59796296296295,1181.75,103.58944444444444C1184.1666666666667,103.58092592592592,1186.5833333333333,103.5724074074074,1189,103.56388888888888C1191.4166666666667,103.55537037037037,1193.8333333333333,103.54685185185184,1196.25,103.53833333333333C1198.6666666666667,103.52981481481481,1201.0833333333333,103.52129629629628,1203.5,103.51277777777777C1205.9166666666667,103.50425925925926,1208.3333333333333,103.49574074074073,1210.75,103.48722222222221C1213.1666666666667,103.4787037037037,1215.5833333333333,103.47018518518517,1218,103.46166666666666C1220.4166666666667,103.45314814814814,1222.8333333333333,103.44462962962963,1225.25,103.43611111111112C1227.6666666666667,103.4275925925926,1230.0833333333333,103.41907407407408,1232.5,103.41055555555556C1234.9166666666667,103.40203703703705,1237.3333333333333,103.39351851851852,1239.75,103.385C1242.1666666666667,103.37648148148149,1244.5833333333333,103.36796296296296,1247,103.35944444444445C1249.4166666666667,103.35092592592594,1251.8333333333333,103.3424074074074,1254.25,103.3338888888889C1256.6666666666667,103.32537037037038,1259.0833333333333,103.31685185185185,1261.5,103.30833333333334C1263.9166666666667,103.29981481481482,1266.3333333333333,103.2912962962963,1268.75,103.28277777777778C1271.1666666666667,103.27425925925927,1273.5833333333333,103.26574074074074,1276,103.25722222222223C1278.4166666666667,103.24870370370371,1280.8333333333333,103.24018518518517,1283.25,103.23166666666665C1285.6666666666667,103.22314814814814,1288.0833333333333,103.21462962962963,1290.5,103.20611111111111C1292.9166666666667,103.1975925925926,1295.3333333333333,103.18907407407407,1297.75,103.18055555555556C1300.1666666666667,103.17203703703704,1302.5833333333333,103.17203703703704,1305,103.155C1307.4166666666667,103.13796296296296,1309.8333333333333,100.08833333333332,1312.25,98.55499999999999C1314.6666666666667,97.02166666666666,1317.0833333333333,95.48833333333333,1319.5,93.955C1321.9166666666667,92.42166666666667,1324.3333333333333,90.88833333333334,1326.75,89.355C1329.1666666666667,87.82166666666667,1331.5833333333333,86.28833333333333,1334,84.755C1336.4166666666667,83.22166666666666,1338.8333333333333,81.68833333333333,1341.25,80.155C1343.6666666666667,78.62166666666667,1346.0833333333333,77.08833333333334,1348.5,75.555C1350.9166666666667,74.02166666666668,1353.3333333333333,72.48833333333333,1355.75,70.955C1358.1666666666667,69.42166666666667,1360.5833333333333,67.88833333333332,1363,66.35499999999999C1365.4166666666667,64.82166666666666,1367.8333333333333,63.28833333333332,1370.25,61.75499999999999C1372.6666666666667,60.22166666666666,1375.0833333333333,58.68833333333333,1377.5,57.155C1379.9166666666667,55.62166666666667,1382.3333333333333,54.088333333333324,1384.75,52.55499999999999C1387.1666666666667,51.02166666666666,1389.5833333333333,49.48833333333334,1392,47.955000000000005C1394.4166666666667,46.421666666666674,1396.8333333333333,44.88833333333333,1399.25,43.355C1401.6666666666667,41.821666666666665,1404.0833333333333,40.28833333333334,1406.5,38.75500000000001C1408.9166666666667,37.22166666666668,1411.3333333333333,35.68833333333335,1413.75,34.15500000000001C1416.1666666666667,32.62166666666667,1418.5833333333333,31.08833333333333,1421,29.555C1423.4166666666667,28.02166666666667,1425.8333333333333,26.48833333333334,1428.25,24.95500000000001C1430.6666666666667,23.421666666666678,1433.0833333333333,21.88833333333334,1435.5,20.355000000000004C1437.9166666666667,18.82166666666667,1440.3333333333333,17.288333333333334,1442.75,15.755C1445.1666666666667,14.221666666666666,1447.5833333333333,12.688333333333333,1450,11.154999999999998" fill="transparent" stroke-linecap="round" stroke="#E7C6DF" stroke-width="2"></path><g class="visx-group visx-axis visx-axis-bottom" transform="translate(0, 115)"><g class="visx-group visx-axis-tick" transform="translate(0, 0)"><line class="visx-line" x1="0" y1="0" x2="0" y2="8" fill="transparent" shape-rendering="crispEdges" stroke="#000" stroke-width="0" stroke-linecap="square"></line><svg x="0" y="0" font-size="10" style="overflow:visible"><text transform="" x="0" y="18" fill="#000" font-size="10" text-anchor="middle"><tspan x="0" dy="0em">0%</tspan></text></svg></g><g class="visx-group visx-axis-tick" transform="translate(0, 0)"><line class="visx-line" x1="362.5" y1="0" x2="362.5" y2="8" fill="transparent" shape-rendering="crispEdges" stroke="#000" stroke-width="0" stroke-linecap="square"></line><svg x="0" y="0" font-size="10" style="overflow:visible"><text transform="" x="362.5" y="18" fill="#000" font-size="10" text-anchor="middle"><tspan x="362.5" dy="0em">25%</tspan></text></svg></g><g class="visx-group visx-axis-tick" transform="translate(0, 0)"><line class="visx-line" x1="725" y1="0" x2="725" y2="8" fill="transparent" shape-rendering="crispEdges" stroke="#000" stroke-width="0" stroke-linecap="square"></line><svg x="0" y="0" font-size="10" style="overflow:visible"><text transform="" x="725" y="18" fill="#000" font-size="10" text-anchor="middle"><tspan x="725" dy="0em">50%</tspan></text></svg></g><g class="visx-group visx-axis-tick" transform="translate(0, 0)"><line class="visx-line" x1="1087.5" y1="0" x2="1087.5" y2="8" fill="transparent" shape-rendering="crispEdges" stroke="#000" stroke-width="0" stroke-linecap="square"></line><svg x="0" y="0" font-size="10" style="overflow:visible"><text transform="" x="1087.5" y="18" fill="#000" font-size="10" text-anchor="middle"><tspan x="1087.5" dy="0em">75%</tspan></text></svg></g><g class="visx-group visx-axis-tick" transform="translate(0, 0)"><line class="visx-line" x1="1450" y1="0" x2="1450" y2="8" fill="transparent" shape-rendering="crispEdges" stroke="#000" stroke-width="0" stroke-linecap="square"></line><svg x="0" y="0" font-size="10" style="overflow:visible"><text transform="" x="1450" y="18" fill="#000" font-size="10" text-anchor="middle"><tspan x="1450" dy="0em">100%</tspan></text></svg></g><line class="visx-line visx-axis-line" x1="0.5" y1="0" x2="1450.5" y2="0" fill="transparent" shape-rendering="crispEdges" stroke="#222" stroke-width="0"></line></g><g class="visx-group visx-axis visx-axis-left" transform="translate(0, 0)"><g class="visx-group visx-axis-tick" transform="translate(0, 0)"><line class="visx-line" x1="0" y1="115" x2="-8" y2="115" fill="transparent" shape-rendering="crispEdges" stroke="#222" stroke-width="0" stroke-linecap="square"></line><svg x="-30" y="0" font-size="8" style="overflow:visible"><text transform="" x="-8" y="115" fill="#000" font-size="8" text-anchor="start"><tspan x="-8" dy="0em">0%</tspan></text></svg></g><g class="visx-group visx-axis-tick" transform="translate(0, 0)"><line class="visx-line" x1="0" y1="57.5" x2="-8" y2="57.5" fill="transparent" shape-rendering="crispEdges" stroke="#222" stroke-width="0" stroke-linecap="square"></line><svg x="-30" y="0" font-size="8" style="overflow:visible"><text transform="" x="-8" y="57.5" fill="#000" font-size="8" text-anchor="start"><tspan x="-8" dy="0em">50%</tspan></text></svg></g><g class="visx-group visx-axis-tick" transform="translate(0, 0)"><line class="visx-line" x1="0" y1="0" x2="-8" y2="0" fill="transparent" shape-rendering="crispEdges" stroke="#222" stroke-width="0" stroke-linecap="square"></line><svg x="-30" y="0" font-size="8" style="overflow:visible"><text transform="" x="-8" y="0" fill="#000" font-size="8" text-anchor="start"><tspan x="-8" dy="0em">100%</tspan></text></svg></g><line class="visx-line visx-axis-line" x1="0" y1="115.5" x2="0" y2="0.5" fill="transparent" shape-rendering="crispEdges" stroke="#222" stroke-width="0"></line></g><rect class="visx-bar" width="1450" height="115" fill="transparent"></rect><line class="visx-line" x1="1305" y1="28" x2="1305" y2="115" fill="transparent" shape-rendering="crispEdges" stroke="#0062D2" stroke-width="1" pointer-events="none" stroke-dasharray="5,2"></line><svg x="0" y="0" font-size="10px" style="overflow:visible"><text transform="" x="1305" y="20" font-size="10px" fill="#fff" stroke="#fff" stroke-width="0.8em" text-anchor="middle"><tspan x="1305" dy="0.355em">Optimal 90%</tspan></text></svg><svg x="0" y="0" font-size="10px" style="overflow:visible"><text transform="" x="1305" y="20" font-size="10px" fill="#62677B" text-anchor="middle"><tspan x="1305" dy="0.355em">Optimal 90%</tspan></text></svg></g></svg>