<?xml version="1.0"?><svg xmlns="http://www.w3.org/2000/svg" xmlns:xlink= "http://www.w3.org/1999/xlink" style="background: white;" width="1500" height="185"> <g style="color: black; font-size: 13px; font-family: sans-serif; transform: translate(18px, 25px);"><g><circle r="3" cx="-6" cy="-5" style="fill: #B6509E" /><text>Borrow APR, variable</text></g><g style="transform: translateX(150px);"><circle r="3" cx="-6" cy="-5" style="fill: rgb(231, 198, 223)" /><text>Borrow APR, stable</text></g><g style="transform: translateX(290px);"><circle r="3" cx="-6" cy="-5" style="fill: rgb(0, 98, 210)" /><text>Utilization Rate</text></g></g><g class="visx-group" transform="translate(40, 50)"><g class="visx-group visx-rows" transform="translate(0, 0)"><line class="visx-line" x1="0" y1="115" x2="1450" y2="115" fill="transparent" shape-rendering="crispEdges" stroke="#000" stroke-width="1" stroke-dasharray="3,3" pointer-events="none"></line><line class="visx-line" x1="0" y1="67.08333333333333" x2="1450" y2="67.08333333333333" fill="transparent" shape-rendering="crispEdges" stroke="#000" stroke-width="1" stroke-dasharray="3,3" pointer-events="none"></line><line class="visx-line" x1="0" y1="19.16666666666666" x2="1450" y2="19.16666666666666" fill="transparent" shape-rendering="crispEdges" stroke="#000" stroke-width="1" stroke-dasharray="3,3" pointer-events="none"></line></g><path class="visx-linepath" d="M0,114.99999999992814C2.4166666666666665,114.98802083329142,4.833333333333334,114.97604166665468,7.25,114.9640625C9.666666666666666,114.95208333334531,12.083333333333334,114.94010416666667,14.5,114.92812500000001C16.916666666666668,114.91614583333335,19.333333333333332,114.90416666666665,21.75,114.89218749999999C24.166666666666668,114.88020833333333,26.583333333333332,114.86822916666667,29,114.85625C31.416666666666668,114.84427083333334,33.833333333333336,114.83229166666666,36.25,114.8203125C38.666666666666664,114.80833333333334,41.083333333333336,114.79635416666667,43.5,114.78437500000001C45.91666666666667,114.77239583333335,48.333333333333336,114.76041666666666,50.75000000000001,114.7484375C53.16666666666667,114.73645833333333,55.583333333333336,114.72447916666667,58,114.7125C60.416666666666664,114.70052083333334,62.833333333333336,114.68854166666667,65.25,114.6765625C67.66666666666667,114.66458333333334,70.08333333333333,114.65260416666666,72.5,114.640625C74.91666666666667,114.62864583333334,77.33333333333333,114.61666666666666,79.75,114.6046875C82.16666666666667,114.59270833333333,84.58333333333333,114.58072916666666,87,114.56875C89.41666666666667,114.55677083333333,91.83333333333333,114.54479166666667,94.25,114.5328125C96.66666666666667,114.52083333333334,99.08333333333334,114.50885416666667,101.50000000000001,114.496875C103.91666666666667,114.48489583333334,106.33333333333334,114.47291666666666,108.75,114.4609375C111.16666666666667,114.44895833333334,113.58333333333333,114.43697916666666,116,114.425C118.41666666666667,114.41302083333333,120.83333333333334,114.40104166666666,123.25000000000001,114.3890625C125.66666666666667,114.37708333333333,128.08333333333334,114.36510416666667,130.5,114.353125C132.91666666666666,114.34114583333334,135.33333333333334,114.32916666666665,137.75,114.31718749999999C140.16666666666666,114.30520833333333,142.58333333333334,114.29322916666666,145,114.28125C147.41666666666666,114.26927083333334,149.83333333333334,114.25729166666666,152.25,114.2453125C154.66666666666666,114.23333333333333,157.08333333333334,114.22135416666667,159.5,114.20937500000001C161.91666666666666,114.19739583333335,164.33333333333334,114.18541666666665,166.75,114.17343749999999C169.16666666666666,114.16145833333333,171.58333333333334,114.14947916666667,174,114.1375C176.41666666666666,114.12552083333334,178.83333333333334,114.11354166666666,181.25,114.1015625C183.66666666666666,114.08958333333334,186.08333333333334,114.07760416666666,188.5,114.065625C190.91666666666666,114.05364583333333,193.33333333333334,114.04166666666667,195.75,114.02968750000001C198.16666666666669,114.01770833333335,200.58333333333334,114.00572916666665,203.00000000000003,113.99374999999999C205.41666666666669,113.98177083333333,207.83333333333331,113.96979166666667,210.24999999999997,113.9578125C212.66666666666666,113.94583333333334,215.08333333333331,113.93385416666666,217.5,113.921875C219.91666666666666,113.90989583333334,222.33333333333334,113.89791666666667,224.75,113.88593750000001C227.16666666666666,113.87395833333335,229.58333333333334,113.86197916666666,232,113.85C234.41666666666666,113.83802083333333,236.83333333333334,113.82604166666667,239.25,113.8140625C241.66666666666669,113.80208333333334,244.08333333333334,113.79010416666667,246.50000000000003,113.778125C248.91666666666669,113.76614583333334,251.33333333333331,113.75416666666666,253.74999999999997,113.7421875C256.16666666666663,113.73020833333334,258.5833333333333,113.71822916666666,261,113.70625C263.4166666666667,113.69427083333333,265.8333333333333,113.68229166666666,268.25,113.6703125C270.6666666666667,113.65833333333333,273.0833333333333,113.64635416666667,275.5,113.634375C277.9166666666667,113.62239583333334,280.3333333333333,113.61041666666667,282.75,113.5984375C285.1666666666667,113.58645833333334,287.5833333333333,113.57447916666666,290,113.5625C292.4166666666667,113.55052083333334,294.8333333333333,113.53854166666666,297.25,113.5265625C299.6666666666667,113.51458333333333,302.0833333333333,113.50260416666666,304.5,113.490625C306.9166666666667,113.47864583333333,309.3333333333333,113.46666666666667,311.75,113.4546875C314.1666666666667,113.44270833333334,316.5833333333333,113.43072916666665,319,113.41874999999999C321.4166666666667,113.40677083333333,323.8333333333333,113.39479166666666,326.25,113.3828125C328.6666666666667,113.37083333333334,331.0833333333333,113.35885416666666,333.5,113.346875C335.9166666666667,113.33489583333333,338.3333333333333,113.32291666666667,340.75,113.31093750000001C343.1666666666667,113.29895833333335,345.5833333333333,113.28697916666665,348,113.27499999999999C350.4166666666667,113.26302083333333,352.8333333333333,113.25104166666667,355.25,113.2390625C357.6666666666667,113.22708333333334,360.0833333333333,113.21510416666666,362.5,113.203125C364.9166666666667,113.19114583333334,367.3333333333333,113.17916666666666,369.75,113.1671875C372.1666666666667,113.15520833333333,374.5833333333333,113.14322916666667,377,113.13125000000001C379.4166666666667,113.11927083333335,381.8333333333333,113.10729166666665,384.25,113.09531249999999C386.6666666666667,113.08333333333333,389.0833333333333,113.07135416666667,391.5,113.059375C393.9166666666667,113.04739583333334,396.33333333333337,113.03541666666666,398.75000000000006,113.0234375C401.16666666666674,113.01145833333334,403.58333333333337,112.99947916666667,406.00000000000006,112.98750000000001C408.4166666666667,112.97552083333335,410.8333333333333,112.96354166666666,413.24999999999994,112.9515625C415.66666666666663,112.93958333333333,418.08333333333326,112.92760416666667,420.49999999999994,112.915625C422.91666666666663,112.90364583333334,425.3333333333333,112.89166666666667,427.75,112.8796875C430.1666666666667,112.86770833333334,432.5833333333333,112.85572916666666,435,112.84375C437.4166666666667,112.83177083333334,439.8333333333333,112.81979166666666,442.25,112.8078125C444.6666666666667,112.79583333333333,447.0833333333333,112.78385416666666,449.5,112.771875C451.9166666666667,112.75989583333333,454.3333333333333,112.74791666666667,456.75,112.7359375C459.1666666666667,112.72395833333334,461.5833333333333,112.71197916666667,464,112.7C466.4166666666667,112.68802083333334,468.8333333333333,112.67604166666666,471.25,112.6640625C473.6666666666667,112.65208333333334,476.0833333333333,112.64010416666666,478.5,112.628125C480.9166666666667,112.61614583333333,483.33333333333337,112.60416666666666,485.75000000000006,112.5921875C488.16666666666674,112.58020833333333,490.58333333333337,112.56822916666667,493.00000000000006,112.55625C495.4166666666667,112.54427083333334,497.8333333333333,112.53229166666665,500.24999999999994,112.52031249999999C502.66666666666663,112.50833333333333,505.08333333333326,112.49635416666666,507.49999999999994,112.484375C509.91666666666663,112.47239583333334,512.3333333333333,112.46041666666666,514.75,112.4484375C517.1666666666666,112.43645833333333,519.5833333333334,112.42447916666667,522,112.41250000000001C524.4166666666666,112.40052083333335,526.8333333333334,112.38854166666665,529.25,112.37656249999999C531.6666666666666,112.36458333333333,534.0833333333334,112.35260416666667,536.5,112.340625C538.9166666666666,112.32864583333334,541.3333333333334,112.31666666666666,543.75,112.3046875C546.1666666666666,112.29270833333334,548.5833333333334,112.28072916666666,551,112.26875C553.4166666666666,112.25677083333333,555.8333333333334,112.24479166666667,558.25,112.23281250000001C560.6666666666666,112.22083333333335,563.0833333333334,112.20885416666665,565.5,112.19687499999999C567.9166666666666,112.18489583333333,570.3333333333334,112.17291666666667,572.75,112.1609375C575.1666666666666,112.14895833333334,577.5833333333334,112.13697916666666,580,112.125C582.4166666666666,112.11302083333334,584.8333333333334,112.10104166666667,587.25,112.08906250000001C589.6666666666666,112.07708333333335,592.0833333333334,112.06510416666666,594.5,112.053125C596.9166666666666,112.04114583333333,599.3333333333334,112.02916666666667,601.75,112.0171875C604.1666666666666,112.00520833333334,606.5833333333334,111.99322916666667,609,111.98125C611.4166666666666,111.96927083333334,613.8333333333334,111.95729166666666,616.25,111.9453125C618.6666666666666,111.93333333333334,621.0833333333334,111.92135416666666,623.5,111.909375C625.9166666666666,111.89739583333333,628.3333333333334,111.88541666666666,630.75,111.8734375C633.1666666666666,111.86145833333333,635.5833333333334,111.84947916666667,638,111.8375C640.4166666666666,111.82552083333334,642.8333333333334,111.81354166666667,645.25,111.8015625C647.6666666666666,111.78958333333334,650.0833333333334,111.77760416666666,652.5,111.765625C654.9166666666666,111.75364583333334,657.3333333333334,111.74166666666666,659.75,111.7296875C662.1666666666666,111.71770833333333,664.5833333333334,111.70572916666666,667,111.69375C669.4166666666666,111.68177083333333,671.8333333333334,111.66979166666667,674.25,111.6578125C676.6666666666666,111.64583333333334,679.0833333333334,111.63385416666665,681.5,111.62187499999999C683.9166666666666,111.60989583333333,686.3333333333334,111.59791666666666,688.75,111.5859375C691.1666666666666,111.57395833333334,693.5833333333334,111.56197916666666,696,111.55C698.4166666666666,111.53802083333333,700.8333333333334,111.52604166666667,703.25,111.51406250000001C705.6666666666666,111.50208333333335,708.0833333333334,111.49010416666665,710.5,111.47812499999999C712.9166666666666,111.46614583333333,715.3333333333334,111.45416666666667,717.75,111.4421875C720.1666666666666,111.43020833333334,722.5833333333334,111.41822916666666,725,111.40625C727.4166666666666,111.39427083333334,729.8333333333334,111.38229166666666,732.25,111.3703125C734.6666666666666,111.35833333333333,737.0833333333334,111.34635416666667,739.5,111.33437500000001C741.9166666666666,111.32239583333335,744.3333333333334,111.31041666666665,746.75,111.29843749999999C749.1666666666666,111.28645833333333,751.5833333333334,111.27447916666667,754,111.2625C756.4166666666666,111.25052083333334,758.8333333333334,111.23854166666666,761.25,111.2265625C763.6666666666666,111.21458333333334,766.0833333333334,111.20260416666667,768.5,111.19062500000001C770.9166666666666,111.17864583333335,773.3333333333334,111.16666666666666,775.75,111.1546875C778.1666666666666,111.14270833333333,780.5833333333334,111.13072916666667,783,111.11875C785.4166666666667,111.10677083333334,787.8333333333334,111.09479166666667,790.2500000000001,111.0828125C792.6666666666667,111.07083333333334,795.0833333333335,111.05885416666666,797.5000000000001,111.046875C799.9166666666667,111.03489583333334,802.3333333333335,111.02291666666666,804.7500000000001,111.0109375C807.1666666666667,110.99895833333333,809.5833333333335,110.98697916666666,812.0000000000001,110.975C814.4166666666667,110.96302083333333,816.8333333333333,110.95104166666667,819.2499999999999,110.9390625C821.6666666666665,110.92708333333334,824.0833333333333,110.91510416666667,826.4999999999999,110.903125C828.9166666666665,110.89114583333334,831.3333333333333,110.87916666666666,833.7499999999999,110.8671875C836.1666666666665,110.85520833333334,838.5833333333333,110.84322916666666,840.9999999999999,110.83125C843.4166666666666,110.81927083333333,845.8333333333333,110.80729166666667,848.25,110.79531250000001C850.6666666666666,110.78333333333335,853.0833333333334,110.77135416666667,855.5,110.759375C857.9166666666666,110.74739583333334,860.3333333333334,110.73541666666665,862.75,110.72343749999999C865.1666666666666,110.71145833333333,867.5833333333334,110.69947916666666,870,110.6875C872.4166666666666,110.67552083333334,874.8333333333334,110.66354166666666,877.25,110.6515625C879.6666666666666,110.63958333333333,882.0833333333334,110.62760416666667,884.5,110.61562500000001C886.9166666666666,110.60364583333335,889.3333333333334,110.59166666666665,891.75,110.57968749999999C894.1666666666666,110.56770833333333,896.5833333333334,110.55572916666667,899,110.54375C901.4166666666666,110.53177083333334,903.8333333333334,110.51979166666666,906.25,110.5078125C908.6666666666666,110.49583333333334,911.0833333333334,110.48385416666666,913.5,110.471875C915.9166666666666,110.45989583333333,918.3333333333334,110.44791666666667,920.75,110.43593750000001C923.1666666666666,110.42395833333335,925.5833333333334,110.41197916666665,928,110.39999999999999C930.4166666666666,110.38802083333333,932.8333333333334,110.37604166666667,935.25,110.3640625C937.6666666666666,110.35208333333334,940.0833333333334,110.34010416666666,942.5,110.328125C944.9166666666666,110.31614583333334,947.3333333333334,110.30416666666667,949.75,110.29218750000001C952.1666666666666,110.28020833333335,954.5833333333334,110.26822916666666,957,110.25625C959.4166666666666,110.24427083333333,961.8333333333334,110.23229166666665,964.25,110.22031249999999C966.6666666666667,110.20833333333333,969.0833333333334,110.19635416666667,971.5000000000001,110.184375C973.9166666666667,110.17239583333334,976.3333333333335,110.16041666666666,978.7500000000001,110.1484375C981.1666666666667,110.13645833333334,983.5833333333335,110.12447916666666,986.0000000000001,110.1125C988.4166666666667,110.10052083333333,990.8333333333335,110.08854166666666,993.2500000000001,110.0765625C995.6666666666667,110.06458333333333,998.0833333333333,110.05260416666667,1000.4999999999999,110.040625C1002.9166666666665,110.02864583333334,1005.3333333333333,110.01666666666667,1007.7499999999999,110.0046875C1010.1666666666665,109.99270833333334,1012.5833333333333,109.98072916666666,1014.9999999999999,109.96875C1017.4166666666665,109.95677083333334,1019.8333333333333,109.94479166666666,1022.2499999999999,109.9328125C1024.6666666666665,109.92083333333333,1027.0833333333333,109.90885416666666,1029.5,109.896875C1031.9166666666667,109.88489583333333,1034.3333333333333,109.87291666666667,1036.75,109.8609375C1039.1666666666667,109.84895833333334,1041.5833333333333,109.83697916666665,1044,109.82499999999999C1046.4166666666667,109.81302083333333,1048.8333333333333,109.80104166666666,1051.25,109.7890625C1053.6666666666667,109.77708333333334,1056.0833333333333,109.76510416666666,1058.5,109.753125C1060.9166666666667,109.74114583333333,1063.3333333333333,109.72916666666667,1065.75,109.71718750000001C1068.1666666666667,109.70520833333335,1070.5833333333333,109.69322916666665,1073,109.68124999999999C1075.4166666666667,109.66927083333333,1077.8333333333333,109.65729166666667,1080.25,109.6453125C1082.6666666666667,109.63333333333334,1085.0833333333333,109.62135416666666,1087.5,109.609375C1089.9166666666667,109.59739583333334,1092.3333333333333,109.58541666666666,1094.75,109.5734375C1097.1666666666667,109.56145833333333,1099.5833333333333,109.54947916666667,1102,109.53750000000001C1104.4166666666667,109.52552083333335,1106.8333333333333,109.51354166666665,1109.25,109.50156249999999C1111.6666666666667,109.48958333333333,1114.0833333333333,109.47760416666667,1116.5,109.465625C1118.9166666666667,109.45364583333334,1121.3333333333333,109.44166666666666,1123.75,109.4296875C1126.1666666666667,109.41770833333334,1128.5833333333333,109.40572916666667,1131,109.39375000000001C1133.4166666666667,109.38177083333335,1135.8333333333333,109.36979166666666,1138.25,109.3578125C1140.6666666666667,109.34583333333333,1143.0833333333333,109.33385416666667,1145.5,109.321875C1147.9166666666667,109.30989583333334,1150.3333333333333,109.29791666666667,1152.75,109.2859375C1155.1666666666667,109.27395833333334,1157.5833333333333,109.27395833333334,1160,109.25C1162.4166666666667,109.22604166666666,1164.8333333333333,107.65277777777779,1167.25,106.85416666666667C1169.6666666666667,106.05555555555556,1172.0833333333333,105.25694444444444,1174.5,104.45833333333333C1176.9166666666667,103.65972222222221,1179.3333333333333,102.86111111111111,1181.75,102.0625C1184.1666666666667,101.26388888888889,1186.5833333333333,100.46527777777779,1189,99.66666666666667C1191.4166666666667,98.86805555555556,1193.8333333333333,98.06944444444444,1196.25,97.27083333333333C1198.6666666666667,96.47222222222221,1201.0833333333333,95.67361111111111,1203.5,94.875C1205.9166666666667,94.07638888888889,1208.3333333333333,93.27777777777779,1210.75,92.47916666666667C1213.1666666666667,91.68055555555556,1215.5833333333333,90.88194444444444,1218,90.08333333333333C1220.4166666666667,89.28472222222221,1222.8333333333333,88.48611111111113,1225.25,87.68750000000001C1227.6666666666667,86.8888888888889,1230.0833333333333,86.09027777777779,1232.5,85.29166666666667C1234.9166666666667,84.49305555555556,1237.3333333333333,83.69444444444444,1239.75,82.89583333333333C1242.1666666666667,82.09722222222221,1244.5833333333333,81.29861111111111,1247,80.5C1249.4166666666667,79.70138888888889,1251.8333333333333,78.90277777777779,1254.25,78.10416666666667C1256.6666666666667,77.30555555555556,1259.0833333333333,76.50694444444444,1261.5,75.70833333333333C1263.9166666666667,74.90972222222221,1266.3333333333333,74.11111111111111,1268.75,73.3125C1271.1666666666667,72.51388888888889,1273.5833333333333,71.71527777777779,1276,70.91666666666667C1278.4166666666667,70.11805555555556,1280.8333333333333,69.31944444444444,1283.25,68.52083333333333C1285.6666666666667,67.72222222222221,1288.0833333333333,66.92361111111111,1290.5,66.125C1292.9166666666667,65.32638888888889,1295.3333333333333,64.52777777777779,1297.75,63.72916666666667C1300.1666666666667,62.93055555555556,1302.5833333333333,62.131944444444436,1305,61.33333333333332C1307.4166666666667,60.53472222222221,1309.8333333333333,59.7361111111111,1312.25,58.93749999999999C1314.6666666666667,58.138888888888886,1317.0833333333333,57.34027777777778,1319.5,56.54166666666667C1321.9166666666667,55.743055555555564,1324.3333333333333,54.94444444444445,1326.75,54.145833333333336C1329.1666666666667,53.34722222222222,1331.5833333333333,52.5486111111111,1334,51.74999999999999C1336.4166666666667,50.951388888888886,1338.8333333333333,50.15277777777778,1341.25,49.35416666666667C1343.6666666666667,48.555555555555564,1346.0833333333333,47.75694444444445,1348.5,46.958333333333336C1350.9166666666667,46.15972222222222,1353.3333333333333,45.3611111111111,1355.75,44.56249999999999C1358.1666666666667,43.763888888888886,1360.5833333333333,42.96527777777778,1363,42.16666666666667C1365.4166666666667,41.368055555555564,1367.8333333333333,40.56944444444445,1370.25,39.770833333333336C1372.6666666666667,38.97222222222222,1375.0833333333333,38.1736111111111,1377.5,37.37499999999999C1379.9166666666667,36.576388888888886,1382.3333333333333,35.77777777777778,1384.75,34.97916666666667C1387.1666666666667,34.180555555555564,1389.5833333333333,33.38194444444445,1392,32.583333333333336C1394.4166666666667,31.784722222222225,1396.8333333333333,30.986111111111107,1399.25,30.187499999999996C1401.6666666666667,29.388888888888886,1404.0833333333333,28.590277777777782,1406.5,27.79166666666667C1408.9166666666667,26.99305555555556,1411.3333333333333,26.194444444444443,1413.75,25.395833333333332C1416.1666666666667,24.59722222222222,1418.5833333333333,23.798611111111107,1421,22.999999999999996C1423.4166666666667,22.201388888888886,1425.8333333333333,21.402777777777782,1428.25,20.60416666666667C1430.6666666666667,19.80555555555556,1433.0833333333333,19.006944444444443,1435.5,18.208333333333332C1437.9166666666667,17.40972222222222,1440.3333333333333,16.611111111111118,1442.75,15.812500000000007C1445.1666666666667,15.013888888888896,1447.5833333333333,14.215277777777784,1450,13.41666666666667" fill="transparent" stroke-linecap="round" stroke="#B6509E" stroke-width="2"></path><path class="visx-linepath" d="M0,105.41666666664271C2.4166666666666665,105.41267361109713,4.833333333333334,105.40868055555156,7.25,105.4046875C9.666666666666666,105.40069444444843,12.083333333333334,105.39670138888889,14.5,105.39270833333333C16.916666666666668,105.38871527777778,19.333333333333332,105.38472222222222,21.75,105.38072916666667C24.166666666666668,105.37673611111111,26.583333333333332,105.37274305555556,29,105.36875C31.416666666666668,105.36475694444445,33.833333333333336,105.36076388888888,36.25,105.35677083333333C38.666666666666664,105.35277777777777,41.083333333333336,105.34878472222222,43.5,105.34479166666667C45.91666666666667,105.34079861111111,48.333333333333336,105.33680555555554,50.75000000000001,105.33281249999999C53.16666666666667,105.32881944444443,55.583333333333336,105.32482638888888,58,105.32083333333333C60.416666666666664,105.31684027777777,62.833333333333336,105.31284722222223,65.25,105.30885416666668C67.66666666666667,105.30486111111112,70.08333333333333,105.30086805555555,72.5,105.296875C74.91666666666667,105.29288194444445,77.33333333333333,105.28888888888889,79.75,105.28489583333334C82.16666666666667,105.28090277777778,84.58333333333333,105.27690972222221,87,105.27291666666666C89.41666666666667,105.2689236111111,91.83333333333333,105.26493055555555,94.25,105.2609375C96.66666666666667,105.25694444444444,99.08333333333334,105.25295138888889,101.50000000000001,105.24895833333333C103.91666666666667,105.24496527777778,106.33333333333334,105.24097222222221,108.75,105.23697916666666C111.16666666666667,105.2329861111111,113.58333333333333,105.22899305555556,116,105.22500000000001C118.41666666666667,105.22100694444445,120.83333333333334,105.21701388888889,123.25000000000001,105.21302083333333C125.66666666666667,105.20902777777778,128.08333333333334,105.20503472222222,130.5,105.20104166666667C132.91666666666666,105.19704861111111,135.33333333333334,105.19305555555555,137.75,105.18906249999999C140.16666666666666,105.18506944444444,142.58333333333334,105.18107638888888,145,105.17708333333333C147.41666666666666,105.17309027777777,149.83333333333334,105.16909722222223,152.25,105.16510416666668C154.66666666666666,105.16111111111113,157.08333333333334,105.15711805555556,159.5,105.153125C161.91666666666666,105.14913194444445,164.33333333333334,105.1451388888889,166.75,105.14114583333334C169.16666666666666,105.13715277777779,171.58333333333334,105.13315972222222,174,105.12916666666666C176.41666666666666,105.12517361111111,178.83333333333334,105.12118055555555,181.25,105.1171875C183.66666666666666,105.11319444444445,186.08333333333334,105.10920138888889,188.5,105.10520833333334C190.91666666666666,105.10121527777778,193.33333333333334,105.09722222222221,195.75,105.09322916666666C198.16666666666669,105.0892361111111,200.58333333333334,105.08524305555557,203.00000000000003,105.08125000000001C205.41666666666669,105.07725694444446,207.83333333333331,105.07326388888889,210.24999999999997,105.06927083333333C212.66666666666666,105.06527777777778,215.08333333333331,105.06128472222223,217.5,105.05729166666667C219.91666666666666,105.05329861111112,222.33333333333334,105.04930555555556,224.75,105.04531250000001C227.16666666666666,105.04131944444445,229.58333333333334,105.03732638888889,232,105.03333333333333C234.41666666666666,105.02934027777778,236.83333333333334,105.02534722222222,239.25,105.02135416666667C241.66666666666669,105.01736111111111,244.08333333333334,105.01336805555555,246.50000000000003,105.00937499999999C248.91666666666669,105.00538194444444,251.33333333333331,105.0013888888889,253.74999999999997,104.99739583333334C256.16666666666663,104.99340277777779,258.5833333333333,104.98940972222222,261,104.98541666666667C263.4166666666667,104.98142361111111,265.8333333333333,104.97743055555556,268.25,104.9734375C270.6666666666667,104.96944444444445,273.0833333333333,104.9654513888889,275.5,104.96145833333334C277.9166666666667,104.95746527777779,280.3333333333333,104.95347222222222,282.75,104.94947916666666C285.1666666666667,104.94548611111111,287.5833333333333,104.94149305555555,290,104.9375C292.4166666666667,104.93350694444445,294.8333333333333,104.92951388888888,297.25,104.92552083333332C299.6666666666667,104.92152777777777,302.0833333333333,104.91753472222223,304.5,104.91354166666667C306.9166666666667,104.90954861111112,309.3333333333333,104.90555555555557,311.75,104.90156250000001C314.1666666666667,104.89756944444446,316.5833333333333,104.89357638888889,319,104.88958333333333C321.4166666666667,104.88559027777778,323.8333333333333,104.88159722222223,326.25,104.87760416666667C328.6666666666667,104.87361111111112,331.0833333333333,104.86961805555555,333.5,104.865625C335.9166666666667,104.86163194444444,338.3333333333333,104.85763888888889,340.75,104.85364583333333C343.1666666666667,104.84965277777778,345.5833333333333,104.84565972222222,348,104.84166666666667C350.4166666666667,104.83767361111111,352.8333333333333,104.83368055555556,355.25,104.8296875C357.6666666666667,104.82569444444445,360.0833333333333,104.8217013888889,362.5,104.81770833333334C364.9166666666667,104.81371527777779,367.3333333333333,104.80972222222222,369.75,104.80572916666667C372.1666666666667,104.80173611111111,374.5833333333333,104.79774305555556,377,104.79375C379.4166666666667,104.78975694444445,381.8333333333333,104.78576388888888,384.25,104.78177083333333C386.6666666666667,104.77777777777777,389.0833333333333,104.77378472222222,391.5,104.76979166666666C393.9166666666667,104.76579861111111,396.33333333333337,104.76180555555555,398.75000000000006,104.7578125C401.16666666666674,104.75381944444445,403.58333333333337,104.74982638888889,406.00000000000006,104.74583333333334C408.4166666666667,104.74184027777778,410.8333333333333,104.73784722222223,413.24999999999994,104.73385416666667C415.66666666666663,104.72986111111112,418.08333333333326,104.72586805555555,420.49999999999994,104.721875C422.91666666666663,104.71788194444444,425.3333333333333,104.71388888888889,427.75,104.70989583333333C430.1666666666667,104.70590277777778,432.5833333333333,104.70190972222223,435,104.69791666666667C437.4166666666667,104.69392361111112,439.8333333333333,104.68993055555555,442.25,104.6859375C444.6666666666667,104.68194444444444,447.0833333333333,104.67795138888889,449.5,104.67395833333333C451.9166666666667,104.66996527777778,454.3333333333333,104.66597222222222,456.75,104.66197916666667C459.1666666666667,104.65798611111111,461.5833333333333,104.65399305555556,464,104.65C466.4166666666667,104.64600694444445,468.8333333333333,104.64201388888888,471.25,104.63802083333333C473.6666666666667,104.63402777777777,476.0833333333333,104.63003472222222,478.5,104.62604166666667C480.9166666666667,104.62204861111111,483.33333333333337,104.61805555555556,485.75000000000006,104.6140625C488.16666666666674,104.61006944444445,490.58333333333337,104.60607638888888,493.00000000000006,104.60208333333333C495.4166666666667,104.59809027777777,497.8333333333333,104.59409722222222,500.24999999999994,104.59010416666666C502.66666666666663,104.58611111111111,505.08333333333326,104.58211805555555,507.49999999999994,104.578125C509.91666666666663,104.57413194444445,512.3333333333333,104.57013888888889,514.75,104.56614583333334C517.1666666666666,104.56215277777778,519.5833333333334,104.55815972222223,522,104.55416666666667C524.4166666666666,104.55017361111112,526.8333333333334,104.54618055555555,529.25,104.5421875C531.6666666666666,104.53819444444444,534.0833333333334,104.53420138888889,536.5,104.53020833333333C538.9166666666666,104.52621527777778,541.3333333333334,104.52222222222221,543.75,104.51822916666666C546.1666666666666,104.5142361111111,548.5833333333334,104.51024305555555,551,104.50625C553.4166666666666,104.50225694444444,555.8333333333334,104.49826388888889,558.25,104.49427083333333C560.6666666666666,104.49027777777778,563.0833333333334,104.48628472222222,565.5,104.48229166666667C567.9166666666666,104.47829861111111,570.3333333333334,104.47430555555556,572.75,104.4703125C575.1666666666666,104.46631944444445,577.5833333333334,104.46232638888888,580,104.45833333333333C582.4166666666666,104.45434027777777,584.8333333333334,104.45034722222222,587.25,104.44635416666667C589.6666666666666,104.44236111111111,592.0833333333334,104.43836805555554,594.5,104.43437499999999C596.9166666666666,104.43038194444443,599.3333333333334,104.42638888888888,601.75,104.42239583333333C604.1666666666666,104.41840277777777,606.5833333333334,104.41440972222223,609,104.41041666666668C611.4166666666666,104.40642361111112,613.8333333333334,104.40243055555555,616.25,104.3984375C618.6666666666666,104.39444444444445,621.0833333333334,104.39045138888889,623.5,104.38645833333334C625.9166666666666,104.38246527777778,628.3333333333334,104.37847222222221,630.75,104.37447916666666C633.1666666666666,104.3704861111111,635.5833333333334,104.36649305555555,638,104.3625C640.4166666666666,104.35850694444444,642.8333333333334,104.35451388888889,645.25,104.35052083333333C647.6666666666666,104.34652777777778,650.0833333333334,104.34253472222221,652.5,104.33854166666666C654.9166666666666,104.3345486111111,657.3333333333334,104.33055555555556,659.75,104.32656250000001C662.1666666666666,104.32256944444445,664.5833333333334,104.31857638888889,667,104.31458333333333C669.4166666666666,104.31059027777778,671.8333333333334,104.30659722222222,674.25,104.30260416666667C676.6666666666666,104.29861111111111,679.0833333333334,104.29461805555555,681.5,104.29062499999999C683.9166666666666,104.28663194444444,686.3333333333334,104.28263888888888,688.75,104.27864583333333C691.1666666666666,104.27465277777777,693.5833333333334,104.27065972222222,696,104.26666666666667C698.4166666666666,104.26267361111111,700.8333333333334,104.25868055555554,703.25,104.25468749999999C705.6666666666666,104.25069444444443,708.0833333333334,104.2467013888889,710.5,104.24270833333334C712.9166666666666,104.23871527777779,715.3333333333334,104.23472222222222,717.75,104.23072916666666C720.1666666666666,104.22673611111111,722.5833333333334,104.22274305555555,725,104.21875C727.4166666666666,104.21475694444445,729.8333333333334,104.21076388888889,732.25,104.20677083333334C734.6666666666666,104.20277777777778,737.0833333333334,104.19878472222221,739.5,104.19479166666666C741.9166666666666,104.1907986111111,744.3333333333334,104.18680555555557,746.75,104.18281250000001C749.1666666666666,104.17881944444446,751.5833333333334,104.17482638888887,754,104.17083333333332C756.4166666666666,104.16684027777777,758.8333333333334,104.16284722222223,761.25,104.15885416666667C763.6666666666666,104.15486111111112,766.0833333333334,104.15086805555556,768.5,104.14687500000001C770.9166666666666,104.14288194444445,773.3333333333334,104.13888888888889,775.75,104.13489583333333C778.1666666666666,104.13090277777778,780.5833333333334,104.12690972222222,783,104.12291666666667C785.4166666666667,104.11892361111111,787.8333333333334,104.11493055555555,790.2500000000001,104.11093749999999C792.6666666666667,104.10694444444444,795.0833333333335,104.1029513888889,797.5000000000001,104.09895833333334C799.9166666666667,104.09496527777779,802.3333333333335,104.09097222222222,804.7500000000001,104.08697916666667C807.1666666666667,104.08298611111111,809.5833333333335,104.07899305555556,812.0000000000001,104.075C814.4166666666667,104.07100694444445,816.8333333333333,104.0670138888889,819.2499999999999,104.06302083333334C821.6666666666665,104.05902777777779,824.0833333333333,104.05503472222222,826.4999999999999,104.05104166666666C828.9166666666665,104.04704861111111,831.3333333333333,104.04305555555555,833.7499999999999,104.0390625C836.1666666666665,104.03506944444445,838.5833333333333,104.03107638888888,840.9999999999999,104.02708333333332C843.4166666666666,104.02309027777777,845.8333333333333,104.01909722222223,848.25,104.01510416666667C850.6666666666666,104.01111111111112,853.0833333333334,104.00711805555557,855.5,104.00312500000001C857.9166666666666,103.99913194444446,860.3333333333334,103.99513888888889,862.75,103.99114583333333C865.1666666666666,103.98715277777778,867.5833333333334,103.98315972222223,870,103.97916666666667C872.4166666666666,103.97517361111112,874.8333333333334,103.97118055555555,877.25,103.9671875C879.6666666666666,103.96319444444444,882.0833333333334,103.95920138888889,884.5,103.95520833333333C886.9166666666666,103.95121527777778,889.3333333333334,103.94722222222222,891.75,103.94322916666667C894.1666666666666,103.93923611111111,896.5833333333334,103.93524305555556,899,103.93125C901.4166666666666,103.92725694444445,903.8333333333334,103.9232638888889,906.25,103.91927083333334C908.6666666666666,103.91527777777779,911.0833333333334,103.91128472222222,913.5,103.90729166666667C915.9166666666666,103.90329861111111,918.3333333333334,103.89930555555556,920.75,103.8953125C923.1666666666666,103.89131944444445,925.5833333333334,103.88732638888888,928,103.88333333333333C930.4166666666666,103.87934027777777,932.8333333333334,103.87534722222222,935.25,103.87135416666666C937.6666666666666,103.86736111111111,940.0833333333334,103.86336805555555,942.5,103.859375C944.9166666666666,103.85538194444445,947.3333333333334,103.85138888888889,949.75,103.84739583333334C952.1666666666666,103.84340277777778,954.5833333333334,103.83940972222223,957,103.83541666666667C959.4166666666666,103.83142361111112,961.8333333333334,103.82743055555555,964.25,103.8234375C966.6666666666667,103.81944444444444,969.0833333333334,103.81545138888889,971.5000000000001,103.81145833333333C973.9166666666667,103.80746527777778,976.3333333333335,103.80347222222223,978.7500000000001,103.79947916666667C981.1666666666667,103.79548611111112,983.5833333333335,103.79149305555555,986.0000000000001,103.7875C988.4166666666667,103.78350694444444,990.8333333333335,103.77951388888889,993.2500000000001,103.77552083333333C995.6666666666667,103.77152777777778,998.0833333333333,103.76753472222222,1000.4999999999999,103.76354166666667C1002.9166666666665,103.75954861111111,1005.3333333333333,103.75555555555556,1007.7499999999999,103.7515625C1010.1666666666665,103.74756944444445,1012.5833333333333,103.74357638888888,1014.9999999999999,103.73958333333333C1017.4166666666665,103.73559027777777,1019.8333333333333,103.73159722222222,1022.2499999999999,103.72760416666667C1024.6666666666665,103.72361111111111,1027.0833333333333,103.71961805555556,1029.5,103.715625C1031.9166666666667,103.71163194444445,1034.3333333333333,103.70763888888888,1036.75,103.70364583333333C1039.1666666666667,103.69965277777777,1041.5833333333333,103.69565972222222,1044,103.69166666666666C1046.4166666666667,103.68767361111111,1048.8333333333333,103.68368055555555,1051.25,103.6796875C1053.6666666666667,103.67569444444445,1056.0833333333333,103.67170138888889,1058.5,103.66770833333334C1060.9166666666667,103.66371527777778,1063.3333333333333,103.65972222222223,1065.75,103.65572916666667C1068.1666666666667,103.65173611111112,1070.5833333333333,103.64774305555555,1073,103.64375C1075.4166666666667,103.63975694444444,1077.8333333333333,103.63576388888889,1080.25,103.63177083333333C1082.6666666666667,103.62777777777778,1085.0833333333333,103.62378472222221,1087.5,103.61979166666666C1089.9166666666667,103.6157986111111,1092.3333333333333,103.61180555555555,1094.75,103.6078125C1097.1666666666667,103.60381944444444,1099.5833333333333,103.59982638888889,1102,103.59583333333333C1104.4166666666667,103.59184027777778,1106.8333333333333,103.58784722222222,1109.25,103.58385416666667C1111.6666666666667,103.57986111111111,1114.0833333333333,103.57586805555556,1116.5,103.571875C1118.9166666666667,103.56788194444445,1121.3333333333333,103.56388888888888,1123.75,103.55989583333333C1126.1666666666667,103.55590277777777,1128.5833333333333,103.55190972222222,1131,103.54791666666667C1133.4166666666667,103.54392361111111,1135.8333333333333,103.53993055555554,1138.25,103.53593749999999C1140.6666666666667,103.53194444444443,1143.0833333333333,103.52795138888888,1145.5,103.52395833333333C1147.9166666666667,103.51996527777777,1150.3333333333333,103.51597222222223,1152.75,103.51197916666668C1155.1666666666667,103.50798611111112,1157.5833333333333,103.50798611111112,1160,103.5C1162.4166666666667,103.49201388888888,1164.8333333333333,102.30208333333333,1167.25,101.703125C1169.6666666666667,101.10416666666667,1172.0833333333333,100.50520833333333,1174.5,99.90625C1176.9166666666667,99.30729166666667,1179.3333333333333,98.70833333333333,1181.75,98.109375C1184.1666666666667,97.51041666666667,1186.5833333333333,96.91145833333333,1189,96.3125C1191.4166666666667,95.71354166666667,1193.8333333333333,95.11458333333333,1196.25,94.515625C1198.6666666666667,93.91666666666667,1201.0833333333333,93.31770833333333,1203.5,92.71875C1205.9166666666667,92.11979166666667,1208.3333333333333,91.52083333333333,1210.75,90.921875C1213.1666666666667,90.32291666666667,1215.5833333333333,89.72395833333333,1218,89.125C1220.4166666666667,88.52604166666667,1222.8333333333333,87.92708333333333,1225.25,87.328125C1227.6666666666667,86.72916666666667,1230.0833333333333,86.13020833333333,1232.5,85.53125C1234.9166666666667,84.93229166666667,1237.3333333333333,84.33333333333333,1239.75,83.734375C1242.1666666666667,83.13541666666667,1244.5833333333333,82.53645833333333,1247,81.9375C1249.4166666666667,81.33854166666667,1251.8333333333333,80.73958333333333,1254.25,80.140625C1256.6666666666667,79.54166666666667,1259.0833333333333,78.94270833333333,1261.5,78.34375C1263.9166666666667,77.74479166666667,1266.3333333333333,77.14583333333333,1268.75,76.546875C1271.1666666666667,75.94791666666667,1273.5833333333333,75.34895833333333,1276,74.75C1278.4166666666667,74.15104166666667,1280.8333333333333,73.55208333333333,1283.25,72.953125C1285.6666666666667,72.35416666666667,1288.0833333333333,71.75520833333333,1290.5,71.15625C1292.9166666666667,70.55729166666667,1295.3333333333333,69.95833333333333,1297.75,69.359375C1300.1666666666667,68.76041666666667,1302.5833333333333,68.16145833333334,1305,67.5625C1307.4166666666667,66.96354166666666,1309.8333333333333,66.36458333333331,1312.25,65.76562499999999C1314.6666666666667,65.16666666666666,1317.0833333333333,64.56770833333333,1319.5,63.96875C1321.9166666666667,63.36979166666667,1324.3333333333333,62.77083333333333,1326.75,62.171875C1329.1666666666667,61.57291666666667,1331.5833333333333,60.97395833333335,1334,60.375000000000014C1336.4166666666667,59.77604166666668,1338.8333333333333,59.177083333333336,1341.25,58.578125C1343.6666666666667,57.979166666666664,1346.0833333333333,57.38020833333333,1348.5,56.78124999999999C1350.9166666666667,56.18229166666666,1353.3333333333333,55.58333333333333,1355.75,54.984375C1358.1666666666667,54.38541666666667,1360.5833333333333,53.786458333333336,1363,53.1875C1365.4166666666667,52.588541666666664,1367.8333333333333,51.989583333333336,1370.25,51.390625C1372.6666666666667,50.791666666666664,1375.0833333333333,50.192708333333336,1377.5,49.59375C1379.9166666666667,48.994791666666664,1382.3333333333333,48.395833333333336,1384.75,47.796875C1387.1666666666667,47.197916666666664,1389.5833333333333,46.598958333333336,1392,46C1394.4166666666667,45.401041666666664,1396.8333333333333,44.802083333333336,1399.25,44.203125C1401.6666666666667,43.604166666666664,1404.0833333333333,43.005208333333336,1406.5,42.40625C1408.9166666666667,41.807291666666664,1411.3333333333333,41.208333333333336,1413.75,40.609375C1416.1666666666667,40.010416666666664,1418.5833333333333,39.411458333333336,1421,38.8125C1423.4166666666667,38.213541666666664,1425.8333333333333,37.614583333333336,1428.25,37.015625C1430.6666666666667,36.416666666666664,1433.0833333333333,35.817708333333336,1435.5,35.21875C1437.9166666666667,34.619791666666664,1440.3333333333333,34.020833333333336,1442.75,33.421875C1445.1666666666667,32.822916666666664,1447.5833333333333,32.223958333333336,1450,31.625000000000004" fill="transparent" stroke-linecap="round" stroke="#E7C6DF" stroke-width="2"></path><g class="visx-group visx-axis visx-axis-bottom" transform="translate(0, 115)"><g class="visx-group visx-axis-tick" transform="translate(0, 0)"><line class="visx-line" x1="0" y1="0" x2="0" y2="8" fill="transparent" shape-rendering="crispEdges" stroke="#000" stroke-width="0" stroke-linecap="square"></line><svg x="0" y="0" font-size="10" style="overflow:visible"><text transform="" x="0" y="18" fill="#000" font-size="10" text-anchor="middle"><tspan x="0" dy="0em">0%</tspan></text></svg></g><g class="visx-group visx-axis-tick" transform="translate(0, 0)"><line class="visx-line" x1="362.5" y1="0" x2="362.5" y2="8" fill="transparent" shape-rendering="crispEdges" stroke="#000" stroke-width="0" stroke-linecap="square"></line><svg x="0" y="0" font-size="10" style="overflow:visible"><text transform="" x="362.5" y="18" fill="#000" font-size="10" text-anchor="middle"><tspan x="362.5" dy="0em">25%</tspan></text></svg></g><g class="visx-group visx-axis-tick" transform="translate(0, 0)"><line class="visx-line" x1="725" y1="0" x2="725" y2="8" fill="transparent" shape-rendering="crispEdges" stroke="#000" stroke-width="0" stroke-linecap="square"></line><svg x="0" y="0" font-size="10" style="overflow:visible"><text transform="" x="725" y="18" fill="#000" font-size="10" text-anchor="middle"><tspan x="725" dy="0em">50%</tspan></text></svg></g><g class="visx-group visx-axis-tick" transform="translate(0, 0)"><line class="visx-line" x1="1087.5" y1="0" x2="1087.5" y2="8" fill="transparent" shape-rendering="crispEdges" stroke="#000" stroke-width="0" stroke-linecap="square"></line><svg x="0" y="0" font-size="10" style="overflow:visible"><text transform="" x="1087.5" y="18" fill="#000" font-size="10" text-anchor="middle"><tspan x="1087.5" dy="0em">75%</tspan></text></svg></g><g class="visx-group visx-axis-tick" transform="translate(0, 0)"><line class="visx-line" x1="1450" y1="0" x2="1450" y2="8" fill="transparent" shape-rendering="crispEdges" stroke="#000" stroke-width="0" stroke-linecap="square"></line><svg x="0" y="0" font-size="10" style="overflow:visible"><text transform="" x="1450" y="18" fill="#000" font-size="10" text-anchor="middle"><tspan x="1450" dy="0em">100%</tspan></text></svg></g><line class="visx-line visx-axis-line" x1="0.5" y1="0" x2="1450.5" y2="0" fill="transparent" shape-rendering="crispEdges" stroke="#222" stroke-width="0"></line></g><g class="visx-group visx-axis visx-axis-left" transform="translate(0, 0)"><g class="visx-group visx-axis-tick" transform="translate(0, 0)"><line class="visx-line" x1="0" y1="115" x2="-8" y2="115" fill="transparent" shape-rendering="crispEdges" stroke="#222" stroke-width="0" stroke-linecap="square"></line><svg x="-30" y="0" font-size="8" style="overflow:visible"><text transform="" x="-8" y="115" fill="#000" font-size="8" text-anchor="start"><tspan x="-8" dy="0em">0%</tspan></text></svg></g><g class="visx-group visx-axis-tick" transform="translate(0, 0)"><line class="visx-line" x1="0" y1="67.08333333333333" x2="-8" y2="67.08333333333333" fill="transparent" shape-rendering="crispEdges" stroke="#222" stroke-width="0" stroke-linecap="square"></line><svg x="-30" y="0" font-size="8" style="overflow:visible"><text transform="" x="-8" y="67.08333333333333" fill="#000" font-size="8" text-anchor="start"><tspan x="-8" dy="0em">50%</tspan></text></svg></g><g class="visx-group visx-axis-tick" transform="translate(0, 0)"><line class="visx-line" x1="0" y1="19.16666666666666" x2="-8" y2="19.16666666666666" fill="transparent" shape-rendering="crispEdges" stroke="#222" stroke-width="0" stroke-linecap="square"></line><svg x="-30" y="0" font-size="8" style="overflow:visible"><text transform="" x="-8" y="19.16666666666666" fill="#000" font-size="8" text-anchor="start"><tspan x="-8" dy="0em">100%</tspan></text></svg></g><line class="visx-line visx-axis-line" x1="0" y1="115.5" x2="0" y2="0.5" fill="transparent" shape-rendering="crispEdges" stroke="#222" stroke-width="0"></line></g><rect class="visx-bar" width="1450" height="115" fill="transparent"></rect><line class="visx-line" x1="1160" y1="28" x2="1160" y2="115" fill="transparent" shape-rendering="crispEdges" stroke="#0062D2" stroke-width="1" pointer-events="none" stroke-dasharray="5,2"></line><svg x="0" y="0" font-size="10px" style="overflow:visible"><text transform="" x="1160" y="20" font-size="10px" fill="#fff" stroke="#fff" stroke-width="0.8em" text-anchor="middle"><tspan x="1160" dy="0.355em">Optimal 80%</tspan></text></svg><svg x="0" y="0" font-size="10px" style="overflow:visible"><text transform="" x="1160" y="20" font-size="10px" fill="#62677B" text-anchor="middle"><tspan x="1160" dy="0.355em">Optimal 80%</tspan></text></svg></g></svg>