<?xml version="1.0"?><svg xmlns="http://www.w3.org/2000/svg" xmlns:xlink= "http://www.w3.org/1999/xlink" style="background: white;" width="1500" height="300"> <g style="color: black; font-size: 13px; font-family: sans-serif; transform: translate(18px, 25px);"><g><circle r="3" cx="-6" cy="-5" style="fill: #1AD4B3" /><text>Borrow APR, variable</text></g><g style="transform: translateX(150px);"><circle r="3" cx="-6" cy="-5" style="fill: #101423" /><text>Borrow APR, stable</text></g></g><g class="visx-group" transform="translate(45, 50)"><g class="visx-group visx-rows" transform="translate(0, 0)"><line class="visx-line" x1="0" y1="155" x2="1425" y2="155" fill="transparent" shape-rendering="crispEdges" stroke="#F2F0F9" stroke-width="1" pointer-events="none"></line><line class="visx-line" x1="0" y1="110.71428571428572" x2="1425" y2="110.71428571428572" fill="transparent" shape-rendering="crispEdges" stroke="#F2F0F9" stroke-width="1" pointer-events="none"></line><line class="visx-line" x1="0" y1="66.42857142857143" x2="1425" y2="66.42857142857143" fill="transparent" shape-rendering="crispEdges" stroke="#F2F0F9" stroke-width="1" pointer-events="none"></line><line class="visx-line" x1="0" y1="22.14285714285715" x2="1425" y2="22.14285714285715" fill="transparent" shape-rendering="crispEdges" stroke="#F2F0F9" stroke-width="1" pointer-events="none"></line></g><path class="visx-linepath" d="M0,154.55714285703954C2.375,154.53992063486038,4.75,154.5226984126812,7.125,154.5054761904762C9.5,154.4882539682712,11.875,154.47103174603174,14.25,154.45380952380953C16.625,154.4365873015873,19,154.41936507936506,21.375,154.40214285714285C23.75,154.38492063492063,26.125,154.36769841269842,28.5,154.3504761904762C30.875,154.33325396825398,33.25,154.31603174603174,35.625,154.29880952380952C38,154.2815873015873,40.375,154.26436507936506,42.75,154.24714285714285C45.125,154.22992063492063,47.50000000000001,154.21269841269842,49.87500000000001,154.1954761904762C52.25000000000001,154.17825396825398,54.625,154.16103174603174,57,154.14380952380952C59.375,154.1265873015873,61.75,154.10936507936506,64.125,154.09214285714285C66.5,154.07492063492063,68.875,154.05769841269841,71.25,154.0404761904762C73.625,154.02325396825398,76,154.00603174603174,78.375,153.98880952380952C80.75,153.9715873015873,83.125,153.95436507936506,85.5,153.93714285714285C87.875,153.91992063492063,90.25,153.9026984126984,92.625,153.8854761904762C95,153.86825396825398,97.37500000000001,153.85103174603174,99.75000000000001,153.83380952380952C102.12500000000001,153.8165873015873,104.5,153.79936507936506,106.875,153.78214285714284C109.25,153.76492063492063,111.625,153.7476984126984,114,153.7304761904762C116.375,153.71325396825398,118.75000000000001,153.69603174603174,121.12500000000001,153.67880952380952C123.50000000000001,153.6615873015873,125.875,153.64436507936506,128.25,153.62714285714284C130.625,153.60992063492063,133,153.5926984126984,135.375,153.5754761904762C137.75,153.55825396825398,140.125,153.54103174603173,142.5,153.52380952380952C144.875,153.5065873015873,147.25,153.48936507936506,149.625,153.47214285714284C152,153.45492063492063,154.375,153.4376984126984,156.75,153.4204761904762C159.125,153.40325396825398,161.5,153.38603174603173,163.875,153.36880952380952C166.25,153.3515873015873,168.625,153.33436507936506,171,153.31714285714284C173.375,153.29992063492062,175.75,153.2826984126984,178.125,153.2654761904762C180.5,153.24825396825398,182.875,153.23103174603173,185.25,153.21380952380952C187.625,153.1965873015873,190,153.17936507936506,192.375,153.16214285714284C194.75,153.14492063492062,197.12500000000003,153.1276984126984,199.50000000000003,153.1104761904762C201.875,153.09325396825398,204.25,153.07603174603173,206.62499999999997,153.05880952380951C208.99999999999997,153.0415873015873,211.375,153.02436507936505,213.75,153.00714285714284C216.125,152.98992063492062,218.5,152.9726984126984,220.875,152.9554761904762C223.25,152.93825396825397,225.625,152.92103174603176,228,152.90380952380954C230.375,152.88658730158733,232.75,152.86936507936505,235.125,152.85214285714284C237.5,152.83492063492062,239.87500000000003,152.8176984126984,242.25000000000003,152.8004761904762C244.625,152.78325396825397,247,152.76603174603176,249.37499999999997,152.74880952380954C251.74999999999997,152.73158730158733,254.125,152.71436507936505,256.5,152.69714285714284C258.875,152.67992063492062,261.25,152.6626984126984,263.625,152.6454761904762C266,152.62825396825397,268.375,152.61103174603176,270.75,152.59380952380954C273.125,152.57658730158732,275.5,152.55936507936508,277.875,152.54214285714286C280.25,152.52492063492065,282.625,152.5076984126984,285,152.4904761904762C287.375,152.47325396825397,289.75,152.45603174603175,292.125,152.43880952380954C294.5,152.42158730158732,296.875,152.40436507936508,299.25,152.38714285714286C301.625,152.36992063492065,304,152.3526984126984,306.375,152.3354761904762C308.75,152.31825396825397,311.125,152.30103174603175,313.5,152.28380952380954C315.875,152.26658730158732,318.25,152.24936507936508,320.625,152.23214285714286C323,152.21492063492065,325.375,152.1976984126984,327.75,152.18047619047618C330.125,152.16325396825397,332.5,152.14603174603175,334.875,152.12880952380954C337.25,152.11158730158732,339.625,152.09436507936508,342,152.07714285714286C344.375,152.05992063492064,346.75,152.0426984126984,349.125,152.02547619047618C351.5,152.00825396825397,353.875,151.99103174603175,356.25,151.97380952380954C358.625,151.95658730158732,361,151.93936507936507,363.375,151.92214285714286C365.75,151.90492063492064,368.125,151.8876984126984,370.5,151.87047619047618C372.875,151.85325396825397,375.25,151.83603174603175,377.625,151.81880952380953C380,151.80158730158732,382.375,151.78436507936507,384.75,151.76714285714286C387.125,151.74992063492064,389.50000000000006,151.7326984126984,391.87500000000006,151.71547619047618C394.25000000000006,151.69825396825397,396.62500000000006,151.68103174603175,399.00000000000006,151.66380952380953C401.375,151.64658730158732,403.75,151.62936507936507,406.12499999999994,151.61214285714286C408.49999999999994,151.59492063492064,410.87499999999994,151.5776984126984,413.24999999999994,151.56047619047618C415.62499999999994,151.54325396825396,418,151.52603174603175,420.375,151.50880952380953C422.75,151.49158730158732,425.125,151.49158730158732,427.5,151.45714285714286C429.875,151.4226984126984,432.25,150.82448979591834,434.625,150.5081632653061C437,150.19183673469388,439.375,149.87551020408165,441.75,149.5591836734694C444.125,149.24285714285713,446.5,148.9265306122449,448.875,148.61020408163265C451.25,148.2938775510204,453.625,147.97755102040816,456,147.66122448979593C458.375,147.3448979591837,460.75,147.02857142857144,463.125,146.71224489795918C465.5,146.39591836734692,467.875,146.07959183673466,470.25,145.76326530612243C472.625,145.44693877551018,475.00000000000006,145.13061224489797,477.37500000000006,144.81428571428572C479.75000000000006,144.4979591836735,482.12500000000006,144.18163265306123,484.50000000000006,143.86530612244897C486.875,143.5489795918367,489.25,143.23265306122445,491.62499999999994,142.91632653061222C493.99999999999994,142.59999999999997,496.37499999999994,142.28367346938774,498.74999999999994,141.9673469387755C501.12499999999994,141.65102040816328,503.5,141.33469387755105,505.875,141.0183673469388C508.25,140.70204081632656,510.625,140.3857142857143,513,140.06938775510204C515.375,139.75306122448978,517.75,139.43673469387755,520.125,139.1204081632653C522.5,138.80408163265304,524.875,138.4877551020408,527.25,138.17142857142858C529.625,137.85510204081635,532,137.53877551020406,534.375,137.22244897959183C536.75,136.9061224489796,539.125,136.58979591836737,541.5,136.2734693877551C543.875,135.95714285714286,546.25,135.64081632653063,548.625,135.32448979591837C551,135.0081632653061,553.375,134.69183673469388,555.75,134.37551020408162C558.125,134.05918367346936,560.5,133.74285714285713,562.875,133.4265306122449C565.25,133.11020408163267,567.625,132.79387755102042,570,132.47755102040816C572.375,132.1612244897959,574.75,131.84489795918364,577.125,131.5285714285714C579.5,131.21224489795918,581.875,130.89591836734692,584.25,130.5795918367347C586.625,130.26326530612246,589,129.9469387755102,591.375,129.63061224489797C593.75,129.31428571428575,596.125,128.9979591836735,598.5,128.68163265306123C600.875,128.36530612244897,603.25,128.04897959183674,605.625,127.7326530612245C608,127.41632653061225,610.375,127.10000000000001,612.75,126.78367346938776C615.125,126.46734693877552,617.5,126.15102040816326,619.875,125.83469387755102C622.25,125.51836734693877,624.625,125.20204081632653,627,124.88571428571429C629.375,124.56938775510204,631.75,124.2530612244898,634.125,123.93673469387755C636.5,123.62040816326531,638.875,123.30408163265305,641.25,122.98775510204081C643.625,122.67142857142856,646,122.35510204081632,648.375,122.03877551020408C650.75,121.72244897959183,653.125,121.4061224489796,655.5,121.08979591836736C657.875,120.77346938775511,660.25,120.45714285714286,662.625,120.14081632653061C665,119.82448979591837,667.375,119.50816326530612,669.75,119.19183673469388C672.125,118.87551020408164,674.5,118.55918367346939,676.875,118.24285714285715C679.25,117.9265306122449,681.625,117.61020408163265,684,117.2938775510204C686.375,116.97755102040816,688.75,116.66122448979591,691.125,116.34489795918367C693.5,116.02857142857142,695.875,115.7122448979592,698.25,115.39591836734695C700.625,115.0795918367347,703,114.76326530612245,705.375,114.4469387755102C707.75,114.13061224489796,710.125,113.8142857142857,712.5,113.49795918367346C714.875,113.18163265306121,717.25,112.86530612244898,719.625,112.54897959183674C722,112.2326530612245,724.375,111.91632653061224,726.75,111.6C729.125,111.28367346938775,731.5,110.9673469387755,733.875,110.65102040816326C736.25,110.33469387755102,738.625,110.01836734693879,741,109.70204081632654C743.375,109.3857142857143,745.75,109.06938775510204,748.125,108.7530612244898C750.5,108.43673469387755,752.875,108.12040816326532,755.25,107.80408163265308C757.625,107.48775510204084,760,107.17142857142858,762.375,106.85510204081633C764.75,106.53877551020409,767.125,106.22244897959183,769.5,105.90612244897959C771.875,105.58979591836734,774.2500000000001,105.2734693877551,776.6250000000001,104.95714285714286C779.0000000000001,104.64081632653061,781.3750000000001,104.32448979591838,783.7500000000001,104.00816326530614C786.1250000000001,103.6918367346939,788.5000000000001,103.37551020408164,790.8750000000001,103.05918367346939C793.2500000000001,102.74285714285715,795.6250000000001,102.42653061224489,798.0000000000001,102.11020408163265C800.375,101.7938775510204,802.75,101.47755102040817,805.1249999999999,101.16122448979593C807.4999999999999,100.84489795918368,809.8749999999999,100.52857142857142,812.2499999999999,100.21224489795918C814.6249999999999,99.89591836734694,816.9999999999999,99.57959183673468,819.3749999999999,99.26326530612243C821.7499999999999,98.94693877551019,824.1249999999999,98.63061224489796,826.4999999999999,98.31428571428572C828.8749999999999,97.99795918367347,831.25,97.68163265306123,833.625,97.36530612244897C836,97.04897959183673,838.375,96.73265306122447,840.75,96.41632653061222C843.125,96.09999999999998,845.5,95.78367346938775,847.875,95.4673469387755C850.25,95.15102040816326,852.625,94.83469387755102,855,94.51836734693877C857.375,94.20204081632653,859.75,93.88571428571427,862.125,93.56938775510203C864.5,93.25306122448978,866.875,92.93673469387755,869.25,92.62040816326531C871.625,92.30408163265307,874,91.98775510204081,876.375,91.67142857142856C878.75,91.35510204081632,881.125,91.03877551020409,883.5,90.72244897959185C885.875,90.4061224489796,888.25,90.08979591836736,890.625,89.77346938775511C893,89.45714285714287,895.375,89.14081632653061,897.75,88.82448979591837C900.125,88.50816326530612,902.5,88.19183673469387,904.875,87.87551020408162C907.25,87.55918367346938,909.625,87.24285714285713,912,86.92653061224489C914.375,86.61020408163265,916.75,86.2938775510204,919.125,85.97755102040816C921.5,85.66122448979591,923.875,85.34489795918368,926.25,85.02857142857144C928.625,84.7122448979592,931,84.39591836734695,933.375,84.0795918367347C935.75,83.76326530612246,938.125,83.4469387755102,940.5,83.13061224489796C942.875,82.81428571428572,945.25,82.49795918367346,947.625,82.18163265306121C950,81.86530612244897,952.3750000000001,81.54897959183673,954.7500000000001,81.23265306122448C957.1250000000001,80.91632653061224,959.5000000000001,80.6,961.8750000000001,80.28367346938775C964.2500000000001,79.9673469387755,966.6250000000001,79.65102040816325,969.0000000000001,79.334693877551C971.3750000000001,79.01836734693876,973.7500000000001,78.70204081632654,976.1250000000001,78.3857142857143C978.5,78.06938775510207,980.875,77.7530612244898,983.2499999999999,77.43673469387755C985.6249999999999,77.1204081632653,987.9999999999999,76.80408163265307,990.3749999999999,76.48775510204082C992.7499999999999,76.17142857142858,995.1249999999999,75.85510204081633,997.4999999999999,75.53877551020409C999.8749999999999,75.22244897959185,1002.2499999999999,74.90612244897959,1004.6249999999999,74.58979591836734C1006.9999999999999,74.27346938775509,1009.375,73.95714285714284,1011.75,73.6408163265306C1014.125,73.32448979591835,1016.5,73.00816326530611,1018.875,72.69183673469387C1021.25,72.37551020408162,1023.625,72.05918367346939,1026,71.74285714285715C1028.375,71.4265306122449,1030.75,71.11020408163266,1033.125,70.79387755102042C1035.5,70.47755102040817,1037.875,70.16122448979593,1040.25,69.84489795918368C1042.625,69.52857142857144,1045,69.21224489795918,1047.375,68.89591836734694C1049.75,68.57959183673469,1052.125,68.26326530612243,1054.5,67.94693877551019C1056.875,67.63061224489795,1059.25,67.3142857142857,1061.625,66.99795918367346C1064,66.68163265306121,1066.375,66.365306122449,1068.75,66.04897959183675C1071.125,65.73265306122451,1073.5,65.41632653061225,1075.875,65.10000000000001C1078.25,64.78367346938776,1080.625,64.4673469387755,1083,64.15102040816326C1085.375,63.83469387755101,1087.75,63.51836734693876,1090.125,63.202040816326516C1092.5,62.88571428571427,1094.875,62.56938775510203,1097.25,62.253061224489784C1099.625,61.93673469387754,1102,61.62040816326532,1104.375,61.30408163265307C1106.75,60.98775510204083,1109.125,60.67142857142857,1111.5,60.35510204081633C1113.875,60.03877551020408,1116.25,59.722448979591846,1118.625,59.4061224489796C1121,59.08979591836736,1123.375,58.7734693877551,1125.75,58.457142857142856C1128.125,58.14081632653061,1130.5,57.82448979591837,1132.875,57.50816326530612C1135.25,57.19183673469388,1137.625,56.875510204081635,1140,56.55918367346939C1142.375,56.24285714285715,1144.75,55.92653061224491,1147.125,55.610204081632666C1149.5,55.29387755102042,1151.875,54.977551020408164,1154.25,54.66122448979592C1156.625,54.344897959183676,1159,54.02857142857143,1161.375,53.71224489795919C1163.75,53.395918367346944,1166.125,53.079591836734686,1168.5,52.76326530612244C1170.875,52.4469387755102,1173.25,52.13061224489796,1175.625,51.81428571428572C1178,51.49795918367347,1180.375,51.18163265306123,1182.75,50.865306122448985C1185.125,50.54897959183674,1187.5,50.23265306122448,1189.875,49.91632653061224C1192.25,49.599999999999994,1194.625,49.28367346938776,1197,48.96734693877551C1199.375,48.65102040816327,1201.75,48.33469387755101,1204.125,48.01836734693877C1206.5,47.70204081632652,1208.875,47.38571428571428,1211.25,47.069387755102035C1213.625,46.75306122448979,1216,46.436734693877554,1218.375,46.12040816326531C1220.75,45.804081632653066,1223.125,45.48775510204082,1225.5,45.17142857142858C1227.875,44.855102040816334,1230.25,44.538775510204076,1232.625,44.22244897959183C1235,43.90612244897959,1237.375,43.58979591836735,1239.75,43.27346938775511C1242.125,42.95714285714286,1244.5,42.640816326530604,1246.875,42.32448979591836C1249.25,42.008163265306116,1251.625,41.691836734693894,1254,41.37551020408165C1256.375,41.059183673469406,1258.75,40.74285714285715,1261.125,40.4265306122449C1263.5,40.11020408163266,1265.875,39.793877551020415,1268.25,39.47755102040817C1270.625,39.16122448979593,1273,38.84489795918367,1275.375,38.528571428571425C1277.75,38.21224489795918,1280.125,37.89591836734696,1282.5,37.579591836734714C1284.875,37.26326530612247,1287.25,36.94693877551022,1289.625,36.63061224489797C1292,36.31428571428572,1294.375,35.997959183673466,1296.75,35.68163265306122C1299.125,35.36530612244898,1301.5,35.04897959183674,1303.875,34.7326530612245C1306.25,34.41632653061225,1308.625,34.099999999999994,1311,33.78367346938775C1313.375,33.467346938775506,1315.75,33.151020408163276,1318.125,32.83469387755103C1320.5,32.51836734693879,1322.875,32.20204081632654,1325.25,31.88571428571429C1327.625,31.569387755102042,1330,31.25306122448979,1332.375,30.936734693877543C1334.75,30.620408163265296,1337.125,30.30408163265306,1339.5,29.987755102040815C1341.875,29.67142857142857,1344.25,29.355102040816313,1346.625,29.03877551020407C1349,28.722448979591825,1351.375,28.406122448979602,1353.75,28.089795918367358C1356.125,27.773469387755114,1358.5,27.457142857142856,1360.875,27.14081632653061C1363.25,26.824489795918367,1365.625,26.50816326530613,1368,26.191836734693883C1370.375,25.875510204081635,1372.75,25.559183673469384,1375.125,25.242857142857137C1377.5,24.92653061224489,1379.875,24.610204081632634,1382.25,24.29387755102039C1384.625,23.977551020408146,1387,23.661224489795924,1389.375,23.34489795918368C1391.75,23.028571428571436,1394.125,22.71224489795918,1396.5,22.395918367346933C1398.875,22.079591836734686,1401.25,21.763265306122445,1403.625,21.446938775510205C1406,21.130612244897964,1408.375,20.814285714285738,1410.75,20.49795918367349C1413.125,20.181632653061243,1415.5,19.865306122448974,1417.875,19.548979591836726C1420.25,19.23265306122448,1422.625,18.91632653061224,1425,18.599999999999998" fill="transparent" stroke-linecap="round" stroke="#1AD4B3" stroke-width="2"></path><g class="visx-group visx-axis visx-axis-bottom" transform="translate(0, 155)"><g class="visx-group visx-axis-tick" transform="translate(0, 0)"><line class="visx-line" x1="0" y1="0" x2="0" y2="8" fill="transparent" shape-rendering="crispEdges" stroke="#F2F0F9" stroke-width="1" stroke-linecap="square"></line><svg x="0" y="0" font-size="11" style="overflow:visible"><text transform="" x="0" y="19" fill="#1B2030" font-size="11" text-anchor="middle"><tspan x="0" dy="0em">0%</tspan></text></svg></g><g class="visx-group visx-axis-tick" transform="translate(0, 0)"><line class="visx-line" x1="356.25" y1="0" x2="356.25" y2="8" fill="transparent" shape-rendering="crispEdges" stroke="#F2F0F9" stroke-width="1" stroke-linecap="square"></line><svg x="0" y="0" font-size="11" style="overflow:visible"><text transform="" x="356.25" y="19" fill="#1B2030" font-size="11" text-anchor="middle"><tspan x="356.25" dy="0em">25%</tspan></text></svg></g><g class="visx-group visx-axis-tick" transform="translate(0, 0)"><line class="visx-line" x1="712.5" y1="0" x2="712.5" y2="8" fill="transparent" shape-rendering="crispEdges" stroke="#F2F0F9" stroke-width="1" stroke-linecap="square"></line><svg x="0" y="0" font-size="11" style="overflow:visible"><text transform="" x="712.5" y="19" fill="#1B2030" font-size="11" text-anchor="middle"><tspan x="712.5" dy="0em">50%</tspan></text></svg></g><g class="visx-group visx-axis-tick" transform="translate(0, 0)"><line class="visx-line" x1="1068.75" y1="0" x2="1068.75" y2="8" fill="transparent" shape-rendering="crispEdges" stroke="#F2F0F9" stroke-width="1" stroke-linecap="square"></line><svg x="0" y="0" font-size="11" style="overflow:visible"><text transform="" x="1068.75" y="19" fill="#1B2030" font-size="11" text-anchor="middle"><tspan x="1068.75" dy="0em">75%</tspan></text></svg></g><g class="visx-group visx-axis-tick" transform="translate(0, 0)"><line class="visx-line" x1="1425" y1="0" x2="1425" y2="8" fill="transparent" shape-rendering="crispEdges" stroke="#F2F0F9" stroke-width="1" stroke-linecap="square"></line><svg x="0" y="0" font-size="11" style="overflow:visible"><text transform="" x="1425" y="19" fill="#1B2030" font-size="11" text-anchor="middle"><tspan x="1425" dy="0em">100%</tspan></text></svg></g></g><g class="visx-group visx-axis visx-axis-left" transform="translate(0, 0)"><g class="visx-group visx-axis-tick" transform="translate(0, 0)"><line class="visx-line" x1="0" y1="155" x2="-8" y2="155" fill="transparent" shape-rendering="crispEdges" stroke="#F2F0F9" stroke-width="1" stroke-linecap="square"></line><svg x="-30" y="0" font-size="11" style="overflow:visible"><text transform="" x="-8" y="155" fill="#1B2030" font-size="11" text-anchor="start"><tspan x="-8" dy="0em">0%</tspan></text></svg></g><g class="visx-group visx-axis-tick" transform="translate(0, 0)"><line class="visx-line" x1="0" y1="110.71428571428572" x2="-8" y2="110.71428571428572" fill="transparent" shape-rendering="crispEdges" stroke="#F2F0F9" stroke-width="1" stroke-linecap="square"></line><svg x="-30" y="0" font-size="11" style="overflow:visible"><text transform="" x="-8" y="110.71428571428572" fill="#1B2030" font-size="11" text-anchor="start"><tspan x="-8" dy="0em">100%</tspan></text></svg></g><g class="visx-group visx-axis-tick" transform="translate(0, 0)"><line class="visx-line" x1="0" y1="66.42857142857143" x2="-8" y2="66.42857142857143" fill="transparent" shape-rendering="crispEdges" stroke="#F2F0F9" stroke-width="1" stroke-linecap="square"></line><svg x="-30" y="0" font-size="11" style="overflow:visible"><text transform="" x="-8" y="66.42857142857143" fill="#1B2030" font-size="11" text-anchor="start"><tspan x="-8" dy="0em">200%</tspan></text></svg></g><g class="visx-group visx-axis-tick" transform="translate(0, 0)"><line class="visx-line" x1="0" y1="22.14285714285715" x2="-8" y2="22.14285714285715" fill="transparent" shape-rendering="crispEdges" stroke="#F2F0F9" stroke-width="1" stroke-linecap="square"></line><svg x="-30" y="0" font-size="11" style="overflow:visible"><text transform="" x="-8" y="22.14285714285715" fill="#1B2030" font-size="11" text-anchor="start"><tspan x="-8" dy="0em">300%</tspan></text></svg></g><line class="visx-line visx-axis-line" x1="0" y1="155.5" x2="0" y2="0.5" fill="transparent" shape-rendering="crispEdges" stroke="#F2F0F9" stroke-width="1"></line></g><rect class="visx-bar" width="1425" height="155" fill="transparent"></rect><line class="visx-line" x1="427.5" y1="58" x2="427.5" y2="155" fill="transparent" shape-rendering="crispEdges" stroke="#CDC8E1" stroke-width="1" pointer-events="none" stroke-dasharray="5"></line><svg x="0" y="0" font-size="11px" style="overflow:visible"><text transform="" x="427.5" y="50" font-size="11px" fill="#555069" stroke="#FFFFFF" stroke-width="1px" text-anchor="middle"><tspan x="427.5" dy="0.355em">Optimal utilization 30%</tspan></text></svg><svg x="0" y="0" font-size="11px" style="overflow:visible"><text transform="" x="427.5" y="50" font-size="11px" fill="#CDC8E1" text-anchor="middle"><tspan x="427.5" dy="0.355em">Optimal utilization 30%</tspan></text></svg></g></svg>