<?xml version="1.0"?><svg xmlns="http://www.w3.org/2000/svg" xmlns:xlink= "http://www.w3.org/1999/xlink" style="background: white;" width="1500" height="185"> <g style="color: black; font-size: 13px; font-family: sans-serif; transform: translate(18px, 25px);"><g><circle r="3" cx="-6" cy="-5" style="fill: #B6509E" /><text>Borrow APR, variable</text></g><g style="transform: translateX(150px);"><circle r="3" cx="-6" cy="-5" style="fill: rgb(231, 198, 223)" /><text>Borrow APR, stable</text></g><g style="transform: translateX(290px);"><circle r="3" cx="-6" cy="-5" style="fill: rgb(0, 98, 210)" /><text>Utilization Rate</text></g></g><g class="visx-group" transform="translate(40, 50)"><g class="visx-group visx-rows" transform="translate(0, 0)"><line class="visx-line" x1="0" y1="115" x2="1450" y2="115" fill="transparent" shape-rendering="crispEdges" stroke="#000" stroke-width="1" stroke-dasharray="3,3" pointer-events="none"></line><line class="visx-line" x1="0" y1="67.08333333333333" x2="1450" y2="67.08333333333333" fill="transparent" shape-rendering="crispEdges" stroke="#000" stroke-width="1" stroke-dasharray="3,3" pointer-events="none"></line><line class="visx-line" x1="0" y1="19.16666666666666" x2="1450" y2="19.16666666666666" fill="transparent" shape-rendering="crispEdges" stroke="#000" stroke-width="1" stroke-dasharray="3,3" pointer-events="none"></line></g><path class="visx-linepath" d="M0,114.99999999616666C2.4166666666666665,114.361111108875,4.833333333333334,113.72222222158332,7.25,113.08333333333333C9.666666666666666,112.44444444508333,12.083333333333334,111.48933782267116,14.5,111.16666666666667C16.916666666666668,110.84399551066218,19.333333333333332,110.84399551066218,21.75,110.68265993265993C24.166666666666668,110.52132435465768,26.583333333333332,110.35998877665546,29,110.1986531986532C31.416666666666668,110.03731762065095,33.833333333333336,109.87598204264872,36.25,109.71464646464646C38.666666666666664,109.55331088664421,41.083333333333336,109.39197530864196,43.5,109.23063973063972C45.91666666666667,109.06930415263747,48.333333333333336,108.90796857463525,50.75000000000001,108.746632996633C53.16666666666667,108.58529741863076,55.583333333333336,108.4239618406285,58,108.26262626262626C60.416666666666664,108.101290684624,62.833333333333336,107.93995510662177,65.25,107.77861952861953C67.66666666666667,107.61728395061729,70.08333333333333,107.45594837261504,72.5,107.2946127946128C74.91666666666667,107.13327721661057,77.33333333333333,106.97194163860831,79.75,106.81060606060606C82.16666666666667,106.64927048260381,84.58333333333333,106.48793490460159,87,106.32659932659934C89.41666666666667,106.16526374859708,91.83333333333333,106.00392817059485,94.25,105.8425925925926C96.66666666666667,105.68125701459034,99.08333333333334,105.5199214365881,101.50000000000001,105.35858585858585C103.91666666666667,105.19725028058362,106.33333333333334,105.03591470258137,108.75,104.87457912457913C111.16666666666667,104.71324354657688,113.58333333333333,104.55190796857462,116,104.39057239057239C118.41666666666667,104.22923681257014,120.83333333333334,104.06790123456791,123.25000000000001,103.90656565656566C125.66666666666667,103.74523007856342,128.08333333333334,103.58389450056117,130.5,103.42255892255892C132.91666666666666,103.26122334455667,135.33333333333334,103.09988776655442,137.75,102.93855218855218C140.16666666666666,102.77721661054994,142.58333333333334,102.61588103254769,145,102.45454545454545C147.41666666666666,102.29320987654322,149.83333333333334,102.13187429854096,152.25,101.97053872053873C154.66666666666666,101.80920314253649,157.08333333333334,101.64786756453424,159.5,101.48653198653199C161.91666666666666,101.32519640852973,164.33333333333334,101.16386083052751,166.75,101.00252525252526C169.16666666666666,100.84118967452301,171.58333333333334,100.67985409652076,174,100.51851851851852C176.41666666666666,100.35718294051628,178.83333333333334,100.19584736251403,181.25,100.03451178451179C183.66666666666666,99.87317620650956,186.08333333333334,99.7118406285073,188.5,99.55050505050505C190.91666666666666,99.3891694725028,193.33333333333334,99.22783389450055,195.75,99.06649831649831C198.16666666666669,98.90516273849606,200.58333333333334,98.74382716049384,203.00000000000003,98.58249158249158C205.41666666666669,98.42115600448935,207.83333333333331,98.25982042648708,210.24999999999997,98.09848484848484C212.66666666666666,97.93714927048259,215.08333333333331,97.77581369248037,217.5,97.61447811447812C219.91666666666666,97.45314253647588,222.33333333333334,97.29180695847363,224.75,97.13047138047138C227.16666666666666,96.96913580246913,229.58333333333334,96.80780022446689,232,96.64646464646464C234.41666666666666,96.48512906846238,236.83333333333334,96.32379349046015,239.25,96.16245791245791C241.66666666666669,96.00112233445566,244.08333333333334,95.83978675645342,246.50000000000003,95.67845117845117C248.91666666666669,95.51711560044893,251.33333333333331,95.35578002244668,253.74999999999997,95.19444444444444C256.16666666666663,95.0331088664422,258.5833333333333,94.87177328843997,261,94.71043771043772C263.4166666666667,94.54910213243546,265.8333333333333,94.3877665544332,268.25,94.22643097643096C270.6666666666667,94.06509539842872,273.0833333333333,93.90375982042649,275.5,93.74242424242425C277.9166666666667,93.58108866442201,280.3333333333333,93.41975308641975,282.75,93.25841750841751C285.1666666666667,93.09708193041527,287.5833333333333,92.93574635241302,290,92.77441077441078C292.4166666666667,92.61307519640854,294.8333333333333,92.4517396184063,297.25,92.29040404040404C299.6666666666667,92.12906846240179,302.0833333333333,91.96773288439954,304.5,91.8063973063973C306.9166666666667,91.64506172839506,309.3333333333333,91.48372615039281,311.75,91.32239057239057C314.1666666666667,91.16105499438834,316.5833333333333,90.99971941638609,319,90.83838383838383C321.4166666666667,90.67704826038158,323.8333333333333,90.51571268237936,326.25,90.35437710437711C328.6666666666667,90.19304152637486,331.0833333333333,90.0317059483726,333.5,89.87037037037037C335.9166666666667,89.70903479236813,338.3333333333333,89.54769921436588,340.75,89.38636363636364C343.1666666666667,89.2250280583614,345.5833333333333,89.06369248035915,348,88.9023569023569C350.4166666666667,88.74102132435465,352.8333333333333,88.57968574635242,355.25,88.41835016835017C357.6666666666667,88.25701459034792,360.0833333333333,88.09567901234567,362.5,87.93434343434343C364.9166666666667,87.7730078563412,367.3333333333333,87.61167227833894,369.75,87.4503367003367C372.1666666666667,87.28900112233447,374.5833333333333,87.12766554433222,377,86.96632996632997C379.4166666666667,86.80499438832771,381.8333333333333,86.64365881032549,384.25,86.48232323232324C386.6666666666667,86.32098765432099,389.0833333333333,86.15965207631875,391.5,85.9983164983165C393.9166666666667,85.83698092031425,396.33333333333337,85.67564534231201,398.75000000000006,85.51430976430976C401.16666666666674,85.35297418630752,403.58333333333337,85.19163860830528,406.00000000000006,85.03030303030303C408.4166666666667,84.8689674523008,410.8333333333333,84.70763187429853,413.24999999999994,84.54629629629629C415.66666666666663,84.38496071829404,418.08333333333326,84.2236251402918,420.49999999999994,84.06228956228956C422.91666666666663,83.90095398428731,425.3333333333333,83.73961840628508,427.75,83.57828282828282C430.1666666666667,83.41694725028059,432.5833333333333,83.25561167227835,435,83.0942760942761C437.4166666666667,82.93294051627385,439.8333333333333,82.7716049382716,442.25,82.61026936026936C444.6666666666667,82.44893378226712,447.0833333333333,82.28759820426487,449.5,82.12626262626263C451.9166666666667,81.96492704826039,454.3333333333333,81.80359147025814,456.75,81.64225589225589C459.1666666666667,81.48092031425364,461.5833333333333,81.31958473625141,464,81.15824915824916C466.4166666666667,80.99691358024691,468.8333333333333,80.83557800224466,471.25,80.67424242424242C473.6666666666667,80.51290684624018,476.0833333333333,80.35157126823793,478.5,80.1902356902357C480.9166666666667,80.02890011223346,483.33333333333337,79.86756453423122,485.75000000000006,79.70622895622897C488.16666666666674,79.54489337822673,490.58333333333337,79.38355780022448,493.00000000000006,79.22222222222223C495.4166666666667,79.06088664421998,497.8333333333333,78.89955106621774,500.24999999999994,78.73821548821549C502.66666666666663,78.57687991021324,505.08333333333326,78.41554433221098,507.49999999999994,78.25420875420875C509.91666666666663,78.0928731762065,512.3333333333333,77.93153759820427,514.75,77.77020202020202C517.1666666666666,77.60886644219978,519.5833333333334,77.44753086419752,522,77.28619528619528C524.4166666666666,77.12485970819304,526.8333333333334,76.96352413019079,529.25,76.80218855218855C531.6666666666666,76.64085297418632,534.0833333333334,76.47951739618406,536.5,76.31818181818183C538.9166666666666,76.15684624017959,541.3333333333334,75.99551066217734,543.75,75.83417508417509C546.1666666666666,75.67283950617283,548.5833333333334,75.51150392817061,551,75.35016835016836C553.4166666666666,75.18883277216611,555.8333333333334,75.02749719416387,558.25,74.86616161616162C560.6666666666666,74.70482603815937,563.0833333333334,74.54349046015713,565.5,74.38215488215488C567.9166666666666,74.22081930415263,570.3333333333334,74.0594837261504,572.75,73.89814814814815C575.1666666666666,73.7368125701459,577.5833333333334,73.57547699214365,580,73.4141414141414C582.4166666666666,73.25280583613915,584.8333333333334,73.09147025813692,587.25,72.93013468013469C589.6666666666666,72.76879910213245,592.0833333333334,72.60746352413021,594.5,72.44612794612796C596.9166666666666,72.28479236812571,599.3333333333334,72.12345679012344,601.75,71.9621212121212C604.1666666666666,71.80078563411897,606.5833333333334,71.63945005611674,609,71.47811447811449C611.4166666666666,71.31677890011224,613.8333333333334,71.15544332210999,616.25,70.99410774410774C618.6666666666666,70.83277216610549,621.0833333333334,70.67143658810326,623.5,70.51010101010101C625.9166666666666,70.34876543209876,628.3333333333334,70.18742985409651,630.75,70.02609427609427C633.1666666666666,69.86475869809203,635.5833333333334,69.70342312008978,638,69.54208754208754C640.4166666666666,69.3807519640853,642.8333333333334,69.21941638608305,645.25,69.05808080808082C647.6666666666666,68.89674523007858,650.0833333333334,68.73540965207633,652.5,68.57407407407408C654.9166666666666,68.41273849607182,657.3333333333334,68.25140291806957,659.75,68.09006734006734C662.1666666666666,67.9287317620651,664.5833333333334,67.76739618406285,667,67.60606060606061C669.4166666666666,67.44472502805837,671.8333333333334,67.28338945005612,674.25,67.12205387205387C676.6666666666666,66.96071829405162,679.0833333333334,66.79938271604938,681.5,66.63804713804714C683.9166666666666,66.4767115600449,686.3333333333334,66.31537598204267,688.75,66.15404040404042C691.1666666666666,65.99270482603816,693.5833333333334,65.83136924803591,696,65.67003367003366C698.4166666666666,65.50869809203141,700.8333333333334,65.34736251402919,703.25,65.18602693602695C705.6666666666666,65.02469135802471,708.0833333333334,64.86335578002243,710.5,64.7020202020202C712.9166666666666,64.54068462401796,715.3333333333334,64.37934904601573,717.75,64.21801346801348C720.1666666666666,64.05667789001123,722.5833333333334,63.89534231200897,725,63.734006734006726C727.4166666666666,63.57267115600448,729.8333333333334,63.41133557800225,732.25,63.25000000000001C734.6666666666666,63.08866442199776,737.0833333333334,62.92732884399552,739.5,62.765993265993274C741.9166666666666,62.60465768799103,744.3333333333334,62.44332210998878,746.75,62.28198653198653C749.1666666666666,62.12065095398429,751.5833333333334,61.959315375982044,754,61.7979797979798C756.4166666666666,61.636644219977555,758.8333333333334,61.47530864197531,761.25,61.313973063973066C763.6666666666666,61.15263748597082,766.0833333333334,60.99130190796858,768.5,60.82996632996633C770.9166666666666,60.66863075196409,773.3333333333334,60.50729517396184,775.75,60.3459595959596C778.1666666666666,60.184624017957354,780.5833333333334,60.0232884399551,783,59.86195286195286C785.4166666666667,59.70061728395061,787.8333333333334,59.53928170594837,790.2500000000001,59.377946127946124C792.6666666666667,59.21661054994388,795.0833333333335,59.055274971941635,797.5000000000001,58.89393939393939C799.9166666666667,58.732603815937146,802.3333333333335,58.5712682379349,804.7500000000001,58.40993265993266C807.1666666666667,58.24859708193041,809.5833333333335,58.08726150392818,812.0000000000001,57.92592592592593C814.4166666666667,57.764590347923686,816.8333333333333,57.60325476992143,819.2499999999999,57.44191919191918C821.6666666666665,57.28058361391693,824.0833333333333,57.119248035914694,826.4999999999999,56.95791245791245C828.9166666666665,56.796576879910205,831.3333333333333,56.635241301907975,833.7499999999999,56.47390572390573C836.1666666666665,56.312570145903486,838.5833333333333,56.151234567901234,840.9999999999999,55.98989898989899C843.4166666666666,55.828563411896745,845.8333333333333,55.6672278338945,848.25,55.505892255892256C850.6666666666666,55.34455667789001,853.0833333333334,55.18322109988777,855.5,55.02188552188552C857.9166666666666,54.86054994388328,860.3333333333334,54.69921436588103,862.75,54.53787878787879C865.1666666666666,54.376543209876544,867.5833333333334,54.2152076318743,870,54.053872053872055C872.4166666666666,53.89253647586981,874.8333333333334,53.73120089786756,877.25,53.569865319865315C879.6666666666666,53.40852974186307,882.0833333333334,53.247194163860826,884.5,53.08585858585858C886.9166666666666,52.92452300785634,889.3333333333334,52.76318742985409,891.75,52.60185185185185C894.1666666666666,52.4405162738496,896.5833333333334,52.27918069584736,899,52.117845117845114C901.4166666666666,51.95650953984287,903.8333333333334,51.795173961840625,906.25,51.63383838383838C908.6666666666666,51.472502805836136,911.0833333333334,51.3111672278339,913.5,51.149831649831654C915.9166666666666,50.98849607182941,918.3333333333334,50.82716049382715,920.75,50.665824915824906C923.1666666666666,50.50448933782266,925.5833333333334,50.34315375982041,928,50.18181818181817C930.4166666666666,50.020482603815935,932.8333333333334,49.859147025813705,935.25,49.69781144781146C937.6666666666666,49.536475869809216,940.0833333333334,49.37514029180696,942.5,49.21380471380471C944.9166666666666,49.05246913580247,947.3333333333334,48.891133557800224,949.75,48.72979797979798C952.1666666666666,48.568462401795735,954.5833333333334,48.40712682379349,957,48.245791245791246C959.4166666666666,48.084455667789,961.8333333333334,47.92312008978677,964.25,47.761784511784526C966.6666666666667,47.60044893378228,969.0833333333334,47.43911335578003,971.5000000000001,47.27777777777778C973.9166666666667,47.116442199775534,976.3333333333335,46.95510662177328,978.7500000000001,46.79377104377104C981.1666666666667,46.63243546576879,983.5833333333335,46.47109988776656,986.0000000000001,46.30976430976432C988.4166666666667,46.148428731762074,990.8333333333335,45.98709315375982,993.2500000000001,45.82575757575757C995.6666666666667,45.664421997755326,998.0833333333333,45.50308641975308,1000.4999999999999,45.34175084175084C1002.9166666666665,45.18041526374859,1005.3333333333333,45.01907968574635,1007.7499999999999,44.857744107744104C1010.1666666666665,44.69640852974186,1012.5833333333333,44.53507295173962,1014.9999999999999,44.37373737373738C1017.4166666666665,44.21240179573513,1019.8333333333333,44.051066217732874,1022.2499999999999,43.88973063973063C1024.6666666666665,43.72839506172838,1027.0833333333333,43.56705948372614,1029.5,43.405723905723896C1031.9166666666667,43.24438832772166,1034.3333333333333,43.083052749719414,1036.75,42.92171717171718C1039.1666666666667,42.76038159371494,1041.5833333333333,42.599046015712695,1044,42.43771043771045C1046.4166666666667,42.276374859708206,1048.8333333333333,42.11503928170595,1051.25,41.9537037037037C1053.6666666666667,41.79236812570146,1056.0833333333333,41.63103254769923,1058.5,41.46969696969698C1060.9166666666667,41.30836139169474,1063.3333333333333,41.147025813692494,1065.75,40.98569023569025C1068.1666666666667,40.824354657688005,1070.5833333333333,40.66301907968575,1073,40.5016835016835C1075.4166666666667,40.34034792368125,1077.8333333333333,40.179012345679006,1080.25,40.01767676767676C1082.6666666666667,39.85634118967452,1085.0833333333333,39.695005611672286,1087.5,39.53367003367004C1089.9166666666667,39.3723344556678,1092.3333333333333,39.21099887766555,1094.75,39.04966329966331C1097.1666666666667,38.888327721661064,1099.5833333333333,38.726992143658805,1102,38.56565656565656C1104.4166666666667,38.404320987654316,1106.8333333333333,38.24298540965208,1109.25,38.081649831649834C1111.6666666666667,37.92031425364759,1114.0833333333333,37.758978675645345,1116.5,37.5976430976431C1118.9166666666667,37.436307519640856,1121.3333333333333,37.2749719416386,1123.75,37.11363636363635C1126.1666666666667,36.95230078563411,1128.5833333333333,36.790965207631864,1131,36.62962962962962C1133.4166666666667,36.468294051627375,1135.8333333333333,36.306958473625144,1138.25,36.1456228956229C1140.6666666666667,35.984287317620655,1143.0833333333333,35.822951739618404,1145.5,35.66161616161616C1147.9166666666667,35.500280583613915,1150.3333333333333,35.338945005611656,1152.75,35.17760942760941C1155.1666666666667,35.01627384960717,1157.5833333333333,34.854938271604944,1160,34.693602693602706C1162.4166666666667,34.53226711560047,1164.8333333333333,34.37093153759822,1167.25,34.20959595959597C1169.6666666666667,34.04826038159373,1172.0833333333333,33.88692480359147,1174.5,33.725589225589225C1176.9166666666667,33.56425364758698,1179.3333333333333,33.40291806958473,1181.75,33.241582491582484C1184.1666666666667,33.08024691358024,1186.5833333333333,32.91891133557801,1189,32.757575757575765C1191.4166666666667,32.59624017957352,1193.8333333333333,32.434904601571276,1196.25,32.27356902356903C1198.6666666666667,32.11223344556679,1201.0833333333333,31.950897867564525,1203.5,31.78956228956228C1205.9166666666667,31.628226711560036,1208.3333333333333,31.4668911335578,1210.75,31.30555555555556C1213.1666666666667,31.14421997755332,1215.5833333333333,30.98288439955107,1218,30.821548821548824C1220.4166666666667,30.660213243546576,1222.8333333333333,30.49887766554432,1225.25,30.337542087542076C1227.6666666666667,30.17620650953983,1230.0833333333333,30.014870931537594,1232.5,29.853535353535353C1234.9166666666667,29.692199775533112,1237.3333333333333,29.530864197530864,1239.75,29.36952861952862C1242.1666666666667,29.208193041526375,1244.5833333333333,29.046857463524134,1247,28.885521885521886C1249.4166666666667,28.724186307519638,1251.8333333333333,28.562850729517383,1254.25,28.401515151515138C1256.6666666666667,28.240179573512894,1259.0833333333333,28.078843995510667,1261.5,27.917508417508426C1263.9166666666667,27.756172839506185,1266.3333333333333,27.594837261503937,1268.75,27.433501683501692C1271.1666666666667,27.272166105499448,1273.5833333333333,27.110830527497203,1276,26.94949494949496C1278.4166666666667,26.788159371492714,1280.8333333333333,26.626823793490466,1283.25,26.46548821548822C1285.6666666666667,26.304152637485977,1288.0833333333333,26.142817059483733,1290.5,25.981481481481488C1292.9166666666667,25.820145903479244,1295.3333333333333,25.658810325477,1297.75,25.49747474747475C1300.1666666666667,25.336139169472503,1302.5833333333333,25.174803591470248,1305,25.013468013468003C1307.4166666666667,24.85213243546576,1309.8333333333333,24.690796857463525,1312.25,24.52946127946128C1314.6666666666667,24.368125701459036,1317.0833333333333,24.20679012345679,1319.5,24.045454545454547C1321.9166666666667,23.884118967452302,1324.3333333333333,23.722783389450058,1326.75,23.561447811447813C1329.1666666666667,23.40011223344557,1331.5833333333333,23.23877665544332,1334,23.077441077441076C1336.4166666666667,22.91610549943883,1338.8333333333333,22.754769921436587,1341.25,22.593434343434343C1343.6666666666667,22.432098765432098,1346.0833333333333,22.27076318742985,1348.5,22.109427609427605C1350.9166666666667,21.94809203142536,1353.3333333333333,21.786756453423116,1355.75,21.625420875420872C1358.1666666666667,21.464085297418627,1360.5833333333333,21.302749719416383,1363,21.14141414141414C1365.4166666666667,20.980078563411894,1367.8333333333333,20.81874298540966,1370.25,20.657407407407415C1372.6666666666667,20.49607182940517,1375.0833333333333,20.334736251402923,1377.5,20.17340067340068C1379.9166666666667,20.012065095398434,1382.3333333333333,19.85072951739619,1384.75,19.689393939393945C1387.1666666666667,19.5280583613917,1389.5833333333333,19.366722783389456,1392,19.20538720538721C1394.4166666666667,19.044051627384967,1396.8333333333333,18.882716049382733,1399.25,18.72138047138049C1401.6666666666667,18.560044893378244,1404.0833333333333,18.39870931537599,1406.5,18.23737373737374C1408.9166666666667,18.076038159371492,1411.3333333333333,17.914702581369248,1413.75,17.753367003367003C1416.1666666666667,17.59203142536476,1418.5833333333333,17.43069584736253,1421,17.269360269360284C1423.4166666666667,17.10802469135804,1425.8333333333333,16.946689113355784,1428.25,16.785353535353536C1430.6666666666667,16.62401795735129,1433.0833333333333,16.462682379349044,1435.5,16.3013468013468C1437.9166666666667,16.140011223344555,1440.3333333333333,15.978675645342323,1442.75,15.817340067340078C1445.1666666666667,15.656004489337834,1447.5833333333333,15.494668911335582,1450,15.33333333333333" fill="transparent" stroke-linecap="round" stroke="#B6509E" stroke-width="2"></path><path class="visx-linepath" d="M0,105.41666666475C2.4166666666666665,105.09722222110416,4.833333333333334,104.77777777745833,7.25,104.45833333333333C9.666666666666666,104.13888888920833,12.083333333333334,103.72022306397307,14.5,103.5C16.916666666666668,103.27977693602693,19.333333333333332,103.25799663299664,21.75,103.13699494949495C24.166666666666668,103.01599326599326,26.583333333333332,102.89499158249158,29,102.7739898989899C31.416666666666668,102.65298821548821,33.833333333333336,102.53198653198653,36.25,102.41098484848484C38.666666666666664,102.28998316498316,41.083333333333336,102.16898148148147,43.5,102.04797979797979C45.91666666666667,101.9269781144781,48.333333333333336,101.80597643097644,50.75000000000001,101.68497474747475C53.16666666666667,101.56397306397308,55.583333333333336,101.44297138047139,58,101.3219696969697C60.416666666666664,101.20096801346801,62.833333333333336,101.07996632996633,65.25,100.95896464646464C67.66666666666667,100.83796296296295,70.08333333333333,100.71696127946129,72.5,100.5959595959596C74.91666666666667,100.47495791245791,77.33333333333333,100.35395622895624,79.75,100.23295454545455C82.16666666666667,100.11195286195286,84.58333333333333,99.99095117845118,87,99.8699494949495C89.41666666666667,99.7489478114478,91.83333333333333,99.62794612794613,94.25,99.50694444444444C96.66666666666667,99.38594276094275,99.08333333333334,99.26494107744108,101.50000000000001,99.14393939393939C103.91666666666667,99.0229377104377,106.33333333333334,98.90193602693603,108.75,98.78093434343434C111.16666666666667,98.65993265993265,113.58333333333333,98.53893097643096,116,98.41792929292929C118.41666666666667,98.2969276094276,120.83333333333334,98.17592592592594,123.25000000000001,98.05492424242425C125.66666666666667,97.93392255892257,128.08333333333334,97.81292087542089,130.5,97.6919191919192C132.91666666666666,97.57091750841751,135.33333333333334,97.44991582491583,137.75,97.32891414141415C140.16666666666666,97.20791245791246,142.58333333333334,97.08691077441078,145,96.9659090909091C147.41666666666666,96.8449074074074,149.83333333333334,96.72390572390573,152.25,96.60290404040404C154.66666666666666,96.48190235690235,157.08333333333334,96.36090067340068,159.5,96.23989898989899C161.91666666666666,96.1188973063973,164.33333333333334,95.99789562289561,166.75,95.87689393939394C169.16666666666666,95.75589225589226,171.58333333333334,95.63489057239059,174,95.5138888888889C176.41666666666666,95.39288720538721,178.83333333333334,95.27188552188554,181.25,95.15088383838385C183.66666666666666,95.02988215488216,186.08333333333334,94.90888047138047,188.5,94.78787878787878C190.91666666666666,94.6668771043771,193.33333333333334,94.54587542087542,195.75,94.42487373737374C198.16666666666669,94.30387205387206,200.58333333333334,94.18287037037038,203.00000000000003,94.06186868686869C205.41666666666669,93.940867003367,207.83333333333331,93.81986531986533,210.24999999999997,93.69886363636364C212.66666666666666,93.57786195286195,215.08333333333331,93.45686026936026,217.5,93.33585858585857C219.91666666666666,93.21485690235689,222.33333333333334,93.09385521885523,224.75,92.97285353535354C227.16666666666666,92.85185185185185,229.58333333333334,92.73085016835017,232,92.60984848484848C234.41666666666666,92.4888468013468,236.83333333333334,92.3678451178451,239.25,92.24684343434343C241.66666666666669,92.12584175084174,244.08333333333334,92.00484006734008,246.50000000000003,91.8838383838384C248.91666666666669,91.76283670033672,251.33333333333331,91.64183501683503,253.74999999999997,91.52083333333334C256.16666666666663,91.39983164983165,258.5833333333333,91.27882996632997,261,91.15782828282828C263.4166666666667,91.03682659932659,265.8333333333333,90.91582491582491,268.25,90.79482323232322C270.6666666666667,90.67382154882154,273.0833333333333,90.55281986531986,275.5,90.43181818181819C277.9166666666667,90.31081649831651,280.3333333333333,90.18981481481482,282.75,90.06881313131314C285.1666666666667,89.94781144781145,287.5833333333333,89.82680976430977,290,89.70580808080808C292.4166666666667,89.5848063973064,294.8333333333333,89.46380471380472,297.25,89.34280303030303C299.6666666666667,89.22180134680134,302.0833333333333,89.10079966329967,304.5,88.97979797979798C306.9166666666667,88.85879629629629,309.3333333333333,88.73779461279462,311.75,88.61679292929293C314.1666666666667,88.49579124579124,316.5833333333333,88.37478956228955,319,88.25378787878788C321.4166666666667,88.1327861952862,323.8333333333333,88.01178451178453,326.25,87.89078282828284C328.6666666666667,87.76978114478115,331.0833333333333,87.64877946127946,333.5,87.52777777777777C335.9166666666667,87.40677609427608,338.3333333333333,87.2857744107744,340.75,87.16477272727272C343.1666666666667,87.04377104377105,345.5833333333333,86.92276936026937,348,86.80176767676768C350.4166666666667,86.680765993266,352.8333333333333,86.55976430976432,355.25,86.43876262626263C357.6666666666667,86.31776094276094,360.0833333333333,86.19675925925927,362.5,86.07575757575758C364.9166666666667,85.95475589225589,367.3333333333333,85.83375420875421,369.75,85.71275252525253C372.1666666666667,85.59175084175084,374.5833333333333,85.47074915824918,377,85.34974747474749C379.4166666666667,85.2287457912458,381.8333333333333,85.10774410774411,384.25,84.98674242424242C386.6666666666667,84.86574074074073,389.0833333333333,84.74473905723904,391.5,84.62373737373737C393.9166666666667,84.50273569023568,396.33333333333337,84.38173400673402,398.75000000000006,84.26073232323233C401.16666666666674,84.13973063973064,403.58333333333337,84.01872895622895,406.00000000000006,83.89772727272727C408.4166666666667,83.77672558922558,410.8333333333333,83.6557239057239,413.24999999999994,83.53472222222223C415.66666666666663,83.41372053872054,418.08333333333326,83.29271885521887,420.49999999999994,83.17171717171718C422.91666666666663,83.05071548821549,425.3333333333333,82.9297138047138,427.75,82.80871212121211C430.1666666666667,82.68771043771042,432.5833333333333,82.56670875420875,435,82.44570707070707C437.4166666666667,82.3247053872054,439.8333333333333,82.2037037037037,442.25,82.08270202020202C444.6666666666667,81.96170033670035,447.0833333333333,81.84069865319867,449.5,81.71969696969698C451.9166666666667,81.5986952861953,454.3333333333333,81.4776936026936,456.75,81.35669191919192C459.1666666666667,81.23569023569023,461.5833333333333,81.11468855218854,464,80.99368686868686C466.4166666666667,80.87268518518519,468.8333333333333,80.75168350168352,471.25,80.63068181818183C473.6666666666667,80.50968013468014,476.0833333333333,80.38867845117845,478.5,80.26767676767676C480.9166666666667,80.14667508417507,483.33333333333337,80.0256734006734,485.75000000000006,79.90467171717171C488.16666666666674,79.78367003367003,490.58333333333337,79.66266835016836,493.00000000000006,79.54166666666667C495.4166666666667,79.420664983165,497.8333333333333,79.29966329966331,500.24999999999994,79.17866161616162C502.66666666666663,79.05765993265993,505.08333333333326,78.93665824915826,507.49999999999994,78.81565656565657C509.91666666666663,78.69465488215488,512.3333333333333,78.5736531986532,514.75,78.45265151515152C517.1666666666666,78.33164983164984,519.5833333333334,78.21064814814817,522,78.08964646464648C524.4166666666666,77.96864478114479,526.8333333333334,77.8476430976431,529.25,77.72664141414141C531.6666666666666,77.60563973063972,534.0833333333334,77.48463804713805,536.5,77.36363636363636C538.9166666666666,77.24263468013467,541.3333333333334,77.12163299663301,543.75,77.00063131313132C546.1666666666666,76.87962962962963,548.5833333333334,76.75862794612794,551,76.63762626262626C553.4166666666666,76.51662457912457,555.8333333333334,76.39562289562289,558.25,76.2746212121212C560.6666666666666,76.15361952861952,563.0833333333334,76.03261784511784,565.5,75.91161616161615C567.9166666666666,75.79061447811446,570.3333333333334,75.66961279461279,572.75,75.5486111111111C575.1666666666666,75.42760942760941,577.5833333333334,75.30660774410774,580,75.18560606060606C582.4166666666666,75.06460437710439,584.8333333333334,74.94360269360268,587.25,74.82260101010101C589.6666666666666,74.70159932659934,592.0833333333334,74.58059764309766,594.5,74.45959595959597C596.9166666666666,74.33859427609428,599.3333333333334,74.2175925925926,601.75,74.0965909090909C604.1666666666666,73.97558922558922,606.5833333333334,73.85458754208754,609,73.73358585858585C611.4166666666666,73.61258417508417,613.8333333333334,73.49158249158249,616.25,73.3705808080808C618.6666666666666,73.24957912457911,621.0833333333334,73.12857744107743,623.5,73.00757575757575C625.9166666666666,72.88657407407408,628.3333333333334,72.7655723905724,630.75,72.64457070707071C633.1666666666666,72.52356902356902,635.5833333333334,72.40256734006734,638,72.28156565656565C640.4166666666666,72.16056397306396,642.8333333333334,72.0395622895623,645.25,71.91856060606061C647.6666666666666,71.79755892255892,650.0833333333334,71.67655723905725,652.5,71.55555555555556C654.9166666666666,71.43455387205387,657.3333333333334,71.3135521885522,659.75,71.1925505050505C662.1666666666666,71.07154882154882,664.5833333333334,70.95054713804716,667,70.82954545454547C669.4166666666666,70.70854377104378,671.8333333333334,70.58754208754209,674.25,70.4665404040404C676.6666666666666,70.34553872053871,679.0833333333334,70.22453703703704,681.5,70.10353535353535C683.9166666666666,69.98253367003366,686.3333333333334,69.86153198653199,688.75,69.7405303030303C691.1666666666666,69.61952861952861,693.5833333333334,69.49852693602693,696,69.37752525252525C698.4166666666666,69.25652356902356,700.8333333333334,69.1355218855219,703.25,69.01452020202021C705.6666666666666,68.89351851851852,708.0833333333334,68.77251683501683,710.5,68.65151515151514C712.9166666666666,68.53051346801345,715.3333333333334,68.40951178451178,717.75,68.2885101010101C720.1666666666666,68.16750841750843,722.5833333333334,68.04650673400674,725,67.92550505050505C727.4166666666666,67.80450336700336,729.8333333333334,67.68350168350169,732.25,67.5625C734.6666666666666,67.44149831649831,737.0833333333334,67.32049663299664,739.5,67.19949494949495C741.9166666666666,67.07849326599326,744.3333333333334,66.95749158249157,746.75,66.8364898989899C749.1666666666666,66.71548821548822,751.5833333333334,66.59448653198655,754,66.47348484848486C756.4166666666666,66.35248316498317,758.8333333333334,66.23148148148148,761.25,66.11047979797979C763.6666666666666,65.9894781144781,766.0833333333334,65.86847643097644,768.5,65.74747474747475C770.9166666666666,65.62647306397307,773.3333333333334,65.50547138047139,775.75,65.3844696969697C778.1666666666666,65.26346801346801,780.5833333333334,65.14246632996633,783,65.02146464646464C785.4166666666667,64.90046296296295,787.8333333333334,64.77946127946129,790.2500000000001,64.6584595959596C792.6666666666667,64.53745791245792,795.0833333333335,64.41645622895624,797.5000000000001,64.29545454545455C799.9166666666667,64.17445286195286,802.3333333333335,64.0534511784512,804.7500000000001,63.93244949494951C807.1666666666667,63.81144781144783,809.5833333333335,63.69044612794614,812.0000000000001,63.56944444444445C814.4166666666667,63.44844276094277,816.8333333333333,63.32744107744108,819.2499999999999,63.2064393939394C821.6666666666665,63.085437710437716,824.0833333333333,62.964436026936035,826.4999999999999,62.84343434343435C828.9166666666665,62.72243265993267,831.3333333333333,62.601430976430976,833.7499999999999,62.480429292929294C836.1666666666665,62.35942760942761,838.5833333333333,62.23842592592594,840.9999999999999,62.117424242424256C843.4166666666666,61.996422558922575,845.8333333333333,61.875420875420886,848.25,61.7544191919192C850.6666666666666,61.63341750841751,853.0833333333334,61.51241582491582,855.5,61.39141414141413C857.9166666666666,61.27041245791244,860.3333333333334,61.14941077441077,862.75,61.028409090909086C865.1666666666666,60.907407407407405,867.5833333333334,60.78640572390572,870,60.66540404040404C872.4166666666666,60.54440235690236,874.8333333333334,60.42340067340067,877.25,60.30239898989899C879.6666666666666,60.18139730639731,882.0833333333334,60.060395622895626,884.5,59.939393939393945C886.9166666666666,59.81839225589226,889.3333333333334,59.69739057239056,891.75,59.57638888888888C894.1666666666666,59.4553872053872,896.5833333333334,59.334385521885515,899,59.213383838383834C901.4166666666666,59.09238215488215,903.8333333333334,58.97138047138046,906.25,58.85037878787878C908.6666666666666,58.7293771043771,911.0833333333334,58.60837542087542,913.5,58.48737373737374C915.9166666666666,58.366372053872055,918.3333333333334,58.24537037037038,920.75,58.12436868686869C923.1666666666666,58.003367003367,925.5833333333334,57.882365319865315,928,57.761363636363626C930.4166666666666,57.64036195286194,932.8333333333334,57.51936026936026,935.25,57.39835858585858C937.6666666666666,57.2773569023569,940.0833333333334,57.15635521885521,942.5,57.03535353535353C944.9166666666666,56.91435185185185,947.3333333333334,56.793350168350166,949.75,56.672348484848484C952.1666666666666,56.5513468013468,954.5833333333334,56.43034511784512,957,56.30934343434344C959.4166666666666,56.18834175084176,961.8333333333334,56.067340067340055,964.25,55.94633838383837C966.6666666666667,55.825336700336685,969.0833333333334,55.70433501683501,971.5000000000001,55.58333333333333C973.9166666666667,55.46233164983165,976.3333333333335,55.34132996632997,978.7500000000001,55.22032828282829C981.1666666666667,55.09932659932661,983.5833333333335,54.97832491582491,986.0000000000001,54.85732323232323C988.4166666666667,54.73632154882155,990.8333333333335,54.61531986531986,993.2500000000001,54.49431818181818C995.6666666666667,54.3733164983165,998.0833333333333,54.25231481481482,1000.4999999999999,54.131313131313135C1002.9166666666665,54.01031144781145,1005.3333333333333,53.88930976430977,1007.7499999999999,53.76830808080809C1010.1666666666665,53.64730639730641,1012.5833333333333,53.52630471380472,1014.9999999999999,53.40530303030304C1017.4166666666665,53.28430134680136,1019.8333333333333,53.16329966329966,1022.2499999999999,53.04229797979798C1024.6666666666665,52.92129629629629,1027.0833333333333,52.80029461279461,1029.5,52.67929292929293C1031.9166666666667,52.558291245791246,1034.3333333333333,52.437289562289564,1036.75,52.31628787878788C1039.1666666666667,52.1952861952862,1041.5833333333333,52.07428451178452,1044,51.95328282828284C1046.4166666666667,51.832281144781156,1048.8333333333333,51.711279461279474,1051.25,51.590277777777786C1053.6666666666667,51.4692760942761,1056.0833333333333,51.34827441077441,1058.5,51.22727272727273C1060.9166666666667,51.106271043771045,1063.3333333333333,50.985269360269356,1065.75,50.864267676767675C1068.1666666666667,50.74326599326599,1070.5833333333333,50.62226430976431,1073,50.50126262626263C1075.4166666666667,50.38026094276095,1077.8333333333333,50.25925925925927,1080.25,50.13825757575758C1082.6666666666667,50.01725589225589,1085.0833333333333,49.8962542087542,1087.5,49.77525252525252C1089.9166666666667,49.65425084175084,1092.3333333333333,49.53324915824916,1094.75,49.412247474747474C1097.1666666666667,49.291245791245785,1099.5833333333333,49.1702441077441,1102,49.04924242424241C1104.4166666666667,48.92824074074072,1106.8333333333333,48.807239057239045,1109.25,48.68623737373736C1111.6666666666667,48.56523569023568,1114.0833333333333,48.444234006734,1116.5,48.32323232323232C1118.9166666666667,48.20223063973064,1121.3333333333333,48.08122895622896,1123.75,47.96022727272728C1126.1666666666667,47.8392255892256,1128.5833333333333,47.7182239057239,1131,47.59722222222222C1133.4166666666667,47.47622053872054,1135.8333333333333,47.35521885521885,1138.25,47.23421717171717C1140.6666666666667,47.11321548821549,1143.0833333333333,46.992213804713806,1145.5,46.871212121212125C1147.9166666666667,46.75021043771044,1150.3333333333333,46.629208754208754,1152.75,46.50820707070707C1155.1666666666667,46.38720538720539,1157.5833333333333,46.26620370370371,1160,46.14520202020203C1162.4166666666667,46.024200336700346,1164.8333333333333,45.90319865319866,1167.25,45.78219696969697C1169.6666666666667,45.66119528619528,1172.0833333333333,45.5401936026936,1174.5,45.41919191919192C1176.9166666666667,45.298190235690235,1179.3333333333333,45.177188552188554,1181.75,45.05618686868687C1184.1666666666667,44.93518518518519,1186.5833333333333,44.8141835016835,1189,44.69318181818182C1191.4166666666667,44.57218013468014,1193.8333333333333,44.45117845117844,1196.25,44.33017676767676C1198.6666666666667,44.20917508417508,1201.0833333333333,44.0881734006734,1203.5,43.967171717171716C1205.9166666666667,43.846170033670035,1208.3333333333333,43.725168350168346,1210.75,43.604166666666664C1213.1666666666667,43.48316498316498,1215.5833333333333,43.3621632996633,1218,43.24116161616162C1220.4166666666667,43.12015993265994,1222.8333333333333,42.999158249158256,1225.25,42.87815656565657C1227.6666666666667,42.75715488215488,1230.0833333333333,42.63615319865319,1232.5,42.51515151515151C1234.9166666666667,42.39414983164983,1237.3333333333333,42.27314814814814,1239.75,42.15214646464646C1242.1666666666667,42.031144781144775,1244.5833333333333,41.91014309764309,1247,41.78914141414141C1249.4166666666667,41.66813973063973,1251.8333333333333,41.54713804713805,1254.25,41.42613636363637C1256.6666666666667,41.305134680134685,1259.0833333333333,41.18413299663298,1261.5,41.0631313131313C1263.9166666666667,40.94212962962962,1266.3333333333333,40.82112794612795,1268.75,40.70012626262627C1271.1666666666667,40.57912457912459,1273.5833333333333,40.4581228956229,1276,40.33712121212122C1278.4166666666667,40.21611952861954,1280.8333333333333,40.095117845117855,1283.25,39.97411616161617C1285.6666666666667,39.85311447811449,1288.0833333333333,39.7321127946128,1290.5,39.61111111111112C1292.9166666666667,39.49010942760944,1295.3333333333333,39.369107744107744,1297.75,39.24810606060606C1300.1666666666667,39.12710437710438,1302.5833333333333,39.0061026936027,1305,38.88510101010102C1307.4166666666667,38.764099326599336,1309.8333333333333,38.64309764309765,1312.25,38.522095959595966C1314.6666666666667,38.401094276094284,1317.0833333333333,38.28009259259261,1319.5,38.15909090909092C1321.9166666666667,38.03808922558923,1324.3333333333333,37.91708754208754,1326.75,37.796085858585855C1329.1666666666667,37.675084175084166,1331.5833333333333,37.55408249158249,1334,37.43308080808081C1336.4166666666667,37.31207912457913,1338.8333333333333,37.19107744107744,1341.25,37.07007575757575C1343.6666666666667,36.94907407407406,1346.0833333333333,36.82807239057238,1348.5,36.7070707070707C1350.9166666666667,36.58606902356902,1353.3333333333333,36.465067340067336,1355.75,36.344065656565654C1358.1666666666667,36.22306397306397,1360.5833333333333,36.102062289562284,1363,35.9810606060606C1365.4166666666667,35.86005892255892,1367.8333333333333,35.739057239057225,1370.25,35.61805555555554C1372.6666666666667,35.49705387205386,1375.0833333333333,35.37605218855218,1377.5,35.2550505050505C1379.9166666666667,35.13404882154882,1382.3333333333333,35.01304713804713,1384.75,34.892045454545446C1387.1666666666667,34.771043771043765,1389.5833333333333,34.65004208754208,1392,34.5290404040404C1394.4166666666667,34.40803872053872,1396.8333333333333,34.28703703703704,1399.25,34.16603535353535C1401.6666666666667,34.04503367003366,1404.0833333333333,33.92403198653197,1406.5,33.80303030303029C1408.9166666666667,33.68202861952861,1411.3333333333333,33.561026936026934,1413.75,33.44002525252525C1416.1666666666667,33.31902356902357,1418.5833333333333,33.19802188552189,1421,33.07702020202021C1423.4166666666667,32.956018518518526,1425.8333333333333,32.835016835016845,1428.25,32.71401515151516C1430.6666666666667,32.59301346801348,1433.0833333333333,32.47201178451178,1435.5,32.3510101010101C1437.9166666666667,32.230008417508415,1440.3333333333333,32.10900673400673,1442.75,31.988005050505052C1445.1666666666667,31.86700336700337,1447.5833333333333,31.746001683501685,1450,31.625000000000004" fill="transparent" stroke-linecap="round" stroke="#E7C6DF" stroke-width="2"></path><g class="visx-group visx-axis visx-axis-bottom" transform="translate(0, 115)"><g class="visx-group visx-axis-tick" transform="translate(0, 0)"><line class="visx-line" x1="0" y1="0" x2="0" y2="8" fill="transparent" shape-rendering="crispEdges" stroke="#000" stroke-width="0" stroke-linecap="square"></line><svg x="0" y="0" font-size="10" style="overflow:visible"><text transform="" x="0" y="18" fill="#000" font-size="10" text-anchor="middle"><tspan x="0" dy="0em">0%</tspan></text></svg></g><g class="visx-group visx-axis-tick" transform="translate(0, 0)"><line class="visx-line" x1="362.5" y1="0" x2="362.5" y2="8" fill="transparent" shape-rendering="crispEdges" stroke="#000" stroke-width="0" stroke-linecap="square"></line><svg x="0" y="0" font-size="10" style="overflow:visible"><text transform="" x="362.5" y="18" fill="#000" font-size="10" text-anchor="middle"><tspan x="362.5" dy="0em">25%</tspan></text></svg></g><g class="visx-group visx-axis-tick" transform="translate(0, 0)"><line class="visx-line" x1="725" y1="0" x2="725" y2="8" fill="transparent" shape-rendering="crispEdges" stroke="#000" stroke-width="0" stroke-linecap="square"></line><svg x="0" y="0" font-size="10" style="overflow:visible"><text transform="" x="725" y="18" fill="#000" font-size="10" text-anchor="middle"><tspan x="725" dy="0em">50%</tspan></text></svg></g><g class="visx-group visx-axis-tick" transform="translate(0, 0)"><line class="visx-line" x1="1087.5" y1="0" x2="1087.5" y2="8" fill="transparent" shape-rendering="crispEdges" stroke="#000" stroke-width="0" stroke-linecap="square"></line><svg x="0" y="0" font-size="10" style="overflow:visible"><text transform="" x="1087.5" y="18" fill="#000" font-size="10" text-anchor="middle"><tspan x="1087.5" dy="0em">75%</tspan></text></svg></g><g class="visx-group visx-axis-tick" transform="translate(0, 0)"><line class="visx-line" x1="1450" y1="0" x2="1450" y2="8" fill="transparent" shape-rendering="crispEdges" stroke="#000" stroke-width="0" stroke-linecap="square"></line><svg x="0" y="0" font-size="10" style="overflow:visible"><text transform="" x="1450" y="18" fill="#000" font-size="10" text-anchor="middle"><tspan x="1450" dy="0em">100%</tspan></text></svg></g><line class="visx-line visx-axis-line" x1="0.5" y1="0" x2="1450.5" y2="0" fill="transparent" shape-rendering="crispEdges" stroke="#222" stroke-width="0"></line></g><g class="visx-group visx-axis visx-axis-left" transform="translate(0, 0)"><g class="visx-group visx-axis-tick" transform="translate(0, 0)"><line class="visx-line" x1="0" y1="115" x2="-8" y2="115" fill="transparent" shape-rendering="crispEdges" stroke="#222" stroke-width="0" stroke-linecap="square"></line><svg x="-30" y="0" font-size="8" style="overflow:visible"><text transform="" x="-8" y="115" fill="#000" font-size="8" text-anchor="start"><tspan x="-8" dy="0em">0%</tspan></text></svg></g><g class="visx-group visx-axis-tick" transform="translate(0, 0)"><line class="visx-line" x1="0" y1="67.08333333333333" x2="-8" y2="67.08333333333333" fill="transparent" shape-rendering="crispEdges" stroke="#222" stroke-width="0" stroke-linecap="square"></line><svg x="-30" y="0" font-size="8" style="overflow:visible"><text transform="" x="-8" y="67.08333333333333" fill="#000" font-size="8" text-anchor="start"><tspan x="-8" dy="0em">50%</tspan></text></svg></g><g class="visx-group visx-axis-tick" transform="translate(0, 0)"><line class="visx-line" x1="0" y1="19.16666666666666" x2="-8" y2="19.16666666666666" fill="transparent" shape-rendering="crispEdges" stroke="#222" stroke-width="0" stroke-linecap="square"></line><svg x="-30" y="0" font-size="8" style="overflow:visible"><text transform="" x="-8" y="19.16666666666666" fill="#000" font-size="8" text-anchor="start"><tspan x="-8" dy="0em">100%</tspan></text></svg></g><line class="visx-line visx-axis-line" x1="0" y1="115.5" x2="0" y2="0.5" fill="transparent" shape-rendering="crispEdges" stroke="#222" stroke-width="0"></line></g><rect class="visx-bar" width="1450" height="115" fill="transparent"></rect><line class="visx-line" x1="14.5" y1="28" x2="14.5" y2="115" fill="transparent" shape-rendering="crispEdges" stroke="#0062D2" stroke-width="1" pointer-events="none" stroke-dasharray="5,2"></line><svg x="0" y="0" font-size="10px" style="overflow:visible"><text transform="" x="14.5" y="20" font-size="10px" fill="#fff" stroke="#fff" stroke-width="0.8em" text-anchor="middle"><tspan x="14.5" dy="0.355em">Optimal 1%</tspan></text></svg><svg x="0" y="0" font-size="10px" style="overflow:visible"><text transform="" x="14.5" y="20" font-size="10px" fill="#62677B" text-anchor="middle"><tspan x="14.5" dy="0.355em">Optimal 1%</tspan></text></svg></g></svg>