<?xml version="1.0"?><svg xmlns="http://www.w3.org/2000/svg" xmlns:xlink= "http://www.w3.org/1999/xlink" style="background: white;" width="1500" height="185"> <g style="color: black; font-size: 13px; font-family: sans-serif; transform: translate(18px, 25px);"><g><circle r="3" cx="-6" cy="-5" style="fill: #B6509E" /><text>Borrow APR, variable</text></g><g style="transform: translateX(150px);"><circle r="3" cx="-6" cy="-5" style="fill: rgb(231, 198, 223)" /><text>Borrow APR, stable</text></g><g style="transform: translateX(290px);"><circle r="3" cx="-6" cy="-5" style="fill: rgb(0, 98, 210)" /><text>Utilization Rate</text></g></g><g class="visx-group" transform="translate(40, 50)"><g class="visx-group visx-rows" transform="translate(0, 0)"><line class="visx-line" x1="0" y1="115" x2="1450" y2="115" fill="transparent" shape-rendering="crispEdges" stroke="#000" stroke-width="1" stroke-dasharray="3,3" pointer-events="none"></line><line class="visx-line" x1="0" y1="57.5" x2="1450" y2="57.5" fill="transparent" shape-rendering="crispEdges" stroke="#000" stroke-width="1" stroke-dasharray="3,3" pointer-events="none"></line><line class="visx-line" x1="0" y1="0" x2="1450" y2="0" fill="transparent" shape-rendering="crispEdges" stroke="#000" stroke-width="1" stroke-dasharray="3,3" pointer-events="none"></line></g><path class="visx-linepath" d="M0,114.712499999885C2.4166666666666665,114.69333333326625,4.833333333333334,114.6741666666475,7.25,114.655C9.666666666666666,114.63583333335251,12.083333333333334,114.61666666666667,14.5,114.59750000000001C16.916666666666668,114.57833333333335,19.333333333333332,114.55916666666667,21.75,114.54C24.166666666666668,114.52083333333334,26.583333333333332,114.50166666666667,29,114.4825C31.416666666666668,114.46333333333334,33.833333333333336,114.44416666666666,36.25,114.425C38.666666666666664,114.40583333333333,41.083333333333336,114.38666666666667,43.5,114.3675C45.91666666666667,114.34833333333334,48.333333333333336,114.32916666666667,50.75000000000001,114.31C53.16666666666667,114.29083333333334,55.583333333333336,114.27166666666668,58,114.25250000000001C60.416666666666664,114.23333333333335,62.833333333333336,114.21416666666666,65.25,114.195C67.66666666666667,114.17583333333333,70.08333333333333,114.15666666666667,72.5,114.1375C74.91666666666667,114.11833333333334,77.33333333333333,114.09916666666666,79.75,114.08C82.16666666666667,114.06083333333333,84.58333333333333,114.04166666666667,87,114.02250000000001C89.41666666666667,114.00333333333334,91.83333333333333,113.98416666666667,94.25,113.965C96.66666666666667,113.94583333333334,99.08333333333334,113.92666666666666,101.50000000000001,113.9075C103.91666666666667,113.88833333333334,106.33333333333334,113.86916666666666,108.75,113.85C111.16666666666667,113.83083333333333,113.58333333333333,113.81166666666667,116,113.7925C118.41666666666667,113.77333333333334,120.83333333333334,113.75416666666666,123.25000000000001,113.735C125.66666666666667,113.71583333333334,128.08333333333334,113.69666666666667,130.5,113.67750000000001C132.91666666666666,113.65833333333335,135.33333333333334,113.63916666666667,137.75,113.62C140.16666666666666,113.60083333333334,142.58333333333334,113.58166666666666,145,113.5625C147.41666666666666,113.54333333333334,149.83333333333334,113.52416666666666,152.25,113.505C154.66666666666666,113.48583333333333,157.08333333333334,113.46666666666667,159.5,113.4475C161.91666666666666,113.42833333333334,164.33333333333334,113.40916666666666,166.75,113.39C169.16666666666666,113.37083333333334,171.58333333333334,113.35166666666667,174,113.33250000000001C176.41666666666666,113.31333333333335,178.83333333333334,113.29416666666665,181.25,113.27499999999999C183.66666666666666,113.25583333333333,186.08333333333334,113.23666666666666,188.5,113.2175C190.91666666666666,113.19833333333334,193.33333333333334,113.17916666666666,195.75,113.16C198.16666666666669,113.14083333333333,200.58333333333334,113.12166666666667,203.00000000000003,113.1025C205.41666666666669,113.08333333333334,207.83333333333331,113.06416666666667,210.24999999999997,113.045C212.66666666666666,113.02583333333334,215.08333333333331,113.00666666666667,217.5,112.98750000000001C219.91666666666666,112.96833333333335,222.33333333333334,112.94916666666666,224.75,112.92999999999999C227.16666666666666,112.91083333333333,229.58333333333334,112.89166666666667,232,112.8725C234.41666666666666,112.85333333333334,236.83333333333334,112.83416666666666,239.25,112.815C241.66666666666669,112.79583333333333,244.08333333333334,112.77666666666667,246.50000000000003,112.75750000000001C248.91666666666669,112.73833333333334,251.33333333333331,112.71916666666667,253.74999999999997,112.7C256.16666666666663,112.68083333333334,258.5833333333333,112.66166666666666,261,112.6425C263.4166666666667,112.62333333333333,265.8333333333333,112.60416666666666,268.25,112.585C270.6666666666667,112.56583333333333,273.0833333333333,112.54666666666667,275.5,112.5275C277.9166666666667,112.50833333333334,280.3333333333333,112.48916666666666,282.75,112.47C285.1666666666667,112.45083333333334,287.5833333333333,112.43166666666667,290,112.41250000000001C292.4166666666667,112.39333333333335,294.8333333333333,112.37416666666667,297.25,112.355C299.6666666666667,112.33583333333334,302.0833333333333,112.31666666666666,304.5,112.2975C306.9166666666667,112.27833333333334,309.3333333333333,112.25916666666666,311.75,112.24C314.1666666666667,112.22083333333333,316.5833333333333,112.20166666666667,319,112.1825C321.4166666666667,112.16333333333334,323.8333333333333,112.14416666666666,326.25,112.125C328.6666666666667,112.10583333333334,331.0833333333333,112.08666666666667,333.5,112.06750000000001C335.9166666666667,112.04833333333335,338.3333333333333,112.02916666666665,340.75,112.00999999999999C343.1666666666667,111.99083333333333,345.5833333333333,111.97166666666666,348,111.9525C350.4166666666667,111.93333333333334,352.8333333333333,111.91416666666666,355.25,111.895C357.6666666666667,111.87583333333333,360.0833333333333,111.85666666666667,362.5,111.8375C364.9166666666667,111.81833333333334,367.3333333333333,111.79916666666666,369.75,111.78C372.1666666666667,111.76083333333334,374.5833333333333,111.74166666666666,377,111.7225C379.4166666666667,111.70333333333333,381.8333333333333,111.68416666666666,384.25,111.66499999999999C386.6666666666667,111.64583333333333,389.0833333333333,111.62666666666667,391.5,111.6075C393.9166666666667,111.58833333333334,396.33333333333337,111.56916666666666,398.75000000000006,111.55C401.16666666666674,111.53083333333333,403.58333333333337,111.51166666666667,406.00000000000006,111.4925C408.4166666666667,111.47333333333334,410.8333333333333,111.45416666666667,413.24999999999994,111.435C415.66666666666663,111.41583333333334,418.08333333333326,111.39666666666666,420.49999999999994,111.3775C422.91666666666663,111.35833333333333,425.3333333333333,111.33916666666666,427.75,111.32C430.1666666666667,111.30083333333333,432.5833333333333,111.28166666666667,435,111.2625C437.4166666666667,111.24333333333334,439.8333333333333,111.22416666666666,442.25,111.205C444.6666666666667,111.18583333333333,447.0833333333333,111.16666666666667,449.5,111.14750000000001C451.9166666666667,111.12833333333334,454.3333333333333,111.10916666666667,456.75,111.09C459.1666666666667,111.07083333333334,461.5833333333333,111.05166666666666,464,111.0325C466.4166666666667,111.01333333333334,468.8333333333333,110.99416666666666,471.25,110.975C473.6666666666667,110.95583333333333,476.0833333333333,110.93666666666667,478.5,110.9175C480.9166666666667,110.89833333333334,483.33333333333337,110.87916666666666,485.75000000000006,110.86C488.16666666666674,110.84083333333334,490.58333333333337,110.82166666666667,493.00000000000006,110.80250000000001C495.4166666666667,110.78333333333335,497.8333333333333,110.76416666666665,500.24999999999994,110.74499999999999C502.66666666666663,110.72583333333333,505.08333333333326,110.70666666666666,507.49999999999994,110.6875C509.91666666666663,110.66833333333334,512.3333333333333,110.64916666666666,514.75,110.63C517.1666666666666,110.61083333333333,519.5833333333334,110.59166666666667,522,110.5725C524.4166666666666,110.55333333333334,526.8333333333334,110.53416666666666,529.25,110.515C531.6666666666666,110.49583333333334,534.0833333333334,110.47666666666666,536.5,110.4575C538.9166666666666,110.43833333333333,541.3333333333334,110.41916666666665,543.75,110.39999999999999C546.1666666666666,110.38083333333333,548.5833333333334,110.36166666666666,551,110.3425C553.4166666666666,110.32333333333334,555.8333333333334,110.30416666666666,558.25,110.285C560.6666666666666,110.26583333333333,563.0833333333334,110.24666666666667,565.5,110.2275C567.9166666666666,110.20833333333334,570.3333333333334,110.18916666666667,572.75,110.17C575.1666666666666,110.15083333333334,577.5833333333334,110.13166666666666,580,110.1125C582.4166666666666,110.09333333333333,584.8333333333334,110.07416666666666,587.25,110.05499999999999C589.6666666666666,110.03583333333333,592.0833333333334,110.01666666666667,594.5,109.9975C596.9166666666666,109.97833333333334,599.3333333333334,109.95916666666666,601.75,109.94C604.1666666666666,109.92083333333333,606.5833333333334,109.90166666666667,609,109.88250000000001C611.4166666666666,109.86333333333334,613.8333333333334,109.84416666666665,616.25,109.82499999999999C618.6666666666666,109.80583333333333,621.0833333333334,109.78666666666666,623.5,109.7675C625.9166666666666,109.74833333333333,628.3333333333334,109.72916666666666,630.75,109.71C633.1666666666666,109.69083333333333,635.5833333333334,109.67166666666667,638,109.6525C640.4166666666666,109.63333333333334,642.8333333333334,109.61416666666666,645.25,109.595C647.6666666666666,109.57583333333334,650.0833333333334,109.57583333333334,652.5,109.53750000000001C654.9166666666666,109.49916666666668,657.3333333333334,108.97992424242425,659.75,108.70113636363637C662.1666666666666,108.42234848484848,664.5833333333334,108.14356060606062,667,107.86477272727274C669.4166666666666,107.58598484848486,671.8333333333334,107.30719696969697,674.25,107.0284090909091C676.6666666666666,106.74962121212121,679.0833333333334,106.47083333333335,681.5,106.19204545454546C683.9166666666666,105.91325757575758,686.3333333333334,105.6344696969697,688.75,105.35568181818182C691.1666666666666,105.07689393939394,693.5833333333334,104.79810606060607,696,104.51931818181819C698.4166666666666,104.24053030303031,700.8333333333334,103.96174242424243,703.25,103.68295454545455C705.6666666666666,103.40416666666667,708.0833333333334,103.12537878787879,710.5,102.8465909090909C712.9166666666666,102.56780303030303,715.3333333333334,102.28901515151514,717.75,102.01022727272726C720.1666666666666,101.73143939393938,722.5833333333334,101.45265151515152,725,101.17386363636363C727.4166666666666,100.89507575757575,729.8333333333334,100.61628787878789,732.25,100.3375C734.6666666666666,100.05871212121212,737.0833333333334,99.77992424242424,739.5,99.50113636363636C741.9166666666666,99.22234848484848,744.3333333333334,98.9435606060606,746.75,98.66477272727272C749.1666666666666,98.38598484848484,751.5833333333334,98.10719696969697,754,97.82840909090909C756.4166666666666,97.54962121212121,758.8333333333334,97.27083333333333,761.25,96.99204545454545C763.6666666666666,96.71325757575757,766.0833333333334,96.4344696969697,768.5,96.15568181818182C770.9166666666666,95.87689393939394,773.3333333333334,95.59810606060606,775.75,95.31931818181818C778.1666666666666,95.0405303030303,780.5833333333334,94.76174242424241,783,94.48295454545453C785.4166666666667,94.20416666666665,787.8333333333334,93.92537878787878,790.2500000000001,93.6465909090909C792.6666666666667,93.36780303030302,795.0833333333335,93.08901515151516,797.5000000000001,92.81022727272727C799.9166666666667,92.5314393939394,802.3333333333335,92.25265151515153,804.7500000000001,91.97386363636365C807.1666666666667,91.69507575757576,809.5833333333335,91.41628787878788,812.0000000000001,91.1375C814.4166666666667,90.85871212121212,816.8333333333333,90.57992424242425,819.2499999999999,90.30113636363637C821.6666666666665,90.0223484848485,824.0833333333333,89.74356060606061,826.4999999999999,89.46477272727273C828.9166666666665,89.18598484848485,831.3333333333333,88.90719696969698,833.7499999999999,88.6284090909091C836.1666666666665,88.34962121212122,838.5833333333333,88.07083333333334,840.9999999999999,87.79204545454546C843.4166666666666,87.51325757575758,845.8333333333333,87.2344696969697,848.25,86.95568181818182C850.6666666666666,86.67689393939393,853.0833333333334,86.39810606060605,855.5,86.11931818181817C857.9166666666666,85.84053030303029,860.3333333333334,85.56174242424242,862.75,85.28295454545454C865.1666666666666,85.00416666666666,867.5833333333334,84.7253787878788,870,84.44659090909092C872.4166666666666,84.16780303030303,874.8333333333334,83.88901515151515,877.25,83.61022727272727C879.6666666666666,83.33143939393939,882.0833333333334,83.05265151515151,884.5,82.77386363636363C886.9166666666666,82.49507575757575,889.3333333333334,82.21628787878788,891.75,81.9375C894.1666666666666,81.65871212121212,896.5833333333334,81.37992424242424,899,81.10113636363636C901.4166666666666,80.82234848484848,903.8333333333334,80.54356060606061,906.25,80.26477272727273C908.6666666666666,79.98598484848485,911.0833333333334,79.70719696969697,913.5,79.42840909090908C915.9166666666666,79.1496212121212,918.3333333333334,78.87083333333332,920.75,78.59204545454544C923.1666666666666,78.31325757575756,925.5833333333334,78.0344696969697,928,77.75568181818181C930.4166666666666,77.47689393939393,932.8333333333334,77.19810606060607,935.25,76.91931818181818C937.6666666666666,76.6405303030303,940.0833333333334,76.36174242424244,942.5,76.08295454545456C944.9166666666666,75.80416666666667,947.3333333333334,75.5253787878788,949.75,75.24659090909091C952.1666666666666,74.96780303030303,954.5833333333334,74.68901515151515,957,74.41022727272727C959.4166666666666,74.13143939393939,961.8333333333334,73.85265151515152,964.25,73.57386363636364C966.6666666666667,73.29507575757576,969.0833333333334,73.01628787878789,971.5000000000001,72.73750000000001C973.9166666666667,72.45871212121213,976.3333333333335,72.17992424242425,978.7500000000001,71.90113636363637C981.1666666666667,71.62234848484849,983.5833333333335,71.3435606060606,986.0000000000001,71.06477272727273C988.4166666666667,70.78598484848484,990.8333333333335,70.50719696969696,993.2500000000001,70.22840909090908C995.6666666666667,69.9496212121212,998.0833333333333,69.67083333333332,1000.4999999999999,69.39204545454544C1002.9166666666665,69.11325757575756,1005.3333333333333,68.83446969696969,1007.7499999999999,68.55568181818181C1010.1666666666665,68.27689393939393,1012.5833333333333,67.99810606060606,1014.9999999999999,67.71931818181818C1017.4166666666665,67.4405303030303,1019.8333333333333,67.16174242424243,1022.2499999999999,66.88295454545455C1024.6666666666665,66.60416666666667,1027.0833333333333,66.3253787878788,1029.5,66.04659090909092C1031.9166666666667,65.76780303030304,1034.3333333333333,65.48901515151515,1036.75,65.21022727272727C1039.1666666666667,64.93143939393939,1041.5833333333333,64.65265151515152,1044,64.37386363636364C1046.4166666666667,64.09507575757576,1048.8333333333333,63.81628787878788,1051.25,63.5375C1053.6666666666667,63.25871212121212,1056.0833333333333,62.97992424242424,1058.5,62.70113636363636C1060.9166666666667,62.42234848484848,1063.3333333333333,62.1435606060606,1065.75,61.86477272727273C1068.1666666666667,61.585984848484856,1070.5833333333333,61.30719696969698,1073,61.0284090909091C1075.4166666666667,60.74962121212122,1077.8333333333333,60.47083333333334,1080.25,60.19204545454546C1082.6666666666667,59.91325757575758,1085.0833333333333,59.634469696969695,1087.5,59.355681818181814C1089.9166666666667,59.07689393939393,1092.3333333333333,58.79810606060605,1094.75,58.51931818181817C1097.1666666666667,58.24053030303029,1099.5833333333333,57.961742424242416,1102,57.68295454545454C1104.4166666666667,57.40416666666667,1106.8333333333333,57.12537878787879,1109.25,56.84659090909091C1111.6666666666667,56.567803030303025,1114.0833333333333,56.28901515151516,1116.5,56.01022727272728C1118.9166666666667,55.7314393939394,1121.3333333333333,55.452651515151516,1123.75,55.173863636363635C1126.1666666666667,54.89507575757575,1128.5833333333333,54.61628787878789,1131,54.337500000000006C1133.4166666666667,54.058712121212125,1135.8333333333333,53.779924242424244,1138.25,53.50113636363636C1140.6666666666667,53.22234848484848,1143.0833333333333,52.943560606060615,1145.5,52.664772727272734C1147.9166666666667,52.38598484848485,1150.3333333333333,52.10719696969697,1152.75,51.82840909090909C1155.1666666666667,51.54962121212121,1157.5833333333333,51.27083333333333,1160,50.99204545454545C1162.4166666666667,50.71325757575757,1164.8333333333333,50.4344696969697,1167.25,50.15568181818182C1169.6666666666667,49.87689393939394,1172.0833333333333,49.59810606060606,1174.5,49.319318181818176C1176.9166666666667,49.040530303030295,1179.3333333333333,48.76174242424243,1181.75,48.48295454545455C1184.1666666666667,48.204166666666666,1186.5833333333333,47.925378787878785,1189,47.64659090909091C1191.4166666666667,47.36780303030304,1193.8333333333333,47.08901515151516,1196.25,46.81022727272728C1198.6666666666667,46.5314393939394,1201.0833333333333,46.25265151515152,1203.5,45.97386363636364C1205.9166666666667,45.69507575757576,1208.3333333333333,45.41628787878788,1210.75,45.137499999999996C1213.1666666666667,44.858712121212115,1215.5833333333333,44.57992424242425,1218,44.30113636363637C1220.4166666666667,44.022348484848486,1222.8333333333333,43.743560606060605,1225.25,43.464772727272724C1227.6666666666667,43.18598484848484,1230.0833333333333,42.907196969696976,1232.5,42.628409090909095C1234.9166666666667,42.349621212121214,1237.3333333333333,42.07083333333333,1239.75,41.79204545454545C1242.1666666666667,41.51325757575757,1244.5833333333333,41.23446969696969,1247,40.95568181818181C1249.4166666666667,40.67689393939393,1251.8333333333333,40.398106060606054,1254.25,40.11931818181818C1256.6666666666667,39.840530303030306,1259.0833333333333,39.561742424242425,1261.5,39.282954545454544C1263.9166666666667,39.00416666666666,1266.3333333333333,38.725378787878796,1268.75,38.446590909090915C1271.1666666666667,38.167803030303034,1273.5833333333333,37.88901515151515,1276,37.61022727272727C1278.4166666666667,37.33143939393939,1280.8333333333333,37.052651515151524,1283.25,36.77386363636364C1285.6666666666667,36.49507575757576,1288.0833333333333,36.21628787878788,1290.5,35.9375C1292.9166666666667,35.65871212121212,1295.3333333333333,35.37992424242424,1297.75,35.10113636363636C1300.1666666666667,34.822348484848476,1302.5833333333333,34.54356060606061,1305,34.26477272727273C1307.4166666666667,33.98598484848485,1309.8333333333333,33.707196969696966,1312.25,33.428409090909085C1314.6666666666667,33.149621212121204,1317.0833333333333,32.87083333333334,1319.5,32.592045454545456C1321.9166666666667,32.313257575757575,1324.3333333333333,32.034469696969694,1326.75,31.755681818181817C1329.1666666666667,31.47689393939394,1331.5833333333333,31.198106060606065,1334,30.919318181818188C1336.4166666666667,30.64053030303031,1338.8333333333333,30.361742424242426,1341.25,30.082954545454545C1343.6666666666667,29.804166666666664,1346.0833333333333,29.525378787878783,1348.5,29.246590909090905C1350.9166666666667,28.967803030303028,1353.3333333333333,28.689015151515154,1355.75,28.410227272727276C1358.1666666666667,28.1314393939394,1360.5833333333333,27.85265151515151,1363,27.573863636363633C1365.4166666666667,27.295075757575756,1367.8333333333333,27.016287878787885,1370.25,26.737500000000004C1372.6666666666667,26.458712121212123,1375.0833333333333,26.179924242424228,1377.5,25.90113636363635C1379.9166666666667,25.622348484848473,1382.3333333333333,25.34356060606061,1384.75,25.064772727272732C1387.1666666666667,24.785984848484855,1389.5833333333333,24.507196969696956,1392,24.22840909090908C1394.4166666666667,23.9496212121212,1396.8333333333333,23.67083333333334,1399.25,23.392045454545464C1401.6666666666667,23.113257575757586,1404.0833333333333,22.834469696969688,1406.5,22.55568181818181C1408.9166666666667,22.276893939393933,1411.3333333333333,21.99810606060607,1413.75,21.719318181818192C1416.1666666666667,21.440530303030314,1418.5833333333333,21.16174242424242,1421,20.882954545454538C1423.4166666666667,20.604166666666657,1425.8333333333333,20.325378787878787,1428.25,20.04659090909091C1430.6666666666667,19.767803030303032,1433.0833333333333,19.489015151515144,1435.5,19.210227272727266C1437.9166666666667,18.93143939393939,1440.3333333333333,18.652651515151515,1442.75,18.373863636363637C1445.1666666666667,18.09507575757576,1447.5833333333333,17.81628787878788,1450,17.537499999999998" fill="transparent" stroke-linecap="round" stroke="#B6509E" stroke-width="2"></path><path class="visx-linepath" d="M0,103.4999999999489C2.4166666666666665,103.49148148145167,4.833333333333334,103.48296296295445,7.25,103.47444444444444C9.666666666666666,103.46592592593444,12.083333333333334,103.4574074074074,14.5,103.44888888888889C16.916666666666668,103.44037037037037,19.333333333333332,103.43185185185185,21.75,103.42333333333333C24.166666666666668,103.41481481481482,26.583333333333332,103.40629629629629,29,103.39777777777778C31.416666666666668,103.38925925925926,33.833333333333336,103.38074074074073,36.25,103.37222222222222C38.666666666666664,103.3637037037037,41.083333333333336,103.35518518518519,43.5,103.34666666666668C45.91666666666667,103.33814814814816,48.333333333333336,103.32962962962964,50.75000000000001,103.32111111111112C53.16666666666667,103.31259259259261,55.583333333333336,103.30407407407408,58,103.29555555555557C60.416666666666664,103.28703703703704,62.833333333333336,103.27851851851852,65.25,103.27C67.66666666666667,103.26148148148147,70.08333333333333,103.25296296296295,72.5,103.24444444444444C74.91666666666667,103.23592592592593,77.33333333333333,103.2274074074074,79.75,103.21888888888888C82.16666666666667,103.21037037037037,84.58333333333333,103.20185185185184,87,103.19333333333333C89.41666666666667,103.18481481481481,91.83333333333333,103.17629629629629,94.25,103.16777777777777C96.66666666666667,103.15925925925926,99.08333333333334,103.15074074074073,101.50000000000001,103.14222222222222C103.91666666666667,103.1337037037037,106.33333333333334,103.12518518518519,108.75,103.11666666666667C111.16666666666667,103.10814814814816,113.58333333333333,103.09962962962962,116,103.0911111111111C118.41666666666667,103.08259259259259,120.83333333333334,103.07407407407408,123.25000000000001,103.06555555555556C125.66666666666667,103.05703703703705,128.08333333333334,103.04851851851852,130.5,103.04C132.91666666666666,103.03148148148149,135.33333333333334,103.02296296296296,137.75,103.01444444444445C140.16666666666666,103.00592592592594,142.58333333333334,102.99740740740741,145,102.9888888888889C147.41666666666666,102.98037037037038,149.83333333333334,102.97185185185185,152.25,102.96333333333334C154.66666666666666,102.95481481481482,157.08333333333334,102.94629629629628,159.5,102.93777777777777C161.91666666666666,102.92925925925925,164.33333333333334,102.92074074074073,166.75,102.91222222222221C169.16666666666666,102.9037037037037,171.58333333333334,102.89518518518518,174,102.88666666666667C176.41666666666666,102.87814814814816,178.83333333333334,102.86962962962963,181.25,102.86111111111111C183.66666666666666,102.8525925925926,186.08333333333334,102.84407407407407,188.5,102.83555555555556C190.91666666666666,102.82703703703704,193.33333333333334,102.81851851851852,195.75,102.81C198.16666666666669,102.80148148148149,200.58333333333334,102.79296296296296,203.00000000000003,102.78444444444445C205.41666666666669,102.77592592592593,207.83333333333331,102.7674074074074,210.24999999999997,102.75888888888889C212.66666666666666,102.75037037037038,215.08333333333331,102.74185185185185,217.5,102.73333333333333C219.91666666666666,102.72481481481482,222.33333333333334,102.71629629629629,224.75,102.70777777777778C227.16666666666666,102.69925925925926,229.58333333333334,102.69074074074074,232,102.68222222222222C234.41666666666666,102.67370370370371,236.83333333333334,102.66518518518518,239.25,102.65666666666667C241.66666666666669,102.64814814814814,244.08333333333334,102.63962962962961,246.50000000000003,102.6311111111111C248.91666666666669,102.62259259259258,251.33333333333331,102.61407407407407,253.74999999999997,102.60555555555555C256.16666666666663,102.59703703703704,258.5833333333333,102.58851851851851,261,102.58C263.4166666666667,102.57148148148148,265.8333333333333,102.56296296296296,268.25,102.55444444444444C270.6666666666667,102.54592592592593,273.0833333333333,102.5374074074074,275.5,102.52888888888889C277.9166666666667,102.52037037037037,280.3333333333333,102.51185185185184,282.75,102.50333333333333C285.1666666666667,102.49481481481482,287.5833333333333,102.4862962962963,290,102.47777777777779C292.4166666666667,102.46925925925927,294.8333333333333,102.46074074074073,297.25,102.45222222222222C299.6666666666667,102.4437037037037,302.0833333333333,102.43518518518519,304.5,102.42666666666668C306.9166666666667,102.41814814814816,309.3333333333333,102.40962962962963,311.75,102.40111111111112C314.1666666666667,102.3925925925926,316.5833333333333,102.38407407407408,319,102.37555555555556C321.4166666666667,102.36703703703705,323.8333333333333,102.35851851851854,326.25,102.35000000000001C328.6666666666667,102.34148148148148,331.0833333333333,102.33296296296297,333.5,102.32444444444444C335.9166666666667,102.31592592592591,338.3333333333333,102.3074074074074,340.75,102.29888888888888C343.1666666666667,102.29037037037037,345.5833333333333,102.28185185185184,348,102.27333333333333C350.4166666666667,102.26481481481481,352.8333333333333,102.25629629629628,355.25,102.24777777777777C357.6666666666667,102.23925925925926,360.0833333333333,102.23074074074073,362.5,102.22222222222221C364.9166666666667,102.2137037037037,367.3333333333333,102.20518518518519,369.75,102.19666666666667C372.1666666666667,102.18814814814816,374.5833333333333,102.17962962962962,377,102.1711111111111C379.4166666666667,102.16259259259259,381.8333333333333,102.15407407407407,384.25,102.14555555555556C386.6666666666667,102.13703703703705,389.0833333333333,102.12851851851852,391.5,102.12C393.9166666666667,102.11148148148149,396.33333333333337,102.10296296296296,398.75000000000006,102.09444444444445C401.16666666666674,102.08592592592593,403.58333333333337,102.0774074074074,406.00000000000006,102.06888888888889C408.4166666666667,102.06037037037038,410.8333333333333,102.05185185185185,413.24999999999994,102.04333333333334C415.66666666666663,102.03481481481482,418.08333333333326,102.0262962962963,420.49999999999994,102.01777777777778C422.91666666666663,102.00925925925925,425.3333333333333,102.00074074074072,427.75,101.99222222222221C430.1666666666667,101.9837037037037,432.5833333333333,101.97518518518518,435,101.96666666666667C437.4166666666667,101.95814814814815,439.8333333333333,101.94962962962963,442.25,101.94111111111111C444.6666666666667,101.9325925925926,447.0833333333333,101.92407407407407,449.5,101.91555555555556C451.9166666666667,101.90703703703704,454.3333333333333,101.89851851851851,456.75,101.89C459.1666666666667,101.88148148148149,461.5833333333333,101.87296296296296,464,101.86444444444444C466.4166666666667,101.85592592592593,468.8333333333333,101.8474074074074,471.25,101.83888888888889C473.6666666666667,101.83037037037037,476.0833333333333,101.82185185185185,478.5,101.81333333333333C480.9166666666667,101.80481481481482,483.33333333333337,101.79629629629629,485.75000000000006,101.78777777777778C488.16666666666674,101.77925925925926,490.58333333333337,101.77074074074073,493.00000000000006,101.76222222222222C495.4166666666667,101.7537037037037,497.8333333333333,101.74518518518519,500.24999999999994,101.73666666666668C502.66666666666663,101.72814814814816,505.08333333333326,101.71962962962962,507.49999999999994,101.71111111111111C509.91666666666663,101.70259259259258,512.3333333333333,101.69407407407407,514.75,101.68555555555555C517.1666666666666,101.67703703703704,519.5833333333334,101.66851851851851,522,101.66C524.4166666666666,101.65148148148148,526.8333333333334,101.64296296296295,529.25,101.63444444444444C531.6666666666666,101.62592592592593,534.0833333333334,101.6174074074074,536.5,101.60888888888888C538.9166666666666,101.60037037037037,541.3333333333334,101.59185185185184,543.75,101.58333333333333C546.1666666666666,101.57481481481481,548.5833333333334,101.5662962962963,551,101.55777777777779C553.4166666666666,101.54925925925927,555.8333333333334,101.54074074074073,558.25,101.53222222222222C560.6666666666666,101.5237037037037,563.0833333333334,101.51518518518519,565.5,101.50666666666667C567.9166666666666,101.49814814814816,570.3333333333334,101.48962962962963,572.75,101.48111111111112C575.1666666666666,101.4725925925926,577.5833333333334,101.46407407407408,580,101.45555555555556C582.4166666666666,101.44703703703705,584.8333333333334,101.43851851851852,587.25,101.43C589.6666666666666,101.42148148148149,592.0833333333334,101.41296296296295,594.5,101.40444444444444C596.9166666666666,101.39592592592592,599.3333333333334,101.3874074074074,601.75,101.37888888888888C604.1666666666666,101.37037037037037,606.5833333333334,101.36185185185184,609,101.35333333333332C611.4166666666666,101.34481481481481,613.8333333333334,101.33629629629628,616.25,101.32777777777777C618.6666666666666,101.31925925925925,621.0833333333334,101.31074074074073,623.5,101.30222222222221C625.9166666666666,101.2937037037037,628.3333333333334,101.28518518518518,630.75,101.27666666666667C633.1666666666666,101.26814814814816,635.5833333333334,101.25962962962963,638,101.25111111111111C640.4166666666666,101.2425925925926,642.8333333333334,101.23407407407407,645.25,101.22555555555556C647.6666666666666,101.21703703703704,650.0833333333334,101.21703703703704,652.5,101.2C654.9166666666666,101.18296296296296,657.3333333333334,100.67727272727274,659.75,100.4159090909091C662.1666666666666,100.15454545454546,664.5833333333334,99.89318181818182,667,99.63181818181818C669.4166666666666,99.37045454545454,671.8333333333334,99.10909090909092,674.25,98.84772727272728C676.6666666666666,98.58636363636364,679.0833333333334,98.325,681.5,98.06363636363636C683.9166666666666,97.80227272727272,686.3333333333334,97.5409090909091,688.75,97.27954545454546C691.1666666666666,97.01818181818182,693.5833333333334,96.75681818181819,696,96.49545454545455C698.4166666666666,96.23409090909091,700.8333333333334,95.97272727272728,703.25,95.71136363636364C705.6666666666666,95.45,708.0833333333334,95.18863636363636,710.5,94.92727272727272C712.9166666666666,94.66590909090908,715.3333333333334,94.40454545454546,717.75,94.14318181818182C720.1666666666666,93.88181818181818,722.5833333333334,93.62045454545455,725,93.35909090909091C727.4166666666666,93.09772727272727,729.8333333333334,92.83636363636363,732.25,92.57499999999999C734.6666666666666,92.31363636363635,737.0833333333334,92.05227272727274,739.5,91.7909090909091C741.9166666666666,91.52954545454546,744.3333333333334,91.26818181818183,746.75,91.00681818181819C749.1666666666666,90.74545454545455,751.5833333333334,90.48409090909091,754,90.22272727272727C756.4166666666666,89.96136363636363,758.8333333333334,89.7,761.25,89.43863636363636C763.6666666666666,89.17727272727272,766.0833333333334,88.9159090909091,768.5,88.65454545454546C770.9166666666666,88.39318181818182,773.3333333333334,88.13181818181819,775.75,87.87045454545455C778.1666666666666,87.60909090909091,780.5833333333334,87.34772727272728,783,87.08636363636364C785.4166666666667,86.825,787.8333333333334,86.56363636363638,790.2500000000001,86.30227272727274C792.6666666666667,86.0409090909091,795.0833333333335,85.77954545454546,797.5000000000001,85.51818181818182C799.9166666666667,85.25681818181818,802.3333333333335,84.99545454545455,804.7500000000001,84.73409090909091C807.1666666666667,84.47272727272727,809.5833333333335,84.21136363636364,812.0000000000001,83.95C814.4166666666667,83.68863636363636,816.8333333333333,83.42727272727272,819.2499999999999,83.16590909090908C821.6666666666665,82.90454545454544,824.0833333333333,82.64318181818182,826.4999999999999,82.38181818181818C828.9166666666665,82.12045454545454,831.3333333333333,81.85909090909091,833.7499999999999,81.59772727272727C836.1666666666665,81.33636363636363,838.5833333333333,81.07499999999999,840.9999999999999,80.81363636363635C843.4166666666666,80.55227272727271,845.8333333333333,80.2909090909091,848.25,80.02954545454546C850.6666666666666,79.76818181818183,853.0833333333334,79.50681818181819,855.5,79.24545454545455C857.9166666666666,78.98409090909091,860.3333333333334,78.72272727272727,862.75,78.46136363636363C865.1666666666666,78.19999999999999,867.5833333333334,77.93863636363636,870,77.67727272727274C872.4166666666666,77.41590909090911,874.8333333333334,77.15454545454547,877.25,76.89318181818183C879.6666666666666,76.63181818181819,882.0833333333334,76.37045454545455,884.5,76.10909090909091C886.9166666666666,75.84772727272727,889.3333333333334,75.58636363636364,891.75,75.325C894.1666666666666,75.06363636363636,896.5833333333334,74.80227272727274,899,74.5409090909091C901.4166666666666,74.27954545454546,903.8333333333334,74.01818181818182,906.25,73.75681818181818C908.6666666666666,73.49545454545454,911.0833333333334,73.23409090909091,913.5,72.97272727272727C915.9166666666666,72.71136363636363,918.3333333333334,72.45,920.75,72.18863636363636C923.1666666666666,71.92727272727272,925.5833333333334,71.66590909090908,928,71.40454545454544C930.4166666666666,71.1431818181818,932.8333333333334,70.88181818181818,935.25,70.62045454545454C937.6666666666666,70.3590909090909,940.0833333333334,70.09772727272727,942.5,69.83636363636363C944.9166666666666,69.57499999999999,947.3333333333334,69.31363636363636,949.75,69.05227272727272C952.1666666666666,68.79090909090908,954.5833333333334,68.52954545454544,957,68.2681818181818C959.4166666666666,68.00681818181816,961.8333333333334,67.74545454545454,964.25,67.48409090909091C966.6666666666667,67.22272727272727,969.0833333333334,66.96136363636364,971.5000000000001,66.7C973.9166666666667,66.43863636363636,976.3333333333335,66.17727272727274,978.7500000000001,65.9159090909091C981.1666666666667,65.65454545454546,983.5833333333335,65.39318181818183,986.0000000000001,65.13181818181819C988.4166666666667,64.87045454545455,990.8333333333335,64.60909090909091,993.2500000000001,64.34772727272727C995.6666666666667,64.08636363636363,998.0833333333333,63.824999999999996,1000.4999999999999,63.56363636363636C1002.9166666666665,63.30227272727272,1005.3333333333333,63.040909090909096,1007.7499999999999,62.779545454545456C1010.1666666666665,62.518181818181816,1012.5833333333333,62.25681818181818,1014.9999999999999,61.99545454545454C1017.4166666666665,61.7340909090909,1019.8333333333333,61.47272727272726,1022.2499999999999,61.21136363636363C1024.6666666666665,60.94999999999999,1027.0833333333333,60.68863636363636,1029.5,60.42727272727272C1031.9166666666667,60.16590909090909,1034.3333333333333,59.90454545454544,1036.75,59.64318181818181C1039.1666666666667,59.381818181818176,1041.5833333333333,59.12045454545456,1044,58.859090909090924C1046.4166666666667,58.59772727272729,1048.8333333333333,58.33636363636364,1051.25,58.075C1053.6666666666667,57.81363636363636,1056.0833333333333,57.55227272727273,1058.5,57.29090909090909C1060.9166666666667,57.02954545454545,1063.3333333333333,56.768181818181816,1065.75,56.506818181818176C1068.1666666666667,56.245454545454535,1070.5833333333333,55.9840909090909,1073,55.72272727272727C1075.4166666666667,55.461363636363636,1077.8333333333333,55.2,1080.25,54.93863636363637C1082.6666666666667,54.67727272727274,1085.0833333333333,54.415909090909096,1087.5,54.154545454545456C1089.9166666666667,53.893181818181816,1092.3333333333333,53.63181818181819,1094.75,53.37045454545455C1097.1666666666667,53.10909090909091,1099.5833333333333,52.847727272727276,1102,52.586363636363636C1104.4166666666667,52.324999999999996,1106.8333333333333,52.06363636363636,1109.25,51.80227272727272C1111.6666666666667,51.54090909090908,1114.0833333333333,51.279545454545456,1116.5,51.018181818181816C1118.9166666666667,50.756818181818176,1121.3333333333333,50.495454545454535,1123.75,50.2340909090909C1126.1666666666667,49.97272727272727,1128.5833333333333,49.711363636363636,1131,49.45C1133.4166666666667,49.18863636363637,1135.8333333333333,48.92727272727274,1138.25,48.665909090909096C1140.6666666666667,48.404545454545456,1143.0833333333333,48.143181818181816,1145.5,47.88181818181818C1147.9166666666667,47.62045454545455,1150.3333333333333,47.35909090909091,1152.75,47.097727272727276C1155.1666666666667,46.83636363636364,1157.5833333333333,46.575,1160,46.31363636363636C1162.4166666666667,46.05227272727272,1164.8333333333333,45.79090909090908,1167.25,45.52954545454545C1169.6666666666667,45.268181818181816,1172.0833333333333,45.006818181818176,1174.5,44.74545454545454C1176.9166666666667,44.48409090909091,1179.3333333333333,44.222727272727276,1181.75,43.96136363636364C1184.1666666666667,43.70000000000001,1186.5833333333333,43.43863636363636,1189,43.17727272727273C1191.4166666666667,42.915909090909096,1193.8333333333333,42.654545454545456,1196.25,42.39318181818182C1198.6666666666667,42.13181818181819,1201.0833333333333,41.87045454545455,1203.5,41.60909090909091C1205.9166666666667,41.34772727272727,1208.3333333333333,41.08636363636363,1210.75,40.824999999999996C1213.1666666666667,40.56363636363636,1215.5833333333333,40.30227272727272,1218,40.04090909090909C1220.4166666666667,39.779545454545456,1222.8333333333333,39.518181818181816,1225.25,39.256818181818176C1227.6666666666667,38.995454545454535,1230.0833333333333,38.734090909090895,1232.5,38.47272727272726C1234.9166666666667,38.21136363636363,1237.3333333333333,37.95,1239.75,37.68863636363637C1242.1666666666667,37.42727272727274,1244.5833333333333,37.165909090909096,1247,36.904545454545456C1249.4166666666667,36.643181818181816,1251.8333333333333,36.38181818181818,1254.25,36.12045454545454C1256.6666666666667,35.8590909090909,1259.0833333333333,35.597727272727255,1261.5,35.33636363636362C1263.9166666666667,35.07499999999999,1266.3333333333333,34.813636363636355,1268.75,34.55227272727272C1271.1666666666667,34.29090909090909,1273.5833333333333,34.02954545454544,1276,33.76818181818181C1278.4166666666667,33.506818181818176,1280.8333333333333,33.24545454545455,1283.25,32.98409090909092C1285.6666666666667,32.72272727272728,1288.0833333333333,32.46136363636364,1290.5,32.2C1292.9166666666667,31.938636363636363,1295.3333333333333,31.677272727272715,1297.75,31.41590909090908C1300.1666666666667,31.154545454545442,1302.5833333333333,30.893181818181816,1305,30.631818181818183C1307.4166666666667,30.37045454545455,1309.8333333333333,30.109090909090906,1312.25,29.84772727272727C1314.6666666666667,29.586363636363632,1317.0833333333333,29.325,1319.5,29.06363636363636C1321.9166666666667,28.80227272727272,1324.3333333333333,28.54090909090907,1326.75,28.279545454545435C1329.1666666666667,28.018181818181798,1331.5833333333333,27.756818181818172,1334,27.49545454545454C1336.4166666666667,27.234090909090906,1338.8333333333333,26.972727272727276,1341.25,26.71136363636364C1343.6666666666667,26.450000000000003,1346.0833333333333,26.188636363636366,1348.5,25.92727272727273C1350.9166666666667,25.665909090909093,1353.3333333333333,25.404545454545456,1355.75,25.143181818181816C1358.1666666666667,24.881818181818176,1360.5833333333333,24.620454545454532,1363,24.359090909090895C1365.4166666666667,24.09772727272726,1367.8333333333333,23.83636363636363,1370.25,23.574999999999996C1372.6666666666667,23.313636363636363,1375.0833333333333,23.05227272727273,1377.5,22.790909090909096C1379.9166666666667,22.529545454545463,1382.3333333333333,22.268181818181823,1384.75,22.006818181818186C1387.1666666666667,21.74545454545455,1389.5833333333333,21.48409090909091,1392,21.222727272727276C1394.4166666666667,20.961363636363643,1396.8333333333333,20.700000000000014,1399.25,20.438636363636377C1401.6666666666667,20.17727272727274,1404.0833333333333,19.915909090909093,1406.5,19.654545454545453C1408.9166666666667,19.393181818181812,1411.3333333333333,19.13181818181818,1413.75,18.870454545454542C1416.1666666666667,18.609090909090906,1418.5833333333333,18.34772727272727,1421,18.086363636363632C1423.4166666666667,17.824999999999996,1425.8333333333333,17.563636363636366,1428.25,17.302272727272733C1430.6666666666667,17.0409090909091,1433.0833333333333,16.77954545454547,1435.5,16.518181818181834C1437.9166666666667,16.256818181818197,1440.3333333333333,15.99545454545455,1442.75,15.734090909090911C1445.1666666666667,15.472727272727273,1447.5833333333333,15.211363636363636,1450,14.950000000000001" fill="transparent" stroke-linecap="round" stroke="#E7C6DF" stroke-width="2"></path><g class="visx-group visx-axis visx-axis-bottom" transform="translate(0, 115)"><g class="visx-group visx-axis-tick" transform="translate(0, 0)"><line class="visx-line" x1="0" y1="0" x2="0" y2="8" fill="transparent" shape-rendering="crispEdges" stroke="#000" stroke-width="0" stroke-linecap="square"></line><svg x="0" y="0" font-size="10" style="overflow:visible"><text transform="" x="0" y="18" fill="#000" font-size="10" text-anchor="middle"><tspan x="0" dy="0em">0%</tspan></text></svg></g><g class="visx-group visx-axis-tick" transform="translate(0, 0)"><line class="visx-line" x1="362.5" y1="0" x2="362.5" y2="8" fill="transparent" shape-rendering="crispEdges" stroke="#000" stroke-width="0" stroke-linecap="square"></line><svg x="0" y="0" font-size="10" style="overflow:visible"><text transform="" x="362.5" y="18" fill="#000" font-size="10" text-anchor="middle"><tspan x="362.5" dy="0em">25%</tspan></text></svg></g><g class="visx-group visx-axis-tick" transform="translate(0, 0)"><line class="visx-line" x1="725" y1="0" x2="725" y2="8" fill="transparent" shape-rendering="crispEdges" stroke="#000" stroke-width="0" stroke-linecap="square"></line><svg x="0" y="0" font-size="10" style="overflow:visible"><text transform="" x="725" y="18" fill="#000" font-size="10" text-anchor="middle"><tspan x="725" dy="0em">50%</tspan></text></svg></g><g class="visx-group visx-axis-tick" transform="translate(0, 0)"><line class="visx-line" x1="1087.5" y1="0" x2="1087.5" y2="8" fill="transparent" shape-rendering="crispEdges" stroke="#000" stroke-width="0" stroke-linecap="square"></line><svg x="0" y="0" font-size="10" style="overflow:visible"><text transform="" x="1087.5" y="18" fill="#000" font-size="10" text-anchor="middle"><tspan x="1087.5" dy="0em">75%</tspan></text></svg></g><g class="visx-group visx-axis-tick" transform="translate(0, 0)"><line class="visx-line" x1="1450" y1="0" x2="1450" y2="8" fill="transparent" shape-rendering="crispEdges" stroke="#000" stroke-width="0" stroke-linecap="square"></line><svg x="0" y="0" font-size="10" style="overflow:visible"><text transform="" x="1450" y="18" fill="#000" font-size="10" text-anchor="middle"><tspan x="1450" dy="0em">100%</tspan></text></svg></g><line class="visx-line visx-axis-line" x1="0.5" y1="0" x2="1450.5" y2="0" fill="transparent" shape-rendering="crispEdges" stroke="#222" stroke-width="0"></line></g><g class="visx-group visx-axis visx-axis-left" transform="translate(0, 0)"><g class="visx-group visx-axis-tick" transform="translate(0, 0)"><line class="visx-line" x1="0" y1="115" x2="-8" y2="115" fill="transparent" shape-rendering="crispEdges" stroke="#222" stroke-width="0" stroke-linecap="square"></line><svg x="-30" y="0" font-size="8" style="overflow:visible"><text transform="" x="-8" y="115" fill="#000" font-size="8" text-anchor="start"><tspan x="-8" dy="0em">0%</tspan></text></svg></g><g class="visx-group visx-axis-tick" transform="translate(0, 0)"><line class="visx-line" x1="0" y1="57.5" x2="-8" y2="57.5" fill="transparent" shape-rendering="crispEdges" stroke="#222" stroke-width="0" stroke-linecap="square"></line><svg x="-30" y="0" font-size="8" style="overflow:visible"><text transform="" x="-8" y="57.5" fill="#000" font-size="8" text-anchor="start"><tspan x="-8" dy="0em">50%</tspan></text></svg></g><g class="visx-group visx-axis-tick" transform="translate(0, 0)"><line class="visx-line" x1="0" y1="0" x2="-8" y2="0" fill="transparent" shape-rendering="crispEdges" stroke="#222" stroke-width="0" stroke-linecap="square"></line><svg x="-30" y="0" font-size="8" style="overflow:visible"><text transform="" x="-8" y="0" fill="#000" font-size="8" text-anchor="start"><tspan x="-8" dy="0em">100%</tspan></text></svg></g><line class="visx-line visx-axis-line" x1="0" y1="115.5" x2="0" y2="0.5" fill="transparent" shape-rendering="crispEdges" stroke="#222" stroke-width="0"></line></g><rect class="visx-bar" width="1450" height="115" fill="transparent"></rect><line class="visx-line" x1="652.5" y1="28" x2="652.5" y2="115" fill="transparent" shape-rendering="crispEdges" stroke="#0062D2" stroke-width="1" pointer-events="none" stroke-dasharray="5,2"></line><svg x="0" y="0" font-size="10px" style="overflow:visible"><text transform="" x="652.5" y="20" font-size="10px" fill="#fff" stroke="#fff" stroke-width="0.8em" text-anchor="middle"><tspan x="652.5" dy="0.355em">Optimal 45%</tspan></text></svg><svg x="0" y="0" font-size="10px" style="overflow:visible"><text transform="" x="652.5" y="20" font-size="10px" fill="#62677B" text-anchor="middle"><tspan x="652.5" dy="0.355em">Optimal 45%</tspan></text></svg></g></svg>