<?xml version="1.0"?><svg xmlns="http://www.w3.org/2000/svg" xmlns:xlink= "http://www.w3.org/1999/xlink" style="background: white;" width="1500" height="300"> <g style="color: black; font-size: 13px; font-family: sans-serif; transform: translate(18px, 25px);"><g><circle r="3" cx="-6" cy="-5" style="fill: #1AD4B3" /><text>Borrow APR, variable</text></g><g style="transform: translateX(150px);"><circle r="3" cx="-6" cy="-5" style="fill: #101423" /><text>Borrow APR, stable</text></g></g><g class="visx-group" transform="translate(45, 50)"><g class="visx-group visx-rows" transform="translate(0, 0)"><line class="visx-line" x1="0" y1="155" x2="1425" y2="155" fill="transparent" shape-rendering="crispEdges" stroke="#F2F0F9" stroke-width="1" pointer-events="none"></line><line class="visx-line" x1="0" y1="106.5625" x2="1425" y2="106.5625" fill="transparent" shape-rendering="crispEdges" stroke="#F2F0F9" stroke-width="1" pointer-events="none"></line><line class="visx-line" x1="0" y1="58.125" x2="1425" y2="58.125" fill="transparent" shape-rendering="crispEdges" stroke="#F2F0F9" stroke-width="1" pointer-events="none"></line><line class="visx-line" x1="0" y1="9.6875" x2="1425" y2="9.6875" fill="transparent" shape-rendering="crispEdges" stroke="#F2F0F9" stroke-width="1" pointer-events="none"></line></g><path class="visx-linepath" d="M0,154.99999999983638C2.375,154.97272663278744,4.75,154.94545326573848,7.125,154.91817989864865C9.5,154.8909065315588,11.875,154.8636331644144,14.25,154.8363597972973C16.625,154.80908643018017,19,154.78181306306305,21.375,154.75453969594594C23.75,154.72726632882882,26.125,154.6999929617117,28.5,154.67271959459458C30.875,154.64544622747746,33.25,154.61817286036037,35.625,154.59089949324326C38,154.56362612612614,40.375,154.53635275900902,42.75,154.5090793918919C45.125,154.48180602477478,47.50000000000001,154.45453265765767,49.87500000000001,154.42725929054055C52.25000000000001,154.39998592342343,54.625,154.3727125563063,57,154.3454391891892C59.375,154.31816582207207,61.75,154.29089245495496,64.125,154.26361908783784C66.5,154.23634572072072,68.875,154.2090723536036,71.25,154.18179898648648C73.625,154.15452561936937,76,154.12725225225225,78.375,154.09997888513513C80.75,154.072705518018,83.125,154.0454321509009,85.5,154.01815878378378C87.875,153.99088541666666,90.25,153.96361204954957,92.625,153.93633868243245C95,153.90906531531533,97.37500000000001,153.88179194819818,99.75000000000001,153.85451858108107C102.12500000000001,153.82724521396395,104.5,153.79997184684686,106.875,153.77269847972974C109.25,153.74542511261262,111.625,153.7181517454955,114,153.6908783783784C116.375,153.66360501126127,118.75000000000001,153.63633164414415,121.12500000000001,153.60905827702703C123.50000000000001,153.5817849099099,125.875,153.5545115427928,128.25,153.52723817567568C130.625,153.49996480855856,133,153.47269144144144,135.375,153.44541807432432C137.75,153.4181447072072,140.125,153.3908713400901,142.5,153.36359797297297C144.875,153.33632460585585,147.25,153.30905123873873,149.625,153.2817778716216C152,153.2545045045045,154.375,153.22723113738738,156.75,153.19995777027026C159.125,153.17268440315314,161.5,153.14541103603605,163.875,153.11813766891893C166.25,153.09086430180182,168.625,153.06359093468467,171,153.03631756756755C173.375,153.00904420045043,175.75,152.98177083333334,178.125,152.95449746621622C180.5,152.9272240990991,182.875,152.899950731982,185.25,152.87267736486487C187.625,152.84540399774775,190,152.81813063063063,192.375,152.79085726351352C194.75,152.7635838963964,197.12500000000003,152.73631052927928,199.50000000000003,152.70903716216216C201.875,152.68176379504504,204.25,152.65449042792793,206.62499999999997,152.6272170608108C208.99999999999997,152.5999436936937,211.375,152.57267032657657,213.75,152.54539695945945C216.125,152.51812359234233,218.5,152.49085022522522,220.875,152.4635768581081C223.25,152.43630349099098,225.625,152.40903012387386,228,152.38175675675674C230.375,152.35448338963963,232.75,152.32721002252254,235.125,152.29993665540542C237.5,152.2726632882883,239.87500000000003,152.24538992117118,242.25000000000003,152.21811655405406C244.625,152.19084318693695,247,152.16356981981983,249.37499999999997,152.1362964527027C251.74999999999997,152.1090230855856,254.125,152.08174971846847,256.5,152.05447635135135C258.875,152.02720298423424,261.25,151.99992961711712,263.625,151.97265625C266,151.94538288288288,268.375,151.91810951576576,270.75,151.89083614864865C273.125,151.86356278153153,275.5,151.8362894144144,277.875,151.8090160472973C280.25,151.78174268018017,282.625,151.75446931306305,285,151.72719594594594C287.375,151.69992257882882,289.75,151.6726492117117,292.125,151.64537584459458C294.5,151.61810247747746,296.875,151.59082911036037,299.25,151.56355574324326C301.625,151.53628237612614,304,151.50900900900902,306.375,151.4817356418919C308.75,151.45446227477478,311.125,151.42718890765767,313.5,151.39991554054055C315.875,151.37264217342343,318.25,151.3453688063063,320.625,151.3180954391892C323,151.29082207207207,325.375,151.26354870495496,327.75,151.23627533783784C330.125,151.20900197072072,332.5,151.1817286036036,334.875,151.15445523648648C337.25,151.12718186936937,339.625,151.09990850225225,342,151.07263513513513C344.375,151.045361768018,346.75,151.0180884009009,349.125,150.99081503378378C351.5,150.96354166666666,353.875,150.93626829954957,356.25,150.90899493243245C358.625,150.88172156531533,361,150.85444819819818,363.375,150.82717483108107C365.75,150.79990146396395,368.125,150.77262809684686,370.5,150.74535472972974C372.875,150.71808136261262,375.25,150.6908079954955,377.625,150.6635346283784C380,150.63626126126127,382.375,150.60898789414415,384.75,150.58171452702703C387.125,150.5544411599099,389.50000000000006,150.5271677927928,391.87500000000006,150.49989442567568C394.25000000000006,150.47262105855856,396.62500000000006,150.44534769144144,399.00000000000006,150.41807432432432C401.375,150.3908009572072,403.75,150.3635275900901,406.12499999999994,150.33625422297297C408.49999999999994,150.30898085585585,410.87499999999994,150.28170748873873,413.24999999999994,150.2544341216216C415.62499999999994,150.2271607545045,418,150.19988738738738,420.375,150.17261402027026C422.75,150.14534065315314,425.125,150.11806728603605,427.5,150.09079391891893C429.875,150.06352055180182,432.25,150.03624718468467,434.625,150.00897381756755C437,149.98170045045043,439.375,149.95442708333334,441.75,149.92715371621622C444.125,149.8998803490991,446.5,149.872606981982,448.875,149.84533361486487C451.25,149.81806024774775,453.625,149.79078688063063,456,149.76351351351352C458.375,149.7362401463964,460.75,149.70896677927928,463.125,149.68169341216216C465.5,149.65442004504504,467.875,149.62714667792793,470.25,149.5998733108108C472.625,149.5725999436937,475.00000000000006,149.54532657657657,477.37500000000006,149.51805320945945C479.75000000000006,149.49077984234233,482.12500000000006,149.46350647522522,484.50000000000006,149.4362331081081C486.875,149.40895974099098,489.25,149.38168637387386,491.62499999999994,149.35441300675674C493.99999999999994,149.32713963963963,496.37499999999994,149.29986627252254,498.74999999999994,149.27259290540542C501.12499999999994,149.2453195382883,503.5,149.21804617117118,505.875,149.19077280405406C508.25,149.16349943693695,510.625,149.13622606981983,513,149.1089527027027C515.375,149.0816793355856,517.75,149.05440596846847,520.125,149.02713260135135C522.5,148.99985923423424,524.875,148.99985923423424,527.25,148.9453125C529.625,148.89076576576576,532,148.2584738756614,534.375,147.91505456349208C536.75,147.57163525132276,539.125,147.22821593915344,541.5,146.88479662698413C543.875,146.5413773148148,546.25,146.1979580026455,548.625,145.85453869047618C551,145.51111937830686,553.375,145.16770006613757,555.75,144.82428075396825C558.125,144.48086144179894,560.5,144.13744212962965,562.875,143.79402281746033C565.25,143.450603505291,567.625,143.1071841931217,570,142.76376488095238C572.375,142.42034556878306,574.75,142.07692625661377,577.125,141.73350694444446C579.5,141.39008763227514,581.875,141.04666832010582,584.25,140.7032490079365C586.625,140.3598296957672,589,140.0164103835979,591.375,139.67299107142858C593.75,139.32957175925927,596.125,138.98615244708995,598.5,138.64273313492063C600.875,138.29931382275132,603.25,137.95589451058203,605.625,137.6124751984127C608,137.2690558862434,610.375,136.92563657407408,612.75,136.58221726190476C615.125,136.23879794973544,617.5,135.89537863756613,619.875,135.5519593253968C622.25,135.2085400132275,624.625,134.8651207010582,627,134.52170138888889C629.375,134.17828207671957,631.75,133.83486276455028,634.125,133.49144345238096C636.5,133.14802414021165,638.875,132.80460482804233,641.25,132.461185515873C643.625,132.1177662037037,646,131.7743468915344,648.375,131.4309275793651C650.75,131.08750826719577,653.125,130.74408895502646,655.5,130.40066964285714C657.875,130.05725033068782,660.25,129.71383101851853,662.625,129.37041170634922C665,129.0269923941799,667.375,128.68357308201058,669.75,128.34015376984127C672.125,127.99673445767195,674.5,127.65331514550265,676.875,127.30989583333333C679.25,126.96647652116401,681.625,126.62305720899471,684,126.27963789682539C686.375,125.93621858465607,688.75,125.59279927248676,691.125,125.24937996031746C693.5,124.90596064814815,695.875,124.56254133597884,698.25,124.21912202380953C700.625,123.87570271164023,703,123.53228339947091,705.375,123.1888640873016C707.75,122.84544477513228,710.125,122.50202546296298,712.5,122.15860615079366C714.875,121.81518683862434,717.25,121.47176752645503,719.625,121.12834821428571C722,120.78492890211639,724.375,120.44150958994709,726.75,120.09809027777777C729.125,119.75467096560845,731.5,119.41125165343917,733.875,119.06783234126985C736.25,118.72441302910053,738.625,118.38099371693123,741,118.03757440476191C743.375,117.6941550925926,745.75,117.35073578042328,748.125,117.00731646825396C750.5,116.66389715608464,752.875,116.32047784391534,755.25,115.97705853174602C757.625,115.63363921957671,760,115.29021990740742,762.375,114.9468005952381C764.75,114.60338128306879,767.125,114.25996197089947,769.5,113.91654265873017C771.875,113.57312334656085,774.2500000000001,113.22970403439155,776.6250000000001,112.88628472222223C779.0000000000001,112.54286541005291,781.3750000000001,112.1994460978836,783.7500000000001,111.85602678571428C786.1250000000001,111.51260747354496,788.5000000000001,111.16918816137564,790.8750000000001,110.82576884920634C793.2500000000001,110.48234953703704,795.6250000000001,110.13893022486774,798.0000000000001,109.79551091269842C800.375,109.45209160052912,802.75,109.10867228835978,805.1249999999999,108.76525297619048C807.4999999999999,108.42183366402116,809.8749999999999,108.07841435185186,812.2499999999999,107.73499503968254C814.6249999999999,107.39157572751323,816.9999999999999,107.04815641534391,819.3749999999999,106.7047371031746C821.7499999999999,106.36131779100528,824.1249999999999,106.01789847883597,826.4999999999999,105.67447916666667C828.8749999999999,105.33105985449735,831.25,104.98764054232805,833.625,104.64422123015873C836,104.30080191798942,838.375,103.9573826058201,840.75,103.61396329365078C843.125,103.27054398148147,845.5,102.92712466931218,847.875,102.58370535714286C850.25,102.24028604497354,852.625,101.89686673280423,855,101.55344742063491C857.375,101.2100281084656,859.75,100.8666087962963,862.125,100.52318948412699C864.5,100.17977017195767,866.875,99.83635085978837,869.25,99.49293154761905C871.625,99.14951223544973,874,98.80609292328043,876.375,98.46267361111111C878.75,98.1192542989418,881.125,97.77583498677248,883.5,97.43241567460316C885.875,97.08899636243385,888.25,96.74557705026456,890.625,96.40215773809524C893,96.05873842592592,895.375,95.71531911375662,897.75,95.3718998015873C900.125,95.02848048941799,902.5,94.68506117724868,904.875,94.34164186507937C907.25,93.99822255291005,909.625,93.65480324074073,912,93.31138392857142C914.375,92.9679646164021,916.75,92.62454530423281,919.125,92.2811259920635C921.5,91.93770667989418,923.875,91.59428736772487,926.25,91.25086805555556C928.625,90.90744874338624,931,90.56402943121694,933.375,90.22061011904762C935.75,89.8771908068783,938.125,89.533771494709,940.5,89.19035218253968C942.875,88.84693287037037,945.25,88.50351355820104,947.625,88.16009424603173C950,87.81667493386242,952.3750000000001,87.47325562169313,954.7500000000001,87.12983630952381C957.1250000000001,86.78641699735451,959.5000000000001,86.44299768518519,961.8750000000001,86.09957837301587C964.2500000000001,85.75615906084656,966.6250000000001,85.41273974867725,969.0000000000001,85.06932043650794C971.3750000000001,84.72590112433862,973.7500000000001,84.38248181216932,976.1250000000001,84.0390625C978.5,83.6956431878307,980.875,83.35222387566137,983.2499999999999,83.00880456349206C985.6249999999999,82.66538525132275,987.9999999999999,82.32196593915344,990.3749999999999,81.97854662698413C992.7499999999999,81.63512731481481,995.1249999999999,81.2917080026455,997.4999999999999,80.94828869047619C999.8749999999999,80.60486937830687,1002.2499999999999,80.26145006613756,1004.6249999999999,79.91803075396825C1006.9999999999999,79.57461144179894,1009.375,79.23119212962965,1011.75,78.88777281746033C1014.125,78.54435350529103,1016.5,78.2009341931217,1018.875,77.85751488095238C1021.25,77.51409556878306,1023.625,77.17067625661376,1026,76.82725694444444C1028.375,76.48383763227513,1030.75,76.14041832010582,1033.125,75.7969990079365C1035.5,75.45357969576719,1037.875,75.1101603835979,1040.25,74.76674107142858C1042.625,74.42332175925927,1045,74.07990244708996,1047.375,73.73648313492065C1049.75,73.39306382275133,1052.125,73.04964451058201,1054.5,72.7062251984127C1056.875,72.36280588624338,1059.25,72.01938657407406,1061.625,71.67596726190474C1064,71.33254794973543,1066.375,70.98912863756613,1068.75,70.64570932539682C1071.125,70.30229001322752,1073.5,69.9588707010582,1075.875,69.6154513888889C1078.25,69.2720320767196,1080.625,68.92861276455028,1083,68.58519345238096C1085.375,68.24177414021165,1087.75,67.89835482804233,1090.125,67.55493551587301C1092.5,67.2115162037037,1094.875,66.86809689153438,1097.25,66.52467757936508C1099.625,66.18125826719577,1102,65.83783895502647,1104.375,65.49441964285715C1106.75,65.15100033068784,1109.125,64.80758101851852,1111.5,64.4641617063492C1113.875,64.12074239417989,1116.25,63.77732308201059,1118.625,63.43390376984128C1121,63.09048445767197,1123.375,62.747065145502646,1125.75,62.40364583333333C1128.125,62.06022652116401,1130.5,61.71680720899471,1132.875,61.3733878968254C1135.25,61.02996858465609,1137.625,60.68654927248676,1140,60.34312996031745C1142.375,59.99971064814814,1144.75,59.65629133597884,1147.125,59.31287202380953C1149.5,58.96945271164022,1151.875,58.62603339947091,1154.25,58.2826140873016C1156.625,57.93919477513229,1159,57.59577546296297,1161.375,57.25235615079365C1163.75,56.908936838624335,1166.125,56.56551752645503,1168.5,56.222098214285715C1170.875,55.8786789021164,1173.25,55.535259589947074,1175.625,55.191840277777764C1178,54.848420965608454,1180.375,54.50500165343916,1182.75,54.16158234126985C1185.125,53.81816302910054,1187.5,53.47474371693123,1189.875,53.13132440476192C1192.25,52.78790509259261,1194.625,52.44448578042328,1197,52.10106646825397C1199.375,51.75764715608466,1201.75,51.414227843915356,1204.125,51.07080853174604C1206.5,50.72738921957672,1208.875,50.383969907407405,1211.25,50.04055059523809C1213.625,49.69713128306877,1216,49.35371197089946,1218.375,49.01029265873015C1220.75,48.66687334656084,1223.125,48.323454034391546,1225.5,47.980034722222236C1227.875,47.636615410052926,1230.25,47.2931960978836,1232.625,46.949776785714285C1235,46.60635747354497,1237.375,46.262938161375644,1239.75,45.919518849206334C1242.125,45.576099537037024,1244.5,45.23268022486773,1246.875,44.88926091269842C1249.25,44.54584160052911,1251.625,44.20242228835978,1254,43.85900297619047C1256.375,43.51558366402116,1258.75,43.17216435185186,1261.125,42.82874503968255C1263.5,42.48532572751324,1265.875,42.141906415343925,1268.25,41.79848710317461C1270.625,41.45506779100529,1273,41.11164847883597,1275.375,40.76822916666666C1277.75,40.42480985449735,1280.125,40.08139054232805,1282.5,39.73797123015874C1284.875,39.39455191798943,1287.25,39.05113260582011,1289.625,38.70771329365079C1292,38.364293981481474,1294.375,38.020874669312164,1296.75,37.677455357142854C1299.125,37.334036044973544,1301.5,36.99061673280424,1303.875,36.647197420634924C1306.25,36.30377810846561,1308.625,35.96035879629629,1311,35.61693948412697C1313.375,35.27352017195766,1315.75,34.930100859788354,1318.125,34.586681547619044C1320.5,34.243262235449734,1322.875,33.89984292328044,1325.25,33.55642361111113C1327.625,33.21300429894182,1330,32.869584986772495,1332.375,32.52616567460318C1334.75,32.18274636243386,1337.125,31.839327050264554,1339.5,31.49590773809524C1341.875,31.152488425925927,1344.25,30.809069113756607,1346.625,30.465649801587293C1349,30.12223048941798,1351.375,29.77881117724867,1353.75,29.43539186507936C1356.125,29.09197255291005,1358.5,28.748553240740755,1360.875,28.405133928571445C1363.25,28.061714616402135,1365.625,27.718295304232807,1368,27.374875992063494C1370.375,27.03145667989418,1372.75,26.688037367724874,1375.125,26.34461805555556C1377.5,26.001198743386247,1379.875,25.657779431216927,1382.25,25.31436011904761C1384.625,24.970940806878293,1387,24.627521494708972,1389.375,24.284102182539662C1391.75,23.940682870370352,1394.125,23.597263558201057,1396.5,23.253844246031747C1398.875,22.910424933862437,1401.25,22.567005621693106,1403.625,22.223586309523796C1406,21.880166997354486,1408.375,21.53674768518519,1410.75,21.19332837301588C1413.125,20.84990906084657,1415.5,20.50648974867726,1417.875,20.163070436507947C1420.25,19.819651124338634,1422.625,19.476231812169313,1425,19.132812499999996" fill="transparent" stroke-linecap="round" stroke="#1AD4B3" stroke-width="2"></path><g class="visx-group visx-axis visx-axis-bottom" transform="translate(0, 155)"><g class="visx-group visx-axis-tick" transform="translate(0, 0)"><line class="visx-line" x1="0" y1="0" x2="0" y2="8" fill="transparent" shape-rendering="crispEdges" stroke="#F2F0F9" stroke-width="1" stroke-linecap="square"></line><svg x="0" y="0" font-size="11" style="overflow:visible"><text transform="" x="0" y="19" fill="#1B2030" font-size="11" text-anchor="middle"><tspan x="0" dy="0em">0%</tspan></text></svg></g><g class="visx-group visx-axis-tick" transform="translate(0, 0)"><line class="visx-line" x1="356.25" y1="0" x2="356.25" y2="8" fill="transparent" shape-rendering="crispEdges" stroke="#F2F0F9" stroke-width="1" stroke-linecap="square"></line><svg x="0" y="0" font-size="11" style="overflow:visible"><text transform="" x="356.25" y="19" fill="#1B2030" font-size="11" text-anchor="middle"><tspan x="356.25" dy="0em">25%</tspan></text></svg></g><g class="visx-group visx-axis-tick" transform="translate(0, 0)"><line class="visx-line" x1="712.5" y1="0" x2="712.5" y2="8" fill="transparent" shape-rendering="crispEdges" stroke="#F2F0F9" stroke-width="1" stroke-linecap="square"></line><svg x="0" y="0" font-size="11" style="overflow:visible"><text transform="" x="712.5" y="19" fill="#1B2030" font-size="11" text-anchor="middle"><tspan x="712.5" dy="0em">50%</tspan></text></svg></g><g class="visx-group visx-axis-tick" transform="translate(0, 0)"><line class="visx-line" x1="1068.75" y1="0" x2="1068.75" y2="8" fill="transparent" shape-rendering="crispEdges" stroke="#F2F0F9" stroke-width="1" stroke-linecap="square"></line><svg x="0" y="0" font-size="11" style="overflow:visible"><text transform="" x="1068.75" y="19" fill="#1B2030" font-size="11" text-anchor="middle"><tspan x="1068.75" dy="0em">75%</tspan></text></svg></g><g class="visx-group visx-axis-tick" transform="translate(0, 0)"><line class="visx-line" x1="1425" y1="0" x2="1425" y2="8" fill="transparent" shape-rendering="crispEdges" stroke="#F2F0F9" stroke-width="1" stroke-linecap="square"></line><svg x="0" y="0" font-size="11" style="overflow:visible"><text transform="" x="1425" y="19" fill="#1B2030" font-size="11" text-anchor="middle"><tspan x="1425" dy="0em">100%</tspan></text></svg></g></g><g class="visx-group visx-axis visx-axis-left" transform="translate(0, 0)"><g class="visx-group visx-axis-tick" transform="translate(0, 0)"><line class="visx-line" x1="0" y1="155" x2="-8" y2="155" fill="transparent" shape-rendering="crispEdges" stroke="#F2F0F9" stroke-width="1" stroke-linecap="square"></line><svg x="-30" y="0" font-size="11" style="overflow:visible"><text transform="" x="-8" y="155" fill="#1B2030" font-size="11" text-anchor="start"><tspan x="-8" dy="0em">0%</tspan></text></svg></g><g class="visx-group visx-axis-tick" transform="translate(0, 0)"><line class="visx-line" x1="0" y1="106.5625" x2="-8" y2="106.5625" fill="transparent" shape-rendering="crispEdges" stroke="#F2F0F9" stroke-width="1" stroke-linecap="square"></line><svg x="-30" y="0" font-size="11" style="overflow:visible"><text transform="" x="-8" y="106.5625" fill="#1B2030" font-size="11" text-anchor="start"><tspan x="-8" dy="0em">50%</tspan></text></svg></g><g class="visx-group visx-axis-tick" transform="translate(0, 0)"><line class="visx-line" x1="0" y1="58.125" x2="-8" y2="58.125" fill="transparent" shape-rendering="crispEdges" stroke="#F2F0F9" stroke-width="1" stroke-linecap="square"></line><svg x="-30" y="0" font-size="11" style="overflow:visible"><text transform="" x="-8" y="58.125" fill="#1B2030" font-size="11" text-anchor="start"><tspan x="-8" dy="0em">100%</tspan></text></svg></g><g class="visx-group visx-axis-tick" transform="translate(0, 0)"><line class="visx-line" x1="0" y1="9.6875" x2="-8" y2="9.6875" fill="transparent" shape-rendering="crispEdges" stroke="#F2F0F9" stroke-width="1" stroke-linecap="square"></line><svg x="-30" y="0" font-size="11" style="overflow:visible"><text transform="" x="-8" y="9.6875" fill="#1B2030" font-size="11" text-anchor="start"><tspan x="-8" dy="0em">150%</tspan></text></svg></g><line class="visx-line visx-axis-line" x1="0" y1="155.5" x2="0" y2="0.5" fill="transparent" shape-rendering="crispEdges" stroke="#F2F0F9" stroke-width="1"></line></g><rect class="visx-bar" width="1425" height="155" fill="transparent"></rect><line class="visx-line" x1="527.25" y1="58" x2="527.25" y2="155" fill="transparent" shape-rendering="crispEdges" stroke="#CDC8E1" stroke-width="1" pointer-events="none" stroke-dasharray="5"></line><svg x="0" y="0" font-size="11px" style="overflow:visible"><text transform="" x="527.25" y="50" font-size="11px" fill="#555069" stroke="#FFFFFF" stroke-width="1px" text-anchor="middle"><tspan x="527.25" dy="0.355em">uOptimal 37%</tspan></text></svg><svg x="0" y="0" font-size="11px" style="overflow:visible"><text transform="" x="527.25" y="50" font-size="11px" fill="#CDC8E1" text-anchor="middle"><tspan x="527.25" dy="0.355em">uOptimal 37%</tspan></text></svg></g></svg>