<?xml version="1.0"?><svg xmlns="http://www.w3.org/2000/svg" xmlns:xlink= "http://www.w3.org/1999/xlink" style="background: white;" width="1500" height="185"> <g style="color: black; font-size: 13px; font-family: sans-serif; transform: translate(18px, 25px);"><g><circle r="3" cx="-6" cy="-5" style="fill: #B6509E" /><text>Borrow APR, variable</text></g><g style="transform: translateX(150px);"><circle r="3" cx="-6" cy="-5" style="fill: rgb(231, 198, 223)" /><text>Borrow APR, stable</text></g><g style="transform: translateX(290px);"><circle r="3" cx="-6" cy="-5" style="fill: rgb(0, 98, 210)" /><text>Utilization Rate</text></g></g><g class="visx-group" transform="translate(40, 50)"><g class="visx-group visx-rows" transform="translate(0, 0)"><line class="visx-line" x1="0" y1="115" x2="1450" y2="115" fill="transparent" shape-rendering="crispEdges" stroke="#000" stroke-width="1" stroke-dasharray="3,3" pointer-events="none"></line><line class="visx-line" x1="0" y1="89.44444444444444" x2="1450" y2="89.44444444444444" fill="transparent" shape-rendering="crispEdges" stroke="#000" stroke-width="1" stroke-dasharray="3,3" pointer-events="none"></line><line class="visx-line" x1="0" y1="63.88888888888889" x2="1450" y2="63.88888888888889" fill="transparent" shape-rendering="crispEdges" stroke="#000" stroke-width="1" stroke-dasharray="3,3" pointer-events="none"></line><line class="visx-line" x1="0" y1="38.333333333333336" x2="1450" y2="38.333333333333336" fill="transparent" shape-rendering="crispEdges" stroke="#000" stroke-width="1" stroke-dasharray="3,3" pointer-events="none"></line><line class="visx-line" x1="0" y1="12.777777777777784" x2="1450" y2="12.777777777777784" fill="transparent" shape-rendering="crispEdges" stroke="#000" stroke-width="1" stroke-dasharray="3,3" pointer-events="none"></line></g><path class="visx-linepath" d="M0,114.99999999990416C2.4166666666666665,114.98402777772188,4.833333333333334,114.96805555553958,7.25,114.95208333333333C9.666666666666666,114.93611111112709,12.083333333333334,114.92013888888889,14.5,114.90416666666667C16.916666666666668,114.88819444444445,19.333333333333332,114.87222222222222,21.75,114.85625C24.166666666666668,114.84027777777779,26.583333333333332,114.82430555555554,29,114.80833333333332C31.416666666666668,114.7923611111111,33.833333333333336,114.77638888888889,36.25,114.76041666666667C38.666666666666664,114.74444444444445,41.083333333333336,114.72847222222222,43.5,114.7125C45.91666666666667,114.69652777777777,48.333333333333336,114.68055555555554,50.75000000000001,114.66458333333333C53.16666666666667,114.64861111111111,55.583333333333336,114.63263888888889,58,114.61666666666667C60.416666666666664,114.60069444444446,62.833333333333336,114.58472222222221,65.25,114.56875C67.66666666666667,114.55277777777778,70.08333333333333,114.53680555555555,72.5,114.52083333333333C74.91666666666667,114.50486111111111,77.33333333333333,114.48888888888888,79.75,114.47291666666666C82.16666666666667,114.45694444444445,84.58333333333333,114.44097222222221,87,114.425C89.41666666666667,114.40902777777778,91.83333333333333,114.39305555555555,94.25,114.37708333333333C96.66666666666667,114.36111111111111,99.08333333333334,114.34513888888888,101.50000000000001,114.32916666666667C103.91666666666667,114.31319444444445,106.33333333333334,114.29722222222222,108.75,114.28125C111.16666666666667,114.26527777777778,113.58333333333333,114.24930555555555,116,114.23333333333333C118.41666666666667,114.21736111111112,120.83333333333334,114.20138888888889,123.25000000000001,114.18541666666667C125.66666666666667,114.16944444444445,128.08333333333334,114.15347222222222,130.5,114.1375C132.91666666666666,114.12152777777779,135.33333333333334,114.10555555555555,137.75,114.08958333333334C140.16666666666666,114.07361111111112,142.58333333333334,114.05763888888889,145,114.04166666666667C147.41666666666666,114.02569444444445,149.83333333333334,114.00972222222221,152.25,113.99374999999999C154.66666666666666,113.97777777777777,157.08333333333334,113.96180555555556,159.5,113.94583333333334C161.91666666666666,113.92986111111112,164.33333333333334,113.91388888888888,166.75,113.89791666666666C169.16666666666666,113.88194444444444,171.58333333333334,113.86597222222221,174,113.85C176.41666666666666,113.83402777777778,178.83333333333334,113.81805555555556,181.25,113.80208333333334C183.66666666666666,113.78611111111113,186.08333333333334,113.77013888888888,188.5,113.75416666666666C190.91666666666666,113.73819444444445,193.33333333333334,113.72222222222221,195.75,113.70625C198.16666666666669,113.69027777777778,200.58333333333334,113.67430555555555,203.00000000000003,113.65833333333333C205.41666666666669,113.64236111111111,207.83333333333331,113.62638888888888,210.24999999999997,113.61041666666667C212.66666666666666,113.59444444444445,215.08333333333331,113.57847222222222,217.5,113.5625C219.91666666666666,113.54652777777778,222.33333333333334,113.53055555555555,224.75,113.51458333333333C227.16666666666666,113.49861111111112,229.58333333333334,113.48263888888889,232,113.46666666666667C234.41666666666666,113.45069444444445,236.83333333333334,113.4347222222222,239.25,113.41874999999999C241.66666666666669,113.40277777777777,244.08333333333334,113.38680555555555,246.50000000000003,113.37083333333334C248.91666666666669,113.35486111111112,251.33333333333331,113.33888888888889,253.74999999999997,113.32291666666667C256.16666666666663,113.30694444444444,258.5833333333333,113.29097222222221,261,113.27499999999999C263.4166666666667,113.25902777777777,265.8333333333333,113.24305555555556,268.25,113.22708333333334C270.6666666666667,113.21111111111112,273.0833333333333,113.19513888888888,275.5,113.17916666666666C277.9166666666667,113.16319444444444,280.3333333333333,113.14722222222223,282.75,113.13125000000001C285.1666666666667,113.11527777777779,287.5833333333333,113.09930555555555,290,113.08333333333333C292.4166666666667,113.06736111111111,294.8333333333333,113.05138888888888,297.25,113.03541666666666C299.6666666666667,113.01944444444445,302.0833333333333,113.00347222222223,304.5,112.98750000000001C306.9166666666667,112.9715277777778,309.3333333333333,112.95555555555555,311.75,112.93958333333333C314.1666666666667,112.92361111111111,316.5833333333333,112.90763888888888,319,112.89166666666667C321.4166666666667,112.87569444444445,323.8333333333333,112.85972222222222,326.25,112.84375C328.6666666666667,112.82777777777778,331.0833333333333,112.81180555555555,333.5,112.79583333333333C335.9166666666667,112.77986111111112,338.3333333333333,112.76388888888889,340.75,112.74791666666667C343.1666666666667,112.73194444444445,345.5833333333333,112.71597222222222,348,112.7C350.4166666666667,112.68402777777779,352.8333333333333,112.66805555555555,355.25,112.65208333333334C357.6666666666667,112.63611111111112,360.0833333333333,112.62013888888887,362.5,112.60416666666666C364.9166666666667,112.58819444444444,367.3333333333333,112.57222222222222,369.75,112.55625C372.1666666666667,112.54027777777779,374.5833333333333,112.52430555555554,377,112.50833333333333C379.4166666666667,112.49236111111111,381.8333333333333,112.47638888888888,384.25,112.46041666666666C386.6666666666667,112.44444444444444,389.0833333333333,112.42847222222223,391.5,112.41250000000001C393.9166666666667,112.39652777777779,396.33333333333337,112.38055555555556,398.75000000000006,112.36458333333333C401.16666666666674,112.34861111111111,403.58333333333337,112.33263888888888,406.00000000000006,112.31666666666666C408.4166666666667,112.30069444444445,410.8333333333333,112.28472222222221,413.24999999999994,112.26875C415.66666666666663,112.25277777777778,418.08333333333326,112.23680555555555,420.49999999999994,112.22083333333333C422.91666666666663,112.20486111111111,425.3333333333333,112.18888888888888,427.75,112.17291666666667C430.1666666666667,112.15694444444445,432.5833333333333,112.14097222222222,435,112.125C437.4166666666667,112.10902777777778,439.8333333333333,112.09305555555555,442.25,112.07708333333333C444.6666666666667,112.06111111111112,447.0833333333333,112.04513888888889,449.5,112.02916666666667C451.9166666666667,112.01319444444445,454.3333333333333,111.99722222222222,456.75,111.98125C459.1666666666667,111.96527777777779,461.5833333333333,111.94930555555555,464,111.93333333333334C466.4166666666667,111.91736111111112,468.8333333333333,111.90138888888889,471.25,111.88541666666667C473.6666666666667,111.86944444444445,476.0833333333333,111.85347222222222,478.5,111.8375C480.9166666666667,111.82152777777777,483.33333333333337,111.80555555555554,485.75000000000006,111.78958333333333C488.16666666666674,111.77361111111111,490.58333333333337,111.75763888888889,493.00000000000006,111.74166666666667C495.4166666666667,111.72569444444446,497.8333333333333,111.70972222222221,500.24999999999994,111.69375C502.66666666666663,111.67777777777776,505.08333333333326,111.66180555555555,507.49999999999994,111.64583333333333C509.91666666666663,111.62986111111111,512.3333333333333,111.6138888888889,514.75,111.59791666666668C517.1666666666666,111.58194444444446,519.5833333333334,111.56597222222221,522,111.55C524.4166666666666,111.53402777777778,526.8333333333334,111.51805555555555,529.25,111.50208333333333C531.6666666666666,111.48611111111111,534.0833333333334,111.47013888888888,536.5,111.45416666666667C538.9166666666666,111.43819444444445,541.3333333333334,111.42222222222222,543.75,111.40625C546.1666666666666,111.39027777777778,548.5833333333334,111.37430555555555,551,111.35833333333333C553.4166666666666,111.34236111111112,555.8333333333334,111.32638888888889,558.25,111.31041666666667C560.6666666666666,111.29444444444445,563.0833333333334,111.27847222222222,565.5,111.2625C567.9166666666666,111.24652777777779,570.3333333333334,111.23055555555554,572.75,111.21458333333332C575.1666666666666,111.1986111111111,577.5833333333334,111.18263888888889,580,111.16666666666667C582.4166666666666,111.15069444444445,584.8333333333334,111.13472222222222,587.25,111.11875C589.6666666666666,111.10277777777779,592.0833333333334,111.08680555555554,594.5,111.07083333333333C596.9166666666666,111.05486111111111,599.3333333333334,111.03888888888889,601.75,111.02291666666667C604.1666666666666,111.00694444444446,606.5833333333334,110.99097222222221,609,110.975C611.4166666666666,110.95902777777778,613.8333333333334,110.94305555555555,616.25,110.92708333333333C618.6666666666666,110.91111111111111,621.0833333333334,110.89513888888888,623.5,110.87916666666666C625.9166666666666,110.86319444444445,628.3333333333334,110.84722222222221,630.75,110.83125C633.1666666666666,110.81527777777778,635.5833333333334,110.79930555555555,638,110.78333333333333C640.4166666666666,110.76736111111111,642.8333333333334,110.75138888888888,645.25,110.73541666666667C647.6666666666666,110.71944444444445,650.0833333333334,110.70347222222222,652.5,110.6875C654.9166666666666,110.67152777777778,657.3333333333334,110.65555555555555,659.75,110.63958333333333C662.1666666666666,110.62361111111112,664.5833333333334,110.60763888888889,667,110.59166666666667C669.4166666666666,110.57569444444445,671.8333333333334,110.55972222222222,674.25,110.54375C676.6666666666666,110.52777777777779,679.0833333333334,110.51180555555555,681.5,110.49583333333334C683.9166666666666,110.47986111111112,686.3333333333334,110.46388888888889,688.75,110.44791666666667C691.1666666666666,110.43194444444445,693.5833333333334,110.41597222222221,696,110.39999999999999C698.4166666666666,110.38402777777777,700.8333333333334,110.36805555555556,703.25,110.35208333333334C705.6666666666666,110.33611111111112,708.0833333333334,110.32013888888889,710.5,110.30416666666667C712.9166666666666,110.28819444444446,715.3333333333334,110.27222222222221,717.75,110.25625C720.1666666666666,110.24027777777778,722.5833333333334,110.22430555555556,725,110.20833333333334C727.4166666666666,110.19236111111113,729.8333333333334,110.17638888888888,732.25,110.16041666666666C734.6666666666666,110.14444444444445,737.0833333333334,110.12847222222221,739.5,110.1125C741.9166666666666,110.09652777777778,744.3333333333334,110.08055555555555,746.75,110.06458333333333C749.1666666666666,110.04861111111111,751.5833333333334,110.03263888888888,754,110.01666666666667C756.4166666666666,110.00069444444445,758.8333333333334,109.98472222222222,761.25,109.96875C763.6666666666666,109.95277777777778,766.0833333333334,109.93680555555555,768.5,109.92083333333333C770.9166666666666,109.90486111111112,773.3333333333334,109.88888888888889,775.75,109.87291666666667C778.1666666666666,109.85694444444445,780.5833333333334,109.8409722222222,783,109.82499999999999C785.4166666666667,109.80902777777777,787.8333333333334,109.79305555555555,790.2500000000001,109.77708333333334C792.6666666666667,109.76111111111112,795.0833333333335,109.74513888888889,797.5000000000001,109.72916666666667C799.9166666666667,109.71319444444445,802.3333333333335,109.69722222222221,804.7500000000001,109.68124999999999C807.1666666666667,109.66527777777777,809.5833333333335,109.64930555555556,812.0000000000001,109.63333333333334C814.4166666666667,109.61736111111112,816.8333333333333,109.60138888888888,819.2499999999999,109.58541666666666C821.6666666666665,109.56944444444444,824.0833333333333,109.55347222222223,826.4999999999999,109.53750000000001C828.9166666666665,109.52152777777779,831.3333333333333,109.50555555555555,833.7499999999999,109.48958333333333C836.1666666666665,109.47361111111111,838.5833333333333,109.45763888888888,840.9999999999999,109.44166666666666C843.4166666666666,109.42569444444445,845.8333333333333,109.40972222222223,848.25,109.39375000000001C850.6666666666666,109.3777777777778,853.0833333333334,109.36180555555555,855.5,109.34583333333333C857.9166666666666,109.32986111111111,860.3333333333334,109.31388888888888,862.75,109.29791666666667C865.1666666666666,109.28194444444445,867.5833333333334,109.26597222222222,870,109.25C872.4166666666666,109.23402777777778,874.8333333333334,109.21805555555555,877.25,109.20208333333333C879.6666666666666,109.18611111111112,882.0833333333334,109.17013888888889,884.5,109.15416666666667C886.9166666666666,109.13819444444445,889.3333333333334,109.12222222222222,891.75,109.10625C894.1666666666666,109.09027777777779,896.5833333333334,109.07430555555555,899,109.05833333333334C901.4166666666666,109.04236111111112,903.8333333333334,109.02638888888887,906.25,109.01041666666666C908.6666666666666,108.99444444444444,911.0833333333334,108.97847222222222,913.5,108.9625C915.9166666666666,108.94652777777779,918.3333333333334,108.93055555555554,920.75,108.91458333333333C923.1666666666666,108.89861111111111,925.5833333333334,108.88263888888888,928,108.86666666666666C930.4166666666666,108.85069444444444,932.8333333333334,108.83472222222223,935.25,108.81875000000001C937.6666666666666,108.80277777777779,940.0833333333334,108.78680555555555,942.5,108.77083333333333C944.9166666666666,108.75486111111111,947.3333333333334,108.73888888888888,949.75,108.72291666666666C952.1666666666666,108.70694444444445,954.5833333333334,108.69097222222221,957,108.675C959.4166666666666,108.65902777777778,961.8333333333334,108.64305555555555,964.25,108.62708333333333C966.6666666666667,108.61111111111111,969.0833333333334,108.59513888888888,971.5000000000001,108.57916666666667C973.9166666666667,108.56319444444445,976.3333333333335,108.54722222222222,978.7500000000001,108.53125C981.1666666666667,108.51527777777778,983.5833333333335,108.49930555555555,986.0000000000001,108.48333333333333C988.4166666666667,108.46736111111112,990.8333333333335,108.45138888888889,993.2500000000001,108.43541666666667C995.6666666666667,108.41944444444445,998.0833333333333,108.40347222222222,1000.4999999999999,108.3875C1002.9166666666665,108.37152777777779,1005.3333333333333,108.35555555555555,1007.7499999999999,108.33958333333334C1010.1666666666665,108.32361111111112,1012.5833333333333,108.30763888888889,1014.9999999999999,108.29166666666667C1017.4166666666665,108.27569444444445,1019.8333333333333,108.25972222222222,1022.2499999999999,108.24375C1024.6666666666665,108.22777777777777,1027.0833333333333,108.21180555555554,1029.5,108.19583333333333C1031.9166666666667,108.17986111111111,1034.3333333333333,108.16388888888889,1036.75,108.14791666666667C1039.1666666666667,108.13194444444446,1041.5833333333333,108.11597222222221,1044,108.1C1046.4166666666667,108.08402777777778,1048.8333333333333,108.06805555555555,1051.25,108.05208333333333C1053.6666666666667,108.03611111111111,1056.0833333333333,108.0201388888889,1058.5,108.00416666666668C1060.9166666666667,107.98819444444446,1063.3333333333333,107.97222222222221,1065.75,107.95625C1068.1666666666667,107.94027777777778,1070.5833333333333,107.92430555555555,1073,107.90833333333333C1075.4166666666667,107.89236111111111,1077.8333333333333,107.87638888888888,1080.25,107.86041666666667C1082.6666666666667,107.84444444444445,1085.0833333333333,107.82847222222222,1087.5,107.8125C1089.9166666666667,107.79652777777778,1092.3333333333333,107.78055555555554,1094.75,107.76458333333332C1097.1666666666667,107.7486111111111,1099.5833333333333,107.73263888888889,1102,107.71666666666667C1104.4166666666667,107.70069444444445,1106.8333333333333,107.68472222222222,1109.25,107.66875C1111.6666666666667,107.65277777777779,1114.0833333333333,107.63680555555554,1116.5,107.62083333333332C1118.9166666666667,107.6048611111111,1121.3333333333333,107.58888888888889,1123.75,107.57291666666667C1126.1666666666667,107.55694444444445,1128.5833333333333,107.54097222222222,1131,107.525C1133.4166666666667,107.50902777777779,1135.8333333333333,107.49305555555554,1138.25,107.47708333333333C1140.6666666666667,107.46111111111111,1143.0833333333333,107.44513888888889,1145.5,107.42916666666667C1147.9166666666667,107.41319444444446,1150.3333333333333,107.39722222222221,1152.75,107.38125C1155.1666666666667,107.36527777777778,1157.5833333333333,107.36527777777778,1160,107.33333333333333C1162.4166666666667,107.30138888888888,1164.8333333333333,105.73611111111111,1167.25,104.9375C1169.6666666666667,104.13888888888889,1172.0833333333333,103.34027777777777,1174.5,102.54166666666666C1176.9166666666667,101.74305555555554,1179.3333333333333,100.94444444444444,1181.75,100.14583333333333C1184.1666666666667,99.34722222222221,1186.5833333333333,98.54861111111111,1189,97.75C1191.4166666666667,96.95138888888889,1193.8333333333333,96.15277777777777,1196.25,95.35416666666666C1198.6666666666667,94.55555555555554,1201.0833333333333,93.75694444444444,1203.5,92.95833333333333C1205.9166666666667,92.15972222222221,1208.3333333333333,91.36111111111111,1210.75,90.5625C1213.1666666666667,89.76388888888889,1215.5833333333333,88.96527777777777,1218,88.16666666666666C1220.4166666666667,87.36805555555554,1222.8333333333333,86.56944444444444,1225.25,85.77083333333333C1227.6666666666667,84.97222222222221,1230.0833333333333,84.17361111111111,1232.5,83.375C1234.9166666666667,82.57638888888889,1237.3333333333333,81.77777777777777,1239.75,80.97916666666666C1242.1666666666667,80.18055555555554,1244.5833333333333,79.38194444444444,1247,78.58333333333333C1249.4166666666667,77.78472222222221,1251.8333333333333,76.98611111111111,1254.25,76.1875C1256.6666666666667,75.38888888888889,1259.0833333333333,74.59027777777777,1261.5,73.79166666666666C1263.9166666666667,72.99305555555554,1266.3333333333333,72.19444444444444,1268.75,71.39583333333333C1271.1666666666667,70.59722222222221,1273.5833333333333,69.79861111111111,1276,69C1278.4166666666667,68.20138888888889,1280.8333333333333,67.40277777777777,1283.25,66.60416666666666C1285.6666666666667,65.80555555555554,1288.0833333333333,65.00694444444444,1290.5,64.20833333333333C1292.9166666666667,63.40972222222222,1295.3333333333333,62.611111111111114,1297.75,61.8125C1300.1666666666667,61.013888888888886,1302.5833333333333,60.21527777777777,1305,59.41666666666666C1307.4166666666667,58.61805555555554,1309.8333333333333,57.81944444444444,1312.25,57.020833333333336C1314.6666666666667,56.22222222222223,1317.0833333333333,55.423611111111114,1319.5,54.625C1321.9166666666667,53.826388888888886,1324.3333333333333,53.027777777777786,1326.75,52.22916666666667C1329.1666666666667,51.43055555555556,1331.5833333333333,50.63194444444445,1334,49.833333333333336C1336.4166666666667,49.03472222222222,1338.8333333333333,48.2361111111111,1341.25,47.437499999999986C1343.6666666666667,46.63888888888887,1346.0833333333333,45.84027777777778,1348.5,45.04166666666667C1350.9166666666667,44.243055555555564,1353.3333333333333,43.44444444444445,1355.75,42.645833333333336C1358.1666666666667,41.84722222222222,1360.5833333333333,41.048611111111114,1363,40.25C1365.4166666666667,39.451388888888886,1367.8333333333333,38.652777777777786,1370.25,37.85416666666667C1372.6666666666667,37.05555555555556,1375.0833333333333,36.256944444444436,1377.5,35.45833333333332C1379.9166666666667,34.65972222222221,1382.3333333333333,33.86111111111111,1384.75,33.0625C1387.1666666666667,32.26388888888889,1389.5833333333333,31.465277777777782,1392,30.66666666666667C1394.4166666666667,29.86805555555556,1396.8333333333333,29.069444444444446,1399.25,28.270833333333336C1401.6666666666667,27.472222222222225,1404.0833333333333,26.673611111111107,1406.5,25.874999999999996C1408.9166666666667,25.076388888888886,1411.3333333333333,24.277777777777782,1413.75,23.47916666666667C1416.1666666666667,22.68055555555556,1418.5833333333333,21.881944444444446,1421,21.083333333333336C1423.4166666666667,20.284722222222225,1425.8333333333333,19.486111111111107,1428.25,18.687499999999996C1430.6666666666667,17.888888888888886,1433.0833333333333,17.090277777777782,1435.5,16.29166666666667C1437.9166666666667,15.49305555555556,1440.3333333333333,14.694444444444448,1442.75,13.895833333333336C1445.1666666666667,13.097222222222223,1447.5833333333333,12.29861111111111,1450,11.499999999999998" fill="transparent" stroke-linecap="round" stroke="#B6509E" stroke-width="2"></path><path class="visx-linepath" d="M0,102.22222222222221C2.4166666666666665,102.22222222222221,4.833333333333334,102.22222222222221,7.25,102.22222222222221C9.666666666666666,102.22222222222221,12.083333333333334,102.22222222222221,14.5,102.22222222222221C16.916666666666668,102.22222222222221,19.333333333333332,102.22222222222221,21.75,102.22222222222221C24.166666666666668,102.22222222222221,26.583333333333332,102.22222222222221,29,102.22222222222221C31.416666666666668,102.22222222222221,33.833333333333336,102.22222222222221,36.25,102.22222222222221C38.666666666666664,102.22222222222221,41.083333333333336,102.22222222222221,43.5,102.22222222222221C45.91666666666667,102.22222222222221,48.333333333333336,102.22222222222221,50.75000000000001,102.22222222222221C53.16666666666667,102.22222222222221,55.583333333333336,102.22222222222221,58,102.22222222222221C60.416666666666664,102.22222222222221,62.833333333333336,102.22222222222221,65.25,102.22222222222221C67.66666666666667,102.22222222222221,70.08333333333333,102.22222222222221,72.5,102.22222222222221C74.91666666666667,102.22222222222221,77.33333333333333,102.22222222222221,79.75,102.22222222222221C82.16666666666667,102.22222222222221,84.58333333333333,102.22222222222221,87,102.22222222222221C89.41666666666667,102.22222222222221,91.83333333333333,102.22222222222221,94.25,102.22222222222221C96.66666666666667,102.22222222222221,99.08333333333334,102.22222222222221,101.50000000000001,102.22222222222221C103.91666666666667,102.22222222222221,106.33333333333334,102.22222222222221,108.75,102.22222222222221C111.16666666666667,102.22222222222221,113.58333333333333,102.22222222222221,116,102.22222222222221C118.41666666666667,102.22222222222221,120.83333333333334,102.22222222222221,123.25000000000001,102.22222222222221C125.66666666666667,102.22222222222221,128.08333333333334,102.22222222222221,130.5,102.22222222222221C132.91666666666666,102.22222222222221,135.33333333333334,102.22222222222221,137.75,102.22222222222221C140.16666666666666,102.22222222222221,142.58333333333334,102.22222222222221,145,102.22222222222221C147.41666666666666,102.22222222222221,149.83333333333334,102.22222222222221,152.25,102.22222222222221C154.66666666666666,102.22222222222221,157.08333333333334,102.22222222222221,159.5,102.22222222222221C161.91666666666666,102.22222222222221,164.33333333333334,102.22222222222221,166.75,102.22222222222221C169.16666666666666,102.22222222222221,171.58333333333334,102.22222222222221,174,102.22222222222221C176.41666666666666,102.22222222222221,178.83333333333334,102.22222222222221,181.25,102.22222222222221C183.66666666666666,102.22222222222221,186.08333333333334,102.22222222222221,188.5,102.22222222222221C190.91666666666666,102.22222222222221,193.33333333333334,102.22222222222221,195.75,102.22222222222221C198.16666666666669,102.22222222222221,200.58333333333334,102.22222222222221,203.00000000000003,102.22222222222221C205.41666666666669,102.22222222222221,207.83333333333331,102.22222222222221,210.24999999999997,102.22222222222221C212.66666666666666,102.22222222222221,215.08333333333331,102.22222222222221,217.5,102.22222222222221C219.91666666666666,102.22222222222221,222.33333333333334,102.22222222222221,224.75,102.22222222222221C227.16666666666666,102.22222222222221,229.58333333333334,102.22222222222221,232,102.22222222222221C234.41666666666666,102.22222222222221,236.83333333333334,102.22222222222221,239.25,102.22222222222221C241.66666666666669,102.22222222222221,244.08333333333334,102.22222222222221,246.50000000000003,102.22222222222221C248.91666666666669,102.22222222222221,251.33333333333331,102.22222222222221,253.74999999999997,102.22222222222221C256.16666666666663,102.22222222222221,258.5833333333333,102.22222222222221,261,102.22222222222221C263.4166666666667,102.22222222222221,265.8333333333333,102.22222222222221,268.25,102.22222222222221C270.6666666666667,102.22222222222221,273.0833333333333,102.22222222222221,275.5,102.22222222222221C277.9166666666667,102.22222222222221,280.3333333333333,102.22222222222221,282.75,102.22222222222221C285.1666666666667,102.22222222222221,287.5833333333333,102.22222222222221,290,102.22222222222221C292.4166666666667,102.22222222222221,294.8333333333333,102.22222222222221,297.25,102.22222222222221C299.6666666666667,102.22222222222221,302.0833333333333,102.22222222222221,304.5,102.22222222222221C306.9166666666667,102.22222222222221,309.3333333333333,102.22222222222221,311.75,102.22222222222221C314.1666666666667,102.22222222222221,316.5833333333333,102.22222222222221,319,102.22222222222221C321.4166666666667,102.22222222222221,323.8333333333333,102.22222222222221,326.25,102.22222222222221C328.6666666666667,102.22222222222221,331.0833333333333,102.22222222222221,333.5,102.22222222222221C335.9166666666667,102.22222222222221,338.3333333333333,102.22222222222221,340.75,102.22222222222221C343.1666666666667,102.22222222222221,345.5833333333333,102.22222222222221,348,102.22222222222221C350.4166666666667,102.22222222222221,352.8333333333333,102.22222222222221,355.25,102.22222222222221C357.6666666666667,102.22222222222221,360.0833333333333,102.22222222222221,362.5,102.22222222222221C364.9166666666667,102.22222222222221,367.3333333333333,102.22222222222221,369.75,102.22222222222221C372.1666666666667,102.22222222222221,374.5833333333333,102.22222222222221,377,102.22222222222221C379.4166666666667,102.22222222222221,381.8333333333333,102.22222222222221,384.25,102.22222222222221C386.6666666666667,102.22222222222221,389.0833333333333,102.22222222222221,391.5,102.22222222222221C393.9166666666667,102.22222222222221,396.33333333333337,102.22222222222221,398.75000000000006,102.22222222222221C401.16666666666674,102.22222222222221,403.58333333333337,102.22222222222221,406.00000000000006,102.22222222222221C408.4166666666667,102.22222222222221,410.8333333333333,102.22222222222221,413.24999999999994,102.22222222222221C415.66666666666663,102.22222222222221,418.08333333333326,102.22222222222221,420.49999999999994,102.22222222222221C422.91666666666663,102.22222222222221,425.3333333333333,102.22222222222221,427.75,102.22222222222221C430.1666666666667,102.22222222222221,432.5833333333333,102.22222222222221,435,102.22222222222221C437.4166666666667,102.22222222222221,439.8333333333333,102.22222222222221,442.25,102.22222222222221C444.6666666666667,102.22222222222221,447.0833333333333,102.22222222222221,449.5,102.22222222222221C451.9166666666667,102.22222222222221,454.3333333333333,102.22222222222221,456.75,102.22222222222221C459.1666666666667,102.22222222222221,461.5833333333333,102.22222222222221,464,102.22222222222221C466.4166666666667,102.22222222222221,468.8333333333333,102.22222222222221,471.25,102.22222222222221C473.6666666666667,102.22222222222221,476.0833333333333,102.22222222222221,478.5,102.22222222222221C480.9166666666667,102.22222222222221,483.33333333333337,102.22222222222221,485.75000000000006,102.22222222222221C488.16666666666674,102.22222222222221,490.58333333333337,102.22222222222221,493.00000000000006,102.22222222222221C495.4166666666667,102.22222222222221,497.8333333333333,102.22222222222221,500.24999999999994,102.22222222222221C502.66666666666663,102.22222222222221,505.08333333333326,102.22222222222221,507.49999999999994,102.22222222222221C509.91666666666663,102.22222222222221,512.3333333333333,102.22222222222221,514.75,102.22222222222221C517.1666666666666,102.22222222222221,519.5833333333334,102.22222222222221,522,102.22222222222221C524.4166666666666,102.22222222222221,526.8333333333334,102.22222222222221,529.25,102.22222222222221C531.6666666666666,102.22222222222221,534.0833333333334,102.22222222222221,536.5,102.22222222222221C538.9166666666666,102.22222222222221,541.3333333333334,102.22222222222221,543.75,102.22222222222221C546.1666666666666,102.22222222222221,548.5833333333334,102.22222222222221,551,102.22222222222221C553.4166666666666,102.22222222222221,555.8333333333334,102.22222222222221,558.25,102.22222222222221C560.6666666666666,102.22222222222221,563.0833333333334,102.22222222222221,565.5,102.22222222222221C567.9166666666666,102.22222222222221,570.3333333333334,102.22222222222221,572.75,102.22222222222221C575.1666666666666,102.22222222222221,577.5833333333334,102.22222222222221,580,102.22222222222221C582.4166666666666,102.22222222222221,584.8333333333334,102.22222222222221,587.25,102.22222222222221C589.6666666666666,102.22222222222221,592.0833333333334,102.22222222222221,594.5,102.22222222222221C596.9166666666666,102.22222222222221,599.3333333333334,102.22222222222221,601.75,102.22222222222221C604.1666666666666,102.22222222222221,606.5833333333334,102.22222222222221,609,102.22222222222221C611.4166666666666,102.22222222222221,613.8333333333334,102.22222222222221,616.25,102.22222222222221C618.6666666666666,102.22222222222221,621.0833333333334,102.22222222222221,623.5,102.22222222222221C625.9166666666666,102.22222222222221,628.3333333333334,102.22222222222221,630.75,102.22222222222221C633.1666666666666,102.22222222222221,635.5833333333334,102.22222222222221,638,102.22222222222221C640.4166666666666,102.22222222222221,642.8333333333334,102.22222222222221,645.25,102.22222222222221C647.6666666666666,102.22222222222221,650.0833333333334,102.22222222222221,652.5,102.22222222222221C654.9166666666666,102.22222222222221,657.3333333333334,102.22222222222221,659.75,102.22222222222221C662.1666666666666,102.22222222222221,664.5833333333334,102.22222222222221,667,102.22222222222221C669.4166666666666,102.22222222222221,671.8333333333334,102.22222222222221,674.25,102.22222222222221C676.6666666666666,102.22222222222221,679.0833333333334,102.22222222222221,681.5,102.22222222222221C683.9166666666666,102.22222222222221,686.3333333333334,102.22222222222221,688.75,102.22222222222221C691.1666666666666,102.22222222222221,693.5833333333334,102.22222222222221,696,102.22222222222221C698.4166666666666,102.22222222222221,700.8333333333334,102.22222222222221,703.25,102.22222222222221C705.6666666666666,102.22222222222221,708.0833333333334,102.22222222222221,710.5,102.22222222222221C712.9166666666666,102.22222222222221,715.3333333333334,102.22222222222221,717.75,102.22222222222221C720.1666666666666,102.22222222222221,722.5833333333334,102.22222222222221,725,102.22222222222221C727.4166666666666,102.22222222222221,729.8333333333334,102.22222222222221,732.25,102.22222222222221C734.6666666666666,102.22222222222221,737.0833333333334,102.22222222222221,739.5,102.22222222222221C741.9166666666666,102.22222222222221,744.3333333333334,102.22222222222221,746.75,102.22222222222221C749.1666666666666,102.22222222222221,751.5833333333334,102.22222222222221,754,102.22222222222221C756.4166666666666,102.22222222222221,758.8333333333334,102.22222222222221,761.25,102.22222222222221C763.6666666666666,102.22222222222221,766.0833333333334,102.22222222222221,768.5,102.22222222222221C770.9166666666666,102.22222222222221,773.3333333333334,102.22222222222221,775.75,102.22222222222221C778.1666666666666,102.22222222222221,780.5833333333334,102.22222222222221,783,102.22222222222221C785.4166666666667,102.22222222222221,787.8333333333334,102.22222222222221,790.2500000000001,102.22222222222221C792.6666666666667,102.22222222222221,795.0833333333335,102.22222222222221,797.5000000000001,102.22222222222221C799.9166666666667,102.22222222222221,802.3333333333335,102.22222222222221,804.7500000000001,102.22222222222221C807.1666666666667,102.22222222222221,809.5833333333335,102.22222222222221,812.0000000000001,102.22222222222221C814.4166666666667,102.22222222222221,816.8333333333333,102.22222222222221,819.2499999999999,102.22222222222221C821.6666666666665,102.22222222222221,824.0833333333333,102.22222222222221,826.4999999999999,102.22222222222221C828.9166666666665,102.22222222222221,831.3333333333333,102.22222222222221,833.7499999999999,102.22222222222221C836.1666666666665,102.22222222222221,838.5833333333333,102.22222222222221,840.9999999999999,102.22222222222221C843.4166666666666,102.22222222222221,845.8333333333333,102.22222222222221,848.25,102.22222222222221C850.6666666666666,102.22222222222221,853.0833333333334,102.22222222222221,855.5,102.22222222222221C857.9166666666666,102.22222222222221,860.3333333333334,102.22222222222221,862.75,102.22222222222221C865.1666666666666,102.22222222222221,867.5833333333334,102.22222222222221,870,102.22222222222221C872.4166666666666,102.22222222222221,874.8333333333334,102.22222222222221,877.25,102.22222222222221C879.6666666666666,102.22222222222221,882.0833333333334,102.22222222222221,884.5,102.22222222222221C886.9166666666666,102.22222222222221,889.3333333333334,102.22222222222221,891.75,102.22222222222221C894.1666666666666,102.22222222222221,896.5833333333334,102.22222222222221,899,102.22222222222221C901.4166666666666,102.22222222222221,903.8333333333334,102.22222222222221,906.25,102.22222222222221C908.6666666666666,102.22222222222221,911.0833333333334,102.22222222222221,913.5,102.22222222222221C915.9166666666666,102.22222222222221,918.3333333333334,102.22222222222221,920.75,102.22222222222221C923.1666666666666,102.22222222222221,925.5833333333334,102.22222222222221,928,102.22222222222221C930.4166666666666,102.22222222222221,932.8333333333334,102.22222222222221,935.25,102.22222222222221C937.6666666666666,102.22222222222221,940.0833333333334,102.22222222222221,942.5,102.22222222222221C944.9166666666666,102.22222222222221,947.3333333333334,102.22222222222221,949.75,102.22222222222221C952.1666666666666,102.22222222222221,954.5833333333334,102.22222222222221,957,102.22222222222221C959.4166666666666,102.22222222222221,961.8333333333334,102.22222222222221,964.25,102.22222222222221C966.6666666666667,102.22222222222221,969.0833333333334,102.22222222222221,971.5000000000001,102.22222222222221C973.9166666666667,102.22222222222221,976.3333333333335,102.22222222222221,978.7500000000001,102.22222222222221C981.1666666666667,102.22222222222221,983.5833333333335,102.22222222222221,986.0000000000001,102.22222222222221C988.4166666666667,102.22222222222221,990.8333333333335,102.22222222222221,993.2500000000001,102.22222222222221C995.6666666666667,102.22222222222221,998.0833333333333,102.22222222222221,1000.4999999999999,102.22222222222221C1002.9166666666665,102.22222222222221,1005.3333333333333,102.22222222222221,1007.7499999999999,102.22222222222221C1010.1666666666665,102.22222222222221,1012.5833333333333,102.22222222222221,1014.9999999999999,102.22222222222221C1017.4166666666665,102.22222222222221,1019.8333333333333,102.22222222222221,1022.2499999999999,102.22222222222221C1024.6666666666665,102.22222222222221,1027.0833333333333,102.22222222222221,1029.5,102.22222222222221C1031.9166666666667,102.22222222222221,1034.3333333333333,102.22222222222221,1036.75,102.22222222222221C1039.1666666666667,102.22222222222221,1041.5833333333333,102.22222222222221,1044,102.22222222222221C1046.4166666666667,102.22222222222221,1048.8333333333333,102.22222222222221,1051.25,102.22222222222221C1053.6666666666667,102.22222222222221,1056.0833333333333,102.22222222222221,1058.5,102.22222222222221C1060.9166666666667,102.22222222222221,1063.3333333333333,102.22222222222221,1065.75,102.22222222222221C1068.1666666666667,102.22222222222221,1070.5833333333333,102.22222222222221,1073,102.22222222222221C1075.4166666666667,102.22222222222221,1077.8333333333333,102.22222222222221,1080.25,102.22222222222221C1082.6666666666667,102.22222222222221,1085.0833333333333,102.22222222222221,1087.5,102.22222222222221C1089.9166666666667,102.22222222222221,1092.3333333333333,102.22222222222221,1094.75,102.22222222222221C1097.1666666666667,102.22222222222221,1099.5833333333333,102.22222222222221,1102,102.22222222222221C1104.4166666666667,102.22222222222221,1106.8333333333333,102.22222222222221,1109.25,102.22222222222221C1111.6666666666667,102.22222222222221,1114.0833333333333,102.22222222222221,1116.5,102.22222222222221C1118.9166666666667,102.22222222222221,1121.3333333333333,102.22222222222221,1123.75,102.22222222222221C1126.1666666666667,102.22222222222221,1128.5833333333333,102.22222222222221,1131,102.22222222222221C1133.4166666666667,102.22222222222221,1135.8333333333333,102.22222222222221,1138.25,102.22222222222221C1140.6666666666667,102.22222222222221,1143.0833333333333,102.22222222222221,1145.5,102.22222222222221C1147.9166666666667,102.22222222222221,1150.3333333333333,102.22222222222221,1152.75,102.22222222222221C1155.1666666666667,102.22222222222221,1157.5833333333333,102.22222222222221,1160,102.22222222222221C1162.4166666666667,102.22222222222221,1164.8333333333333,102.22222222222221,1167.25,102.22222222222221C1169.6666666666667,102.22222222222221,1172.0833333333333,102.22222222222221,1174.5,102.22222222222221C1176.9166666666667,102.22222222222221,1179.3333333333333,102.22222222222221,1181.75,102.22222222222221C1184.1666666666667,102.22222222222221,1186.5833333333333,102.22222222222221,1189,102.22222222222221C1191.4166666666667,102.22222222222221,1193.8333333333333,102.22222222222221,1196.25,102.22222222222221C1198.6666666666667,102.22222222222221,1201.0833333333333,102.22222222222221,1203.5,102.22222222222221C1205.9166666666667,102.22222222222221,1208.3333333333333,102.22222222222221,1210.75,102.22222222222221C1213.1666666666667,102.22222222222221,1215.5833333333333,102.22222222222221,1218,102.22222222222221C1220.4166666666667,102.22222222222221,1222.8333333333333,102.22222222222221,1225.25,102.22222222222221C1227.6666666666667,102.22222222222221,1230.0833333333333,102.22222222222221,1232.5,102.22222222222221C1234.9166666666667,102.22222222222221,1237.3333333333333,102.22222222222221,1239.75,102.22222222222221C1242.1666666666667,102.22222222222221,1244.5833333333333,102.22222222222221,1247,102.22222222222221C1249.4166666666667,102.22222222222221,1251.8333333333333,102.22222222222221,1254.25,102.22222222222221C1256.6666666666667,102.22222222222221,1259.0833333333333,102.22222222222221,1261.5,102.22222222222221C1263.9166666666667,102.22222222222221,1266.3333333333333,102.22222222222221,1268.75,102.22222222222221C1271.1666666666667,102.22222222222221,1273.5833333333333,102.22222222222221,1276,102.22222222222221C1278.4166666666667,102.22222222222221,1280.8333333333333,102.22222222222221,1283.25,102.22222222222221C1285.6666666666667,102.22222222222221,1288.0833333333333,102.22222222222221,1290.5,102.22222222222221C1292.9166666666667,102.22222222222221,1295.3333333333333,102.22222222222221,1297.75,102.22222222222221C1300.1666666666667,102.22222222222221,1302.5833333333333,102.22222222222221,1305,102.22222222222221C1307.4166666666667,102.22222222222221,1309.8333333333333,102.22222222222221,1312.25,102.22222222222221C1314.6666666666667,102.22222222222221,1317.0833333333333,102.22222222222221,1319.5,102.22222222222221C1321.9166666666667,102.22222222222221,1324.3333333333333,102.22222222222221,1326.75,102.22222222222221C1329.1666666666667,102.22222222222221,1331.5833333333333,102.22222222222221,1334,102.22222222222221C1336.4166666666667,102.22222222222221,1338.8333333333333,102.22222222222221,1341.25,102.22222222222221C1343.6666666666667,102.22222222222221,1346.0833333333333,102.22222222222221,1348.5,102.22222222222221C1350.9166666666667,102.22222222222221,1353.3333333333333,102.22222222222221,1355.75,102.22222222222221C1358.1666666666667,102.22222222222221,1360.5833333333333,102.22222222222221,1363,102.22222222222221C1365.4166666666667,102.22222222222221,1367.8333333333333,102.22222222222221,1370.25,102.22222222222221C1372.6666666666667,102.22222222222221,1375.0833333333333,102.22222222222221,1377.5,102.22222222222221C1379.9166666666667,102.22222222222221,1382.3333333333333,102.22222222222221,1384.75,102.22222222222221C1387.1666666666667,102.22222222222221,1389.5833333333333,102.22222222222221,1392,102.22222222222221C1394.4166666666667,102.22222222222221,1396.8333333333333,102.22222222222221,1399.25,102.22222222222221C1401.6666666666667,102.22222222222221,1404.0833333333333,102.22222222222221,1406.5,102.22222222222221C1408.9166666666667,102.22222222222221,1411.3333333333333,102.22222222222221,1413.75,102.22222222222221C1416.1666666666667,102.22222222222221,1418.5833333333333,102.22222222222221,1421,102.22222222222221C1423.4166666666667,102.22222222222221,1425.8333333333333,102.22222222222221,1428.25,102.22222222222221C1430.6666666666667,102.22222222222221,1433.0833333333333,102.22222222222221,1435.5,102.22222222222221C1437.9166666666667,102.22222222222221,1440.3333333333333,102.22222222222221,1442.75,102.22222222222221C1445.1666666666667,102.22222222222221,1447.5833333333333,102.22222222222221,1450,102.22222222222221" fill="transparent" stroke-linecap="round" stroke="#E7C6DF" stroke-width="2"></path><g class="visx-group visx-axis visx-axis-bottom" transform="translate(0, 115)"><g class="visx-group visx-axis-tick" transform="translate(0, 0)"><line class="visx-line" x1="0" y1="0" x2="0" y2="8" fill="transparent" shape-rendering="crispEdges" stroke="#000" stroke-width="0" stroke-linecap="square"></line><svg x="0" y="0" font-size="10" style="overflow:visible"><text transform="" x="0" y="18" fill="#000" font-size="10" text-anchor="middle"><tspan x="0" dy="0em">0%</tspan></text></svg></g><g class="visx-group visx-axis-tick" transform="translate(0, 0)"><line class="visx-line" x1="362.5" y1="0" x2="362.5" y2="8" fill="transparent" shape-rendering="crispEdges" stroke="#000" stroke-width="0" stroke-linecap="square"></line><svg x="0" y="0" font-size="10" style="overflow:visible"><text transform="" x="362.5" y="18" fill="#000" font-size="10" text-anchor="middle"><tspan x="362.5" dy="0em">25%</tspan></text></svg></g><g class="visx-group visx-axis-tick" transform="translate(0, 0)"><line class="visx-line" x1="725" y1="0" x2="725" y2="8" fill="transparent" shape-rendering="crispEdges" stroke="#000" stroke-width="0" stroke-linecap="square"></line><svg x="0" y="0" font-size="10" style="overflow:visible"><text transform="" x="725" y="18" fill="#000" font-size="10" text-anchor="middle"><tspan x="725" dy="0em">50%</tspan></text></svg></g><g class="visx-group visx-axis-tick" transform="translate(0, 0)"><line class="visx-line" x1="1087.5" y1="0" x2="1087.5" y2="8" fill="transparent" shape-rendering="crispEdges" stroke="#000" stroke-width="0" stroke-linecap="square"></line><svg x="0" y="0" font-size="10" style="overflow:visible"><text transform="" x="1087.5" y="18" fill="#000" font-size="10" text-anchor="middle"><tspan x="1087.5" dy="0em">75%</tspan></text></svg></g><g class="visx-group visx-axis-tick" transform="translate(0, 0)"><line class="visx-line" x1="1450" y1="0" x2="1450" y2="8" fill="transparent" shape-rendering="crispEdges" stroke="#000" stroke-width="0" stroke-linecap="square"></line><svg x="0" y="0" font-size="10" style="overflow:visible"><text transform="" x="1450" y="18" fill="#000" font-size="10" text-anchor="middle"><tspan x="1450" dy="0em">100%</tspan></text></svg></g><line class="visx-line visx-axis-line" x1="0.5" y1="0" x2="1450.5" y2="0" fill="transparent" shape-rendering="crispEdges" stroke="#222" stroke-width="0"></line></g><g class="visx-group visx-axis visx-axis-left" transform="translate(0, 0)"><g class="visx-group visx-axis-tick" transform="translate(0, 0)"><line class="visx-line" x1="0" y1="115" x2="-8" y2="115" fill="transparent" shape-rendering="crispEdges" stroke="#222" stroke-width="0" stroke-linecap="square"></line><svg x="-30" y="0" font-size="8" style="overflow:visible"><text transform="" x="-8" y="115" fill="#000" font-size="8" text-anchor="start"><tspan x="-8" dy="0em">0%</tspan></text></svg></g><g class="visx-group visx-axis-tick" transform="translate(0, 0)"><line class="visx-line" x1="0" y1="51.11111111111111" x2="-8" y2="51.11111111111111" fill="transparent" shape-rendering="crispEdges" stroke="#222" stroke-width="0" stroke-linecap="square"></line><svg x="-30" y="0" font-size="8" style="overflow:visible"><text transform="" x="-8" y="51.11111111111111" fill="#000" font-size="8" text-anchor="start"><tspan x="-8" dy="0em">50%</tspan></text></svg></g><line class="visx-line visx-axis-line" x1="0" y1="115.5" x2="0" y2="0.5" fill="transparent" shape-rendering="crispEdges" stroke="#222" stroke-width="0"></line></g><rect class="visx-bar" width="1450" height="115" fill="transparent"></rect><line class="visx-line" x1="1160" y1="28" x2="1160" y2="115" fill="transparent" shape-rendering="crispEdges" stroke="#0062D2" stroke-width="1" pointer-events="none" stroke-dasharray="5,2"></line><svg x="0" y="0" font-size="10px" style="overflow:visible"><text transform="" x="1160" y="20" font-size="10px" fill="#fff" stroke="#fff" stroke-width="0.8em" text-anchor="middle"><tspan x="1160" dy="0.355em">Optimal 80%</tspan></text></svg><svg x="0" y="0" font-size="10px" style="overflow:visible"><text transform="" x="1160" y="20" font-size="10px" fill="#62677B" text-anchor="middle"><tspan x="1160" dy="0.355em">Optimal 80%</tspan></text></svg></g></svg>