<?xml version="1.0"?><svg xmlns="http://www.w3.org/2000/svg" xmlns:xlink= "http://www.w3.org/1999/xlink" style="background: white;" width="1500" height="185"> <g style="color: black; font-size: 13px; font-family: sans-serif; transform: translate(18px, 25px);"><g><circle r="3" cx="-6" cy="-5" style="fill: #B6509E" /><text>Borrow APR, variable</text></g><g style="transform: translateX(150px);"><circle r="3" cx="-6" cy="-5" style="fill: rgb(231, 198, 223)" /><text>Borrow APR, stable</text></g><g style="transform: translateX(290px);"><circle r="3" cx="-6" cy="-5" style="fill: rgb(0, 98, 210)" /><text>Utilization Rate</text></g></g><g class="visx-group" transform="translate(40, 50)"><g class="visx-group visx-rows" transform="translate(0, 0)"><line class="visx-line" x1="0" y1="115" x2="1450" y2="115" fill="transparent" shape-rendering="crispEdges" stroke="#000" stroke-width="1" stroke-dasharray="3,3" pointer-events="none"></line><line class="visx-line" x1="0" y1="62.72727272727272" x2="1450" y2="62.72727272727272" fill="transparent" shape-rendering="crispEdges" stroke="#000" stroke-width="1" stroke-dasharray="3,3" pointer-events="none"></line><line class="visx-line" x1="0" y1="10.454545454545459" x2="1450" y2="10.454545454545459" fill="transparent" shape-rendering="crispEdges" stroke="#000" stroke-width="1" stroke-dasharray="3,3" pointer-events="none"></line></g><path class="visx-linepath" d="M0,114.9999999999216C2.4166666666666665,114.98693181813609,4.833333333333334,114.97386363635056,7.25,114.96079545454545C9.666666666666666,114.94772727274034,12.083333333333334,114.9346590909091,14.5,114.92159090909091C16.916666666666668,114.90852272727273,19.333333333333332,114.89545454545456,21.75,114.88238636363637C24.166666666666668,114.86931818181819,26.583333333333332,114.85625,29,114.84318181818182C31.416666666666668,114.83011363636363,33.833333333333336,114.81704545454545,36.25,114.80397727272727C38.666666666666664,114.79090909090908,41.083333333333336,114.77784090909091,43.5,114.76477272727273C45.91666666666667,114.75170454545454,48.333333333333336,114.73863636363636,50.75000000000001,114.72556818181818C53.16666666666667,114.71249999999999,55.583333333333336,114.69943181818182,58,114.68636363636364C60.416666666666664,114.67329545454545,62.833333333333336,114.66022727272728,65.25,114.6471590909091C67.66666666666667,114.63409090909092,70.08333333333333,114.62102272727273,72.5,114.60795454545455C74.91666666666667,114.59488636363636,77.33333333333333,114.58181818181818,79.75,114.56875C82.16666666666667,114.55568181818181,84.58333333333333,114.54261363636363,87,114.52954545454544C89.41666666666667,114.51647727272726,91.83333333333333,114.5034090909091,94.25,114.49034090909092C96.66666666666667,114.47727272727273,99.08333333333334,114.46420454545455,101.50000000000001,114.45113636363637C103.91666666666667,114.43806818181818,106.33333333333334,114.425,108.75,114.41193181818181C111.16666666666667,114.39886363636363,113.58333333333333,114.38579545454546,116,114.37272727272727C118.41666666666667,114.35965909090909,120.83333333333334,114.34659090909092,123.25000000000001,114.33352272727274C125.66666666666667,114.32045454545455,128.08333333333334,114.30738636363637,130.5,114.29431818181818C132.91666666666666,114.28125,135.33333333333334,114.26818181818182,137.75,114.25511363636363C140.16666666666666,114.24204545454545,142.58333333333334,114.22897727272728,145,114.2159090909091C147.41666666666666,114.20284090909091,149.83333333333334,114.18977272727273,152.25,114.17670454545454C154.66666666666666,114.16363636363636,157.08333333333334,114.15056818181819,159.5,114.1375C161.91666666666666,114.12443181818182,164.33333333333334,114.11136363636363,166.75,114.09829545454545C169.16666666666666,114.08522727272727,171.58333333333334,114.0721590909091,174,114.05909090909091C176.41666666666666,114.04602272727273,178.83333333333334,114.03295454545454,181.25,114.01988636363636C183.66666666666666,114.00681818181818,186.08333333333334,113.99374999999999,188.5,113.98068181818181C190.91666666666666,113.96761363636362,193.33333333333334,113.95454545454547,195.75,113.94147727272728C198.16666666666669,113.9284090909091,200.58333333333334,113.91534090909092,203.00000000000003,113.90227272727273C205.41666666666669,113.88920454545455,207.83333333333331,113.87613636363636,210.24999999999997,113.86306818181818C212.66666666666666,113.85,215.08333333333331,113.83693181818182,217.5,113.82386363636364C219.91666666666666,113.81079545454546,222.33333333333334,113.79772727272727,224.75,113.78465909090909C227.16666666666666,113.7715909090909,229.58333333333334,113.75852272727273,232,113.74545454545455C234.41666666666666,113.73238636363637,236.83333333333334,113.71931818181818,239.25,113.70625C241.66666666666669,113.69318181818181,244.08333333333334,113.68011363636364,246.50000000000003,113.66704545454546C248.91666666666669,113.65397727272727,251.33333333333331,113.64090909090909,253.74999999999997,113.6278409090909C256.16666666666663,113.61477272727272,258.5833333333333,113.60170454545454,261,113.58863636363635C263.4166666666667,113.57556818181817,265.8333333333333,113.5625,268.25,113.54943181818182C270.6666666666667,113.53636363636363,273.0833333333333,113.52329545454546,275.5,113.51022727272728C277.9166666666667,113.4971590909091,280.3333333333333,113.48409090909091,282.75,113.47102272727273C285.1666666666667,113.45795454545454,287.5833333333333,113.44488636363636,290,113.43181818181817C292.4166666666667,113.41874999999999,294.8333333333333,113.40568181818182,297.25,113.39261363636363C299.6666666666667,113.37954545454545,302.0833333333333,113.36647727272728,304.5,113.3534090909091C306.9166666666667,113.34034090909091,309.3333333333333,113.32727272727273,311.75,113.31420454545454C314.1666666666667,113.30113636363636,316.5833333333333,113.28806818181818,319,113.27499999999999C321.4166666666667,113.26193181818181,323.8333333333333,113.24886363636364,326.25,113.23579545454545C328.6666666666667,113.22272727272727,331.0833333333333,113.2096590909091,333.5,113.19659090909092C335.9166666666667,113.18352272727273,338.3333333333333,113.17045454545455,340.75,113.15738636363636C343.1666666666667,113.14431818181818,345.5833333333333,113.13125000000001,348,113.11818181818182C350.4166666666667,113.10511363636364,352.8333333333333,113.09204545454546,355.25,113.07897727272727C357.6666666666667,113.06590909090909,360.0833333333333,113.0528409090909,362.5,113.03977272727272C364.9166666666667,113.02670454545454,367.3333333333333,113.01363636363637,369.75,113.00056818181818C372.1666666666667,112.9875,374.5833333333333,112.97443181818183,377,112.96136363636364C379.4166666666667,112.94829545454546,381.8333333333333,112.93522727272727,384.25,112.92215909090909C386.6666666666667,112.9090909090909,389.0833333333333,112.89602272727272,391.5,112.88295454545454C393.9166666666667,112.86988636363635,396.33333333333337,112.85681818181818,398.75000000000006,112.84375C401.16666666666674,112.83068181818182,403.58333333333337,112.81761363636365,406.00000000000006,112.80454545454546C408.4166666666667,112.79147727272728,410.8333333333333,112.7784090909091,413.24999999999994,112.76534090909091C415.66666666666663,112.75227272727273,418.08333333333326,112.73920454545454,420.49999999999994,112.72613636363636C422.91666666666663,112.71306818181817,425.3333333333333,112.7,427.75,112.68693181818182C430.1666666666667,112.67386363636363,432.5833333333333,112.66079545454545,435,112.64772727272727C437.4166666666667,112.63465909090908,439.8333333333333,112.62159090909091,442.25,112.60852272727273C444.6666666666667,112.59545454545454,447.0833333333333,112.58238636363637,449.5,112.56931818181819C451.9166666666667,112.55625,454.3333333333333,112.54318181818182,456.75,112.53011363636364C459.1666666666667,112.51704545454545,461.5833333333333,112.50397727272727,464,112.49090909090908C466.4166666666667,112.4778409090909,468.8333333333333,112.46477272727272,471.25,112.45170454545453C473.6666666666667,112.43863636363635,476.0833333333333,112.42556818181819,478.5,112.41250000000001C480.9166666666667,112.39943181818182,483.33333333333337,112.38636363636364,485.75000000000006,112.37329545454546C488.16666666666674,112.36022727272727,490.58333333333337,112.34715909090909,493.00000000000006,112.3340909090909C495.4166666666667,112.32102272727272,497.8333333333333,112.30795454545455,500.24999999999994,112.29488636363637C502.66666666666663,112.28181818181818,505.08333333333326,112.26875,507.49999999999994,112.25568181818181C509.91666666666663,112.24261363636363,512.3333333333333,112.22954545454546,514.75,112.21647727272727C517.1666666666666,112.20340909090909,519.5833333333334,112.1903409090909,522,112.17727272727272C524.4166666666666,112.16420454545454,526.8333333333334,112.15113636363637,529.25,112.13806818181818C531.6666666666666,112.125,534.0833333333334,112.11193181818182,536.5,112.09886363636363C538.9166666666666,112.08579545454545,541.3333333333334,112.07272727272728,543.75,112.0596590909091C546.1666666666666,112.04659090909091,548.5833333333334,112.03352272727274,551,112.02045454545456C553.4166666666666,112.00738636363637,555.8333333333334,111.99431818181819,558.25,111.98125C560.6666666666666,111.96818181818182,563.0833333333334,111.95511363636363,565.5,111.94204545454545C567.9166666666666,111.92897727272727,570.3333333333334,111.91590909090908,572.75,111.9028409090909C575.1666666666666,111.88977272727271,577.5833333333334,111.87670454545456,580,111.86363636363637C582.4166666666666,111.85056818181819,584.8333333333334,111.8375,587.25,111.82443181818182C589.6666666666666,111.81136363636364,592.0833333333334,111.79829545454545,594.5,111.78522727272727C596.9166666666666,111.77215909090908,599.3333333333334,111.75909090909092,601.75,111.74602272727273C604.1666666666666,111.73295454545455,606.5833333333334,111.71988636363636,609,111.70681818181818C611.4166666666666,111.69375,613.8333333333334,111.68068181818182,616.25,111.66761363636364C618.6666666666666,111.65454545454546,621.0833333333334,111.64147727272727,623.5,111.62840909090909C625.9166666666666,111.6153409090909,628.3333333333334,111.60227272727273,630.75,111.58920454545455C633.1666666666666,111.57613636363637,635.5833333333334,111.56306818181818,638,111.55C640.4166666666666,111.53693181818181,642.8333333333334,111.52386363636363,645.25,111.51079545454544C647.6666666666666,111.49772727272726,650.0833333333334,111.48465909090909,652.5,111.4715909090909C654.9166666666666,111.45852272727272,657.3333333333334,111.44545454545455,659.75,111.43238636363637C662.1666666666666,111.41931818181818,664.5833333333334,111.40625,667,111.39318181818182C669.4166666666666,111.38011363636363,671.8333333333334,111.36704545454545,674.25,111.35397727272726C676.6666666666666,111.34090909090908,679.0833333333334,111.32784090909092,681.5,111.31477272727274C683.9166666666666,111.30170454545456,686.3333333333334,111.28863636363637,688.75,111.27556818181819C691.1666666666666,111.2625,693.5833333333334,111.24943181818182,696,111.23636363636363C698.4166666666666,111.22329545454545,700.8333333333334,111.21022727272728,703.25,111.1971590909091C705.6666666666666,111.18409090909091,708.0833333333334,111.17102272727273,710.5,111.15795454545454C712.9166666666666,111.14488636363636,715.3333333333334,111.13181818181819,717.75,111.11875C720.1666666666666,111.10568181818182,722.5833333333334,111.09261363636364,725,111.07954545454545C727.4166666666666,111.06647727272727,729.8333333333334,111.0534090909091,732.25,111.04034090909092C734.6666666666666,111.02727272727273,737.0833333333334,111.01420454545455,739.5,111.00113636363636C741.9166666666666,110.98806818181818,744.3333333333334,110.975,746.75,110.96193181818181C749.1666666666666,110.94886363636363,751.5833333333334,110.93579545454546,754,110.92272727272727C756.4166666666666,110.90965909090909,758.8333333333334,110.89659090909092,761.25,110.88352272727273C763.6666666666666,110.87045454545455,766.0833333333334,110.85738636363637,768.5,110.84431818181818C770.9166666666666,110.83125,773.3333333333334,110.81818181818181,775.75,110.80511363636363C778.1666666666666,110.79204545454544,780.5833333333334,110.77897727272727,783,110.76590909090909C785.4166666666667,110.7528409090909,787.8333333333334,110.73977272727274,790.2500000000001,110.72670454545455C792.6666666666667,110.71363636363637,795.0833333333335,110.70056818181818,797.5000000000001,110.6875C799.9166666666667,110.67443181818182,802.3333333333335,110.66136363636363,804.7500000000001,110.64829545454545C807.1666666666667,110.63522727272726,809.5833333333335,110.6221590909091,812.0000000000001,110.60909090909091C814.4166666666667,110.59602272727273,816.8333333333333,110.58295454545454,819.2499999999999,110.56988636363636C821.6666666666665,110.55681818181817,824.0833333333333,110.54375,826.4999999999999,110.53068181818182C828.9166666666665,110.51761363636363,831.3333333333333,110.50454545454546,833.7499999999999,110.49147727272728C836.1666666666665,110.4784090909091,838.5833333333333,110.46534090909091,840.9999999999999,110.45227272727273C843.4166666666666,110.43920454545454,845.8333333333333,110.42613636363636,848.25,110.41306818181818C850.6666666666666,110.39999999999999,853.0833333333334,110.38693181818182,855.5,110.37386363636364C857.9166666666666,110.36079545454545,860.3333333333334,110.34772727272728,862.75,110.3346590909091C865.1666666666666,110.32159090909092,867.5833333333334,110.30852272727273,870,110.29545454545455C872.4166666666666,110.28238636363636,874.8333333333334,110.26931818181818,877.25,110.25625C879.6666666666666,110.24318181818181,882.0833333333334,110.23011363636364,884.5,110.21704545454546C886.9166666666666,110.20397727272727,889.3333333333334,110.19090909090909,891.75,110.1778409090909C894.1666666666666,110.16477272727272,896.5833333333334,110.15170454545455,899,110.13863636363637C901.4166666666666,110.12556818181818,903.8333333333334,110.1125,906.25,110.09943181818181C908.6666666666666,110.08636363636363,911.0833333333334,110.07329545454546,913.5,110.06022727272727C915.9166666666666,110.04715909090909,918.3333333333334,110.0340909090909,920.75,110.02102272727272C923.1666666666666,110.00795454545454,925.5833333333334,109.99488636363637,928,109.98181818181818C930.4166666666666,109.96875,932.8333333333334,109.95568181818183,935.25,109.94261363636365C937.6666666666666,109.92954545454546,940.0833333333334,109.91647727272728,942.5,109.9034090909091C944.9166666666666,109.89034090909091,947.3333333333334,109.87727272727273,949.75,109.86420454545454C952.1666666666666,109.85113636363636,954.5833333333334,109.83806818181817,957,109.82499999999999C959.4166666666666,109.8119318181818,961.8333333333334,109.79886363636363,964.25,109.78579545454545C966.6666666666667,109.77272727272727,969.0833333333334,109.7596590909091,971.5000000000001,109.74659090909091C973.9166666666667,109.73352272727273,976.3333333333335,109.72045454545454,978.7500000000001,109.70738636363636C981.1666666666667,109.69431818181818,983.5833333333335,109.68125,986.0000000000001,109.66818181818182C988.4166666666667,109.65511363636364,990.8333333333335,109.64204545454545,993.2500000000001,109.62897727272727C995.6666666666667,109.61590909090908,998.0833333333333,109.60284090909092,1000.4999999999999,109.58977272727273C1002.9166666666665,109.57670454545455,1005.3333333333333,109.56363636363636,1007.7499999999999,109.55056818181818C1010.1666666666665,109.5375,1012.5833333333333,109.52443181818182,1014.9999999999999,109.51136363636364C1017.4166666666665,109.49829545454546,1019.8333333333333,109.48522727272727,1022.2499999999999,109.47215909090909C1024.6666666666665,109.4590909090909,1027.0833333333333,109.44602272727272,1029.5,109.43295454545454C1031.9166666666667,109.41988636363635,1034.3333333333333,109.4068181818182,1036.75,109.39375000000001C1039.1666666666667,109.38068181818183,1041.5833333333333,109.36761363636364,1044,109.35454545454546C1046.4166666666667,109.34147727272727,1048.8333333333333,109.32840909090909,1051.25,109.3153409090909C1053.6666666666667,109.30227272727272,1056.0833333333333,109.28920454545454,1058.5,109.27613636363635C1060.9166666666667,109.26306818181817,1063.3333333333333,109.25,1065.75,109.23693181818182C1068.1666666666667,109.22386363636363,1070.5833333333333,109.21079545454546,1073,109.19772727272728C1075.4166666666667,109.1846590909091,1077.8333333333333,109.17159090909091,1080.25,109.15852272727273C1082.6666666666667,109.14545454545454,1085.0833333333333,109.13238636363637,1087.5,109.11931818181819C1089.9166666666667,109.10625,1092.3333333333333,109.09318181818182,1094.75,109.08011363636363C1097.1666666666667,109.06704545454545,1099.5833333333333,109.05397727272728,1102,109.0409090909091C1104.4166666666667,109.02784090909091,1106.8333333333333,109.01477272727273,1109.25,109.00170454545454C1111.6666666666667,108.98863636363636,1114.0833333333333,108.97556818181819,1116.5,108.9625C1118.9166666666667,108.94943181818182,1121.3333333333333,108.93636363636364,1123.75,108.92329545454545C1126.1666666666667,108.91022727272727,1128.5833333333333,108.89715909090908,1131,108.8840909090909C1133.4166666666667,108.87102272727272,1135.8333333333333,108.85795454545455,1138.25,108.84488636363636C1140.6666666666667,108.83181818181818,1143.0833333333333,108.81875000000001,1145.5,108.80568181818182C1147.9166666666667,108.79261363636364,1150.3333333333333,108.77954545454546,1152.75,108.76647727272727C1155.1666666666667,108.75340909090909,1157.5833333333333,108.75340909090909,1160,108.72727272727272C1162.4166666666667,108.70113636363635,1164.8333333333333,107.21136363636364,1167.25,106.45340909090909C1169.6666666666667,105.69545454545454,1172.0833333333333,104.9375,1174.5,104.17954545454545C1176.9166666666667,103.4215909090909,1179.3333333333333,102.66363636363636,1181.75,101.90568181818182C1184.1666666666667,101.14772727272728,1186.5833333333333,100.38977272727271,1189,99.63181818181818C1191.4166666666667,98.87386363636364,1193.8333333333333,98.1159090909091,1196.25,97.35795454545455C1198.6666666666667,96.6,1201.0833333333333,95.84204545454546,1203.5,95.0840909090909C1205.9166666666667,94.32613636363635,1208.3333333333333,93.56818181818181,1210.75,92.81022727272727C1213.1666666666667,92.05227272727274,1215.5833333333333,91.29431818181817,1218,90.53636363636363C1220.4166666666667,89.7784090909091,1222.8333333333333,89.02045454545456,1225.25,88.2625C1227.6666666666667,87.50454545454545,1230.0833333333333,86.74659090909091,1232.5,85.98863636363636C1234.9166666666667,85.23068181818181,1237.3333333333333,84.47272727272727,1239.75,83.71477272727273C1242.1666666666667,82.95681818181819,1244.5833333333333,82.19886363636365,1247,81.4409090909091C1249.4166666666667,80.68295454545455,1251.8333333333333,79.92500000000001,1254.25,79.16704545454546C1256.6666666666667,78.4090909090909,1259.0833333333333,77.65113636363637,1261.5,76.89318181818183C1263.9166666666667,76.13522727272729,1266.3333333333333,75.37727272727273,1268.75,74.61931818181819C1271.1666666666667,73.86136363636365,1273.5833333333333,73.10340909090911,1276,72.34545454545456C1278.4166666666667,71.5875,1280.8333333333333,70.82954545454547,1283.25,70.07159090909092C1285.6666666666667,69.31363636363636,1288.0833333333333,68.55568181818182,1290.5,67.79772727272727C1292.9166666666667,67.03977272727272,1295.3333333333333,66.28181818181818,1297.75,65.52386363636364C1300.1666666666667,64.7659090909091,1302.5833333333333,64.00795454545455,1305,63.25000000000001C1307.4166666666667,62.49204545454546,1309.8333333333333,61.73409090909092,1312.25,60.97613636363637C1314.6666666666667,60.218181818181826,1317.0833333333333,59.46022727272728,1319.5,58.702272727272735C1321.9166666666667,57.94431818181819,1324.3333333333333,57.18636363636363,1326.75,56.428409090909085C1329.1666666666667,55.67045454545454,1331.5833333333333,54.9125,1334,54.154545454545456C1336.4166666666667,53.39659090909091,1338.8333333333333,52.638636363636365,1341.25,51.88068181818182C1343.6666666666667,51.122727272727275,1346.0833333333333,50.36477272727273,1348.5,49.606818181818184C1350.9166666666667,48.84886363636364,1353.3333333333333,48.09090909090909,1355.75,47.33295454545455C1358.1666666666667,46.575,1360.5833333333333,45.81704545454544,1363,45.0590909090909C1365.4166666666667,44.30113636363635,1367.8333333333333,43.54318181818182,1370.25,42.785227272727276C1372.6666666666667,42.02727272727273,1375.0833333333333,41.269318181818186,1377.5,40.51136363636364C1379.9166666666667,39.753409090909095,1382.3333333333333,38.99545454545455,1384.75,38.237500000000004C1387.1666666666667,37.47954545454546,1389.5833333333333,36.721590909090914,1392,35.96363636363637C1394.4166666666667,35.20568181818182,1396.8333333333333,34.44772727272726,1399.25,33.68977272727272C1401.6666666666667,32.93181818181817,1404.0833333333333,32.173863636363635,1406.5,31.415909090909093C1408.9166666666667,30.65795454545455,1411.3333333333333,29.900000000000002,1413.75,29.142045454545457C1416.1666666666667,28.38409090909091,1418.5833333333333,27.626136363636366,1421,26.868181818181817C1423.4166666666667,26.11022727272727,1425.8333333333333,25.352272727272712,1428.25,24.59431818181817C1430.6666666666667,23.83636363636363,1433.0833333333333,23.0784090909091,1435.5,22.32045454545456C1437.9166666666667,21.562500000000018,1440.3333333333333,20.80454545454546,1442.75,20.04659090909091C1445.1666666666667,19.28863636363636,1447.5833333333333,18.53068181818182,1450,17.772727272727273" fill="transparent" stroke-linecap="round" stroke="#B6509E" stroke-width="2"></path><path class="visx-linepath" d="M0,104.54545454542841C2.4166666666666665,104.54109848483324,4.833333333333334,104.53674242423807,7.25,104.53238636363636C9.666666666666666,104.52803030303465,12.083333333333334,104.52367424242424,14.5,104.51931818181818C16.916666666666668,104.51496212121212,19.333333333333332,104.51060606060605,21.75,104.50625C24.166666666666668,104.50189393939394,26.583333333333332,104.49753787878788,29,104.49318181818182C31.416666666666668,104.48882575757577,33.833333333333336,104.4844696969697,36.25,104.48011363636364C38.666666666666664,104.47575757575758,41.083333333333336,104.47140151515151,43.5,104.46704545454546C45.91666666666667,104.4626893939394,48.333333333333336,104.45833333333333,50.75000000000001,104.45397727272727C53.16666666666667,104.44962121212122,55.583333333333336,104.44526515151514,58,104.44090909090909C60.416666666666664,104.43655303030303,62.833333333333336,104.43219696969696,65.25,104.4278409090909C67.66666666666667,104.42348484848485,70.08333333333333,104.41912878787879,72.5,104.41477272727273C74.91666666666667,104.41041666666668,77.33333333333333,104.4060606060606,79.75,104.40170454545455C82.16666666666667,104.3973484848485,84.58333333333333,104.39299242424242,87,104.38863636363637C89.41666666666667,104.38428030303031,91.83333333333333,104.37992424242424,94.25,104.37556818181818C96.66666666666667,104.37121212121212,99.08333333333334,104.36685606060605,101.50000000000001,104.3625C103.91666666666667,104.35814393939394,106.33333333333334,104.35378787878787,108.75,104.34943181818181C111.16666666666667,104.34507575757576,113.58333333333333,104.34071969696969,116,104.33636363636363C118.41666666666667,104.33200757575757,120.83333333333334,104.32765151515152,123.25000000000001,104.32329545454546C125.66666666666667,104.3189393939394,128.08333333333334,104.31458333333332,130.5,104.31022727272726C132.91666666666666,104.3058712121212,135.33333333333334,104.30151515151515,137.75,104.29715909090909C140.16666666666666,104.29280303030303,142.58333333333334,104.28844696969696,145,104.2840909090909C147.41666666666666,104.27973484848485,149.83333333333334,104.2753787878788,152.25,104.27102272727274C154.66666666666666,104.26666666666668,157.08333333333334,104.26231060606061,159.5,104.25795454545455C161.91666666666666,104.2535984848485,164.33333333333334,104.24924242424242,166.75,104.24488636363637C169.16666666666666,104.24053030303031,171.58333333333334,104.23617424242424,174,104.23181818181818C176.41666666666666,104.22746212121213,178.83333333333334,104.22310606060606,181.25,104.21875C183.66666666666666,104.21439393939394,186.08333333333334,104.21003787878787,188.5,104.20568181818182C190.91666666666666,104.20132575757576,193.33333333333334,104.19696969696969,195.75,104.19261363636363C198.16666666666669,104.18825757575758,200.58333333333334,104.1839015151515,203.00000000000003,104.17954545454545C205.41666666666669,104.17518939393939,207.83333333333331,104.17083333333332,210.24999999999997,104.16647727272726C212.66666666666666,104.1621212121212,215.08333333333331,104.15776515151515,217.5,104.1534090909091C219.91666666666666,104.14905303030304,222.33333333333334,104.14469696969697,224.75,104.14034090909091C227.16666666666666,104.13598484848485,229.58333333333334,104.1316287878788,232,104.12727272727274C234.41666666666666,104.12291666666668,236.83333333333334,104.11856060606061,239.25,104.11420454545456C241.66666666666669,104.1098484848485,244.08333333333334,104.10549242424243,246.50000000000003,104.10113636363637C248.91666666666669,104.09678030303031,251.33333333333331,104.09242424242424,253.74999999999997,104.08806818181819C256.16666666666663,104.08371212121213,258.5833333333333,104.07935606060606,261,104.075C263.4166666666667,104.07064393939395,265.8333333333333,104.06628787878788,268.25,104.06193181818182C270.6666666666667,104.05757575757576,273.0833333333333,104.05321969696969,275.5,104.04886363636363C277.9166666666667,104.04450757575758,280.3333333333333,104.0401515151515,282.75,104.03579545454545C285.1666666666667,104.0314393939394,287.5833333333333,104.02708333333332,290,104.02272727272727C292.4166666666667,104.01837121212121,294.8333333333333,104.01401515151515,297.25,104.0096590909091C299.6666666666667,104.00530303030304,302.0833333333333,104.00094696969697,304.5,103.99659090909091C306.9166666666667,103.99223484848486,309.3333333333333,103.98787878787878,311.75,103.98352272727273C314.1666666666667,103.97916666666667,316.5833333333333,103.9748106060606,319,103.97045454545454C321.4166666666667,103.96609848484849,323.8333333333333,103.96174242424242,326.25,103.95738636363636C328.6666666666667,103.9530303030303,331.0833333333333,103.94867424242423,333.5,103.94431818181818C335.9166666666667,103.93996212121212,338.3333333333333,103.93560606060606,340.75,103.93125C343.1666666666667,103.92689393939395,345.5833333333333,103.92253787878788,348,103.91818181818182C350.4166666666667,103.91382575757576,352.8333333333333,103.9094696969697,355.25,103.90511363636364C357.6666666666667,103.90075757575758,360.0833333333333,103.89640151515151,362.5,103.89204545454545C364.9166666666667,103.8876893939394,367.3333333333333,103.88333333333333,369.75,103.87897727272727C372.1666666666667,103.87462121212121,374.5833333333333,103.87026515151516,377,103.8659090909091C379.4166666666667,103.86155303030304,381.8333333333333,103.85719696969697,384.25,103.85284090909092C386.6666666666667,103.84848484848486,389.0833333333333,103.84412878787879,391.5,103.83977272727273C393.9166666666667,103.83541666666667,396.33333333333337,103.8310606060606,398.75000000000006,103.82670454545455C401.16666666666674,103.82234848484849,403.58333333333337,103.81799242424242,406.00000000000006,103.81363636363636C408.4166666666667,103.8092803030303,410.8333333333333,103.80492424242424,413.24999999999994,103.80056818181818C415.66666666666663,103.79621212121212,418.08333333333326,103.79185606060605,420.49999999999994,103.7875C422.91666666666663,103.78314393939394,425.3333333333333,103.77878787878787,427.75,103.77443181818181C430.1666666666667,103.77007575757575,432.5833333333333,103.76571969696968,435,103.76136363636363C437.4166666666667,103.75700757575757,439.8333333333333,103.7526515151515,442.25,103.74829545454544C444.6666666666667,103.74393939393939,447.0833333333333,103.73958333333333,449.5,103.73522727272727C451.9166666666667,103.73087121212122,454.3333333333333,103.72651515151516,456.75,103.7221590909091C459.1666666666667,103.71780303030305,461.5833333333333,103.71344696969697,464,103.70909090909092C466.4166666666667,103.70473484848486,468.8333333333333,103.70037878787879,471.25,103.69602272727273C473.6666666666667,103.69166666666668,476.0833333333333,103.6873106060606,478.5,103.68295454545455C480.9166666666667,103.6785984848485,483.33333333333337,103.67424242424242,485.75000000000006,103.66988636363637C488.16666666666674,103.66553030303031,490.58333333333337,103.66117424242424,493.00000000000006,103.65681818181818C495.4166666666667,103.65246212121212,497.8333333333333,103.64810606060605,500.24999999999994,103.64375C502.66666666666663,103.63939393939394,505.08333333333326,103.63503787878787,507.49999999999994,103.63068181818181C509.91666666666663,103.62632575757576,512.3333333333333,103.62196969696969,514.75,103.61761363636363C517.1666666666666,103.61325757575757,519.5833333333334,103.6089015151515,522,103.60454545454544C524.4166666666666,103.60018939393939,526.8333333333334,103.59583333333333,529.25,103.59147727272727C531.6666666666666,103.58712121212122,534.0833333333334,103.58276515151515,536.5,103.57840909090909C538.9166666666666,103.57405303030303,541.3333333333334,103.56969696969698,543.75,103.56534090909092C546.1666666666666,103.56098484848486,548.5833333333334,103.5566287878788,551,103.55227272727274C553.4166666666666,103.54791666666668,555.8333333333334,103.54356060606061,558.25,103.53920454545455C560.6666666666666,103.5348484848485,563.0833333333334,103.53049242424242,565.5,103.52613636363637C567.9166666666666,103.52178030303031,570.3333333333334,103.51742424242424,572.75,103.51306818181818C575.1666666666666,103.50871212121213,577.5833333333334,103.50435606060606,580,103.5C582.4166666666666,103.49564393939394,584.8333333333334,103.49128787878787,587.25,103.48693181818182C589.6666666666666,103.48257575757576,592.0833333333334,103.47821969696969,594.5,103.47386363636363C596.9166666666666,103.46950757575758,599.3333333333334,103.4651515151515,601.75,103.46079545454545C604.1666666666666,103.45643939393939,606.5833333333334,103.45208333333333,609,103.44772727272728C611.4166666666666,103.44337121212122,613.8333333333334,103.43901515151515,616.25,103.4346590909091C618.6666666666666,103.43030303030304,621.0833333333334,103.42594696969697,623.5,103.42159090909091C625.9166666666666,103.41723484848485,628.3333333333334,103.41287878787878,630.75,103.40852272727273C633.1666666666666,103.40416666666667,635.5833333333334,103.3998106060606,638,103.39545454545454C640.4166666666666,103.39109848484848,642.8333333333334,103.38674242424241,645.25,103.38238636363636C647.6666666666666,103.3780303030303,650.0833333333334,103.37367424242424,652.5,103.36931818181819C654.9166666666666,103.36496212121213,657.3333333333334,103.36060606060606,659.75,103.35625C662.1666666666666,103.35189393939395,664.5833333333334,103.34753787878788,667,103.34318181818182C669.4166666666666,103.33882575757576,671.8333333333334,103.33446969696969,674.25,103.33011363636363C676.6666666666666,103.32575757575758,679.0833333333334,103.3214015151515,681.5,103.31704545454545C683.9166666666666,103.3126893939394,686.3333333333334,103.30833333333334,688.75,103.30397727272728C691.1666666666666,103.29962121212122,693.5833333333334,103.29526515151515,696,103.2909090909091C698.4166666666666,103.28655303030304,700.8333333333334,103.28219696969697,703.25,103.27784090909091C705.6666666666666,103.27348484848486,708.0833333333334,103.26912878787878,710.5,103.26477272727273C712.9166666666666,103.26041666666667,715.3333333333334,103.2560606060606,717.75,103.25170454545454C720.1666666666666,103.24734848484849,722.5833333333334,103.24299242424242,725,103.23863636363636C727.4166666666666,103.2342803030303,729.8333333333334,103.22992424242423,732.25,103.22556818181818C734.6666666666666,103.22121212121212,737.0833333333334,103.21685606060605,739.5,103.21249999999999C741.9166666666666,103.20814393939393,744.3333333333334,103.20378787878786,746.75,103.19943181818181C749.1666666666666,103.19507575757575,751.5833333333334,103.1907196969697,754,103.18636363636364C756.4166666666666,103.18200757575758,758.8333333333334,103.17765151515152,761.25,103.17329545454547C763.6666666666666,103.16893939393941,766.0833333333334,103.16458333333333,768.5,103.16022727272727C770.9166666666666,103.15587121212121,773.3333333333334,103.15151515151516,775.75,103.1471590909091C778.1666666666666,103.14280303030304,780.5833333333334,103.13844696969697,783,103.13409090909092C785.4166666666667,103.12973484848486,787.8333333333334,103.12537878787879,790.2500000000001,103.12102272727273C792.6666666666667,103.11666666666667,795.0833333333335,103.1123106060606,797.5000000000001,103.10795454545455C799.9166666666667,103.10359848484849,802.3333333333335,103.09924242424242,804.7500000000001,103.09488636363636C807.1666666666667,103.0905303030303,809.5833333333335,103.08617424242424,812.0000000000001,103.08181818181818C814.4166666666667,103.07746212121212,816.8333333333333,103.07310606060605,819.2499999999999,103.06875C821.6666666666665,103.06439393939394,824.0833333333333,103.06003787878787,826.4999999999999,103.05568181818181C828.9166666666665,103.05132575757575,831.3333333333333,103.0469696969697,833.7499999999999,103.04261363636364C836.1666666666665,103.03825757575758,838.5833333333333,103.03390151515151,840.9999999999999,103.02954545454546C843.4166666666666,103.0251893939394,845.8333333333333,103.02083333333333,848.25,103.01647727272727C850.6666666666666,103.01212121212122,853.0833333333334,103.00776515151516,855.5,103.0034090909091C857.9166666666666,102.99905303030305,860.3333333333334,102.99469696969696,862.75,102.9903409090909C865.1666666666666,102.98598484848485,867.5833333333334,102.98162878787879,870,102.97727272727273C872.4166666666666,102.97291666666668,874.8333333333334,102.96856060606059,877.25,102.96420454545454C879.6666666666666,102.95984848484848,882.0833333333334,102.95549242424242,884.5,102.95113636363637C886.9166666666666,102.94678030303031,889.3333333333334,102.94242424242424,891.75,102.93806818181818C894.1666666666666,102.93371212121212,896.5833333333334,102.92935606060605,899,102.925C901.4166666666666,102.92064393939394,903.8333333333334,102.91628787878787,906.25,102.91193181818181C908.6666666666666,102.90757575757576,911.0833333333334,102.9032196969697,913.5,102.89886363636364C915.9166666666666,102.89450757575759,918.3333333333334,102.89015151515152,920.75,102.88579545454546C923.1666666666666,102.8814393939394,925.5833333333334,102.87708333333333,928,102.87272727272727C930.4166666666666,102.86837121212122,932.8333333333334,102.86401515151515,935.25,102.85965909090909C937.6666666666666,102.85530303030303,940.0833333333334,102.85094696969696,942.5,102.8465909090909C944.9166666666666,102.84223484848485,947.3333333333334,102.83787878787878,949.75,102.83352272727272C952.1666666666666,102.82916666666667,954.5833333333334,102.8248106060606,957,102.82045454545454C959.4166666666666,102.81609848484848,961.8333333333334,102.81174242424241,964.25,102.80738636363635C966.6666666666667,102.8030303030303,969.0833333333334,102.79867424242423,971.5000000000001,102.79431818181817C973.9166666666667,102.78996212121211,976.3333333333335,102.78560606060606,978.7500000000001,102.78125C981.1666666666667,102.77689393939394,983.5833333333335,102.77253787878787,986.0000000000001,102.76818181818182C988.4166666666667,102.76382575757576,990.8333333333335,102.7594696969697,993.2500000000001,102.75511363636365C995.6666666666667,102.75075757575759,998.0833333333333,102.74640151515152,1000.4999999999999,102.74204545454546C1002.9166666666665,102.7376893939394,1005.3333333333333,102.73333333333333,1007.7499999999999,102.72897727272728C1010.1666666666665,102.72462121212122,1012.5833333333333,102.72026515151515,1014.9999999999999,102.7159090909091C1017.4166666666665,102.71155303030304,1019.8333333333333,102.70719696969697,1022.2499999999999,102.70284090909091C1024.6666666666665,102.69848484848485,1027.0833333333333,102.69412878787878,1029.5,102.68977272727273C1031.9166666666667,102.68541666666667,1034.3333333333333,102.6810606060606,1036.75,102.67670454545454C1039.1666666666667,102.67234848484848,1041.5833333333333,102.66799242424241,1044,102.66363636363636C1046.4166666666667,102.6592803030303,1048.8333333333333,102.65492424242423,1051.25,102.65056818181817C1053.6666666666667,102.64621212121212,1056.0833333333333,102.64185606060605,1058.5,102.63749999999999C1060.9166666666667,102.63314393939393,1063.3333333333333,102.62878787878788,1065.75,102.62443181818182C1068.1666666666667,102.62007575757576,1070.5833333333333,102.6157196969697,1073,102.61136363636365C1075.4166666666667,102.60700757575759,1077.8333333333333,102.60265151515152,1080.25,102.59829545454546C1082.6666666666667,102.59393939393941,1085.0833333333333,102.58958333333334,1087.5,102.58522727272728C1089.9166666666667,102.58087121212122,1092.3333333333333,102.57651515151515,1094.75,102.5721590909091C1097.1666666666667,102.56780303030304,1099.5833333333333,102.56344696969697,1102,102.55909090909091C1104.4166666666667,102.55473484848486,1106.8333333333333,102.55037878787878,1109.25,102.54602272727273C1111.6666666666667,102.54166666666667,1114.0833333333333,102.5373106060606,1116.5,102.53295454545454C1118.9166666666667,102.52859848484849,1121.3333333333333,102.52424242424242,1123.75,102.51988636363636C1126.1666666666667,102.5155303030303,1128.5833333333333,102.51117424242423,1131,102.50681818181818C1133.4166666666667,102.50246212121212,1135.8333333333333,102.49810606060605,1138.25,102.49374999999999C1140.6666666666667,102.48939393939393,1143.0833333333333,102.48503787878788,1145.5,102.48068181818182C1147.9166666666667,102.47632575757576,1150.3333333333333,102.4719696969697,1152.75,102.46761363636364C1155.1666666666667,102.46325757575758,1157.5833333333333,102.46325757575758,1160,102.45454545454545C1162.4166666666667,102.44583333333333,1164.8333333333333,101.14772727272727,1167.25,100.49431818181817C1169.6666666666667,99.84090909090908,1172.0833333333333,99.1875,1174.5,98.5340909090909C1176.9166666666667,97.88068181818181,1179.3333333333333,97.22727272727273,1181.75,96.57386363636364C1184.1666666666667,95.92045454545455,1186.5833333333333,95.26704545454545,1189,94.61363636363636C1191.4166666666667,93.96022727272727,1193.8333333333333,93.30681818181819,1196.25,92.6534090909091C1198.6666666666667,92,1201.0833333333333,91.3465909090909,1203.5,90.69318181818181C1205.9166666666667,90.03977272727272,1208.3333333333333,89.38636363636364,1210.75,88.73295454545455C1213.1666666666667,88.07954545454545,1215.5833333333333,87.42613636363636,1218,86.77272727272727C1220.4166666666667,86.11931818181817,1222.8333333333333,85.4659090909091,1225.25,84.8125C1227.6666666666667,84.1590909090909,1230.0833333333333,83.50568181818183,1232.5,82.85227272727273C1234.9166666666667,82.19886363636364,1237.3333333333333,81.54545454545455,1239.75,80.89204545454545C1242.1666666666667,80.23863636363636,1244.5833333333333,79.58522727272727,1247,78.93181818181817C1249.4166666666667,78.27840909090908,1251.8333333333333,77.625,1254.25,76.9715909090909C1256.6666666666667,76.31818181818181,1259.0833333333333,75.66477272727273,1261.5,75.01136363636364C1263.9166666666667,74.35795454545455,1266.3333333333333,73.70454545454545,1268.75,73.05113636363636C1271.1666666666667,72.39772727272727,1273.5833333333333,71.74431818181819,1276,71.0909090909091C1278.4166666666667,70.4375,1280.8333333333333,69.7840909090909,1283.25,69.13068181818181C1285.6666666666667,68.47727272727272,1288.0833333333333,67.82386363636364,1290.5,67.17045454545455C1292.9166666666667,66.51704545454545,1295.3333333333333,65.86363636363636,1297.75,65.21022727272727C1300.1666666666667,64.55681818181817,1302.5833333333333,63.90340909090909,1305,63.25000000000001C1307.4166666666667,62.59659090909092,1309.8333333333333,61.94318181818182,1312.25,61.28977272727273C1314.6666666666667,60.63636363636363,1317.0833333333333,59.98295454545455,1319.5,59.32954545454545C1321.9166666666667,58.67613636363636,1324.3333333333333,58.02272727272727,1326.75,57.36931818181819C1329.1666666666667,56.7159090909091,1331.5833333333333,56.062500000000014,1334,55.40909090909092C1336.4166666666667,54.75568181818183,1338.8333333333333,54.10227272727273,1341.25,53.44886363636363C1343.6666666666667,52.79545454545454,1346.0833333333333,52.142045454545446,1348.5,51.48863636363635C1350.9166666666667,50.83522727272726,1353.3333333333333,50.18181818181817,1355.75,49.528409090909086C1358.1666666666667,48.875,1360.5833333333333,48.221590909090914,1363,47.56818181818183C1365.4166666666667,46.91477272727274,1367.8333333333333,46.26136363636364,1370.25,45.60795454545455C1372.6666666666667,44.95454545454545,1375.0833333333333,44.30113636363635,1377.5,43.647727272727266C1379.9166666666667,42.99431818181818,1382.3333333333333,42.34090909090909,1384.75,41.68750000000001C1387.1666666666667,41.03409090909092,1389.5833333333333,40.38068181818182,1392,39.72727272727273C1394.4166666666667,39.07386363636363,1396.8333333333333,38.42045454545455,1399.25,37.76704545454545C1401.6666666666667,37.11363636363636,1404.0833333333333,36.46022727272728,1406.5,35.80681818181819C1408.9166666666667,35.15340909090909,1411.3333333333333,34.5,1413.75,33.84659090909091C1416.1666666666667,33.19318181818181,1418.5833333333333,32.53977272727272,1421,31.88636363636363C1423.4166666666667,31.23295454545454,1425.8333333333333,30.579545454545457,1428.25,29.926136363636367C1430.6666666666667,29.272727272727277,1433.0833333333333,28.61931818181818,1435.5,27.96590909090909C1437.9166666666667,27.3125,1440.3333333333333,26.659090909090914,1442.75,26.005681818181824C1445.1666666666667,25.352272727272734,1447.5833333333333,24.69886363636364,1450,24.045454545454547" fill="transparent" stroke-linecap="round" stroke="#E7C6DF" stroke-width="2"></path><g class="visx-group visx-axis visx-axis-bottom" transform="translate(0, 115)"><g class="visx-group visx-axis-tick" transform="translate(0, 0)"><line class="visx-line" x1="0" y1="0" x2="0" y2="8" fill="transparent" shape-rendering="crispEdges" stroke="#000" stroke-width="0" stroke-linecap="square"></line><svg x="0" y="0" font-size="10" style="overflow:visible"><text transform="" x="0" y="18" fill="#000" font-size="10" text-anchor="middle"><tspan x="0" dy="0em">0%</tspan></text></svg></g><g class="visx-group visx-axis-tick" transform="translate(0, 0)"><line class="visx-line" x1="362.5" y1="0" x2="362.5" y2="8" fill="transparent" shape-rendering="crispEdges" stroke="#000" stroke-width="0" stroke-linecap="square"></line><svg x="0" y="0" font-size="10" style="overflow:visible"><text transform="" x="362.5" y="18" fill="#000" font-size="10" text-anchor="middle"><tspan x="362.5" dy="0em">25%</tspan></text></svg></g><g class="visx-group visx-axis-tick" transform="translate(0, 0)"><line class="visx-line" x1="725" y1="0" x2="725" y2="8" fill="transparent" shape-rendering="crispEdges" stroke="#000" stroke-width="0" stroke-linecap="square"></line><svg x="0" y="0" font-size="10" style="overflow:visible"><text transform="" x="725" y="18" fill="#000" font-size="10" text-anchor="middle"><tspan x="725" dy="0em">50%</tspan></text></svg></g><g class="visx-group visx-axis-tick" transform="translate(0, 0)"><line class="visx-line" x1="1087.5" y1="0" x2="1087.5" y2="8" fill="transparent" shape-rendering="crispEdges" stroke="#000" stroke-width="0" stroke-linecap="square"></line><svg x="0" y="0" font-size="10" style="overflow:visible"><text transform="" x="1087.5" y="18" fill="#000" font-size="10" text-anchor="middle"><tspan x="1087.5" dy="0em">75%</tspan></text></svg></g><g class="visx-group visx-axis-tick" transform="translate(0, 0)"><line class="visx-line" x1="1450" y1="0" x2="1450" y2="8" fill="transparent" shape-rendering="crispEdges" stroke="#000" stroke-width="0" stroke-linecap="square"></line><svg x="0" y="0" font-size="10" style="overflow:visible"><text transform="" x="1450" y="18" fill="#000" font-size="10" text-anchor="middle"><tspan x="1450" dy="0em">100%</tspan></text></svg></g><line class="visx-line visx-axis-line" x1="0.5" y1="0" x2="1450.5" y2="0" fill="transparent" shape-rendering="crispEdges" stroke="#222" stroke-width="0"></line></g><g class="visx-group visx-axis visx-axis-left" transform="translate(0, 0)"><g class="visx-group visx-axis-tick" transform="translate(0, 0)"><line class="visx-line" x1="0" y1="115" x2="-8" y2="115" fill="transparent" shape-rendering="crispEdges" stroke="#222" stroke-width="0" stroke-linecap="square"></line><svg x="-30" y="0" font-size="8" style="overflow:visible"><text transform="" x="-8" y="115" fill="#000" font-size="8" text-anchor="start"><tspan x="-8" dy="0em">0%</tspan></text></svg></g><g class="visx-group visx-axis-tick" transform="translate(0, 0)"><line class="visx-line" x1="0" y1="62.72727272727272" x2="-8" y2="62.72727272727272" fill="transparent" shape-rendering="crispEdges" stroke="#222" stroke-width="0" stroke-linecap="square"></line><svg x="-30" y="0" font-size="8" style="overflow:visible"><text transform="" x="-8" y="62.72727272727272" fill="#000" font-size="8" text-anchor="start"><tspan x="-8" dy="0em">50%</tspan></text></svg></g><g class="visx-group visx-axis-tick" transform="translate(0, 0)"><line class="visx-line" x1="0" y1="10.454545454545459" x2="-8" y2="10.454545454545459" fill="transparent" shape-rendering="crispEdges" stroke="#222" stroke-width="0" stroke-linecap="square"></line><svg x="-30" y="0" font-size="8" style="overflow:visible"><text transform="" x="-8" y="10.454545454545459" fill="#000" font-size="8" text-anchor="start"><tspan x="-8" dy="0em">100%</tspan></text></svg></g><line class="visx-line visx-axis-line" x1="0" y1="115.5" x2="0" y2="0.5" fill="transparent" shape-rendering="crispEdges" stroke="#222" stroke-width="0"></line></g><rect class="visx-bar" width="1450" height="115" fill="transparent"></rect><line class="visx-line" x1="1160" y1="28" x2="1160" y2="115" fill="transparent" shape-rendering="crispEdges" stroke="#0062D2" stroke-width="1" pointer-events="none" stroke-dasharray="5,2"></line><svg x="0" y="0" font-size="10px" style="overflow:visible"><text transform="" x="1160" y="20" font-size="10px" fill="#fff" stroke="#fff" stroke-width="0.8em" text-anchor="middle"><tspan x="1160" dy="0.355em">Optimal 80%</tspan></text></svg><svg x="0" y="0" font-size="10px" style="overflow:visible"><text transform="" x="1160" y="20" font-size="10px" fill="#62677B" text-anchor="middle"><tspan x="1160" dy="0.355em">Optimal 80%</tspan></text></svg></g></svg>