<?xml version="1.0"?><svg xmlns="http://www.w3.org/2000/svg" xmlns:xlink= "http://www.w3.org/1999/xlink" style="background: white;" width="1500" height="185"> <g style="color: black; font-size: 13px; font-family: sans-serif; transform: translate(18px, 25px);"><g><circle r="3" cx="-6" cy="-5" style="fill: #B6509E" /><text>Borrow APR, variable</text></g><g style="transform: translateX(150px);"><circle r="3" cx="-6" cy="-5" style="fill: rgb(231, 198, 223)" /><text>Borrow APR, stable</text></g><g style="transform: translateX(290px);"><circle r="3" cx="-6" cy="-5" style="fill: rgb(0, 98, 210)" /><text>Utilization Rate</text></g></g><g class="visx-group" transform="translate(40, 50)"><g class="visx-group visx-rows" transform="translate(0, 0)"><line class="visx-line" x1="0" y1="115" x2="1450" y2="115" fill="transparent" shape-rendering="crispEdges" stroke="#000" stroke-width="1" stroke-dasharray="3,3" pointer-events="none"></line><line class="visx-line" x1="0" y1="62.72727272727272" x2="1450" y2="62.72727272727272" fill="transparent" shape-rendering="crispEdges" stroke="#000" stroke-width="1" stroke-dasharray="3,3" pointer-events="none"></line><line class="visx-line" x1="0" y1="10.454545454545459" x2="1450" y2="10.454545454545459" fill="transparent" shape-rendering="crispEdges" stroke="#000" stroke-width="1" stroke-dasharray="3,3" pointer-events="none"></line></g><path class="visx-linepath" d="M0,108.72727272714205C2.4166666666666665,108.7054924241662,4.833333333333334,108.68371212119034,7.25,108.66193181818181C9.666666666666666,108.64015151517329,12.083333333333334,108.6183712121212,14.5,108.5965909090909C16.916666666666668,108.57481060606061,19.333333333333332,108.5530303030303,21.75,108.53125C24.166666666666668,108.5094696969697,26.583333333333332,108.48768939393939,29,108.4659090909091C31.416666666666668,108.4441287878788,33.833333333333336,108.42234848484848,36.25,108.40056818181819C38.666666666666664,108.37878787878789,41.083333333333336,108.35700757575756,43.5,108.33522727272727C45.91666666666667,108.31344696969697,48.333333333333336,108.29166666666667,50.75000000000001,108.26988636363637C53.16666666666667,108.24810606060608,55.583333333333336,108.22632575757575,58,108.20454545454545C60.416666666666664,108.18276515151514,62.833333333333336,108.16098484848484,65.25,108.13920454545455C67.66666666666667,108.11742424242425,70.08333333333333,108.09564393939394,72.5,108.07386363636364C74.91666666666667,108.05208333333334,77.33333333333333,108.03030303030303,79.75,108.00852272727273C82.16666666666667,107.98674242424244,84.58333333333333,107.96496212121211,87,107.94318181818181C89.41666666666667,107.92140151515152,91.83333333333333,107.8996212121212,94.25,107.8778409090909C96.66666666666667,107.85606060606061,99.08333333333334,107.8342803030303,101.50000000000001,107.8125C103.91666666666667,107.7907196969697,106.33333333333334,107.76893939393939,108.75,107.7471590909091C111.16666666666667,107.7253787878788,113.58333333333333,107.70359848484848,116,107.68181818181819C118.41666666666667,107.66003787878788,120.83333333333334,107.63825757575756,123.25000000000001,107.61647727272727C125.66666666666667,107.59469696969697,128.08333333333334,107.57291666666667,130.5,107.55113636363637C132.91666666666666,107.52935606060608,135.33333333333334,107.50757575757575,137.75,107.48579545454545C140.16666666666666,107.46401515151516,142.58333333333334,107.44223484848484,145,107.42045454545455C147.41666666666666,107.39867424242425,149.83333333333334,107.37689393939392,152.25,107.35511363636363C154.66666666666666,107.33333333333333,157.08333333333334,107.31155303030303,159.5,107.28977272727273C161.91666666666666,107.26799242424244,164.33333333333334,107.24621212121211,166.75,107.22443181818181C169.16666666666666,107.20265151515152,171.58333333333334,107.18087121212122,174,107.15909090909092C176.41666666666666,107.13731060606062,178.83333333333334,107.1155303030303,181.25,107.09375C183.66666666666666,107.0719696969697,186.08333333333334,107.05018939393939,188.5,107.0284090909091C190.91666666666666,107.0066287878788,193.33333333333334,106.98484848484848,195.75,106.96306818181819C198.16666666666669,106.94128787878789,200.58333333333334,106.91950757575759,203.00000000000003,106.89772727272728C205.41666666666669,106.87594696969698,207.83333333333331,106.85416666666666,210.24999999999997,106.83238636363636C212.66666666666666,106.81060606060606,215.08333333333331,106.78882575757576,217.5,106.76704545454547C219.91666666666666,106.74526515151517,222.33333333333334,106.72348484848484,224.75,106.70170454545455C227.16666666666666,106.67992424242425,229.58333333333334,106.65814393939394,232,106.63636363636364C234.41666666666666,106.61458333333334,236.83333333333334,106.59280303030303,239.25,106.57102272727273C241.66666666666669,106.54924242424242,244.08333333333334,106.52746212121212,246.50000000000003,106.50568181818181C248.91666666666669,106.48390151515152,251.33333333333331,106.4621212121212,253.74999999999997,106.4403409090909C256.16666666666663,106.41856060606061,258.5833333333333,106.3967803030303,261,106.375C263.4166666666667,106.3532196969697,265.8333333333333,106.33143939393939,268.25,106.3096590909091C270.6666666666667,106.2878787878788,273.0833333333333,106.26609848484847,275.5,106.24431818181817C277.9166666666667,106.22253787878788,280.3333333333333,106.20075757575758,282.75,106.17897727272728C285.1666666666667,106.15719696969698,287.5833333333333,106.13541666666666,290,106.11363636363636C292.4166666666667,106.09185606060606,294.8333333333333,106.07007575757575,297.25,106.04829545454545C299.6666666666667,106.02651515151516,302.0833333333333,106.00473484848484,304.5,105.98295454545455C306.9166666666667,105.96117424242425,309.3333333333333,105.93939393939394,311.75,105.91761363636364C314.1666666666667,105.89583333333334,316.5833333333333,105.87405303030302,319,105.85227272727272C321.4166666666667,105.83049242424242,323.8333333333333,105.80871212121212,326.25,105.78693181818183C328.6666666666667,105.76515151515153,331.0833333333333,105.7433712121212,333.5,105.7215909090909C335.9166666666667,105.69981060606061,338.3333333333333,105.6780303030303,340.75,105.65625C343.1666666666667,105.6344696969697,345.5833333333333,105.61268939393939,348,105.5909090909091C350.4166666666667,105.5691287878788,352.8333333333333,105.54734848484848,355.25,105.52556818181819C357.6666666666667,105.50378787878789,360.0833333333333,105.48200757575756,362.5,105.46022727272727C364.9166666666667,105.43844696969697,367.3333333333333,105.41666666666666,369.75,105.39488636363636C372.1666666666667,105.37310606060606,374.5833333333333,105.35132575757575,377,105.32954545454545C379.4166666666667,105.30776515151516,381.8333333333333,105.28598484848483,384.25,105.26420454545453C386.6666666666667,105.24242424242424,389.0833333333333,105.22064393939394,391.5,105.19886363636364C393.9166666666667,105.17708333333334,396.33333333333337,105.15530303030303,398.75000000000006,105.13352272727272C401.16666666666674,105.11174242424242,403.58333333333337,105.08996212121211,406.00000000000006,105.06818181818181C408.4166666666667,105.04640151515152,410.8333333333333,105.0246212121212,413.24999999999994,105.0028409090909C415.66666666666663,104.98106060606061,418.08333333333326,104.9592803030303,420.49999999999994,104.9375C422.91666666666663,104.91571969696969,425.3333333333333,104.89393939393938,427.75,104.87215909090908C430.1666666666667,104.85037878787878,432.5833333333333,104.82859848484848,435,104.80681818181819C437.4166666666667,104.78503787878789,439.8333333333333,104.76325757575756,442.25,104.74147727272727C444.6666666666667,104.71969696969697,447.0833333333333,104.69791666666667,449.5,104.67613636363637C451.9166666666667,104.65435606060608,454.3333333333333,104.63257575757575,456.75,104.61079545454545C459.1666666666667,104.58901515151516,461.5833333333333,104.56723484848484,464,104.54545454545455C466.4166666666667,104.52367424242425,468.8333333333333,104.50189393939394,471.25,104.48011363636364C473.6666666666667,104.45833333333334,476.0833333333333,104.43655303030303,478.5,104.41477272727273C480.9166666666667,104.39299242424242,483.33333333333337,104.37121212121212,485.75000000000006,104.34943181818181C488.16666666666674,104.32765151515152,490.58333333333337,104.3058712121212,493.00000000000006,104.2840909090909C495.4166666666667,104.26231060606061,497.8333333333333,104.2405303030303,500.24999999999994,104.21875C502.66666666666663,104.1969696969697,505.08333333333326,104.17518939393939,507.49999999999994,104.1534090909091C509.91666666666663,104.1316287878788,512.3333333333333,104.1098484848485,514.75,104.08806818181819C517.1666666666666,104.06628787878789,519.5833333333334,104.04450757575756,522,104.02272727272727C524.4166666666666,104.00094696969697,526.8333333333334,103.97916666666666,529.25,103.95738636363636C531.6666666666666,103.93560606060606,534.0833333333334,103.91382575757575,536.5,103.89204545454545C538.9166666666666,103.87026515151516,541.3333333333334,103.84848484848484,543.75,103.82670454545455C546.1666666666666,103.80492424242425,548.5833333333334,103.78314393939392,551,103.76136363636363C553.4166666666666,103.73958333333333,555.8333333333334,103.71780303030303,558.25,103.69602272727273C560.6666666666666,103.67424242424244,563.0833333333334,103.65246212121211,565.5,103.63068181818181C567.9166666666666,103.60890151515152,570.3333333333334,103.58712121212122,572.75,103.56534090909092C575.1666666666666,103.54356060606062,577.5833333333334,103.5217803030303,580,103.5C582.4166666666666,103.4782196969697,584.8333333333334,103.45643939393939,587.25,103.4346590909091C589.6666666666666,103.4128787878788,592.0833333333334,103.39109848484848,594.5,103.36931818181819C596.9166666666666,103.34753787878789,599.3333333333334,103.32575757575758,601.75,103.30397727272728C604.1666666666666,103.28219696969698,606.5833333333334,103.26041666666666,609,103.23863636363636C611.4166666666666,103.21685606060606,613.8333333333334,103.19507575757576,616.25,103.17329545454547C618.6666666666666,103.15151515151517,621.0833333333334,103.12973484848484,623.5,103.10795454545455C625.9166666666666,103.08617424242425,628.3333333333334,103.06439393939394,630.75,103.04261363636364C633.1666666666666,103.02083333333334,635.5833333333334,102.99905303030303,638,102.97727272727273C640.4166666666666,102.95549242424244,642.8333333333334,102.93371212121211,645.25,102.91193181818181C647.6666666666666,102.89015151515152,650.0833333333334,102.8683712121212,652.5,102.8465909090909C654.9166666666666,102.82481060606061,657.3333333333334,102.8030303030303,659.75,102.78125C662.1666666666666,102.7594696969697,664.5833333333334,102.73768939393939,667,102.7159090909091C669.4166666666666,102.6941287878788,671.8333333333334,102.67234848484847,674.25,102.65056818181817C676.6666666666666,102.62878787878788,679.0833333333334,102.60700757575758,681.5,102.58522727272728C683.9166666666666,102.56344696969698,686.3333333333334,102.54166666666666,688.75,102.51988636363636C691.1666666666666,102.49810606060606,693.5833333333334,102.47632575757575,696,102.45454545454545C698.4166666666666,102.43276515151516,700.8333333333334,102.41098484848484,703.25,102.38920454545455C705.6666666666666,102.36742424242425,708.0833333333334,102.34564393939394,710.5,102.32386363636364C712.9166666666666,102.30208333333334,715.3333333333334,102.28030303030302,717.75,102.25852272727272C720.1666666666666,102.23674242424242,722.5833333333334,102.21496212121212,725,102.19318181818183C727.4166666666666,102.17140151515153,729.8333333333334,102.1496212121212,732.25,102.1278409090909C734.6666666666666,102.10606060606061,737.0833333333334,102.0842803030303,739.5,102.0625C741.9166666666666,102.0407196969697,744.3333333333334,102.01893939393939,746.75,101.9971590909091C749.1666666666666,101.9753787878788,751.5833333333334,101.95359848484848,754,101.93181818181819C756.4166666666666,101.91003787878789,758.8333333333334,101.88825757575758,761.25,101.86647727272728C763.6666666666666,101.84469696969698,766.0833333333334,101.82291666666666,768.5,101.80113636363636C770.9166666666666,101.77935606060606,773.3333333333334,101.75757575757575,775.75,101.73579545454545C778.1666666666666,101.71401515151516,780.5833333333334,101.69223484848483,783,101.67045454545453C785.4166666666667,101.64867424242424,787.8333333333334,101.62689393939394,790.2500000000001,101.60511363636364C792.6666666666667,101.58333333333334,795.0833333333335,101.56155303030302,797.5000000000001,101.53977272727272C799.9166666666667,101.51799242424242,802.3333333333335,101.49621212121212,804.7500000000001,101.47443181818183C807.1666666666667,101.45265151515153,809.5833333333335,101.43087121212122,812.0000000000001,101.4090909090909C814.4166666666667,101.38731060606061,816.8333333333333,101.3655303030303,819.2499999999999,101.34375C821.6666666666665,101.32196969696969,824.0833333333333,101.30018939393938,826.4999999999999,101.27840909090908C828.9166666666665,101.25662878787878,831.3333333333333,101.23484848484848,833.7499999999999,101.21306818181819C836.1666666666665,101.19128787878789,838.5833333333333,101.16950757575756,840.9999999999999,101.14772727272727C843.4166666666666,101.12594696969697,845.8333333333333,101.10416666666667,848.25,101.08238636363637C850.6666666666666,101.06060606060608,853.0833333333334,101.03882575757575,855.5,101.01704545454545C857.9166666666666,100.99526515151516,860.3333333333334,100.97348484848484,862.75,100.95170454545455C865.1666666666666,100.92992424242425,867.5833333333334,100.90814393939394,870,100.88636363636364C872.4166666666666,100.86458333333334,874.8333333333334,100.84280303030303,877.25,100.82102272727273C879.6666666666666,100.79924242424244,882.0833333333334,100.77746212121211,884.5,100.75568181818181C886.9166666666666,100.73390151515152,889.3333333333334,100.7121212121212,891.75,100.6903409090909C894.1666666666666,100.66856060606061,896.5833333333334,100.6467803030303,899,100.625C901.4166666666666,100.6032196969697,903.8333333333334,100.58143939393939,906.25,100.5596590909091C908.6666666666666,100.5378787878788,911.0833333333334,100.51609848484847,913.5,100.49431818181817C915.9166666666666,100.47253787878788,918.3333333333334,100.45075757575756,920.75,100.42897727272727C923.1666666666666,100.40719696969697,925.5833333333334,100.38541666666666,928,100.36363636363636C930.4166666666666,100.34185606060606,932.8333333333334,100.32007575757575,935.25,100.29829545454545C937.6666666666666,100.27651515151516,940.0833333333334,100.25473484848484,942.5,100.23295454545455C944.9166666666666,100.21117424242425,947.3333333333334,100.18939393939394,949.75,100.16761363636364C952.1666666666666,100.14583333333334,954.5833333333334,100.12405303030303,957,100.10227272727273C959.4166666666666,100.08049242424244,961.8333333333334,100.05871212121211,964.25,100.03693181818181C966.6666666666667,100.01515151515152,969.0833333333334,99.99337121212122,971.5000000000001,99.97159090909092C973.9166666666667,99.94981060606062,976.3333333333335,99.9280303030303,978.7500000000001,99.90625C981.1666666666667,99.8844696969697,983.5833333333335,99.86268939393939,986.0000000000001,99.8409090909091C988.4166666666667,99.8191287878788,990.8333333333335,99.79734848484848,993.2500000000001,99.77556818181819C995.6666666666667,99.75378787878789,998.0833333333333,99.73200757575758,1000.4999999999999,99.71022727272728C1002.9166666666665,99.68844696969697,1005.3333333333333,99.66666666666666,1007.7499999999999,99.64488636363636C1010.1666666666665,99.62310606060606,1012.5833333333333,99.60132575757576,1014.9999999999999,99.57954545454547C1017.4166666666665,99.55776515151517,1019.8333333333333,99.53598484848484,1022.2499999999999,99.51420454545455C1024.6666666666665,99.49242424242424,1027.0833333333333,99.47064393939394,1029.5,99.44886363636364C1031.9166666666667,99.42708333333334,1034.3333333333333,99.40530303030303,1036.75,99.38352272727273C1039.1666666666667,99.36174242424244,1041.5833333333333,99.33996212121211,1044,99.31818181818181C1046.4166666666667,99.29640151515152,1048.8333333333333,99.2746212121212,1051.25,99.2528409090909C1053.6666666666667,99.23106060606061,1056.0833333333333,99.2092803030303,1058.5,99.1875C1060.9166666666667,99.1657196969697,1063.3333333333333,99.14393939393939,1065.75,99.1221590909091C1068.1666666666667,99.1003787878788,1070.5833333333333,99.07859848484847,1073,99.05681818181817C1075.4166666666667,99.03503787878788,1077.8333333333333,99.01325757575758,1080.25,98.99147727272728C1082.6666666666667,98.96969696969698,1085.0833333333333,98.94791666666666,1087.5,98.92613636363636C1089.9166666666667,98.90435606060606,1092.3333333333333,98.88257575757575,1094.75,98.86079545454545C1097.1666666666667,98.83901515151516,1099.5833333333333,98.81723484848484,1102,98.79545454545455C1104.4166666666667,98.77367424242425,1106.8333333333333,98.75189393939394,1109.25,98.73011363636364C1111.6666666666667,98.70833333333334,1114.0833333333333,98.68655303030302,1116.5,98.66477272727272C1118.9166666666667,98.64299242424242,1121.3333333333333,98.62121212121212,1123.75,98.59943181818183C1126.1666666666667,98.57765151515153,1128.5833333333333,98.5558712121212,1131,98.5340909090909C1133.4166666666667,98.51231060606061,1135.8333333333333,98.4905303030303,1138.25,98.46875C1140.6666666666667,98.4469696969697,1143.0833333333333,98.42518939393939,1145.5,98.4034090909091C1147.9166666666667,98.3816287878788,1150.3333333333333,98.35984848484848,1152.75,98.33806818181819C1155.1666666666667,98.31628787878789,1157.5833333333333,98.31628787878788,1160,98.27272727272727C1162.4166666666667,98.22916666666666,1164.8333333333333,96.9659090909091,1167.25,96.3125C1169.6666666666667,95.6590909090909,1172.0833333333333,95.00568181818181,1174.5,94.35227272727272C1176.9166666666667,93.69886363636363,1179.3333333333333,93.04545454545456,1181.75,92.39204545454547C1184.1666666666667,91.73863636363637,1186.5833333333333,91.08522727272728,1189,90.43181818181819C1191.4166666666667,89.7784090909091,1193.8333333333333,89.125,1196.25,88.4715909090909C1198.6666666666667,87.81818181818181,1201.0833333333333,87.16477272727272,1203.5,86.51136363636363C1205.9166666666667,85.85795454545453,1208.3333333333333,85.20454545454545,1210.75,84.55113636363636C1213.1666666666667,83.89772727272727,1215.5833333333333,83.24431818181819,1218,82.5909090909091C1220.4166666666667,81.9375,1222.8333333333333,81.28409090909092,1225.25,80.63068181818183C1227.6666666666667,79.97727272727273,1230.0833333333333,79.32386363636364,1232.5,78.67045454545455C1234.9166666666667,78.01704545454545,1237.3333333333333,77.36363636363636,1239.75,76.71022727272727C1242.1666666666667,76.05681818181817,1244.5833333333333,75.4034090909091,1247,74.75C1249.4166666666667,74.0965909090909,1251.8333333333333,73.44318181818181,1254.25,72.78977272727272C1256.6666666666667,72.13636363636363,1259.0833333333333,71.48295454545456,1261.5,70.82954545454547C1263.9166666666667,70.17613636363637,1266.3333333333333,69.52272727272728,1268.75,68.86931818181819C1271.1666666666667,68.2159090909091,1273.5833333333333,67.5625,1276,66.9090909090909C1278.4166666666667,66.25568181818181,1280.8333333333333,65.60227272727272,1283.25,64.94886363636363C1285.6666666666667,64.29545454545453,1288.0833333333333,63.64204545454545,1290.5,62.98863636363637C1292.9166666666667,62.33522727272728,1295.3333333333333,61.681818181818194,1297.75,61.0284090909091C1300.1666666666667,60.37500000000001,1302.5833333333333,59.721590909090914,1305,59.06818181818182C1307.4166666666667,58.41477272727273,1309.8333333333333,57.76136363636364,1312.25,57.10795454545455C1314.6666666666667,56.45454545454545,1317.0833333333333,55.80113636363636,1319.5,55.147727272727266C1321.9166666666667,54.49431818181817,1324.3333333333333,53.84090909090908,1326.75,53.18749999999999C1329.1666666666667,52.53409090909091,1331.5833333333333,51.88068181818181,1334,51.22727272727273C1336.4166666666667,50.57386363636364,1338.8333333333333,49.920454545454554,1341.25,49.26704545454546C1343.6666666666667,48.61363636363637,1346.0833333333333,47.96022727272727,1348.5,47.30681818181818C1350.9166666666667,46.653409090909086,1353.3333333333333,46,1355.75,45.34659090909091C1358.1666666666667,44.69318181818181,1360.5833333333333,44.039772727272734,1363,43.38636363636364C1365.4166666666667,42.73295454545455,1367.8333333333333,42.07954545454546,1370.25,41.42613636363637C1372.6666666666667,40.77272727272727,1375.0833333333333,40.11931818181818,1377.5,39.465909090909086C1379.9166666666667,38.81249999999999,1382.3333333333333,38.15909090909091,1384.75,37.50568181818182C1387.1666666666667,36.852272727272734,1389.5833333333333,36.19886363636364,1392,35.54545454545455C1394.4166666666667,34.89204545454545,1396.8333333333333,34.23863636363636,1399.25,33.585227272727266C1401.6666666666667,32.93181818181817,1404.0833333333333,32.27840909090909,1406.5,31.625000000000004C1408.9166666666667,30.971590909090914,1411.3333333333333,30.318181818181817,1413.75,29.664772727272727C1416.1666666666667,29.011363636363637,1418.5833333333333,28.35795454545455,1421,27.70454545454546C1423.4166666666667,27.05113636363637,1425.8333333333333,26.397727272727277,1428.25,25.744318181818183C1430.6666666666667,25.09090909090909,1433.0833333333333,24.437499999999996,1435.5,23.784090909090907C1437.9166666666667,23.130681818181817,1440.3333333333333,22.47727272727273,1442.75,21.82386363636364C1445.1666666666667,21.17045454545455,1447.5833333333333,20.517045454545457,1450,19.863636363636363" fill="transparent" stroke-linecap="round" stroke="#B6509E" stroke-width="2"></path><path class="visx-linepath" d="M0,104.54545454542841C2.4166666666666665,104.54109848483324,4.833333333333334,104.53674242423807,7.25,104.53238636363636C9.666666666666666,104.52803030303465,12.083333333333334,104.52367424242424,14.5,104.51931818181818C16.916666666666668,104.51496212121212,19.333333333333332,104.51060606060605,21.75,104.50625C24.166666666666668,104.50189393939394,26.583333333333332,104.49753787878788,29,104.49318181818182C31.416666666666668,104.48882575757577,33.833333333333336,104.4844696969697,36.25,104.48011363636364C38.666666666666664,104.47575757575758,41.083333333333336,104.47140151515151,43.5,104.46704545454546C45.91666666666667,104.4626893939394,48.333333333333336,104.45833333333333,50.75000000000001,104.45397727272727C53.16666666666667,104.44962121212122,55.583333333333336,104.44526515151514,58,104.44090909090909C60.416666666666664,104.43655303030303,62.833333333333336,104.43219696969696,65.25,104.4278409090909C67.66666666666667,104.42348484848485,70.08333333333333,104.41912878787879,72.5,104.41477272727273C74.91666666666667,104.41041666666668,77.33333333333333,104.4060606060606,79.75,104.40170454545455C82.16666666666667,104.3973484848485,84.58333333333333,104.39299242424242,87,104.38863636363637C89.41666666666667,104.38428030303031,91.83333333333333,104.37992424242424,94.25,104.37556818181818C96.66666666666667,104.37121212121212,99.08333333333334,104.36685606060605,101.50000000000001,104.3625C103.91666666666667,104.35814393939394,106.33333333333334,104.35378787878787,108.75,104.34943181818181C111.16666666666667,104.34507575757576,113.58333333333333,104.34071969696969,116,104.33636363636363C118.41666666666667,104.33200757575757,120.83333333333334,104.32765151515152,123.25000000000001,104.32329545454546C125.66666666666667,104.3189393939394,128.08333333333334,104.31458333333332,130.5,104.31022727272726C132.91666666666666,104.3058712121212,135.33333333333334,104.30151515151515,137.75,104.29715909090909C140.16666666666666,104.29280303030303,142.58333333333334,104.28844696969696,145,104.2840909090909C147.41666666666666,104.27973484848485,149.83333333333334,104.2753787878788,152.25,104.27102272727274C154.66666666666666,104.26666666666668,157.08333333333334,104.26231060606061,159.5,104.25795454545455C161.91666666666666,104.2535984848485,164.33333333333334,104.24924242424242,166.75,104.24488636363637C169.16666666666666,104.24053030303031,171.58333333333334,104.23617424242424,174,104.23181818181818C176.41666666666666,104.22746212121213,178.83333333333334,104.22310606060606,181.25,104.21875C183.66666666666666,104.21439393939394,186.08333333333334,104.21003787878787,188.5,104.20568181818182C190.91666666666666,104.20132575757576,193.33333333333334,104.19696969696969,195.75,104.19261363636363C198.16666666666669,104.18825757575758,200.58333333333334,104.1839015151515,203.00000000000003,104.17954545454545C205.41666666666669,104.17518939393939,207.83333333333331,104.17083333333332,210.24999999999997,104.16647727272726C212.66666666666666,104.1621212121212,215.08333333333331,104.15776515151515,217.5,104.1534090909091C219.91666666666666,104.14905303030304,222.33333333333334,104.14469696969697,224.75,104.14034090909091C227.16666666666666,104.13598484848485,229.58333333333334,104.1316287878788,232,104.12727272727274C234.41666666666666,104.12291666666668,236.83333333333334,104.11856060606061,239.25,104.11420454545456C241.66666666666669,104.1098484848485,244.08333333333334,104.10549242424243,246.50000000000003,104.10113636363637C248.91666666666669,104.09678030303031,251.33333333333331,104.09242424242424,253.74999999999997,104.08806818181819C256.16666666666663,104.08371212121213,258.5833333333333,104.07935606060606,261,104.075C263.4166666666667,104.07064393939395,265.8333333333333,104.06628787878788,268.25,104.06193181818182C270.6666666666667,104.05757575757576,273.0833333333333,104.05321969696969,275.5,104.04886363636363C277.9166666666667,104.04450757575758,280.3333333333333,104.0401515151515,282.75,104.03579545454545C285.1666666666667,104.0314393939394,287.5833333333333,104.02708333333332,290,104.02272727272727C292.4166666666667,104.01837121212121,294.8333333333333,104.01401515151515,297.25,104.0096590909091C299.6666666666667,104.00530303030304,302.0833333333333,104.00094696969697,304.5,103.99659090909091C306.9166666666667,103.99223484848486,309.3333333333333,103.98787878787878,311.75,103.98352272727273C314.1666666666667,103.97916666666667,316.5833333333333,103.9748106060606,319,103.97045454545454C321.4166666666667,103.96609848484849,323.8333333333333,103.96174242424242,326.25,103.95738636363636C328.6666666666667,103.9530303030303,331.0833333333333,103.94867424242423,333.5,103.94431818181818C335.9166666666667,103.93996212121212,338.3333333333333,103.93560606060606,340.75,103.93125C343.1666666666667,103.92689393939395,345.5833333333333,103.92253787878788,348,103.91818181818182C350.4166666666667,103.91382575757576,352.8333333333333,103.9094696969697,355.25,103.90511363636364C357.6666666666667,103.90075757575758,360.0833333333333,103.89640151515151,362.5,103.89204545454545C364.9166666666667,103.8876893939394,367.3333333333333,103.88333333333333,369.75,103.87897727272727C372.1666666666667,103.87462121212121,374.5833333333333,103.87026515151516,377,103.8659090909091C379.4166666666667,103.86155303030304,381.8333333333333,103.85719696969697,384.25,103.85284090909092C386.6666666666667,103.84848484848486,389.0833333333333,103.84412878787879,391.5,103.83977272727273C393.9166666666667,103.83541666666667,396.33333333333337,103.8310606060606,398.75000000000006,103.82670454545455C401.16666666666674,103.82234848484849,403.58333333333337,103.81799242424242,406.00000000000006,103.81363636363636C408.4166666666667,103.8092803030303,410.8333333333333,103.80492424242424,413.24999999999994,103.80056818181818C415.66666666666663,103.79621212121212,418.08333333333326,103.79185606060605,420.49999999999994,103.7875C422.91666666666663,103.78314393939394,425.3333333333333,103.77878787878787,427.75,103.77443181818181C430.1666666666667,103.77007575757575,432.5833333333333,103.76571969696968,435,103.76136363636363C437.4166666666667,103.75700757575757,439.8333333333333,103.7526515151515,442.25,103.74829545454544C444.6666666666667,103.74393939393939,447.0833333333333,103.73958333333333,449.5,103.73522727272727C451.9166666666667,103.73087121212122,454.3333333333333,103.72651515151516,456.75,103.7221590909091C459.1666666666667,103.71780303030305,461.5833333333333,103.71344696969697,464,103.70909090909092C466.4166666666667,103.70473484848486,468.8333333333333,103.70037878787879,471.25,103.69602272727273C473.6666666666667,103.69166666666668,476.0833333333333,103.6873106060606,478.5,103.68295454545455C480.9166666666667,103.6785984848485,483.33333333333337,103.67424242424242,485.75000000000006,103.66988636363637C488.16666666666674,103.66553030303031,490.58333333333337,103.66117424242424,493.00000000000006,103.65681818181818C495.4166666666667,103.65246212121212,497.8333333333333,103.64810606060605,500.24999999999994,103.64375C502.66666666666663,103.63939393939394,505.08333333333326,103.63503787878787,507.49999999999994,103.63068181818181C509.91666666666663,103.62632575757576,512.3333333333333,103.62196969696969,514.75,103.61761363636363C517.1666666666666,103.61325757575757,519.5833333333334,103.6089015151515,522,103.60454545454544C524.4166666666666,103.60018939393939,526.8333333333334,103.59583333333333,529.25,103.59147727272727C531.6666666666666,103.58712121212122,534.0833333333334,103.58276515151515,536.5,103.57840909090909C538.9166666666666,103.57405303030303,541.3333333333334,103.56969696969698,543.75,103.56534090909092C546.1666666666666,103.56098484848486,548.5833333333334,103.5566287878788,551,103.55227272727274C553.4166666666666,103.54791666666668,555.8333333333334,103.54356060606061,558.25,103.53920454545455C560.6666666666666,103.5348484848485,563.0833333333334,103.53049242424242,565.5,103.52613636363637C567.9166666666666,103.52178030303031,570.3333333333334,103.51742424242424,572.75,103.51306818181818C575.1666666666666,103.50871212121213,577.5833333333334,103.50435606060606,580,103.5C582.4166666666666,103.49564393939394,584.8333333333334,103.49128787878787,587.25,103.48693181818182C589.6666666666666,103.48257575757576,592.0833333333334,103.47821969696969,594.5,103.47386363636363C596.9166666666666,103.46950757575758,599.3333333333334,103.4651515151515,601.75,103.46079545454545C604.1666666666666,103.45643939393939,606.5833333333334,103.45208333333333,609,103.44772727272728C611.4166666666666,103.44337121212122,613.8333333333334,103.43901515151515,616.25,103.4346590909091C618.6666666666666,103.43030303030304,621.0833333333334,103.42594696969697,623.5,103.42159090909091C625.9166666666666,103.41723484848485,628.3333333333334,103.41287878787878,630.75,103.40852272727273C633.1666666666666,103.40416666666667,635.5833333333334,103.3998106060606,638,103.39545454545454C640.4166666666666,103.39109848484848,642.8333333333334,103.38674242424241,645.25,103.38238636363636C647.6666666666666,103.3780303030303,650.0833333333334,103.37367424242424,652.5,103.36931818181819C654.9166666666666,103.36496212121213,657.3333333333334,103.36060606060606,659.75,103.35625C662.1666666666666,103.35189393939395,664.5833333333334,103.34753787878788,667,103.34318181818182C669.4166666666666,103.33882575757576,671.8333333333334,103.33446969696969,674.25,103.33011363636363C676.6666666666666,103.32575757575758,679.0833333333334,103.3214015151515,681.5,103.31704545454545C683.9166666666666,103.3126893939394,686.3333333333334,103.30833333333334,688.75,103.30397727272728C691.1666666666666,103.29962121212122,693.5833333333334,103.29526515151515,696,103.2909090909091C698.4166666666666,103.28655303030304,700.8333333333334,103.28219696969697,703.25,103.27784090909091C705.6666666666666,103.27348484848486,708.0833333333334,103.26912878787878,710.5,103.26477272727273C712.9166666666666,103.26041666666667,715.3333333333334,103.2560606060606,717.75,103.25170454545454C720.1666666666666,103.24734848484849,722.5833333333334,103.24299242424242,725,103.23863636363636C727.4166666666666,103.2342803030303,729.8333333333334,103.22992424242423,732.25,103.22556818181818C734.6666666666666,103.22121212121212,737.0833333333334,103.21685606060605,739.5,103.21249999999999C741.9166666666666,103.20814393939393,744.3333333333334,103.20378787878786,746.75,103.19943181818181C749.1666666666666,103.19507575757575,751.5833333333334,103.1907196969697,754,103.18636363636364C756.4166666666666,103.18200757575758,758.8333333333334,103.17765151515152,761.25,103.17329545454547C763.6666666666666,103.16893939393941,766.0833333333334,103.16458333333333,768.5,103.16022727272727C770.9166666666666,103.15587121212121,773.3333333333334,103.15151515151516,775.75,103.1471590909091C778.1666666666666,103.14280303030304,780.5833333333334,103.13844696969697,783,103.13409090909092C785.4166666666667,103.12973484848486,787.8333333333334,103.12537878787879,790.2500000000001,103.12102272727273C792.6666666666667,103.11666666666667,795.0833333333335,103.1123106060606,797.5000000000001,103.10795454545455C799.9166666666667,103.10359848484849,802.3333333333335,103.09924242424242,804.7500000000001,103.09488636363636C807.1666666666667,103.0905303030303,809.5833333333335,103.08617424242424,812.0000000000001,103.08181818181818C814.4166666666667,103.07746212121212,816.8333333333333,103.07310606060605,819.2499999999999,103.06875C821.6666666666665,103.06439393939394,824.0833333333333,103.06003787878787,826.4999999999999,103.05568181818181C828.9166666666665,103.05132575757575,831.3333333333333,103.0469696969697,833.7499999999999,103.04261363636364C836.1666666666665,103.03825757575758,838.5833333333333,103.03390151515151,840.9999999999999,103.02954545454546C843.4166666666666,103.0251893939394,845.8333333333333,103.02083333333333,848.25,103.01647727272727C850.6666666666666,103.01212121212122,853.0833333333334,103.00776515151516,855.5,103.0034090909091C857.9166666666666,102.99905303030305,860.3333333333334,102.99469696969696,862.75,102.9903409090909C865.1666666666666,102.98598484848485,867.5833333333334,102.98162878787879,870,102.97727272727273C872.4166666666666,102.97291666666668,874.8333333333334,102.96856060606059,877.25,102.96420454545454C879.6666666666666,102.95984848484848,882.0833333333334,102.95549242424242,884.5,102.95113636363637C886.9166666666666,102.94678030303031,889.3333333333334,102.94242424242424,891.75,102.93806818181818C894.1666666666666,102.93371212121212,896.5833333333334,102.92935606060605,899,102.925C901.4166666666666,102.92064393939394,903.8333333333334,102.91628787878787,906.25,102.91193181818181C908.6666666666666,102.90757575757576,911.0833333333334,102.9032196969697,913.5,102.89886363636364C915.9166666666666,102.89450757575759,918.3333333333334,102.89015151515152,920.75,102.88579545454546C923.1666666666666,102.8814393939394,925.5833333333334,102.87708333333333,928,102.87272727272727C930.4166666666666,102.86837121212122,932.8333333333334,102.86401515151515,935.25,102.85965909090909C937.6666666666666,102.85530303030303,940.0833333333334,102.85094696969696,942.5,102.8465909090909C944.9166666666666,102.84223484848485,947.3333333333334,102.83787878787878,949.75,102.83352272727272C952.1666666666666,102.82916666666667,954.5833333333334,102.8248106060606,957,102.82045454545454C959.4166666666666,102.81609848484848,961.8333333333334,102.81174242424241,964.25,102.80738636363635C966.6666666666667,102.8030303030303,969.0833333333334,102.79867424242423,971.5000000000001,102.79431818181817C973.9166666666667,102.78996212121211,976.3333333333335,102.78560606060606,978.7500000000001,102.78125C981.1666666666667,102.77689393939394,983.5833333333335,102.77253787878787,986.0000000000001,102.76818181818182C988.4166666666667,102.76382575757576,990.8333333333335,102.7594696969697,993.2500000000001,102.75511363636365C995.6666666666667,102.75075757575759,998.0833333333333,102.74640151515152,1000.4999999999999,102.74204545454546C1002.9166666666665,102.7376893939394,1005.3333333333333,102.73333333333333,1007.7499999999999,102.72897727272728C1010.1666666666665,102.72462121212122,1012.5833333333333,102.72026515151515,1014.9999999999999,102.7159090909091C1017.4166666666665,102.71155303030304,1019.8333333333333,102.70719696969697,1022.2499999999999,102.70284090909091C1024.6666666666665,102.69848484848485,1027.0833333333333,102.69412878787878,1029.5,102.68977272727273C1031.9166666666667,102.68541666666667,1034.3333333333333,102.6810606060606,1036.75,102.67670454545454C1039.1666666666667,102.67234848484848,1041.5833333333333,102.66799242424241,1044,102.66363636363636C1046.4166666666667,102.6592803030303,1048.8333333333333,102.65492424242423,1051.25,102.65056818181817C1053.6666666666667,102.64621212121212,1056.0833333333333,102.64185606060605,1058.5,102.63749999999999C1060.9166666666667,102.63314393939393,1063.3333333333333,102.62878787878788,1065.75,102.62443181818182C1068.1666666666667,102.62007575757576,1070.5833333333333,102.6157196969697,1073,102.61136363636365C1075.4166666666667,102.60700757575759,1077.8333333333333,102.60265151515152,1080.25,102.59829545454546C1082.6666666666667,102.59393939393941,1085.0833333333333,102.58958333333334,1087.5,102.58522727272728C1089.9166666666667,102.58087121212122,1092.3333333333333,102.57651515151515,1094.75,102.5721590909091C1097.1666666666667,102.56780303030304,1099.5833333333333,102.56344696969697,1102,102.55909090909091C1104.4166666666667,102.55473484848486,1106.8333333333333,102.55037878787878,1109.25,102.54602272727273C1111.6666666666667,102.54166666666667,1114.0833333333333,102.5373106060606,1116.5,102.53295454545454C1118.9166666666667,102.52859848484849,1121.3333333333333,102.52424242424242,1123.75,102.51988636363636C1126.1666666666667,102.5155303030303,1128.5833333333333,102.51117424242423,1131,102.50681818181818C1133.4166666666667,102.50246212121212,1135.8333333333333,102.49810606060605,1138.25,102.49374999999999C1140.6666666666667,102.48939393939393,1143.0833333333333,102.48503787878788,1145.5,102.48068181818182C1147.9166666666667,102.47632575757576,1150.3333333333333,102.4719696969697,1152.75,102.46761363636364C1155.1666666666667,102.46325757575758,1157.5833333333333,102.46325757575758,1160,102.45454545454545C1162.4166666666667,102.44583333333333,1164.8333333333333,101.14772727272727,1167.25,100.49431818181817C1169.6666666666667,99.84090909090908,1172.0833333333333,99.1875,1174.5,98.5340909090909C1176.9166666666667,97.88068181818181,1179.3333333333333,97.22727272727273,1181.75,96.57386363636364C1184.1666666666667,95.92045454545455,1186.5833333333333,95.26704545454545,1189,94.61363636363636C1191.4166666666667,93.96022727272727,1193.8333333333333,93.30681818181819,1196.25,92.6534090909091C1198.6666666666667,92,1201.0833333333333,91.3465909090909,1203.5,90.69318181818181C1205.9166666666667,90.03977272727272,1208.3333333333333,89.38636363636364,1210.75,88.73295454545455C1213.1666666666667,88.07954545454545,1215.5833333333333,87.42613636363636,1218,86.77272727272727C1220.4166666666667,86.11931818181817,1222.8333333333333,85.4659090909091,1225.25,84.8125C1227.6666666666667,84.1590909090909,1230.0833333333333,83.50568181818183,1232.5,82.85227272727273C1234.9166666666667,82.19886363636364,1237.3333333333333,81.54545454545455,1239.75,80.89204545454545C1242.1666666666667,80.23863636363636,1244.5833333333333,79.58522727272727,1247,78.93181818181817C1249.4166666666667,78.27840909090908,1251.8333333333333,77.625,1254.25,76.9715909090909C1256.6666666666667,76.31818181818181,1259.0833333333333,75.66477272727273,1261.5,75.01136363636364C1263.9166666666667,74.35795454545455,1266.3333333333333,73.70454545454545,1268.75,73.05113636363636C1271.1666666666667,72.39772727272727,1273.5833333333333,71.74431818181819,1276,71.0909090909091C1278.4166666666667,70.4375,1280.8333333333333,69.7840909090909,1283.25,69.13068181818181C1285.6666666666667,68.47727272727272,1288.0833333333333,67.82386363636364,1290.5,67.17045454545455C1292.9166666666667,66.51704545454545,1295.3333333333333,65.86363636363636,1297.75,65.21022727272727C1300.1666666666667,64.55681818181817,1302.5833333333333,63.90340909090909,1305,63.25000000000001C1307.4166666666667,62.59659090909092,1309.8333333333333,61.94318181818182,1312.25,61.28977272727273C1314.6666666666667,60.63636363636363,1317.0833333333333,59.98295454545455,1319.5,59.32954545454545C1321.9166666666667,58.67613636363636,1324.3333333333333,58.02272727272727,1326.75,57.36931818181819C1329.1666666666667,56.7159090909091,1331.5833333333333,56.062500000000014,1334,55.40909090909092C1336.4166666666667,54.75568181818183,1338.8333333333333,54.10227272727273,1341.25,53.44886363636363C1343.6666666666667,52.79545454545454,1346.0833333333333,52.142045454545446,1348.5,51.48863636363635C1350.9166666666667,50.83522727272726,1353.3333333333333,50.18181818181817,1355.75,49.528409090909086C1358.1666666666667,48.875,1360.5833333333333,48.221590909090914,1363,47.56818181818183C1365.4166666666667,46.91477272727274,1367.8333333333333,46.26136363636364,1370.25,45.60795454545455C1372.6666666666667,44.95454545454545,1375.0833333333333,44.30113636363635,1377.5,43.647727272727266C1379.9166666666667,42.99431818181818,1382.3333333333333,42.34090909090909,1384.75,41.68750000000001C1387.1666666666667,41.03409090909092,1389.5833333333333,40.38068181818182,1392,39.72727272727273C1394.4166666666667,39.07386363636363,1396.8333333333333,38.42045454545455,1399.25,37.76704545454545C1401.6666666666667,37.11363636363636,1404.0833333333333,36.46022727272728,1406.5,35.80681818181819C1408.9166666666667,35.15340909090909,1411.3333333333333,34.5,1413.75,33.84659090909091C1416.1666666666667,33.19318181818181,1418.5833333333333,32.53977272727272,1421,31.88636363636363C1423.4166666666667,31.23295454545454,1425.8333333333333,30.579545454545457,1428.25,29.926136363636367C1430.6666666666667,29.272727272727277,1433.0833333333333,28.61931818181818,1435.5,27.96590909090909C1437.9166666666667,27.3125,1440.3333333333333,26.659090909090914,1442.75,26.005681818181824C1445.1666666666667,25.352272727272734,1447.5833333333333,24.69886363636364,1450,24.045454545454547" fill="transparent" stroke-linecap="round" stroke="#E7C6DF" stroke-width="2"></path><g class="visx-group visx-axis visx-axis-bottom" transform="translate(0, 115)"><g class="visx-group visx-axis-tick" transform="translate(0, 0)"><line class="visx-line" x1="0" y1="0" x2="0" y2="8" fill="transparent" shape-rendering="crispEdges" stroke="#000" stroke-width="0" stroke-linecap="square"></line><svg x="0" y="0" font-size="10" style="overflow:visible"><text transform="" x="0" y="18" fill="#000" font-size="10" text-anchor="middle"><tspan x="0" dy="0em">0%</tspan></text></svg></g><g class="visx-group visx-axis-tick" transform="translate(0, 0)"><line class="visx-line" x1="362.5" y1="0" x2="362.5" y2="8" fill="transparent" shape-rendering="crispEdges" stroke="#000" stroke-width="0" stroke-linecap="square"></line><svg x="0" y="0" font-size="10" style="overflow:visible"><text transform="" x="362.5" y="18" fill="#000" font-size="10" text-anchor="middle"><tspan x="362.5" dy="0em">25%</tspan></text></svg></g><g class="visx-group visx-axis-tick" transform="translate(0, 0)"><line class="visx-line" x1="725" y1="0" x2="725" y2="8" fill="transparent" shape-rendering="crispEdges" stroke="#000" stroke-width="0" stroke-linecap="square"></line><svg x="0" y="0" font-size="10" style="overflow:visible"><text transform="" x="725" y="18" fill="#000" font-size="10" text-anchor="middle"><tspan x="725" dy="0em">50%</tspan></text></svg></g><g class="visx-group visx-axis-tick" transform="translate(0, 0)"><line class="visx-line" x1="1087.5" y1="0" x2="1087.5" y2="8" fill="transparent" shape-rendering="crispEdges" stroke="#000" stroke-width="0" stroke-linecap="square"></line><svg x="0" y="0" font-size="10" style="overflow:visible"><text transform="" x="1087.5" y="18" fill="#000" font-size="10" text-anchor="middle"><tspan x="1087.5" dy="0em">75%</tspan></text></svg></g><g class="visx-group visx-axis-tick" transform="translate(0, 0)"><line class="visx-line" x1="1450" y1="0" x2="1450" y2="8" fill="transparent" shape-rendering="crispEdges" stroke="#000" stroke-width="0" stroke-linecap="square"></line><svg x="0" y="0" font-size="10" style="overflow:visible"><text transform="" x="1450" y="18" fill="#000" font-size="10" text-anchor="middle"><tspan x="1450" dy="0em">100%</tspan></text></svg></g><line class="visx-line visx-axis-line" x1="0.5" y1="0" x2="1450.5" y2="0" fill="transparent" shape-rendering="crispEdges" stroke="#222" stroke-width="0"></line></g><g class="visx-group visx-axis visx-axis-left" transform="translate(0, 0)"><g class="visx-group visx-axis-tick" transform="translate(0, 0)"><line class="visx-line" x1="0" y1="115" x2="-8" y2="115" fill="transparent" shape-rendering="crispEdges" stroke="#222" stroke-width="0" stroke-linecap="square"></line><svg x="-30" y="0" font-size="8" style="overflow:visible"><text transform="" x="-8" y="115" fill="#000" font-size="8" text-anchor="start"><tspan x="-8" dy="0em">0%</tspan></text></svg></g><g class="visx-group visx-axis-tick" transform="translate(0, 0)"><line class="visx-line" x1="0" y1="62.72727272727272" x2="-8" y2="62.72727272727272" fill="transparent" shape-rendering="crispEdges" stroke="#222" stroke-width="0" stroke-linecap="square"></line><svg x="-30" y="0" font-size="8" style="overflow:visible"><text transform="" x="-8" y="62.72727272727272" fill="#000" font-size="8" text-anchor="start"><tspan x="-8" dy="0em">50%</tspan></text></svg></g><g class="visx-group visx-axis-tick" transform="translate(0, 0)"><line class="visx-line" x1="0" y1="10.454545454545459" x2="-8" y2="10.454545454545459" fill="transparent" shape-rendering="crispEdges" stroke="#222" stroke-width="0" stroke-linecap="square"></line><svg x="-30" y="0" font-size="8" style="overflow:visible"><text transform="" x="-8" y="10.454545454545459" fill="#000" font-size="8" text-anchor="start"><tspan x="-8" dy="0em">100%</tspan></text></svg></g><line class="visx-line visx-axis-line" x1="0" y1="115.5" x2="0" y2="0.5" fill="transparent" shape-rendering="crispEdges" stroke="#222" stroke-width="0"></line></g><rect class="visx-bar" width="1450" height="115" fill="transparent"></rect><line class="visx-line" x1="1160" y1="28" x2="1160" y2="115" fill="transparent" shape-rendering="crispEdges" stroke="#0062D2" stroke-width="1" pointer-events="none" stroke-dasharray="5,2"></line><svg x="0" y="0" font-size="10px" style="overflow:visible"><text transform="" x="1160" y="20" font-size="10px" fill="#fff" stroke="#fff" stroke-width="0.8em" text-anchor="middle"><tspan x="1160" dy="0.355em">Optimal 80%</tspan></text></svg><svg x="0" y="0" font-size="10px" style="overflow:visible"><text transform="" x="1160" y="20" font-size="10px" fill="#62677B" text-anchor="middle"><tspan x="1160" dy="0.355em">Optimal 80%</tspan></text></svg></g></svg>