<?xml version="1.0"?><svg xmlns="http://www.w3.org/2000/svg" xmlns:xlink= "http://www.w3.org/1999/xlink" style="background: white;" width="1500" height="300"> <g style="color: black; font-size: 13px; font-family: sans-serif; transform: translate(18px, 25px);"><g><circle r="3" cx="-6" cy="-5" style="fill: #1AD4B3" /><text>Borrow APR, variable</text></g><g style="transform: translateX(150px);"><circle r="3" cx="-6" cy="-5" style="fill: #101423" /><text>Borrow APR, stable</text></g></g><g class="visx-group" transform="translate(45, 50)"><g class="visx-group visx-rows" transform="translate(0, 0)"><line class="visx-line" x1="0" y1="155" x2="1425" y2="155" fill="transparent" shape-rendering="crispEdges" stroke="#F2F0F9" stroke-width="1" pointer-events="none"></line><line class="visx-line" x1="0" y1="106.5625" x2="1425" y2="106.5625" fill="transparent" shape-rendering="crispEdges" stroke="#F2F0F9" stroke-width="1" pointer-events="none"></line><line class="visx-line" x1="0" y1="58.125" x2="1425" y2="58.125" fill="transparent" shape-rendering="crispEdges" stroke="#F2F0F9" stroke-width="1" pointer-events="none"></line><line class="visx-line" x1="0" y1="9.6875" x2="1425" y2="9.6875" fill="transparent" shape-rendering="crispEdges" stroke="#F2F0F9" stroke-width="1" pointer-events="none"></line></g><path class="visx-linepath" d="M0,154.99999999987733C2.375,154.97955560057778,4.75,154.95911120127826,7.125,154.93866680194805C9.5,154.91822240261783,11.875,154.89777800324674,14.25,154.8773336038961C16.625,154.85688920454544,19,154.83644480519482,21.375,154.81600040584416C23.75,154.7955560064935,26.125,154.77511160714286,28.5,154.7546672077922C30.875,154.73422280844156,33.25,154.7137784090909,35.625,154.69333400974025C38,154.6728896103896,40.375,154.65244521103895,42.75,154.6320008116883C45.125,154.61155641233765,47.50000000000001,154.591112012987,49.87500000000001,154.57066761363635C52.25000000000001,154.5502232142857,54.625,154.52977881493507,57,154.50933441558442C59.375,154.48889001623377,61.75,154.46844561688312,64.125,154.44800121753246C66.5,154.4275568181818,68.875,154.40711241883116,71.25,154.3866680194805C73.625,154.36622362012986,76,154.3457792207792,78.375,154.32533482142856C80.75,154.3048904220779,83.125,154.28444602272728,85.5,154.26400162337663C87.875,154.24355722402598,90.25,154.22311282467533,92.625,154.20266842532467C95,154.18222402597402,97.37500000000001,154.1617796266234,99.75000000000001,154.14133522727275C102.12500000000001,154.1208908279221,104.5,154.10044642857144,106.875,154.0800020292208C109.25,154.05955762987014,111.625,154.0391132305195,114,154.01866883116884C116.375,153.9982244318182,118.75000000000001,153.97778003246754,121.12500000000001,153.95733563311688C123.50000000000001,153.93689123376623,125.875,153.91644683441558,128.25,153.89600243506493C130.625,153.87555803571428,133,153.85511363636365,135.375,153.834669237013C137.75,153.81422483766235,140.125,153.7937804383117,142.5,153.77333603896105C144.875,153.7528916396104,147.25,153.73244724025975,149.625,153.7120028409091C152,153.69155844155844,154.375,153.6711140422078,156.75,153.65066964285714C159.125,153.6302252435065,161.5,153.60978084415584,163.875,153.58933644480518C166.25,153.56889204545453,168.625,153.5484476461039,171,153.52800324675326C173.375,153.5075588474026,175.75,153.48711444805195,178.125,153.4666700487013C180.5,153.44622564935065,182.875,153.42578125,185.25,153.40533685064935C187.625,153.3848924512987,190,153.36444805194805,192.375,153.3440036525974C194.75,153.32355925324674,197.12500000000003,153.3031148538961,199.50000000000003,153.28267045454544C201.875,153.2622260551948,204.25,153.24178165584416,206.62499999999997,153.2213372564935C208.99999999999997,153.20089285714286,211.375,153.1804484577922,213.75,153.16000405844156C216.125,153.1395596590909,218.5,153.11911525974025,220.875,153.0986708603896C223.25,153.07822646103895,225.625,153.0577820616883,228,153.03733766233765C230.375,153.016893262987,232.75,152.99644886363635,235.125,152.9760044642857C237.5,152.95556006493504,239.87500000000003,152.93511566558442,242.25000000000003,152.91467126623377C244.625,152.89422686688312,247,152.87378246753246,249.37499999999997,152.8533380681818C251.74999999999997,152.83289366883116,254.125,152.81244926948054,256.5,152.7920048701299C258.875,152.77156047077924,261.25,152.75111607142858,263.625,152.73067167207793C266,152.71022727272728,268.375,152.68978287337663,270.75,152.66933847402598C273.125,152.64889407467533,275.5,152.62844967532467,277.875,152.60800527597402C280.25,152.58756087662337,282.625,152.56711647727272,285,152.54667207792207C287.375,152.52622767857142,289.75,152.5057832792208,292.125,152.48533887987014C294.5,152.4648944805195,296.875,152.44445008116884,299.25,152.4240056818182C301.625,152.40356128246754,304,152.38311688311688,306.375,152.36267248376623C308.75,152.34222808441558,311.125,152.32178368506493,313.5,152.30133928571428C315.875,152.28089488636363,318.25,152.260450487013,320.625,152.24000608766235C323,152.2195616883117,325.375,152.19911728896105,327.75,152.1786728896104C330.125,152.15822849025975,332.5,152.1377840909091,334.875,152.11733969155844C337.25,152.0968952922078,339.625,152.07645089285714,342,152.0560064935065C344.375,152.03556209415584,346.75,152.01511769480518,349.125,151.99467329545453C351.5,151.97422889610388,353.875,151.95378449675326,356.25,151.9333400974026C358.625,151.91289569805195,361,151.8924512987013,363.375,151.87200689935065C365.75,151.8515625,368.125,151.83111810064935,370.5,151.8106737012987C372.875,151.79022930194805,375.25,151.7697849025974,377.625,151.74934050324674C380,151.7288961038961,382.375,151.70845170454544,384.75,151.6880073051948C387.125,151.66756290584414,389.50000000000006,151.6471185064935,391.87500000000006,151.62667410714286C394.25000000000006,151.6062297077922,396.62500000000006,151.58578530844156,399.00000000000006,151.5653409090909C401.375,151.54489650974025,403.75,151.52445211038963,406.12499999999994,151.50400771103898C408.49999999999994,151.48356331168833,410.87499999999994,151.46311891233768,413.24999999999994,151.44267451298703C415.62499999999994,151.42223011363637,418,151.40178571428572,420.375,151.38134131493507C422.75,151.36089691558442,425.125,151.34045251623377,427.5,151.32000811688312C429.875,151.29956371753246,432.25,151.2791193181818,434.625,151.25867491883116C437,151.2382305194805,439.375,151.2177861201299,441.75,151.19734172077924C444.125,151.17689732142858,446.5,151.15645292207793,448.875,151.13600852272728C451.25,151.11556412337663,453.625,151.09511972402598,456,151.07467532467533C458.375,151.05423092532467,460.75,151.03378652597402,463.125,151.01334212662337C465.5,150.99289772727272,467.875,150.97245332792207,470.25,150.95200892857142C472.625,150.93156452922076,475.00000000000006,150.91112012987014,477.37500000000006,150.8906757305195C479.75000000000006,150.87023133116884,482.12500000000006,150.8497869318182,484.50000000000006,150.82934253246754C486.875,150.80889813311688,489.25,150.78845373376623,491.62499999999994,150.76800933441558C493.99999999999994,150.74756493506493,496.37499999999994,150.72712053571428,498.74999999999994,150.70667613636363C501.12499999999994,150.68623173701297,503.5,150.66578733766235,505.875,150.6453429383117C508.25,150.62489853896105,510.625,150.6044541396104,513,150.58400974025975C515.375,150.5635653409091,517.75,150.54312094155844,520.125,150.5226765422078C522.5,150.50223214285714,524.875,150.4817877435065,527.25,150.46134334415584C529.625,150.44089894480518,532,150.42045454545453,534.375,150.40001014610388C536.75,150.37956574675323,539.125,150.3591213474026,541.5,150.33867694805195C543.875,150.3182325487013,546.25,150.29778814935065,548.625,150.27734375C551,150.25689935064935,553.375,150.2364549512987,555.75,150.21601055194805C558.125,150.1955661525974,560.5,150.17512175324674,562.875,150.1546773538961C565.25,150.13423295454544,567.625,150.11378855519482,570,150.09334415584416C572.375,150.0728997564935,574.75,150.05245535714286,577.125,150.0320109577922C579.5,150.01156655844156,581.875,149.9911221590909,584.25,149.97067775974025C586.625,149.9502333603896,589,149.92978896103898,591.375,149.90934456168833C593.75,149.88890016233768,596.125,149.86845576298703,598.5,149.84801136363637C600.875,149.82756696428572,603.25,149.80712256493507,605.625,149.78667816558442C608,149.76623376623377,610.375,149.74578936688312,612.75,149.72534496753246C615.125,149.7049005681818,617.5,149.68445616883116,619.875,149.6640117694805C622.25,149.64356737012986,624.625,149.62312297077924,627,149.60267857142858C629.375,149.58223417207793,631.75,149.56178977272728,634.125,149.54134537337663C636.5,149.52090097402598,638.875,149.50045657467533,641.25,149.48001217532467C643.625,149.45956777597402,646,149.43912337662337,648.375,149.41867897727272C650.75,149.39823457792207,653.125,149.37779017857142,655.5,149.35734577922076C657.875,149.3369013798701,660.25,149.3164569805195,662.625,149.29601258116884C665,149.2755681818182,667.375,149.25512378246754,669.75,149.23467938311688C672.125,149.21423498376623,674.5,149.19379058441558,676.875,149.17334618506493C679.25,149.15290178571428,681.625,149.13245738636363,684,149.11201298701297C686.375,149.09156858766232,688.75,149.0711241883117,691.125,149.05067978896105C693.5,149.0302353896104,695.875,149.00979099025975,698.25,148.9893465909091C700.625,148.96890219155844,703,148.9484577922078,705.375,148.92801339285714C707.75,148.9075689935065,710.125,148.88712459415584,712.5,148.86668019480518C714.875,148.84623579545453,717.25,148.82579139610388,719.625,148.80534699675323C722,148.78490259740258,724.375,148.76445819805195,726.75,148.7440137987013C729.125,148.72356939935065,731.5,148.703125,733.875,148.68268060064935C736.25,148.6622362012987,738.625,148.64179180194807,741,148.62134740259742C743.375,148.60090300324677,745.75,148.58045860389612,748.125,148.56001420454547C750.5,148.53956980519482,752.875,148.51912540584416,755.25,148.4986810064935C757.625,148.47823660714286,760,148.4577922077922,762.375,148.43734780844156C764.75,148.4169034090909,767.125,148.39645900974025,769.5,148.3760146103896C771.875,148.35557021103895,774.2500000000001,148.33512581168833,776.6250000000001,148.31468141233768C779.0000000000001,148.29423701298703,781.3750000000001,148.27379261363637,783.7500000000001,148.25334821428572C786.1250000000001,148.23290381493507,788.5000000000001,148.21245941558442,790.8750000000001,148.19201501623377C793.2500000000001,148.17157061688312,795.6250000000001,148.15112621753246,798.0000000000001,148.1306818181818C800.375,148.11023741883116,802.75,148.0897930194805,805.1249999999999,148.06934862012986C807.4999999999999,148.0489042207792,809.8749999999999,148.02845982142858,812.2499999999999,148.00801542207793C814.6249999999999,147.98757102272728,816.9999999999999,147.96712662337663,819.3749999999999,147.94668222402598C821.7499999999999,147.92623782467533,824.1249999999999,147.90579342532467,826.4999999999999,147.88534902597402C828.8749999999999,147.86490462662337,831.25,147.84446022727272,833.625,147.82401582792207C836,147.80357142857142,838.375,147.78312702922076,840.75,147.7626826298701C843.125,147.74223823051946,845.5,147.72179383116884,847.875,147.7013494318182C850.25,147.68090503246754,852.625,147.66046063311688,855,147.64001623376623C857.375,147.61957183441558,859.75,147.59912743506493,862.125,147.57868303571428C864.5,147.55823863636363,866.875,147.53779423701297,869.25,147.51734983766232C871.625,147.49690543831167,874,147.47646103896102,876.375,147.45601663961037C878.75,147.43557224025972,881.125,147.4151278409091,883.5,147.39468344155844C885.875,147.3742390422078,888.25,147.35379464285717,890.625,147.33335024350652C893,147.31290584415586,895.375,147.2924614448052,897.75,147.27201704545456C900.125,147.2515726461039,902.5,147.23112824675326,904.875,147.2106838474026C907.25,147.19023944805195,909.625,147.1697950487013,912,147.14935064935065C914.375,147.12890625,916.75,147.10846185064935,919.125,147.0880174512987C921.5,147.06757305194805,923.875,147.04712865259742,926.25,147.02668425324677C928.625,147.00623985389612,931,146.98579545454547,933.375,146.96535105519482C935.75,146.94490665584416,938.125,146.9244622564935,940.5,146.90401785714286C942.875,146.8835734577922,945.25,146.86312905844156,947.625,146.8426846590909C950,146.82224025974025,952.3750000000001,146.8017958603896,954.7500000000001,146.78135146103895C957.1250000000001,146.7609070616883,959.5000000000001,146.74046266233768,961.8750000000001,146.72001826298703C964.2500000000001,146.69957386363637,966.6250000000001,146.67912946428572,969.0000000000001,146.65868506493507C971.3750000000001,146.63824066558442,973.7500000000001,146.61779626623377,976.1250000000001,146.59735186688312C978.5,146.57690746753246,980.875,146.5564630681818,983.2499999999999,146.53601866883116C985.6249999999999,146.5155742694805,987.9999999999999,146.49512987012986,990.3749999999999,146.4746854707792C992.7499999999999,146.45424107142856,995.1249999999999,146.43379667207793,997.4999999999999,146.41335227272728C999.8749999999999,146.39290787337663,1002.2499999999999,146.37246347402598,1004.6249999999999,146.35201907467533C1006.9999999999999,146.33157467532467,1009.375,146.31113027597402,1011.75,146.29068587662337C1014.125,146.27024147727272,1016.5,146.24979707792207,1018.875,146.22935267857142C1021.25,146.20890827922076,1023.625,146.1884638798701,1026,146.16801948051946C1028.375,146.1475750811688,1030.75,146.1271306818182,1033.125,146.10668628246754C1035.5,146.08624188311688,1037.875,146.06579748376623,1040.25,146.04535308441558C1042.625,146.02490868506493,1045,146.0044642857143,1047.375,145.98401988636365C1049.75,145.963575487013,1052.125,145.94313108766232,1054.5,145.92268668831167C1056.875,145.90224228896102,1059.25,145.8817978896104,1061.625,145.86135349025975C1064,145.8409090909091,1066.375,145.82046469155844,1068.75,145.8000202922078C1071.125,145.77957589285714,1073.5,145.75913149350652,1075.875,145.73868709415586C1078.25,145.7182426948052,1080.625,145.69779829545456,1083,145.6773538961039C1085.375,145.65690949675326,1087.75,145.6364650974026,1090.125,145.61602069805195C1092.5,145.5955762987013,1094.875,145.5955762987013,1097.25,145.5546875C1099.625,145.5137987012987,1102,143.67334692028984,1104.375,142.73267663043478C1106.75,141.79200634057972,1109.125,140.85133605072463,1111.5,139.91066576086956C1113.875,138.9699954710145,1116.25,138.0293251811594,1118.625,137.08865489130434C1121,136.14798460144928,1123.375,135.2073143115942,1125.75,134.26664402173913C1128.125,133.32597373188406,1130.5,132.38530344202897,1132.875,131.4446331521739C1135.25,130.50396286231884,1137.625,129.56329257246375,1140,128.6226222826087C1142.375,127.68195199275362,1144.75,126.74128170289856,1147.125,125.80061141304348C1149.5,124.8599411231884,1151.875,123.91927083333333,1154.25,122.97860054347825C1156.625,122.03793025362317,1159,121.09725996376812,1161.375,120.15658967391305C1163.75,119.21591938405797,1166.125,118.2752490942029,1168.5,117.33457880434783C1170.875,116.39390851449275,1173.25,115.45323822463769,1175.625,114.51256793478261C1178,113.57189764492753,1180.375,112.63122735507247,1182.75,111.69055706521739C1185.125,110.74988677536231,1187.5,109.80921648550726,1189.875,108.86854619565219C1192.25,107.92787590579711,1194.625,106.98720561594203,1197,106.04653532608695C1199.375,105.10586503623188,1201.75,104.16519474637681,1204.125,103.22452445652173C1206.5,102.28385416666666,1208.875,101.3431838768116,1211.25,100.40251358695652C1213.625,99.46184329710144,1216,98.52117300724638,1218.375,97.5805027173913C1220.75,96.63983242753622,1223.125,95.69916213768116,1225.5,94.7584918478261C1227.875,93.81782155797103,1230.25,92.87715126811595,1232.625,91.93648097826087C1235,90.9958106884058,1237.375,90.05514039855072,1239.75,89.11447010869564C1242.125,88.17379981884056,1244.5,87.2331295289855,1246.875,86.29245923913044C1249.25,85.35178894927537,1251.625,84.4111186594203,1254,83.47044836956522C1256.375,82.52977807971014,1258.75,81.58910778985506,1261.125,80.6484375C1263.5,79.70776721014494,1265.875,78.76709692028987,1268.25,77.8264266304348C1270.625,76.88575634057972,1273,75.94508605072463,1275.375,75.00441576086955C1277.75,74.06374547101447,1280.125,73.12307518115941,1282.5,72.18240489130434C1284.875,71.24173460144928,1287.25,70.30106431159419,1289.625,69.36039402173913C1292,68.41972373188406,1294.375,67.479053442029,1296.75,66.53838315217392C1299.125,65.59771286231884,1301.5,64.65704257246377,1303.875,63.71637228260869C1306.25,62.77570199275362,1308.625,61.83503170289856,1311,60.89436141304349C1313.375,59.95369112318842,1315.75,59.01302083333334,1318.125,58.072350543478265C1320.5,57.13168025362319,1322.875,56.1910099637681,1325.25,55.25033967391303C1327.625,54.30966938405796,1330,53.36899909420291,1332.375,52.42832880434784C1334.75,51.48765851449277,1337.125,50.54698822463769,1339.5,49.60631793478261C1341.875,48.66564764492753,1344.25,47.72497735507247,1346.625,46.7843070652174C1349,45.84363677536233,1351.375,44.90296648550726,1353.75,43.962296195652186C1356.125,43.021625905797116,1358.5,42.08095561594205,1360.875,41.140285326086975C1363.25,40.1996150362319,1365.625,39.258944746376805,1368,38.31827445652173C1370.375,37.37760416666665,1372.75,36.43693387681159,1375.125,35.496263586956516C1377.5,34.555593297101446,1379.875,33.61492300724636,1382.25,32.67425271739129C1384.625,31.733582427536216,1387,30.792912137681146,1389.375,29.852241847826075C1391.75,28.911571557971005,1394.125,27.970901268115938,1396.5,27.030230978260864C1398.875,26.08956068840579,1401.25,25.148890398550705,1403.625,24.208220108695635C1406,23.267549818840564,1408.375,22.326879528985508,1410.75,21.38620923913044C1413.125,20.445538949275374,1415.5,19.504868659420303,1417.875,18.56419836956523C1420.25,17.623528079710155,1422.625,16.682857789855078,1425,15.7421875" fill="transparent" stroke-linecap="round" stroke="#1AD4B3" stroke-width="2"></path><g class="visx-group visx-axis visx-axis-bottom" transform="translate(0, 155)"><g class="visx-group visx-axis-tick" transform="translate(0, 0)"><line class="visx-line" x1="0" y1="0" x2="0" y2="8" fill="transparent" shape-rendering="crispEdges" stroke="#F2F0F9" stroke-width="1" stroke-linecap="square"></line><svg x="0" y="0" font-size="11" style="overflow:visible"><text transform="" x="0" y="19" fill="#1B2030" font-size="11" text-anchor="middle"><tspan x="0" dy="0em">0%</tspan></text></svg></g><g class="visx-group visx-axis-tick" transform="translate(0, 0)"><line class="visx-line" x1="356.25" y1="0" x2="356.25" y2="8" fill="transparent" shape-rendering="crispEdges" stroke="#F2F0F9" stroke-width="1" stroke-linecap="square"></line><svg x="0" y="0" font-size="11" style="overflow:visible"><text transform="" x="356.25" y="19" fill="#1B2030" font-size="11" text-anchor="middle"><tspan x="356.25" dy="0em">25%</tspan></text></svg></g><g class="visx-group visx-axis-tick" transform="translate(0, 0)"><line class="visx-line" x1="712.5" y1="0" x2="712.5" y2="8" fill="transparent" shape-rendering="crispEdges" stroke="#F2F0F9" stroke-width="1" stroke-linecap="square"></line><svg x="0" y="0" font-size="11" style="overflow:visible"><text transform="" x="712.5" y="19" fill="#1B2030" font-size="11" text-anchor="middle"><tspan x="712.5" dy="0em">50%</tspan></text></svg></g><g class="visx-group visx-axis-tick" transform="translate(0, 0)"><line class="visx-line" x1="1068.75" y1="0" x2="1068.75" y2="8" fill="transparent" shape-rendering="crispEdges" stroke="#F2F0F9" stroke-width="1" stroke-linecap="square"></line><svg x="0" y="0" font-size="11" style="overflow:visible"><text transform="" x="1068.75" y="19" fill="#1B2030" font-size="11" text-anchor="middle"><tspan x="1068.75" dy="0em">75%</tspan></text></svg></g><g class="visx-group visx-axis-tick" transform="translate(0, 0)"><line class="visx-line" x1="1425" y1="0" x2="1425" y2="8" fill="transparent" shape-rendering="crispEdges" stroke="#F2F0F9" stroke-width="1" stroke-linecap="square"></line><svg x="0" y="0" font-size="11" style="overflow:visible"><text transform="" x="1425" y="19" fill="#1B2030" font-size="11" text-anchor="middle"><tspan x="1425" dy="0em">100%</tspan></text></svg></g></g><g class="visx-group visx-axis visx-axis-left" transform="translate(0, 0)"><g class="visx-group visx-axis-tick" transform="translate(0, 0)"><line class="visx-line" x1="0" y1="155" x2="-8" y2="155" fill="transparent" shape-rendering="crispEdges" stroke="#F2F0F9" stroke-width="1" stroke-linecap="square"></line><svg x="-30" y="0" font-size="11" style="overflow:visible"><text transform="" x="-8" y="155" fill="#1B2030" font-size="11" text-anchor="start"><tspan x="-8" dy="0em">0%</tspan></text></svg></g><g class="visx-group visx-axis-tick" transform="translate(0, 0)"><line class="visx-line" x1="0" y1="106.5625" x2="-8" y2="106.5625" fill="transparent" shape-rendering="crispEdges" stroke="#F2F0F9" stroke-width="1" stroke-linecap="square"></line><svg x="-30" y="0" font-size="11" style="overflow:visible"><text transform="" x="-8" y="106.5625" fill="#1B2030" font-size="11" text-anchor="start"><tspan x="-8" dy="0em">50%</tspan></text></svg></g><g class="visx-group visx-axis-tick" transform="translate(0, 0)"><line class="visx-line" x1="0" y1="58.125" x2="-8" y2="58.125" fill="transparent" shape-rendering="crispEdges" stroke="#F2F0F9" stroke-width="1" stroke-linecap="square"></line><svg x="-30" y="0" font-size="11" style="overflow:visible"><text transform="" x="-8" y="58.125" fill="#1B2030" font-size="11" text-anchor="start"><tspan x="-8" dy="0em">100%</tspan></text></svg></g><g class="visx-group visx-axis-tick" transform="translate(0, 0)"><line class="visx-line" x1="0" y1="9.6875" x2="-8" y2="9.6875" fill="transparent" shape-rendering="crispEdges" stroke="#F2F0F9" stroke-width="1" stroke-linecap="square"></line><svg x="-30" y="0" font-size="11" style="overflow:visible"><text transform="" x="-8" y="9.6875" fill="#1B2030" font-size="11" text-anchor="start"><tspan x="-8" dy="0em">150%</tspan></text></svg></g><line class="visx-line visx-axis-line" x1="0" y1="155.5" x2="0" y2="0.5" fill="transparent" shape-rendering="crispEdges" stroke="#F2F0F9" stroke-width="1"></line></g><rect class="visx-bar" width="1425" height="155" fill="transparent"></rect><line class="visx-line" x1="1097.25" y1="58" x2="1097.25" y2="155" fill="transparent" shape-rendering="crispEdges" stroke="#CDC8E1" stroke-width="1" pointer-events="none" stroke-dasharray="5"></line><svg x="0" y="0" font-size="11px" style="overflow:visible"><text transform="" x="1097.25" y="50" font-size="11px" fill="#555069" stroke="#FFFFFF" stroke-width="1px" text-anchor="middle"><tspan x="1097.25" dy="0.355em">uOptimal 77%</tspan></text></svg><svg x="0" y="0" font-size="11px" style="overflow:visible"><text transform="" x="1097.25" y="50" font-size="11px" fill="#CDC8E1" text-anchor="middle"><tspan x="1097.25" dy="0.355em">uOptimal 77%</tspan></text></svg></g></svg>