<?xml version="1.0"?><svg xmlns="http://www.w3.org/2000/svg" xmlns:xlink= "http://www.w3.org/1999/xlink" style="background: white;" width="1500" height="185"> <g style="color: black; font-size: 13px; font-family: sans-serif; transform: translate(18px, 25px);"><g><circle r="3" cx="-6" cy="-5" style="fill: #B6509E" /><text>Borrow APR, variable</text></g><g style="transform: translateX(150px);"><circle r="3" cx="-6" cy="-5" style="fill: rgb(231, 198, 223)" /><text>Borrow APR, stable</text></g><g style="transform: translateX(290px);"><circle r="3" cx="-6" cy="-5" style="fill: rgb(0, 98, 210)" /><text>Utilization Rate</text></g></g><g class="visx-group" transform="translate(40, 50)"><g class="visx-group visx-rows" transform="translate(0, 0)"><line class="visx-line" x1="0" y1="115" x2="1450" y2="115" fill="transparent" shape-rendering="crispEdges" stroke="#000" stroke-width="1" stroke-dasharray="3,3" pointer-events="none"></line><line class="visx-line" x1="0" y1="57.5" x2="1450" y2="57.5" fill="transparent" shape-rendering="crispEdges" stroke="#000" stroke-width="1" stroke-dasharray="3,3" pointer-events="none"></line><line class="visx-line" x1="0" y1="0" x2="1450" y2="0" fill="transparent" shape-rendering="crispEdges" stroke="#000" stroke-width="1" stroke-dasharray="3,3" pointer-events="none"></line></g><path class="visx-linepath" d="M0,114.99999999992333C2.4166666666666665,114.98722222217751,4.833333333333334,114.97444444443167,7.25,114.96166666666667C9.666666666666666,114.94888888890168,12.083333333333334,114.9361111111111,14.5,114.92333333333333C16.916666666666668,114.91055555555556,19.333333333333332,114.89777777777778,21.75,114.885C24.166666666666668,114.87222222222223,26.583333333333332,114.85944444444445,29,114.84666666666666C31.416666666666668,114.83388888888888,33.833333333333336,114.8211111111111,36.25,114.80833333333332C38.666666666666664,114.79555555555555,41.083333333333336,114.78277777777777,43.5,114.77C45.91666666666667,114.75722222222223,48.333333333333336,114.74444444444445,50.75000000000001,114.73166666666667C53.16666666666667,114.7188888888889,55.583333333333336,114.7061111111111,58,114.69333333333333C60.416666666666664,114.68055555555554,62.833333333333336,114.66777777777777,65.25,114.655C67.66666666666667,114.64222222222223,70.08333333333333,114.62944444444445,72.5,114.61666666666667C74.91666666666667,114.6038888888889,77.33333333333333,114.5911111111111,79.75,114.57833333333333C82.16666666666667,114.56555555555556,84.58333333333333,114.55277777777778,87,114.54C89.41666666666667,114.52722222222224,91.83333333333333,114.51444444444445,94.25,114.50166666666667C96.66666666666667,114.48888888888888,99.08333333333334,114.47611111111111,101.50000000000001,114.46333333333332C103.91666666666667,114.45055555555555,106.33333333333334,114.43777777777777,108.75,114.425C111.16666666666667,114.41222222222223,113.58333333333333,114.39944444444444,116,114.38666666666667C118.41666666666667,114.37388888888889,120.83333333333334,114.36111111111111,123.25000000000001,114.34833333333333C125.66666666666667,114.33555555555556,128.08333333333334,114.32277777777777,130.5,114.31C132.91666666666666,114.29722222222223,135.33333333333334,114.28444444444445,137.75,114.27166666666668C140.16666666666666,114.2588888888889,142.58333333333334,114.24611111111112,145,114.23333333333333C147.41666666666666,114.22055555555555,149.83333333333334,114.20777777777776,152.25,114.195C154.66666666666666,114.18222222222222,157.08333333333334,114.16944444444444,159.5,114.15666666666667C161.91666666666666,114.1438888888889,164.33333333333334,114.1311111111111,166.75,114.11833333333333C169.16666666666666,114.10555555555555,171.58333333333334,114.09277777777777,174,114.08C176.41666666666666,114.06722222222223,178.83333333333334,114.05444444444444,181.25,114.04166666666667C183.66666666666666,114.0288888888889,186.08333333333334,114.0161111111111,188.5,114.00333333333333C190.91666666666666,113.99055555555556,193.33333333333334,113.97777777777777,195.75,113.965C198.16666666666669,113.95222222222223,200.58333333333334,113.93944444444446,203.00000000000003,113.92666666666668C205.41666666666669,113.91388888888889,207.83333333333331,113.9011111111111,210.24999999999997,113.88833333333332C212.66666666666666,113.87555555555554,215.08333333333331,113.86277777777777,217.5,113.85C219.91666666666666,113.83722222222222,222.33333333333334,113.82444444444444,224.75,113.81166666666667C227.16666666666666,113.7988888888889,229.58333333333334,113.7861111111111,232,113.77333333333333C234.41666666666666,113.76055555555556,236.83333333333334,113.74777777777777,239.25,113.735C241.66666666666669,113.72222222222223,244.08333333333334,113.70944444444446,246.50000000000003,113.69666666666667C248.91666666666669,113.6838888888889,251.33333333333331,113.6711111111111,253.74999999999997,113.65833333333333C256.16666666666663,113.64555555555555,258.5833333333333,113.63277777777779,261,113.62C263.4166666666667,113.60722222222223,265.8333333333333,113.59444444444445,268.25,113.58166666666666C270.6666666666667,113.56888888888888,273.0833333333333,113.5561111111111,275.5,113.54333333333332C277.9166666666667,113.53055555555555,280.3333333333333,113.51777777777777,282.75,113.505C285.1666666666667,113.49222222222222,287.5833333333333,113.47944444444444,290,113.46666666666667C292.4166666666667,113.4538888888889,294.8333333333333,113.4411111111111,297.25,113.42833333333333C299.6666666666667,113.41555555555556,302.0833333333333,113.40277777777777,304.5,113.39C306.9166666666667,113.37722222222223,309.3333333333333,113.36444444444444,311.75,113.35166666666667C314.1666666666667,113.3388888888889,316.5833333333333,113.32611111111112,319,113.31333333333333C321.4166666666667,113.30055555555555,323.8333333333333,113.28777777777776,326.25,113.27499999999999C328.6666666666667,113.26222222222222,331.0833333333333,113.24944444444444,333.5,113.23666666666666C335.9166666666667,113.2238888888889,338.3333333333333,113.2111111111111,340.75,113.19833333333332C343.1666666666667,113.18555555555555,345.5833333333333,113.17277777777777,348,113.16C350.4166666666667,113.14722222222223,352.8333333333333,113.13444444444444,355.25,113.12166666666667C357.6666666666667,113.1088888888889,360.0833333333333,113.0961111111111,362.5,113.08333333333333C364.9166666666667,113.07055555555556,367.3333333333333,113.05777777777777,369.75,113.045C372.1666666666667,113.03222222222223,374.5833333333333,113.01944444444445,377,113.00666666666667C379.4166666666667,112.9938888888889,381.8333333333333,112.98111111111112,384.25,112.96833333333333C386.6666666666667,112.95555555555555,389.0833333333333,112.94277777777776,391.5,112.92999999999999C393.9166666666667,112.91722222222221,396.33333333333337,112.90444444444445,398.75000000000006,112.89166666666667C401.16666666666674,112.8788888888889,403.58333333333337,112.86611111111111,406.00000000000006,112.85333333333332C408.4166666666667,112.84055555555555,410.8333333333333,112.82777777777777,413.24999999999994,112.815C415.66666666666663,112.80222222222223,418.08333333333326,112.78944444444444,420.49999999999994,112.77666666666667C422.91666666666663,112.76388888888889,425.3333333333333,112.75111111111111,427.75,112.73833333333333C430.1666666666667,112.72555555555556,432.5833333333333,112.71277777777777,435,112.7C437.4166666666667,112.68722222222223,439.8333333333333,112.67444444444443,442.25,112.66166666666666C444.6666666666667,112.64888888888889,447.0833333333333,112.6361111111111,449.5,112.62333333333333C451.9166666666667,112.61055555555556,454.3333333333333,112.59777777777776,456.75,112.585C459.1666666666667,112.57222222222222,461.5833333333333,112.55944444444444,464,112.54666666666667C466.4166666666667,112.5338888888889,468.8333333333333,112.5211111111111,471.25,112.50833333333333C473.6666666666667,112.49555555555555,476.0833333333333,112.48277777777777,478.5,112.47C480.9166666666667,112.45722222222223,483.33333333333337,112.44444444444444,485.75000000000006,112.43166666666667C488.16666666666674,112.4188888888889,490.58333333333337,112.40611111111113,493.00000000000006,112.39333333333335C495.4166666666667,112.38055555555557,497.8333333333333,112.36777777777779,500.24999999999994,112.355C502.66666666666663,112.34222222222222,505.08333333333326,112.32944444444443,507.49999999999994,112.31666666666666C509.91666666666663,112.30388888888888,512.3333333333333,112.29111111111112,514.75,112.27833333333334C517.1666666666666,112.26555555555557,519.5833333333334,112.25277777777777,522,112.24C524.4166666666666,112.22722222222222,526.8333333333334,112.21444444444444,529.25,112.20166666666667C531.6666666666666,112.1888888888889,534.0833333333334,112.17611111111111,536.5,112.16333333333334C538.9166666666666,112.15055555555557,541.3333333333334,112.13777777777777,543.75,112.125C546.1666666666666,112.11222222222223,548.5833333333334,112.09944444444444,551,112.08666666666667C553.4166666666666,112.0738888888889,555.8333333333334,112.06111111111113,558.25,112.04833333333335C560.6666666666666,112.03555555555556,563.0833333333334,112.02277777777778,565.5,112.00999999999999C567.9166666666666,111.9972222222222,570.3333333333334,111.98444444444443,572.75,111.97166666666666C575.1666666666666,111.9588888888889,577.5833333333334,111.94611111111111,580,111.93333333333334C582.4166666666666,111.92055555555557,584.8333333333334,111.90777777777777,587.25,111.895C589.6666666666666,111.88222222222223,592.0833333333334,111.86944444444444,594.5,111.85666666666667C596.9166666666666,111.8438888888889,599.3333333333334,111.83111111111111,601.75,111.81833333333334C604.1666666666666,111.80555555555557,606.5833333333334,111.79277777777777,609,111.78C611.4166666666666,111.76722222222223,613.8333333333334,111.75444444444445,616.25,111.74166666666667C618.6666666666666,111.7288888888889,621.0833333333334,111.71611111111112,623.5,111.70333333333333C625.9166666666666,111.69055555555555,628.3333333333334,111.67777777777776,630.75,111.66499999999999C633.1666666666666,111.65222222222222,635.5833333333334,111.63944444444444,638,111.62666666666667C640.4166666666666,111.6138888888889,642.8333333333334,111.60111111111111,645.25,111.58833333333334C647.6666666666666,111.57555555555557,650.0833333333334,111.56277777777777,652.5,111.55C654.9166666666666,111.53722222222223,657.3333333333334,111.52444444444444,659.75,111.51166666666667C662.1666666666666,111.4988888888889,664.5833333333334,111.48611111111111,667,111.47333333333334C669.4166666666666,111.46055555555557,671.8333333333334,111.44777777777779,674.25,111.435C676.6666666666666,111.42222222222222,679.0833333333334,111.40944444444443,681.5,111.39666666666666C683.9166666666666,111.38388888888889,686.3333333333334,111.3711111111111,688.75,111.35833333333333C691.1666666666666,111.34555555555556,693.5833333333334,111.33277777777776,696,111.32C698.4166666666666,111.30722222222222,700.8333333333334,111.29444444444444,703.25,111.28166666666667C705.6666666666666,111.2688888888889,708.0833333333334,111.25611111111111,710.5,111.24333333333334C712.9166666666666,111.23055555555557,715.3333333333334,111.21777777777777,717.75,111.205C720.1666666666666,111.19222222222223,722.5833333333334,111.17944444444444,725,111.16666666666667C727.4166666666666,111.1538888888889,729.8333333333334,111.14111111111112,732.25,111.12833333333334C734.6666666666666,111.11555555555557,737.0833333333334,111.10277777777779,739.5,111.09C741.9166666666666,111.07722222222222,744.3333333333334,111.06444444444443,746.75,111.05166666666666C749.1666666666666,111.03888888888889,751.5833333333334,111.0261111111111,754,111.01333333333334C756.4166666666666,111.00055555555556,758.8333333333334,110.98777777777777,761.25,110.975C763.6666666666666,110.96222222222222,766.0833333333334,110.94944444444444,768.5,110.93666666666667C770.9166666666666,110.9238888888889,773.3333333333334,110.91111111111111,775.75,110.89833333333334C778.1666666666666,110.88555555555557,780.5833333333334,110.87277777777777,783,110.86C785.4166666666667,110.84722222222221,787.8333333333334,110.83444444444446,790.2500000000001,110.82166666666667C792.6666666666667,110.8088888888889,795.0833333333335,110.79611111111112,797.5000000000001,110.78333333333333C799.9166666666667,110.77055555555555,802.3333333333335,110.75777777777776,804.7500000000001,110.74499999999999C807.1666666666667,110.73222222222222,809.5833333333335,110.71944444444443,812.0000000000001,110.70666666666666C814.4166666666667,110.69388888888889,816.8333333333333,110.68111111111111,819.2499999999999,110.66833333333334C821.6666666666665,110.65555555555555,824.0833333333333,110.64277777777777,826.4999999999999,110.63C828.9166666666665,110.61722222222222,831.3333333333333,110.60444444444444,833.7499999999999,110.59166666666667C836.1666666666665,110.5788888888889,838.5833333333333,110.56611111111111,840.9999999999999,110.55333333333334C843.4166666666666,110.54055555555556,845.8333333333333,110.52777777777779,848.25,110.515C850.6666666666666,110.50222222222223,853.0833333333334,110.48944444444444,855.5,110.47666666666667C857.9166666666666,110.4638888888889,860.3333333333334,110.45111111111112,862.75,110.43833333333333C865.1666666666666,110.42555555555555,867.5833333333334,110.41277777777776,870,110.39999999999999C872.4166666666666,110.38722222222222,874.8333333333334,110.37444444444444,877.25,110.36166666666666C879.6666666666666,110.3488888888889,882.0833333333334,110.33611111111111,884.5,110.32333333333334C886.9166666666666,110.31055555555557,889.3333333333334,110.29777777777777,891.75,110.285C894.1666666666666,110.27222222222223,896.5833333333334,110.25944444444444,899,110.24666666666667C901.4166666666666,110.2338888888889,903.8333333333334,110.22111111111111,906.25,110.20833333333334C908.6666666666666,110.19555555555557,911.0833333333334,110.18277777777779,913.5,110.17C915.9166666666666,110.15722222222222,918.3333333333334,110.14444444444443,920.75,110.13166666666666C923.1666666666666,110.11888888888889,925.5833333333334,110.1061111111111,928,110.09333333333333C930.4166666666666,110.08055555555556,932.8333333333334,110.06777777777776,935.25,110.05499999999999C937.6666666666666,110.04222222222222,940.0833333333334,110.02944444444444,942.5,110.01666666666667C944.9166666666666,110.0038888888889,947.3333333333334,109.99111111111111,949.75,109.97833333333334C952.1666666666666,109.96555555555557,954.5833333333334,109.95277777777777,957,109.94C959.4166666666666,109.92722222222223,961.8333333333334,109.91444444444444,964.25,109.90166666666667C966.6666666666667,109.8888888888889,969.0833333333334,109.87611111111113,971.5000000000001,109.86333333333334C973.9166666666667,109.85055555555556,976.3333333333335,109.83777777777777,978.7500000000001,109.82499999999999C981.1666666666667,109.8122222222222,983.5833333333335,109.79944444444443,986.0000000000001,109.78666666666666C988.4166666666667,109.77388888888889,990.8333333333335,109.76111111111112,993.2500000000001,109.74833333333333C995.6666666666667,109.73555555555556,998.0833333333333,109.72277777777776,1000.4999999999999,109.71C1002.9166666666665,109.69722222222221,1005.3333333333333,109.68444444444444,1007.7499999999999,109.67166666666667C1010.1666666666665,109.6588888888889,1012.5833333333333,109.64611111111111,1014.9999999999999,109.63333333333334C1017.4166666666665,109.62055555555557,1019.8333333333333,109.60777777777777,1022.2499999999999,109.595C1024.6666666666665,109.58222222222221,1027.0833333333333,109.56944444444446,1029.5,109.55666666666667C1031.9166666666667,109.5438888888889,1034.3333333333333,109.53111111111112,1036.75,109.51833333333333C1039.1666666666667,109.50555555555555,1041.5833333333333,109.49277777777776,1044,109.47999999999999C1046.4166666666667,109.46722222222222,1048.8333333333333,109.45444444444443,1051.25,109.44166666666666C1053.6666666666667,109.42888888888889,1056.0833333333333,109.4161111111111,1058.5,109.40333333333334C1060.9166666666667,109.39055555555557,1063.3333333333333,109.37777777777777,1065.75,109.365C1068.1666666666667,109.35222222222222,1070.5833333333333,109.33944444444444,1073,109.32666666666667C1075.4166666666667,109.3138888888889,1077.8333333333333,109.30111111111111,1080.25,109.28833333333334C1082.6666666666667,109.27555555555557,1085.0833333333333,109.26277777777779,1087.5,109.25C1089.9166666666667,109.23722222222221,1092.3333333333333,109.22444444444443,1094.75,109.21166666666666C1097.1666666666667,109.19888888888889,1099.5833333333333,109.1861111111111,1102,109.17333333333333C1104.4166666666667,109.16055555555556,1106.8333333333333,109.14777777777776,1109.25,109.13499999999999C1111.6666666666667,109.12222222222222,1114.0833333333333,109.10944444444443,1116.5,109.09666666666666C1118.9166666666667,109.0838888888889,1121.3333333333333,109.07111111111111,1123.75,109.05833333333334C1126.1666666666667,109.04555555555557,1128.5833333333333,109.03277777777777,1131,109.02C1133.4166666666667,109.00722222222223,1135.8333333333333,108.99444444444444,1138.25,108.98166666666667C1140.6666666666667,108.9688888888889,1143.0833333333333,108.95611111111111,1145.5,108.94333333333334C1147.9166666666667,108.93055555555557,1150.3333333333333,108.91777777777779,1152.75,108.905C1155.1666666666667,108.89222222222222,1157.5833333333333,108.87944444444443,1160,108.86666666666666C1162.4166666666667,108.85388888888889,1164.8333333333333,108.8411111111111,1167.25,108.82833333333333C1169.6666666666667,108.81555555555556,1172.0833333333333,108.80277777777776,1174.5,108.78999999999999C1176.9166666666667,108.77722222222222,1179.3333333333333,108.76444444444444,1181.75,108.75166666666667C1184.1666666666667,108.7388888888889,1186.5833333333333,108.72611111111111,1189,108.71333333333334C1191.4166666666667,108.70055555555557,1193.8333333333333,108.68777777777777,1196.25,108.675C1198.6666666666667,108.66222222222223,1201.0833333333333,108.64944444444444,1203.5,108.63666666666667C1205.9166666666667,108.6238888888889,1208.3333333333333,108.61111111111111,1210.75,108.59833333333333C1213.1666666666667,108.58555555555554,1215.5833333333333,108.57277777777776,1218,108.55999999999999C1220.4166666666667,108.54722222222222,1222.8333333333333,108.53444444444443,1225.25,108.52166666666666C1227.6666666666667,108.50888888888889,1230.0833333333333,108.4961111111111,1232.5,108.48333333333333C1234.9166666666667,108.47055555555556,1237.3333333333333,108.45777777777776,1239.75,108.445C1242.1666666666667,108.43222222222222,1244.5833333333333,108.41944444444444,1247,108.40666666666667C1249.4166666666667,108.3938888888889,1251.8333333333333,108.38111111111111,1254.25,108.36833333333334C1256.6666666666667,108.35555555555557,1259.0833333333333,108.34277777777777,1261.5,108.33C1263.9166666666667,108.31722222222223,1266.3333333333333,108.30444444444444,1268.75,108.29166666666667C1271.1666666666667,108.2788888888889,1273.5833333333333,108.2661111111111,1276,108.25333333333333C1278.4166666666667,108.24055555555556,1280.8333333333333,108.22777777777777,1283.25,108.215C1285.6666666666667,108.20222222222223,1288.0833333333333,108.18944444444443,1290.5,108.17666666666666C1292.9166666666667,108.16388888888889,1295.3333333333333,108.1511111111111,1297.75,108.13833333333334C1300.1666666666667,108.12555555555556,1302.5833333333333,108.12555555555555,1305,108.1C1307.4166666666667,108.07444444444444,1309.8333333333333,105.80000000000001,1312.25,104.65C1314.6666666666667,103.5,1317.0833333333333,102.35000000000001,1319.5,101.2C1321.9166666666667,100.05,1324.3333333333333,98.9,1326.75,97.75C1329.1666666666667,96.6,1331.5833333333333,95.45000000000002,1334,94.30000000000001C1336.4166666666667,93.15,1338.8333333333333,92.00000000000001,1341.25,90.85000000000001C1343.6666666666667,89.7,1346.0833333333333,88.55000000000001,1348.5,87.4C1350.9166666666667,86.25,1353.3333333333333,85.10000000000001,1355.75,83.95C1358.1666666666667,82.8,1360.5833333333333,81.65,1363,80.5C1365.4166666666667,79.35,1367.8333333333333,78.19999999999999,1370.25,77.05C1372.6666666666667,75.9,1375.0833333333333,74.75000000000001,1377.5,73.60000000000001C1379.9166666666667,72.45,1382.3333333333333,71.3,1384.75,70.14999999999999C1387.1666666666667,68.99999999999999,1389.5833333333333,67.85,1392,66.7C1394.4166666666667,65.55000000000001,1396.8333333333333,64.4,1399.25,63.25000000000001C1401.6666666666667,62.10000000000001,1404.0833333333333,60.95,1406.5,59.800000000000004C1408.9166666666667,58.650000000000006,1411.3333333333333,57.5,1413.75,56.35C1416.1666666666667,55.2,1418.5833333333333,54.05,1421,52.9C1423.4166666666667,51.75,1425.8333333333333,50.6,1428.25,49.45C1430.6666666666667,48.300000000000004,1433.0833333333333,47.15,1435.5,46C1437.9166666666667,44.85,1440.3333333333333,43.699999999999996,1442.75,42.55C1445.1666666666667,41.4,1447.5833333333333,40.24999999999999,1450,39.099999999999994" fill="transparent" stroke-linecap="round" stroke="#B6509E" stroke-width="2"></path><path class="visx-linepath" d="M0,103.49999999997445C2.4166666666666665,103.49574074072584,4.833333333333334,103.49148148147722,7.25,103.48722222222221C9.666666666666666,103.4829629629672,12.083333333333334,103.4787037037037,14.5,103.47444444444444C16.916666666666668,103.47018518518519,19.333333333333332,103.46592592592592,21.75,103.46166666666666C24.166666666666668,103.4574074074074,26.583333333333332,103.45314814814814,29,103.44888888888889C31.416666666666668,103.44462962962963,33.833333333333336,103.44037037037037,36.25,103.43611111111112C38.666666666666664,103.43185185185186,41.083333333333336,103.42759259259259,43.5,103.42333333333333C45.91666666666667,103.41907407407408,48.333333333333336,103.41481481481482,50.75000000000001,103.41055555555556C53.16666666666667,103.4062962962963,55.583333333333336,103.40203703703703,58,103.39777777777778C60.416666666666664,103.39351851851852,62.833333333333336,103.38925925925926,65.25,103.385C67.66666666666667,103.38074074074075,70.08333333333333,103.37648148148148,72.5,103.37222222222222C74.91666666666667,103.36796296296296,77.33333333333333,103.3637037037037,79.75,103.35944444444445C82.16666666666667,103.35518518518519,84.58333333333333,103.35092592592594,87,103.34666666666668C89.41666666666667,103.34240740740742,91.83333333333333,103.33814814814815,94.25,103.3338888888889C96.66666666666667,103.32962962962964,99.08333333333334,103.32537037037038,101.50000000000001,103.32111111111112C103.91666666666667,103.31685185185187,106.33333333333334,103.3125925925926,108.75,103.30833333333334C111.16666666666667,103.30407407407408,113.58333333333333,103.29981481481482,116,103.29555555555557C118.41666666666667,103.29129629629631,120.83333333333334,103.28703703703704,123.25000000000001,103.28277777777778C125.66666666666667,103.27851851851852,128.08333333333334,103.27425925925925,130.5,103.27C132.91666666666666,103.26574074074074,135.33333333333334,103.26148148148148,137.75,103.25722222222223C140.16666666666666,103.25296296296297,142.58333333333334,103.2487037037037,145,103.24444444444444C147.41666666666666,103.24018518518518,149.83333333333334,103.23592592592591,152.25,103.23166666666665C154.66666666666666,103.2274074074074,157.08333333333334,103.22314814814814,159.5,103.21888888888888C161.91666666666666,103.21462962962963,164.33333333333334,103.21037037037037,166.75,103.20611111111111C169.16666666666666,103.20185185185186,171.58333333333334,103.19759259259258,174,103.19333333333333C176.41666666666666,103.18907407407407,178.83333333333334,103.18481481481481,181.25,103.18055555555556C183.66666666666666,103.1762962962963,186.08333333333334,103.17203703703703,188.5,103.16777777777777C190.91666666666666,103.16351851851852,193.33333333333334,103.15925925925926,195.75,103.155C198.16666666666669,103.15074074074074,200.58333333333334,103.14648148148147,203.00000000000003,103.14222222222222C205.41666666666669,103.13796296296296,207.83333333333331,103.1337037037037,210.24999999999997,103.12944444444445C212.66666666666666,103.12518518518519,215.08333333333331,103.12092592592593,217.5,103.11666666666667C219.91666666666666,103.11240740740742,222.33333333333334,103.10814814814815,224.75,103.10388888888889C227.16666666666666,103.09962962962963,229.58333333333334,103.09537037037036,232,103.0911111111111C234.41666666666666,103.08685185185185,236.83333333333334,103.08259259259259,239.25,103.07833333333333C241.66666666666669,103.07407407407408,244.08333333333334,103.06981481481482,246.50000000000003,103.06555555555556C248.91666666666669,103.0612962962963,251.33333333333331,103.05703703703703,253.74999999999997,103.05277777777778C256.16666666666663,103.04851851851852,258.5833333333333,103.04425925925926,261,103.04C263.4166666666667,103.03574074074075,265.8333333333333,103.03148148148148,268.25,103.02722222222222C270.6666666666667,103.02296296296296,273.0833333333333,103.01870370370371,275.5,103.01444444444445C277.9166666666667,103.0101851851852,280.3333333333333,103.00592592592592,282.75,103.00166666666667C285.1666666666667,102.99740740740741,287.5833333333333,102.99314814814815,290,102.9888888888889C292.4166666666667,102.98462962962964,294.8333333333333,102.98037037037037,297.25,102.97611111111111C299.6666666666667,102.97185185185185,302.0833333333333,102.9675925925926,304.5,102.96333333333334C306.9166666666667,102.95907407407408,309.3333333333333,102.95481481481481,311.75,102.95055555555555C314.1666666666667,102.9462962962963,316.5833333333333,102.94203703703703,319,102.93777777777777C321.4166666666667,102.93351851851851,323.8333333333333,102.92925925925925,326.25,102.925C328.6666666666667,102.92074074074074,331.0833333333333,102.91648148148147,333.5,102.91222222222221C335.9166666666667,102.90796296296296,338.3333333333333,102.9037037037037,340.75,102.89944444444444C343.1666666666667,102.89518518518518,345.5833333333333,102.89092592592593,348,102.88666666666667C350.4166666666667,102.88240740740741,352.8333333333333,102.87814814814814,355.25,102.87388888888889C357.6666666666667,102.86962962962963,360.0833333333333,102.86537037037037,362.5,102.86111111111111C364.9166666666667,102.85685185185186,367.3333333333333,102.85259259259259,369.75,102.84833333333333C372.1666666666667,102.84407407407407,374.5833333333333,102.83981481481482,377,102.83555555555556C379.4166666666667,102.8312962962963,381.8333333333333,102.82703703703703,384.25,102.82277777777777C386.6666666666667,102.81851851851852,389.0833333333333,102.81425925925926,391.5,102.81C393.9166666666667,102.80574074074075,396.33333333333337,102.80148148148149,398.75000000000006,102.79722222222223C401.16666666666674,102.79296296296297,403.58333333333337,102.7887037037037,406.00000000000006,102.78444444444445C408.4166666666667,102.78018518518519,410.8333333333333,102.77592592592592,413.24999999999994,102.77166666666666C415.66666666666663,102.7674074074074,418.08333333333326,102.76314814814815,420.49999999999994,102.75888888888889C422.91666666666663,102.75462962962963,425.3333333333333,102.75037037037038,427.75,102.74611111111112C430.1666666666667,102.74185185185186,432.5833333333333,102.73759259259259,435,102.73333333333333C437.4166666666667,102.72907407407408,439.8333333333333,102.72481481481482,442.25,102.72055555555556C444.6666666666667,102.7162962962963,447.0833333333333,102.71203703703704,449.5,102.70777777777778C451.9166666666667,102.70351851851852,454.3333333333333,102.69925925925926,456.75,102.69500000000001C459.1666666666667,102.69074074074075,461.5833333333333,102.68648148148148,464,102.68222222222222C466.4166666666667,102.67796296296297,468.8333333333333,102.67370370370371,471.25,102.66944444444445C473.6666666666667,102.6651851851852,476.0833333333333,102.66092592592592,478.5,102.65666666666667C480.9166666666667,102.65240740740741,483.33333333333337,102.64814814814814,485.75000000000006,102.64388888888888C488.16666666666674,102.63962962962962,490.58333333333337,102.63537037037035,493.00000000000006,102.6311111111111C495.4166666666667,102.62685185185184,497.8333333333333,102.62259259259258,500.24999999999994,102.61833333333333C502.66666666666663,102.61407407407407,505.08333333333326,102.60981481481481,507.49999999999994,102.60555555555555C509.91666666666663,102.6012962962963,512.3333333333333,102.59703703703703,514.75,102.59277777777777C517.1666666666666,102.58851851851851,519.5833333333334,102.58425925925926,522,102.58C524.4166666666666,102.57574074074074,526.8333333333334,102.57148148148147,529.25,102.56722222222221C531.6666666666666,102.56296296296296,534.0833333333334,102.5587037037037,536.5,102.55444444444444C538.9166666666666,102.55018518518519,541.3333333333334,102.54592592592591,543.75,102.54166666666666C546.1666666666666,102.5374074074074,548.5833333333334,102.53314814814814,551,102.52888888888889C553.4166666666666,102.52462962962963,555.8333333333334,102.52037037037037,558.25,102.51611111111112C560.6666666666666,102.51185185185186,563.0833333333334,102.50759259259259,565.5,102.50333333333333C567.9166666666666,102.49907407407407,570.3333333333334,102.49481481481482,572.75,102.49055555555556C575.1666666666666,102.4862962962963,577.5833333333334,102.48203703703705,580,102.47777777777779C582.4166666666666,102.47351851851853,584.8333333333334,102.46925925925926,587.25,102.465C589.6666666666666,102.46074074074075,592.0833333333334,102.45648148148148,594.5,102.45222222222222C596.9166666666666,102.44796296296296,599.3333333333334,102.4437037037037,601.75,102.43944444444445C604.1666666666666,102.43518518518519,606.5833333333334,102.43092592592593,609,102.42666666666668C611.4166666666666,102.42240740740742,613.8333333333334,102.41814814814815,616.25,102.41388888888889C618.6666666666666,102.40962962962963,621.0833333333334,102.40537037037038,623.5,102.40111111111112C625.9166666666666,102.39685185185186,628.3333333333334,102.39259259259259,630.75,102.38833333333334C633.1666666666666,102.38407407407408,635.5833333333334,102.37981481481482,638,102.37555555555556C640.4166666666666,102.37129629629631,642.8333333333334,102.36703703703704,645.25,102.36277777777778C647.6666666666666,102.35851851851852,650.0833333333334,102.35425925925927,652.5,102.35000000000001C654.9166666666666,102.34574074074075,657.3333333333334,102.34148148148148,659.75,102.33722222222222C662.1666666666666,102.33296296296297,664.5833333333334,102.3287037037037,667,102.32444444444444C669.4166666666666,102.32018518518518,671.8333333333334,102.31592592592591,674.25,102.31166666666665C676.6666666666666,102.3074074074074,679.0833333333334,102.30314814814814,681.5,102.29888888888888C683.9166666666666,102.29462962962963,686.3333333333334,102.29037037037037,688.75,102.28611111111111C691.1666666666666,102.28185185185185,693.5833333333334,102.27759259259258,696,102.27333333333333C698.4166666666666,102.26907407407407,700.8333333333334,102.26481481481481,703.25,102.26055555555556C705.6666666666666,102.2562962962963,708.0833333333334,102.25203703703703,710.5,102.24777777777777C712.9166666666666,102.24351851851851,715.3333333333334,102.23925925925926,717.75,102.235C720.1666666666666,102.23074074074074,722.5833333333334,102.22648148148147,725,102.22222222222221C727.4166666666666,102.21796296296296,729.8333333333334,102.2137037037037,732.25,102.20944444444444C734.6666666666666,102.20518518518519,737.0833333333334,102.20092592592593,739.5,102.19666666666667C741.9166666666666,102.19240740740742,744.3333333333334,102.18814814814814,746.75,102.18388888888889C749.1666666666666,102.17962962962963,751.5833333333334,102.17537037037036,754,102.1711111111111C756.4166666666666,102.16685185185185,758.8333333333334,102.16259259259259,761.25,102.15833333333333C763.6666666666666,102.15407407407407,766.0833333333334,102.14981481481482,768.5,102.14555555555556C770.9166666666666,102.1412962962963,773.3333333333334,102.13703703703703,775.75,102.13277777777778C778.1666666666666,102.12851851851852,780.5833333333334,102.12425925925926,783,102.12C785.4166666666667,102.11574074074075,787.8333333333334,102.11148148148149,790.2500000000001,102.10722222222223C792.6666666666667,102.10296296296298,795.0833333333335,102.0987037037037,797.5000000000001,102.09444444444445C799.9166666666667,102.09018518518519,802.3333333333335,102.08592592592593,804.7500000000001,102.08166666666668C807.1666666666667,102.07740740740742,809.5833333333335,102.07314814814815,812.0000000000001,102.06888888888889C814.4166666666667,102.06462962962964,816.8333333333333,102.06037037037038,819.2499999999999,102.05611111111112C821.6666666666665,102.05185185185186,824.0833333333333,102.0475925925926,826.4999999999999,102.04333333333334C828.9166666666665,102.03907407407408,831.3333333333333,102.03481481481481,833.7499999999999,102.03055555555555C836.1666666666665,102.0262962962963,838.5833333333333,102.02203703703704,840.9999999999999,102.01777777777778C843.4166666666666,102.01351851851852,845.8333333333333,102.00925925925925,848.25,102.005C850.6666666666666,102.00074074074074,853.0833333333334,101.99648148148147,855.5,101.99222222222221C857.9166666666666,101.98796296296295,860.3333333333334,101.9837037037037,862.75,101.97944444444444C865.1666666666666,101.97518518518518,867.5833333333334,101.97092592592593,870,101.96666666666667C872.4166666666666,101.96240740740741,874.8333333333334,101.95814814814814,877.25,101.95388888888888C879.6666666666666,101.94962962962963,882.0833333333334,101.94537037037037,884.5,101.94111111111111C886.9166666666666,101.93685185185186,889.3333333333334,101.93259259259258,891.75,101.92833333333333C894.1666666666666,101.92407407407407,896.5833333333334,101.91981481481481,899,101.91555555555556C901.4166666666666,101.9112962962963,903.8333333333334,101.90703703703703,906.25,101.90277777777777C908.6666666666666,101.89851851851851,911.0833333333334,101.89425925925926,913.5,101.89C915.9166666666666,101.88574074074074,918.3333333333334,101.88148148148149,920.75,101.87722222222223C923.1666666666666,101.87296296296297,925.5833333333334,101.8687037037037,928,101.86444444444444C930.4166666666666,101.86018518518519,932.8333333333334,101.85592592592592,935.25,101.85166666666666C937.6666666666666,101.8474074074074,940.0833333333334,101.84314814814815,942.5,101.83888888888889C944.9166666666666,101.83462962962963,947.3333333333334,101.83037037037037,949.75,101.82611111111112C952.1666666666666,101.82185185185186,954.5833333333334,101.81759259259259,957,101.81333333333333C959.4166666666666,101.80907407407408,961.8333333333334,101.80481481481482,964.25,101.80055555555556C966.6666666666667,101.7962962962963,969.0833333333334,101.79203703703703,971.5000000000001,101.78777777777778C973.9166666666667,101.78351851851852,976.3333333333335,101.77925925925926,978.7500000000001,101.775C981.1666666666667,101.77074074074075,983.5833333333335,101.76648148148148,986.0000000000001,101.76222222222222C988.4166666666667,101.75796296296296,990.8333333333335,101.7537037037037,993.2500000000001,101.74944444444445C995.6666666666667,101.74518518518519,998.0833333333333,101.74092592592594,1000.4999999999999,101.73666666666668C1002.9166666666665,101.73240740740742,1005.3333333333333,101.72814814814815,1007.7499999999999,101.7238888888889C1010.1666666666665,101.71962962962964,1012.5833333333333,101.71537037037037,1014.9999999999999,101.71111111111111C1017.4166666666665,101.70685185185185,1019.8333333333333,101.70259259259258,1022.2499999999999,101.69833333333332C1024.6666666666665,101.69407407407407,1027.0833333333333,101.68981481481481,1029.5,101.68555555555555C1031.9166666666667,101.6812962962963,1034.3333333333333,101.67703703703702,1036.75,101.67277777777777C1039.1666666666667,101.66851851851851,1041.5833333333333,101.66425925925925,1044,101.66C1046.4166666666667,101.65574074074074,1048.8333333333333,101.65148148148148,1051.25,101.64722222222223C1053.6666666666667,101.64296296296297,1056.0833333333333,101.6387037037037,1058.5,101.63444444444444C1060.9166666666667,101.63018518518518,1063.3333333333333,101.62592592592593,1065.75,101.62166666666667C1068.1666666666667,101.61740740740741,1070.5833333333333,101.61314814814814,1073,101.60888888888888C1075.4166666666667,101.60462962962963,1077.8333333333333,101.60037037037037,1080.25,101.59611111111111C1082.6666666666667,101.59185185185186,1085.0833333333333,101.58759259259259,1087.5,101.58333333333333C1089.9166666666667,101.57907407407407,1092.3333333333333,101.57481481481481,1094.75,101.57055555555556C1097.1666666666667,101.5662962962963,1099.5833333333333,101.56203703703704,1102,101.55777777777779C1104.4166666666667,101.55351851851853,1106.8333333333333,101.54925925925926,1109.25,101.545C1111.6666666666667,101.54074074074074,1114.0833333333333,101.53648148148147,1116.5,101.53222222222222C1118.9166666666667,101.52796296296296,1121.3333333333333,101.5237037037037,1123.75,101.51944444444445C1126.1666666666667,101.51518518518519,1128.5833333333333,101.51092592592593,1131,101.50666666666667C1133.4166666666667,101.50240740740742,1135.8333333333333,101.49814814814815,1138.25,101.49388888888889C1140.6666666666667,101.48962962962963,1143.0833333333333,101.48537037037038,1145.5,101.48111111111112C1147.9166666666667,101.47685185185186,1150.3333333333333,101.47259259259259,1152.75,101.46833333333333C1155.1666666666667,101.46407407407408,1157.5833333333333,101.45981481481482,1160,101.45555555555556C1162.4166666666667,101.4512962962963,1164.8333333333333,101.44703703703703,1167.25,101.44277777777778C1169.6666666666667,101.43851851851852,1172.0833333333333,101.43425925925926,1174.5,101.43C1176.9166666666667,101.42574074074075,1179.3333333333333,101.42148148148148,1181.75,101.41722222222222C1184.1666666666667,101.41296296296296,1186.5833333333333,101.4087037037037,1189,101.40444444444444C1191.4166666666667,101.40018518518518,1193.8333333333333,101.39592592592592,1196.25,101.39166666666667C1198.6666666666667,101.38740740740741,1201.0833333333333,101.38314814814814,1203.5,101.37888888888888C1205.9166666666667,101.37462962962962,1208.3333333333333,101.37037037037037,1210.75,101.36611111111111C1213.1666666666667,101.36185185185185,1215.5833333333333,101.35759259259258,1218,101.35333333333332C1220.4166666666667,101.34907407407407,1222.8333333333333,101.34481481481481,1225.25,101.34055555555555C1227.6666666666667,101.3362962962963,1230.0833333333333,101.33203703703703,1232.5,101.32777777777777C1234.9166666666667,101.32351851851851,1237.3333333333333,101.31925925925925,1239.75,101.315C1242.1666666666667,101.31074074074074,1244.5833333333333,101.30648148148147,1247,101.30222222222221C1249.4166666666667,101.29796296296296,1251.8333333333333,101.2937037037037,1254.25,101.28944444444444C1256.6666666666667,101.28518518518518,1259.0833333333333,101.28092592592593,1261.5,101.27666666666667C1263.9166666666667,101.27240740740741,1266.3333333333333,101.26814814814814,1268.75,101.26388888888889C1271.1666666666667,101.25962962962963,1273.5833333333333,101.25537037037037,1276,101.25111111111111C1278.4166666666667,101.24685185185186,1280.8333333333333,101.24259259259259,1283.25,101.23833333333333C1285.6666666666667,101.23407407407407,1288.0833333333333,101.22981481481482,1290.5,101.22555555555556C1292.9166666666667,101.2212962962963,1295.3333333333333,101.21703703703703,1297.75,101.21277777777777C1300.1666666666667,101.20851851851852,1302.5833333333333,101.20851851851852,1305,101.2C1307.4166666666667,101.19148148148149,1309.8333333333333,98.325,1312.25,96.8875C1314.6666666666667,95.45,1317.0833333333333,94.01249999999999,1319.5,92.57499999999999C1321.9166666666667,91.13749999999999,1324.3333333333333,89.69999999999999,1326.75,88.26249999999999C1329.1666666666667,86.82499999999999,1331.5833333333333,85.3875,1334,83.95C1336.4166666666667,82.5125,1338.8333333333333,81.075,1341.25,79.6375C1343.6666666666667,78.2,1346.0833333333333,76.7625,1348.5,75.325C1350.9166666666667,73.8875,1353.3333333333333,72.44999999999999,1355.75,71.01249999999999C1358.1666666666667,69.57499999999999,1360.5833333333333,68.1375,1363,66.7C1365.4166666666667,65.2625,1367.8333333333333,63.824999999999996,1370.25,62.387499999999996C1372.6666666666667,60.949999999999996,1375.0833333333333,59.5125,1377.5,58.075C1379.9166666666667,56.6375,1382.3333333333333,55.2,1384.75,53.7625C1387.1666666666667,52.325,1389.5833333333333,50.8875,1392,49.45C1394.4166666666667,48.0125,1396.8333333333333,46.574999999999996,1399.25,45.137499999999996C1401.6666666666667,43.699999999999996,1404.0833333333333,42.262499999999996,1406.5,40.824999999999996C1408.9166666666667,39.387499999999996,1411.3333333333333,37.95,1413.75,36.5125C1416.1666666666667,35.075,1418.5833333333333,33.6375,1421,32.2C1423.4166666666667,30.762500000000003,1425.8333333333333,29.325000000000006,1428.25,27.887500000000006C1430.6666666666667,26.450000000000006,1433.0833333333333,25.012499999999996,1435.5,23.574999999999996C1437.9166666666667,22.137499999999996,1440.3333333333333,20.7,1442.75,19.2625C1445.1666666666667,17.825,1447.5833333333333,16.3875,1450,14.950000000000001" fill="transparent" stroke-linecap="round" stroke="#E7C6DF" stroke-width="2"></path><g class="visx-group visx-axis visx-axis-bottom" transform="translate(0, 115)"><g class="visx-group visx-axis-tick" transform="translate(0, 0)"><line class="visx-line" x1="0" y1="0" x2="0" y2="8" fill="transparent" shape-rendering="crispEdges" stroke="#000" stroke-width="0" stroke-linecap="square"></line><svg x="0" y="0" font-size="10" style="overflow:visible"><text transform="" x="0" y="18" fill="#000" font-size="10" text-anchor="middle"><tspan x="0" dy="0em">0%</tspan></text></svg></g><g class="visx-group visx-axis-tick" transform="translate(0, 0)"><line class="visx-line" x1="362.5" y1="0" x2="362.5" y2="8" fill="transparent" shape-rendering="crispEdges" stroke="#000" stroke-width="0" stroke-linecap="square"></line><svg x="0" y="0" font-size="10" style="overflow:visible"><text transform="" x="362.5" y="18" fill="#000" font-size="10" text-anchor="middle"><tspan x="362.5" dy="0em">25%</tspan></text></svg></g><g class="visx-group visx-axis-tick" transform="translate(0, 0)"><line class="visx-line" x1="725" y1="0" x2="725" y2="8" fill="transparent" shape-rendering="crispEdges" stroke="#000" stroke-width="0" stroke-linecap="square"></line><svg x="0" y="0" font-size="10" style="overflow:visible"><text transform="" x="725" y="18" fill="#000" font-size="10" text-anchor="middle"><tspan x="725" dy="0em">50%</tspan></text></svg></g><g class="visx-group visx-axis-tick" transform="translate(0, 0)"><line class="visx-line" x1="1087.5" y1="0" x2="1087.5" y2="8" fill="transparent" shape-rendering="crispEdges" stroke="#000" stroke-width="0" stroke-linecap="square"></line><svg x="0" y="0" font-size="10" style="overflow:visible"><text transform="" x="1087.5" y="18" fill="#000" font-size="10" text-anchor="middle"><tspan x="1087.5" dy="0em">75%</tspan></text></svg></g><g class="visx-group visx-axis-tick" transform="translate(0, 0)"><line class="visx-line" x1="1450" y1="0" x2="1450" y2="8" fill="transparent" shape-rendering="crispEdges" stroke="#000" stroke-width="0" stroke-linecap="square"></line><svg x="0" y="0" font-size="10" style="overflow:visible"><text transform="" x="1450" y="18" fill="#000" font-size="10" text-anchor="middle"><tspan x="1450" dy="0em">100%</tspan></text></svg></g><line class="visx-line visx-axis-line" x1="0.5" y1="0" x2="1450.5" y2="0" fill="transparent" shape-rendering="crispEdges" stroke="#222" stroke-width="0"></line></g><g class="visx-group visx-axis visx-axis-left" transform="translate(0, 0)"><g class="visx-group visx-axis-tick" transform="translate(0, 0)"><line class="visx-line" x1="0" y1="115" x2="-8" y2="115" fill="transparent" shape-rendering="crispEdges" stroke="#222" stroke-width="0" stroke-linecap="square"></line><svg x="-30" y="0" font-size="8" style="overflow:visible"><text transform="" x="-8" y="115" fill="#000" font-size="8" text-anchor="start"><tspan x="-8" dy="0em">0%</tspan></text></svg></g><g class="visx-group visx-axis-tick" transform="translate(0, 0)"><line class="visx-line" x1="0" y1="57.5" x2="-8" y2="57.5" fill="transparent" shape-rendering="crispEdges" stroke="#222" stroke-width="0" stroke-linecap="square"></line><svg x="-30" y="0" font-size="8" style="overflow:visible"><text transform="" x="-8" y="57.5" fill="#000" font-size="8" text-anchor="start"><tspan x="-8" dy="0em">50%</tspan></text></svg></g><g class="visx-group visx-axis-tick" transform="translate(0, 0)"><line class="visx-line" x1="0" y1="0" x2="-8" y2="0" fill="transparent" shape-rendering="crispEdges" stroke="#222" stroke-width="0" stroke-linecap="square"></line><svg x="-30" y="0" font-size="8" style="overflow:visible"><text transform="" x="-8" y="0" fill="#000" font-size="8" text-anchor="start"><tspan x="-8" dy="0em">100%</tspan></text></svg></g><line class="visx-line visx-axis-line" x1="0" y1="115.5" x2="0" y2="0.5" fill="transparent" shape-rendering="crispEdges" stroke="#222" stroke-width="0"></line></g><rect class="visx-bar" width="1450" height="115" fill="transparent"></rect><line class="visx-line" x1="1305" y1="28" x2="1305" y2="115" fill="transparent" shape-rendering="crispEdges" stroke="#0062D2" stroke-width="1" pointer-events="none" stroke-dasharray="5,2"></line><svg x="0" y="0" font-size="10px" style="overflow:visible"><text transform="" x="1305" y="20" font-size="10px" fill="#fff" stroke="#fff" stroke-width="0.8em" text-anchor="middle"><tspan x="1305" dy="0.355em">Optimal 90%</tspan></text></svg><svg x="0" y="0" font-size="10px" style="overflow:visible"><text transform="" x="1305" y="20" font-size="10px" fill="#62677B" text-anchor="middle"><tspan x="1305" dy="0.355em">Optimal 90%</tspan></text></svg></g></svg>