<?xml version="1.0"?><svg xmlns="http://www.w3.org/2000/svg" xmlns:xlink= "http://www.w3.org/1999/xlink" style="background: white;" width="1500" height="185"> <g style="color: black; font-size: 13px; font-family: sans-serif; transform: translate(18px, 25px);"><g><circle r="3" cx="-6" cy="-5" style="fill: #B6509E" /><text>Borrow APR, variable</text></g><g style="transform: translateX(150px);"><circle r="3" cx="-6" cy="-5" style="fill: rgb(231, 198, 223)" /><text>Borrow APR, stable</text></g><g style="transform: translateX(290px);"><circle r="3" cx="-6" cy="-5" style="fill: rgb(0, 98, 210)" /><text>Utilization Rate</text></g></g><g class="visx-group" transform="translate(40, 50)"><g class="visx-group visx-rows" transform="translate(0, 0)"><line class="visx-line" x1="0" y1="115" x2="1450" y2="115" fill="transparent" shape-rendering="crispEdges" stroke="#000" stroke-width="1" stroke-dasharray="3,3" pointer-events="none"></line><line class="visx-line" x1="0" y1="73.92857142857142" x2="1450" y2="73.92857142857142" fill="transparent" shape-rendering="crispEdges" stroke="#000" stroke-width="1" stroke-dasharray="3,3" pointer-events="none"></line><line class="visx-line" x1="0" y1="32.857142857142854" x2="1450" y2="32.857142857142854" fill="transparent" shape-rendering="crispEdges" stroke="#000" stroke-width="1" stroke-dasharray="3,3" pointer-events="none"></line></g><path class="visx-linepath" d="M0,114.99999999996051C2.4166666666666665,114.99341804027,4.833333333333334,114.98683608057948,7.25,114.98025412087911C9.666666666666666,114.97367216117874,12.083333333333334,114.96709020146521,14.5,114.96050824175825C16.916666666666668,114.95392628205128,19.333333333333332,114.94734432234432,21.75,114.94076236263736C24.166666666666668,114.9341804029304,26.583333333333332,114.92759844322345,29,114.92101648351648C31.416666666666668,114.91443452380952,33.833333333333336,114.90785256410255,36.25,114.90127060439559C38.666666666666664,114.89468864468863,41.083333333333336,114.8881066849817,43.5,114.88152472527473C45.91666666666667,114.87494276556777,48.333333333333336,114.8683608058608,50.75000000000001,114.86177884615384C53.16666666666667,114.85519688644688,55.583333333333336,114.84861492673993,58,114.84203296703296C60.416666666666664,114.835451007326,62.833333333333336,114.82886904761905,65.25,114.82228708791209C67.66666666666667,114.81570512820512,70.08333333333333,114.80912316849818,72.5,114.80254120879121C74.91666666666667,114.79595924908425,77.33333333333333,114.78937728937728,79.75,114.78279532967032C82.16666666666667,114.77621336996336,84.58333333333333,114.76963141025641,87,114.76304945054945C89.41666666666667,114.75646749084248,91.83333333333333,114.74988553113553,94.25,114.74330357142857C96.66666666666667,114.7367216117216,99.08333333333334,114.73013965201466,101.50000000000001,114.7235576923077C103.91666666666667,114.71697573260073,106.33333333333334,114.71039377289377,108.75,114.7038118131868C111.16666666666667,114.69722985347984,113.58333333333333,114.6906478937729,116,114.68406593406594C118.41666666666667,114.67748397435898,120.83333333333334,114.67090201465201,123.25000000000001,114.66432005494505C125.66666666666667,114.65773809523809,128.08333333333334,114.65115613553114,130.5,114.64457417582418C132.91666666666666,114.63799221611721,135.33333333333334,114.63141025641025,137.75,114.62482829670328C140.16666666666666,114.61824633699632,142.58333333333334,114.61166437728939,145,114.60508241758242C147.41666666666666,114.59850045787546,149.83333333333334,114.5919184981685,152.25,114.58533653846153C154.66666666666666,114.57875457875457,157.08333333333334,114.57217261904762,159.5,114.56559065934066C161.91666666666666,114.5590086996337,164.33333333333334,114.55242673992674,166.75,114.54584478021978C169.16666666666666,114.53926282051282,171.58333333333334,114.53268086080587,174,114.5260989010989C176.41666666666666,114.51951694139194,178.83333333333334,114.51293498168498,181.25,114.50635302197801C183.66666666666666,114.49977106227105,186.08333333333334,114.4931891025641,188.5,114.48660714285714C190.91666666666666,114.48002518315018,193.33333333333334,114.47344322344323,195.75,114.46686126373626C198.16666666666669,114.4602793040293,200.58333333333334,114.45369734432235,203.00000000000003,114.44711538461539C205.41666666666669,114.44053342490842,207.83333333333331,114.43395146520146,210.24999999999997,114.4273695054945C212.66666666666666,114.42078754578753,215.08333333333331,114.4142055860806,217.5,114.40762362637363C219.91666666666666,114.40104166666667,222.33333333333334,114.39445970695971,224.75,114.38787774725274C227.16666666666666,114.38129578754578,229.58333333333334,114.37471382783883,232,114.36813186813187C234.41666666666666,114.3615499084249,236.83333333333334,114.35496794871794,239.25,114.34838598901098C241.66666666666669,114.34180402930401,244.08333333333334,114.33522206959708,246.50000000000003,114.32864010989012C248.91666666666669,114.32205815018315,251.33333333333331,114.31547619047619,253.74999999999997,114.30889423076923C256.16666666666663,114.30231227106226,258.5833333333333,114.29573031135531,261,114.28914835164835C263.4166666666667,114.28256639194139,265.8333333333333,114.27598443223444,268.25,114.26940247252747C270.6666666666667,114.26282051282051,273.0833333333333,114.25623855311356,275.5,114.2496565934066C277.9166666666667,114.24307463369964,280.3333333333333,114.23649267399267,282.75,114.22991071428571C285.1666666666667,114.22332875457874,287.5833333333333,114.2167467948718,290,114.21016483516483C292.4166666666667,114.20358287545787,294.8333333333333,114.19700091575092,297.25,114.19041895604396C299.6666666666667,114.18383699633699,302.0833333333333,114.17725503663004,304.5,114.17067307692308C306.9166666666667,114.16409111721612,309.3333333333333,114.15750915750915,311.75,114.15092719780219C314.1666666666667,114.14434523809523,316.5833333333333,114.13776327838829,319,114.13118131868133C321.4166666666667,114.12459935897436,323.8333333333333,114.1180173992674,326.25,114.11143543956044C328.6666666666667,114.10485347985347,331.0833333333333,114.09827152014653,333.5,114.09168956043956C335.9166666666667,114.0851076007326,338.3333333333333,114.07852564102564,340.75,114.07194368131867C343.1666666666667,114.06536172161171,345.5833333333333,114.05877976190477,348,114.05219780219781C350.4166666666667,114.04561584249085,352.8333333333333,114.03903388278388,355.25,114.03245192307692C357.6666666666667,114.02586996336996,360.0833333333333,114.01928800366301,362.5,114.01270604395604C364.9166666666667,114.00612408424908,367.3333333333333,113.99954212454213,369.75,113.99296016483517C372.1666666666667,113.9863782051282,374.5833333333333,113.97979624542126,377,113.97321428571429C379.4166666666667,113.96663232600733,381.8333333333333,113.96005036630036,384.25,113.9534684065934C386.6666666666667,113.94688644688644,389.0833333333333,113.94030448717949,391.5,113.93372252747253C393.9166666666667,113.92714056776556,396.33333333333337,113.92055860805861,398.75000000000006,113.91397664835165C401.16666666666674,113.90739468864469,403.58333333333337,113.90081272893774,406.00000000000006,113.89423076923077C408.4166666666667,113.88764880952381,410.8333333333333,113.88106684981685,413.24999999999994,113.87448489010988C415.66666666666663,113.86790293040292,418.08333333333326,113.86132097069599,420.49999999999994,113.85473901098902C422.91666666666663,113.84815705128206,425.3333333333333,113.8415750915751,427.75,113.83499313186813C430.1666666666667,113.82841117216117,432.5833333333333,113.82182921245422,435,113.81524725274726C437.4166666666667,113.80866529304029,439.8333333333333,113.80208333333333,442.25,113.79550137362637C444.6666666666667,113.7889194139194,447.0833333333333,113.78233745421247,449.5,113.7757554945055C451.9166666666667,113.76917353479854,454.3333333333333,113.76259157509158,456.75,113.75600961538461C459.1666666666667,113.74942765567765,461.5833333333333,113.7428456959707,464,113.73626373626374C466.4166666666667,113.72968177655677,468.8333333333333,113.72309981684982,471.25,113.71651785714286C473.6666666666667,113.7099358974359,476.0833333333333,113.70335393772895,478.5,113.69677197802199C480.9166666666667,113.69019001831502,483.33333333333337,113.68360805860806,485.75000000000006,113.6770260989011C488.16666666666674,113.67044413919413,490.58333333333337,113.66386217948718,493.00000000000006,113.65728021978022C495.4166666666667,113.65069826007326,497.8333333333333,113.6441163003663,500.24999999999994,113.63753434065934C502.66666666666663,113.63095238095238,505.08333333333326,113.62437042124543,507.49999999999994,113.61778846153847C509.91666666666663,113.6112065018315,512.3333333333333,113.60462454212454,514.75,113.59804258241758C517.1666666666666,113.59146062271061,519.5833333333334,113.58487866300368,522,113.57829670329672C524.4166666666666,113.57171474358975,526.8333333333334,113.56513278388279,529.25,113.55855082417582C531.6666666666666,113.55196886446886,534.0833333333334,113.54538690476191,536.5,113.53880494505495C538.9166666666666,113.53222298534799,541.3333333333334,113.52564102564102,543.75,113.51905906593406C546.1666666666666,113.5124771062271,548.5833333333334,113.50589514652016,551,113.4993131868132C553.4166666666666,113.49273122710623,555.8333333333334,113.48614926739927,558.25,113.4795673076923C560.6666666666666,113.47298534798534,563.0833333333334,113.4664033882784,565.5,113.45982142857143C567.9166666666666,113.45323946886447,570.3333333333334,113.44665750915752,572.75,113.44007554945055C575.1666666666666,113.43349358974359,577.5833333333334,113.42691163003664,580,113.42032967032968C582.4166666666666,113.41374771062272,584.8333333333334,113.40716575091575,587.25,113.40058379120879C589.6666666666666,113.39400183150182,592.0833333333334,113.38741987179488,594.5,113.38083791208791C596.9166666666666,113.37425595238095,599.3333333333334,113.367673992674,601.75,113.36109203296704C604.1666666666666,113.35451007326007,606.5833333333334,113.34792811355312,609,113.34134615384616C611.4166666666666,113.3347641941392,613.8333333333334,113.32818223443223,616.25,113.32160027472527C618.6666666666666,113.3150183150183,621.0833333333334,113.30843635531137,623.5,113.30185439560441C625.9166666666666,113.29527243589745,628.3333333333334,113.28869047619048,630.75,113.28210851648352C633.1666666666666,113.27552655677655,635.5833333333334,113.2689445970696,638,113.26236263736264C640.4166666666666,113.25578067765568,642.8333333333334,113.24919871794872,645.25,113.24261675824175C647.6666666666666,113.23603479853479,650.0833333333334,113.22945283882785,652.5,113.22287087912089C654.9166666666666,113.21628891941393,657.3333333333334,113.20970695970696,659.75,113.203125C662.1666666666666,113.19654304029304,664.5833333333334,113.18996108058609,667,113.18337912087912C669.4166666666666,113.17679716117216,671.8333333333334,113.17021520146521,674.25,113.16363324175825C676.6666666666666,113.15705128205128,679.0833333333334,113.15046932234432,681.5,113.14388736263736C683.9166666666666,113.1373054029304,686.3333333333334,113.13072344322345,688.75,113.12414148351648C691.1666666666666,113.11755952380952,693.5833333333334,113.11097756410255,696,113.10439560439559C698.4166666666666,113.09781364468863,700.8333333333334,113.0912316849817,703.25,113.08464972527473C705.6666666666666,113.07806776556777,708.0833333333334,113.0714858058608,710.5,113.06490384615384C712.9166666666666,113.05832188644688,715.3333333333334,113.05173992673993,717.75,113.04515796703296C720.1666666666666,113.038576007326,722.5833333333334,113.03199404761905,725,113.02541208791209C727.4166666666666,113.01883012820512,729.8333333333334,113.01224816849818,732.25,113.00566620879121C734.6666666666666,112.99908424908425,737.0833333333334,112.99250228937728,739.5,112.98592032967032C741.9166666666666,112.97933836996336,744.3333333333334,112.97275641025641,746.75,112.96617445054945C749.1666666666666,112.95959249084248,751.5833333333334,112.95959249084248,754,112.94642857142857C756.4166666666666,112.93326465201466,758.8333333333334,112.27331349206351,761.25,111.93675595238096C763.6666666666666,111.60019841269842,766.0833333333334,111.26364087301587,768.5,110.92708333333333C770.9166666666666,110.59052579365078,773.3333333333334,110.25396825396825,775.75,109.91741071428571C778.1666666666666,109.58085317460316,780.5833333333334,109.24429563492062,783,108.90773809523809C785.4166666666667,108.57118055555554,787.8333333333334,108.23462301587303,790.2500000000001,107.89806547619048C792.6666666666667,107.56150793650795,795.0833333333335,107.2249503968254,797.5000000000001,106.88839285714286C799.9166666666667,106.55183531746032,802.3333333333335,106.21527777777779,804.7500000000001,105.87872023809524C807.1666666666667,105.5421626984127,809.5833333333335,105.20560515873017,812.0000000000001,104.86904761904762C814.4166666666667,104.53249007936509,816.8333333333333,104.19593253968253,819.2499999999999,103.859375C821.6666666666665,103.52281746031746,824.0833333333333,103.18625992063492,826.4999999999999,102.84970238095238C828.9166666666665,102.51314484126983,831.3333333333333,102.1765873015873,833.7499999999999,101.84002976190476C836.1666666666665,101.50347222222221,838.5833333333333,101.16691468253967,840.9999999999999,100.83035714285714C843.4166666666666,100.4937996031746,845.8333333333333,100.15724206349208,848.25,99.82068452380953C850.6666666666666,99.484126984127,853.0833333333334,99.14756944444444,855.5,98.8110119047619C857.9166666666666,98.47445436507935,860.3333333333334,98.13789682539684,862.75,97.80133928571429C865.1666666666666,97.46478174603175,867.5833333333334,97.12822420634922,870,96.79166666666667C872.4166666666666,96.45510912698413,874.8333333333334,96.1185515873016,877.25,95.78199404761905C879.6666666666666,95.4454365079365,882.0833333333334,95.10887896825398,884.5,94.77232142857143C886.9166666666666,94.43576388888889,889.3333333333334,94.09920634920634,891.75,93.7626488095238C894.1666666666666,93.42609126984125,896.5833333333334,93.08953373015873,899,92.75297619047619C901.4166666666666,92.41641865079364,903.8333333333334,92.07986111111111,906.25,91.74330357142857C908.6666666666666,91.40674603174602,911.0833333333334,91.0701884920635,913.5,90.73363095238095C915.9166666666666,90.3970734126984,918.3333333333334,90.06051587301587,920.75,89.72395833333334C923.1666666666666,89.38740079365081,925.5833333333334,89.05084325396827,928,88.71428571428572C930.4166666666666,88.37772817460318,932.8333333333334,88.04117063492065,935.25,87.7046130952381C937.6666666666666,87.36805555555556,940.0833333333334,87.03149801587303,942.5,86.69494047619048C944.9166666666666,86.35838293650794,947.3333333333334,86.02182539682539,949.75,85.68526785714285C952.1666666666666,85.3487103174603,954.5833333333334,85.01215277777779,957,84.67559523809524C959.4166666666666,84.3390376984127,961.8333333333334,84.00248015873014,964.25,83.6659226190476C966.6666666666667,83.32936507936506,969.0833333333334,82.99280753968254,971.5000000000001,82.65625C973.9166666666667,82.31969246031747,976.3333333333335,81.98313492063492,978.7500000000001,81.64657738095238C981.1666666666667,81.31001984126983,983.5833333333335,80.97346230158729,986.0000000000001,80.63690476190476C988.4166666666667,80.30034722222223,990.8333333333335,79.9637896825397,993.2500000000001,79.62723214285715C995.6666666666667,79.29067460317462,998.0833333333333,78.95411706349205,1000.4999999999999,78.61755952380952C1002.9166666666665,78.28100198412697,1005.3333333333333,77.94444444444443,1007.7499999999999,77.6078869047619C1010.1666666666665,77.27132936507937,1012.5833333333333,76.93477182539684,1014.9999999999999,76.59821428571429C1017.4166666666665,76.26165674603175,1019.8333333333333,75.92509920634919,1022.2499999999999,75.58854166666666C1024.6666666666665,75.25198412698411,1027.0833333333333,74.9154265873016,1029.5,74.57886904761905C1031.9166666666667,74.24231150793652,1034.3333333333333,73.90575396825398,1036.75,73.56919642857143C1039.1666666666667,73.23263888888889,1041.5833333333333,72.89608134920636,1044,72.55952380952381C1046.4166666666667,72.22296626984127,1048.8333333333333,71.88640873015875,1051.25,71.5498511904762C1053.6666666666667,71.21329365079366,1056.0833333333333,70.87673611111111,1058.5,70.54017857142857C1060.9166666666667,70.20362103174602,1063.3333333333333,69.8670634920635,1065.75,69.53050595238095C1068.1666666666667,69.1939484126984,1070.5833333333333,68.85739087301589,1073,68.52083333333334C1075.4166666666667,68.1842757936508,1077.8333333333333,67.84771825396825,1080.25,67.51116071428571C1082.6666666666667,67.17460317460316,1085.0833333333333,66.83804563492063,1087.5,66.50148809523809C1089.9166666666667,66.16493055555554,1092.3333333333333,65.82837301587301,1094.75,65.49181547619048C1097.1666666666667,65.15525793650795,1099.5833333333333,64.8187003968254,1102,64.48214285714286C1104.4166666666667,64.14558531746032,1106.8333333333333,63.80902777777777,1109.25,63.472470238095234C1111.6666666666667,63.135912698412696,1114.0833333333333,62.79935515873015,1116.5,62.46279761904761C1118.9166666666667,62.126240079365076,1121.3333333333333,61.789682539682545,1123.75,61.45312500000001C1126.1666666666667,61.11656746031747,1128.5833333333333,60.78000992063491,1131,60.44345238095237C1133.4166666666667,60.106894841269835,1135.8333333333333,59.7703373015873,1138.25,59.43377976190476C1140.6666666666667,59.09722222222222,1143.0833333333333,58.76066468253969,1145.5,58.42410714285715C1147.9166666666667,58.087549603174615,1150.3333333333333,57.75099206349206,1152.75,57.41443452380952C1155.1666666666667,57.07787698412697,1157.5833333333333,56.741319444444436,1160,56.4047619047619C1162.4166666666667,56.06820436507936,1164.8333333333333,55.73164682539682,1167.25,55.395089285714285C1169.6666666666667,55.05853174603175,1172.0833333333333,54.7219742063492,1174.5,54.385416666666664C1176.9166666666667,54.04885912698413,1179.3333333333333,53.71230158730158,1181.75,53.375744047619044C1184.1666666666667,53.039186507936506,1186.5833333333333,52.702628968253975,1189,52.36607142857143C1191.4166666666667,52.029513888888886,1193.8333333333333,51.69295634920634,1196.25,51.356398809523796C1198.6666666666667,51.01984126984125,1201.0833333333333,50.68328373015871,1203.5,50.346726190476176C1205.9166666666667,50.01016865079364,1208.3333333333333,49.67361111111111,1210.75,49.33705357142857C1213.1666666666667,49.00049603174603,1215.5833333333333,48.66393849206349,1218,48.32738095238095C1220.4166666666667,47.99082341269841,1222.8333333333333,47.65426587301587,1225.25,47.317708333333336C1227.6666666666667,46.9811507936508,1230.0833333333333,46.64459325396825,1232.5,46.308035714285715C1234.9166666666667,45.97147817460318,1237.3333333333333,45.63492063492065,1239.75,45.29836309523811C1242.1666666666667,44.96180555555557,1244.5833333333333,44.62524801587303,1247,44.28869047619048C1249.4166666666667,43.95213293650794,1251.8333333333333,43.6155753968254,1254.25,43.27901785714286C1256.6666666666667,42.94246031746032,1259.0833333333333,42.60590277777778,1261.5,42.26934523809524C1263.9166666666667,41.9327876984127,1266.3333333333333,41.59623015873016,1268.75,41.25967261904762C1271.1666666666667,40.92311507936508,1273.5833333333333,40.58655753968254,1276,40.25C1278.4166666666667,39.91344246031746,1280.8333333333333,39.576884920634924,1283.25,39.24032738095239C1285.6666666666667,38.90376984126985,1288.0833333333333,38.567212301587304,1290.5,38.230654761904766C1292.9166666666667,37.89409722222223,1295.3333333333333,37.557539682539684,1297.75,37.220982142857146C1300.1666666666667,36.88442460317461,1302.5833333333333,36.54786706349207,1305,36.21130952380953C1307.4166666666667,35.874751984126995,1309.8333333333333,35.53819444444445,1312.25,35.20163690476191C1314.6666666666667,34.865079365079374,1317.0833333333333,34.52852182539684,1319.5,34.19196428571429C1321.9166666666667,33.85540674603175,1324.3333333333333,33.518849206349195,1326.75,33.18229166666666C1329.1666666666667,32.84573412698412,1331.5833333333333,32.50917658730159,1334,32.17261904761905C1336.4166666666667,31.836061507936513,1338.8333333333333,31.49950396825398,1341.25,31.162946428571438C1343.6666666666667,30.826388888888896,1346.0833333333333,30.489831349206344,1348.5,30.153273809523803C1350.9166666666667,29.816716269841262,1353.3333333333333,29.480158730158738,1355.75,29.143601190476197C1358.1666666666667,28.807043650793656,1360.5833333333333,28.470486111111104,1363,28.133928571428562C1365.4166666666667,27.79737103174602,1367.8333333333333,27.46081349206349,1370.25,27.124255952380953C1372.6666666666667,26.787698412698415,1375.0833333333333,26.451140873015884,1377.5,26.114583333333343C1379.9166666666667,25.7780257936508,1382.3333333333333,25.44146825396825,1384.75,25.104910714285708C1387.1666666666667,24.768353174603167,1389.5833333333333,24.431795634920626,1392,24.095238095238088C1394.4166666666667,23.75868055555555,1396.8333333333333,23.42212301587302,1399.25,23.085565476190478C1401.6666666666667,22.749007936507937,1404.0833333333333,22.412450396825385,1406.5,22.075892857142843C1408.9166666666667,21.739335317460302,1411.3333333333333,21.40277777777777,1413.75,21.066220238095234C1416.1666666666667,20.729662698412696,1418.5833333333333,20.393105158730165,1421,20.056547619047624C1423.4166666666667,19.719990079365083,1425.8333333333333,19.38343253968253,1428.25,19.04687499999999C1430.6666666666667,18.710317460317448,1433.0833333333333,18.373759920634914,1435.5,18.03720238095238C1437.9166666666667,17.700644841269845,1440.3333333333333,17.364087301587315,1442.75,17.027529761904773C1445.1666666666667,16.690972222222232,1447.5833333333333,16.354414682539687,1450,16.01785714285714" fill="transparent" stroke-linecap="round" stroke="#B6509E" stroke-width="2"></path><path class="visx-linepath" d="M0,110.89285714284135C2.4166666666666665,110.89022435896514,4.833333333333334,110.88759157508893,7.25,110.88495879120879C9.666666666666666,110.88232600732864,12.083333333333334,110.87969322344323,14.5,110.87706043956044C16.916666666666668,110.87442765567765,19.333333333333332,110.87179487179488,21.75,110.86916208791209C24.166666666666668,110.8665293040293,26.583333333333332,110.86389652014653,29,110.86126373626374C31.416666666666668,110.85863095238095,33.833333333333336,110.85599816849818,36.25,110.85336538461539C38.666666666666664,110.8507326007326,41.083333333333336,110.84809981684982,43.5,110.84546703296704C45.91666666666667,110.84283424908425,48.333333333333336,110.84020146520147,50.75000000000001,110.83756868131869C53.16666666666667,110.8349358974359,55.583333333333336,110.83230311355312,58,110.82967032967034C60.416666666666664,110.82703754578755,62.833333333333336,110.82440476190477,65.25,110.82177197802199C67.66666666666667,110.8191391941392,70.08333333333333,110.81650641025642,72.5,110.81387362637363C74.91666666666667,110.81124084249085,77.33333333333333,110.80860805860806,79.75,110.80597527472527C82.16666666666667,110.80334249084248,84.58333333333333,110.80070970695971,87,110.79807692307692C89.41666666666667,110.79544413919413,91.83333333333333,110.79281135531136,94.25,110.79017857142857C96.66666666666667,110.78754578754578,99.08333333333334,110.78491300366301,101.50000000000001,110.78228021978022C103.91666666666667,110.77964743589743,106.33333333333334,110.77701465201466,108.75,110.77438186813187C111.16666666666667,110.77174908424908,113.58333333333333,110.7691163003663,116,110.76648351648352C118.41666666666667,110.76385073260073,120.83333333333334,110.76121794871796,123.25000000000001,110.75858516483517C125.66666666666667,110.75595238095238,128.08333333333334,110.7533195970696,130.5,110.75068681318682C132.91666666666666,110.74805402930403,135.33333333333334,110.74542124542126,137.75,110.74278846153847C140.16666666666666,110.74015567765568,142.58333333333334,110.7375228937729,145,110.73489010989012C147.41666666666666,110.73225732600733,149.83333333333334,110.72962454212455,152.25,110.72699175824177C154.66666666666666,110.72435897435898,157.08333333333334,110.7217261904762,159.5,110.71909340659342C161.91666666666666,110.71646062271063,164.33333333333334,110.71382783882784,166.75,110.71119505494505C169.16666666666666,110.70856227106226,171.58333333333334,110.70592948717949,174,110.7032967032967C176.41666666666666,110.70066391941391,178.83333333333334,110.69803113553114,181.25,110.69539835164835C183.66666666666666,110.69276556776556,186.08333333333334,110.69013278388279,188.5,110.6875C190.91666666666666,110.68486721611721,193.33333333333334,110.68223443223444,195.75,110.67960164835165C198.16666666666669,110.67696886446886,200.58333333333334,110.67433608058609,203.00000000000003,110.6717032967033C205.41666666666669,110.66907051282051,207.83333333333331,110.66643772893774,210.24999999999997,110.66380494505495C212.66666666666666,110.66117216117216,215.08333333333331,110.65853937728939,217.5,110.6559065934066C219.91666666666666,110.65327380952381,222.33333333333334,110.65064102564104,224.75,110.64800824175825C227.16666666666666,110.64537545787546,229.58333333333334,110.64274267399269,232,110.6401098901099C234.41666666666666,110.63747710622711,236.83333333333334,110.63484432234434,239.25,110.63221153846155C241.66666666666669,110.62957875457876,244.08333333333334,110.62694597069597,246.50000000000003,110.62431318681318C248.91666666666669,110.6216804029304,251.33333333333331,110.61904761904762,253.74999999999997,110.61641483516483C256.16666666666663,110.61378205128204,258.5833333333333,110.61114926739927,261,110.60851648351648C263.4166666666667,110.6058836996337,265.8333333333333,110.60325091575092,268.25,110.60061813186813C270.6666666666667,110.59798534798534,273.0833333333333,110.59535256410257,275.5,110.59271978021978C277.9166666666667,110.59008699633699,280.3333333333333,110.58745421245422,282.75,110.58482142857143C285.1666666666667,110.58218864468864,287.5833333333333,110.57955586080587,290,110.57692307692308C292.4166666666667,110.57429029304029,294.8333333333333,110.57165750915752,297.25,110.56902472527473C299.6666666666667,110.56639194139194,302.0833333333333,110.56375915750917,304.5,110.56112637362638C306.9166666666667,110.55849358974359,309.3333333333333,110.55586080586082,311.75,110.55322802197803C314.1666666666667,110.55059523809524,316.5833333333333,110.54796245421247,319,110.54532967032968C321.4166666666667,110.54269688644689,323.8333333333333,110.54006410256412,326.25,110.53743131868133C328.6666666666667,110.53479853479854,331.0833333333333,110.53216575091575,333.5,110.52953296703296C335.9166666666667,110.52690018315018,338.3333333333333,110.5242673992674,340.75,110.52163461538461C343.1666666666667,110.51900183150182,345.5833333333333,110.51636904761905,348,110.51373626373626C350.4166666666667,110.51110347985347,352.8333333333333,110.5084706959707,355.25,110.50583791208791C357.6666666666667,110.50320512820512,360.0833333333333,110.50057234432235,362.5,110.49793956043956C364.9166666666667,110.49530677655677,367.3333333333333,110.492673992674,369.75,110.49004120879121C372.1666666666667,110.48740842490842,374.5833333333333,110.48477564102565,377,110.48214285714286C379.4166666666667,110.47951007326007,381.8333333333333,110.4768772893773,384.25,110.47424450549451C386.6666666666667,110.47161172161172,389.0833333333333,110.46897893772895,391.5,110.46634615384616C393.9166666666667,110.46371336996337,396.33333333333337,110.4610805860806,398.75000000000006,110.45844780219781C401.16666666666674,110.45581501831502,403.58333333333337,110.45318223443225,406.00000000000006,110.45054945054946C408.4166666666667,110.44791666666667,410.8333333333333,110.4452838827839,413.24999999999994,110.44265109890111C415.66666666666663,110.44001831501832,418.08333333333326,110.43738553113553,420.49999999999994,110.43475274725274C422.91666666666663,110.43211996336996,425.3333333333333,110.42948717948718,427.75,110.4268543956044C430.1666666666667,110.4242216117216,432.5833333333333,110.42158882783883,435,110.41895604395604C437.4166666666667,110.41632326007326,439.8333333333333,110.41369047619048,442.25,110.4110576923077C444.6666666666667,110.4084249084249,447.0833333333333,110.40579212454213,449.5,110.40315934065934C451.9166666666667,110.40052655677655,454.3333333333333,110.39789377289378,456.75,110.39526098901099C459.1666666666667,110.3926282051282,461.5833333333333,110.38999542124543,464,110.38736263736264C466.4166666666667,110.38472985347985,468.8333333333333,110.38209706959708,471.25,110.37946428571429C473.6666666666667,110.3768315018315,476.0833333333333,110.37419871794873,478.5,110.37156593406594C480.9166666666667,110.36893315018315,483.33333333333337,110.36630036630038,485.75000000000006,110.36366758241759C488.16666666666674,110.3610347985348,490.58333333333337,110.35840201465203,493.00000000000006,110.35576923076924C495.4166666666667,110.35313644688645,497.8333333333333,110.35050366300366,500.24999999999994,110.34787087912088C502.66666666666663,110.34523809523809,505.08333333333326,110.34260531135531,507.49999999999994,110.33997252747253C509.91666666666663,110.33733974358974,512.3333333333333,110.33470695970696,514.75,110.33207417582418C517.1666666666666,110.32944139194139,519.5833333333334,110.32680860805861,522,110.32417582417582C524.4166666666666,110.32154304029304,526.8333333333334,110.31891025641026,529.25,110.31627747252747C531.6666666666666,110.31364468864469,534.0833333333334,110.31101190476191,536.5,110.30837912087912C538.9166666666666,110.30574633699634,541.3333333333334,110.30311355311356,543.75,110.30048076923077C546.1666666666666,110.29784798534799,548.5833333333334,110.29521520146521,551,110.29258241758242C553.4166666666666,110.28994963369964,555.8333333333334,110.28731684981686,558.25,110.28468406593407C560.6666666666666,110.28205128205128,563.0833333333334,110.27941849816851,565.5,110.27678571428572C567.9166666666666,110.27415293040293,570.3333333333334,110.27152014652016,572.75,110.26888736263737C575.1666666666666,110.26625457875458,577.5833333333334,110.26362179487181,580,110.26098901098902C582.4166666666666,110.25835622710623,584.8333333333334,110.25572344322345,587.25,110.25309065934066C589.6666666666666,110.25045787545787,592.0833333333334,110.2478250915751,594.5,110.2451923076923C596.9166666666666,110.24255952380952,599.3333333333334,110.23992673992674,601.75,110.23729395604396C604.1666666666666,110.23466117216117,606.5833333333334,110.2320283882784,609,110.2293956043956C611.4166666666666,110.22676282051282,613.8333333333334,110.22413003663004,616.25,110.22149725274726C618.6666666666666,110.21886446886447,621.0833333333334,110.2162316849817,623.5,110.2135989010989C625.9166666666666,110.21096611721612,628.3333333333334,110.20833333333334,630.75,110.20570054945055C633.1666666666666,110.20306776556777,635.5833333333334,110.20043498168499,638,110.1978021978022C640.4166666666666,110.19516941391942,642.8333333333334,110.19253663003664,645.25,110.18990384615385C647.6666666666666,110.18727106227107,650.0833333333334,110.18463827838829,652.5,110.1820054945055C654.9166666666666,110.17937271062272,657.3333333333334,110.17673992673994,659.75,110.17410714285715C662.1666666666666,110.17147435897436,664.5833333333334,110.16884157509159,667,110.1662087912088C669.4166666666666,110.16357600732601,671.8333333333334,110.16094322344323,674.25,110.15831043956044C676.6666666666666,110.15567765567765,679.0833333333334,110.15304487179488,681.5,110.15041208791209C683.9166666666666,110.1477793040293,686.3333333333334,110.14514652014653,688.75,110.14251373626374C691.1666666666666,110.13988095238095,693.5833333333334,110.13724816849818,696,110.13461538461539C698.4166666666666,110.1319826007326,700.8333333333334,110.12934981684982,703.25,110.12671703296704C705.6666666666666,110.12408424908425,708.0833333333334,110.12145146520147,710.5,110.11881868131869C712.9166666666666,110.1161858974359,715.3333333333334,110.11355311355312,717.75,110.11092032967034C720.1666666666666,110.10828754578755,722.5833333333334,110.10565476190477,725,110.10302197802199C727.4166666666666,110.1003891941392,729.8333333333334,110.09775641025642,732.25,110.09512362637363C734.6666666666666,110.09249084249085,737.0833333333334,110.08985805860807,739.5,110.08722527472528C741.9166666666666,110.0845924908425,744.3333333333334,110.08195970695972,746.75,110.07932692307693C749.1666666666666,110.07669413919415,751.5833333333334,110.07669413919415,754,110.07142857142857C756.4166666666666,110.066163003663,758.8333333333334,109.85751488095238,761.25,109.75055803571429C763.6666666666666,109.6436011904762,766.0833333333334,109.5366443452381,768.5,109.4296875C770.9166666666666,109.3227306547619,773.3333333333334,109.21577380952382,775.75,109.10881696428572C778.1666666666666,109.00186011904762,780.5833333333334,108.89490327380953,783,108.78794642857143C785.4166666666667,108.68098958333333,787.8333333333334,108.57403273809524,790.2500000000001,108.46707589285714C792.6666666666667,108.36011904761904,795.0833333333335,108.25316220238093,797.5000000000001,108.14620535714285C799.9166666666667,108.03924851190476,802.3333333333335,107.93229166666666,804.7500000000001,107.82533482142857C807.1666666666667,107.71837797619048,809.5833333333335,107.6114211309524,812.0000000000001,107.50446428571429C814.4166666666667,107.3975074404762,816.8333333333333,107.29055059523809,819.2499999999999,107.18359375C821.6666666666665,107.0766369047619,824.0833333333333,106.96968005952382,826.4999999999999,106.86272321428572C828.9166666666665,106.75576636904762,831.3333333333333,106.64880952380953,833.7499999999999,106.54185267857143C836.1666666666665,106.43489583333333,838.5833333333333,106.32793898809524,840.9999999999999,106.22098214285714C843.4166666666666,106.11402529761904,845.8333333333333,106.00706845238095,848.25,105.90011160714285C850.6666666666666,105.79315476190476,853.0833333333334,105.68619791666666,855.5,105.57924107142857C857.9166666666666,105.47228422619048,860.3333333333334,105.36532738095238,862.75,105.25837053571429C865.1666666666666,105.1514136904762,867.5833333333334,105.0444568452381,870,104.9375C872.4166666666666,104.8305431547619,874.8333333333334,104.72358630952382,877.25,104.61662946428572C879.6666666666666,104.50967261904762,882.0833333333334,104.40271577380953,884.5,104.29575892857143C886.9166666666666,104.18880208333333,889.3333333333334,104.08184523809524,891.75,103.97488839285714C894.1666666666666,103.86793154761904,896.5833333333334,103.76097470238093,899,103.65401785714285C901.4166666666666,103.54706101190476,903.8333333333334,103.44010416666666,906.25,103.33314732142857C908.6666666666666,103.22619047619048,911.0833333333334,103.11923363095238,913.5,103.01227678571429C915.9166666666666,102.9053199404762,918.3333333333334,102.7983630952381,920.75,102.69140625C923.1666666666666,102.5844494047619,925.5833333333334,102.47749255952382,928,102.37053571428572C930.4166666666666,102.26357886904762,932.8333333333334,102.15662202380953,935.25,102.04966517857143C937.6666666666666,101.94270833333333,940.0833333333334,101.83575148809524,942.5,101.72879464285714C944.9166666666666,101.62183779761904,947.3333333333334,101.51488095238093,949.75,101.40792410714285C952.1666666666666,101.30096726190476,954.5833333333334,101.19401041666666,957,101.08705357142857C959.4166666666666,100.98009672619048,961.8333333333334,100.87313988095238,964.25,100.76618303571429C966.6666666666667,100.65922619047619,969.0833333333334,100.5522693452381,971.5000000000001,100.4453125C973.9166666666667,100.33835565476191,976.3333333333335,100.23139880952382,978.7500000000001,100.12444196428572C981.1666666666667,100.01748511904762,983.5833333333335,99.91052827380953,986.0000000000001,99.80357142857143C988.4166666666667,99.69661458333333,990.8333333333335,99.58965773809524,993.2500000000001,99.48270089285714C995.6666666666667,99.37574404761904,998.0833333333333,99.26878720238093,1000.4999999999999,99.16183035714285C1002.9166666666665,99.05487351190474,1005.3333333333333,98.94791666666666,1007.7499999999999,98.84095982142857C1010.1666666666665,98.73400297619048,1012.5833333333333,98.62704613095238,1014.9999999999999,98.52008928571429C1017.4166666666665,98.4131324404762,1019.8333333333333,98.30617559523809,1022.2499999999999,98.19921875C1024.6666666666665,98.0922619047619,1027.0833333333333,97.98530505952382,1029.5,97.87834821428572C1031.9166666666667,97.77139136904763,1034.3333333333333,97.66443452380953,1036.75,97.55747767857143C1039.1666666666667,97.45052083333333,1041.5833333333333,97.34356398809524,1044,97.23660714285714C1046.4166666666667,97.12965029761904,1048.8333333333333,97.02269345238093,1051.25,96.91573660714285C1053.6666666666667,96.80877976190476,1056.0833333333333,96.70182291666666,1058.5,96.59486607142857C1060.9166666666667,96.48790922619048,1063.3333333333333,96.38095238095238,1065.75,96.27399553571429C1068.1666666666667,96.1670386904762,1070.5833333333333,96.0600818452381,1073,95.953125C1075.4166666666667,95.8461681547619,1077.8333333333333,95.73921130952382,1080.25,95.63225446428572C1082.6666666666667,95.52529761904762,1085.0833333333333,95.41834077380953,1087.5,95.31138392857143C1089.9166666666667,95.20442708333333,1092.3333333333333,95.09747023809524,1094.75,94.99051339285714C1097.1666666666667,94.88355654761904,1099.5833333333333,94.77659970238093,1102,94.66964285714285C1104.4166666666667,94.56268601190476,1106.8333333333333,94.45572916666666,1109.25,94.34877232142857C1111.6666666666667,94.24181547619048,1114.0833333333333,94.13485863095238,1116.5,94.02790178571429C1118.9166666666667,93.9209449404762,1121.3333333333333,93.8139880952381,1123.75,93.70703125C1126.1666666666667,93.6000744047619,1128.5833333333333,93.49311755952382,1131,93.38616071428572C1133.4166666666667,93.27920386904762,1135.8333333333333,93.17224702380953,1138.25,93.06529017857143C1140.6666666666667,92.95833333333333,1143.0833333333333,92.85137648809524,1145.5,92.74441964285714C1147.9166666666667,92.63746279761904,1150.3333333333333,92.53050595238093,1152.75,92.42354910714285C1155.1666666666667,92.31659226190476,1157.5833333333333,92.20963541666666,1160,92.10267857142857C1162.4166666666667,91.99572172619048,1164.8333333333333,91.88876488095238,1167.25,91.78180803571429C1169.6666666666667,91.6748511904762,1172.0833333333333,91.5678943452381,1174.5,91.4609375C1176.9166666666667,91.3539806547619,1179.3333333333333,91.24702380952382,1181.75,91.14006696428572C1184.1666666666667,91.03311011904762,1186.5833333333333,90.92615327380953,1189,90.81919642857143C1191.4166666666667,90.71223958333333,1193.8333333333333,90.60528273809524,1196.25,90.49832589285714C1198.6666666666667,90.39136904761904,1201.0833333333333,90.28441220238093,1203.5,90.17745535714285C1205.9166666666667,90.07049851190476,1208.3333333333333,89.96354166666666,1210.75,89.85658482142857C1213.1666666666667,89.74962797619048,1215.5833333333333,89.64267113095238,1218,89.53571428571429C1220.4166666666667,89.4287574404762,1222.8333333333333,89.3218005952381,1225.25,89.21484375C1227.6666666666667,89.1078869047619,1230.0833333333333,89.00093005952382,1232.5,88.89397321428572C1234.9166666666667,88.78701636904762,1237.3333333333333,88.68005952380953,1239.75,88.57310267857143C1242.1666666666667,88.46614583333333,1244.5833333333333,88.35918898809524,1247,88.25223214285714C1249.4166666666667,88.14527529761904,1251.8333333333333,88.03831845238093,1254.25,87.93136160714285C1256.6666666666667,87.82440476190476,1259.0833333333333,87.71744791666666,1261.5,87.61049107142857C1263.9166666666667,87.50353422619048,1266.3333333333333,87.39657738095238,1268.75,87.28962053571429C1271.1666666666667,87.1826636904762,1273.5833333333333,87.0757068452381,1276,86.96875C1278.4166666666667,86.8617931547619,1280.8333333333333,86.75483630952382,1283.25,86.64787946428572C1285.6666666666667,86.54092261904762,1288.0833333333333,86.43396577380953,1290.5,86.32700892857143C1292.9166666666667,86.22005208333333,1295.3333333333333,86.11309523809524,1297.75,86.00613839285714C1300.1666666666667,85.89918154761904,1302.5833333333333,85.79222470238093,1305,85.68526785714285C1307.4166666666667,85.57831101190476,1309.8333333333333,85.47135416666666,1312.25,85.36439732142857C1314.6666666666667,85.25744047619048,1317.0833333333333,85.15048363095238,1319.5,85.04352678571429C1321.9166666666667,84.9365699404762,1324.3333333333333,84.8296130952381,1326.75,84.72265625C1329.1666666666667,84.6156994047619,1331.5833333333333,84.50874255952382,1334,84.40178571428572C1336.4166666666667,84.29482886904762,1338.8333333333333,84.18787202380953,1341.25,84.08091517857143C1343.6666666666667,83.97395833333333,1346.0833333333333,83.86700148809524,1348.5,83.76004464285714C1350.9166666666667,83.65308779761904,1353.3333333333333,83.54613095238093,1355.75,83.43917410714285C1358.1666666666667,83.33221726190476,1360.5833333333333,83.22526041666666,1363,83.11830357142857C1365.4166666666667,83.01134672619048,1367.8333333333333,82.90438988095238,1370.25,82.79743303571429C1372.6666666666667,82.6904761904762,1375.0833333333333,82.5835193452381,1377.5,82.4765625C1379.9166666666667,82.3696056547619,1382.3333333333333,82.26264880952382,1384.75,82.15569196428572C1387.1666666666667,82.04873511904762,1389.5833333333333,81.94177827380953,1392,81.83482142857143C1394.4166666666667,81.72786458333333,1396.8333333333333,81.62090773809524,1399.25,81.51395089285714C1401.6666666666667,81.40699404761904,1404.0833333333333,81.30003720238093,1406.5,81.19308035714285C1408.9166666666667,81.08612351190476,1411.3333333333333,80.97916666666666,1413.75,80.87220982142857C1416.1666666666667,80.76525297619048,1418.5833333333333,80.65829613095238,1421,80.55133928571429C1423.4166666666667,80.4443824404762,1425.8333333333333,80.3374255952381,1428.25,80.23046875C1430.6666666666667,80.1235119047619,1433.0833333333333,80.01655505952382,1435.5,79.90959821428572C1437.9166666666667,79.80264136904762,1440.3333333333333,79.69568452380953,1442.75,79.58872767857143C1445.1666666666667,79.48177083333333,1447.5833333333333,79.37481398809524,1450,79.26785714285714" fill="transparent" stroke-linecap="round" stroke="#E7C6DF" stroke-width="2"></path><g class="visx-group visx-axis visx-axis-bottom" transform="translate(0, 115)"><g class="visx-group visx-axis-tick" transform="translate(0, 0)"><line class="visx-line" x1="0" y1="0" x2="0" y2="8" fill="transparent" shape-rendering="crispEdges" stroke="#000" stroke-width="0" stroke-linecap="square"></line><svg x="0" y="0" font-size="10" style="overflow:visible"><text transform="" x="0" y="18" fill="#000" font-size="10" text-anchor="middle"><tspan x="0" dy="0em">0%</tspan></text></svg></g><g class="visx-group visx-axis-tick" transform="translate(0, 0)"><line class="visx-line" x1="362.5" y1="0" x2="362.5" y2="8" fill="transparent" shape-rendering="crispEdges" stroke="#000" stroke-width="0" stroke-linecap="square"></line><svg x="0" y="0" font-size="10" style="overflow:visible"><text transform="" x="362.5" y="18" fill="#000" font-size="10" text-anchor="middle"><tspan x="362.5" dy="0em">25%</tspan></text></svg></g><g class="visx-group visx-axis-tick" transform="translate(0, 0)"><line class="visx-line" x1="725" y1="0" x2="725" y2="8" fill="transparent" shape-rendering="crispEdges" stroke="#000" stroke-width="0" stroke-linecap="square"></line><svg x="0" y="0" font-size="10" style="overflow:visible"><text transform="" x="725" y="18" fill="#000" font-size="10" text-anchor="middle"><tspan x="725" dy="0em">50%</tspan></text></svg></g><g class="visx-group visx-axis-tick" transform="translate(0, 0)"><line class="visx-line" x1="1087.5" y1="0" x2="1087.5" y2="8" fill="transparent" shape-rendering="crispEdges" stroke="#000" stroke-width="0" stroke-linecap="square"></line><svg x="0" y="0" font-size="10" style="overflow:visible"><text transform="" x="1087.5" y="18" fill="#000" font-size="10" text-anchor="middle"><tspan x="1087.5" dy="0em">75%</tspan></text></svg></g><g class="visx-group visx-axis-tick" transform="translate(0, 0)"><line class="visx-line" x1="1450" y1="0" x2="1450" y2="8" fill="transparent" shape-rendering="crispEdges" stroke="#000" stroke-width="0" stroke-linecap="square"></line><svg x="0" y="0" font-size="10" style="overflow:visible"><text transform="" x="1450" y="18" fill="#000" font-size="10" text-anchor="middle"><tspan x="1450" dy="0em">100%</tspan></text></svg></g><line class="visx-line visx-axis-line" x1="0.5" y1="0" x2="1450.5" y2="0" fill="transparent" shape-rendering="crispEdges" stroke="#222" stroke-width="0"></line></g><g class="visx-group visx-axis visx-axis-left" transform="translate(0, 0)"><g class="visx-group visx-axis-tick" transform="translate(0, 0)"><line class="visx-line" x1="0" y1="115" x2="-8" y2="115" fill="transparent" shape-rendering="crispEdges" stroke="#222" stroke-width="0" stroke-linecap="square"></line><svg x="-30" y="0" font-size="8" style="overflow:visible"><text transform="" x="-8" y="115" fill="#000" font-size="8" text-anchor="start"><tspan x="-8" dy="0em">0%</tspan></text></svg></g><g class="visx-group visx-axis-tick" transform="translate(0, 0)"><line class="visx-line" x1="0" y1="73.92857142857142" x2="-8" y2="73.92857142857142" fill="transparent" shape-rendering="crispEdges" stroke="#222" stroke-width="0" stroke-linecap="square"></line><svg x="-30" y="0" font-size="8" style="overflow:visible"><text transform="" x="-8" y="73.92857142857142" fill="#000" font-size="8" text-anchor="start"><tspan x="-8" dy="0em">100%</tspan></text></svg></g><g class="visx-group visx-axis-tick" transform="translate(0, 0)"><line class="visx-line" x1="0" y1="32.857142857142854" x2="-8" y2="32.857142857142854" fill="transparent" shape-rendering="crispEdges" stroke="#222" stroke-width="0" stroke-linecap="square"></line><svg x="-30" y="0" font-size="8" style="overflow:visible"><text transform="" x="-8" y="32.857142857142854" fill="#000" font-size="8" text-anchor="start"><tspan x="-8" dy="0em">200%</tspan></text></svg></g><line class="visx-line visx-axis-line" x1="0" y1="115.5" x2="0" y2="0.5" fill="transparent" shape-rendering="crispEdges" stroke="#222" stroke-width="0"></line></g><rect class="visx-bar" width="1450" height="115" fill="transparent"></rect><line class="visx-line" x1="754" y1="28" x2="754" y2="115" fill="transparent" shape-rendering="crispEdges" stroke="#0062D2" stroke-width="1" pointer-events="none" stroke-dasharray="5,2"></line><svg x="0" y="0" font-size="10px" style="overflow:visible"><text transform="" x="754" y="20" font-size="10px" fill="#fff" stroke="#fff" stroke-width="0.8em" text-anchor="middle"><tspan x="754" dy="0.355em">Optimal 52%</tspan></text></svg><svg x="0" y="0" font-size="10px" style="overflow:visible"><text transform="" x="754" y="20" font-size="10px" fill="#62677B" text-anchor="middle"><tspan x="754" dy="0.355em">Optimal 52%</tspan></text></svg></g></svg>