<?xml version="1.0"?><svg xmlns="http://www.w3.org/2000/svg" xmlns:xlink= "http://www.w3.org/1999/xlink" style="background: white;" width="1500" height="185"> <g style="color: black; font-size: 13px; font-family: sans-serif; transform: translate(18px, 25px);"><g><circle r="3" cx="-6" cy="-5" style="fill: #B6509E" /><text>Borrow APR, variable</text></g><g style="transform: translateX(150px);"><circle r="3" cx="-6" cy="-5" style="fill: rgb(231, 198, 223)" /><text>Borrow APR, stable</text></g><g style="transform: translateX(290px);"><circle r="3" cx="-6" cy="-5" style="fill: rgb(0, 98, 210)" /><text>Utilization Rate</text></g></g><g class="visx-group" transform="translate(40, 50)"><g class="visx-group visx-rows" transform="translate(0, 0)"><line class="visx-line" x1="0" y1="115" x2="1450" y2="115" fill="transparent" shape-rendering="crispEdges" stroke="#000" stroke-width="1" stroke-dasharray="3,3" pointer-events="none"></line><line class="visx-line" x1="0" y1="62.72727272727272" x2="1450" y2="62.72727272727272" fill="transparent" shape-rendering="crispEdges" stroke="#000" stroke-width="1" stroke-dasharray="3,3" pointer-events="none"></line><line class="visx-line" x1="0" y1="10.454545454545459" x2="1450" y2="10.454545454545459" fill="transparent" shape-rendering="crispEdges" stroke="#000" stroke-width="1" stroke-dasharray="3,3" pointer-events="none"></line></g><path class="visx-linepath" d="M0,114.99999999988893C2.4166666666666665,114.98148674235945,4.833333333333334,114.96297348482997,7.25,114.94446022727273C9.666666666666666,114.92594696971548,12.083333333333334,114.90743371212122,14.5,114.88892045454546C16.916666666666668,114.8704071969697,19.333333333333332,114.85189393939395,21.75,114.83338068181818C24.166666666666668,114.81486742424242,26.583333333333332,114.79635416666667,29,114.77784090909091C31.416666666666668,114.75932765151515,33.833333333333336,114.7408143939394,36.25,114.72230113636364C38.666666666666664,114.70378787878788,41.083333333333336,114.68527462121212,43.5,114.66676136363635C45.91666666666667,114.64824810606059,48.333333333333336,114.62973484848484,50.75000000000001,114.61122159090908C53.16666666666667,114.59270833333332,55.583333333333336,114.57419507575757,58,114.55568181818181C60.416666666666664,114.53716856060605,62.833333333333336,114.5186553030303,65.25,114.50014204545454C67.66666666666667,114.48162878787878,70.08333333333333,114.46311553030303,72.5,114.44460227272727C74.91666666666667,114.4260890151515,77.33333333333333,114.40757575757576,79.75,114.3890625C82.16666666666667,114.37054924242423,84.58333333333333,114.3520359848485,87,114.33352272727274C89.41666666666667,114.31500946969697,91.83333333333333,114.29649621212123,94.25,114.27798295454546C96.66666666666667,114.2594696969697,99.08333333333334,114.24095643939395,101.50000000000001,114.22244318181819C103.91666666666667,114.20392992424243,106.33333333333334,114.18541666666667,108.75,114.1669034090909C111.16666666666667,114.14839015151514,113.58333333333333,114.1298768939394,116,114.11136363636363C118.41666666666667,114.09285037878787,120.83333333333334,114.07433712121212,123.25000000000001,114.05582386363636C125.66666666666667,114.0373106060606,128.08333333333334,114.01879734848485,130.5,114.00028409090909C132.91666666666666,113.98177083333333,135.33333333333334,113.96325757575758,137.75,113.94474431818182C140.16666666666666,113.92623106060606,142.58333333333334,113.90771780303031,145,113.88920454545455C147.41666666666666,113.87069128787878,149.83333333333334,113.85217803030304,152.25,113.83366477272727C154.66666666666666,113.81515151515151,157.08333333333334,113.79663825757576,159.5,113.778125C161.91666666666666,113.75961174242424,164.33333333333334,113.7410984848485,166.75,113.72258522727273C169.16666666666666,113.70407196969697,171.58333333333334,113.68555871212122,174,113.66704545454546C176.41666666666666,113.6485321969697,178.83333333333334,113.63001893939395,181.25,113.61150568181819C183.66666666666666,113.59299242424242,186.08333333333334,113.57447916666666,188.5,113.5559659090909C190.91666666666666,113.53745265151514,193.33333333333334,113.51893939393939,195.75,113.50042613636363C198.16666666666669,113.48191287878787,200.58333333333334,113.46339962121212,203.00000000000003,113.44488636363636C205.41666666666669,113.4263731060606,207.83333333333331,113.40785984848485,210.24999999999997,113.38934659090908C212.66666666666666,113.37083333333332,215.08333333333331,113.35232007575758,217.5,113.33380681818181C219.91666666666666,113.31529356060605,222.33333333333334,113.2967803030303,224.75,113.27826704545454C227.16666666666666,113.25975378787878,229.58333333333334,113.24124053030303,232,113.22272727272727C234.41666666666666,113.2042140151515,236.83333333333334,113.18570075757575,239.25,113.1671875C241.66666666666669,113.14867424242424,244.08333333333334,113.1301609848485,246.50000000000003,113.11164772727274C248.91666666666669,113.09313446969699,251.33333333333331,113.07462121212123,253.74999999999997,113.05610795454547C256.16666666666663,113.0375946969697,258.5833333333333,113.01908143939394,261,113.00056818181818C263.4166666666667,112.98205492424242,265.8333333333333,112.96354166666667,268.25,112.94502840909091C270.6666666666667,112.92651515151515,273.0833333333333,112.9080018939394,275.5,112.88948863636364C277.9166666666667,112.87097537878788,280.3333333333333,112.85246212121213,282.75,112.83394886363637C285.1666666666667,112.8154356060606,287.5833333333333,112.79692234848486,290,112.7784090909091C292.4166666666667,112.75989583333333,294.8333333333333,112.74138257575758,297.25,112.72286931818182C299.6666666666667,112.70435606060606,302.0833333333333,112.68584280303031,304.5,112.66732954545455C306.9166666666667,112.64881628787879,309.3333333333333,112.63030303030304,311.75,112.61178977272728C314.1666666666667,112.59327651515152,316.5833333333333,112.57476325757577,319,112.55625C321.4166666666667,112.53773674242424,323.8333333333333,112.5192234848485,326.25,112.50071022727273C328.6666666666667,112.48219696969697,331.0833333333333,112.46368371212121,333.5,112.44517045454545C335.9166666666667,112.42665719696969,338.3333333333333,112.40814393939394,340.75,112.38963068181818C343.1666666666667,112.37111742424241,345.5833333333333,112.35260416666667,348,112.3340909090909C350.4166666666667,112.31557765151514,352.8333333333333,112.2970643939394,355.25,112.27855113636363C357.6666666666667,112.26003787878787,360.0833333333333,112.24152462121212,362.5,112.22301136363636C364.9166666666667,112.2044981060606,367.3333333333333,112.18598484848485,369.75,112.16747159090909C372.1666666666667,112.14895833333333,374.5833333333333,112.13044507575758,377,112.11193181818182C379.4166666666667,112.09341856060605,381.8333333333333,112.0749053030303,384.25,112.05639204545454C386.6666666666667,112.03787878787878,389.0833333333333,112.01936553030303,391.5,112.00085227272727C393.9166666666667,111.98233901515151,396.33333333333337,111.96382575757576,398.75000000000006,111.9453125C401.16666666666674,111.92679924242424,403.58333333333337,111.90828598484849,406.00000000000006,111.88977272727273C408.4166666666667,111.87125946969697,410.8333333333333,111.8527462121212,413.24999999999994,111.83423295454544C415.66666666666663,111.81571969696968,418.08333333333326,111.79720643939393,420.49999999999994,111.77869318181818C422.91666666666663,111.76017992424242,425.3333333333333,111.74166666666667,427.75,111.72315340909091C430.1666666666667,111.70464015151515,432.5833333333333,111.6861268939394,435,111.66761363636364C437.4166666666667,111.64910037878788,439.8333333333333,111.63058712121213,442.25,111.61207386363637C444.6666666666667,111.5935606060606,447.0833333333333,111.57504734848486,449.5,111.5565340909091C451.9166666666667,111.53802083333333,454.3333333333333,111.51950757575759,456.75,111.50099431818182C459.1666666666667,111.48248106060606,461.5833333333333,111.46396780303031,464,111.44545454545455C466.4166666666667,111.42694128787879,468.8333333333333,111.40842803030304,471.25,111.38991477272728C473.6666666666667,111.37140151515152,476.0833333333333,111.35288825757577,478.5,111.33437500000001C480.9166666666667,111.31586174242425,483.33333333333337,111.29734848484848,485.75000000000006,111.27883522727272C488.16666666666674,111.26032196969696,490.58333333333337,111.24180871212121,493.00000000000006,111.22329545454545C495.4166666666667,111.20478219696969,497.8333333333333,111.18626893939394,500.24999999999994,111.16775568181818C502.66666666666663,111.14924242424242,505.08333333333326,111.13072916666667,507.49999999999994,111.1122159090909C509.91666666666663,111.09370265151514,512.3333333333333,111.0751893939394,514.75,111.05667613636363C517.1666666666666,111.03816287878787,519.5833333333334,111.01964962121212,522,111.00113636363636C524.4166666666666,110.9826231060606,526.8333333333334,110.96410984848485,529.25,110.94559659090909C531.6666666666666,110.92708333333333,534.0833333333334,110.90857007575758,536.5,110.89005681818182C538.9166666666666,110.87154356060606,541.3333333333334,110.85303030303031,543.75,110.83451704545455C546.1666666666666,110.81600378787878,548.5833333333334,110.79749053030304,551,110.77897727272727C553.4166666666666,110.76046401515151,555.8333333333334,110.74195075757575,558.25,110.72343749999999C560.6666666666666,110.70492424242423,563.0833333333334,110.68641098484848,565.5,110.66789772727272C567.9166666666666,110.64938446969695,570.3333333333334,110.6308712121212,572.75,110.61235795454544C575.1666666666666,110.59384469696968,577.5833333333334,110.57533143939395,580,110.55681818181819C582.4166666666666,110.53830492424242,584.8333333333334,110.51979166666668,587.25,110.50127840909092C589.6666666666666,110.48276515151515,592.0833333333334,110.4642518939394,594.5,110.44573863636364C596.9166666666666,110.42722537878788,599.3333333333334,110.40871212121213,601.75,110.39019886363637C604.1666666666666,110.37168560606061,606.5833333333334,110.35317234848486,609,110.3346590909091C611.4166666666666,110.31614583333334,613.8333333333334,110.29763257575759,616.25,110.27911931818183C618.6666666666666,110.26060606060607,621.0833333333334,110.24209280303032,623.5,110.22357954545456C625.9166666666666,110.2050662878788,628.3333333333334,110.18655303030303,630.75,110.16803977272727C633.1666666666666,110.1495265151515,635.5833333333334,110.13101325757576,638,110.1125C640.4166666666666,110.09398674242424,642.8333333333334,110.07547348484849,645.25,110.05696022727273C647.6666666666666,110.03844696969696,650.0833333333334,110.01993371212122,652.5,110.00142045454545C654.9166666666666,109.98290719696969,657.3333333333334,109.96439393939394,659.75,109.94588068181818C662.1666666666666,109.92736742424242,664.5833333333334,109.90885416666667,667,109.89034090909091C669.4166666666666,109.87182765151515,671.8333333333334,109.8533143939394,674.25,109.83480113636364C676.6666666666666,109.81628787878788,679.0833333333334,109.79777462121213,681.5,109.77926136363637C683.9166666666666,109.7607481060606,686.3333333333334,109.74223484848486,688.75,109.7237215909091C691.1666666666666,109.70520833333333,693.5833333333334,109.68669507575758,696,109.66818181818182C698.4166666666666,109.64966856060606,700.8333333333334,109.63115530303031,703.25,109.61264204545455C705.6666666666666,109.59412878787879,708.0833333333334,109.57561553030303,710.5,109.55710227272726C712.9166666666666,109.5385890151515,715.3333333333334,109.52007575757575,717.75,109.50156249999999C720.1666666666666,109.48304924242423,722.5833333333334,109.46453598484848,725,109.44602272727272C727.4166666666666,109.42750946969696,729.8333333333334,109.40899621212121,732.25,109.39048295454545C734.6666666666666,109.37196969696969,737.0833333333334,109.35345643939394,739.5,109.33494318181818C741.9166666666666,109.31642992424241,744.3333333333334,109.29791666666667,746.75,109.2794034090909C749.1666666666666,109.26089015151514,751.5833333333334,109.2423768939394,754,109.22386363636363C756.4166666666666,109.20535037878787,758.8333333333334,109.18683712121214,761.25,109.16832386363637C763.6666666666666,109.14981060606061,766.0833333333334,109.13129734848486,768.5,109.1127840909091C770.9166666666666,109.09427083333334,773.3333333333334,109.07575757575758,775.75,109.05724431818182C778.1666666666666,109.03873106060605,780.5833333333334,109.0202178030303,783,109.00170454545454C785.4166666666667,108.98319128787878,787.8333333333334,108.96467803030303,790.2500000000001,108.94616477272727C792.6666666666667,108.92765151515151,795.0833333333335,108.90913825757576,797.5000000000001,108.890625C799.9166666666667,108.87211174242424,802.3333333333335,108.85359848484849,804.7500000000001,108.83508522727273C807.1666666666667,108.81657196969697,809.5833333333335,108.79805871212122,812.0000000000001,108.77954545454546C814.4166666666667,108.7610321969697,816.8333333333333,108.74251893939395,819.2499999999999,108.72400568181818C821.6666666666665,108.70549242424242,824.0833333333333,108.68697916666667,826.4999999999999,108.66846590909091C828.9166666666665,108.64995265151515,831.3333333333333,108.6314393939394,833.7499999999999,108.61292613636364C836.1666666666665,108.59441287878788,838.5833333333333,108.57589962121213,840.9999999999999,108.55738636363637C843.4166666666666,108.5388731060606,845.8333333333333,108.52035984848486,848.25,108.5018465909091C850.6666666666666,108.48333333333333,853.0833333333334,108.46482007575757,855.5,108.44630681818181C857.9166666666666,108.42779356060605,860.3333333333334,108.4092803030303,862.75,108.39076704545454C865.1666666666666,108.37225378787878,867.5833333333334,108.35374053030303,870,108.33522727272727C872.4166666666666,108.3167140151515,874.8333333333334,108.29820075757576,877.25,108.2796875C879.6666666666666,108.26117424242423,882.0833333333334,108.24266098484848,884.5,108.22414772727272C886.9166666666666,108.20563446969696,889.3333333333334,108.18712121212121,891.75,108.16860795454545C894.1666666666666,108.15009469696969,896.5833333333334,108.13158143939394,899,108.11306818181818C901.4166666666666,108.09455492424242,903.8333333333334,108.07604166666667,906.25,108.0575284090909C908.6666666666666,108.03901515151514,911.0833333333334,108.02050189393941,913.5,108.00198863636365C915.9166666666666,107.98347537878789,918.3333333333334,107.96496212121212,920.75,107.94644886363636C923.1666666666666,107.9279356060606,925.5833333333334,107.90942234848485,928,107.89090909090909C930.4166666666666,107.87239583333333,932.8333333333334,107.85388257575758,935.25,107.83536931818182C937.6666666666666,107.81685606060606,940.0833333333334,107.79834280303031,942.5,107.77982954545455C944.9166666666666,107.76131628787878,947.3333333333334,107.74280303030304,949.75,107.72428977272727C952.1666666666666,107.70577651515151,954.5833333333334,107.68726325757576,957,107.66875C959.4166666666666,107.65023674242424,961.8333333333334,107.6317234848485,964.25,107.61321022727273C966.6666666666667,107.59469696969697,969.0833333333334,107.57618371212122,971.5000000000001,107.55767045454546C973.9166666666667,107.5391571969697,976.3333333333335,107.52064393939395,978.7500000000001,107.50213068181819C981.1666666666667,107.48361742424242,983.5833333333335,107.46510416666668,986.0000000000001,107.44659090909092C988.4166666666667,107.42807765151515,990.8333333333335,107.4095643939394,993.2500000000001,107.39105113636364C995.6666666666667,107.37253787878788,998.0833333333333,107.35402462121212,1000.4999999999999,107.33551136363636C1002.9166666666665,107.3169981060606,1005.3333333333333,107.29848484848485,1007.7499999999999,107.27997159090908C1010.1666666666665,107.26145833333332,1012.5833333333333,107.24294507575758,1014.9999999999999,107.22443181818181C1017.4166666666665,107.20591856060605,1019.8333333333333,107.1874053030303,1022.2499999999999,107.16889204545454C1024.6666666666665,107.15037878787878,1027.0833333333333,107.13186553030303,1029.5,107.11335227272727C1031.9166666666667,107.0948390151515,1034.3333333333333,107.07632575757576,1036.75,107.0578125C1039.1666666666667,107.03929924242424,1041.5833333333333,107.02078598484849,1044,107.00227272727273C1046.4166666666667,106.98375946969696,1048.8333333333333,106.96524621212122,1051.25,106.94673295454545C1053.6666666666667,106.92821969696969,1056.0833333333333,106.90970643939394,1058.5,106.89119318181818C1060.9166666666667,106.87267992424242,1063.3333333333333,106.85416666666667,1065.75,106.83565340909091C1068.1666666666667,106.81714015151515,1070.5833333333333,106.7986268939394,1073,106.78011363636364C1075.4166666666667,106.76160037878788,1077.8333333333333,106.74308712121211,1080.25,106.72457386363635C1082.6666666666667,106.70606060606059,1085.0833333333333,106.68754734848486,1087.5,106.6690340909091C1089.9166666666667,106.65052083333333,1092.3333333333333,106.63200757575757,1094.75,106.61349431818181C1097.1666666666667,106.59498106060605,1099.5833333333333,106.57646780303028,1102,106.55795454545454C1104.4166666666667,106.53944128787879,1106.8333333333333,106.52092803030303,1109.25,106.50241477272728C1111.6666666666667,106.48390151515153,1114.0833333333333,106.46538825757577,1116.5,106.446875C1118.9166666666667,106.42836174242424,1121.3333333333333,106.4098484848485,1123.75,106.39133522727273C1126.1666666666667,106.37282196969697,1128.5833333333333,106.35430871212122,1131,106.33579545454546C1133.4166666666667,106.3172821969697,1135.8333333333333,106.29876893939395,1138.25,106.28025568181819C1140.6666666666667,106.26174242424243,1143.0833333333333,106.24322916666667,1145.5,106.2247159090909C1147.9166666666667,106.20620265151514,1150.3333333333333,106.1876893939394,1152.75,106.16917613636363C1155.1666666666667,106.15066287878787,1157.5833333333333,106.15066287878787,1160,106.11363636363636C1162.4166666666667,106.07660984848485,1164.8333333333333,104.59772727272727,1167.25,103.83977272727273C1169.6666666666667,103.08181818181819,1172.0833333333333,102.32386363636363,1174.5,101.56590909090909C1176.9166666666667,100.80795454545455,1179.3333333333333,100.05000000000001,1181.75,99.29204545454546C1184.1666666666667,98.5340909090909,1186.5833333333333,97.77613636363637,1189,97.01818181818182C1191.4166666666667,96.26022727272726,1193.8333333333333,95.50227272727273,1196.25,94.74431818181819C1198.6666666666667,93.98636363636365,1201.0833333333333,93.2284090909091,1203.5,92.47045454545454C1205.9166666666667,91.71249999999999,1208.3333333333333,90.95454545454544,1210.75,90.1965909090909C1213.1666666666667,89.43863636363636,1215.5833333333333,88.68068181818182,1218,87.92272727272727C1220.4166666666667,87.16477272727272,1222.8333333333333,86.40681818181818,1225.25,85.64886363636363C1227.6666666666667,84.89090909090908,1230.0833333333333,84.13295454545454,1232.5,83.375C1234.9166666666667,82.61704545454546,1237.3333333333333,81.85909090909091,1239.75,81.10113636363637C1242.1666666666667,80.34318181818183,1244.5833333333333,79.5852272727273,1247,78.82727272727274C1249.4166666666667,78.06931818181819,1251.8333333333333,77.31136363636364,1254.25,76.55340909090908C1256.6666666666667,75.79545454545453,1259.0833333333333,75.0375,1261.5,74.27954545454546C1263.9166666666667,73.52159090909092,1266.3333333333333,72.76363636363638,1268.75,72.00568181818183C1271.1666666666667,71.24772727272727,1273.5833333333333,70.48977272727274,1276,69.73181818181818C1278.4166666666667,68.97386363636363,1280.8333333333333,68.2159090909091,1283.25,67.45795454545454C1285.6666666666667,66.69999999999999,1288.0833333333333,65.94204545454545,1290.5,65.18409090909091C1292.9166666666667,64.42613636363637,1295.3333333333333,63.668181818181814,1297.75,62.91022727272727C1300.1666666666667,62.152272727272724,1302.5833333333333,61.394318181818186,1305,60.63636363636364C1307.4166666666667,59.878409090909095,1309.8333333333333,59.12045454545455,1312.25,58.362500000000004C1314.6666666666667,57.60454545454546,1317.0833333333333,56.84659090909091,1319.5,56.08863636363636C1321.9166666666667,55.330681818181816,1324.3333333333333,54.57272727272726,1326.75,53.81477272727272C1329.1666666666667,53.05681818181817,1331.5833333333333,52.29886363636364,1334,51.540909090909096C1336.4166666666667,50.78295454545455,1338.8333333333333,50.025000000000006,1341.25,49.26704545454546C1343.6666666666667,48.509090909090915,1346.0833333333333,47.75113636363637,1348.5,46.993181818181824C1350.9166666666667,46.23522727272728,1353.3333333333333,45.477272727272734,1355.75,44.71931818181819C1358.1666666666667,43.96136363636364,1360.5833333333333,43.2034090909091,1363,42.44545454545455C1365.4166666666667,41.68750000000001,1367.8333333333333,40.92954545454545,1370.25,40.1715909090909C1372.6666666666667,39.41363636363636,1375.0833333333333,38.655681818181826,1377.5,37.89772727272728C1379.9166666666667,37.139772727272735,1382.3333333333333,36.38181818181818,1384.75,35.62386363636364C1387.1666666666667,34.86590909090909,1389.5833333333333,34.10795454545454,1392,33.349999999999994C1394.4166666666667,32.59204545454545,1396.8333333333333,31.834090909090914,1399.25,31.07613636363637C1401.6666666666667,30.318181818181824,1404.0833333333333,29.560227272727264,1406.5,28.80227272727272C1408.9166666666667,28.044318181818173,1411.3333333333333,27.286363636363635,1413.75,26.528409090909093C1416.1666666666667,25.77045454545455,1418.5833333333333,25.012500000000006,1421,24.254545454545458C1423.4166666666667,23.49659090909091,1425.8333333333333,22.73863636363635,1428.25,21.980681818181807C1430.6666666666667,21.222727272727266,1433.0833333333333,20.464772727272738,1435.5,19.706818181818196C1437.9166666666667,18.948863636363654,1440.3333333333333,18.190909090909095,1442.75,17.432954545454546C1445.1666666666667,16.674999999999997,1447.5833333333333,15.917045454545454,1450,15.15909090909091" fill="transparent" stroke-linecap="round" stroke="#B6509E" stroke-width="2"></path><path class="visx-linepath" d="M0,104.54545454542841C2.4166666666666665,104.54109848483324,4.833333333333334,104.53674242423807,7.25,104.53238636363636C9.666666666666666,104.52803030303465,12.083333333333334,104.52367424242424,14.5,104.51931818181818C16.916666666666668,104.51496212121212,19.333333333333332,104.51060606060605,21.75,104.50625C24.166666666666668,104.50189393939394,26.583333333333332,104.49753787878788,29,104.49318181818182C31.416666666666668,104.48882575757577,33.833333333333336,104.4844696969697,36.25,104.48011363636364C38.666666666666664,104.47575757575758,41.083333333333336,104.47140151515151,43.5,104.46704545454546C45.91666666666667,104.4626893939394,48.333333333333336,104.45833333333333,50.75000000000001,104.45397727272727C53.16666666666667,104.44962121212122,55.583333333333336,104.44526515151514,58,104.44090909090909C60.416666666666664,104.43655303030303,62.833333333333336,104.43219696969696,65.25,104.4278409090909C67.66666666666667,104.42348484848485,70.08333333333333,104.41912878787879,72.5,104.41477272727273C74.91666666666667,104.41041666666668,77.33333333333333,104.4060606060606,79.75,104.40170454545455C82.16666666666667,104.3973484848485,84.58333333333333,104.39299242424242,87,104.38863636363637C89.41666666666667,104.38428030303031,91.83333333333333,104.37992424242424,94.25,104.37556818181818C96.66666666666667,104.37121212121212,99.08333333333334,104.36685606060605,101.50000000000001,104.3625C103.91666666666667,104.35814393939394,106.33333333333334,104.35378787878787,108.75,104.34943181818181C111.16666666666667,104.34507575757576,113.58333333333333,104.34071969696969,116,104.33636363636363C118.41666666666667,104.33200757575757,120.83333333333334,104.32765151515152,123.25000000000001,104.32329545454546C125.66666666666667,104.3189393939394,128.08333333333334,104.31458333333332,130.5,104.31022727272726C132.91666666666666,104.3058712121212,135.33333333333334,104.30151515151515,137.75,104.29715909090909C140.16666666666666,104.29280303030303,142.58333333333334,104.28844696969696,145,104.2840909090909C147.41666666666666,104.27973484848485,149.83333333333334,104.2753787878788,152.25,104.27102272727274C154.66666666666666,104.26666666666668,157.08333333333334,104.26231060606061,159.5,104.25795454545455C161.91666666666666,104.2535984848485,164.33333333333334,104.24924242424242,166.75,104.24488636363637C169.16666666666666,104.24053030303031,171.58333333333334,104.23617424242424,174,104.23181818181818C176.41666666666666,104.22746212121213,178.83333333333334,104.22310606060606,181.25,104.21875C183.66666666666666,104.21439393939394,186.08333333333334,104.21003787878787,188.5,104.20568181818182C190.91666666666666,104.20132575757576,193.33333333333334,104.19696969696969,195.75,104.19261363636363C198.16666666666669,104.18825757575758,200.58333333333334,104.1839015151515,203.00000000000003,104.17954545454545C205.41666666666669,104.17518939393939,207.83333333333331,104.17083333333332,210.24999999999997,104.16647727272726C212.66666666666666,104.1621212121212,215.08333333333331,104.15776515151515,217.5,104.1534090909091C219.91666666666666,104.14905303030304,222.33333333333334,104.14469696969697,224.75,104.14034090909091C227.16666666666666,104.13598484848485,229.58333333333334,104.1316287878788,232,104.12727272727274C234.41666666666666,104.12291666666668,236.83333333333334,104.11856060606061,239.25,104.11420454545456C241.66666666666669,104.1098484848485,244.08333333333334,104.10549242424243,246.50000000000003,104.10113636363637C248.91666666666669,104.09678030303031,251.33333333333331,104.09242424242424,253.74999999999997,104.08806818181819C256.16666666666663,104.08371212121213,258.5833333333333,104.07935606060606,261,104.075C263.4166666666667,104.07064393939395,265.8333333333333,104.06628787878788,268.25,104.06193181818182C270.6666666666667,104.05757575757576,273.0833333333333,104.05321969696969,275.5,104.04886363636363C277.9166666666667,104.04450757575758,280.3333333333333,104.0401515151515,282.75,104.03579545454545C285.1666666666667,104.0314393939394,287.5833333333333,104.02708333333332,290,104.02272727272727C292.4166666666667,104.01837121212121,294.8333333333333,104.01401515151515,297.25,104.0096590909091C299.6666666666667,104.00530303030304,302.0833333333333,104.00094696969697,304.5,103.99659090909091C306.9166666666667,103.99223484848486,309.3333333333333,103.98787878787878,311.75,103.98352272727273C314.1666666666667,103.97916666666667,316.5833333333333,103.9748106060606,319,103.97045454545454C321.4166666666667,103.96609848484849,323.8333333333333,103.96174242424242,326.25,103.95738636363636C328.6666666666667,103.9530303030303,331.0833333333333,103.94867424242423,333.5,103.94431818181818C335.9166666666667,103.93996212121212,338.3333333333333,103.93560606060606,340.75,103.93125C343.1666666666667,103.92689393939395,345.5833333333333,103.92253787878788,348,103.91818181818182C350.4166666666667,103.91382575757576,352.8333333333333,103.9094696969697,355.25,103.90511363636364C357.6666666666667,103.90075757575758,360.0833333333333,103.89640151515151,362.5,103.89204545454545C364.9166666666667,103.8876893939394,367.3333333333333,103.88333333333333,369.75,103.87897727272727C372.1666666666667,103.87462121212121,374.5833333333333,103.87026515151516,377,103.8659090909091C379.4166666666667,103.86155303030304,381.8333333333333,103.85719696969697,384.25,103.85284090909092C386.6666666666667,103.84848484848486,389.0833333333333,103.84412878787879,391.5,103.83977272727273C393.9166666666667,103.83541666666667,396.33333333333337,103.8310606060606,398.75000000000006,103.82670454545455C401.16666666666674,103.82234848484849,403.58333333333337,103.81799242424242,406.00000000000006,103.81363636363636C408.4166666666667,103.8092803030303,410.8333333333333,103.80492424242424,413.24999999999994,103.80056818181818C415.66666666666663,103.79621212121212,418.08333333333326,103.79185606060605,420.49999999999994,103.7875C422.91666666666663,103.78314393939394,425.3333333333333,103.77878787878787,427.75,103.77443181818181C430.1666666666667,103.77007575757575,432.5833333333333,103.76571969696968,435,103.76136363636363C437.4166666666667,103.75700757575757,439.8333333333333,103.7526515151515,442.25,103.74829545454544C444.6666666666667,103.74393939393939,447.0833333333333,103.73958333333333,449.5,103.73522727272727C451.9166666666667,103.73087121212122,454.3333333333333,103.72651515151516,456.75,103.7221590909091C459.1666666666667,103.71780303030305,461.5833333333333,103.71344696969697,464,103.70909090909092C466.4166666666667,103.70473484848486,468.8333333333333,103.70037878787879,471.25,103.69602272727273C473.6666666666667,103.69166666666668,476.0833333333333,103.6873106060606,478.5,103.68295454545455C480.9166666666667,103.6785984848485,483.33333333333337,103.67424242424242,485.75000000000006,103.66988636363637C488.16666666666674,103.66553030303031,490.58333333333337,103.66117424242424,493.00000000000006,103.65681818181818C495.4166666666667,103.65246212121212,497.8333333333333,103.64810606060605,500.24999999999994,103.64375C502.66666666666663,103.63939393939394,505.08333333333326,103.63503787878787,507.49999999999994,103.63068181818181C509.91666666666663,103.62632575757576,512.3333333333333,103.62196969696969,514.75,103.61761363636363C517.1666666666666,103.61325757575757,519.5833333333334,103.6089015151515,522,103.60454545454544C524.4166666666666,103.60018939393939,526.8333333333334,103.59583333333333,529.25,103.59147727272727C531.6666666666666,103.58712121212122,534.0833333333334,103.58276515151515,536.5,103.57840909090909C538.9166666666666,103.57405303030303,541.3333333333334,103.56969696969698,543.75,103.56534090909092C546.1666666666666,103.56098484848486,548.5833333333334,103.5566287878788,551,103.55227272727274C553.4166666666666,103.54791666666668,555.8333333333334,103.54356060606061,558.25,103.53920454545455C560.6666666666666,103.5348484848485,563.0833333333334,103.53049242424242,565.5,103.52613636363637C567.9166666666666,103.52178030303031,570.3333333333334,103.51742424242424,572.75,103.51306818181818C575.1666666666666,103.50871212121213,577.5833333333334,103.50435606060606,580,103.5C582.4166666666666,103.49564393939394,584.8333333333334,103.49128787878787,587.25,103.48693181818182C589.6666666666666,103.48257575757576,592.0833333333334,103.47821969696969,594.5,103.47386363636363C596.9166666666666,103.46950757575758,599.3333333333334,103.4651515151515,601.75,103.46079545454545C604.1666666666666,103.45643939393939,606.5833333333334,103.45208333333333,609,103.44772727272728C611.4166666666666,103.44337121212122,613.8333333333334,103.43901515151515,616.25,103.4346590909091C618.6666666666666,103.43030303030304,621.0833333333334,103.42594696969697,623.5,103.42159090909091C625.9166666666666,103.41723484848485,628.3333333333334,103.41287878787878,630.75,103.40852272727273C633.1666666666666,103.40416666666667,635.5833333333334,103.3998106060606,638,103.39545454545454C640.4166666666666,103.39109848484848,642.8333333333334,103.38674242424241,645.25,103.38238636363636C647.6666666666666,103.3780303030303,650.0833333333334,103.37367424242424,652.5,103.36931818181819C654.9166666666666,103.36496212121213,657.3333333333334,103.36060606060606,659.75,103.35625C662.1666666666666,103.35189393939395,664.5833333333334,103.34753787878788,667,103.34318181818182C669.4166666666666,103.33882575757576,671.8333333333334,103.33446969696969,674.25,103.33011363636363C676.6666666666666,103.32575757575758,679.0833333333334,103.3214015151515,681.5,103.31704545454545C683.9166666666666,103.3126893939394,686.3333333333334,103.30833333333334,688.75,103.30397727272728C691.1666666666666,103.29962121212122,693.5833333333334,103.29526515151515,696,103.2909090909091C698.4166666666666,103.28655303030304,700.8333333333334,103.28219696969697,703.25,103.27784090909091C705.6666666666666,103.27348484848486,708.0833333333334,103.26912878787878,710.5,103.26477272727273C712.9166666666666,103.26041666666667,715.3333333333334,103.2560606060606,717.75,103.25170454545454C720.1666666666666,103.24734848484849,722.5833333333334,103.24299242424242,725,103.23863636363636C727.4166666666666,103.2342803030303,729.8333333333334,103.22992424242423,732.25,103.22556818181818C734.6666666666666,103.22121212121212,737.0833333333334,103.21685606060605,739.5,103.21249999999999C741.9166666666666,103.20814393939393,744.3333333333334,103.20378787878786,746.75,103.19943181818181C749.1666666666666,103.19507575757575,751.5833333333334,103.1907196969697,754,103.18636363636364C756.4166666666666,103.18200757575758,758.8333333333334,103.17765151515152,761.25,103.17329545454547C763.6666666666666,103.16893939393941,766.0833333333334,103.16458333333333,768.5,103.16022727272727C770.9166666666666,103.15587121212121,773.3333333333334,103.15151515151516,775.75,103.1471590909091C778.1666666666666,103.14280303030304,780.5833333333334,103.13844696969697,783,103.13409090909092C785.4166666666667,103.12973484848486,787.8333333333334,103.12537878787879,790.2500000000001,103.12102272727273C792.6666666666667,103.11666666666667,795.0833333333335,103.1123106060606,797.5000000000001,103.10795454545455C799.9166666666667,103.10359848484849,802.3333333333335,103.09924242424242,804.7500000000001,103.09488636363636C807.1666666666667,103.0905303030303,809.5833333333335,103.08617424242424,812.0000000000001,103.08181818181818C814.4166666666667,103.07746212121212,816.8333333333333,103.07310606060605,819.2499999999999,103.06875C821.6666666666665,103.06439393939394,824.0833333333333,103.06003787878787,826.4999999999999,103.05568181818181C828.9166666666665,103.05132575757575,831.3333333333333,103.0469696969697,833.7499999999999,103.04261363636364C836.1666666666665,103.03825757575758,838.5833333333333,103.03390151515151,840.9999999999999,103.02954545454546C843.4166666666666,103.0251893939394,845.8333333333333,103.02083333333333,848.25,103.01647727272727C850.6666666666666,103.01212121212122,853.0833333333334,103.00776515151516,855.5,103.0034090909091C857.9166666666666,102.99905303030305,860.3333333333334,102.99469696969696,862.75,102.9903409090909C865.1666666666666,102.98598484848485,867.5833333333334,102.98162878787879,870,102.97727272727273C872.4166666666666,102.97291666666668,874.8333333333334,102.96856060606059,877.25,102.96420454545454C879.6666666666666,102.95984848484848,882.0833333333334,102.95549242424242,884.5,102.95113636363637C886.9166666666666,102.94678030303031,889.3333333333334,102.94242424242424,891.75,102.93806818181818C894.1666666666666,102.93371212121212,896.5833333333334,102.92935606060605,899,102.925C901.4166666666666,102.92064393939394,903.8333333333334,102.91628787878787,906.25,102.91193181818181C908.6666666666666,102.90757575757576,911.0833333333334,102.9032196969697,913.5,102.89886363636364C915.9166666666666,102.89450757575759,918.3333333333334,102.89015151515152,920.75,102.88579545454546C923.1666666666666,102.8814393939394,925.5833333333334,102.87708333333333,928,102.87272727272727C930.4166666666666,102.86837121212122,932.8333333333334,102.86401515151515,935.25,102.85965909090909C937.6666666666666,102.85530303030303,940.0833333333334,102.85094696969696,942.5,102.8465909090909C944.9166666666666,102.84223484848485,947.3333333333334,102.83787878787878,949.75,102.83352272727272C952.1666666666666,102.82916666666667,954.5833333333334,102.8248106060606,957,102.82045454545454C959.4166666666666,102.81609848484848,961.8333333333334,102.81174242424241,964.25,102.80738636363635C966.6666666666667,102.8030303030303,969.0833333333334,102.79867424242423,971.5000000000001,102.79431818181817C973.9166666666667,102.78996212121211,976.3333333333335,102.78560606060606,978.7500000000001,102.78125C981.1666666666667,102.77689393939394,983.5833333333335,102.77253787878787,986.0000000000001,102.76818181818182C988.4166666666667,102.76382575757576,990.8333333333335,102.7594696969697,993.2500000000001,102.75511363636365C995.6666666666667,102.75075757575759,998.0833333333333,102.74640151515152,1000.4999999999999,102.74204545454546C1002.9166666666665,102.7376893939394,1005.3333333333333,102.73333333333333,1007.7499999999999,102.72897727272728C1010.1666666666665,102.72462121212122,1012.5833333333333,102.72026515151515,1014.9999999999999,102.7159090909091C1017.4166666666665,102.71155303030304,1019.8333333333333,102.70719696969697,1022.2499999999999,102.70284090909091C1024.6666666666665,102.69848484848485,1027.0833333333333,102.69412878787878,1029.5,102.68977272727273C1031.9166666666667,102.68541666666667,1034.3333333333333,102.6810606060606,1036.75,102.67670454545454C1039.1666666666667,102.67234848484848,1041.5833333333333,102.66799242424241,1044,102.66363636363636C1046.4166666666667,102.6592803030303,1048.8333333333333,102.65492424242423,1051.25,102.65056818181817C1053.6666666666667,102.64621212121212,1056.0833333333333,102.64185606060605,1058.5,102.63749999999999C1060.9166666666667,102.63314393939393,1063.3333333333333,102.62878787878788,1065.75,102.62443181818182C1068.1666666666667,102.62007575757576,1070.5833333333333,102.6157196969697,1073,102.61136363636365C1075.4166666666667,102.60700757575759,1077.8333333333333,102.60265151515152,1080.25,102.59829545454546C1082.6666666666667,102.59393939393941,1085.0833333333333,102.58958333333334,1087.5,102.58522727272728C1089.9166666666667,102.58087121212122,1092.3333333333333,102.57651515151515,1094.75,102.5721590909091C1097.1666666666667,102.56780303030304,1099.5833333333333,102.56344696969697,1102,102.55909090909091C1104.4166666666667,102.55473484848486,1106.8333333333333,102.55037878787878,1109.25,102.54602272727273C1111.6666666666667,102.54166666666667,1114.0833333333333,102.5373106060606,1116.5,102.53295454545454C1118.9166666666667,102.52859848484849,1121.3333333333333,102.52424242424242,1123.75,102.51988636363636C1126.1666666666667,102.5155303030303,1128.5833333333333,102.51117424242423,1131,102.50681818181818C1133.4166666666667,102.50246212121212,1135.8333333333333,102.49810606060605,1138.25,102.49374999999999C1140.6666666666667,102.48939393939393,1143.0833333333333,102.48503787878788,1145.5,102.48068181818182C1147.9166666666667,102.47632575757576,1150.3333333333333,102.4719696969697,1152.75,102.46761363636364C1155.1666666666667,102.46325757575758,1157.5833333333333,102.46325757575758,1160,102.45454545454545C1162.4166666666667,102.44583333333333,1164.8333333333333,101.14772727272727,1167.25,100.49431818181817C1169.6666666666667,99.84090909090908,1172.0833333333333,99.1875,1174.5,98.5340909090909C1176.9166666666667,97.88068181818181,1179.3333333333333,97.22727272727273,1181.75,96.57386363636364C1184.1666666666667,95.92045454545455,1186.5833333333333,95.26704545454545,1189,94.61363636363636C1191.4166666666667,93.96022727272727,1193.8333333333333,93.30681818181819,1196.25,92.6534090909091C1198.6666666666667,92,1201.0833333333333,91.3465909090909,1203.5,90.69318181818181C1205.9166666666667,90.03977272727272,1208.3333333333333,89.38636363636364,1210.75,88.73295454545455C1213.1666666666667,88.07954545454545,1215.5833333333333,87.42613636363636,1218,86.77272727272727C1220.4166666666667,86.11931818181817,1222.8333333333333,85.4659090909091,1225.25,84.8125C1227.6666666666667,84.1590909090909,1230.0833333333333,83.50568181818183,1232.5,82.85227272727273C1234.9166666666667,82.19886363636364,1237.3333333333333,81.54545454545455,1239.75,80.89204545454545C1242.1666666666667,80.23863636363636,1244.5833333333333,79.58522727272727,1247,78.93181818181817C1249.4166666666667,78.27840909090908,1251.8333333333333,77.625,1254.25,76.9715909090909C1256.6666666666667,76.31818181818181,1259.0833333333333,75.66477272727273,1261.5,75.01136363636364C1263.9166666666667,74.35795454545455,1266.3333333333333,73.70454545454545,1268.75,73.05113636363636C1271.1666666666667,72.39772727272727,1273.5833333333333,71.74431818181819,1276,71.0909090909091C1278.4166666666667,70.4375,1280.8333333333333,69.7840909090909,1283.25,69.13068181818181C1285.6666666666667,68.47727272727272,1288.0833333333333,67.82386363636364,1290.5,67.17045454545455C1292.9166666666667,66.51704545454545,1295.3333333333333,65.86363636363636,1297.75,65.21022727272727C1300.1666666666667,64.55681818181817,1302.5833333333333,63.90340909090909,1305,63.25000000000001C1307.4166666666667,62.59659090909092,1309.8333333333333,61.94318181818182,1312.25,61.28977272727273C1314.6666666666667,60.63636363636363,1317.0833333333333,59.98295454545455,1319.5,59.32954545454545C1321.9166666666667,58.67613636363636,1324.3333333333333,58.02272727272727,1326.75,57.36931818181819C1329.1666666666667,56.7159090909091,1331.5833333333333,56.062500000000014,1334,55.40909090909092C1336.4166666666667,54.75568181818183,1338.8333333333333,54.10227272727273,1341.25,53.44886363636363C1343.6666666666667,52.79545454545454,1346.0833333333333,52.142045454545446,1348.5,51.48863636363635C1350.9166666666667,50.83522727272726,1353.3333333333333,50.18181818181817,1355.75,49.528409090909086C1358.1666666666667,48.875,1360.5833333333333,48.221590909090914,1363,47.56818181818183C1365.4166666666667,46.91477272727274,1367.8333333333333,46.26136363636364,1370.25,45.60795454545455C1372.6666666666667,44.95454545454545,1375.0833333333333,44.30113636363635,1377.5,43.647727272727266C1379.9166666666667,42.99431818181818,1382.3333333333333,42.34090909090909,1384.75,41.68750000000001C1387.1666666666667,41.03409090909092,1389.5833333333333,40.38068181818182,1392,39.72727272727273C1394.4166666666667,39.07386363636363,1396.8333333333333,38.42045454545455,1399.25,37.76704545454545C1401.6666666666667,37.11363636363636,1404.0833333333333,36.46022727272728,1406.5,35.80681818181819C1408.9166666666667,35.15340909090909,1411.3333333333333,34.5,1413.75,33.84659090909091C1416.1666666666667,33.19318181818181,1418.5833333333333,32.53977272727272,1421,31.88636363636363C1423.4166666666667,31.23295454545454,1425.8333333333333,30.579545454545457,1428.25,29.926136363636367C1430.6666666666667,29.272727272727277,1433.0833333333333,28.61931818181818,1435.5,27.96590909090909C1437.9166666666667,27.3125,1440.3333333333333,26.659090909090914,1442.75,26.005681818181824C1445.1666666666667,25.352272727272734,1447.5833333333333,24.69886363636364,1450,24.045454545454547" fill="transparent" stroke-linecap="round" stroke="#E7C6DF" stroke-width="2"></path><g class="visx-group visx-axis visx-axis-bottom" transform="translate(0, 115)"><g class="visx-group visx-axis-tick" transform="translate(0, 0)"><line class="visx-line" x1="0" y1="0" x2="0" y2="8" fill="transparent" shape-rendering="crispEdges" stroke="#000" stroke-width="0" stroke-linecap="square"></line><svg x="0" y="0" font-size="10" style="overflow:visible"><text transform="" x="0" y="18" fill="#000" font-size="10" text-anchor="middle"><tspan x="0" dy="0em">0%</tspan></text></svg></g><g class="visx-group visx-axis-tick" transform="translate(0, 0)"><line class="visx-line" x1="362.5" y1="0" x2="362.5" y2="8" fill="transparent" shape-rendering="crispEdges" stroke="#000" stroke-width="0" stroke-linecap="square"></line><svg x="0" y="0" font-size="10" style="overflow:visible"><text transform="" x="362.5" y="18" fill="#000" font-size="10" text-anchor="middle"><tspan x="362.5" dy="0em">25%</tspan></text></svg></g><g class="visx-group visx-axis-tick" transform="translate(0, 0)"><line class="visx-line" x1="725" y1="0" x2="725" y2="8" fill="transparent" shape-rendering="crispEdges" stroke="#000" stroke-width="0" stroke-linecap="square"></line><svg x="0" y="0" font-size="10" style="overflow:visible"><text transform="" x="725" y="18" fill="#000" font-size="10" text-anchor="middle"><tspan x="725" dy="0em">50%</tspan></text></svg></g><g class="visx-group visx-axis-tick" transform="translate(0, 0)"><line class="visx-line" x1="1087.5" y1="0" x2="1087.5" y2="8" fill="transparent" shape-rendering="crispEdges" stroke="#000" stroke-width="0" stroke-linecap="square"></line><svg x="0" y="0" font-size="10" style="overflow:visible"><text transform="" x="1087.5" y="18" fill="#000" font-size="10" text-anchor="middle"><tspan x="1087.5" dy="0em">75%</tspan></text></svg></g><g class="visx-group visx-axis-tick" transform="translate(0, 0)"><line class="visx-line" x1="1450" y1="0" x2="1450" y2="8" fill="transparent" shape-rendering="crispEdges" stroke="#000" stroke-width="0" stroke-linecap="square"></line><svg x="0" y="0" font-size="10" style="overflow:visible"><text transform="" x="1450" y="18" fill="#000" font-size="10" text-anchor="middle"><tspan x="1450" dy="0em">100%</tspan></text></svg></g><line class="visx-line visx-axis-line" x1="0.5" y1="0" x2="1450.5" y2="0" fill="transparent" shape-rendering="crispEdges" stroke="#222" stroke-width="0"></line></g><g class="visx-group visx-axis visx-axis-left" transform="translate(0, 0)"><g class="visx-group visx-axis-tick" transform="translate(0, 0)"><line class="visx-line" x1="0" y1="115" x2="-8" y2="115" fill="transparent" shape-rendering="crispEdges" stroke="#222" stroke-width="0" stroke-linecap="square"></line><svg x="-30" y="0" font-size="8" style="overflow:visible"><text transform="" x="-8" y="115" fill="#000" font-size="8" text-anchor="start"><tspan x="-8" dy="0em">0%</tspan></text></svg></g><g class="visx-group visx-axis-tick" transform="translate(0, 0)"><line class="visx-line" x1="0" y1="62.72727272727272" x2="-8" y2="62.72727272727272" fill="transparent" shape-rendering="crispEdges" stroke="#222" stroke-width="0" stroke-linecap="square"></line><svg x="-30" y="0" font-size="8" style="overflow:visible"><text transform="" x="-8" y="62.72727272727272" fill="#000" font-size="8" text-anchor="start"><tspan x="-8" dy="0em">50%</tspan></text></svg></g><g class="visx-group visx-axis-tick" transform="translate(0, 0)"><line class="visx-line" x1="0" y1="10.454545454545459" x2="-8" y2="10.454545454545459" fill="transparent" shape-rendering="crispEdges" stroke="#222" stroke-width="0" stroke-linecap="square"></line><svg x="-30" y="0" font-size="8" style="overflow:visible"><text transform="" x="-8" y="10.454545454545459" fill="#000" font-size="8" text-anchor="start"><tspan x="-8" dy="0em">100%</tspan></text></svg></g><line class="visx-line visx-axis-line" x1="0" y1="115.5" x2="0" y2="0.5" fill="transparent" shape-rendering="crispEdges" stroke="#222" stroke-width="0"></line></g><rect class="visx-bar" width="1450" height="115" fill="transparent"></rect><line class="visx-line" x1="1160" y1="28" x2="1160" y2="115" fill="transparent" shape-rendering="crispEdges" stroke="#0062D2" stroke-width="1" pointer-events="none" stroke-dasharray="5,2"></line><svg x="0" y="0" font-size="10px" style="overflow:visible"><text transform="" x="1160" y="20" font-size="10px" fill="#fff" stroke="#fff" stroke-width="0.8em" text-anchor="middle"><tspan x="1160" dy="0.355em">Optimal 80%</tspan></text></svg><svg x="0" y="0" font-size="10px" style="overflow:visible"><text transform="" x="1160" y="20" font-size="10px" fill="#62677B" text-anchor="middle"><tspan x="1160" dy="0.355em">Optimal 80%</tspan></text></svg></g></svg>