<?xml version="1.0"?><svg xmlns="http://www.w3.org/2000/svg" xmlns:xlink= "http://www.w3.org/1999/xlink" style="background: white;" width="1500" height="185"> <g style="color: black; font-size: 13px; font-family: sans-serif; transform: translate(18px, 25px);"><g><circle r="3" cx="-6" cy="-5" style="fill: #B6509E" /><text>Borrow APR, variable</text></g><g style="transform: translateX(150px);"><circle r="3" cx="-6" cy="-5" style="fill: rgb(231, 198, 223)" /><text>Borrow APR, stable</text></g><g style="transform: translateX(290px);"><circle r="3" cx="-6" cy="-5" style="fill: rgb(0, 98, 210)" /><text>Utilization Rate</text></g></g><g class="visx-group" transform="translate(40, 50)"><g class="visx-group visx-rows" transform="translate(0, 0)"><line class="visx-line" x1="0" y1="115" x2="1450" y2="115" fill="transparent" shape-rendering="crispEdges" stroke="#000" stroke-width="1" stroke-dasharray="3,3" pointer-events="none"></line><line class="visx-line" x1="0" y1="82.14285714285714" x2="1450" y2="82.14285714285714" fill="transparent" shape-rendering="crispEdges" stroke="#000" stroke-width="1" stroke-dasharray="3,3" pointer-events="none"></line><line class="visx-line" x1="0" y1="49.28571428571429" x2="1450" y2="49.28571428571429" fill="transparent" shape-rendering="crispEdges" stroke="#000" stroke-width="1" stroke-dasharray="3,3" pointer-events="none"></line><line class="visx-line" x1="0" y1="16.428571428571434" x2="1450" y2="16.428571428571434" fill="transparent" shape-rendering="crispEdges" stroke="#000" stroke-width="1" stroke-dasharray="3,3" pointer-events="none"></line></g><path class="visx-linepath" d="M0,114.99999999996349C2.4166666666666665,114.99391534389405,4.833333333333334,114.9878306878246,7.25,114.98174603174603C9.666666666666666,114.97566137566746,12.083333333333334,114.96957671957672,14.5,114.96349206349207C16.916666666666668,114.95740740740742,19.333333333333332,114.95132275132275,21.75,114.9452380952381C24.166666666666668,114.93915343915344,26.583333333333332,114.93306878306878,29,114.92698412698412C31.416666666666668,114.92089947089947,33.833333333333336,114.91481481481482,36.25,114.90873015873017C38.666666666666664,114.90264550264551,41.083333333333336,114.89656084656085,43.5,114.89047619047619C45.91666666666667,114.88439153439154,48.333333333333336,114.87830687830689,50.75000000000001,114.87222222222223C53.16666666666667,114.86613756613758,55.583333333333336,114.8600529100529,58,114.85396825396825C60.416666666666664,114.8478835978836,62.833333333333336,114.84179894179894,65.25,114.83571428571429C67.66666666666667,114.82962962962964,70.08333333333333,114.82354497354497,72.5,114.81746031746032C74.91666666666667,114.81137566137566,77.33333333333333,114.80529100529101,79.75,114.79920634920636C82.16666666666667,114.7931216931217,84.58333333333333,114.78703703703704,87,114.78095238095239C89.41666666666667,114.77486772486773,91.83333333333333,114.76878306878307,94.25,114.76269841269841C96.66666666666667,114.75661375661376,99.08333333333334,114.75052910052909,101.50000000000001,114.74444444444444C103.91666666666667,114.73835978835979,106.33333333333334,114.73227513227513,108.75,114.72619047619048C111.16666666666667,114.72010582010583,113.58333333333333,114.71402116402116,116,114.70793650793651C118.41666666666667,114.70185185185186,120.83333333333334,114.6957671957672,123.25000000000001,114.68968253968255C125.66666666666667,114.6835978835979,128.08333333333334,114.67751322751322,130.5,114.67142857142856C132.91666666666666,114.66534391534391,135.33333333333334,114.65925925925926,137.75,114.6531746031746C140.16666666666666,114.64708994708995,142.58333333333334,114.64100529100529,145,114.63492063492063C147.41666666666666,114.62883597883598,149.83333333333334,114.62275132275133,152.25,114.61666666666667C154.66666666666666,114.61058201058202,157.08333333333334,114.60449735449734,159.5,114.59841269841269C161.91666666666666,114.59232804232803,164.33333333333334,114.58624338624338,166.75,114.58015873015873C169.16666666666666,114.57407407407408,171.58333333333334,114.56798941798941,174,114.56190476190476C176.41666666666666,114.5558201058201,178.83333333333334,114.54973544973545,181.25,114.5436507936508C183.66666666666666,114.53756613756615,186.08333333333334,114.53148148148148,188.5,114.52539682539683C190.91666666666666,114.51931216931217,193.33333333333334,114.5132275132275,195.75,114.50714285714285C198.16666666666669,114.5010582010582,200.58333333333334,114.49497354497353,203.00000000000003,114.48888888888888C205.41666666666669,114.48280423280423,207.83333333333331,114.47671957671957,210.24999999999997,114.47063492063492C212.66666666666666,114.46455026455027,215.08333333333331,114.4584656084656,217.5,114.45238095238095C219.91666666666666,114.4462962962963,222.33333333333334,114.44021164021164,224.75,114.43412698412699C227.16666666666666,114.42804232804234,229.58333333333334,114.42195767195766,232,114.415873015873C234.41666666666666,114.40978835978835,236.83333333333334,114.4037037037037,239.25,114.39761904761905C241.66666666666669,114.39153439153439,244.08333333333334,114.38544973544973,246.50000000000003,114.37936507936507C248.91666666666669,114.37328042328042,251.33333333333331,114.36719576719577,253.74999999999997,114.36111111111111C256.16666666666663,114.35502645502646,258.5833333333333,114.3489417989418,261,114.34285714285714C263.4166666666667,114.33677248677249,265.8333333333333,114.33068783068782,268.25,114.32460317460317C270.6666666666667,114.31851851851852,273.0833333333333,114.31243386243386,275.5,114.30634920634921C277.9166666666667,114.30026455026456,280.3333333333333,114.29417989417989,282.75,114.28809523809524C285.1666666666667,114.28201058201059,287.5833333333333,114.27592592592592,290,114.26984126984127C292.4166666666667,114.26375661375661,294.8333333333333,114.25767195767196,297.25,114.2515873015873C299.6666666666667,114.24550264550265,302.0833333333333,114.23941798941799,304.5,114.23333333333333C306.9166666666667,114.22724867724868,309.3333333333333,114.22116402116401,311.75,114.21507936507936C314.1666666666667,114.20899470899471,316.5833333333333,114.20291005291006,319,114.1968253968254C321.4166666666667,114.19074074074075,323.8333333333333,114.18465608465608,326.25,114.17857142857143C328.6666666666667,114.17248677248678,331.0833333333333,114.16640211640212,333.5,114.16031746031747C335.9166666666667,114.15423280423282,338.3333333333333,114.14814814814814,340.75,114.14206349206349C343.1666666666667,114.13597883597883,345.5833333333333,114.12989417989418,348,114.12380952380953C350.4166666666667,114.11772486772487,352.8333333333333,114.1116402116402,355.25,114.10555555555555C357.6666666666667,114.0994708994709,360.0833333333333,114.09338624338625,362.5,114.0873015873016C364.9166666666667,114.08121693121694,367.3333333333333,114.07513227513228,369.75,114.06904761904762C372.1666666666667,114.06296296296297,374.5833333333333,114.0568783068783,377,114.05079365079365C379.4166666666667,114.044708994709,381.8333333333333,114.03862433862433,384.25,114.03253968253968C386.6666666666667,114.02645502645503,389.0833333333333,114.02037037037037,391.5,114.01428571428572C393.9166666666667,114.00820105820107,396.33333333333337,114.0021164021164,398.75000000000006,113.99603174603175C401.16666666666674,113.9899470899471,403.58333333333337,113.98386243386244,406.00000000000006,113.97777777777779C408.4166666666667,113.97169312169314,410.8333333333333,113.96560846560845,413.24999999999994,113.9595238095238C415.66666666666663,113.95343915343915,418.08333333333326,113.9473544973545,420.49999999999994,113.94126984126984C422.91666666666663,113.93518518518519,425.3333333333333,113.92910052910052,427.75,113.92301587301587C430.1666666666667,113.91693121693122,432.5833333333333,113.91084656084657,435,113.90476190476191C437.4166666666667,113.89867724867726,439.8333333333333,113.89259259259258,442.25,113.88650793650793C444.6666666666667,113.88042328042327,447.0833333333333,113.87433862433862,449.5,113.86825396825397C451.9166666666667,113.86216931216931,454.3333333333333,113.85608465608465,456.75,113.85C459.1666666666667,113.84391534391534,461.5833333333333,113.83783068783069,464,113.83174603174604C466.4166666666667,113.82566137566138,468.8333333333333,113.81957671957672,471.25,113.81349206349206C473.6666666666667,113.80740740740741,476.0833333333333,113.80132275132274,478.5,113.79523809523809C480.9166666666667,113.78915343915344,483.33333333333337,113.78306878306877,485.75000000000006,113.77698412698412C488.16666666666674,113.77089947089947,490.58333333333337,113.76481481481481,493.00000000000006,113.75873015873016C495.4166666666667,113.7526455026455,497.8333333333333,113.74656084656084,500.24999999999994,113.74047619047619C502.66666666666663,113.73439153439153,505.08333333333326,113.72830687830688,507.49999999999994,113.72222222222223C509.91666666666663,113.71613756613758,512.3333333333333,113.7100529100529,514.75,113.70396825396824C517.1666666666666,113.69788359788359,519.5833333333334,113.69179894179894,522,113.68571428571428C524.4166666666666,113.67962962962963,526.8333333333334,113.67354497354496,529.25,113.66746031746031C531.6666666666666,113.66137566137566,534.0833333333334,113.655291005291,536.5,113.64920634920635C538.9166666666666,113.6431216931217,541.3333333333334,113.63703703703703,543.75,113.63095238095238C546.1666666666666,113.62486772486773,548.5833333333334,113.61878306878306,551,113.6126984126984C553.4166666666666,113.60661375661375,555.8333333333334,113.6005291005291,558.25,113.59444444444445C560.6666666666666,113.5883597883598,563.0833333333334,113.58227513227513,565.5,113.57619047619048C567.9166666666666,113.57010582010582,570.3333333333334,113.56402116402117,572.75,113.55793650793652C575.1666666666666,113.55185185185186,577.5833333333334,113.5457671957672,580,113.53968253968254C582.4166666666666,113.53359788359789,584.8333333333334,113.52751322751323,587.25,113.52142857142857C589.6666666666666,113.51534391534392,592.0833333333334,113.50925925925925,594.5,113.5031746031746C596.9166666666666,113.49708994708995,599.3333333333334,113.4910052910053,601.75,113.48492063492064C604.1666666666666,113.47883597883599,606.5833333333334,113.47275132275132,609,113.46666666666667C611.4166666666666,113.46058201058202,613.8333333333334,113.45449735449736,616.25,113.44841269841271C618.6666666666666,113.44232804232806,621.0833333333334,113.43624338624338,623.5,113.43015873015872C625.9166666666666,113.42407407407407,628.3333333333334,113.41798941798942,630.75,113.41190476190476C633.1666666666666,113.40582010582011,635.5833333333334,113.39973544973545,638,113.39365079365079C640.4166666666666,113.38756613756614,642.8333333333334,113.38148148148149,645.25,113.37539682539683C647.6666666666666,113.36931216931218,650.0833333333334,113.36931216931218,652.5,113.35714285714286C654.9166666666666,113.34497354497354,657.3333333333334,112.75974025974027,659.75,112.46103896103897C662.1666666666666,112.16233766233766,664.5833333333334,111.86363636363637,667,111.56493506493507C669.4166666666666,111.26623376623377,671.8333333333334,110.96753246753248,674.25,110.66883116883118C676.6666666666666,110.37012987012987,679.0833333333334,110.07142857142858,681.5,109.77272727272728C683.9166666666666,109.47402597402598,686.3333333333334,109.17532467532469,688.75,108.87662337662339C691.1666666666666,108.57792207792208,693.5833333333334,108.2792207792208,696,107.98051948051949C698.4166666666666,107.68181818181819,700.8333333333334,107.3831168831169,703.25,107.0844155844156C705.6666666666666,106.78571428571429,708.0833333333334,106.48701298701299,710.5,106.18831168831169C712.9166666666666,105.88961038961038,715.3333333333334,105.5909090909091,717.75,105.29220779220779C720.1666666666666,104.99350649350649,722.5833333333334,104.6948051948052,725,104.3961038961039C727.4166666666666,104.09740259740259,729.8333333333334,103.7987012987013,732.25,103.5C734.6666666666666,103.2012987012987,737.0833333333334,102.90259740259741,739.5,102.6038961038961C741.9166666666666,102.3051948051948,744.3333333333334,102.00649350649351,746.75,101.70779220779221C749.1666666666666,101.4090909090909,751.5833333333334,101.11038961038962,754,100.81168831168831C756.4166666666666,100.51298701298701,758.8333333333334,100.21428571428572,761.25,99.91558441558442C763.6666666666666,99.61688311688312,766.0833333333334,99.31818181818183,768.5,99.01948051948052C770.9166666666666,98.72077922077922,773.3333333333334,98.42207792207793,775.75,98.12337662337663C778.1666666666666,97.82467532467533,780.5833333333334,97.52597402597404,783,97.22727272727273C785.4166666666667,96.92857142857143,787.8333333333334,96.62987012987013,790.2500000000001,96.33116883116882C792.6666666666667,96.03246753246752,795.0833333333335,95.73376623376623,797.5000000000001,95.43506493506493C799.9166666666667,95.13636363636363,802.3333333333335,94.83766233766234,804.7500000000001,94.53896103896103C807.1666666666667,94.24025974025973,809.5833333333335,93.94155844155844,812.0000000000001,93.64285714285714C814.4166666666667,93.34415584415585,816.8333333333333,93.04545454545453,819.2499999999999,92.74675324675324C821.6666666666665,92.44805194805194,824.0833333333333,92.14935064935065,826.4999999999999,91.85064935064935C828.9166666666665,91.55194805194805,831.3333333333333,91.25324675324676,833.7499999999999,90.95454545454545C836.1666666666665,90.65584415584415,838.5833333333333,90.35714285714286,840.9999999999999,90.05844155844156C843.4166666666666,89.75974025974025,845.8333333333333,89.46103896103897,848.25,89.16233766233766C850.6666666666666,88.86363636363637,853.0833333333334,88.56493506493507,855.5,88.26623376623377C857.9166666666666,87.96753246753246,860.3333333333334,87.66883116883118,862.75,87.37012987012987C865.1666666666666,87.07142857142857,867.5833333333334,86.77272727272728,870,86.47402597402598C872.4166666666666,86.17532467532467,874.8333333333334,85.87662337662337,877.25,85.57792207792207C879.6666666666666,85.27922077922076,882.0833333333334,84.98051948051946,884.5,84.68181818181817C886.9166666666666,84.38311688311688,889.3333333333334,84.0844155844156,891.75,83.78571428571429C894.1666666666666,83.48701298701299,896.5833333333334,83.18831168831169,899,82.88961038961038C901.4166666666666,82.59090909090908,903.8333333333334,82.29220779220779,906.25,81.99350649350649C908.6666666666666,81.69480519480518,911.0833333333334,81.39610389610388,913.5,81.09740259740259C915.9166666666666,80.7987012987013,918.3333333333334,80.50000000000001,920.75,80.20129870129871C923.1666666666666,79.90259740259741,925.5833333333334,79.6038961038961,928,79.3051948051948C930.4166666666666,79.0064935064935,932.8333333333334,78.70779220779222,935.25,78.40909090909092C937.6666666666666,78.11038961038962,940.0833333333334,77.81168831168831,942.5,77.51298701298701C944.9166666666666,77.21428571428571,947.3333333333334,76.91558441558442,949.75,76.61688311688312C952.1666666666666,76.31818181818181,954.5833333333334,76.01948051948052,957,75.72077922077922C959.4166666666666,75.42207792207792,961.8333333333334,75.12337662337663,964.25,74.82467532467533C966.6666666666667,74.52597402597402,969.0833333333334,74.22727272727272,971.5000000000001,73.92857142857142C973.9166666666667,73.62987012987011,976.3333333333335,73.33116883116882,978.7500000000001,73.03246753246754C981.1666666666667,72.73376623376625,983.5833333333335,72.43506493506494,986.0000000000001,72.13636363636364C988.4166666666667,71.83766233766234,990.8333333333335,71.53896103896105,993.2500000000001,71.24025974025975C995.6666666666667,70.94155844155844,998.0833333333333,70.64285714285714,1000.4999999999999,70.34415584415584C1002.9166666666665,70.04545454545453,1005.3333333333333,69.74675324675323,1007.7499999999999,69.44805194805194C1010.1666666666665,69.14935064935065,1012.5833333333333,68.85064935064935,1014.9999999999999,68.55194805194806C1017.4166666666665,68.25324675324677,1019.8333333333333,67.95454545454547,1022.2499999999999,67.65584415584416C1024.6666666666665,67.35714285714286,1027.0833333333333,67.05844155844157,1029.5,66.75974025974027C1031.9166666666667,66.46103896103897,1034.3333333333333,66.16233766233766,1036.75,65.86363636363636C1039.1666666666667,65.56493506493506,1041.5833333333333,65.26623376623375,1044,64.96753246753245C1046.4166666666667,64.66883116883115,1048.8333333333333,64.37012987012987,1051.25,64.07142857142857C1053.6666666666667,63.77272727272727,1056.0833333333333,63.47402597402596,1058.5,63.17532467532467C1060.9166666666667,62.87662337662337,1063.3333333333333,62.577922077922075,1065.75,62.27922077922078C1068.1666666666667,61.98051948051948,1070.5833333333333,61.68181818181818,1073,61.383116883116884C1075.4166666666667,61.08441558441559,1077.8333333333333,60.785714285714285,1080.25,60.48701298701299C1082.6666666666667,60.18831168831169,1085.0833333333333,59.88961038961039,1087.5,59.59090909090909C1089.9166666666667,59.2922077922078,1092.3333333333333,58.993506493506494,1094.75,58.6948051948052C1097.1666666666667,58.3961038961039,1099.5833333333333,58.09740259740259,1102,57.798701298701296C1104.4166666666667,57.5,1106.8333333333333,57.2012987012987,1109.25,56.9025974025974C1111.6666666666667,56.603896103896105,1114.0833333333333,56.3051948051948,1116.5,56.006493506493506C1118.9166666666667,55.70779220779221,1121.3333333333333,55.40909090909091,1123.75,55.11038961038961C1126.1666666666667,54.811688311688314,1128.5833333333333,54.51298701298701,1131,54.214285714285715C1133.4166666666667,53.91558441558442,1135.8333333333333,53.616883116883116,1138.25,53.31818181818182C1140.6666666666667,53.019480519480524,1143.0833333333333,52.720779220779214,1145.5,52.42207792207792C1147.9166666666667,52.12337662337662,1150.3333333333333,51.82467532467532,1152.75,51.52597402597402C1155.1666666666667,51.22727272727273,1157.5833333333333,50.92857142857142,1160,50.62987012987013C1162.4166666666667,50.33116883116883,1164.8333333333333,50.03246753246753,1167.25,49.73376623376623C1169.6666666666667,49.435064935064936,1172.0833333333333,49.13636363636363,1174.5,48.83766233766234C1176.9166666666667,48.53896103896104,1179.3333333333333,48.24025974025974,1181.75,47.94155844155844C1184.1666666666667,47.642857142857146,1186.5833333333333,47.344155844155836,1189,47.04545454545454C1191.4166666666667,46.746753246753244,1193.8333333333333,46.448051948051955,1196.25,46.14935064935066C1198.6666666666667,45.85064935064936,1201.0833333333333,45.55194805194807,1203.5,45.25324675324676C1205.9166666666667,44.95454545454546,1208.3333333333333,44.65584415584415,1210.75,44.357142857142854C1213.1666666666667,44.05844155844156,1215.5833333333333,43.75974025974026,1218,43.461038961038966C1220.4166666666667,43.16233766233767,1222.8333333333333,42.86363636363636,1225.25,42.56493506493506C1227.6666666666667,42.26623376623375,1230.0833333333333,41.96753246753246,1232.5,41.66883116883116C1234.9166666666667,41.370129870129865,1237.3333333333333,41.07142857142856,1239.75,40.772727272727266C1242.1666666666667,40.47402597402597,1244.5833333333333,40.17532467532468,1247,39.876623376623385C1249.4166666666667,39.57792207792209,1251.8333333333333,39.27922077922079,1254.25,38.98051948051949C1256.6666666666667,38.68181818181819,1259.0833333333333,38.38311688311688,1261.5,38.08441558441558C1263.9166666666667,37.785714285714285,1266.3333333333333,37.48701298701299,1268.75,37.18831168831169C1271.1666666666667,36.8896103896104,1273.5833333333333,36.590909090909086,1276,36.29220779220778C1278.4166666666667,35.99350649350648,1280.8333333333333,35.694805194805184,1283.25,35.39610389610389C1285.6666666666667,35.09740259740259,1288.0833333333333,34.79870129870129,1290.5,34.49999999999999C1292.9166666666667,34.2012987012987,1295.3333333333333,33.90259740259741,1297.75,33.60389610389611C1300.1666666666667,33.305194805194816,1302.5833333333333,33.006493506493506,1305,32.70779220779221C1307.4166666666667,32.409090909090914,1309.8333333333333,32.11038961038961,1312.25,31.811688311688314C1314.6666666666667,31.512987012987015,1317.0833333333333,31.21428571428572,1319.5,30.91558441558442C1321.9166666666667,30.61688311688312,1324.3333333333333,30.318181818181824,1326.75,30.019480519480524C1329.1666666666667,29.720779220779225,1331.5833333333333,29.422077922077914,1334,29.123376623376615C1336.4166666666667,28.824675324675315,1338.8333333333333,28.525974025974012,1341.25,28.227272727272716C1343.6666666666667,27.92857142857142,1346.0833333333333,27.629870129870127,1348.5,27.331168831168835C1350.9166666666667,27.032467532467543,1353.3333333333333,26.73376623376625,1355.75,26.43506493506495C1358.1666666666667,26.13636363636365,1360.5833333333333,25.83766233766234,1363,25.53896103896104C1365.4166666666667,25.24025974025974,1367.8333333333333,24.941558441558445,1370.25,24.642857142857146C1372.6666666666667,24.344155844155846,1375.0833333333333,24.045454545454536,1377.5,23.746753246753237C1379.9166666666667,23.448051948051937,1382.3333333333333,23.149350649350634,1384.75,22.850649350649338C1387.1666666666667,22.55194805194804,1389.5833333333333,22.25324675324675,1392,21.954545454545457C1394.4166666666667,21.655844155844164,1396.8333333333333,21.357142857142872,1399.25,21.058441558441572C1401.6666666666667,20.759740259740273,1404.0833333333333,20.461038961038962,1406.5,20.162337662337663C1408.9166666666667,19.863636363636363,1411.3333333333333,19.564935064935064,1413.75,19.266233766233768C1416.1666666666667,18.96753246753247,1418.5833333333333,18.668831168831183,1421,18.370129870129883C1423.4166666666667,18.071428571428584,1425.8333333333333,17.772727272727273,1428.25,17.474025974025974C1430.6666666666667,17.175324675324674,1433.0833333333333,16.876623376623378,1435.5,16.57792207792208C1437.9166666666667,16.27922077922078,1440.3333333333333,15.980519480519467,1442.75,15.681818181818167C1445.1666666666667,15.383116883116868,1447.5833333333333,15.084415584415577,1450,14.785714285714285" fill="transparent" stroke-linecap="round" stroke="#B6509E" stroke-width="2"></path><path class="visx-linepath" d="M0,111.71428571427111C2.4166666666666665,111.71185185184333,4.833333333333334,111.70941798941556,7.25,111.70698412698412C9.666666666666666,111.7045502645527,12.083333333333334,111.7021164021164,14.5,111.69968253968254C16.916666666666668,111.69724867724868,19.333333333333332,111.69481481481482,21.75,111.69238095238096C24.166666666666668,111.6899470899471,26.583333333333332,111.68751322751322,29,111.68507936507936C31.416666666666668,111.6826455026455,33.833333333333336,111.68021164021164,36.25,111.67777777777778C38.666666666666664,111.67534391534392,41.083333333333336,111.67291005291005,43.5,111.6704761904762C45.91666666666667,111.66804232804233,48.333333333333336,111.66560846560846,50.75000000000001,111.6631746031746C53.16666666666667,111.66074074074074,55.583333333333336,111.65830687830689,58,111.65587301587303C60.416666666666664,111.65343915343917,62.833333333333336,111.65100529100529,65.25,111.64857142857143C67.66666666666667,111.64613756613757,70.08333333333333,111.6437037037037,72.5,111.64126984126983C74.91666666666667,111.63883597883597,77.33333333333333,111.63640211640212,79.75,111.63396825396826C82.16666666666667,111.6315343915344,84.58333333333333,111.62910052910053,87,111.62666666666667C89.41666666666667,111.6242328042328,91.83333333333333,111.62179894179894,94.25,111.61936507936508C96.66666666666667,111.61693121693122,99.08333333333334,111.61449735449736,101.50000000000001,111.6120634920635C103.91666666666667,111.60962962962964,106.33333333333334,111.60719576719576,108.75,111.6047619047619C111.16666666666667,111.60232804232804,113.58333333333333,111.59989417989418,116,111.59746031746032C118.41666666666667,111.59502645502646,120.83333333333334,111.59259259259258,123.25000000000001,111.59015873015872C125.66666666666667,111.58772486772486,128.08333333333334,111.58529100529101,130.5,111.58285714285715C132.91666666666666,111.58042328042329,135.33333333333334,111.57798941798941,137.75,111.57555555555555C140.16666666666666,111.57312169312169,142.58333333333334,111.57068783068782,145,111.56825396825396C147.41666666666666,111.5658201058201,149.83333333333334,111.56338624338625,152.25,111.56095238095239C154.66666666666666,111.55851851851853,157.08333333333334,111.55608465608465,159.5,111.55365079365079C161.91666666666666,111.55121693121693,164.33333333333334,111.54878306878307,166.75,111.5463492063492C169.16666666666666,111.54391534391534,171.58333333333334,111.54148148148148,174,111.53904761904762C176.41666666666666,111.53661375661376,178.83333333333334,111.53417989417989,181.25,111.53174603174602C183.66666666666666,111.52931216931216,186.08333333333334,111.5268783068783,188.5,111.52444444444444C190.91666666666666,111.52201058201058,193.33333333333334,111.51957671957672,195.75,111.51714285714286C198.16666666666669,111.514708994709,200.58333333333334,111.51227513227514,203.00000000000003,111.50984126984127C205.41666666666669,111.50740740740741,207.83333333333331,111.50497354497354,210.24999999999997,111.50253968253968C212.66666666666666,111.50010582010582,215.08333333333331,111.49767195767195,217.5,111.4952380952381C219.91666666666666,111.49280423280423,222.33333333333334,111.49037037037037,224.75,111.48793650793651C227.16666666666666,111.48550264550265,229.58333333333334,111.48306878306877,232,111.48063492063491C234.41666666666666,111.47820105820105,236.83333333333334,111.4757671957672,239.25,111.47333333333334C241.66666666666669,111.47089947089948,244.08333333333334,111.4684656084656,246.50000000000003,111.46603174603175C248.91666666666669,111.46359788359788,251.33333333333331,111.46116402116402,253.74999999999997,111.45873015873016C256.16666666666663,111.4562962962963,258.5833333333333,111.45386243386243,261,111.45142857142856C263.4166666666667,111.4489947089947,265.8333333333333,111.44656084656084,268.25,111.44412698412698C270.6666666666667,111.44169312169312,273.0833333333333,111.43925925925926,275.5,111.4368253968254C277.9166666666667,111.43439153439154,280.3333333333333,111.43195767195768,282.75,111.42952380952381C285.1666666666667,111.42708994708995,287.5833333333333,111.42465608465609,290,111.42222222222223C292.4166666666667,111.41978835978837,294.8333333333333,111.4173544973545,297.25,111.41492063492063C299.6666666666667,111.41248677248677,302.0833333333333,111.4100529100529,304.5,111.40761904761904C306.9166666666667,111.40518518518518,309.3333333333333,111.40275132275133,311.75,111.40031746031747C314.1666666666667,111.3978835978836,316.5833333333333,111.39544973544973,319,111.39301587301587C321.4166666666667,111.39058201058201,323.8333333333333,111.38814814814815,326.25,111.38571428571429C328.6666666666667,111.38328042328042,331.0833333333333,111.38084656084656,333.5,111.3784126984127C335.9166666666667,111.37597883597884,338.3333333333333,111.37354497354497,340.75,111.3711111111111C343.1666666666667,111.36867724867724,345.5833333333333,111.36624338624338,348,111.36380952380952C350.4166666666667,111.36137566137566,352.8333333333333,111.3589417989418,355.25,111.35650793650794C357.6666666666667,111.35407407407408,360.0833333333333,111.35164021164022,362.5,111.34920634920636C364.9166666666667,111.3467724867725,367.3333333333333,111.34433862433862,369.75,111.34190476190476C372.1666666666667,111.3394708994709,374.5833333333333,111.33703703703704,377,111.33460317460317C379.4166666666667,111.33216931216931,381.8333333333333,111.32973544973545,384.25,111.32730158730159C386.6666666666667,111.32486772486773,389.0833333333333,111.32243386243385,391.5,111.32C393.9166666666667,111.31756613756613,396.33333333333337,111.31513227513229,398.75000000000006,111.31269841269842C401.16666666666674,111.31026455026456,403.58333333333337,111.30783068783069,406.00000000000006,111.30539682539683C408.4166666666667,111.30296296296297,410.8333333333333,111.30052910052909,413.24999999999994,111.29809523809523C415.66666666666663,111.29566137566137,418.08333333333326,111.29322751322752,420.49999999999994,111.29079365079366C422.91666666666663,111.2883597883598,425.3333333333333,111.28592592592592,427.75,111.28349206349206C430.1666666666667,111.2810582010582,432.5833333333333,111.27862433862434,435,111.27619047619048C437.4166666666667,111.27375661375662,439.8333333333333,111.27132275132274,442.25,111.26888888888888C444.6666666666667,111.26645502645502,447.0833333333333,111.26402116402116,449.5,111.2615873015873C451.9166666666667,111.25915343915344,454.3333333333333,111.25671957671958,456.75,111.25428571428571C459.1666666666667,111.25185185185185,461.5833333333333,111.24941798941798,464,111.24698412698412C466.4166666666667,111.24455026455026,468.8333333333333,111.24211640211641,471.25,111.23968253968255C473.6666666666667,111.23724867724869,476.0833333333333,111.23481481481481,478.5,111.23238095238095C480.9166666666667,111.22994708994709,483.33333333333337,111.22751322751323,485.75000000000006,111.22507936507937C488.16666666666674,111.2226455026455,490.58333333333337,111.22021164021164,493.00000000000006,111.21777777777778C495.4166666666667,111.21534391534392,497.8333333333333,111.21291005291005,500.24999999999994,111.21047619047619C502.66666666666663,111.20804232804232,505.08333333333326,111.20560846560846,507.49999999999994,111.2031746031746C509.91666666666663,111.20074074074074,512.3333333333333,111.19830687830688,514.75,111.19587301587302C517.1666666666666,111.19343915343916,519.5833333333334,111.1910052910053,522,111.18857142857144C524.4166666666666,111.18613756613757,526.8333333333334,111.1837037037037,529.25,111.18126984126984C531.6666666666666,111.17883597883598,534.0833333333334,111.17640211640212,536.5,111.17396825396825C538.9166666666666,111.1715343915344,541.3333333333334,111.16910052910053,543.75,111.16666666666667C546.1666666666666,111.16423280423281,548.5833333333334,111.16179894179893,551,111.15936507936507C553.4166666666666,111.15693121693121,555.8333333333334,111.15449735449735,558.25,111.15206349206349C560.6666666666666,111.14962962962963,563.0833333333334,111.14719576719577,565.5,111.1447619047619C567.9166666666666,111.14232804232805,570.3333333333334,111.13989417989417,572.75,111.13746031746031C575.1666666666666,111.13502645502645,577.5833333333334,111.1325925925926,580,111.13015873015874C582.4166666666666,111.12772486772488,584.8333333333334,111.125291005291,587.25,111.12285714285714C589.6666666666666,111.12042328042328,592.0833333333334,111.11798941798942,594.5,111.11555555555556C596.9166666666666,111.1131216931217,599.3333333333334,111.11068783068782,601.75,111.10825396825396C604.1666666666666,111.1058201058201,606.5833333333334,111.10338624338624,609,111.10095238095238C611.4166666666666,111.09851851851852,613.8333333333334,111.09608465608466,616.25,111.0936507936508C618.6666666666666,111.09121693121693,621.0833333333334,111.08878306878306,623.5,111.0863492063492C625.9166666666666,111.08391534391534,628.3333333333334,111.08148148148149,630.75,111.07904761904763C633.1666666666666,111.07661375661377,635.5833333333334,111.07417989417989,638,111.07174603174603C640.4166666666666,111.06931216931217,642.8333333333334,111.0668783068783,645.25,111.06444444444443C647.6666666666666,111.06201058201057,650.0833333333334,111.06201058201057,652.5,111.05714285714286C654.9166666666666,111.05227513227516,657.3333333333334,110.9077922077922,659.75,110.83311688311687C662.1666666666666,110.75844155844155,664.5833333333334,110.68376623376624,667,110.60909090909091C669.4166666666666,110.53441558441558,671.8333333333334,110.45974025974026,674.25,110.38506493506493C676.6666666666666,110.3103896103896,679.0833333333334,110.2357142857143,681.5,110.16103896103897C683.9166666666666,110.08636363636364,686.3333333333334,110.0116883116883,688.75,109.93701298701298C691.1666666666666,109.86233766233765,693.5833333333334,109.78766233766234,696,109.71298701298701C698.4166666666666,109.63831168831169,700.8333333333334,109.56363636363636,703.25,109.48896103896104C705.6666666666666,109.41428571428571,708.0833333333334,109.3396103896104,710.5,109.26493506493507C712.9166666666666,109.19025974025975,715.3333333333334,109.11558441558442,717.75,109.0409090909091C720.1666666666666,108.96623376623377,722.5833333333334,108.89155844155844,725,108.81688311688312C727.4166666666666,108.7422077922078,729.8333333333334,108.66753246753247,732.25,108.59285714285714C734.6666666666666,108.51818181818182,737.0833333333334,108.4435064935065,739.5,108.36883116883118C741.9166666666666,108.29415584415585,744.3333333333334,108.21948051948053,746.75,108.1448051948052C749.1666666666666,108.07012987012988,751.5833333333334,107.99545454545455,754,107.92077922077922C756.4166666666666,107.8461038961039,758.8333333333334,107.77142857142857,761.25,107.69675324675325C763.6666666666666,107.62207792207792,766.0833333333334,107.5474025974026,768.5,107.47272727272727C770.9166666666666,107.39805194805194,773.3333333333334,107.32337662337663,775.75,107.2487012987013C778.1666666666666,107.17402597402598,780.5833333333334,107.09935064935064,783,107.02467532467531C785.4166666666667,106.94999999999999,787.8333333333334,106.87532467532468,790.2500000000001,106.80064935064935C792.6666666666667,106.72597402597403,795.0833333333335,106.6512987012987,797.5000000000001,106.57662337662337C799.9166666666667,106.50194805194805,802.3333333333335,106.42727272727272,804.7500000000001,106.3525974025974C807.1666666666667,106.27792207792207,809.5833333333335,106.20324675324675,812.0000000000001,106.12857142857142C814.4166666666667,106.0538961038961,816.8333333333333,105.97922077922078,819.2499999999999,105.90454545454546C821.6666666666665,105.82987012987013,824.0833333333333,105.7551948051948,826.4999999999999,105.68051948051948C828.9166666666665,105.60584415584415,831.3333333333333,105.53116883116884,833.7499999999999,105.45649350649352C836.1666666666665,105.38181818181819,838.5833333333333,105.30714285714285,840.9999999999999,105.23246753246752C843.4166666666666,105.1577922077922,845.8333333333333,105.08311688311689,848.25,105.00844155844156C850.6666666666666,104.93376623376624,853.0833333333334,104.85909090909091,855.5,104.78441558441558C857.9166666666666,104.70974025974026,860.3333333333334,104.63506493506495,862.75,104.56038961038962C865.1666666666666,104.4857142857143,867.5833333333334,104.41103896103895,870,104.33636363636363C872.4166666666666,104.2616883116883,874.8333333333334,104.18701298701299,877.25,104.11233766233767C879.6666666666666,104.03766233766234,882.0833333333334,103.96298701298701,884.5,103.88831168831169C886.9166666666666,103.81363636363636,889.3333333333334,103.73896103896105,891.75,103.66428571428573C894.1666666666666,103.5896103896104,896.5833333333334,103.51493506493507,899,103.44025974025975C901.4166666666666,103.36558441558442,903.8333333333334,103.2909090909091,906.25,103.21623376623377C908.6666666666666,103.14155844155844,911.0833333333334,103.06688311688312,913.5,102.9922077922078C915.9166666666666,102.91753246753247,918.3333333333334,102.84285714285714,920.75,102.76818181818182C923.1666666666666,102.69350649350649,925.5833333333334,102.61883116883116,928,102.54415584415584C930.4166666666666,102.46948051948051,932.8333333333334,102.39480519480519,935.25,102.32012987012986C937.6666666666666,102.24545454545454,940.0833333333334,102.17077922077922,942.5,102.0961038961039C944.9166666666666,102.02142857142857,947.3333333333334,101.94675324675325,949.75,101.87207792207792C952.1666666666666,101.7974025974026,954.5833333333334,101.72272727272727,957,101.64805194805194C959.4166666666666,101.57337662337662,961.8333333333334,101.49870129870129,964.25,101.42402597402597C966.6666666666667,101.34935064935064,969.0833333333334,101.27467532467533,971.5000000000001,101.2C973.9166666666667,101.12532467532468,976.3333333333335,101.05064935064935,978.7500000000001,100.97597402597403C981.1666666666667,100.9012987012987,983.5833333333335,100.82662337662337,986.0000000000001,100.75194805194805C988.4166666666667,100.67727272727272,990.8333333333335,100.6025974025974,993.2500000000001,100.52792207792207C995.6666666666667,100.45324675324675,998.0833333333333,100.37857142857143,1000.4999999999999,100.30389610389611C1002.9166666666665,100.22922077922078,1005.3333333333333,100.15454545454546,1007.7499999999999,100.07987012987013C1010.1666666666665,100.0051948051948,1012.5833333333333,99.9305194805195,1014.9999999999999,99.85584415584417C1017.4166666666665,99.78116883116884,1019.8333333333333,99.7064935064935,1022.2499999999999,99.63181818181818C1024.6666666666665,99.55714285714285,1027.0833333333333,99.48246753246754,1029.5,99.40779220779221C1031.9166666666667,99.33311688311689,1034.3333333333333,99.25844155844156,1036.75,99.18376623376624C1039.1666666666667,99.10909090909091,1041.5833333333333,99.0344155844156,1044,98.95974025974027C1046.4166666666667,98.88506493506495,1048.8333333333333,98.8103896103896,1051.25,98.73571428571428C1053.6666666666667,98.66103896103895,1056.0833333333333,98.58636363636364,1058.5,98.51168831168832C1060.9166666666667,98.43701298701299,1063.3333333333333,98.36233766233767,1065.75,98.28766233766234C1068.1666666666667,98.21298701298701,1070.5833333333333,98.13831168831169,1073,98.06363636363636C1075.4166666666667,97.98896103896104,1077.8333333333333,97.91428571428573,1080.25,97.8396103896104C1082.6666666666667,97.76493506493507,1085.0833333333333,97.69025974025973,1087.5,97.61558441558441C1089.9166666666667,97.54090909090908,1092.3333333333333,97.46623376623377,1094.75,97.39155844155844C1097.1666666666667,97.31688311688312,1099.5833333333333,97.24220779220778,1102,97.16753246753245C1104.4166666666667,97.09285714285713,1106.8333333333333,97.01818181818182,1109.25,96.94350649350649C1111.6666666666667,96.86883116883116,1114.0833333333333,96.79415584415584,1116.5,96.71948051948051C1118.9166666666667,96.64480519480519,1121.3333333333333,96.57012987012988,1123.75,96.49545454545455C1126.1666666666667,96.42077922077922,1128.5833333333333,96.3461038961039,1131,96.27142857142857C1133.4166666666667,96.19675324675325,1135.8333333333333,96.12207792207793,1138.25,96.04740259740261C1140.6666666666667,95.97272727272728,1143.0833333333333,95.89805194805194,1145.5,95.82337662337662C1147.9166666666667,95.74870129870129,1150.3333333333333,95.67402597402598,1152.75,95.59935064935065C1155.1666666666667,95.52467532467533,1157.5833333333333,95.45,1160,95.37532467532468C1162.4166666666667,95.30064935064935,1164.8333333333333,95.22597402597403,1167.25,95.1512987012987C1169.6666666666667,95.07662337662337,1172.0833333333333,95.00194805194805,1174.5,94.92727272727272C1176.9166666666667,94.8525974025974,1179.3333333333333,94.77792207792209,1181.75,94.70324675324676C1184.1666666666667,94.62857142857143,1186.5833333333333,94.55389610389611,1189,94.47922077922078C1191.4166666666667,94.40454545454546,1193.8333333333333,94.32987012987014,1196.25,94.25519480519482C1198.6666666666667,94.1805194805195,1201.0833333333333,94.10584415584415,1203.5,94.03116883116883C1205.9166666666667,93.9564935064935,1208.3333333333333,93.88181818181819,1210.75,93.80714285714286C1213.1666666666667,93.73246753246754,1215.5833333333333,93.6577922077922,1218,93.58311688311687C1220.4166666666667,93.50844155844155,1222.8333333333333,93.43376623376624,1225.25,93.35909090909091C1227.6666666666667,93.28441558441558,1230.0833333333333,93.20974025974026,1232.5,93.13506493506493C1234.9166666666667,93.0603896103896,1237.3333333333333,92.9857142857143,1239.75,92.91103896103897C1242.1666666666667,92.83636363636364,1244.5833333333333,92.76168831168832,1247,92.68701298701299C1249.4166666666667,92.61233766233767,1251.8333333333333,92.53766233766234,1254.25,92.46298701298701C1256.6666666666667,92.38831168831169,1259.0833333333333,92.31363636363636,1261.5,92.23896103896104C1263.9166666666667,92.16428571428571,1266.3333333333333,92.08961038961039,1268.75,92.01493506493506C1271.1666666666667,91.94025974025973,1273.5833333333333,91.86558441558441,1276,91.79090909090908C1278.4166666666667,91.71623376623376,1280.8333333333333,91.64155844155843,1283.25,91.5668831168831C1285.6666666666667,91.49220779220778,1288.0833333333333,91.41753246753247,1290.5,91.34285714285714C1292.9166666666667,91.26818181818182,1295.3333333333333,91.19350649350649,1297.75,91.11883116883116C1300.1666666666667,91.04415584415584,1302.5833333333333,90.96948051948053,1305,90.8948051948052C1307.4166666666667,90.82012987012988,1309.8333333333333,90.74545454545455,1312.25,90.67077922077922C1314.6666666666667,90.5961038961039,1317.0833333333333,90.52142857142857,1319.5,90.44675324675325C1321.9166666666667,90.37207792207792,1324.3333333333333,90.2974025974026,1326.75,90.22272727272727C1329.1666666666667,90.14805194805194,1331.5833333333333,90.07337662337663,1334,89.9987012987013C1336.4166666666667,89.92402597402598,1338.8333333333333,89.84935064935065,1341.25,89.77467532467533C1343.6666666666667,89.7,1346.0833333333333,89.62532467532468,1348.5,89.55064935064935C1350.9166666666667,89.47597402597403,1353.3333333333333,89.4012987012987,1355.75,89.32662337662337C1358.1666666666667,89.25194805194805,1360.5833333333333,89.17727272727274,1363,89.10259740259741C1365.4166666666667,89.02792207792209,1367.8333333333333,88.95324675324676,1370.25,88.87857142857143C1372.6666666666667,88.80389610389611,1375.0833333333333,88.7292207792208,1377.5,88.65454545454547C1379.9166666666667,88.57987012987014,1382.3333333333333,88.5051948051948,1384.75,88.43051948051948C1387.1666666666667,88.35584415584415,1389.5833333333333,88.28116883116884,1392,88.20649350649352C1394.4166666666667,88.13181818181819,1396.8333333333333,88.05714285714286,1399.25,87.98246753246754C1401.6666666666667,87.90779220779221,1404.0833333333333,87.83311688311689,1406.5,87.75844155844156C1408.9166666666667,87.68376623376624,1411.3333333333333,87.60909090909091,1413.75,87.53441558441558C1416.1666666666667,87.45974025974026,1418.5833333333333,87.38506493506493,1421,87.3103896103896C1423.4166666666667,87.23571428571428,1425.8333333333333,87.16103896103897,1428.25,87.08636363636364C1430.6666666666667,87.01168831168832,1433.0833333333333,86.93701298701299,1435.5,86.86233766233767C1437.9166666666667,86.78766233766234,1440.3333333333333,86.71298701298701,1442.75,86.63831168831169C1445.1666666666667,86.56363636363636,1447.5833333333333,86.48896103896104,1450,86.41428571428571" fill="transparent" stroke-linecap="round" stroke="#E7C6DF" stroke-width="2"></path><g class="visx-group visx-axis visx-axis-bottom" transform="translate(0, 115)"><g class="visx-group visx-axis-tick" transform="translate(0, 0)"><line class="visx-line" x1="0" y1="0" x2="0" y2="8" fill="transparent" shape-rendering="crispEdges" stroke="#000" stroke-width="0" stroke-linecap="square"></line><svg x="0" y="0" font-size="10" style="overflow:visible"><text transform="" x="0" y="18" fill="#000" font-size="10" text-anchor="middle"><tspan x="0" dy="0em">0%</tspan></text></svg></g><g class="visx-group visx-axis-tick" transform="translate(0, 0)"><line class="visx-line" x1="362.5" y1="0" x2="362.5" y2="8" fill="transparent" shape-rendering="crispEdges" stroke="#000" stroke-width="0" stroke-linecap="square"></line><svg x="0" y="0" font-size="10" style="overflow:visible"><text transform="" x="362.5" y="18" fill="#000" font-size="10" text-anchor="middle"><tspan x="362.5" dy="0em">25%</tspan></text></svg></g><g class="visx-group visx-axis-tick" transform="translate(0, 0)"><line class="visx-line" x1="725" y1="0" x2="725" y2="8" fill="transparent" shape-rendering="crispEdges" stroke="#000" stroke-width="0" stroke-linecap="square"></line><svg x="0" y="0" font-size="10" style="overflow:visible"><text transform="" x="725" y="18" fill="#000" font-size="10" text-anchor="middle"><tspan x="725" dy="0em">50%</tspan></text></svg></g><g class="visx-group visx-axis-tick" transform="translate(0, 0)"><line class="visx-line" x1="1087.5" y1="0" x2="1087.5" y2="8" fill="transparent" shape-rendering="crispEdges" stroke="#000" stroke-width="0" stroke-linecap="square"></line><svg x="0" y="0" font-size="10" style="overflow:visible"><text transform="" x="1087.5" y="18" fill="#000" font-size="10" text-anchor="middle"><tspan x="1087.5" dy="0em">75%</tspan></text></svg></g><g class="visx-group visx-axis-tick" transform="translate(0, 0)"><line class="visx-line" x1="1450" y1="0" x2="1450" y2="8" fill="transparent" shape-rendering="crispEdges" stroke="#000" stroke-width="0" stroke-linecap="square"></line><svg x="0" y="0" font-size="10" style="overflow:visible"><text transform="" x="1450" y="18" fill="#000" font-size="10" text-anchor="middle"><tspan x="1450" dy="0em">100%</tspan></text></svg></g><line class="visx-line visx-axis-line" x1="0.5" y1="0" x2="1450.5" y2="0" fill="transparent" shape-rendering="crispEdges" stroke="#222" stroke-width="0"></line></g><g class="visx-group visx-axis visx-axis-left" transform="translate(0, 0)"><g class="visx-group visx-axis-tick" transform="translate(0, 0)"><line class="visx-line" x1="0" y1="115" x2="-8" y2="115" fill="transparent" shape-rendering="crispEdges" stroke="#222" stroke-width="0" stroke-linecap="square"></line><svg x="-30" y="0" font-size="8" style="overflow:visible"><text transform="" x="-8" y="115" fill="#000" font-size="8" text-anchor="start"><tspan x="-8" dy="0em">0%</tspan></text></svg></g><g class="visx-group visx-axis-tick" transform="translate(0, 0)"><line class="visx-line" x1="0" y1="49.28571428571429" x2="-8" y2="49.28571428571429" fill="transparent" shape-rendering="crispEdges" stroke="#222" stroke-width="0" stroke-linecap="square"></line><svg x="-30" y="0" font-size="8" style="overflow:visible"><text transform="" x="-8" y="49.28571428571429" fill="#000" font-size="8" text-anchor="start"><tspan x="-8" dy="0em">200%</tspan></text></svg></g><line class="visx-line visx-axis-line" x1="0" y1="115.5" x2="0" y2="0.5" fill="transparent" shape-rendering="crispEdges" stroke="#222" stroke-width="0"></line></g><rect class="visx-bar" width="1450" height="115" fill="transparent"></rect><line class="visx-line" x1="652.5" y1="28" x2="652.5" y2="115" fill="transparent" shape-rendering="crispEdges" stroke="#0062D2" stroke-width="1" pointer-events="none" stroke-dasharray="5,2"></line><svg x="0" y="0" font-size="10px" style="overflow:visible"><text transform="" x="652.5" y="20" font-size="10px" fill="#fff" stroke="#fff" stroke-width="0.8em" text-anchor="middle"><tspan x="652.5" dy="0.355em">Optimal 45%</tspan></text></svg><svg x="0" y="0" font-size="10px" style="overflow:visible"><text transform="" x="652.5" y="20" font-size="10px" fill="#62677B" text-anchor="middle"><tspan x="652.5" dy="0.355em">Optimal 45%</tspan></text></svg></g></svg>