<?xml version="1.0"?><svg xmlns="http://www.w3.org/2000/svg" xmlns:xlink= "http://www.w3.org/1999/xlink" style="background: white;" width="1500" height="300"> <g style="color: black; font-size: 13px; font-family: sans-serif; transform: translate(18px, 25px);"><g><circle r="3" cx="-6" cy="-5" style="fill: #1AD4B3" /><text>Borrow APR, variable</text></g><g style="transform: translateX(150px);"><circle r="3" cx="-6" cy="-5" style="fill: #101423" /><text>Borrow APR, stable</text></g></g><g class="visx-group" transform="translate(45, 50)"><g class="visx-group visx-rows" transform="translate(0, 0)"><line class="visx-line" x1="0" y1="155" x2="1425" y2="155" fill="transparent" shape-rendering="crispEdges" stroke="#F2F0F9" stroke-width="1" pointer-events="none"></line><line class="visx-line" x1="0" y1="111.94444444444444" x2="1425" y2="111.94444444444444" fill="transparent" shape-rendering="crispEdges" stroke="#F2F0F9" stroke-width="1" pointer-events="none"></line><line class="visx-line" x1="0" y1="68.88888888888889" x2="1425" y2="68.88888888888889" fill="transparent" shape-rendering="crispEdges" stroke="#F2F0F9" stroke-width="1" pointer-events="none"></line><line class="visx-line" x1="0" y1="25.83333333333333" x2="1425" y2="25.83333333333333" fill="transparent" shape-rendering="crispEdges" stroke="#F2F0F9" stroke-width="1" pointer-events="none"></line></g><path class="visx-linepath" d="M0,154.9999999998574C2.375,154.9762355699024,4.75,154.95247113994736,7.125,154.9287067099567C9.5,154.90494227996606,11.875,154.88117784992787,14.25,154.85741341991343C16.625,154.833648989899,19,154.80988455988455,21.375,154.7861201298701C23.75,154.76235569985568,26.125,154.73859126984127,28.5,154.71482683982683C30.875,154.6910624098124,33.25,154.66729797979798,35.625,154.64353354978354C38,154.6197691197691,40.375,154.5960046897547,42.75,154.57224025974025C45.125,154.54847582972582,47.50000000000001,154.5247113997114,49.87500000000001,154.50094696969697C52.25000000000001,154.47718253968253,54.625,154.45341810966812,57,154.42965367965368C59.375,154.40588924963924,61.75,154.38212481962483,64.125,154.3583603896104C66.5,154.33459595959596,68.875,154.31083152958155,71.25,154.2870670995671C73.625,154.26330266955267,76,154.23953823953826,78.375,154.21577380952382C80.75,154.1920093795094,83.125,154.16824494949498,85.5,154.14448051948054C87.875,154.1207160894661,90.25,154.09695165945166,92.625,154.07318722943722C95,154.04942279942279,97.37500000000001,154.02565836940838,99.75000000000001,154.00189393939394C102.12500000000001,153.9781295093795,104.5,153.9543650793651,106.875,153.93060064935065C109.25,153.9068362193362,111.625,153.8830717893218,114,153.85930735930737C116.375,153.83554292929293,118.75000000000001,153.81177849927852,121.12500000000001,153.78801406926408C123.50000000000001,153.76424963924964,125.875,153.7404852092352,128.25,153.71672077922076C130.625,153.69295634920633,133,153.66919191919192,135.375,153.64542748917748C137.75,153.62166305916304,140.125,153.59789862914863,142.5,153.5741341991342C144.875,153.55036976911975,147.25,153.52660533910534,149.625,153.5028409090909C152,153.47907647907647,154.375,153.45531204906206,156.75,153.43154761904762C159.125,153.40778318903318,161.5,153.38401875901877,163.875,153.36025432900433C166.25,153.3364898989899,168.625,153.3127254689755,171,153.28896103896105C173.375,153.2651966089466,175.75,153.24143217893217,178.125,153.21766774891773C180.5,153.1939033189033,182.875,153.17013888888889,185.25,153.14637445887445C187.625,153.12261002886,190,153.0988455988456,192.375,153.07508116883116C194.75,153.05131673881672,197.12500000000003,153.0275523088023,199.50000000000003,153.00378787878788C201.875,152.98002344877344,204.25,152.95625901875903,206.62499999999997,152.9324945887446C208.99999999999997,152.90873015873015,211.375,152.88496572871574,213.75,152.8612012987013C216.125,152.83743686868686,218.5,152.81367243867246,220.875,152.78990800865802C223.25,152.76614357864358,225.625,152.74237914862917,228,152.71861471861473C230.375,152.6948502886003,232.75,152.67108585858588,235.125,152.64732142857144C237.5,152.623556998557,239.87500000000003,152.59979256854257,242.25000000000003,152.57602813852813C244.625,152.5522637085137,247,152.52849927849928,249.37499999999997,152.50473484848484C251.74999999999997,152.4809704184704,254.125,152.457205988456,256.5,152.43344155844156C258.875,152.40967712842712,261.25,152.3859126984127,263.625,152.36214826839827C266,152.33838383838383,268.375,152.31461940836942,270.75,152.290854978355C273.125,152.26709054834055,275.5,152.2433261183261,277.875,152.21956168831167C280.25,152.19579725829723,282.625,152.17203282828282,285,152.14826839826839C287.375,152.12450396825395,289.75,152.10073953823954,292.125,152.0769751082251C294.5,152.05321067821066,296.875,152.02944624819625,299.25,152.0056818181818C301.625,151.98191738816737,304,151.95815295815297,306.375,151.93438852813853C308.75,151.9106240981241,311.125,151.88685966810968,313.5,151.86309523809524C315.875,151.8393308080808,318.25,151.8155663780664,320.625,151.79180194805195C323,151.76803751803752,325.375,151.7442730880231,327.75,151.72050865800867C330.125,151.69674422799423,332.5,151.67297979797982,334.875,151.64921536796538C337.25,151.62545093795094,339.625,151.60168650793653,342,151.5779220779221C344.375,151.55415764790766,346.75,151.53039321789322,349.125,151.50662878787878C351.5,151.48286435786434,353.875,151.45909992784993,356.25,151.4353354978355C358.625,151.41157106782106,361,151.38780663780665,363.375,151.3640422077922C365.75,151.34027777777777,368.125,151.31651334776336,370.5,151.29274891774892C372.875,151.26898448773449,375.25,151.24522005772008,377.625,151.22145562770564C380,151.1976911976912,382.375,151.17392676767676,384.75,151.15016233766232C387.125,151.12639790764788,389.50000000000006,151.10263347763347,391.87500000000006,151.07886904761904C394.25000000000006,151.0551046176046,396.62500000000006,151.0313401875902,399.00000000000006,151.00757575757575C401.375,150.9838113275613,403.75,150.9600468975469,406.12499999999994,150.93628246753246C408.49999999999994,150.91251803751803,410.87499999999994,150.88875360750362,413.24999999999994,150.86498917748918C415.62499999999994,150.84122474747474,418,150.81746031746033,420.375,150.7936958874459C422.75,150.76993145743145,425.125,150.74616702741704,427.5,150.7224025974026C429.875,150.69863816738817,432.25,150.67487373737376,434.625,150.65110930735932C437,150.62734487734488,439.375,150.60358044733047,441.75,150.57981601731603C444.125,150.5560515873016,446.5,150.5322871572872,448.875,150.50852272727275C451.25,150.4847582972583,453.625,150.46099386724387,456,150.43722943722943C458.375,150.413465007215,460.75,150.38970057720059,463.125,150.36593614718615C465.5,150.3421717171717,467.875,150.3184072871573,470.25,150.29464285714286C472.625,150.27087842712842,475.00000000000006,150.247113997114,477.37500000000006,150.22334956709958C479.75000000000006,150.19958513708514,482.12500000000006,150.17582070707073,484.50000000000006,150.1520562770563C486.875,150.12829184704185,489.25,150.1045274170274,491.62499999999994,150.08076298701297C493.99999999999994,150.05699855699854,496.37499999999994,150.03323412698413,498.74999999999994,150.0094696969697C501.12499999999994,149.98570526695525,503.5,149.96194083694084,505.875,149.9381764069264C508.25,149.91441197691196,510.625,149.89064754689755,513,149.86688311688312C515.375,149.84311868686868,517.75,149.81935425685427,520.125,149.79558982683983C522.5,149.7718253968254,524.875,149.74806096681095,527.25,149.72429653679652C529.625,149.70053210678208,532,149.67676767676767,534.375,149.65300324675323C536.75,149.6292388167388,539.125,149.60547438672438,541.5,149.58170995670994C543.875,149.5579455266955,546.25,149.5341810966811,548.625,149.51041666666666C551,149.48665223665222,553.375,149.4628878066378,555.75,149.43912337662337C558.125,149.41535894660893,560.5,149.39159451659452,562.875,149.36783008658008C565.25,149.34406565656565,567.625,149.32030122655124,570,149.2965367965368C572.375,149.27277236652236,574.75,149.24900793650795,577.125,149.2252435064935C579.5,149.20147907647907,581.875,149.17771464646466,584.25,149.15395021645023C586.625,149.1301857864358,589,149.10642135642138,591.375,149.08265692640694C593.75,149.0588924963925,596.125,149.03512806637806,598.5,149.01136363636363C600.875,148.9875992063492,603.25,148.96383477633478,605.625,148.94007034632034C608,148.9163059163059,610.375,148.8925414862915,612.75,148.86877705627705C615.125,148.84501262626262,617.5,148.8212481962482,619.875,148.79748376623377C622.25,148.77371933621933,624.625,148.74995490620492,627,148.72619047619048C629.375,148.70242604617604,631.75,148.67866161616163,634.125,148.6548971861472C636.5,148.63113275613276,638.875,148.60736832611832,641.25,148.58360389610388C643.625,148.55983946608944,646,148.53607503607503,648.375,148.5123106060606C650.75,148.48854617604616,653.125,148.46478174603175,655.5,148.4410173160173C657.875,148.41725288600287,660.25,148.39348845598846,662.625,148.36972402597402C665,148.34595959595958,667.375,148.32219516594517,669.75,148.29843073593074C672.125,148.2746663059163,674.5,148.2509018759019,676.875,148.22713744588745C679.25,148.203373015873,681.625,148.1796085858586,684,148.15584415584416C686.375,148.13207972582973,688.75,148.10831529581532,691.125,148.08455086580088C693.5,148.06078643578644,695.875,148.03702200577203,698.25,148.0132575757576C700.625,147.98949314574315,703,147.96572871572874,705.375,147.9419642857143C707.75,147.91819985569987,710.125,147.89443542568543,712.5,147.870670995671C714.875,147.84690656565655,717.25,147.82314213564214,719.625,147.7993777056277C722,147.77561327561327,724.375,147.75184884559886,726.75,147.72808441558442C729.125,147.70431998556998,731.5,147.68055555555557,733.875,147.65679112554113C736.25,147.6330266955267,738.625,147.60926226551229,741,147.58549783549785C743.375,147.5617334054834,745.75,147.53796897546897,748.125,147.51420454545453C750.5,147.4904401154401,752.875,147.46667568542568,755.25,147.44291125541125C757.625,147.4191468253968,760,147.3953823953824,762.375,147.37161796536796C764.75,147.34785353535352,767.125,147.3240891053391,769.5,147.30032467532467C771.875,147.27656024531024,774.2500000000001,147.25279581529583,776.6250000000001,147.2290313852814C779.0000000000001,147.20526695526695,781.3750000000001,147.18150252525254,783.7500000000001,147.1577380952381C786.1250000000001,147.13397366522366,788.5000000000001,147.11020923520925,790.8750000000001,147.08644480519482C793.2500000000001,147.06268037518038,795.6250000000001,147.03891594516594,798.0000000000001,147.0151515151515C800.375,146.99138708513706,802.75,146.96762265512265,805.1249999999999,146.94385822510822C807.4999999999999,146.92009379509378,809.8749999999999,146.89632936507937,812.2499999999999,146.87256493506493C814.6249999999999,146.8488005050505,816.9999999999999,146.82503607503608,819.3749999999999,146.80127164502164C821.7499999999999,146.7775072150072,824.1249999999999,146.7537427849928,826.4999999999999,146.72997835497836C828.8749999999999,146.70621392496392,831.25,146.6824494949495,833.625,146.65868506493507C836,146.63492063492063,838.375,146.61115620490622,840.75,146.58739177489178C843.125,146.56362734487735,845.5,146.53986291486294,847.875,146.5160984848485C850.25,146.49233405483406,852.625,146.46856962481962,855,146.44480519480518C857.375,146.42104076479075,859.75,146.39727633477634,862.125,146.3735119047619C864.5,146.34974747474746,866.875,146.32598304473305,869.25,146.3022186147186C871.625,146.27845418470417,874,146.25468975468976,876.375,146.23092532467533C878.75,146.2071608946609,881.125,146.18339646464648,883.5,146.15963203463204C885.875,146.1358676046176,888.25,146.11210317460316,890.625,146.08833874458873C893,146.0645743145743,895.375,146.04080988455988,897.75,146.01704545454544C900.125,145.993281024531,902.5,145.9695165945166,904.875,145.94575216450215C907.25,145.92198773448771,909.625,145.8982233044733,912,145.87445887445887C914.375,145.85069444444443,916.75,145.82693001443002,919.125,145.80316558441558C921.5,145.77940115440114,923.875,145.75563672438673,926.25,145.7318722943723C928.625,145.70810786435786,931,145.68434343434345,933.375,145.660579004329C935.75,145.63681457431457,938.125,145.61305014430016,940.5,145.58928571428572C942.875,145.56552128427128,945.25,145.54175685425687,947.625,145.51799242424244C950,145.494227994228,952.3750000000001,145.4704635642136,954.7500000000001,145.44669913419915C957.1250000000001,145.4229347041847,959.5000000000001,145.39917027417027,961.8750000000001,145.37540584415584C964.2500000000001,145.3516414141414,966.6250000000001,145.327876984127,969.0000000000001,145.30411255411255C971.3750000000001,145.2803481240981,973.7500000000001,145.2565836940837,976.1250000000001,145.23281926406926C978.5,145.20905483405483,980.875,145.18529040404042,983.2499999999999,145.16152597402598C985.6249999999999,145.13776154401154,987.9999999999999,145.11399711399713,990.3749999999999,145.0902326839827C992.7499999999999,145.06646825396825,995.1249999999999,145.04270382395381,997.4999999999999,145.01893939393938C999.8749999999999,144.99517496392494,1002.2499999999999,144.97141053391053,1004.6249999999999,144.9476461038961C1006.9999999999999,144.92388167388165,1009.375,144.90011724386724,1011.75,144.8763528138528C1014.125,144.85258838383837,1016.5,144.82882395382396,1018.875,144.80505952380952C1021.25,144.78129509379508,1023.625,144.75753066378067,1026,144.73376623376623C1028.375,144.7100018037518,1030.75,144.68623737373738,1033.125,144.66247294372295C1035.5,144.6387085137085,1037.875,144.6149440836941,1040.25,144.59117965367966C1042.625,144.56741522366522,1045,144.5436507936508,1047.375,144.51988636363637C1049.75,144.49612193362194,1052.125,144.47235750360753,1054.5,144.4485930735931C1056.875,144.42482864357865,1059.25,144.40106421356424,1061.625,144.3772997835498C1064,144.35353535353536,1066.375,144.32977092352093,1068.75,144.3060064935065C1071.125,144.28224206349205,1073.5,144.25847763347764,1075.875,144.2347132034632C1078.25,144.21094877344876,1080.625,144.18718434343435,1083,144.16341991341992C1085.375,144.13965548340548,1087.75,144.11589105339107,1090.125,144.09212662337663C1092.5,144.0683621933622,1094.875,144.0683621933622,1097.25,144.02083333333334C1099.625,143.9733044733045,1102,142.3485305958132,1104.375,141.51237922705315C1106.75,140.6762278582931,1109.125,139.840076489533,1111.5,139.00392512077295C1113.875,138.1677737520129,1116.25,137.3316223832528,1118.625,136.49547101449275C1121,135.6593196457327,1123.375,134.8231682769726,1125.75,133.98701690821255C1128.125,133.1508655394525,1130.5,132.3147141706924,1132.875,131.47856280193236C1135.25,130.6424114331723,1137.625,129.80626006441224,1140,128.9701086956522C1142.375,128.13395732689213,1144.75,127.29780595813205,1147.125,126.46165458937197C1149.5,125.6255032206119,1151.875,124.78935185185185,1154.25,123.95320048309179C1156.625,123.11704911433173,1159,122.28089774557166,1161.375,121.4447463768116C1163.75,120.60859500805152,1166.125,119.77244363929145,1168.5,118.9362922705314C1170.875,118.10014090177134,1173.25,117.26398953301128,1175.625,116.42783816425123C1178,115.59168679549117,1180.375,114.75553542673109,1182.75,113.91938405797102C1185.125,113.08323268921094,1187.5,112.2470813204509,1189.875,111.41092995169083C1192.25,110.57477858293076,1194.625,109.73862721417069,1197,108.90247584541062C1199.375,108.06632447665055,1201.75,107.2301731078905,1204.125,106.39402173913044C1206.5,105.55787037037038,1208.875,104.72171900161032,1211.25,103.88556763285025C1213.625,103.04941626409018,1216,102.21326489533013,1218.375,101.37711352657006C1220.75,100.54096215780999,1223.125,99.70481078904992,1225.5,98.86865942028984C1227.875,98.03250805152977,1230.25,97.19635668276972,1232.625,96.36020531400965C1235,95.52405394524958,1237.375,94.6879025764895,1239.75,93.85175120772945C1242.125,93.0155998389694,1244.5,92.17944847020934,1246.875,91.34329710144928C1249.25,90.50714573268922,1251.625,89.67099436392915,1254,88.83484299516908C1256.375,87.99869162640901,1258.75,87.16254025764894,1261.125,86.32638888888889C1263.5,85.49023752012883,1265.875,84.65408615136877,1268.25,83.81793478260872C1270.625,82.98178341384866,1273,82.14563204508858,1275.375,81.3094806763285C1277.75,80.47332930756843,1280.125,79.63717793880838,1282.5,78.80102657004831C1284.875,77.96487520128824,1287.25,77.12872383252818,1289.625,76.29257246376811C1292,75.45642109500804,1294.375,74.62026972624798,1296.75,73.78411835748793C1299.125,72.94796698872787,1301.5,72.1118156199678,1303.875,71.27566425120773C1306.25,70.43951288244766,1308.625,69.6033615136876,1311,68.76721014492753C1313.375,67.93105877616746,1315.75,67.0949074074074,1318.125,66.25875603864733C1320.5,65.42260466988726,1322.875,64.58645330112721,1325.25,63.750301932367144C1327.625,62.91415056360708,1330,62.07799919484703,1332.375,61.24184782608697C1334.75,60.405696457326904,1337.125,59.56954508856682,1339.5,58.733393719806756C1341.875,57.89724235104669,1344.25,57.06109098228664,1346.625,56.22493961352658C1349,55.388788244766516,1351.375,54.55263687600645,1353.75,53.71648550724639C1356.125,52.880334138486326,1358.5,52.044182769726255,1360.875,51.20803140096619C1363.25,50.37188003220613,1365.625,49.535728663446065,1368,48.699577294686C1370.375,47.86342592592594,1372.75,47.02727455716587,1375.125,46.191123188405804C1377.5,45.35497181964574,1379.875,44.518820450885684,1382.25,43.682669082125614C1384.625,42.84651771336554,1387,42.01036634460547,1389.375,41.1742149758454C1391.75,40.33806360708533,1394.125,39.50191223832527,1396.5,38.665760869565204C1398.875,37.82960950080514,1401.25,36.99345813204508,1403.625,36.157306763285014C1406,35.32115539452495,1408.375,34.48500402576488,1410.75,33.64885265700482C1413.125,32.81270128824475,1415.5,31.976549919484704,1417.875,31.14039855072464C1420.25,30.304247181964577,1422.625,29.468095813204513,1425,28.631944444444446" fill="transparent" stroke-linecap="round" stroke="#1AD4B3" stroke-width="2"></path><g class="visx-group visx-axis visx-axis-bottom" transform="translate(0, 155)"><g class="visx-group visx-axis-tick" transform="translate(0, 0)"><line class="visx-line" x1="0" y1="0" x2="0" y2="8" fill="transparent" shape-rendering="crispEdges" stroke="#F2F0F9" stroke-width="1" stroke-linecap="square"></line><svg x="0" y="0" font-size="11" style="overflow:visible"><text transform="" x="0" y="19" fill="#1B2030" font-size="11" text-anchor="middle"><tspan x="0" dy="0em">0%</tspan></text></svg></g><g class="visx-group visx-axis-tick" transform="translate(0, 0)"><line class="visx-line" x1="356.25" y1="0" x2="356.25" y2="8" fill="transparent" shape-rendering="crispEdges" stroke="#F2F0F9" stroke-width="1" stroke-linecap="square"></line><svg x="0" y="0" font-size="11" style="overflow:visible"><text transform="" x="356.25" y="19" fill="#1B2030" font-size="11" text-anchor="middle"><tspan x="356.25" dy="0em">25%</tspan></text></svg></g><g class="visx-group visx-axis-tick" transform="translate(0, 0)"><line class="visx-line" x1="712.5" y1="0" x2="712.5" y2="8" fill="transparent" shape-rendering="crispEdges" stroke="#F2F0F9" stroke-width="1" stroke-linecap="square"></line><svg x="0" y="0" font-size="11" style="overflow:visible"><text transform="" x="712.5" y="19" fill="#1B2030" font-size="11" text-anchor="middle"><tspan x="712.5" dy="0em">50%</tspan></text></svg></g><g class="visx-group visx-axis-tick" transform="translate(0, 0)"><line class="visx-line" x1="1068.75" y1="0" x2="1068.75" y2="8" fill="transparent" shape-rendering="crispEdges" stroke="#F2F0F9" stroke-width="1" stroke-linecap="square"></line><svg x="0" y="0" font-size="11" style="overflow:visible"><text transform="" x="1068.75" y="19" fill="#1B2030" font-size="11" text-anchor="middle"><tspan x="1068.75" dy="0em">75%</tspan></text></svg></g><g class="visx-group visx-axis-tick" transform="translate(0, 0)"><line class="visx-line" x1="1425" y1="0" x2="1425" y2="8" fill="transparent" shape-rendering="crispEdges" stroke="#F2F0F9" stroke-width="1" stroke-linecap="square"></line><svg x="0" y="0" font-size="11" style="overflow:visible"><text transform="" x="1425" y="19" fill="#1B2030" font-size="11" text-anchor="middle"><tspan x="1425" dy="0em">100%</tspan></text></svg></g></g><g class="visx-group visx-axis visx-axis-left" transform="translate(0, 0)"><g class="visx-group visx-axis-tick" transform="translate(0, 0)"><line class="visx-line" x1="0" y1="155" x2="-8" y2="155" fill="transparent" shape-rendering="crispEdges" stroke="#F2F0F9" stroke-width="1" stroke-linecap="square"></line><svg x="-30" y="0" font-size="11" style="overflow:visible"><text transform="" x="-8" y="155" fill="#1B2030" font-size="11" text-anchor="start"><tspan x="-8" dy="0em">0%</tspan></text></svg></g><g class="visx-group visx-axis-tick" transform="translate(0, 0)"><line class="visx-line" x1="0" y1="111.94444444444444" x2="-8" y2="111.94444444444444" fill="transparent" shape-rendering="crispEdges" stroke="#F2F0F9" stroke-width="1" stroke-linecap="square"></line><svg x="-30" y="0" font-size="11" style="overflow:visible"><text transform="" x="-8" y="111.94444444444444" fill="#1B2030" font-size="11" text-anchor="start"><tspan x="-8" dy="0em">50%</tspan></text></svg></g><g class="visx-group visx-axis-tick" transform="translate(0, 0)"><line class="visx-line" x1="0" y1="68.88888888888889" x2="-8" y2="68.88888888888889" fill="transparent" shape-rendering="crispEdges" stroke="#F2F0F9" stroke-width="1" stroke-linecap="square"></line><svg x="-30" y="0" font-size="11" style="overflow:visible"><text transform="" x="-8" y="68.88888888888889" fill="#1B2030" font-size="11" text-anchor="start"><tspan x="-8" dy="0em">100%</tspan></text></svg></g><g class="visx-group visx-axis-tick" transform="translate(0, 0)"><line class="visx-line" x1="0" y1="25.83333333333333" x2="-8" y2="25.83333333333333" fill="transparent" shape-rendering="crispEdges" stroke="#F2F0F9" stroke-width="1" stroke-linecap="square"></line><svg x="-30" y="0" font-size="11" style="overflow:visible"><text transform="" x="-8" y="25.83333333333333" fill="#1B2030" font-size="11" text-anchor="start"><tspan x="-8" dy="0em">150%</tspan></text></svg></g><line class="visx-line visx-axis-line" x1="0" y1="155.5" x2="0" y2="0.5" fill="transparent" shape-rendering="crispEdges" stroke="#F2F0F9" stroke-width="1"></line></g><rect class="visx-bar" width="1425" height="155" fill="transparent"></rect><line class="visx-line" x1="1097.25" y1="58" x2="1097.25" y2="155" fill="transparent" shape-rendering="crispEdges" stroke="#CDC8E1" stroke-width="1" pointer-events="none" stroke-dasharray="5"></line><svg x="0" y="0" font-size="11px" style="overflow:visible"><text transform="" x="1097.25" y="50" font-size="11px" fill="#555069" stroke="#FFFFFF" stroke-width="1px" text-anchor="middle"><tspan x="1097.25" dy="0.355em">uOptimal 77%</tspan></text></svg><svg x="0" y="0" font-size="11px" style="overflow:visible"><text transform="" x="1097.25" y="50" font-size="11px" fill="#CDC8E1" text-anchor="middle"><tspan x="1097.25" dy="0.355em">uOptimal 77%</tspan></text></svg></g></svg>