<?xml version="1.0"?><svg xmlns="http://www.w3.org/2000/svg" xmlns:xlink= "http://www.w3.org/1999/xlink" style="background: white;" width="1500" height="300"> <g style="color: black; font-size: 13px; font-family: sans-serif; transform: translate(18px, 25px);"><g><circle r="3" cx="-6" cy="-5" style="fill: #1AD4B3" /><text>Borrow APR, variable</text></g><g style="transform: translateX(150px);"><circle r="3" cx="-6" cy="-5" style="fill: #101423" /><text>Borrow APR, stable</text></g></g><g class="visx-group" transform="translate(45, 50)"><g class="visx-group visx-rows" transform="translate(0, 0)"><line class="visx-line" x1="0" y1="155" x2="1425" y2="155" fill="transparent" shape-rendering="crispEdges" stroke="#F2F0F9" stroke-width="1" pointer-events="none"></line><line class="visx-line" x1="0" y1="77.5" x2="1425" y2="77.5" fill="transparent" shape-rendering="crispEdges" stroke="#F2F0F9" stroke-width="1" pointer-events="none"></line><line class="visx-line" x1="0" y1="0" x2="1425" y2="0" fill="transparent" shape-rendering="crispEdges" stroke="#F2F0F9" stroke-width="1" pointer-events="none"></line></g><path class="visx-linepath" d="M0,154.9999999999053C2.375,154.98421296290772,4.75,154.96842592591014,7.125,154.95263888888888C9.5,154.93685185186763,11.875,154.9210648148148,14.25,154.90527777777777C16.625,154.88949074074074,19,154.87370370370368,21.375,154.85791666666665C23.75,154.84212962962962,26.125,154.8263425925926,28.5,154.81055555555557C30.875,154.79476851851854,33.25,154.77898148148148,35.625,154.76319444444445C38,154.74740740740742,40.375,154.73162037037036,42.75,154.71583333333334C45.125,154.7000462962963,47.50000000000001,154.68425925925925,49.87500000000001,154.66847222222222C52.25000000000001,154.6526851851852,54.625,154.63689814814813,57,154.6211111111111C59.375,154.60532407407408,61.75,154.58953703703702,64.125,154.57375C66.5,154.55796296296296,68.875,154.5421759259259,71.25,154.52638888888887C73.625,154.51060185185185,76,154.4948148148148,78.375,154.47902777777776C80.75,154.46324074074073,83.125,154.4474537037037,85.5,154.43166666666667C87.875,154.41587962962964,90.25,154.40009259259259,92.625,154.38430555555556C95,154.36851851851853,97.37500000000001,154.35273148148147,99.75000000000001,154.33694444444444C102.12500000000001,154.3211574074074,104.5,154.30537037037035,106.875,154.28958333333333C109.25,154.2737962962963,111.625,154.25800925925924,114,154.2422222222222C116.375,154.22643518518518,118.75000000000001,154.21064814814815,121.12500000000001,154.19486111111112C123.50000000000001,154.1790740740741,125.875,154.16328703703704,128.25,154.1475C130.625,154.13171296296298,133,154.11592592592592,135.375,154.1001388888889C137.75,154.08435185185186,140.125,154.0685648148148,142.5,154.05277777777778C144.875,154.03699074074075,147.25,154.0212037037037,149.625,154.00541666666666C152,153.98962962962963,154.375,153.9738425925926,156.75,153.95805555555557C159.125,153.94226851851855,161.5,153.9264814814815,163.875,153.91069444444446C166.25,153.89490740740743,168.625,153.87912037037037,171,153.86333333333334C173.375,153.84754629629631,175.75,153.83175925925926,178.125,153.81597222222223C180.5,153.8001851851852,182.875,153.78439814814814,185.25,153.7686111111111C187.625,153.75282407407408,190,153.73703703703703,192.375,153.72125C194.75,153.70546296296297,197.12500000000003,153.6896759259259,199.50000000000003,153.67388888888888C201.875,153.65810185185185,204.25,153.6423148148148,206.62499999999997,153.62652777777777C208.99999999999997,153.61074074074074,211.375,153.5949537037037,213.75,153.57916666666668C216.125,153.56337962962965,218.5,153.5475925925926,220.875,153.53180555555556C223.25,153.51601851851854,225.625,153.50023148148148,228,153.48444444444445C230.375,153.46865740740742,232.75,153.45287037037036,235.125,153.43708333333333C237.5,153.4212962962963,239.87500000000003,153.40550925925925,242.25000000000003,153.38972222222222C244.625,153.3739351851852,247,153.35814814814813,249.37499999999997,153.3423611111111C251.74999999999997,153.32657407407407,254.125,153.31078703703702,256.5,153.295C258.875,153.27921296296296,261.25,153.26342592592593,263.625,153.2476388888889C266,153.23185185185187,268.375,153.2160648148148,270.75,153.20027777777779C273.125,153.18449074074076,275.5,153.1687037037037,277.875,153.15291666666667C280.25,153.13712962962964,282.625,153.12134259259258,285,153.10555555555555C287.375,153.08976851851853,289.75,153.07398148148147,292.125,153.05819444444444C294.5,153.0424074074074,296.875,153.02662037037035,299.25,153.01083333333332C301.625,152.9950462962963,304,152.97925925925924,306.375,152.9634722222222C308.75,152.94768518518518,311.125,152.93189814814812,313.5,152.9161111111111C315.875,152.90032407407406,318.25,152.88453703703703,320.625,152.86875C323,152.85296296296298,325.375,152.83717592592592,327.75,152.8213888888889C330.125,152.80560185185186,332.5,152.7898148148148,334.875,152.77402777777777C337.25,152.75824074074075,339.625,152.7424537037037,342,152.72666666666666C344.375,152.71087962962963,346.75,152.69509259259257,349.125,152.67930555555554C351.5,152.66351851851852,353.875,152.6477314814815,356.25,152.63194444444446C358.625,152.61615740740743,361,152.60037037037037,363.375,152.58458333333334C365.75,152.5687962962963,368.125,152.55300925925926,370.5,152.53722222222223C372.875,152.5214351851852,375.25,152.50564814814814,377.625,152.4898611111111C380,152.47407407407408,382.375,152.45828703703702,384.75,152.4425C387.125,152.42671296296297,389.50000000000006,152.41092592592594,391.87500000000006,152.3951388888889C394.25000000000006,152.37935185185188,396.62500000000006,152.36356481481482,399.00000000000006,152.3477777777778C401.375,152.33199074074076,403.75,152.3162037037037,406.12499999999994,152.30041666666668C408.49999999999994,152.28462962962965,410.87499999999994,152.2688425925926,413.24999999999994,152.25305555555556C415.62499999999994,152.23726851851853,418,152.22148148148148,420.375,152.20569444444445C422.75,152.18990740740742,425.125,152.17412037037036,427.5,152.15833333333333C429.875,152.1425462962963,432.25,152.12675925925925,434.625,152.11097222222222C437,152.0951851851852,439.375,152.07939814814813,441.75,152.0636111111111C444.125,152.04782407407407,446.5,152.03203703703704,448.875,152.01625C451.25,152.00046296296298,453.625,151.98467592592593,456,151.9688888888889C458.375,151.95310185185187,460.75,151.9373148148148,463.125,151.92152777777778C465.5,151.90574074074075,467.875,151.8899537037037,470.25,151.87416666666667C472.625,151.85837962962964,475.00000000000006,151.84259259259258,477.37500000000006,151.82680555555555C479.75000000000006,151.81101851851852,482.12500000000006,151.79523148148147,484.50000000000006,151.77944444444444C486.875,151.7636574074074,489.25,151.74787037037035,491.62499999999994,151.73208333333332C493.99999999999994,151.7162962962963,496.37499999999994,151.70050925925926,498.74999999999994,151.68472222222223C501.12499999999994,151.6689351851852,503.5,151.65314814814815,505.875,151.63736111111112C508.25,151.6215740740741,510.625,151.60578703703703,513,151.59C515.375,151.57421296296297,517.75,151.55842592592592,520.125,151.5426388888889C522.5,151.52685185185186,524.875,151.5110648148148,527.25,151.49527777777777C529.625,151.47949074074074,532,151.4637037037037,534.375,151.44791666666666C536.75,151.43212962962963,539.125,151.41634259259257,541.5,151.40055555555554C543.875,151.3847685185185,546.25,151.36898148148146,548.625,151.35319444444443C551,151.3374074074074,553.375,151.32162037037037,555.75,151.30583333333334C558.125,151.2900462962963,560.5,151.27425925925925,562.875,151.25847222222222C565.25,151.2426851851852,567.625,151.22689814814814,570,151.2111111111111C572.375,151.19532407407408,574.75,151.17953703703702,577.125,151.16375C579.5,151.14796296296296,581.875,151.1321759259259,584.25,151.11638888888888C586.625,151.10060185185185,589,151.0848148148148,591.375,151.06902777777776C593.75,151.05324074074073,596.125,151.0374537037037,598.5,151.02166666666668C600.875,151.00587962962965,603.25,150.9900925925926,605.625,150.97430555555556C608,150.95851851851853,610.375,150.94273148148147,612.75,150.92694444444444C615.125,150.91115740740742,617.5,150.89537037037036,619.875,150.87958333333333C622.25,150.8637962962963,624.625,150.84800925925927,627,150.83222222222224C629.375,150.8164351851852,631.75,150.80064814814816,634.125,150.78486111111113C636.5,150.7690740740741,638.875,150.75328703703704,641.25,150.7375C643.625,150.72171296296298,646,150.70592592592592,648.375,150.6901388888889C650.75,150.67435185185187,653.125,150.6585648148148,655.5,150.64277777777778C657.875,150.62699074074075,660.25,150.6112037037037,662.625,150.59541666666667C665,150.57962962962964,667.375,150.56384259259258,669.75,150.54805555555555C672.125,150.53226851851852,674.5,150.51648148148146,676.875,150.50069444444443C679.25,150.4849074074074,681.625,150.46912037037038,684,150.45333333333335C686.375,150.43754629629632,688.75,150.42175925925926,691.125,150.40597222222223C693.5,150.3901851851852,695.875,150.37439814814815,698.25,150.35861111111112C700.625,150.3428240740741,703,150.32703703703703,705.375,150.31125C707.75,150.29546296296297,710.125,150.27967592592591,712.5,150.26388888888889C714.875,150.24810185185186,717.25,150.2323148148148,719.625,150.21652777777777C722,150.20074074074074,724.375,150.18495370370368,726.75,150.16916666666665C729.125,150.15337962962963,731.5,150.13759259259257,733.875,150.12180555555554C736.25,150.1060185185185,738.625,150.09023148148148,741,150.07444444444445C743.375,150.05865740740742,745.75,150.04287037037037,748.125,150.02708333333334C750.5,150.0112962962963,752.875,149.99550925925925,755.25,149.97972222222222C757.625,149.9639351851852,760,149.94814814814814,762.375,149.9323611111111C764.75,149.91657407407408,767.125,149.90078703703702,769.5,149.885C771.875,149.86921296296296,774.2500000000001,149.8534259259259,776.6250000000001,149.83763888888888C779.0000000000001,149.82185185185185,781.3750000000001,149.8060648148148,783.7500000000001,149.79027777777776C786.1250000000001,149.77449074074073,788.5000000000001,149.7587037037037,790.8750000000001,149.74291666666667C793.2500000000001,149.72712962962964,795.6250000000001,149.7113425925926,798.0000000000001,149.69555555555556C800.375,149.67976851851853,802.75,149.66398148148147,805.1249999999999,149.64819444444444C807.4999999999999,149.6324074074074,809.8749999999999,149.61662037037036,812.2499999999999,149.60083333333333C814.6249999999999,149.5850462962963,816.9999999999999,149.56925925925927,819.3749999999999,149.55347222222224C821.7499999999999,149.5376851851852,824.1249999999999,149.52189814814815,826.4999999999999,149.50611111111112C828.8749999999999,149.4903240740741,831.25,149.47453703703704,833.625,149.45875C836,149.44296296296298,838.375,149.42717592592592,840.75,149.4113888888889C843.125,149.39560185185186,845.5,149.3798148148148,847.875,149.36402777777778C850.25,149.34824074074075,852.625,149.3324537037037,855,149.31666666666666C857.375,149.30087962962963,859.75,149.28509259259258,862.125,149.26930555555555C864.5,149.25351851851852,866.875,149.2377314814815,869.25,149.22194444444446C871.625,149.20615740740743,874,149.19037037037037,876.375,149.17458333333335C878.75,149.15879629629632,881.125,149.14300925925926,883.5,149.12722222222223C885.875,149.1114351851852,888.25,149.09564814814814,890.625,149.07986111111111C893,149.06407407407409,895.375,149.04828703703703,897.75,149.0325C900.125,149.01671296296297,902.5,149.0009259259259,904.875,148.98513888888888C907.25,148.96935185185185,909.625,148.9535648148148,912,148.93777777777777C914.375,148.92199074074074,916.75,148.9062037037037,919.125,148.89041666666668C921.5,148.87462962962965,923.875,148.8588425925926,926.25,148.84305555555557C928.625,148.82726851851854,931,148.81148148148148,933.375,148.79569444444445C935.75,148.77990740740742,938.125,148.76412037037036,940.5,148.74833333333333C942.875,148.7325462962963,945.25,148.71675925925925,947.625,148.70097222222222C950,148.6851851851852,952.3750000000001,148.66939814814813,954.7500000000001,148.6536111111111C957.1250000000001,148.63782407407408,959.5000000000001,148.62203703703702,961.8750000000001,148.60625C964.2500000000001,148.59046296296296,966.6250000000001,148.5746759259259,969.0000000000001,148.55888888888887C971.3750000000001,148.54310185185184,973.7500000000001,148.52731481481482,976.1250000000001,148.5115277777778C978.5,148.49574074074076,980.875,148.4799537037037,983.2499999999999,148.46416666666667C985.6249999999999,148.44837962962964,987.9999999999999,148.43259259259258,990.3749999999999,148.41680555555556C992.7499999999999,148.40101851851853,995.1249999999999,148.38523148148147,997.4999999999999,148.36944444444444C999.8749999999999,148.3536574074074,1002.2499999999999,148.33787037037035,1004.6249999999999,148.32208333333332C1006.9999999999999,148.3062962962963,1009.375,148.29050925925924,1011.75,148.2747222222222C1014.125,148.25893518518518,1016.5,148.24314814814812,1018.875,148.2273611111111C1021.25,148.21157407407406,1023.625,148.19578703703704,1026,148.18C1028.375,148.16421296296298,1030.75,148.14842592592592,1033.125,148.1326388888889C1035.5,148.11685185185186,1037.875,148.1010648148148,1040.25,148.08527777777778C1042.625,148.06949074074075,1045,148.0537037037037,1047.375,148.03791666666666C1049.75,148.02212962962963,1052.125,148.00634259259257,1054.5,147.99055555555555C1056.875,147.97476851851852,1059.25,147.95898148148146,1061.625,147.94319444444443C1064,147.9274074074074,1066.375,147.91162037037037,1068.75,147.89583333333334C1071.125,147.8800462962963,1073.5,147.86425925925926,1075.875,147.84847222222223C1078.25,147.8326851851852,1080.625,147.81689814814814,1083,147.8011111111111C1085.375,147.78532407407408,1087.75,147.76953703703703,1090.125,147.75375C1092.5,147.73796296296297,1094.875,147.7221759259259,1097.25,147.70638888888888C1099.625,147.69060185185185,1102,147.67481481481482,1104.375,147.6590277777778C1106.75,147.64324074074077,1109.125,147.6274537037037,1111.5,147.61166666666668C1113.875,147.59587962962965,1116.25,147.5800925925926,1118.625,147.56430555555556C1121,147.54851851851853,1123.375,147.53273148148148,1125.75,147.51694444444445C1128.125,147.50115740740742,1130.5,147.48537037037036,1132.875,147.46958333333333C1135.25,147.4537962962963,1137.625,147.43800925925925,1140,147.42222222222222C1142.375,147.4064351851852,1144.75,147.39064814814813,1147.125,147.3748611111111C1149.5,147.35907407407407,1151.875,147.34328703703704,1154.25,147.32750000000001C1156.625,147.31171296296299,1159,147.29592592592593,1161.375,147.2801388888889C1163.75,147.26435185185187,1166.125,147.2485648148148,1168.5,147.23277777777778C1170.875,147.21699074074075,1173.25,147.2012037037037,1175.625,147.18541666666667C1178,147.16962962962964,1180.375,147.15384259259258,1182.75,147.13805555555555C1185.125,147.12226851851852,1187.5,147.10648148148147,1189.875,147.09069444444444C1192.25,147.0749074074074,1194.625,147.05912037037035,1197,147.04333333333332C1199.375,147.0275462962963,1201.75,147.01175925925924,1204.125,146.9959722222222C1206.5,146.98018518518518,1208.875,146.96439814814815,1211.25,146.94861111111112C1213.625,146.9328240740741,1216,146.91703703703703,1218.375,146.90125C1220.75,146.88546296296298,1223.125,146.86967592592592,1225.5,146.8538888888889C1227.875,146.83810185185186,1230.25,146.8223148148148,1232.625,146.80652777777777C1235,146.79074074074074,1237.375,146.7749537037037,1239.75,146.75916666666666C1242.125,146.74337962962963,1244.5,146.72759259259257,1246.875,146.71180555555554C1249.25,146.6960185185185,1251.625,146.68023148148146,1254,146.66444444444443C1256.375,146.6486574074074,1258.75,146.63287037037037,1261.125,146.61708333333334C1263.5,146.6012962962963,1265.875,146.58550925925925,1268.25,146.56972222222223C1270.625,146.5539351851852,1273,146.53814814814814,1275.375,146.5223611111111C1277.75,146.50657407407408,1280.125,146.50657407407408,1282.5,146.475C1284.875,146.4434259259259,1287.25,142.34166666666667,1289.625,140.275C1292,138.20833333333334,1294.375,136.14166666666665,1296.75,134.075C1299.125,132.00833333333333,1301.5,129.94166666666666,1303.875,127.875C1306.25,125.80833333333334,1308.625,123.74166666666667,1311,121.67500000000001C1313.375,119.60833333333335,1315.75,117.54166666666666,1318.125,115.475C1320.5,113.40833333333333,1322.875,111.34166666666667,1325.25,109.275C1327.625,107.20833333333334,1330,105.14166666666667,1332.375,103.075C1334.75,101.00833333333334,1337.125,98.94166666666666,1339.5,96.875C1341.875,94.80833333333334,1344.25,92.74166666666666,1346.625,90.675C1349,88.60833333333333,1351.375,86.54166666666666,1353.75,84.475C1356.125,82.40833333333333,1358.5,80.34166666666667,1360.875,78.275C1363.25,76.20833333333334,1365.625,74.14166666666665,1368,72.07499999999999C1370.375,70.00833333333333,1372.75,67.94166666666666,1375.125,65.875C1377.5,63.80833333333334,1379.875,61.741666666666674,1382.25,59.675000000000004C1384.625,57.608333333333334,1387,55.54166666666666,1389.375,53.474999999999994C1391.75,51.40833333333333,1394.125,49.34166666666667,1396.5,47.275000000000006C1398.875,45.20833333333334,1401.25,43.14166666666667,1403.625,41.075C1406,39.00833333333333,1408.375,36.94166666666666,1410.75,34.875C1413.125,32.80833333333334,1415.5,30.741666666666674,1417.875,28.675000000000008C1420.25,26.60833333333334,1422.625,24.54166666666667,1425,22.475" fill="transparent" stroke-linecap="round" stroke="#1AD4B3" stroke-width="2"></path><g class="visx-group visx-axis visx-axis-bottom" transform="translate(0, 155)"><g class="visx-group visx-axis-tick" transform="translate(0, 0)"><line class="visx-line" x1="0" y1="0" x2="0" y2="8" fill="transparent" shape-rendering="crispEdges" stroke="#F2F0F9" stroke-width="1" stroke-linecap="square"></line><svg x="0" y="0" font-size="11" style="overflow:visible"><text transform="" x="0" y="19" fill="#1B2030" font-size="11" text-anchor="middle"><tspan x="0" dy="0em">0%</tspan></text></svg></g><g class="visx-group visx-axis-tick" transform="translate(0, 0)"><line class="visx-line" x1="356.25" y1="0" x2="356.25" y2="8" fill="transparent" shape-rendering="crispEdges" stroke="#F2F0F9" stroke-width="1" stroke-linecap="square"></line><svg x="0" y="0" font-size="11" style="overflow:visible"><text transform="" x="356.25" y="19" fill="#1B2030" font-size="11" text-anchor="middle"><tspan x="356.25" dy="0em">25%</tspan></text></svg></g><g class="visx-group visx-axis-tick" transform="translate(0, 0)"><line class="visx-line" x1="712.5" y1="0" x2="712.5" y2="8" fill="transparent" shape-rendering="crispEdges" stroke="#F2F0F9" stroke-width="1" stroke-linecap="square"></line><svg x="0" y="0" font-size="11" style="overflow:visible"><text transform="" x="712.5" y="19" fill="#1B2030" font-size="11" text-anchor="middle"><tspan x="712.5" dy="0em">50%</tspan></text></svg></g><g class="visx-group visx-axis-tick" transform="translate(0, 0)"><line class="visx-line" x1="1068.75" y1="0" x2="1068.75" y2="8" fill="transparent" shape-rendering="crispEdges" stroke="#F2F0F9" stroke-width="1" stroke-linecap="square"></line><svg x="0" y="0" font-size="11" style="overflow:visible"><text transform="" x="1068.75" y="19" fill="#1B2030" font-size="11" text-anchor="middle"><tspan x="1068.75" dy="0em">75%</tspan></text></svg></g><g class="visx-group visx-axis-tick" transform="translate(0, 0)"><line class="visx-line" x1="1425" y1="0" x2="1425" y2="8" fill="transparent" shape-rendering="crispEdges" stroke="#F2F0F9" stroke-width="1" stroke-linecap="square"></line><svg x="0" y="0" font-size="11" style="overflow:visible"><text transform="" x="1425" y="19" fill="#1B2030" font-size="11" text-anchor="middle"><tspan x="1425" dy="0em">100%</tspan></text></svg></g></g><g class="visx-group visx-axis visx-axis-left" transform="translate(0, 0)"><g class="visx-group visx-axis-tick" transform="translate(0, 0)"><line class="visx-line" x1="0" y1="155" x2="-8" y2="155" fill="transparent" shape-rendering="crispEdges" stroke="#F2F0F9" stroke-width="1" stroke-linecap="square"></line><svg x="-30" y="0" font-size="11" style="overflow:visible"><text transform="" x="-8" y="155" fill="#1B2030" font-size="11" text-anchor="start"><tspan x="-8" dy="0em">0%</tspan></text></svg></g><g class="visx-group visx-axis-tick" transform="translate(0, 0)"><line class="visx-line" x1="0" y1="77.5" x2="-8" y2="77.5" fill="transparent" shape-rendering="crispEdges" stroke="#F2F0F9" stroke-width="1" stroke-linecap="square"></line><svg x="-30" y="0" font-size="11" style="overflow:visible"><text transform="" x="-8" y="77.5" fill="#1B2030" font-size="11" text-anchor="start"><tspan x="-8" dy="0em">50%</tspan></text></svg></g><g class="visx-group visx-axis-tick" transform="translate(0, 0)"><line class="visx-line" x1="0" y1="0" x2="-8" y2="0" fill="transparent" shape-rendering="crispEdges" stroke="#F2F0F9" stroke-width="1" stroke-linecap="square"></line><svg x="-30" y="0" font-size="11" style="overflow:visible"><text transform="" x="-8" y="0" fill="#1B2030" font-size="11" text-anchor="start"><tspan x="-8" dy="0em">100%</tspan></text></svg></g><line class="visx-line visx-axis-line" x1="0" y1="155.5" x2="0" y2="0.5" fill="transparent" shape-rendering="crispEdges" stroke="#F2F0F9" stroke-width="1"></line></g><rect class="visx-bar" width="1425" height="155" fill="transparent"></rect><line class="visx-line" x1="1282.5" y1="58" x2="1282.5" y2="155" fill="transparent" shape-rendering="crispEdges" stroke="#CDC8E1" stroke-width="1" pointer-events="none" stroke-dasharray="5"></line><svg x="0" y="0" font-size="11px" style="overflow:visible"><text transform="" x="1282.5" y="50" font-size="11px" fill="#555069" stroke="#FFFFFF" stroke-width="1px" text-anchor="middle"><tspan x="1282.5" dy="0.355em">Optimal utilization 90%</tspan></text></svg><svg x="0" y="0" font-size="11px" style="overflow:visible"><text transform="" x="1282.5" y="50" font-size="11px" fill="#CDC8E1" text-anchor="middle"><tspan x="1282.5" dy="0.355em">Optimal utilization 90%</tspan></text></svg></g></svg>