<?xml version="1.0"?><svg xmlns="http://www.w3.org/2000/svg" xmlns:xlink= "http://www.w3.org/1999/xlink" style="background: white;" width="1500" height="300"> <g style="color: black; font-size: 13px; font-family: sans-serif; transform: translate(18px, 25px);"><g><circle r="3" cx="-6" cy="-5" style="fill: #1AD4B3" /><text>Borrow APR, variable</text></g><g style="transform: translateX(150px);"><circle r="3" cx="-6" cy="-5" style="fill: #101423" /><text>Borrow APR, stable</text></g></g><g class="visx-group" transform="translate(45, 50)"><g class="visx-group visx-rows" transform="translate(0, 0)"><line class="visx-line" x1="0" y1="155" x2="1425" y2="155" fill="transparent" shape-rendering="crispEdges" stroke="#F2F0F9" stroke-width="1" pointer-events="none"></line><line class="visx-line" x1="0" y1="84.54545454545453" x2="1425" y2="84.54545454545453" fill="transparent" shape-rendering="crispEdges" stroke="#F2F0F9" stroke-width="1" pointer-events="none"></line><line class="visx-line" x1="0" y1="14.090909090909095" x2="1425" y2="14.090909090909095" fill="transparent" shape-rendering="crispEdges" stroke="#F2F0F9" stroke-width="1" pointer-events="none"></line></g><path class="visx-linepath" d="M0,151.47727272551137C2.375,151.18371212018465,4.75,150.89015151485796,7.125,150.5965909090909C9.5,150.30303030332385,11.875,150.0094696969697,14.25,149.7159090909091C16.625,149.4223484848485,19,149.12878787878788,21.375,148.83522727272728C23.75,148.54166666666669,26.125,148.24810606060606,28.5,147.95454545454547C30.875,147.66098484848487,33.25,147.36742424242425,35.625,147.07386363636363C38,146.780303030303,40.375,146.4867424242424,42.75,146.1931818181818C45.125,145.89962121212122,47.50000000000001,145.6060606060606,49.87500000000001,145.3125C52.25000000000001,145.0189393939394,54.625,144.72537878787878,57,144.4318181818182C59.375,144.1382575757576,61.75,143.844696969697,64.125,143.55113636363637C66.5,143.25757575757575,68.875,142.96401515151513,71.25,142.67045454545453C73.625,142.37689393939394,76,142.08333333333331,78.375,141.78977272727272C80.75,141.49621212121212,83.125,141.2026515151515,85.5,140.9090909090909C87.875,140.6155303030303,90.25,140.3219696969697,92.625,140.0284090909091C95,139.7348484848485,97.37500000000001,139.44128787878788,99.75000000000001,139.14772727272728C102.12500000000001,138.85416666666669,104.5,138.56060606060606,106.875,138.26704545454547C109.25,137.97348484848484,111.625,137.67992424242422,114,137.38636363636363C116.375,137.092803030303,118.75000000000001,136.7992424242424,121.12500000000001,136.5056818181818C123.50000000000001,136.21212121212122,125.875,135.9185606060606,128.25,135.625C130.625,135.3314393939394,133,135.03787878787878,135.375,134.7443181818182C137.75,134.4507575757576,140.125,134.157196969697,142.5,133.86363636363637C144.875,133.57007575757575,147.25,133.27651515151513,149.625,132.98295454545453C152,132.68939393939394,154.375,132.39583333333331,156.75,132.10227272727272C159.125,131.80871212121212,161.5,131.5151515151515,163.875,131.2215909090909C166.25,130.9280303030303,168.625,130.6344696969697,171,130.3409090909091C173.375,130.0473484848485,175.75,129.75378787878788,178.125,129.46022727272728C180.5,129.16666666666669,182.875,128.87310606060606,185.25,128.57954545454547C187.625,128.28598484848487,190,127.99242424242425,192.375,127.69886363636364C194.75,127.40530303030303,197.12500000000003,127.11174242424242,199.50000000000003,126.81818181818181C201.875,126.5246212121212,204.25,126.23106060606061,206.62499999999997,125.9375C208.99999999999997,125.64393939393939,211.375,125.3503787878788,213.75,125.05681818181819C216.125,124.76325757575758,218.5,124.46969696969697,220.875,124.17613636363636C223.25,123.88257575757575,225.625,123.58901515151514,228,123.29545454545453C230.375,123.00189393939392,232.75,122.70833333333334,235.125,122.41477272727273C237.5,122.12121212121212,239.87500000000003,121.82765151515152,242.25000000000003,121.5340909090909C244.625,121.2405303030303,247,120.9469696969697,249.37499999999997,120.6534090909091C251.74999999999997,120.35984848484848,254.125,120.06628787878788,256.5,119.77272727272727C258.875,119.47916666666666,261.25,119.18560606060608,263.625,118.89204545454547C266,118.59848484848486,268.375,118.30492424242425,270.75,118.01136363636364C273.125,117.71780303030303,275.5,117.42424242424242,277.875,117.13068181818181C280.25,116.8371212121212,282.625,116.4951231060606,285,116.25C287.375,116.0048768939394,289.75,115.85662878787878,292.125,115.65994318181818C294.5,115.46325757575758,296.875,115.26657196969698,299.25,115.06988636363637C301.625,114.87320075757576,304,114.67651515151515,306.375,114.47982954545454C308.75,114.28314393939392,311.125,114.08645833333333,313.5,113.88977272727273C315.875,113.69308712121213,318.25,113.49640151515152,320.625,113.2997159090909C323,113.1030303030303,325.375,112.90634469696971,327.75,112.7096590909091C330.125,112.51297348484849,332.5,112.31628787878789,334.875,112.11960227272728C337.25,111.92291666666667,339.625,111.72623106060604,342,111.52954545454544C344.375,111.33285984848484,346.75,111.13617424242426,349.125,110.93948863636365C351.5,110.74280303030304,353.875,110.54611742424242,356.25,110.34943181818181C358.625,110.1527462121212,361,109.95606060606062,363.375,109.75937500000002C365.75,109.56268939393942,368.125,109.3660037878788,370.5,109.16931818181818C372.875,108.97263257575757,375.25,108.77594696969695,377.625,108.57926136363635C380,108.38257575757575,382.375,108.18589015151515,384.75,107.98920454545456C387.125,107.79251893939394,389.50000000000006,107.59583333333333,391.87500000000006,107.39914772727272C394.25000000000006,107.20246212121211,396.62500000000006,107.00577651515152,399.00000000000006,106.80909090909091C401.375,106.61240530303031,403.75,106.4157196969697,406.12499999999994,106.21903409090909C408.49999999999994,106.02234848484848,410.87499999999994,105.82566287878785,413.24999999999994,105.62897727272725C415.62499999999994,105.43229166666664,418,105.23560606060607,420.375,105.03892045454546C422.75,104.84223484848486,425.125,104.64554924242424,427.5,104.44886363636363C429.875,104.25217803030301,432.25,104.05549242424243,434.625,103.85880681818182C437,103.6621212121212,439.375,103.46543560606061,441.75,103.26875C444.125,103.07206439393939,446.5,102.87537878787879,448.875,102.67869318181818C451.25,102.48200757575756,453.625,102.28532196969698,456,102.08863636363637C458.375,101.89195075757576,460.75,101.69526515151514,463.125,101.49857954545453C465.5,101.30189393939392,467.875,101.10520833333332,470.25,100.90852272727273C472.625,100.71183712121211,475.00000000000006,100.51515151515152,477.37500000000006,100.3184659090909C479.75000000000006,100.12178030303029,482.12500000000006,99.9250946969697,484.50000000000006,99.72840909090908C486.875,99.53172348484848,489.25,99.33503787878787,491.62499999999994,99.13835227272727C493.99999999999994,98.94166666666666,496.37499999999994,98.74498106060607,498.74999999999994,98.54829545454545C501.12499999999994,98.35160984848484,503.5,98.15492424242424,505.875,97.95823863636363C508.25,97.76155303030302,510.625,97.56486742424241,513,97.36818181818181C515.375,97.17149621212121,517.75,96.9748106060606,520.125,96.778125C522.5,96.5814393939394,524.875,96.3847537878788,527.25,96.18806818181818C529.625,95.99138257575757,532,95.79469696969697,534.375,95.59801136363636C536.75,95.40132575757575,539.125,95.20464015151515,541.5,95.00795454545454C543.875,94.81126893939393,546.25,94.61458333333334,548.625,94.41789772727273C551,94.22121212121212,553.375,94.02452651515152,555.75,93.82784090909091C558.125,93.6311553030303,560.5,93.4344696969697,562.875,93.23778409090909C565.25,93.04109848484848,567.625,92.84441287878788,570,92.64772727272727C572.375,92.45104166666665,574.75,92.25435606060606,577.125,92.05767045454544C579.5,91.86098484848483,581.875,91.66429924242425,584.25,91.46761363636364C586.625,91.27092803030303,589,91.07424242424241,591.375,90.87755681818182C593.75,90.68087121212122,596.125,90.48418560606062,598.5,90.28750000000001C600.875,90.0908143939394,603.25,89.89412878787878,605.625,89.69744318181817C608,89.50075757575756,610.375,89.30407196969696,612.75,89.10738636363635C615.125,88.91070075757574,617.5,88.71401515151514,619.875,88.51732954545454C622.25,88.32064393939395,624.625,88.12395833333335,627,87.92727272727274C629.375,87.73058712121212,631.75,87.53390151515153,634.125,87.33721590909092C636.5,87.1405303030303,638.875,86.94384469696968,641.25,86.74715909090908C643.625,86.55047348484848,646,86.3537878787879,648.375,86.15710227272729C650.75,85.96041666666667,653.125,85.76373106060606,655.5,85.56704545454545C657.875,85.37035984848484,660.25,85.17367424242425,662.625,84.97698863636366C665,84.78030303030306,667.375,84.58361742424243,669.75,84.38693181818182C672.125,84.19024621212121,674.5,83.99356060606058,676.875,83.79687499999999C679.25,83.60018939393939,681.625,83.4035037878788,684,83.20681818181819C686.375,83.01013257575758,688.75,82.81344696969697,691.125,82.61676136363636C693.5,82.42007575757575,695.875,82.22339015151516,698.25,82.02670454545456C700.625,81.83001893939397,703,81.63333333333334,705.375,81.43664772727273C707.75,81.23996212121212,710.125,81.04327651515152,712.5,80.8465909090909C714.875,80.6499053030303,717.25,80.45321969696971,719.625,80.2565340909091C722,80.05984848484849,724.375,79.86316287878788,726.75,79.66647727272726C729.125,79.46979166666665,731.5,79.27310606060607,733.875,79.07642045454546C736.25,78.87973484848484,738.625,78.68304924242425,741,78.48636363636363C743.375,78.28967803030302,745.75,78.0929924242424,748.125,77.8963068181818C750.5,77.6996212121212,752.875,77.5029356060606,755.25,77.30625C757.625,77.10956439393941,760,76.91287878787878,762.375,76.71619318181818C764.75,76.51950757575759,767.125,76.32282196969699,769.5,76.12613636363638C771.875,75.92945075757576,774.2500000000001,75.73276515151515,776.6250000000001,75.53607954545454C779.0000000000001,75.33939393939393,781.3750000000001,75.14270833333333,783.7500000000001,74.94602272727273C786.1250000000001,74.74933712121214,788.5000000000001,74.55265151515152,790.8750000000001,74.35596590909091C793.2500000000001,74.1592803030303,795.6250000000001,73.9625946969697,798.0000000000001,73.76590909090909C800.375,73.5692234848485,802.75,73.37253787878787,805.1249999999999,73.17585227272727C807.4999999999999,72.97916666666666,809.8749999999999,72.78248106060605,812.2499999999999,72.58579545454545C814.6249999999999,72.38910984848485,816.9999999999999,72.19242424242424,819.3749999999999,71.99573863636364C821.7499999999999,71.79905303030304,824.1249999999999,71.60236742424242,826.4999999999999,71.40568181818182C828.8749999999999,71.2089962121212,831.25,71.01231060606062,833.625,70.81562500000001C836,70.61893939393941,838.375,70.4222537878788,840.75,70.22556818181819C843.125,70.02888257575758,845.5,69.83219696969698,847.875,69.63551136363637C850.25,69.43882575757576,852.625,69.24214015151516,855,69.04545454545455C857.375,68.84876893939393,859.75,68.65208333333334,862.125,68.45539772727273C864.5,68.25871212121211,866.875,68.06202651515153,869.25,67.86534090909092C871.625,67.6686553030303,874,67.4719696969697,876.375,67.27528409090908C878.75,67.07859848484847,881.125,66.88191287878786,883.5,66.68522727272726C885.875,66.48854166666666,888.25,66.29185606060605,890.625,66.09517045454545C893,65.89848484848486,895.375,65.70179924242423,897.75,65.50511363636363C900.125,65.30842803030303,902.5,65.11174242424244,904.875,64.91505681818184C907.25,64.71837121212124,909.625,64.52168560606061,912,64.325C914.375,64.12831439393939,916.75,63.93162878787879,919.125,63.73494318181819C921.5,63.538257575757584,923.875,63.341571969696965,926.25,63.14488636363636C928.625,62.948200757575755,931,62.75151515151515,933.375,62.554829545454545C935.75,62.35814393939394,938.125,62.161458333333314,940.5,61.96477272727271C942.875,61.768087121212105,945.25,61.571401515151514,947.625,61.37471590909092C950,61.17803030303031,952.3750000000001,60.98134469696971,954.7500000000001,60.784659090909095C957.1250000000001,60.58797348484849,959.5000000000001,60.39128787878787,961.8750000000001,60.194602272727266C964.2500000000001,59.99791666666666,966.6250000000001,59.80123106060606,969.0000000000001,59.60454545454545C971.3750000000001,59.40785984848485,973.7500000000001,59.211174242424256,976.1250000000001,59.01448863636365C978.5,58.81780303030305,980.875,58.62111742424243,983.2499999999999,58.42443181818182C985.6249999999999,58.22774621212121,987.9999999999999,58.03106060606062,990.3749999999999,57.83437500000001C992.7499999999999,57.6376893939394,995.1249999999999,57.441003787878785,997.4999999999999,57.24431818181817C999.8749999999999,57.04763257575756,1002.2499999999999,56.85094696969696,1004.6249999999999,56.65426136363636C1006.9999999999999,56.45757575757575,1009.375,56.26089015151515,1011.75,56.064204545454544C1014.125,55.86751893939394,1016.5,55.670833333333334,1018.875,55.47414772727273C1021.25,55.277462121212125,1023.625,55.08077651515152,1026,54.884090909090915C1028.375,54.68740530303031,1030.75,54.490719696969705,1033.125,54.2940340909091C1035.5,54.097348484848496,1037.875,53.90066287878787,1040.25,53.703977272727265C1042.625,53.50729166666666,1045,53.310606060606055,1047.375,53.11392045454545C1049.75,52.917234848484846,1052.125,52.72054924242424,1054.5,52.523863636363636C1056.875,52.32717803030303,1059.25,52.130492424242426,1061.625,51.93380681818182C1064,51.73712121212122,1066.375,51.54043560606061,1068.75,51.34375000000001C1071.125,51.1470643939394,1073.5,50.950378787878776,1075.875,50.75369318181817C1078.25,50.55700757575757,1080.625,50.360321969696955,1083,50.16363636363636C1085.375,49.96695075757576,1087.75,49.77026515151517,1090.125,49.573579545454564C1092.5,49.37689393939396,1094.875,49.18020833333334,1097.25,48.98352272727273C1099.625,48.786837121212116,1102,48.59015151515152,1104.375,48.393465909090914C1106.75,48.19678030303031,1109.125,48.00009469696969,1111.5,47.803409090909085C1113.875,47.60672348484848,1116.25,47.410037878787875,1118.625,47.21335227272727C1121,47.016666666666666,1123.375,46.819981060606075,1125.75,46.62329545454547C1128.125,46.426609848484865,1130.5,46.22992424242425,1132.875,46.033238636363635C1135.25,45.83655303030302,1137.625,45.639867424242425,1140,45.44318181818182C1142.375,45.246496212121215,1144.75,45.049810606060596,1147.125,44.85312499999999C1149.5,44.65643939393939,1151.875,44.45975378787878,1154.25,44.26306818181818C1156.625,44.06638257575757,1159,43.86969696969698,1161.375,43.67301136363638C1163.75,43.47632575757577,1166.125,43.27964015151515,1168.5,43.08295454545455C1170.875,42.88626893939394,1173.25,42.689583333333346,1175.625,42.492897727272734C1178,42.29621212121212,1180.375,42.09952651515151,1182.75,41.9028409090909C1185.125,41.706155303030286,1187.5,41.50946969696969,1189.875,41.31278409090908C1192.25,41.11609848484848,1194.625,40.919412878787874,1197,40.72272727272727C1199.375,40.526041666666664,1201.75,40.32935606060606,1204.125,40.132670454545455C1206.5,39.93598484848485,1208.875,39.73929924242425,1211.25,39.54261363636364C1213.625,39.34592803030303,1216,39.149242424242416,1218.375,38.952556818181804C1220.75,38.75587121212119,1223.125,38.559185606060595,1225.5,38.36249999999999C1227.875,38.165814393939385,1230.25,37.969128787878795,1232.625,37.77244318181819C1235,37.575757575757585,1237.375,37.379071969696966,1239.75,37.18238636363636C1242.125,36.985700757575756,1244.5,36.78901515151515,1246.875,36.59232954545455C1249.25,36.39564393939394,1251.625,36.19895833333334,1254,36.00227272727273C1256.375,35.80558712121213,1258.75,35.6089015151515,1261.125,35.4122159090909C1263.5,35.21553030303029,1265.875,35.01884469696969,1268.25,34.82215909090908C1270.625,34.62547348484848,1273,34.42878787878787,1275.375,34.23210227272727C1277.75,34.03541666666666,1280.125,33.83873106060606,1282.5,33.64204545454545C1284.875,33.44535984848485,1287.25,33.248674242424244,1289.625,33.05198863636364C1292,32.855303030303034,1294.375,32.65861742424243,1296.75,32.461931818181824C1299.125,32.26524621212122,1301.5,32.068560606060615,1303.875,31.87187500000001C1306.25,31.675189393939405,1308.625,31.478503787878804,1311,31.281818181818196C1313.375,31.085132575757587,1315.75,30.88844696969697,1318.125,30.691761363636363C1320.5,30.495075757575755,1322.875,30.298390151515154,1325.25,30.101704545454545C1327.625,29.905018939393937,1330,29.70833333333332,1332.375,29.511647727272713C1334.75,29.314962121212105,1337.125,29.1182765151515,1339.5,28.9215909090909C1341.875,28.724905303030297,1344.25,28.528219696969707,1346.625,28.331534090909102C1349,28.134848484848497,1351.375,27.938162878787878,1353.75,27.74147727272727C1356.125,27.54479166666666,1358.5,27.348106060606057,1360.875,27.151420454545455C1363.25,26.954734848484854,1365.625,26.75804924242426,1368,26.561363636363655C1370.375,26.36467803030305,1372.75,26.16799242424243,1375.125,25.971306818181823C1377.5,25.774621212121215,1379.875,25.577935606060617,1382.25,25.38125000000001C1384.625,25.1845643939394,1387,24.987878787878785,1389.375,24.791193181818176C1391.75,24.594507575757568,1394.125,24.39782196969697,1396.5,24.201136363636362C1398.875,24.004450757575754,1401.25,23.807765151515138,1403.625,23.61107954545453C1406,23.41439393939392,1408.375,23.21770833333332,1410.75,23.021022727272715C1413.125,22.82433712121211,1415.5,22.627651515151506,1417.875,22.4309659090909C1420.25,22.234280303030296,1422.625,22.03759469696969,1425,21.840909090909086" fill="transparent" stroke-linecap="round" stroke="#1AD4B3" stroke-width="2"></path><g class="visx-group visx-axis visx-axis-bottom" transform="translate(0, 155)"><g class="visx-group visx-axis-tick" transform="translate(0, 0)"><line class="visx-line" x1="0" y1="0" x2="0" y2="8" fill="transparent" shape-rendering="crispEdges" stroke="#F2F0F9" stroke-width="1" stroke-linecap="square"></line><svg x="0" y="0" font-size="11" style="overflow:visible"><text transform="" x="0" y="19" fill="#1B2030" font-size="11" text-anchor="middle"><tspan x="0" dy="0em">0%</tspan></text></svg></g><g class="visx-group visx-axis-tick" transform="translate(0, 0)"><line class="visx-line" x1="356.25" y1="0" x2="356.25" y2="8" fill="transparent" shape-rendering="crispEdges" stroke="#F2F0F9" stroke-width="1" stroke-linecap="square"></line><svg x="0" y="0" font-size="11" style="overflow:visible"><text transform="" x="356.25" y="19" fill="#1B2030" font-size="11" text-anchor="middle"><tspan x="356.25" dy="0em">25%</tspan></text></svg></g><g class="visx-group visx-axis-tick" transform="translate(0, 0)"><line class="visx-line" x1="712.5" y1="0" x2="712.5" y2="8" fill="transparent" shape-rendering="crispEdges" stroke="#F2F0F9" stroke-width="1" stroke-linecap="square"></line><svg x="0" y="0" font-size="11" style="overflow:visible"><text transform="" x="712.5" y="19" fill="#1B2030" font-size="11" text-anchor="middle"><tspan x="712.5" dy="0em">50%</tspan></text></svg></g><g class="visx-group visx-axis-tick" transform="translate(0, 0)"><line class="visx-line" x1="1068.75" y1="0" x2="1068.75" y2="8" fill="transparent" shape-rendering="crispEdges" stroke="#F2F0F9" stroke-width="1" stroke-linecap="square"></line><svg x="0" y="0" font-size="11" style="overflow:visible"><text transform="" x="1068.75" y="19" fill="#1B2030" font-size="11" text-anchor="middle"><tspan x="1068.75" dy="0em">75%</tspan></text></svg></g><g class="visx-group visx-axis-tick" transform="translate(0, 0)"><line class="visx-line" x1="1425" y1="0" x2="1425" y2="8" fill="transparent" shape-rendering="crispEdges" stroke="#F2F0F9" stroke-width="1" stroke-linecap="square"></line><svg x="0" y="0" font-size="11" style="overflow:visible"><text transform="" x="1425" y="19" fill="#1B2030" font-size="11" text-anchor="middle"><tspan x="1425" dy="0em">100%</tspan></text></svg></g></g><g class="visx-group visx-axis visx-axis-left" transform="translate(0, 0)"><g class="visx-group visx-axis-tick" transform="translate(0, 0)"><line class="visx-line" x1="0" y1="155" x2="-8" y2="155" fill="transparent" shape-rendering="crispEdges" stroke="#F2F0F9" stroke-width="1" stroke-linecap="square"></line><svg x="-30" y="0" font-size="11" style="overflow:visible"><text transform="" x="-8" y="155" fill="#1B2030" font-size="11" text-anchor="start"><tspan x="-8" dy="0em">0%</tspan></text></svg></g><g class="visx-group visx-axis-tick" transform="translate(0, 0)"><line class="visx-line" x1="0" y1="84.54545454545453" x2="-8" y2="84.54545454545453" fill="transparent" shape-rendering="crispEdges" stroke="#F2F0F9" stroke-width="1" stroke-linecap="square"></line><svg x="-30" y="0" font-size="11" style="overflow:visible"><text transform="" x="-8" y="84.54545454545453" fill="#1B2030" font-size="11" text-anchor="start"><tspan x="-8" dy="0em">100%</tspan></text></svg></g><g class="visx-group visx-axis-tick" transform="translate(0, 0)"><line class="visx-line" x1="0" y1="14.090909090909095" x2="-8" y2="14.090909090909095" fill="transparent" shape-rendering="crispEdges" stroke="#F2F0F9" stroke-width="1" stroke-linecap="square"></line><svg x="-30" y="0" font-size="11" style="overflow:visible"><text transform="" x="-8" y="14.090909090909095" fill="#1B2030" font-size="11" text-anchor="start"><tspan x="-8" dy="0em">200%</tspan></text></svg></g><line class="visx-line visx-axis-line" x1="0" y1="155.5" x2="0" y2="0.5" fill="transparent" shape-rendering="crispEdges" stroke="#F2F0F9" stroke-width="1"></line></g><rect class="visx-bar" width="1425" height="155" fill="transparent"></rect><line class="visx-line" x1="285" y1="58" x2="285" y2="155" fill="transparent" shape-rendering="crispEdges" stroke="#CDC8E1" stroke-width="1" pointer-events="none" stroke-dasharray="5"></line><svg x="0" y="0" font-size="11px" style="overflow:visible"><text transform="" x="285" y="50" font-size="11px" fill="#555069" stroke="#FFFFFF" stroke-width="1px" text-anchor="middle"><tspan x="285" dy="0.355em">uOptimal 20%</tspan></text></svg><svg x="0" y="0" font-size="11px" style="overflow:visible"><text transform="" x="285" y="50" font-size="11px" fill="#CDC8E1" text-anchor="middle"><tspan x="285" dy="0.355em">uOptimal 20%</tspan></text></svg></g></svg>