<?xml version="1.0"?><svg xmlns="http://www.w3.org/2000/svg" xmlns:xlink= "http://www.w3.org/1999/xlink" style="background: white;" width="1500" height="185"> <g style="color: black; font-size: 13px; font-family: sans-serif; transform: translate(18px, 25px);"><g><circle r="3" cx="-6" cy="-5" style="fill: #B6509E" /><text>Borrow APR, variable</text></g><g style="transform: translateX(150px);"><circle r="3" cx="-6" cy="-5" style="fill: rgb(231, 198, 223)" /><text>Borrow APR, stable</text></g><g style="transform: translateX(290px);"><circle r="3" cx="-6" cy="-5" style="fill: rgb(0, 98, 210)" /><text>Utilization Rate</text></g></g><g class="visx-group" transform="translate(40, 50)"><g class="visx-group visx-rows" transform="translate(0, 0)"><line class="visx-line" x1="0" y1="115" x2="1450" y2="115" fill="transparent" shape-rendering="crispEdges" stroke="#000" stroke-width="1" stroke-dasharray="3,3" pointer-events="none"></line><line class="visx-line" x1="0" y1="73.92857142857142" x2="1450" y2="73.92857142857142" fill="transparent" shape-rendering="crispEdges" stroke="#000" stroke-width="1" stroke-dasharray="3,3" pointer-events="none"></line><line class="visx-line" x1="0" y1="32.857142857142854" x2="1450" y2="32.857142857142854" fill="transparent" shape-rendering="crispEdges" stroke="#000" stroke-width="1" stroke-dasharray="3,3" pointer-events="none"></line></g><path class="visx-linepath" d="M0,110.07142857132747C2.4166666666666665,110.05457875451978,4.833333333333334,110.03772893771207,7.25,110.02087912087912C9.666666666666666,110.00402930404616,12.083333333333334,109.98717948717949,14.5,109.97032967032968C16.916666666666668,109.95347985347986,19.333333333333332,109.93663003663004,21.75,109.91978021978022C24.166666666666668,109.90293040293041,26.583333333333332,109.88608058608058,29,109.86923076923077C31.416666666666668,109.85238095238095,33.833333333333336,109.83553113553114,36.25,109.81868131868133C38.666666666666664,109.80183150183151,41.083333333333336,109.78498168498167,43.5,109.76813186813186C45.91666666666667,109.75128205128205,48.333333333333336,109.73443223443223,50.75000000000001,109.71758241758242C53.16666666666667,109.70073260073261,55.583333333333336,109.68388278388278,58,109.66703296703297C60.416666666666664,109.65018315018315,62.833333333333336,109.63333333333333,65.25,109.61648351648351C67.66666666666667,109.5996336996337,70.08333333333333,109.58278388278387,72.5,109.56593406593406C74.91666666666667,109.54908424908425,77.33333333333333,109.53223443223443,79.75,109.51538461538462C82.16666666666667,109.4985347985348,84.58333333333333,109.48168498168498,87,109.46483516483516C89.41666666666667,109.44798534798535,91.83333333333333,109.43113553113552,94.25,109.41428571428571C96.66666666666667,109.3974358974359,99.08333333333334,109.38058608058608,101.50000000000001,109.36373626373627C103.91666666666667,109.34688644688646,106.33333333333334,109.33003663003662,108.75,109.3131868131868C111.16666666666667,109.29633699633699,113.58333333333333,109.27948717948718,116,109.26263736263736C118.41666666666667,109.24578754578755,120.83333333333334,109.22893772893774,123.25000000000001,109.21208791208792C125.66666666666667,109.19523809523811,128.08333333333334,109.17838827838827,130.5,109.16153846153846C132.91666666666666,109.14468864468864,135.33333333333334,109.12783882783883,137.75,109.11098901098902C140.16666666666666,109.0941391941392,142.58333333333334,109.07728937728938,145,109.06043956043956C147.41666666666666,109.04358974358975,149.83333333333334,109.02673992673992,152.25,109.00989010989011C154.66666666666666,108.9930402930403,157.08333333333334,108.97619047619048,159.5,108.95934065934067C161.91666666666666,108.94249084249086,164.33333333333334,108.92564102564103,166.75,108.90879120879121C169.16666666666666,108.8919413919414,171.58333333333334,108.87509157509157,174,108.85824175824176C176.41666666666666,108.84139194139195,178.83333333333334,108.82454212454212,181.25,108.8076923076923C183.66666666666666,108.7908424908425,186.08333333333334,108.77399267399267,188.5,108.75714285714285C190.91666666666666,108.74029304029304,193.33333333333334,108.72344322344323,195.75,108.70659340659341C198.16666666666669,108.6897435897436,200.58333333333334,108.67289377289377,203.00000000000003,108.65604395604396C205.41666666666669,108.63919413919415,207.83333333333331,108.62234432234432,210.24999999999997,108.6054945054945C212.66666666666666,108.58864468864469,215.08333333333331,108.57179487179486,217.5,108.55494505494505C219.91666666666666,108.53809523809524,222.33333333333334,108.52124542124542,224.75,108.50439560439561C227.16666666666666,108.4875457875458,229.58333333333334,108.47069597069596,232,108.45384615384614C234.41666666666666,108.43699633699633,236.83333333333334,108.42014652014652,239.25,108.4032967032967C241.66666666666669,108.38644688644689,244.08333333333334,108.36959706959708,246.50000000000003,108.35274725274726C248.91666666666669,108.33589743589745,251.33333333333331,108.31904761904761,253.74999999999997,108.3021978021978C256.16666666666663,108.28534798534798,258.5833333333333,108.26849816849817,261,108.25164835164836C263.4166666666667,108.23479853479854,265.8333333333333,108.21794871794872,268.25,108.2010989010989C270.6666666666667,108.18424908424909,273.0833333333333,108.16739926739926,275.5,108.15054945054945C277.9166666666667,108.13369963369964,280.3333333333333,108.11684981684981,282.75,108.1C285.1666666666667,108.08315018315018,287.5833333333333,108.06630036630037,290,108.04945054945055C292.4166666666667,108.03260073260074,294.8333333333333,108.01575091575091,297.25,107.9989010989011C299.6666666666667,107.98205128205129,302.0833333333333,107.96520146520146,304.5,107.94835164835165C306.9166666666667,107.93150183150183,309.3333333333333,107.91465201465202,311.75,107.8978021978022C314.1666666666667,107.8809523809524,316.5833333333333,107.86410256410255,319,107.84725274725274C321.4166666666667,107.83040293040293,323.8333333333333,107.81355311355311,326.25,107.7967032967033C328.6666666666667,107.77985347985349,331.0833333333333,107.76300366300366,333.5,107.74615384615385C335.9166666666667,107.72930402930403,338.3333333333333,107.7124542124542,340.75,107.69560439560439C343.1666666666667,107.67875457875458,345.5833333333333,107.66190476190476,348,107.64505494505495C350.4166666666667,107.62820512820514,352.8333333333333,107.6113553113553,355.25,107.59450549450548C357.6666666666667,107.57765567765567,360.0833333333333,107.56080586080586,362.5,107.54395604395604C364.9166666666667,107.52710622710623,367.3333333333333,107.51025641025642,369.75,107.4934065934066C372.1666666666667,107.47655677655679,374.5833333333333,107.45970695970695,377,107.44285714285714C379.4166666666667,107.42600732600732,381.8333333333333,107.40915750915751,384.25,107.3923076923077C386.6666666666667,107.37545787545788,389.0833333333333,107.35860805860806,391.5,107.34175824175824C393.9166666666667,107.32490842490843,396.33333333333337,107.3080586080586,398.75000000000006,107.29120879120879C401.16666666666674,107.27435897435898,403.58333333333337,107.25750915750915,406.00000000000006,107.24065934065933C408.4166666666667,107.22380952380952,410.8333333333333,107.20695970695971,413.24999999999994,107.1901098901099C415.66666666666663,107.17326007326008,418.08333333333326,107.15641025641025,420.49999999999994,107.13956043956044C422.91666666666663,107.12271062271063,425.3333333333333,107.1058608058608,427.75,107.08901098901099C430.1666666666667,107.07216117216117,432.5833333333333,107.05531135531136,435,107.03846153846155C437.4166666666667,107.02161172161173,439.8333333333333,107.00476190476189,442.25,106.98791208791208C444.6666666666667,106.97106227106227,447.0833333333333,106.95421245421245,449.5,106.93736263736264C451.9166666666667,106.92051282051283,454.3333333333333,106.903663003663,456.75,106.88681318681319C459.1666666666667,106.86996336996337,461.5833333333333,106.85311355311354,464,106.83626373626373C466.4166666666667,106.81941391941392,468.8333333333333,106.8025641025641,471.25,106.78571428571429C473.6666666666667,106.76886446886448,476.0833333333333,106.75201465201465,478.5,106.73516483516484C480.9166666666667,106.71831501831502,483.33333333333337,106.7014652014652,485.75000000000006,106.68461538461538C488.16666666666674,106.66776556776557,490.58333333333337,106.65091575091574,493.00000000000006,106.63406593406593C495.4166666666667,106.61721611721612,497.8333333333333,106.60036630036629,500.24999999999994,106.58351648351648C502.66666666666663,106.56666666666666,505.08333333333326,106.54981684981685,507.49999999999994,106.53296703296704C509.91666666666663,106.51611721611722,512.3333333333333,106.4992673992674,514.75,106.48241758241758C517.1666666666666,106.46556776556777,519.5833333333334,106.44871794871794,522,106.43186813186813C524.4166666666666,106.41501831501832,526.8333333333334,106.39816849816849,529.25,106.38131868131867C531.6666666666666,106.36446886446886,534.0833333333334,106.34761904761905,536.5,106.33076923076923C538.9166666666666,106.31391941391942,541.3333333333334,106.2970695970696,543.75,106.28021978021978C546.1666666666666,106.26336996336997,548.5833333333334,106.24652014652014,551,106.22967032967033C553.4166666666666,106.21282051282051,555.8333333333334,106.1959706959707,558.25,106.17912087912089C560.6666666666666,106.16227106227107,563.0833333333334,106.14542124542123,565.5,106.12857142857142C567.9166666666666,106.1117216117216,570.3333333333334,106.09487179487179,572.75,106.07802197802198C575.1666666666666,106.06117216117217,577.5833333333334,106.04432234432235,580,106.02747252747254C582.4166666666666,106.01062271062273,584.8333333333334,105.99377289377288,587.25,105.97692307692307C589.6666666666666,105.96007326007326,592.0833333333334,105.94322344322345,594.5,105.92637362637363C596.9166666666666,105.90952380952382,599.3333333333334,105.89267399267399,601.75,105.87582417582418C604.1666666666666,105.85897435897436,606.5833333333334,105.84212454212454,609,105.82527472527472C611.4166666666666,105.80842490842491,613.8333333333334,105.7915750915751,616.25,105.77472527472528C618.6666666666666,105.75787545787547,621.0833333333334,105.74102564102564,623.5,105.72417582417583C625.9166666666666,105.70732600732602,628.3333333333334,105.69047619047619,630.75,105.67362637362638C633.1666666666666,105.65677655677656,635.5833333333334,105.63992673992674,638,105.62307692307692C640.4166666666666,105.60622710622711,642.8333333333334,105.58937728937728,645.25,105.57252747252747C647.6666666666666,105.55567765567766,650.0833333333334,105.53882783882783,652.5,105.52197802197801C654.9166666666666,105.5051282051282,657.3333333333334,105.48827838827839,659.75,105.47142857142858C662.1666666666666,105.45457875457876,664.5833333333334,105.43772893772892,667,105.4208791208791C669.4166666666666,105.4040293040293,671.8333333333334,105.38717948717948,674.25,105.37032967032967C676.6666666666666,105.35347985347985,679.0833333333334,105.33663003663004,681.5,105.31978021978023C683.9166666666666,105.30293040293041,686.3333333333334,105.28608058608057,688.75,105.26923076923076C691.1666666666666,105.25238095238095,693.5833333333334,105.23553113553113,696,105.21868131868132C698.4166666666666,105.2018315018315,700.8333333333334,105.18498168498168,703.25,105.16813186813187C705.6666666666666,105.15128205128205,708.0833333333334,105.13443223443223,710.5,105.11758241758241C712.9166666666666,105.1007326007326,715.3333333333334,105.08388278388279,717.75,105.06703296703297C720.1666666666666,105.05018315018316,722.5833333333334,105.03333333333333,725,105.01648351648352C727.4166666666666,104.9996336996337,729.8333333333334,104.98278388278388,732.25,104.96593406593406C734.6666666666666,104.94908424908425,737.0833333333334,104.93223443223442,739.5,104.91538461538461C741.9166666666666,104.8985347985348,744.3333333333334,104.88168498168498,746.75,104.86483516483517C749.1666666666666,104.84798534798536,751.5833333333334,104.83113553113553,754,104.81428571428572C756.4166666666666,104.7974358974359,758.8333333333334,104.78058608058608,761.25,104.76373626373626C763.6666666666666,104.74688644688645,766.0833333333334,104.73003663003664,768.5,104.71318681318682C770.9166666666666,104.69633699633701,773.3333333333334,104.67948717948717,775.75,104.66263736263735C778.1666666666666,104.64578754578754,780.5833333333334,104.62893772893773,783,104.61208791208792C785.4166666666667,104.5952380952381,787.8333333333334,104.57838827838827,790.2500000000001,104.56153846153846C792.6666666666667,104.54468864468865,795.0833333333335,104.52783882783882,797.5000000000001,104.51098901098901C799.9166666666667,104.4941391941392,802.3333333333335,104.47728937728938,804.7500000000001,104.46043956043957C807.1666666666667,104.44358974358975,809.5833333333335,104.42673992673993,812.0000000000001,104.40989010989011C814.4166666666667,104.3930402930403,816.8333333333333,104.37619047619047,819.2499999999999,104.35934065934066C821.6666666666665,104.34249084249085,824.0833333333333,104.32564102564102,826.4999999999999,104.3087912087912C828.9166666666665,104.29194139194139,831.3333333333333,104.27509157509157,833.7499999999999,104.25824175824175C836.1666666666665,104.24139194139194,838.5833333333333,104.22454212454213,840.9999999999999,104.20769230769231C843.4166666666666,104.1908424908425,845.8333333333333,104.17399267399267,848.25,104.15714285714286C850.6666666666666,104.14029304029305,853.0833333333334,104.12344322344322,855.5,104.1065934065934C857.9166666666666,104.08974358974359,860.3333333333334,104.07289377289376,862.75,104.05604395604395C865.1666666666666,104.03919413919414,867.5833333333334,104.02234432234432,870,104.00549450549451C872.4166666666666,103.9886446886447,874.8333333333334,103.97179487179486,877.25,103.95494505494504C879.6666666666666,103.93809523809523,882.0833333333334,103.92124542124542,884.5,103.9043956043956C886.9166666666666,103.88754578754579,889.3333333333334,103.87069597069598,891.75,103.85384615384616C894.1666666666666,103.83699633699635,896.5833333333334,103.82014652014651,899,103.8032967032967C901.4166666666666,103.78644688644688,903.8333333333334,103.76959706959707,906.25,103.75274725274726C908.6666666666666,103.73589743589744,911.0833333333334,103.71904761904761,913.5,103.7021978021978C915.9166666666666,103.68534798534799,918.3333333333334,103.66849816849816,920.75,103.65164835164835C923.1666666666666,103.63479853479853,925.5833333333334,103.61794871794872,928,103.60109890109891C930.4166666666666,103.5842490842491,932.8333333333334,103.56739926739927,935.25,103.55054945054945C937.6666666666666,103.53369963369964,940.0833333333334,103.53369963369964,942.5,103.5C944.9166666666666,103.46630036630036,947.3333333333334,102.71768707482993,949.75,102.3265306122449C952.1666666666666,101.93537414965986,954.5833333333334,101.54421768707482,957,101.15306122448979C959.4166666666666,100.76190476190476,961.8333333333334,100.37074829931973,964.25,99.9795918367347C966.6666666666667,99.58843537414967,969.0833333333334,99.19727891156464,971.5000000000001,98.8061224489796C973.9166666666667,98.41496598639456,976.3333333333335,98.02380952380952,978.7500000000001,97.63265306122449C981.1666666666667,97.24149659863946,983.5833333333335,96.85034013605443,986.0000000000001,96.4591836734694C988.4166666666667,96.06802721088437,990.8333333333335,95.67687074829932,993.2500000000001,95.28571428571428C995.6666666666667,94.89455782312925,998.0833333333333,94.50340136054422,1000.4999999999999,94.11224489795919C1002.9166666666665,93.72108843537414,1005.3333333333333,93.32993197278911,1007.7499999999999,92.93877551020408C1010.1666666666665,92.54761904761905,1012.5833333333333,92.156462585034,1014.9999999999999,91.76530612244898C1017.4166666666665,91.37414965986395,1019.8333333333333,90.98299319727892,1022.2499999999999,90.59183673469389C1024.6666666666665,90.20068027210885,1027.0833333333333,89.80952380952382,1029.5,89.41836734693878C1031.9166666666667,89.02721088435375,1034.3333333333333,88.6360544217687,1036.75,88.24489795918367C1039.1666666666667,87.85374149659864,1041.5833333333333,87.4625850340136,1044,87.07142857142857C1046.4166666666667,86.68027210884354,1048.8333333333333,86.28911564625851,1051.25,85.89795918367348C1053.6666666666667,85.50680272108845,1056.0833333333333,85.11564625850339,1058.5,84.72448979591836C1060.9166666666667,84.33333333333333,1063.3333333333333,83.9421768707483,1065.75,83.55102040816327C1068.1666666666667,83.15986394557824,1070.5833333333333,82.76870748299318,1073,82.37755102040815C1075.4166666666667,81.98639455782312,1077.8333333333333,81.5952380952381,1080.25,81.20408163265307C1082.6666666666667,80.81292517006804,1085.0833333333333,80.421768707483,1087.5,80.03061224489797C1089.9166666666667,79.63945578231294,1092.3333333333333,79.24829931972789,1094.75,78.85714285714286C1097.1666666666667,78.46598639455783,1099.5833333333333,78.07482993197279,1102,77.68367346938776C1104.4166666666667,77.29251700680273,1106.8333333333333,76.90136054421768,1109.25,76.51020408163265C1111.6666666666667,76.11904761904762,1114.0833333333333,75.72789115646259,1116.5,75.33673469387756C1118.9166666666667,74.94557823129253,1121.3333333333333,74.55442176870747,1123.75,74.16326530612244C1126.1666666666667,73.77210884353741,1128.5833333333333,73.38095238095238,1131,72.98979591836735C1133.4166666666667,72.59863945578232,1135.8333333333333,72.20748299319727,1138.25,71.81632653061224C1140.6666666666667,71.42517006802721,1143.0833333333333,71.03401360544218,1145.5,70.64285714285715C1147.9166666666667,70.25170068027212,1150.3333333333333,69.86054421768706,1152.75,69.46938775510203C1155.1666666666667,69.078231292517,1157.5833333333333,68.68707482993197,1160,68.29591836734694C1162.4166666666667,67.90476190476191,1164.8333333333333,67.51360544217687,1167.25,67.12244897959184C1169.6666666666667,66.7312925170068,1172.0833333333333,66.34013605442176,1174.5,65.94897959183673C1176.9166666666667,65.5578231292517,1179.3333333333333,65.16666666666666,1181.75,64.77551020408163C1184.1666666666667,64.3843537414966,1186.5833333333333,63.99319727891156,1189,63.60204081632653C1191.4166666666667,63.2108843537415,1193.8333333333333,62.819727891156475,1196.25,62.42857142857144C1198.6666666666667,62.0374149659864,1201.0833333333333,61.646258503401356,1203.5,61.25510204081632C1205.9166666666667,60.86394557823128,1208.3333333333333,60.47278911564626,1210.75,60.08163265306123C1213.1666666666667,59.6904761904762,1215.5833333333333,59.29931972789116,1218,58.90816326530613C1220.4166666666667,58.5170068027211,1222.8333333333333,58.12585034013606,1225.25,57.734693877551024C1227.6666666666667,57.343537414965986,1230.0833333333333,56.952380952380956,1232.5,56.56122448979592C1234.9166666666667,56.17006802721088,1237.3333333333333,55.778911564625844,1239.75,55.38775510204081C1242.1666666666667,54.99659863945578,1244.5833333333333,54.60544217687075,1247,54.214285714285715C1249.4166666666667,53.82312925170068,1251.8333333333333,53.43197278911565,1254.25,53.04081632653061C1256.6666666666667,52.64965986394557,1259.0833333333333,52.258503401360535,1261.5,51.867346938775505C1263.9166666666667,51.476190476190474,1266.3333333333333,51.08503401360545,1268.75,50.693877551020414C1271.1666666666667,50.302721088435376,1273.5833333333333,49.91156462585033,1276,49.5204081632653C1278.4166666666667,49.12925170068027,1280.8333333333333,48.73809523809524,1283.25,48.34693877551021C1285.6666666666667,47.95578231292518,1288.0833333333333,47.56462585034014,1290.5,47.173469387755105C1292.9166666666667,46.78231292517007,1295.3333333333333,46.39115646258503,1297.75,46C1300.1666666666667,45.60884353741497,1302.5833333333333,45.21768707482994,1305,44.8265306122449C1307.4166666666667,44.435374149659864,1309.8333333333333,44.044217687074834,1312.25,43.6530612244898C1314.6666666666667,43.26190476190476,1317.0833333333333,42.87074829931972,1319.5,42.47959183673469C1321.9166666666667,42.08843537414966,1324.3333333333333,41.69727891156464,1326.75,41.3061224489796C1329.1666666666667,40.91496598639456,1331.5833333333333,40.52380952380952,1334,40.13265306122449C1336.4166666666667,39.74149659863946,1338.8333333333333,39.35034013605443,1341.25,38.9591836734694C1343.6666666666667,38.56802721088437,1346.0833333333333,38.17687074829933,1348.5,37.78571428571429C1350.9166666666667,37.394557823129254,1353.3333333333333,37.0034013605442,1355.75,36.61224489795917C1358.1666666666667,36.22108843537414,1360.5833333333333,35.829931972789126,1363,35.43877551020409C1365.4166666666667,35.04761904761905,1367.8333333333333,34.65646258503401,1370.25,34.26530612244897C1372.6666666666667,33.87414965986393,1375.0833333333333,33.48299319727891,1377.5,33.09183673469388C1379.9166666666667,32.70068027210885,1382.3333333333333,32.30952380952381,1384.75,31.918367346938776C1387.1666666666667,31.52721088435374,1389.5833333333333,31.136054421768694,1392,30.74489795918366C1394.4166666666667,30.353741496598627,1396.8333333333333,29.962585034013603,1399.25,29.57142857142857C1401.6666666666667,29.180272108843536,1404.0833333333333,28.789115646258498,1406.5,28.397959183673464C1408.9166666666667,28.00680272108843,1411.3333333333333,27.615646258503407,1413.75,27.224489795918373C1416.1666666666667,26.83333333333334,1418.5833333333333,26.442176870748295,1421,26.051020408163257C1423.4166666666667,25.65986394557822,1425.8333333333333,25.268707482993186,1428.25,24.877551020408156C1430.6666666666667,24.486394557823125,1433.0833333333333,24.095238095238095,1435.5,23.704081632653065C1437.9166666666667,23.312925170068034,1440.3333333333333,22.921768707482997,1442.75,22.530612244897963C1445.1666666666667,22.13945578231293,1447.5833333333333,21.748299319727902,1450,21.357142857142872" fill="transparent" stroke-linecap="round" stroke="#B6509E" stroke-width="2"></path><path class="visx-linepath" d="M0,106.78571428558791C2.4166666666666665,106.7646520145783,4.833333333333334,106.74358974356868,7.25,106.72252747252747C9.666666666666666,106.70146520148627,12.083333333333334,106.68040293040292,14.5,106.65934065934066C16.916666666666668,106.6382783882784,19.333333333333332,106.61721611721612,21.75,106.59615384615385C24.166666666666668,106.57509157509159,26.583333333333332,106.55402930402931,29,106.53296703296704C31.416666666666668,106.51190476190476,33.833333333333336,106.49084249084248,36.25,106.46978021978022C38.666666666666664,106.44871794871796,41.083333333333336,106.42765567765568,43.5,106.40659340659342C45.91666666666667,106.38553113553114,48.333333333333336,106.36446886446888,50.75000000000001,106.3434065934066C53.16666666666667,106.32234432234432,55.583333333333336,106.30128205128204,58,106.28021978021978C60.416666666666664,106.2591575091575,62.833333333333336,106.23809523809524,65.25,106.21703296703298C67.66666666666667,106.19597069597071,70.08333333333333,106.17490842490844,72.5,106.15384615384616C74.91666666666667,106.13278388278388,77.33333333333333,106.1117216117216,79.75,106.09065934065934C82.16666666666667,106.06959706959708,84.58333333333333,106.0485347985348,87,106.02747252747254C89.41666666666667,106.00641025641028,91.83333333333333,105.985347985348,94.25,105.96428571428572C96.66666666666667,105.94322344322345,99.08333333333334,105.92216117216118,101.50000000000001,105.9010989010989C103.91666666666667,105.88003663003663,106.33333333333334,105.85897435897435,108.75,105.83791208791209C111.16666666666667,105.81684981684981,113.58333333333333,105.79578754578755,116,105.77472527472528C118.41666666666667,105.75366300366301,120.83333333333334,105.73260073260074,123.25000000000001,105.71153846153847C125.66666666666667,105.69047619047619,128.08333333333334,105.66941391941393,130.5,105.64835164835165C132.91666666666666,105.62728937728937,135.33333333333334,105.60622710622711,137.75,105.58516483516483C140.16666666666666,105.56410256410255,142.58333333333334,105.54304029304029,145,105.52197802197801C147.41666666666666,105.50091575091574,149.83333333333334,105.47985347985346,152.25,105.4587912087912C154.66666666666666,105.43772893772893,157.08333333333334,105.41666666666666,159.5,105.3956043956044C161.91666666666666,105.37454212454213,164.33333333333334,105.35347985347985,166.75,105.33241758241758C169.16666666666666,105.3113553113553,171.58333333333334,105.29029304029302,174,105.26923076923076C176.41666666666666,105.2481684981685,178.83333333333334,105.22710622710622,181.25,105.20604395604396C183.66666666666666,105.1849816849817,186.08333333333334,105.16391941391942,188.5,105.14285714285714C190.91666666666666,105.12179487179486,193.33333333333334,105.10073260073258,195.75,105.07967032967032C198.16666666666669,105.05860805860804,200.58333333333334,105.0375457875458,203.00000000000003,105.01648351648352C205.41666666666669,104.99542124542126,207.83333333333331,104.97435897435898,210.24999999999997,104.9532967032967C212.66666666666666,104.93223443223442,215.08333333333331,104.91117216117216,217.5,104.89010989010988C219.91666666666666,104.86904761904762,222.33333333333334,104.84798534798534,224.75,104.82692307692308C227.16666666666666,104.80586080586082,229.58333333333334,104.78479853479854,232,104.76373626373626C234.41666666666666,104.74267399267399,236.83333333333334,104.72161172161171,239.25,104.70054945054945C241.66666666666669,104.67948717948717,244.08333333333334,104.65842490842492,246.50000000000003,104.63736263736264C248.91666666666669,104.61630036630038,251.33333333333331,104.5952380952381,253.74999999999997,104.57417582417582C256.16666666666663,104.55311355311355,258.5833333333333,104.53205128205128,261,104.51098901098901C263.4166666666667,104.48992673992673,265.8333333333333,104.46886446886447,268.25,104.44780219780219C270.6666666666667,104.42673992673991,273.0833333333333,104.40567765567766,275.5,104.38461538461539C277.9166666666667,104.36355311355311,280.3333333333333,104.34249084249085,282.75,104.32142857142857C285.1666666666667,104.30036630036629,287.5833333333333,104.27930402930403,290,104.25824175824175C292.4166666666667,104.23717948717947,294.8333333333333,104.21611721611723,297.25,104.19505494505495C299.6666666666667,104.17399267399267,302.0833333333333,104.15293040293041,304.5,104.13186813186813C306.9166666666667,104.11080586080585,309.3333333333333,104.08974358974359,311.75,104.06868131868131C314.1666666666667,104.04761904761904,316.5833333333333,104.02655677655679,319,104.00549450549451C321.4166666666667,103.98443223443223,323.8333333333333,103.96336996336997,326.25,103.9423076923077C328.6666666666667,103.92124542124542,331.0833333333333,103.90018315018315,333.5,103.87912087912088C335.9166666666667,103.8580586080586,338.3333333333333,103.83699633699635,340.75,103.81593406593407C343.1666666666667,103.7948717948718,345.5833333333333,103.77380952380953,348,103.75274725274726C350.4166666666667,103.73168498168498,352.8333333333333,103.71062271062272,355.25,103.68956043956044C357.6666666666667,103.66849816849816,360.0833333333333,103.64743589743591,362.5,103.62637362637363C364.9166666666667,103.60531135531136,367.3333333333333,103.5842490842491,369.75,103.56318681318682C372.1666666666667,103.54212454212454,374.5833333333333,103.52106227106228,377,103.5C379.4166666666667,103.47893772893772,381.8333333333333,103.45787545787545,384.25,103.43681318681318C386.6666666666667,103.41575091575092,389.0833333333333,103.39468864468864,391.5,103.37362637362638C393.9166666666667,103.3525641025641,396.33333333333337,103.33150183150184,398.75000000000006,103.31043956043956C401.16666666666674,103.28937728937728,403.58333333333337,103.26831501831502,406.00000000000006,103.24725274725274C408.4166666666667,103.22619047619048,410.8333333333333,103.2051282051282,413.24999999999994,103.18406593406594C415.66666666666663,103.16300366300366,418.08333333333326,103.1419413919414,420.49999999999994,103.12087912087912C422.91666666666663,103.09981684981685,425.3333333333333,103.07875457875458,427.75,103.0576923076923C430.1666666666667,103.03663003663004,432.5833333333333,103.01556776556777,435,102.9945054945055C437.4166666666667,102.97344322344324,439.8333333333333,102.95238095238096,442.25,102.93131868131869C444.6666666666667,102.91025641025641,447.0833333333333,102.88919413919413,449.5,102.86813186813187C451.9166666666667,102.8470695970696,454.3333333333333,102.82600732600733,456.75,102.80494505494507C459.1666666666667,102.7838827838828,461.5833333333333,102.76282051282053,464,102.74175824175825C466.4166666666667,102.72069597069597,468.8333333333333,102.6996336996337,471.25,102.67857142857143C473.6666666666667,102.65750915750917,476.0833333333333,102.63644688644689,478.5,102.61538461538463C480.9166666666667,102.59432234432235,483.33333333333337,102.57326007326009,485.75000000000006,102.55219780219781C488.16666666666674,102.53113553113553,490.58333333333337,102.51007326007326,493.00000000000006,102.48901098901098C495.4166666666667,102.4679487179487,497.8333333333333,102.44688644688644,500.24999999999994,102.42582417582418C502.66666666666663,102.4047619047619,505.08333333333326,102.38369963369964,507.49999999999994,102.36263736263736C509.91666666666663,102.34157509157508,512.3333333333333,102.32051282051282,514.75,102.29945054945054C517.1666666666666,102.27838827838828,519.5833333333334,102.25732600732601,522,102.23626373626374C524.4166666666666,102.21520146520146,526.8333333333334,102.1941391941392,529.25,102.17307692307692C531.6666666666666,102.15201465201464,534.0833333333334,102.13095238095238,536.5,102.1098901098901C538.9166666666666,102.08882783882783,541.3333333333334,102.06776556776555,543.75,102.04670329670328C546.1666666666666,102.02564102564102,548.5833333333334,102.00457875457874,551,101.98351648351648C553.4166666666666,101.96245421245422,555.8333333333334,101.94139194139194,558.25,101.92032967032966C560.6666666666666,101.89926739926739,563.0833333333334,101.87820512820511,565.5,101.85714285714285C567.9166666666666,101.83608058608058,570.3333333333334,101.8150183150183,572.75,101.79395604395604C575.1666666666666,101.77289377289378,577.5833333333334,101.7518315018315,580,101.73076923076923C582.4166666666666,101.70970695970695,584.8333333333334,101.68864468864467,587.25,101.66758241758241C589.6666666666666,101.64652014652015,592.0833333333334,101.62545787545787,594.5,101.6043956043956C596.9166666666666,101.58333333333334,599.3333333333334,101.56227106227107,601.75,101.54120879120879C604.1666666666666,101.52014652014651,606.5833333333334,101.49908424908423,609,101.47802197802197C611.4166666666666,101.45695970695971,613.8333333333334,101.43589743589743,616.25,101.41483516483517C618.6666666666666,101.3937728937729,621.0833333333334,101.37271062271063,623.5,101.35164835164835C625.9166666666666,101.33058608058607,628.3333333333334,101.3095238095238,630.75,101.28846153846153C633.1666666666666,101.26739926739927,635.5833333333334,101.24633699633699,638,101.22527472527473C640.4166666666666,101.20421245421247,642.8333333333334,101.18315018315019,645.25,101.16208791208791C647.6666666666666,101.14102564102564,650.0833333333334,101.11996336996337,652.5,101.0989010989011C654.9166666666666,101.07783882783882,657.3333333333334,101.05677655677655,659.75,101.03571428571428C662.1666666666666,101.014652014652,664.5833333333334,100.99358974358975,667,100.97252747252747C669.4166666666666,100.9514652014652,671.8333333333334,100.93040293040293,674.25,100.90934065934066C676.6666666666666,100.88827838827838,679.0833333333334,100.86721611721612,681.5,100.84615384615384C683.9166666666666,100.82509157509156,686.3333333333334,100.80402930402931,688.75,100.78296703296704C691.1666666666666,100.76190476190476,693.5833333333334,100.7408424908425,696,100.71978021978022C698.4166666666666,100.69871794871794,700.8333333333334,100.67765567765568,703.25,100.6565934065934C705.6666666666666,100.63553113553112,708.0833333333334,100.61446886446888,710.5,100.5934065934066C712.9166666666666,100.57234432234432,715.3333333333334,100.55128205128206,717.75,100.53021978021978C720.1666666666666,100.5091575091575,722.5833333333334,100.48809523809524,725,100.46703296703296C727.4166666666666,100.44597069597069,729.8333333333334,100.42490842490844,732.25,100.40384615384616C734.6666666666666,100.38278388278388,737.0833333333334,100.36172161172162,739.5,100.34065934065934C741.9166666666666,100.31959706959707,744.3333333333334,100.2985347985348,746.75,100.27747252747253C749.1666666666666,100.25641025641025,751.5833333333334,100.235347985348,754,100.21428571428572C756.4166666666666,100.19322344322345,758.8333333333334,100.17216117216118,761.25,100.1510989010989C763.6666666666666,100.13003663003663,766.0833333333334,100.10897435897436,768.5,100.08791208791209C770.9166666666666,100.06684981684981,773.3333333333334,100.04578754578753,775.75,100.02472527472527C778.1666666666666,100.00366300366301,780.5833333333334,99.98260073260073,783,99.96153846153847C785.4166666666667,99.94047619047619,787.8333333333334,99.91941391941393,790.2500000000001,99.89835164835165C792.6666666666667,99.87728937728937,795.0833333333335,99.8562271062271,797.5000000000001,99.83516483516483C799.9166666666667,99.81410256410257,802.3333333333335,99.79304029304029,804.7500000000001,99.77197802197803C807.1666666666667,99.75091575091577,809.5833333333335,99.72985347985349,812.0000000000001,99.70879120879121C814.4166666666667,99.68772893772893,816.8333333333333,99.66666666666666,819.2499999999999,99.6456043956044C821.6666666666665,99.62454212454212,824.0833333333333,99.60347985347985,826.4999999999999,99.58241758241759C828.9166666666665,99.56135531135533,831.3333333333333,99.54029304029305,833.7499999999999,99.51923076923077C836.1666666666665,99.4981684981685,838.5833333333333,99.47710622710622,840.9999999999999,99.45604395604396C843.4166666666666,99.43498168498168,845.8333333333333,99.41391941391943,848.25,99.39285714285715C850.6666666666666,99.37179487179489,853.0833333333334,99.35073260073261,855.5,99.32967032967034C857.9166666666666,99.30860805860806,860.3333333333334,99.28754578754578,862.75,99.26648351648352C865.1666666666666,99.24542124542126,867.5833333333334,99.22435897435898,870,99.20329670329672C872.4166666666666,99.18223443223445,874.8333333333334,99.16117216117217,877.25,99.1401098901099C879.6666666666666,99.11904761904762,882.0833333333334,99.09798534798536,884.5,99.07692307692308C886.9166666666666,99.0558608058608,889.3333333333334,99.03479853479854,891.75,99.01373626373626C894.1666666666666,98.99267399267399,896.5833333333334,98.97161172161174,899,98.95054945054946C901.4166666666666,98.92948717948718,903.8333333333334,98.90842490842492,906.25,98.88736263736264C908.6666666666666,98.86630036630036,911.0833333333334,98.8452380952381,913.5,98.82417582417582C915.9166666666666,98.80311355311355,918.3333333333334,98.7820512820513,920.75,98.76098901098902C923.1666666666666,98.73992673992674,925.5833333333334,98.71886446886448,928,98.6978021978022C930.4166666666666,98.67673992673993,932.8333333333334,98.65567765567766,935.25,98.63461538461539C937.6666666666666,98.61355311355311,940.0833333333334,98.61355311355312,942.5,98.57142857142858C944.9166666666666,98.52930402930404,947.3333333333334,97.78911564625851,949.75,97.39795918367348C952.1666666666666,97.00680272108845,954.5833333333334,96.6156462585034,957,96.22448979591837C959.4166666666666,95.83333333333334,961.8333333333334,95.4421768707483,964.25,95.05102040816327C966.6666666666667,94.65986394557822,969.0833333333334,94.26870748299321,971.5000000000001,93.87755102040816C973.9166666666667,93.48639455782313,976.3333333333335,93.09523809523809,978.7500000000001,92.70408163265306C981.1666666666667,92.31292517006803,983.5833333333335,91.92176870748298,986.0000000000001,91.53061224489795C988.4166666666667,91.13945578231292,990.8333333333335,90.7482993197279,993.2500000000001,90.35714285714286C995.6666666666667,89.96598639455783,998.0833333333333,89.57482993197279,1000.4999999999999,89.18367346938776C1002.9166666666665,88.79251700680271,1005.3333333333333,88.4013605442177,1007.7499999999999,88.01020408163266C1010.1666666666665,87.61904761904763,1012.5833333333333,87.22789115646258,1014.9999999999999,86.83673469387755C1017.4166666666665,86.44557823129252,1019.8333333333333,86.05442176870748,1022.2499999999999,85.66326530612245C1024.6666666666665,85.27210884353741,1027.0833333333333,84.88095238095238,1029.5,84.48979591836734C1031.9166666666667,84.0986394557823,1034.3333333333333,83.70748299319727,1036.75,83.31632653061224C1039.1666666666667,82.92517006802721,1041.5833333333333,82.53401360544217,1044,82.14285714285714C1046.4166666666667,81.75170068027211,1048.8333333333333,81.36054421768708,1051.25,80.96938775510205C1053.6666666666667,80.57823129251702,1056.0833333333333,80.18707482993199,1058.5,79.79591836734696C1060.9166666666667,79.40476190476193,1063.3333333333333,79.01360544217687,1065.75,78.62244897959184C1068.1666666666667,78.2312925170068,1070.5833333333333,77.84013605442176,1073,77.44897959183673C1075.4166666666667,77.0578231292517,1077.8333333333333,76.66666666666666,1080.25,76.27551020408163C1082.6666666666667,75.8843537414966,1085.0833333333333,75.49319727891157,1087.5,75.10204081632654C1089.9166666666667,74.7108843537415,1092.3333333333333,74.31972789115645,1094.75,73.92857142857142C1097.1666666666667,73.53741496598639,1099.5833333333333,73.14625850340136,1102,72.75510204081633C1104.4166666666667,72.3639455782313,1106.8333333333333,71.97278911564625,1109.25,71.58163265306122C1111.6666666666667,71.19047619047619,1114.0833333333333,70.79931972789116,1116.5,70.40816326530613C1118.9166666666667,70.0170068027211,1121.3333333333333,69.62585034013605,1123.75,69.23469387755102C1126.1666666666667,68.843537414966,1128.5833333333333,68.45238095238095,1131,68.06122448979592C1133.4166666666667,67.67006802721089,1135.8333333333333,67.27891156462584,1138.25,66.88775510204081C1140.6666666666667,66.49659863945578,1143.0833333333333,66.10544217687074,1145.5,65.71428571428571C1147.9166666666667,65.32312925170068,1150.3333333333333,64.93197278911565,1152.75,64.54081632653062C1155.1666666666667,64.14965986394559,1157.5833333333333,63.75850340136054,1160,63.367346938775505C1162.4166666666667,62.97619047619047,1164.8333333333333,62.58503401360543,1167.25,62.1938775510204C1169.6666666666667,61.80272108843537,1172.0833333333333,61.41156462585034,1174.5,61.02040816326531C1176.9166666666667,60.62925170068028,1179.3333333333333,60.23809523809524,1181.75,59.8469387755102C1184.1666666666667,59.455782312925166,1186.5833333333333,59.064625850340136,1189,58.673469387755105C1191.4166666666667,58.282312925170075,1193.8333333333333,57.89115646258504,1196.25,57.5C1198.6666666666667,57.10884353741496,1201.0833333333333,56.717687074829925,1203.5,56.326530612244895C1205.9166666666667,55.935374149659864,1208.3333333333333,55.544217687074834,1210.75,55.153061224489804C1213.1666666666667,54.76190476190477,1215.5833333333333,54.37074829931973,1218,53.97959183673469C1220.4166666666667,53.588435374149654,1222.8333333333333,53.19727891156464,1225.25,52.8061224489796C1227.6666666666667,52.41496598639456,1230.0833333333333,52.02380952380952,1232.5,51.63265306122448C1234.9166666666667,51.24149659863944,1237.3333333333333,50.85034013605442,1239.75,50.45918367346939C1242.1666666666667,50.06802721088436,1244.5833333333333,49.67687074829932,1247,49.28571428571429C1249.4166666666667,48.89455782312926,1251.8333333333333,48.503401360544224,1254.25,48.11224489795919C1256.6666666666667,47.72108843537415,1259.0833333333333,47.32993197278912,1261.5,46.93877551020408C1263.9166666666667,46.547619047619044,1266.3333333333333,46.15646258503401,1268.75,45.765306122448976C1271.1666666666667,45.374149659863946,1273.5833333333333,44.98299319727893,1276,44.59183673469389C1278.4166666666667,44.200680272108855,1280.8333333333333,43.80952380952381,1283.25,43.41836734693877C1285.6666666666667,43.027210884353735,1288.0833333333333,42.636054421768705,1290.5,42.24489795918367C1292.9166666666667,41.85374149659863,1295.3333333333333,41.4625850340136,1297.75,41.07142857142857C1300.1666666666667,40.68027210884354,1302.5833333333333,40.2891156462585,1305,39.897959183673464C1307.4166666666667,39.50680272108843,1309.8333333333333,39.11564625850339,1312.25,38.72448979591836C1314.6666666666667,38.33333333333333,1317.0833333333333,37.9421768707483,1319.5,37.55102040816327C1321.9166666666667,37.15986394557824,1324.3333333333333,36.76870748299319,1326.75,36.377551020408156C1329.1666666666667,35.98639455782312,1331.5833333333333,35.5952380952381,1334,35.204081632653065C1336.4166666666667,34.81292517006803,1338.8333333333333,34.42176870748298,1341.25,34.030612244897945C1343.6666666666667,33.63945578231291,1346.0833333333333,33.248299319727884,1348.5,32.857142857142854C1350.9166666666667,32.465986394557824,1353.3333333333333,32.07482993197279,1355.75,31.683673469387763C1358.1666666666667,31.292517006802733,1360.5833333333333,30.9013605442177,1363,30.51020408163266C1365.4166666666667,30.119047619047624,1367.8333333333333,29.727891156462583,1370.25,29.336734693877546C1372.6666666666667,28.945578231292508,1375.0833333333333,28.55442176870747,1377.5,28.16326530612244C1379.9166666666667,27.77210884353741,1382.3333333333333,27.380952380952387,1384.75,26.989795918367353C1387.1666666666667,26.59863945578232,1389.5833333333333,26.207482993197285,1392,25.816326530612248C1394.4166666666667,25.42517006802721,1396.8333333333333,25.034013605442166,1399.25,24.64285714285713C1401.6666666666667,24.251700680272098,1404.0833333333333,23.86054421768707,1406.5,23.46938775510204C1408.9166666666667,23.07823129251701,1411.3333333333333,22.687074829931973,1413.75,22.29591836734694C1416.1666666666667,21.904761904761905,1418.5833333333333,21.513605442176882,1421,21.122448979591848C1423.4166666666667,20.731292517006814,1425.8333333333333,20.34013605442177,1428.25,19.948979591836732C1430.6666666666667,19.557823129251695,1433.0833333333333,19.16666666666666,1435.5,18.775510204081627C1437.9166666666667,18.384353741496593,1440.3333333333333,17.993197278911566,1442.75,17.602040816326536C1445.1666666666667,17.210884353741505,1447.5833333333333,16.819727891156468,1450,16.428571428571434" fill="transparent" stroke-linecap="round" stroke="#E7C6DF" stroke-width="2"></path><g class="visx-group visx-axis visx-axis-bottom" transform="translate(0, 115)"><g class="visx-group visx-axis-tick" transform="translate(0, 0)"><line class="visx-line" x1="0" y1="0" x2="0" y2="8" fill="transparent" shape-rendering="crispEdges" stroke="#000" stroke-width="0" stroke-linecap="square"></line><svg x="0" y="0" font-size="10" style="overflow:visible"><text transform="" x="0" y="18" fill="#000" font-size="10" text-anchor="middle"><tspan x="0" dy="0em">0%</tspan></text></svg></g><g class="visx-group visx-axis-tick" transform="translate(0, 0)"><line class="visx-line" x1="362.5" y1="0" x2="362.5" y2="8" fill="transparent" shape-rendering="crispEdges" stroke="#000" stroke-width="0" stroke-linecap="square"></line><svg x="0" y="0" font-size="10" style="overflow:visible"><text transform="" x="362.5" y="18" fill="#000" font-size="10" text-anchor="middle"><tspan x="362.5" dy="0em">25%</tspan></text></svg></g><g class="visx-group visx-axis-tick" transform="translate(0, 0)"><line class="visx-line" x1="725" y1="0" x2="725" y2="8" fill="transparent" shape-rendering="crispEdges" stroke="#000" stroke-width="0" stroke-linecap="square"></line><svg x="0" y="0" font-size="10" style="overflow:visible"><text transform="" x="725" y="18" fill="#000" font-size="10" text-anchor="middle"><tspan x="725" dy="0em">50%</tspan></text></svg></g><g class="visx-group visx-axis-tick" transform="translate(0, 0)"><line class="visx-line" x1="1087.5" y1="0" x2="1087.5" y2="8" fill="transparent" shape-rendering="crispEdges" stroke="#000" stroke-width="0" stroke-linecap="square"></line><svg x="0" y="0" font-size="10" style="overflow:visible"><text transform="" x="1087.5" y="18" fill="#000" font-size="10" text-anchor="middle"><tspan x="1087.5" dy="0em">75%</tspan></text></svg></g><g class="visx-group visx-axis-tick" transform="translate(0, 0)"><line class="visx-line" x1="1450" y1="0" x2="1450" y2="8" fill="transparent" shape-rendering="crispEdges" stroke="#000" stroke-width="0" stroke-linecap="square"></line><svg x="0" y="0" font-size="10" style="overflow:visible"><text transform="" x="1450" y="18" fill="#000" font-size="10" text-anchor="middle"><tspan x="1450" dy="0em">100%</tspan></text></svg></g><line class="visx-line visx-axis-line" x1="0.5" y1="0" x2="1450.5" y2="0" fill="transparent" shape-rendering="crispEdges" stroke="#222" stroke-width="0"></line></g><g class="visx-group visx-axis visx-axis-left" transform="translate(0, 0)"><g class="visx-group visx-axis-tick" transform="translate(0, 0)"><line class="visx-line" x1="0" y1="115" x2="-8" y2="115" fill="transparent" shape-rendering="crispEdges" stroke="#222" stroke-width="0" stroke-linecap="square"></line><svg x="-30" y="0" font-size="8" style="overflow:visible"><text transform="" x="-8" y="115" fill="#000" font-size="8" text-anchor="start"><tspan x="-8" dy="0em">0%</tspan></text></svg></g><g class="visx-group visx-axis-tick" transform="translate(0, 0)"><line class="visx-line" x1="0" y1="73.92857142857142" x2="-8" y2="73.92857142857142" fill="transparent" shape-rendering="crispEdges" stroke="#222" stroke-width="0" stroke-linecap="square"></line><svg x="-30" y="0" font-size="8" style="overflow:visible"><text transform="" x="-8" y="73.92857142857142" fill="#000" font-size="8" text-anchor="start"><tspan x="-8" dy="0em">50%</tspan></text></svg></g><g class="visx-group visx-axis-tick" transform="translate(0, 0)"><line class="visx-line" x1="0" y1="32.857142857142854" x2="-8" y2="32.857142857142854" fill="transparent" shape-rendering="crispEdges" stroke="#222" stroke-width="0" stroke-linecap="square"></line><svg x="-30" y="0" font-size="8" style="overflow:visible"><text transform="" x="-8" y="32.857142857142854" fill="#000" font-size="8" text-anchor="start"><tspan x="-8" dy="0em">100%</tspan></text></svg></g><line class="visx-line visx-axis-line" x1="0" y1="115.5" x2="0" y2="0.5" fill="transparent" shape-rendering="crispEdges" stroke="#222" stroke-width="0"></line></g><rect class="visx-bar" width="1450" height="115" fill="transparent"></rect><line class="visx-line" x1="942.5" y1="28" x2="942.5" y2="115" fill="transparent" shape-rendering="crispEdges" stroke="#0062D2" stroke-width="1" pointer-events="none" stroke-dasharray="5,2"></line><svg x="0" y="0" font-size="10px" style="overflow:visible"><text transform="" x="942.5" y="20" font-size="10px" fill="#fff" stroke="#fff" stroke-width="0.8em" text-anchor="middle"><tspan x="942.5" dy="0.355em">Optimal 65%</tspan></text></svg><svg x="0" y="0" font-size="10px" style="overflow:visible"><text transform="" x="942.5" y="20" font-size="10px" fill="#62677B" text-anchor="middle"><tspan x="942.5" dy="0.355em">Optimal 65%</tspan></text></svg></g></svg>