<?xml version="1.0"?><svg xmlns="http://www.w3.org/2000/svg" xmlns:xlink= "http://www.w3.org/1999/xlink" style="background: white;" width="1500" height="185"> <g style="color: black; font-size: 13px; font-family: sans-serif; transform: translate(18px, 25px);"><g><circle r="3" cx="-6" cy="-5" style="fill: #B6509E" /><text>Borrow APR, variable</text></g><g style="transform: translateX(150px);"><circle r="3" cx="-6" cy="-5" style="fill: rgb(231, 198, 223)" /><text>Borrow APR, stable</text></g><g style="transform: translateX(290px);"><circle r="3" cx="-6" cy="-5" style="fill: rgb(0, 98, 210)" /><text>Utilization Rate</text></g></g><g class="visx-group" transform="translate(40, 50)"><g class="visx-group visx-rows" transform="translate(0, 0)"><line class="visx-line" x1="0" y1="115" x2="1450" y2="115" fill="transparent" shape-rendering="crispEdges" stroke="#000" stroke-width="1" stroke-dasharray="3,3" pointer-events="none"></line><line class="visx-line" x1="0" y1="62.72727272727272" x2="1450" y2="62.72727272727272" fill="transparent" shape-rendering="crispEdges" stroke="#000" stroke-width="1" stroke-dasharray="3,3" pointer-events="none"></line><line class="visx-line" x1="0" y1="10.454545454545459" x2="1450" y2="10.454545454545459" fill="transparent" shape-rendering="crispEdges" stroke="#000" stroke-width="1" stroke-dasharray="3,3" pointer-events="none"></line></g><path class="visx-linepath" d="M0,10.454545454545459C2.4166666666666665,10.454545454545459,4.833333333333334,10.454545454545459,7.25,10.454545454545459C9.666666666666666,10.454545454545459,12.083333333333334,10.454545454545459,14.5,10.454545454545459C16.916666666666668,10.454545454545459,19.333333333333332,10.454545454545459,21.75,10.454545454545459C24.166666666666668,10.454545454545459,26.583333333333332,10.454545454545459,29,10.454545454545459C31.416666666666668,10.454545454545459,33.833333333333336,10.454545454545459,36.25,10.454545454545459C38.666666666666664,10.454545454545459,41.083333333333336,10.454545454545459,43.5,10.454545454545459C45.91666666666667,10.454545454545459,48.333333333333336,10.454545454545459,50.75000000000001,10.454545454545459C53.16666666666667,10.454545454545459,55.583333333333336,10.454545454545459,58,10.454545454545459C60.416666666666664,10.454545454545459,62.833333333333336,10.454545454545459,65.25,10.454545454545459C67.66666666666667,10.454545454545459,70.08333333333333,10.454545454545459,72.5,10.454545454545459C74.91666666666667,10.454545454545459,77.33333333333333,10.454545454545459,79.75,10.454545454545459C82.16666666666667,10.454545454545459,84.58333333333333,10.454545454545459,87,10.454545454545459C89.41666666666667,10.454545454545459,91.83333333333333,10.454545454545459,94.25,10.454545454545459C96.66666666666667,10.454545454545459,99.08333333333334,10.454545454545459,101.50000000000001,10.454545454545459C103.91666666666667,10.454545454545459,106.33333333333334,10.454545454545459,108.75,10.454545454545459C111.16666666666667,10.454545454545459,113.58333333333333,10.454545454545459,116,10.454545454545459C118.41666666666667,10.454545454545459,120.83333333333334,10.454545454545459,123.25000000000001,10.454545454545459C125.66666666666667,10.454545454545459,128.08333333333334,10.454545454545459,130.5,10.454545454545459C132.91666666666666,10.454545454545459,135.33333333333334,10.454545454545459,137.75,10.454545454545459C140.16666666666666,10.454545454545459,142.58333333333334,10.454545454545459,145,10.454545454545459C147.41666666666666,10.454545454545459,149.83333333333334,10.454545454545459,152.25,10.454545454545459C154.66666666666666,10.454545454545459,157.08333333333334,10.454545454545459,159.5,10.454545454545459C161.91666666666666,10.454545454545459,164.33333333333334,10.454545454545459,166.75,10.454545454545459C169.16666666666666,10.454545454545459,171.58333333333334,10.454545454545459,174,10.454545454545459C176.41666666666666,10.454545454545459,178.83333333333334,10.454545454545459,181.25,10.454545454545459C183.66666666666666,10.454545454545459,186.08333333333334,10.454545454545459,188.5,10.454545454545459C190.91666666666666,10.454545454545459,193.33333333333334,10.454545454545459,195.75,10.454545454545459C198.16666666666669,10.454545454545459,200.58333333333334,10.454545454545459,203.00000000000003,10.454545454545459C205.41666666666669,10.454545454545459,207.83333333333331,10.454545454545459,210.24999999999997,10.454545454545459C212.66666666666666,10.454545454545459,215.08333333333331,10.454545454545459,217.5,10.454545454545459C219.91666666666666,10.454545454545459,222.33333333333334,10.454545454545459,224.75,10.454545454545459C227.16666666666666,10.454545454545459,229.58333333333334,10.454545454545459,232,10.454545454545459C234.41666666666666,10.454545454545459,236.83333333333334,10.454545454545459,239.25,10.454545454545459C241.66666666666669,10.454545454545459,244.08333333333334,10.454545454545459,246.50000000000003,10.454545454545459C248.91666666666669,10.454545454545459,251.33333333333331,10.454545454545459,253.74999999999997,10.454545454545459C256.16666666666663,10.454545454545459,258.5833333333333,10.454545454545459,261,10.454545454545459C263.4166666666667,10.454545454545459,265.8333333333333,10.454545454545459,268.25,10.454545454545459C270.6666666666667,10.454545454545459,273.0833333333333,10.454545454545459,275.5,10.454545454545459C277.9166666666667,10.454545454545459,280.3333333333333,10.454545454545459,282.75,10.454545454545459C285.1666666666667,10.454545454545459,287.5833333333333,10.454545454545459,290,10.454545454545459C292.4166666666667,10.454545454545459,294.8333333333333,10.454545454545459,297.25,10.454545454545459C299.6666666666667,10.454545454545459,302.0833333333333,10.454545454545459,304.5,10.454545454545459C306.9166666666667,10.454545454545459,309.3333333333333,10.454545454545459,311.75,10.454545454545459C314.1666666666667,10.454545454545459,316.5833333333333,10.454545454545459,319,10.454545454545459C321.4166666666667,10.454545454545459,323.8333333333333,10.454545454545459,326.25,10.454545454545459C328.6666666666667,10.454545454545459,331.0833333333333,10.454545454545459,333.5,10.454545454545459C335.9166666666667,10.454545454545459,338.3333333333333,10.454545454545459,340.75,10.454545454545459C343.1666666666667,10.454545454545459,345.5833333333333,10.454545454545459,348,10.454545454545459C350.4166666666667,10.454545454545459,352.8333333333333,10.454545454545459,355.25,10.454545454545459C357.6666666666667,10.454545454545459,360.0833333333333,10.454545454545459,362.5,10.454545454545459C364.9166666666667,10.454545454545459,367.3333333333333,10.454545454545459,369.75,10.454545454545459C372.1666666666667,10.454545454545459,374.5833333333333,10.454545454545459,377,10.454545454545459C379.4166666666667,10.454545454545459,381.8333333333333,10.454545454545459,384.25,10.454545454545459C386.6666666666667,10.454545454545459,389.0833333333333,10.454545454545459,391.5,10.454545454545459C393.9166666666667,10.454545454545459,396.33333333333337,10.454545454545459,398.75000000000006,10.454545454545459C401.16666666666674,10.454545454545459,403.58333333333337,10.454545454545459,406.00000000000006,10.454545454545459C408.4166666666667,10.454545454545459,410.8333333333333,10.454545454545459,413.24999999999994,10.454545454545459C415.66666666666663,10.454545454545459,418.08333333333326,10.454545454545459,420.49999999999994,10.454545454545459C422.91666666666663,10.454545454545459,425.3333333333333,10.454545454545459,427.75,10.454545454545459C430.1666666666667,10.454545454545459,432.5833333333333,10.454545454545459,435,10.454545454545459C437.4166666666667,10.454545454545459,439.8333333333333,10.454545454545459,442.25,10.454545454545459C444.6666666666667,10.454545454545459,447.0833333333333,10.454545454545459,449.5,10.454545454545459C451.9166666666667,10.454545454545459,454.3333333333333,10.454545454545459,456.75,10.454545454545459C459.1666666666667,10.454545454545459,461.5833333333333,10.454545454545459,464,10.454545454545459C466.4166666666667,10.454545454545459,468.8333333333333,10.454545454545459,471.25,10.454545454545459C473.6666666666667,10.454545454545459,476.0833333333333,10.454545454545459,478.5,10.454545454545459C480.9166666666667,10.454545454545459,483.33333333333337,10.454545454545459,485.75000000000006,10.454545454545459C488.16666666666674,10.454545454545459,490.58333333333337,10.454545454545459,493.00000000000006,10.454545454545459C495.4166666666667,10.454545454545459,497.8333333333333,10.454545454545459,500.24999999999994,10.454545454545459C502.66666666666663,10.454545454545459,505.08333333333326,10.454545454545459,507.49999999999994,10.454545454545459C509.91666666666663,10.454545454545459,512.3333333333333,10.454545454545459,514.75,10.454545454545459C517.1666666666666,10.454545454545459,519.5833333333334,10.454545454545459,522,10.454545454545459C524.4166666666666,10.454545454545459,526.8333333333334,10.454545454545459,529.25,10.454545454545459C531.6666666666666,10.454545454545459,534.0833333333334,10.454545454545459,536.5,10.454545454545459C538.9166666666666,10.454545454545459,541.3333333333334,10.454545454545459,543.75,10.454545454545459C546.1666666666666,10.454545454545459,548.5833333333334,10.454545454545459,551,10.454545454545459C553.4166666666666,10.454545454545459,555.8333333333334,10.454545454545459,558.25,10.454545454545459C560.6666666666666,10.454545454545459,563.0833333333334,10.454545454545459,565.5,10.454545454545459C567.9166666666666,10.454545454545459,570.3333333333334,10.454545454545459,572.75,10.454545454545459C575.1666666666666,10.454545454545459,577.5833333333334,10.454545454545459,580,10.454545454545459C582.4166666666666,10.454545454545459,584.8333333333334,10.454545454545459,587.25,10.454545454545459C589.6666666666666,10.454545454545459,592.0833333333334,10.454545454545459,594.5,10.454545454545459C596.9166666666666,10.454545454545459,599.3333333333334,10.454545454545459,601.75,10.454545454545459C604.1666666666666,10.454545454545459,606.5833333333334,10.454545454545459,609,10.454545454545459C611.4166666666666,10.454545454545459,613.8333333333334,10.454545454545459,616.25,10.454545454545459C618.6666666666666,10.454545454545459,621.0833333333334,10.454545454545459,623.5,10.454545454545459C625.9166666666666,10.454545454545459,628.3333333333334,10.454545454545459,630.75,10.454545454545459C633.1666666666666,10.454545454545459,635.5833333333334,10.454545454545459,638,10.454545454545459C640.4166666666666,10.454545454545459,642.8333333333334,10.454545454545459,645.25,10.454545454545459C647.6666666666666,10.454545454545459,650.0833333333334,10.454545454545459,652.5,10.454545454545459C654.9166666666666,10.454545454545459,657.3333333333334,10.454545454545459,659.75,10.454545454545459C662.1666666666666,10.454545454545459,664.5833333333334,10.454545454545459,667,10.454545454545459C669.4166666666666,10.454545454545459,671.8333333333334,10.454545454545459,674.25,10.454545454545459C676.6666666666666,10.454545454545459,679.0833333333334,10.454545454545459,681.5,10.454545454545459C683.9166666666666,10.454545454545459,686.3333333333334,10.454545454545459,688.75,10.454545454545459C691.1666666666666,10.454545454545459,693.5833333333334,10.454545454545459,696,10.454545454545459C698.4166666666666,10.454545454545459,700.8333333333334,10.454545454545459,703.25,10.454545454545459C705.6666666666666,10.454545454545459,708.0833333333334,10.454545454545459,710.5,10.454545454545459C712.9166666666666,10.454545454545459,715.3333333333334,10.454545454545459,717.75,10.454545454545459C720.1666666666666,10.454545454545459,722.5833333333334,10.454545454545459,725,10.454545454545459C727.4166666666666,10.454545454545459,729.8333333333334,10.454545454545459,732.25,10.454545454545459C734.6666666666666,10.454545454545459,737.0833333333334,10.454545454545459,739.5,10.454545454545459C741.9166666666666,10.454545454545459,744.3333333333334,10.454545454545459,746.75,10.454545454545459C749.1666666666666,10.454545454545459,751.5833333333334,10.454545454545459,754,10.454545454545459C756.4166666666666,10.454545454545459,758.8333333333334,10.454545454545459,761.25,10.454545454545459C763.6666666666666,10.454545454545459,766.0833333333334,10.454545454545459,768.5,10.454545454545459C770.9166666666666,10.454545454545459,773.3333333333334,10.454545454545459,775.75,10.454545454545459C778.1666666666666,10.454545454545459,780.5833333333334,10.454545454545459,783,10.454545454545459C785.4166666666667,10.454545454545459,787.8333333333334,10.454545454545459,790.2500000000001,10.454545454545459C792.6666666666667,10.454545454545459,795.0833333333335,10.454545454545459,797.5000000000001,10.454545454545459C799.9166666666667,10.454545454545459,802.3333333333335,10.454545454545459,804.7500000000001,10.454545454545459C807.1666666666667,10.454545454545459,809.5833333333335,10.454545454545459,812.0000000000001,10.454545454545459C814.4166666666667,10.454545454545459,816.8333333333333,10.454545454545459,819.2499999999999,10.454545454545459C821.6666666666665,10.454545454545459,824.0833333333333,10.454545454545459,826.4999999999999,10.454545454545459C828.9166666666665,10.454545454545459,831.3333333333333,10.454545454545459,833.7499999999999,10.454545454545459C836.1666666666665,10.454545454545459,838.5833333333333,10.454545454545459,840.9999999999999,10.454545454545459C843.4166666666666,10.454545454545459,845.8333333333333,10.454545454545459,848.25,10.454545454545459C850.6666666666666,10.454545454545459,853.0833333333334,10.454545454545459,855.5,10.454545454545459C857.9166666666666,10.454545454545459,860.3333333333334,10.454545454545459,862.75,10.454545454545459C865.1666666666666,10.454545454545459,867.5833333333334,10.454545454545459,870,10.454545454545459C872.4166666666666,10.454545454545459,874.8333333333334,10.454545454545459,877.25,10.454545454545459C879.6666666666666,10.454545454545459,882.0833333333334,10.454545454545459,884.5,10.454545454545459C886.9166666666666,10.454545454545459,889.3333333333334,10.454545454545459,891.75,10.454545454545459C894.1666666666666,10.454545454545459,896.5833333333334,10.454545454545459,899,10.454545454545459C901.4166666666666,10.454545454545459,903.8333333333334,10.454545454545459,906.25,10.454545454545459C908.6666666666666,10.454545454545459,911.0833333333334,10.454545454545459,913.5,10.454545454545459C915.9166666666666,10.454545454545459,918.3333333333334,10.454545454545459,920.75,10.454545454545459C923.1666666666666,10.454545454545459,925.5833333333334,10.454545454545459,928,10.454545454545459C930.4166666666666,10.454545454545459,932.8333333333334,10.454545454545459,935.25,10.454545454545459C937.6666666666666,10.454545454545459,940.0833333333334,10.454545454545459,942.5,10.454545454545459C944.9166666666666,10.454545454545459,947.3333333333334,10.454545454545459,949.75,10.454545454545459C952.1666666666666,10.454545454545459,954.5833333333334,10.454545454545459,957,10.454545454545459C959.4166666666666,10.454545454545459,961.8333333333334,10.454545454545459,964.25,10.454545454545459C966.6666666666667,10.454545454545459,969.0833333333334,10.454545454545459,971.5000000000001,10.454545454545459C973.9166666666667,10.454545454545459,976.3333333333335,10.454545454545459,978.7500000000001,10.454545454545459C981.1666666666667,10.454545454545459,983.5833333333335,10.454545454545459,986.0000000000001,10.454545454545459C988.4166666666667,10.454545454545459,990.8333333333335,10.454545454545459,993.2500000000001,10.454545454545459C995.6666666666667,10.454545454545459,998.0833333333333,10.454545454545459,1000.4999999999999,10.454545454545459C1002.9166666666665,10.454545454545459,1005.3333333333333,10.454545454545459,1007.7499999999999,10.454545454545459C1010.1666666666665,10.454545454545459,1012.5833333333333,10.454545454545459,1014.9999999999999,10.454545454545459C1017.4166666666665,10.454545454545459,1019.8333333333333,10.454545454545459,1022.2499999999999,10.454545454545459C1024.6666666666665,10.454545454545459,1027.0833333333333,10.454545454545459,1029.5,10.454545454545459C1031.9166666666667,10.454545454545459,1034.3333333333333,10.454545454545459,1036.75,10.454545454545459C1039.1666666666667,10.454545454545459,1041.5833333333333,10.454545454545459,1044,10.454545454545459C1046.4166666666667,10.454545454545459,1048.8333333333333,10.454545454545459,1051.25,10.454545454545459C1053.6666666666667,10.454545454545459,1056.0833333333333,10.454545454545459,1058.5,10.454545454545459C1060.9166666666667,10.454545454545459,1063.3333333333333,10.454545454545459,1065.75,10.454545454545459C1068.1666666666667,10.454545454545459,1070.5833333333333,10.454545454545459,1073,10.454545454545459C1075.4166666666667,10.454545454545459,1077.8333333333333,10.454545454545459,1080.25,10.454545454545459C1082.6666666666667,10.454545454545459,1085.0833333333333,10.454545454545459,1087.5,10.454545454545459C1089.9166666666667,10.454545454545459,1092.3333333333333,10.454545454545459,1094.75,10.454545454545459C1097.1666666666667,10.454545454545459,1099.5833333333333,10.454545454545459,1102,10.454545454545459C1104.4166666666667,10.454545454545459,1106.8333333333333,10.454545454545459,1109.25,10.454545454545459C1111.6666666666667,10.454545454545459,1114.0833333333333,10.454545454545459,1116.5,10.454545454545459C1118.9166666666667,10.454545454545459,1121.3333333333333,10.454545454545459,1123.75,10.454545454545459C1126.1666666666667,10.454545454545459,1128.5833333333333,10.454545454545459,1131,10.454545454545459C1133.4166666666667,10.454545454545459,1135.8333333333333,10.454545454545459,1138.25,10.454545454545459C1140.6666666666667,10.454545454545459,1143.0833333333333,10.454545454545459,1145.5,10.454545454545459C1147.9166666666667,10.454545454545459,1150.3333333333333,10.454545454545459,1152.75,10.454545454545459C1155.1666666666667,10.454545454545459,1157.5833333333333,10.454545454545459,1160,10.454545454545459C1162.4166666666667,10.454545454545459,1164.8333333333333,10.454545454545459,1167.25,10.454545454545459C1169.6666666666667,10.454545454545459,1172.0833333333333,10.454545454545459,1174.5,10.454545454545459C1176.9166666666667,10.454545454545459,1179.3333333333333,10.454545454545459,1181.75,10.454545454545459C1184.1666666666667,10.454545454545459,1186.5833333333333,10.454545454545459,1189,10.454545454545459C1191.4166666666667,10.454545454545459,1193.8333333333333,10.454545454545459,1196.25,10.454545454545459C1198.6666666666667,10.454545454545459,1201.0833333333333,10.454545454545459,1203.5,10.454545454545459C1205.9166666666667,10.454545454545459,1208.3333333333333,10.454545454545459,1210.75,10.454545454545459C1213.1666666666667,10.454545454545459,1215.5833333333333,10.454545454545459,1218,10.454545454545459C1220.4166666666667,10.454545454545459,1222.8333333333333,10.454545454545459,1225.25,10.454545454545459C1227.6666666666667,10.454545454545459,1230.0833333333333,10.454545454545459,1232.5,10.454545454545459C1234.9166666666667,10.454545454545459,1237.3333333333333,10.454545454545459,1239.75,10.454545454545459C1242.1666666666667,10.454545454545459,1244.5833333333333,10.454545454545459,1247,10.454545454545459C1249.4166666666667,10.454545454545459,1251.8333333333333,10.454545454545459,1254.25,10.454545454545459C1256.6666666666667,10.454545454545459,1259.0833333333333,10.454545454545459,1261.5,10.454545454545459C1263.9166666666667,10.454545454545459,1266.3333333333333,10.454545454545459,1268.75,10.454545454545459C1271.1666666666667,10.454545454545459,1273.5833333333333,10.454545454545459,1276,10.454545454545459C1278.4166666666667,10.454545454545459,1280.8333333333333,10.454545454545459,1283.25,10.454545454545459C1285.6666666666667,10.454545454545459,1288.0833333333333,10.454545454545459,1290.5,10.454545454545459C1292.9166666666667,10.454545454545459,1295.3333333333333,10.454545454545459,1297.75,10.454545454545459C1300.1666666666667,10.454545454545459,1302.5833333333333,10.454545454545459,1305,10.454545454545459C1307.4166666666667,10.454545454545459,1309.8333333333333,10.454545454545459,1312.25,10.454545454545459C1314.6666666666667,10.454545454545459,1317.0833333333333,10.454545454545459,1319.5,10.454545454545459C1321.9166666666667,10.454545454545459,1324.3333333333333,10.454545454545459,1326.75,10.454545454545459C1329.1666666666667,10.454545454545459,1331.5833333333333,10.454545454545459,1334,10.454545454545459C1336.4166666666667,10.454545454545459,1338.8333333333333,10.454545454545459,1341.25,10.454545454545459C1343.6666666666667,10.454545454545459,1346.0833333333333,10.454545454545459,1348.5,10.454545454545459C1350.9166666666667,10.454545454545459,1353.3333333333333,10.454545454545459,1355.75,10.454545454545459C1358.1666666666667,10.454545454545459,1360.5833333333333,10.454545454545459,1363,10.454545454545459C1365.4166666666667,10.454545454545459,1367.8333333333333,10.454545454545459,1370.25,10.454545454545459C1372.6666666666667,10.454545454545459,1375.0833333333333,10.454545454545459,1377.5,10.454545454545459C1379.9166666666667,10.454545454545459,1382.3333333333333,10.454545454545459,1384.75,10.454545454545459C1387.1666666666667,10.454545454545459,1389.5833333333333,10.454545454545459,1392,10.454545454545459C1394.4166666666667,10.454545454545459,1396.8333333333333,10.454545454545459,1399.25,10.454545454545459C1401.6666666666667,10.454545454545459,1404.0833333333333,10.454545454545459,1406.5,10.454545454545459C1408.9166666666667,10.454545454545459,1411.3333333333333,10.454545454545459,1413.75,10.454545454545459C1416.1666666666667,10.454545454545459,1418.5833333333333,10.454545454545459,1421,10.454545454545459C1423.4166666666667,10.454545454545459,1425.8333333333333,10.454545454545459,1428.25,10.454545454545459C1430.6666666666667,10.454545454545459,1433.0833333333333,10.454545454545459,1435.5,10.454545454545459C1437.9166666666667,10.454545454545459,1440.3333333333333,10.454545454545459,1442.75,10.454545454545459C1445.1666666666667,10.454545454545459,1447.5833333333333,10.454545454545459,1450,10.454545454545459" fill="transparent" stroke-linecap="round" stroke="#B6509E" stroke-width="2"></path><path class="visx-linepath" d="M0,62.72727272727272C2.4166666666666665,62.72727272727272,4.833333333333334,62.72727272727272,7.25,62.72727272727272C9.666666666666666,62.72727272727272,12.083333333333334,62.72727272727272,14.5,62.72727272727272C16.916666666666668,62.72727272727272,19.333333333333332,62.72727272727272,21.75,62.72727272727272C24.166666666666668,62.72727272727272,26.583333333333332,62.72727272727272,29,62.72727272727272C31.416666666666668,62.72727272727272,33.833333333333336,62.72727272727272,36.25,62.72727272727272C38.666666666666664,62.72727272727272,41.083333333333336,62.72727272727272,43.5,62.72727272727272C45.91666666666667,62.72727272727272,48.333333333333336,62.72727272727272,50.75000000000001,62.72727272727272C53.16666666666667,62.72727272727272,55.583333333333336,62.72727272727272,58,62.72727272727272C60.416666666666664,62.72727272727272,62.833333333333336,62.72727272727272,65.25,62.72727272727272C67.66666666666667,62.72727272727272,70.08333333333333,62.72727272727272,72.5,62.72727272727272C74.91666666666667,62.72727272727272,77.33333333333333,62.72727272727272,79.75,62.72727272727272C82.16666666666667,62.72727272727272,84.58333333333333,62.72727272727272,87,62.72727272727272C89.41666666666667,62.72727272727272,91.83333333333333,62.72727272727272,94.25,62.72727272727272C96.66666666666667,62.72727272727272,99.08333333333334,62.72727272727272,101.50000000000001,62.72727272727272C103.91666666666667,62.72727272727272,106.33333333333334,62.72727272727272,108.75,62.72727272727272C111.16666666666667,62.72727272727272,113.58333333333333,62.72727272727272,116,62.72727272727272C118.41666666666667,62.72727272727272,120.83333333333334,62.72727272727272,123.25000000000001,62.72727272727272C125.66666666666667,62.72727272727272,128.08333333333334,62.72727272727272,130.5,62.72727272727272C132.91666666666666,62.72727272727272,135.33333333333334,62.72727272727272,137.75,62.72727272727272C140.16666666666666,62.72727272727272,142.58333333333334,62.72727272727272,145,62.72727272727272C147.41666666666666,62.72727272727272,149.83333333333334,62.72727272727272,152.25,62.72727272727272C154.66666666666666,62.72727272727272,157.08333333333334,62.72727272727272,159.5,62.72727272727272C161.91666666666666,62.72727272727272,164.33333333333334,62.72727272727272,166.75,62.72727272727272C169.16666666666666,62.72727272727272,171.58333333333334,62.72727272727272,174,62.72727272727272C176.41666666666666,62.72727272727272,178.83333333333334,62.72727272727272,181.25,62.72727272727272C183.66666666666666,62.72727272727272,186.08333333333334,62.72727272727272,188.5,62.72727272727272C190.91666666666666,62.72727272727272,193.33333333333334,62.72727272727272,195.75,62.72727272727272C198.16666666666669,62.72727272727272,200.58333333333334,62.72727272727272,203.00000000000003,62.72727272727272C205.41666666666669,62.72727272727272,207.83333333333331,62.72727272727272,210.24999999999997,62.72727272727272C212.66666666666666,62.72727272727272,215.08333333333331,62.72727272727272,217.5,62.72727272727272C219.91666666666666,62.72727272727272,222.33333333333334,62.72727272727272,224.75,62.72727272727272C227.16666666666666,62.72727272727272,229.58333333333334,62.72727272727272,232,62.72727272727272C234.41666666666666,62.72727272727272,236.83333333333334,62.72727272727272,239.25,62.72727272727272C241.66666666666669,62.72727272727272,244.08333333333334,62.72727272727272,246.50000000000003,62.72727272727272C248.91666666666669,62.72727272727272,251.33333333333331,62.72727272727272,253.74999999999997,62.72727272727272C256.16666666666663,62.72727272727272,258.5833333333333,62.72727272727272,261,62.72727272727272C263.4166666666667,62.72727272727272,265.8333333333333,62.72727272727272,268.25,62.72727272727272C270.6666666666667,62.72727272727272,273.0833333333333,62.72727272727272,275.5,62.72727272727272C277.9166666666667,62.72727272727272,280.3333333333333,62.72727272727272,282.75,62.72727272727272C285.1666666666667,62.72727272727272,287.5833333333333,62.72727272727272,290,62.72727272727272C292.4166666666667,62.72727272727272,294.8333333333333,62.72727272727272,297.25,62.72727272727272C299.6666666666667,62.72727272727272,302.0833333333333,62.72727272727272,304.5,62.72727272727272C306.9166666666667,62.72727272727272,309.3333333333333,62.72727272727272,311.75,62.72727272727272C314.1666666666667,62.72727272727272,316.5833333333333,62.72727272727272,319,62.72727272727272C321.4166666666667,62.72727272727272,323.8333333333333,62.72727272727272,326.25,62.72727272727272C328.6666666666667,62.72727272727272,331.0833333333333,62.72727272727272,333.5,62.72727272727272C335.9166666666667,62.72727272727272,338.3333333333333,62.72727272727272,340.75,62.72727272727272C343.1666666666667,62.72727272727272,345.5833333333333,62.72727272727272,348,62.72727272727272C350.4166666666667,62.72727272727272,352.8333333333333,62.72727272727272,355.25,62.72727272727272C357.6666666666667,62.72727272727272,360.0833333333333,62.72727272727272,362.5,62.72727272727272C364.9166666666667,62.72727272727272,367.3333333333333,62.72727272727272,369.75,62.72727272727272C372.1666666666667,62.72727272727272,374.5833333333333,62.72727272727272,377,62.72727272727272C379.4166666666667,62.72727272727272,381.8333333333333,62.72727272727272,384.25,62.72727272727272C386.6666666666667,62.72727272727272,389.0833333333333,62.72727272727272,391.5,62.72727272727272C393.9166666666667,62.72727272727272,396.33333333333337,62.72727272727272,398.75000000000006,62.72727272727272C401.16666666666674,62.72727272727272,403.58333333333337,62.72727272727272,406.00000000000006,62.72727272727272C408.4166666666667,62.72727272727272,410.8333333333333,62.72727272727272,413.24999999999994,62.72727272727272C415.66666666666663,62.72727272727272,418.08333333333326,62.72727272727272,420.49999999999994,62.72727272727272C422.91666666666663,62.72727272727272,425.3333333333333,62.72727272727272,427.75,62.72727272727272C430.1666666666667,62.72727272727272,432.5833333333333,62.72727272727272,435,62.72727272727272C437.4166666666667,62.72727272727272,439.8333333333333,62.72727272727272,442.25,62.72727272727272C444.6666666666667,62.72727272727272,447.0833333333333,62.72727272727272,449.5,62.72727272727272C451.9166666666667,62.72727272727272,454.3333333333333,62.72727272727272,456.75,62.72727272727272C459.1666666666667,62.72727272727272,461.5833333333333,62.72727272727272,464,62.72727272727272C466.4166666666667,62.72727272727272,468.8333333333333,62.72727272727272,471.25,62.72727272727272C473.6666666666667,62.72727272727272,476.0833333333333,62.72727272727272,478.5,62.72727272727272C480.9166666666667,62.72727272727272,483.33333333333337,62.72727272727272,485.75000000000006,62.72727272727272C488.16666666666674,62.72727272727272,490.58333333333337,62.72727272727272,493.00000000000006,62.72727272727272C495.4166666666667,62.72727272727272,497.8333333333333,62.72727272727272,500.24999999999994,62.72727272727272C502.66666666666663,62.72727272727272,505.08333333333326,62.72727272727272,507.49999999999994,62.72727272727272C509.91666666666663,62.72727272727272,512.3333333333333,62.72727272727272,514.75,62.72727272727272C517.1666666666666,62.72727272727272,519.5833333333334,62.72727272727272,522,62.72727272727272C524.4166666666666,62.72727272727272,526.8333333333334,62.72727272727272,529.25,62.72727272727272C531.6666666666666,62.72727272727272,534.0833333333334,62.72727272727272,536.5,62.72727272727272C538.9166666666666,62.72727272727272,541.3333333333334,62.72727272727272,543.75,62.72727272727272C546.1666666666666,62.72727272727272,548.5833333333334,62.72727272727272,551,62.72727272727272C553.4166666666666,62.72727272727272,555.8333333333334,62.72727272727272,558.25,62.72727272727272C560.6666666666666,62.72727272727272,563.0833333333334,62.72727272727272,565.5,62.72727272727272C567.9166666666666,62.72727272727272,570.3333333333334,62.72727272727272,572.75,62.72727272727272C575.1666666666666,62.72727272727272,577.5833333333334,62.72727272727272,580,62.72727272727272C582.4166666666666,62.72727272727272,584.8333333333334,62.72727272727272,587.25,62.72727272727272C589.6666666666666,62.72727272727272,592.0833333333334,62.72727272727272,594.5,62.72727272727272C596.9166666666666,62.72727272727272,599.3333333333334,62.72727272727272,601.75,62.72727272727272C604.1666666666666,62.72727272727272,606.5833333333334,62.72727272727272,609,62.72727272727272C611.4166666666666,62.72727272727272,613.8333333333334,62.72727272727272,616.25,62.72727272727272C618.6666666666666,62.72727272727272,621.0833333333334,62.72727272727272,623.5,62.72727272727272C625.9166666666666,62.72727272727272,628.3333333333334,62.72727272727272,630.75,62.72727272727272C633.1666666666666,62.72727272727272,635.5833333333334,62.72727272727272,638,62.72727272727272C640.4166666666666,62.72727272727272,642.8333333333334,62.72727272727272,645.25,62.72727272727272C647.6666666666666,62.72727272727272,650.0833333333334,62.72727272727272,652.5,62.72727272727272C654.9166666666666,62.72727272727272,657.3333333333334,62.72727272727272,659.75,62.72727272727272C662.1666666666666,62.72727272727272,664.5833333333334,62.72727272727272,667,62.72727272727272C669.4166666666666,62.72727272727272,671.8333333333334,62.72727272727272,674.25,62.72727272727272C676.6666666666666,62.72727272727272,679.0833333333334,62.72727272727272,681.5,62.72727272727272C683.9166666666666,62.72727272727272,686.3333333333334,62.72727272727272,688.75,62.72727272727272C691.1666666666666,62.72727272727272,693.5833333333334,62.72727272727272,696,62.72727272727272C698.4166666666666,62.72727272727272,700.8333333333334,62.72727272727272,703.25,62.72727272727272C705.6666666666666,62.72727272727272,708.0833333333334,62.72727272727272,710.5,62.72727272727272C712.9166666666666,62.72727272727272,715.3333333333334,62.72727272727272,717.75,62.72727272727272C720.1666666666666,62.72727272727272,722.5833333333334,62.72727272727272,725,62.72727272727272C727.4166666666666,62.72727272727272,729.8333333333334,62.72727272727272,732.25,62.72727272727272C734.6666666666666,62.72727272727272,737.0833333333334,62.72727272727272,739.5,62.72727272727272C741.9166666666666,62.72727272727272,744.3333333333334,62.72727272727272,746.75,62.72727272727272C749.1666666666666,62.72727272727272,751.5833333333334,62.72727272727272,754,62.72727272727272C756.4166666666666,62.72727272727272,758.8333333333334,62.72727272727272,761.25,62.72727272727272C763.6666666666666,62.72727272727272,766.0833333333334,62.72727272727272,768.5,62.72727272727272C770.9166666666666,62.72727272727272,773.3333333333334,62.72727272727272,775.75,62.72727272727272C778.1666666666666,62.72727272727272,780.5833333333334,62.72727272727272,783,62.72727272727272C785.4166666666667,62.72727272727272,787.8333333333334,62.72727272727272,790.2500000000001,62.72727272727272C792.6666666666667,62.72727272727272,795.0833333333335,62.72727272727272,797.5000000000001,62.72727272727272C799.9166666666667,62.72727272727272,802.3333333333335,62.72727272727272,804.7500000000001,62.72727272727272C807.1666666666667,62.72727272727272,809.5833333333335,62.72727272727272,812.0000000000001,62.72727272727272C814.4166666666667,62.72727272727272,816.8333333333333,62.72727272727272,819.2499999999999,62.72727272727272C821.6666666666665,62.72727272727272,824.0833333333333,62.72727272727272,826.4999999999999,62.72727272727272C828.9166666666665,62.72727272727272,831.3333333333333,62.72727272727272,833.7499999999999,62.72727272727272C836.1666666666665,62.72727272727272,838.5833333333333,62.72727272727272,840.9999999999999,62.72727272727272C843.4166666666666,62.72727272727272,845.8333333333333,62.72727272727272,848.25,62.72727272727272C850.6666666666666,62.72727272727272,853.0833333333334,62.72727272727272,855.5,62.72727272727272C857.9166666666666,62.72727272727272,860.3333333333334,62.72727272727272,862.75,62.72727272727272C865.1666666666666,62.72727272727272,867.5833333333334,62.72727272727272,870,62.72727272727272C872.4166666666666,62.72727272727272,874.8333333333334,62.72727272727272,877.25,62.72727272727272C879.6666666666666,62.72727272727272,882.0833333333334,62.72727272727272,884.5,62.72727272727272C886.9166666666666,62.72727272727272,889.3333333333334,62.72727272727272,891.75,62.72727272727272C894.1666666666666,62.72727272727272,896.5833333333334,62.72727272727272,899,62.72727272727272C901.4166666666666,62.72727272727272,903.8333333333334,62.72727272727272,906.25,62.72727272727272C908.6666666666666,62.72727272727272,911.0833333333334,62.72727272727272,913.5,62.72727272727272C915.9166666666666,62.72727272727272,918.3333333333334,62.72727272727272,920.75,62.72727272727272C923.1666666666666,62.72727272727272,925.5833333333334,62.72727272727272,928,62.72727272727272C930.4166666666666,62.72727272727272,932.8333333333334,62.72727272727272,935.25,62.72727272727272C937.6666666666666,62.72727272727272,940.0833333333334,62.72727272727272,942.5,62.72727272727272C944.9166666666666,62.72727272727272,947.3333333333334,62.72727272727272,949.75,62.72727272727272C952.1666666666666,62.72727272727272,954.5833333333334,62.72727272727272,957,62.72727272727272C959.4166666666666,62.72727272727272,961.8333333333334,62.72727272727272,964.25,62.72727272727272C966.6666666666667,62.72727272727272,969.0833333333334,62.72727272727272,971.5000000000001,62.72727272727272C973.9166666666667,62.72727272727272,976.3333333333335,62.72727272727272,978.7500000000001,62.72727272727272C981.1666666666667,62.72727272727272,983.5833333333335,62.72727272727272,986.0000000000001,62.72727272727272C988.4166666666667,62.72727272727272,990.8333333333335,62.72727272727272,993.2500000000001,62.72727272727272C995.6666666666667,62.72727272727272,998.0833333333333,62.72727272727272,1000.4999999999999,62.72727272727272C1002.9166666666665,62.72727272727272,1005.3333333333333,62.72727272727272,1007.7499999999999,62.72727272727272C1010.1666666666665,62.72727272727272,1012.5833333333333,62.72727272727272,1014.9999999999999,62.72727272727272C1017.4166666666665,62.72727272727272,1019.8333333333333,62.72727272727272,1022.2499999999999,62.72727272727272C1024.6666666666665,62.72727272727272,1027.0833333333333,62.72727272727272,1029.5,62.72727272727272C1031.9166666666667,62.72727272727272,1034.3333333333333,62.72727272727272,1036.75,62.72727272727272C1039.1666666666667,62.72727272727272,1041.5833333333333,62.72727272727272,1044,62.72727272727272C1046.4166666666667,62.72727272727272,1048.8333333333333,62.72727272727272,1051.25,62.72727272727272C1053.6666666666667,62.72727272727272,1056.0833333333333,62.72727272727272,1058.5,62.72727272727272C1060.9166666666667,62.72727272727272,1063.3333333333333,62.72727272727272,1065.75,62.72727272727272C1068.1666666666667,62.72727272727272,1070.5833333333333,62.72727272727272,1073,62.72727272727272C1075.4166666666667,62.72727272727272,1077.8333333333333,62.72727272727272,1080.25,62.72727272727272C1082.6666666666667,62.72727272727272,1085.0833333333333,62.72727272727272,1087.5,62.72727272727272C1089.9166666666667,62.72727272727272,1092.3333333333333,62.72727272727272,1094.75,62.72727272727272C1097.1666666666667,62.72727272727272,1099.5833333333333,62.72727272727272,1102,62.72727272727272C1104.4166666666667,62.72727272727272,1106.8333333333333,62.72727272727272,1109.25,62.72727272727272C1111.6666666666667,62.72727272727272,1114.0833333333333,62.72727272727272,1116.5,62.72727272727272C1118.9166666666667,62.72727272727272,1121.3333333333333,62.72727272727272,1123.75,62.72727272727272C1126.1666666666667,62.72727272727272,1128.5833333333333,62.72727272727272,1131,62.72727272727272C1133.4166666666667,62.72727272727272,1135.8333333333333,62.72727272727272,1138.25,62.72727272727272C1140.6666666666667,62.72727272727272,1143.0833333333333,62.72727272727272,1145.5,62.72727272727272C1147.9166666666667,62.72727272727272,1150.3333333333333,62.72727272727272,1152.75,62.72727272727272C1155.1666666666667,62.72727272727272,1157.5833333333333,62.72727272727272,1160,62.72727272727272C1162.4166666666667,62.72727272727272,1164.8333333333333,62.72727272727272,1167.25,62.72727272727272C1169.6666666666667,62.72727272727272,1172.0833333333333,62.72727272727272,1174.5,62.72727272727272C1176.9166666666667,62.72727272727272,1179.3333333333333,62.72727272727272,1181.75,62.72727272727272C1184.1666666666667,62.72727272727272,1186.5833333333333,62.72727272727272,1189,62.72727272727272C1191.4166666666667,62.72727272727272,1193.8333333333333,62.72727272727272,1196.25,62.72727272727272C1198.6666666666667,62.72727272727272,1201.0833333333333,62.72727272727272,1203.5,62.72727272727272C1205.9166666666667,62.72727272727272,1208.3333333333333,62.72727272727272,1210.75,62.72727272727272C1213.1666666666667,62.72727272727272,1215.5833333333333,62.72727272727272,1218,62.72727272727272C1220.4166666666667,62.72727272727272,1222.8333333333333,62.72727272727272,1225.25,62.72727272727272C1227.6666666666667,62.72727272727272,1230.0833333333333,62.72727272727272,1232.5,62.72727272727272C1234.9166666666667,62.72727272727272,1237.3333333333333,62.72727272727272,1239.75,62.72727272727272C1242.1666666666667,62.72727272727272,1244.5833333333333,62.72727272727272,1247,62.72727272727272C1249.4166666666667,62.72727272727272,1251.8333333333333,62.72727272727272,1254.25,62.72727272727272C1256.6666666666667,62.72727272727272,1259.0833333333333,62.72727272727272,1261.5,62.72727272727272C1263.9166666666667,62.72727272727272,1266.3333333333333,62.72727272727272,1268.75,62.72727272727272C1271.1666666666667,62.72727272727272,1273.5833333333333,62.72727272727272,1276,62.72727272727272C1278.4166666666667,62.72727272727272,1280.8333333333333,62.72727272727272,1283.25,62.72727272727272C1285.6666666666667,62.72727272727272,1288.0833333333333,62.72727272727272,1290.5,62.72727272727272C1292.9166666666667,62.72727272727272,1295.3333333333333,62.72727272727272,1297.75,62.72727272727272C1300.1666666666667,62.72727272727272,1302.5833333333333,62.72727272727272,1305,62.72727272727272C1307.4166666666667,62.72727272727272,1309.8333333333333,62.72727272727272,1312.25,62.72727272727272C1314.6666666666667,62.72727272727272,1317.0833333333333,62.72727272727272,1319.5,62.72727272727272C1321.9166666666667,62.72727272727272,1324.3333333333333,62.72727272727272,1326.75,62.72727272727272C1329.1666666666667,62.72727272727272,1331.5833333333333,62.72727272727272,1334,62.72727272727272C1336.4166666666667,62.72727272727272,1338.8333333333333,62.72727272727272,1341.25,62.72727272727272C1343.6666666666667,62.72727272727272,1346.0833333333333,62.72727272727272,1348.5,62.72727272727272C1350.9166666666667,62.72727272727272,1353.3333333333333,62.72727272727272,1355.75,62.72727272727272C1358.1666666666667,62.72727272727272,1360.5833333333333,62.72727272727272,1363,62.72727272727272C1365.4166666666667,62.72727272727272,1367.8333333333333,62.72727272727272,1370.25,62.72727272727272C1372.6666666666667,62.72727272727272,1375.0833333333333,62.72727272727272,1377.5,62.72727272727272C1379.9166666666667,62.72727272727272,1382.3333333333333,62.72727272727272,1384.75,62.72727272727272C1387.1666666666667,62.72727272727272,1389.5833333333333,62.72727272727272,1392,62.72727272727272C1394.4166666666667,62.72727272727272,1396.8333333333333,62.72727272727272,1399.25,62.72727272727272C1401.6666666666667,62.72727272727272,1404.0833333333333,62.72727272727272,1406.5,62.72727272727272C1408.9166666666667,62.72727272727272,1411.3333333333333,62.72727272727272,1413.75,62.72727272727272C1416.1666666666667,62.72727272727272,1418.5833333333333,62.72727272727272,1421,62.72727272727272C1423.4166666666667,62.72727272727272,1425.8333333333333,62.72727272727272,1428.25,62.72727272727272C1430.6666666666667,62.72727272727272,1433.0833333333333,62.72727272727272,1435.5,62.72727272727272C1437.9166666666667,62.72727272727272,1440.3333333333333,62.72727272727272,1442.75,62.72727272727272C1445.1666666666667,62.72727272727272,1447.5833333333333,62.72727272727272,1450,62.72727272727272" fill="transparent" stroke-linecap="round" stroke="#E7C6DF" stroke-width="2"></path><g class="visx-group visx-axis visx-axis-bottom" transform="translate(0, 115)"><g class="visx-group visx-axis-tick" transform="translate(0, 0)"><line class="visx-line" x1="0" y1="0" x2="0" y2="8" fill="transparent" shape-rendering="crispEdges" stroke="#000" stroke-width="0" stroke-linecap="square"></line><svg x="0" y="0" font-size="10" style="overflow:visible"><text transform="" x="0" y="18" fill="#000" font-size="10" text-anchor="middle"><tspan x="0" dy="0em">0%</tspan></text></svg></g><g class="visx-group visx-axis-tick" transform="translate(0, 0)"><line class="visx-line" x1="362.5" y1="0" x2="362.5" y2="8" fill="transparent" shape-rendering="crispEdges" stroke="#000" stroke-width="0" stroke-linecap="square"></line><svg x="0" y="0" font-size="10" style="overflow:visible"><text transform="" x="362.5" y="18" fill="#000" font-size="10" text-anchor="middle"><tspan x="362.5" dy="0em">25%</tspan></text></svg></g><g class="visx-group visx-axis-tick" transform="translate(0, 0)"><line class="visx-line" x1="725" y1="0" x2="725" y2="8" fill="transparent" shape-rendering="crispEdges" stroke="#000" stroke-width="0" stroke-linecap="square"></line><svg x="0" y="0" font-size="10" style="overflow:visible"><text transform="" x="725" y="18" fill="#000" font-size="10" text-anchor="middle"><tspan x="725" dy="0em">50%</tspan></text></svg></g><g class="visx-group visx-axis-tick" transform="translate(0, 0)"><line class="visx-line" x1="1087.5" y1="0" x2="1087.5" y2="8" fill="transparent" shape-rendering="crispEdges" stroke="#000" stroke-width="0" stroke-linecap="square"></line><svg x="0" y="0" font-size="10" style="overflow:visible"><text transform="" x="1087.5" y="18" fill="#000" font-size="10" text-anchor="middle"><tspan x="1087.5" dy="0em">75%</tspan></text></svg></g><g class="visx-group visx-axis-tick" transform="translate(0, 0)"><line class="visx-line" x1="1450" y1="0" x2="1450" y2="8" fill="transparent" shape-rendering="crispEdges" stroke="#000" stroke-width="0" stroke-linecap="square"></line><svg x="0" y="0" font-size="10" style="overflow:visible"><text transform="" x="1450" y="18" fill="#000" font-size="10" text-anchor="middle"><tspan x="1450" dy="0em">100%</tspan></text></svg></g><line class="visx-line visx-axis-line" x1="0.5" y1="0" x2="1450.5" y2="0" fill="transparent" shape-rendering="crispEdges" stroke="#222" stroke-width="0"></line></g><g class="visx-group visx-axis visx-axis-left" transform="translate(0, 0)"><g class="visx-group visx-axis-tick" transform="translate(0, 0)"><line class="visx-line" x1="0" y1="115" x2="-8" y2="115" fill="transparent" shape-rendering="crispEdges" stroke="#222" stroke-width="0" stroke-linecap="square"></line><svg x="-30" y="0" font-size="8" style="overflow:visible"><text transform="" x="-8" y="115" fill="#000" font-size="8" text-anchor="start"><tspan x="-8" dy="0em">0%</tspan></text></svg></g><g class="visx-group visx-axis-tick" transform="translate(0, 0)"><line class="visx-line" x1="0" y1="62.72727272727272" x2="-8" y2="62.72727272727272" fill="transparent" shape-rendering="crispEdges" stroke="#222" stroke-width="0" stroke-linecap="square"></line><svg x="-30" y="0" font-size="8" style="overflow:visible"><text transform="" x="-8" y="62.72727272727272" fill="#000" font-size="8" text-anchor="start"><tspan x="-8" dy="0em">10%</tspan></text></svg></g><g class="visx-group visx-axis-tick" transform="translate(0, 0)"><line class="visx-line" x1="0" y1="10.454545454545459" x2="-8" y2="10.454545454545459" fill="transparent" shape-rendering="crispEdges" stroke="#222" stroke-width="0" stroke-linecap="square"></line><svg x="-30" y="0" font-size="8" style="overflow:visible"><text transform="" x="-8" y="10.454545454545459" fill="#000" font-size="8" text-anchor="start"><tspan x="-8" dy="0em">20%</tspan></text></svg></g><line class="visx-line visx-axis-line" x1="0" y1="115.5" x2="0" y2="0.5" fill="transparent" shape-rendering="crispEdges" stroke="#222" stroke-width="0"></line></g><rect class="visx-bar" width="1450" height="115" fill="transparent"></rect><line class="visx-line" x1="1160" y1="28" x2="1160" y2="115" fill="transparent" shape-rendering="crispEdges" stroke="#0062D2" stroke-width="1" pointer-events="none" stroke-dasharray="5,2"></line><svg x="0" y="0" font-size="10px" style="overflow:visible"><text transform="" x="1160" y="20" font-size="10px" fill="#fff" stroke="#fff" stroke-width="0.8em" text-anchor="middle"><tspan x="1160" dy="0.355em">Optimal 80%</tspan></text></svg><svg x="0" y="0" font-size="10px" style="overflow:visible"><text transform="" x="1160" y="20" font-size="10px" fill="#62677B" text-anchor="middle"><tspan x="1160" dy="0.355em">Optimal 80%</tspan></text></svg></g></svg>