<?xml version="1.0"?><svg xmlns="http://www.w3.org/2000/svg" xmlns:xlink= "http://www.w3.org/1999/xlink" style="background: white;" width="1500" height="185"> <g style="color: black; font-size: 13px; font-family: sans-serif; transform: translate(18px, 25px);"><g><circle r="3" cx="-6" cy="-5" style="fill: #B6509E" /><text>Borrow APR, variable</text></g><g style="transform: translateX(150px);"><circle r="3" cx="-6" cy="-5" style="fill: rgb(231, 198, 223)" /><text>Borrow APR, stable</text></g><g style="transform: translateX(290px);"><circle r="3" cx="-6" cy="-5" style="fill: rgb(0, 98, 210)" /><text>Utilization Rate</text></g></g><g class="visx-group" transform="translate(40, 50)"><g class="visx-group visx-rows" transform="translate(0, 0)"><line class="visx-line" x1="0" y1="115" x2="1450" y2="115" fill="transparent" shape-rendering="crispEdges" stroke="#000" stroke-width="1" stroke-dasharray="3,3" pointer-events="none"></line><line class="visx-line" x1="0" y1="82.14285714285714" x2="1450" y2="82.14285714285714" fill="transparent" shape-rendering="crispEdges" stroke="#000" stroke-width="1" stroke-dasharray="3,3" pointer-events="none"></line><line class="visx-line" x1="0" y1="49.28571428571429" x2="1450" y2="49.28571428571429" fill="transparent" shape-rendering="crispEdges" stroke="#000" stroke-width="1" stroke-dasharray="3,3" pointer-events="none"></line><line class="visx-line" x1="0" y1="16.428571428571434" x2="1450" y2="16.428571428571434" fill="transparent" shape-rendering="crispEdges" stroke="#000" stroke-width="1" stroke-dasharray="3,3" pointer-events="none"></line></g><path class="visx-linepath" d="M0,114.99999999995619C2.4166666666666665,114.99269841267285,4.833333333333334,114.98539682538951,7.25,114.97809523809524C9.666666666666666,114.97079365080096,12.083333333333334,114.96349206349205,14.5,114.95619047619047C16.916666666666668,114.94888888888889,19.333333333333332,114.9415873015873,21.75,114.93428571428572C24.166666666666668,114.92698412698414,26.583333333333332,114.91968253968254,29,114.91238095238096C31.416666666666668,114.90507936507937,33.833333333333336,114.89777777777778,36.25,114.89047619047619C38.666666666666664,114.88317460317461,41.083333333333336,114.87587301587301,43.5,114.86857142857143C45.91666666666667,114.86126984126984,48.333333333333336,114.85396825396825,50.75000000000001,114.84666666666666C53.16666666666667,114.83936507936508,55.583333333333336,114.8320634920635,58,114.82476190476191C60.416666666666664,114.81746031746033,62.833333333333336,114.81015873015873,65.25,114.80285714285715C67.66666666666667,114.79555555555557,70.08333333333333,114.78825396825397,72.5,114.78095238095239C74.91666666666667,114.7736507936508,77.33333333333333,114.76634920634919,79.75,114.7590476190476C82.16666666666667,114.75174603174602,84.58333333333333,114.74444444444444,87,114.73714285714286C89.41666666666667,114.72984126984127,91.83333333333333,114.72253968253968,94.25,114.71523809523809C96.66666666666667,114.70793650793651,99.08333333333334,114.70063492063491,101.50000000000001,114.69333333333333C103.91666666666667,114.68603174603174,106.33333333333334,114.67873015873015,108.75,114.67142857142856C111.16666666666667,114.66412698412698,113.58333333333333,114.65682539682538,116,114.6495238095238C118.41666666666667,114.64222222222222,120.83333333333334,114.63492063492063,123.25000000000001,114.62761904761905C125.66666666666667,114.62031746031747,128.08333333333334,114.61301587301587,130.5,114.60571428571428C132.91666666666666,114.5984126984127,135.33333333333334,114.5911111111111,137.75,114.58380952380952C140.16666666666666,114.57650793650794,142.58333333333334,114.56920634920634,145,114.56190476190476C147.41666666666666,114.55460317460317,149.83333333333334,114.54730158730159,152.25,114.54C154.66666666666666,114.53269841269842,157.08333333333334,114.52539682539683,159.5,114.51809523809524C161.91666666666666,114.51079365079366,164.33333333333334,114.50349206349206,166.75,114.49619047619048C169.16666666666666,114.4888888888889,171.58333333333334,114.4815873015873,174,114.47428571428571C176.41666666666666,114.46698412698413,178.83333333333334,114.45968253968253,181.25,114.45238095238095C183.66666666666666,114.44507936507937,186.08333333333334,114.43777777777778,188.5,114.4304761904762C190.91666666666666,114.42317460317462,193.33333333333334,114.41587301587302,195.75,114.40857142857143C198.16666666666669,114.40126984126985,200.58333333333334,114.39396825396825,203.00000000000003,114.38666666666667C205.41666666666669,114.37936507936509,207.83333333333331,114.37206349206349,210.24999999999997,114.3647619047619C212.66666666666666,114.35746031746032,215.08333333333331,114.35015873015873,217.5,114.34285714285714C219.91666666666666,114.33555555555556,222.33333333333334,114.32825396825397,224.75,114.32095238095239C227.16666666666666,114.31365079365081,229.58333333333334,114.30634920634921,232,114.29904761904763C234.41666666666666,114.29174603174604,236.83333333333334,114.28444444444443,239.25,114.27714285714285C241.66666666666669,114.26984126984125,244.08333333333334,114.26253968253967,246.50000000000003,114.25523809523808C248.91666666666669,114.2479365079365,251.33333333333331,114.24063492063492,253.74999999999997,114.23333333333333C256.16666666666663,114.22603174603175,258.5833333333333,114.21873015873015,261,114.21142857142857C263.4166666666667,114.20412698412699,265.8333333333333,114.19682539682539,268.25,114.1895238095238C270.6666666666667,114.18222222222222,273.0833333333333,114.17492063492062,275.5,114.16761904761904C277.9166666666667,114.16031746031746,280.3333333333333,114.15301587301586,282.75,114.14571428571428C285.1666666666667,114.1384126984127,287.5833333333333,114.13111111111111,290,114.12380952380953C292.4166666666667,114.11650793650794,294.8333333333333,114.10920634920635,297.25,114.10190476190476C299.6666666666667,114.09460317460318,302.0833333333333,114.08730158730158,304.5,114.08C306.9166666666667,114.07269841269841,309.3333333333333,114.06539682539682,311.75,114.05809523809523C314.1666666666667,114.05079365079365,316.5833333333333,114.04349206349205,319,114.03619047619047C321.4166666666667,114.02888888888889,323.8333333333333,114.0215873015873,326.25,114.01428571428572C328.6666666666667,114.00698412698414,331.0833333333333,113.99968253968254,333.5,113.99238095238096C335.9166666666667,113.98507936507937,338.3333333333333,113.97777777777777,340.75,113.97047619047619C343.1666666666667,113.96317460317461,345.5833333333333,113.95587301587301,348,113.94857142857143C350.4166666666667,113.94126984126984,352.8333333333333,113.93396825396826,355.25,113.92666666666668C357.6666666666667,113.9193650793651,360.0833333333333,113.9120634920635,362.5,113.90476190476191C364.9166666666667,113.89746031746033,367.3333333333333,113.89015873015873,369.75,113.88285714285715C372.1666666666667,113.87555555555556,374.5833333333333,113.86825396825397,377,113.86095238095238C379.4166666666667,113.8536507936508,381.8333333333333,113.8463492063492,384.25,113.83904761904762C386.6666666666667,113.83174603174604,389.0833333333333,113.82444444444445,391.5,113.81714285714287C393.9166666666667,113.80984126984129,396.33333333333337,113.80253968253969,398.75000000000006,113.79523809523809C401.16666666666674,113.78793650793651,403.58333333333337,113.78063492063491,406.00000000000006,113.77333333333333C408.4166666666667,113.76603174603174,410.8333333333333,113.75873015873015,413.24999999999994,113.75142857142856C415.66666666666663,113.74412698412698,418.08333333333326,113.7368253968254,420.49999999999994,113.72952380952381C422.91666666666663,113.72222222222223,425.3333333333333,113.71492063492063,427.75,113.70761904761905C430.1666666666667,113.70031746031746,432.5833333333333,113.69301587301587,435,113.68571428571428C437.4166666666667,113.6784126984127,439.8333333333333,113.6711111111111,442.25,113.66380952380952C444.6666666666667,113.65650793650794,447.0833333333333,113.64920634920634,449.5,113.64190476190475C451.9166666666667,113.63460317460317,454.3333333333333,113.62730158730159,456.75,113.62C459.1666666666667,113.61269841269842,461.5833333333333,113.60539682539682,464,113.59809523809524C466.4166666666667,113.59079365079366,468.8333333333333,113.58349206349206,471.25,113.57619047619048C473.6666666666667,113.56888888888889,476.0833333333333,113.5615873015873,478.5,113.55428571428571C480.9166666666667,113.54698412698413,483.33333333333337,113.53968253968253,485.75000000000006,113.53238095238095C488.16666666666674,113.52507936507936,490.58333333333337,113.51777777777778,493.00000000000006,113.5104761904762C495.4166666666667,113.50317460317461,497.8333333333333,113.49587301587302,500.24999999999994,113.48857142857143C502.66666666666663,113.48126984126985,505.08333333333326,113.47396825396825,507.49999999999994,113.46666666666667C509.91666666666663,113.45936507936509,512.3333333333333,113.45206349206349,514.75,113.4447619047619C517.1666666666666,113.43746031746032,519.5833333333334,113.43015873015872,522,113.42285714285714C524.4166666666666,113.41555555555556,526.8333333333334,113.40825396825397,529.25,113.40095238095239C531.6666666666666,113.3936507936508,534.0833333333334,113.38634920634921,536.5,113.37904761904763C538.9166666666666,113.37174603174604,541.3333333333334,113.36444444444444,543.75,113.35714285714286C546.1666666666666,113.34984126984128,548.5833333333334,113.34253968253967,551,113.33523809523808C553.4166666666666,113.3279365079365,555.8333333333334,113.32063492063492,558.25,113.31333333333333C560.6666666666666,113.30603174603175,563.0833333333334,113.29873015873015,565.5,113.29142857142857C567.9166666666666,113.28412698412698,570.3333333333334,113.27682539682539,572.75,113.2695238095238C575.1666666666666,113.26222222222222,577.5833333333334,113.25492063492062,580,113.24761904761904C582.4166666666666,113.24031746031746,584.8333333333334,113.23301587301586,587.25,113.22571428571428C589.6666666666666,113.21841269841269,592.0833333333334,113.21111111111111,594.5,113.20380952380953C596.9166666666666,113.19650793650794,599.3333333333334,113.18920634920634,601.75,113.18190476190476C604.1666666666666,113.17460317460318,606.5833333333334,113.16730158730158,609,113.16C611.4166666666666,113.15269841269841,613.8333333333334,113.14539682539682,616.25,113.13809523809523C618.6666666666666,113.13079365079365,621.0833333333334,113.12349206349207,623.5,113.11619047619048C625.9166666666666,113.1088888888889,628.3333333333334,113.1015873015873,630.75,113.09428571428572C633.1666666666666,113.08698412698413,635.5833333333334,113.07968253968254,638,113.07238095238095C640.4166666666666,113.06507936507937,642.8333333333334,113.05777777777777,645.25,113.05047619047619C647.6666666666666,113.0431746031746,650.0833333333334,113.0431746031746,652.5,113.02857142857142C654.9166666666666,113.01396825396824,657.3333333333334,112.43116883116883,659.75,112.13246753246753C662.1666666666666,111.83376623376623,664.5833333333334,111.53506493506494,667,111.23636363636363C669.4166666666666,110.93766233766233,671.8333333333334,110.63896103896104,674.25,110.34025974025974C676.6666666666666,110.04155844155844,679.0833333333334,109.74285714285715,681.5,109.44415584415584C683.9166666666666,109.14545454545454,686.3333333333334,108.84675324675325,688.75,108.54805194805195C691.1666666666666,108.24935064935065,693.5833333333334,107.95064935064936,696,107.65194805194805C698.4166666666666,107.35324675324675,700.8333333333334,107.05454545454546,703.25,106.75584415584416C705.6666666666666,106.45714285714286,708.0833333333334,106.15844155844157,710.5,105.85974025974026C712.9166666666666,105.56103896103896,715.3333333333334,105.26233766233767,717.75,104.96363636363637C720.1666666666666,104.66493506493507,722.5833333333334,104.36623376623378,725,104.06753246753247C727.4166666666666,103.76883116883117,729.8333333333334,103.47012987012987,732.25,103.17142857142856C734.6666666666666,102.87272727272726,737.0833333333334,102.57402597402597,739.5,102.27532467532467C741.9166666666666,101.97662337662337,744.3333333333334,101.67792207792208,746.75,101.37922077922077C749.1666666666666,101.08051948051947,751.5833333333334,100.78181818181818,754,100.48311688311688C756.4166666666666,100.18441558441558,758.8333333333334,99.88571428571429,761.25,99.58701298701298C763.6666666666666,99.28831168831168,766.0833333333334,98.98961038961039,768.5,98.69090909090909C770.9166666666666,98.39220779220778,773.3333333333334,98.0935064935065,775.75,97.79480519480519C778.1666666666666,97.49610389610389,780.5833333333334,97.19740259740259,783,96.8987012987013C785.4166666666667,96.6,787.8333333333334,96.30129870129872,790.2500000000001,96.00259740259742C792.6666666666667,95.70389610389611,795.0833333333335,95.40519480519481,797.5000000000001,95.1064935064935C799.9166666666667,94.8077922077922,802.3333333333335,94.50909090909092,804.7500000000001,94.21038961038961C807.1666666666667,93.91168831168831,809.5833333333335,93.61298701298702,812.0000000000001,93.31428571428572C814.4166666666667,93.01558441558443,816.8333333333333,92.71688311688312,819.2499999999999,92.41818181818182C821.6666666666665,92.11948051948052,824.0833333333333,91.82077922077922,826.4999999999999,91.52207792207791C828.9166666666665,91.22337662337661,831.3333333333333,90.92467532467532,833.7499999999999,90.62597402597402C836.1666666666665,90.32727272727271,838.5833333333333,90.02857142857141,840.9999999999999,89.72987012987012C843.4166666666666,89.43116883116882,845.8333333333333,89.13246753246754,848.25,88.83376623376624C850.6666666666666,88.53506493506495,853.0833333333334,88.23636363636363,855.5,87.93766233766233C857.9166666666666,87.63896103896103,860.3333333333334,87.34025974025975,862.75,87.04155844155845C865.1666666666666,86.74285714285715,867.5833333333334,86.44415584415584,870,86.14545454545454C872.4166666666666,85.84675324675324,874.8333333333334,85.54805194805196,877.25,85.24935064935066C879.6666666666666,84.95064935064936,882.0833333333334,84.65194805194805,884.5,84.35324675324675C886.9166666666666,84.05454545454545,889.3333333333334,83.75584415584416,891.75,83.45714285714286C894.1666666666666,83.15844155844155,896.5833333333334,82.85974025974025,899,82.56103896103895C901.4166666666666,82.26233766233764,903.8333333333334,81.96363636363635,906.25,81.66493506493507C908.6666666666666,81.36623376623378,911.0833333333334,81.06753246753247,913.5,80.76883116883117C915.9166666666666,80.47012987012987,918.3333333333334,80.17142857142858,920.75,79.87272727272727C923.1666666666666,79.57402597402597,925.5833333333334,79.27532467532467,928,78.97662337662337C930.4166666666666,78.67792207792206,932.8333333333334,78.37922077922079,935.25,78.08051948051948C937.6666666666666,77.78181818181818,940.0833333333334,77.48311688311688,942.5,77.18441558441558C944.9166666666666,76.88571428571427,947.3333333333334,76.587012987013,949.75,76.2883116883117C952.1666666666666,75.98961038961039,954.5833333333334,75.69090909090909,957,75.39220779220778C959.4166666666666,75.09350649350648,961.8333333333334,74.79480519480519,964.25,74.4961038961039C966.6666666666667,74.1974025974026,969.0833333333334,73.89870129870131,971.5000000000001,73.60000000000001C973.9166666666667,73.3012987012987,976.3333333333335,73.0025974025974,978.7500000000001,72.7038961038961C981.1666666666667,72.4051948051948,983.5833333333335,72.10649350649352,986.0000000000001,71.80779220779222C988.4166666666667,71.50909090909092,990.8333333333335,71.21038961038961,993.2500000000001,70.91168831168831C995.6666666666667,70.612987012987,998.0833333333333,70.3142857142857,1000.4999999999999,70.01558441558441C1002.9166666666665,69.71688311688311,1005.3333333333333,69.41818181818181,1007.7499999999999,69.11948051948052C1010.1666666666665,68.82077922077923,1012.5833333333333,68.52207792207794,1014.9999999999999,68.22337662337664C1017.4166666666665,67.92467532467533,1019.8333333333333,67.62597402597403,1022.2499999999999,67.32727272727273C1024.6666666666665,67.02857142857142,1027.0833333333333,66.72987012987014,1029.5,66.43116883116883C1031.9166666666667,66.13246753246753,1034.3333333333333,65.83376623376624,1036.75,65.53506493506494C1039.1666666666667,65.23636363636363,1041.5833333333333,64.93766233766235,1044,64.63896103896104C1046.4166666666667,64.34025974025974,1048.8333333333333,64.04155844155844,1051.25,63.74285714285714C1053.6666666666667,63.444155844155844,1056.0833333333333,63.145454545454555,1058.5,62.84675324675326C1060.9166666666667,62.54805194805196,1063.3333333333333,62.24935064935065,1065.75,61.95064935064935C1068.1666666666667,61.65194805194805,1070.5833333333333,61.35324675324675,1073,61.054545454545455C1075.4166666666667,60.75584415584416,1077.8333333333333,60.45714285714285,1080.25,60.15844155844155C1082.6666666666667,59.859740259740256,1085.0833333333333,59.56103896103897,1087.5,59.26233766233767C1089.9166666666667,58.963636363636375,1092.3333333333333,58.664935064935065,1094.75,58.36623376623376C1097.1666666666667,58.06753246753246,1099.5833333333333,57.76883116883116,1102,57.47012987012987C1104.4166666666667,57.17142857142857,1106.8333333333333,56.87272727272727,1109.25,56.57402597402597C1111.6666666666667,56.275324675324676,1114.0833333333333,55.97662337662338,1116.5,55.677922077922084C1118.9166666666667,55.37922077922079,1121.3333333333333,55.08051948051948,1123.75,54.781818181818174C1126.1666666666667,54.48311688311687,1128.5833333333333,54.184415584415575,1131,53.88571428571428C1133.4166666666667,53.58701298701298,1135.8333333333333,53.288311688311694,1138.25,52.9896103896104C1140.6666666666667,52.6909090909091,1143.0833333333333,52.39220779220779,1145.5,52.09350649350649C1147.9166666666667,51.794805194805186,1150.3333333333333,51.49610389610389,1152.75,51.19740259740259C1155.1666666666667,50.8987012987013,1157.5833333333333,50.6,1160,50.301298701298705C1162.4166666666667,50.00259740259741,1164.8333333333333,49.703896103896106,1167.25,49.40519480519481C1169.6666666666667,49.106493506493514,1172.0833333333333,48.80779220779221,1174.5,48.509090909090915C1176.9166666666667,48.21038961038962,1179.3333333333333,47.911688311688316,1181.75,47.61298701298702C1184.1666666666667,47.314285714285724,1186.5833333333333,47.01558441558443,1189,46.716883116883125C1191.4166666666667,46.41818181818182,1193.8333333333333,46.11948051948052,1196.25,45.820779220779215C1198.6666666666667,45.52207792207791,1201.0833333333333,45.223376623376616,1203.5,44.92467532467532C1205.9166666666667,44.625974025974024,1208.3333333333333,44.32727272727273,1210.75,44.02857142857143C1213.1666666666667,43.729870129870136,1215.5833333333333,43.43116883116882,1218,43.13246753246752C1220.4166666666667,42.83376623376623,1222.8333333333333,42.53506493506494,1225.25,42.23636363636364C1227.6666666666667,41.937662337662346,1230.0833333333333,41.63896103896104,1232.5,41.34025974025975C1234.9166666666667,41.04155844155845,1237.3333333333333,40.74285714285714,1239.75,40.444155844155844C1242.1666666666667,40.14545454545455,1244.5833333333333,39.846753246753245,1247,39.54805194805195C1249.4166666666667,39.24935064935065,1251.8333333333333,38.95064935064935,1254.25,38.651948051948054C1256.6666666666667,38.35324675324676,1259.0833333333333,38.05454545454546,1261.5,37.75584415584416C1263.9166666666667,37.457142857142856,1266.3333333333333,37.158441558441545,1268.75,36.85974025974025C1271.1666666666667,36.56103896103895,1273.5833333333333,36.262337662337664,1276,35.96363636363637C1278.4166666666667,35.66493506493507,1280.8333333333333,35.36623376623376,1283.25,35.067532467532466C1285.6666666666667,34.76883116883117,1288.0833333333333,34.47012987012987,1290.5,34.17142857142857C1292.9166666666667,33.872727272727275,1295.3333333333333,33.57402597402597,1297.75,33.275324675324676C1300.1666666666667,32.97662337662338,1302.5833333333333,32.67792207792208,1305,32.37922077922078C1307.4166666666667,32.080519480519484,1309.8333333333333,31.781818181818178,1312.25,31.48311688311688C1314.6666666666667,31.184415584415586,1317.0833333333333,30.8857142857143,1319.5,30.587012987013C1321.9166666666667,30.2883116883117,1324.3333333333333,29.98961038961039,1326.75,29.69090909090909C1329.1666666666667,29.392207792207792,1331.5833333333333,29.09350649350649,1334,28.794805194805193C1336.4166666666667,28.496103896103897,1338.8333333333333,28.19740259740261,1341.25,27.89870129870131C1343.6666666666667,27.600000000000012,1346.0833333333333,27.301298701298702,1348.5,27.002597402597402C1350.9166666666667,26.703896103896103,1353.3333333333333,26.405194805194803,1355.75,26.106493506493504C1358.1666666666667,25.807792207792204,1360.5833333333333,25.509090909090894,1363,25.210389610389594C1365.4166666666667,24.911688311688295,1367.8333333333333,24.612987012987006,1370.25,24.314285714285713C1372.6666666666667,24.01558441558442,1375.0833333333333,23.716883116883125,1377.5,23.41818181818183C1379.9166666666667,23.119480519480533,1382.3333333333333,22.820779220779233,1384.75,22.522077922077933C1387.1666666666667,22.223376623376634,1389.5833333333333,21.924675324675324,1392,21.625974025974024C1394.4166666666667,21.327272727272724,1396.8333333333333,21.02857142857142,1399.25,20.729870129870125C1401.6666666666667,20.43116883116883,1404.0833333333333,20.132467532467544,1406.5,19.833766233766244C1408.9166666666667,19.535064935064945,1411.3333333333333,19.236363636363635,1413.75,18.937662337662335C1416.1666666666667,18.638961038961035,1418.5833333333333,18.34025974025975,1421,18.04155844155845C1423.4166666666667,17.74285714285715,1425.8333333333333,17.44415584415584,1428.25,17.14545454545454C1430.6666666666667,16.84675324675324,1433.0833333333333,16.548051948051942,1435.5,16.249350649350646C1437.9166666666667,15.95064935064935,1440.3333333333333,15.651948051948061,1442.75,15.353246753246761C1445.1666666666667,15.054545454545462,1447.5833333333333,14.755844155844157,1450,14.457142857142852" fill="transparent" stroke-linecap="round" stroke="#B6509E" stroke-width="2"></path><path class="visx-linepath" d="M0,111.71428571427111C2.4166666666666665,111.71185185184333,4.833333333333334,111.70941798941556,7.25,111.70698412698412C9.666666666666666,111.7045502645527,12.083333333333334,111.7021164021164,14.5,111.69968253968254C16.916666666666668,111.69724867724868,19.333333333333332,111.69481481481482,21.75,111.69238095238096C24.166666666666668,111.6899470899471,26.583333333333332,111.68751322751322,29,111.68507936507936C31.416666666666668,111.6826455026455,33.833333333333336,111.68021164021164,36.25,111.67777777777778C38.666666666666664,111.67534391534392,41.083333333333336,111.67291005291005,43.5,111.6704761904762C45.91666666666667,111.66804232804233,48.333333333333336,111.66560846560846,50.75000000000001,111.6631746031746C53.16666666666667,111.66074074074074,55.583333333333336,111.65830687830689,58,111.65587301587303C60.416666666666664,111.65343915343917,62.833333333333336,111.65100529100529,65.25,111.64857142857143C67.66666666666667,111.64613756613757,70.08333333333333,111.6437037037037,72.5,111.64126984126983C74.91666666666667,111.63883597883597,77.33333333333333,111.63640211640212,79.75,111.63396825396826C82.16666666666667,111.6315343915344,84.58333333333333,111.62910052910053,87,111.62666666666667C89.41666666666667,111.6242328042328,91.83333333333333,111.62179894179894,94.25,111.61936507936508C96.66666666666667,111.61693121693122,99.08333333333334,111.61449735449736,101.50000000000001,111.6120634920635C103.91666666666667,111.60962962962964,106.33333333333334,111.60719576719576,108.75,111.6047619047619C111.16666666666667,111.60232804232804,113.58333333333333,111.59989417989418,116,111.59746031746032C118.41666666666667,111.59502645502646,120.83333333333334,111.59259259259258,123.25000000000001,111.59015873015872C125.66666666666667,111.58772486772486,128.08333333333334,111.58529100529101,130.5,111.58285714285715C132.91666666666666,111.58042328042329,135.33333333333334,111.57798941798941,137.75,111.57555555555555C140.16666666666666,111.57312169312169,142.58333333333334,111.57068783068782,145,111.56825396825396C147.41666666666666,111.5658201058201,149.83333333333334,111.56338624338625,152.25,111.56095238095239C154.66666666666666,111.55851851851853,157.08333333333334,111.55608465608465,159.5,111.55365079365079C161.91666666666666,111.55121693121693,164.33333333333334,111.54878306878307,166.75,111.5463492063492C169.16666666666666,111.54391534391534,171.58333333333334,111.54148148148148,174,111.53904761904762C176.41666666666666,111.53661375661376,178.83333333333334,111.53417989417989,181.25,111.53174603174602C183.66666666666666,111.52931216931216,186.08333333333334,111.5268783068783,188.5,111.52444444444444C190.91666666666666,111.52201058201058,193.33333333333334,111.51957671957672,195.75,111.51714285714286C198.16666666666669,111.514708994709,200.58333333333334,111.51227513227514,203.00000000000003,111.50984126984127C205.41666666666669,111.50740740740741,207.83333333333331,111.50497354497354,210.24999999999997,111.50253968253968C212.66666666666666,111.50010582010582,215.08333333333331,111.49767195767195,217.5,111.4952380952381C219.91666666666666,111.49280423280423,222.33333333333334,111.49037037037037,224.75,111.48793650793651C227.16666666666666,111.48550264550265,229.58333333333334,111.48306878306877,232,111.48063492063491C234.41666666666666,111.47820105820105,236.83333333333334,111.4757671957672,239.25,111.47333333333334C241.66666666666669,111.47089947089948,244.08333333333334,111.4684656084656,246.50000000000003,111.46603174603175C248.91666666666669,111.46359788359788,251.33333333333331,111.46116402116402,253.74999999999997,111.45873015873016C256.16666666666663,111.4562962962963,258.5833333333333,111.45386243386243,261,111.45142857142856C263.4166666666667,111.4489947089947,265.8333333333333,111.44656084656084,268.25,111.44412698412698C270.6666666666667,111.44169312169312,273.0833333333333,111.43925925925926,275.5,111.4368253968254C277.9166666666667,111.43439153439154,280.3333333333333,111.43195767195768,282.75,111.42952380952381C285.1666666666667,111.42708994708995,287.5833333333333,111.42465608465609,290,111.42222222222223C292.4166666666667,111.41978835978837,294.8333333333333,111.4173544973545,297.25,111.41492063492063C299.6666666666667,111.41248677248677,302.0833333333333,111.4100529100529,304.5,111.40761904761904C306.9166666666667,111.40518518518518,309.3333333333333,111.40275132275133,311.75,111.40031746031747C314.1666666666667,111.3978835978836,316.5833333333333,111.39544973544973,319,111.39301587301587C321.4166666666667,111.39058201058201,323.8333333333333,111.38814814814815,326.25,111.38571428571429C328.6666666666667,111.38328042328042,331.0833333333333,111.38084656084656,333.5,111.3784126984127C335.9166666666667,111.37597883597884,338.3333333333333,111.37354497354497,340.75,111.3711111111111C343.1666666666667,111.36867724867724,345.5833333333333,111.36624338624338,348,111.36380952380952C350.4166666666667,111.36137566137566,352.8333333333333,111.3589417989418,355.25,111.35650793650794C357.6666666666667,111.35407407407408,360.0833333333333,111.35164021164022,362.5,111.34920634920636C364.9166666666667,111.3467724867725,367.3333333333333,111.34433862433862,369.75,111.34190476190476C372.1666666666667,111.3394708994709,374.5833333333333,111.33703703703704,377,111.33460317460317C379.4166666666667,111.33216931216931,381.8333333333333,111.32973544973545,384.25,111.32730158730159C386.6666666666667,111.32486772486773,389.0833333333333,111.32243386243385,391.5,111.32C393.9166666666667,111.31756613756613,396.33333333333337,111.31513227513229,398.75000000000006,111.31269841269842C401.16666666666674,111.31026455026456,403.58333333333337,111.30783068783069,406.00000000000006,111.30539682539683C408.4166666666667,111.30296296296297,410.8333333333333,111.30052910052909,413.24999999999994,111.29809523809523C415.66666666666663,111.29566137566137,418.08333333333326,111.29322751322752,420.49999999999994,111.29079365079366C422.91666666666663,111.2883597883598,425.3333333333333,111.28592592592592,427.75,111.28349206349206C430.1666666666667,111.2810582010582,432.5833333333333,111.27862433862434,435,111.27619047619048C437.4166666666667,111.27375661375662,439.8333333333333,111.27132275132274,442.25,111.26888888888888C444.6666666666667,111.26645502645502,447.0833333333333,111.26402116402116,449.5,111.2615873015873C451.9166666666667,111.25915343915344,454.3333333333333,111.25671957671958,456.75,111.25428571428571C459.1666666666667,111.25185185185185,461.5833333333333,111.24941798941798,464,111.24698412698412C466.4166666666667,111.24455026455026,468.8333333333333,111.24211640211641,471.25,111.23968253968255C473.6666666666667,111.23724867724869,476.0833333333333,111.23481481481481,478.5,111.23238095238095C480.9166666666667,111.22994708994709,483.33333333333337,111.22751322751323,485.75000000000006,111.22507936507937C488.16666666666674,111.2226455026455,490.58333333333337,111.22021164021164,493.00000000000006,111.21777777777778C495.4166666666667,111.21534391534392,497.8333333333333,111.21291005291005,500.24999999999994,111.21047619047619C502.66666666666663,111.20804232804232,505.08333333333326,111.20560846560846,507.49999999999994,111.2031746031746C509.91666666666663,111.20074074074074,512.3333333333333,111.19830687830688,514.75,111.19587301587302C517.1666666666666,111.19343915343916,519.5833333333334,111.1910052910053,522,111.18857142857144C524.4166666666666,111.18613756613757,526.8333333333334,111.1837037037037,529.25,111.18126984126984C531.6666666666666,111.17883597883598,534.0833333333334,111.17640211640212,536.5,111.17396825396825C538.9166666666666,111.1715343915344,541.3333333333334,111.16910052910053,543.75,111.16666666666667C546.1666666666666,111.16423280423281,548.5833333333334,111.16179894179893,551,111.15936507936507C553.4166666666666,111.15693121693121,555.8333333333334,111.15449735449735,558.25,111.15206349206349C560.6666666666666,111.14962962962963,563.0833333333334,111.14719576719577,565.5,111.1447619047619C567.9166666666666,111.14232804232805,570.3333333333334,111.13989417989417,572.75,111.13746031746031C575.1666666666666,111.13502645502645,577.5833333333334,111.1325925925926,580,111.13015873015874C582.4166666666666,111.12772486772488,584.8333333333334,111.125291005291,587.25,111.12285714285714C589.6666666666666,111.12042328042328,592.0833333333334,111.11798941798942,594.5,111.11555555555556C596.9166666666666,111.1131216931217,599.3333333333334,111.11068783068782,601.75,111.10825396825396C604.1666666666666,111.1058201058201,606.5833333333334,111.10338624338624,609,111.10095238095238C611.4166666666666,111.09851851851852,613.8333333333334,111.09608465608466,616.25,111.0936507936508C618.6666666666666,111.09121693121693,621.0833333333334,111.08878306878306,623.5,111.0863492063492C625.9166666666666,111.08391534391534,628.3333333333334,111.08148148148149,630.75,111.07904761904763C633.1666666666666,111.07661375661377,635.5833333333334,111.07417989417989,638,111.07174603174603C640.4166666666666,111.06931216931217,642.8333333333334,111.0668783068783,645.25,111.06444444444443C647.6666666666666,111.06201058201057,650.0833333333334,111.06201058201057,652.5,111.05714285714286C654.9166666666666,111.05227513227516,657.3333333333334,110.9077922077922,659.75,110.83311688311687C662.1666666666666,110.75844155844155,664.5833333333334,110.68376623376624,667,110.60909090909091C669.4166666666666,110.53441558441558,671.8333333333334,110.45974025974026,674.25,110.38506493506493C676.6666666666666,110.3103896103896,679.0833333333334,110.2357142857143,681.5,110.16103896103897C683.9166666666666,110.08636363636364,686.3333333333334,110.0116883116883,688.75,109.93701298701298C691.1666666666666,109.86233766233765,693.5833333333334,109.78766233766234,696,109.71298701298701C698.4166666666666,109.63831168831169,700.8333333333334,109.56363636363636,703.25,109.48896103896104C705.6666666666666,109.41428571428571,708.0833333333334,109.3396103896104,710.5,109.26493506493507C712.9166666666666,109.19025974025975,715.3333333333334,109.11558441558442,717.75,109.0409090909091C720.1666666666666,108.96623376623377,722.5833333333334,108.89155844155844,725,108.81688311688312C727.4166666666666,108.7422077922078,729.8333333333334,108.66753246753247,732.25,108.59285714285714C734.6666666666666,108.51818181818182,737.0833333333334,108.4435064935065,739.5,108.36883116883118C741.9166666666666,108.29415584415585,744.3333333333334,108.21948051948053,746.75,108.1448051948052C749.1666666666666,108.07012987012988,751.5833333333334,107.99545454545455,754,107.92077922077922C756.4166666666666,107.8461038961039,758.8333333333334,107.77142857142857,761.25,107.69675324675325C763.6666666666666,107.62207792207792,766.0833333333334,107.5474025974026,768.5,107.47272727272727C770.9166666666666,107.39805194805194,773.3333333333334,107.32337662337663,775.75,107.2487012987013C778.1666666666666,107.17402597402598,780.5833333333334,107.09935064935064,783,107.02467532467531C785.4166666666667,106.94999999999999,787.8333333333334,106.87532467532468,790.2500000000001,106.80064935064935C792.6666666666667,106.72597402597403,795.0833333333335,106.6512987012987,797.5000000000001,106.57662337662337C799.9166666666667,106.50194805194805,802.3333333333335,106.42727272727272,804.7500000000001,106.3525974025974C807.1666666666667,106.27792207792207,809.5833333333335,106.20324675324675,812.0000000000001,106.12857142857142C814.4166666666667,106.0538961038961,816.8333333333333,105.97922077922078,819.2499999999999,105.90454545454546C821.6666666666665,105.82987012987013,824.0833333333333,105.7551948051948,826.4999999999999,105.68051948051948C828.9166666666665,105.60584415584415,831.3333333333333,105.53116883116884,833.7499999999999,105.45649350649352C836.1666666666665,105.38181818181819,838.5833333333333,105.30714285714285,840.9999999999999,105.23246753246752C843.4166666666666,105.1577922077922,845.8333333333333,105.08311688311689,848.25,105.00844155844156C850.6666666666666,104.93376623376624,853.0833333333334,104.85909090909091,855.5,104.78441558441558C857.9166666666666,104.70974025974026,860.3333333333334,104.63506493506495,862.75,104.56038961038962C865.1666666666666,104.4857142857143,867.5833333333334,104.41103896103895,870,104.33636363636363C872.4166666666666,104.2616883116883,874.8333333333334,104.18701298701299,877.25,104.11233766233767C879.6666666666666,104.03766233766234,882.0833333333334,103.96298701298701,884.5,103.88831168831169C886.9166666666666,103.81363636363636,889.3333333333334,103.73896103896105,891.75,103.66428571428573C894.1666666666666,103.5896103896104,896.5833333333334,103.51493506493507,899,103.44025974025975C901.4166666666666,103.36558441558442,903.8333333333334,103.2909090909091,906.25,103.21623376623377C908.6666666666666,103.14155844155844,911.0833333333334,103.06688311688312,913.5,102.9922077922078C915.9166666666666,102.91753246753247,918.3333333333334,102.84285714285714,920.75,102.76818181818182C923.1666666666666,102.69350649350649,925.5833333333334,102.61883116883116,928,102.54415584415584C930.4166666666666,102.46948051948051,932.8333333333334,102.39480519480519,935.25,102.32012987012986C937.6666666666666,102.24545454545454,940.0833333333334,102.17077922077922,942.5,102.0961038961039C944.9166666666666,102.02142857142857,947.3333333333334,101.94675324675325,949.75,101.87207792207792C952.1666666666666,101.7974025974026,954.5833333333334,101.72272727272727,957,101.64805194805194C959.4166666666666,101.57337662337662,961.8333333333334,101.49870129870129,964.25,101.42402597402597C966.6666666666667,101.34935064935064,969.0833333333334,101.27467532467533,971.5000000000001,101.2C973.9166666666667,101.12532467532468,976.3333333333335,101.05064935064935,978.7500000000001,100.97597402597403C981.1666666666667,100.9012987012987,983.5833333333335,100.82662337662337,986.0000000000001,100.75194805194805C988.4166666666667,100.67727272727272,990.8333333333335,100.6025974025974,993.2500000000001,100.52792207792207C995.6666666666667,100.45324675324675,998.0833333333333,100.37857142857143,1000.4999999999999,100.30389610389611C1002.9166666666665,100.22922077922078,1005.3333333333333,100.15454545454546,1007.7499999999999,100.07987012987013C1010.1666666666665,100.0051948051948,1012.5833333333333,99.9305194805195,1014.9999999999999,99.85584415584417C1017.4166666666665,99.78116883116884,1019.8333333333333,99.7064935064935,1022.2499999999999,99.63181818181818C1024.6666666666665,99.55714285714285,1027.0833333333333,99.48246753246754,1029.5,99.40779220779221C1031.9166666666667,99.33311688311689,1034.3333333333333,99.25844155844156,1036.75,99.18376623376624C1039.1666666666667,99.10909090909091,1041.5833333333333,99.0344155844156,1044,98.95974025974027C1046.4166666666667,98.88506493506495,1048.8333333333333,98.8103896103896,1051.25,98.73571428571428C1053.6666666666667,98.66103896103895,1056.0833333333333,98.58636363636364,1058.5,98.51168831168832C1060.9166666666667,98.43701298701299,1063.3333333333333,98.36233766233767,1065.75,98.28766233766234C1068.1666666666667,98.21298701298701,1070.5833333333333,98.13831168831169,1073,98.06363636363636C1075.4166666666667,97.98896103896104,1077.8333333333333,97.91428571428573,1080.25,97.8396103896104C1082.6666666666667,97.76493506493507,1085.0833333333333,97.69025974025973,1087.5,97.61558441558441C1089.9166666666667,97.54090909090908,1092.3333333333333,97.46623376623377,1094.75,97.39155844155844C1097.1666666666667,97.31688311688312,1099.5833333333333,97.24220779220778,1102,97.16753246753245C1104.4166666666667,97.09285714285713,1106.8333333333333,97.01818181818182,1109.25,96.94350649350649C1111.6666666666667,96.86883116883116,1114.0833333333333,96.79415584415584,1116.5,96.71948051948051C1118.9166666666667,96.64480519480519,1121.3333333333333,96.57012987012988,1123.75,96.49545454545455C1126.1666666666667,96.42077922077922,1128.5833333333333,96.3461038961039,1131,96.27142857142857C1133.4166666666667,96.19675324675325,1135.8333333333333,96.12207792207793,1138.25,96.04740259740261C1140.6666666666667,95.97272727272728,1143.0833333333333,95.89805194805194,1145.5,95.82337662337662C1147.9166666666667,95.74870129870129,1150.3333333333333,95.67402597402598,1152.75,95.59935064935065C1155.1666666666667,95.52467532467533,1157.5833333333333,95.45,1160,95.37532467532468C1162.4166666666667,95.30064935064935,1164.8333333333333,95.22597402597403,1167.25,95.1512987012987C1169.6666666666667,95.07662337662337,1172.0833333333333,95.00194805194805,1174.5,94.92727272727272C1176.9166666666667,94.8525974025974,1179.3333333333333,94.77792207792209,1181.75,94.70324675324676C1184.1666666666667,94.62857142857143,1186.5833333333333,94.55389610389611,1189,94.47922077922078C1191.4166666666667,94.40454545454546,1193.8333333333333,94.32987012987014,1196.25,94.25519480519482C1198.6666666666667,94.1805194805195,1201.0833333333333,94.10584415584415,1203.5,94.03116883116883C1205.9166666666667,93.9564935064935,1208.3333333333333,93.88181818181819,1210.75,93.80714285714286C1213.1666666666667,93.73246753246754,1215.5833333333333,93.6577922077922,1218,93.58311688311687C1220.4166666666667,93.50844155844155,1222.8333333333333,93.43376623376624,1225.25,93.35909090909091C1227.6666666666667,93.28441558441558,1230.0833333333333,93.20974025974026,1232.5,93.13506493506493C1234.9166666666667,93.0603896103896,1237.3333333333333,92.9857142857143,1239.75,92.91103896103897C1242.1666666666667,92.83636363636364,1244.5833333333333,92.76168831168832,1247,92.68701298701299C1249.4166666666667,92.61233766233767,1251.8333333333333,92.53766233766234,1254.25,92.46298701298701C1256.6666666666667,92.38831168831169,1259.0833333333333,92.31363636363636,1261.5,92.23896103896104C1263.9166666666667,92.16428571428571,1266.3333333333333,92.08961038961039,1268.75,92.01493506493506C1271.1666666666667,91.94025974025973,1273.5833333333333,91.86558441558441,1276,91.79090909090908C1278.4166666666667,91.71623376623376,1280.8333333333333,91.64155844155843,1283.25,91.5668831168831C1285.6666666666667,91.49220779220778,1288.0833333333333,91.41753246753247,1290.5,91.34285714285714C1292.9166666666667,91.26818181818182,1295.3333333333333,91.19350649350649,1297.75,91.11883116883116C1300.1666666666667,91.04415584415584,1302.5833333333333,90.96948051948053,1305,90.8948051948052C1307.4166666666667,90.82012987012988,1309.8333333333333,90.74545454545455,1312.25,90.67077922077922C1314.6666666666667,90.5961038961039,1317.0833333333333,90.52142857142857,1319.5,90.44675324675325C1321.9166666666667,90.37207792207792,1324.3333333333333,90.2974025974026,1326.75,90.22272727272727C1329.1666666666667,90.14805194805194,1331.5833333333333,90.07337662337663,1334,89.9987012987013C1336.4166666666667,89.92402597402598,1338.8333333333333,89.84935064935065,1341.25,89.77467532467533C1343.6666666666667,89.7,1346.0833333333333,89.62532467532468,1348.5,89.55064935064935C1350.9166666666667,89.47597402597403,1353.3333333333333,89.4012987012987,1355.75,89.32662337662337C1358.1666666666667,89.25194805194805,1360.5833333333333,89.17727272727274,1363,89.10259740259741C1365.4166666666667,89.02792207792209,1367.8333333333333,88.95324675324676,1370.25,88.87857142857143C1372.6666666666667,88.80389610389611,1375.0833333333333,88.7292207792208,1377.5,88.65454545454547C1379.9166666666667,88.57987012987014,1382.3333333333333,88.5051948051948,1384.75,88.43051948051948C1387.1666666666667,88.35584415584415,1389.5833333333333,88.28116883116884,1392,88.20649350649352C1394.4166666666667,88.13181818181819,1396.8333333333333,88.05714285714286,1399.25,87.98246753246754C1401.6666666666667,87.90779220779221,1404.0833333333333,87.83311688311689,1406.5,87.75844155844156C1408.9166666666667,87.68376623376624,1411.3333333333333,87.60909090909091,1413.75,87.53441558441558C1416.1666666666667,87.45974025974026,1418.5833333333333,87.38506493506493,1421,87.3103896103896C1423.4166666666667,87.23571428571428,1425.8333333333333,87.16103896103897,1428.25,87.08636363636364C1430.6666666666667,87.01168831168832,1433.0833333333333,86.93701298701299,1435.5,86.86233766233767C1437.9166666666667,86.78766233766234,1440.3333333333333,86.71298701298701,1442.75,86.63831168831169C1445.1666666666667,86.56363636363636,1447.5833333333333,86.48896103896104,1450,86.41428571428571" fill="transparent" stroke-linecap="round" stroke="#E7C6DF" stroke-width="2"></path><g class="visx-group visx-axis visx-axis-bottom" transform="translate(0, 115)"><g class="visx-group visx-axis-tick" transform="translate(0, 0)"><line class="visx-line" x1="0" y1="0" x2="0" y2="8" fill="transparent" shape-rendering="crispEdges" stroke="#000" stroke-width="0" stroke-linecap="square"></line><svg x="0" y="0" font-size="10" style="overflow:visible"><text transform="" x="0" y="18" fill="#000" font-size="10" text-anchor="middle"><tspan x="0" dy="0em">0%</tspan></text></svg></g><g class="visx-group visx-axis-tick" transform="translate(0, 0)"><line class="visx-line" x1="362.5" y1="0" x2="362.5" y2="8" fill="transparent" shape-rendering="crispEdges" stroke="#000" stroke-width="0" stroke-linecap="square"></line><svg x="0" y="0" font-size="10" style="overflow:visible"><text transform="" x="362.5" y="18" fill="#000" font-size="10" text-anchor="middle"><tspan x="362.5" dy="0em">25%</tspan></text></svg></g><g class="visx-group visx-axis-tick" transform="translate(0, 0)"><line class="visx-line" x1="725" y1="0" x2="725" y2="8" fill="transparent" shape-rendering="crispEdges" stroke="#000" stroke-width="0" stroke-linecap="square"></line><svg x="0" y="0" font-size="10" style="overflow:visible"><text transform="" x="725" y="18" fill="#000" font-size="10" text-anchor="middle"><tspan x="725" dy="0em">50%</tspan></text></svg></g><g class="visx-group visx-axis-tick" transform="translate(0, 0)"><line class="visx-line" x1="1087.5" y1="0" x2="1087.5" y2="8" fill="transparent" shape-rendering="crispEdges" stroke="#000" stroke-width="0" stroke-linecap="square"></line><svg x="0" y="0" font-size="10" style="overflow:visible"><text transform="" x="1087.5" y="18" fill="#000" font-size="10" text-anchor="middle"><tspan x="1087.5" dy="0em">75%</tspan></text></svg></g><g class="visx-group visx-axis-tick" transform="translate(0, 0)"><line class="visx-line" x1="1450" y1="0" x2="1450" y2="8" fill="transparent" shape-rendering="crispEdges" stroke="#000" stroke-width="0" stroke-linecap="square"></line><svg x="0" y="0" font-size="10" style="overflow:visible"><text transform="" x="1450" y="18" fill="#000" font-size="10" text-anchor="middle"><tspan x="1450" dy="0em">100%</tspan></text></svg></g><line class="visx-line visx-axis-line" x1="0.5" y1="0" x2="1450.5" y2="0" fill="transparent" shape-rendering="crispEdges" stroke="#222" stroke-width="0"></line></g><g class="visx-group visx-axis visx-axis-left" transform="translate(0, 0)"><g class="visx-group visx-axis-tick" transform="translate(0, 0)"><line class="visx-line" x1="0" y1="115" x2="-8" y2="115" fill="transparent" shape-rendering="crispEdges" stroke="#222" stroke-width="0" stroke-linecap="square"></line><svg x="-30" y="0" font-size="8" style="overflow:visible"><text transform="" x="-8" y="115" fill="#000" font-size="8" text-anchor="start"><tspan x="-8" dy="0em">0%</tspan></text></svg></g><g class="visx-group visx-axis-tick" transform="translate(0, 0)"><line class="visx-line" x1="0" y1="49.28571428571429" x2="-8" y2="49.28571428571429" fill="transparent" shape-rendering="crispEdges" stroke="#222" stroke-width="0" stroke-linecap="square"></line><svg x="-30" y="0" font-size="8" style="overflow:visible"><text transform="" x="-8" y="49.28571428571429" fill="#000" font-size="8" text-anchor="start"><tspan x="-8" dy="0em">200%</tspan></text></svg></g><line class="visx-line visx-axis-line" x1="0" y1="115.5" x2="0" y2="0.5" fill="transparent" shape-rendering="crispEdges" stroke="#222" stroke-width="0"></line></g><rect class="visx-bar" width="1450" height="115" fill="transparent"></rect><line class="visx-line" x1="652.5" y1="28" x2="652.5" y2="115" fill="transparent" shape-rendering="crispEdges" stroke="#0062D2" stroke-width="1" pointer-events="none" stroke-dasharray="5,2"></line><svg x="0" y="0" font-size="10px" style="overflow:visible"><text transform="" x="652.5" y="20" font-size="10px" fill="#fff" stroke="#fff" stroke-width="0.8em" text-anchor="middle"><tspan x="652.5" dy="0.355em">Optimal 45%</tspan></text></svg><svg x="0" y="0" font-size="10px" style="overflow:visible"><text transform="" x="652.5" y="20" font-size="10px" fill="#62677B" text-anchor="middle"><tspan x="652.5" dy="0.355em">Optimal 45%</tspan></text></svg></g></svg>