<?xml version="1.0"?><svg xmlns="http://www.w3.org/2000/svg" xmlns:xlink= "http://www.w3.org/1999/xlink" style="background: white;" width="1500" height="300"> <g style="color: black; font-size: 13px; font-family: sans-serif; transform: translate(18px, 25px);"><g><circle r="3" cx="-6" cy="-5" style="fill: #1AD4B3" /><text>Borrow APR, variable</text></g><g style="transform: translateX(150px);"><circle r="3" cx="-6" cy="-5" style="fill: #101423" /><text>Borrow APR, stable</text></g></g><g class="visx-group" transform="translate(45, 50)"><g class="visx-group visx-rows" transform="translate(0, 0)"><line class="visx-line" x1="0" y1="155" x2="1425" y2="155" fill="transparent" shape-rendering="crispEdges" stroke="#F2F0F9" stroke-width="1" pointer-events="none"></line><line class="visx-line" x1="0" y1="106.5625" x2="1425" y2="106.5625" fill="transparent" shape-rendering="crispEdges" stroke="#F2F0F9" stroke-width="1" pointer-events="none"></line><line class="visx-line" x1="0" y1="58.125" x2="1425" y2="58.125" fill="transparent" shape-rendering="crispEdges" stroke="#F2F0F9" stroke-width="1" pointer-events="none"></line><line class="visx-line" x1="0" y1="9.6875" x2="1425" y2="9.6875" fill="transparent" shape-rendering="crispEdges" stroke="#F2F0F9" stroke-width="1" pointer-events="none"></line></g><path class="visx-linepath" d="M0,154.99999999984863C2.375,154.97477213532835,4.75,154.9495442708081,7.125,154.92431640625C9.5,154.8990885416919,11.875,154.87386067708334,14.25,154.8486328125C16.625,154.82340494791666,19,154.79817708333334,21.375,154.77294921875C23.75,154.74772135416666,26.125,154.72249348958334,28.5,154.697265625C30.875,154.67203776041666,33.25,154.64680989583334,35.625,154.62158203125C38,154.59635416666666,40.375,154.57112630208334,42.75,154.5458984375C45.125,154.52067057291666,47.50000000000001,154.49544270833334,49.87500000000001,154.47021484375C52.25000000000001,154.44498697916666,54.625,154.41975911458334,57,154.39453125C59.375,154.36930338541666,61.75,154.34407552083334,64.125,154.31884765625C66.5,154.29361979166666,68.875,154.26839192708334,71.25,154.2431640625C73.625,154.21793619791666,76,154.19270833333334,78.375,154.16748046875C80.75,154.14225260416666,83.125,154.11702473958334,85.5,154.091796875C87.875,154.06656901041666,90.25,154.04134114583334,92.625,154.01611328125C95,153.99088541666666,97.37500000000001,153.96565755208334,99.75000000000001,153.9404296875C102.12500000000001,153.91520182291666,104.5,153.88997395833334,106.875,153.86474609375C109.25,153.83951822916666,111.625,153.81429036458334,114,153.7890625C116.375,153.76383463541666,118.75000000000001,153.73860677083334,121.12500000000001,153.71337890625C123.50000000000001,153.68815104166666,125.875,153.66292317708334,128.25,153.6376953125C130.625,153.61246744791666,133,153.58723958333334,135.375,153.56201171875C137.75,153.53678385416666,140.125,153.51155598958334,142.5,153.486328125C144.875,153.46110026041666,147.25,153.43587239583334,149.625,153.41064453125C152,153.38541666666666,154.375,153.36018880208334,156.75,153.3349609375C159.125,153.30973307291666,161.5,153.28450520833334,163.875,153.25927734375C166.25,153.23404947916666,168.625,153.20882161458334,171,153.18359375C173.375,153.15836588541666,175.75,153.13313802083334,178.125,153.10791015625C180.5,153.08268229166666,182.875,153.05745442708334,185.25,153.0322265625C187.625,153.00699869791666,190,152.98177083333334,192.375,152.95654296875C194.75,152.93131510416666,197.12500000000003,152.90608723958334,199.50000000000003,152.880859375C201.875,152.85563151041666,204.25,152.83040364583334,206.62499999999997,152.80517578125C208.99999999999997,152.77994791666666,211.375,152.75472005208334,213.75,152.7294921875C216.125,152.70426432291666,218.5,152.67903645833334,220.875,152.65380859375C223.25,152.62858072916666,225.625,152.60335286458334,228,152.578125C230.375,152.55289713541666,232.75,152.52766927083334,235.125,152.50244140625C237.5,152.47721354166666,239.87500000000003,152.45198567708334,242.25000000000003,152.4267578125C244.625,152.40152994791666,247,152.37630208333334,249.37499999999997,152.35107421875C251.74999999999997,152.32584635416666,254.125,152.30061848958334,256.5,152.275390625C258.875,152.25016276041666,261.25,152.22493489583334,263.625,152.19970703125C266,152.17447916666666,268.375,152.14925130208334,270.75,152.1240234375C273.125,152.09879557291666,275.5,152.07356770833334,277.875,152.04833984375C280.25,152.02311197916666,282.625,151.99788411458334,285,151.97265625C287.375,151.94742838541666,289.75,151.92220052083334,292.125,151.89697265625C294.5,151.87174479166666,296.875,151.84651692708334,299.25,151.8212890625C301.625,151.79606119791666,304,151.77083333333334,306.375,151.74560546875C308.75,151.72037760416666,311.125,151.69514973958334,313.5,151.669921875C315.875,151.64469401041666,318.25,151.61946614583334,320.625,151.59423828125C323,151.56901041666666,325.375,151.54378255208334,327.75,151.5185546875C330.125,151.49332682291666,332.5,151.46809895833334,334.875,151.44287109375C337.25,151.41764322916666,339.625,151.39241536458334,342,151.3671875C344.375,151.34195963541666,346.75,151.31673177083334,349.125,151.29150390625C351.5,151.26627604166666,353.875,151.24104817708334,356.25,151.2158203125C358.625,151.19059244791666,361,151.16536458333334,363.375,151.14013671875C365.75,151.11490885416666,368.125,151.08968098958334,370.5,151.064453125C372.875,151.03922526041666,375.25,151.01399739583334,377.625,150.98876953125C380,150.96354166666666,382.375,150.93831380208334,384.75,150.9130859375C387.125,150.88785807291666,389.50000000000006,150.86263020833334,391.87500000000006,150.83740234375C394.25000000000006,150.81217447916666,396.62500000000006,150.78694661458334,399.00000000000006,150.76171875C401.375,150.73649088541666,403.75,150.71126302083334,406.12499999999994,150.68603515625C408.49999999999994,150.66080729166666,410.87499999999994,150.63557942708334,413.24999999999994,150.6103515625C415.62499999999994,150.58512369791666,418,150.55989583333334,420.375,150.53466796875C422.75,150.50944010416666,425.125,150.48421223958334,427.5,150.458984375C429.875,150.43375651041666,432.25,150.40852864583334,434.625,150.38330078125C437,150.35807291666666,439.375,150.33284505208334,441.75,150.3076171875C444.125,150.28238932291666,446.5,150.25716145833334,448.875,150.23193359375C451.25,150.20670572916666,453.625,150.18147786458334,456,150.15625C458.375,150.13102213541666,460.75,150.10579427083334,463.125,150.08056640625C465.5,150.05533854166666,467.875,150.03011067708334,470.25,150.0048828125C472.625,149.97965494791666,475.00000000000006,149.95442708333334,477.37500000000006,149.92919921875C479.75000000000006,149.90397135416666,482.12500000000006,149.87874348958334,484.50000000000006,149.853515625C486.875,149.82828776041666,489.25,149.80305989583334,491.62499999999994,149.77783203125C493.99999999999994,149.75260416666666,496.37499999999994,149.72737630208334,498.74999999999994,149.7021484375C501.12499999999994,149.67692057291666,503.5,149.65169270833334,505.875,149.62646484375C508.25,149.60123697916666,510.625,149.57600911458334,513,149.55078125C515.375,149.52555338541666,517.75,149.50032552083334,520.125,149.47509765625C522.5,149.44986979166666,524.875,149.42464192708334,527.25,149.3994140625C529.625,149.37418619791666,532,149.34895833333334,534.375,149.32373046875C536.75,149.29850260416666,539.125,149.27327473958334,541.5,149.248046875C543.875,149.22281901041666,546.25,149.19759114583334,548.625,149.17236328125C551,149.14713541666666,553.375,149.12190755208334,555.75,149.0966796875C558.125,149.07145182291666,560.5,149.04622395833334,562.875,149.02099609375C565.25,148.99576822916666,567.625,148.99576822916666,570,148.9453125C572.375,148.89485677083334,574.75,148.22413194444445,577.125,147.86354166666666C579.5,147.50295138888887,581.875,147.14236111111111,584.25,146.78177083333333C586.625,146.42118055555554,589,146.06059027777778,591.375,145.7C593.75,145.3394097222222,596.125,144.9788194444444,598.5,144.61822916666665C600.875,144.2576388888889,603.25,143.89704861111113,605.625,143.53645833333334C608,143.17586805555555,610.375,142.8152777777778,612.75,142.4546875C615.125,142.09409722222222,617.5,141.73350694444446,619.875,141.37291666666667C622.25,141.01232638888888,624.625,140.65173611111112,627,140.29114583333333C629.375,139.93055555555554,631.75,139.56996527777778,634.125,139.209375C636.5,138.8487847222222,638.875,138.48819444444445,641.25,138.12760416666666C643.625,137.76701388888887,646,137.4064236111111,648.375,137.04583333333332C650.75,136.68524305555553,653.125,136.32465277777777,655.5,135.9640625C657.875,135.60347222222225,660.25,135.24288194444446,662.625,134.88229166666667C665,134.52170138888889,667.375,134.16111111111113,669.75,133.80052083333334C672.125,133.43993055555555,674.5,133.0793402777778,676.875,132.71875C679.25,132.3581597222222,681.625,131.99756944444445,684,131.63697916666666C686.375,131.27638888888887,688.75,130.91579861111111,691.125,130.55520833333333C693.5,130.19461805555554,695.875,129.83402777777775,698.25,129.4734375C700.625,129.11284722222223,703,128.75225694444447,705.375,128.39166666666668C707.75,128.0310763888889,710.125,127.6704861111111,712.5,127.30989583333333C714.875,126.94930555555555,717.25,126.58871527777778,719.625,126.228125C722,125.86753472222223,724.375,125.50694444444444,726.75,125.14635416666667C729.125,124.7857638888889,731.5,124.4251736111111,733.875,124.06458333333333C736.25,123.70399305555556,738.625,123.34340277777778,741,122.98281250000001C743.375,122.62222222222223,745.75,122.26163194444445,748.125,121.90104166666667C750.5,121.5404513888889,752.875,121.17986111111112,755.25,120.81927083333335C757.625,120.45868055555557,760,120.09809027777777,762.375,119.7375C764.75,119.37690972222222,767.125,119.01631944444443,769.5,118.65572916666666C771.875,118.29513888888889,774.2500000000001,117.93454861111111,776.6250000000001,117.57395833333334C779.0000000000001,117.21336805555556,781.3750000000001,116.85277777777777,783.7500000000001,116.4921875C786.1250000000001,116.13159722222223,788.5000000000001,115.77100694444445,790.8750000000001,115.41041666666668C793.2500000000001,115.0498263888889,795.6250000000001,114.68923611111111,798.0000000000001,114.32864583333333C800.375,113.96805555555555,802.75,113.60746527777776,805.1249999999999,113.24687499999999C807.4999999999999,112.8862847222222,809.8749999999999,112.52569444444444,812.2499999999999,112.16510416666667C814.6249999999999,111.80451388888889,816.9999999999999,111.4439236111111,819.3749999999999,111.08333333333333C821.7499999999999,110.72274305555555,824.1249999999999,110.36215277777778,826.4999999999999,110.0015625C828.8749999999999,109.64097222222222,831.25,109.28038194444444,833.625,108.91979166666665C836,108.55920138888888,838.375,108.1986111111111,840.75,107.83802083333333C843.125,107.47743055555556,845.5,107.11684027777777,847.875,106.75625C850.25,106.39565972222222,852.625,106.03506944444445,855,105.67447916666667C857.375,105.3138888888889,859.75,104.95329861111111,862.125,104.59270833333333C864.5,104.23211805555556,866.875,103.87152777777779,869.25,103.51093750000001C871.625,103.15034722222224,874,102.78975694444445,876.375,102.42916666666667C878.75,102.0685763888889,881.125,101.70798611111111,883.5,101.34739583333334C885.875,100.98680555555556,888.25,100.62621527777779,890.625,100.26562500000001C893,99.90503472222224,895.375,99.54444444444444,897.75,99.18385416666666C900.125,98.82326388888889,902.5,98.46267361111111,904.875,98.10208333333334C907.25,97.74149305555557,909.625,97.38090277777778,912,97.0203125C914.375,96.65972222222223,916.75,96.29913194444443,919.125,95.93854166666665C921.5,95.57795138888888,923.875,95.2173611111111,926.25,94.85677083333333C928.625,94.49618055555555,931,94.13559027777777,933.375,93.77499999999999C935.75,93.41440972222222,938.125,93.05381944444444,940.5,92.69322916666667C942.875,92.3326388888889,945.25,91.9720486111111,947.625,91.61145833333333C950,91.25086805555556,952.3750000000001,90.89027777777778,954.7500000000001,90.52968750000001C957.1250000000001,90.16909722222223,959.5000000000001,89.80850694444445,961.8750000000001,89.44791666666667C964.2500000000001,89.0873263888889,966.6250000000001,88.72673611111111,969.0000000000001,88.36614583333333C971.3750000000001,88.00555555555556,973.7500000000001,87.6449652777778,976.1250000000001,87.28437500000001C978.5,86.92378472222224,980.875,86.56319444444445,983.2499999999999,86.20260416666667C985.6249999999999,85.84201388888889,987.9999999999999,85.4814236111111,990.3749999999999,85.12083333333332C992.7499999999999,84.76024305555555,995.1249999999999,84.39965277777777,997.4999999999999,84.0390625C999.8749999999999,83.67847222222223,1002.2499999999999,83.31788194444444,1004.6249999999999,82.95729166666666C1006.9999999999999,82.59670138888887,1009.375,82.2361111111111,1011.75,81.87552083333333C1014.125,81.51493055555555,1016.5,81.15434027777778,1018.875,80.79375C1021.25,80.43315972222223,1023.625,80.07256944444444,1026,79.71197916666667C1028.375,79.35138888888889,1030.75,78.99079861111112,1033.125,78.63020833333334C1035.5,78.26961805555557,1037.875,77.90902777777777,1040.25,77.54843749999999C1042.625,77.18784722222222,1045,76.82725694444446,1047.375,76.46666666666668C1049.75,76.10607638888891,1052.125,75.74548611111112,1054.5,75.38489583333333C1056.875,75.02430555555554,1059.25,74.66371527777777,1061.625,74.303125C1064,73.94253472222222,1066.375,73.58194444444445,1068.75,73.22135416666667C1071.125,72.8607638888889,1073.5,72.50017361111111,1075.875,72.13958333333333C1078.25,71.77899305555556,1080.625,71.41840277777777,1083,71.0578125C1085.375,70.69722222222222,1087.75,70.33663194444443,1090.125,69.97604166666666C1092.5,69.61545138888889,1094.875,69.25486111111111,1097.25,68.89427083333334C1099.625,68.53368055555556,1102,68.17309027777779,1104.375,67.8125C1106.75,67.45190972222221,1109.125,67.09131944444442,1111.5,66.73072916666665C1113.875,66.37013888888887,1116.25,66.00954861111111,1118.625,65.64895833333334C1121,65.28836805555557,1123.375,64.92777777777778,1125.75,64.5671875C1128.125,64.20659722222223,1130.5,63.84600694444444,1132.875,63.48541666666666C1135.25,63.12482638888888,1137.625,62.7642361111111,1140,62.40364583333333C1142.375,62.043055555555554,1144.75,61.68246527777777,1147.125,61.321875C1149.5,60.961284722222224,1151.875,60.60069444444444,1154.25,60.24010416666667C1156.625,59.879513888888894,1159,59.51892361111111,1161.375,59.15833333333334C1163.75,58.797743055555564,1166.125,58.43715277777779,1168.5,58.07656250000001C1170.875,57.71597222222223,1173.25,57.355381944444446,1175.625,56.994791666666664C1178,56.63420138888888,1180.375,56.27361111111111,1182.75,55.913020833333334C1185.125,55.55243055555556,1187.5,55.19184027777778,1189.875,54.831250000000004C1192.25,54.47065972222223,1194.625,54.11006944444447,1197,53.74947916666669C1199.375,53.38888888888891,1201.75,53.028298611111104,1204.125,52.66770833333332C1206.5,52.30711805555554,1208.875,51.94652777777778,1211.25,51.58593750000001C1213.625,51.22534722222223,1216,50.86475694444446,1218.375,50.50416666666668C1220.75,50.143576388888896,1223.125,49.7829861111111,1225.5,49.42239583333332C1227.875,49.06180555555554,1230.25,48.70121527777778,1232.625,48.340625C1235,47.98003472222223,1237.375,47.61944444444445,1239.75,47.25885416666667C1242.125,46.8982638888889,1244.5,46.537673611111124,1246.875,46.17708333333334C1249.25,45.81649305555556,1251.625,45.45590277777777,1254,45.09531249999999C1256.375,44.73472222222221,1258.75,44.374131944444436,1261.125,44.01354166666666C1263.5,43.65295138888889,1265.875,43.292361111111106,1268.25,42.93177083333333C1270.625,42.57118055555556,1273,42.21059027777778,1275.375,41.85C1277.75,41.48940972222222,1280.125,41.12881944444443,1282.5,40.76822916666666C1284.875,40.40763888888888,1287.25,40.047048611111116,1289.625,39.68645833333334C1292,39.32586805555557,1294.375,38.96527777777777,1296.75,38.6046875C1299.125,38.24409722222222,1301.5,37.883506944444456,1303.875,37.52291666666668C1306.25,37.16232638888891,1308.625,36.80173611111112,1311,36.44114583333334C1313.375,36.080555555555556,1315.75,35.71996527777777,1318.125,35.359374999999986C1320.5,34.998784722222204,1322.875,34.638194444444444,1325.25,34.27760416666667C1327.625,33.917013888888896,1330,33.5564236111111,1332.375,33.195833333333326C1334.75,32.83524305555555,1337.125,32.474652777777784,1339.5,32.11406250000001C1341.875,31.753472222222232,1344.25,31.392881944444444,1346.625,31.032291666666666C1349,30.671701388888888,1351.375,30.311111111111128,1353.75,29.95052083333335C1356.125,29.589930555555572,1358.5,29.229340277777766,1360.875,28.868749999999988C1363.25,28.50815972222221,1365.625,28.14756944444445,1368,27.786979166666672C1370.375,27.426388888888894,1372.75,27.065798611111106,1375.125,26.705208333333328C1377.5,26.34461805555555,1379.875,25.984027777777786,1382.25,25.623437500000012C1384.625,25.262847222222238,1387,24.90225694444446,1389.375,24.541666666666682C1391.75,24.181076388888904,1394.125,23.820486111111116,1396.5,23.459895833333334C1398.875,23.099305555555553,1401.25,22.738715277777764,1403.625,22.378124999999986C1406,22.01753472222221,1408.375,21.65694444444443,1410.75,21.296354166666656C1413.125,20.935763888888882,1415.5,20.575173611111122,1417.875,20.214583333333344C1420.25,19.853993055555566,1422.625,19.49340277777778,1425,19.132812499999996" fill="transparent" stroke-linecap="round" stroke="#1AD4B3" stroke-width="2"></path><g class="visx-group visx-axis visx-axis-bottom" transform="translate(0, 155)"><g class="visx-group visx-axis-tick" transform="translate(0, 0)"><line class="visx-line" x1="0" y1="0" x2="0" y2="8" fill="transparent" shape-rendering="crispEdges" stroke="#F2F0F9" stroke-width="1" stroke-linecap="square"></line><svg x="0" y="0" font-size="11" style="overflow:visible"><text transform="" x="0" y="19" fill="#1B2030" font-size="11" text-anchor="middle"><tspan x="0" dy="0em">0%</tspan></text></svg></g><g class="visx-group visx-axis-tick" transform="translate(0, 0)"><line class="visx-line" x1="356.25" y1="0" x2="356.25" y2="8" fill="transparent" shape-rendering="crispEdges" stroke="#F2F0F9" stroke-width="1" stroke-linecap="square"></line><svg x="0" y="0" font-size="11" style="overflow:visible"><text transform="" x="356.25" y="19" fill="#1B2030" font-size="11" text-anchor="middle"><tspan x="356.25" dy="0em">25%</tspan></text></svg></g><g class="visx-group visx-axis-tick" transform="translate(0, 0)"><line class="visx-line" x1="712.5" y1="0" x2="712.5" y2="8" fill="transparent" shape-rendering="crispEdges" stroke="#F2F0F9" stroke-width="1" stroke-linecap="square"></line><svg x="0" y="0" font-size="11" style="overflow:visible"><text transform="" x="712.5" y="19" fill="#1B2030" font-size="11" text-anchor="middle"><tspan x="712.5" dy="0em">50%</tspan></text></svg></g><g class="visx-group visx-axis-tick" transform="translate(0, 0)"><line class="visx-line" x1="1068.75" y1="0" x2="1068.75" y2="8" fill="transparent" shape-rendering="crispEdges" stroke="#F2F0F9" stroke-width="1" stroke-linecap="square"></line><svg x="0" y="0" font-size="11" style="overflow:visible"><text transform="" x="1068.75" y="19" fill="#1B2030" font-size="11" text-anchor="middle"><tspan x="1068.75" dy="0em">75%</tspan></text></svg></g><g class="visx-group visx-axis-tick" transform="translate(0, 0)"><line class="visx-line" x1="1425" y1="0" x2="1425" y2="8" fill="transparent" shape-rendering="crispEdges" stroke="#F2F0F9" stroke-width="1" stroke-linecap="square"></line><svg x="0" y="0" font-size="11" style="overflow:visible"><text transform="" x="1425" y="19" fill="#1B2030" font-size="11" text-anchor="middle"><tspan x="1425" dy="0em">100%</tspan></text></svg></g></g><g class="visx-group visx-axis visx-axis-left" transform="translate(0, 0)"><g class="visx-group visx-axis-tick" transform="translate(0, 0)"><line class="visx-line" x1="0" y1="155" x2="-8" y2="155" fill="transparent" shape-rendering="crispEdges" stroke="#F2F0F9" stroke-width="1" stroke-linecap="square"></line><svg x="-30" y="0" font-size="11" style="overflow:visible"><text transform="" x="-8" y="155" fill="#1B2030" font-size="11" text-anchor="start"><tspan x="-8" dy="0em">0%</tspan></text></svg></g><g class="visx-group visx-axis-tick" transform="translate(0, 0)"><line class="visx-line" x1="0" y1="106.5625" x2="-8" y2="106.5625" fill="transparent" shape-rendering="crispEdges" stroke="#F2F0F9" stroke-width="1" stroke-linecap="square"></line><svg x="-30" y="0" font-size="11" style="overflow:visible"><text transform="" x="-8" y="106.5625" fill="#1B2030" font-size="11" text-anchor="start"><tspan x="-8" dy="0em">50%</tspan></text></svg></g><g class="visx-group visx-axis-tick" transform="translate(0, 0)"><line class="visx-line" x1="0" y1="58.125" x2="-8" y2="58.125" fill="transparent" shape-rendering="crispEdges" stroke="#F2F0F9" stroke-width="1" stroke-linecap="square"></line><svg x="-30" y="0" font-size="11" style="overflow:visible"><text transform="" x="-8" y="58.125" fill="#1B2030" font-size="11" text-anchor="start"><tspan x="-8" dy="0em">100%</tspan></text></svg></g><g class="visx-group visx-axis-tick" transform="translate(0, 0)"><line class="visx-line" x1="0" y1="9.6875" x2="-8" y2="9.6875" fill="transparent" shape-rendering="crispEdges" stroke="#F2F0F9" stroke-width="1" stroke-linecap="square"></line><svg x="-30" y="0" font-size="11" style="overflow:visible"><text transform="" x="-8" y="9.6875" fill="#1B2030" font-size="11" text-anchor="start"><tspan x="-8" dy="0em">150%</tspan></text></svg></g><line class="visx-line visx-axis-line" x1="0" y1="155.5" x2="0" y2="0.5" fill="transparent" shape-rendering="crispEdges" stroke="#F2F0F9" stroke-width="1"></line></g><rect class="visx-bar" width="1425" height="155" fill="transparent"></rect><line class="visx-line" x1="570" y1="58" x2="570" y2="155" fill="transparent" shape-rendering="crispEdges" stroke="#CDC8E1" stroke-width="1" pointer-events="none" stroke-dasharray="5"></line><svg x="0" y="0" font-size="11px" style="overflow:visible"><text transform="" x="570" y="50" font-size="11px" fill="#555069" stroke="#FFFFFF" stroke-width="1px" text-anchor="middle"><tspan x="570" dy="0.355em">uOptimal 40%</tspan></text></svg><svg x="0" y="0" font-size="11px" style="overflow:visible"><text transform="" x="570" y="50" font-size="11px" fill="#CDC8E1" text-anchor="middle"><tspan x="570" dy="0.355em">uOptimal 40%</tspan></text></svg></g></svg>