<?xml version="1.0"?><svg xmlns="http://www.w3.org/2000/svg" xmlns:xlink= "http://www.w3.org/1999/xlink" style="background: white;" width="1500" height="300"> <g style="color: black; font-size: 13px; font-family: sans-serif; transform: translate(18px, 25px);"><g><circle r="3" cx="-6" cy="-5" style="fill: #1AD4B3" /><text>Borrow APR, variable</text></g><g style="transform: translateX(150px);"><circle r="3" cx="-6" cy="-5" style="fill: #101423" /><text>Borrow APR, stable</text></g></g><g class="visx-group" transform="translate(45, 50)"><g class="visx-group visx-rows" transform="translate(0, 0)"><line class="visx-line" x1="0" y1="155" x2="1425" y2="155" fill="transparent" shape-rendering="crispEdges" stroke="#F2F0F9" stroke-width="1" pointer-events="none"></line><line class="visx-line" x1="0" y1="106.5625" x2="1425" y2="106.5625" fill="transparent" shape-rendering="crispEdges" stroke="#F2F0F9" stroke-width="1" pointer-events="none"></line><line class="visx-line" x1="0" y1="58.125" x2="1425" y2="58.125" fill="transparent" shape-rendering="crispEdges" stroke="#F2F0F9" stroke-width="1" pointer-events="none"></line><line class="visx-line" x1="0" y1="9.6875" x2="1425" y2="9.6875" fill="transparent" shape-rendering="crispEdges" stroke="#F2F0F9" stroke-width="1" pointer-events="none"></line></g><path class="visx-linepath" d="M0,154.9999999998465C2.375,154.97441681329073,4.75,154.94883362673497,7.125,154.92325044014083C9.5,154.8976672535467,11.875,154.8720840669014,14.25,154.8465008802817C16.625,154.82091769366198,19,154.79533450704224,21.375,154.76975132042253C23.75,154.74416813380282,26.125,154.7185849471831,28.5,154.6930017605634C30.875,154.66741857394368,33.25,154.64183538732394,35.625,154.61625220070422C38,154.5906690140845,40.375,154.56508582746477,42.75,154.53950264084506C45.125,154.51391945422534,47.50000000000001,154.48833626760563,49.87500000000001,154.46275308098592C52.25000000000001,154.4371698943662,54.625,154.4115867077465,57,154.38600352112678C59.375,154.36042033450707,61.75,154.33483714788733,64.125,154.30925396126761C66.5,154.2836707746479,68.875,154.25808758802816,71.25,154.23250440140845C73.625,154.20692121478874,76,154.181338028169,78.375,154.15575484154928C80.75,154.13017165492957,83.125,154.10458846830986,85.5,154.07900528169014C87.875,154.05342209507043,90.25,154.02783890845072,92.625,154.002255721831C95,153.9766725352113,97.37500000000001,153.95108934859155,99.75000000000001,153.92550616197184C102.12500000000001,153.89992297535213,104.5,153.87433978873239,106.875,153.84875660211267C109.25,153.82317341549296,111.625,153.79759022887322,114,153.7720070422535C116.375,153.7464238556338,118.75000000000001,153.72084066901408,121.12500000000001,153.69525748239437C123.50000000000001,153.66967429577466,125.875,153.64409110915494,128.25,153.61850792253523C130.625,153.59292473591552,133,153.56734154929578,135.375,153.54175836267606C137.75,153.51617517605635,140.125,153.4905919894366,142.5,153.4650088028169C144.875,153.43942561619718,147.25,153.41384242957744,149.625,153.38825924295773C152,153.36267605633802,154.375,153.3370928697183,156.75,153.3115096830986C159.125,153.28592649647888,161.5,153.26034330985917,163.875,153.23476012323945C166.25,153.20917693661974,168.625,153.18359375,171,153.1580105633803C173.375,153.13242737676057,175.75,153.10684419014083,178.125,153.08126100352112C180.5,153.0556778169014,182.875,153.0300946302817,185.25,153.00451144366198C187.625,152.97892825704227,190,152.95334507042253,192.375,152.92776188380282C194.75,152.9021786971831,197.12500000000003,152.8765955105634,199.50000000000003,152.85101232394368C201.875,152.82542913732397,204.25,152.79984595070422,206.62499999999997,152.7742627640845C208.99999999999997,152.7486795774648,211.375,152.72309639084506,213.75,152.69751320422534C216.125,152.67193001760563,218.5,152.64634683098592,220.875,152.6207636443662C223.25,152.5951804577465,225.625,152.56959727112675,228,152.54401408450704C230.375,152.51843089788733,232.75,152.4928477112676,235.125,152.46726452464787C237.5,152.44168133802816,239.87500000000003,152.41609815140845,242.25000000000003,152.39051496478874C244.625,152.36493177816902,247,152.33934859154928,249.37499999999997,152.31376540492957C251.74999999999997,152.28818221830986,254.125,152.26259903169014,256.5,152.23701584507043C258.875,152.21143265845072,261.25,152.18584947183098,263.625,152.16026628521126C266,152.13468309859155,268.375,152.1090999119718,270.75,152.0835167253521C273.125,152.05793353873239,275.5,152.03235035211267,277.875,152.00676716549296C280.25,151.98118397887325,282.625,151.9556007922535,285,151.9300176056338C287.375,151.90443441901408,289.75,151.87885123239437,292.125,151.85326804577466C294.5,151.82768485915494,296.875,151.8021016725352,299.25,151.7765184859155C301.625,151.75093529929578,304,151.72535211267603,306.375,151.69976892605632C308.75,151.6741857394366,311.125,151.6486025528169,313.5,151.62301936619718C315.875,151.59743617957747,318.25,151.57185299295773,320.625,151.54626980633802C323,151.5206866197183,325.375,151.4951034330986,327.75,151.46952024647888C330.125,151.44393705985917,332.5,151.41835387323943,334.875,151.3927706866197C337.25,151.3671875,339.625,151.34160431338026,342,151.31602112676055C344.375,151.29043794014083,346.75,151.26485475352112,349.125,151.2392715669014C351.5,151.2136883802817,353.875,151.18810519366198,356.25,151.16252200704227C358.625,151.13693882042256,361,151.11135563380282,363.375,151.0857724471831C365.75,151.0601892605634,368.125,151.03460607394365,370.5,151.00902288732394C372.875,150.98343970070422,375.25,150.95785651408448,377.625,150.93227332746477C380,150.90669014084506,382.375,150.88110695422534,384.75,150.85552376760563C387.125,150.82994058098592,389.50000000000006,150.8043573943662,391.87500000000006,150.7787742077465C394.25000000000006,150.75319102112678,396.62500000000006,150.72760783450704,399.00000000000006,150.70202464788733C401.375,150.67644146126761,403.75,150.65085827464787,406.12499999999994,150.62527508802816C408.49999999999994,150.59969190140845,410.87499999999994,150.5741087147887,413.24999999999994,150.548525528169C415.62499999999994,150.52294234154928,418,150.49735915492957,420.375,150.47177596830986C422.75,150.44619278169014,425.125,150.42060959507043,427.5,150.39502640845072C429.875,150.369443221831,432.25,150.34386003521126,434.625,150.31827684859155C437,150.29269366197184,439.375,150.2671104753521,441.75,150.24152728873239C444.125,150.21594410211267,446.5,150.19036091549293,448.875,150.16477772887322C451.25,150.1391945422535,453.625,150.1136113556338,456,150.08802816901408C458.375,150.06244498239437,460.75,150.03686179577466,463.125,150.01127860915494C465.5,149.98569542253523,467.875,149.9601122359155,470.25,149.93452904929578C472.625,149.90894586267606,475.00000000000006,149.88336267605632,477.37500000000006,149.8577794894366C479.75000000000006,149.8321963028169,482.12500000000006,149.80661311619718,484.50000000000006,149.78102992957747C486.875,149.75544674295776,489.25,149.72986355633802,491.62499999999994,149.7042803697183C493.99999999999994,149.6786971830986,496.37499999999994,149.65311399647888,498.74999999999994,149.62753080985917C501.12499999999994,149.60194762323945,503.5,149.5763644366197,505.875,149.55078125C508.25,149.5251980633803,510.625,149.49961487676055,513,149.47403169014083C515.375,149.44844850352112,517.75,149.4228653169014,520.125,149.3972821302817C522.5,149.37169894366198,524.875,149.34611575704224,527.25,149.32053257042253C529.625,149.29494938380282,532,149.2693661971831,534.375,149.2437830105634C536.75,149.21819982394368,539.125,149.19261663732394,541.5,149.16703345070422C543.875,149.1414502640845,546.25,149.11586707746477,548.625,149.09028389084506C551,149.06470070422534,553.375,149.03911751760563,555.75,149.01353433098592C558.125,148.9879511443662,560.5,148.9623679577465,562.875,148.93678477112678C565.25,148.91120158450707,567.625,148.88561839788733,570,148.86003521126761C572.375,148.8344520246479,574.75,148.80886883802816,577.125,148.78328565140845C579.5,148.75770246478874,581.875,148.732119278169,584.25,148.70653609154928C586.625,148.68095290492957,589,148.65536971830986,591.375,148.62978653169014C593.75,148.60420334507043,596.125,148.57862015845072,598.5,148.553036971831C600.875,148.5274537852113,603.25,148.50187059859155,605.625,148.47628741197184C608,148.45070422535213,610.375,148.42512103873239,612.75,148.39953785211267C615.125,148.37395466549296,617.5,148.34837147887322,619.875,148.3227882922535C622.25,148.2972051056338,624.625,148.27162191901408,627,148.24603873239437C629.375,148.22045554577466,631.75,148.19487235915494,634.125,148.16928917253523C636.5,148.14370598591552,638.875,148.11812279929578,641.25,148.09253961267606C643.625,148.06695642605635,646,148.0413732394366,648.375,148.0157900528169C650.75,147.99020686619718,653.125,147.96462367957744,655.5,147.93904049295773C657.875,147.91345730633802,660.25,147.8878741197183,662.625,147.8622909330986C665,147.83670774647888,667.375,147.81112455985917,669.75,147.78554137323945C672.125,147.75995818661974,674.5,147.734375,676.875,147.7087918133803C679.25,147.68320862676057,681.625,147.65762544014083,684,147.63204225352112C686.375,147.6064590669014,688.75,147.5808758802817,691.125,147.55529269366198C693.5,147.52970950704227,695.875,147.50412632042253,698.25,147.47854313380282C700.625,147.4529599471831,703,147.4273767605634,705.375,147.40179357394368C707.75,147.37621038732397,710.125,147.35062720070422,712.5,147.3250440140845C714.875,147.2994608274648,717.25,147.27387764084506,719.625,147.24829445422534C722,147.22271126760563,724.375,147.19712808098592,726.75,147.1715448943662C729.125,147.1459617077465,731.5,147.12037852112675,733.875,147.09479533450704C736.25,147.06921214788733,738.625,147.0436289612676,741,147.01804577464787C743.375,146.99246258802816,745.75,146.96687940140845,748.125,146.94129621478874C750.5,146.91571302816902,752.875,146.89012984154928,755.25,146.86454665492957C757.625,146.83896346830986,760,146.81338028169014,762.375,146.78779709507043C764.75,146.76221390845072,767.125,146.73663072183098,769.5,146.71104753521126C771.875,146.68546434859155,774.2500000000001,146.65988116197184,776.6250000000001,146.63429797535213C779.0000000000001,146.6087147887324,781.3750000000001,146.58313160211267,783.7500000000001,146.55754841549296C786.1250000000001,146.53196522887325,788.5000000000001,146.5063820422535,790.8750000000001,146.4807988556338C793.2500000000001,146.45521566901408,795.6250000000001,146.42963248239437,798.0000000000001,146.40404929577466C800.375,146.37846610915494,802.75,146.3528829225352,805.1249999999999,146.3272997359155C807.4999999999999,146.30171654929578,809.8749999999999,146.27613336267603,812.2499999999999,146.25055017605632C814.6249999999999,146.2249669894366,816.9999999999999,146.1993838028169,819.3749999999999,146.17380061619718C821.7499999999999,146.14821742957747,824.1249999999999,146.12263424295773,826.4999999999999,146.09705105633802C828.8749999999999,146.0714678697183,831.25,146.0458846830986,833.625,146.02030149647888C836,145.99471830985917,838.375,145.96913512323943,840.75,145.9435519366197C843.125,145.91796875,845.5,145.8923855633803,847.875,145.86680237676057C850.25,145.84121919014086,852.625,145.81563600352112,855,145.7900528169014C857.375,145.7644696302817,859.75,145.73888644366198,862.125,145.71330325704227C864.5,145.68772007042256,866.875,145.66213688380282,869.25,145.6365536971831C871.625,145.6109705105634,874,145.58538732394365,876.375,145.55980413732394C878.75,145.53422095070422,881.125,145.50863776408448,883.5,145.48305457746477C885.875,145.45747139084506,888.25,145.43188820422534,890.625,145.40630501760563C893,145.38072183098592,895.375,145.3551386443662,897.75,145.3295554577465C900.125,145.30397227112678,902.5,145.27838908450704,904.875,145.25280589788733C907.25,145.22722271126761,909.625,145.20163952464787,912,145.17605633802816C914.375,145.15047315140845,916.75,145.1248899647887,919.125,145.099306778169C921.5,145.07372359154928,923.875,145.04814040492957,926.25,145.02255721830986C928.625,144.99697403169014,931,144.97139084507043,933.375,144.94580765845072C935.75,144.920224471831,938.125,144.89464128521126,940.5,144.86905809859155C942.875,144.84347491197184,945.25,144.8178917253521,947.625,144.79230853873239C950,144.76672535211267,952.3750000000001,144.74114216549293,954.7500000000001,144.71555897887322C957.1250000000001,144.6899757922535,959.5000000000001,144.6643926056338,961.8750000000001,144.63880941901408C964.2500000000001,144.61322623239437,966.6250000000001,144.58764304577466,969.0000000000001,144.56205985915494C971.3750000000001,144.53647667253523,973.7500000000001,144.5108934859155,976.1250000000001,144.48531029929578C978.5,144.45972711267606,980.875,144.43414392605632,983.2499999999999,144.4085607394366C985.6249999999999,144.3829775528169,987.9999999999999,144.35739436619718,990.3749999999999,144.33181117957747C992.7499999999999,144.30622799295776,995.1249999999999,144.28064480633802,997.4999999999999,144.2550616197183C999.8749999999999,144.2294784330986,1002.2499999999999,144.20389524647888,1004.6249999999999,144.17831205985917C1006.9999999999999,144.15272887323945,1009.375,144.15272887323945,1011.75,144.1015625C1014.125,144.05039612676055,1016.5,142.60946479885058,1018.875,141.86341594827587C1021.25,141.11736709770116,1023.625,140.37131824712642,1026,139.62526939655172C1028.375,138.879220545977,1030.75,138.1331716954023,1033.125,137.3871228448276C1035.5,136.64107399425288,1037.875,135.89502514367814,1040.25,135.14897629310343C1042.625,134.40292744252872,1045,133.656878591954,1047.375,132.9108297413793C1049.75,132.1647808908046,1052.125,131.41873204022988,1054.5,130.67268318965517C1056.875,129.92663433908046,1059.25,129.18058548850576,1061.625,128.43453663793105C1064,127.68848778735634,1066.375,126.9424389367816,1068.75,126.19639008620689C1071.125,125.45034123563218,1073.5,124.70429238505747,1075.875,123.95824353448276C1078.25,123.21219468390805,1080.625,122.46614583333333,1083,121.72009698275862C1085.375,120.97404813218391,1087.75,120.22799928160919,1090.125,119.48195043103448C1092.5,118.73590158045977,1094.875,117.98985272988506,1097.25,117.24380387931035C1099.625,116.49775502873564,1102,115.7517061781609,1104.375,115.00565732758619C1106.75,114.25960847701148,1109.125,113.51355962643677,1111.5,112.76751077586206C1113.875,112.02146192528735,1116.25,111.27541307471265,1118.625,110.52936422413794C1121,109.78331537356323,1123.375,109.03726652298852,1125.75,108.2912176724138C1128.125,107.54516882183907,1130.5,106.79911997126435,1132.875,106.05307112068964C1135.25,105.30702227011493,1137.625,104.56097341954022,1140,103.81492456896551C1142.375,103.0688757183908,1144.75,102.32282686781609,1147.125,101.57677801724138C1149.5,100.83072916666667,1151.875,100.08468031609196,1154.25,99.33863146551725C1156.625,98.59258261494254,1159,97.8465337643678,1161.375,97.1004849137931C1163.75,96.35443606321839,1166.125,95.60838721264368,1168.5,94.86233836206897C1170.875,94.11628951149426,1173.25,93.37024066091954,1175.625,92.62419181034483C1178,91.87814295977012,1180.375,91.1320941091954,1182.75,90.3860452586207C1185.125,89.63999640804599,1187.5,88.89394755747125,1189.875,88.14789870689654C1192.25,87.40184985632183,1194.625,86.65580100574712,1197,85.90975215517241C1199.375,85.1637033045977,1201.75,84.41765445402298,1204.125,83.67160560344827C1206.5,82.92555675287356,1208.875,82.17950790229885,1211.25,81.43345905172414C1213.625,80.68741020114943,1216,79.94136135057471,1218.375,79.1953125C1220.75,78.44926364942529,1223.125,77.70321479885057,1225.5,76.95716594827586C1227.875,76.21111709770115,1230.25,75.46506824712644,1232.625,74.71901939655173C1235,73.97297054597702,1237.375,73.2269216954023,1239.75,72.48087284482759C1242.125,71.73482399425288,1244.5,70.98877514367815,1246.875,70.24272629310344C1249.25,69.49667744252874,1251.625,68.75062859195403,1254,68.00457974137932C1256.375,67.25853089080461,1258.75,66.51248204022987,1261.125,65.76643318965516C1263.5,65.02038433908045,1265.875,64.27433548850576,1268.25,63.52828663793104C1270.625,62.78223778735633,1273,62.036188936781606,1275.375,61.2901400862069C1277.75,60.54409123563219,1280.125,59.79804238505748,1282.5,59.05199353448276C1284.875,58.305944683908045,1287.25,57.55989583333332,1289.625,56.81384698275861C1292,56.0677981321839,1294.375,55.32174928160919,1296.75,54.575700431034484C1299.125,53.829651580459775,1301.5,53.083602729885065,1303.875,52.337553879310356C1306.25,51.59150502873565,1308.625,50.845456178160916,1311,50.099407327586206C1313.375,49.3533584770115,1315.75,48.60730962643679,1318.125,47.86126077586208C1320.5,47.11521192528737,1322.875,46.36916307471265,1325.25,45.62311422413794C1327.625,44.877065373563234,1330,44.13101652298851,1332.375,43.3849676724138C1334.75,42.63891882183909,1337.125,41.89286997126438,1339.5,41.146821120689665C1341.875,40.40077227011495,1344.25,39.65472341954023,1346.625,38.908674568965516C1349,38.1626257183908,1351.375,37.41657686781608,1353.75,36.670528017241374C1356.125,35.924479166666664,1358.5,35.17843031609195,1360.875,34.43238146551724C1363.25,33.68633261494253,1365.625,32.94028376436781,1368,32.194234913793096C1370.375,31.44818606321838,1372.75,30.702137212643656,1375.125,29.956088362068947C1377.5,29.210039511494237,1379.875,28.463990660919546,1382.25,27.717941810344833C1384.625,26.97189295977012,1387,26.22584410919538,1389.375,25.479795258620666C1391.75,24.733746408045953,1394.125,23.98769755747126,1396.5,23.24164870689655C1398.875,22.495599856321842,1401.25,21.74955100574712,1403.625,21.003502155172406C1406,20.257453304597693,1408.375,19.511404454022983,1410.75,18.765355603448274C1413.125,18.019306752873565,1415.5,17.27325790229886,1417.875,16.527209051724146C1420.25,15.781160201149433,1422.625,15.035111350574715,1425,14.289062499999996" fill="transparent" stroke-linecap="round" stroke="#1AD4B3" stroke-width="2"></path><g class="visx-group visx-axis visx-axis-bottom" transform="translate(0, 155)"><g class="visx-group visx-axis-tick" transform="translate(0, 0)"><line class="visx-line" x1="0" y1="0" x2="0" y2="8" fill="transparent" shape-rendering="crispEdges" stroke="#F2F0F9" stroke-width="1" stroke-linecap="square"></line><svg x="0" y="0" font-size="11" style="overflow:visible"><text transform="" x="0" y="19" fill="#1B2030" font-size="11" text-anchor="middle"><tspan x="0" dy="0em">0%</tspan></text></svg></g><g class="visx-group visx-axis-tick" transform="translate(0, 0)"><line class="visx-line" x1="356.25" y1="0" x2="356.25" y2="8" fill="transparent" shape-rendering="crispEdges" stroke="#F2F0F9" stroke-width="1" stroke-linecap="square"></line><svg x="0" y="0" font-size="11" style="overflow:visible"><text transform="" x="356.25" y="19" fill="#1B2030" font-size="11" text-anchor="middle"><tspan x="356.25" dy="0em">25%</tspan></text></svg></g><g class="visx-group visx-axis-tick" transform="translate(0, 0)"><line class="visx-line" x1="712.5" y1="0" x2="712.5" y2="8" fill="transparent" shape-rendering="crispEdges" stroke="#F2F0F9" stroke-width="1" stroke-linecap="square"></line><svg x="0" y="0" font-size="11" style="overflow:visible"><text transform="" x="712.5" y="19" fill="#1B2030" font-size="11" text-anchor="middle"><tspan x="712.5" dy="0em">50%</tspan></text></svg></g><g class="visx-group visx-axis-tick" transform="translate(0, 0)"><line class="visx-line" x1="1068.75" y1="0" x2="1068.75" y2="8" fill="transparent" shape-rendering="crispEdges" stroke="#F2F0F9" stroke-width="1" stroke-linecap="square"></line><svg x="0" y="0" font-size="11" style="overflow:visible"><text transform="" x="1068.75" y="19" fill="#1B2030" font-size="11" text-anchor="middle"><tspan x="1068.75" dy="0em">75%</tspan></text></svg></g><g class="visx-group visx-axis-tick" transform="translate(0, 0)"><line class="visx-line" x1="1425" y1="0" x2="1425" y2="8" fill="transparent" shape-rendering="crispEdges" stroke="#F2F0F9" stroke-width="1" stroke-linecap="square"></line><svg x="0" y="0" font-size="11" style="overflow:visible"><text transform="" x="1425" y="19" fill="#1B2030" font-size="11" text-anchor="middle"><tspan x="1425" dy="0em">100%</tspan></text></svg></g></g><g class="visx-group visx-axis visx-axis-left" transform="translate(0, 0)"><g class="visx-group visx-axis-tick" transform="translate(0, 0)"><line class="visx-line" x1="0" y1="155" x2="-8" y2="155" fill="transparent" shape-rendering="crispEdges" stroke="#F2F0F9" stroke-width="1" stroke-linecap="square"></line><svg x="-30" y="0" font-size="11" style="overflow:visible"><text transform="" x="-8" y="155" fill="#1B2030" font-size="11" text-anchor="start"><tspan x="-8" dy="0em">0%</tspan></text></svg></g><g class="visx-group visx-axis-tick" transform="translate(0, 0)"><line class="visx-line" x1="0" y1="106.5625" x2="-8" y2="106.5625" fill="transparent" shape-rendering="crispEdges" stroke="#F2F0F9" stroke-width="1" stroke-linecap="square"></line><svg x="-30" y="0" font-size="11" style="overflow:visible"><text transform="" x="-8" y="106.5625" fill="#1B2030" font-size="11" text-anchor="start"><tspan x="-8" dy="0em">50%</tspan></text></svg></g><g class="visx-group visx-axis-tick" transform="translate(0, 0)"><line class="visx-line" x1="0" y1="58.125" x2="-8" y2="58.125" fill="transparent" shape-rendering="crispEdges" stroke="#F2F0F9" stroke-width="1" stroke-linecap="square"></line><svg x="-30" y="0" font-size="11" style="overflow:visible"><text transform="" x="-8" y="58.125" fill="#1B2030" font-size="11" text-anchor="start"><tspan x="-8" dy="0em">100%</tspan></text></svg></g><g class="visx-group visx-axis-tick" transform="translate(0, 0)"><line class="visx-line" x1="0" y1="9.6875" x2="-8" y2="9.6875" fill="transparent" shape-rendering="crispEdges" stroke="#F2F0F9" stroke-width="1" stroke-linecap="square"></line><svg x="-30" y="0" font-size="11" style="overflow:visible"><text transform="" x="-8" y="9.6875" fill="#1B2030" font-size="11" text-anchor="start"><tspan x="-8" dy="0em">150%</tspan></text></svg></g><line class="visx-line visx-axis-line" x1="0" y1="155.5" x2="0" y2="0.5" fill="transparent" shape-rendering="crispEdges" stroke="#F2F0F9" stroke-width="1"></line></g><rect class="visx-bar" width="1425" height="155" fill="transparent"></rect><line class="visx-line" x1="1011.75" y1="58" x2="1011.75" y2="155" fill="transparent" shape-rendering="crispEdges" stroke="#CDC8E1" stroke-width="1" pointer-events="none" stroke-dasharray="5"></line><svg x="0" y="0" font-size="11px" style="overflow:visible"><text transform="" x="1011.75" y="50" font-size="11px" fill="#555069" stroke="#FFFFFF" stroke-width="1px" text-anchor="middle"><tspan x="1011.75" dy="0.355em">uOptimal 71%</tspan></text></svg><svg x="0" y="0" font-size="11px" style="overflow:visible"><text transform="" x="1011.75" y="50" font-size="11px" fill="#CDC8E1" text-anchor="middle"><tspan x="1011.75" dy="0.355em">uOptimal 71%</tspan></text></svg></g></svg>