<?xml version="1.0"?><svg xmlns="http://www.w3.org/2000/svg" xmlns:xlink= "http://www.w3.org/1999/xlink" style="background: white;" width="1500" height="300"> <g style="color: black; font-size: 13px; font-family: sans-serif; transform: translate(18px, 25px);"><g><circle r="3" cx="-6" cy="-5" style="fill: #1AD4B3" /><text>Borrow APR, variable</text></g><g style="transform: translateX(150px);"><circle r="3" cx="-6" cy="-5" style="fill: #101423" /><text>Borrow APR, stable</text></g></g><g class="visx-group" transform="translate(45, 50)"><g class="visx-group visx-rows" transform="translate(0, 0)"><line class="visx-line" x1="0" y1="155" x2="1425" y2="155" fill="transparent" shape-rendering="crispEdges" stroke="#F2F0F9" stroke-width="1" pointer-events="none"></line><line class="visx-line" x1="0" y1="106.5625" x2="1425" y2="106.5625" fill="transparent" shape-rendering="crispEdges" stroke="#F2F0F9" stroke-width="1" pointer-events="none"></line><line class="visx-line" x1="0" y1="58.125" x2="1425" y2="58.125" fill="transparent" shape-rendering="crispEdges" stroke="#F2F0F9" stroke-width="1" pointer-events="none"></line><line class="visx-line" x1="0" y1="9.6875" x2="1425" y2="9.6875" fill="transparent" shape-rendering="crispEdges" stroke="#F2F0F9" stroke-width="1" pointer-events="none"></line></g><path class="visx-linepath" d="M0,154.99999999983348C2.375,154.9722493488612,4.75,154.94449869788892,7.125,154.916748046875C9.5,154.88899739586108,11.875,154.86124674479166,14.25,154.83349609375C16.625,154.80574544270834,19,154.77799479166666,21.375,154.750244140625C23.75,154.72249348958334,26.125,154.69474283854166,28.5,154.6669921875C30.875,154.63924153645834,33.25,154.61149088541666,35.625,154.583740234375C38,154.55598958333334,40.375,154.52823893229166,42.75,154.50048828125C45.125,154.47273763020834,47.50000000000001,154.44498697916666,49.87500000000001,154.417236328125C52.25000000000001,154.38948567708334,54.625,154.36173502604166,57,154.333984375C59.375,154.30623372395834,61.75,154.27848307291666,64.125,154.250732421875C66.5,154.22298177083334,68.875,154.19523111979166,71.25,154.16748046875C73.625,154.13972981770834,76,154.11197916666666,78.375,154.084228515625C80.75,154.05647786458334,83.125,154.02872721354166,85.5,154.0009765625C87.875,153.97322591145834,90.25,153.94547526041666,92.625,153.917724609375C95,153.88997395833334,97.37500000000001,153.86222330729166,99.75000000000001,153.83447265625C102.12500000000001,153.80672200520834,104.5,153.77897135416666,106.875,153.751220703125C109.25,153.72347005208334,111.625,153.69571940104166,114,153.66796875C116.375,153.64021809895834,118.75000000000001,153.61246744791666,121.12500000000001,153.584716796875C123.50000000000001,153.55696614583334,125.875,153.52921549479166,128.25,153.50146484375C130.625,153.47371419270834,133,153.44596354166666,135.375,153.418212890625C137.75,153.39046223958334,140.125,153.36271158854166,142.5,153.3349609375C144.875,153.30721028645834,147.25,153.27945963541666,149.625,153.251708984375C152,153.22395833333334,154.375,153.19620768229166,156.75,153.16845703125C159.125,153.14070638020834,161.5,153.11295572916666,163.875,153.085205078125C166.25,153.05745442708334,168.625,153.02970377604166,171,153.001953125C173.375,152.97420247395834,175.75,152.94645182291666,178.125,152.918701171875C180.5,152.89095052083334,182.875,152.86319986979166,185.25,152.83544921875C187.625,152.80769856770834,190,152.77994791666666,192.375,152.752197265625C194.75,152.72444661458334,197.12500000000003,152.69669596354166,199.50000000000003,152.6689453125C201.875,152.64119466145834,204.25,152.61344401041666,206.62499999999997,152.585693359375C208.99999999999997,152.55794270833334,211.375,152.53019205729166,213.75,152.50244140625C216.125,152.47469075520834,218.5,152.44694010416666,220.875,152.419189453125C223.25,152.39143880208334,225.625,152.36368815104166,228,152.3359375C230.375,152.30818684895834,232.75,152.28043619791666,235.125,152.252685546875C237.5,152.22493489583334,239.87500000000003,152.19718424479166,242.25000000000003,152.16943359375C244.625,152.14168294270834,247,152.11393229166666,249.37499999999997,152.086181640625C251.74999999999997,152.05843098958334,254.125,152.03068033854166,256.5,152.0029296875C258.875,151.97517903645834,261.25,151.94742838541666,263.625,151.919677734375C266,151.89192708333334,268.375,151.86417643229166,270.75,151.83642578125C273.125,151.80867513020834,275.5,151.78092447916666,277.875,151.753173828125C280.25,151.72542317708334,282.625,151.69767252604166,285,151.669921875C287.375,151.64217122395834,289.75,151.61442057291666,292.125,151.586669921875C294.5,151.55891927083334,296.875,151.53116861979166,299.25,151.50341796875C301.625,151.47566731770834,304,151.44791666666666,306.375,151.420166015625C308.75,151.39241536458334,311.125,151.36466471354166,313.5,151.3369140625C315.875,151.30916341145834,318.25,151.28141276041666,320.625,151.253662109375C323,151.22591145833334,325.375,151.19816080729166,327.75,151.17041015625C330.125,151.14265950520834,332.5,151.11490885416666,334.875,151.087158203125C337.25,151.05940755208334,339.625,151.03165690104166,342,151.00390625C344.375,150.97615559895834,346.75,150.94840494791666,349.125,150.920654296875C351.5,150.89290364583334,353.875,150.86515299479166,356.25,150.83740234375C358.625,150.80965169270834,361,150.78190104166666,363.375,150.754150390625C365.75,150.72639973958334,368.125,150.69864908854166,370.5,150.6708984375C372.875,150.64314778645834,375.25,150.61539713541666,377.625,150.587646484375C380,150.55989583333334,382.375,150.53214518229166,384.75,150.50439453125C387.125,150.47664388020834,389.50000000000006,150.44889322916666,391.87500000000006,150.421142578125C394.25000000000006,150.39339192708334,396.62500000000006,150.36564127604166,399.00000000000006,150.337890625C401.375,150.31013997395834,403.75,150.28238932291666,406.12499999999994,150.254638671875C408.49999999999994,150.22688802083334,410.87499999999994,150.19913736979166,413.24999999999994,150.17138671875C415.62499999999994,150.14363606770834,418,150.11588541666666,420.375,150.088134765625C422.75,150.06038411458334,425.125,150.03263346354166,427.5,150.0048828125C429.875,149.97713216145834,432.25,149.94938151041666,434.625,149.921630859375C437,149.89388020833334,439.375,149.86612955729166,441.75,149.83837890625C444.125,149.81062825520834,446.5,149.78287760416666,448.875,149.755126953125C451.25,149.72737630208334,453.625,149.69962565104166,456,149.671875C458.375,149.64412434895834,460.75,149.61637369791666,463.125,149.588623046875C465.5,149.56087239583334,467.875,149.53312174479166,470.25,149.50537109375C472.625,149.47762044270834,475.00000000000006,149.44986979166666,477.37500000000006,149.422119140625C479.75000000000006,149.39436848958334,482.12500000000006,149.36661783854166,484.50000000000006,149.3388671875C486.875,149.31111653645834,489.25,149.28336588541666,491.62499999999994,149.255615234375C493.99999999999994,149.22786458333334,496.37499999999994,149.20011393229166,498.74999999999994,149.17236328125C501.12499999999994,149.14461263020834,503.5,149.11686197916666,505.875,149.089111328125C508.25,149.06136067708334,510.625,149.03361002604166,513,149.005859375C515.375,148.97810872395834,517.75,148.95035807291666,520.125,148.922607421875C522.5,148.89485677083334,524.875,148.86710611979166,527.25,148.83935546875C529.625,148.81160481770834,532,148.78385416666666,534.375,148.756103515625C536.75,148.72835286458334,539.125,148.70060221354166,541.5,148.6728515625C543.875,148.64510091145834,546.25,148.61735026041666,548.625,148.589599609375C551,148.56184895833334,553.375,148.53409830729166,555.75,148.50634765625C558.125,148.47859700520834,560.5,148.45084635416666,562.875,148.423095703125C565.25,148.39534505208334,567.625,148.36759440104166,570,148.33984375C572.375,148.31209309895834,574.75,148.28434244791666,577.125,148.256591796875C579.5,148.22884114583334,581.875,148.20109049479166,584.25,148.17333984375C586.625,148.14558919270834,589,148.11783854166666,591.375,148.090087890625C593.75,148.06233723958334,596.125,148.03458658854166,598.5,148.0068359375C600.875,147.97908528645834,603.25,147.95133463541666,605.625,147.923583984375C608,147.89583333333334,610.375,147.86808268229166,612.75,147.84033203125C615.125,147.81258138020834,617.5,147.78483072916666,619.875,147.757080078125C622.25,147.72932942708334,624.625,147.70157877604166,627,147.673828125C629.375,147.64607747395834,631.75,147.61832682291666,634.125,147.590576171875C636.5,147.56282552083334,638.875,147.53507486979166,641.25,147.50732421875C643.625,147.47957356770834,646,147.45182291666666,648.375,147.424072265625C650.75,147.39632161458334,653.125,147.36857096354166,655.5,147.3408203125C657.875,147.31306966145834,660.25,147.28531901041666,662.625,147.257568359375C665,147.22981770833334,667.375,147.20206705729166,669.75,147.17431640625C672.125,147.14656575520834,674.5,147.11881510416666,676.875,147.091064453125C679.25,147.06331380208334,681.625,147.06331380208334,684,147.0078125C686.375,146.95231119791666,688.75,146.1756810897436,691.125,145.7596153846154C693.5,145.34354967948718,695.875,144.92748397435898,698.25,144.51141826923077C700.625,144.09535256410257,703,143.67928685897436,705.375,143.26322115384616C707.75,142.84715544871796,710.125,142.43108974358975,712.5,142.01502403846155C714.875,141.59895833333334,717.25,141.18289262820514,719.625,140.76682692307693C722,140.35076121794873,724.375,139.9346955128205,726.75,139.5186298076923C729.125,139.1025641025641,731.5,138.68649839743588,733.875,138.27043269230768C736.25,137.85436698717947,738.625,137.4383012820513,741,137.0222355769231C743.375,136.6061698717949,745.75,136.19010416666666,748.125,135.77403846153845C750.5,135.35797275641025,752.875,134.94190705128204,755.25,134.52584134615384C757.625,134.10977564102564,760,133.69370993589743,762.375,133.27764423076923C764.75,132.86157852564102,767.125,132.44551282051282,769.5,132.0294471153846C771.875,131.6133814102564,774.2500000000001,131.1973157051282,776.6250000000001,130.78125C779.0000000000001,130.3651842948718,781.3750000000001,129.9491185897436,783.7500000000001,129.5330528846154C786.1250000000001,129.11698717948718,788.5000000000001,128.70092147435898,790.8750000000001,128.28485576923077C793.2500000000001,127.86879006410257,795.6250000000001,127.45272435897438,798.0000000000001,127.03665865384616C800.375,126.62059294871796,802.75,126.20452724358974,805.1249999999999,125.78846153846153C807.4999999999999,125.37239583333331,809.8749999999999,124.95633012820512,812.2499999999999,124.54026442307692C814.6249999999999,124.12419871794872,816.9999999999999,123.70813301282051,819.3749999999999,123.2920673076923C821.7499999999999,122.8760016025641,824.1249999999999,122.45993589743591,826.4999999999999,122.04387019230771C828.8749999999999,121.6278044871795,831.25,121.2117387820513,833.625,120.79567307692308C836,120.37960737179488,838.375,119.96354166666666,840.75,119.54747596153845C843.125,119.13141025641025,845.5,118.71534455128206,847.875,118.29927884615385C850.25,117.88321314102565,852.625,117.46714743589745,855,117.05108173076924C857.375,116.63501602564104,859.75,116.21895032051282,862.125,115.80288461538461C864.5,115.38681891025641,866.875,114.9707532051282,869.25,114.5546875C871.625,114.1386217948718,874,113.72255608974359,876.375,113.30649038461539C878.75,112.89042467948718,881.125,112.47435897435898,883.5,112.05829326923077C885.875,111.64222756410257,888.25,111.22616185897436,890.625,110.81009615384616C893,110.39403044871796,895.375,109.97796474358974,897.75,109.56189903846153C900.125,109.14583333333333,902.5,108.72976762820512,904.875,108.31370192307692C907.25,107.89763621794872,909.625,107.48157051282053,912,107.06550480769232C914.375,106.64943910256412,916.75,106.2333733974359,919.125,105.8173076923077C921.5,105.40124198717949,923.875,104.98517628205127,926.25,104.56911057692307C928.625,104.15304487179486,931,103.73697916666667,933.375,103.32091346153847C935.75,102.90484775641026,938.125,102.48878205128206,940.5,102.07271634615385C942.875,101.65665064102565,945.25,101.24058493589745,947.625,100.82451923076924C950,100.40845352564104,952.3750000000001,99.99238782051282,954.7500000000001,99.57632211538461C957.1250000000001,99.16025641025641,959.5000000000001,98.7441907051282,961.8750000000001,98.328125C964.2500000000001,97.9120592948718,966.6250000000001,97.4959935897436,969.0000000000001,97.0799278846154C971.3750000000001,96.6638621794872,973.7500000000001,96.24779647435899,976.1250000000001,95.83173076923077C978.5,95.41566506410257,980.875,94.99959935897435,983.2499999999999,94.58353365384615C985.6249999999999,94.16746794871794,987.9999999999999,93.75140224358975,990.3749999999999,93.33533653846155C992.7499999999999,92.91927083333334,995.1249999999999,92.50320512820512,997.4999999999999,92.08713942307692C999.8749999999999,91.67107371794872,1002.2499999999999,91.25500801282051,1004.6249999999999,90.8389423076923C1006.9999999999999,90.4228766025641,1009.375,90.00681089743591,1011.75,89.59074519230771C1014.125,89.1746794871795,1016.5,88.75861378205128,1018.875,88.34254807692308C1021.25,87.92648237179488,1023.625,87.51041666666669,1026,87.09435096153848C1028.375,86.67828525641028,1030.75,86.26221955128206,1033.125,85.84615384615385C1035.5,85.43008814102565,1037.875,85.01402243589743,1040.25,84.59795673076923C1042.625,84.18189102564102,1045,83.76582532051283,1047.375,83.34975961538463C1049.75,82.93369391025642,1052.125,82.5176282051282,1054.5,82.1015625C1056.875,81.6854967948718,1059.25,81.26943108974359,1061.625,80.85336538461539C1064,80.43729967948718,1066.375,80.02123397435896,1068.75,79.60516826923076C1071.125,79.18910256410255,1073.5,78.77303685897435,1075.875,78.35697115384615C1078.25,77.94090544871794,1080.625,77.52483974358974,1083,77.10877403846153C1085.375,76.69270833333333,1087.75,76.27664262820514,1090.125,75.86057692307693C1092.5,75.44451121794873,1094.875,75.02844551282051,1097.25,74.6123798076923C1099.625,74.1963141025641,1102,73.78024839743588,1104.375,73.36418269230768C1106.75,72.94811698717947,1109.125,72.53205128205128,1111.5,72.11598557692308C1113.875,71.69991987179488,1116.25,71.28385416666666,1118.625,70.86778846153845C1121,70.45172275641025,1123.375,70.03565705128204,1125.75,69.61959134615384C1128.125,69.20352564102564,1130.5,68.78745993589743,1132.875,68.37139423076923C1135.25,67.95532852564102,1137.625,67.53926282051282,1140,67.12319711538461C1142.375,66.70713141025641,1144.75,66.2910657051282,1147.125,65.875C1149.5,65.4589342948718,1151.875,65.04286858974359,1154.25,64.62680288461539C1156.625,64.21073717948718,1159,63.794671474358964,1161.375,63.37860576923076C1163.75,62.962540064102555,1166.125,62.54647435897436,1168.5,62.13040865384615C1170.875,61.71434294871795,1173.25,61.29827724358973,1175.625,60.882211538461526C1178,60.46614583333332,1180.375,60.050080128205124,1182.75,59.63401442307692C1185.125,59.217948717948715,1187.5,58.801883012820504,1189.875,58.3858173076923C1192.25,57.969751602564095,1194.625,57.55368589743591,1197,57.13762019230771C1199.375,56.7215544871795,1201.75,56.3054887820513,1204.125,55.88942307692309C1206.5,55.473357371794876,1208.875,55.057291666666664,1211.25,54.64122596153846C1213.625,54.225160256410255,1216,53.80909455128206,1218.375,53.393028846153854C1220.75,52.97696314102565,1223.125,52.56089743589744,1225.5,52.14483173076923C1227.875,51.72876602564103,1230.25,51.31270032051283,1232.625,50.89663461538463C1235,50.48056891025642,1237.375,50.06450320512822,1239.75,49.648437500000014C1242.125,49.23237179487181,1244.5,48.8163060897436,1246.875,48.400240384615394C1249.25,47.98417467948719,1251.625,47.56810897435899,1254,47.15204326923079C1256.375,46.73597756410258,1258.75,46.31991185897437,1261.125,45.90384615384616C1263.5,45.48778044871795,1265.875,45.071714743589745,1268.25,44.65564903846154C1270.625,44.239583333333336,1273,43.82351762820514,1275.375,43.407451923076934C1277.75,42.99138621794873,1280.125,42.57532051282051,1282.5,42.15925480769231C1284.875,41.7431891025641,1287.25,41.327123397435905,1289.625,40.9110576923077C1292,40.494991987179496,1294.375,40.0789262820513,1296.75,39.662860576923094C1299.125,39.24679487179489,1301.5,38.83072916666668,1303.875,38.414663461538474C1306.25,37.99859775641027,1308.625,37.58253205128207,1311,37.16646634615387C1313.375,36.750400641025664,1315.75,36.33433493589745,1318.125,35.91826923076924C1320.5,35.50220352564103,1322.875,35.086137820512825,1325.25,34.67007211538462C1327.625,34.254006410256416,1330,33.83794070512821,1332.375,33.42187500000001C1334.75,33.0058092948718,1337.125,32.58974358974359,1339.5,32.17367788461539C1341.875,31.757612179487182,1344.25,31.341546474358985,1346.625,30.92548076923078C1349,30.509415064102576,1351.375,30.093349358974365,1353.75,29.677283653846157C1356.125,29.26121794871795,1358.5,28.84515224358974,1360.875,28.429086538461533C1363.25,28.013020833333325,1365.625,27.596955128205117,1368,27.18088942307691C1370.375,26.7648237179487,1372.75,26.34875801282049,1375.125,25.932692307692285C1377.5,25.51662660256408,1379.875,25.100560897435898,1382.25,24.684495192307693C1384.625,24.26842948717949,1387,23.852363782051277,1389.375,23.43629807692307C1391.75,23.02023237179486,1394.125,22.60416666666665,1396.5,22.188100961538446C1398.875,21.77203525641024,1401.25,21.355969551282044,1403.625,20.93990384615384C1406,20.523838141025635,1408.375,20.107772435897424,1410.75,19.691706730769216C1413.125,19.275641025641008,1415.5,18.859575320512793,1417.875,18.443509615384592C1420.25,18.02744391025639,1422.625,17.611378205128197,1425,17.195312500000004" fill="transparent" stroke-linecap="round" stroke="#1AD4B3" stroke-width="2"></path><g class="visx-group visx-axis visx-axis-bottom" transform="translate(0, 155)"><g class="visx-group visx-axis-tick" transform="translate(0, 0)"><line class="visx-line" x1="0" y1="0" x2="0" y2="8" fill="transparent" shape-rendering="crispEdges" stroke="#F2F0F9" stroke-width="1" stroke-linecap="square"></line><svg x="0" y="0" font-size="11" style="overflow:visible"><text transform="" x="0" y="19" fill="#1B2030" font-size="11" text-anchor="middle"><tspan x="0" dy="0em">0%</tspan></text></svg></g><g class="visx-group visx-axis-tick" transform="translate(0, 0)"><line class="visx-line" x1="356.25" y1="0" x2="356.25" y2="8" fill="transparent" shape-rendering="crispEdges" stroke="#F2F0F9" stroke-width="1" stroke-linecap="square"></line><svg x="0" y="0" font-size="11" style="overflow:visible"><text transform="" x="356.25" y="19" fill="#1B2030" font-size="11" text-anchor="middle"><tspan x="356.25" dy="0em">25%</tspan></text></svg></g><g class="visx-group visx-axis-tick" transform="translate(0, 0)"><line class="visx-line" x1="712.5" y1="0" x2="712.5" y2="8" fill="transparent" shape-rendering="crispEdges" stroke="#F2F0F9" stroke-width="1" stroke-linecap="square"></line><svg x="0" y="0" font-size="11" style="overflow:visible"><text transform="" x="712.5" y="19" fill="#1B2030" font-size="11" text-anchor="middle"><tspan x="712.5" dy="0em">50%</tspan></text></svg></g><g class="visx-group visx-axis-tick" transform="translate(0, 0)"><line class="visx-line" x1="1068.75" y1="0" x2="1068.75" y2="8" fill="transparent" shape-rendering="crispEdges" stroke="#F2F0F9" stroke-width="1" stroke-linecap="square"></line><svg x="0" y="0" font-size="11" style="overflow:visible"><text transform="" x="1068.75" y="19" fill="#1B2030" font-size="11" text-anchor="middle"><tspan x="1068.75" dy="0em">75%</tspan></text></svg></g><g class="visx-group visx-axis-tick" transform="translate(0, 0)"><line class="visx-line" x1="1425" y1="0" x2="1425" y2="8" fill="transparent" shape-rendering="crispEdges" stroke="#F2F0F9" stroke-width="1" stroke-linecap="square"></line><svg x="0" y="0" font-size="11" style="overflow:visible"><text transform="" x="1425" y="19" fill="#1B2030" font-size="11" text-anchor="middle"><tspan x="1425" dy="0em">100%</tspan></text></svg></g></g><g class="visx-group visx-axis visx-axis-left" transform="translate(0, 0)"><g class="visx-group visx-axis-tick" transform="translate(0, 0)"><line class="visx-line" x1="0" y1="155" x2="-8" y2="155" fill="transparent" shape-rendering="crispEdges" stroke="#F2F0F9" stroke-width="1" stroke-linecap="square"></line><svg x="-30" y="0" font-size="11" style="overflow:visible"><text transform="" x="-8" y="155" fill="#1B2030" font-size="11" text-anchor="start"><tspan x="-8" dy="0em">0%</tspan></text></svg></g><g class="visx-group visx-axis-tick" transform="translate(0, 0)"><line class="visx-line" x1="0" y1="106.5625" x2="-8" y2="106.5625" fill="transparent" shape-rendering="crispEdges" stroke="#F2F0F9" stroke-width="1" stroke-linecap="square"></line><svg x="-30" y="0" font-size="11" style="overflow:visible"><text transform="" x="-8" y="106.5625" fill="#1B2030" font-size="11" text-anchor="start"><tspan x="-8" dy="0em">50%</tspan></text></svg></g><g class="visx-group visx-axis-tick" transform="translate(0, 0)"><line class="visx-line" x1="0" y1="58.125" x2="-8" y2="58.125" fill="transparent" shape-rendering="crispEdges" stroke="#F2F0F9" stroke-width="1" stroke-linecap="square"></line><svg x="-30" y="0" font-size="11" style="overflow:visible"><text transform="" x="-8" y="58.125" fill="#1B2030" font-size="11" text-anchor="start"><tspan x="-8" dy="0em">100%</tspan></text></svg></g><g class="visx-group visx-axis-tick" transform="translate(0, 0)"><line class="visx-line" x1="0" y1="9.6875" x2="-8" y2="9.6875" fill="transparent" shape-rendering="crispEdges" stroke="#F2F0F9" stroke-width="1" stroke-linecap="square"></line><svg x="-30" y="0" font-size="11" style="overflow:visible"><text transform="" x="-8" y="9.6875" fill="#1B2030" font-size="11" text-anchor="start"><tspan x="-8" dy="0em">150%</tspan></text></svg></g><line class="visx-line visx-axis-line" x1="0" y1="155.5" x2="0" y2="0.5" fill="transparent" shape-rendering="crispEdges" stroke="#F2F0F9" stroke-width="1"></line></g><rect class="visx-bar" width="1425" height="155" fill="transparent"></rect><line class="visx-line" x1="684" y1="58" x2="684" y2="155" fill="transparent" shape-rendering="crispEdges" stroke="#CDC8E1" stroke-width="1" pointer-events="none" stroke-dasharray="5"></line><svg x="0" y="0" font-size="11px" style="overflow:visible"><text transform="" x="684" y="50" font-size="11px" fill="#555069" stroke="#FFFFFF" stroke-width="1px" text-anchor="middle"><tspan x="684" dy="0.355em">uOptimal 48%</tspan></text></svg><svg x="0" y="0" font-size="11px" style="overflow:visible"><text transform="" x="684" y="50" font-size="11px" fill="#CDC8E1" text-anchor="middle"><tspan x="684" dy="0.355em">uOptimal 48%</tspan></text></svg></g></svg>