<?xml version="1.0"?><svg xmlns="http://www.w3.org/2000/svg" xmlns:xlink= "http://www.w3.org/1999/xlink" style="background: white;" width="1500" height="185"> <g style="color: black; font-size: 13px; font-family: sans-serif; transform: translate(18px, 25px);"><g><circle r="3" cx="-6" cy="-5" style="fill: #B6509E" /><text>Borrow APR, variable</text></g><g style="transform: translateX(150px);"><circle r="3" cx="-6" cy="-5" style="fill: rgb(231, 198, 223)" /><text>Borrow APR, stable</text></g><g style="transform: translateX(290px);"><circle r="3" cx="-6" cy="-5" style="fill: rgb(0, 98, 210)" /><text>Utilization Rate</text></g></g><g class="visx-group" transform="translate(40, 50)"><g class="visx-group visx-rows" transform="translate(0, 0)"><line class="visx-line" x1="0" y1="115" x2="1450" y2="115" fill="transparent" shape-rendering="crispEdges" stroke="#000" stroke-width="1" stroke-dasharray="3,3" pointer-events="none"></line><line class="visx-line" x1="0" y1="86.25" x2="1450" y2="86.25" fill="transparent" shape-rendering="crispEdges" stroke="#000" stroke-width="1" stroke-dasharray="3,3" pointer-events="none"></line><line class="visx-line" x1="0" y1="57.5" x2="1450" y2="57.5" fill="transparent" shape-rendering="crispEdges" stroke="#000" stroke-width="1" stroke-dasharray="3,3" pointer-events="none"></line><line class="visx-line" x1="0" y1="28.75" x2="1450" y2="28.75" fill="transparent" shape-rendering="crispEdges" stroke="#000" stroke-width="1" stroke-dasharray="3,3" pointer-events="none"></line><line class="visx-line" x1="0" y1="0" x2="1450" y2="0" fill="transparent" shape-rendering="crispEdges" stroke="#000" stroke-width="1" stroke-dasharray="3,3" pointer-events="none"></line></g><path class="visx-linepath" d="M0,114.99999999990416C2.4166666666666665,114.98402777772188,4.833333333333334,114.96805555553958,7.25,114.95208333333333C9.666666666666666,114.93611111112709,12.083333333333334,114.92013888888889,14.5,114.90416666666667C16.916666666666668,114.88819444444445,19.333333333333332,114.87222222222222,21.75,114.85625C24.166666666666668,114.84027777777779,26.583333333333332,114.82430555555554,29,114.80833333333332C31.416666666666668,114.7923611111111,33.833333333333336,114.77638888888889,36.25,114.76041666666667C38.666666666666664,114.74444444444445,41.083333333333336,114.72847222222222,43.5,114.7125C45.91666666666667,114.69652777777777,48.333333333333336,114.68055555555554,50.75000000000001,114.66458333333333C53.16666666666667,114.64861111111111,55.583333333333336,114.63263888888889,58,114.61666666666667C60.416666666666664,114.60069444444446,62.833333333333336,114.58472222222221,65.25,114.56875C67.66666666666667,114.55277777777778,70.08333333333333,114.53680555555555,72.5,114.52083333333333C74.91666666666667,114.50486111111111,77.33333333333333,114.48888888888888,79.75,114.47291666666666C82.16666666666667,114.45694444444445,84.58333333333333,114.44097222222221,87,114.425C89.41666666666667,114.40902777777778,91.83333333333333,114.39305555555555,94.25,114.37708333333333C96.66666666666667,114.36111111111111,99.08333333333334,114.34513888888888,101.50000000000001,114.32916666666667C103.91666666666667,114.31319444444445,106.33333333333334,114.29722222222222,108.75,114.28125C111.16666666666667,114.26527777777778,113.58333333333333,114.24930555555555,116,114.23333333333333C118.41666666666667,114.21736111111112,120.83333333333334,114.20138888888889,123.25000000000001,114.18541666666667C125.66666666666667,114.16944444444445,128.08333333333334,114.15347222222222,130.5,114.1375C132.91666666666666,114.12152777777779,135.33333333333334,114.10555555555555,137.75,114.08958333333334C140.16666666666666,114.07361111111112,142.58333333333334,114.05763888888889,145,114.04166666666667C147.41666666666666,114.02569444444445,149.83333333333334,114.00972222222221,152.25,113.99374999999999C154.66666666666666,113.97777777777777,157.08333333333334,113.96180555555556,159.5,113.94583333333334C161.91666666666666,113.92986111111112,164.33333333333334,113.91388888888889,166.75,113.89791666666667C169.16666666666666,113.88194444444446,171.58333333333334,113.86597222222221,174,113.85C176.41666666666666,113.83402777777778,178.83333333333334,113.81805555555556,181.25,113.80208333333334C183.66666666666666,113.78611111111113,186.08333333333334,113.77013888888888,188.5,113.75416666666666C190.91666666666666,113.73819444444445,193.33333333333334,113.72222222222221,195.75,113.70625C198.16666666666669,113.69027777777778,200.58333333333334,113.67430555555555,203.00000000000003,113.65833333333333C205.41666666666669,113.64236111111111,207.83333333333331,113.62638888888888,210.24999999999997,113.61041666666667C212.66666666666666,113.59444444444445,215.08333333333331,113.57847222222222,217.5,113.5625C219.91666666666666,113.54652777777778,222.33333333333334,113.53055555555555,224.75,113.51458333333333C227.16666666666666,113.49861111111112,229.58333333333334,113.48263888888889,232,113.46666666666667C234.41666666666666,113.45069444444445,236.83333333333334,113.4347222222222,239.25,113.41874999999999C241.66666666666669,113.40277777777777,244.08333333333334,113.38680555555555,246.50000000000003,113.37083333333334C248.91666666666669,113.35486111111112,251.33333333333331,113.33888888888889,253.74999999999997,113.32291666666667C256.16666666666663,113.30694444444444,258.5833333333333,113.29097222222221,261,113.27499999999999C263.4166666666667,113.25902777777777,265.8333333333333,113.24305555555556,268.25,113.22708333333334C270.6666666666667,113.21111111111112,273.0833333333333,113.19513888888888,275.5,113.17916666666666C277.9166666666667,113.16319444444444,280.3333333333333,113.14722222222223,282.75,113.13125000000001C285.1666666666667,113.11527777777779,287.5833333333333,113.09930555555555,290,113.08333333333333C292.4166666666667,113.06736111111111,294.8333333333333,113.05138888888888,297.25,113.03541666666666C299.6666666666667,113.01944444444445,302.0833333333333,113.00347222222223,304.5,112.98750000000001C306.9166666666667,112.9715277777778,309.3333333333333,112.95555555555555,311.75,112.93958333333333C314.1666666666667,112.92361111111111,316.5833333333333,112.90763888888888,319,112.89166666666667C321.4166666666667,112.87569444444445,323.8333333333333,112.85972222222222,326.25,112.84375C328.6666666666667,112.82777777777778,331.0833333333333,112.81180555555555,333.5,112.79583333333333C335.9166666666667,112.77986111111112,338.3333333333333,112.76388888888889,340.75,112.74791666666667C343.1666666666667,112.73194444444445,345.5833333333333,112.71597222222222,348,112.7C350.4166666666667,112.68402777777779,352.8333333333333,112.66805555555555,355.25,112.65208333333334C357.6666666666667,112.63611111111112,360.0833333333333,112.62013888888887,362.5,112.60416666666666C364.9166666666667,112.58819444444444,367.3333333333333,112.57222222222222,369.75,112.55625C372.1666666666667,112.54027777777779,374.5833333333333,112.52430555555556,377,112.50833333333334C379.4166666666667,112.49236111111112,381.8333333333333,112.47638888888888,384.25,112.46041666666666C386.6666666666667,112.44444444444444,389.0833333333333,112.42847222222223,391.5,112.41250000000001C393.9166666666667,112.39652777777779,396.33333333333337,112.38055555555556,398.75000000000006,112.36458333333333C401.16666666666674,112.34861111111111,403.58333333333337,112.33263888888888,406.00000000000006,112.31666666666666C408.4166666666667,112.30069444444445,410.8333333333333,112.28472222222221,413.24999999999994,112.26875C415.66666666666663,112.25277777777778,418.08333333333326,112.23680555555555,420.49999999999994,112.22083333333333C422.91666666666663,112.20486111111111,425.3333333333333,112.18888888888888,427.75,112.17291666666667C430.1666666666667,112.15694444444445,432.5833333333333,112.14097222222222,435,112.125C437.4166666666667,112.10902777777778,439.8333333333333,112.09305555555555,442.25,112.07708333333333C444.6666666666667,112.06111111111112,447.0833333333333,112.04513888888889,449.5,112.02916666666667C451.9166666666667,112.01319444444445,454.3333333333333,111.99722222222222,456.75,111.98125C459.1666666666667,111.96527777777779,461.5833333333333,111.94930555555555,464,111.93333333333334C466.4166666666667,111.91736111111112,468.8333333333333,111.90138888888889,471.25,111.88541666666667C473.6666666666667,111.86944444444445,476.0833333333333,111.85347222222222,478.5,111.8375C480.9166666666667,111.82152777777777,483.33333333333337,111.80555555555554,485.75000000000006,111.78958333333333C488.16666666666674,111.77361111111111,490.58333333333337,111.75763888888889,493.00000000000006,111.74166666666667C495.4166666666667,111.72569444444446,497.8333333333333,111.70972222222221,500.24999999999994,111.69375C502.66666666666663,111.67777777777776,505.08333333333326,111.66180555555555,507.49999999999994,111.64583333333333C509.91666666666663,111.62986111111111,512.3333333333333,111.6138888888889,514.75,111.59791666666668C517.1666666666666,111.58194444444446,519.5833333333334,111.56597222222221,522,111.55C524.4166666666666,111.53402777777778,526.8333333333334,111.51805555555555,529.25,111.50208333333333C531.6666666666666,111.48611111111111,534.0833333333334,111.47013888888888,536.5,111.45416666666667C538.9166666666666,111.43819444444445,541.3333333333334,111.42222222222222,543.75,111.40625C546.1666666666666,111.39027777777778,548.5833333333334,111.37430555555555,551,111.35833333333333C553.4166666666666,111.34236111111112,555.8333333333334,111.32638888888889,558.25,111.31041666666667C560.6666666666666,111.29444444444445,563.0833333333334,111.27847222222222,565.5,111.2625C567.9166666666666,111.24652777777779,570.3333333333334,111.23055555555554,572.75,111.21458333333332C575.1666666666666,111.1986111111111,577.5833333333334,111.18263888888889,580,111.16666666666667C582.4166666666666,111.15069444444445,584.8333333333334,111.13472222222222,587.25,111.11875C589.6666666666666,111.10277777777779,592.0833333333334,111.08680555555554,594.5,111.07083333333333C596.9166666666666,111.05486111111111,599.3333333333334,111.03888888888889,601.75,111.02291666666667C604.1666666666666,111.00694444444446,606.5833333333334,110.99097222222221,609,110.975C611.4166666666666,110.95902777777778,613.8333333333334,110.94305555555555,616.25,110.92708333333333C618.6666666666666,110.91111111111111,621.0833333333334,110.89513888888888,623.5,110.87916666666666C625.9166666666666,110.86319444444445,628.3333333333334,110.84722222222221,630.75,110.83125C633.1666666666666,110.81527777777778,635.5833333333334,110.79930555555555,638,110.78333333333333C640.4166666666666,110.76736111111111,642.8333333333334,110.75138888888888,645.25,110.73541666666667C647.6666666666666,110.71944444444445,650.0833333333334,110.70347222222222,652.5,110.6875C654.9166666666666,110.67152777777778,657.3333333333334,110.65555555555555,659.75,110.63958333333333C662.1666666666666,110.62361111111112,664.5833333333334,110.60763888888889,667,110.59166666666667C669.4166666666666,110.57569444444445,671.8333333333334,110.55972222222222,674.25,110.54375C676.6666666666666,110.52777777777779,679.0833333333334,110.51180555555555,681.5,110.49583333333334C683.9166666666666,110.47986111111112,686.3333333333334,110.46388888888889,688.75,110.44791666666667C691.1666666666666,110.43194444444445,693.5833333333334,110.41597222222221,696,110.39999999999999C698.4166666666666,110.38402777777777,700.8333333333334,110.36805555555556,703.25,110.35208333333334C705.6666666666666,110.33611111111112,708.0833333333334,110.32013888888889,710.5,110.30416666666667C712.9166666666666,110.28819444444446,715.3333333333334,110.27222222222221,717.75,110.25625C720.1666666666666,110.24027777777778,722.5833333333334,110.22430555555556,725,110.20833333333334C727.4166666666666,110.19236111111113,729.8333333333334,110.17638888888888,732.25,110.16041666666666C734.6666666666666,110.14444444444445,737.0833333333334,110.12847222222221,739.5,110.1125C741.9166666666666,110.09652777777778,744.3333333333334,110.08055555555555,746.75,110.06458333333333C749.1666666666666,110.04861111111111,751.5833333333334,110.03263888888888,754,110.01666666666667C756.4166666666666,110.00069444444445,758.8333333333334,109.98472222222222,761.25,109.96875C763.6666666666666,109.95277777777778,766.0833333333334,109.93680555555555,768.5,109.92083333333333C770.9166666666666,109.90486111111112,773.3333333333334,109.88888888888889,775.75,109.87291666666667C778.1666666666666,109.85694444444445,780.5833333333334,109.8409722222222,783,109.82499999999999C785.4166666666667,109.80902777777777,787.8333333333334,109.79305555555555,790.2500000000001,109.77708333333334C792.6666666666667,109.76111111111112,795.0833333333335,109.74513888888889,797.5000000000001,109.72916666666667C799.9166666666667,109.71319444444445,802.3333333333335,109.69722222222221,804.7500000000001,109.68124999999999C807.1666666666667,109.66527777777777,809.5833333333335,109.64930555555556,812.0000000000001,109.63333333333334C814.4166666666667,109.61736111111112,816.8333333333333,109.60138888888888,819.2499999999999,109.58541666666666C821.6666666666665,109.56944444444444,824.0833333333333,109.55347222222223,826.4999999999999,109.53750000000001C828.9166666666665,109.52152777777779,831.3333333333333,109.50555555555556,833.7499999999999,109.48958333333334C836.1666666666665,109.47361111111113,838.5833333333333,109.45763888888888,840.9999999999999,109.44166666666666C843.4166666666666,109.42569444444445,845.8333333333333,109.40972222222223,848.25,109.39375000000001C850.6666666666666,109.3777777777778,853.0833333333334,109.36180555555555,855.5,109.34583333333333C857.9166666666666,109.32986111111111,860.3333333333334,109.31388888888888,862.75,109.29791666666667C865.1666666666666,109.28194444444445,867.5833333333334,109.26597222222222,870,109.25C872.4166666666666,109.23402777777778,874.8333333333334,109.21805555555555,877.25,109.20208333333333C879.6666666666666,109.18611111111112,882.0833333333334,109.17013888888889,884.5,109.15416666666667C886.9166666666666,109.13819444444445,889.3333333333334,109.12222222222222,891.75,109.10625C894.1666666666666,109.09027777777779,896.5833333333334,109.07430555555555,899,109.05833333333334C901.4166666666666,109.04236111111112,903.8333333333334,109.02638888888887,906.25,109.01041666666666C908.6666666666666,108.99444444444444,911.0833333333334,108.97847222222222,913.5,108.9625C915.9166666666666,108.94652777777779,918.3333333333334,108.93055555555554,920.75,108.91458333333333C923.1666666666666,108.89861111111111,925.5833333333334,108.88263888888888,928,108.86666666666666C930.4166666666666,108.85069444444444,932.8333333333334,108.83472222222223,935.25,108.81875000000001C937.6666666666666,108.80277777777779,940.0833333333334,108.78680555555555,942.5,108.77083333333333C944.9166666666666,108.75486111111111,947.3333333333334,108.73888888888888,949.75,108.72291666666666C952.1666666666666,108.70694444444445,954.5833333333334,108.69097222222223,957,108.67500000000001C959.4166666666666,108.6590277777778,961.8333333333334,108.64305555555555,964.25,108.62708333333333C966.6666666666667,108.6111111111111,969.0833333333334,108.59513888888888,971.5000000000001,108.57916666666667C973.9166666666667,108.56319444444445,976.3333333333335,108.54722222222222,978.7500000000001,108.53125C981.1666666666667,108.51527777777778,983.5833333333335,108.49930555555555,986.0000000000001,108.48333333333333C988.4166666666667,108.46736111111112,990.8333333333335,108.45138888888889,993.2500000000001,108.43541666666667C995.6666666666667,108.41944444444445,998.0833333333333,108.40347222222222,1000.4999999999999,108.3875C1002.9166666666665,108.37152777777779,1005.3333333333333,108.35555555555555,1007.7499999999999,108.33958333333334C1010.1666666666665,108.32361111111112,1012.5833333333333,108.30763888888889,1014.9999999999999,108.29166666666667C1017.4166666666665,108.27569444444445,1019.8333333333333,108.25972222222222,1022.2499999999999,108.24375C1024.6666666666665,108.22777777777777,1027.0833333333333,108.21180555555554,1029.5,108.19583333333333C1031.9166666666667,108.17986111111111,1034.3333333333333,108.16388888888889,1036.75,108.14791666666667C1039.1666666666667,108.13194444444446,1041.5833333333333,108.11597222222221,1044,108.1C1046.4166666666667,108.08402777777778,1048.8333333333333,108.06805555555555,1051.25,108.05208333333333C1053.6666666666667,108.03611111111111,1056.0833333333333,108.0201388888889,1058.5,108.00416666666668C1060.9166666666667,107.98819444444446,1063.3333333333333,107.97222222222221,1065.75,107.95625C1068.1666666666667,107.94027777777778,1070.5833333333333,107.92430555555555,1073,107.90833333333333C1075.4166666666667,107.89236111111111,1077.8333333333333,107.87638888888888,1080.25,107.86041666666667C1082.6666666666667,107.84444444444445,1085.0833333333333,107.82847222222222,1087.5,107.8125C1089.9166666666667,107.79652777777778,1092.3333333333333,107.78055555555555,1094.75,107.76458333333333C1097.1666666666667,107.74861111111112,1099.5833333333333,107.73263888888889,1102,107.71666666666667C1104.4166666666667,107.70069444444445,1106.8333333333333,107.68472222222222,1109.25,107.66875C1111.6666666666667,107.65277777777779,1114.0833333333333,107.63680555555554,1116.5,107.62083333333332C1118.9166666666667,107.6048611111111,1121.3333333333333,107.58888888888889,1123.75,107.57291666666667C1126.1666666666667,107.55694444444445,1128.5833333333333,107.54097222222222,1131,107.525C1133.4166666666667,107.50902777777779,1135.8333333333333,107.49305555555554,1138.25,107.47708333333333C1140.6666666666667,107.46111111111111,1143.0833333333333,107.44513888888889,1145.5,107.42916666666667C1147.9166666666667,107.41319444444446,1150.3333333333333,107.39722222222221,1152.75,107.38125C1155.1666666666667,107.36527777777778,1157.5833333333333,107.34930555555555,1160,107.33333333333333C1162.4166666666667,107.31736111111111,1164.8333333333333,107.30138888888888,1167.25,107.28541666666666C1169.6666666666667,107.26944444444445,1172.0833333333333,107.25347222222221,1174.5,107.2375C1176.9166666666667,107.22152777777778,1179.3333333333333,107.20555555555555,1181.75,107.18958333333333C1184.1666666666667,107.17361111111111,1186.5833333333333,107.15763888888888,1189,107.14166666666667C1191.4166666666667,107.12569444444445,1193.8333333333333,107.10972222222222,1196.25,107.09375C1198.6666666666667,107.07777777777778,1201.0833333333333,107.06180555555555,1203.5,107.04583333333333C1205.9166666666667,107.02986111111112,1208.3333333333333,107.01388888888889,1210.75,106.99791666666667C1213.1666666666667,106.98194444444445,1215.5833333333333,106.9659722222222,1218,106.94999999999999C1220.4166666666667,106.93402777777777,1222.8333333333333,106.91805555555555,1225.25,106.90208333333334C1227.6666666666667,106.88611111111112,1230.0833333333333,106.87013888888889,1232.5,106.85416666666667C1234.9166666666667,106.83819444444445,1237.3333333333333,106.82222222222221,1239.75,106.80624999999999C1242.1666666666667,106.79027777777777,1244.5833333333333,106.77430555555556,1247,106.75833333333334C1249.4166666666667,106.74236111111112,1251.8333333333333,106.72638888888889,1254.25,106.71041666666667C1256.6666666666667,106.69444444444446,1259.0833333333333,106.67847222222221,1261.5,106.6625C1263.9166666666667,106.64652777777778,1266.3333333333333,106.63055555555556,1268.75,106.61458333333334C1271.1666666666667,106.59861111111113,1273.5833333333333,106.58263888888888,1276,106.56666666666666C1278.4166666666667,106.55069444444445,1280.8333333333333,106.53472222222221,1283.25,106.51875C1285.6666666666667,106.50277777777778,1288.0833333333333,106.48680555555555,1290.5,106.47083333333333C1292.9166666666667,106.45486111111111,1295.3333333333333,106.43888888888888,1297.75,106.42291666666667C1300.1666666666667,106.40694444444445,1302.5833333333333,106.40694444444445,1305,106.375C1307.4166666666667,106.34305555555555,1309.8333333333333,103.5,1312.25,102.0625C1314.6666666666667,100.625,1317.0833333333333,99.1875,1319.5,97.75C1321.9166666666667,96.3125,1324.3333333333333,94.875,1326.75,93.4375C1329.1666666666667,92,1331.5833333333333,90.5625,1334,89.125C1336.4166666666667,87.6875,1338.8333333333333,86.25,1341.25,84.8125C1343.6666666666667,83.375,1346.0833333333333,81.9375,1348.5,80.5C1350.9166666666667,79.0625,1353.3333333333333,77.625,1355.75,76.1875C1358.1666666666667,74.75,1360.5833333333333,73.3125,1363,71.875C1365.4166666666667,70.4375,1367.8333333333333,69,1370.25,67.5625C1372.6666666666667,66.125,1375.0833333333333,64.68750000000001,1377.5,63.25000000000001C1379.9166666666667,61.81250000000001,1382.3333333333333,60.37499999999999,1384.75,58.93749999999999C1387.1666666666667,57.49999999999999,1389.5833333333333,56.0625,1392,54.625C1394.4166666666667,53.1875,1396.8333333333333,51.75,1399.25,50.3125C1401.6666666666667,48.875,1404.0833333333333,47.4375,1406.5,46C1408.9166666666667,44.5625,1411.3333333333333,43.12500000000001,1413.75,41.68750000000001C1416.1666666666667,40.25000000000001,1418.5833333333333,38.81249999999999,1421,37.37499999999999C1423.4166666666667,35.93749999999999,1425.8333333333333,34.50000000000001,1428.25,33.06250000000001C1430.6666666666667,31.625000000000007,1433.0833333333333,30.1875,1435.5,28.75C1437.9166666666667,27.3125,1440.3333333333333,25.875000000000004,1442.75,24.437500000000004C1445.1666666666667,23.000000000000004,1447.5833333333333,21.562500000000004,1450,20.125000000000004" fill="transparent" stroke-linecap="round" stroke="#B6509E" stroke-width="2"></path><path class="visx-linepath" d="M0,100.62499999996805C2.4166666666666665,100.61967592590729,4.833333333333334,100.61435185184652,7.25,100.60902777777777C9.666666666666666,100.60370370370902,12.083333333333334,100.59837962962962,14.5,100.59305555555555C16.916666666666668,100.58773148148148,19.333333333333332,100.58240740740739,21.75,100.57708333333332C24.166666666666668,100.57175925925925,26.583333333333332,100.56643518518518,29,100.56111111111112C31.416666666666668,100.55578703703705,33.833333333333336,100.55046296296297,36.25,100.54513888888889C38.666666666666664,100.5398148148148,41.083333333333336,100.53449074074074,43.5,100.52916666666667C45.91666666666667,100.5238425925926,48.333333333333336,100.51851851851852,50.75000000000001,100.51319444444445C53.16666666666667,100.50787037037038,55.583333333333336,100.5025462962963,58,100.49722222222223C60.416666666666664,100.49189814814815,62.833333333333336,100.48657407407408,65.25,100.48125C67.66666666666667,100.47592592592592,70.08333333333333,100.47060185185185,72.5,100.46527777777777C74.91666666666667,100.45995370370369,77.33333333333333,100.45462962962964,79.75,100.44930555555555C82.16666666666667,100.44398148148147,84.58333333333333,100.43865740740739,87,100.43333333333332C89.41666666666667,100.42800925925926,91.83333333333333,100.42268518518517,94.25,100.4173611111111C96.66666666666667,100.41203703703704,99.08333333333334,100.40671296296296,101.50000000000001,100.40138888888889C103.91666666666667,100.39606481481482,106.33333333333334,100.39074074074074,108.75,100.38541666666667C111.16666666666667,100.38009259259259,113.58333333333333,100.37476851851851,116,100.36944444444444C118.41666666666667,100.36412037037037,120.83333333333334,100.3587962962963,123.25000000000001,100.35347222222224C125.66666666666667,100.34814814814817,128.08333333333334,100.34282407407407,130.5,100.3375C132.91666666666666,100.33217592592592,135.33333333333334,100.32685185185187,137.75,100.32152777777779C140.16666666666666,100.3162037037037,142.58333333333334,100.31087962962964,145,100.30555555555556C147.41666666666666,100.30023148148148,149.83333333333334,100.29490740740741,152.25,100.28958333333333C154.66666666666666,100.28425925925924,157.08333333333334,100.27893518518519,159.5,100.27361111111111C161.91666666666666,100.26828703703703,164.33333333333334,100.26296296296294,166.75,100.25763888888888C169.16666666666666,100.25231481481481,171.58333333333334,100.24699074074073,174,100.24166666666666C176.41666666666666,100.23634259259259,178.83333333333334,100.23101851851851,181.25,100.22569444444444C183.66666666666666,100.22037037037038,186.08333333333334,100.2150462962963,188.5,100.20972222222223C190.91666666666666,100.20439814814816,193.33333333333334,100.19907407407408,195.75,100.19375000000001C198.16666666666669,100.18842592592594,200.58333333333334,100.18310185185187,203.00000000000003,100.17777777777779C205.41666666666669,100.17245370370372,207.83333333333331,100.16712962962964,210.24999999999997,100.16180555555556C212.66666666666666,100.15648148148148,215.08333333333331,100.15115740740741,217.5,100.14583333333333C219.91666666666666,100.14050925925926,222.33333333333334,100.13518518518518,224.75,100.12986111111111C227.16666666666666,100.12453703703704,229.58333333333334,100.11921296296296,232,100.11388888888888C234.41666666666666,100.1085648148148,236.83333333333334,100.10324074074073,239.25,100.09791666666666C241.66666666666669,100.09259259259258,244.08333333333334,100.0872685185185,246.50000000000003,100.08194444444443C248.91666666666669,100.07662037037036,251.33333333333331,100.0712962962963,253.74999999999997,100.06597222222223C256.16666666666663,100.06064814814816,258.5833333333333,100.05532407407408,261,100.05C263.4166666666667,100.04467592592593,265.8333333333333,100.03935185185185,268.25,100.03402777777778C270.6666666666667,100.02870370370371,273.0833333333333,100.02337962962963,275.5,100.01805555555556C277.9166666666667,100.0127314814815,280.3333333333333,100.00740740740741,282.75,100.00208333333333C285.1666666666667,99.99675925925925,287.5833333333333,99.9914351851852,290,99.98611111111111C292.4166666666667,99.98078703703703,294.8333333333333,99.97546296296295,297.25,99.97013888888888C299.6666666666667,99.96481481481482,302.0833333333333,99.95949074074073,304.5,99.95416666666667C306.9166666666667,99.9488425925926,309.3333333333333,99.94351851851852,311.75,99.93819444444443C314.1666666666667,99.93287037037035,316.5833333333333,99.92754629629628,319,99.92222222222222C321.4166666666667,99.91689814814815,323.8333333333333,99.91157407407407,326.25,99.90625C328.6666666666667,99.90092592592593,331.0833333333333,99.89560185185186,333.5,99.89027777777778C335.9166666666667,99.8849537037037,338.3333333333333,99.87962962962962,340.75,99.87430555555555C343.1666666666667,99.86898148148148,345.5833333333333,99.8636574074074,348,99.85833333333333C350.4166666666667,99.85300925925927,352.8333333333333,99.84768518518518,355.25,99.84236111111112C357.6666666666667,99.83703703703705,360.0833333333333,99.83171296296297,362.5,99.82638888888889C364.9166666666667,99.8210648148148,367.3333333333333,99.81574074074075,369.75,99.81041666666667C372.1666666666667,99.80509259259259,374.5833333333333,99.7997685185185,377,99.79444444444444C379.4166666666667,99.78912037037037,381.8333333333333,99.78379629629629,384.25,99.77847222222222C386.6666666666667,99.77314814814815,389.0833333333333,99.76782407407406,391.5,99.76249999999999C393.9166666666667,99.75717592592592,396.33333333333337,99.75185185185185,398.75000000000006,99.74652777777779C401.16666666666674,99.74120370370372,403.58333333333337,99.73587962962964,406.00000000000006,99.73055555555555C408.4166666666667,99.72523148148149,410.8333333333333,99.7199074074074,413.24999999999994,99.71458333333334C415.66666666666663,99.70925925925927,418.08333333333326,99.70393518518519,420.49999999999994,99.69861111111112C422.91666666666663,99.69328703703704,425.3333333333333,99.68796296296297,427.75,99.68263888888889C430.1666666666667,99.67731481481482,432.5833333333333,99.67199074074074,435,99.66666666666667C437.4166666666667,99.6613425925926,439.8333333333333,99.65601851851852,442.25,99.65069444444444C444.6666666666667,99.64537037037036,447.0833333333333,99.6400462962963,449.5,99.63472222222222C451.9166666666667,99.62939814814814,454.3333333333333,99.62407407407406,456.75,99.61874999999999C459.1666666666667,99.61342592592592,461.5833333333333,99.60810185185184,464,99.60277777777777C466.4166666666667,99.5974537037037,468.8333333333333,99.59212962962962,471.25,99.58680555555556C473.6666666666667,99.58148148148149,476.0833333333333,99.57615740740741,478.5,99.57083333333334C480.9166666666667,99.56550925925926,483.33333333333337,99.56018518518519,485.75000000000006,99.55486111111111C488.16666666666674,99.54953703703704,490.58333333333337,99.54421296296296,493.00000000000006,99.53888888888889C495.4166666666667,99.53356481481482,497.8333333333333,99.52824074074074,500.24999999999994,99.52291666666667C502.66666666666663,99.51759259259259,505.08333333333326,99.51226851851851,507.49999999999994,99.50694444444444C509.91666666666663,99.50162037037036,512.3333333333333,99.49629629629631,514.75,99.49097222222223C517.1666666666666,99.48564814814816,519.5833333333334,99.48032407407408,522,99.475C524.4166666666666,99.46967592592591,526.8333333333334,99.46435185185186,529.25,99.45902777777778C531.6666666666666,99.4537037037037,534.0833333333334,99.44837962962961,536.5,99.44305555555555C538.9166666666666,99.43773148148148,541.3333333333334,99.4324074074074,543.75,99.42708333333333C546.1666666666666,99.42175925925926,548.5833333333334,99.41643518518518,551,99.41111111111111C553.4166666666666,99.40578703703704,555.8333333333334,99.40046296296296,558.25,99.3951388888889C560.6666666666666,99.38981481481483,563.0833333333334,99.38449074074074,565.5,99.37916666666668C567.9166666666666,99.37384259259261,570.3333333333334,99.36851851851853,572.75,99.36319444444445C575.1666666666666,99.35787037037036,577.5833333333334,99.35254629629631,580,99.34722222222223C582.4166666666666,99.34189814814815,584.8333333333334,99.33657407407406,587.25,99.33125C589.6666666666666,99.32592592592593,592.0833333333334,99.32060185185185,594.5,99.31527777777778C596.9166666666666,99.30995370370371,599.3333333333334,99.30462962962963,601.75,99.29930555555555C604.1666666666666,99.29398148148147,606.5833333333334,99.28865740740741,609,99.28333333333333C611.4166666666666,99.27800925925925,613.8333333333334,99.27268518518517,616.25,99.2673611111111C618.6666666666666,99.26203703703703,621.0833333333334,99.25671296296296,623.5,99.2513888888889C625.9166666666666,99.24606481481483,628.3333333333334,99.24074074074073,630.75,99.23541666666667C633.1666666666666,99.2300925925926,635.5833333333334,99.22476851851852,638,99.21944444444445C640.4166666666666,99.21412037037038,642.8333333333334,99.2087962962963,645.25,99.20347222222223C647.6666666666666,99.19814814814816,650.0833333333334,99.19282407407408,652.5,99.1875C654.9166666666666,99.18217592592592,657.3333333333334,99.17685185185186,659.75,99.17152777777778C662.1666666666666,99.1662037037037,664.5833333333334,99.16087962962962,667,99.15555555555555C669.4166666666666,99.15023148148148,671.8333333333334,99.1449074074074,674.25,99.13958333333333C676.6666666666666,99.13425925925927,679.0833333333334,99.12893518518518,681.5,99.1236111111111C683.9166666666666,99.11828703703702,686.3333333333334,99.11296296296295,688.75,99.10763888888889C691.1666666666666,99.10231481481482,693.5833333333334,99.09699074074074,696,99.09166666666667C698.4166666666666,99.0863425925926,700.8333333333334,99.08101851851853,703.25,99.07569444444445C705.6666666666666,99.07037037037037,708.0833333333334,99.06504629629629,710.5,99.05972222222222C712.9166666666666,99.05439814814815,715.3333333333334,99.04907407407407,717.75,99.04375C720.1666666666666,99.03842592592594,722.5833333333334,99.03310185185185,725,99.02777777777779C727.4166666666666,99.02245370370372,729.8333333333334,99.01712962962964,732.25,99.01180555555555C734.6666666666666,99.00648148148147,737.0833333333334,99.00115740740742,739.5,98.99583333333334C741.9166666666666,98.99050925925926,744.3333333333334,98.98518518518517,746.75,98.9798611111111C749.1666666666666,98.97453703703704,751.5833333333334,98.96921296296296,754,98.96388888888889C756.4166666666666,98.95856481481482,758.8333333333334,98.95324074074074,761.25,98.94791666666666C763.6666666666666,98.94259259259258,766.0833333333334,98.93726851851851,768.5,98.93194444444444C770.9166666666666,98.92662037037037,773.3333333333334,98.9212962962963,775.75,98.91597222222222C778.1666666666666,98.91064814814814,780.5833333333334,98.90532407407406,783,98.89999999999999C785.4166666666667,98.89467592592592,787.8333333333334,98.88935185185186,790.2500000000001,98.88402777777779C792.6666666666667,98.87870370370372,795.0833333333335,98.87337962962962,797.5000000000001,98.86805555555556C799.9166666666667,98.86273148148149,802.3333333333335,98.85740740740741,804.7500000000001,98.85208333333334C807.1666666666667,98.84675925925927,809.5833333333335,98.84143518518519,812.0000000000001,98.83611111111111C814.4166666666667,98.83078703703704,816.8333333333333,98.82546296296296,819.2499999999999,98.82013888888889C821.6666666666665,98.81481481481481,824.0833333333333,98.80949074074073,826.4999999999999,98.80416666666666C828.9166666666665,98.79884259259259,831.3333333333333,98.79351851851851,833.7499999999999,98.78819444444444C836.1666666666665,98.78287037037038,838.5833333333333,98.7775462962963,840.9999999999999,98.77222222222223C843.4166666666666,98.76689814814816,845.8333333333333,98.76157407407409,848.25,98.75625000000001C850.6666666666666,98.75092592592594,853.0833333333334,98.74560185185186,855.5,98.74027777777778C857.9166666666666,98.7349537037037,860.3333333333334,98.72962962962961,862.75,98.72430555555555C865.1666666666666,98.71898148148148,867.5833333333334,98.71365740740741,870,98.70833333333334C872.4166666666666,98.70300925925928,874.8333333333334,98.69768518518518,877.25,98.69236111111111C879.6666666666666,98.68703703703704,882.0833333333334,98.68171296296296,884.5,98.6763888888889C886.9166666666666,98.67106481481483,889.3333333333334,98.66574074074074,891.75,98.66041666666666C894.1666666666666,98.65509259259258,896.5833333333334,98.64976851851853,899,98.64444444444445C901.4166666666666,98.63912037037036,903.8333333333334,98.63379629629628,906.25,98.62847222222221C908.6666666666666,98.62314814814815,911.0833333333334,98.61782407407406,913.5,98.6125C915.9166666666666,98.60717592592593,918.3333333333334,98.60185185185185,920.75,98.59652777777778C923.1666666666666,98.59120370370371,925.5833333333334,98.58587962962963,928,98.58055555555555C930.4166666666666,98.57523148148147,932.8333333333334,98.5699074074074,935.25,98.56458333333333C937.6666666666666,98.55925925925926,940.0833333333334,98.55393518518518,942.5,98.54861111111111C944.9166666666666,98.54328703703705,947.3333333333334,98.53796296296298,949.75,98.5326388888889C952.1666666666666,98.52731481481482,954.5833333333334,98.52199074074073,957,98.51666666666667C959.4166666666666,98.5113425925926,961.8333333333334,98.50601851851852,964.25,98.50069444444445C966.6666666666667,98.49537037037037,969.0833333333334,98.4900462962963,971.5000000000001,98.48472222222222C973.9166666666667,98.47939814814815,976.3333333333335,98.47407407407408,978.7500000000001,98.46875C981.1666666666667,98.46342592592592,983.5833333333335,98.45810185185184,986.0000000000001,98.45277777777777C988.4166666666667,98.4474537037037,990.8333333333335,98.44212962962962,993.2500000000001,98.43680555555555C995.6666666666667,98.43148148148148,998.0833333333333,98.4261574074074,1000.4999999999999,98.42083333333333C1002.9166666666665,98.41550925925925,1005.3333333333333,98.41018518518517,1007.7499999999999,98.4048611111111C1010.1666666666665,98.39953703703704,1012.5833333333333,98.39421296296297,1014.9999999999999,98.3888888888889C1017.4166666666665,98.38356481481483,1019.8333333333333,98.37824074074074,1022.2499999999999,98.37291666666667C1024.6666666666665,98.36759259259259,1027.0833333333333,98.36226851851853,1029.5,98.35694444444445C1031.9166666666667,98.35162037037038,1034.3333333333333,98.34629629629629,1036.75,98.34097222222222C1039.1666666666667,98.33564814814815,1041.5833333333333,98.33032407407407,1044,98.325C1046.4166666666667,98.31967592592594,1048.8333333333333,98.31435185185185,1051.25,98.30902777777777C1053.6666666666667,98.30370370370369,1056.0833333333333,98.29837962962962,1058.5,98.29305555555555C1060.9166666666667,98.28773148148149,1063.3333333333333,98.28240740740742,1065.75,98.27708333333334C1068.1666666666667,98.27175925925926,1070.5833333333333,98.26643518518517,1073,98.2611111111111C1075.4166666666667,98.25578703703704,1077.8333333333333,98.25046296296296,1080.25,98.24513888888889C1082.6666666666667,98.23981481481482,1085.0833333333333,98.23449074074074,1087.5,98.22916666666667C1089.9166666666667,98.2238425925926,1092.3333333333333,98.21851851851852,1094.75,98.21319444444445C1097.1666666666667,98.20787037037039,1099.5833333333333,98.2025462962963,1102,98.19722222222222C1104.4166666666667,98.19189814814814,1106.8333333333333,98.18657407407409,1109.25,98.18125C1111.6666666666667,98.17592592592592,1114.0833333333333,98.17060185185184,1116.5,98.16527777777777C1118.9166666666667,98.1599537037037,1121.3333333333333,98.15462962962962,1123.75,98.14930555555556C1126.1666666666667,98.14398148148149,1128.5833333333333,98.13865740740741,1131,98.13333333333333C1133.4166666666667,98.12800925925924,1135.8333333333333,98.12268518518518,1138.25,98.11736111111111C1140.6666666666667,98.11203703703704,1143.0833333333333,98.10671296296297,1145.5,98.10138888888889C1147.9166666666667,98.09606481481481,1150.3333333333333,98.09074074074073,1152.75,98.08541666666666C1155.1666666666667,98.08009259259259,1157.5833333333333,98.07476851851852,1160,98.06944444444446C1162.4166666666667,98.06412037037039,1164.8333333333333,98.0587962962963,1167.25,98.05347222222223C1169.6666666666667,98.04814814814816,1172.0833333333333,98.04282407407408,1174.5,98.03750000000001C1176.9166666666667,98.03217592592594,1179.3333333333333,98.02685185185186,1181.75,98.02152777777778C1184.1666666666667,98.0162037037037,1186.5833333333333,98.01087962962964,1189,98.00555555555556C1191.4166666666667,98.00023148148148,1193.8333333333333,97.9949074074074,1196.25,97.98958333333333C1198.6666666666667,97.98425925925926,1201.0833333333333,97.97893518518518,1203.5,97.97361111111111C1205.9166666666667,97.96828703703704,1208.3333333333333,97.96296296296296,1210.75,97.95763888888888C1213.1666666666667,97.9523148148148,1215.5833333333333,97.94699074074073,1218,97.94166666666666C1220.4166666666667,97.9363425925926,1222.8333333333333,97.93101851851853,1225.25,97.92569444444445C1227.6666666666667,97.92037037037036,1230.0833333333333,97.91504629629628,1232.5,97.90972222222221C1234.9166666666667,97.90439814814815,1237.3333333333333,97.89907407407408,1239.75,97.89375000000001C1242.1666666666667,97.88842592592594,1244.5833333333333,97.88310185185185,1247,97.87777777777778C1249.4166666666667,97.87245370370371,1251.8333333333333,97.86712962962963,1254.25,97.86180555555556C1256.6666666666667,97.8564814814815,1259.0833333333333,97.85115740740741,1261.5,97.84583333333333C1263.9166666666667,97.84050925925925,1266.3333333333333,97.8351851851852,1268.75,97.82986111111111C1271.1666666666667,97.82453703703703,1273.5833333333333,97.81921296296295,1276,97.81388888888888C1278.4166666666667,97.80856481481482,1280.8333333333333,97.80324074074073,1283.25,97.79791666666667C1285.6666666666667,97.7925925925926,1288.0833333333333,97.78726851851852,1290.5,97.78194444444445C1292.9166666666667,97.77662037037038,1295.3333333333333,97.7712962962963,1297.75,97.76597222222222C1300.1666666666667,97.76064814814814,1302.5833333333333,97.76064814814815,1305,97.75C1307.4166666666667,97.73935185185185,1309.8333333333333,94.875,1312.25,93.4375C1314.6666666666667,92,1317.0833333333333,90.5625,1319.5,89.125C1321.9166666666667,87.6875,1324.3333333333333,86.25,1326.75,84.8125C1329.1666666666667,83.375,1331.5833333333333,81.9375,1334,80.5C1336.4166666666667,79.0625,1338.8333333333333,77.625,1341.25,76.1875C1343.6666666666667,74.75,1346.0833333333333,73.3125,1348.5,71.875C1350.9166666666667,70.4375,1353.3333333333333,69,1355.75,67.5625C1358.1666666666667,66.125,1360.5833333333333,64.68750000000001,1363,63.25000000000001C1365.4166666666667,61.81250000000001,1367.8333333333333,60.37499999999999,1370.25,58.93749999999999C1372.6666666666667,57.49999999999999,1375.0833333333333,56.0625,1377.5,54.625C1379.9166666666667,53.1875,1382.3333333333333,51.75,1384.75,50.3125C1387.1666666666667,48.875,1389.5833333333333,47.4375,1392,46C1394.4166666666667,44.5625,1396.8333333333333,43.12500000000001,1399.25,41.68750000000001C1401.6666666666667,40.25000000000001,1404.0833333333333,38.81249999999999,1406.5,37.37499999999999C1408.9166666666667,35.93749999999999,1411.3333333333333,34.50000000000001,1413.75,33.06250000000001C1416.1666666666667,31.625000000000007,1418.5833333333333,30.1875,1421,28.75C1423.4166666666667,27.3125,1425.8333333333333,25.875000000000004,1428.25,24.437500000000004C1430.6666666666667,23.000000000000004,1433.0833333333333,21.562500000000004,1435.5,20.125000000000004C1437.9166666666667,18.687500000000004,1440.3333333333333,17.249999999999996,1442.75,15.812499999999995C1445.1666666666667,14.374999999999995,1447.5833333333333,12.937499999999996,1450,11.499999999999998" fill="transparent" stroke-linecap="round" stroke="#E7C6DF" stroke-width="2"></path><g class="visx-group visx-axis visx-axis-bottom" transform="translate(0, 115)"><g class="visx-group visx-axis-tick" transform="translate(0, 0)"><line class="visx-line" x1="0" y1="0" x2="0" y2="8" fill="transparent" shape-rendering="crispEdges" stroke="#000" stroke-width="0" stroke-linecap="square"></line><svg x="0" y="0" font-size="10" style="overflow:visible"><text transform="" x="0" y="18" fill="#000" font-size="10" text-anchor="middle"><tspan x="0" dy="0em">0%</tspan></text></svg></g><g class="visx-group visx-axis-tick" transform="translate(0, 0)"><line class="visx-line" x1="362.5" y1="0" x2="362.5" y2="8" fill="transparent" shape-rendering="crispEdges" stroke="#000" stroke-width="0" stroke-linecap="square"></line><svg x="0" y="0" font-size="10" style="overflow:visible"><text transform="" x="362.5" y="18" fill="#000" font-size="10" text-anchor="middle"><tspan x="362.5" dy="0em">25%</tspan></text></svg></g><g class="visx-group visx-axis-tick" transform="translate(0, 0)"><line class="visx-line" x1="725" y1="0" x2="725" y2="8" fill="transparent" shape-rendering="crispEdges" stroke="#000" stroke-width="0" stroke-linecap="square"></line><svg x="0" y="0" font-size="10" style="overflow:visible"><text transform="" x="725" y="18" fill="#000" font-size="10" text-anchor="middle"><tspan x="725" dy="0em">50%</tspan></text></svg></g><g class="visx-group visx-axis-tick" transform="translate(0, 0)"><line class="visx-line" x1="1087.5" y1="0" x2="1087.5" y2="8" fill="transparent" shape-rendering="crispEdges" stroke="#000" stroke-width="0" stroke-linecap="square"></line><svg x="0" y="0" font-size="10" style="overflow:visible"><text transform="" x="1087.5" y="18" fill="#000" font-size="10" text-anchor="middle"><tspan x="1087.5" dy="0em">75%</tspan></text></svg></g><g class="visx-group visx-axis-tick" transform="translate(0, 0)"><line class="visx-line" x1="1450" y1="0" x2="1450" y2="8" fill="transparent" shape-rendering="crispEdges" stroke="#000" stroke-width="0" stroke-linecap="square"></line><svg x="0" y="0" font-size="10" style="overflow:visible"><text transform="" x="1450" y="18" fill="#000" font-size="10" text-anchor="middle"><tspan x="1450" dy="0em">100%</tspan></text></svg></g><line class="visx-line visx-axis-line" x1="0.5" y1="0" x2="1450.5" y2="0" fill="transparent" shape-rendering="crispEdges" stroke="#222" stroke-width="0"></line></g><g class="visx-group visx-axis visx-axis-left" transform="translate(0, 0)"><g class="visx-group visx-axis-tick" transform="translate(0, 0)"><line class="visx-line" x1="0" y1="115" x2="-8" y2="115" fill="transparent" shape-rendering="crispEdges" stroke="#222" stroke-width="0" stroke-linecap="square"></line><svg x="-30" y="0" font-size="8" style="overflow:visible"><text transform="" x="-8" y="115" fill="#000" font-size="8" text-anchor="start"><tspan x="-8" dy="0em">0%</tspan></text></svg></g><g class="visx-group visx-axis-tick" transform="translate(0, 0)"><line class="visx-line" x1="0" y1="43.125" x2="-8" y2="43.125" fill="transparent" shape-rendering="crispEdges" stroke="#222" stroke-width="0" stroke-linecap="square"></line><svg x="-30" y="0" font-size="8" style="overflow:visible"><text transform="" x="-8" y="43.125" fill="#000" font-size="8" text-anchor="start"><tspan x="-8" dy="0em">50%</tspan></text></svg></g><line class="visx-line visx-axis-line" x1="0" y1="115.5" x2="0" y2="0.5" fill="transparent" shape-rendering="crispEdges" stroke="#222" stroke-width="0"></line></g><rect class="visx-bar" width="1450" height="115" fill="transparent"></rect><line class="visx-line" x1="1305" y1="28" x2="1305" y2="115" fill="transparent" shape-rendering="crispEdges" stroke="#0062D2" stroke-width="1" pointer-events="none" stroke-dasharray="5,2"></line><svg x="0" y="0" font-size="10px" style="overflow:visible"><text transform="" x="1305" y="20" font-size="10px" fill="#fff" stroke="#fff" stroke-width="0.8em" text-anchor="middle"><tspan x="1305" dy="0.355em">Optimal 90%</tspan></text></svg><svg x="0" y="0" font-size="10px" style="overflow:visible"><text transform="" x="1305" y="20" font-size="10px" fill="#62677B" text-anchor="middle"><tspan x="1305" dy="0.355em">Optimal 90%</tspan></text></svg></g></svg>