<?xml version="1.0"?><svg xmlns="http://www.w3.org/2000/svg" xmlns:xlink= "http://www.w3.org/1999/xlink" style="background: white;" width="1500" height="300"> <g style="color: black; font-size: 13px; font-family: sans-serif; transform: translate(18px, 25px);"><g><circle r="3" cx="-6" cy="-5" style="fill: #1AD4B3" /><text>Borrow APR, variable</text></g><g style="transform: translateX(150px);"><circle r="3" cx="-6" cy="-5" style="fill: #101423" /><text>Borrow APR, stable</text></g></g><g class="visx-group" transform="translate(45, 50)"><g class="visx-group visx-rows" transform="translate(0, 0)"><line class="visx-line" x1="0" y1="155" x2="1425" y2="155" fill="transparent" shape-rendering="crispEdges" stroke="#F2F0F9" stroke-width="1" pointer-events="none"></line><line class="visx-line" x1="0" y1="95.38461538461539" x2="1425" y2="95.38461538461539" fill="transparent" shape-rendering="crispEdges" stroke="#F2F0F9" stroke-width="1" pointer-events="none"></line><line class="visx-line" x1="0" y1="35.76923076923076" x2="1425" y2="35.76923076923076" fill="transparent" shape-rendering="crispEdges" stroke="#F2F0F9" stroke-width="1" pointer-events="none"></line></g><path class="visx-linepath" d="M0,154.99999999982114C2.375,154.97019230758798,4.75,154.9403846153548,7.125,154.91057692307692C9.5,154.88076923079905,11.875,154.85096153846152,14.25,154.82115384615383C16.625,154.79134615384615,19,154.76153846153846,21.375,154.73173076923078C23.75,154.7019230769231,26.125,154.67211538461538,28.5,154.6423076923077C30.875,154.6125,33.25,154.5826923076923,35.625,154.5528846153846C38,154.52307692307693,40.375,154.49326923076922,42.75,154.46346153846153C45.125,154.43365384615385,47.50000000000001,154.40384615384613,49.87500000000001,154.37403846153845C52.25000000000001,154.34423076923076,54.625,154.31442307692308,57,154.2846153846154C59.375,154.2548076923077,61.75,154.225,64.125,154.1951923076923C66.5,154.16538461538462,68.875,154.1355769230769,71.25,154.10576923076923C73.625,154.07596153846154,76,154.04615384615383,78.375,154.01634615384614C80.75,153.98653846153846,83.125,153.95673076923077,85.5,153.9269230769231C87.875,153.8971153846154,90.25,153.8673076923077,92.625,153.8375C95,153.80769230769232,97.37500000000001,153.7778846153846,99.75000000000001,153.74807692307692C102.12500000000001,153.71826923076924,104.5,153.68846153846152,106.875,153.65865384615384C109.25,153.62884615384615,111.625,153.59903846153844,114,153.56923076923076C116.375,153.53942307692307,118.75000000000001,153.5096153846154,121.12500000000001,153.4798076923077C123.50000000000001,153.45000000000002,125.875,153.4201923076923,128.25,153.39038461538462C130.625,153.36057692307693,133,153.33076923076922,135.375,153.30096153846154C137.75,153.27115384615385,140.125,153.24134615384617,142.5,153.21153846153848C144.875,153.1817307692308,147.25,153.15192307692305,149.625,153.12211538461537C152,153.09230769230768,154.375,153.0625,156.75,153.03269230769232C159.125,153.00288461538463,161.5,152.97307692307692,163.875,152.94326923076923C166.25,152.91346153846155,168.625,152.88365384615383,171,152.85384615384615C173.375,152.82403846153846,175.75,152.79423076923078,178.125,152.7644230769231C180.5,152.7346153846154,182.875,152.7048076923077,185.25,152.675C187.625,152.64519230769233,190,152.6153846153846,192.375,152.58557692307693C194.75,152.55576923076924,197.12500000000003,152.52596153846153,199.50000000000003,152.49615384615385C201.875,152.46634615384616,204.25,152.43653846153845,206.62499999999997,152.40673076923076C208.99999999999997,152.37692307692308,211.375,152.34711538461536,213.75,152.31730769230768C216.125,152.2875,218.5,152.2576923076923,220.875,152.22788461538462C223.25,152.19807692307694,225.625,152.16826923076923,228,152.13846153846154C230.375,152.10865384615386,232.75,152.07884615384614,235.125,152.04903846153846C237.5,152.01923076923077,239.87500000000003,151.98942307692306,242.25000000000003,151.95961538461538C244.625,151.9298076923077,247,151.89999999999998,249.37499999999997,151.8701923076923C251.74999999999997,151.8403846153846,254.125,151.81057692307692,256.5,151.78076923076924C258.875,151.75096153846155,261.25,151.72115384615384,263.625,151.69134615384615C266,151.66153846153847,268.375,151.63173076923076,270.75,151.60192307692307C273.125,151.5721153846154,275.5,151.5423076923077,277.875,151.51250000000002C280.25,151.48269230769233,282.625,151.4528846153846,285,151.4230769230769C287.375,151.39326923076922,289.75,151.36346153846154,292.125,151.33365384615385C294.5,151.30384615384617,296.875,151.27403846153845,299.25,151.24423076923077C301.625,151.21442307692308,304,151.18461538461537,306.375,151.15480769230768C308.75,151.125,311.125,151.09519230769232,313.5,151.06538461538463C315.875,151.03557692307695,318.25,151.00576923076923,320.625,150.97596153846155C323,150.94615384615386,325.375,150.91634615384615,327.75,150.88653846153846C330.125,150.85673076923078,332.5,150.82692307692307,334.875,150.79711538461538C337.25,150.7673076923077,339.625,150.73749999999998,342,150.7076923076923C344.375,150.6778846153846,346.75,150.64807692307693,349.125,150.61826923076924C351.5,150.58846153846156,353.875,150.55865384615385,356.25,150.52884615384616C358.625,150.49903846153848,361,150.46923076923076,363.375,150.43942307692308C365.75,150.4096153846154,368.125,150.37980769230768,370.5,150.35C372.875,150.3201923076923,375.25,150.29038461538462,377.625,150.26057692307694C380,150.23076923076925,382.375,150.2009615384615,384.75,150.17115384615383C387.125,150.14134615384614,389.50000000000006,150.11153846153846,391.87500000000006,150.08173076923077C394.25000000000006,150.0519230769231,396.62500000000006,150.02211538461538,399.00000000000006,149.9923076923077C401.375,149.9625,403.75,149.9326923076923,406.12499999999994,149.9028846153846C408.49999999999994,149.87307692307692,410.87499999999994,149.84326923076924,413.24999999999994,149.81346153846155C415.62499999999994,149.78365384615387,418,149.75384615384615,420.375,149.72403846153847C422.75,149.69423076923078,425.125,149.66442307692307,427.5,149.6346153846154C429.875,149.6048076923077,432.25,149.575,434.625,149.5451923076923C437,149.51538461538462,439.375,149.4855769230769,441.75,149.45576923076922C444.125,149.42596153846154,446.5,149.39615384615385,448.875,149.36634615384617C451.25,149.33653846153848,453.625,149.30673076923077,456,149.27692307692308C458.375,149.2471153846154,460.75,149.21730769230768,463.125,149.1875C465.5,149.15769230769232,467.875,149.1278846153846,470.25,149.09807692307692C472.625,149.06826923076923,475.00000000000006,149.03846153846152,477.37500000000006,149.00865384615383C479.75000000000006,148.97884615384615,482.12500000000006,148.94903846153846,484.50000000000006,148.91923076923078C486.875,148.8894230769231,489.25,148.85961538461538,491.62499999999994,148.8298076923077C493.99999999999994,148.8,496.37499999999994,148.7701923076923,498.74999999999994,148.7403846153846C501.12499999999994,148.71057692307693,503.5,148.68076923076922,505.875,148.65096153846153C508.25,148.62115384615385,510.625,148.59134615384616,513,148.56153846153848C515.375,148.5317307692308,517.75,148.50192307692308,520.125,148.4721153846154C522.5,148.4423076923077,524.875,148.4125,527.25,148.3826923076923C529.625,148.35288461538462,532,148.3230769230769,534.375,148.29326923076923C536.75,148.26346153846154,539.125,148.23365384615383,541.5,148.20384615384614C543.875,148.17403846153846,546.25,148.14423076923077,548.625,148.1144230769231C551,148.0846153846154,553.375,148.0548076923077,555.75,148.025C558.125,147.99519230769232,560.5,147.9653846153846,562.875,147.93557692307692C565.25,147.90576923076924,567.625,147.87596153846152,570,147.84615384615384C572.375,147.81634615384615,574.75,147.78653846153844,577.125,147.75673076923076C579.5,147.72692307692307,581.875,147.6971153846154,584.25,147.6673076923077C586.625,147.63750000000002,589,147.6076923076923,591.375,147.57788461538462C593.75,147.54807692307693,596.125,147.51826923076922,598.5,147.48846153846154C600.875,147.45865384615385,603.25,147.42884615384614,605.625,147.39903846153845C608,147.36923076923077,610.375,147.33942307692308,612.75,147.3096153846154C615.125,147.2798076923077,617.5,147.25,619.875,147.22019230769232C622.25,147.19038461538463,624.625,147.16057692307692,627,147.13076923076923C629.375,147.10096153846155,631.75,147.07115384615383,634.125,147.04134615384615C636.5,147.01153846153846,638.875,146.98173076923075,641.25,146.95192307692307C643.625,146.92211538461538,646,146.8923076923077,648.375,146.8625C650.75,146.83269230769233,653.125,146.8028846153846,655.5,146.77307692307693C657.875,146.74326923076924,660.25,146.71346153846153,662.625,146.68365384615385C665,146.65384615384616,667.375,146.62403846153845,669.75,146.59423076923076C672.125,146.56442307692308,674.5,146.53461538461536,676.875,146.50480769230768C679.25,146.475,681.625,146.4451923076923,684,146.41538461538462C686.375,146.38557692307694,688.75,146.35576923076923,691.125,146.32596153846154C693.5,146.29615384615386,695.875,146.26634615384614,698.25,146.23653846153846C700.625,146.20673076923077,703,146.1769230769231,705.375,146.1471153846154C707.75,146.11730769230772,710.125,146.08749999999998,712.5,146.0576923076923C714.875,146.0278846153846,717.25,145.99807692307692,719.625,145.96826923076924C722,145.93846153846155,724.375,145.90865384615384,726.75,145.87884615384615C729.125,145.84903846153847,731.5,145.81923076923076,733.875,145.78942307692307C736.25,145.7596153846154,738.625,145.72980769230767,741,145.7C743.375,145.6701923076923,745.75,145.64038461538462,748.125,145.61057692307693C750.5,145.58076923076925,752.875,145.55096153846154,755.25,145.52115384615385C757.625,145.49134615384617,760,145.46153846153845,762.375,145.43173076923077C764.75,145.40192307692308,767.125,145.37211538461537,769.5,145.34230769230768C771.875,145.3125,774.2500000000001,145.2826923076923,776.6250000000001,145.2528846153846C779.0000000000001,145.22307692307692,781.3750000000001,145.19326923076923,783.7500000000001,145.16346153846155C786.1250000000001,145.13365384615386,788.5000000000001,145.10384615384615,790.8750000000001,145.07403846153846C793.2500000000001,145.04423076923078,795.6250000000001,145.01442307692307,798.0000000000001,144.98461538461538C800.375,144.9548076923077,802.75,144.925,805.1249999999999,144.89519230769233C807.4999999999999,144.86538461538464,809.8749999999999,144.8355769230769,812.2499999999999,144.80576923076922C814.6249999999999,144.77596153846153,816.9999999999999,144.74615384615385,819.3749999999999,144.71634615384616C821.7499999999999,144.68653846153848,824.1249999999999,144.65673076923076,826.4999999999999,144.62692307692308C828.8749999999999,144.5971153846154,831.25,144.56730769230768,833.625,144.5375C836,144.5076923076923,838.375,144.47788461538462,840.75,144.44807692307694C843.125,144.41826923076925,845.5,144.38846153846154,847.875,144.35865384615386C850.25,144.32884615384617,852.625,144.29903846153846,855,144.26923076923077C857.375,144.2394230769231,859.75,144.20961538461538,862.125,144.1798076923077C864.5,144.15,866.875,144.1201923076923,869.25,144.0903846153846C871.625,144.06057692307692,874,144.0307692307692,876.375,144.00096153846152C878.75,143.97115384615384,881.125,143.94134615384615,883.5,143.91153846153847C885.875,143.88173076923078,888.25,143.85192307692307,890.625,143.8221153846154C893,143.7923076923077,895.375,143.7625,897.75,143.7326923076923C900.125,143.70288461538462,902.5,143.6730769230769,904.875,143.64326923076922C907.25,143.61346153846154,909.625,143.58365384615382,912,143.55384615384614C914.375,143.52403846153845,916.75,143.49423076923077,919.125,143.46442307692308C921.5,143.4346153846154,923.875,143.40480769230768,926.25,143.375C928.625,143.34519230769232,931,143.3153846153846,933.375,143.28557692307692C935.75,143.25576923076923,938.125,143.22596153846155,940.5,143.19615384615386C942.875,143.16634615384618,945.25,143.13653846153844,947.625,143.10673076923075C950,143.07692307692307,952.3750000000001,143.04711538461538,954.7500000000001,143.0173076923077C957.1250000000001,142.9875,959.5000000000001,142.9576923076923,961.8750000000001,142.9278846153846C964.2500000000001,142.89807692307693,966.6250000000001,142.86826923076922,969.0000000000001,142.83846153846153C971.3750000000001,142.80865384615385,973.7500000000001,142.77884615384616,976.1250000000001,142.74903846153848C978.5,142.7192307692308,980.875,142.68942307692308,983.2499999999999,142.6596153846154C985.6249999999999,142.6298076923077,987.9999999999999,142.6,990.3749999999999,142.5701923076923C992.7499999999999,142.54038461538462,995.1249999999999,142.5105769230769,997.4999999999999,142.48076923076923C999.8749999999999,142.45096153846154,1002.2499999999999,142.42115384615383,1004.6249999999999,142.39134615384614C1006.9999999999999,142.36153846153846,1009.375,142.33173076923075,1011.75,142.30192307692306C1014.125,142.27211538461538,1016.5,142.2423076923077,1018.875,142.2125C1021.25,142.18269230769232,1023.625,142.1528846153846,1026,142.12307692307692C1028.375,142.09326923076924,1030.75,142.06346153846152,1033.125,142.03365384615384C1035.5,142.00384615384615,1037.875,141.97403846153847,1040.25,141.94423076923078C1042.625,141.9144230769231,1045,141.88461538461536,1047.375,141.85480769230767C1049.75,141.825,1052.125,141.7951923076923,1054.5,141.76538461538462C1056.875,141.73557692307693,1059.25,141.70576923076922,1061.625,141.67596153846154C1064,141.64615384615385,1066.375,141.61634615384614,1068.75,141.58653846153845C1071.125,141.55673076923077,1073.5,141.52692307692308,1075.875,141.4971153846154C1078.25,141.4673076923077,1080.625,141.43749999999997,1083,141.4076923076923C1085.375,141.3778846153846,1087.75,141.34807692307692,1090.125,141.31826923076923C1092.5,141.28846153846155,1094.875,141.25865384615383,1097.25,141.22884615384615C1099.625,141.19903846153846,1102,141.16923076923075,1104.375,141.13942307692307C1106.75,141.10961538461538,1109.125,141.0798076923077,1111.5,141.05C1113.875,141.02019230769233,1116.25,140.9903846153846,1118.625,140.96057692307693C1121,140.93076923076924,1123.375,140.90096153846153,1125.75,140.87115384615385C1128.125,140.84134615384616,1130.5,140.81153846153848,1132.875,140.7817307692308C1135.25,140.7519230769231,1137.625,140.75192307692308,1140,140.69230769230768C1142.375,140.63269230769228,1144.75,138.7051282051282,1147.125,137.71153846153845C1149.5,136.7179487179487,1151.875,135.72435897435898,1154.25,134.73076923076923C1156.625,133.73717948717947,1159,132.74358974358975,1161.375,131.75C1163.75,130.75641025641025,1166.125,129.7628205128205,1168.5,128.76923076923075C1170.875,127.775641025641,1173.25,126.78205128205127,1175.625,125.78846153846153C1178,124.7948717948718,1180.375,123.80128205128204,1182.75,122.8076923076923C1185.125,121.81410256410257,1187.5,120.82051282051282,1189.875,119.82692307692308C1192.25,118.83333333333334,1194.625,117.83974358974358,1197,116.84615384615384C1199.375,115.8525641025641,1201.75,114.85897435897436,1204.125,113.86538461538463C1206.5,112.87179487179489,1208.875,111.87820512820514,1211.25,110.88461538461539C1213.625,109.89102564102564,1216,108.89743589743588,1218.375,107.90384615384615C1220.75,106.91025641025641,1223.125,105.91666666666667,1225.5,104.92307692307693C1227.875,103.9294871794872,1230.25,102.93589743589745,1232.625,101.9423076923077C1235,100.94871794871794,1237.375,99.95512820512819,1239.75,98.96153846153845C1242.125,97.96794871794872,1244.5,96.97435897435898,1246.875,95.98076923076924C1249.25,94.9871794871795,1251.625,93.99358974358975,1254,93C1256.375,92.00641025641025,1258.75,91.0128205128205,1261.125,90.01923076923076C1263.5,89.02564102564102,1265.875,88.03205128205127,1268.25,87.03846153846153C1270.625,86.0448717948718,1273,85.05128205128207,1275.375,84.05769230769232C1277.75,83.06410256410257,1280.125,82.07051282051282,1282.5,81.07692307692307C1284.875,80.08333333333331,1287.25,79.08974358974358,1289.625,78.09615384615384C1292,77.1025641025641,1294.375,76.10897435897436,1296.75,75.11538461538463C1299.125,74.12179487179489,1301.5,73.12820512820514,1303.875,72.13461538461539C1306.25,71.14102564102564,1308.625,70.14743589743588,1311,69.15384615384615C1313.375,68.16025641025641,1315.75,67.16666666666667,1318.125,66.17307692307693C1320.5,65.1794871794872,1322.875,64.18589743589745,1325.25,63.19230769230769C1327.625,62.19871794871795,1330,61.2051282051282,1332.375,60.21153846153845C1334.75,59.21794871794871,1337.125,58.22435897435898,1339.5,57.23076923076923C1341.875,56.23717948717949,1344.25,55.243589743589745,1346.625,54.25C1349,53.256410256410255,1351.375,52.26282051282052,1353.75,51.269230769230774C1356.125,50.27564102564103,1358.5,49.282051282051285,1360.875,48.28846153846154C1363.25,47.294871794871796,1365.625,46.301282051282044,1368,45.3076923076923C1370.375,44.314102564102555,1372.75,43.320512820512825,1375.125,42.32692307692308C1377.5,41.333333333333336,1379.875,40.33974358974359,1382.25,39.34615384615385C1384.625,38.3525641025641,1387,37.35897435897437,1389.375,36.36538461538463C1391.75,35.37179487179488,1394.125,34.37820512820513,1396.5,33.38461538461539C1398.875,32.39102564102564,1401.25,31.39743589743589,1403.625,30.40384615384615C1406,29.41025641025641,1408.375,28.416666666666675,1410.75,27.42307692307693C1413.125,26.429487179487186,1415.5,25.435897435897438,1417.875,24.44230769230769C1420.25,23.448717948717942,1422.625,22.45512820512819,1425,21.46153846153844" fill="transparent" stroke-linecap="round" stroke="#1AD4B3" stroke-width="2"></path><g class="visx-group visx-axis visx-axis-bottom" transform="translate(0, 155)"><g class="visx-group visx-axis-tick" transform="translate(0, 0)"><line class="visx-line" x1="0" y1="0" x2="0" y2="8" fill="transparent" shape-rendering="crispEdges" stroke="#F2F0F9" stroke-width="1" stroke-linecap="square"></line><svg x="0" y="0" font-size="11" style="overflow:visible"><text transform="" x="0" y="19" fill="#1B2030" font-size="11" text-anchor="middle"><tspan x="0" dy="0em">0%</tspan></text></svg></g><g class="visx-group visx-axis-tick" transform="translate(0, 0)"><line class="visx-line" x1="356.25" y1="0" x2="356.25" y2="8" fill="transparent" shape-rendering="crispEdges" stroke="#F2F0F9" stroke-width="1" stroke-linecap="square"></line><svg x="0" y="0" font-size="11" style="overflow:visible"><text transform="" x="356.25" y="19" fill="#1B2030" font-size="11" text-anchor="middle"><tspan x="356.25" dy="0em">25%</tspan></text></svg></g><g class="visx-group visx-axis-tick" transform="translate(0, 0)"><line class="visx-line" x1="712.5" y1="0" x2="712.5" y2="8" fill="transparent" shape-rendering="crispEdges" stroke="#F2F0F9" stroke-width="1" stroke-linecap="square"></line><svg x="0" y="0" font-size="11" style="overflow:visible"><text transform="" x="712.5" y="19" fill="#1B2030" font-size="11" text-anchor="middle"><tspan x="712.5" dy="0em">50%</tspan></text></svg></g><g class="visx-group visx-axis-tick" transform="translate(0, 0)"><line class="visx-line" x1="1068.75" y1="0" x2="1068.75" y2="8" fill="transparent" shape-rendering="crispEdges" stroke="#F2F0F9" stroke-width="1" stroke-linecap="square"></line><svg x="0" y="0" font-size="11" style="overflow:visible"><text transform="" x="1068.75" y="19" fill="#1B2030" font-size="11" text-anchor="middle"><tspan x="1068.75" dy="0em">75%</tspan></text></svg></g><g class="visx-group visx-axis-tick" transform="translate(0, 0)"><line class="visx-line" x1="1425" y1="0" x2="1425" y2="8" fill="transparent" shape-rendering="crispEdges" stroke="#F2F0F9" stroke-width="1" stroke-linecap="square"></line><svg x="0" y="0" font-size="11" style="overflow:visible"><text transform="" x="1425" y="19" fill="#1B2030" font-size="11" text-anchor="middle"><tspan x="1425" dy="0em">100%</tspan></text></svg></g></g><g class="visx-group visx-axis visx-axis-left" transform="translate(0, 0)"><g class="visx-group visx-axis-tick" transform="translate(0, 0)"><line class="visx-line" x1="0" y1="155" x2="-8" y2="155" fill="transparent" shape-rendering="crispEdges" stroke="#F2F0F9" stroke-width="1" stroke-linecap="square"></line><svg x="-30" y="0" font-size="11" style="overflow:visible"><text transform="" x="-8" y="155" fill="#1B2030" font-size="11" text-anchor="start"><tspan x="-8" dy="0em">0%</tspan></text></svg></g><g class="visx-group visx-axis-tick" transform="translate(0, 0)"><line class="visx-line" x1="0" y1="95.38461538461539" x2="-8" y2="95.38461538461539" fill="transparent" shape-rendering="crispEdges" stroke="#F2F0F9" stroke-width="1" stroke-linecap="square"></line><svg x="-30" y="0" font-size="11" style="overflow:visible"><text transform="" x="-8" y="95.38461538461539" fill="#1B2030" font-size="11" text-anchor="start"><tspan x="-8" dy="0em">50%</tspan></text></svg></g><g class="visx-group visx-axis-tick" transform="translate(0, 0)"><line class="visx-line" x1="0" y1="35.76923076923076" x2="-8" y2="35.76923076923076" fill="transparent" shape-rendering="crispEdges" stroke="#F2F0F9" stroke-width="1" stroke-linecap="square"></line><svg x="-30" y="0" font-size="11" style="overflow:visible"><text transform="" x="-8" y="35.76923076923076" fill="#1B2030" font-size="11" text-anchor="start"><tspan x="-8" dy="0em">100%</tspan></text></svg></g><line class="visx-line visx-axis-line" x1="0" y1="155.5" x2="0" y2="0.5" fill="transparent" shape-rendering="crispEdges" stroke="#F2F0F9" stroke-width="1"></line></g><rect class="visx-bar" width="1425" height="155" fill="transparent"></rect><line class="visx-line" x1="1140" y1="58" x2="1140" y2="155" fill="transparent" shape-rendering="crispEdges" stroke="#CDC8E1" stroke-width="1" pointer-events="none" stroke-dasharray="5"></line><svg x="0" y="0" font-size="11px" style="overflow:visible"><text transform="" x="1140" y="50" font-size="11px" fill="#555069" stroke="#FFFFFF" stroke-width="1px" text-anchor="middle"><tspan x="1140" dy="0.355em">uOptimal 80%</tspan></text></svg><svg x="0" y="0" font-size="11px" style="overflow:visible"><text transform="" x="1140" y="50" font-size="11px" fill="#CDC8E1" text-anchor="middle"><tspan x="1140" dy="0.355em">uOptimal 80%</tspan></text></svg></g></svg>