<?xml version="1.0"?><svg xmlns="http://www.w3.org/2000/svg" xmlns:xlink= "http://www.w3.org/1999/xlink" style="background: white;" width="1500" height="185"> <g style="color: black; font-size: 13px; font-family: sans-serif; transform: translate(18px, 25px);"><g><circle r="3" cx="-6" cy="-5" style="fill: #B6509E" /><text>Borrow APR, variable</text></g><g style="transform: translateX(150px);"><circle r="3" cx="-6" cy="-5" style="fill: rgb(231, 198, 223)" /><text>Borrow APR, stable</text></g><g style="transform: translateX(290px);"><circle r="3" cx="-6" cy="-5" style="fill: rgb(0, 98, 210)" /><text>Utilization Rate</text></g></g><g class="visx-group" transform="translate(40, 50)"><g class="visx-group visx-rows" transform="translate(0, 0)"><line class="visx-line" x1="0" y1="115" x2="1450" y2="115" fill="transparent" shape-rendering="crispEdges" stroke="#000" stroke-width="1" stroke-dasharray="3,3" pointer-events="none"></line><line class="visx-line" x1="0" y1="67.08333333333333" x2="1450" y2="67.08333333333333" fill="transparent" shape-rendering="crispEdges" stroke="#000" stroke-width="1" stroke-dasharray="3,3" pointer-events="none"></line><line class="visx-line" x1="0" y1="19.16666666666666" x2="1450" y2="19.16666666666666" fill="transparent" shape-rendering="crispEdges" stroke="#000" stroke-width="1" stroke-dasharray="3,3" pointer-events="none"></line></g><path class="visx-linepath" d="M0,19.16666666666666C2.4166666666666665,19.16666666666666,4.833333333333334,19.16666666666666,7.25,19.16666666666666C9.666666666666666,19.16666666666666,12.083333333333334,19.16666666666666,14.5,19.16666666666666C16.916666666666668,19.16666666666666,19.333333333333332,19.16666666666666,21.75,19.16666666666666C24.166666666666668,19.16666666666666,26.583333333333332,19.16666666666666,29,19.16666666666666C31.416666666666668,19.16666666666666,33.833333333333336,19.16666666666666,36.25,19.16666666666666C38.666666666666664,19.16666666666666,41.083333333333336,19.16666666666666,43.5,19.16666666666666C45.91666666666667,19.16666666666666,48.333333333333336,19.16666666666666,50.75000000000001,19.16666666666666C53.16666666666667,19.16666666666666,55.583333333333336,19.16666666666666,58,19.16666666666666C60.416666666666664,19.16666666666666,62.833333333333336,19.16666666666666,65.25,19.16666666666666C67.66666666666667,19.16666666666666,70.08333333333333,19.16666666666666,72.5,19.16666666666666C74.91666666666667,19.16666666666666,77.33333333333333,19.16666666666666,79.75,19.16666666666666C82.16666666666667,19.16666666666666,84.58333333333333,19.16666666666666,87,19.16666666666666C89.41666666666667,19.16666666666666,91.83333333333333,19.16666666666666,94.25,19.16666666666666C96.66666666666667,19.16666666666666,99.08333333333334,19.16666666666666,101.50000000000001,19.16666666666666C103.91666666666667,19.16666666666666,106.33333333333334,19.16666666666666,108.75,19.16666666666666C111.16666666666667,19.16666666666666,113.58333333333333,19.16666666666666,116,19.16666666666666C118.41666666666667,19.16666666666666,120.83333333333334,19.16666666666666,123.25000000000001,19.16666666666666C125.66666666666667,19.16666666666666,128.08333333333334,19.16666666666666,130.5,19.16666666666666C132.91666666666666,19.16666666666666,135.33333333333334,19.16666666666666,137.75,19.16666666666666C140.16666666666666,19.16666666666666,142.58333333333334,19.16666666666666,145,19.16666666666666C147.41666666666666,19.16666666666666,149.83333333333334,19.16666666666666,152.25,19.16666666666666C154.66666666666666,19.16666666666666,157.08333333333334,19.16666666666666,159.5,19.16666666666666C161.91666666666666,19.16666666666666,164.33333333333334,19.16666666666666,166.75,19.16666666666666C169.16666666666666,19.16666666666666,171.58333333333334,19.16666666666666,174,19.16666666666666C176.41666666666666,19.16666666666666,178.83333333333334,19.16666666666666,181.25,19.16666666666666C183.66666666666666,19.16666666666666,186.08333333333334,19.16666666666666,188.5,19.16666666666666C190.91666666666666,19.16666666666666,193.33333333333334,19.16666666666666,195.75,19.16666666666666C198.16666666666669,19.16666666666666,200.58333333333334,19.16666666666666,203.00000000000003,19.16666666666666C205.41666666666669,19.16666666666666,207.83333333333331,19.16666666666666,210.24999999999997,19.16666666666666C212.66666666666666,19.16666666666666,215.08333333333331,19.16666666666666,217.5,19.16666666666666C219.91666666666666,19.16666666666666,222.33333333333334,19.16666666666666,224.75,19.16666666666666C227.16666666666666,19.16666666666666,229.58333333333334,19.16666666666666,232,19.16666666666666C234.41666666666666,19.16666666666666,236.83333333333334,19.16666666666666,239.25,19.16666666666666C241.66666666666669,19.16666666666666,244.08333333333334,19.16666666666666,246.50000000000003,19.16666666666666C248.91666666666669,19.16666666666666,251.33333333333331,19.16666666666666,253.74999999999997,19.16666666666666C256.16666666666663,19.16666666666666,258.5833333333333,19.16666666666666,261,19.16666666666666C263.4166666666667,19.16666666666666,265.8333333333333,19.16666666666666,268.25,19.16666666666666C270.6666666666667,19.16666666666666,273.0833333333333,19.16666666666666,275.5,19.16666666666666C277.9166666666667,19.16666666666666,280.3333333333333,19.16666666666666,282.75,19.16666666666666C285.1666666666667,19.16666666666666,287.5833333333333,19.16666666666666,290,19.16666666666666C292.4166666666667,19.16666666666666,294.8333333333333,19.16666666666666,297.25,19.16666666666666C299.6666666666667,19.16666666666666,302.0833333333333,19.16666666666666,304.5,19.16666666666666C306.9166666666667,19.16666666666666,309.3333333333333,19.16666666666666,311.75,19.16666666666666C314.1666666666667,19.16666666666666,316.5833333333333,19.16666666666666,319,19.16666666666666C321.4166666666667,19.16666666666666,323.8333333333333,19.16666666666666,326.25,19.16666666666666C328.6666666666667,19.16666666666666,331.0833333333333,19.16666666666666,333.5,19.16666666666666C335.9166666666667,19.16666666666666,338.3333333333333,19.16666666666666,340.75,19.16666666666666C343.1666666666667,19.16666666666666,345.5833333333333,19.16666666666666,348,19.16666666666666C350.4166666666667,19.16666666666666,352.8333333333333,19.16666666666666,355.25,19.16666666666666C357.6666666666667,19.16666666666666,360.0833333333333,19.16666666666666,362.5,19.16666666666666C364.9166666666667,19.16666666666666,367.3333333333333,19.16666666666666,369.75,19.16666666666666C372.1666666666667,19.16666666666666,374.5833333333333,19.16666666666666,377,19.16666666666666C379.4166666666667,19.16666666666666,381.8333333333333,19.16666666666666,384.25,19.16666666666666C386.6666666666667,19.16666666666666,389.0833333333333,19.16666666666666,391.5,19.16666666666666C393.9166666666667,19.16666666666666,396.33333333333337,19.16666666666666,398.75000000000006,19.16666666666666C401.16666666666674,19.16666666666666,403.58333333333337,19.16666666666666,406.00000000000006,19.16666666666666C408.4166666666667,19.16666666666666,410.8333333333333,19.16666666666666,413.24999999999994,19.16666666666666C415.66666666666663,19.16666666666666,418.08333333333326,19.16666666666666,420.49999999999994,19.16666666666666C422.91666666666663,19.16666666666666,425.3333333333333,19.16666666666666,427.75,19.16666666666666C430.1666666666667,19.16666666666666,432.5833333333333,19.16666666666666,435,19.16666666666666C437.4166666666667,19.16666666666666,439.8333333333333,19.16666666666666,442.25,19.16666666666666C444.6666666666667,19.16666666666666,447.0833333333333,19.16666666666666,449.5,19.16666666666666C451.9166666666667,19.16666666666666,454.3333333333333,19.16666666666666,456.75,19.16666666666666C459.1666666666667,19.16666666666666,461.5833333333333,19.16666666666666,464,19.16666666666666C466.4166666666667,19.16666666666666,468.8333333333333,19.16666666666666,471.25,19.16666666666666C473.6666666666667,19.16666666666666,476.0833333333333,19.16666666666666,478.5,19.16666666666666C480.9166666666667,19.16666666666666,483.33333333333337,19.16666666666666,485.75000000000006,19.16666666666666C488.16666666666674,19.16666666666666,490.58333333333337,19.16666666666666,493.00000000000006,19.16666666666666C495.4166666666667,19.16666666666666,497.8333333333333,19.16666666666666,500.24999999999994,19.16666666666666C502.66666666666663,19.16666666666666,505.08333333333326,19.16666666666666,507.49999999999994,19.16666666666666C509.91666666666663,19.16666666666666,512.3333333333333,19.16666666666666,514.75,19.16666666666666C517.1666666666666,19.16666666666666,519.5833333333334,19.16666666666666,522,19.16666666666666C524.4166666666666,19.16666666666666,526.8333333333334,19.16666666666666,529.25,19.16666666666666C531.6666666666666,19.16666666666666,534.0833333333334,19.16666666666666,536.5,19.16666666666666C538.9166666666666,19.16666666666666,541.3333333333334,19.16666666666666,543.75,19.16666666666666C546.1666666666666,19.16666666666666,548.5833333333334,19.16666666666666,551,19.16666666666666C553.4166666666666,19.16666666666666,555.8333333333334,19.16666666666666,558.25,19.16666666666666C560.6666666666666,19.16666666666666,563.0833333333334,19.16666666666666,565.5,19.16666666666666C567.9166666666666,19.16666666666666,570.3333333333334,19.16666666666666,572.75,19.16666666666666C575.1666666666666,19.16666666666666,577.5833333333334,19.16666666666666,580,19.16666666666666C582.4166666666666,19.16666666666666,584.8333333333334,19.16666666666666,587.25,19.16666666666666C589.6666666666666,19.16666666666666,592.0833333333334,19.16666666666666,594.5,19.16666666666666C596.9166666666666,19.16666666666666,599.3333333333334,19.16666666666666,601.75,19.16666666666666C604.1666666666666,19.16666666666666,606.5833333333334,19.16666666666666,609,19.16666666666666C611.4166666666666,19.16666666666666,613.8333333333334,19.16666666666666,616.25,19.16666666666666C618.6666666666666,19.16666666666666,621.0833333333334,19.16666666666666,623.5,19.16666666666666C625.9166666666666,19.16666666666666,628.3333333333334,19.16666666666666,630.75,19.16666666666666C633.1666666666666,19.16666666666666,635.5833333333334,19.16666666666666,638,19.16666666666666C640.4166666666666,19.16666666666666,642.8333333333334,19.16666666666666,645.25,19.16666666666666C647.6666666666666,19.16666666666666,650.0833333333334,19.16666666666666,652.5,19.16666666666666C654.9166666666666,19.16666666666666,657.3333333333334,19.16666666666666,659.75,19.16666666666666C662.1666666666666,19.16666666666666,664.5833333333334,19.16666666666666,667,19.16666666666666C669.4166666666666,19.16666666666666,671.8333333333334,19.16666666666666,674.25,19.16666666666666C676.6666666666666,19.16666666666666,679.0833333333334,19.16666666666666,681.5,19.16666666666666C683.9166666666666,19.16666666666666,686.3333333333334,19.16666666666666,688.75,19.16666666666666C691.1666666666666,19.16666666666666,693.5833333333334,19.16666666666666,696,19.16666666666666C698.4166666666666,19.16666666666666,700.8333333333334,19.16666666666666,703.25,19.16666666666666C705.6666666666666,19.16666666666666,708.0833333333334,19.16666666666666,710.5,19.16666666666666C712.9166666666666,19.16666666666666,715.3333333333334,19.16666666666666,717.75,19.16666666666666C720.1666666666666,19.16666666666666,722.5833333333334,19.16666666666666,725,19.16666666666666C727.4166666666666,19.16666666666666,729.8333333333334,19.16666666666666,732.25,19.16666666666666C734.6666666666666,19.16666666666666,737.0833333333334,19.16666666666666,739.5,19.16666666666666C741.9166666666666,19.16666666666666,744.3333333333334,19.16666666666666,746.75,19.16666666666666C749.1666666666666,19.16666666666666,751.5833333333334,19.16666666666666,754,19.16666666666666C756.4166666666666,19.16666666666666,758.8333333333334,19.16666666666666,761.25,19.16666666666666C763.6666666666666,19.16666666666666,766.0833333333334,19.16666666666666,768.5,19.16666666666666C770.9166666666666,19.16666666666666,773.3333333333334,19.16666666666666,775.75,19.16666666666666C778.1666666666666,19.16666666666666,780.5833333333334,19.16666666666666,783,19.16666666666666C785.4166666666667,19.16666666666666,787.8333333333334,19.16666666666666,790.2500000000001,19.16666666666666C792.6666666666667,19.16666666666666,795.0833333333335,19.16666666666666,797.5000000000001,19.16666666666666C799.9166666666667,19.16666666666666,802.3333333333335,19.16666666666666,804.7500000000001,19.16666666666666C807.1666666666667,19.16666666666666,809.5833333333335,19.16666666666666,812.0000000000001,19.16666666666666C814.4166666666667,19.16666666666666,816.8333333333333,19.16666666666666,819.2499999999999,19.16666666666666C821.6666666666665,19.16666666666666,824.0833333333333,19.16666666666666,826.4999999999999,19.16666666666666C828.9166666666665,19.16666666666666,831.3333333333333,19.16666666666666,833.7499999999999,19.16666666666666C836.1666666666665,19.16666666666666,838.5833333333333,19.16666666666666,840.9999999999999,19.16666666666666C843.4166666666666,19.16666666666666,845.8333333333333,19.16666666666666,848.25,19.16666666666666C850.6666666666666,19.16666666666666,853.0833333333334,19.16666666666666,855.5,19.16666666666666C857.9166666666666,19.16666666666666,860.3333333333334,19.16666666666666,862.75,19.16666666666666C865.1666666666666,19.16666666666666,867.5833333333334,19.16666666666666,870,19.16666666666666C872.4166666666666,19.16666666666666,874.8333333333334,19.16666666666666,877.25,19.16666666666666C879.6666666666666,19.16666666666666,882.0833333333334,19.16666666666666,884.5,19.16666666666666C886.9166666666666,19.16666666666666,889.3333333333334,19.16666666666666,891.75,19.16666666666666C894.1666666666666,19.16666666666666,896.5833333333334,19.16666666666666,899,19.16666666666666C901.4166666666666,19.16666666666666,903.8333333333334,19.16666666666666,906.25,19.16666666666666C908.6666666666666,19.16666666666666,911.0833333333334,19.16666666666666,913.5,19.16666666666666C915.9166666666666,19.16666666666666,918.3333333333334,19.16666666666666,920.75,19.16666666666666C923.1666666666666,19.16666666666666,925.5833333333334,19.16666666666666,928,19.16666666666666C930.4166666666666,19.16666666666666,932.8333333333334,19.16666666666666,935.25,19.16666666666666C937.6666666666666,19.16666666666666,940.0833333333334,19.16666666666666,942.5,19.16666666666666C944.9166666666666,19.16666666666666,947.3333333333334,19.16666666666666,949.75,19.16666666666666C952.1666666666666,19.16666666666666,954.5833333333334,19.16666666666666,957,19.16666666666666C959.4166666666666,19.16666666666666,961.8333333333334,19.16666666666666,964.25,19.16666666666666C966.6666666666667,19.16666666666666,969.0833333333334,19.16666666666666,971.5000000000001,19.16666666666666C973.9166666666667,19.16666666666666,976.3333333333335,19.16666666666666,978.7500000000001,19.16666666666666C981.1666666666667,19.16666666666666,983.5833333333335,19.16666666666666,986.0000000000001,19.16666666666666C988.4166666666667,19.16666666666666,990.8333333333335,19.16666666666666,993.2500000000001,19.16666666666666C995.6666666666667,19.16666666666666,998.0833333333333,19.16666666666666,1000.4999999999999,19.16666666666666C1002.9166666666665,19.16666666666666,1005.3333333333333,19.16666666666666,1007.7499999999999,19.16666666666666C1010.1666666666665,19.16666666666666,1012.5833333333333,19.16666666666666,1014.9999999999999,19.16666666666666C1017.4166666666665,19.16666666666666,1019.8333333333333,19.16666666666666,1022.2499999999999,19.16666666666666C1024.6666666666665,19.16666666666666,1027.0833333333333,19.16666666666666,1029.5,19.16666666666666C1031.9166666666667,19.16666666666666,1034.3333333333333,19.16666666666666,1036.75,19.16666666666666C1039.1666666666667,19.16666666666666,1041.5833333333333,19.16666666666666,1044,19.16666666666666C1046.4166666666667,19.16666666666666,1048.8333333333333,19.16666666666666,1051.25,19.16666666666666C1053.6666666666667,19.16666666666666,1056.0833333333333,19.16666666666666,1058.5,19.16666666666666C1060.9166666666667,19.16666666666666,1063.3333333333333,19.16666666666666,1065.75,19.16666666666666C1068.1666666666667,19.16666666666666,1070.5833333333333,19.16666666666666,1073,19.16666666666666C1075.4166666666667,19.16666666666666,1077.8333333333333,19.16666666666666,1080.25,19.16666666666666C1082.6666666666667,19.16666666666666,1085.0833333333333,19.16666666666666,1087.5,19.16666666666666C1089.9166666666667,19.16666666666666,1092.3333333333333,19.16666666666666,1094.75,19.16666666666666C1097.1666666666667,19.16666666666666,1099.5833333333333,19.16666666666666,1102,19.16666666666666C1104.4166666666667,19.16666666666666,1106.8333333333333,19.16666666666666,1109.25,19.16666666666666C1111.6666666666667,19.16666666666666,1114.0833333333333,19.16666666666666,1116.5,19.16666666666666C1118.9166666666667,19.16666666666666,1121.3333333333333,19.16666666666666,1123.75,19.16666666666666C1126.1666666666667,19.16666666666666,1128.5833333333333,19.16666666666666,1131,19.16666666666666C1133.4166666666667,19.16666666666666,1135.8333333333333,19.16666666666666,1138.25,19.16666666666666C1140.6666666666667,19.16666666666666,1143.0833333333333,19.16666666666666,1145.5,19.16666666666666C1147.9166666666667,19.16666666666666,1150.3333333333333,19.16666666666666,1152.75,19.16666666666666C1155.1666666666667,19.16666666666666,1157.5833333333333,19.16666666666666,1160,19.16666666666666C1162.4166666666667,19.16666666666666,1164.8333333333333,19.15868055555555,1167.25,19.154687499999994C1169.6666666666667,19.15069444444444,1172.0833333333333,19.146701388888893,1174.5,19.14270833333334C1176.9166666666667,19.138715277777784,1179.3333333333333,19.134722222222226,1181.75,19.13072916666667C1184.1666666666667,19.12673611111111,1186.5833333333333,19.122743055555542,1189,19.118749999999988C1191.4166666666667,19.114756944444434,1193.8333333333333,19.110763888888886,1196.25,19.106770833333332C1198.6666666666667,19.102777777777778,1201.0833333333333,19.09878472222222,1203.5,19.094791666666666C1205.9166666666667,19.09079861111111,1208.3333333333333,19.086805555555564,1210.75,19.08281250000001C1213.1666666666667,19.078819444444456,1215.5833333333333,19.074826388888894,1218,19.07083333333334C1220.4166666666667,19.066840277777786,1222.8333333333333,19.062847222222242,1225.25,19.058854166666684C1227.6666666666667,19.054861111111126,1230.0833333333333,19.050868055555547,1232.5,19.04687499999999C1234.9166666666667,19.04288194444443,1237.3333333333333,19.038888888888888,1239.75,19.034895833333334C1242.1666666666667,19.03090277777778,1244.5833333333333,19.02690972222222,1247,19.022916666666667C1249.4166666666667,19.018923611111113,1251.8333333333333,19.01493055555557,1254.25,19.01093750000001C1256.6666666666667,19.006944444444454,1259.0833333333333,19.002951388888885,1261.5,18.998958333333327C1263.9166666666667,18.99496527777777,1266.3333333333333,18.990972222222215,1268.75,18.98697916666666C1271.1666666666667,18.982986111111106,1273.5833333333333,18.97899305555556,1276,18.975000000000005C1278.4166666666667,18.97100694444445,1280.8333333333333,18.96701388888889,1283.25,18.963020833333335C1285.6666666666667,18.95902777777778,1288.0833333333333,18.955034722222234,1290.5,18.95104166666668C1292.9166666666667,18.947048611111125,1295.3333333333333,18.943055555555556,1297.75,18.9390625C1300.1666666666667,18.93506944444444,1302.5833333333333,18.931076388888883,1305,18.92708333333333C1307.4166666666667,18.923090277777774,1309.8333333333333,18.919097222222216,1312.25,18.915104166666662C1314.6666666666667,18.911111111111108,1317.0833333333333,18.90711805555556,1319.5,18.903125000000006C1321.9166666666667,18.899131944444452,1324.3333333333333,18.89513888888888,1326.75,18.891145833333326C1329.1666666666667,18.88715277777777,1331.5833333333333,18.883159722222224,1334,18.87916666666667C1336.4166666666667,18.875173611111116,1338.8333333333333,18.871180555555554,1341.25,18.8671875C1343.6666666666667,18.863194444444446,1346.0833333333333,18.8592013888889,1348.5,18.855208333333344C1350.9166666666667,18.85121527777779,1353.3333333333333,18.847222222222232,1355.75,18.843229166666674C1358.1666666666667,18.839236111111116,1360.5833333333333,18.835243055555548,1363,18.831249999999994C1365.4166666666667,18.82725694444444,1367.8333333333333,18.823263888888892,1370.25,18.819270833333338C1372.6666666666667,18.815277777777784,1375.0833333333333,18.81128472222221,1377.5,18.807291666666657C1379.9166666666667,18.803298611111103,1382.3333333333333,18.799305555555556,1384.75,18.7953125C1387.1666666666667,18.791319444444447,1389.5833333333333,18.787326388888875,1392,18.78333333333332C1394.4166666666667,18.779340277777766,1396.8333333333333,18.77534722222222,1399.25,18.771354166666665C1401.6666666666667,18.76736111111111,1404.0833333333333,18.76336805555555,1406.5,18.759374999999995C1408.9166666666667,18.75538194444444,1411.3333333333333,18.751388888888894,1413.75,18.74739583333334C1416.1666666666667,18.743402777777785,1418.5833333333333,18.739409722222227,1421,18.735416666666673C1423.4166666666667,18.73142361111112,1425.8333333333333,18.727430555555575,1428.25,18.723437500000017C1430.6666666666667,18.71944444444446,1433.0833333333333,18.71545138888889,1435.5,18.711458333333333C1437.9166666666667,18.707465277777775,1440.3333333333333,18.70347222222222,1442.75,18.699479166666666C1445.1666666666667,18.695486111111112,1447.5833333333333,18.691493055555554,1450,18.687499999999996" fill="transparent" stroke-linecap="round" stroke="#B6509E" stroke-width="2"></path><path class="visx-linepath" d="M0,67.08333333333333C2.4166666666666665,67.08333333333333,4.833333333333334,67.08333333333333,7.25,67.08333333333333C9.666666666666666,67.08333333333333,12.083333333333334,67.08333333333333,14.5,67.08333333333333C16.916666666666668,67.08333333333333,19.333333333333332,67.08333333333333,21.75,67.08333333333333C24.166666666666668,67.08333333333333,26.583333333333332,67.08333333333333,29,67.08333333333333C31.416666666666668,67.08333333333333,33.833333333333336,67.08333333333333,36.25,67.08333333333333C38.666666666666664,67.08333333333333,41.083333333333336,67.08333333333333,43.5,67.08333333333333C45.91666666666667,67.08333333333333,48.333333333333336,67.08333333333333,50.75000000000001,67.08333333333333C53.16666666666667,67.08333333333333,55.583333333333336,67.08333333333333,58,67.08333333333333C60.416666666666664,67.08333333333333,62.833333333333336,67.08333333333333,65.25,67.08333333333333C67.66666666666667,67.08333333333333,70.08333333333333,67.08333333333333,72.5,67.08333333333333C74.91666666666667,67.08333333333333,77.33333333333333,67.08333333333333,79.75,67.08333333333333C82.16666666666667,67.08333333333333,84.58333333333333,67.08333333333333,87,67.08333333333333C89.41666666666667,67.08333333333333,91.83333333333333,67.08333333333333,94.25,67.08333333333333C96.66666666666667,67.08333333333333,99.08333333333334,67.08333333333333,101.50000000000001,67.08333333333333C103.91666666666667,67.08333333333333,106.33333333333334,67.08333333333333,108.75,67.08333333333333C111.16666666666667,67.08333333333333,113.58333333333333,67.08333333333333,116,67.08333333333333C118.41666666666667,67.08333333333333,120.83333333333334,67.08333333333333,123.25000000000001,67.08333333333333C125.66666666666667,67.08333333333333,128.08333333333334,67.08333333333333,130.5,67.08333333333333C132.91666666666666,67.08333333333333,135.33333333333334,67.08333333333333,137.75,67.08333333333333C140.16666666666666,67.08333333333333,142.58333333333334,67.08333333333333,145,67.08333333333333C147.41666666666666,67.08333333333333,149.83333333333334,67.08333333333333,152.25,67.08333333333333C154.66666666666666,67.08333333333333,157.08333333333334,67.08333333333333,159.5,67.08333333333333C161.91666666666666,67.08333333333333,164.33333333333334,67.08333333333333,166.75,67.08333333333333C169.16666666666666,67.08333333333333,171.58333333333334,67.08333333333333,174,67.08333333333333C176.41666666666666,67.08333333333333,178.83333333333334,67.08333333333333,181.25,67.08333333333333C183.66666666666666,67.08333333333333,186.08333333333334,67.08333333333333,188.5,67.08333333333333C190.91666666666666,67.08333333333333,193.33333333333334,67.08333333333333,195.75,67.08333333333333C198.16666666666669,67.08333333333333,200.58333333333334,67.08333333333333,203.00000000000003,67.08333333333333C205.41666666666669,67.08333333333333,207.83333333333331,67.08333333333333,210.24999999999997,67.08333333333333C212.66666666666666,67.08333333333333,215.08333333333331,67.08333333333333,217.5,67.08333333333333C219.91666666666666,67.08333333333333,222.33333333333334,67.08333333333333,224.75,67.08333333333333C227.16666666666666,67.08333333333333,229.58333333333334,67.08333333333333,232,67.08333333333333C234.41666666666666,67.08333333333333,236.83333333333334,67.08333333333333,239.25,67.08333333333333C241.66666666666669,67.08333333333333,244.08333333333334,67.08333333333333,246.50000000000003,67.08333333333333C248.91666666666669,67.08333333333333,251.33333333333331,67.08333333333333,253.74999999999997,67.08333333333333C256.16666666666663,67.08333333333333,258.5833333333333,67.08333333333333,261,67.08333333333333C263.4166666666667,67.08333333333333,265.8333333333333,67.08333333333333,268.25,67.08333333333333C270.6666666666667,67.08333333333333,273.0833333333333,67.08333333333333,275.5,67.08333333333333C277.9166666666667,67.08333333333333,280.3333333333333,67.08333333333333,282.75,67.08333333333333C285.1666666666667,67.08333333333333,287.5833333333333,67.08333333333333,290,67.08333333333333C292.4166666666667,67.08333333333333,294.8333333333333,67.08333333333333,297.25,67.08333333333333C299.6666666666667,67.08333333333333,302.0833333333333,67.08333333333333,304.5,67.08333333333333C306.9166666666667,67.08333333333333,309.3333333333333,67.08333333333333,311.75,67.08333333333333C314.1666666666667,67.08333333333333,316.5833333333333,67.08333333333333,319,67.08333333333333C321.4166666666667,67.08333333333333,323.8333333333333,67.08333333333333,326.25,67.08333333333333C328.6666666666667,67.08333333333333,331.0833333333333,67.08333333333333,333.5,67.08333333333333C335.9166666666667,67.08333333333333,338.3333333333333,67.08333333333333,340.75,67.08333333333333C343.1666666666667,67.08333333333333,345.5833333333333,67.08333333333333,348,67.08333333333333C350.4166666666667,67.08333333333333,352.8333333333333,67.08333333333333,355.25,67.08333333333333C357.6666666666667,67.08333333333333,360.0833333333333,67.08333333333333,362.5,67.08333333333333C364.9166666666667,67.08333333333333,367.3333333333333,67.08333333333333,369.75,67.08333333333333C372.1666666666667,67.08333333333333,374.5833333333333,67.08333333333333,377,67.08333333333333C379.4166666666667,67.08333333333333,381.8333333333333,67.08333333333333,384.25,67.08333333333333C386.6666666666667,67.08333333333333,389.0833333333333,67.08333333333333,391.5,67.08333333333333C393.9166666666667,67.08333333333333,396.33333333333337,67.08333333333333,398.75000000000006,67.08333333333333C401.16666666666674,67.08333333333333,403.58333333333337,67.08333333333333,406.00000000000006,67.08333333333333C408.4166666666667,67.08333333333333,410.8333333333333,67.08333333333333,413.24999999999994,67.08333333333333C415.66666666666663,67.08333333333333,418.08333333333326,67.08333333333333,420.49999999999994,67.08333333333333C422.91666666666663,67.08333333333333,425.3333333333333,67.08333333333333,427.75,67.08333333333333C430.1666666666667,67.08333333333333,432.5833333333333,67.08333333333333,435,67.08333333333333C437.4166666666667,67.08333333333333,439.8333333333333,67.08333333333333,442.25,67.08333333333333C444.6666666666667,67.08333333333333,447.0833333333333,67.08333333333333,449.5,67.08333333333333C451.9166666666667,67.08333333333333,454.3333333333333,67.08333333333333,456.75,67.08333333333333C459.1666666666667,67.08333333333333,461.5833333333333,67.08333333333333,464,67.08333333333333C466.4166666666667,67.08333333333333,468.8333333333333,67.08333333333333,471.25,67.08333333333333C473.6666666666667,67.08333333333333,476.0833333333333,67.08333333333333,478.5,67.08333333333333C480.9166666666667,67.08333333333333,483.33333333333337,67.08333333333333,485.75000000000006,67.08333333333333C488.16666666666674,67.08333333333333,490.58333333333337,67.08333333333333,493.00000000000006,67.08333333333333C495.4166666666667,67.08333333333333,497.8333333333333,67.08333333333333,500.24999999999994,67.08333333333333C502.66666666666663,67.08333333333333,505.08333333333326,67.08333333333333,507.49999999999994,67.08333333333333C509.91666666666663,67.08333333333333,512.3333333333333,67.08333333333333,514.75,67.08333333333333C517.1666666666666,67.08333333333333,519.5833333333334,67.08333333333333,522,67.08333333333333C524.4166666666666,67.08333333333333,526.8333333333334,67.08333333333333,529.25,67.08333333333333C531.6666666666666,67.08333333333333,534.0833333333334,67.08333333333333,536.5,67.08333333333333C538.9166666666666,67.08333333333333,541.3333333333334,67.08333333333333,543.75,67.08333333333333C546.1666666666666,67.08333333333333,548.5833333333334,67.08333333333333,551,67.08333333333333C553.4166666666666,67.08333333333333,555.8333333333334,67.08333333333333,558.25,67.08333333333333C560.6666666666666,67.08333333333333,563.0833333333334,67.08333333333333,565.5,67.08333333333333C567.9166666666666,67.08333333333333,570.3333333333334,67.08333333333333,572.75,67.08333333333333C575.1666666666666,67.08333333333333,577.5833333333334,67.08333333333333,580,67.08333333333333C582.4166666666666,67.08333333333333,584.8333333333334,67.08333333333333,587.25,67.08333333333333C589.6666666666666,67.08333333333333,592.0833333333334,67.08333333333333,594.5,67.08333333333333C596.9166666666666,67.08333333333333,599.3333333333334,67.08333333333333,601.75,67.08333333333333C604.1666666666666,67.08333333333333,606.5833333333334,67.08333333333333,609,67.08333333333333C611.4166666666666,67.08333333333333,613.8333333333334,67.08333333333333,616.25,67.08333333333333C618.6666666666666,67.08333333333333,621.0833333333334,67.08333333333333,623.5,67.08333333333333C625.9166666666666,67.08333333333333,628.3333333333334,67.08333333333333,630.75,67.08333333333333C633.1666666666666,67.08333333333333,635.5833333333334,67.08333333333333,638,67.08333333333333C640.4166666666666,67.08333333333333,642.8333333333334,67.08333333333333,645.25,67.08333333333333C647.6666666666666,67.08333333333333,650.0833333333334,67.08333333333333,652.5,67.08333333333333C654.9166666666666,67.08333333333333,657.3333333333334,67.08333333333333,659.75,67.08333333333333C662.1666666666666,67.08333333333333,664.5833333333334,67.08333333333333,667,67.08333333333333C669.4166666666666,67.08333333333333,671.8333333333334,67.08333333333333,674.25,67.08333333333333C676.6666666666666,67.08333333333333,679.0833333333334,67.08333333333333,681.5,67.08333333333333C683.9166666666666,67.08333333333333,686.3333333333334,67.08333333333333,688.75,67.08333333333333C691.1666666666666,67.08333333333333,693.5833333333334,67.08333333333333,696,67.08333333333333C698.4166666666666,67.08333333333333,700.8333333333334,67.08333333333333,703.25,67.08333333333333C705.6666666666666,67.08333333333333,708.0833333333334,67.08333333333333,710.5,67.08333333333333C712.9166666666666,67.08333333333333,715.3333333333334,67.08333333333333,717.75,67.08333333333333C720.1666666666666,67.08333333333333,722.5833333333334,67.08333333333333,725,67.08333333333333C727.4166666666666,67.08333333333333,729.8333333333334,67.08333333333333,732.25,67.08333333333333C734.6666666666666,67.08333333333333,737.0833333333334,67.08333333333333,739.5,67.08333333333333C741.9166666666666,67.08333333333333,744.3333333333334,67.08333333333333,746.75,67.08333333333333C749.1666666666666,67.08333333333333,751.5833333333334,67.08333333333333,754,67.08333333333333C756.4166666666666,67.08333333333333,758.8333333333334,67.08333333333333,761.25,67.08333333333333C763.6666666666666,67.08333333333333,766.0833333333334,67.08333333333333,768.5,67.08333333333333C770.9166666666666,67.08333333333333,773.3333333333334,67.08333333333333,775.75,67.08333333333333C778.1666666666666,67.08333333333333,780.5833333333334,67.08333333333333,783,67.08333333333333C785.4166666666667,67.08333333333333,787.8333333333334,67.08333333333333,790.2500000000001,67.08333333333333C792.6666666666667,67.08333333333333,795.0833333333335,67.08333333333333,797.5000000000001,67.08333333333333C799.9166666666667,67.08333333333333,802.3333333333335,67.08333333333333,804.7500000000001,67.08333333333333C807.1666666666667,67.08333333333333,809.5833333333335,67.08333333333333,812.0000000000001,67.08333333333333C814.4166666666667,67.08333333333333,816.8333333333333,67.08333333333333,819.2499999999999,67.08333333333333C821.6666666666665,67.08333333333333,824.0833333333333,67.08333333333333,826.4999999999999,67.08333333333333C828.9166666666665,67.08333333333333,831.3333333333333,67.08333333333333,833.7499999999999,67.08333333333333C836.1666666666665,67.08333333333333,838.5833333333333,67.08333333333333,840.9999999999999,67.08333333333333C843.4166666666666,67.08333333333333,845.8333333333333,67.08333333333333,848.25,67.08333333333333C850.6666666666666,67.08333333333333,853.0833333333334,67.08333333333333,855.5,67.08333333333333C857.9166666666666,67.08333333333333,860.3333333333334,67.08333333333333,862.75,67.08333333333333C865.1666666666666,67.08333333333333,867.5833333333334,67.08333333333333,870,67.08333333333333C872.4166666666666,67.08333333333333,874.8333333333334,67.08333333333333,877.25,67.08333333333333C879.6666666666666,67.08333333333333,882.0833333333334,67.08333333333333,884.5,67.08333333333333C886.9166666666666,67.08333333333333,889.3333333333334,67.08333333333333,891.75,67.08333333333333C894.1666666666666,67.08333333333333,896.5833333333334,67.08333333333333,899,67.08333333333333C901.4166666666666,67.08333333333333,903.8333333333334,67.08333333333333,906.25,67.08333333333333C908.6666666666666,67.08333333333333,911.0833333333334,67.08333333333333,913.5,67.08333333333333C915.9166666666666,67.08333333333333,918.3333333333334,67.08333333333333,920.75,67.08333333333333C923.1666666666666,67.08333333333333,925.5833333333334,67.08333333333333,928,67.08333333333333C930.4166666666666,67.08333333333333,932.8333333333334,67.08333333333333,935.25,67.08333333333333C937.6666666666666,67.08333333333333,940.0833333333334,67.08333333333333,942.5,67.08333333333333C944.9166666666666,67.08333333333333,947.3333333333334,67.08333333333333,949.75,67.08333333333333C952.1666666666666,67.08333333333333,954.5833333333334,67.08333333333333,957,67.08333333333333C959.4166666666666,67.08333333333333,961.8333333333334,67.08333333333333,964.25,67.08333333333333C966.6666666666667,67.08333333333333,969.0833333333334,67.08333333333333,971.5000000000001,67.08333333333333C973.9166666666667,67.08333333333333,976.3333333333335,67.08333333333333,978.7500000000001,67.08333333333333C981.1666666666667,67.08333333333333,983.5833333333335,67.08333333333333,986.0000000000001,67.08333333333333C988.4166666666667,67.08333333333333,990.8333333333335,67.08333333333333,993.2500000000001,67.08333333333333C995.6666666666667,67.08333333333333,998.0833333333333,67.08333333333333,1000.4999999999999,67.08333333333333C1002.9166666666665,67.08333333333333,1005.3333333333333,67.08333333333333,1007.7499999999999,67.08333333333333C1010.1666666666665,67.08333333333333,1012.5833333333333,67.08333333333333,1014.9999999999999,67.08333333333333C1017.4166666666665,67.08333333333333,1019.8333333333333,67.08333333333333,1022.2499999999999,67.08333333333333C1024.6666666666665,67.08333333333333,1027.0833333333333,67.08333333333333,1029.5,67.08333333333333C1031.9166666666667,67.08333333333333,1034.3333333333333,67.08333333333333,1036.75,67.08333333333333C1039.1666666666667,67.08333333333333,1041.5833333333333,67.08333333333333,1044,67.08333333333333C1046.4166666666667,67.08333333333333,1048.8333333333333,67.08333333333333,1051.25,67.08333333333333C1053.6666666666667,67.08333333333333,1056.0833333333333,67.08333333333333,1058.5,67.08333333333333C1060.9166666666667,67.08333333333333,1063.3333333333333,67.08333333333333,1065.75,67.08333333333333C1068.1666666666667,67.08333333333333,1070.5833333333333,67.08333333333333,1073,67.08333333333333C1075.4166666666667,67.08333333333333,1077.8333333333333,67.08333333333333,1080.25,67.08333333333333C1082.6666666666667,67.08333333333333,1085.0833333333333,67.08333333333333,1087.5,67.08333333333333C1089.9166666666667,67.08333333333333,1092.3333333333333,67.08333333333333,1094.75,67.08333333333333C1097.1666666666667,67.08333333333333,1099.5833333333333,67.08333333333333,1102,67.08333333333333C1104.4166666666667,67.08333333333333,1106.8333333333333,67.08333333333333,1109.25,67.08333333333333C1111.6666666666667,67.08333333333333,1114.0833333333333,67.08333333333333,1116.5,67.08333333333333C1118.9166666666667,67.08333333333333,1121.3333333333333,67.08333333333333,1123.75,67.08333333333333C1126.1666666666667,67.08333333333333,1128.5833333333333,67.08333333333333,1131,67.08333333333333C1133.4166666666667,67.08333333333333,1135.8333333333333,67.08333333333333,1138.25,67.08333333333333C1140.6666666666667,67.08333333333333,1143.0833333333333,67.08333333333333,1145.5,67.08333333333333C1147.9166666666667,67.08333333333333,1150.3333333333333,67.08333333333333,1152.75,67.08333333333333C1155.1666666666667,67.08333333333333,1157.5833333333333,67.08333333333333,1160,67.08333333333333C1162.4166666666667,67.08333333333333,1164.8333333333333,67.08333333333333,1167.25,67.08333333333333C1169.6666666666667,67.08333333333333,1172.0833333333333,67.08333333333333,1174.5,67.08333333333333C1176.9166666666667,67.08333333333333,1179.3333333333333,67.08333333333333,1181.75,67.08333333333333C1184.1666666666667,67.08333333333333,1186.5833333333333,67.08333333333333,1189,67.08333333333333C1191.4166666666667,67.08333333333333,1193.8333333333333,67.08333333333333,1196.25,67.08333333333333C1198.6666666666667,67.08333333333333,1201.0833333333333,67.08333333333333,1203.5,67.08333333333333C1205.9166666666667,67.08333333333333,1208.3333333333333,67.08333333333333,1210.75,67.08333333333333C1213.1666666666667,67.08333333333333,1215.5833333333333,67.08333333333333,1218,67.08333333333333C1220.4166666666667,67.08333333333333,1222.8333333333333,67.08333333333333,1225.25,67.08333333333333C1227.6666666666667,67.08333333333333,1230.0833333333333,67.08333333333333,1232.5,67.08333333333333C1234.9166666666667,67.08333333333333,1237.3333333333333,67.08333333333333,1239.75,67.08333333333333C1242.1666666666667,67.08333333333333,1244.5833333333333,67.08333333333333,1247,67.08333333333333C1249.4166666666667,67.08333333333333,1251.8333333333333,67.08333333333333,1254.25,67.08333333333333C1256.6666666666667,67.08333333333333,1259.0833333333333,67.08333333333333,1261.5,67.08333333333333C1263.9166666666667,67.08333333333333,1266.3333333333333,67.08333333333333,1268.75,67.08333333333333C1271.1666666666667,67.08333333333333,1273.5833333333333,67.08333333333333,1276,67.08333333333333C1278.4166666666667,67.08333333333333,1280.8333333333333,67.08333333333333,1283.25,67.08333333333333C1285.6666666666667,67.08333333333333,1288.0833333333333,67.08333333333333,1290.5,67.08333333333333C1292.9166666666667,67.08333333333333,1295.3333333333333,67.08333333333333,1297.75,67.08333333333333C1300.1666666666667,67.08333333333333,1302.5833333333333,67.08333333333333,1305,67.08333333333333C1307.4166666666667,67.08333333333333,1309.8333333333333,67.08333333333333,1312.25,67.08333333333333C1314.6666666666667,67.08333333333333,1317.0833333333333,67.08333333333333,1319.5,67.08333333333333C1321.9166666666667,67.08333333333333,1324.3333333333333,67.08333333333333,1326.75,67.08333333333333C1329.1666666666667,67.08333333333333,1331.5833333333333,67.08333333333333,1334,67.08333333333333C1336.4166666666667,67.08333333333333,1338.8333333333333,67.08333333333333,1341.25,67.08333333333333C1343.6666666666667,67.08333333333333,1346.0833333333333,67.08333333333333,1348.5,67.08333333333333C1350.9166666666667,67.08333333333333,1353.3333333333333,67.08333333333333,1355.75,67.08333333333333C1358.1666666666667,67.08333333333333,1360.5833333333333,67.08333333333333,1363,67.08333333333333C1365.4166666666667,67.08333333333333,1367.8333333333333,67.08333333333333,1370.25,67.08333333333333C1372.6666666666667,67.08333333333333,1375.0833333333333,67.08333333333333,1377.5,67.08333333333333C1379.9166666666667,67.08333333333333,1382.3333333333333,67.08333333333333,1384.75,67.08333333333333C1387.1666666666667,67.08333333333333,1389.5833333333333,67.08333333333333,1392,67.08333333333333C1394.4166666666667,67.08333333333333,1396.8333333333333,67.08333333333333,1399.25,67.08333333333333C1401.6666666666667,67.08333333333333,1404.0833333333333,67.08333333333333,1406.5,67.08333333333333C1408.9166666666667,67.08333333333333,1411.3333333333333,67.08333333333333,1413.75,67.08333333333333C1416.1666666666667,67.08333333333333,1418.5833333333333,67.08333333333333,1421,67.08333333333333C1423.4166666666667,67.08333333333333,1425.8333333333333,67.08333333333333,1428.25,67.08333333333333C1430.6666666666667,67.08333333333333,1433.0833333333333,67.08333333333333,1435.5,67.08333333333333C1437.9166666666667,67.08333333333333,1440.3333333333333,67.08333333333333,1442.75,67.08333333333333C1445.1666666666667,67.08333333333333,1447.5833333333333,67.08333333333333,1450,67.08333333333333" fill="transparent" stroke-linecap="round" stroke="#E7C6DF" stroke-width="2"></path><g class="visx-group visx-axis visx-axis-bottom" transform="translate(0, 115)"><g class="visx-group visx-axis-tick" transform="translate(0, 0)"><line class="visx-line" x1="0" y1="0" x2="0" y2="8" fill="transparent" shape-rendering="crispEdges" stroke="#000" stroke-width="0" stroke-linecap="square"></line><svg x="0" y="0" font-size="10" style="overflow:visible"><text transform="" x="0" y="18" fill="#000" font-size="10" text-anchor="middle"><tspan x="0" dy="0em">0%</tspan></text></svg></g><g class="visx-group visx-axis-tick" transform="translate(0, 0)"><line class="visx-line" x1="362.5" y1="0" x2="362.5" y2="8" fill="transparent" shape-rendering="crispEdges" stroke="#000" stroke-width="0" stroke-linecap="square"></line><svg x="0" y="0" font-size="10" style="overflow:visible"><text transform="" x="362.5" y="18" fill="#000" font-size="10" text-anchor="middle"><tspan x="362.5" dy="0em">25%</tspan></text></svg></g><g class="visx-group visx-axis-tick" transform="translate(0, 0)"><line class="visx-line" x1="725" y1="0" x2="725" y2="8" fill="transparent" shape-rendering="crispEdges" stroke="#000" stroke-width="0" stroke-linecap="square"></line><svg x="0" y="0" font-size="10" style="overflow:visible"><text transform="" x="725" y="18" fill="#000" font-size="10" text-anchor="middle"><tspan x="725" dy="0em">50%</tspan></text></svg></g><g class="visx-group visx-axis-tick" transform="translate(0, 0)"><line class="visx-line" x1="1087.5" y1="0" x2="1087.5" y2="8" fill="transparent" shape-rendering="crispEdges" stroke="#000" stroke-width="0" stroke-linecap="square"></line><svg x="0" y="0" font-size="10" style="overflow:visible"><text transform="" x="1087.5" y="18" fill="#000" font-size="10" text-anchor="middle"><tspan x="1087.5" dy="0em">75%</tspan></text></svg></g><g class="visx-group visx-axis-tick" transform="translate(0, 0)"><line class="visx-line" x1="1450" y1="0" x2="1450" y2="8" fill="transparent" shape-rendering="crispEdges" stroke="#000" stroke-width="0" stroke-linecap="square"></line><svg x="0" y="0" font-size="10" style="overflow:visible"><text transform="" x="1450" y="18" fill="#000" font-size="10" text-anchor="middle"><tspan x="1450" dy="0em">100%</tspan></text></svg></g><line class="visx-line visx-axis-line" x1="0.5" y1="0" x2="1450.5" y2="0" fill="transparent" shape-rendering="crispEdges" stroke="#222" stroke-width="0"></line></g><g class="visx-group visx-axis visx-axis-left" transform="translate(0, 0)"><g class="visx-group visx-axis-tick" transform="translate(0, 0)"><line class="visx-line" x1="0" y1="115" x2="-8" y2="115" fill="transparent" shape-rendering="crispEdges" stroke="#222" stroke-width="0" stroke-linecap="square"></line><svg x="-30" y="0" font-size="8" style="overflow:visible"><text transform="" x="-8" y="115" fill="#000" font-size="8" text-anchor="start"><tspan x="-8" dy="0em">0%</tspan></text></svg></g><g class="visx-group visx-axis-tick" transform="translate(0, 0)"><line class="visx-line" x1="0" y1="67.08333333333333" x2="-8" y2="67.08333333333333" fill="transparent" shape-rendering="crispEdges" stroke="#222" stroke-width="0" stroke-linecap="square"></line><svg x="-30" y="0" font-size="8" style="overflow:visible"><text transform="" x="-8" y="67.08333333333333" fill="#000" font-size="8" text-anchor="start"><tspan x="-8" dy="0em">10%</tspan></text></svg></g><g class="visx-group visx-axis-tick" transform="translate(0, 0)"><line class="visx-line" x1="0" y1="19.16666666666666" x2="-8" y2="19.16666666666666" fill="transparent" shape-rendering="crispEdges" stroke="#222" stroke-width="0" stroke-linecap="square"></line><svg x="-30" y="0" font-size="8" style="overflow:visible"><text transform="" x="-8" y="19.16666666666666" fill="#000" font-size="8" text-anchor="start"><tspan x="-8" dy="0em">20%</tspan></text></svg></g><line class="visx-line visx-axis-line" x1="0" y1="115.5" x2="0" y2="0.5" fill="transparent" shape-rendering="crispEdges" stroke="#222" stroke-width="0"></line></g><rect class="visx-bar" width="1450" height="115" fill="transparent"></rect><line class="visx-line" x1="1160" y1="28" x2="1160" y2="115" fill="transparent" shape-rendering="crispEdges" stroke="#0062D2" stroke-width="1" pointer-events="none" stroke-dasharray="5,2"></line><svg x="0" y="0" font-size="10px" style="overflow:visible"><text transform="" x="1160" y="20" font-size="10px" fill="#fff" stroke="#fff" stroke-width="0.8em" text-anchor="middle"><tspan x="1160" dy="0.355em">Optimal 80%</tspan></text></svg><svg x="0" y="0" font-size="10px" style="overflow:visible"><text transform="" x="1160" y="20" font-size="10px" fill="#62677B" text-anchor="middle"><tspan x="1160" dy="0.355em">Optimal 80%</tspan></text></svg></g></svg>