<?xml version="1.0"?><svg xmlns="http://www.w3.org/2000/svg" xmlns:xlink= "http://www.w3.org/1999/xlink" style="background: white;" width="1500" height="185"> <g style="color: black; font-size: 13px; font-family: sans-serif; transform: translate(18px, 25px);"><g><circle r="3" cx="-6" cy="-5" style="fill: #B6509E" /><text>Borrow APR, variable</text></g><g style="transform: translateX(150px);"><circle r="3" cx="-6" cy="-5" style="fill: rgb(231, 198, 223)" /><text>Borrow APR, stable</text></g><g style="transform: translateX(290px);"><circle r="3" cx="-6" cy="-5" style="fill: rgb(0, 98, 210)" /><text>Utilization Rate</text></g></g><g class="visx-group" transform="translate(40, 50)"><g class="visx-group visx-rows" transform="translate(0, 0)"><line class="visx-line" x1="0" y1="115" x2="1450" y2="115" fill="transparent" shape-rendering="crispEdges" stroke="#000" stroke-width="1" stroke-dasharray="3,3" pointer-events="none"></line><line class="visx-line" x1="0" y1="57.5" x2="1450" y2="57.5" fill="transparent" shape-rendering="crispEdges" stroke="#000" stroke-width="1" stroke-dasharray="3,3" pointer-events="none"></line><line class="visx-line" x1="0" y1="0" x2="1450" y2="0" fill="transparent" shape-rendering="crispEdges" stroke="#000" stroke-width="1" stroke-dasharray="3,3" pointer-events="none"></line></g><path class="visx-linepath" d="M0,114.99999999995974C2.4166666666666665,114.99329166664317,4.833333333333334,114.98658333332662,7.25,114.97987499999999C9.666666666666666,114.97316666667336,12.083333333333334,114.96645833333334,14.5,114.95975C16.916666666666668,114.95304166666666,19.333333333333332,114.94633333333334,21.75,114.939625C24.166666666666668,114.93291666666667,26.583333333333332,114.92620833333334,29,114.9195C31.416666666666668,114.91279166666666,33.833333333333336,114.90608333333334,36.25,114.899375C38.666666666666664,114.89266666666667,41.083333333333336,114.88595833333333,43.5,114.87925C45.91666666666667,114.87254166666666,48.333333333333336,114.86583333333333,50.75000000000001,114.85912499999999C53.16666666666667,114.85241666666666,55.583333333333336,114.84570833333333,58,114.839C60.416666666666664,114.83229166666666,62.833333333333336,114.82558333333334,65.25,114.818875C67.66666666666667,114.81216666666667,70.08333333333333,114.80545833333333,72.5,114.79875C74.91666666666667,114.79204166666666,77.33333333333333,114.78533333333334,79.75,114.778625C82.16666666666667,114.77191666666667,84.58333333333333,114.76520833333333,87,114.7585C89.41666666666667,114.75179166666666,91.83333333333333,114.74508333333333,94.25,114.73837499999999C96.66666666666667,114.73166666666665,99.08333333333334,114.72495833333335,101.50000000000001,114.71825000000001C103.91666666666667,114.71154166666668,106.33333333333334,114.70483333333334,108.75,114.698125C111.16666666666667,114.69141666666667,113.58333333333333,114.68470833333333,116,114.678C118.41666666666667,114.67129166666666,120.83333333333334,114.66458333333334,123.25000000000001,114.657875C125.66666666666667,114.65116666666667,128.08333333333334,114.64445833333333,130.5,114.63775C132.91666666666666,114.63104166666666,135.33333333333334,114.62433333333334,137.75,114.617625C140.16666666666666,114.61091666666667,142.58333333333334,114.60420833333335,145,114.59750000000001C147.41666666666666,114.59079166666668,149.83333333333334,114.58408333333334,152.25,114.577375C154.66666666666666,114.57066666666667,157.08333333333334,114.56395833333333,159.5,114.55725C161.91666666666666,114.55054166666666,164.33333333333334,114.54383333333334,166.75,114.537125C169.16666666666666,114.53041666666667,171.58333333333334,114.52370833333333,174,114.517C176.41666666666666,114.51029166666666,178.83333333333334,114.50358333333334,181.25,114.496875C183.66666666666666,114.49016666666667,186.08333333333334,114.48345833333333,188.5,114.47675C190.91666666666666,114.47004166666666,193.33333333333334,114.46333333333334,195.75,114.456625C198.16666666666669,114.44991666666667,200.58333333333334,114.44320833333333,203.00000000000003,114.4365C205.41666666666669,114.42979166666666,207.83333333333331,114.42308333333332,210.24999999999997,114.41637499999999C212.66666666666666,114.40966666666665,215.08333333333331,114.40295833333334,217.5,114.39625000000001C219.91666666666666,114.38954166666667,222.33333333333334,114.38283333333334,224.75,114.376125C227.16666666666666,114.36941666666667,229.58333333333334,114.36270833333333,232,114.356C234.41666666666666,114.34929166666666,236.83333333333334,114.34258333333334,239.25,114.335875C241.66666666666669,114.32916666666667,244.08333333333334,114.32245833333333,246.50000000000003,114.31575C248.91666666666669,114.30904166666666,251.33333333333331,114.30233333333334,253.74999999999997,114.295625C256.16666666666663,114.28891666666667,258.5833333333333,114.28220833333334,261,114.27550000000001C263.4166666666667,114.26879166666667,265.8333333333333,114.26208333333334,268.25,114.255375C270.6666666666667,114.24866666666667,273.0833333333333,114.24195833333333,275.5,114.23525C277.9166666666667,114.22854166666666,280.3333333333333,114.22183333333334,282.75,114.215125C285.1666666666667,114.20841666666666,287.5833333333333,114.20170833333333,290,114.195C292.4166666666667,114.18829166666666,294.8333333333333,114.18158333333334,297.25,114.174875C299.6666666666667,114.16816666666666,302.0833333333333,114.16145833333334,304.5,114.15475C306.9166666666667,114.14804166666667,309.3333333333333,114.14133333333334,311.75,114.134625C314.1666666666667,114.12791666666666,316.5833333333333,114.12120833333333,319,114.11449999999999C321.4166666666667,114.10779166666666,323.8333333333333,114.10108333333334,326.25,114.094375C328.6666666666667,114.08766666666666,331.0833333333333,114.08095833333334,333.5,114.07425C335.9166666666667,114.06754166666667,338.3333333333333,114.06083333333333,340.75,114.054125C343.1666666666667,114.04741666666666,345.5833333333333,114.04070833333334,348,114.034C350.4166666666667,114.02729166666667,352.8333333333333,114.02058333333333,355.25,114.013875C357.6666666666667,114.00716666666666,360.0833333333333,114.00045833333333,362.5,113.99374999999999C364.9166666666667,113.98704166666666,367.3333333333333,113.98033333333333,369.75,113.973625C372.1666666666667,113.96691666666666,374.5833333333333,113.96020833333334,377,113.9535C379.4166666666667,113.94679166666667,381.8333333333333,113.94008333333333,384.25,113.933375C386.6666666666667,113.92666666666666,389.0833333333333,113.91995833333334,391.5,113.91325C393.9166666666667,113.90654166666667,396.33333333333337,113.89983333333333,398.75000000000006,113.893125C401.16666666666674,113.88641666666666,403.58333333333337,113.87970833333333,406.00000000000006,113.87299999999999C408.4166666666667,113.86629166666665,410.8333333333333,113.85958333333335,413.24999999999994,113.85287500000001C415.66666666666663,113.84616666666668,418.08333333333326,113.83945833333334,420.49999999999994,113.83275C422.91666666666663,113.82604166666667,425.3333333333333,113.81933333333333,427.75,113.812625C430.1666666666667,113.80591666666666,432.5833333333333,113.79920833333334,435,113.7925C437.4166666666667,113.78579166666667,439.8333333333333,113.77908333333333,442.25,113.772375C444.6666666666667,113.76566666666666,447.0833333333333,113.75895833333334,449.5,113.75225C451.9166666666667,113.74554166666667,454.3333333333333,113.73883333333335,456.75,113.73212500000001C459.1666666666667,113.72541666666667,461.5833333333333,113.71870833333334,464,113.712C466.4166666666667,113.70529166666667,468.8333333333333,113.69858333333333,471.25,113.691875C473.6666666666667,113.68516666666666,476.0833333333333,113.67845833333334,478.5,113.67175C480.9166666666667,113.66504166666667,483.33333333333337,113.65833333333333,485.75000000000006,113.651625C488.16666666666674,113.64491666666666,490.58333333333337,113.63820833333334,493.00000000000006,113.6315C495.4166666666667,113.62479166666667,497.8333333333333,113.61808333333335,500.24999999999994,113.61137500000001C502.66666666666663,113.60466666666667,505.08333333333326,113.59795833333334,507.49999999999994,113.59125C509.91666666666663,113.58454166666667,512.3333333333333,113.57783333333333,514.75,113.571125C517.1666666666666,113.56441666666666,519.5833333333334,113.55770833333334,522,113.551C524.4166666666666,113.54429166666667,526.8333333333334,113.53758333333334,529.25,113.53087500000001C531.6666666666666,113.52416666666667,534.0833333333334,113.51745833333334,536.5,113.51075C538.9166666666666,113.50404166666667,541.3333333333334,113.49733333333333,543.75,113.490625C546.1666666666666,113.48391666666666,548.5833333333334,113.47720833333334,551,113.4705C553.4166666666666,113.46379166666667,555.8333333333334,113.45708333333333,558.25,113.450375C560.6666666666666,113.44366666666666,563.0833333333334,113.43695833333334,565.5,113.43025C567.9166666666666,113.42354166666667,570.3333333333334,113.41683333333334,572.75,113.41012500000001C575.1666666666666,113.40341666666667,577.5833333333334,113.39670833333334,580,113.39C582.4166666666666,113.38329166666666,584.8333333333334,113.37658333333333,587.25,113.369875C589.6666666666666,113.36316666666666,592.0833333333334,113.35645833333334,594.5,113.34975C596.9166666666666,113.34304166666666,599.3333333333334,113.33633333333333,601.75,113.329625C604.1666666666666,113.32291666666666,606.5833333333334,113.31620833333334,609,113.3095C611.4166666666666,113.30279166666666,613.8333333333334,113.29608333333334,616.25,113.289375C618.6666666666666,113.28266666666667,621.0833333333334,113.27595833333334,623.5,113.26925C625.9166666666666,113.26254166666666,628.3333333333334,113.25583333333333,630.75,113.24912499999999C633.1666666666666,113.24241666666666,635.5833333333334,113.23570833333333,638,113.229C640.4166666666666,113.22229166666666,642.8333333333334,113.21558333333334,645.25,113.208875C647.6666666666666,113.20216666666667,650.0833333333334,113.19545833333333,652.5,113.18875C654.9166666666666,113.18204166666666,657.3333333333334,113.17533333333334,659.75,113.168625C662.1666666666666,113.16191666666667,664.5833333333334,113.15520833333333,667,113.1485C669.4166666666666,113.14179166666666,671.8333333333334,113.13508333333333,674.25,113.12837499999999C676.6666666666666,113.12166666666666,679.0833333333334,113.11495833333333,681.5,113.10825C683.9166666666666,113.10154166666666,686.3333333333334,113.09483333333334,688.75,113.088125C691.1666666666666,113.08141666666667,693.5833333333334,113.07470833333333,696,113.068C698.4166666666666,113.06129166666666,700.8333333333334,113.05458333333334,703.25,113.047875C705.6666666666666,113.04116666666667,708.0833333333334,113.03445833333333,710.5,113.02775C712.9166666666666,113.02104166666666,715.3333333333334,113.01433333333333,717.75,113.00762499999999C720.1666666666666,113.00091666666665,722.5833333333334,112.99420833333335,725,112.98750000000001C727.4166666666666,112.98079166666668,729.8333333333334,112.97408333333334,732.25,112.967375C734.6666666666666,112.96066666666667,737.0833333333334,112.95395833333333,739.5,112.94725C741.9166666666666,112.94054166666666,744.3333333333334,112.93383333333334,746.75,112.927125C749.1666666666666,112.92041666666667,751.5833333333334,112.91370833333333,754,112.907C756.4166666666666,112.90029166666666,758.8333333333334,112.89358333333334,761.25,112.886875C763.6666666666666,112.88016666666667,766.0833333333334,112.87345833333335,768.5,112.86675000000001C770.9166666666666,112.86004166666667,773.3333333333334,112.85333333333334,775.75,112.846625C778.1666666666666,112.83991666666667,780.5833333333334,112.83320833333333,783,112.8265C785.4166666666667,112.81979166666666,787.8333333333334,112.81308333333334,790.2500000000001,112.806375C792.6666666666667,112.79966666666667,795.0833333333335,112.79295833333333,797.5000000000001,112.78625C799.9166666666667,112.77954166666666,802.3333333333335,112.77283333333334,804.7500000000001,112.766125C807.1666666666667,112.75941666666667,809.5833333333335,112.75270833333335,812.0000000000001,112.74600000000001C814.4166666666667,112.73929166666667,816.8333333333333,112.73258333333334,819.2499999999999,112.725875C821.6666666666665,112.71916666666667,824.0833333333333,112.71245833333333,826.4999999999999,112.70575C828.9166666666665,112.69904166666666,831.3333333333333,112.69233333333334,833.7499999999999,112.685625C836.1666666666665,112.67891666666667,838.5833333333333,112.67220833333334,840.9999999999999,112.66550000000001C843.4166666666666,112.65879166666667,845.8333333333333,112.65208333333334,848.25,112.645375C850.6666666666666,112.63866666666667,853.0833333333334,112.63195833333333,855.5,112.62525C857.9166666666666,112.61854166666666,860.3333333333334,112.61183333333334,862.75,112.605125C865.1666666666666,112.59841666666667,867.5833333333334,112.59170833333333,870,112.585C872.4166666666666,112.57829166666666,874.8333333333334,112.57158333333334,877.25,112.564875C879.6666666666666,112.55816666666666,882.0833333333334,112.55145833333334,884.5,112.54475000000001C886.9166666666666,112.53804166666667,889.3333333333334,112.53133333333334,891.75,112.524625C894.1666666666666,112.51791666666666,896.5833333333334,112.51120833333333,899,112.5045C901.4166666666666,112.49779166666666,903.8333333333334,112.49108333333334,906.25,112.484375C908.6666666666666,112.47766666666666,911.0833333333334,112.47095833333333,913.5,112.46424999999999C915.9166666666666,112.45754166666666,918.3333333333334,112.45083333333334,920.75,112.444125C923.1666666666666,112.43741666666666,925.5833333333334,112.43070833333334,928,112.424C930.4166666666666,112.41729166666667,932.8333333333334,112.41058333333334,935.25,112.403875C937.6666666666666,112.39716666666666,940.0833333333334,112.39045833333333,942.5,112.38374999999999C944.9166666666666,112.37704166666666,947.3333333333334,112.37033333333333,949.75,112.363625C952.1666666666666,112.35691666666666,954.5833333333334,112.35020833333334,957,112.3435C959.4166666666666,112.33679166666667,961.8333333333334,112.33008333333333,964.25,112.323375C966.6666666666667,112.31666666666666,969.0833333333334,112.30995833333334,971.5000000000001,112.30325C973.9166666666667,112.29654166666667,976.3333333333335,112.28983333333333,978.7500000000001,112.283125C981.1666666666667,112.27641666666666,983.5833333333335,112.26970833333333,986.0000000000001,112.26299999999999C988.4166666666667,112.25629166666666,990.8333333333335,112.24958333333333,993.2500000000001,112.242875C995.6666666666667,112.23616666666666,998.0833333333333,112.22945833333334,1000.4999999999999,112.22275C1002.9166666666665,112.21604166666667,1005.3333333333333,112.20933333333333,1007.7499999999999,112.202625C1010.1666666666665,112.19591666666666,1012.5833333333333,112.18920833333334,1014.9999999999999,112.1825C1017.4166666666665,112.17579166666667,1019.8333333333333,112.16908333333333,1022.2499999999999,112.162375C1024.6666666666665,112.15566666666666,1027.0833333333333,112.14895833333333,1029.5,112.14224999999999C1031.9166666666667,112.13554166666665,1034.3333333333333,112.12883333333335,1036.75,112.12212500000001C1039.1666666666667,112.11541666666668,1041.5833333333333,112.10870833333334,1044,112.102C1046.4166666666667,112.09529166666667,1048.8333333333333,112.08858333333333,1051.25,112.081875C1053.6666666666667,112.07516666666666,1056.0833333333333,112.06845833333334,1058.5,112.06175C1060.9166666666667,112.05504166666667,1063.3333333333333,112.04833333333333,1065.75,112.041625C1068.1666666666667,112.03491666666666,1070.5833333333333,112.02820833333334,1073,112.0215C1075.4166666666667,112.01479166666667,1077.8333333333333,112.00808333333335,1080.25,112.00137500000001C1082.6666666666667,111.99466666666667,1085.0833333333333,111.98795833333334,1087.5,111.98125C1089.9166666666667,111.97454166666667,1092.3333333333333,111.96783333333333,1094.75,111.961125C1097.1666666666667,111.95441666666666,1099.5833333333333,111.94770833333334,1102,111.941C1104.4166666666667,111.93429166666667,1106.8333333333333,111.92758333333333,1109.25,111.920875C1111.6666666666667,111.91416666666666,1114.0833333333333,111.90745833333334,1116.5,111.90075C1118.9166666666667,111.89404166666667,1121.3333333333333,111.88733333333334,1123.75,111.88062500000001C1126.1666666666667,111.87391666666667,1128.5833333333333,111.86720833333334,1131,111.8605C1133.4166666666667,111.85379166666667,1135.8333333333333,111.84708333333333,1138.25,111.840375C1140.6666666666667,111.83366666666666,1143.0833333333333,111.82695833333334,1145.5,111.82025C1147.9166666666667,111.81354166666667,1150.3333333333333,111.80683333333334,1152.75,111.80012500000001C1155.1666666666667,111.79341666666667,1157.5833333333333,111.79341666666667,1160,111.78C1162.4166666666667,111.76658333333333,1164.8333333333333,110.24666666666666,1167.25,109.47999999999999C1169.6666666666667,108.71333333333332,1172.0833333333333,107.94666666666666,1174.5,107.17999999999999C1176.9166666666667,106.41333333333333,1179.3333333333333,105.64666666666668,1181.75,104.88000000000001C1184.1666666666667,104.11333333333334,1186.5833333333333,103.34666666666666,1189,102.58C1191.4166666666667,101.81333333333333,1193.8333333333333,101.04666666666667,1196.25,100.28C1198.6666666666667,99.51333333333334,1201.0833333333333,98.74666666666667,1203.5,97.98C1205.9166666666667,97.21333333333334,1208.3333333333333,96.44666666666666,1210.75,95.67999999999999C1213.1666666666667,94.91333333333333,1215.5833333333333,94.14666666666668,1218,93.38000000000001C1220.4166666666667,92.61333333333334,1222.8333333333333,91.84666666666666,1225.25,91.08C1227.6666666666667,90.31333333333333,1230.0833333333333,89.54666666666667,1232.5,88.78C1234.9166666666667,88.01333333333334,1237.3333333333333,87.24666666666667,1239.75,86.48C1242.1666666666667,85.71333333333334,1244.5833333333333,84.94666666666666,1247,84.17999999999999C1249.4166666666667,83.41333333333333,1251.8333333333333,82.64666666666666,1254.25,81.88C1256.6666666666667,81.11333333333333,1259.0833333333333,80.34666666666666,1261.5,79.58C1263.9166666666667,78.81333333333333,1266.3333333333333,78.04666666666665,1268.75,77.27999999999999C1271.1666666666667,76.51333333333332,1273.5833333333333,75.74666666666667,1276,74.98C1278.4166666666667,74.21333333333334,1280.8333333333333,73.44666666666667,1283.25,72.68C1285.6666666666667,71.91333333333334,1288.0833333333333,71.14666666666665,1290.5,70.37999999999998C1292.9166666666667,69.61333333333332,1295.3333333333333,68.84666666666668,1297.75,68.08000000000001C1300.1666666666667,67.31333333333335,1302.5833333333333,66.54666666666667,1305,65.78C1307.4166666666667,65.01333333333334,1309.8333333333333,64.24666666666666,1312.25,63.47999999999999C1314.6666666666667,62.713333333333324,1317.0833333333333,61.94666666666667,1319.5,61.18000000000001C1321.9166666666667,60.41333333333334,1324.3333333333333,59.64666666666667,1326.75,58.88C1329.1666666666667,58.11333333333334,1331.5833333333333,57.346666666666664,1334,56.58C1336.4166666666667,55.81333333333333,1338.8333333333333,55.04666666666666,1341.25,54.279999999999994C1343.6666666666667,53.51333333333333,1346.0833333333333,52.74666666666666,1348.5,51.98C1350.9166666666667,51.21333333333333,1353.3333333333333,50.44666666666667,1355.75,49.68000000000001C1358.1666666666667,48.91333333333334,1360.5833333333333,48.14666666666667,1363,47.38C1365.4166666666667,46.61333333333334,1367.8333333333333,45.846666666666664,1370.25,45.08C1372.6666666666667,44.31333333333333,1375.0833333333333,43.54666666666667,1377.5,42.78C1379.9166666666667,42.013333333333335,1382.3333333333333,41.24666666666666,1384.75,40.48C1387.1666666666667,39.71333333333333,1389.5833333333333,38.94666666666667,1392,38.18000000000001C1394.4166666666667,37.41333333333334,1396.8333333333333,36.646666666666675,1399.25,35.88000000000001C1401.6666666666667,35.113333333333344,1404.0833333333333,34.34666666666667,1406.5,33.580000000000005C1408.9166666666667,32.81333333333334,1411.3333333333333,32.04666666666667,1413.75,31.28C1416.1666666666667,30.513333333333335,1418.5833333333333,29.746666666666666,1421,28.98C1423.4166666666667,28.213333333333335,1425.8333333333333,27.446666666666665,1428.25,26.68C1430.6666666666667,25.913333333333334,1433.0833333333333,25.14666666666668,1435.5,24.38000000000001C1437.9166666666667,23.61333333333334,1440.3333333333333,22.84666666666665,1442.75,22.07999999999998C1445.1666666666667,21.31333333333331,1447.5833333333333,20.54666666666666,1450,19.780000000000005" fill="transparent" stroke-linecap="round" stroke="#B6509E" stroke-width="2"></path><path class="visx-linepath" d="M0,103.49999999997125C2.4166666666666665,103.49520833331655,4.833333333333334,103.49041666666187,7.25,103.485625C9.666666666666666,103.48083333333813,12.083333333333334,103.47604166666667,14.5,103.47125000000001C16.916666666666668,103.46645833333335,19.333333333333332,103.46166666666667,21.75,103.456875C24.166666666666668,103.45208333333332,26.583333333333332,103.44729166666666,29,103.4425C31.416666666666668,103.43770833333333,33.833333333333336,103.43291666666667,36.25,103.42812500000001C38.666666666666664,103.42333333333335,41.083333333333336,103.41854166666666,43.5,103.41375C45.91666666666667,103.40895833333332,48.333333333333336,103.40416666666665,50.75000000000001,103.39937499999999C53.16666666666667,103.39458333333333,55.583333333333336,103.38979166666667,58,103.385C60.416666666666664,103.38020833333334,62.833333333333336,103.37541666666667,65.25,103.370625C67.66666666666667,103.36583333333334,70.08333333333333,103.36104166666665,72.5,103.35624999999999C74.91666666666667,103.35145833333333,77.33333333333333,103.34666666666666,79.75,103.341875C82.16666666666667,103.33708333333334,84.58333333333333,103.33229166666666,87,103.3275C89.41666666666667,103.32270833333334,91.83333333333333,103.31791666666666,94.25,103.313125C96.66666666666667,103.30833333333334,99.08333333333334,103.30354166666666,101.50000000000001,103.29875C103.91666666666667,103.29395833333334,106.33333333333334,103.28916666666667,108.75,103.28437500000001C111.16666666666667,103.27958333333335,113.58333333333333,103.27479166666666,116,103.27C118.41666666666667,103.26520833333332,120.83333333333334,103.26041666666666,123.25000000000001,103.255625C125.66666666666667,103.25083333333333,128.08333333333334,103.24604166666667,130.5,103.24125000000001C132.91666666666666,103.23645833333335,135.33333333333334,103.23166666666668,137.75,103.226875C140.16666666666666,103.22208333333333,142.58333333333334,103.21729166666665,145,103.21249999999999C147.41666666666666,103.20770833333333,149.83333333333334,103.20291666666667,152.25,103.198125C154.66666666666666,103.19333333333334,157.08333333333334,103.18854166666668,159.5,103.18375C161.91666666666666,103.17895833333333,164.33333333333334,103.17416666666665,166.75,103.16937499999999C169.16666666666666,103.16458333333333,171.58333333333334,103.15979166666666,174,103.155C176.41666666666666,103.15020833333334,178.83333333333334,103.14541666666666,181.25,103.140625C183.66666666666666,103.13583333333334,186.08333333333334,103.13104166666666,188.5,103.12625C190.91666666666666,103.12145833333334,193.33333333333334,103.11666666666666,195.75,103.111875C198.16666666666669,103.10708333333334,200.58333333333334,103.10229166666666,203.00000000000003,103.0975C205.41666666666669,103.09270833333333,207.83333333333331,103.08791666666667,210.24999999999997,103.08312500000001C212.66666666666666,103.07833333333335,215.08333333333331,103.07354166666666,217.5,103.06875C219.91666666666666,103.06395833333333,222.33333333333334,103.05916666666667,224.75,103.05437500000001C227.16666666666666,103.04958333333335,229.58333333333334,103.04479166666667,232,103.04C234.41666666666666,103.03520833333334,236.83333333333334,103.03041666666665,239.25,103.02562499999999C241.66666666666669,103.02083333333333,244.08333333333334,103.01604166666667,246.50000000000003,103.01125C248.91666666666669,103.00645833333334,251.33333333333331,103.00166666666667,253.74999999999997,102.996875C256.16666666666663,102.99208333333334,258.5833333333333,102.98729166666666,261,102.9825C263.4166666666667,102.97770833333334,265.8333333333333,102.97291666666666,268.25,102.968125C270.6666666666667,102.96333333333334,273.0833333333333,102.95854166666666,275.5,102.95375C277.9166666666667,102.94895833333334,280.3333333333333,102.94416666666666,282.75,102.939375C285.1666666666667,102.93458333333334,287.5833333333333,102.92979166666666,290,102.925C292.4166666666667,102.92020833333333,294.8333333333333,102.91541666666666,297.25,102.910625C299.6666666666667,102.90583333333333,302.0833333333333,102.90104166666666,304.5,102.89625C306.9166666666667,102.89145833333333,309.3333333333333,102.88666666666666,311.75,102.881875C314.1666666666667,102.87708333333333,316.5833333333333,102.87229166666667,319,102.8675C321.4166666666667,102.86270833333334,323.8333333333333,102.85791666666667,326.25,102.853125C328.6666666666667,102.84833333333334,331.0833333333333,102.84354166666667,333.5,102.83875C335.9166666666667,102.83395833333334,338.3333333333333,102.82916666666667,340.75,102.824375C343.1666666666667,102.81958333333334,345.5833333333333,102.81479166666666,348,102.81C350.4166666666667,102.80520833333334,352.8333333333333,102.80041666666666,355.25,102.795625C357.6666666666667,102.79083333333334,360.0833333333333,102.78604166666666,362.5,102.78125C364.9166666666667,102.77645833333334,367.3333333333333,102.77166666666666,369.75,102.766875C372.1666666666667,102.76208333333334,374.5833333333333,102.75729166666666,377,102.7525C379.4166666666667,102.74770833333334,381.8333333333333,102.74291666666666,384.25,102.738125C386.6666666666667,102.73333333333333,389.0833333333333,102.72854166666666,391.5,102.72375C393.9166666666667,102.71895833333333,396.33333333333337,102.71416666666666,398.75000000000006,102.709375C401.16666666666674,102.70458333333333,403.58333333333337,102.69979166666667,406.00000000000006,102.69500000000001C408.4166666666667,102.69020833333335,410.8333333333333,102.68541666666665,413.24999999999994,102.68062499999999C415.66666666666663,102.67583333333333,418.08333333333326,102.67104166666667,420.49999999999994,102.66625C422.91666666666663,102.66145833333334,425.3333333333333,102.65666666666668,427.75,102.651875C430.1666666666667,102.64708333333334,432.5833333333333,102.64229166666665,435,102.63749999999999C437.4166666666667,102.63270833333333,439.8333333333333,102.62791666666666,442.25,102.623125C444.6666666666667,102.61833333333334,447.0833333333333,102.61354166666666,449.5,102.60875C451.9166666666667,102.60395833333334,454.3333333333333,102.59916666666668,456.75,102.59437500000001C459.1666666666667,102.58958333333335,461.5833333333333,102.58479166666666,464,102.58C466.4166666666667,102.57520833333334,468.8333333333333,102.57041666666666,471.25,102.565625C473.6666666666667,102.56083333333333,476.0833333333333,102.55604166666667,478.5,102.55125000000001C480.9166666666667,102.54645833333335,483.33333333333337,102.54166666666667,485.75000000000006,102.536875C488.16666666666674,102.53208333333333,490.58333333333337,102.52729166666666,493.00000000000006,102.5225C495.4166666666667,102.51770833333333,497.8333333333333,102.51291666666667,500.24999999999994,102.508125C502.66666666666663,102.50333333333334,505.08333333333326,102.49854166666665,507.49999999999994,102.49374999999999C509.91666666666663,102.48895833333331,512.3333333333333,102.48416666666665,514.75,102.47937499999999C517.1666666666666,102.47458333333333,519.5833333333334,102.46979166666667,522,102.465C524.4166666666666,102.46020833333334,526.8333333333334,102.45541666666668,529.25,102.450625C531.6666666666666,102.44583333333333,534.0833333333334,102.44104166666665,536.5,102.43624999999999C538.9166666666666,102.43145833333332,541.3333333333334,102.42666666666666,543.75,102.421875C546.1666666666666,102.41708333333334,548.5833333333334,102.41229166666668,551,102.40750000000001C553.4166666666666,102.40270833333335,555.8333333333334,102.39791666666667,558.25,102.393125C560.6666666666666,102.38833333333332,563.0833333333334,102.38354166666666,565.5,102.37875C567.9166666666666,102.37395833333333,570.3333333333334,102.36916666666667,572.75,102.36437500000001C575.1666666666666,102.35958333333335,577.5833333333334,102.35479166666667,580,102.35000000000001C582.4166666666666,102.34520833333335,584.8333333333334,102.34041666666666,587.25,102.335625C589.6666666666666,102.33083333333333,592.0833333333334,102.32604166666667,594.5,102.32125C596.9166666666666,102.31645833333334,599.3333333333334,102.31166666666667,601.75,102.306875C604.1666666666666,102.30208333333334,606.5833333333334,102.29729166666665,609,102.29249999999999C611.4166666666666,102.28770833333333,613.8333333333334,102.28291666666667,616.25,102.278125C618.6666666666666,102.27333333333334,621.0833333333334,102.26854166666666,623.5,102.26375C625.9166666666666,102.25895833333334,628.3333333333334,102.25416666666665,630.75,102.24937499999999C633.1666666666666,102.24458333333332,635.5833333333334,102.23979166666666,638,102.235C640.4166666666666,102.23020833333334,642.8333333333334,102.22541666666666,645.25,102.220625C647.6666666666666,102.21583333333334,650.0833333333334,102.21104166666667,652.5,102.20625000000001C654.9166666666666,102.20145833333335,657.3333333333334,102.19666666666666,659.75,102.191875C662.1666666666666,102.18708333333333,664.5833333333334,102.18229166666666,667,102.1775C669.4166666666666,102.17270833333333,671.8333333333334,102.16791666666667,674.25,102.16312500000001C676.6666666666666,102.15833333333335,679.0833333333334,102.15354166666665,681.5,102.14874999999999C683.9166666666666,102.14395833333333,686.3333333333334,102.13916666666667,688.75,102.134375C691.1666666666666,102.12958333333334,693.5833333333334,102.12479166666667,696,102.12C698.4166666666666,102.11520833333334,700.8333333333334,102.11041666666667,703.25,102.105625C705.6666666666666,102.10083333333334,708.0833333333334,102.09604166666666,710.5,102.09125C712.9166666666666,102.08645833333334,715.3333333333334,102.08166666666666,717.75,102.076875C720.1666666666666,102.07208333333334,722.5833333333334,102.06729166666666,725,102.0625C727.4166666666666,102.05770833333334,729.8333333333334,102.05291666666666,732.25,102.048125C734.6666666666666,102.04333333333334,737.0833333333334,102.03854166666666,739.5,102.03375C741.9166666666666,102.02895833333334,744.3333333333334,102.02416666666666,746.75,102.019375C749.1666666666666,102.01458333333333,751.5833333333334,102.00979166666666,754,102.005C756.4166666666666,102.00020833333333,758.8333333333334,101.99541666666666,761.25,101.990625C763.6666666666666,101.98583333333333,766.0833333333334,101.98104166666666,768.5,101.97625C770.9166666666666,101.97145833333333,773.3333333333334,101.96666666666667,775.75,101.961875C778.1666666666666,101.95708333333334,780.5833333333334,101.95229166666667,783,101.9475C785.4166666666667,101.94270833333334,787.8333333333334,101.93791666666667,790.2500000000001,101.933125C792.6666666666667,101.92833333333334,795.0833333333335,101.92354166666667,797.5000000000001,101.91875C799.9166666666667,101.91395833333334,802.3333333333335,101.90916666666666,804.7500000000001,101.904375C807.1666666666667,101.89958333333334,809.5833333333335,101.89479166666666,812.0000000000001,101.89C814.4166666666667,101.88520833333334,816.8333333333333,101.88041666666666,819.2499999999999,101.875625C821.6666666666665,101.87083333333334,824.0833333333333,101.86604166666666,826.4999999999999,101.86125C828.9166666666665,101.85645833333334,831.3333333333333,101.85166666666666,833.7499999999999,101.846875C836.1666666666665,101.84208333333333,838.5833333333333,101.83729166666666,840.9999999999999,101.8325C843.4166666666666,101.82770833333333,845.8333333333333,101.82291666666667,848.25,101.81812500000001C850.6666666666666,101.81333333333335,853.0833333333334,101.80854166666666,855.5,101.80375C857.9166666666666,101.79895833333333,860.3333333333334,101.79416666666665,862.75,101.78937499999999C865.1666666666666,101.78458333333333,867.5833333333334,101.77979166666667,870,101.775C872.4166666666666,101.77020833333334,874.8333333333334,101.76541666666665,877.25,101.76062499999999C879.6666666666666,101.75583333333333,882.0833333333334,101.75104166666667,884.5,101.74625C886.9166666666666,101.74145833333334,889.3333333333334,101.73666666666666,891.75,101.731875C894.1666666666666,101.72708333333334,896.5833333333334,101.72229166666666,899,101.7175C901.4166666666666,101.71270833333334,903.8333333333334,101.70791666666666,906.25,101.703125C908.6666666666666,101.69833333333334,911.0833333333334,101.69354166666666,913.5,101.68875C915.9166666666666,101.68395833333334,918.3333333333334,101.67916666666667,920.75,101.67437500000001C923.1666666666666,101.66958333333335,925.5833333333334,101.66479166666667,928,101.66C930.4166666666666,101.65520833333332,932.8333333333334,101.65041666666666,935.25,101.645625C937.6666666666666,101.64083333333333,940.0833333333334,101.63604166666667,942.5,101.63125000000001C944.9166666666666,101.62645833333335,947.3333333333334,101.62166666666667,949.75,101.616875C952.1666666666666,101.61208333333332,954.5833333333334,101.60729166666665,957,101.60249999999999C959.4166666666666,101.59770833333333,961.8333333333334,101.59291666666667,964.25,101.588125C966.6666666666667,101.58333333333334,969.0833333333334,101.57854166666668,971.5000000000001,101.57375C973.9166666666667,101.56895833333334,976.3333333333335,101.56416666666665,978.7500000000001,101.55937499999999C981.1666666666667,101.55458333333333,983.5833333333335,101.54979166666666,986.0000000000001,101.545C988.4166666666667,101.54020833333334,990.8333333333335,101.53541666666666,993.2500000000001,101.530625C995.6666666666667,101.52583333333334,998.0833333333333,101.52104166666666,1000.4999999999999,101.51625C1002.9166666666665,101.51145833333334,1005.3333333333333,101.50666666666666,1007.7499999999999,101.501875C1010.1666666666665,101.49708333333334,1012.5833333333333,101.49229166666667,1014.9999999999999,101.48750000000001C1017.4166666666665,101.48270833333335,1019.8333333333333,101.47791666666666,1022.2499999999999,101.473125C1024.6666666666665,101.46833333333332,1027.0833333333333,101.46354166666666,1029.5,101.45875C1031.9166666666667,101.45395833333333,1034.3333333333333,101.44916666666667,1036.75,101.44437500000001C1039.1666666666667,101.43958333333335,1041.5833333333333,101.43479166666668,1044,101.43C1046.4166666666667,101.42520833333333,1048.8333333333333,101.42041666666665,1051.25,101.41562499999999C1053.6666666666667,101.41083333333333,1056.0833333333333,101.40604166666667,1058.5,101.40125C1060.9166666666667,101.39645833333334,1063.3333333333333,101.39166666666668,1065.75,101.386875C1068.1666666666667,101.38208333333333,1070.5833333333333,101.37729166666665,1073,101.37249999999999C1075.4166666666667,101.36770833333333,1077.8333333333333,101.36291666666666,1080.25,101.358125C1082.6666666666667,101.35333333333334,1085.0833333333333,101.34854166666666,1087.5,101.34375C1089.9166666666667,101.33895833333334,1092.3333333333333,101.33416666666666,1094.75,101.329375C1097.1666666666667,101.32458333333334,1099.5833333333333,101.31979166666666,1102,101.315C1104.4166666666667,101.31020833333334,1106.8333333333333,101.30541666666666,1109.25,101.300625C1111.6666666666667,101.29583333333333,1114.0833333333333,101.29104166666667,1116.5,101.28625000000001C1118.9166666666667,101.28145833333335,1121.3333333333333,101.27666666666666,1123.75,101.271875C1126.1666666666667,101.26708333333333,1128.5833333333333,101.26229166666667,1131,101.25750000000001C1133.4166666666667,101.25270833333335,1135.8333333333333,101.24791666666667,1138.25,101.243125C1140.6666666666667,101.23833333333334,1143.0833333333333,101.23354166666665,1145.5,101.22874999999999C1147.9166666666667,101.22395833333333,1150.3333333333333,101.21916666666667,1152.75,101.214375C1155.1666666666667,101.20958333333334,1157.5833333333333,101.20958333333334,1160,101.2C1162.4166666666667,101.19041666666666,1164.8333333333333,99.76249999999999,1167.25,99.04374999999999C1169.6666666666667,98.32499999999999,1172.0833333333333,97.60625,1174.5,96.8875C1176.9166666666667,96.16875,1179.3333333333333,95.45,1181.75,94.73125C1184.1666666666667,94.0125,1186.5833333333333,93.29374999999999,1189,92.57499999999999C1191.4166666666667,91.85624999999999,1193.8333333333333,91.1375,1196.25,90.41875C1198.6666666666667,89.7,1201.0833333333333,88.98124999999999,1203.5,88.26249999999999C1205.9166666666667,87.54374999999999,1208.3333333333333,86.825,1210.75,86.10625C1213.1666666666667,85.3875,1215.5833333333333,84.66875,1218,83.95C1220.4166666666667,83.23125,1222.8333333333333,82.51249999999999,1225.25,81.79374999999999C1227.6666666666667,81.07499999999999,1230.0833333333333,80.35625,1232.5,79.6375C1234.9166666666667,78.91875,1237.3333333333333,78.2,1239.75,77.48125C1242.1666666666667,76.7625,1244.5833333333333,76.04375,1247,75.325C1249.4166666666667,74.60625,1251.8333333333333,73.8875,1254.25,73.16875C1256.6666666666667,72.45,1259.0833333333333,71.73124999999999,1261.5,71.01249999999999C1263.9166666666667,70.29374999999999,1266.3333333333333,69.575,1268.75,68.85625C1271.1666666666667,68.1375,1273.5833333333333,67.41875,1276,66.7C1278.4166666666667,65.98125,1280.8333333333333,65.2625,1283.25,64.54375C1285.6666666666667,63.825,1288.0833333333333,63.106249999999996,1290.5,62.387499999999996C1292.9166666666667,61.668749999999996,1295.3333333333333,60.949999999999996,1297.75,60.231249999999996C1300.1666666666667,59.512499999999996,1302.5833333333333,58.79375,1305,58.075C1307.4166666666667,57.35625,1309.8333333333333,56.637499999999996,1312.25,55.918749999999996C1314.6666666666667,55.199999999999996,1317.0833333333333,54.48125,1319.5,53.7625C1321.9166666666667,53.04375,1324.3333333333333,52.324999999999996,1326.75,51.606249999999996C1329.1666666666667,50.887499999999996,1331.5833333333333,50.16875,1334,49.45C1336.4166666666667,48.73125,1338.8333333333333,48.0125,1341.25,47.29375C1343.6666666666667,46.575,1346.0833333333333,45.856249999999996,1348.5,45.137499999999996C1350.9166666666667,44.418749999999996,1353.3333333333333,43.7,1355.75,42.98125C1358.1666666666667,42.2625,1360.5833333333333,41.543749999999996,1363,40.824999999999996C1365.4166666666667,40.106249999999996,1367.8333333333333,39.3875,1370.25,38.66875C1372.6666666666667,37.95,1375.0833333333333,37.23125,1377.5,36.5125C1379.9166666666667,35.79375,1382.3333333333333,35.074999999999996,1384.75,34.356249999999996C1387.1666666666667,33.637499999999996,1389.5833333333333,32.91875,1392,32.2C1394.4166666666667,31.481250000000003,1396.8333333333333,30.7625,1399.25,30.04375C1401.6666666666667,29.325,1404.0833333333333,28.606250000000006,1406.5,27.887500000000006C1408.9166666666667,27.168750000000006,1411.3333333333333,26.450000000000003,1413.75,25.73125C1416.1666666666667,25.012499999999996,1418.5833333333333,24.293749999999996,1421,23.574999999999996C1423.4166666666667,22.856249999999996,1425.8333333333333,22.137500000000003,1428.25,21.418750000000003C1430.6666666666667,20.700000000000003,1433.0833333333333,19.98125,1435.5,19.2625C1437.9166666666667,18.54375,1440.3333333333333,17.825000000000006,1442.75,17.106250000000006C1445.1666666666667,16.387500000000006,1447.5833333333333,15.668750000000005,1450,14.950000000000001" fill="transparent" stroke-linecap="round" stroke="#E7C6DF" stroke-width="2"></path><g class="visx-group visx-axis visx-axis-bottom" transform="translate(0, 115)"><g class="visx-group visx-axis-tick" transform="translate(0, 0)"><line class="visx-line" x1="0" y1="0" x2="0" y2="8" fill="transparent" shape-rendering="crispEdges" stroke="#000" stroke-width="0" stroke-linecap="square"></line><svg x="0" y="0" font-size="10" style="overflow:visible"><text transform="" x="0" y="18" fill="#000" font-size="10" text-anchor="middle"><tspan x="0" dy="0em">0%</tspan></text></svg></g><g class="visx-group visx-axis-tick" transform="translate(0, 0)"><line class="visx-line" x1="362.5" y1="0" x2="362.5" y2="8" fill="transparent" shape-rendering="crispEdges" stroke="#000" stroke-width="0" stroke-linecap="square"></line><svg x="0" y="0" font-size="10" style="overflow:visible"><text transform="" x="362.5" y="18" fill="#000" font-size="10" text-anchor="middle"><tspan x="362.5" dy="0em">25%</tspan></text></svg></g><g class="visx-group visx-axis-tick" transform="translate(0, 0)"><line class="visx-line" x1="725" y1="0" x2="725" y2="8" fill="transparent" shape-rendering="crispEdges" stroke="#000" stroke-width="0" stroke-linecap="square"></line><svg x="0" y="0" font-size="10" style="overflow:visible"><text transform="" x="725" y="18" fill="#000" font-size="10" text-anchor="middle"><tspan x="725" dy="0em">50%</tspan></text></svg></g><g class="visx-group visx-axis-tick" transform="translate(0, 0)"><line class="visx-line" x1="1087.5" y1="0" x2="1087.5" y2="8" fill="transparent" shape-rendering="crispEdges" stroke="#000" stroke-width="0" stroke-linecap="square"></line><svg x="0" y="0" font-size="10" style="overflow:visible"><text transform="" x="1087.5" y="18" fill="#000" font-size="10" text-anchor="middle"><tspan x="1087.5" dy="0em">75%</tspan></text></svg></g><g class="visx-group visx-axis-tick" transform="translate(0, 0)"><line class="visx-line" x1="1450" y1="0" x2="1450" y2="8" fill="transparent" shape-rendering="crispEdges" stroke="#000" stroke-width="0" stroke-linecap="square"></line><svg x="0" y="0" font-size="10" style="overflow:visible"><text transform="" x="1450" y="18" fill="#000" font-size="10" text-anchor="middle"><tspan x="1450" dy="0em">100%</tspan></text></svg></g><line class="visx-line visx-axis-line" x1="0.5" y1="0" x2="1450.5" y2="0" fill="transparent" shape-rendering="crispEdges" stroke="#222" stroke-width="0"></line></g><g class="visx-group visx-axis visx-axis-left" transform="translate(0, 0)"><g class="visx-group visx-axis-tick" transform="translate(0, 0)"><line class="visx-line" x1="0" y1="115" x2="-8" y2="115" fill="transparent" shape-rendering="crispEdges" stroke="#222" stroke-width="0" stroke-linecap="square"></line><svg x="-30" y="0" font-size="8" style="overflow:visible"><text transform="" x="-8" y="115" fill="#000" font-size="8" text-anchor="start"><tspan x="-8" dy="0em">0%</tspan></text></svg></g><g class="visx-group visx-axis-tick" transform="translate(0, 0)"><line class="visx-line" x1="0" y1="57.5" x2="-8" y2="57.5" fill="transparent" shape-rendering="crispEdges" stroke="#222" stroke-width="0" stroke-linecap="square"></line><svg x="-30" y="0" font-size="8" style="overflow:visible"><text transform="" x="-8" y="57.5" fill="#000" font-size="8" text-anchor="start"><tspan x="-8" dy="0em">50%</tspan></text></svg></g><g class="visx-group visx-axis-tick" transform="translate(0, 0)"><line class="visx-line" x1="0" y1="0" x2="-8" y2="0" fill="transparent" shape-rendering="crispEdges" stroke="#222" stroke-width="0" stroke-linecap="square"></line><svg x="-30" y="0" font-size="8" style="overflow:visible"><text transform="" x="-8" y="0" fill="#000" font-size="8" text-anchor="start"><tspan x="-8" dy="0em">100%</tspan></text></svg></g><line class="visx-line visx-axis-line" x1="0" y1="115.5" x2="0" y2="0.5" fill="transparent" shape-rendering="crispEdges" stroke="#222" stroke-width="0"></line></g><rect class="visx-bar" width="1450" height="115" fill="transparent"></rect><line class="visx-line" x1="1160" y1="28" x2="1160" y2="115" fill="transparent" shape-rendering="crispEdges" stroke="#0062D2" stroke-width="1" pointer-events="none" stroke-dasharray="5,2"></line><svg x="0" y="0" font-size="10px" style="overflow:visible"><text transform="" x="1160" y="20" font-size="10px" fill="#fff" stroke="#fff" stroke-width="0.8em" text-anchor="middle"><tspan x="1160" dy="0.355em">Optimal 80%</tspan></text></svg><svg x="0" y="0" font-size="10px" style="overflow:visible"><text transform="" x="1160" y="20" font-size="10px" fill="#62677B" text-anchor="middle"><tspan x="1160" dy="0.355em">Optimal 80%</tspan></text></svg></g></svg>