<?xml version="1.0"?><svg xmlns="http://www.w3.org/2000/svg" xmlns:xlink= "http://www.w3.org/1999/xlink" style="background: white;" width="1500" height="300"> <g style="color: black; font-size: 13px; font-family: sans-serif; transform: translate(18px, 25px);"><g><circle r="3" cx="-6" cy="-5" style="fill: #1AD4B3" /><text>Borrow APR, variable</text></g><g style="transform: translateX(150px);"><circle r="3" cx="-6" cy="-5" style="fill: #101423" /><text>Borrow APR, stable</text></g></g><g class="visx-group" transform="translate(45, 50)"><g class="visx-group visx-rows" transform="translate(0, 0)"><line class="visx-line" x1="0" y1="155" x2="1425" y2="155" fill="transparent" shape-rendering="crispEdges" stroke="#F2F0F9" stroke-width="1" pointer-events="none"></line><line class="visx-line" x1="0" y1="103.33333333333334" x2="1425" y2="103.33333333333334" fill="transparent" shape-rendering="crispEdges" stroke="#F2F0F9" stroke-width="1" pointer-events="none"></line><line class="visx-line" x1="0" y1="51.66666666666667" x2="1425" y2="51.66666666666667" fill="transparent" shape-rendering="crispEdges" stroke="#F2F0F9" stroke-width="1" pointer-events="none"></line><line class="visx-line" x1="0" y1="0" x2="1425" y2="0" fill="transparent" shape-rendering="crispEdges" stroke="#F2F0F9" stroke-width="1" pointer-events="none"></line></g><path class="visx-linepath" d="M0,154.99999999994384C2.375,154.9906400965856,4.75,154.98128019322735,7.125,154.97192028985506C9.5,154.96256038648278,11.875,154.9532004830918,14.25,154.94384057971016C16.625,154.93448067632852,19,154.92512077294685,21.375,154.91576086956522C23.75,154.90640096618358,26.125,154.89704106280195,28.5,154.8876811594203C30.875,154.87832125603867,33.25,154.868961352657,35.625,154.85960144927537C38,154.85024154589374,40.375,154.84088164251207,42.75,154.83152173913044C45.125,154.8221618357488,47.50000000000001,154.81280193236714,49.87500000000001,154.8034420289855C52.25000000000001,154.79408212560386,54.625,154.7847222222222,57,154.77536231884056C59.375,154.76600241545893,61.75,154.7566425120773,64.125,154.74728260869566C66.5,154.73792270531402,68.875,154.72856280193236,71.25,154.71920289855072C73.625,154.70984299516908,76,154.70048309178745,78.375,154.6911231884058C80.75,154.68176328502418,83.125,154.6724033816425,85.5,154.66304347826087C87.875,154.65368357487924,90.25,154.64432367149757,92.625,154.63496376811594C95,154.6256038647343,97.37500000000001,154.61624396135267,99.75000000000001,154.60688405797103C102.12500000000001,154.5975241545894,104.5,154.58816425120773,106.875,154.5788043478261C109.25,154.56944444444446,111.625,154.5600845410628,114,154.55072463768116C116.375,154.54136473429952,118.75000000000001,154.53200483091786,121.12500000000001,154.52264492753622C123.50000000000001,154.51328502415458,125.875,154.50392512077295,128.25,154.4945652173913C130.625,154.48520531400968,133,154.475845410628,135.375,154.46648550724638C137.75,154.45712560386474,140.125,154.44776570048307,142.5,154.43840579710144C144.875,154.4290458937198,147.25,154.41968599033817,149.625,154.41032608695653C152,154.4009661835749,154.375,154.39160628019323,156.75,154.3822463768116C159.125,154.37288647342996,161.5,154.3635265700483,163.875,154.35416666666666C166.25,154.34480676328502,168.625,154.33544685990339,171,154.32608695652175C173.375,154.3167270531401,175.75,154.30736714975845,178.125,154.2980072463768C180.5,154.28864734299518,182.875,154.27928743961354,185.25,154.2699275362319C187.625,154.26056763285027,190,154.2512077294686,192.375,154.24184782608697C194.75,154.23248792270533,197.12500000000003,154.22312801932367,199.50000000000003,154.21376811594203C201.875,154.2044082125604,204.25,154.19504830917873,206.62499999999997,154.1856884057971C208.99999999999997,154.17632850241546,211.375,154.1669685990338,213.75,154.15760869565216C216.125,154.14824879227052,218.5,154.13888888888889,220.875,154.12952898550725C223.25,154.1201690821256,225.625,154.11080917874395,228,154.1014492753623C230.375,154.09208937198068,232.75,154.08272946859904,235.125,154.0733695652174C237.5,154.06400966183577,239.87500000000003,154.0546497584541,242.25000000000003,154.04528985507247C244.625,154.03592995169083,247,154.02657004830917,249.37499999999997,154.01721014492753C251.74999999999997,154.0078502415459,254.125,153.99849033816426,256.5,153.98913043478262C258.875,153.979770531401,261.25,153.97041062801932,263.625,153.9610507246377C266,153.95169082125605,268.375,153.9423309178744,270.75,153.93297101449275C273.125,153.92361111111111,275.5,153.91425120772945,277.875,153.9048913043478C280.25,153.89553140096618,282.625,153.88617149758454,285,153.8768115942029C287.375,153.86745169082127,289.75,153.8580917874396,292.125,153.84873188405797C294.5,153.83937198067633,296.875,153.83001207729467,299.25,153.82065217391303C301.625,153.8112922705314,304,153.80193236714976,306.375,153.79257246376812C308.75,153.7832125603865,311.125,153.77385265700482,313.5,153.7644927536232C315.875,153.75513285024155,318.25,153.7457729468599,320.625,153.73641304347825C323,153.72705314009661,325.375,153.71769323671498,327.75,153.70833333333334C330.125,153.6989734299517,332.5,153.68961352657004,334.875,153.6802536231884C337.25,153.67089371980677,339.625,153.66153381642513,342,153.6521739130435C344.375,153.64281400966186,346.75,153.63345410628017,349.125,153.62409420289853C351.5,153.6147342995169,353.875,153.60537439613526,356.25,153.59601449275362C358.625,153.586654589372,361,153.57729468599032,363.375,153.5679347826087C365.75,153.55857487922705,368.125,153.5492149758454,370.5,153.53985507246375C372.875,153.53049516908212,375.25,153.52113526570048,377.625,153.51177536231884C380,153.5024154589372,382.375,153.49305555555554,384.75,153.4836956521739C387.125,153.47433574879227,389.50000000000006,153.46497584541063,391.87500000000006,153.455615942029C394.25000000000006,153.44625603864736,396.62500000000006,153.4368961352657,399.00000000000006,153.42753623188406C401.375,153.41817632850243,403.75,153.40881642512076,406.12499999999994,153.39945652173913C408.49999999999994,153.3900966183575,410.87499999999994,153.38073671497585,413.24999999999994,153.37137681159422C415.62499999999994,153.36201690821258,418,153.35265700483092,420.375,153.34329710144928C422.75,153.33393719806764,425.125,153.32457729468598,427.5,153.31521739130434C429.875,153.3058574879227,432.25,153.29649758454104,434.625,153.2871376811594C437,153.27777777777777,439.375,153.26841787439614,441.75,153.2590579710145C444.125,153.24969806763286,446.5,153.2403381642512,448.875,153.23097826086956C451.25,153.22161835748793,453.625,153.21225845410626,456,153.20289855072463C458.375,153.193538647343,460.75,153.18417874396135,463.125,153.17481884057972C465.5,153.16545893719808,467.875,153.15609903381642,470.25,153.14673913043478C472.625,153.13737922705315,475.00000000000006,153.12801932367148,477.37500000000006,153.11865942028984C479.75000000000006,153.1092995169082,482.12500000000006,153.09993961352657,484.50000000000006,153.09057971014494C486.875,153.0812198067633,489.25,153.07185990338164,491.62499999999994,153.0625C493.99999999999994,153.05314009661836,496.37499999999994,153.04378019323673,498.74999999999994,153.0344202898551C501.12499999999994,153.02506038647346,503.5,153.01570048309176,505.875,153.00634057971013C508.25,152.9969806763285,510.625,152.98762077294685,513,152.97826086956522C515.375,152.96890096618358,517.75,152.95954106280192,520.125,152.95018115942028C522.5,152.94082125603865,524.875,152.931461352657,527.25,152.92210144927537C529.625,152.91274154589374,532,152.90338164251207,534.375,152.89402173913044C536.75,152.8846618357488,539.125,152.87530193236714,541.5,152.8659420289855C543.875,152.85658212560386,546.25,152.84722222222223,548.625,152.8378623188406C551,152.82850241545896,553.375,152.8191425120773,555.75,152.80978260869566C558.125,152.80042270531402,560.5,152.79106280193236,562.875,152.78170289855072C565.25,152.77234299516908,567.625,152.76298309178745,570,152.7536231884058C572.375,152.74426328502418,574.75,152.7349033816425,577.125,152.72554347826087C579.5,152.71618357487924,581.875,152.70682367149757,584.25,152.69746376811594C586.625,152.6881038647343,589,152.67874396135264,591.375,152.669384057971C593.75,152.66002415458937,596.125,152.65066425120773,598.5,152.6413043478261C600.875,152.63194444444446,603.25,152.6225845410628,605.625,152.61322463768116C608,152.60386473429952,610.375,152.59450483091786,612.75,152.58514492753622C615.125,152.57578502415458,617.5,152.56642512077295,619.875,152.5570652173913C622.25,152.54770531400968,624.625,152.538345410628,627,152.52898550724638C629.375,152.51962560386474,631.75,152.5102657004831,634.125,152.50090579710147C636.5,152.49154589371983,638.875,152.48218599033817,641.25,152.47282608695653C643.625,152.4634661835749,646,152.45410628019323,648.375,152.4447463768116C650.75,152.43538647342996,653.125,152.4260265700483,655.5,152.41666666666666C657.875,152.40730676328502,660.25,152.39794685990336,662.625,152.38858695652172C665,152.37922705314008,667.375,152.36986714975845,669.75,152.3605072463768C672.125,152.35114734299518,674.5,152.3417874396135,676.875,152.33242753623188C679.25,152.32306763285024,681.625,152.3137077294686,684,152.30434782608697C686.375,152.29498792270533,688.75,152.28562801932367,691.125,152.27626811594203C693.5,152.2669082125604,695.875,152.25754830917873,698.25,152.2481884057971C700.625,152.23882850241546,703,152.22946859903382,705.375,152.2201086956522C707.75,152.21074879227055,710.125,152.20138888888889,712.5,152.19202898550725C714.875,152.1826690821256,717.25,152.17330917874395,719.625,152.1639492753623C722,152.15458937198068,724.375,152.14522946859904,726.75,152.1358695652174C729.125,152.12650966183577,731.5,152.1171497584541,733.875,152.10778985507247C736.25,152.09842995169083,738.625,152.08907004830917,741,152.07971014492753C743.375,152.0703502415459,745.75,152.06099033816423,748.125,152.0516304347826C750.5,152.04227053140096,752.875,152.03291062801932,755.25,152.0235507246377C757.625,152.01419082125605,760,152.0048309178744,762.375,151.99547101449275C764.75,151.98611111111111,767.125,151.97675120772945,769.5,151.9673913043478C771.875,151.95803140096618,774.2500000000001,151.94867149758454,776.6250000000001,151.9393115942029C779.0000000000001,151.92995169082127,781.3750000000001,151.9205917874396,783.7500000000001,151.91123188405797C786.1250000000001,151.90187198067633,788.5000000000001,151.8925120772947,790.8750000000001,151.88315217391306C793.2500000000001,151.87379227053142,795.6250000000001,151.86443236714976,798.0000000000001,151.85507246376812C800.375,151.8457125603865,802.75,151.83635265700482,805.1249999999999,151.8269927536232C807.4999999999999,151.81763285024155,809.8749999999999,151.8082729468599,812.2499999999999,151.79891304347825C814.6249999999999,151.78955314009661,816.9999999999999,151.78019323671495,819.3749999999999,151.77083333333331C821.7499999999999,151.76147342995168,824.1249999999999,151.75211352657004,826.4999999999999,151.7427536231884C828.8749999999999,151.73339371980677,831.25,151.7240338164251,833.625,151.71467391304347C836,151.70531400966183,838.375,151.6959541062802,840.75,151.68659420289856C843.125,151.67723429951693,845.5,151.66787439613526,847.875,151.65851449275362C850.25,151.649154589372,852.625,151.63979468599032,855,151.6304347826087C857.375,151.62107487922705,859.75,151.61171497584542,862.125,151.60235507246378C864.5,151.59299516908214,866.875,151.58363526570048,869.25,151.57427536231884C871.625,151.5649154589372,874,151.55555555555554,876.375,151.5461956521739C878.75,151.53683574879227,881.125,151.5274758454106,883.5,151.51811594202897C885.875,151.50875603864733,888.25,151.4993961352657,890.625,151.49003623188406C893,151.48067632850243,895.375,151.47131642512076,897.75,151.46195652173913C900.125,151.4525966183575,902.5,151.44323671497582,904.875,151.4338768115942C907.25,151.42451690821255,909.625,151.41515700483092,912,151.40579710144928C914.375,151.39643719806764,916.75,151.38707729468598,919.125,151.37771739130434C921.5,151.3683574879227,923.875,151.35899758454104,926.25,151.3496376811594C928.625,151.34027777777777,931,151.33091787439614,933.375,151.3215579710145C935.75,151.31219806763286,938.125,151.3028381642512,940.5,151.29347826086956C942.875,151.28411835748793,945.25,151.2747584541063,947.625,151.26539855072465C950,151.25603864734302,952.3750000000001,151.24667874396135,954.7500000000001,151.23731884057972C957.1250000000001,151.22795893719808,959.5000000000001,151.21859903381642,961.8750000000001,151.20923913043478C964.2500000000001,151.19987922705315,966.6250000000001,151.19051932367148,969.0000000000001,151.18115942028984C971.3750000000001,151.1717995169082,973.7500000000001,151.16243961352657,976.1250000000001,151.15307971014494C978.5,151.1437198067633,980.875,151.13435990338164,983.2499999999999,151.125C985.6249999999999,151.11564009661836,987.9999999999999,151.1062801932367,990.3749999999999,151.09692028985506C992.7499999999999,151.08756038647343,995.1249999999999,151.0782004830918,997.4999999999999,151.06884057971016C999.8749999999999,151.05948067632852,1002.2499999999999,151.05012077294685,1004.6249999999999,151.04076086956522C1006.9999999999999,151.03140096618358,1009.375,151.02204106280192,1011.75,151.01268115942028C1014.125,151.00332125603865,1016.5,150.993961352657,1018.875,150.98460144927537C1021.25,150.97524154589374,1023.625,150.96588164251207,1026,150.95652173913044C1028.375,150.9471618357488,1030.75,150.93780193236717,1033.125,150.92844202898553C1035.5,150.9190821256039,1037.875,150.9097222222222,1040.25,150.90036231884056C1042.625,150.89100241545893,1045,150.8816425120773,1047.375,150.87228260869566C1049.75,150.86292270531402,1052.125,150.85356280193236,1054.5,150.84420289855072C1056.875,150.83484299516908,1059.25,150.82548309178742,1061.625,150.81612318840578C1064,150.80676328502415,1066.375,150.7974033816425,1068.75,150.78804347826087C1071.125,150.77868357487924,1073.5,150.76932367149757,1075.875,150.75996376811594C1078.25,150.7506038647343,1080.625,150.74124396135267,1083,150.73188405797103C1085.375,150.7225241545894,1087.75,150.71316425120773,1090.125,150.7038043478261C1092.5,150.69444444444446,1094.875,150.6850845410628,1097.25,150.67572463768116C1099.625,150.66636473429952,1102,150.65700483091788,1104.375,150.64764492753625C1106.75,150.6382850241546,1109.125,150.62892512077295,1111.5,150.6195652173913C1113.875,150.61020531400968,1116.25,150.600845410628,1118.625,150.59148550724638C1121,150.58212560386474,1123.375,150.57276570048307,1125.75,150.56340579710144C1128.125,150.5540458937198,1130.5,150.54468599033817,1132.875,150.53532608695653C1135.25,150.5259661835749,1137.625,150.51660628019323,1140,150.5072463768116C1142.375,150.49788647342996,1144.75,150.4885265700483,1147.125,150.47916666666666C1149.5,150.46980676328502,1151.875,150.46044685990339,1154.25,150.45108695652175C1156.625,150.4417270531401,1159,150.43236714975845,1161.375,150.4230072463768C1163.75,150.41364734299518,1166.125,150.4042874396135,1168.5,150.39492753623188C1170.875,150.38556763285024,1173.25,150.3762077294686,1175.625,150.36684782608697C1178,150.35748792270533,1180.375,150.34812801932367,1182.75,150.33876811594203C1185.125,150.3294082125604,1187.5,150.32004830917873,1189.875,150.3106884057971C1192.25,150.30132850241546,1194.625,150.2919685990338,1197,150.28260869565216C1199.375,150.27324879227052,1201.75,150.26388888888889,1204.125,150.25452898550725C1206.5,150.2451690821256,1208.875,150.23580917874395,1211.25,150.2264492753623C1213.625,150.21708937198068,1216,150.207729468599,1218.375,150.19836956521738C1220.75,150.18900966183574,1223.125,150.1796497584541,1225.5,150.17028985507247C1227.875,150.16092995169083,1230.25,150.15157004830917,1232.625,150.14221014492753C1235,150.1328502415459,1237.375,150.12349033816426,1239.75,150.11413043478262C1242.125,150.104770531401,1244.5,150.09541062801932,1246.875,150.0860507246377C1249.25,150.07669082125605,1251.625,150.0673309178744,1254,150.05797101449275C1256.375,150.04861111111111,1258.75,150.03925120772948,1261.125,150.02989130434784C1263.5,150.0205314009662,1265.875,150.01117149758454,1268.25,150.0018115942029C1270.625,149.99245169082127,1273,149.9830917874396,1275.375,149.97373188405797C1277.75,149.96437198067633,1280.125,149.95501207729467,1282.5,149.94565217391303C1284.875,149.9362922705314,1287.25,149.92693236714976,1289.625,149.91757246376812C1292,149.9082125603865,1294.375,149.89885265700482,1296.75,149.8894927536232C1299.125,149.88013285024155,1301.5,149.8707729468599,1303.875,149.86141304347825C1306.25,149.85205314009661,1308.625,149.85205314009661,1311,149.83333333333334C1313.375,149.81461352657007,1315.75,144.45138888888889,1318.125,141.76041666666666C1320.5,139.06944444444443,1322.875,136.37847222222223,1325.25,133.6875C1327.625,130.99652777777777,1330,128.30555555555554,1332.375,125.61458333333333C1334.75,122.9236111111111,1337.125,120.23263888888887,1339.5,117.54166666666666C1341.875,114.85069444444444,1344.25,112.15972222222221,1346.625,109.46875C1349,106.77777777777779,1351.375,104.08680555555556,1353.75,101.39583333333333C1356.125,98.7048611111111,1358.5,96.01388888888887,1360.875,93.32291666666666C1363.25,90.63194444444444,1365.625,87.94097222222221,1368,85.25C1370.375,82.55902777777779,1372.75,79.86805555555556,1375.125,77.17708333333333C1377.5,74.4861111111111,1379.875,71.79513888888887,1382.25,69.10416666666666C1384.625,66.41319444444444,1387,63.72222222222223,1389.375,61.03125000000001C1391.75,58.340277777777786,1394.125,55.64930555555556,1396.5,52.958333333333336C1398.875,50.267361111111114,1401.25,47.576388888888886,1403.625,44.885416666666664C1406,42.19444444444444,1408.375,39.50347222222223,1410.75,36.81250000000001C1413.125,34.121527777777786,1415.5,31.43055555555556,1417.875,28.739583333333336C1420.25,26.04861111111111,1422.625,23.357638888888886,1425,20.66666666666666" fill="transparent" stroke-linecap="round" stroke="#1AD4B3" stroke-width="2"></path><g class="visx-group visx-axis visx-axis-bottom" transform="translate(0, 155)"><g class="visx-group visx-axis-tick" transform="translate(0, 0)"><line class="visx-line" x1="0" y1="0" x2="0" y2="8" fill="transparent" shape-rendering="crispEdges" stroke="#F2F0F9" stroke-width="1" stroke-linecap="square"></line><svg x="0" y="0" font-size="11" style="overflow:visible"><text transform="" x="0" y="19" fill="#1B2030" font-size="11" text-anchor="middle"><tspan x="0" dy="0em">0%</tspan></text></svg></g><g class="visx-group visx-axis-tick" transform="translate(0, 0)"><line class="visx-line" x1="356.25" y1="0" x2="356.25" y2="8" fill="transparent" shape-rendering="crispEdges" stroke="#F2F0F9" stroke-width="1" stroke-linecap="square"></line><svg x="0" y="0" font-size="11" style="overflow:visible"><text transform="" x="356.25" y="19" fill="#1B2030" font-size="11" text-anchor="middle"><tspan x="356.25" dy="0em">25%</tspan></text></svg></g><g class="visx-group visx-axis-tick" transform="translate(0, 0)"><line class="visx-line" x1="712.5" y1="0" x2="712.5" y2="8" fill="transparent" shape-rendering="crispEdges" stroke="#F2F0F9" stroke-width="1" stroke-linecap="square"></line><svg x="0" y="0" font-size="11" style="overflow:visible"><text transform="" x="712.5" y="19" fill="#1B2030" font-size="11" text-anchor="middle"><tspan x="712.5" dy="0em">50%</tspan></text></svg></g><g class="visx-group visx-axis-tick" transform="translate(0, 0)"><line class="visx-line" x1="1068.75" y1="0" x2="1068.75" y2="8" fill="transparent" shape-rendering="crispEdges" stroke="#F2F0F9" stroke-width="1" stroke-linecap="square"></line><svg x="0" y="0" font-size="11" style="overflow:visible"><text transform="" x="1068.75" y="19" fill="#1B2030" font-size="11" text-anchor="middle"><tspan x="1068.75" dy="0em">75%</tspan></text></svg></g><g class="visx-group visx-axis-tick" transform="translate(0, 0)"><line class="visx-line" x1="1425" y1="0" x2="1425" y2="8" fill="transparent" shape-rendering="crispEdges" stroke="#F2F0F9" stroke-width="1" stroke-linecap="square"></line><svg x="0" y="0" font-size="11" style="overflow:visible"><text transform="" x="1425" y="19" fill="#1B2030" font-size="11" text-anchor="middle"><tspan x="1425" dy="0em">100%</tspan></text></svg></g></g><g class="visx-group visx-axis visx-axis-left" transform="translate(0, 0)"><g class="visx-group visx-axis-tick" transform="translate(0, 0)"><line class="visx-line" x1="0" y1="155" x2="-8" y2="155" fill="transparent" shape-rendering="crispEdges" stroke="#F2F0F9" stroke-width="1" stroke-linecap="square"></line><svg x="-30" y="0" font-size="11" style="overflow:visible"><text transform="" x="-8" y="155" fill="#1B2030" font-size="11" text-anchor="start"><tspan x="-8" dy="0em">0%</tspan></text></svg></g><g class="visx-group visx-axis-tick" transform="translate(0, 0)"><line class="visx-line" x1="0" y1="103.33333333333334" x2="-8" y2="103.33333333333334" fill="transparent" shape-rendering="crispEdges" stroke="#F2F0F9" stroke-width="1" stroke-linecap="square"></line><svg x="-30" y="0" font-size="11" style="overflow:visible"><text transform="" x="-8" y="103.33333333333334" fill="#1B2030" font-size="11" text-anchor="start"><tspan x="-8" dy="0em">20%</tspan></text></svg></g><g class="visx-group visx-axis-tick" transform="translate(0, 0)"><line class="visx-line" x1="0" y1="51.66666666666667" x2="-8" y2="51.66666666666667" fill="transparent" shape-rendering="crispEdges" stroke="#F2F0F9" stroke-width="1" stroke-linecap="square"></line><svg x="-30" y="0" font-size="11" style="overflow:visible"><text transform="" x="-8" y="51.66666666666667" fill="#1B2030" font-size="11" text-anchor="start"><tspan x="-8" dy="0em">40%</tspan></text></svg></g><g class="visx-group visx-axis-tick" transform="translate(0, 0)"><line class="visx-line" x1="0" y1="0" x2="-8" y2="0" fill="transparent" shape-rendering="crispEdges" stroke="#F2F0F9" stroke-width="1" stroke-linecap="square"></line><svg x="-30" y="0" font-size="11" style="overflow:visible"><text transform="" x="-8" y="0" fill="#1B2030" font-size="11" text-anchor="start"><tspan x="-8" dy="0em">60%</tspan></text></svg></g><line class="visx-line visx-axis-line" x1="0" y1="155.5" x2="0" y2="0.5" fill="transparent" shape-rendering="crispEdges" stroke="#F2F0F9" stroke-width="1"></line></g><rect class="visx-bar" width="1425" height="155" fill="transparent"></rect><line class="visx-line" x1="1311" y1="58" x2="1311" y2="155" fill="transparent" shape-rendering="crispEdges" stroke="#CDC8E1" stroke-width="1" pointer-events="none" stroke-dasharray="5"></line><svg x="0" y="0" font-size="11px" style="overflow:visible"><text transform="" x="1311" y="50" font-size="11px" fill="#555069" stroke="#FFFFFF" stroke-width="1px" text-anchor="middle"><tspan x="1311" dy="0.355em">Optimal utilization 92%</tspan></text></svg><svg x="0" y="0" font-size="11px" style="overflow:visible"><text transform="" x="1311" y="50" font-size="11px" fill="#CDC8E1" text-anchor="middle"><tspan x="1311" dy="0.355em">Optimal utilization 92%</tspan></text></svg></g></svg>