<?xml version="1.0"?><svg xmlns="http://www.w3.org/2000/svg" xmlns:xlink= "http://www.w3.org/1999/xlink" style="background: white;" width="1500" height="300"> <g style="color: black; font-size: 13px; font-family: sans-serif; transform: translate(18px, 25px);"><g><circle r="3" cx="-6" cy="-5" style="fill: #1AD4B3" /><text>Borrow APR, variable</text></g><g style="transform: translateX(150px);"><circle r="3" cx="-6" cy="-5" style="fill: #101423" /><text>Borrow APR, stable</text></g></g><g class="visx-group" transform="translate(45, 50)"><g class="visx-group visx-rows" transform="translate(0, 0)"><line class="visx-line" x1="0" y1="155" x2="1425" y2="155" fill="transparent" shape-rendering="crispEdges" stroke="#F2F0F9" stroke-width="1" pointer-events="none"></line><line class="visx-line" x1="0" y1="95.38461538461539" x2="1425" y2="95.38461538461539" fill="transparent" shape-rendering="crispEdges" stroke="#F2F0F9" stroke-width="1" pointer-events="none"></line><line class="visx-line" x1="0" y1="35.76923076923076" x2="1425" y2="35.76923076923076" fill="transparent" shape-rendering="crispEdges" stroke="#F2F0F9" stroke-width="1" pointer-events="none"></line></g><path class="visx-linepath" d="M0,154.99999999982367C2.375,154.97061213424166,4.75,154.94122426865968,7.125,154.9118364030336C9.5,154.8824485374075,11.875,154.85306067172266,14.25,154.82367280606718C16.625,154.7942849404117,19,154.76489707475622,21.375,154.73550920910074C23.75,154.70612134344526,26.125,154.6767334777898,28.5,154.64734561213433C30.875,154.61795774647885,33.25,154.58856988082343,35.625,154.55918201516795C38,154.52979414951247,40.375,154.500406283857,42.75,154.4710184182015C45.125,154.44163055254603,47.50000000000001,154.41224268689058,49.87500000000001,154.3828548212351C52.25000000000001,154.35346695557962,54.625,154.32407908992417,57,154.2946912242687C59.375,154.2653033586132,61.75,154.23591549295776,64.125,154.20652762730228C66.5,154.1771397616468,68.875,154.14775189599135,71.25,154.11836403033587C73.625,154.0889761646804,76,154.0595882990249,78.375,154.03020043336943C80.75,154.00081256771395,83.125,153.9714247020585,85.5,153.94203683640302C87.875,153.91264897074754,90.25,153.88326110509206,92.625,153.8538732394366C95,153.82448537378113,97.37500000000001,153.7950975081257,99.75000000000001,153.76570964247023C102.12500000000001,153.73632177681475,104.5,153.70693391115927,106.875,153.6775460455038C109.25,153.6481581798483,111.625,153.61877031419286,114,153.58938244853738C116.375,153.5599945828819,118.75000000000001,153.53060671722645,121.12500000000001,153.50121885157097C123.50000000000001,153.4718309859155,125.875,153.44244312026004,128.25,153.41305525460456C130.625,153.38366738894908,133,153.35427952329363,135.375,153.32489165763815C137.75,153.29550379198267,140.125,153.2661159263272,142.5,153.2367280606717C144.875,153.20734019501623,147.25,153.17795232936078,149.625,153.1485644637053C152,153.11917659804982,154.375,153.08978873239437,156.75,153.0604008667389C159.125,153.0310130010834,161.5,153.00162513542796,163.875,152.97223726977248C166.25,152.942849404117,168.625,152.91346153846155,171,152.88407367280607C173.375,152.8546858071506,175.75,152.82529794149514,178.125,152.79591007583966C180.5,152.76652221018418,182.875,152.73713434452873,185.25,152.70774647887325C187.625,152.67835861321777,190,152.64897074756232,192.375,152.61958288190684C194.75,152.59019501625136,197.12500000000003,152.56080715059588,199.50000000000003,152.5314192849404C201.875,152.50203141928492,204.25,152.47264355362947,206.62499999999997,152.443255687974C208.99999999999997,152.4138678223185,211.375,152.38447995666306,213.75,152.35509209100758C216.125,152.3257042253521,218.5,152.29631635969665,220.875,152.26692849404117C223.25,152.2375406283857,225.625,152.20815276273024,228,152.17876489707476C230.375,152.14937703141928,232.75,152.11998916576383,235.125,152.09060130010835C237.5,152.06121343445287,239.87500000000003,152.03182556879742,242.25000000000003,152.00243770314194C244.625,151.97304983748646,247,151.943661971831,249.37499999999997,151.91427410617553C251.74999999999997,151.88488624052005,254.125,151.8554983748646,256.5,151.82611050920912C258.875,151.79672264355364,261.25,151.76733477789816,263.625,151.73794691224268C266,151.7085590465872,268.375,151.67917118093175,270.75,151.64978331527627C273.125,151.6203954496208,275.5,151.59100758396534,277.875,151.56161971830986C280.25,151.53223185265438,282.625,151.50284398699893,285,151.47345612134345C287.375,151.44406825568797,289.75,151.41468039003252,292.125,151.38529252437704C294.5,151.35590465872156,296.875,151.3265167930661,299.25,151.29712892741063C301.625,151.26774106175515,304,151.2383531960997,306.375,151.20896533044422C308.75,151.17957746478874,311.125,151.15018959913328,313.5,151.1208017334778C315.875,151.09141386782233,318.25,151.06202600216685,320.625,151.03263813651137C323,151.0032502708559,325.375,150.97386240520044,327.75,150.94447453954496C330.125,150.91508667388948,332.5,150.88569880823403,334.875,150.85631094257855C337.25,150.82692307692307,339.625,150.79753521126761,342,150.76814734561214C344.375,150.73875947995666,346.75,150.7093716143012,349.125,150.67998374864572C351.5,150.65059588299025,353.875,150.62120801733477,356.25,150.5918201516793C358.625,150.5624322860238,361,150.53304442036836,363.375,150.5036565547129C365.75,150.47426868905745,368.125,150.44488082340197,370.5,150.4154929577465C372.875,150.38610509209101,375.25,150.35671722643553,377.625,150.32732936078006C380,150.29794149512458,382.375,150.26855362946912,384.75,150.23916576381365C387.125,150.20977789815817,389.50000000000006,150.18039003250271,391.87500000000006,150.15100216684723C394.25000000000006,150.12161430119176,396.62500000000006,150.0922264355363,399.00000000000006,150.06283856988082C401.375,150.03345070422534,403.75,150.0040628385699,406.12499999999994,149.9746749729144C408.49999999999994,149.94528710725893,410.87499999999994,149.91589924160348,413.24999999999994,149.886511375948C415.62499999999994,149.85712351029252,418,149.82773564463704,420.375,149.79834777898157C422.75,149.76895991332609,425.125,149.7395720476706,427.5,149.71018418201515C429.875,149.6807963163597,432.25,149.65140845070425,434.625,149.62202058504877C437,149.5926327193933,439.375,149.5632448537378,441.75,149.53385698808233C444.125,149.50446912242685,446.5,149.4750812567714,448.875,149.44569339111592C451.25,149.41630552546044,453.625,149.386917659805,456,149.3575297941495C458.375,149.32814192849403,460.75,149.29875406283858,463.125,149.2693661971831C465.5,149.23997833152762,467.875,149.21059046587217,470.25,149.1812026002167C472.625,149.1518147345612,475.00000000000006,149.12242686890573,477.37500000000006,149.09303900325025C479.75000000000006,149.06365113759477,482.12500000000006,149.03426327193932,484.50000000000006,149.00487540628384C486.875,148.97548754062836,489.25,148.9460996749729,491.62499999999994,148.91671180931743C493.99999999999994,148.88732394366195,496.37499999999994,148.8579360780065,498.74999999999994,148.82854821235102C501.12499999999994,148.79916034669554,503.5,148.7697724810401,505.875,148.7403846153846C508.25,148.71099674972913,510.625,148.68160888407368,513,148.6522210184182C515.375,148.62283315276272,517.75,148.59344528710727,520.125,148.5640574214518C522.5,148.5346695557963,524.875,148.50528169014086,527.25,148.47589382448538C529.625,148.4465059588299,532,148.41711809317442,534.375,148.38773022751894C536.75,148.35834236186346,539.125,148.328954496208,541.5,148.29956663055253C543.875,148.27017876489705,546.25,148.2407908992416,548.625,148.21140303358612C551,148.18201516793064,553.375,148.1526273022752,555.75,148.1232394366197C558.125,148.09385157096423,560.5,148.06446370530878,562.875,148.0350758396533C565.25,148.00568797399782,567.625,147.97630010834237,570,147.9469122426869C572.375,147.9175243770314,574.75,147.88813651137596,577.125,147.85874864572048C579.5,147.829360780065,581.875,147.79997291440955,584.25,147.77058504875407C586.625,147.7411971830986,589,147.71180931744314,591.375,147.68242145178766C593.75,147.65303358613218,596.125,147.6236457204767,598.5,147.59425785482122C600.875,147.56486998916574,603.25,147.5354821235103,605.625,147.5060942578548C608,147.47670639219933,610.375,147.44731852654388,612.75,147.4179306608884C615.125,147.38854279523292,617.5,147.35915492957747,619.875,147.329767063922C622.25,147.3003791982665,624.625,147.27099133261106,627,147.24160346695558C629.375,147.2122156013001,631.75,147.18282773564465,634.125,147.15343986998917C636.5,147.1240520043337,638.875,147.09466413867824,641.25,147.06527627302276C643.625,147.03588840736728,646,147.00650054171183,648.375,146.97711267605635C650.75,146.94772481040087,653.125,146.9183369447454,655.5,146.8889490790899C657.875,146.85956121343443,660.25,146.83017334777898,662.625,146.8007854821235C665,146.77139761646802,667.375,146.74200975081257,669.75,146.7126218851571C672.125,146.6832340195016,674.5,146.65384615384616,676.875,146.62445828819068C679.25,146.5950704225352,681.625,146.56568255687975,684,146.53629469122427C686.375,146.5069068255688,688.75,146.47751895991334,691.125,146.44813109425786C693.5,146.41874322860238,695.875,146.38935536294693,698.25,146.35996749729145C700.625,146.33057963163597,703,146.30119176598052,705.375,146.27180390032504C707.75,146.24241603466956,710.125,146.2130281690141,712.5,146.18364030335863C714.875,146.15425243770315,717.25,146.12486457204767,719.625,146.0954767063922C722,146.0660888407367,724.375,146.03670097508126,726.75,146.00731310942578C729.125,145.9779252437703,731.5,145.94853737811485,733.875,145.91914951245937C736.25,145.8897616468039,738.625,145.86037378114844,741,145.83098591549296C743.375,145.80159804983748,745.75,145.77221018418203,748.125,145.74282231852655C750.5,145.71343445287107,752.875,145.68404658721562,755.25,145.65465872156014C757.625,145.62527085590466,760,145.5958829902492,762.375,145.56649512459373C764.75,145.53710725893825,767.125,145.5077193932828,769.5,145.47833152762732C771.875,145.44894366197184,774.2500000000001,145.41955579631636,776.6250000000001,145.39016793066088C779.0000000000001,145.3607800650054,781.3750000000001,145.33139219934995,783.7500000000001,145.30200433369447C786.1250000000001,145.272616468039,788.5000000000001,145.24322860238354,790.8750000000001,145.21384073672806C793.2500000000001,145.18445287107258,795.6250000000001,145.15506500541713,798.0000000000001,145.12567713976165C800.375,145.09628927410617,802.75,145.06690140845072,805.1249999999999,145.03751354279524C807.4999999999999,145.00812567713976,809.8749999999999,144.97873781148428,812.2499999999999,144.9493499458288C814.6249999999999,144.91996208017332,816.9999999999999,144.89057421451787,819.3749999999999,144.86118634886242C821.7499999999999,144.83179848320697,824.1249999999999,144.8024106175515,826.4999999999999,144.773022751896C828.8749999999999,144.74363488624053,831.25,144.71424702058505,833.625,144.68485915492957C836,144.6554712892741,838.375,144.62608342361864,840.75,144.59669555796316C843.125,144.56730769230768,845.5,144.53791982665223,847.875,144.50853196099675C850.25,144.47914409534127,852.625,144.44975622968582,855,144.42036836403034C857.375,144.39098049837486,859.75,144.3615926327194,862.125,144.33220476706393C864.5,144.30281690140845,866.875,144.273429035753,869.25,144.24404117009752C871.625,144.21465330444204,874,144.18526543878656,876.375,144.15587757313108C878.75,144.1264897074756,881.125,144.09710184182018,883.5,144.0677139761647C885.875,144.03832611050922,888.25,144.00893824485374,890.625,143.97955037919826C893,143.95016251354278,895.375,143.92077464788733,897.75,143.89138678223185C900.125,143.86199891657637,902.5,143.83261105092092,904.875,143.80322318526544C907.25,143.77383531960996,909.625,143.7444474539545,912,143.71505958829903C914.375,143.68567172264355,916.75,143.6562838569881,919.125,143.62689599133262C921.5,143.59750812567714,923.875,143.5681202600217,926.25,143.5387323943662C928.625,143.50934452871073,931,143.47995666305525,933.375,143.45056879739977C935.75,143.4211809317443,938.125,143.39179306608884,940.5,143.36240520043336C942.875,143.33301733477788,945.25,143.30362946912246,947.625,143.27424160346698C950,143.2448537378115,952.3750000000001,143.21546587215602,954.7500000000001,143.18607800650054C957.1250000000001,143.15669014084506,959.5000000000001,143.1273022751896,961.8750000000001,143.09791440953413C964.2500000000001,143.06852654387865,966.6250000000001,143.0391386782232,969.0000000000001,143.00975081256772C971.3750000000001,142.98036294691224,973.7500000000001,142.9509750812568,976.1250000000001,142.9215872156013C978.5,142.89219934994583,980.875,142.86281148429038,983.2499999999999,142.8334236186349C985.6249999999999,142.80403575297942,987.9999999999999,142.77464788732394,990.3749999999999,142.74526002166846C992.7499999999999,142.71587215601298,995.1249999999999,142.68648429035753,997.4999999999999,142.65709642470205C999.8749999999999,142.62770855904657,1002.2499999999999,142.59832069339112,1004.6249999999999,142.56893282773564C1006.9999999999999,142.53954496208016,1009.375,142.53954496208016,1011.75,142.48076923076923C1014.125,142.4219934994583,1016.5,141.0417771883289,1018.875,140.32228116710874C1021.25,139.6027851458886,1023.625,138.8832891246684,1026,138.16379310344826C1028.375,137.4442970822281,1030.75,136.72480106100795,1033.125,136.0053050397878C1035.5,135.28580901856765,1037.875,134.5663129973475,1040.25,133.84681697612734C1042.625,133.1273209549072,1045,132.40782493368698,1047.375,131.68832891246683C1049.75,130.96883289124668,1052.125,130.2493368700265,1054.5,129.52984084880634C1056.875,128.8103448275862,1059.25,128.09084880636604,1061.625,127.37135278514589C1064,126.65185676392574,1066.375,125.93236074270558,1068.75,125.21286472148542C1071.125,124.49336870026525,1073.5,123.7738726790451,1075.875,123.05437665782493C1078.25,122.33488063660477,1080.625,121.61538461538461,1083,120.89588859416445C1085.375,120.17639257294428,1087.75,119.45689655172413,1090.125,118.73740053050398C1092.5,118.01790450928382,1094.875,117.29840848806367,1097.25,116.5789124668435C1099.625,115.85941644562334,1102,115.13992042440319,1104.375,114.42042440318302C1106.75,113.70092838196285,1109.125,112.9814323607427,1111.5,112.26193633952253C1113.875,111.54244031830237,1116.25,110.82294429708222,1118.625,110.10344827586206C1121,109.38395225464191,1123.375,108.66445623342176,1125.75,107.9449602122016C1128.125,107.22546419098143,1130.5,106.50596816976127,1132.875,105.78647214854111C1135.25,105.06697612732094,1137.625,104.34748010610078,1140,103.62798408488062C1142.375,102.90848806366047,1144.75,102.18899204244032,1147.125,101.46949602122017C1149.5,100.75000000000001,1151.875,100.03050397877985,1154.25,99.31100795755968C1156.625,98.59151193633951,1159,97.87201591511936,1161.375,97.1525198938992C1163.75,96.43302387267903,1166.125,95.71352785145888,1168.5,94.99403183023873C1170.875,94.27453580901857,1173.25,93.55503978779842,1175.625,92.83554376657825C1178,92.11604774535809,1180.375,91.39655172413794,1182.75,90.67705570291777C1185.125,89.9575596816976,1187.5,89.23806366047745,1189.875,88.5185676392573C1192.25,87.79907161803715,1194.625,87.07957559681697,1197,86.36007957559681C1199.375,85.64058355437666,1201.75,84.92108753315651,1204.125,84.20159151193634C1206.5,83.48209549071618,1208.875,82.76259946949602,1211.25,82.04310344827586C1213.625,81.32360742705569,1216,80.60411140583554,1218.375,79.88461538461537C1220.75,79.1651193633952,1223.125,78.44562334217505,1225.5,77.7261273209549C1227.875,77.00663129973475,1230.25,76.2871352785146,1232.625,75.56763925729443C1235,74.84814323607426,1237.375,74.1286472148541,1239.75,73.40915119363395C1242.125,72.6896551724138,1244.5,71.97015915119366,1246.875,71.25066312997349C1249.25,70.53116710875332,1251.625,69.81167108753314,1254,69.09217506631298C1256.375,68.37267904509281,1258.75,67.65318302387266,1261.125,66.9336870026525C1263.5,66.21419098143235,1265.875,65.49469496021219,1268.25,64.77519893899203C1270.625,64.05570291777188,1273,63.33620689655173,1275.375,62.61671087533157C1277.75,61.89721485411141,1280.125,61.177718832891244,1282.5,60.458222811671085C1284.875,59.738726790450926,1287.25,59.019230769230774,1289.625,58.299734748010614C1292,57.580238726790455,1294.375,56.8607427055703,1296.75,56.14124668435014C1299.125,55.421750663129984,1301.5,54.70225464190982,1303.875,53.98275862068966C1306.25,53.2632625994695,1308.625,52.54376657824935,1311,51.82427055702919C1313.375,51.10477453580903,1315.75,50.38527851458885,1318.125,49.66578249336869C1320.5,48.94628647214853,1322.875,48.22679045092838,1325.25,47.50729442970822C1327.625,46.78779840848806,1330,46.06830238726789,1332.375,45.34880636604773C1334.75,44.62931034482757,1337.125,43.90981432360742,1339.5,43.19031830238726C1341.875,42.4708222811671,1344.25,41.751326259946936,1346.625,41.031830238726776C1349,40.31233421750662,1351.375,39.59283819628646,1353.75,38.873342175066306C1356.125,38.15384615384615,1358.5,37.43435013262601,1360.875,36.714854111405856C1363.25,35.995358090185704,1365.625,35.27586206896554,1368,34.55636604774537C1370.375,33.836870026525204,1372.75,33.117374005305045,1375.125,32.39787798408488C1377.5,31.678381962864716,1379.875,30.958885941644557,1382.25,30.239389920424394C1384.625,29.51989389920423,1387,28.800397877984068,1389.375,28.08090185676391C1391.75,27.36140583554375,1394.125,26.641909814323594,1396.5,25.92241379310344C1398.875,25.20291777188329,1401.25,24.483421750663148,1403.625,23.763925729442988C1406,23.04442970822283,1408.375,22.324933687002645,1410.75,21.605437665782485C1413.125,20.885941644562326,1415.5,20.166445623342188,1417.875,19.446949602122032C1420.25,18.727453580901877,1422.625,18.00795755968171,1425,17.288461538461547" fill="transparent" stroke-linecap="round" stroke="#1AD4B3" stroke-width="2"></path><g class="visx-group visx-axis visx-axis-bottom" transform="translate(0, 155)"><g class="visx-group visx-axis-tick" transform="translate(0, 0)"><line class="visx-line" x1="0" y1="0" x2="0" y2="8" fill="transparent" shape-rendering="crispEdges" stroke="#F2F0F9" stroke-width="1" stroke-linecap="square"></line><svg x="0" y="0" font-size="11" style="overflow:visible"><text transform="" x="0" y="19" fill="#1B2030" font-size="11" text-anchor="middle"><tspan x="0" dy="0em">0%</tspan></text></svg></g><g class="visx-group visx-axis-tick" transform="translate(0, 0)"><line class="visx-line" x1="356.25" y1="0" x2="356.25" y2="8" fill="transparent" shape-rendering="crispEdges" stroke="#F2F0F9" stroke-width="1" stroke-linecap="square"></line><svg x="0" y="0" font-size="11" style="overflow:visible"><text transform="" x="356.25" y="19" fill="#1B2030" font-size="11" text-anchor="middle"><tspan x="356.25" dy="0em">25%</tspan></text></svg></g><g class="visx-group visx-axis-tick" transform="translate(0, 0)"><line class="visx-line" x1="712.5" y1="0" x2="712.5" y2="8" fill="transparent" shape-rendering="crispEdges" stroke="#F2F0F9" stroke-width="1" stroke-linecap="square"></line><svg x="0" y="0" font-size="11" style="overflow:visible"><text transform="" x="712.5" y="19" fill="#1B2030" font-size="11" text-anchor="middle"><tspan x="712.5" dy="0em">50%</tspan></text></svg></g><g class="visx-group visx-axis-tick" transform="translate(0, 0)"><line class="visx-line" x1="1068.75" y1="0" x2="1068.75" y2="8" fill="transparent" shape-rendering="crispEdges" stroke="#F2F0F9" stroke-width="1" stroke-linecap="square"></line><svg x="0" y="0" font-size="11" style="overflow:visible"><text transform="" x="1068.75" y="19" fill="#1B2030" font-size="11" text-anchor="middle"><tspan x="1068.75" dy="0em">75%</tspan></text></svg></g><g class="visx-group visx-axis-tick" transform="translate(0, 0)"><line class="visx-line" x1="1425" y1="0" x2="1425" y2="8" fill="transparent" shape-rendering="crispEdges" stroke="#F2F0F9" stroke-width="1" stroke-linecap="square"></line><svg x="0" y="0" font-size="11" style="overflow:visible"><text transform="" x="1425" y="19" fill="#1B2030" font-size="11" text-anchor="middle"><tspan x="1425" dy="0em">100%</tspan></text></svg></g></g><g class="visx-group visx-axis visx-axis-left" transform="translate(0, 0)"><g class="visx-group visx-axis-tick" transform="translate(0, 0)"><line class="visx-line" x1="0" y1="155" x2="-8" y2="155" fill="transparent" shape-rendering="crispEdges" stroke="#F2F0F9" stroke-width="1" stroke-linecap="square"></line><svg x="-30" y="0" font-size="11" style="overflow:visible"><text transform="" x="-8" y="155" fill="#1B2030" font-size="11" text-anchor="start"><tspan x="-8" dy="0em">0%</tspan></text></svg></g><g class="visx-group visx-axis-tick" transform="translate(0, 0)"><line class="visx-line" x1="0" y1="95.38461538461539" x2="-8" y2="95.38461538461539" fill="transparent" shape-rendering="crispEdges" stroke="#F2F0F9" stroke-width="1" stroke-linecap="square"></line><svg x="-30" y="0" font-size="11" style="overflow:visible"><text transform="" x="-8" y="95.38461538461539" fill="#1B2030" font-size="11" text-anchor="start"><tspan x="-8" dy="0em">50%</tspan></text></svg></g><g class="visx-group visx-axis-tick" transform="translate(0, 0)"><line class="visx-line" x1="0" y1="35.76923076923076" x2="-8" y2="35.76923076923076" fill="transparent" shape-rendering="crispEdges" stroke="#F2F0F9" stroke-width="1" stroke-linecap="square"></line><svg x="-30" y="0" font-size="11" style="overflow:visible"><text transform="" x="-8" y="35.76923076923076" fill="#1B2030" font-size="11" text-anchor="start"><tspan x="-8" dy="0em">100%</tspan></text></svg></g><line class="visx-line visx-axis-line" x1="0" y1="155.5" x2="0" y2="0.5" fill="transparent" shape-rendering="crispEdges" stroke="#F2F0F9" stroke-width="1"></line></g><rect class="visx-bar" width="1425" height="155" fill="transparent"></rect><line class="visx-line" x1="1011.75" y1="58" x2="1011.75" y2="155" fill="transparent" shape-rendering="crispEdges" stroke="#CDC8E1" stroke-width="1" pointer-events="none" stroke-dasharray="5"></line><svg x="0" y="0" font-size="11px" style="overflow:visible"><text transform="" x="1011.75" y="50" font-size="11px" fill="#555069" stroke="#FFFFFF" stroke-width="1px" text-anchor="middle"><tspan x="1011.75" dy="0.355em">uOptimal 71%</tspan></text></svg><svg x="0" y="0" font-size="11px" style="overflow:visible"><text transform="" x="1011.75" y="50" font-size="11px" fill="#CDC8E1" text-anchor="middle"><tspan x="1011.75" dy="0.355em">uOptimal 71%</tspan></text></svg></g></svg>