<?xml version="1.0"?><svg xmlns="http://www.w3.org/2000/svg" xmlns:xlink= "http://www.w3.org/1999/xlink" style="background: white;" width="1500" height="185"> <g style="color: black; font-size: 13px; font-family: sans-serif; transform: translate(18px, 25px);"><g><circle r="3" cx="-6" cy="-5" style="fill: #B6509E" /><text>Borrow APR, variable</text></g><g style="transform: translateX(150px);"><circle r="3" cx="-6" cy="-5" style="fill: rgb(231, 198, 223)" /><text>Borrow APR, stable</text></g><g style="transform: translateX(290px);"><circle r="3" cx="-6" cy="-5" style="fill: rgb(0, 98, 210)" /><text>Utilization Rate</text></g></g><g class="visx-group" transform="translate(40, 50)"><g class="visx-group visx-rows" transform="translate(0, 0)"><line class="visx-line" x1="0" y1="115" x2="1450" y2="115" fill="transparent" shape-rendering="crispEdges" stroke="#000" stroke-width="1" stroke-dasharray="3,3" pointer-events="none"></line><line class="visx-line" x1="0" y1="70.76923076923077" x2="1450" y2="70.76923076923077" fill="transparent" shape-rendering="crispEdges" stroke="#000" stroke-width="1" stroke-dasharray="3,3" pointer-events="none"></line><line class="visx-line" x1="0" y1="26.538461538461533" x2="1450" y2="26.538461538461533" fill="transparent" shape-rendering="crispEdges" stroke="#000" stroke-width="1" stroke-dasharray="3,3" pointer-events="none"></line></g><path class="visx-linepath" d="M0,114.99999999992525C2.4166666666666665,114.98754062834209,4.833333333333334,114.97508125675893,7.25,114.96262188515709C9.666666666666666,114.95016251355526,12.083333333333334,114.9377031419285,14.5,114.9252437703142C16.916666666666668,114.9127843986999,19.333333333333332,114.90032502708559,21.75,114.88786565547129C24.166666666666668,114.87540628385699,26.583333333333332,114.86294691224269,29,114.8504875406284C31.416666666666668,114.8380281690141,33.833333333333336,114.82556879739978,36.25,114.81310942578548C38.666666666666664,114.80065005417119,41.083333333333336,114.78819068255689,43.5,114.77573131094259C45.91666666666667,114.76327193932829,48.333333333333336,114.75081256771396,50.75000000000001,114.73835319609967C53.16666666666667,114.72589382448537,55.583333333333336,114.71343445287107,58,114.70097508125677C60.416666666666664,114.68851570964247,62.833333333333336,114.67605633802816,65.25,114.66359696641386C67.66666666666667,114.65113759479956,70.08333333333333,114.63867822318527,72.5,114.62621885157097C74.91666666666667,114.61375947995667,77.33333333333333,114.60130010834236,79.75,114.58884073672806C82.16666666666667,114.57638136511376,84.58333333333333,114.56392199349945,87,114.55146262188515C89.41666666666667,114.53900325027085,91.83333333333333,114.52654387865655,94.25,114.51408450704226C96.66666666666667,114.50162513542796,99.08333333333334,114.48916576381365,101.50000000000001,114.47670639219935C103.91666666666667,114.46424702058505,106.33333333333334,114.45178764897075,108.75,114.43932827735645C111.16666666666667,114.42686890574215,113.58333333333333,114.41440953412784,116,114.40195016251354C118.41666666666667,114.38949079089925,120.83333333333334,114.37703141928495,123.25000000000001,114.36457204767065C125.66666666666667,114.35211267605635,128.08333333333334,114.33965330444204,130.5,114.32719393282774C132.91666666666666,114.31473456121344,135.33333333333334,114.30227518959913,137.75,114.28981581798483C140.16666666666666,114.27735644637053,142.58333333333334,114.26489707475622,145,114.25243770314192C147.41666666666666,114.23997833152762,149.83333333333334,114.22751895991333,152.25,114.21505958829903C154.66666666666666,114.20260021668473,157.08333333333334,114.19014084507042,159.5,114.17768147345612C161.91666666666666,114.16522210184182,164.33333333333334,114.15276273022751,166.75,114.14030335861321C169.16666666666666,114.12784398699891,171.58333333333334,114.11538461538461,174,114.10292524377031C176.41666666666666,114.09046587215602,178.83333333333334,114.0780065005417,181.25,114.0655471289274C183.66666666666666,114.05308775731311,186.08333333333334,114.04062838569881,188.5,114.02816901408451C190.91666666666666,114.01570964247021,193.33333333333334,114.0032502708559,195.75,113.9907908992416C198.16666666666669,113.9783315276273,200.58333333333334,113.965872156013,203.00000000000003,113.95341278439871C205.41666666666669,113.94095341278441,207.83333333333331,113.9284940411701,210.24999999999997,113.9160346695558C212.66666666666666,113.9035752979415,215.08333333333331,113.8911159263272,217.5,113.8786565547129C219.91666666666666,113.8661971830986,222.33333333333334,113.85373781148428,224.75,113.84127843986998C227.16666666666666,113.82881906825568,229.58333333333334,113.81635969664138,232,113.80390032502709C234.41666666666666,113.79144095341279,236.83333333333334,113.77898158179848,239.25,113.76652221018418C241.66666666666669,113.75406283856988,244.08333333333334,113.74160346695557,246.50000000000003,113.72914409534127C248.91666666666669,113.71668472372697,251.33333333333331,113.70422535211267,253.74999999999997,113.69176598049837C256.16666666666663,113.67930660888408,258.5833333333333,113.66684723726976,261,113.65438786565547C263.4166666666667,113.64192849404117,265.8333333333333,113.62946912242687,268.25,113.61700975081257C270.6666666666667,113.60455037919827,273.0833333333333,113.59209100758396,275.5,113.57963163596966C277.9166666666667,113.56717226435536,280.3333333333333,113.55471289274107,282.75,113.54225352112677C285.1666666666667,113.52979414951247,287.5833333333333,113.51733477789816,290,113.50487540628386C292.4166666666667,113.49241603466956,294.8333333333333,113.47995666305526,297.25,113.46749729144096C299.6666666666667,113.45503791982667,302.0833333333333,113.44257854821235,304.5,113.43011917659805C306.9166666666667,113.41765980498376,309.3333333333333,113.40520043336944,311.75,113.39274106175515C314.1666666666667,113.38028169014085,316.5833333333333,113.36782231852654,319,113.35536294691224C321.4166666666667,113.34290357529794,323.8333333333333,113.33044420368363,326.25,113.31798483206933C328.6666666666667,113.30552546045503,331.0833333333333,113.29306608884073,333.5,113.28060671722643C335.9166666666667,113.26814734561214,338.3333333333333,113.25568797399782,340.75,113.24322860238352C343.1666666666667,113.23076923076923,345.5833333333333,113.21830985915493,348,113.20585048754063C350.4166666666667,113.19339111592633,352.8333333333333,113.18093174431202,355.25,113.16847237269772C357.6666666666667,113.15601300108342,360.0833333333333,113.14355362946912,362.5,113.13109425785483C364.9166666666667,113.11863488624053,367.3333333333333,113.10617551462622,369.75,113.09371614301192C372.1666666666667,113.08125677139762,374.5833333333333,113.06879739978332,377,113.05633802816902C379.4166666666667,113.04387865655472,381.8333333333333,113.03141928494041,384.25,113.01895991332611C386.6666666666667,113.00650054171182,389.0833333333333,112.9940411700975,391.5,112.9815817984832C393.9166666666667,112.9691224268689,396.33333333333337,112.95666305525461,398.75000000000006,112.94420368364031C401.16666666666674,112.93174431202601,403.58333333333337,112.91928494041169,406.00000000000006,112.90682556879739C408.4166666666667,112.89436619718309,410.8333333333333,112.88190682556879,413.24999999999994,112.86944745395449C415.66666666666663,112.8569880823402,418.08333333333326,112.84452871072588,420.49999999999994,112.83206933911158C422.91666666666663,112.81960996749729,425.3333333333333,112.80715059588299,427.75,112.79469122426869C430.1666666666667,112.78223185265439,432.5833333333333,112.76977248104008,435,112.75731310942578C437.4166666666667,112.74485373781148,439.8333333333333,112.73239436619718,442.25,112.71993499458289C444.6666666666667,112.70747562296859,447.0833333333333,112.69501625135428,449.5,112.68255687973998C451.9166666666667,112.67009750812568,454.3333333333333,112.65763813651138,456.75,112.64517876489708C459.1666666666667,112.63271939328278,461.5833333333333,112.62026002166847,464,112.60780065005417C466.4166666666667,112.59534127843988,468.8333333333333,112.58288190682556,471.25,112.57042253521126C473.6666666666667,112.55796316359697,476.0833333333333,112.54550379198267,478.5,112.53304442036837C480.9166666666667,112.52058504875407,483.33333333333337,112.50812567713976,485.75000000000006,112.49566630552546C488.16666666666674,112.48320693391116,490.58333333333337,112.47074756229686,493.00000000000006,112.45828819068257C495.4166666666667,112.44582881906827,497.8333333333333,112.43336944745394,500.24999999999994,112.42091007583964C502.66666666666663,112.40845070422534,505.08333333333326,112.39599133261105,507.49999999999994,112.38353196099675C509.91666666666663,112.37107258938245,512.3333333333333,112.35861321776814,514.75,112.34615384615384C517.1666666666666,112.33369447453954,519.5833333333334,112.32123510292524,522,112.30877573131094C524.4166666666666,112.29631635969665,526.8333333333334,112.28385698808233,529.25,112.27139761646804C531.6666666666666,112.25893824485374,534.0833333333334,112.24647887323944,536.5,112.23401950162514C538.9166666666666,112.22156013001084,541.3333333333334,112.20910075839653,543.75,112.19664138678223C546.1666666666666,112.18418201516793,548.5833333333334,112.17172264355362,551,112.15926327193932C553.4166666666666,112.14680390032503,555.8333333333334,112.13434452871073,558.25,112.12188515709643C560.6666666666666,112.10942578548213,563.0833333333334,112.09696641386782,565.5,112.08450704225352C567.9166666666666,112.07204767063922,570.3333333333334,112.05958829902492,572.75,112.04712892741063C575.1666666666666,112.03466955579633,577.5833333333334,112.02221018418201,580,112.00975081256772C582.4166666666666,111.99729144095342,584.8333333333334,111.9848320693391,587.25,111.97237269772481C589.6666666666666,111.95991332611051,592.0833333333334,111.9474539544962,594.5,111.9349945828819C596.9166666666666,111.9225352112676,599.3333333333334,111.9100758396533,601.75,111.897616468039C604.1666666666666,111.8851570964247,606.5833333333334,111.8726977248104,609,111.8602383531961C611.4166666666666,111.8477789815818,613.8333333333334,111.8353196099675,616.25,111.8228602383532C618.6666666666666,111.8104008667389,621.0833333333334,111.79794149512459,623.5,111.78548212351029C625.9166666666666,111.773022751896,628.3333333333334,111.76056338028168,630.75,111.74810400866738C633.1666666666666,111.73564463705308,635.5833333333334,111.72318526543879,638,111.71072589382449C640.4166666666666,111.69826652221019,642.8333333333334,111.68580715059588,645.25,111.67334777898158C647.6666666666666,111.66088840736728,650.0833333333334,111.64842903575298,652.5,111.63596966413868C654.9166666666666,111.62351029252439,657.3333333333334,111.61105092091007,659.75,111.59859154929578C662.1666666666666,111.58613217768148,664.5833333333334,111.57367280606718,667,111.56121343445288C669.4166666666666,111.54875406283858,671.8333333333334,111.53629469122426,674.25,111.52383531960996C676.6666666666666,111.51137594799566,679.0833333333334,111.49891657638136,681.5,111.48645720476706C683.9166666666666,111.47399783315277,686.3333333333334,111.46153846153845,688.75,111.44907908992415C691.1666666666666,111.43661971830986,693.5833333333334,111.42416034669556,696,111.41170097508126C698.4166666666666,111.39924160346696,700.8333333333334,111.38678223185265,703.25,111.37432286023835C705.6666666666666,111.36186348862405,708.0833333333334,111.34940411700974,710.5,111.33694474539544C712.9166666666666,111.32448537378114,715.3333333333334,111.31202600216685,717.75,111.29956663055255C720.1666666666666,111.28710725893825,722.5833333333334,111.27464788732394,725,111.26218851570964C727.4166666666666,111.24972914409534,729.8333333333334,111.23726977248104,732.25,111.22481040086674C734.6666666666666,111.21235102925245,737.0833333333334,111.19989165763813,739.5,111.18743228602384C741.9166666666666,111.17497291440954,744.3333333333334,111.16251354279524,746.75,111.15005417118094C749.1666666666666,111.13759479956664,751.5833333333334,111.12513542795233,754,111.11267605633803C756.4166666666666,111.10021668472373,758.8333333333334,111.08775731310942,761.25,111.07529794149512C763.6666666666666,111.06283856988082,766.0833333333334,111.05037919826651,768.5,111.03791982665221C770.9166666666666,111.02546045503792,773.3333333333334,111.01300108342362,775.75,111.00054171180932C778.1666666666666,110.98808234019502,780.5833333333334,110.97562296858071,783,110.96316359696641C785.4166666666667,110.95070422535211,787.8333333333334,110.9382448537378,790.2500000000001,110.9257854821235C792.6666666666667,110.9133261105092,795.0833333333335,110.9008667388949,797.5000000000001,110.8884073672806C799.9166666666667,110.87594799566631,802.3333333333335,110.863488624052,804.7500000000001,110.8510292524377C807.1666666666667,110.8385698808234,809.5833333333335,110.8261105092091,812.0000000000001,110.8136511375948C814.4166666666667,110.8011917659805,816.8333333333333,110.78873239436619,819.2499999999999,110.7762730227519C821.6666666666665,110.7638136511376,824.0833333333333,110.7513542795233,826.4999999999999,110.738894907909C828.9166666666665,110.7264355362947,831.3333333333333,110.71397616468039,833.7499999999999,110.70151679306609C836.1666666666665,110.68905742145179,838.5833333333333,110.6765980498375,840.9999999999999,110.6641386782232C843.4166666666666,110.6516793066089,845.8333333333333,110.63921993499459,848.25,110.62676056338029C850.6666666666666,110.61430119176599,853.0833333333334,110.60184182015168,855.5,110.58938244853738C857.9166666666666,110.57692307692308,860.3333333333334,110.56446370530877,862.75,110.55200433369447C865.1666666666666,110.53954496208017,867.5833333333334,110.52708559046586,870,110.51462621885156C872.4166666666666,110.50216684723726,874.8333333333334,110.48970747562296,877.25,110.47724810400867C879.6666666666666,110.46478873239437,882.0833333333334,110.45232936078006,884.5,110.43986998916576C886.9166666666666,110.42741061755146,889.3333333333334,110.41495124593716,891.75,110.40249187432286C894.1666666666666,110.39003250270856,896.5833333333334,110.37757313109425,899,110.36511375947995C901.4166666666666,110.35265438786566,903.8333333333334,110.34019501625136,906.25,110.32773564463706C908.6666666666666,110.31527627302276,911.0833333333334,110.30281690140845,913.5,110.29035752979415C915.9166666666666,110.27789815817985,918.3333333333334,110.26543878656555,920.75,110.25297941495126C923.1666666666666,110.24052004333696,925.5833333333334,110.22806067172264,928,110.21560130010835C930.4166666666666,110.20314192849405,932.8333333333334,110.19068255687974,935.25,110.17822318526544C937.6666666666666,110.16576381365114,940.0833333333334,110.15330444203683,942.5,110.14084507042253C944.9166666666666,110.12838569880823,947.3333333333334,110.11592632719392,949.75,110.10346695557962C952.1666666666666,110.09100758396532,954.5833333333334,110.07854821235102,957,110.06608884073673C959.4166666666666,110.05362946912243,961.8333333333334,110.04117009750811,964.25,110.02871072589382C966.6666666666667,110.01625135427952,969.0833333333334,110.00379198266522,971.5000000000001,109.99133261105092C973.9166666666667,109.97887323943662,976.3333333333335,109.96641386782231,978.7500000000001,109.95395449620801C981.1666666666667,109.94149512459371,983.5833333333335,109.92903575297942,986.0000000000001,109.91657638136512C988.4166666666667,109.90411700975082,990.8333333333335,109.89165763813651,993.2500000000001,109.87919826652221C995.6666666666667,109.86673889490791,998.0833333333333,109.85427952329361,1000.4999999999999,109.84182015167931C1002.9166666666665,109.82936078006502,1005.3333333333333,109.8169014084507,1007.7499999999999,109.8044420368364C1010.1666666666665,109.79198266522211,1012.5833333333333,109.7795232936078,1014.9999999999999,109.7670639219935C1017.4166666666665,109.7546045503792,1019.8333333333333,109.7421451787649,1022.2499999999999,109.7296858071506C1024.6666666666665,109.7172264355363,1027.0833333333333,109.71722643553629,1029.5,109.69230769230768C1031.9166666666667,109.66738894907907,1034.3333333333333,108.62466843501326,1036.75,108.09084880636605C1039.1666666666667,107.55702917771885,1041.5833333333333,107.02320954907162,1044,106.48938992042441C1046.4166666666667,105.9555702917772,1048.8333333333333,105.42175066312998,1051.25,104.88793103448276C1053.6666666666667,104.35411140583554,1056.0833333333333,103.82029177718834,1058.5,103.28647214854112C1060.9166666666667,102.7526525198939,1063.3333333333333,102.21883289124668,1065.75,101.68501326259947C1068.1666666666667,101.15119363395226,1070.5833333333333,100.61737400530504,1073,100.08355437665783C1075.4166666666667,99.54973474801062,1077.8333333333333,99.0159151193634,1080.25,98.48209549071618C1082.6666666666667,97.94827586206895,1085.0833333333333,97.41445623342176,1087.5,96.88063660477454C1089.9166666666667,96.34681697612731,1092.3333333333333,95.81299734748009,1094.75,95.27917771883288C1097.1666666666667,94.74535809018568,1099.5833333333333,94.21153846153845,1102,93.67771883289124C1104.4166666666667,93.14389920424404,1106.8333333333333,92.61007957559681,1109.25,92.0762599469496C1111.6666666666667,91.5424403183024,1114.0833333333333,91.00862068965517,1116.5,90.47480106100797C1118.9166666666667,89.94098143236076,1121.3333333333333,89.40716180371354,1123.75,88.87334217506631C1126.1666666666667,88.33952254641909,1128.5833333333333,87.8057029177719,1131,87.27188328912467C1133.4166666666667,86.73806366047745,1135.8333333333333,86.20424403183023,1138.25,85.67042440318302C1140.6666666666667,85.13660477453581,1143.0833333333333,84.60278514588859,1145.5,84.06896551724138C1147.9166666666667,83.53514588859417,1150.3333333333333,83.00132625994695,1152.75,82.46750663129974C1155.1666666666667,81.93368700265253,1157.5833333333333,81.39986737400531,1160,80.86604774535809C1162.4166666666667,80.33222811671087,1164.8333333333333,79.79840848806364,1167.25,79.26458885941643C1169.6666666666667,78.73076923076923,1172.0833333333333,78.196949602122,1174.5,77.6631299734748C1176.9166666666667,77.12931034482759,1179.3333333333333,76.59549071618036,1181.75,76.06167108753316C1184.1666666666667,75.52785145888595,1186.5833333333333,74.99403183023873,1189,74.46021220159152C1191.4166666666667,73.92639257294431,1193.8333333333333,73.39257294429707,1196.25,72.85875331564986C1198.6666666666667,72.32493368700266,1201.0833333333333,71.79111405835545,1203.5,71.25729442970824C1205.9166666666667,70.72347480106103,1208.3333333333333,70.18965517241381,1210.75,69.65583554376659C1213.1666666666667,69.12201591511936,1215.5833333333333,68.58819628647214,1218,68.05437665782493C1220.4166666666667,67.52055702917772,1222.8333333333333,66.9867374005305,1225.25,66.45291777188329C1227.6666666666667,65.91909814323608,1230.0833333333333,65.38527851458886,1232.5,64.85145888594165C1234.9166666666667,64.31763925729445,1237.3333333333333,63.78381962864722,1239.75,63.25000000000001C1242.1666666666667,62.71618037135279,1244.5833333333333,62.18236074270557,1247,61.648541114058354C1249.4166666666667,61.11472148541114,1251.8333333333333,60.580901856763916,1254.25,60.0470822281167C1256.6666666666667,59.513262599469485,1259.0833333333333,58.97944297082229,1261.5,58.445623342175075C1263.9166666666667,57.91180371352786,1266.3333333333333,57.377984084880644,1268.75,56.84416445623343C1271.1666666666667,56.31034482758621,1273.5833333333333,55.77652519893899,1276,55.242705570291776C1278.4166666666667,54.70888594164456,1280.8333333333333,54.17506631299735,1283.25,53.641246684350136C1285.6666666666667,53.10742705570292,1288.0833333333333,52.5736074270557,1290.5,52.03978779840848C1292.9166666666667,51.50596816976127,1295.3333333333333,50.97214854111406,1297.75,50.438328912466844C1300.1666666666667,49.90450928381963,1302.5833333333333,49.37068965517241,1305,48.8368700265252C1307.4166666666667,48.30305039787798,1309.8333333333333,47.76923076923076,1312.25,47.235411140583544C1314.6666666666667,46.70159151193633,1317.0833333333333,46.167771883289134,1319.5,45.63395225464192C1321.9166666666667,45.1001326259947,1324.3333333333333,44.56631299734748,1326.75,44.032493368700266C1329.1666666666667,43.49867374005305,1331.5833333333333,42.96485411140584,1334,42.431034482758626C1336.4166666666667,41.89721485411141,1338.8333333333333,41.363395225464195,1341.25,40.82957559681698C1343.6666666666667,40.295755968169765,1346.0833333333333,39.761936339522556,1348.5,39.22811671087534C1350.9166666666667,38.694297082228125,1353.3333333333333,38.1604774535809,1355.75,37.62665782493369C1358.1666666666667,37.09283819628647,1360.5833333333333,36.55901856763925,1363,36.025198938992034C1365.4166666666667,35.49137931034482,1367.8333333333333,34.95755968169762,1370.25,34.4237400530504C1372.6666666666667,33.889920424403186,1375.0833333333333,33.356100795755964,1377.5,32.82228116710875C1379.9166666666667,32.28846153846153,1382.3333333333333,31.754641909814325,1384.75,31.22082228116711C1387.1666666666667,30.687002652519894,1389.5833333333333,30.15318302387267,1392,29.619363395225456C1394.4166666666667,29.08554376657824,1396.8333333333333,28.551724137931036,1399.25,28.01790450928382C1401.6666666666667,27.484084880636605,1404.0833333333333,26.95026525198938,1406.5,26.416445623342167C1408.9166666666667,25.882625994694955,1411.3333333333333,25.348806366047757,1413.75,24.81498673740054C1416.1666666666667,24.281167108753326,1418.5833333333333,23.747347480106093,1421,23.213527851458878C1423.4166666666667,22.679708222811662,1425.8333333333333,22.14588859416445,1428.25,21.61206896551724C1430.6666666666667,21.078249336870027,1433.0833333333333,20.544429708222818,1435.5,20.010610079575603C1437.9166666666667,19.476790450928387,1440.3333333333333,18.94297082228117,1442.75,18.40915119363395C1445.1666666666667,17.87533156498673,1447.5833333333333,17.341511936339515,1450,16.8076923076923" fill="transparent" stroke-linecap="round" stroke="#B6509E" stroke-width="2"></path><path class="visx-linepath" d="M0,106.15384615382123C2.4166666666666665,106.14969302996018,4.833333333333334,106.14553990609913,7.25,106.14138678223185C9.666666666666666,106.13723365836456,12.083333333333334,106.13308053448898,14.5,106.12892741061755C16.916666666666668,106.12477428674612,19.333333333333332,106.12062116287468,21.75,106.11646803900325C24.166666666666668,106.11231491513182,26.583333333333332,106.10816179126039,29,106.10400866738895C31.416666666666668,106.09985554351752,33.833333333333336,106.09570241964607,36.25,106.09154929577464C38.666666666666664,106.08739617190321,41.083333333333336,106.08324304803179,43.5,106.07908992416036C45.91666666666667,106.07493680028892,48.333333333333336,106.07078367641748,50.75000000000001,106.06663055254604C53.16666666666667,106.06247742867461,55.583333333333336,106.05832430480318,58,106.05417118093175C60.416666666666664,106.05001805706031,62.833333333333336,106.04586493318887,65.25,106.04171180931743C67.66666666666667,106.037558685446,70.08333333333333,106.03340556157457,72.5,106.02925243770314C74.91666666666667,106.0250993138317,77.33333333333333,106.02094618996027,79.75,106.01679306608884C82.16666666666667,106.0126399422174,84.58333333333333,106.00848681834597,87,106.00433369447454C89.41666666666667,106.0001805706031,91.83333333333333,105.99602744673167,94.25,105.99187432286024C96.66666666666667,105.98772119898881,99.08333333333334,105.98356807511738,101.50000000000001,105.97941495124594C103.91666666666667,105.97526182737451,106.33333333333334,105.97110870350306,108.75,105.96695557963163C111.16666666666667,105.9628024557602,113.58333333333333,105.95864933188876,116,105.95449620801733C118.41666666666667,105.9503430841459,120.83333333333334,105.94618996027447,123.25000000000001,105.94203683640303C125.66666666666667,105.9378837125316,128.08333333333334,105.93373058866017,130.5,105.92957746478874C132.91666666666666,105.9254243409173,135.33333333333334,105.92127121704586,137.75,105.91711809317442C140.16666666666666,105.91296496930299,142.58333333333334,105.90881184543157,145,105.90465872156014C147.41666666666666,105.9005055976887,149.83333333333334,105.89635247381726,152.25,105.89219934994583C154.66666666666666,105.8880462260744,157.08333333333334,105.88389310220296,159.5,105.87973997833153C161.91666666666666,105.8755868544601,164.33333333333334,105.87143373058866,166.75,105.86728060671723C169.16666666666666,105.8631274828458,171.58333333333334,105.85897435897436,174,105.85482123510293C176.41666666666666,105.8506681112315,178.83333333333334,105.84651498736005,181.25,105.84236186348862C183.66666666666666,105.83820873961719,186.08333333333334,105.83405561574577,188.5,105.82990249187434C190.91666666666666,105.8257493680029,193.33333333333334,105.82159624413146,195.75,105.81744312026002C198.16666666666669,105.81328999638859,200.58333333333334,105.80913687251716,203.00000000000003,105.80498374864572C205.41666666666669,105.80083062477429,207.83333333333331,105.79667750090285,210.24999999999997,105.79252437703141C212.66666666666666,105.78837125315998,215.08333333333331,105.78421812928856,217.5,105.78006500541713C219.91666666666666,105.7759118815457,222.33333333333334,105.77175875767425,224.75,105.76760563380282C227.16666666666666,105.76345250993138,229.58333333333334,105.75929938605995,232,105.75514626218852C234.41666666666666,105.75099313831709,236.83333333333334,105.74684001444565,239.25,105.74268689057422C241.66666666666669,105.73853376670279,244.08333333333334,105.73438064283134,246.50000000000003,105.73022751895991C248.91666666666669,105.72607439508847,251.33333333333331,105.72192127121704,253.74999999999997,105.71776814734561C256.16666666666663,105.71361502347418,258.5833333333333,105.70946189960274,261,105.70530877573131C263.4166666666667,105.70115565185988,265.8333333333333,105.69700252798845,268.25,105.69284940411701C270.6666666666667,105.68869628024558,273.0833333333333,105.68454315637413,275.5,105.6803900325027C277.9166666666667,105.67623690863127,280.3333333333333,105.67208378475985,282.75,105.66793066088842C285.1666666666667,105.66377753701698,287.5833333333333,105.65962441314554,290,105.6554712892741C292.4166666666667,105.65131816540267,294.8333333333333,105.64716504153124,297.25,105.6430119176598C299.6666666666667,105.63885879378837,302.0833333333333,105.63470566991693,304.5,105.6305525460455C306.9166666666667,105.62639942217406,309.3333333333333,105.62224629830264,311.75,105.61809317443121C314.1666666666667,105.61394005055978,316.5833333333333,105.60978692668833,319,105.6056338028169C321.4166666666667,105.60148067894546,323.8333333333333,105.59732755507403,326.25,105.5931744312026C328.6666666666667,105.58902130733117,331.0833333333333,105.58486818345973,333.5,105.5807150595883C335.9166666666667,105.57656193571687,338.3333333333333,105.57240881184543,340.75,105.568255687974C343.1666666666667,105.56410256410257,345.5833333333333,105.55994944023112,348,105.55579631635969C350.4166666666667,105.55164319248826,352.8333333333333,105.54749006861684,355.25,105.5433369447454C357.6666666666667,105.53918382087397,360.0833333333333,105.53503069700253,362.5,105.5308775731311C364.9166666666667,105.52672444925966,367.3333333333333,105.52257132538823,369.75,105.5184182015168C372.1666666666667,105.51426507764536,374.5833333333333,105.51011195377393,377,105.5059588299025C379.4166666666667,105.50180570603106,381.8333333333333,105.49765258215963,384.25,105.4934994582882C386.6666666666667,105.48934633441677,389.0833333333333,105.48519321054532,391.5,105.48104008667389C393.9166666666667,105.47688696280245,396.33333333333337,105.47273383893102,398.75000000000006,105.46858071505959C401.16666666666674,105.46442759118816,403.58333333333337,105.46027446731672,406.00000000000006,105.45612134344529C408.4166666666667,105.45196821957386,410.8333333333333,105.44781509570242,413.24999999999994,105.44366197183099C415.66666666666663,105.43950884795956,418.08333333333326,105.43535572408811,420.49999999999994,105.43120260021668C422.91666666666663,105.42704947634525,425.3333333333333,105.42289635247383,427.75,105.4187432286024C430.1666666666667,105.41459010473096,432.5833333333333,105.41043698085952,435,105.40628385698808C437.4166666666667,105.40213073311665,439.8333333333333,105.39797760924522,442.25,105.39382448537378C444.6666666666667,105.38967136150235,447.0833333333333,105.3855182376309,449.5,105.38136511375947C451.9166666666667,105.37721198988804,454.3333333333333,105.37305886601662,456.75,105.36890574214519C459.1666666666667,105.36475261827376,461.5833333333333,105.36059949440231,464,105.35644637053088C466.4166666666667,105.35229324665944,468.8333333333333,105.34814012278801,471.25,105.34398699891658C473.6666666666667,105.33983387504514,476.0833333333333,105.33568075117371,478.5,105.33152762730228C480.9166666666667,105.32737450343085,483.33333333333337,105.3232213795594,485.75000000000006,105.31906825568797C488.16666666666674,105.31491513181653,490.58333333333337,105.3107620079451,493.00000000000006,105.30660888407367C495.4166666666667,105.30245576020224,497.8333333333333,105.2983026363308,500.24999999999994,105.29414951245937C502.66666666666663,105.28999638858794,505.08333333333326,105.2858432647165,507.49999999999994,105.28169014084507C509.91666666666663,105.27753701697364,512.3333333333333,105.27338389310219,514.75,105.26923076923076C517.1666666666666,105.26507764535933,519.5833333333334,105.26092452148791,522,105.25677139761648C524.4166666666666,105.25261827374504,526.8333333333334,105.2484651498736,529.25,105.24431202600216C531.6666666666666,105.24015890213073,534.0833333333334,105.2360057782593,536.5,105.23185265438786C538.9166666666666,105.22769953051643,541.3333333333334,105.22354640664499,543.75,105.21939328277355C546.1666666666666,105.21524015890212,548.5833333333334,105.2110870350307,551,105.20693391115927C553.4166666666666,105.20278078728784,555.8333333333334,105.19862766341639,558.25,105.19447453954496C560.6666666666666,105.19032141567352,563.0833333333334,105.1861682918021,565.5,105.18201516793067C567.9166666666666,105.17786204405924,570.3333333333334,105.17370892018779,572.75,105.16955579631636C575.1666666666666,105.16540267244493,577.5833333333334,105.1612495485735,580,105.15709642470206C582.4166666666666,105.15294330083063,584.8333333333334,105.14879017695918,587.25,105.14463705308775C589.6666666666666,105.14048392921632,592.0833333333334,105.1363308053449,594.5,105.13217768147346C596.9166666666666,105.12802455760203,599.3333333333334,105.12387143373059,601.75,105.11971830985915C604.1666666666666,105.11556518598772,606.5833333333334,105.11141206211629,609,105.10725893824485C611.4166666666666,105.10310581437342,613.8333333333334,105.09895269050199,616.25,105.09479956663056C618.6666666666666,105.09064644275912,621.0833333333334,105.08649331888769,623.5,105.08234019501626C625.9166666666666,105.07818707114482,628.3333333333334,105.07403394727338,630.75,105.06988082340195C633.1666666666666,105.06572769953051,635.5833333333334,105.06157457565908,638,105.05742145178765C640.4166666666666,105.05326832791621,642.8333333333334,105.04911520404478,645.25,105.04496208017335C647.6666666666666,105.04080895630192,650.0833333333334,105.03665583243048,652.5,105.03250270855905C654.9166666666666,105.02834958468762,657.3333333333334,105.02419646081619,659.75,105.02004333694475C662.1666666666666,105.01589021307332,664.5833333333334,105.01173708920189,667,105.00758396533045C669.4166666666666,105.00343084145902,671.8333333333334,104.99927771758757,674.25,104.99512459371614C676.6666666666666,104.99097146984471,679.0833333333334,104.98681834597328,681.5,104.98266522210184C683.9166666666666,104.97851209823041,686.3333333333334,104.97435897435898,688.75,104.97020585048755C691.1666666666666,104.96605272661611,693.5833333333334,104.96189960274468,696,104.95774647887325C698.4166666666666,104.95359335500181,700.8333333333334,104.94944023113037,703.25,104.94528710725893C705.6666666666666,104.9411339833875,708.0833333333334,104.93698085951607,710.5,104.93282773564464C712.9166666666666,104.9286746117732,715.3333333333334,104.92452148790177,717.75,104.92036836403034C720.1666666666666,104.9162152401589,722.5833333333334,104.91206211628746,725,104.90790899241603C727.4166666666666,104.9037558685446,729.8333333333334,104.89960274467316,732.25,104.89544962080173C734.6666666666666,104.8912964969303,737.0833333333334,104.88714337305886,739.5,104.88299024918743C741.9166666666666,104.878837125316,744.3333333333334,104.87468400144456,746.75,104.87053087757313C749.1666666666666,104.8663777537017,751.5833333333334,104.86222462983025,754,104.85807150595882C756.4166666666666,104.85391838208739,758.8333333333334,104.84976525821597,761.25,104.84561213434453C763.6666666666666,104.8414590104731,766.0833333333334,104.83730588660165,768.5,104.83315276273022C770.9166666666666,104.82899963885879,773.3333333333334,104.82484651498736,775.75,104.82069339111592C778.1666666666666,104.81654026724449,780.5833333333334,104.81238714337306,783,104.80823401950163C785.4166666666667,104.8040808956302,787.8333333333334,104.79992777175876,790.2500000000001,104.79577464788733C792.6666666666667,104.7916215240159,795.0833333333335,104.78746840014445,797.5000000000001,104.78331527627302C799.9166666666667,104.77916215240158,802.3333333333335,104.77500902853016,804.7500000000001,104.77085590465873C807.1666666666667,104.7667027807873,809.5833333333335,104.76254965691585,812.0000000000001,104.75839653304442C814.4166666666667,104.75424340917299,816.8333333333333,104.75009028530155,819.2499999999999,104.74593716143012C821.6666666666665,104.74178403755869,824.0833333333333,104.73763091368724,826.4999999999999,104.73347778981581C828.9166666666665,104.72932466594438,831.3333333333333,104.72517154207296,833.7499999999999,104.72101841820152C836.1666666666665,104.71686529433009,838.5833333333333,104.71271217045864,840.9999999999999,104.70855904658721C843.4166666666666,104.70440592271578,845.8333333333333,104.70025279884435,848.25,104.69609967497291C850.6666666666666,104.69194655110148,853.0833333333334,104.68779342723005,855.5,104.68364030335862C857.9166666666666,104.67948717948718,860.3333333333334,104.67533405561575,862.75,104.67118093174432C865.1666666666666,104.66702780787288,867.5833333333334,104.66287468400144,870,104.65872156013C872.4166666666666,104.65456843625857,874.8333333333334,104.65041531238715,877.25,104.64626218851572C879.6666666666666,104.64210906464429,882.0833333333334,104.63795594077284,884.5,104.63380281690141C886.9166666666666,104.62964969302998,889.3333333333334,104.62549656915854,891.75,104.62134344528711C894.1666666666666,104.61719032141568,896.5833333333334,104.61303719754424,899,104.60888407367281C901.4166666666666,104.60473094980138,903.8333333333334,104.60057782592995,906.25,104.59642470205851C908.6666666666666,104.59227157818708,911.0833333333334,104.58811845431563,913.5,104.5839653304442C915.9166666666666,104.57981220657277,918.3333333333334,104.57565908270134,920.75,104.5715059588299C923.1666666666666,104.56735283495847,925.5833333333334,104.56319971108704,928,104.5590465872156C930.4166666666666,104.55489346334417,932.8333333333334,104.55074033947274,935.25,104.5465872156013C937.6666666666666,104.54243409172987,940.0833333333334,104.53828096785843,942.5,104.534127843987C944.9166666666666,104.52997472011556,947.3333333333334,104.52582159624413,949.75,104.5216684723727C952.1666666666666,104.51751534850126,954.5833333333334,104.51336222462983,957,104.5092091007584C959.4166666666666,104.50505597688696,961.8333333333334,104.50090285301552,964.25,104.49674972914408C966.6666666666667,104.49259660527265,969.0833333333334,104.48844348140123,971.5000000000001,104.4842903575298C973.9166666666667,104.48013723365837,976.3333333333335,104.47598410978692,978.7500000000001,104.47183098591549C981.1666666666667,104.46767786204406,983.5833333333335,104.46352473817262,986.0000000000001,104.45937161430119C988.4166666666667,104.45521849042976,990.8333333333335,104.45106536655832,993.2500000000001,104.44691224268689C995.6666666666667,104.44275911881546,998.0833333333333,104.43860599494403,1000.4999999999999,104.4344528710726C1002.9166666666665,104.43029974720116,1005.3333333333333,104.42614662332971,1007.7499999999999,104.42199349945828C1010.1666666666665,104.41784037558685,1012.5833333333333,104.41368725171542,1014.9999999999999,104.40953412784398C1017.4166666666665,104.40538100397255,1019.8333333333333,104.40122788010112,1022.2499999999999,104.39707475622969C1024.6666666666665,104.39292163235825,1027.0833333333333,104.39292163235825,1029.5,104.38461538461539C1031.9166666666667,104.37630913687252,1034.3333333333333,103.31697612732097,1036.75,102.78315649867375C1039.1666666666667,102.24933687002653,1041.5833333333333,101.7155172413793,1044,101.1816976127321C1046.4166666666667,100.64787798408489,1048.8333333333333,100.11405835543766,1051.25,99.58023872679045C1053.6666666666667,99.04641909814325,1056.0833333333333,98.51259946949602,1058.5,97.9787798408488C1060.9166666666667,97.44496021220158,1063.3333333333333,96.91114058355438,1065.75,96.37732095490716C1068.1666666666667,95.84350132625994,1070.5833333333333,95.30968169761272,1073,94.77586206896551C1075.4166666666667,94.2420424403183,1077.8333333333333,93.70822281167108,1080.25,93.17440318302387C1082.6666666666667,92.64058355437666,1085.0833333333333,92.10676392572944,1087.5,91.57294429708223C1089.9166666666667,91.03912466843502,1092.3333333333333,90.5053050397878,1094.75,89.97148541114059C1097.1666666666667,89.43766578249338,1099.5833333333333,88.90384615384616,1102,88.37002652519894C1104.4166666666667,87.83620689655172,1106.8333333333333,87.30238726790452,1109.25,86.7685676392573C1111.6666666666667,86.23474801061008,1114.0833333333333,85.70092838196285,1116.5,85.16710875331565C1118.9166666666667,84.63328912466844,1121.3333333333333,84.09946949602121,1123.75,83.565649867374C1126.1666666666667,83.0318302387268,1128.5833333333333,82.49801061007958,1131,81.96419098143235C1133.4166666666667,81.43037135278513,1135.8333333333333,80.89655172413792,1138.25,80.36273209549071C1140.6666666666667,79.8289124668435,1143.0833333333333,79.29509283819628,1145.5,78.76127320954907C1147.9166666666667,78.22745358090187,1150.3333333333333,77.69363395225466,1152.75,77.15981432360743C1155.1666666666667,76.62599469496021,1157.5833333333333,76.09217506631299,1160,75.55835543766578C1162.4166666666667,75.02453580901857,1164.8333333333333,74.49071618037135,1167.25,73.95689655172414C1169.6666666666667,73.42307692307693,1172.0833333333333,72.88925729442971,1174.5,72.3554376657825C1176.9166666666667,71.8216180371353,1179.3333333333333,71.28779840848807,1181.75,70.75397877984085C1184.1666666666667,70.22015915119363,1186.5833333333333,69.6863395225464,1189,69.1525198938992C1191.4166666666667,68.61870026525199,1193.8333333333333,68.08488063660478,1196.25,67.55106100795757C1198.6666666666667,67.01724137931036,1201.0833333333333,66.48342175066314,1203.5,65.94960212201592C1205.9166666666667,65.4157824933687,1208.3333333333333,64.88196286472149,1210.75,64.34814323607426C1213.1666666666667,63.81432360742705,1215.5833333333333,63.280503978779834,1218,62.74668435013262C1220.4166666666667,62.2128647214854,1222.8333333333333,61.679045092838194,1225.25,61.14522546419098C1227.6666666666667,60.61140583554376,1230.0833333333333,60.077586206896555,1232.5,59.54376657824934C1234.9166666666667,59.009946949602124,1237.3333333333333,58.47612732095491,1239.75,57.94230769230769C1242.1666666666667,57.40848806366048,1244.5833333333333,56.87466843501327,1247,56.340848806366054C1249.4166666666667,55.80702917771884,1251.8333333333333,55.273209549071616,1254.25,54.7393899204244C1256.6666666666667,54.205570291777185,1259.0833333333333,53.67175066312998,1261.5,53.13793103448276C1263.9166666666667,52.604111405835546,1266.3333333333333,52.070291777188324,1268.75,51.53647214854111C1271.1666666666667,51.00265251989389,1273.5833333333333,50.46883289124669,1276,49.935013262599476C1278.4166666666667,49.40119363395226,1280.8333333333333,48.86737400530504,1283.25,48.33355437665782C1285.6666666666667,47.79973474801061,1288.0833333333333,47.2659151193634,1290.5,46.73209549071618C1292.9166666666667,46.19827586206897,1295.3333333333333,45.66445623342176,1297.75,45.130636604774544C1300.1666666666667,44.59681697612733,1302.5833333333333,44.062997347480106,1305,43.52917771883289C1307.4166666666667,42.995358090185675,1309.8333333333333,42.461538461538474,1312.25,41.92771883289126C1314.6666666666667,41.39389920424404,1317.0833333333333,40.86007957559682,1319.5,40.326259946949605C1321.9166666666667,39.79244031830239,1324.3333333333333,39.25862068965518,1326.75,38.724801061007966C1329.1666666666667,38.19098143236075,1331.5833333333333,37.657161803713514,1334,37.1233421750663C1336.4166666666667,36.58952254641908,1338.8333333333333,36.05570291777188,1341.25,35.521883289124666C1343.6666666666667,34.98806366047745,1346.0833333333333,34.45424403183023,1348.5,33.92042440318301C1350.9166666666667,33.3866047745358,1353.3333333333333,32.85278514588859,1355.75,32.318965517241374C1358.1666666666667,31.785145888594162,1360.5833333333333,31.251326259946946,1363,30.717506631299734C1365.4166666666667,30.183687002652523,1367.8333333333333,29.649867374005307,1370.25,29.116047745358095C1372.6666666666667,28.582228116710883,1375.0833333333333,28.048408488063675,1377.5,27.51458885941646C1379.9166666666667,26.980769230769244,1382.3333333333333,26.446949602122025,1384.75,25.913129973474806C1387.1666666666667,25.379310344827587,1389.5833333333333,24.84549071618037,1392,24.311671087533156C1394.4166666666667,23.77785145888594,1396.8333333333333,23.244031830238722,1399.25,22.710212201591506C1401.6666666666667,22.17639257294429,1404.0833333333333,21.642572944297083,1406.5,21.108753315649867C1408.9166666666667,20.574933687002652,1411.3333333333333,20.041114058355426,1413.75,19.507294429708214C1416.1666666666667,18.973474801061002,1418.5833333333333,18.4396551724138,1421,17.90583554376659C1423.4166666666667,17.372015915119377,1425.8333333333333,16.838196286472154,1428.25,16.30437665782494C1430.6666666666667,15.770557029177724,1433.0833333333333,15.236737400530515,1435.5,14.7029177718833C1437.9166666666667,14.169098143236084,1440.3333333333333,13.635278514588865,1442.75,13.101458885941648C1445.1666666666667,12.56763925729443,1447.5833333333333,12.033819628647215,1450,11.499999999999998" fill="transparent" stroke-linecap="round" stroke="#E7C6DF" stroke-width="2"></path><g class="visx-group visx-axis visx-axis-bottom" transform="translate(0, 115)"><g class="visx-group visx-axis-tick" transform="translate(0, 0)"><line class="visx-line" x1="0" y1="0" x2="0" y2="8" fill="transparent" shape-rendering="crispEdges" stroke="#000" stroke-width="0" stroke-linecap="square"></line><svg x="0" y="0" font-size="10" style="overflow:visible"><text transform="" x="0" y="18" fill="#000" font-size="10" text-anchor="middle"><tspan x="0" dy="0em">0%</tspan></text></svg></g><g class="visx-group visx-axis-tick" transform="translate(0, 0)"><line class="visx-line" x1="362.5" y1="0" x2="362.5" y2="8" fill="transparent" shape-rendering="crispEdges" stroke="#000" stroke-width="0" stroke-linecap="square"></line><svg x="0" y="0" font-size="10" style="overflow:visible"><text transform="" x="362.5" y="18" fill="#000" font-size="10" text-anchor="middle"><tspan x="362.5" dy="0em">25%</tspan></text></svg></g><g class="visx-group visx-axis-tick" transform="translate(0, 0)"><line class="visx-line" x1="725" y1="0" x2="725" y2="8" fill="transparent" shape-rendering="crispEdges" stroke="#000" stroke-width="0" stroke-linecap="square"></line><svg x="0" y="0" font-size="10" style="overflow:visible"><text transform="" x="725" y="18" fill="#000" font-size="10" text-anchor="middle"><tspan x="725" dy="0em">50%</tspan></text></svg></g><g class="visx-group visx-axis-tick" transform="translate(0, 0)"><line class="visx-line" x1="1087.5" y1="0" x2="1087.5" y2="8" fill="transparent" shape-rendering="crispEdges" stroke="#000" stroke-width="0" stroke-linecap="square"></line><svg x="0" y="0" font-size="10" style="overflow:visible"><text transform="" x="1087.5" y="18" fill="#000" font-size="10" text-anchor="middle"><tspan x="1087.5" dy="0em">75%</tspan></text></svg></g><g class="visx-group visx-axis-tick" transform="translate(0, 0)"><line class="visx-line" x1="1450" y1="0" x2="1450" y2="8" fill="transparent" shape-rendering="crispEdges" stroke="#000" stroke-width="0" stroke-linecap="square"></line><svg x="0" y="0" font-size="10" style="overflow:visible"><text transform="" x="1450" y="18" fill="#000" font-size="10" text-anchor="middle"><tspan x="1450" dy="0em">100%</tspan></text></svg></g><line class="visx-line visx-axis-line" x1="0.5" y1="0" x2="1450.5" y2="0" fill="transparent" shape-rendering="crispEdges" stroke="#222" stroke-width="0"></line></g><g class="visx-group visx-axis visx-axis-left" transform="translate(0, 0)"><g class="visx-group visx-axis-tick" transform="translate(0, 0)"><line class="visx-line" x1="0" y1="115" x2="-8" y2="115" fill="transparent" shape-rendering="crispEdges" stroke="#222" stroke-width="0" stroke-linecap="square"></line><svg x="-30" y="0" font-size="8" style="overflow:visible"><text transform="" x="-8" y="115" fill="#000" font-size="8" text-anchor="start"><tspan x="-8" dy="0em">0%</tspan></text></svg></g><g class="visx-group visx-axis-tick" transform="translate(0, 0)"><line class="visx-line" x1="0" y1="70.76923076923077" x2="-8" y2="70.76923076923077" fill="transparent" shape-rendering="crispEdges" stroke="#222" stroke-width="0" stroke-linecap="square"></line><svg x="-30" y="0" font-size="8" style="overflow:visible"><text transform="" x="-8" y="70.76923076923077" fill="#000" font-size="8" text-anchor="start"><tspan x="-8" dy="0em">50%</tspan></text></svg></g><g class="visx-group visx-axis-tick" transform="translate(0, 0)"><line class="visx-line" x1="0" y1="26.538461538461533" x2="-8" y2="26.538461538461533" fill="transparent" shape-rendering="crispEdges" stroke="#222" stroke-width="0" stroke-linecap="square"></line><svg x="-30" y="0" font-size="8" style="overflow:visible"><text transform="" x="-8" y="26.538461538461533" fill="#000" font-size="8" text-anchor="start"><tspan x="-8" dy="0em">100%</tspan></text></svg></g><line class="visx-line visx-axis-line" x1="0" y1="115.5" x2="0" y2="0.5" fill="transparent" shape-rendering="crispEdges" stroke="#222" stroke-width="0"></line></g><rect class="visx-bar" width="1450" height="115" fill="transparent"></rect><line class="visx-line" x1="1029.5" y1="28" x2="1029.5" y2="115" fill="transparent" shape-rendering="crispEdges" stroke="#0062D2" stroke-width="1" pointer-events="none" stroke-dasharray="5,2"></line><svg x="0" y="0" font-size="10px" style="overflow:visible"><text transform="" x="1029.5" y="20" font-size="10px" fill="#fff" stroke="#fff" stroke-width="0.8em" text-anchor="middle"><tspan x="1029.5" dy="0.355em">Optimal 71%</tspan></text></svg><svg x="0" y="0" font-size="10px" style="overflow:visible"><text transform="" x="1029.5" y="20" font-size="10px" fill="#62677B" text-anchor="middle"><tspan x="1029.5" dy="0.355em">Optimal 71%</tspan></text></svg></g></svg>