<?xml version="1.0"?><svg xmlns="http://www.w3.org/2000/svg" xmlns:xlink= "http://www.w3.org/1999/xlink" style="background: white;" width="1500" height="185"> <g style="color: black; font-size: 13px; font-family: sans-serif; transform: translate(18px, 25px);"><g><circle r="3" cx="-6" cy="-5" style="fill: #B6509E" /><text>Borrow APR, variable</text></g><g style="transform: translateX(150px);"><circle r="3" cx="-6" cy="-5" style="fill: rgb(231, 198, 223)" /><text>Borrow APR, stable</text></g><g style="transform: translateX(290px);"><circle r="3" cx="-6" cy="-5" style="fill: rgb(0, 98, 210)" /><text>Utilization Rate</text></g></g><g class="visx-group" transform="translate(40, 50)"><g class="visx-group visx-rows" transform="translate(0, 0)"><line class="visx-line" x1="0" y1="115" x2="1450" y2="115" fill="transparent" shape-rendering="crispEdges" stroke="#000" stroke-width="1" stroke-dasharray="3,3" pointer-events="none"></line><line class="visx-line" x1="0" y1="62.72727272727272" x2="1450" y2="62.72727272727272" fill="transparent" shape-rendering="crispEdges" stroke="#000" stroke-width="1" stroke-dasharray="3,3" pointer-events="none"></line><line class="visx-line" x1="0" y1="10.454545454545459" x2="1450" y2="10.454545454545459" fill="transparent" shape-rendering="crispEdges" stroke="#000" stroke-width="1" stroke-dasharray="3,3" pointer-events="none"></line></g><path class="visx-linepath" d="M0,114.99999999993466C2.4166666666666665,114.98910984844673,4.833333333333334,114.9782196969588,7.25,114.96732954545455C9.666666666666666,114.95643939395029,12.083333333333334,114.94554924242425,14.5,114.9346590909091C16.916666666666668,114.92376893939394,19.333333333333332,114.9128787878788,21.75,114.90198863636364C24.166666666666668,114.89109848484848,26.583333333333332,114.88020833333334,29,114.86931818181819C31.416666666666668,114.85842803030303,33.833333333333336,114.84753787878788,36.25,114.83664772727272C38.666666666666664,114.82575757575756,41.083333333333336,114.81486742424241,43.5,114.80397727272727C45.91666666666667,114.79308712121211,48.333333333333336,114.78219696969698,50.75000000000001,114.77130681818183C53.16666666666667,114.76041666666667,55.583333333333336,114.74952651515152,58,114.73863636363636C60.416666666666664,114.7277462121212,62.833333333333336,114.71685606060606,65.25,114.7059659090909C67.66666666666667,114.69507575757575,70.08333333333333,114.68418560606061,72.5,114.67329545454545C74.91666666666667,114.6624053030303,77.33333333333333,114.65151515151516,79.75,114.640625C82.16666666666667,114.62973484848484,84.58333333333333,114.6188446969697,87,114.60795454545455C89.41666666666667,114.59706439393939,91.83333333333333,114.58617424242425,94.25,114.5752840909091C96.66666666666667,114.56439393939394,99.08333333333334,114.55350378787878,101.50000000000001,114.54261363636363C103.91666666666667,114.53172348484847,106.33333333333334,114.52083333333333,108.75,114.50994318181819C111.16666666666667,114.49905303030303,113.58333333333333,114.48816287878789,116,114.47727272727273C118.41666666666667,114.46638257575758,120.83333333333334,114.45549242424242,123.25000000000001,114.44460227272727C125.66666666666667,114.43371212121211,128.08333333333334,114.42282196969697,130.5,114.41193181818181C132.91666666666666,114.40104166666666,135.33333333333334,114.39015151515152,137.75,114.37926136363636C140.16666666666666,114.3683712121212,142.58333333333334,114.35748106060606,145,114.3465909090909C147.41666666666666,114.33570075757575,149.83333333333334,114.32481060606061,152.25,114.31392045454545C154.66666666666666,114.3030303030303,157.08333333333334,114.29214015151516,159.5,114.28125C161.91666666666666,114.27035984848484,164.33333333333334,114.25946969696969,166.75,114.24857954545453C169.16666666666666,114.23768939393938,171.58333333333334,114.22679924242425,174,114.2159090909091C176.41666666666666,114.20501893939394,178.83333333333334,114.1941287878788,181.25,114.18323863636364C183.66666666666666,114.17234848484848,186.08333333333334,114.16145833333333,188.5,114.15056818181817C190.91666666666666,114.13967803030302,193.33333333333334,114.12878787878786,195.75,114.11789772727272C198.16666666666669,114.10700757575756,200.58333333333334,114.09611742424244,203.00000000000003,114.08522727272728C205.41666666666669,114.07433712121214,207.83333333333331,114.06344696969698,210.24999999999997,114.05255681818183C212.66666666666666,114.04166666666667,215.08333333333331,114.03077651515152,217.5,114.01988636363636C219.91666666666666,114.0089962121212,222.33333333333334,113.99810606060606,224.75,113.9872159090909C227.16666666666666,113.97632575757575,229.58333333333334,113.96543560606062,232,113.95454545454547C234.41666666666666,113.94365530303031,236.83333333333334,113.93276515151516,239.25,113.921875C241.66666666666669,113.91098484848484,244.08333333333334,113.9000946969697,246.50000000000003,113.88920454545455C248.91666666666669,113.87831439393939,251.33333333333331,113.86742424242425,253.74999999999997,113.8565340909091C256.16666666666663,113.84564393939394,258.5833333333333,113.8347537878788,261,113.82386363636364C263.4166666666667,113.81297348484848,265.8333333333333,113.80208333333334,268.25,113.79119318181819C270.6666666666667,113.78030303030303,273.0833333333333,113.76941287878789,275.5,113.75852272727273C277.9166666666667,113.74763257575758,280.3333333333333,113.73674242424242,282.75,113.72585227272727C285.1666666666667,113.71496212121211,287.5833333333333,113.70407196969697,290,113.69318181818181C292.4166666666667,113.68229166666666,294.8333333333333,113.67140151515153,297.25,113.66051136363637C299.6666666666667,113.64962121212122,302.0833333333333,113.63873106060606,304.5,113.6278409090909C306.9166666666667,113.61695075757575,309.3333333333333,113.60606060606061,311.75,113.59517045454545C314.1666666666667,113.5842803030303,316.5833333333333,113.57339015151516,319,113.5625C321.4166666666667,113.55160984848484,323.8333333333333,113.5407196969697,326.25,113.52982954545455C328.6666666666667,113.51893939393939,331.0833333333333,113.50804924242425,333.5,113.4971590909091C335.9166666666667,113.48626893939394,338.3333333333333,113.4753787878788,340.75,113.46448863636364C343.1666666666667,113.45359848484848,345.5833333333333,113.44270833333333,348,113.43181818181817C350.4166666666667,113.42092803030302,352.8333333333333,113.41003787878788,355.25,113.39914772727273C357.6666666666667,113.38825757575759,360.0833333333333,113.37736742424244,362.5,113.36647727272728C364.9166666666667,113.35558712121212,367.3333333333333,113.34469696969697,369.75,113.33380681818181C372.1666666666667,113.32291666666666,374.5833333333333,113.31202651515152,377,113.30113636363636C379.4166666666667,113.2902462121212,381.8333333333333,113.27935606060606,384.25,113.2684659090909C386.6666666666667,113.25757575757575,389.0833333333333,113.24668560606061,391.5,113.23579545454545C393.9166666666667,113.2249053030303,396.33333333333337,113.21401515151516,398.75000000000006,113.203125C401.16666666666674,113.19223484848484,403.58333333333337,113.1813446969697,406.00000000000006,113.17045454545455C408.4166666666667,113.15956439393939,410.8333333333333,113.14867424242425,413.24999999999994,113.1377840909091C415.66666666666663,113.12689393939394,418.08333333333326,113.1160037878788,420.49999999999994,113.10511363636364C422.91666666666663,113.09422348484848,425.3333333333333,113.08333333333334,427.75,113.07244318181819C430.1666666666667,113.06155303030303,432.5833333333333,113.05066287878788,435,113.03977272727272C437.4166666666667,113.02888257575756,439.8333333333333,113.01799242424241,442.25,113.00710227272727C444.6666666666667,112.99621212121212,447.0833333333333,112.98532196969698,449.5,112.97443181818183C451.9166666666667,112.96354166666667,454.3333333333333,112.95265151515152,456.75,112.94176136363636C459.1666666666667,112.9308712121212,461.5833333333333,112.91998106060606,464,112.9090909090909C466.4166666666667,112.89820075757575,468.8333333333333,112.88731060606061,471.25,112.87642045454545C473.6666666666667,112.8655303030303,476.0833333333333,112.85464015151516,478.5,112.84375C480.9166666666667,112.83285984848484,483.33333333333337,112.8219696969697,485.75000000000006,112.81107954545455C488.16666666666674,112.80018939393939,490.58333333333337,112.78929924242425,493.00000000000006,112.7784090909091C495.4166666666667,112.76751893939394,497.8333333333333,112.75662878787878,500.24999999999994,112.74573863636363C502.66666666666663,112.73484848484847,505.08333333333326,112.72395833333333,507.49999999999994,112.71306818181819C509.91666666666663,112.70217803030303,512.3333333333333,112.69128787878789,514.75,112.68039772727273C517.1666666666666,112.66950757575758,519.5833333333334,112.65861742424242,522,112.64772727272727C524.4166666666666,112.63683712121211,526.8333333333334,112.62594696969697,529.25,112.61505681818181C531.6666666666666,112.60416666666666,534.0833333333334,112.59327651515152,536.5,112.58238636363636C538.9166666666666,112.5714962121212,541.3333333333334,112.56060606060606,543.75,112.5497159090909C546.1666666666666,112.53882575757575,548.5833333333334,112.52793560606061,551,112.51704545454545C553.4166666666666,112.5061553030303,555.8333333333334,112.49526515151516,558.25,112.484375C560.6666666666666,112.47348484848484,563.0833333333334,112.46259469696969,565.5,112.45170454545453C567.9166666666666,112.44081439393938,570.3333333333334,112.42992424242425,572.75,112.4190340909091C575.1666666666666,112.40814393939394,577.5833333333334,112.3972537878788,580,112.38636363636364C582.4166666666666,112.37547348484848,584.8333333333334,112.36458333333334,587.25,112.35369318181819C589.6666666666666,112.34280303030303,592.0833333333334,112.33191287878788,594.5,112.32102272727272C596.9166666666666,112.31013257575756,599.3333333333334,112.29924242424244,601.75,112.28835227272728C604.1666666666666,112.27746212121212,606.5833333333334,112.26657196969697,609,112.25568181818181C611.4166666666666,112.24479166666666,613.8333333333334,112.23390151515152,616.25,112.22301136363636C618.6666666666666,112.2121212121212,621.0833333333334,112.20123106060606,623.5,112.1903409090909C625.9166666666666,112.17945075757575,628.3333333333334,112.16856060606062,630.75,112.15767045454547C633.1666666666666,112.14678030303031,635.5833333333334,112.13589015151516,638,112.125C640.4166666666666,112.11410984848484,642.8333333333334,112.1032196969697,645.25,112.09232954545455C647.6666666666666,112.08143939393939,650.0833333333334,112.07054924242425,652.5,112.0596590909091C654.9166666666666,112.04876893939394,657.3333333333334,112.0378787878788,659.75,112.02698863636364C662.1666666666666,112.01609848484848,664.5833333333334,112.00520833333334,667,111.99431818181819C669.4166666666666,111.98342803030303,671.8333333333334,111.97253787878789,674.25,111.96164772727273C676.6666666666666,111.95075757575758,679.0833333333334,111.93986742424242,681.5,111.92897727272727C683.9166666666666,111.91808712121211,686.3333333333334,111.90719696969697,688.75,111.89630681818181C691.1666666666666,111.88541666666666,693.5833333333334,111.87452651515153,696,111.86363636363637C698.4166666666666,111.85274621212122,700.8333333333334,111.84185606060606,703.25,111.8309659090909C705.6666666666666,111.82007575757575,708.0833333333334,111.80918560606061,710.5,111.79829545454545C712.9166666666666,111.7874053030303,715.3333333333334,111.77651515151516,717.75,111.765625C720.1666666666666,111.75473484848484,722.5833333333334,111.7438446969697,725,111.73295454545455C727.4166666666666,111.72206439393939,729.8333333333334,111.71117424242425,732.25,111.7002840909091C734.6666666666666,111.68939393939394,737.0833333333334,111.6785037878788,739.5,111.66761363636364C741.9166666666666,111.65672348484848,744.3333333333334,111.64583333333333,746.75,111.63494318181817C749.1666666666666,111.62405303030302,751.5833333333334,111.61316287878788,754,111.60227272727273C756.4166666666666,111.59138257575759,758.8333333333334,111.58049242424244,761.25,111.56960227272728C763.6666666666666,111.55871212121212,766.0833333333334,111.54782196969697,768.5,111.53693181818181C770.9166666666666,111.52604166666666,773.3333333333334,111.51515151515152,775.75,111.50426136363636C778.1666666666666,111.4933712121212,780.5833333333334,111.48248106060606,783,111.4715909090909C785.4166666666667,111.46070075757575,787.8333333333334,111.44981060606061,790.2500000000001,111.43892045454545C792.6666666666667,111.4280303030303,795.0833333333335,111.41714015151516,797.5000000000001,111.40625C799.9166666666667,111.39535984848484,802.3333333333335,111.3844696969697,804.7500000000001,111.37357954545455C807.1666666666667,111.36268939393939,809.5833333333335,111.35179924242425,812.0000000000001,111.3409090909091C814.4166666666667,111.33001893939394,816.8333333333333,111.3191287878788,819.2499999999999,111.30823863636364C821.6666666666665,111.29734848484848,824.0833333333333,111.28645833333334,826.4999999999999,111.27556818181819C828.9166666666665,111.26467803030303,831.3333333333333,111.25378787878788,833.7499999999999,111.24289772727272C836.1666666666665,111.23200757575756,838.5833333333333,111.22111742424241,840.9999999999999,111.21022727272727C843.4166666666666,111.19933712121211,845.8333333333333,111.18844696969698,848.25,111.17755681818183C850.6666666666666,111.16666666666667,853.0833333333334,111.15577651515152,855.5,111.14488636363636C857.9166666666666,111.1339962121212,860.3333333333334,111.12310606060606,862.75,111.1122159090909C865.1666666666666,111.10132575757575,867.5833333333334,111.09043560606061,870,111.07954545454545C872.4166666666666,111.0686553030303,874.8333333333334,111.05776515151516,877.25,111.046875C879.6666666666666,111.03598484848484,882.0833333333334,111.0250946969697,884.5,111.01420454545455C886.9166666666666,111.00331439393939,889.3333333333334,110.99242424242425,891.75,110.9815340909091C894.1666666666666,110.97064393939394,896.5833333333334,110.95975378787878,899,110.94886363636363C901.4166666666666,110.93797348484847,903.8333333333334,110.92708333333334,906.25,110.91619318181819C908.6666666666666,110.90530303030303,911.0833333333334,110.89441287878789,913.5,110.88352272727273C915.9166666666666,110.87263257575758,918.3333333333334,110.86174242424242,920.75,110.85085227272727C923.1666666666666,110.83996212121211,925.5833333333334,110.82907196969697,928,110.81818181818181C930.4166666666666,110.80729166666666,932.8333333333334,110.79640151515152,935.25,110.78551136363636C937.6666666666666,110.7746212121212,940.0833333333334,110.76373106060606,942.5,110.7528409090909C944.9166666666666,110.74195075757575,947.3333333333334,110.73106060606061,949.75,110.72017045454545C952.1666666666666,110.7092803030303,954.5833333333334,110.69839015151516,957,110.6875C959.4166666666666,110.67660984848484,961.8333333333334,110.66571969696969,964.25,110.65482954545453C966.6666666666667,110.64393939393938,969.0833333333334,110.63304924242425,971.5000000000001,110.6221590909091C973.9166666666667,110.61126893939395,976.3333333333335,110.6003787878788,978.7500000000001,110.58948863636364C981.1666666666667,110.57859848484848,983.5833333333335,110.56770833333334,986.0000000000001,110.55681818181819C988.4166666666667,110.54592803030303,990.8333333333335,110.53503787878788,993.2500000000001,110.52414772727272C995.6666666666667,110.51325757575756,998.0833333333333,110.50236742424244,1000.4999999999999,110.49147727272728C1002.9166666666665,110.48058712121212,1005.3333333333333,110.46969696969697,1007.7499999999999,110.45880681818181C1010.1666666666665,110.44791666666666,1012.5833333333333,110.43702651515152,1014.9999999999999,110.42613636363636C1017.4166666666665,110.4152462121212,1019.8333333333333,110.40435606060605,1022.2499999999999,110.3934659090909C1024.6666666666665,110.38257575757575,1027.0833333333333,110.37168560606062,1029.5,110.36079545454547C1031.9166666666667,110.34990530303031,1034.3333333333333,110.33901515151516,1036.75,110.328125C1039.1666666666667,110.31723484848484,1041.5833333333333,110.3063446969697,1044,110.29545454545455C1046.4166666666667,110.28456439393939,1048.8333333333333,110.27367424242425,1051.25,110.2627840909091C1053.6666666666667,110.25189393939394,1056.0833333333333,110.2410037878788,1058.5,110.23011363636364C1060.9166666666667,110.21922348484848,1063.3333333333333,110.20833333333334,1065.75,110.19744318181819C1068.1666666666667,110.18655303030303,1070.5833333333333,110.17566287878789,1073,110.16477272727273C1075.4166666666667,110.15388257575758,1077.8333333333333,110.14299242424242,1080.25,110.13210227272727C1082.6666666666667,110.12121212121211,1085.0833333333333,110.11032196969697,1087.5,110.09943181818181C1089.9166666666667,110.08854166666666,1092.3333333333333,110.07765151515153,1094.75,110.06676136363637C1097.1666666666667,110.05587121212122,1099.5833333333333,110.04498106060606,1102,110.0340909090909C1104.4166666666667,110.02320075757575,1106.8333333333333,110.01231060606061,1109.25,110.00142045454545C1111.6666666666667,109.9905303030303,1114.0833333333333,109.97964015151516,1116.5,109.96875C1118.9166666666667,109.95785984848484,1121.3333333333333,109.9469696969697,1123.75,109.93607954545455C1126.1666666666667,109.92518939393939,1128.5833333333333,109.91429924242425,1131,109.9034090909091C1133.4166666666667,109.89251893939394,1135.8333333333333,109.8816287878788,1138.25,109.87073863636364C1140.6666666666667,109.85984848484848,1143.0833333333333,109.84895833333333,1145.5,109.83806818181817C1147.9166666666667,109.82717803030302,1150.3333333333333,109.81628787878788,1152.75,109.80539772727273C1155.1666666666667,109.79450757575759,1157.5833333333333,109.79450757575758,1160,109.77272727272728C1162.4166666666667,109.75094696969698,1164.8333333333333,108.25681818181818,1167.25,107.49886363636364C1169.6666666666667,106.7409090909091,1172.0833333333333,105.98295454545456,1174.5,105.22500000000001C1176.9166666666667,104.46704545454546,1179.3333333333333,103.70909090909092,1181.75,102.95113636363637C1184.1666666666667,102.19318181818181,1186.5833333333333,101.43522727272727,1189,100.67727272727274C1191.4166666666667,99.9193181818182,1193.8333333333333,99.16136363636365,1196.25,98.4034090909091C1198.6666666666667,97.64545454545454,1201.0833333333333,96.88749999999999,1203.5,96.12954545454545C1205.9166666666667,95.37159090909091,1208.3333333333333,94.61363636363637,1210.75,93.85568181818182C1213.1666666666667,93.09772727272727,1215.5833333333333,92.33977272727273,1218,91.58181818181818C1220.4166666666667,90.82386363636363,1222.8333333333333,90.06590909090909,1225.25,89.30795454545455C1227.6666666666667,88.55000000000001,1230.0833333333333,87.79204545454544,1232.5,87.0340909090909C1234.9166666666667,86.27613636363637,1237.3333333333333,85.51818181818183,1239.75,84.76022727272728C1242.1666666666667,84.00227272727273,1244.5833333333333,83.24431818181819,1247,82.48636363636363C1249.4166666666667,81.72840909090908,1251.8333333333333,80.97045454545454,1254.25,80.2125C1256.6666666666667,79.45454545454547,1259.0833333333333,78.6965909090909,1261.5,77.93863636363636C1263.9166666666667,77.18068181818182,1266.3333333333333,76.42272727272729,1268.75,75.66477272727273C1271.1666666666667,74.90681818181818,1273.5833333333333,74.14886363636364,1276,73.39090909090909C1278.4166666666667,72.63295454545454,1280.8333333333333,71.875,1283.25,71.11704545454545C1285.6666666666667,70.3590909090909,1288.0833333333333,69.60113636363636,1290.5,68.84318181818182C1292.9166666666667,68.08522727272728,1295.3333333333333,67.32727272727271,1297.75,66.56931818181818C1300.1666666666667,65.81136363636364,1302.5833333333333,65.05340909090908,1305,64.29545454545455C1307.4166666666667,63.5375,1309.8333333333333,62.779545454545456,1312.25,62.02159090909091C1314.6666666666667,61.263636363636365,1317.0833333333333,60.50568181818182,1319.5,59.747727272727275C1321.9166666666667,58.98977272727273,1324.3333333333333,58.23181818181818,1326.75,57.47386363636363C1329.1666666666667,56.715909090909086,1331.5833333333333,55.957954545454555,1334,55.20000000000001C1336.4166666666667,54.442045454545465,1338.8333333333333,53.684090909090905,1341.25,52.92613636363636C1343.6666666666667,52.168181818181814,1346.0833333333333,51.41022727272727,1348.5,50.652272727272724C1350.9166666666667,49.89431818181818,1353.3333333333333,49.13636363636363,1355.75,48.37840909090909C1358.1666666666667,47.62045454545454,1360.5833333333333,46.8625,1363,46.10454545454545C1365.4166666666667,45.34659090909091,1367.8333333333333,44.58863636363636,1370.25,43.830681818181816C1372.6666666666667,43.07272727272727,1375.0833333333333,42.314772727272725,1377.5,41.55681818181818C1379.9166666666667,40.798863636363635,1382.3333333333333,40.040909090909096,1384.75,39.28295454545455C1387.1666666666667,38.525000000000006,1389.5833333333333,37.76704545454546,1392,37.009090909090915C1394.4166666666667,36.25113636363637,1396.8333333333333,35.49318181818181,1399.25,34.735227272727265C1401.6666666666667,33.97727272727272,1404.0833333333333,33.219318181818174,1406.5,32.46136363636363C1408.9166666666667,31.703409090909084,1411.3333333333333,30.945454545454538,1413.75,30.187499999999996C1416.1666666666667,29.429545454545455,1418.5833333333333,28.671590909090913,1421,27.91363636363637C1423.4166666666667,27.15568181818183,1425.8333333333333,26.39772727272728,1428.25,25.639772727272735C1430.6666666666667,24.88181818181819,1433.0833333333333,24.123863636363648,1435.5,23.3659090909091C1437.9166666666667,22.60795454545455,1440.3333333333333,21.849999999999994,1442.75,21.09204545454545C1445.1666666666667,20.334090909090904,1447.5833333333333,19.576136363636362,1450,18.818181818181824" fill="transparent" stroke-linecap="round" stroke="#B6509E" stroke-width="2"></path><path class="visx-linepath" d="M0,104.54545454542841C2.4166666666666665,104.54109848483324,4.833333333333334,104.53674242423807,7.25,104.53238636363636C9.666666666666666,104.52803030303465,12.083333333333334,104.52367424242424,14.5,104.51931818181818C16.916666666666668,104.51496212121212,19.333333333333332,104.51060606060605,21.75,104.50625C24.166666666666668,104.50189393939394,26.583333333333332,104.49753787878788,29,104.49318181818182C31.416666666666668,104.48882575757577,33.833333333333336,104.4844696969697,36.25,104.48011363636364C38.666666666666664,104.47575757575758,41.083333333333336,104.47140151515151,43.5,104.46704545454546C45.91666666666667,104.4626893939394,48.333333333333336,104.45833333333333,50.75000000000001,104.45397727272727C53.16666666666667,104.44962121212122,55.583333333333336,104.44526515151514,58,104.44090909090909C60.416666666666664,104.43655303030303,62.833333333333336,104.43219696969696,65.25,104.4278409090909C67.66666666666667,104.42348484848485,70.08333333333333,104.41912878787879,72.5,104.41477272727273C74.91666666666667,104.41041666666668,77.33333333333333,104.4060606060606,79.75,104.40170454545455C82.16666666666667,104.3973484848485,84.58333333333333,104.39299242424242,87,104.38863636363637C89.41666666666667,104.38428030303031,91.83333333333333,104.37992424242424,94.25,104.37556818181818C96.66666666666667,104.37121212121212,99.08333333333334,104.36685606060605,101.50000000000001,104.3625C103.91666666666667,104.35814393939394,106.33333333333334,104.35378787878787,108.75,104.34943181818181C111.16666666666667,104.34507575757576,113.58333333333333,104.34071969696969,116,104.33636363636363C118.41666666666667,104.33200757575757,120.83333333333334,104.32765151515152,123.25000000000001,104.32329545454546C125.66666666666667,104.3189393939394,128.08333333333334,104.31458333333332,130.5,104.31022727272726C132.91666666666666,104.3058712121212,135.33333333333334,104.30151515151515,137.75,104.29715909090909C140.16666666666666,104.29280303030303,142.58333333333334,104.28844696969696,145,104.2840909090909C147.41666666666666,104.27973484848485,149.83333333333334,104.2753787878788,152.25,104.27102272727274C154.66666666666666,104.26666666666668,157.08333333333334,104.26231060606061,159.5,104.25795454545455C161.91666666666666,104.2535984848485,164.33333333333334,104.24924242424242,166.75,104.24488636363637C169.16666666666666,104.24053030303031,171.58333333333334,104.23617424242424,174,104.23181818181818C176.41666666666666,104.22746212121213,178.83333333333334,104.22310606060606,181.25,104.21875C183.66666666666666,104.21439393939394,186.08333333333334,104.21003787878787,188.5,104.20568181818182C190.91666666666666,104.20132575757576,193.33333333333334,104.19696969696969,195.75,104.19261363636363C198.16666666666669,104.18825757575758,200.58333333333334,104.1839015151515,203.00000000000003,104.17954545454545C205.41666666666669,104.17518939393939,207.83333333333331,104.17083333333332,210.24999999999997,104.16647727272726C212.66666666666666,104.1621212121212,215.08333333333331,104.15776515151515,217.5,104.1534090909091C219.91666666666666,104.14905303030304,222.33333333333334,104.14469696969697,224.75,104.14034090909091C227.16666666666666,104.13598484848485,229.58333333333334,104.1316287878788,232,104.12727272727274C234.41666666666666,104.12291666666668,236.83333333333334,104.11856060606061,239.25,104.11420454545456C241.66666666666669,104.1098484848485,244.08333333333334,104.10549242424243,246.50000000000003,104.10113636363637C248.91666666666669,104.09678030303031,251.33333333333331,104.09242424242424,253.74999999999997,104.08806818181819C256.16666666666663,104.08371212121213,258.5833333333333,104.07935606060606,261,104.075C263.4166666666667,104.07064393939395,265.8333333333333,104.06628787878788,268.25,104.06193181818182C270.6666666666667,104.05757575757576,273.0833333333333,104.05321969696969,275.5,104.04886363636363C277.9166666666667,104.04450757575758,280.3333333333333,104.0401515151515,282.75,104.03579545454545C285.1666666666667,104.0314393939394,287.5833333333333,104.02708333333332,290,104.02272727272727C292.4166666666667,104.01837121212121,294.8333333333333,104.01401515151515,297.25,104.0096590909091C299.6666666666667,104.00530303030304,302.0833333333333,104.00094696969697,304.5,103.99659090909091C306.9166666666667,103.99223484848486,309.3333333333333,103.98787878787878,311.75,103.98352272727273C314.1666666666667,103.97916666666667,316.5833333333333,103.9748106060606,319,103.97045454545454C321.4166666666667,103.96609848484849,323.8333333333333,103.96174242424242,326.25,103.95738636363636C328.6666666666667,103.9530303030303,331.0833333333333,103.94867424242423,333.5,103.94431818181818C335.9166666666667,103.93996212121212,338.3333333333333,103.93560606060606,340.75,103.93125C343.1666666666667,103.92689393939395,345.5833333333333,103.92253787878788,348,103.91818181818182C350.4166666666667,103.91382575757576,352.8333333333333,103.9094696969697,355.25,103.90511363636364C357.6666666666667,103.90075757575758,360.0833333333333,103.89640151515151,362.5,103.89204545454545C364.9166666666667,103.8876893939394,367.3333333333333,103.88333333333333,369.75,103.87897727272727C372.1666666666667,103.87462121212121,374.5833333333333,103.87026515151516,377,103.8659090909091C379.4166666666667,103.86155303030304,381.8333333333333,103.85719696969697,384.25,103.85284090909092C386.6666666666667,103.84848484848486,389.0833333333333,103.84412878787879,391.5,103.83977272727273C393.9166666666667,103.83541666666667,396.33333333333337,103.8310606060606,398.75000000000006,103.82670454545455C401.16666666666674,103.82234848484849,403.58333333333337,103.81799242424242,406.00000000000006,103.81363636363636C408.4166666666667,103.8092803030303,410.8333333333333,103.80492424242424,413.24999999999994,103.80056818181818C415.66666666666663,103.79621212121212,418.08333333333326,103.79185606060605,420.49999999999994,103.7875C422.91666666666663,103.78314393939394,425.3333333333333,103.77878787878787,427.75,103.77443181818181C430.1666666666667,103.77007575757575,432.5833333333333,103.76571969696968,435,103.76136363636363C437.4166666666667,103.75700757575757,439.8333333333333,103.7526515151515,442.25,103.74829545454544C444.6666666666667,103.74393939393939,447.0833333333333,103.73958333333333,449.5,103.73522727272727C451.9166666666667,103.73087121212122,454.3333333333333,103.72651515151516,456.75,103.7221590909091C459.1666666666667,103.71780303030305,461.5833333333333,103.71344696969697,464,103.70909090909092C466.4166666666667,103.70473484848486,468.8333333333333,103.70037878787879,471.25,103.69602272727273C473.6666666666667,103.69166666666668,476.0833333333333,103.6873106060606,478.5,103.68295454545455C480.9166666666667,103.6785984848485,483.33333333333337,103.67424242424242,485.75000000000006,103.66988636363637C488.16666666666674,103.66553030303031,490.58333333333337,103.66117424242424,493.00000000000006,103.65681818181818C495.4166666666667,103.65246212121212,497.8333333333333,103.64810606060605,500.24999999999994,103.64375C502.66666666666663,103.63939393939394,505.08333333333326,103.63503787878787,507.49999999999994,103.63068181818181C509.91666666666663,103.62632575757576,512.3333333333333,103.62196969696969,514.75,103.61761363636363C517.1666666666666,103.61325757575757,519.5833333333334,103.6089015151515,522,103.60454545454544C524.4166666666666,103.60018939393939,526.8333333333334,103.59583333333333,529.25,103.59147727272727C531.6666666666666,103.58712121212122,534.0833333333334,103.58276515151515,536.5,103.57840909090909C538.9166666666666,103.57405303030303,541.3333333333334,103.56969696969698,543.75,103.56534090909092C546.1666666666666,103.56098484848486,548.5833333333334,103.5566287878788,551,103.55227272727274C553.4166666666666,103.54791666666668,555.8333333333334,103.54356060606061,558.25,103.53920454545455C560.6666666666666,103.5348484848485,563.0833333333334,103.53049242424242,565.5,103.52613636363637C567.9166666666666,103.52178030303031,570.3333333333334,103.51742424242424,572.75,103.51306818181818C575.1666666666666,103.50871212121213,577.5833333333334,103.50435606060606,580,103.5C582.4166666666666,103.49564393939394,584.8333333333334,103.49128787878787,587.25,103.48693181818182C589.6666666666666,103.48257575757576,592.0833333333334,103.47821969696969,594.5,103.47386363636363C596.9166666666666,103.46950757575758,599.3333333333334,103.4651515151515,601.75,103.46079545454545C604.1666666666666,103.45643939393939,606.5833333333334,103.45208333333333,609,103.44772727272728C611.4166666666666,103.44337121212122,613.8333333333334,103.43901515151515,616.25,103.4346590909091C618.6666666666666,103.43030303030304,621.0833333333334,103.42594696969697,623.5,103.42159090909091C625.9166666666666,103.41723484848485,628.3333333333334,103.41287878787878,630.75,103.40852272727273C633.1666666666666,103.40416666666667,635.5833333333334,103.3998106060606,638,103.39545454545454C640.4166666666666,103.39109848484848,642.8333333333334,103.38674242424241,645.25,103.38238636363636C647.6666666666666,103.3780303030303,650.0833333333334,103.37367424242424,652.5,103.36931818181819C654.9166666666666,103.36496212121213,657.3333333333334,103.36060606060606,659.75,103.35625C662.1666666666666,103.35189393939395,664.5833333333334,103.34753787878788,667,103.34318181818182C669.4166666666666,103.33882575757576,671.8333333333334,103.33446969696969,674.25,103.33011363636363C676.6666666666666,103.32575757575758,679.0833333333334,103.3214015151515,681.5,103.31704545454545C683.9166666666666,103.3126893939394,686.3333333333334,103.30833333333334,688.75,103.30397727272728C691.1666666666666,103.29962121212122,693.5833333333334,103.29526515151515,696,103.2909090909091C698.4166666666666,103.28655303030304,700.8333333333334,103.28219696969697,703.25,103.27784090909091C705.6666666666666,103.27348484848486,708.0833333333334,103.26912878787878,710.5,103.26477272727273C712.9166666666666,103.26041666666667,715.3333333333334,103.2560606060606,717.75,103.25170454545454C720.1666666666666,103.24734848484849,722.5833333333334,103.24299242424242,725,103.23863636363636C727.4166666666666,103.2342803030303,729.8333333333334,103.22992424242423,732.25,103.22556818181818C734.6666666666666,103.22121212121212,737.0833333333334,103.21685606060605,739.5,103.21249999999999C741.9166666666666,103.20814393939393,744.3333333333334,103.20378787878786,746.75,103.19943181818181C749.1666666666666,103.19507575757575,751.5833333333334,103.1907196969697,754,103.18636363636364C756.4166666666666,103.18200757575758,758.8333333333334,103.17765151515152,761.25,103.17329545454547C763.6666666666666,103.16893939393941,766.0833333333334,103.16458333333333,768.5,103.16022727272727C770.9166666666666,103.15587121212121,773.3333333333334,103.15151515151516,775.75,103.1471590909091C778.1666666666666,103.14280303030304,780.5833333333334,103.13844696969697,783,103.13409090909092C785.4166666666667,103.12973484848486,787.8333333333334,103.12537878787879,790.2500000000001,103.12102272727273C792.6666666666667,103.11666666666667,795.0833333333335,103.1123106060606,797.5000000000001,103.10795454545455C799.9166666666667,103.10359848484849,802.3333333333335,103.09924242424242,804.7500000000001,103.09488636363636C807.1666666666667,103.0905303030303,809.5833333333335,103.08617424242424,812.0000000000001,103.08181818181818C814.4166666666667,103.07746212121212,816.8333333333333,103.07310606060605,819.2499999999999,103.06875C821.6666666666665,103.06439393939394,824.0833333333333,103.06003787878787,826.4999999999999,103.05568181818181C828.9166666666665,103.05132575757575,831.3333333333333,103.0469696969697,833.7499999999999,103.04261363636364C836.1666666666665,103.03825757575758,838.5833333333333,103.03390151515151,840.9999999999999,103.02954545454546C843.4166666666666,103.0251893939394,845.8333333333333,103.02083333333333,848.25,103.01647727272727C850.6666666666666,103.01212121212122,853.0833333333334,103.00776515151516,855.5,103.0034090909091C857.9166666666666,102.99905303030305,860.3333333333334,102.99469696969696,862.75,102.9903409090909C865.1666666666666,102.98598484848485,867.5833333333334,102.98162878787879,870,102.97727272727273C872.4166666666666,102.97291666666668,874.8333333333334,102.96856060606059,877.25,102.96420454545454C879.6666666666666,102.95984848484848,882.0833333333334,102.95549242424242,884.5,102.95113636363637C886.9166666666666,102.94678030303031,889.3333333333334,102.94242424242424,891.75,102.93806818181818C894.1666666666666,102.93371212121212,896.5833333333334,102.92935606060605,899,102.925C901.4166666666666,102.92064393939394,903.8333333333334,102.91628787878787,906.25,102.91193181818181C908.6666666666666,102.90757575757576,911.0833333333334,102.9032196969697,913.5,102.89886363636364C915.9166666666666,102.89450757575759,918.3333333333334,102.89015151515152,920.75,102.88579545454546C923.1666666666666,102.8814393939394,925.5833333333334,102.87708333333333,928,102.87272727272727C930.4166666666666,102.86837121212122,932.8333333333334,102.86401515151515,935.25,102.85965909090909C937.6666666666666,102.85530303030303,940.0833333333334,102.85094696969696,942.5,102.8465909090909C944.9166666666666,102.84223484848485,947.3333333333334,102.83787878787878,949.75,102.83352272727272C952.1666666666666,102.82916666666667,954.5833333333334,102.8248106060606,957,102.82045454545454C959.4166666666666,102.81609848484848,961.8333333333334,102.81174242424241,964.25,102.80738636363635C966.6666666666667,102.8030303030303,969.0833333333334,102.79867424242423,971.5000000000001,102.79431818181817C973.9166666666667,102.78996212121211,976.3333333333335,102.78560606060606,978.7500000000001,102.78125C981.1666666666667,102.77689393939394,983.5833333333335,102.77253787878787,986.0000000000001,102.76818181818182C988.4166666666667,102.76382575757576,990.8333333333335,102.7594696969697,993.2500000000001,102.75511363636365C995.6666666666667,102.75075757575759,998.0833333333333,102.74640151515152,1000.4999999999999,102.74204545454546C1002.9166666666665,102.7376893939394,1005.3333333333333,102.73333333333333,1007.7499999999999,102.72897727272728C1010.1666666666665,102.72462121212122,1012.5833333333333,102.72026515151515,1014.9999999999999,102.7159090909091C1017.4166666666665,102.71155303030304,1019.8333333333333,102.70719696969697,1022.2499999999999,102.70284090909091C1024.6666666666665,102.69848484848485,1027.0833333333333,102.69412878787878,1029.5,102.68977272727273C1031.9166666666667,102.68541666666667,1034.3333333333333,102.6810606060606,1036.75,102.67670454545454C1039.1666666666667,102.67234848484848,1041.5833333333333,102.66799242424241,1044,102.66363636363636C1046.4166666666667,102.6592803030303,1048.8333333333333,102.65492424242423,1051.25,102.65056818181817C1053.6666666666667,102.64621212121212,1056.0833333333333,102.64185606060605,1058.5,102.63749999999999C1060.9166666666667,102.63314393939393,1063.3333333333333,102.62878787878788,1065.75,102.62443181818182C1068.1666666666667,102.62007575757576,1070.5833333333333,102.6157196969697,1073,102.61136363636365C1075.4166666666667,102.60700757575759,1077.8333333333333,102.60265151515152,1080.25,102.59829545454546C1082.6666666666667,102.59393939393941,1085.0833333333333,102.58958333333334,1087.5,102.58522727272728C1089.9166666666667,102.58087121212122,1092.3333333333333,102.57651515151515,1094.75,102.5721590909091C1097.1666666666667,102.56780303030304,1099.5833333333333,102.56344696969697,1102,102.55909090909091C1104.4166666666667,102.55473484848486,1106.8333333333333,102.55037878787878,1109.25,102.54602272727273C1111.6666666666667,102.54166666666667,1114.0833333333333,102.5373106060606,1116.5,102.53295454545454C1118.9166666666667,102.52859848484849,1121.3333333333333,102.52424242424242,1123.75,102.51988636363636C1126.1666666666667,102.5155303030303,1128.5833333333333,102.51117424242423,1131,102.50681818181818C1133.4166666666667,102.50246212121212,1135.8333333333333,102.49810606060605,1138.25,102.49374999999999C1140.6666666666667,102.48939393939393,1143.0833333333333,102.48503787878788,1145.5,102.48068181818182C1147.9166666666667,102.47632575757576,1150.3333333333333,102.4719696969697,1152.75,102.46761363636364C1155.1666666666667,102.46325757575758,1157.5833333333333,102.46325757575758,1160,102.45454545454545C1162.4166666666667,102.44583333333333,1164.8333333333333,101.14772727272727,1167.25,100.49431818181817C1169.6666666666667,99.84090909090908,1172.0833333333333,99.1875,1174.5,98.5340909090909C1176.9166666666667,97.88068181818181,1179.3333333333333,97.22727272727273,1181.75,96.57386363636364C1184.1666666666667,95.92045454545455,1186.5833333333333,95.26704545454545,1189,94.61363636363636C1191.4166666666667,93.96022727272727,1193.8333333333333,93.30681818181819,1196.25,92.6534090909091C1198.6666666666667,92,1201.0833333333333,91.3465909090909,1203.5,90.69318181818181C1205.9166666666667,90.03977272727272,1208.3333333333333,89.38636363636364,1210.75,88.73295454545455C1213.1666666666667,88.07954545454545,1215.5833333333333,87.42613636363636,1218,86.77272727272727C1220.4166666666667,86.11931818181817,1222.8333333333333,85.4659090909091,1225.25,84.8125C1227.6666666666667,84.1590909090909,1230.0833333333333,83.50568181818183,1232.5,82.85227272727273C1234.9166666666667,82.19886363636364,1237.3333333333333,81.54545454545455,1239.75,80.89204545454545C1242.1666666666667,80.23863636363636,1244.5833333333333,79.58522727272727,1247,78.93181818181817C1249.4166666666667,78.27840909090908,1251.8333333333333,77.625,1254.25,76.9715909090909C1256.6666666666667,76.31818181818181,1259.0833333333333,75.66477272727273,1261.5,75.01136363636364C1263.9166666666667,74.35795454545455,1266.3333333333333,73.70454545454545,1268.75,73.05113636363636C1271.1666666666667,72.39772727272727,1273.5833333333333,71.74431818181819,1276,71.0909090909091C1278.4166666666667,70.4375,1280.8333333333333,69.7840909090909,1283.25,69.13068181818181C1285.6666666666667,68.47727272727272,1288.0833333333333,67.82386363636364,1290.5,67.17045454545455C1292.9166666666667,66.51704545454545,1295.3333333333333,65.86363636363636,1297.75,65.21022727272727C1300.1666666666667,64.55681818181817,1302.5833333333333,63.90340909090909,1305,63.25000000000001C1307.4166666666667,62.59659090909092,1309.8333333333333,61.94318181818182,1312.25,61.28977272727273C1314.6666666666667,60.63636363636363,1317.0833333333333,59.98295454545455,1319.5,59.32954545454545C1321.9166666666667,58.67613636363636,1324.3333333333333,58.02272727272727,1326.75,57.36931818181819C1329.1666666666667,56.7159090909091,1331.5833333333333,56.062500000000014,1334,55.40909090909092C1336.4166666666667,54.75568181818183,1338.8333333333333,54.10227272727273,1341.25,53.44886363636363C1343.6666666666667,52.79545454545454,1346.0833333333333,52.142045454545446,1348.5,51.48863636363635C1350.9166666666667,50.83522727272726,1353.3333333333333,50.18181818181817,1355.75,49.528409090909086C1358.1666666666667,48.875,1360.5833333333333,48.221590909090914,1363,47.56818181818183C1365.4166666666667,46.91477272727274,1367.8333333333333,46.26136363636364,1370.25,45.60795454545455C1372.6666666666667,44.95454545454545,1375.0833333333333,44.30113636363635,1377.5,43.647727272727266C1379.9166666666667,42.99431818181818,1382.3333333333333,42.34090909090909,1384.75,41.68750000000001C1387.1666666666667,41.03409090909092,1389.5833333333333,40.38068181818182,1392,39.72727272727273C1394.4166666666667,39.07386363636363,1396.8333333333333,38.42045454545455,1399.25,37.76704545454545C1401.6666666666667,37.11363636363636,1404.0833333333333,36.46022727272728,1406.5,35.80681818181819C1408.9166666666667,35.15340909090909,1411.3333333333333,34.5,1413.75,33.84659090909091C1416.1666666666667,33.19318181818181,1418.5833333333333,32.53977272727272,1421,31.88636363636363C1423.4166666666667,31.23295454545454,1425.8333333333333,30.579545454545457,1428.25,29.926136363636367C1430.6666666666667,29.272727272727277,1433.0833333333333,28.61931818181818,1435.5,27.96590909090909C1437.9166666666667,27.3125,1440.3333333333333,26.659090909090914,1442.75,26.005681818181824C1445.1666666666667,25.352272727272734,1447.5833333333333,24.69886363636364,1450,24.045454545454547" fill="transparent" stroke-linecap="round" stroke="#E7C6DF" stroke-width="2"></path><g class="visx-group visx-axis visx-axis-bottom" transform="translate(0, 115)"><g class="visx-group visx-axis-tick" transform="translate(0, 0)"><line class="visx-line" x1="0" y1="0" x2="0" y2="8" fill="transparent" shape-rendering="crispEdges" stroke="#000" stroke-width="0" stroke-linecap="square"></line><svg x="0" y="0" font-size="10" style="overflow:visible"><text transform="" x="0" y="18" fill="#000" font-size="10" text-anchor="middle"><tspan x="0" dy="0em">0%</tspan></text></svg></g><g class="visx-group visx-axis-tick" transform="translate(0, 0)"><line class="visx-line" x1="362.5" y1="0" x2="362.5" y2="8" fill="transparent" shape-rendering="crispEdges" stroke="#000" stroke-width="0" stroke-linecap="square"></line><svg x="0" y="0" font-size="10" style="overflow:visible"><text transform="" x="362.5" y="18" fill="#000" font-size="10" text-anchor="middle"><tspan x="362.5" dy="0em">25%</tspan></text></svg></g><g class="visx-group visx-axis-tick" transform="translate(0, 0)"><line class="visx-line" x1="725" y1="0" x2="725" y2="8" fill="transparent" shape-rendering="crispEdges" stroke="#000" stroke-width="0" stroke-linecap="square"></line><svg x="0" y="0" font-size="10" style="overflow:visible"><text transform="" x="725" y="18" fill="#000" font-size="10" text-anchor="middle"><tspan x="725" dy="0em">50%</tspan></text></svg></g><g class="visx-group visx-axis-tick" transform="translate(0, 0)"><line class="visx-line" x1="1087.5" y1="0" x2="1087.5" y2="8" fill="transparent" shape-rendering="crispEdges" stroke="#000" stroke-width="0" stroke-linecap="square"></line><svg x="0" y="0" font-size="10" style="overflow:visible"><text transform="" x="1087.5" y="18" fill="#000" font-size="10" text-anchor="middle"><tspan x="1087.5" dy="0em">75%</tspan></text></svg></g><g class="visx-group visx-axis-tick" transform="translate(0, 0)"><line class="visx-line" x1="1450" y1="0" x2="1450" y2="8" fill="transparent" shape-rendering="crispEdges" stroke="#000" stroke-width="0" stroke-linecap="square"></line><svg x="0" y="0" font-size="10" style="overflow:visible"><text transform="" x="1450" y="18" fill="#000" font-size="10" text-anchor="middle"><tspan x="1450" dy="0em">100%</tspan></text></svg></g><line class="visx-line visx-axis-line" x1="0.5" y1="0" x2="1450.5" y2="0" fill="transparent" shape-rendering="crispEdges" stroke="#222" stroke-width="0"></line></g><g class="visx-group visx-axis visx-axis-left" transform="translate(0, 0)"><g class="visx-group visx-axis-tick" transform="translate(0, 0)"><line class="visx-line" x1="0" y1="115" x2="-8" y2="115" fill="transparent" shape-rendering="crispEdges" stroke="#222" stroke-width="0" stroke-linecap="square"></line><svg x="-30" y="0" font-size="8" style="overflow:visible"><text transform="" x="-8" y="115" fill="#000" font-size="8" text-anchor="start"><tspan x="-8" dy="0em">0%</tspan></text></svg></g><g class="visx-group visx-axis-tick" transform="translate(0, 0)"><line class="visx-line" x1="0" y1="62.72727272727272" x2="-8" y2="62.72727272727272" fill="transparent" shape-rendering="crispEdges" stroke="#222" stroke-width="0" stroke-linecap="square"></line><svg x="-30" y="0" font-size="8" style="overflow:visible"><text transform="" x="-8" y="62.72727272727272" fill="#000" font-size="8" text-anchor="start"><tspan x="-8" dy="0em">50%</tspan></text></svg></g><g class="visx-group visx-axis-tick" transform="translate(0, 0)"><line class="visx-line" x1="0" y1="10.454545454545459" x2="-8" y2="10.454545454545459" fill="transparent" shape-rendering="crispEdges" stroke="#222" stroke-width="0" stroke-linecap="square"></line><svg x="-30" y="0" font-size="8" style="overflow:visible"><text transform="" x="-8" y="10.454545454545459" fill="#000" font-size="8" text-anchor="start"><tspan x="-8" dy="0em">100%</tspan></text></svg></g><line class="visx-line visx-axis-line" x1="0" y1="115.5" x2="0" y2="0.5" fill="transparent" shape-rendering="crispEdges" stroke="#222" stroke-width="0"></line></g><rect class="visx-bar" width="1450" height="115" fill="transparent"></rect><line class="visx-line" x1="1160" y1="28" x2="1160" y2="115" fill="transparent" shape-rendering="crispEdges" stroke="#0062D2" stroke-width="1" pointer-events="none" stroke-dasharray="5,2"></line><svg x="0" y="0" font-size="10px" style="overflow:visible"><text transform="" x="1160" y="20" font-size="10px" fill="#fff" stroke="#fff" stroke-width="0.8em" text-anchor="middle"><tspan x="1160" dy="0.355em">Optimal 80%</tspan></text></svg><svg x="0" y="0" font-size="10px" style="overflow:visible"><text transform="" x="1160" y="20" font-size="10px" fill="#62677B" text-anchor="middle"><tspan x="1160" dy="0.355em">Optimal 80%</tspan></text></svg></g></svg>